G04*
G04 #@! TF.GenerationSoftware,Altium Limited,Altium Designer Agile,26.7.1 (25)*
G04*
G04 Layer_Color=8388736*
G04 Board_Origin=10000000|10000000*
%FSLAX44Y44*%
%MOMM*%
G71*
G04*
G04 #@! TF.SameCoordinates,4D417E49-0174-4A82-A51E-36D70FBCD84E*
G04*
G04*
G04 #@! TF.FilePolarity,Negative*
G04*
G01*
G75*
%ADD12C,2.0000*%
%ADD13R,1.3000X0.4000*%
%ADD14R,0.4000X1.3000*%
%ADD15R,1.2000X0.7000*%
%ADD16R,0.5000X1.0000*%
%ADD17R,0.7000X0.6000*%
%ADD18R,0.7000X1.1000*%
%ADD19R,1.3000X1.3000*%
%ADD20R,1.0000X0.9000*%
%ADD21C,2.1000*%
%ADD22R,0.6000X0.7000*%
%ADD23R,1.3000X1.5000*%
%ADD24R,4.1000X2.2000*%
%ADD25R,5.4000X2.1000*%
%ADD26R,1.1000X0.7000*%
%ADD27R,2.3000X3.1000*%
%ADD28R,0.4000X1.5000*%
%ADD29R,1.6000X2.6000*%
%ADD30R,1.5000X1.1000*%
%ADD31R,1.8000X1.8000*%
%ADD32C,1.8000*%
%ADD33R,1.7000X1.7000*%
%ADD34C,1.7000*%
%ADD35C,1.1000*%
%ADD36R,1.1000X1.1000*%
%ADD37R,2.3000X2.3000*%
%ADD38C,2.3000*%
%ADD39C,7.0000*%
D12*
X113993Y36000D02*
D03*
X36000Y445751D02*
D03*
X738908Y36000D02*
D03*
D13*
X459314Y187405D02*
D03*
X374314D02*
D03*
Y192405D02*
D03*
Y197405D02*
D03*
Y202405D02*
D03*
Y207405D02*
D03*
Y212405D02*
D03*
Y217405D02*
D03*
Y222405D02*
D03*
Y227405D02*
D03*
Y232405D02*
D03*
Y237405D02*
D03*
Y242405D02*
D03*
X459314D02*
D03*
Y237405D02*
D03*
Y232405D02*
D03*
Y227405D02*
D03*
Y222405D02*
D03*
Y217405D02*
D03*
Y212405D02*
D03*
Y207405D02*
D03*
Y202405D02*
D03*
Y197405D02*
D03*
Y192405D02*
D03*
D14*
X444314Y172405D02*
D03*
X439314D02*
D03*
X434314D02*
D03*
X429314D02*
D03*
X424314D02*
D03*
X419314D02*
D03*
X414314D02*
D03*
X409314D02*
D03*
X404314D02*
D03*
X399314D02*
D03*
X394314D02*
D03*
X389314D02*
D03*
Y257405D02*
D03*
X394314D02*
D03*
X399314D02*
D03*
X404314D02*
D03*
X409314D02*
D03*
X414314D02*
D03*
X419314D02*
D03*
X424314D02*
D03*
X429314D02*
D03*
X434314D02*
D03*
X439314D02*
D03*
X444314D02*
D03*
D15*
X555500Y228500D02*
D03*
Y238000D02*
D03*
Y247500D02*
D03*
X582500D02*
D03*
Y238000D02*
D03*
Y228500D02*
D03*
D16*
X721500Y233000D02*
D03*
X728000D02*
D03*
X734500D02*
D03*
Y255000D02*
D03*
X728000D02*
D03*
X721500D02*
D03*
D17*
X466500Y320000D02*
D03*
Y330000D02*
D03*
Y360000D02*
D03*
Y370000D02*
D03*
Y340000D02*
D03*
Y350000D02*
D03*
X477500Y370000D02*
D03*
Y360000D02*
D03*
X526616Y320000D02*
D03*
Y330000D02*
D03*
Y360000D02*
D03*
Y370000D02*
D03*
Y340000D02*
D03*
Y350000D02*
D03*
X537616Y370000D02*
D03*
Y360000D02*
D03*
X406250Y320000D02*
D03*
Y330000D02*
D03*
Y360000D02*
D03*
Y370000D02*
D03*
Y340000D02*
D03*
Y350000D02*
D03*
X417250Y370000D02*
D03*
Y360000D02*
D03*
X586500Y350000D02*
D03*
Y340000D02*
D03*
X597500Y360000D02*
D03*
Y370000D02*
D03*
X426333Y153470D02*
D03*
Y143470D02*
D03*
X586500Y370000D02*
D03*
Y360000D02*
D03*
Y330000D02*
D03*
Y320000D02*
D03*
X386000Y287000D02*
D03*
Y277000D02*
D03*
X447256Y143470D02*
D03*
Y153470D02*
D03*
X276000Y53000D02*
D03*
Y43000D02*
D03*
X661000Y209000D02*
D03*
Y199000D02*
D03*
X358000Y56500D02*
D03*
Y46500D02*
D03*
X544000Y261000D02*
D03*
Y271000D02*
D03*
X555000Y261000D02*
D03*
Y271000D02*
D03*
X588500Y261000D02*
D03*
Y271000D02*
D03*
X603000Y238000D02*
D03*
Y248000D02*
D03*
X566000Y271000D02*
D03*
Y261000D02*
D03*
X577000Y261000D02*
D03*
Y271000D02*
D03*
D18*
X453000Y337773D02*
D03*
X434000D02*
D03*
X443500Y316773D02*
D03*
X453000Y370500D02*
D03*
X434000D02*
D03*
X443500Y349500D02*
D03*
X513116Y337772D02*
D03*
X494116D02*
D03*
X503616Y316772D02*
D03*
X513116Y370500D02*
D03*
X494116D02*
D03*
X503616Y349500D02*
D03*
X392750Y337773D02*
D03*
X373750D02*
D03*
X383250Y316773D02*
D03*
X392750Y370500D02*
D03*
X373750D02*
D03*
X383250Y349500D02*
D03*
X563500D02*
D03*
X554000Y370500D02*
D03*
X573000D02*
D03*
X563500Y316773D02*
D03*
X554000Y337773D02*
D03*
X573000D02*
D03*
X334000Y35500D02*
D03*
X324500Y56500D02*
D03*
X343500D02*
D03*
D19*
X474500Y389000D02*
D03*
X442500D02*
D03*
X534616Y389000D02*
D03*
X502616D02*
D03*
X414250Y389000D02*
D03*
X382250D02*
D03*
X594500D02*
D03*
X562500D02*
D03*
D20*
X479500Y332000D02*
D03*
Y348000D02*
D03*
X539616Y332000D02*
D03*
Y348000D02*
D03*
X419250Y332000D02*
D03*
Y348000D02*
D03*
X599500D02*
D03*
Y332000D02*
D03*
X460000Y137000D02*
D03*
Y153000D02*
D03*
X289000Y52000D02*
D03*
Y36000D02*
D03*
X620000Y213000D02*
D03*
Y197000D02*
D03*
X634000Y213000D02*
D03*
Y197000D02*
D03*
X648000Y213000D02*
D03*
Y197000D02*
D03*
X620000Y232000D02*
D03*
Y248000D02*
D03*
X634000Y232000D02*
D03*
Y248000D02*
D03*
D21*
X599000Y297000D02*
D03*
X539106Y297000D02*
D03*
X707500Y177000D02*
D03*
X479500Y297000D02*
D03*
X419967Y297000D02*
D03*
X634000Y177000D02*
D03*
D22*
X491000Y223000D02*
D03*
X481000D02*
D03*
X697000Y255000D02*
D03*
X707000D02*
D03*
X481059Y244350D02*
D03*
X491059D02*
D03*
X706777Y244210D02*
D03*
X696777D02*
D03*
X491000Y234000D02*
D03*
X481000D02*
D03*
X346000Y184000D02*
D03*
X356000D02*
D03*
X491000Y185000D02*
D03*
X481000D02*
D03*
X724552Y214884D02*
D03*
X734552D02*
D03*
X481000Y212500D02*
D03*
X491000D02*
D03*
X481000Y196000D02*
D03*
X491000D02*
D03*
X734750Y201019D02*
D03*
X724750D02*
D03*
X696796Y233359D02*
D03*
X706796D02*
D03*
X556000Y216000D02*
D03*
X566000D02*
D03*
D23*
X522500Y193000D02*
D03*
Y215000D02*
D03*
X505500D02*
D03*
Y193000D02*
D03*
D24*
X815212Y271832D02*
D03*
Y209832D02*
D03*
X767000Y272000D02*
D03*
Y210000D02*
D03*
D25*
X809000Y301000D02*
D03*
Y369000D02*
D03*
D26*
X686500Y210000D02*
D03*
X707500Y219500D02*
D03*
Y200500D02*
D03*
D27*
X316000Y105000D02*
D03*
X167000D02*
D03*
D28*
X299000Y81000D02*
D03*
X294000D02*
D03*
X289000D02*
D03*
X284000D02*
D03*
X279000D02*
D03*
X274000D02*
D03*
X269000D02*
D03*
X264000D02*
D03*
X259000D02*
D03*
X254000D02*
D03*
X249000D02*
D03*
X244000D02*
D03*
X239000D02*
D03*
X234000D02*
D03*
X229000D02*
D03*
X224000D02*
D03*
X219000D02*
D03*
X214000D02*
D03*
X209000D02*
D03*
X204000D02*
D03*
X199000D02*
D03*
X194000D02*
D03*
X189000D02*
D03*
X184000D02*
D03*
D29*
X603000Y189000D02*
D03*
X566000D02*
D03*
D30*
X307000Y57000D02*
D03*
Y37000D02*
D03*
X344000Y93000D02*
D03*
Y73000D02*
D03*
D31*
X572000Y451000D02*
D03*
D32*
Y421000D02*
D03*
X602000Y451000D02*
D03*
Y421000D02*
D03*
X632000Y451000D02*
D03*
Y421000D02*
D03*
X662000Y451000D02*
D03*
Y421000D02*
D03*
X692000Y451000D02*
D03*
X722000D02*
D03*
Y421000D02*
D03*
X692000D02*
D03*
D33*
X494000Y483000D02*
D03*
D34*
X469000D02*
D03*
X444000D02*
D03*
X419000D02*
D03*
X394000D02*
D03*
D35*
X62300Y191200D02*
D03*
X75000D02*
D03*
X62300Y178500D02*
D03*
X75000D02*
D03*
X62300Y165800D02*
D03*
X75000D02*
D03*
X62300Y153100D02*
D03*
X75000D02*
D03*
X62300Y140400D02*
D03*
X75000D02*
D03*
X62300Y127700D02*
D03*
X75000D02*
D03*
X62300Y115000D02*
D03*
D36*
X75000D02*
D03*
D37*
X613624Y100000D02*
D03*
X407498D02*
D03*
D38*
X689824D02*
D03*
X483698D02*
D03*
D39*
X36000Y36000D02*
D03*
Y504000D02*
D03*
X814000Y36000D02*
D03*
Y504000D02*
D03*
M02*
