G04*
G04 #@! TF.GenerationSoftware,Altium Limited,Altium Designer Agile,26.7.1 (25)*
G04*
G04 Layer_Color=2752767*
G04 Board_Origin=10000000|10000000*
%FSLAX44Y44*%
%MOMM*%
G71*
G04*
G04 #@! TF.SameCoordinates,4D417E49-0174-4A82-A51E-36D70FBCD84E*
G04*
G04*
G04 #@! TF.FilePolarity,Positive*
G04*
G01*
G75*
%ADD61C,0.2540*%
%ADD75C,0.1270*%
%ADD76C,0.3810*%
%ADD77C,0.4064*%
D61*
X945025Y102002D02*
G03*
X945025Y102002I-8467J0D01*
G01*
X936559Y245935D02*
X945025Y262868D01*
X928092D02*
X945025D01*
X928092D02*
X936559Y245935D01*
X932325Y212068D02*
X936559Y207835D01*
X928092Y212068D02*
X932325D01*
X928092D02*
X932325Y216302D01*
X928092Y220535D02*
X932325Y216302D01*
X928092Y220535D02*
X932325D01*
X936559Y224768D01*
X940792Y220535D01*
X945025D01*
X940792Y216302D02*
X945025Y220535D01*
X940792Y216302D02*
X945025Y212068D01*
X940792D02*
X945025D01*
X936559Y207835D02*
X940792Y212068D01*
X928092Y169735D02*
X936559Y173968D01*
X945025Y169735D01*
X940792Y178202D02*
X945025Y169735D01*
X940792Y178202D02*
X945025Y186668D01*
X936559Y182435D02*
X945025Y186668D01*
X928092D02*
X936559Y182435D01*
X928092Y186668D02*
X932325Y178202D01*
X928092Y169735D02*
X932325Y178202D01*
X928092Y131635D02*
X945025D01*
Y148568D01*
X928092D02*
X945025D01*
X928092Y131635D02*
Y148568D01*
Y59668D02*
X932325D01*
X928092D02*
Y68135D01*
X932325D01*
Y72368D01*
X940792D01*
Y68135D02*
Y72368D01*
Y68135D02*
X945025D01*
Y59668D02*
Y68135D01*
X940792Y59668D02*
X945025D01*
X940792Y55435D02*
Y59668D01*
X932325Y55435D02*
X940792D01*
X932325D02*
Y59668D01*
X2546189Y245935D02*
X2541111Y251013D01*
Y256092D01*
X2546189Y261170D01*
X2553807Y245935D02*
Y261170D01*
X2558885Y256092D01*
X2563963Y261170D01*
Y245935D01*
X2569042D02*
X2574120D01*
X2571581D01*
Y256092D01*
X2569042D01*
X2581738D02*
X2591894Y245935D01*
X2586816Y251013D01*
X2591894Y256092D01*
X2581738Y245935D01*
X2604590D02*
X2599512D01*
X2596973Y248474D01*
Y253552D01*
X2599512Y256092D01*
X2604590D01*
X2607130Y253552D01*
Y251013D01*
X2596973D01*
X2622365Y261170D02*
Y245935D01*
X2614747D01*
X2612208Y248474D01*
Y253552D01*
X2614747Y256092D01*
X2622365D01*
X2627443Y245935D02*
X2632521Y251013D01*
Y256092D01*
X2627443Y261170D01*
X2551268Y217992D02*
X2543650D01*
X2541111Y215452D01*
Y210374D01*
X2543650Y207835D01*
X2551268D01*
X2566503Y223070D02*
X2561424Y220531D01*
X2556346Y215452D01*
Y210374D01*
X2558885Y207835D01*
X2563963D01*
X2566503Y210374D01*
Y212913D01*
X2563963Y215452D01*
X2556346D01*
X2571581Y210374D02*
X2574120Y207835D01*
X2579198D01*
X2581738Y210374D01*
Y220531D01*
X2579198Y223070D01*
X2574120D01*
X2571581Y220531D01*
Y217992D01*
X2574120Y215452D01*
X2581738D01*
X2586816Y220531D02*
X2589355Y223070D01*
X2594434D01*
X2596973Y220531D01*
Y210374D01*
X2594434Y207835D01*
X2589355D01*
X2586816Y210374D01*
Y220531D01*
X2602051Y223070D02*
Y207835D01*
Y215452D01*
X2604590Y217992D01*
X2609669D01*
X2612208Y215452D01*
Y207835D01*
X2617286Y220531D02*
X2619825Y223070D01*
X2624904D01*
X2627443Y220531D01*
Y217992D01*
X2624904Y215452D01*
X2622365D01*
X2624904D01*
X2627443Y212913D01*
Y210374D01*
X2624904Y207835D01*
X2619825D01*
X2617286Y210374D01*
X2632521Y207835D02*
X2637599D01*
X2635060D01*
Y223070D01*
X2632521Y220531D01*
X2645217D02*
X2647756Y223070D01*
X2652834D01*
X2655374Y220531D01*
Y210374D01*
X2652834Y207835D01*
X2647756D01*
X2645217Y210374D01*
Y220531D01*
X2660452Y207835D02*
Y217992D01*
X2662991D01*
X2665530Y215452D01*
Y207835D01*
Y215452D01*
X2668070Y217992D01*
X2670609Y215452D01*
Y207835D01*
X2675687Y223070D02*
X2685844D01*
Y220531D01*
X2675687Y210374D01*
Y207835D01*
X2690922Y220531D02*
X2693462Y223070D01*
X2698540D01*
X2701079Y220531D01*
Y210374D01*
X2698540Y207835D01*
X2693462D01*
X2690922Y210374D01*
Y220531D01*
X2706158D02*
X2708697Y223070D01*
X2713775D01*
X2716314Y220531D01*
Y210374D01*
X2713775Y207835D01*
X2708697D01*
X2706158Y210374D01*
Y220531D01*
X2721393Y202757D02*
Y217992D01*
X2729010D01*
X2731549Y215452D01*
Y210374D01*
X2729010Y207835D01*
X2721393D01*
X2736628Y220531D02*
X2739167Y223070D01*
X2744245D01*
X2746784Y220531D01*
Y210374D01*
X2744245Y207835D01*
X2739167D01*
X2736628Y210374D01*
Y220531D01*
X2546189Y169735D02*
X2541111Y174813D01*
Y179892D01*
X2546189Y184970D01*
X2553807Y169735D02*
Y184970D01*
X2558885Y179892D01*
X2563963Y184970D01*
Y169735D01*
X2569042D02*
X2574120D01*
X2571581D01*
Y179892D01*
X2569042D01*
X2581738D02*
X2591894Y169735D01*
X2586816Y174813D01*
X2591894Y179892D01*
X2581738Y169735D01*
X2604590D02*
X2599512D01*
X2596973Y172274D01*
Y177353D01*
X2599512Y179892D01*
X2604590D01*
X2607130Y177353D01*
Y174813D01*
X2596973D01*
X2622365Y184970D02*
Y169735D01*
X2614747D01*
X2612208Y172274D01*
Y177353D01*
X2614747Y179892D01*
X2622365D01*
X2627443Y169735D02*
X2632521Y174813D01*
Y179892D01*
X2627443Y184970D01*
X2546189Y131635D02*
X2541111Y136713D01*
Y141792D01*
X2546189Y146870D01*
X2553807Y131635D02*
Y146870D01*
X2558885Y141792D01*
X2563963Y146870D01*
Y131635D01*
X2569042D02*
X2574120D01*
X2571581D01*
Y141792D01*
X2569042D01*
X2581738D02*
X2591894Y131635D01*
X2586816Y136713D01*
X2591894Y141792D01*
X2581738Y131635D01*
X2604590D02*
X2599512D01*
X2596973Y134174D01*
Y139253D01*
X2599512Y141792D01*
X2604590D01*
X2607130Y139253D01*
Y136713D01*
X2596973D01*
X2622365Y146870D02*
Y131635D01*
X2614747D01*
X2612208Y134174D01*
Y139253D01*
X2614747Y141792D01*
X2622365D01*
X2627443Y131635D02*
X2632521Y136713D01*
Y141792D01*
X2627443Y146870D01*
X2546189Y93535D02*
X2541111Y98613D01*
Y103692D01*
X2546189Y108770D01*
X2553807Y93535D02*
Y108770D01*
X2558885Y103692D01*
X2563963Y108770D01*
Y93535D01*
X2569042D02*
X2574120D01*
X2571581D01*
Y103692D01*
X2569042D01*
X2581738D02*
X2591894Y93535D01*
X2586816Y98613D01*
X2591894Y103692D01*
X2581738Y93535D01*
X2604590D02*
X2599512D01*
X2596973Y96074D01*
Y101152D01*
X2599512Y103692D01*
X2604590D01*
X2607130Y101152D01*
Y98613D01*
X2596973D01*
X2622365Y108770D02*
Y93535D01*
X2614747D01*
X2612208Y96074D01*
Y101152D01*
X2614747Y103692D01*
X2622365D01*
X2627443Y93535D02*
X2632521Y98613D01*
Y103692D01*
X2627443Y108770D01*
X2546189Y55435D02*
X2541111Y60513D01*
Y65592D01*
X2546189Y70670D01*
X2553807Y55435D02*
Y70670D01*
X2558885Y65592D01*
X2563963Y70670D01*
Y55435D01*
X2569042D02*
X2574120D01*
X2571581D01*
Y65592D01*
X2569042D01*
X2581738D02*
X2591894Y55435D01*
X2586816Y60513D01*
X2591894Y65592D01*
X2581738Y55435D01*
X2604590D02*
X2599512D01*
X2596973Y57974D01*
Y63053D01*
X2599512Y65592D01*
X2604590D01*
X2607130Y63053D01*
Y60513D01*
X2596973D01*
X2622365Y70670D02*
Y55435D01*
X2614747D01*
X2612208Y57974D01*
Y63053D01*
X2614747Y65592D01*
X2622365D01*
X2627443Y55435D02*
X2632521Y60513D01*
Y65592D01*
X2627443Y70670D01*
X2356756Y245935D02*
X2351678Y251013D01*
Y256092D01*
X2356756Y261170D01*
X2364374Y245935D02*
Y261170D01*
X2369452Y256092D01*
X2374531Y261170D01*
Y245935D01*
X2379609D02*
X2384687D01*
X2382148D01*
Y256092D01*
X2379609D01*
X2392305D02*
X2402462Y245935D01*
X2397383Y251013D01*
X2402462Y256092D01*
X2392305Y245935D01*
X2415157D02*
X2410079D01*
X2407540Y248474D01*
Y253552D01*
X2410079Y256092D01*
X2415157D01*
X2417697Y253552D01*
Y251013D01*
X2407540D01*
X2432932Y261170D02*
Y245935D01*
X2425314D01*
X2422775Y248474D01*
Y253552D01*
X2425314Y256092D01*
X2432932D01*
X2438010Y245935D02*
X2443089Y251013D01*
Y256092D01*
X2438010Y261170D01*
X2351678Y207835D02*
Y223070D01*
X2359296D01*
X2361835Y220531D01*
Y215452D01*
X2359296Y212913D01*
X2351678D01*
X2356756D02*
X2361835Y207835D01*
X2369452D02*
X2374531D01*
X2377070Y210374D01*
Y215452D01*
X2374531Y217992D01*
X2369452D01*
X2366913Y215452D01*
Y210374D01*
X2369452Y207835D01*
X2382148Y217992D02*
Y210374D01*
X2384687Y207835D01*
X2392305D01*
Y217992D01*
X2397383Y207835D02*
Y217992D01*
X2405001D01*
X2407540Y215452D01*
Y207835D01*
X2422775Y223070D02*
Y207835D01*
X2415157D01*
X2412618Y210374D01*
Y215452D01*
X2415157Y217992D01*
X2422775D01*
X2435471Y207835D02*
X2430393D01*
X2427853Y210374D01*
Y215452D01*
X2430393Y217992D01*
X2435471D01*
X2438010Y215452D01*
Y212913D01*
X2427853D01*
X2453245Y223070D02*
Y207835D01*
X2445628D01*
X2443089Y210374D01*
Y215452D01*
X2445628Y217992D01*
X2453245D01*
X2356756Y169735D02*
X2351678Y174813D01*
Y179892D01*
X2356756Y184970D01*
X2364374Y169735D02*
Y184970D01*
X2369452Y179892D01*
X2374531Y184970D01*
Y169735D01*
X2379609D02*
X2384687D01*
X2382148D01*
Y179892D01*
X2379609D01*
X2392305D02*
X2402462Y169735D01*
X2397383Y174813D01*
X2402462Y179892D01*
X2392305Y169735D01*
X2415157D02*
X2410079D01*
X2407540Y172274D01*
Y177353D01*
X2410079Y179892D01*
X2415157D01*
X2417697Y177353D01*
Y174813D01*
X2407540D01*
X2432932Y184970D02*
Y169735D01*
X2425314D01*
X2422775Y172274D01*
Y177353D01*
X2425314Y179892D01*
X2432932D01*
X2438010Y169735D02*
X2443089Y174813D01*
Y179892D01*
X2438010Y184970D01*
X2356756Y131635D02*
X2351678Y136713D01*
Y141792D01*
X2356756Y146870D01*
X2364374Y131635D02*
Y146870D01*
X2369452Y141792D01*
X2374531Y146870D01*
Y131635D01*
X2379609D02*
X2384687D01*
X2382148D01*
Y141792D01*
X2379609D01*
X2392305D02*
X2402462Y131635D01*
X2397383Y136713D01*
X2402462Y141792D01*
X2392305Y131635D01*
X2415157D02*
X2410079D01*
X2407540Y134174D01*
Y139253D01*
X2410079Y141792D01*
X2415157D01*
X2417697Y139253D01*
Y136713D01*
X2407540D01*
X2432932Y146870D02*
Y131635D01*
X2425314D01*
X2422775Y134174D01*
Y139253D01*
X2425314Y141792D01*
X2432932D01*
X2438010Y131635D02*
X2443089Y136713D01*
Y141792D01*
X2438010Y146870D01*
X2356756Y93535D02*
X2351678Y98613D01*
Y103692D01*
X2356756Y108770D01*
X2364374Y93535D02*
Y108770D01*
X2369452Y103692D01*
X2374531Y108770D01*
Y93535D01*
X2379609D02*
X2384687D01*
X2382148D01*
Y103692D01*
X2379609D01*
X2392305D02*
X2402462Y93535D01*
X2397383Y98613D01*
X2402462Y103692D01*
X2392305Y93535D01*
X2415157D02*
X2410079D01*
X2407540Y96074D01*
Y101152D01*
X2410079Y103692D01*
X2415157D01*
X2417697Y101152D01*
Y98613D01*
X2407540D01*
X2432932Y108770D02*
Y93535D01*
X2425314D01*
X2422775Y96074D01*
Y101152D01*
X2425314Y103692D01*
X2432932D01*
X2438010Y93535D02*
X2443089Y98613D01*
Y103692D01*
X2438010Y108770D01*
X2351678Y55435D02*
Y70670D01*
X2359296D01*
X2361835Y68131D01*
Y63053D01*
X2359296Y60513D01*
X2351678D01*
X2356756D02*
X2361835Y55435D01*
X2369452D02*
X2374531D01*
X2377070Y57974D01*
Y63053D01*
X2374531Y65592D01*
X2369452D01*
X2366913Y63053D01*
Y57974D01*
X2369452Y55435D01*
X2382148Y65592D02*
Y57974D01*
X2384687Y55435D01*
X2392305D01*
Y65592D01*
X2397383Y55435D02*
Y65592D01*
X2405001D01*
X2407540Y63053D01*
Y55435D01*
X2422775Y70670D02*
Y55435D01*
X2415157D01*
X2412618Y57974D01*
Y63053D01*
X2415157Y65592D01*
X2422775D01*
X2435471Y55435D02*
X2430393D01*
X2427853Y57974D01*
Y63053D01*
X2430393Y65592D01*
X2435471D01*
X2438010Y63053D01*
Y60513D01*
X2427853D01*
X2453245Y70670D02*
Y55435D01*
X2445628D01*
X2443089Y57974D01*
Y63053D01*
X2445628Y65592D01*
X2453245D01*
X2201857Y245935D02*
Y261170D01*
X2209474D01*
X2212013Y258631D01*
Y253552D01*
X2209474Y251013D01*
X2201857D01*
X2219631Y256092D02*
X2224709D01*
X2227248Y253552D01*
Y245935D01*
X2219631D01*
X2217092Y248474D01*
X2219631Y251013D01*
X2227248D01*
X2242483Y261170D02*
Y245935D01*
X2234866D01*
X2232327Y248474D01*
Y253552D01*
X2234866Y256092D01*
X2242483D01*
X2201857Y207835D02*
Y223070D01*
X2209474D01*
X2212013Y220531D01*
Y215452D01*
X2209474Y212913D01*
X2201857D01*
X2219631Y217992D02*
X2224709D01*
X2227248Y215452D01*
Y207835D01*
X2219631D01*
X2217092Y210374D01*
X2219631Y212913D01*
X2227248D01*
X2242483Y223070D02*
Y207835D01*
X2234866D01*
X2232327Y210374D01*
Y215452D01*
X2234866Y217992D01*
X2242483D01*
X2201857Y169735D02*
Y184970D01*
X2209474D01*
X2212013Y182431D01*
Y177353D01*
X2209474Y174813D01*
X2201857D01*
X2219631Y179892D02*
X2224709D01*
X2227248Y177353D01*
Y169735D01*
X2219631D01*
X2217092Y172274D01*
X2219631Y174813D01*
X2227248D01*
X2242483Y184970D02*
Y169735D01*
X2234866D01*
X2232327Y172274D01*
Y177353D01*
X2234866Y179892D01*
X2242483D01*
X2201857Y131635D02*
Y146870D01*
X2209474D01*
X2212013Y144331D01*
Y139253D01*
X2209474Y136713D01*
X2201857D01*
X2219631Y141792D02*
X2224709D01*
X2227248Y139253D01*
Y131635D01*
X2219631D01*
X2217092Y134174D01*
X2219631Y136713D01*
X2227248D01*
X2242483Y146870D02*
Y131635D01*
X2234866D01*
X2232327Y134174D01*
Y139253D01*
X2234866Y141792D01*
X2242483D01*
X2201857Y93535D02*
Y108770D01*
X2209474D01*
X2212013Y106231D01*
Y101152D01*
X2209474Y98613D01*
X2201857D01*
X2219631Y103692D02*
X2224709D01*
X2227248Y101152D01*
Y93535D01*
X2219631D01*
X2217092Y96074D01*
X2219631Y98613D01*
X2227248D01*
X2242483Y108770D02*
Y93535D01*
X2234866D01*
X2232327Y96074D01*
Y101152D01*
X2234866Y103692D01*
X2242483D01*
X2201857Y70670D02*
Y60513D01*
X2206935Y55435D01*
X2212013Y60513D01*
Y70670D01*
X2217092Y55435D02*
X2222170D01*
X2219631D01*
Y65592D01*
X2217092D01*
X2232327D02*
X2237405D01*
X2239944Y63053D01*
Y55435D01*
X2232327D01*
X2229787Y57974D01*
X2232327Y60513D01*
X2239944D01*
X1820971Y261170D02*
X1831127D01*
X1826049D01*
Y245935D01*
X1838745D02*
X1843823D01*
X1846362Y248474D01*
Y253552D01*
X1843823Y256092D01*
X1838745D01*
X1836206Y253552D01*
Y248474D01*
X1838745Y245935D01*
X1851441Y240857D02*
Y256092D01*
X1859058D01*
X1861597Y253552D01*
Y248474D01*
X1859058Y245935D01*
X1851441D01*
X1881911Y261170D02*
Y245935D01*
X1892068D01*
X1899685Y256092D02*
X1904764D01*
X1907303Y253552D01*
Y245935D01*
X1899685D01*
X1897146Y248474D01*
X1899685Y251013D01*
X1907303D01*
X1912381Y256092D02*
Y248474D01*
X1914920Y245935D01*
X1922538D01*
Y243396D01*
X1919999Y240857D01*
X1917460D01*
X1922538Y245935D02*
Y256092D01*
X1935234Y245935D02*
X1930155D01*
X1927616Y248474D01*
Y253552D01*
X1930155Y256092D01*
X1935234D01*
X1937773Y253552D01*
Y251013D01*
X1927616D01*
X1942851Y256092D02*
Y245935D01*
Y251013D01*
X1945390Y253552D01*
X1947930Y256092D01*
X1950469D01*
X1973321Y253552D02*
X1983478D01*
X2003792Y261170D02*
Y245935D01*
X2011409D01*
X2013948Y248474D01*
Y251013D01*
X2011409Y253552D01*
X2003792D01*
X2011409D01*
X2013948Y256092D01*
Y258631D01*
X2011409Y261170D01*
X2003792D01*
X2021566Y245935D02*
X2026644D01*
X2029183Y248474D01*
Y253552D01*
X2026644Y256092D01*
X2021566D01*
X2019027Y253552D01*
Y248474D01*
X2021566Y245935D01*
X2036801Y258631D02*
Y256092D01*
X2034262D01*
X2039340D01*
X2036801D01*
Y248474D01*
X2039340Y245935D01*
X2049497Y258631D02*
Y256092D01*
X2046958D01*
X2052036D01*
X2049497D01*
Y248474D01*
X2052036Y245935D01*
X2062193D02*
X2067271D01*
X2069810Y248474D01*
Y253552D01*
X2067271Y256092D01*
X2062193D01*
X2059653Y253552D01*
Y248474D01*
X2062193Y245935D01*
X2074888D02*
Y256092D01*
X2077428D01*
X2079967Y253552D01*
Y245935D01*
Y253552D01*
X2082506Y256092D01*
X2085045Y253552D01*
Y245935D01*
X2105359Y261170D02*
Y245935D01*
X2115515D01*
X2123133Y256092D02*
X2128211D01*
X2130750Y253552D01*
Y245935D01*
X2123133D01*
X2120594Y248474D01*
X2123133Y251013D01*
X2130750D01*
X2135829Y256092D02*
Y248474D01*
X2138368Y245935D01*
X2145986D01*
Y243396D01*
X2143446Y240857D01*
X2140907D01*
X2145986Y245935D02*
Y256092D01*
X2158681Y245935D02*
X2153603D01*
X2151064Y248474D01*
Y253552D01*
X2153603Y256092D01*
X2158681D01*
X2161221Y253552D01*
Y251013D01*
X2151064D01*
X2166299Y256092D02*
Y245935D01*
Y251013D01*
X2168838Y253552D01*
X2171377Y256092D01*
X2173916D01*
X1820971Y223070D02*
X1831127D01*
X1826049D01*
Y207835D01*
X1838745D02*
X1843823D01*
X1846362Y210374D01*
Y215452D01*
X1843823Y217992D01*
X1838745D01*
X1836206Y215452D01*
Y210374D01*
X1838745Y207835D01*
X1851441Y202757D02*
Y217992D01*
X1859058D01*
X1861597Y215452D01*
Y210374D01*
X1859058Y207835D01*
X1851441D01*
X1881911Y223070D02*
Y207835D01*
X1892068D01*
X1899685Y217992D02*
X1904764D01*
X1907303Y215452D01*
Y207835D01*
X1899685D01*
X1897146Y210374D01*
X1899685Y212913D01*
X1907303D01*
X1912381Y217992D02*
Y210374D01*
X1914920Y207835D01*
X1922538D01*
Y205296D01*
X1919999Y202757D01*
X1917460D01*
X1922538Y207835D02*
Y217992D01*
X1935234Y207835D02*
X1930155D01*
X1927616Y210374D01*
Y215452D01*
X1930155Y217992D01*
X1935234D01*
X1937773Y215452D01*
Y212913D01*
X1927616D01*
X1942851Y217992D02*
Y207835D01*
Y212913D01*
X1945390Y215452D01*
X1947930Y217992D01*
X1950469D01*
X1973321Y215452D02*
X1983478D01*
X2003792Y223070D02*
Y207835D01*
X2011409D01*
X2013948Y210374D01*
Y212913D01*
X2011409Y215452D01*
X2003792D01*
X2011409D01*
X2013948Y217992D01*
Y220531D01*
X2011409Y223070D01*
X2003792D01*
X2021566Y207835D02*
X2026644D01*
X2029183Y210374D01*
Y215452D01*
X2026644Y217992D01*
X2021566D01*
X2019027Y215452D01*
Y210374D01*
X2021566Y207835D01*
X2036801Y220531D02*
Y217992D01*
X2034262D01*
X2039340D01*
X2036801D01*
Y210374D01*
X2039340Y207835D01*
X2049497Y220531D02*
Y217992D01*
X2046958D01*
X2052036D01*
X2049497D01*
Y210374D01*
X2052036Y207835D01*
X2062193D02*
X2067271D01*
X2069810Y210374D01*
Y215452D01*
X2067271Y217992D01*
X2062193D01*
X2059653Y215452D01*
Y210374D01*
X2062193Y207835D01*
X2074888D02*
Y217992D01*
X2077428D01*
X2079967Y215452D01*
Y207835D01*
Y215452D01*
X2082506Y217992D01*
X2085045Y215452D01*
Y207835D01*
X2105359Y223070D02*
Y207835D01*
X2115515D01*
X2123133Y217992D02*
X2128211D01*
X2130750Y215452D01*
Y207835D01*
X2123133D01*
X2120594Y210374D01*
X2123133Y212913D01*
X2130750D01*
X2135829Y217992D02*
Y210374D01*
X2138368Y207835D01*
X2145986D01*
Y205296D01*
X2143446Y202757D01*
X2140907D01*
X2145986Y207835D02*
Y217992D01*
X2158681Y207835D02*
X2153603D01*
X2151064Y210374D01*
Y215452D01*
X2153603Y217992D01*
X2158681D01*
X2161221Y215452D01*
Y212913D01*
X2151064D01*
X2166299Y217992D02*
Y207835D01*
Y212913D01*
X2168838Y215452D01*
X2171377Y217992D01*
X2173916D01*
X1820971Y184970D02*
X1831127D01*
X1826049D01*
Y169735D01*
X1838745D02*
X1843823D01*
X1846362Y172274D01*
Y177353D01*
X1843823Y179892D01*
X1838745D01*
X1836206Y177353D01*
Y172274D01*
X1838745Y169735D01*
X1851441Y164657D02*
Y179892D01*
X1859058D01*
X1861597Y177353D01*
Y172274D01*
X1859058Y169735D01*
X1851441D01*
X1881911Y184970D02*
Y169735D01*
X1892068D01*
X1899685Y179892D02*
X1904764D01*
X1907303Y177353D01*
Y169735D01*
X1899685D01*
X1897146Y172274D01*
X1899685Y174813D01*
X1907303D01*
X1912381Y179892D02*
Y172274D01*
X1914920Y169735D01*
X1922538D01*
Y167196D01*
X1919999Y164657D01*
X1917460D01*
X1922538Y169735D02*
Y179892D01*
X1935234Y169735D02*
X1930155D01*
X1927616Y172274D01*
Y177353D01*
X1930155Y179892D01*
X1935234D01*
X1937773Y177353D01*
Y174813D01*
X1927616D01*
X1942851Y179892D02*
Y169735D01*
Y174813D01*
X1945390Y177353D01*
X1947930Y179892D01*
X1950469D01*
X1973321Y177353D02*
X1983478D01*
X2003792Y184970D02*
Y169735D01*
X2011409D01*
X2013948Y172274D01*
Y174813D01*
X2011409Y177353D01*
X2003792D01*
X2011409D01*
X2013948Y179892D01*
Y182431D01*
X2011409Y184970D01*
X2003792D01*
X2021566Y169735D02*
X2026644D01*
X2029183Y172274D01*
Y177353D01*
X2026644Y179892D01*
X2021566D01*
X2019027Y177353D01*
Y172274D01*
X2021566Y169735D01*
X2036801Y182431D02*
Y179892D01*
X2034262D01*
X2039340D01*
X2036801D01*
Y172274D01*
X2039340Y169735D01*
X2049497Y182431D02*
Y179892D01*
X2046958D01*
X2052036D01*
X2049497D01*
Y172274D01*
X2052036Y169735D01*
X2062193D02*
X2067271D01*
X2069810Y172274D01*
Y177353D01*
X2067271Y179892D01*
X2062193D01*
X2059653Y177353D01*
Y172274D01*
X2062193Y169735D01*
X2074888D02*
Y179892D01*
X2077428D01*
X2079967Y177353D01*
Y169735D01*
Y177353D01*
X2082506Y179892D01*
X2085045Y177353D01*
Y169735D01*
X2105359Y184970D02*
Y169735D01*
X2115515D01*
X2123133Y179892D02*
X2128211D01*
X2130750Y177353D01*
Y169735D01*
X2123133D01*
X2120594Y172274D01*
X2123133Y174813D01*
X2130750D01*
X2135829Y179892D02*
Y172274D01*
X2138368Y169735D01*
X2145986D01*
Y167196D01*
X2143446Y164657D01*
X2140907D01*
X2145986Y169735D02*
Y179892D01*
X2158681Y169735D02*
X2153603D01*
X2151064Y172274D01*
Y177353D01*
X2153603Y179892D01*
X2158681D01*
X2161221Y177353D01*
Y174813D01*
X2151064D01*
X2166299Y179892D02*
Y169735D01*
Y174813D01*
X2168838Y177353D01*
X2171377Y179892D01*
X2173916D01*
X1820971Y146870D02*
X1831127D01*
X1826049D01*
Y131635D01*
X1838745D02*
X1843823D01*
X1846362Y134174D01*
Y139253D01*
X1843823Y141792D01*
X1838745D01*
X1836206Y139253D01*
Y134174D01*
X1838745Y131635D01*
X1851441Y126557D02*
Y141792D01*
X1859058D01*
X1861597Y139253D01*
Y134174D01*
X1859058Y131635D01*
X1851441D01*
X1881911Y146870D02*
Y131635D01*
X1892068D01*
X1899685Y141792D02*
X1904764D01*
X1907303Y139253D01*
Y131635D01*
X1899685D01*
X1897146Y134174D01*
X1899685Y136713D01*
X1907303D01*
X1912381Y141792D02*
Y134174D01*
X1914920Y131635D01*
X1922538D01*
Y129096D01*
X1919999Y126557D01*
X1917460D01*
X1922538Y131635D02*
Y141792D01*
X1935234Y131635D02*
X1930155D01*
X1927616Y134174D01*
Y139253D01*
X1930155Y141792D01*
X1935234D01*
X1937773Y139253D01*
Y136713D01*
X1927616D01*
X1942851Y141792D02*
Y131635D01*
Y136713D01*
X1945390Y139253D01*
X1947930Y141792D01*
X1950469D01*
X1973321Y139253D02*
X1983478D01*
X2003792Y146870D02*
Y131635D01*
X2011409D01*
X2013948Y134174D01*
Y136713D01*
X2011409Y139253D01*
X2003792D01*
X2011409D01*
X2013948Y141792D01*
Y144331D01*
X2011409Y146870D01*
X2003792D01*
X2021566Y131635D02*
X2026644D01*
X2029183Y134174D01*
Y139253D01*
X2026644Y141792D01*
X2021566D01*
X2019027Y139253D01*
Y134174D01*
X2021566Y131635D01*
X2036801Y144331D02*
Y141792D01*
X2034262D01*
X2039340D01*
X2036801D01*
Y134174D01*
X2039340Y131635D01*
X2049497Y144331D02*
Y141792D01*
X2046958D01*
X2052036D01*
X2049497D01*
Y134174D01*
X2052036Y131635D01*
X2062193D02*
X2067271D01*
X2069810Y134174D01*
Y139253D01*
X2067271Y141792D01*
X2062193D01*
X2059653Y139253D01*
Y134174D01*
X2062193Y131635D01*
X2074888D02*
Y141792D01*
X2077428D01*
X2079967Y139253D01*
Y131635D01*
Y139253D01*
X2082506Y141792D01*
X2085045Y139253D01*
Y131635D01*
X2105359Y146870D02*
Y131635D01*
X2115515D01*
X2123133Y141792D02*
X2128211D01*
X2130750Y139253D01*
Y131635D01*
X2123133D01*
X2120594Y134174D01*
X2123133Y136713D01*
X2130750D01*
X2135829Y141792D02*
Y134174D01*
X2138368Y131635D01*
X2145986D01*
Y129096D01*
X2143446Y126557D01*
X2140907D01*
X2145986Y131635D02*
Y141792D01*
X2158681Y131635D02*
X2153603D01*
X2151064Y134174D01*
Y139253D01*
X2153603Y141792D01*
X2158681D01*
X2161221Y139253D01*
Y136713D01*
X2151064D01*
X2166299Y141792D02*
Y131635D01*
Y136713D01*
X2168838Y139253D01*
X2171377Y141792D01*
X2173916D01*
X1820971Y108770D02*
X1831127D01*
X1826049D01*
Y93535D01*
X1838745D02*
X1843823D01*
X1846362Y96074D01*
Y101152D01*
X1843823Y103692D01*
X1838745D01*
X1836206Y101152D01*
Y96074D01*
X1838745Y93535D01*
X1851441Y88457D02*
Y103692D01*
X1859058D01*
X1861597Y101152D01*
Y96074D01*
X1859058Y93535D01*
X1851441D01*
X1881911Y108770D02*
Y93535D01*
X1892068D01*
X1899685Y103692D02*
X1904764D01*
X1907303Y101152D01*
Y93535D01*
X1899685D01*
X1897146Y96074D01*
X1899685Y98613D01*
X1907303D01*
X1912381Y103692D02*
Y96074D01*
X1914920Y93535D01*
X1922538D01*
Y90996D01*
X1919999Y88457D01*
X1917460D01*
X1922538Y93535D02*
Y103692D01*
X1935234Y93535D02*
X1930155D01*
X1927616Y96074D01*
Y101152D01*
X1930155Y103692D01*
X1935234D01*
X1937773Y101152D01*
Y98613D01*
X1927616D01*
X1942851Y103692D02*
Y93535D01*
Y98613D01*
X1945390Y101152D01*
X1947930Y103692D01*
X1950469D01*
X1973321Y101152D02*
X1983478D01*
X2003792Y108770D02*
Y93535D01*
X2011409D01*
X2013948Y96074D01*
Y98613D01*
X2011409Y101152D01*
X2003792D01*
X2011409D01*
X2013948Y103692D01*
Y106231D01*
X2011409Y108770D01*
X2003792D01*
X2021566Y93535D02*
X2026644D01*
X2029183Y96074D01*
Y101152D01*
X2026644Y103692D01*
X2021566D01*
X2019027Y101152D01*
Y96074D01*
X2021566Y93535D01*
X2036801Y106231D02*
Y103692D01*
X2034262D01*
X2039340D01*
X2036801D01*
Y96074D01*
X2039340Y93535D01*
X2049497Y106231D02*
Y103692D01*
X2046958D01*
X2052036D01*
X2049497D01*
Y96074D01*
X2052036Y93535D01*
X2062193D02*
X2067271D01*
X2069810Y96074D01*
Y101152D01*
X2067271Y103692D01*
X2062193D01*
X2059653Y101152D01*
Y96074D01*
X2062193Y93535D01*
X2074888D02*
Y103692D01*
X2077428D01*
X2079967Y101152D01*
Y93535D01*
Y101152D01*
X2082506Y103692D01*
X2085045Y101152D01*
Y93535D01*
X2105359Y108770D02*
Y93535D01*
X2115515D01*
X2123133Y103692D02*
X2128211D01*
X2130750Y101152D01*
Y93535D01*
X2123133D01*
X2120594Y96074D01*
X2123133Y98613D01*
X2130750D01*
X2135829Y103692D02*
Y96074D01*
X2138368Y93535D01*
X2145986D01*
Y90996D01*
X2143446Y88457D01*
X2140907D01*
X2145986Y93535D02*
Y103692D01*
X2158681Y93535D02*
X2153603D01*
X2151064Y96074D01*
Y101152D01*
X2153603Y103692D01*
X2158681D01*
X2161221Y101152D01*
Y98613D01*
X2151064D01*
X2166299Y103692D02*
Y93535D01*
Y98613D01*
X2168838Y101152D01*
X2171377Y103692D01*
X2173916D01*
X1820971Y70670D02*
X1831127D01*
X1826049D01*
Y55435D01*
X1838745D02*
X1843823D01*
X1846362Y57974D01*
Y63053D01*
X1843823Y65592D01*
X1838745D01*
X1836206Y63053D01*
Y57974D01*
X1838745Y55435D01*
X1851441Y50357D02*
Y65592D01*
X1859058D01*
X1861597Y63053D01*
Y57974D01*
X1859058Y55435D01*
X1851441D01*
X1881911Y70670D02*
Y55435D01*
X1892068D01*
X1899685Y65592D02*
X1904764D01*
X1907303Y63053D01*
Y55435D01*
X1899685D01*
X1897146Y57974D01*
X1899685Y60513D01*
X1907303D01*
X1912381Y65592D02*
Y57974D01*
X1914920Y55435D01*
X1922538D01*
Y52896D01*
X1919999Y50357D01*
X1917460D01*
X1922538Y55435D02*
Y65592D01*
X1935234Y55435D02*
X1930155D01*
X1927616Y57974D01*
Y63053D01*
X1930155Y65592D01*
X1935234D01*
X1937773Y63053D01*
Y60513D01*
X1927616D01*
X1942851Y65592D02*
Y55435D01*
Y60513D01*
X1945390Y63053D01*
X1947930Y65592D01*
X1950469D01*
X1973321Y63053D02*
X1983478D01*
X2003792Y70670D02*
Y55435D01*
X2011409D01*
X2013948Y57974D01*
Y60513D01*
X2011409Y63053D01*
X2003792D01*
X2011409D01*
X2013948Y65592D01*
Y68131D01*
X2011409Y70670D01*
X2003792D01*
X2021566Y55435D02*
X2026644D01*
X2029183Y57974D01*
Y63053D01*
X2026644Y65592D01*
X2021566D01*
X2019027Y63053D01*
Y57974D01*
X2021566Y55435D01*
X2036801Y68131D02*
Y65592D01*
X2034262D01*
X2039340D01*
X2036801D01*
Y57974D01*
X2039340Y55435D01*
X2049497Y68131D02*
Y65592D01*
X2046958D01*
X2052036D01*
X2049497D01*
Y57974D01*
X2052036Y55435D01*
X2062193D02*
X2067271D01*
X2069810Y57974D01*
Y63053D01*
X2067271Y65592D01*
X2062193D01*
X2059653Y63053D01*
Y57974D01*
X2062193Y55435D01*
X2074888D02*
Y65592D01*
X2077428D01*
X2079967Y63053D01*
Y55435D01*
Y63053D01*
X2082506Y65592D01*
X2085045Y63053D01*
Y55435D01*
X2105359Y70670D02*
Y55435D01*
X2115515D01*
X2123133Y65592D02*
X2128211D01*
X2130750Y63053D01*
Y55435D01*
X2123133D01*
X2120594Y57974D01*
X2123133Y60513D01*
X2130750D01*
X2135829Y65592D02*
Y57974D01*
X2138368Y55435D01*
X2145986D01*
Y52896D01*
X2143446Y50357D01*
X2140907D01*
X2145986Y55435D02*
Y65592D01*
X2158681Y55435D02*
X2153603D01*
X2151064Y57974D01*
Y63053D01*
X2153603Y65592D01*
X2158681D01*
X2161221Y63053D01*
Y60513D01*
X2151064D01*
X2166299Y65592D02*
Y55435D01*
Y60513D01*
X2168838Y63053D01*
X2171377Y65592D01*
X2173916D01*
X1634585Y245935D02*
Y261170D01*
X1642202D01*
X1644742Y258631D01*
Y253552D01*
X1642202Y251013D01*
X1634585D01*
X1639663D02*
X1644742Y245935D01*
X1652359D02*
X1657438D01*
X1659977Y248474D01*
Y253552D01*
X1657438Y256092D01*
X1652359D01*
X1649820Y253552D01*
Y248474D01*
X1652359Y245935D01*
X1665055Y256092D02*
Y248474D01*
X1667594Y245935D01*
X1675212D01*
Y256092D01*
X1680290Y245935D02*
Y256092D01*
X1687908D01*
X1690447Y253552D01*
Y245935D01*
X1705682Y261170D02*
Y245935D01*
X1698064D01*
X1695525Y248474D01*
Y253552D01*
X1698064Y256092D01*
X1705682D01*
X1634585Y207835D02*
Y223070D01*
X1642202D01*
X1644742Y220531D01*
Y215452D01*
X1642202Y212913D01*
X1634585D01*
X1639663D02*
X1644742Y207835D01*
X1652359D02*
X1657438D01*
X1659977Y210374D01*
Y215452D01*
X1657438Y217992D01*
X1652359D01*
X1649820Y215452D01*
Y210374D01*
X1652359Y207835D01*
X1665055Y217992D02*
Y210374D01*
X1667594Y207835D01*
X1675212D01*
Y217992D01*
X1680290Y207835D02*
Y217992D01*
X1687908D01*
X1690447Y215452D01*
Y207835D01*
X1705682Y223070D02*
Y207835D01*
X1698064D01*
X1695525Y210374D01*
Y215452D01*
X1698064Y217992D01*
X1705682D01*
X1634585Y169735D02*
Y184970D01*
X1642202D01*
X1644742Y182431D01*
Y177353D01*
X1642202Y174813D01*
X1634585D01*
X1639663D02*
X1644742Y169735D01*
X1652359D02*
X1657438D01*
X1659977Y172274D01*
Y177353D01*
X1657438Y179892D01*
X1652359D01*
X1649820Y177353D01*
Y172274D01*
X1652359Y169735D01*
X1665055Y179892D02*
Y172274D01*
X1667594Y169735D01*
X1675212D01*
Y179892D01*
X1680290Y169735D02*
Y179892D01*
X1687908D01*
X1690447Y177353D01*
Y169735D01*
X1705682Y184970D02*
Y169735D01*
X1698064D01*
X1695525Y172274D01*
Y177353D01*
X1698064Y179892D01*
X1705682D01*
X1634585Y131635D02*
Y146870D01*
X1642202D01*
X1644742Y144331D01*
Y139253D01*
X1642202Y136713D01*
X1634585D01*
X1639663D02*
X1644742Y131635D01*
X1652359D02*
X1657438D01*
X1659977Y134174D01*
Y139253D01*
X1657438Y141792D01*
X1652359D01*
X1649820Y139253D01*
Y134174D01*
X1652359Y131635D01*
X1665055Y141792D02*
Y134174D01*
X1667594Y131635D01*
X1675212D01*
Y141792D01*
X1680290Y131635D02*
Y141792D01*
X1687908D01*
X1690447Y139253D01*
Y131635D01*
X1705682Y146870D02*
Y131635D01*
X1698064D01*
X1695525Y134174D01*
Y139253D01*
X1698064Y141792D01*
X1705682D01*
X1634585Y93535D02*
Y108770D01*
X1642202D01*
X1644742Y106231D01*
Y101152D01*
X1642202Y98613D01*
X1634585D01*
X1639663D02*
X1644742Y93535D01*
X1652359D02*
X1657438D01*
X1659977Y96074D01*
Y101152D01*
X1657438Y103692D01*
X1652359D01*
X1649820Y101152D01*
Y96074D01*
X1652359Y93535D01*
X1665055Y103692D02*
Y96074D01*
X1667594Y93535D01*
X1675212D01*
Y103692D01*
X1680290Y93535D02*
Y103692D01*
X1687908D01*
X1690447Y101152D01*
Y93535D01*
X1705682Y108770D02*
Y93535D01*
X1698064D01*
X1695525Y96074D01*
Y101152D01*
X1698064Y103692D01*
X1705682D01*
X1634585Y55435D02*
Y70670D01*
X1642202D01*
X1644742Y68131D01*
Y63053D01*
X1642202Y60513D01*
X1634585D01*
X1639663D02*
X1644742Y55435D01*
X1652359D02*
X1657438D01*
X1659977Y57974D01*
Y63053D01*
X1657438Y65592D01*
X1652359D01*
X1649820Y63053D01*
Y57974D01*
X1652359Y55435D01*
X1665055Y65592D02*
Y57974D01*
X1667594Y55435D01*
X1675212D01*
Y65592D01*
X1680290Y55435D02*
Y65592D01*
X1687908D01*
X1690447Y63053D01*
Y55435D01*
X1705682Y70670D02*
Y55435D01*
X1698064D01*
X1695525Y57974D01*
Y63053D01*
X1698064Y65592D01*
X1705682D01*
X1506093Y245935D02*
Y261170D01*
X1513710D01*
X1516249Y258631D01*
Y253552D01*
X1513710Y251013D01*
X1506093D01*
X1521328Y261170D02*
X1531484D01*
X1526406D01*
Y245935D01*
X1536563Y261170D02*
Y245935D01*
Y253552D01*
X1546719D01*
Y261170D01*
Y245935D01*
X1506093Y207835D02*
Y223070D01*
X1513710D01*
X1516249Y220531D01*
Y215452D01*
X1513710Y212913D01*
X1506093D01*
X1521328Y223070D02*
X1531484D01*
X1526406D01*
Y207835D01*
X1536563Y223070D02*
Y207835D01*
Y215452D01*
X1546719D01*
Y223070D01*
Y207835D01*
X1506093Y169735D02*
Y184970D01*
X1513710D01*
X1516249Y182431D01*
Y177353D01*
X1513710Y174813D01*
X1506093D01*
X1521328Y184970D02*
X1531484D01*
X1526406D01*
Y169735D01*
X1536563Y184970D02*
Y169735D01*
Y177353D01*
X1546719D01*
Y184970D01*
Y169735D01*
X1506093Y131635D02*
Y146870D01*
X1513710D01*
X1516249Y144331D01*
Y139253D01*
X1513710Y136713D01*
X1506093D01*
X1521328Y146870D02*
X1531484D01*
X1526406D01*
Y131635D01*
X1536563Y146870D02*
Y131635D01*
Y139253D01*
X1546719D01*
Y146870D01*
Y131635D01*
X1506093Y93535D02*
Y108770D01*
X1513710D01*
X1516249Y106231D01*
Y101152D01*
X1513710Y98613D01*
X1506093D01*
X1521328Y108770D02*
X1531484D01*
X1526406D01*
Y93535D01*
X1536563Y108770D02*
Y93535D01*
Y101152D01*
X1546719D01*
Y108770D01*
Y93535D01*
X1506093Y55435D02*
Y70670D01*
X1513710D01*
X1516249Y68131D01*
Y63053D01*
X1513710Y60513D01*
X1506093D01*
X1521328Y70670D02*
X1531484D01*
X1526406D01*
Y55435D01*
X1536563Y70670D02*
Y55435D01*
Y63053D01*
X1546719D01*
Y70670D01*
Y55435D01*
X1216617Y245935D02*
X1221695D01*
X1219156D01*
Y261170D01*
X1216617Y258631D01*
X1229313Y245935D02*
Y248474D01*
X1231852D01*
Y245935D01*
X1229313D01*
X1252166Y261170D02*
X1242009D01*
Y253552D01*
X1247087Y256092D01*
X1249626D01*
X1252166Y253552D01*
Y248474D01*
X1249626Y245935D01*
X1244548D01*
X1242009Y248474D01*
X1257244Y258631D02*
X1259783Y261170D01*
X1264862D01*
X1267401Y258631D01*
Y248474D01*
X1264862Y245935D01*
X1259783D01*
X1257244Y248474D01*
Y258631D01*
X1272479D02*
X1275018Y261170D01*
X1280097D01*
X1282636Y258631D01*
Y248474D01*
X1280097Y245935D01*
X1275018D01*
X1272479Y248474D01*
Y258631D01*
X1287714Y245935D02*
Y256092D01*
X1290253D01*
X1292793Y253552D01*
Y245935D01*
Y253552D01*
X1295332Y256092D01*
X1297871Y253552D01*
Y245935D01*
X1302949D02*
Y256092D01*
X1305488D01*
X1308028Y253552D01*
Y245935D01*
Y253552D01*
X1310567Y256092D01*
X1313106Y253552D01*
Y245935D01*
X1338498D02*
X1333419Y251013D01*
Y256092D01*
X1338498Y261170D01*
X1356272D02*
X1346115D01*
Y253552D01*
X1351194Y256092D01*
X1353733D01*
X1356272Y253552D01*
Y248474D01*
X1353733Y245935D01*
X1348654D01*
X1346115Y248474D01*
X1361350D02*
X1363889Y245935D01*
X1368968D01*
X1371507Y248474D01*
Y258631D01*
X1368968Y261170D01*
X1363889D01*
X1361350Y258631D01*
Y256092D01*
X1363889Y253552D01*
X1371507D01*
X1376585Y245935D02*
Y248474D01*
X1379125D01*
Y245935D01*
X1376585D01*
X1389281Y258631D02*
X1391821Y261170D01*
X1396899D01*
X1399438Y258631D01*
Y248474D01*
X1396899Y245935D01*
X1391821D01*
X1389281Y248474D01*
Y258631D01*
X1414673Y261170D02*
X1409595Y258631D01*
X1404516Y253552D01*
Y248474D01*
X1407056Y245935D01*
X1412134D01*
X1414673Y248474D01*
Y251013D01*
X1412134Y253552D01*
X1404516D01*
X1419751Y245935D02*
Y256092D01*
X1422291D01*
X1424830Y253552D01*
Y245935D01*
Y253552D01*
X1427369Y256092D01*
X1429908Y253552D01*
Y245935D01*
X1434987D02*
X1440065D01*
X1437526D01*
Y256092D01*
X1434987D01*
X1447682Y245935D02*
X1452761D01*
X1450222D01*
Y261170D01*
X1447682D01*
X1460378Y245935D02*
X1465457Y251013D01*
Y256092D01*
X1460378Y261170D01*
X1216617Y220531D02*
X1219156Y223070D01*
X1224235D01*
X1226774Y220531D01*
Y217992D01*
X1224235Y215452D01*
X1221695D01*
X1224235D01*
X1226774Y212913D01*
Y210374D01*
X1224235Y207835D01*
X1219156D01*
X1216617Y210374D01*
X1231852Y207835D02*
Y210374D01*
X1234391D01*
Y207835D01*
X1231852D01*
X1244548D02*
X1249626D01*
X1247087D01*
Y223070D01*
X1244548Y220531D01*
X1257244D02*
X1259783Y223070D01*
X1264862D01*
X1267401Y220531D01*
Y210374D01*
X1264862Y207835D01*
X1259783D01*
X1257244Y210374D01*
Y220531D01*
X1272479D02*
X1275018Y223070D01*
X1280097D01*
X1282636Y220531D01*
Y210374D01*
X1280097Y207835D01*
X1275018D01*
X1272479Y210374D01*
Y220531D01*
X1287714Y207835D02*
Y217992D01*
X1290253D01*
X1292793Y215452D01*
Y207835D01*
Y215452D01*
X1295332Y217992D01*
X1297871Y215452D01*
Y207835D01*
X1302949D02*
Y217992D01*
X1305488D01*
X1308028Y215452D01*
Y207835D01*
Y215452D01*
X1310567Y217992D01*
X1313106Y215452D01*
Y207835D01*
X1338498D02*
X1333419Y212913D01*
Y217992D01*
X1338498Y223070D01*
X1346115Y207835D02*
X1351194D01*
X1348654D01*
Y223070D01*
X1346115Y220531D01*
X1368968Y207835D02*
X1358811D01*
X1368968Y217992D01*
Y220531D01*
X1366429Y223070D01*
X1361350D01*
X1358811Y220531D01*
X1384203Y207835D02*
X1374046D01*
X1384203Y217992D01*
Y220531D01*
X1381664Y223070D01*
X1376585D01*
X1374046Y220531D01*
X1389281Y207835D02*
Y210374D01*
X1391821D01*
Y207835D01*
X1389281D01*
X1401977Y220531D02*
X1404516Y223070D01*
X1409595D01*
X1412134Y220531D01*
Y210374D01*
X1409595Y207835D01*
X1404516D01*
X1401977Y210374D01*
Y220531D01*
X1427369Y223070D02*
X1417212D01*
Y215452D01*
X1422291Y217992D01*
X1424830D01*
X1427369Y215452D01*
Y210374D01*
X1424830Y207835D01*
X1419751D01*
X1417212Y210374D01*
X1432447Y207835D02*
Y217992D01*
X1434987D01*
X1437526Y215452D01*
Y207835D01*
Y215452D01*
X1440065Y217992D01*
X1442604Y215452D01*
Y207835D01*
X1447682D02*
X1452761D01*
X1450222D01*
Y217992D01*
X1447682D01*
X1460378Y207835D02*
X1465457D01*
X1462917D01*
Y223070D01*
X1460378D01*
X1473074Y207835D02*
X1478152Y212913D01*
Y217992D01*
X1473074Y223070D01*
X1216617Y182431D02*
X1219156Y184970D01*
X1224235D01*
X1226774Y182431D01*
Y172274D01*
X1224235Y169735D01*
X1219156D01*
X1216617Y172274D01*
Y182431D01*
X1231852Y169735D02*
Y172274D01*
X1234391D01*
Y169735D01*
X1231852D01*
X1244548Y172274D02*
X1247087Y169735D01*
X1252166D01*
X1254705Y172274D01*
Y182431D01*
X1252166Y184970D01*
X1247087D01*
X1244548Y182431D01*
Y179892D01*
X1247087Y177353D01*
X1254705D01*
X1259783Y182431D02*
X1262322Y184970D01*
X1267401D01*
X1269940Y182431D01*
Y172274D01*
X1267401Y169735D01*
X1262322D01*
X1259783Y172274D01*
Y182431D01*
X1275018D02*
X1277558Y184970D01*
X1282636D01*
X1285175Y182431D01*
Y172274D01*
X1282636Y169735D01*
X1277558D01*
X1275018Y172274D01*
Y182431D01*
X1290253Y169735D02*
Y179892D01*
X1292793D01*
X1295332Y177353D01*
Y169735D01*
Y177353D01*
X1297871Y179892D01*
X1300410Y177353D01*
Y169735D01*
X1305488D02*
Y179892D01*
X1308028D01*
X1310567Y177353D01*
Y169735D01*
Y177353D01*
X1313106Y179892D01*
X1315645Y177353D01*
Y169735D01*
X1341037D02*
X1335959Y174813D01*
Y179892D01*
X1341037Y184970D01*
X1348654Y182431D02*
X1351194Y184970D01*
X1356272D01*
X1358811Y182431D01*
Y179892D01*
X1356272Y177353D01*
X1353733D01*
X1356272D01*
X1358811Y174813D01*
Y172274D01*
X1356272Y169735D01*
X1351194D01*
X1348654Y172274D01*
X1374046Y184970D02*
X1363889D01*
Y177353D01*
X1368968Y179892D01*
X1371507D01*
X1374046Y177353D01*
Y172274D01*
X1371507Y169735D01*
X1366429D01*
X1363889Y172274D01*
X1379125Y169735D02*
Y172274D01*
X1381664D01*
Y169735D01*
X1379125D01*
X1399438D02*
Y184970D01*
X1391821Y177353D01*
X1401977D01*
X1407056Y182431D02*
X1409595Y184970D01*
X1414673D01*
X1417212Y182431D01*
Y179892D01*
X1414673Y177353D01*
X1412134D01*
X1414673D01*
X1417212Y174813D01*
Y172274D01*
X1414673Y169735D01*
X1409595D01*
X1407056Y172274D01*
X1422291Y169735D02*
Y179892D01*
X1424830D01*
X1427369Y177353D01*
Y169735D01*
Y177353D01*
X1429908Y179892D01*
X1432447Y177353D01*
Y169735D01*
X1437526D02*
X1442604D01*
X1440065D01*
Y179892D01*
X1437526D01*
X1450222Y169735D02*
X1455300D01*
X1452761D01*
Y184970D01*
X1450222D01*
X1462917Y169735D02*
X1467996Y174813D01*
Y179892D01*
X1462917Y184970D01*
X1216617Y131635D02*
X1221695D01*
X1219156D01*
Y146870D01*
X1216617Y144331D01*
X1229313Y131635D02*
Y134174D01*
X1231852D01*
Y131635D01*
X1229313D01*
X1242009D02*
X1247087D01*
X1244548D01*
Y146870D01*
X1242009Y144331D01*
X1254705D02*
X1257244Y146870D01*
X1262322D01*
X1264862Y144331D01*
Y134174D01*
X1262322Y131635D01*
X1257244D01*
X1254705Y134174D01*
Y144331D01*
X1269940D02*
X1272479Y146870D01*
X1277557D01*
X1280097Y144331D01*
Y134174D01*
X1277557Y131635D01*
X1272479D01*
X1269940Y134174D01*
Y144331D01*
X1285175Y131635D02*
Y141792D01*
X1287714D01*
X1290253Y139253D01*
Y131635D01*
Y139253D01*
X1292793Y141792D01*
X1295332Y139253D01*
Y131635D01*
X1300410D02*
Y141792D01*
X1302949D01*
X1305488Y139253D01*
Y131635D01*
Y139253D01*
X1308028Y141792D01*
X1310567Y139253D01*
Y131635D01*
X1335959D02*
X1330880Y136713D01*
Y141792D01*
X1335959Y146870D01*
X1351194Y131635D02*
Y146870D01*
X1343576Y139253D01*
X1353733D01*
X1358811Y144331D02*
X1361350Y146870D01*
X1366429D01*
X1368968Y144331D01*
Y141792D01*
X1366429Y139253D01*
X1363889D01*
X1366429D01*
X1368968Y136713D01*
Y134174D01*
X1366429Y131635D01*
X1361350D01*
X1358811Y134174D01*
X1374046Y131635D02*
Y134174D01*
X1376585D01*
Y131635D01*
X1374046D01*
X1386742Y144331D02*
X1389281Y146870D01*
X1394360D01*
X1396899Y144331D01*
Y141792D01*
X1394360Y139253D01*
X1391821D01*
X1394360D01*
X1396899Y136713D01*
Y134174D01*
X1394360Y131635D01*
X1389281D01*
X1386742Y134174D01*
X1401977Y131635D02*
X1407056D01*
X1404516D01*
Y146870D01*
X1401977Y144331D01*
X1414673Y131635D02*
Y141792D01*
X1417212D01*
X1419751Y139253D01*
Y131635D01*
Y139253D01*
X1422291Y141792D01*
X1424830Y139253D01*
Y131635D01*
X1429908D02*
X1434987D01*
X1432447D01*
Y141792D01*
X1429908D01*
X1442604Y131635D02*
X1447682D01*
X1445143D01*
Y146870D01*
X1442604D01*
X1455300Y131635D02*
X1460378Y136713D01*
Y141792D01*
X1455300Y146870D01*
X1216617Y106231D02*
X1219156Y108770D01*
X1224235D01*
X1226774Y106231D01*
Y96074D01*
X1224235Y93535D01*
X1219156D01*
X1216617Y96074D01*
Y106231D01*
X1231852Y93535D02*
Y96074D01*
X1234391D01*
Y93535D01*
X1231852D01*
X1254705Y108770D02*
X1249626Y106231D01*
X1244548Y101152D01*
Y96074D01*
X1247087Y93535D01*
X1252166D01*
X1254705Y96074D01*
Y98613D01*
X1252166Y101152D01*
X1244548D01*
X1269940Y108770D02*
X1259783D01*
Y101152D01*
X1264862Y103692D01*
X1267401D01*
X1269940Y101152D01*
Y96074D01*
X1267401Y93535D01*
X1262322D01*
X1259783Y96074D01*
X1275018Y106231D02*
X1277558Y108770D01*
X1282636D01*
X1285175Y106231D01*
Y96074D01*
X1282636Y93535D01*
X1277558D01*
X1275018Y96074D01*
Y106231D01*
X1290253Y93535D02*
Y103692D01*
X1292793D01*
X1295332Y101152D01*
Y93535D01*
Y101152D01*
X1297871Y103692D01*
X1300410Y101152D01*
Y93535D01*
X1305488D02*
Y103692D01*
X1308028D01*
X1310567Y101152D01*
Y93535D01*
Y101152D01*
X1313106Y103692D01*
X1315645Y101152D01*
Y93535D01*
X1341037D02*
X1335959Y98613D01*
Y103692D01*
X1341037Y108770D01*
X1358811Y93535D02*
X1348654D01*
X1358811Y103692D01*
Y106231D01*
X1356272Y108770D01*
X1351194D01*
X1348654Y106231D01*
X1374046Y108770D02*
X1363889D01*
Y101152D01*
X1368968Y103692D01*
X1371507D01*
X1374046Y101152D01*
Y96074D01*
X1371507Y93535D01*
X1366429D01*
X1363889Y96074D01*
X1379125Y93535D02*
Y96074D01*
X1381664D01*
Y93535D01*
X1379125D01*
X1401977Y108770D02*
X1391821D01*
Y101152D01*
X1396899Y103692D01*
X1399438D01*
X1401977Y101152D01*
Y96074D01*
X1399438Y93535D01*
X1394360D01*
X1391821Y96074D01*
X1407056D02*
X1409595Y93535D01*
X1414673D01*
X1417212Y96074D01*
Y106231D01*
X1414673Y108770D01*
X1409595D01*
X1407056Y106231D01*
Y103692D01*
X1409595Y101152D01*
X1417212D01*
X1422291Y93535D02*
Y103692D01*
X1424830D01*
X1427369Y101152D01*
Y93535D01*
Y101152D01*
X1429908Y103692D01*
X1432447Y101152D01*
Y93535D01*
X1437526D02*
X1442604D01*
X1440065D01*
Y103692D01*
X1437526D01*
X1450222Y93535D02*
X1455300D01*
X1452761D01*
Y108770D01*
X1450222D01*
X1462917Y93535D02*
X1467996Y98613D01*
Y103692D01*
X1462917Y108770D01*
X1216617Y68131D02*
X1219156Y70670D01*
X1224235D01*
X1226774Y68131D01*
Y57974D01*
X1224235Y55435D01*
X1219156D01*
X1216617Y57974D01*
Y68131D01*
X1231852Y55435D02*
Y57974D01*
X1234391D01*
Y55435D01*
X1231852D01*
X1244548Y68131D02*
X1247087Y70670D01*
X1252166D01*
X1254705Y68131D01*
Y65592D01*
X1252166Y63053D01*
X1249626D01*
X1252166D01*
X1254705Y60513D01*
Y57974D01*
X1252166Y55435D01*
X1247087D01*
X1244548Y57974D01*
X1259783Y68131D02*
X1262322Y70670D01*
X1267401D01*
X1269940Y68131D01*
Y57974D01*
X1267401Y55435D01*
X1262322D01*
X1259783Y57974D01*
Y68131D01*
X1285175Y70670D02*
X1275018D01*
Y63053D01*
X1280097Y65592D01*
X1282636D01*
X1285175Y63053D01*
Y57974D01*
X1282636Y55435D01*
X1277558D01*
X1275018Y57974D01*
X1290253Y55435D02*
Y65592D01*
X1292793D01*
X1295332Y63053D01*
Y55435D01*
Y63053D01*
X1297871Y65592D01*
X1300410Y63053D01*
Y55435D01*
X1305488D02*
Y65592D01*
X1308028D01*
X1310567Y63053D01*
Y55435D01*
Y63053D01*
X1313106Y65592D01*
X1315645Y63053D01*
Y55435D01*
X1341037D02*
X1335959Y60513D01*
Y65592D01*
X1341037Y70670D01*
X1348654Y55435D02*
X1353733D01*
X1351194D01*
Y70670D01*
X1348654Y68131D01*
X1371507Y55435D02*
X1361350D01*
X1371507Y65592D01*
Y68131D01*
X1368968Y70670D01*
X1363889D01*
X1361350Y68131D01*
X1376585Y55435D02*
Y57974D01*
X1379125D01*
Y55435D01*
X1376585D01*
X1389281Y68131D02*
X1391821Y70670D01*
X1396899D01*
X1399438Y68131D01*
Y57974D01*
X1396899Y55435D01*
X1391821D01*
X1389281Y57974D01*
Y68131D01*
X1404516D02*
X1407056Y70670D01*
X1412134D01*
X1414673Y68131D01*
Y57974D01*
X1412134Y55435D01*
X1407056D01*
X1404516Y57974D01*
Y68131D01*
X1419751Y55435D02*
Y65592D01*
X1422291D01*
X1424830Y63053D01*
Y55435D01*
Y63053D01*
X1427369Y65592D01*
X1429908Y63053D01*
Y55435D01*
X1434987D02*
X1440065D01*
X1437526D01*
Y65592D01*
X1434987D01*
X1447682Y55435D02*
X1452761D01*
X1450222D01*
Y70670D01*
X1447682D01*
X1460378Y55435D02*
X1465457Y60513D01*
Y65592D01*
X1460378Y70670D01*
X1074414Y17335D02*
X1064257D01*
X1074414Y27492D01*
Y30031D01*
X1071875Y32570D01*
X1066797D01*
X1064257Y30031D01*
X1079492Y19874D02*
X1082032Y17335D01*
X1087110D01*
X1089649Y19874D01*
Y30031D01*
X1087110Y32570D01*
X1082032D01*
X1079492Y30031D01*
Y27492D01*
X1082032Y24952D01*
X1089649D01*
X1094728Y30031D02*
X1097267Y32570D01*
X1102345D01*
X1104884Y30031D01*
Y27492D01*
X1102345Y24952D01*
X1104884Y22413D01*
Y19874D01*
X1102345Y17335D01*
X1097267D01*
X1094728Y19874D01*
Y22413D01*
X1097267Y24952D01*
X1094728Y27492D01*
Y30031D01*
X1097267Y24952D02*
X1102345D01*
X1125198Y32570D02*
X1135354D01*
X1130276D01*
Y17335D01*
X1142972D02*
X1148050D01*
X1150590Y19874D01*
Y24952D01*
X1148050Y27492D01*
X1142972D01*
X1140433Y24952D01*
Y19874D01*
X1142972Y17335D01*
X1158207Y30031D02*
Y27492D01*
X1155668D01*
X1160746D01*
X1158207D01*
Y19874D01*
X1160746Y17335D01*
X1170903Y27492D02*
X1175981D01*
X1178521Y24952D01*
Y17335D01*
X1170903D01*
X1168364Y19874D01*
X1170903Y22413D01*
X1178521D01*
X1183599Y17335D02*
X1188677D01*
X1186138D01*
Y32570D01*
X1183599D01*
X1071875Y245935D02*
Y261170D01*
X1064257Y253552D01*
X1074414D01*
X1071875Y207835D02*
Y223070D01*
X1064257Y215452D01*
X1074414D01*
Y184970D02*
X1064257D01*
Y177353D01*
X1069336Y179892D01*
X1071875D01*
X1074414Y177353D01*
Y172274D01*
X1071875Y169735D01*
X1066797D01*
X1064257Y172274D01*
Y131635D02*
X1069336D01*
X1066797D01*
Y146870D01*
X1064257Y144331D01*
X1087110Y131635D02*
X1076953D01*
X1087110Y141792D01*
Y144331D01*
X1084571Y146870D01*
X1079492D01*
X1076953Y144331D01*
X1064257Y93535D02*
X1069336D01*
X1066797D01*
Y108770D01*
X1064257Y106231D01*
X1084571Y93535D02*
Y108770D01*
X1076953Y101152D01*
X1087110D01*
X1074414Y55435D02*
X1064257D01*
X1074414Y65592D01*
Y68131D01*
X1071875Y70670D01*
X1066797D01*
X1064257Y68131D01*
X1089649Y70670D02*
X1079492D01*
Y63053D01*
X1084571Y65592D01*
X1087110D01*
X1089649Y63053D01*
Y57974D01*
X1087110Y55435D01*
X1082032D01*
X1079492Y57974D01*
X1094728D02*
X1097267Y55435D01*
X1102345D01*
X1104884Y57974D01*
Y68131D01*
X1102345Y70670D01*
X1097267D01*
X1094728Y68131D01*
Y65592D01*
X1097267Y63053D01*
X1104884D01*
D75*
X81350Y115000D02*
G03*
X81350Y115000I-6350J0D01*
G01*
X68650D02*
G03*
X68650Y115000I-6350J0D01*
G01*
X81350Y127700D02*
G03*
X81350Y127700I-6350J0D01*
G01*
X68650D02*
G03*
X68650Y127700I-6350J0D01*
G01*
X81350Y140400D02*
G03*
X81350Y140400I-6350J0D01*
G01*
X68650D02*
G03*
X68650Y140400I-6350J0D01*
G01*
X81350Y153100D02*
G03*
X81350Y153100I-6350J0D01*
G01*
X68650D02*
G03*
X68650Y153100I-6350J0D01*
G01*
X81350Y165800D02*
G03*
X81350Y165800I-6350J0D01*
G01*
X68650D02*
G03*
X68650Y165800I-6350J0D01*
G01*
X81350Y178500D02*
G03*
X81350Y178500I-6350J0D01*
G01*
X68650D02*
G03*
X68650Y178500I-6350J0D01*
G01*
X81350Y191200D02*
G03*
X81350Y191200I-6350J0D01*
G01*
X68650D02*
G03*
X68650Y191200I-6350J0D01*
G01*
X649650Y183825D02*
X652825D01*
X649650D02*
Y190175D01*
X652825D01*
Y193350D01*
X659175D01*
Y190175D02*
Y193350D01*
Y190175D02*
X662350D01*
Y183825D02*
Y190175D01*
X659175Y183825D02*
X662350D01*
X659175Y180650D02*
Y183825D01*
X652825Y180650D02*
X659175D01*
X652825D02*
Y183825D01*
X660650D02*
X663825D01*
X660650D02*
Y190175D01*
X663825D01*
Y193350D01*
X670175D01*
Y190175D02*
Y193350D01*
Y190175D02*
X673350D01*
Y183825D02*
Y190175D01*
X670175Y183825D02*
X673350D01*
X670175Y180650D02*
Y183825D01*
X663825Y180650D02*
X670175D01*
X663825D02*
Y183825D01*
X660650Y174825D02*
X663825D01*
X660650D02*
Y181175D01*
X663825D01*
Y184350D01*
X670175D01*
Y181175D02*
Y184350D01*
Y181175D02*
X673350D01*
Y174825D02*
Y181175D01*
X670175Y174825D02*
X673350D01*
X670175Y171650D02*
Y174825D01*
X663825Y171650D02*
X670175D01*
X663825D02*
Y174825D01*
X649650D02*
X652825D01*
X649650D02*
Y181175D01*
X652825D01*
Y184350D01*
X659175D01*
Y181175D02*
Y184350D01*
Y181175D02*
X662350D01*
Y174825D02*
Y181175D01*
X659175Y174825D02*
X662350D01*
X659175Y171650D02*
Y174825D01*
X652825Y171650D02*
X659175D01*
X652825D02*
Y174825D01*
X660650Y165825D02*
X663825D01*
X660650D02*
Y172175D01*
X663825D01*
Y175350D01*
X670175D01*
Y172175D02*
Y175350D01*
Y172175D02*
X673350D01*
Y165825D02*
Y172175D01*
X670175Y165825D02*
X673350D01*
X670175Y162650D02*
Y165825D01*
X663825Y162650D02*
X670175D01*
X663825D02*
Y165825D01*
X649650D02*
X652825D01*
X649650D02*
Y172175D01*
X652825D01*
Y175350D01*
X659175D01*
Y172175D02*
Y175350D01*
Y172175D02*
X662350D01*
Y165825D02*
Y172175D01*
X659175Y165825D02*
X662350D01*
X659175Y162650D02*
Y165825D01*
X652825Y162650D02*
X659175D01*
X652825D02*
Y165825D01*
X826650Y383825D02*
X829825D01*
X826650D02*
Y390175D01*
X829825D01*
Y393350D01*
X836175D01*
Y390175D02*
Y393350D01*
Y390175D02*
X839350D01*
Y383825D02*
Y390175D01*
X836175Y383825D02*
X839350D01*
X836175Y380650D02*
Y383825D01*
X829825Y380650D02*
X836175D01*
X829825D02*
Y383825D01*
X806650D02*
X809825D01*
X806650D02*
Y390175D01*
X809825D01*
Y393350D01*
X816175D01*
Y390175D02*
Y393350D01*
Y390175D02*
X819350D01*
Y383825D02*
Y390175D01*
X816175Y383825D02*
X819350D01*
X816175Y380650D02*
Y383825D01*
X809825Y380650D02*
X816175D01*
X809825D02*
Y383825D01*
X786650D02*
X789825D01*
X786650D02*
Y390175D01*
X789825D01*
Y393350D01*
X796175D01*
Y390175D02*
Y393350D01*
Y390175D02*
X799350D01*
Y383825D02*
Y390175D01*
X796175Y383825D02*
X799350D01*
X796175Y380650D02*
Y383825D01*
X789825Y380650D02*
X796175D01*
X789825D02*
Y383825D01*
X766650D02*
X769825D01*
X766650D02*
Y390175D01*
X769825D01*
Y393350D01*
X776175D01*
Y390175D02*
Y393350D01*
Y390175D02*
X779350D01*
Y383825D02*
Y390175D01*
X776175Y383825D02*
X779350D01*
X776175Y380650D02*
Y383825D01*
X769825Y380650D02*
X776175D01*
X769825D02*
Y383825D01*
X766650Y363825D02*
X769825D01*
X766650D02*
Y370175D01*
X769825D01*
Y373350D01*
X776175D01*
Y370175D02*
Y373350D01*
Y370175D02*
X779350D01*
Y363825D02*
Y370175D01*
X776175Y363825D02*
X779350D01*
X776175Y360650D02*
Y363825D01*
X769825Y360650D02*
X776175D01*
X769825D02*
Y363825D01*
X746650D02*
X749825D01*
X746650D02*
Y370175D01*
X749825D01*
Y373350D01*
X756175D01*
Y370175D02*
Y373350D01*
Y370175D02*
X759350D01*
Y363825D02*
Y370175D01*
X756175Y363825D02*
X759350D01*
X756175Y360650D02*
Y363825D01*
X749825Y360650D02*
X756175D01*
X749825D02*
Y363825D01*
X746650Y383825D02*
X749825D01*
X746650D02*
Y390175D01*
X749825D01*
Y393350D01*
X756175D01*
Y390175D02*
Y393350D01*
Y390175D02*
X759350D01*
Y383825D02*
Y390175D01*
X756175Y383825D02*
X759350D01*
X756175Y380650D02*
Y383825D01*
X749825Y380650D02*
X756175D01*
X749825D02*
Y383825D01*
X746650Y403825D02*
X749825D01*
X746650D02*
Y410175D01*
X749825D01*
Y413350D01*
X756175D01*
Y410175D02*
Y413350D01*
Y410175D02*
X759350D01*
Y403825D02*
Y410175D01*
X756175Y403825D02*
X759350D01*
X756175Y400650D02*
Y403825D01*
X749825Y400650D02*
X756175D01*
X749825D02*
Y403825D01*
X766650D02*
X769825D01*
X766650D02*
Y410175D01*
X769825D01*
Y413350D01*
X776175D01*
Y410175D02*
Y413350D01*
Y410175D02*
X779350D01*
Y403825D02*
Y410175D01*
X776175Y403825D02*
X779350D01*
X776175Y400650D02*
Y403825D01*
X769825Y400650D02*
X776175D01*
X769825D02*
Y403825D01*
X786650D02*
X789825D01*
X786650D02*
Y410175D01*
X789825D01*
Y413350D01*
X796175D01*
Y410175D02*
Y413350D01*
Y410175D02*
X799350D01*
Y403825D02*
Y410175D01*
X796175Y403825D02*
X799350D01*
X796175Y400650D02*
Y403825D01*
X789825Y400650D02*
X796175D01*
X789825D02*
Y403825D01*
X806650D02*
X809825D01*
X806650D02*
Y410175D01*
X809825D01*
Y413350D01*
X816175D01*
Y410175D02*
Y413350D01*
Y410175D02*
X819350D01*
Y403825D02*
Y410175D01*
X816175Y403825D02*
X819350D01*
X816175Y400650D02*
Y403825D01*
X809825Y400650D02*
X816175D01*
X809825D02*
Y403825D01*
X826650D02*
X829825D01*
X826650D02*
Y410175D01*
X829825D01*
Y413350D01*
X836175D01*
Y410175D02*
Y413350D01*
Y410175D02*
X839350D01*
Y403825D02*
Y410175D01*
X836175Y403825D02*
X839350D01*
X836175Y400650D02*
Y403825D01*
X829825Y400650D02*
X836175D01*
X829825D02*
Y403825D01*
X826650Y423825D02*
X829825D01*
X826650D02*
Y430175D01*
X829825D01*
Y433350D01*
X836175D01*
Y430175D02*
Y433350D01*
Y430175D02*
X839350D01*
Y423825D02*
Y430175D01*
X836175Y423825D02*
X839350D01*
X836175Y420650D02*
Y423825D01*
X829825Y420650D02*
X836175D01*
X829825D02*
Y423825D01*
X806650D02*
X809825D01*
X806650D02*
Y430175D01*
X809825D01*
Y433350D01*
X816175D01*
Y430175D02*
Y433350D01*
Y430175D02*
X819350D01*
Y423825D02*
Y430175D01*
X816175Y423825D02*
X819350D01*
X816175Y420650D02*
Y423825D01*
X809825Y420650D02*
X816175D01*
X809825D02*
Y423825D01*
X786650D02*
X789825D01*
X786650D02*
Y430175D01*
X789825D01*
Y433350D01*
X796175D01*
Y430175D02*
Y433350D01*
Y430175D02*
X799350D01*
Y423825D02*
Y430175D01*
X796175Y423825D02*
X799350D01*
X796175Y420650D02*
Y423825D01*
X789825Y420650D02*
X796175D01*
X789825D02*
Y423825D01*
X766650D02*
X769825D01*
X766650D02*
Y430175D01*
X769825D01*
Y433350D01*
X776175D01*
Y430175D02*
Y433350D01*
Y430175D02*
X779350D01*
Y423825D02*
Y430175D01*
X776175Y423825D02*
X779350D01*
X776175Y420650D02*
Y423825D01*
X769825Y420650D02*
X776175D01*
X769825D02*
Y423825D01*
X746650D02*
X749825D01*
X746650D02*
Y430175D01*
X749825D01*
Y433350D01*
X756175D01*
Y430175D02*
Y433350D01*
Y430175D02*
X759350D01*
Y423825D02*
Y430175D01*
X756175Y423825D02*
X759350D01*
X756175Y420650D02*
Y423825D01*
X749825Y420650D02*
X756175D01*
X749825D02*
Y423825D01*
X726650Y403825D02*
X729825D01*
X726650D02*
Y410175D01*
X729825D01*
Y413350D01*
X736175D01*
Y410175D02*
Y413350D01*
Y410175D02*
X739350D01*
Y403825D02*
Y410175D01*
X736175Y403825D02*
X739350D01*
X736175Y400650D02*
Y403825D01*
X729825Y400650D02*
X736175D01*
X729825D02*
Y403825D01*
X726650Y383825D02*
X729825D01*
X726650D02*
Y390175D01*
X729825D01*
Y393350D01*
X736175D01*
Y390175D02*
Y393350D01*
Y390175D02*
X739350D01*
Y383825D02*
Y390175D01*
X736175Y383825D02*
X739350D01*
X736175Y380650D02*
Y383825D01*
X729825Y380650D02*
X736175D01*
X729825D02*
Y383825D01*
X726650Y363825D02*
X729825D01*
X726650D02*
Y370175D01*
X729825D01*
Y373350D01*
X736175D01*
Y370175D02*
Y373350D01*
Y370175D02*
X739350D01*
Y363825D02*
Y370175D01*
X736175Y363825D02*
X739350D01*
X736175Y360650D02*
Y363825D01*
X729825Y360650D02*
X736175D01*
X729825D02*
Y363825D01*
X706563Y403899D02*
X709738D01*
X706563D02*
Y410249D01*
X709738D01*
Y413424D01*
X716088D01*
Y410249D02*
Y413424D01*
Y410249D02*
X719263D01*
Y403899D02*
Y410249D01*
X716088Y403899D02*
X719263D01*
X716088Y400724D02*
Y403899D01*
X709738Y400724D02*
X716088D01*
X709738D02*
Y403899D01*
X706563Y383899D02*
X709738D01*
X706563D02*
Y390249D01*
X709738D01*
Y393424D01*
X716088D01*
Y390249D02*
Y393424D01*
Y390249D02*
X719263D01*
Y383899D02*
Y390249D01*
X716088Y383899D02*
X719263D01*
X716088Y380724D02*
Y383899D01*
X709738Y380724D02*
X716088D01*
X709738D02*
Y383899D01*
X706563Y363899D02*
X709738D01*
X706563D02*
Y370249D01*
X709738D01*
Y373424D01*
X716088D01*
Y370249D02*
Y373424D01*
Y370249D02*
X719263D01*
Y363899D02*
Y370249D01*
X716088Y363899D02*
X719263D01*
X716088Y360724D02*
Y363899D01*
X709738Y360724D02*
X716088D01*
X709738D02*
Y363899D01*
X686570Y403899D02*
X689745D01*
X686570D02*
Y410249D01*
X689745D01*
Y413424D01*
X696095D01*
Y410249D02*
Y413424D01*
Y410249D02*
X699270D01*
Y403899D02*
Y410249D01*
X696095Y403899D02*
X699270D01*
X696095Y400724D02*
Y403899D01*
X689745Y400724D02*
X696095D01*
X689745D02*
Y403899D01*
X686570Y383899D02*
X689745D01*
X686570D02*
Y390249D01*
X689745D01*
Y393424D01*
X696095D01*
Y390249D02*
Y393424D01*
Y390249D02*
X699270D01*
Y383899D02*
Y390249D01*
X696095Y383899D02*
X699270D01*
X696095Y380724D02*
Y383899D01*
X689745Y380724D02*
X696095D01*
X689745D02*
Y383899D01*
X686570Y363899D02*
X689745D01*
X686570D02*
Y370249D01*
X689745D01*
Y373424D01*
X696095D01*
Y370249D02*
Y373424D01*
Y370249D02*
X699270D01*
Y363899D02*
Y370249D01*
X696095Y363899D02*
X699270D01*
X696095Y360724D02*
Y363899D01*
X689745Y360724D02*
X696095D01*
X689745D02*
Y363899D01*
X744650Y302825D02*
X747825D01*
X744650D02*
Y309175D01*
X747825D01*
Y312350D01*
X754175D01*
Y309175D02*
Y312350D01*
Y309175D02*
X757350D01*
Y302825D02*
Y309175D01*
X754175Y302825D02*
X757350D01*
X754175Y299650D02*
Y302825D01*
X747825Y299650D02*
X754175D01*
X747825D02*
Y302825D01*
X744650Y290825D02*
X747825D01*
X744650D02*
Y297175D01*
X747825D01*
Y300350D01*
X754175D01*
Y297175D02*
Y300350D01*
Y297175D02*
X757350D01*
Y290825D02*
Y297175D01*
X754175Y290825D02*
X757350D01*
X754175Y287650D02*
Y290825D01*
X747825Y287650D02*
X754175D01*
X747825D02*
Y290825D01*
X755650D02*
X758825D01*
X755650D02*
Y297175D01*
X758825D01*
Y300350D01*
X765175D01*
Y297175D02*
Y300350D01*
Y297175D02*
X768350D01*
Y290825D02*
Y297175D01*
X765175Y290825D02*
X768350D01*
X765175Y287650D02*
Y290825D01*
X758825Y287650D02*
X765175D01*
X758825D02*
Y290825D01*
X755650Y302825D02*
X758825D01*
X755650D02*
Y309175D01*
X758825D01*
Y312350D01*
X765175D01*
Y309175D02*
Y312350D01*
Y309175D02*
X768350D01*
Y302825D02*
Y309175D01*
X765175Y302825D02*
X768350D01*
X765175Y299650D02*
Y302825D01*
X758825Y299650D02*
X765175D01*
X758825D02*
Y302825D01*
X766650Y290825D02*
X769825D01*
X766650D02*
Y297175D01*
X769825D01*
Y300350D01*
X776175D01*
Y297175D02*
Y300350D01*
Y297175D02*
X779350D01*
Y290825D02*
Y297175D01*
X776175Y290825D02*
X779350D01*
X776175Y287650D02*
Y290825D01*
X769825Y287650D02*
X776175D01*
X769825D02*
Y290825D01*
X766650Y302825D02*
X769825D01*
X766650D02*
Y309175D01*
X769825D01*
Y312350D01*
X776175D01*
Y309175D02*
Y312350D01*
Y309175D02*
X779350D01*
Y302825D02*
Y309175D01*
X776175Y302825D02*
X779350D01*
X776175Y299650D02*
Y302825D01*
X769825Y299650D02*
X776175D01*
X769825D02*
Y302825D01*
X766650Y274825D02*
X769825D01*
X766650D02*
Y281175D01*
X769825D01*
Y284350D01*
X776175D01*
Y281175D02*
Y284350D01*
Y281175D02*
X779350D01*
Y274825D02*
Y281175D01*
X776175Y274825D02*
X779350D01*
X776175Y271650D02*
Y274825D01*
X769825Y271650D02*
X776175D01*
X769825D02*
Y274825D01*
X755650D02*
X758825D01*
X755650D02*
Y281175D01*
X758825D01*
Y284350D01*
X765175D01*
Y281175D02*
Y284350D01*
Y281175D02*
X768350D01*
Y274825D02*
Y281175D01*
X765175Y274825D02*
X768350D01*
X765175Y271650D02*
Y274825D01*
X758825Y271650D02*
X765175D01*
X758825D02*
Y274825D01*
X744650D02*
X747825D01*
X744650D02*
Y281175D01*
X747825D01*
Y284350D01*
X754175D01*
Y281175D02*
Y284350D01*
Y281175D02*
X757350D01*
Y274825D02*
Y281175D01*
X754175Y274825D02*
X757350D01*
X754175Y271650D02*
Y274825D01*
X747825Y271650D02*
X754175D01*
X747825D02*
Y274825D01*
X766650Y262825D02*
X769825D01*
X766650D02*
Y269175D01*
X769825D01*
Y272350D01*
X776175D01*
Y269175D02*
Y272350D01*
Y269175D02*
X779350D01*
Y262825D02*
Y269175D01*
X776175Y262825D02*
X779350D01*
X776175Y259650D02*
Y262825D01*
X769825Y259650D02*
X776175D01*
X769825D02*
Y262825D01*
X755650D02*
X758825D01*
X755650D02*
Y269175D01*
X758825D01*
Y272350D01*
X765175D01*
Y269175D02*
Y272350D01*
Y269175D02*
X768350D01*
Y262825D02*
Y269175D01*
X765175Y262825D02*
X768350D01*
X765175Y259650D02*
Y262825D01*
X758825Y259650D02*
X765175D01*
X758825D02*
Y262825D01*
X744650D02*
X747825D01*
X744650D02*
Y269175D01*
X747825D01*
Y272350D01*
X754175D01*
Y269175D02*
Y272350D01*
Y269175D02*
X757350D01*
Y262825D02*
Y269175D01*
X754175Y262825D02*
X757350D01*
X754175Y259650D02*
Y262825D01*
X747825Y259650D02*
X754175D01*
X747825D02*
Y262825D01*
X776650D02*
X779825D01*
X776650D02*
Y269175D01*
X779825D01*
Y272350D01*
X786175D01*
Y269175D02*
Y272350D01*
Y269175D02*
X789350D01*
Y262825D02*
Y269175D01*
X786175Y262825D02*
X789350D01*
X786175Y259650D02*
Y262825D01*
X779825Y259650D02*
X786175D01*
X779825D02*
Y262825D01*
X776650Y274825D02*
X779825D01*
X776650D02*
Y281175D01*
X779825D01*
Y284350D01*
X786175D01*
Y281175D02*
Y284350D01*
Y281175D02*
X789350D01*
Y274825D02*
Y281175D01*
X786175Y274825D02*
X789350D01*
X786175Y271650D02*
Y274825D01*
X779825Y271650D02*
X786175D01*
X779825D02*
Y274825D01*
X824650D02*
X827825D01*
X824650D02*
Y281175D01*
X827825D01*
Y284350D01*
X834175D01*
Y281175D02*
Y284350D01*
Y281175D02*
X837350D01*
Y274825D02*
Y281175D01*
X834175Y274825D02*
X837350D01*
X834175Y271650D02*
Y274825D01*
X827825Y271650D02*
X834175D01*
X827825D02*
Y274825D01*
X824650Y262825D02*
X827825D01*
X824650D02*
Y269175D01*
X827825D01*
Y272350D01*
X834175D01*
Y269175D02*
Y272350D01*
Y269175D02*
X837350D01*
Y262825D02*
Y269175D01*
X834175Y262825D02*
X837350D01*
X834175Y259650D02*
Y262825D01*
X827825Y259650D02*
X834175D01*
X827825D02*
Y262825D01*
X792650D02*
X795825D01*
X792650D02*
Y269175D01*
X795825D01*
Y272350D01*
X802175D01*
Y269175D02*
Y272350D01*
Y269175D02*
X805350D01*
Y262825D02*
Y269175D01*
X802175Y262825D02*
X805350D01*
X802175Y259650D02*
Y262825D01*
X795825Y259650D02*
X802175D01*
X795825D02*
Y262825D01*
X803650D02*
X806825D01*
X803650D02*
Y269175D01*
X806825D01*
Y272350D01*
X813175D01*
Y269175D02*
Y272350D01*
Y269175D02*
X816350D01*
Y262825D02*
Y269175D01*
X813175Y262825D02*
X816350D01*
X813175Y259650D02*
Y262825D01*
X806825Y259650D02*
X813175D01*
X806825D02*
Y262825D01*
X814650D02*
X817825D01*
X814650D02*
Y269175D01*
X817825D01*
Y272350D01*
X824175D01*
Y269175D02*
Y272350D01*
Y269175D02*
X827350D01*
Y262825D02*
Y269175D01*
X824175Y262825D02*
X827350D01*
X824175Y259650D02*
Y262825D01*
X817825Y259650D02*
X824175D01*
X817825D02*
Y262825D01*
X792650Y274825D02*
X795825D01*
X792650D02*
Y281175D01*
X795825D01*
Y284350D01*
X802175D01*
Y281175D02*
Y284350D01*
Y281175D02*
X805350D01*
Y274825D02*
Y281175D01*
X802175Y274825D02*
X805350D01*
X802175Y271650D02*
Y274825D01*
X795825Y271650D02*
X802175D01*
X795825D02*
Y274825D01*
X803650D02*
X806825D01*
X803650D02*
Y281175D01*
X806825D01*
Y284350D01*
X813175D01*
Y281175D02*
Y284350D01*
Y281175D02*
X816350D01*
Y274825D02*
Y281175D01*
X813175Y274825D02*
X816350D01*
X813175Y271650D02*
Y274825D01*
X806825Y271650D02*
X813175D01*
X806825D02*
Y274825D01*
X814650D02*
X817825D01*
X814650D02*
Y281175D01*
X817825D01*
Y284350D01*
X824175D01*
Y281175D02*
Y284350D01*
Y281175D02*
X827350D01*
Y274825D02*
Y281175D01*
X824175Y274825D02*
X827350D01*
X824175Y271650D02*
Y274825D01*
X817825Y271650D02*
X824175D01*
X817825D02*
Y274825D01*
X801650Y302825D02*
X804825D01*
X801650D02*
Y309175D01*
X804825D01*
Y312350D01*
X811175D01*
Y309175D02*
Y312350D01*
Y309175D02*
X814350D01*
Y302825D02*
Y309175D01*
X811175Y302825D02*
X814350D01*
X811175Y299650D02*
Y302825D01*
X804825Y299650D02*
X811175D01*
X804825D02*
Y302825D01*
X801650Y290825D02*
X804825D01*
X801650D02*
Y297175D01*
X804825D01*
Y300350D01*
X811175D01*
Y297175D02*
Y300350D01*
Y297175D02*
X814350D01*
Y290825D02*
Y297175D01*
X811175Y290825D02*
X814350D01*
X811175Y287650D02*
Y290825D01*
X804825Y287650D02*
X811175D01*
X804825D02*
Y290825D01*
X790650Y302825D02*
X793825D01*
X790650D02*
Y309175D01*
X793825D01*
Y312350D01*
X800175D01*
Y309175D02*
Y312350D01*
Y309175D02*
X803350D01*
Y302825D02*
Y309175D01*
X800175Y302825D02*
X803350D01*
X800175Y299650D02*
Y302825D01*
X793825Y299650D02*
X800175D01*
X793825D02*
Y302825D01*
X790650Y290825D02*
X793825D01*
X790650D02*
Y297175D01*
X793825D01*
Y300350D01*
X800175D01*
Y297175D02*
Y300350D01*
Y297175D02*
X803350D01*
Y290825D02*
Y297175D01*
X800175Y290825D02*
X803350D01*
X800175Y287650D02*
Y290825D01*
X793825Y287650D02*
X800175D01*
X793825D02*
Y290825D01*
X779650D02*
X782825D01*
X779650D02*
Y297175D01*
X782825D01*
Y300350D01*
X789175D01*
Y297175D02*
Y300350D01*
Y297175D02*
X792350D01*
Y290825D02*
Y297175D01*
X789175Y290825D02*
X792350D01*
X789175Y287650D02*
Y290825D01*
X782825Y287650D02*
X789175D01*
X782825D02*
Y290825D01*
X779650Y302825D02*
X782825D01*
X779650D02*
Y309175D01*
X782825D01*
Y312350D01*
X789175D01*
Y309175D02*
Y312350D01*
Y309175D02*
X792350D01*
Y302825D02*
Y309175D01*
X789175Y302825D02*
X792350D01*
X789175Y299650D02*
Y302825D01*
X782825Y299650D02*
X789175D01*
X782825D02*
Y302825D01*
X813650Y290825D02*
X816825D01*
X813650D02*
Y297175D01*
X816825D01*
Y300350D01*
X823175D01*
Y297175D02*
Y300350D01*
Y297175D02*
X826350D01*
Y290825D02*
Y297175D01*
X823175Y290825D02*
X826350D01*
X823175Y287650D02*
Y290825D01*
X816825Y287650D02*
X823175D01*
X816825D02*
Y290825D01*
X813650Y302825D02*
X816825D01*
X813650D02*
Y309175D01*
X816825D01*
Y312350D01*
X823175D01*
Y309175D02*
Y312350D01*
Y309175D02*
X826350D01*
Y302825D02*
Y309175D01*
X823175Y302825D02*
X826350D01*
X823175Y299650D02*
Y302825D01*
X816825Y299650D02*
X823175D01*
X816825D02*
Y302825D01*
X824650Y290825D02*
X827825D01*
X824650D02*
Y297175D01*
X827825D01*
Y300350D01*
X834175D01*
Y297175D02*
Y300350D01*
Y297175D02*
X837350D01*
Y290825D02*
Y297175D01*
X834175Y290825D02*
X837350D01*
X834175Y287650D02*
Y290825D01*
X827825Y287650D02*
X834175D01*
X827825D02*
Y290825D01*
X824650Y302825D02*
X827825D01*
X824650D02*
Y309175D01*
X827825D01*
Y312350D01*
X834175D01*
Y309175D02*
Y312350D01*
Y309175D02*
X837350D01*
Y302825D02*
Y309175D01*
X834175Y302825D02*
X837350D01*
X834175Y299650D02*
Y302825D01*
X827825Y299650D02*
X834175D01*
X827825D02*
Y302825D01*
X744650Y145825D02*
X747825D01*
X744650D02*
Y152175D01*
X747825D01*
Y155350D01*
X754175D01*
Y152175D02*
Y155350D01*
Y152175D02*
X757350D01*
Y145825D02*
Y152175D01*
X754175Y145825D02*
X757350D01*
X754175Y142650D02*
Y145825D01*
X747825Y142650D02*
X754175D01*
X747825D02*
Y145825D01*
X744650Y165825D02*
X747825D01*
X744650D02*
Y172175D01*
X747825D01*
Y175350D01*
X754175D01*
Y172175D02*
Y175350D01*
Y172175D02*
X757350D01*
Y165825D02*
Y172175D01*
X754175Y165825D02*
X757350D01*
X754175Y162650D02*
Y165825D01*
X747825Y162650D02*
X754175D01*
X747825D02*
Y165825D01*
X744650Y185825D02*
X747825D01*
X744650D02*
Y192175D01*
X747825D01*
Y195350D01*
X754175D01*
Y192175D02*
Y195350D01*
Y192175D02*
X757350D01*
Y185825D02*
Y192175D01*
X754175Y185825D02*
X757350D01*
X754175Y182650D02*
Y185825D01*
X747825Y182650D02*
X754175D01*
X747825D02*
Y185825D01*
X764737Y145751D02*
X767912D01*
X764737D02*
Y152101D01*
X767912D01*
Y155276D01*
X774262D01*
Y152101D02*
Y155276D01*
Y152101D02*
X777437D01*
Y145751D02*
Y152101D01*
X774262Y145751D02*
X777437D01*
X774262Y142576D02*
Y145751D01*
X767912Y142576D02*
X774262D01*
X767912D02*
Y145751D01*
X764737Y165751D02*
X767912D01*
X764737D02*
Y172101D01*
X767912D01*
Y175276D01*
X774262D01*
Y172101D02*
Y175276D01*
Y172101D02*
X777437D01*
Y165751D02*
Y172101D01*
X774262Y165751D02*
X777437D01*
X774262Y162576D02*
Y165751D01*
X767912Y162576D02*
X774262D01*
X767912D02*
Y165751D01*
X764737Y185751D02*
X767912D01*
X764737D02*
Y192101D01*
X767912D01*
Y195276D01*
X774262D01*
Y192101D02*
Y195276D01*
Y192101D02*
X777437D01*
Y185751D02*
Y192101D01*
X774262Y185751D02*
X777437D01*
X774262Y182576D02*
Y185751D01*
X767912Y182576D02*
X774262D01*
X767912D02*
Y185751D01*
X784737D02*
X787912D01*
X784737D02*
Y192101D01*
X787912D01*
Y195276D01*
X794262D01*
Y192101D02*
Y195276D01*
Y192101D02*
X797437D01*
Y185751D02*
Y192101D01*
X794262Y185751D02*
X797437D01*
X794262Y182576D02*
Y185751D01*
X787912Y182576D02*
X794262D01*
X787912D02*
Y185751D01*
X784737Y165751D02*
X787912D01*
X784737D02*
Y172101D01*
X787912D01*
Y175276D01*
X794262D01*
Y172101D02*
Y175276D01*
Y172101D02*
X797437D01*
Y165751D02*
Y172101D01*
X794262Y165751D02*
X797437D01*
X794262Y162576D02*
Y165751D01*
X787912Y162576D02*
X794262D01*
X787912D02*
Y165751D01*
X784737Y145751D02*
X787912D01*
X784737D02*
Y152101D01*
X787912D01*
Y155276D01*
X794262D01*
Y152101D02*
Y155276D01*
Y152101D02*
X797437D01*
Y145751D02*
Y152101D01*
X794262Y145751D02*
X797437D01*
X794262Y142576D02*
Y145751D01*
X787912Y142576D02*
X794262D01*
X787912D02*
Y145751D01*
X824650Y145825D02*
X827825D01*
X824650D02*
Y152175D01*
X827825D01*
Y155350D01*
X834175D01*
Y152175D02*
Y155350D01*
Y152175D02*
X837350D01*
Y145825D02*
Y152175D01*
X834175Y145825D02*
X837350D01*
X834175Y142650D02*
Y145825D01*
X827825Y142650D02*
X834175D01*
X827825D02*
Y145825D01*
X824650Y165825D02*
X827825D01*
X824650D02*
Y172175D01*
X827825D01*
Y175350D01*
X834175D01*
Y172175D02*
Y175350D01*
Y172175D02*
X837350D01*
Y165825D02*
Y172175D01*
X834175Y165825D02*
X837350D01*
X834175Y162650D02*
Y165825D01*
X827825Y162650D02*
X834175D01*
X827825D02*
Y165825D01*
X824650Y185825D02*
X827825D01*
X824650D02*
Y192175D01*
X827825D01*
Y195350D01*
X834175D01*
Y192175D02*
Y195350D01*
Y192175D02*
X837350D01*
Y185825D02*
Y192175D01*
X834175Y185825D02*
X837350D01*
X834175Y182650D02*
Y185825D01*
X827825Y182650D02*
X834175D01*
X827825D02*
Y185825D01*
X804650D02*
X807825D01*
X804650D02*
Y192175D01*
X807825D01*
Y195350D01*
X814175D01*
Y192175D02*
Y195350D01*
Y192175D02*
X817350D01*
Y185825D02*
Y192175D01*
X814175Y185825D02*
X817350D01*
X814175Y182650D02*
Y185825D01*
X807825Y182650D02*
X814175D01*
X807825D02*
Y185825D01*
X804650Y165825D02*
X807825D01*
X804650D02*
Y172175D01*
X807825D01*
Y175350D01*
X814175D01*
Y172175D02*
Y175350D01*
Y172175D02*
X817350D01*
Y165825D02*
Y172175D01*
X814175Y165825D02*
X817350D01*
X814175Y162650D02*
Y165825D01*
X807825Y162650D02*
X814175D01*
X807825D02*
Y165825D01*
X804650Y145825D02*
X807825D01*
X804650D02*
Y152175D01*
X807825D01*
Y155350D01*
X814175D01*
Y152175D02*
Y155350D01*
Y152175D02*
X817350D01*
Y145825D02*
Y152175D01*
X814175Y145825D02*
X817350D01*
X814175Y142650D02*
Y145825D01*
X807825Y142650D02*
X814175D01*
X807825D02*
Y145825D01*
X803650Y125825D02*
X806825D01*
X803650D02*
Y132175D01*
X806825D01*
Y135350D01*
X813175D01*
Y132175D02*
Y135350D01*
Y132175D02*
X816350D01*
Y125825D02*
Y132175D01*
X813175Y125825D02*
X816350D01*
X813175Y122650D02*
Y125825D01*
X806825Y122650D02*
X813175D01*
X806825D02*
Y125825D01*
X823650D02*
X826825D01*
X823650D02*
Y132175D01*
X826825D01*
Y135350D01*
X833175D01*
Y132175D02*
Y135350D01*
Y132175D02*
X836350D01*
Y125825D02*
Y132175D01*
X833175Y125825D02*
X836350D01*
X833175Y122650D02*
Y125825D01*
X826825Y122650D02*
X833175D01*
X826825D02*
Y125825D01*
X783737Y125751D02*
X786912D01*
X783737D02*
Y132101D01*
X786912D01*
Y135276D01*
X793262D01*
Y132101D02*
Y135276D01*
Y132101D02*
X796437D01*
Y125751D02*
Y132101D01*
X793262Y125751D02*
X796437D01*
X793262Y122576D02*
Y125751D01*
X786912Y122576D02*
X793262D01*
X786912D02*
Y125751D01*
X763737D02*
X766912D01*
X763737D02*
Y132101D01*
X766912D01*
Y135276D01*
X773262D01*
Y132101D02*
Y135276D01*
Y132101D02*
X776437D01*
Y125751D02*
Y132101D01*
X773262Y125751D02*
X776437D01*
X773262Y122576D02*
Y125751D01*
X766912Y122576D02*
X773262D01*
X766912D02*
Y125751D01*
X743650Y125825D02*
X746825D01*
X743650D02*
Y132175D01*
X746825D01*
Y135350D01*
X753175D01*
Y132175D02*
Y135350D01*
Y132175D02*
X756350D01*
Y125825D02*
Y132175D01*
X753175Y125825D02*
X756350D01*
X753175Y122650D02*
Y125825D01*
X746825Y122650D02*
X753175D01*
X746825D02*
Y125825D01*
X803650Y105825D02*
X806825D01*
X803650D02*
Y112175D01*
X806825D01*
Y115350D01*
X813175D01*
Y112175D02*
Y115350D01*
Y112175D02*
X816350D01*
Y105825D02*
Y112175D01*
X813175Y105825D02*
X816350D01*
X813175Y102650D02*
Y105825D01*
X806825Y102650D02*
X813175D01*
X806825D02*
Y105825D01*
X823650D02*
X826825D01*
X823650D02*
Y112175D01*
X826825D01*
Y115350D01*
X833175D01*
Y112175D02*
Y115350D01*
Y112175D02*
X836350D01*
Y105825D02*
Y112175D01*
X833175Y105825D02*
X836350D01*
X833175Y102650D02*
Y105825D01*
X826825Y102650D02*
X833175D01*
X826825D02*
Y105825D01*
X783737Y105751D02*
X786912D01*
X783737D02*
Y112101D01*
X786912D01*
Y115276D01*
X793262D01*
Y112101D02*
Y115276D01*
Y112101D02*
X796437D01*
Y105751D02*
Y112101D01*
X793262Y105751D02*
X796437D01*
X793262Y102576D02*
Y105751D01*
X786912Y102576D02*
X793262D01*
X786912D02*
Y105751D01*
X763737D02*
X766912D01*
X763737D02*
Y112101D01*
X766912D01*
Y115276D01*
X773262D01*
Y112101D02*
Y115276D01*
Y112101D02*
X776437D01*
Y105751D02*
Y112101D01*
X773262Y105751D02*
X776437D01*
X773262Y102576D02*
Y105751D01*
X766912Y102576D02*
X773262D01*
X766912D02*
Y105751D01*
X743650Y105825D02*
X746825D01*
X743650D02*
Y112175D01*
X746825D01*
Y115350D01*
X753175D01*
Y112175D02*
Y115350D01*
Y112175D02*
X756350D01*
Y105825D02*
Y112175D01*
X753175Y105825D02*
X756350D01*
X753175Y102650D02*
Y105825D01*
X746825Y102650D02*
X753175D01*
X746825D02*
Y105825D01*
X743650Y85825D02*
X746825D01*
X743650D02*
Y92175D01*
X746825D01*
Y95350D01*
X753175D01*
Y92175D02*
Y95350D01*
Y92175D02*
X756350D01*
Y85825D02*
Y92175D01*
X753175Y85825D02*
X756350D01*
X753175Y82650D02*
Y85825D01*
X746825Y82650D02*
X753175D01*
X746825D02*
Y85825D01*
X763737Y85751D02*
X766912D01*
X763737D02*
Y92101D01*
X766912D01*
Y95276D01*
X773262D01*
Y92101D02*
Y95276D01*
Y92101D02*
X776437D01*
Y85751D02*
Y92101D01*
X773262Y85751D02*
X776437D01*
X773262Y82576D02*
Y85751D01*
X766912Y82576D02*
X773262D01*
X766912D02*
Y85751D01*
X783737D02*
X786912D01*
X783737D02*
Y92101D01*
X786912D01*
Y95276D01*
X793262D01*
Y92101D02*
Y95276D01*
Y92101D02*
X796437D01*
Y85751D02*
Y92101D01*
X793262Y85751D02*
X796437D01*
X793262Y82576D02*
Y85751D01*
X786912Y82576D02*
X793262D01*
X786912D02*
Y85751D01*
X803650Y85825D02*
X806825D01*
X803650D02*
Y92175D01*
X806825D01*
Y95350D01*
X813175D01*
Y92175D02*
Y95350D01*
Y92175D02*
X816350D01*
Y85825D02*
Y92175D01*
X813175Y85825D02*
X816350D01*
X813175Y82650D02*
Y85825D01*
X806825Y82650D02*
X813175D01*
X806825D02*
Y85825D01*
X723737Y85751D02*
X726912D01*
X723737D02*
Y92101D01*
X726912D01*
Y95276D01*
X733262D01*
Y92101D02*
Y95276D01*
Y92101D02*
X736437D01*
Y85751D02*
Y92101D01*
X733262Y85751D02*
X736437D01*
X733262Y82576D02*
Y85751D01*
X726912Y82576D02*
X733262D01*
X726912D02*
Y85751D01*
X703650Y85825D02*
X706825D01*
X703650D02*
Y92175D01*
X706825D01*
Y95350D01*
X713175D01*
Y92175D02*
Y95350D01*
Y92175D02*
X716350D01*
Y85825D02*
Y92175D01*
X713175Y85825D02*
X716350D01*
X713175Y82650D02*
Y85825D01*
X706825Y82650D02*
X713175D01*
X706825D02*
Y85825D01*
X703650Y105825D02*
X706825D01*
X703650D02*
Y112175D01*
X706825D01*
Y115350D01*
X713175D01*
Y112175D02*
Y115350D01*
Y112175D02*
X716350D01*
Y105825D02*
Y112175D01*
X713175Y105825D02*
X716350D01*
X713175Y102650D02*
Y105825D01*
X706825Y102650D02*
X713175D01*
X706825D02*
Y105825D01*
X723737Y105751D02*
X726912D01*
X723737D02*
Y112101D01*
X726912D01*
Y115276D01*
X733262D01*
Y112101D02*
Y115276D01*
Y112101D02*
X736437D01*
Y105751D02*
Y112101D01*
X733262Y105751D02*
X736437D01*
X733262Y102576D02*
Y105751D01*
X726912Y102576D02*
X733262D01*
X726912D02*
Y105751D01*
X703650Y125825D02*
X706825D01*
X703650D02*
Y132175D01*
X706825D01*
Y135350D01*
X713175D01*
Y132175D02*
Y135350D01*
Y132175D02*
X716350D01*
Y125825D02*
Y132175D01*
X713175Y125825D02*
X716350D01*
X713175Y122650D02*
Y125825D01*
X706825Y122650D02*
X713175D01*
X706825D02*
Y125825D01*
X723737Y125751D02*
X726912D01*
X723737D02*
Y132101D01*
X726912D01*
Y135276D01*
X733262D01*
Y132101D02*
Y135276D01*
Y132101D02*
X736437D01*
Y125751D02*
Y132101D01*
X733262Y125751D02*
X736437D01*
X733262Y122576D02*
Y125751D01*
X726912Y122576D02*
X733262D01*
X726912D02*
Y125751D01*
X663737Y85751D02*
X666912D01*
X663737D02*
Y92101D01*
X666912D01*
Y95276D01*
X673262D01*
Y92101D02*
Y95276D01*
Y92101D02*
X676437D01*
Y85751D02*
Y92101D01*
X673262Y85751D02*
X676437D01*
X673262Y82576D02*
Y85751D01*
X666912Y82576D02*
X673262D01*
X666912D02*
Y85751D01*
X643650Y85825D02*
X646825D01*
X643650D02*
Y92175D01*
X646825D01*
Y95350D01*
X653175D01*
Y92175D02*
Y95350D01*
Y92175D02*
X656350D01*
Y85825D02*
Y92175D01*
X653175Y85825D02*
X656350D01*
X653175Y82650D02*
Y85825D01*
X646825Y82650D02*
X653175D01*
X646825D02*
Y85825D01*
X643650Y105825D02*
X646825D01*
X643650D02*
Y112175D01*
X646825D01*
Y115350D01*
X653175D01*
Y112175D02*
Y115350D01*
Y112175D02*
X656350D01*
Y105825D02*
Y112175D01*
X653175Y105825D02*
X656350D01*
X653175Y102650D02*
Y105825D01*
X646825Y102650D02*
X653175D01*
X646825D02*
Y105825D01*
X663737Y105751D02*
X666912D01*
X663737D02*
Y112101D01*
X666912D01*
Y115276D01*
X673262D01*
Y112101D02*
Y115276D01*
Y112101D02*
X676437D01*
Y105751D02*
Y112101D01*
X673262Y105751D02*
X676437D01*
X673262Y102576D02*
Y105751D01*
X666912Y102576D02*
X673262D01*
X666912D02*
Y105751D01*
X643650Y125825D02*
X646825D01*
X643650D02*
Y132175D01*
X646825D01*
Y135350D01*
X653175D01*
Y132175D02*
Y135350D01*
Y132175D02*
X656350D01*
Y125825D02*
Y132175D01*
X653175Y125825D02*
X656350D01*
X653175Y122650D02*
Y125825D01*
X646825Y122650D02*
X653175D01*
X646825D02*
Y125825D01*
X663737Y125751D02*
X666912D01*
X663737D02*
Y132101D01*
X666912D01*
Y135276D01*
X673262D01*
Y132101D02*
Y135276D01*
Y132101D02*
X676437D01*
Y125751D02*
Y132101D01*
X673262Y125751D02*
X676437D01*
X673262Y122576D02*
Y125751D01*
X666912Y122576D02*
X673262D01*
X666912D02*
Y125751D01*
X683650Y125825D02*
X686825D01*
X683650D02*
Y132175D01*
X686825D01*
Y135350D01*
X693175D01*
Y132175D02*
Y135350D01*
Y132175D02*
X696350D01*
Y125825D02*
Y132175D01*
X693175Y125825D02*
X696350D01*
X693175Y122650D02*
Y125825D01*
X686825Y122650D02*
X693175D01*
X686825D02*
Y125825D01*
X623737Y125751D02*
X626912D01*
X623737D02*
Y132101D01*
X626912D01*
Y135276D01*
X633262D01*
Y132101D02*
Y135276D01*
Y132101D02*
X636437D01*
Y125751D02*
Y132101D01*
X633262Y125751D02*
X636437D01*
X633262Y122576D02*
Y125751D01*
X626912Y122576D02*
X633262D01*
X626912D02*
Y125751D01*
X603650Y125825D02*
X606825D01*
X603650D02*
Y132175D01*
X606825D01*
Y135350D01*
X613175D01*
Y132175D02*
Y135350D01*
Y132175D02*
X616350D01*
Y125825D02*
Y132175D01*
X613175Y125825D02*
X616350D01*
X613175Y122650D02*
Y125825D01*
X606825Y122650D02*
X613175D01*
X606825D02*
Y125825D01*
X628650Y255825D02*
X631825D01*
X628650D02*
Y262175D01*
X631825D01*
Y265350D01*
X638175D01*
Y262175D02*
Y265350D01*
Y262175D02*
X641350D01*
Y255825D02*
Y262175D01*
X638175Y255825D02*
X641350D01*
X638175Y252650D02*
Y255825D01*
X631825Y252650D02*
X638175D01*
X631825D02*
Y255825D01*
X619650D02*
X622825D01*
X619650D02*
Y262175D01*
X622825D01*
Y265350D01*
X629175D01*
Y262175D02*
Y265350D01*
Y262175D02*
X632350D01*
Y255825D02*
Y262175D01*
X629175Y255825D02*
X632350D01*
X629175Y252650D02*
Y255825D01*
X622825Y252650D02*
X629175D01*
X622825D02*
Y255825D01*
X610650D02*
X613825D01*
X610650D02*
Y262175D01*
X613825D01*
Y265350D01*
X620175D01*
Y262175D02*
Y265350D01*
Y262175D02*
X623350D01*
Y255825D02*
Y262175D01*
X620175Y255825D02*
X623350D01*
X620175Y252650D02*
Y255825D01*
X613825Y252650D02*
X620175D01*
X613825D02*
Y255825D01*
X484650Y249825D02*
X487825D01*
X484650D02*
Y256175D01*
X487825D01*
Y259350D01*
X494175D01*
Y256175D02*
Y259350D01*
Y256175D02*
X497350D01*
Y249825D02*
Y256175D01*
X494175Y249825D02*
X497350D01*
X494175Y246650D02*
Y249825D01*
X487825Y246650D02*
X494175D01*
X487825D02*
Y249825D01*
X537650Y250825D02*
X540825D01*
X537650D02*
Y257175D01*
X540825D01*
Y260350D01*
X547175D01*
Y257175D02*
Y260350D01*
Y257175D02*
X550350D01*
Y250825D02*
Y257175D01*
X547175Y250825D02*
X550350D01*
X547175Y247650D02*
Y250825D01*
X540825Y247650D02*
X547175D01*
X540825D02*
Y250825D01*
X349650Y172825D02*
X352825D01*
X349650D02*
Y179175D01*
X352825D01*
Y182350D01*
X359175D01*
Y179175D02*
Y182350D01*
Y179175D02*
X362350D01*
Y172825D02*
Y179175D01*
X359175Y172825D02*
X362350D01*
X359175Y169650D02*
Y172825D01*
X352825Y169650D02*
X359175D01*
X352825D02*
Y172825D01*
X369650Y273825D02*
X372825D01*
X369650D02*
Y280175D01*
X372825D01*
Y283350D01*
X379175D01*
Y280175D02*
Y283350D01*
Y280175D02*
X382350D01*
Y273825D02*
Y280175D01*
X379175Y273825D02*
X382350D01*
X379175Y270650D02*
Y273825D01*
X372825Y270650D02*
X379175D01*
X372825D02*
Y273825D01*
X446650Y323825D02*
X449825D01*
X446650D02*
Y330175D01*
X449825D01*
Y333350D01*
X456175D01*
Y330175D02*
Y333350D01*
Y330175D02*
X459350D01*
Y323825D02*
Y330175D01*
X456175Y323825D02*
X459350D01*
X456175Y320650D02*
Y323825D01*
X449825Y320650D02*
X456175D01*
X449825D02*
Y323825D01*
X506650D02*
X509825D01*
X506650D02*
Y330175D01*
X509825D01*
Y333350D01*
X516175D01*
Y330175D02*
Y333350D01*
Y330175D02*
X519350D01*
Y323825D02*
Y330175D01*
X516175Y323825D02*
X519350D01*
X516175Y320650D02*
Y323825D01*
X509825Y320650D02*
X516175D01*
X509825D02*
Y323825D01*
X566674Y324118D02*
X569849D01*
X566674D02*
Y330467D01*
X569849D01*
Y333643D01*
X576199D01*
Y330467D02*
Y333643D01*
Y330467D02*
X579374D01*
Y324118D02*
Y330467D01*
X576199Y324118D02*
X579374D01*
X576199Y320942D02*
Y324118D01*
X569849Y320942D02*
X576199D01*
X569849D02*
Y324118D01*
X491650Y225325D02*
X494825D01*
X491650D02*
Y231675D01*
X494825D01*
Y234850D01*
X501175D01*
Y231675D02*
Y234850D01*
Y231675D02*
X504350D01*
Y225325D02*
Y231675D01*
X501175Y225325D02*
X504350D01*
X501175Y222150D02*
Y225325D01*
X494825Y222150D02*
X501175D01*
X494825D02*
Y225325D01*
X527650Y210825D02*
X530825D01*
X527650D02*
Y217175D01*
X530825D01*
Y220350D01*
X537175D01*
Y217175D02*
Y220350D01*
Y217175D02*
X540350D01*
Y210825D02*
Y217175D01*
X537175Y210825D02*
X540350D01*
X537175Y207650D02*
Y210825D01*
X530825Y207650D02*
X537175D01*
X530825D02*
Y210825D01*
X527650Y194825D02*
X530825D01*
X527650D02*
Y201175D01*
X530825D01*
Y204350D01*
X537175D01*
Y201175D02*
Y204350D01*
Y201175D02*
X540350D01*
Y194825D02*
Y201175D01*
X537175Y194825D02*
X540350D01*
X537175Y191650D02*
Y194825D01*
X530825Y191650D02*
X537175D01*
X530825D02*
Y194825D01*
X524650Y176825D02*
X527825D01*
X524650D02*
Y183175D01*
X527825D01*
Y186350D01*
X534175D01*
Y183175D02*
Y186350D01*
Y183175D02*
X537350D01*
Y176825D02*
Y183175D01*
X534175Y176825D02*
X537350D01*
X534175Y173650D02*
Y176825D01*
X527825Y173650D02*
X534175D01*
X527825D02*
Y176825D01*
X505650D02*
X508825D01*
X505650D02*
Y183175D01*
X508825D01*
Y186350D01*
X515175D01*
Y183175D02*
Y186350D01*
Y183175D02*
X518350D01*
Y176825D02*
Y183175D01*
X515175Y176825D02*
X518350D01*
X515175Y173650D02*
Y176825D01*
X508825Y173650D02*
X515175D01*
X508825D02*
Y176825D01*
X491650D02*
X494825D01*
X491650D02*
Y183175D01*
X494825D01*
Y186350D01*
X501175D01*
Y183175D02*
Y186350D01*
Y183175D02*
X504350D01*
Y176825D02*
Y183175D01*
X501175Y176825D02*
X504350D01*
X501175Y173650D02*
Y176825D01*
X494825Y173650D02*
X501175D01*
X494825D02*
Y176825D01*
X466650Y192825D02*
X469825D01*
X466650D02*
Y199175D01*
X469825D01*
Y202350D01*
X476175D01*
Y199175D02*
Y202350D01*
Y199175D02*
X479350D01*
Y192825D02*
Y199175D01*
X476175Y192825D02*
X479350D01*
X476175Y189650D02*
Y192825D01*
X469825Y189650D02*
X476175D01*
X469825D02*
Y192825D01*
X515650Y224825D02*
X518825D01*
X515650D02*
Y231175D01*
X518825D01*
Y234350D01*
X525175D01*
Y231175D02*
Y234350D01*
Y231175D02*
X528350D01*
Y224825D02*
Y231175D01*
X525175Y224825D02*
X528350D01*
X525175Y221650D02*
Y224825D01*
X518825Y221650D02*
X525175D01*
X518825D02*
Y224825D01*
X463650Y149825D02*
X466825D01*
X463650D02*
Y156175D01*
X466825D01*
Y159350D01*
X473175D01*
Y156175D02*
Y159350D01*
Y156175D02*
X476350D01*
Y149825D02*
Y156175D01*
X473175Y149825D02*
X476350D01*
X473175Y146650D02*
Y149825D01*
X466825Y146650D02*
X473175D01*
X466825D02*
Y149825D01*
X337650Y101825D02*
X340825D01*
X337650D02*
Y108175D01*
X340825D01*
Y111350D01*
X347175D01*
Y108175D02*
Y111350D01*
Y108175D02*
X350350D01*
Y101825D02*
Y108175D01*
X347175Y101825D02*
X350350D01*
X347175Y98650D02*
Y101825D01*
X340825Y98650D02*
X347175D01*
X340825D02*
Y101825D01*
X274650Y121825D02*
X277825D01*
X274650D02*
Y128175D01*
X277825D01*
Y131350D01*
X284175D01*
Y128175D02*
Y131350D01*
Y128175D02*
X287350D01*
Y121825D02*
Y128175D01*
X284175Y121825D02*
X287350D01*
X284175Y118650D02*
Y121825D01*
X277825Y118650D02*
X284175D01*
X277825D02*
Y121825D01*
X245650D02*
X248825D01*
X245650D02*
Y128175D01*
X248825D01*
Y131350D01*
X255175D01*
Y128175D02*
Y131350D01*
Y128175D02*
X258350D01*
Y121825D02*
Y128175D01*
X255175Y121825D02*
X258350D01*
X255175Y118650D02*
Y121825D01*
X248825Y118650D02*
X255175D01*
X248825D02*
Y121825D01*
X266650Y134825D02*
X269825D01*
X266650D02*
Y141175D01*
X269825D01*
Y144350D01*
X276175D01*
Y141175D02*
Y144350D01*
Y141175D02*
X279350D01*
Y134825D02*
Y141175D01*
X276175Y134825D02*
X279350D01*
X276175Y131650D02*
Y134825D01*
X269825Y131650D02*
X276175D01*
X269825D02*
Y134825D01*
X237650D02*
X240825D01*
X237650D02*
Y141175D01*
X240825D01*
Y144350D01*
X247175D01*
Y141175D02*
Y144350D01*
Y141175D02*
X250350D01*
Y134825D02*
Y141175D01*
X247175Y134825D02*
X250350D01*
X247175Y131650D02*
Y134825D01*
X240825Y131650D02*
X247175D01*
X240825D02*
Y134825D01*
X337650Y140825D02*
X340825D01*
X337650D02*
Y147175D01*
X340825D01*
Y150350D01*
X347175D01*
Y147175D02*
Y150350D01*
Y147175D02*
X350350D01*
Y140825D02*
Y147175D01*
X347175Y140825D02*
X350350D01*
X347175Y137650D02*
Y140825D01*
X340825Y137650D02*
X347175D01*
X340825D02*
Y140825D01*
X274650Y147825D02*
X277825D01*
X274650D02*
Y154175D01*
X277825D01*
Y157350D01*
X284175D01*
Y154175D02*
Y157350D01*
Y154175D02*
X287350D01*
Y147825D02*
Y154175D01*
X284175Y147825D02*
X287350D01*
X284175Y144650D02*
Y147825D01*
X277825Y144650D02*
X284175D01*
X277825D02*
Y147825D01*
X252650D02*
X255825D01*
X252650D02*
Y154175D01*
X255825D01*
Y157350D01*
X262175D01*
Y154175D02*
Y157350D01*
Y154175D02*
X265350D01*
Y147825D02*
Y154175D01*
X262175Y147825D02*
X265350D01*
X262175Y144650D02*
Y147825D01*
X255825Y144650D02*
X262175D01*
X255825D02*
Y147825D01*
X268650Y56825D02*
X271825D01*
X268650D02*
Y63175D01*
X271825D01*
Y66350D01*
X278175D01*
Y63175D02*
Y66350D01*
Y63175D02*
X281350D01*
Y56825D02*
Y63175D01*
X278175Y56825D02*
X281350D01*
X278175Y53650D02*
Y56825D01*
X271825Y53650D02*
X278175D01*
X271825D02*
Y56825D01*
X275650D02*
X278825D01*
X275650D02*
Y63175D01*
X278825D01*
Y66350D01*
X285175D01*
Y63175D02*
Y66350D01*
Y63175D02*
X288350D01*
Y56825D02*
Y63175D01*
X285175Y56825D02*
X288350D01*
X285175Y53650D02*
Y56825D01*
X278825Y53650D02*
X285175D01*
X278825D02*
Y56825D01*
X282650D02*
X285825D01*
X282650D02*
Y63175D01*
X285825D01*
Y66350D01*
X292175D01*
Y63175D02*
Y66350D01*
Y63175D02*
X295350D01*
Y56825D02*
Y63175D01*
X292175Y56825D02*
X295350D01*
X292175Y53650D02*
Y56825D01*
X285825Y53650D02*
X292175D01*
X285825D02*
Y56825D01*
X268650Y63825D02*
X271825D01*
X268650D02*
Y70175D01*
X271825D01*
Y73350D01*
X278175D01*
Y70175D02*
Y73350D01*
Y70175D02*
X281350D01*
Y63825D02*
Y70175D01*
X278175Y63825D02*
X281350D01*
X278175Y60650D02*
Y63825D01*
X271825Y60650D02*
X278175D01*
X271825D02*
Y63825D01*
X275650D02*
X278825D01*
X275650D02*
Y70175D01*
X278825D01*
Y73350D01*
X285175D01*
Y70175D02*
Y73350D01*
Y70175D02*
X288350D01*
Y63825D02*
Y70175D01*
X285175Y63825D02*
X288350D01*
X285175Y60650D02*
Y63825D01*
X278825Y60650D02*
X285175D01*
X278825D02*
Y63825D01*
X282650Y90825D02*
X285825D01*
X282650D02*
Y97175D01*
X285825D01*
Y100350D01*
X292175D01*
Y97175D02*
Y100350D01*
Y97175D02*
X295350D01*
Y90825D02*
Y97175D01*
X292175Y90825D02*
X295350D01*
X292175Y87650D02*
Y90825D01*
X285825Y87650D02*
X292175D01*
X285825D02*
Y90825D01*
X399650Y279825D02*
X402825D01*
X399650D02*
Y286175D01*
X402825D01*
Y289350D01*
X409175D01*
Y286175D02*
Y289350D01*
Y286175D02*
X412350D01*
Y279825D02*
Y286175D01*
X409175Y279825D02*
X412350D01*
X409175Y276650D02*
Y279825D01*
X402825Y276650D02*
X409175D01*
X402825D02*
Y279825D01*
X406650Y275825D02*
X409825D01*
X406650D02*
Y282175D01*
X409825D01*
Y285350D01*
X416175D01*
Y282175D02*
Y285350D01*
Y282175D02*
X419350D01*
Y275825D02*
Y282175D01*
X416175Y275825D02*
X419350D01*
X416175Y272650D02*
Y275825D01*
X409825Y272650D02*
X416175D01*
X409825D02*
Y275825D01*
X412650Y270825D02*
X415825D01*
X412650D02*
Y277175D01*
X415825D01*
Y280350D01*
X422175D01*
Y277175D02*
Y280350D01*
Y277175D02*
X425350D01*
Y270825D02*
Y277175D01*
X422175Y270825D02*
X425350D01*
X422175Y267650D02*
Y270825D01*
X415825Y267650D02*
X422175D01*
X415825D02*
Y270825D01*
X254650Y57825D02*
X257825D01*
X254650D02*
Y64175D01*
X257825D01*
Y67350D01*
X264175D01*
Y64175D02*
Y67350D01*
Y64175D02*
X267350D01*
Y57825D02*
Y64175D01*
X264175Y57825D02*
X267350D01*
X264175Y54650D02*
Y57825D01*
X257825Y54650D02*
X264175D01*
X257825D02*
Y57825D01*
X224650D02*
X227825D01*
X224650D02*
Y64175D01*
X227825D01*
Y67350D01*
X234175D01*
Y64175D02*
Y67350D01*
Y64175D02*
X237350D01*
Y57825D02*
Y64175D01*
X234175Y57825D02*
X237350D01*
X234175Y54650D02*
Y57825D01*
X227825Y54650D02*
X234175D01*
X227825D02*
Y57825D01*
X194650D02*
X197825D01*
X194650D02*
Y64175D01*
X197825D01*
Y67350D01*
X204175D01*
Y64175D02*
Y67350D01*
Y64175D02*
X207350D01*
Y57825D02*
Y64175D01*
X204175Y57825D02*
X207350D01*
X204175Y54650D02*
Y57825D01*
X197825Y54650D02*
X204175D01*
X197825D02*
Y57825D01*
X154650D02*
X157825D01*
X154650D02*
Y64175D01*
X157825D01*
Y67350D01*
X164175D01*
Y64175D02*
Y67350D01*
Y64175D02*
X167350D01*
Y57825D02*
Y64175D01*
X164175Y57825D02*
X167350D01*
X164175Y54650D02*
Y57825D01*
X157825Y54650D02*
X164175D01*
X157825D02*
Y57825D01*
X154650Y26825D02*
X157825D01*
X154650D02*
Y33175D01*
X157825D01*
Y36350D01*
X164175D01*
Y33175D02*
Y36350D01*
Y33175D02*
X167350D01*
Y26825D02*
Y33175D01*
X164175Y26825D02*
X167350D01*
X164175Y23650D02*
Y26825D01*
X157825Y23650D02*
X164175D01*
X157825D02*
Y26825D01*
X194650D02*
X197825D01*
X194650D02*
Y33175D01*
X197825D01*
Y36350D01*
X204175D01*
Y33175D02*
Y36350D01*
Y33175D02*
X207350D01*
Y26825D02*
Y33175D01*
X204175Y26825D02*
X207350D01*
X204175Y23650D02*
Y26825D01*
X197825Y23650D02*
X204175D01*
X197825D02*
Y26825D01*
X224650D02*
X227825D01*
X224650D02*
Y33175D01*
X227825D01*
Y36350D01*
X234175D01*
Y33175D02*
Y36350D01*
Y33175D02*
X237350D01*
Y26825D02*
Y33175D01*
X234175Y26825D02*
X237350D01*
X234175Y23650D02*
Y26825D01*
X227825Y23650D02*
X234175D01*
X227825D02*
Y26825D01*
X254650D02*
X257825D01*
X254650D02*
Y33175D01*
X257825D01*
Y36350D01*
X264175D01*
Y33175D02*
Y36350D01*
Y33175D02*
X267350D01*
Y26825D02*
Y33175D01*
X264175Y26825D02*
X267350D01*
X264175Y23650D02*
Y26825D01*
X257825Y23650D02*
X264175D01*
X257825D02*
Y26825D01*
X90650Y513825D02*
X93825D01*
X90650D02*
Y520175D01*
X93825D01*
Y523350D01*
X100175D01*
Y520175D02*
Y523350D01*
Y520175D02*
X103350D01*
Y513825D02*
Y520175D01*
X100175Y513825D02*
X103350D01*
X100175Y510650D02*
Y513825D01*
X93825Y510650D02*
X100175D01*
X93825D02*
Y513825D01*
X56650Y88825D02*
X59825D01*
X56650D02*
Y95175D01*
X59825D01*
Y98350D01*
X66175D01*
Y95175D02*
Y98350D01*
Y95175D02*
X69350D01*
Y88825D02*
Y95175D01*
X66175Y88825D02*
X69350D01*
X66175Y85650D02*
Y88825D01*
X59825Y85650D02*
X66175D01*
X59825D02*
Y88825D01*
X31650Y138825D02*
X34825D01*
X31650D02*
Y145175D01*
X34825D01*
Y148350D01*
X41175D01*
Y145175D02*
Y148350D01*
Y145175D02*
X44350D01*
Y138825D02*
Y145175D01*
X41175Y138825D02*
X44350D01*
X41175Y135650D02*
Y138825D01*
X34825Y135650D02*
X41175D01*
X34825D02*
Y138825D01*
X31650Y238825D02*
X34825D01*
X31650D02*
Y245175D01*
X34825D01*
Y248350D01*
X41175D01*
Y245175D02*
Y248350D01*
Y245175D02*
X44350D01*
Y238825D02*
Y245175D01*
X41175Y238825D02*
X44350D01*
X41175Y235650D02*
Y238825D01*
X34825Y235650D02*
X41175D01*
X34825D02*
Y238825D01*
X56650Y288825D02*
X59825D01*
X56650D02*
Y295175D01*
X59825D01*
Y298350D01*
X66175D01*
Y295175D02*
Y298350D01*
Y295175D02*
X69350D01*
Y288825D02*
Y295175D01*
X66175Y288825D02*
X69350D01*
X66175Y285650D02*
Y288825D01*
X59825Y285650D02*
X66175D01*
X59825D02*
Y288825D01*
X31650Y338825D02*
X34825D01*
X31650D02*
Y345175D01*
X34825D01*
Y348350D01*
X41175D01*
Y345175D02*
Y348350D01*
Y345175D02*
X44350D01*
Y338825D02*
Y345175D01*
X41175Y338825D02*
X44350D01*
X41175Y335650D02*
Y338825D01*
X34825Y335650D02*
X41175D01*
X34825D02*
Y338825D01*
X56650Y388825D02*
X59825D01*
X56650D02*
Y395175D01*
X59825D01*
Y398350D01*
X66175D01*
Y395175D02*
Y398350D01*
Y395175D02*
X69350D01*
Y388825D02*
Y395175D01*
X66175Y388825D02*
X69350D01*
X66175Y385650D02*
Y388825D01*
X59825Y385650D02*
X66175D01*
X59825D02*
Y388825D01*
X81650Y38825D02*
X84825D01*
X81650D02*
Y45175D01*
X84825D01*
Y48350D01*
X91175D01*
Y45175D02*
Y48350D01*
Y45175D02*
X94350D01*
Y38825D02*
Y45175D01*
X91175Y38825D02*
X94350D01*
X91175Y35650D02*
Y38825D01*
X84825Y35650D02*
X91175D01*
X84825D02*
Y38825D01*
X106650Y88825D02*
X109825D01*
X106650D02*
Y95175D01*
X109825D01*
Y98350D01*
X116175D01*
Y95175D02*
Y98350D01*
Y95175D02*
X119350D01*
Y88825D02*
Y95175D01*
X116175Y88825D02*
X119350D01*
X116175Y85650D02*
Y88825D01*
X109825Y85650D02*
X116175D01*
X109825D02*
Y88825D01*
X106650Y288825D02*
X109825D01*
X106650D02*
Y295175D01*
X109825D01*
Y298350D01*
X116175D01*
Y295175D02*
Y298350D01*
Y295175D02*
X119350D01*
Y288825D02*
Y295175D01*
X116175Y288825D02*
X119350D01*
X116175Y285650D02*
Y288825D01*
X109825Y285650D02*
X116175D01*
X109825D02*
Y288825D01*
X81650Y338825D02*
X84825D01*
X81650D02*
Y345175D01*
X84825D01*
Y348350D01*
X91175D01*
Y345175D02*
Y348350D01*
Y345175D02*
X94350D01*
Y338825D02*
Y345175D01*
X91175Y338825D02*
X94350D01*
X91175Y335650D02*
Y338825D01*
X84825Y335650D02*
X91175D01*
X84825D02*
Y338825D01*
X106650Y388825D02*
X109825D01*
X106650D02*
Y395175D01*
X109825D01*
Y398350D01*
X116175D01*
Y395175D02*
Y398350D01*
Y395175D02*
X119350D01*
Y388825D02*
Y395175D01*
X116175Y388825D02*
X119350D01*
X116175Y385650D02*
Y388825D01*
X109825Y385650D02*
X116175D01*
X109825D02*
Y388825D01*
X81650Y438825D02*
X84825D01*
X81650D02*
Y445175D01*
X84825D01*
Y448350D01*
X91175D01*
Y445175D02*
Y448350D01*
Y445175D02*
X94350D01*
Y438825D02*
Y445175D01*
X91175Y438825D02*
X94350D01*
X91175Y435650D02*
Y438825D01*
X84825Y435650D02*
X91175D01*
X84825D02*
Y438825D01*
X106650Y488825D02*
X109825D01*
X106650D02*
Y495175D01*
X109825D01*
Y498350D01*
X116175D01*
Y495175D02*
Y498350D01*
Y495175D02*
X119350D01*
Y488825D02*
Y495175D01*
X116175Y488825D02*
X119350D01*
X116175Y485650D02*
Y488825D01*
X109825Y485650D02*
X116175D01*
X109825D02*
Y488825D01*
X131650Y38825D02*
X134825D01*
X131650D02*
Y45175D01*
X134825D01*
Y48350D01*
X141175D01*
Y45175D02*
Y48350D01*
Y45175D02*
X144350D01*
Y38825D02*
Y45175D01*
X141175Y38825D02*
X144350D01*
X141175Y35650D02*
Y38825D01*
X134825Y35650D02*
X141175D01*
X134825D02*
Y38825D01*
X131650Y138825D02*
X134825D01*
X131650D02*
Y145175D01*
X134825D01*
Y148350D01*
X141175D01*
Y145175D02*
Y148350D01*
Y145175D02*
X144350D01*
Y138825D02*
Y145175D01*
X141175Y138825D02*
X144350D01*
X141175Y135650D02*
Y138825D01*
X134825Y135650D02*
X141175D01*
X134825D02*
Y138825D01*
X156650Y288825D02*
X159825D01*
X156650D02*
Y295175D01*
X159825D01*
Y298350D01*
X166175D01*
Y295175D02*
Y298350D01*
Y295175D02*
X169350D01*
Y288825D02*
Y295175D01*
X166175Y288825D02*
X169350D01*
X166175Y285650D02*
Y288825D01*
X159825Y285650D02*
X166175D01*
X159825D02*
Y288825D01*
X131650Y338825D02*
X134825D01*
X131650D02*
Y345175D01*
X134825D01*
Y348350D01*
X141175D01*
Y345175D02*
Y348350D01*
Y345175D02*
X144350D01*
Y338825D02*
Y345175D01*
X141175Y338825D02*
X144350D01*
X141175Y335650D02*
Y338825D01*
X134825Y335650D02*
X141175D01*
X134825D02*
Y338825D01*
X156650Y388825D02*
X159825D01*
X156650D02*
Y395175D01*
X159825D01*
Y398350D01*
X166175D01*
Y395175D02*
Y398350D01*
Y395175D02*
X169350D01*
Y388825D02*
Y395175D01*
X166175Y388825D02*
X169350D01*
X166175Y385650D02*
Y388825D01*
X159825Y385650D02*
X166175D01*
X159825D02*
Y388825D01*
X131650Y438825D02*
X134825D01*
X131650D02*
Y445175D01*
X134825D01*
Y448350D01*
X141175D01*
Y445175D02*
Y448350D01*
Y445175D02*
X144350D01*
Y438825D02*
Y445175D01*
X141175Y438825D02*
X144350D01*
X141175Y435650D02*
Y438825D01*
X134825Y435650D02*
X141175D01*
X134825D02*
Y438825D01*
X156650Y488825D02*
X159825D01*
X156650D02*
Y495175D01*
X159825D01*
Y498350D01*
X166175D01*
Y495175D02*
Y498350D01*
Y495175D02*
X169350D01*
Y488825D02*
Y495175D01*
X166175Y488825D02*
X169350D01*
X166175Y485650D02*
Y488825D01*
X159825Y485650D02*
X166175D01*
X159825D02*
Y488825D01*
X181650Y38825D02*
X184825D01*
X181650D02*
Y45175D01*
X184825D01*
Y48350D01*
X191175D01*
Y45175D02*
Y48350D01*
Y45175D02*
X194350D01*
Y38825D02*
Y45175D01*
X191175Y38825D02*
X194350D01*
X191175Y35650D02*
Y38825D01*
X184825Y35650D02*
X191175D01*
X184825D02*
Y38825D01*
X181650Y138825D02*
X184825D01*
X181650D02*
Y145175D01*
X184825D01*
Y148350D01*
X191175D01*
Y145175D02*
Y148350D01*
Y145175D02*
X194350D01*
Y138825D02*
Y145175D01*
X191175Y138825D02*
X194350D01*
X191175Y135650D02*
Y138825D01*
X184825Y135650D02*
X191175D01*
X184825D02*
Y138825D01*
X206650Y288825D02*
X209825D01*
X206650D02*
Y295175D01*
X209825D01*
Y298350D01*
X216175D01*
Y295175D02*
Y298350D01*
Y295175D02*
X219350D01*
Y288825D02*
Y295175D01*
X216175Y288825D02*
X219350D01*
X216175Y285650D02*
Y288825D01*
X209825Y285650D02*
X216175D01*
X209825D02*
Y288825D01*
X181650Y338825D02*
X184825D01*
X181650D02*
Y345175D01*
X184825D01*
Y348350D01*
X191175D01*
Y345175D02*
Y348350D01*
Y345175D02*
X194350D01*
Y338825D02*
Y345175D01*
X191175Y338825D02*
X194350D01*
X191175Y335650D02*
Y338825D01*
X184825Y335650D02*
X191175D01*
X184825D02*
Y338825D01*
X206650Y388825D02*
X209825D01*
X206650D02*
Y395175D01*
X209825D01*
Y398350D01*
X216175D01*
Y395175D02*
Y398350D01*
Y395175D02*
X219350D01*
Y388825D02*
Y395175D01*
X216175Y388825D02*
X219350D01*
X216175Y385650D02*
Y388825D01*
X209825Y385650D02*
X216175D01*
X209825D02*
Y388825D01*
X181650Y438825D02*
X184825D01*
X181650D02*
Y445175D01*
X184825D01*
Y448350D01*
X191175D01*
Y445175D02*
Y448350D01*
Y445175D02*
X194350D01*
Y438825D02*
Y445175D01*
X191175Y438825D02*
X194350D01*
X191175Y435650D02*
Y438825D01*
X184825Y435650D02*
X191175D01*
X184825D02*
Y438825D01*
X206650Y488825D02*
X209825D01*
X206650D02*
Y495175D01*
X209825D01*
Y498350D01*
X216175D01*
Y495175D02*
Y498350D01*
Y495175D02*
X219350D01*
Y488825D02*
Y495175D01*
X216175Y488825D02*
X219350D01*
X216175Y485650D02*
Y488825D01*
X209825Y485650D02*
X216175D01*
X209825D02*
Y488825D01*
X231650Y38825D02*
X234825D01*
X231650D02*
Y45175D01*
X234825D01*
Y48350D01*
X241175D01*
Y45175D02*
Y48350D01*
Y45175D02*
X244350D01*
Y38825D02*
Y45175D01*
X241175Y38825D02*
X244350D01*
X241175Y35650D02*
Y38825D01*
X234825Y35650D02*
X241175D01*
X234825D02*
Y38825D01*
X231650Y138825D02*
X234825D01*
X231650D02*
Y145175D01*
X234825D01*
Y148350D01*
X241175D01*
Y145175D02*
Y148350D01*
Y145175D02*
X244350D01*
Y138825D02*
Y145175D01*
X241175Y138825D02*
X244350D01*
X241175Y135650D02*
Y138825D01*
X234825Y135650D02*
X241175D01*
X234825D02*
Y138825D01*
X256650Y288825D02*
X259825D01*
X256650D02*
Y295175D01*
X259825D01*
Y298350D01*
X266175D01*
Y295175D02*
Y298350D01*
Y295175D02*
X269350D01*
Y288825D02*
Y295175D01*
X266175Y288825D02*
X269350D01*
X266175Y285650D02*
Y288825D01*
X259825Y285650D02*
X266175D01*
X259825D02*
Y288825D01*
X231650Y338825D02*
X234825D01*
X231650D02*
Y345175D01*
X234825D01*
Y348350D01*
X241175D01*
Y345175D02*
Y348350D01*
Y345175D02*
X244350D01*
Y338825D02*
Y345175D01*
X241175Y338825D02*
X244350D01*
X241175Y335650D02*
Y338825D01*
X234825Y335650D02*
X241175D01*
X234825D02*
Y338825D01*
X256650Y388825D02*
X259825D01*
X256650D02*
Y395175D01*
X259825D01*
Y398350D01*
X266175D01*
Y395175D02*
Y398350D01*
Y395175D02*
X269350D01*
Y388825D02*
Y395175D01*
X266175Y388825D02*
X269350D01*
X266175Y385650D02*
Y388825D01*
X259825Y385650D02*
X266175D01*
X259825D02*
Y388825D01*
X231650Y438825D02*
X234825D01*
X231650D02*
Y445175D01*
X234825D01*
Y448350D01*
X241175D01*
Y445175D02*
Y448350D01*
Y445175D02*
X244350D01*
Y438825D02*
Y445175D01*
X241175Y438825D02*
X244350D01*
X241175Y435650D02*
Y438825D01*
X234825Y435650D02*
X241175D01*
X234825D02*
Y438825D01*
X256650Y488825D02*
X259825D01*
X256650D02*
Y495175D01*
X259825D01*
Y498350D01*
X266175D01*
Y495175D02*
Y498350D01*
Y495175D02*
X269350D01*
Y488825D02*
Y495175D01*
X266175Y488825D02*
X269350D01*
X266175Y485650D02*
Y488825D01*
X259825Y485650D02*
X266175D01*
X259825D02*
Y488825D01*
X306650Y288825D02*
X309825D01*
X306650D02*
Y295175D01*
X309825D01*
Y298350D01*
X316175D01*
Y295175D02*
Y298350D01*
Y295175D02*
X319350D01*
Y288825D02*
Y295175D01*
X316175Y288825D02*
X319350D01*
X316175Y285650D02*
Y288825D01*
X309825Y285650D02*
X316175D01*
X309825D02*
Y288825D01*
X281650Y338825D02*
X284825D01*
X281650D02*
Y345175D01*
X284825D01*
Y348350D01*
X291175D01*
Y345175D02*
Y348350D01*
Y345175D02*
X294350D01*
Y338825D02*
Y345175D01*
X291175Y338825D02*
X294350D01*
X291175Y335650D02*
Y338825D01*
X284825Y335650D02*
X291175D01*
X284825D02*
Y338825D01*
X306650Y388825D02*
X309825D01*
X306650D02*
Y395175D01*
X309825D01*
Y398350D01*
X316175D01*
Y395175D02*
Y398350D01*
Y395175D02*
X319350D01*
Y388825D02*
Y395175D01*
X316175Y388825D02*
X319350D01*
X316175Y385650D02*
Y388825D01*
X309825Y385650D02*
X316175D01*
X309825D02*
Y388825D01*
X281650Y438825D02*
X284825D01*
X281650D02*
Y445175D01*
X284825D01*
Y448350D01*
X291175D01*
Y445175D02*
Y448350D01*
Y445175D02*
X294350D01*
Y438825D02*
Y445175D01*
X291175Y438825D02*
X294350D01*
X291175Y435650D02*
Y438825D01*
X284825Y435650D02*
X291175D01*
X284825D02*
Y438825D01*
X306650Y488825D02*
X309825D01*
X306650D02*
Y495175D01*
X309825D01*
Y498350D01*
X316175D01*
Y495175D02*
Y498350D01*
Y495175D02*
X319350D01*
Y488825D02*
Y495175D01*
X316175Y488825D02*
X319350D01*
X316175Y485650D02*
Y488825D01*
X309825Y485650D02*
X316175D01*
X309825D02*
Y488825D01*
X356650Y88825D02*
X359825D01*
X356650D02*
Y95175D01*
X359825D01*
Y98350D01*
X366175D01*
Y95175D02*
Y98350D01*
Y95175D02*
X369350D01*
Y88825D02*
Y95175D01*
X366175Y88825D02*
X369350D01*
X366175Y85650D02*
Y88825D01*
X359825Y85650D02*
X366175D01*
X359825D02*
Y88825D01*
X356650Y288825D02*
X359825D01*
X356650D02*
Y295175D01*
X359825D01*
Y298350D01*
X366175D01*
Y295175D02*
Y298350D01*
Y295175D02*
X369350D01*
Y288825D02*
Y295175D01*
X366175Y288825D02*
X369350D01*
X366175Y285650D02*
Y288825D01*
X359825Y285650D02*
X366175D01*
X359825D02*
Y288825D01*
X331650Y338825D02*
X334825D01*
X331650D02*
Y345175D01*
X334825D01*
Y348350D01*
X341175D01*
Y345175D02*
Y348350D01*
Y345175D02*
X344350D01*
Y338825D02*
Y345175D01*
X341175Y338825D02*
X344350D01*
X341175Y335650D02*
Y338825D01*
X334825Y335650D02*
X341175D01*
X334825D02*
Y338825D01*
X356650Y388825D02*
X359825D01*
X356650D02*
Y395175D01*
X359825D01*
Y398350D01*
X366175D01*
Y395175D02*
Y398350D01*
Y395175D02*
X369350D01*
Y388825D02*
Y395175D01*
X366175Y388825D02*
X369350D01*
X366175Y385650D02*
Y388825D01*
X359825Y385650D02*
X366175D01*
X359825D02*
Y388825D01*
X331650Y438825D02*
X334825D01*
X331650D02*
Y445175D01*
X334825D01*
Y448350D01*
X341175D01*
Y445175D02*
Y448350D01*
Y445175D02*
X344350D01*
Y438825D02*
Y445175D01*
X341175Y438825D02*
X344350D01*
X341175Y435650D02*
Y438825D01*
X334825Y435650D02*
X341175D01*
X334825D02*
Y438825D01*
X356650Y488825D02*
X359825D01*
X356650D02*
Y495175D01*
X359825D01*
Y498350D01*
X366175D01*
Y495175D02*
Y498350D01*
Y495175D02*
X369350D01*
Y488825D02*
Y495175D01*
X366175Y488825D02*
X369350D01*
X366175Y485650D02*
Y488825D01*
X359825Y485650D02*
X366175D01*
X359825D02*
Y488825D01*
X381650Y38825D02*
X384825D01*
X381650D02*
Y45175D01*
X384825D01*
Y48350D01*
X391175D01*
Y45175D02*
Y48350D01*
Y45175D02*
X394350D01*
Y38825D02*
Y45175D01*
X391175Y38825D02*
X394350D01*
X391175Y35650D02*
Y38825D01*
X384825Y35650D02*
X391175D01*
X384825D02*
Y38825D01*
X406650Y188825D02*
X409825D01*
X406650D02*
Y195175D01*
X409825D01*
Y198350D01*
X416175D01*
Y195175D02*
Y198350D01*
Y195175D02*
X419350D01*
Y188825D02*
Y195175D01*
X416175Y188825D02*
X419350D01*
X416175Y185650D02*
Y188825D01*
X409825Y185650D02*
X416175D01*
X409825D02*
Y188825D01*
X381650Y438825D02*
X384825D01*
X381650D02*
Y445175D01*
X384825D01*
Y448350D01*
X391175D01*
Y445175D02*
Y448350D01*
Y445175D02*
X394350D01*
Y438825D02*
Y445175D01*
X391175Y438825D02*
X394350D01*
X391175Y435650D02*
Y438825D01*
X384825Y435650D02*
X391175D01*
X384825D02*
Y438825D01*
X431650Y38825D02*
X434825D01*
X431650D02*
Y45175D01*
X434825D01*
Y48350D01*
X441175D01*
Y45175D02*
Y48350D01*
Y45175D02*
X444350D01*
Y38825D02*
Y45175D01*
X441175Y38825D02*
X444350D01*
X441175Y35650D02*
Y38825D01*
X434825Y35650D02*
X441175D01*
X434825D02*
Y38825D01*
X456650Y88825D02*
X459825D01*
X456650D02*
Y95175D01*
X459825D01*
Y98350D01*
X466175D01*
Y95175D02*
Y98350D01*
Y95175D02*
X469350D01*
Y88825D02*
Y95175D01*
X466175Y88825D02*
X469350D01*
X466175Y85650D02*
Y88825D01*
X459825Y85650D02*
X466175D01*
X459825D02*
Y88825D01*
X431650Y238825D02*
X434825D01*
X431650D02*
Y245175D01*
X434825D01*
Y248350D01*
X441175D01*
Y245175D02*
Y248350D01*
Y245175D02*
X444350D01*
Y238825D02*
Y245175D01*
X441175Y238825D02*
X444350D01*
X441175Y235650D02*
Y238825D01*
X434825Y235650D02*
X441175D01*
X434825D02*
Y238825D01*
X456650Y388825D02*
X459825D01*
X456650D02*
Y395175D01*
X459825D01*
Y398350D01*
X466175D01*
Y395175D02*
Y398350D01*
Y395175D02*
X469350D01*
Y388825D02*
Y395175D01*
X466175Y388825D02*
X469350D01*
X466175Y385650D02*
Y388825D01*
X459825Y385650D02*
X466175D01*
X459825D02*
Y388825D01*
X481650Y38825D02*
X484825D01*
X481650D02*
Y45175D01*
X484825D01*
Y48350D01*
X491175D01*
Y45175D02*
Y48350D01*
Y45175D02*
X494350D01*
Y38825D02*
Y45175D01*
X491175Y38825D02*
X494350D01*
X491175Y35650D02*
Y38825D01*
X484825Y35650D02*
X491175D01*
X484825D02*
Y38825D01*
X506650Y88825D02*
X509825D01*
X506650D02*
Y95175D01*
X509825D01*
Y98350D01*
X516175D01*
Y95175D02*
Y98350D01*
Y95175D02*
X519350D01*
Y88825D02*
Y95175D01*
X516175Y88825D02*
X519350D01*
X516175Y85650D02*
Y88825D01*
X509825Y85650D02*
X516175D01*
X509825D02*
Y88825D01*
X481650Y438825D02*
X484825D01*
X481650D02*
Y445175D01*
X484825D01*
Y448350D01*
X491175D01*
Y445175D02*
Y448350D01*
Y445175D02*
X494350D01*
Y438825D02*
Y445175D01*
X491175Y438825D02*
X494350D01*
X491175Y435650D02*
Y438825D01*
X484825Y435650D02*
X491175D01*
X484825D02*
Y438825D01*
X531650Y38825D02*
X534825D01*
X531650D02*
Y45175D01*
X534825D01*
Y48350D01*
X541175D01*
Y45175D02*
Y48350D01*
Y45175D02*
X544350D01*
Y38825D02*
Y45175D01*
X541175Y38825D02*
X544350D01*
X541175Y35650D02*
Y38825D01*
X534825Y35650D02*
X541175D01*
X534825D02*
Y38825D01*
X556650Y88825D02*
X559825D01*
X556650D02*
Y95175D01*
X559825D01*
Y98350D01*
X566175D01*
Y95175D02*
Y98350D01*
Y95175D02*
X569350D01*
Y88825D02*
Y95175D01*
X566175Y88825D02*
X569350D01*
X566175Y85650D02*
Y88825D01*
X559825Y85650D02*
X566175D01*
X559825D02*
Y88825D01*
X531650Y238825D02*
X534825D01*
X531650D02*
Y245175D01*
X534825D01*
Y248350D01*
X541175D01*
Y245175D02*
Y248350D01*
Y245175D02*
X544350D01*
Y238825D02*
Y245175D01*
X541175Y238825D02*
X544350D01*
X541175Y235650D02*
Y238825D01*
X534825Y235650D02*
X541175D01*
X534825D02*
Y238825D01*
X531650Y438825D02*
X534825D01*
X531650D02*
Y445175D01*
X534825D01*
Y448350D01*
X541175D01*
Y445175D02*
Y448350D01*
Y445175D02*
X544350D01*
Y438825D02*
Y445175D01*
X541175Y438825D02*
X544350D01*
X541175Y435650D02*
Y438825D01*
X534825Y435650D02*
X541175D01*
X534825D02*
Y438825D01*
X581650Y38825D02*
X584825D01*
X581650D02*
Y45175D01*
X584825D01*
Y48350D01*
X591175D01*
Y45175D02*
Y48350D01*
Y45175D02*
X594350D01*
Y38825D02*
Y45175D01*
X591175Y38825D02*
X594350D01*
X591175Y35650D02*
Y38825D01*
X584825Y35650D02*
X591175D01*
X584825D02*
Y38825D01*
X606650Y388825D02*
X609825D01*
X606650D02*
Y395175D01*
X609825D01*
Y398350D01*
X616175D01*
Y395175D02*
Y398350D01*
Y395175D02*
X619350D01*
Y388825D02*
Y395175D01*
X616175Y388825D02*
X619350D01*
X616175Y385650D02*
Y388825D01*
X609825Y385650D02*
X616175D01*
X609825D02*
Y388825D01*
X581650Y438825D02*
X584825D01*
X581650D02*
Y445175D01*
X584825D01*
Y448350D01*
X591175D01*
Y445175D02*
Y448350D01*
Y445175D02*
X594350D01*
Y438825D02*
Y445175D01*
X591175Y438825D02*
X594350D01*
X591175Y435650D02*
Y438825D01*
X584825Y435650D02*
X591175D01*
X584825D02*
Y438825D01*
X631650Y38825D02*
X634825D01*
X631650D02*
Y45175D01*
X634825D01*
Y48350D01*
X641175D01*
Y45175D02*
Y48350D01*
Y45175D02*
X644350D01*
Y38825D02*
Y45175D01*
X641175Y38825D02*
X644350D01*
X641175Y35650D02*
Y38825D01*
X634825Y35650D02*
X641175D01*
X634825D02*
Y38825D01*
X656650Y288825D02*
X659825D01*
X656650D02*
Y295175D01*
X659825D01*
Y298350D01*
X666175D01*
Y295175D02*
Y298350D01*
Y295175D02*
X669350D01*
Y288825D02*
Y295175D01*
X666175Y288825D02*
X669350D01*
X666175Y285650D02*
Y288825D01*
X659825Y285650D02*
X666175D01*
X659825D02*
Y288825D01*
X656650Y388825D02*
X659825D01*
X656650D02*
Y395175D01*
X659825D01*
Y398350D01*
X666175D01*
Y395175D02*
Y398350D01*
Y395175D02*
X669350D01*
Y388825D02*
Y395175D01*
X666175Y388825D02*
X669350D01*
X666175Y385650D02*
Y388825D01*
X659825Y385650D02*
X666175D01*
X659825D02*
Y388825D01*
X681650Y38825D02*
X684825D01*
X681650D02*
Y45175D01*
X684825D01*
Y48350D01*
X691175D01*
Y45175D02*
Y48350D01*
Y45175D02*
X694350D01*
Y38825D02*
Y45175D01*
X691175Y38825D02*
X694350D01*
X691175Y35650D02*
Y38825D01*
X684825Y35650D02*
X691175D01*
X684825D02*
Y38825D01*
X681650Y138825D02*
X684825D01*
X681650D02*
Y145175D01*
X684825D01*
Y148350D01*
X691175D01*
Y145175D02*
Y148350D01*
Y145175D02*
X694350D01*
Y138825D02*
Y145175D01*
X691175Y138825D02*
X694350D01*
X691175Y135650D02*
Y138825D01*
X684825Y135650D02*
X691175D01*
X684825D02*
Y138825D01*
X681650Y238825D02*
X684825D01*
X681650D02*
Y245175D01*
X684825D01*
Y248350D01*
X691175D01*
Y245175D02*
Y248350D01*
Y245175D02*
X694350D01*
Y238825D02*
Y245175D01*
X691175Y238825D02*
X694350D01*
X691175Y235650D02*
Y238825D01*
X684825Y235650D02*
X691175D01*
X684825D02*
Y238825D01*
X706650Y288825D02*
X709825D01*
X706650D02*
Y295175D01*
X709825D01*
Y298350D01*
X716175D01*
Y295175D02*
Y298350D01*
Y295175D02*
X719350D01*
Y288825D02*
Y295175D01*
X716175Y288825D02*
X719350D01*
X716175Y285650D02*
Y288825D01*
X709825Y285650D02*
X716175D01*
X709825D02*
Y288825D01*
X681650Y338825D02*
X684825D01*
X681650D02*
Y345175D01*
X684825D01*
Y348350D01*
X691175D01*
Y345175D02*
Y348350D01*
Y345175D02*
X694350D01*
Y338825D02*
Y345175D01*
X691175Y338825D02*
X694350D01*
X691175Y335650D02*
Y338825D01*
X684825Y335650D02*
X691175D01*
X684825D02*
Y338825D01*
X731650D02*
X734825D01*
X731650D02*
Y345175D01*
X734825D01*
Y348350D01*
X741175D01*
Y345175D02*
Y348350D01*
Y345175D02*
X744350D01*
Y338825D02*
Y345175D01*
X741175Y338825D02*
X744350D01*
X741175Y335650D02*
Y338825D01*
X734825Y335650D02*
X741175D01*
X734825D02*
Y338825D01*
X731650Y438825D02*
X734825D01*
X731650D02*
Y445175D01*
X734825D01*
Y448350D01*
X741175D01*
Y445175D02*
Y448350D01*
Y445175D02*
X744350D01*
Y438825D02*
Y445175D01*
X741175Y438825D02*
X744350D01*
X741175Y435650D02*
Y438825D01*
X734825Y435650D02*
X741175D01*
X734825D02*
Y438825D01*
X756650Y488825D02*
X759825D01*
X756650D02*
Y495175D01*
X759825D01*
Y498350D01*
X766175D01*
Y495175D02*
Y498350D01*
Y495175D02*
X769350D01*
Y488825D02*
Y495175D01*
X766175Y488825D02*
X769350D01*
X766175Y485650D02*
Y488825D01*
X759825Y485650D02*
X766175D01*
X759825D02*
Y488825D01*
X781650Y238825D02*
X784825D01*
X781650D02*
Y245175D01*
X784825D01*
Y248350D01*
X791175D01*
Y245175D02*
Y248350D01*
Y245175D02*
X794350D01*
Y238825D02*
Y245175D01*
X791175Y238825D02*
X794350D01*
X791175Y235650D02*
Y238825D01*
X784825Y235650D02*
X791175D01*
X784825D02*
Y238825D01*
X781650Y338825D02*
X784825D01*
X781650D02*
Y345175D01*
X784825D01*
Y348350D01*
X791175D01*
Y345175D02*
Y348350D01*
Y345175D02*
X794350D01*
Y338825D02*
Y345175D01*
X791175Y338825D02*
X794350D01*
X791175Y335650D02*
Y338825D01*
X784825Y335650D02*
X791175D01*
X784825D02*
Y338825D01*
X781650Y438825D02*
X784825D01*
X781650D02*
Y445175D01*
X784825D01*
Y448350D01*
X791175D01*
Y445175D02*
Y448350D01*
Y445175D02*
X794350D01*
Y438825D02*
Y445175D01*
X791175Y438825D02*
X794350D01*
X791175Y435650D02*
Y438825D01*
X784825Y435650D02*
X791175D01*
X784825D02*
Y438825D01*
X352650Y201825D02*
X355825D01*
X352650D02*
Y208175D01*
X355825D01*
Y211350D01*
X362175D01*
Y208175D02*
Y211350D01*
Y208175D02*
X365350D01*
Y201825D02*
Y208175D01*
X362175Y201825D02*
X365350D01*
X362175Y198650D02*
Y201825D01*
X355825Y198650D02*
X362175D01*
X355825D02*
Y201825D01*
X331650Y185825D02*
X334825D01*
X331650D02*
Y192175D01*
X334825D01*
Y195350D01*
X341175D01*
Y192175D02*
Y195350D01*
Y192175D02*
X344350D01*
Y185825D02*
Y192175D01*
X341175Y185825D02*
X344350D01*
X341175Y182650D02*
Y185825D01*
X334825Y182650D02*
X341175D01*
X334825D02*
Y185825D01*
X431650Y206825D02*
X434825D01*
X431650D02*
Y213175D01*
X434825D01*
Y216350D01*
X441175D01*
Y213175D02*
Y216350D01*
Y213175D02*
X444350D01*
Y206825D02*
Y213175D01*
X441175Y206825D02*
X444350D01*
X441175Y203650D02*
Y206825D01*
X434825Y203650D02*
X441175D01*
X434825D02*
Y206825D01*
X574650Y216825D02*
X577825D01*
X574650D02*
Y223175D01*
X577825D01*
Y226350D01*
X584175D01*
Y223175D02*
Y226350D01*
Y223175D02*
X587350D01*
Y216825D02*
Y223175D01*
X584175Y216825D02*
X587350D01*
X584175Y213650D02*
Y216825D01*
X577825Y213650D02*
X584175D01*
X577825D02*
Y216825D01*
X574650Y208825D02*
X577825D01*
X574650D02*
Y215175D01*
X577825D01*
Y218350D01*
X584175D01*
Y215175D02*
Y218350D01*
Y215175D02*
X587350D01*
Y208825D02*
Y215175D01*
X584175Y208825D02*
X587350D01*
X584175Y205650D02*
Y208825D01*
X577825Y205650D02*
X584175D01*
X577825D02*
Y208825D01*
X583650D02*
X586825D01*
X583650D02*
Y215175D01*
X586825D01*
Y218350D01*
X593175D01*
Y215175D02*
Y218350D01*
Y215175D02*
X596350D01*
Y208825D02*
Y215175D01*
X593175Y208825D02*
X596350D01*
X593175Y205650D02*
Y208825D01*
X586825Y205650D02*
X593175D01*
X586825D02*
Y208825D01*
X583650Y216825D02*
X586825D01*
X583650D02*
Y223175D01*
X586825D01*
Y226350D01*
X593175D01*
Y223175D02*
Y226350D01*
Y223175D02*
X596350D01*
Y216825D02*
Y223175D01*
X593175Y216825D02*
X596350D01*
X593175Y213650D02*
Y216825D01*
X586825Y213650D02*
X593175D01*
X586825D02*
Y216825D01*
X593650Y208825D02*
X596825D01*
X593650D02*
Y215175D01*
X596825D01*
Y218350D01*
X603175D01*
Y215175D02*
Y218350D01*
Y215175D02*
X606350D01*
Y208825D02*
Y215175D01*
X603175Y208825D02*
X606350D01*
X603175Y205650D02*
Y208825D01*
X596825Y205650D02*
X603175D01*
X596825D02*
Y208825D01*
X593650Y216825D02*
X596825D01*
X593650D02*
Y223175D01*
X596825D01*
Y226350D01*
X603175D01*
Y223175D02*
Y226350D01*
Y223175D02*
X606350D01*
Y216825D02*
Y223175D01*
X603175Y216825D02*
X606350D01*
X603175Y213650D02*
Y216825D01*
X596825Y213650D02*
X603175D01*
X596825D02*
Y216825D01*
X603650Y208825D02*
X606825D01*
X603650D02*
Y215175D01*
X606825D01*
Y218350D01*
X613175D01*
Y215175D02*
Y218350D01*
Y215175D02*
X616350D01*
Y208825D02*
Y215175D01*
X613175Y208825D02*
X616350D01*
X613175Y205650D02*
Y208825D01*
X606825Y205650D02*
X613175D01*
X606825D02*
Y208825D01*
X603650Y216825D02*
X606825D01*
X603650D02*
Y223175D01*
X606825D01*
Y226350D01*
X613175D01*
Y223175D02*
Y226350D01*
Y223175D02*
X616350D01*
Y216825D02*
Y223175D01*
X613175Y216825D02*
X616350D01*
X613175Y213650D02*
Y216825D01*
X606825Y213650D02*
X613175D01*
X606825D02*
Y216825D01*
X644650Y219825D02*
X647825D01*
X644650D02*
Y226175D01*
X647825D01*
Y229350D01*
X654175D01*
Y226175D02*
Y229350D01*
Y226175D02*
X657350D01*
Y219825D02*
Y226175D01*
X654175Y219825D02*
X657350D01*
X654175Y216650D02*
Y219825D01*
X647825Y216650D02*
X654175D01*
X647825D02*
Y219825D01*
X634650D02*
X637825D01*
X634650D02*
Y226175D01*
X637825D01*
Y229350D01*
X644175D01*
Y226175D02*
Y229350D01*
Y226175D02*
X647350D01*
Y219825D02*
Y226175D01*
X644175Y219825D02*
X647350D01*
X644175Y216650D02*
Y219825D01*
X637825Y216650D02*
X644175D01*
X637825D02*
Y219825D01*
X624650D02*
X627825D01*
X624650D02*
Y226175D01*
X627825D01*
Y229350D01*
X634175D01*
Y226175D02*
Y229350D01*
Y226175D02*
X637350D01*
Y219825D02*
Y226175D01*
X634175Y219825D02*
X637350D01*
X634175Y216650D02*
Y219825D01*
X627825Y216650D02*
X634175D01*
X627825D02*
Y219825D01*
X615650D02*
X618825D01*
X615650D02*
Y226175D01*
X618825D01*
Y229350D01*
X625175D01*
Y226175D02*
Y229350D01*
Y226175D02*
X628350D01*
Y219825D02*
Y226175D01*
X625175Y219825D02*
X628350D01*
X625175Y216650D02*
Y219825D01*
X618825Y216650D02*
X625175D01*
X618825D02*
Y219825D01*
X653650Y214825D02*
X656825D01*
X653650D02*
Y221175D01*
X656825D01*
Y224350D01*
X663175D01*
Y221175D02*
Y224350D01*
Y221175D02*
X666350D01*
Y214825D02*
Y221175D01*
X663175Y214825D02*
X666350D01*
X663175Y211650D02*
Y214825D01*
X656825Y211650D02*
X663175D01*
X656825D02*
Y214825D01*
X644650Y244825D02*
X647825D01*
X644650D02*
Y251175D01*
X647825D01*
Y254350D01*
X654175D01*
Y251175D02*
Y254350D01*
Y251175D02*
X657350D01*
Y244825D02*
Y251175D01*
X654175Y244825D02*
X657350D01*
X654175Y241650D02*
Y244825D01*
X647825Y241650D02*
X654175D01*
X647825D02*
Y244825D01*
X644650Y234825D02*
X647825D01*
X644650D02*
Y241175D01*
X647825D01*
Y244350D01*
X654175D01*
Y241175D02*
Y244350D01*
Y241175D02*
X657350D01*
Y234825D02*
Y241175D01*
X654175Y234825D02*
X657350D01*
X654175Y231650D02*
Y234825D01*
X647825Y231650D02*
X654175D01*
X647825D02*
Y234825D01*
X708650Y240825D02*
X711825D01*
X708650D02*
Y247175D01*
X711825D01*
Y250350D01*
X718175D01*
Y247175D02*
Y250350D01*
Y247175D02*
X721350D01*
Y240825D02*
Y247175D01*
X718175Y240825D02*
X721350D01*
X718175Y237650D02*
Y240825D01*
X711825Y237650D02*
X718175D01*
X711825D02*
Y240825D01*
X720650Y219825D02*
X723825D01*
X720650D02*
Y226175D01*
X723825D01*
Y229350D01*
X730175D01*
Y226175D02*
Y229350D01*
Y226175D02*
X733350D01*
Y219825D02*
Y226175D01*
X730175Y219825D02*
X733350D01*
X730175Y216650D02*
Y219825D01*
X723825Y216650D02*
X730175D01*
X723825D02*
Y219825D01*
X709650Y204825D02*
X712825D01*
X709650D02*
Y211175D01*
X712825D01*
Y214350D01*
X719175D01*
Y211175D02*
Y214350D01*
Y211175D02*
X722350D01*
Y204825D02*
Y211175D01*
X719175Y204825D02*
X722350D01*
X719175Y201650D02*
Y204825D01*
X712825Y201650D02*
X719175D01*
X712825D02*
Y204825D01*
X547650Y345825D02*
X550825D01*
X547650D02*
Y352175D01*
X550825D01*
Y355350D01*
X557175D01*
Y352175D02*
Y355350D01*
Y352175D02*
X560350D01*
Y345825D02*
Y352175D01*
X557175Y345825D02*
X560350D01*
X557175Y342650D02*
Y345825D01*
X550825Y342650D02*
X557175D01*
X550825D02*
Y345825D01*
X487650D02*
X490825D01*
X487650D02*
Y352175D01*
X490825D01*
Y355350D01*
X497175D01*
Y352175D02*
Y355350D01*
Y352175D02*
X500350D01*
Y345825D02*
Y352175D01*
X497175Y345825D02*
X500350D01*
X497175Y342650D02*
Y345825D01*
X490825Y342650D02*
X497175D01*
X490825D02*
Y345825D01*
X427650D02*
X430825D01*
X427650D02*
Y352175D01*
X430825D01*
Y355350D01*
X437175D01*
Y352175D02*
Y355350D01*
Y352175D02*
X440350D01*
Y345825D02*
Y352175D01*
X437175Y345825D02*
X440350D01*
X437175Y342650D02*
Y345825D01*
X430825Y342650D02*
X437175D01*
X430825D02*
Y345825D01*
X367650D02*
X370825D01*
X367650D02*
Y352175D01*
X370825D01*
Y355350D01*
X377175D01*
Y352175D02*
Y355350D01*
Y352175D02*
X380350D01*
Y345825D02*
Y352175D01*
X377175Y345825D02*
X380350D01*
X377175Y342650D02*
Y345825D01*
X370825Y342650D02*
X377175D01*
X370825D02*
Y345825D01*
X407650Y399825D02*
X410825D01*
X407650D02*
Y406175D01*
X410825D01*
Y409350D01*
X417175D01*
Y406175D02*
Y409350D01*
Y406175D02*
X420350D01*
Y399825D02*
Y406175D01*
X417175Y399825D02*
X420350D01*
X417175Y396650D02*
Y399825D01*
X410825Y396650D02*
X417175D01*
X410825D02*
Y399825D01*
X528650D02*
X531825D01*
X528650D02*
Y406175D01*
X531825D01*
Y409350D01*
X538175D01*
Y406175D02*
Y409350D01*
Y406175D02*
X541350D01*
Y399825D02*
Y406175D01*
X538175Y399825D02*
X541350D01*
X538175Y396650D02*
Y399825D01*
X531825Y396650D02*
X538175D01*
X531825D02*
Y399825D01*
X587650D02*
X590825D01*
X587650D02*
Y406175D01*
X590825D01*
Y409350D01*
X597175D01*
Y406175D02*
Y409350D01*
Y406175D02*
X600350D01*
Y399825D02*
Y406175D01*
X597175Y399825D02*
X600350D01*
X597175Y396650D02*
Y399825D01*
X590825Y396650D02*
X597175D01*
X590825D02*
Y399825D01*
X424650Y270825D02*
X427825D01*
X424650D02*
Y277175D01*
X427825D01*
Y280350D01*
X434175D01*
Y277175D02*
Y280350D01*
Y277175D02*
X437350D01*
Y270825D02*
Y277175D01*
X434175Y270825D02*
X437350D01*
X434175Y267650D02*
Y270825D01*
X427825Y267650D02*
X434175D01*
X427825D02*
Y270825D01*
X474650Y173825D02*
X477825D01*
X474650D02*
Y180175D01*
X477825D01*
Y183350D01*
X484175D01*
Y180175D02*
Y183350D01*
Y180175D02*
X487350D01*
Y173825D02*
Y180175D01*
X484175Y173825D02*
X487350D01*
X484175Y170650D02*
Y173825D01*
X477825Y170650D02*
X484175D01*
X477825D02*
Y173825D01*
X810825Y500825D02*
X814000Y497650D01*
X807650Y500825D02*
X810825D01*
X807650D02*
X810825Y504000D01*
X807650Y507175D02*
X810825Y504000D01*
X807650Y507175D02*
X810825D01*
X814000Y510350D01*
X817175Y507175D01*
X820350D01*
X817175Y504000D02*
X820350Y507175D01*
X817175Y504000D02*
X820350Y500825D01*
X817175D02*
X820350D01*
X814000Y497650D02*
X817175Y500825D01*
X810825Y32825D02*
X814000Y29650D01*
X807650Y32825D02*
X810825D01*
X807650D02*
X810825Y36000D01*
X807650Y39175D02*
X810825Y36000D01*
X807650Y39175D02*
X810825D01*
X814000Y42350D01*
X817175Y39175D01*
X820350D01*
X817175Y36000D02*
X820350Y39175D01*
X817175Y36000D02*
X820350Y32825D01*
X817175D02*
X820350D01*
X814000Y29650D02*
X817175Y32825D01*
X32825Y500825D02*
X36000Y497650D01*
X29650Y500825D02*
X32825D01*
X29650D02*
X32825Y504000D01*
X29650Y507175D02*
X32825Y504000D01*
X29650Y507175D02*
X32825D01*
X36000Y510350D01*
X39175Y507175D01*
X42350D01*
X39175Y504000D02*
X42350Y507175D01*
X39175Y504000D02*
X42350Y500825D01*
X39175D02*
X42350D01*
X36000Y497650D02*
X39175Y500825D01*
X32825Y32825D02*
X36000Y29650D01*
X29650Y32825D02*
X32825D01*
X29650D02*
X32825Y36000D01*
X29650Y39175D02*
X32825Y36000D01*
X29650Y39175D02*
X32825D01*
X36000Y42350D01*
X39175Y39175D01*
X42350D01*
X39175Y36000D02*
X42350Y39175D01*
X39175Y36000D02*
X42350Y32825D01*
X39175D02*
X42350D01*
X36000Y29650D02*
X39175Y32825D01*
X483698Y93650D02*
X490048Y106350D01*
X477348D02*
X490048D01*
X477348D02*
X483698Y93650D01*
X407498D02*
X413848Y106350D01*
X401148D02*
X413848D01*
X401148D02*
X407498Y93650D01*
X689824D02*
X696174Y106350D01*
X683474D02*
X696174D01*
X683474D02*
X689824Y93650D01*
X613624D02*
X619974Y106350D01*
X607274D02*
X619974D01*
X607274D02*
X613624Y93650D01*
X387650Y476650D02*
X394000Y479825D01*
X400350Y476650D01*
X397175Y483000D02*
X400350Y476650D01*
X397175Y483000D02*
X400350Y489350D01*
X394000Y486175D02*
X400350Y489350D01*
X387650D02*
X394000Y486175D01*
X387650Y489350D02*
X390825Y483000D01*
X387650Y476650D02*
X390825Y483000D01*
X412650Y476650D02*
X419000Y479825D01*
X425350Y476650D01*
X422175Y483000D02*
X425350Y476650D01*
X422175Y483000D02*
X425350Y489350D01*
X419000Y486175D02*
X425350Y489350D01*
X412650D02*
X419000Y486175D01*
X412650Y489350D02*
X415825Y483000D01*
X412650Y476650D02*
X415825Y483000D01*
X437650Y476650D02*
X444000Y479825D01*
X450350Y476650D01*
X447175Y483000D02*
X450350Y476650D01*
X447175Y483000D02*
X450350Y489350D01*
X444000Y486175D02*
X450350Y489350D01*
X437650D02*
X444000Y486175D01*
X437650Y489350D02*
X440825Y483000D01*
X437650Y476650D02*
X440825Y483000D01*
X462650Y476650D02*
X469000Y479825D01*
X475350Y476650D01*
X472175Y483000D02*
X475350Y476650D01*
X472175Y483000D02*
X475350Y489350D01*
X469000Y486175D02*
X475350Y489350D01*
X462650D02*
X469000Y486175D01*
X462650Y489350D02*
X465825Y483000D01*
X462650Y476650D02*
X465825Y483000D01*
X487650Y476650D02*
X494000Y479825D01*
X500350Y476650D01*
X497175Y483000D02*
X500350Y476650D01*
X497175Y483000D02*
X500350Y489350D01*
X494000Y486175D02*
X500350Y489350D01*
X487650D02*
X494000Y486175D01*
X487650Y489350D02*
X490825Y483000D01*
X487650Y476650D02*
X490825Y483000D01*
X685650Y414650D02*
X698350D01*
Y427350D01*
X685650D02*
X698350D01*
X685650Y414650D02*
Y427350D01*
X715650Y414650D02*
X728350D01*
Y427350D01*
X715650D02*
X728350D01*
X715650Y414650D02*
Y427350D01*
Y444650D02*
X728350D01*
Y457350D01*
X715650D02*
X728350D01*
X715650Y444650D02*
Y457350D01*
X685650Y444650D02*
X698350D01*
Y457350D01*
X685650D02*
X698350D01*
X685650Y444650D02*
Y457350D01*
X655650Y414650D02*
X668350D01*
Y427350D01*
X655650D02*
X668350D01*
X655650Y414650D02*
Y427350D01*
Y444650D02*
X668350D01*
Y457350D01*
X655650D02*
X668350D01*
X655650Y444650D02*
Y457350D01*
X625650Y414650D02*
X638350D01*
Y427350D01*
X625650D02*
X638350D01*
X625650Y414650D02*
Y427350D01*
Y444650D02*
X638350D01*
Y457350D01*
X625650D02*
X638350D01*
X625650Y444650D02*
Y457350D01*
X595650Y414650D02*
X608350D01*
Y427350D01*
X595650D02*
X608350D01*
X595650Y414650D02*
Y427350D01*
Y444650D02*
X608350D01*
Y457350D01*
X595650D02*
X608350D01*
X595650Y444650D02*
Y457350D01*
X565650Y414650D02*
X578350D01*
Y427350D01*
X565650D02*
X578350D01*
X565650Y414650D02*
Y427350D01*
Y444650D02*
X578350D01*
Y457350D01*
X565650D02*
X578350D01*
X565650Y444650D02*
Y457350D01*
D76*
X912905Y272605D02*
X3669053D01*
X912905Y44005D02*
X3669053D01*
X912905Y5905D02*
X3669053D01*
Y310705D01*
X912905D02*
X3669053D01*
X912905Y5905D02*
Y310705D01*
X3318886Y5905D02*
Y310705D01*
X2980150Y5905D02*
Y310705D01*
X2763294Y5905D02*
Y310705D01*
X2529681Y5905D02*
Y310705D01*
X2340248Y5905D02*
Y310705D01*
X2190426Y5905D02*
Y310705D01*
X1809541Y5905D02*
Y310705D01*
X1623155Y5905D02*
Y310705D01*
X1494662Y5905D02*
Y310705D01*
X1205187Y5905D02*
Y310705D01*
X1052827Y5905D02*
Y310705D01*
D77*
X3330316Y302317D02*
Y284035D01*
Y293176D01*
X3342505D01*
Y302317D01*
Y284035D01*
X3351646D02*
X3357740D01*
X3360787Y287082D01*
Y293176D01*
X3357740Y296223D01*
X3351646D01*
X3348599Y293176D01*
Y287082D01*
X3351646Y284035D01*
X3366880D02*
X3372975D01*
X3369928D01*
Y302317D01*
X3366880D01*
X3391257Y284035D02*
X3385163D01*
X3382116Y287082D01*
Y293176D01*
X3385163Y296223D01*
X3391257D01*
X3394304Y293176D01*
Y290129D01*
X3382116D01*
X3418680Y302317D02*
X3430868D01*
X3424774D01*
Y284035D01*
X3440009D02*
X3446103D01*
X3449150Y287082D01*
Y293176D01*
X3446103Y296223D01*
X3440009D01*
X3436962Y293176D01*
Y287082D01*
X3440009Y284035D01*
X3455244D02*
X3461338D01*
X3458291D01*
Y302317D01*
X3455244D01*
X3479620Y284035D02*
X3473526D01*
X3470479Y287082D01*
Y293176D01*
X3473526Y296223D01*
X3479620D01*
X3482667Y293176D01*
Y290129D01*
X3470479D01*
X3488761Y296223D02*
Y284035D01*
Y290129D01*
X3491808Y293176D01*
X3494855Y296223D01*
X3497902D01*
X3510090D02*
X3516184D01*
X3519231Y293176D01*
Y284035D01*
X3510090D01*
X3507043Y287082D01*
X3510090Y290129D01*
X3519231D01*
X3525325Y284035D02*
Y296223D01*
X3534466D01*
X3537513Y293176D01*
Y284035D01*
X3555796Y296223D02*
X3546654D01*
X3543607Y293176D01*
Y287082D01*
X3546654Y284035D01*
X3555796D01*
X3571031D02*
X3564937D01*
X3561890Y287082D01*
Y293176D01*
X3564937Y296223D01*
X3571031D01*
X3574077Y293176D01*
Y290129D01*
X3561890D01*
X3604548Y284035D02*
X3598454Y290129D01*
Y296223D01*
X3604548Y302317D01*
X3613689Y293176D02*
X3625877D01*
X3631971Y284035D02*
X3638065Y290129D01*
Y296223D01*
X3631971Y302317D01*
X2991580D02*
Y284035D01*
Y293176D01*
X3003768D01*
Y302317D01*
Y284035D01*
X3012909D02*
X3019003D01*
X3022050Y287082D01*
Y293176D01*
X3019003Y296223D01*
X3012909D01*
X3009862Y293176D01*
Y287082D01*
X3012909Y284035D01*
X3028144D02*
X3034238D01*
X3031191D01*
Y302317D01*
X3028144D01*
X3052520Y284035D02*
X3046426D01*
X3043379Y287082D01*
Y293176D01*
X3046426Y296223D01*
X3052520D01*
X3055567Y293176D01*
Y290129D01*
X3043379D01*
X3079944Y302317D02*
X3092132D01*
X3086038D01*
Y284035D01*
X3101273D02*
X3107367D01*
X3110414Y287082D01*
Y293176D01*
X3107367Y296223D01*
X3101273D01*
X3098226Y293176D01*
Y287082D01*
X3101273Y284035D01*
X3116508D02*
X3122602D01*
X3119555D01*
Y302317D01*
X3116508D01*
X3140884Y284035D02*
X3134790D01*
X3131743Y287082D01*
Y293176D01*
X3134790Y296223D01*
X3140884D01*
X3143931Y293176D01*
Y290129D01*
X3131743D01*
X3150025Y296223D02*
Y284035D01*
Y290129D01*
X3153072Y293176D01*
X3156119Y296223D01*
X3159166D01*
X3171354D02*
X3177448D01*
X3180495Y293176D01*
Y284035D01*
X3171354D01*
X3168307Y287082D01*
X3171354Y290129D01*
X3180495D01*
X3186589Y284035D02*
Y296223D01*
X3195730D01*
X3198777Y293176D01*
Y284035D01*
X3217059Y296223D02*
X3207918D01*
X3204871Y293176D01*
Y287082D01*
X3207918Y284035D01*
X3217059D01*
X3232294D02*
X3226200D01*
X3223153Y287082D01*
Y293176D01*
X3226200Y296223D01*
X3232294D01*
X3235341Y293176D01*
Y290129D01*
X3223153D01*
X3265811Y284035D02*
X3259717Y290129D01*
Y296223D01*
X3265811Y302317D01*
X3274952Y293176D02*
X3287141D01*
X3281046Y299270D02*
Y287082D01*
X3293235Y284035D02*
X3299329Y290129D01*
Y296223D01*
X3293235Y302317D01*
X2774724D02*
Y284035D01*
X2783865D01*
X2786912Y287082D01*
Y299270D01*
X2783865Y302317D01*
X2774724D01*
X2802148Y284035D02*
X2796053D01*
X2793006Y287082D01*
Y293176D01*
X2796053Y296223D01*
X2802148D01*
X2805194Y293176D01*
Y290129D01*
X2793006D01*
X2811288Y284035D02*
X2820429D01*
X2823477Y287082D01*
X2820429Y290129D01*
X2814335D01*
X2811288Y293176D01*
X2814335Y296223D01*
X2823477D01*
X2841759D02*
X2832617D01*
X2829571Y293176D01*
Y287082D01*
X2832617Y284035D01*
X2841759D01*
X2847852Y296223D02*
Y284035D01*
Y290129D01*
X2850900Y293176D01*
X2853947Y296223D01*
X2856994D01*
X2866135Y284035D02*
X2872229D01*
X2869182D01*
Y296223D01*
X2866135D01*
X2881370Y277941D02*
Y296223D01*
X2890511D01*
X2893558Y293176D01*
Y287082D01*
X2890511Y284035D01*
X2881370D01*
X2902699Y299270D02*
Y296223D01*
X2899652D01*
X2905746D01*
X2902699D01*
Y287082D01*
X2905746Y284035D01*
X2914887D02*
X2920981D01*
X2917934D01*
Y296223D01*
X2914887D01*
X2933169Y284035D02*
X2939263D01*
X2942310Y287082D01*
Y293176D01*
X2939263Y296223D01*
X2933169D01*
X2930122Y293176D01*
Y287082D01*
X2933169Y284035D01*
X2948404D02*
Y296223D01*
X2957545D01*
X2960592Y293176D01*
Y284035D01*
X2541111Y302317D02*
X2553299D01*
X2547205D01*
Y284035D01*
X2568534D02*
X2562440D01*
X2559393Y287082D01*
Y293176D01*
X2562440Y296223D01*
X2568534D01*
X2571581Y293176D01*
Y290129D01*
X2559393D01*
X2577675Y284035D02*
Y296223D01*
X2580722D01*
X2583769Y293176D01*
Y284035D01*
Y293176D01*
X2586816Y296223D01*
X2589863Y293176D01*
Y284035D01*
X2595957Y277941D02*
Y296223D01*
X2605098D01*
X2608145Y293176D01*
Y287082D01*
X2605098Y284035D01*
X2595957D01*
X2614239D02*
X2620333D01*
X2617286D01*
Y302317D01*
X2614239D01*
X2632521Y296223D02*
X2638615D01*
X2641662Y293176D01*
Y284035D01*
X2632521D01*
X2629474Y287082D01*
X2632521Y290129D01*
X2641662D01*
X2650803Y299270D02*
Y296223D01*
X2647756D01*
X2653850D01*
X2650803D01*
Y287082D01*
X2653850Y284035D01*
X2672132D02*
X2666038D01*
X2662991Y287082D01*
Y293176D01*
X2666038Y296223D01*
X2672132D01*
X2675179Y293176D01*
Y290129D01*
X2662991D01*
X2351678Y284035D02*
Y302317D01*
X2360819D01*
X2363866Y299270D01*
Y293176D01*
X2360819Y290129D01*
X2351678D01*
X2373007Y296223D02*
X2379101D01*
X2382148Y293176D01*
Y284035D01*
X2373007D01*
X2369960Y287082D01*
X2373007Y290129D01*
X2382148D01*
X2400430Y302317D02*
Y284035D01*
X2391289D01*
X2388242Y287082D01*
Y293176D01*
X2391289Y296223D01*
X2400430D01*
X2436994Y299270D02*
X2433947Y302317D01*
X2427853D01*
X2424806Y299270D01*
Y296223D01*
X2427853Y293176D01*
X2433947D01*
X2436994Y290129D01*
Y287082D01*
X2433947Y284035D01*
X2427853D01*
X2424806Y287082D01*
X2443089Y302317D02*
Y284035D01*
Y293176D01*
X2446136Y296223D01*
X2452229D01*
X2455276Y293176D01*
Y284035D01*
X2464418Y296223D02*
X2470512D01*
X2473559Y293176D01*
Y284035D01*
X2464418D01*
X2461371Y287082D01*
X2464418Y290129D01*
X2473559D01*
X2479653Y277941D02*
Y296223D01*
X2488794D01*
X2491841Y293176D01*
Y287082D01*
X2488794Y284035D01*
X2479653D01*
X2507076D02*
X2500982D01*
X2497935Y287082D01*
Y293176D01*
X2500982Y296223D01*
X2507076D01*
X2510123Y293176D01*
Y290129D01*
X2497935D01*
X2201857Y302317D02*
Y290129D01*
X2207950Y284035D01*
X2214045Y290129D01*
Y302317D01*
X2220139Y284035D02*
X2226233D01*
X2223186D01*
Y296223D01*
X2220139D01*
X2238421D02*
X2244515D01*
X2247562Y293176D01*
Y284035D01*
X2238421D01*
X2235374Y287082D01*
X2238421Y290129D01*
X2247562D01*
X2253656Y284035D02*
X2265844Y296223D01*
X2271938Y284035D02*
Y302317D01*
X2281079D01*
X2284126Y299270D01*
Y293176D01*
X2281079Y290129D01*
X2271938D01*
X2293267Y296223D02*
X2299361D01*
X2302408Y293176D01*
Y284035D01*
X2293267D01*
X2290220Y287082D01*
X2293267Y290129D01*
X2302408D01*
X2320690Y302317D02*
Y284035D01*
X2311549D01*
X2308502Y287082D01*
Y293176D01*
X2311549Y296223D01*
X2320690D01*
X1820971Y302317D02*
Y284035D01*
X1830112D01*
X1833159Y287082D01*
Y299270D01*
X1830112Y302317D01*
X1820971D01*
X1839253Y296223D02*
Y284035D01*
Y290129D01*
X1842300Y293176D01*
X1845347Y296223D01*
X1848394D01*
X1857535Y284035D02*
X1863629D01*
X1860582D01*
Y296223D01*
X1857535D01*
X1872770Y284035D02*
X1878864D01*
X1875817D01*
Y302317D01*
X1872770D01*
X1888005Y284035D02*
X1894099D01*
X1891052D01*
Y302317D01*
X1888005D01*
X1921522D02*
Y284035D01*
X1933710D01*
X1942851Y296223D02*
X1948945D01*
X1951992Y293176D01*
Y284035D01*
X1942851D01*
X1939804Y287082D01*
X1942851Y290129D01*
X1951992D01*
X1958086Y296223D02*
Y287082D01*
X1961133Y284035D01*
X1970274D01*
Y280988D01*
X1967227Y277941D01*
X1964180D01*
X1970274Y284035D02*
Y296223D01*
X1985509Y284035D02*
X1979415D01*
X1976368Y287082D01*
Y293176D01*
X1979415Y296223D01*
X1985509D01*
X1988556Y293176D01*
Y290129D01*
X1976368D01*
X1994651Y296223D02*
Y284035D01*
Y290129D01*
X1997697Y293176D01*
X2000744Y296223D01*
X2003792D01*
X2031215Y284035D02*
Y302317D01*
X2040356D01*
X2043403Y299270D01*
Y293176D01*
X2040356Y290129D01*
X2031215D01*
X2052544Y296223D02*
X2058638D01*
X2061685Y293176D01*
Y284035D01*
X2052544D01*
X2049497Y287082D01*
X2052544Y290129D01*
X2061685D01*
X2067779Y284035D02*
X2073873D01*
X2070826D01*
Y296223D01*
X2067779D01*
X2083014D02*
Y284035D01*
Y290129D01*
X2086061Y293176D01*
X2089108Y296223D01*
X2092155D01*
X1634585Y302317D02*
Y284035D01*
Y293176D01*
X1646773D01*
Y302317D01*
Y284035D01*
X1655914D02*
X1662008D01*
X1665055Y287082D01*
Y293176D01*
X1662008Y296223D01*
X1655914D01*
X1652867Y293176D01*
Y287082D01*
X1655914Y284035D01*
X1671149D02*
X1677243D01*
X1674196D01*
Y302317D01*
X1671149D01*
X1695525Y284035D02*
X1689431D01*
X1686384Y287082D01*
Y293176D01*
X1689431Y296223D01*
X1695525D01*
X1698572Y293176D01*
Y290129D01*
X1686384D01*
X1722948Y302317D02*
X1735136D01*
X1729042D01*
Y284035D01*
X1741230Y296223D02*
Y287082D01*
X1744277Y284035D01*
X1753418D01*
Y280988D01*
X1750372Y277941D01*
X1747325D01*
X1753418Y284035D02*
Y296223D01*
X1759512Y277941D02*
Y296223D01*
X1768654D01*
X1771701Y293176D01*
Y287082D01*
X1768654Y284035D01*
X1759512D01*
X1786936D02*
X1780842D01*
X1777795Y287082D01*
Y293176D01*
X1780842Y296223D01*
X1786936D01*
X1789983Y293176D01*
Y290129D01*
X1777795D01*
X1506093Y284035D02*
Y302317D01*
X1515234D01*
X1518281Y299270D01*
Y293176D01*
X1515234Y290129D01*
X1506093D01*
X1524375Y284035D02*
X1530469D01*
X1527422D01*
Y302317D01*
X1524375D01*
X1542657Y296223D02*
X1548751D01*
X1551798Y293176D01*
Y284035D01*
X1542657D01*
X1539610Y287082D01*
X1542657Y290129D01*
X1551798D01*
X1560939Y299270D02*
Y296223D01*
X1557892D01*
X1563986D01*
X1560939D01*
Y287082D01*
X1563986Y284035D01*
X1582268D02*
X1576174D01*
X1573127Y287082D01*
Y293176D01*
X1576174Y296223D01*
X1582268D01*
X1585315Y293176D01*
Y290129D01*
X1573127D01*
X1603597Y302317D02*
Y284035D01*
X1594456D01*
X1591409Y287082D01*
Y293176D01*
X1594456Y296223D01*
X1603597D01*
X1216617Y302317D02*
Y284035D01*
Y293176D01*
X1228805D01*
Y302317D01*
Y284035D01*
X1237946D02*
X1244040D01*
X1247087Y287082D01*
Y293176D01*
X1244040Y296223D01*
X1237946D01*
X1234899Y293176D01*
Y287082D01*
X1237946Y284035D01*
X1253181D02*
X1259275D01*
X1256228D01*
Y302317D01*
X1253181D01*
X1277558Y284035D02*
X1271463D01*
X1268416Y287082D01*
Y293176D01*
X1271463Y296223D01*
X1277558D01*
X1280605Y293176D01*
Y290129D01*
X1268416D01*
X1317169Y299270D02*
X1314122Y302317D01*
X1308028D01*
X1304981Y299270D01*
Y296223D01*
X1308028Y293176D01*
X1314122D01*
X1317169Y290129D01*
Y287082D01*
X1314122Y284035D01*
X1308028D01*
X1304981Y287082D01*
X1323263Y284035D02*
X1329357D01*
X1326310D01*
Y296223D01*
X1323263D01*
X1338498D02*
X1350686D01*
X1338498Y284035D01*
X1350686D01*
X1365921D02*
X1359827D01*
X1356780Y287082D01*
Y293176D01*
X1359827Y296223D01*
X1365921D01*
X1368968Y293176D01*
Y290129D01*
X1356780D01*
X1076445Y299270D02*
X1073399Y302317D01*
X1067304D01*
X1064257Y299270D01*
Y287082D01*
X1067304Y284035D01*
X1073399D01*
X1076445Y287082D01*
X1085586Y284035D02*
X1091681D01*
X1094728Y287082D01*
Y293176D01*
X1091681Y296223D01*
X1085586D01*
X1082540Y293176D01*
Y287082D01*
X1085586Y284035D01*
X1100822Y296223D02*
Y287082D01*
X1103869Y284035D01*
X1113010D01*
Y296223D01*
X1119104Y284035D02*
Y296223D01*
X1128245D01*
X1131292Y293176D01*
Y284035D01*
X1140433Y299270D02*
Y296223D01*
X1137386D01*
X1143480D01*
X1140433D01*
Y287082D01*
X1143480Y284035D01*
X947953Y299270D02*
X944906Y302317D01*
X938812D01*
X935765Y299270D01*
Y296223D01*
X938812Y293176D01*
X944906D01*
X947953Y290129D01*
Y287082D01*
X944906Y284035D01*
X938812D01*
X935765Y287082D01*
X954047Y296223D02*
Y287082D01*
X957094Y284035D01*
X966235D01*
Y280988D01*
X963188Y277941D01*
X960141D01*
X966235Y284035D02*
Y296223D01*
X972329Y284035D02*
Y296223D01*
X975376D01*
X978423Y293176D01*
Y284035D01*
Y293176D01*
X981470Y296223D01*
X984517Y293176D01*
Y284035D01*
X990611Y302317D02*
Y284035D01*
X999752D01*
X1002799Y287082D01*
Y290129D01*
Y293176D01*
X999752Y296223D01*
X990611D01*
X1011940Y284035D02*
X1018034D01*
X1021081Y287082D01*
Y293176D01*
X1018034Y296223D01*
X1011940D01*
X1008893Y293176D01*
Y287082D01*
X1011940Y284035D01*
X1027175D02*
X1033269D01*
X1030222D01*
Y302317D01*
X1027175D01*
M02*
