G04*
G04 #@! TF.GenerationSoftware,Altium Limited,Altium Designer Agile,26.7.1 (25)*
G04*
G04 Layer_Physical_Order=2*
G04 Layer_Color=11367680*
G04 Board_Origin=10000000|10000000*
%FSLAX44Y44*%
%MOMM*%
G71*
G04*
G04 #@! TF.SameCoordinates,4D417E49-0174-4A82-A51E-36D70FBCD84E*
G04*
G04*
G04 #@! TF.FilePolarity,Positive*
G04*
G01*
G75*
%ADD33R,1.7000X1.7000*%
%ADD34C,1.7000*%
%ADD40C,1.0000*%
%ADD60C,0.5080*%
%ADD61C,0.2540*%
%ADD64C,0.2032*%
%ADD65C,0.5000*%
%ADD66R,1.6000X1.6000*%
%ADD67C,1.6000*%
%ADD68R,1.0000X1.0000*%
%ADD69R,2.2000X2.2000*%
%ADD70C,2.2000*%
%ADD71C,6.9000*%
%ADD72C,0.5080*%
%ADD73C,0.6096*%
G36*
X789350Y532383D02*
X785397Y528430D01*
X781927Y523654D01*
X779247Y518395D01*
X777423Y512781D01*
X776500Y506951D01*
Y506500D01*
X814000D01*
Y504000D01*
X816500D01*
Y466500D01*
X816951D01*
X822781Y467423D01*
X828395Y469247D01*
X833654Y471927D01*
X838430Y475397D01*
X842383Y479350D01*
X843883Y479037D01*
Y60963D01*
X842383Y60651D01*
X838430Y64603D01*
X833654Y68073D01*
X828395Y70753D01*
X822781Y72577D01*
X816951Y73500D01*
X816500D01*
Y36000D01*
X814000D01*
Y33500D01*
X776500D01*
Y33049D01*
X777423Y27219D01*
X779247Y21605D01*
X781927Y16346D01*
X785397Y11570D01*
X789350Y7617D01*
X789037Y6118D01*
X60963D01*
X60651Y7617D01*
X64603Y11570D01*
X68073Y16346D01*
X70753Y21605D01*
X72577Y27219D01*
X73500Y33049D01*
Y33500D01*
X36000D01*
Y36000D01*
X33500D01*
Y73500D01*
X33049D01*
X27219Y72577D01*
X21605Y70753D01*
X16346Y68073D01*
X11570Y64603D01*
X7617Y60651D01*
X6118Y60963D01*
Y479037D01*
X7617Y479350D01*
X11570Y475397D01*
X16346Y471927D01*
X21605Y469247D01*
X27219Y467423D01*
X33049Y466500D01*
X33500D01*
Y504000D01*
X36000D01*
Y506500D01*
X73500D01*
Y506951D01*
X72577Y512781D01*
X70753Y518395D01*
X68073Y523654D01*
X64603Y528430D01*
X60651Y532383D01*
X60963Y533882D01*
X789037D01*
X789350Y532383D01*
D02*
G37*
%LPC*%
G36*
X505000Y494000D02*
X496500D01*
Y485500D01*
X505000D01*
Y494000D01*
D02*
G37*
G36*
X491500D02*
X483000D01*
Y485500D01*
X491500D01*
Y494000D01*
D02*
G37*
G36*
X702273Y514539D02*
X698727D01*
X698530Y514500D01*
X698329D01*
X694852Y513808D01*
X694666Y513731D01*
X694469Y513692D01*
X691193Y512335D01*
X691026Y512224D01*
X690841Y512147D01*
X687893Y510177D01*
X687751Y510035D01*
X687584Y509923D01*
X685077Y507416D01*
X684965Y507249D01*
X684823Y507107D01*
X682853Y504159D01*
X682776Y503974D01*
X682665Y503806D01*
X681308Y500531D01*
X681268Y500334D01*
X681192Y500148D01*
X680500Y496671D01*
Y496470D01*
X680461Y496273D01*
Y492727D01*
X680500Y492530D01*
Y492329D01*
X681192Y488852D01*
X681268Y488666D01*
X681308Y488469D01*
X682665Y485193D01*
X682776Y485026D01*
X682853Y484841D01*
X684823Y481893D01*
X684965Y481751D01*
X685077Y481584D01*
X687584Y479077D01*
X687751Y478965D01*
X687893Y478823D01*
X690841Y476853D01*
X691026Y476776D01*
X691193Y476665D01*
X694469Y475308D01*
X694666Y475269D01*
X694852Y475192D01*
X698329Y474500D01*
X698530D01*
X698727Y474461D01*
X702273D01*
X702470Y474500D01*
X702671D01*
X706148Y475192D01*
X706334Y475269D01*
X706531Y475308D01*
X709807Y476665D01*
X709974Y476776D01*
X710159Y476853D01*
X713107Y478823D01*
X713249Y478965D01*
X713416Y479077D01*
X715923Y481584D01*
X716035Y481751D01*
X716177Y481893D01*
X718147Y484841D01*
X718224Y485027D01*
X718335Y485193D01*
X719692Y488469D01*
X719731Y488666D01*
X719808Y488852D01*
X720500Y492329D01*
Y492530D01*
X720539Y492727D01*
Y496273D01*
X720500Y496470D01*
Y496671D01*
X719808Y500148D01*
X719731Y500334D01*
X719692Y500531D01*
X718335Y503806D01*
X718224Y503974D01*
X718147Y504159D01*
X716177Y507107D01*
X716035Y507249D01*
X715923Y507416D01*
X713416Y509923D01*
X713249Y510035D01*
X713107Y510177D01*
X710159Y512147D01*
X709974Y512224D01*
X709807Y512335D01*
X706531Y513692D01*
X706334Y513731D01*
X706148Y513808D01*
X702671Y514500D01*
X702470D01*
X702273Y514539D01*
D02*
G37*
G36*
X595273D02*
X591727D01*
X591530Y514500D01*
X591329D01*
X587852Y513808D01*
X587666Y513731D01*
X587469Y513692D01*
X584193Y512335D01*
X584026Y512224D01*
X583841Y512147D01*
X580893Y510177D01*
X580751Y510035D01*
X580584Y509923D01*
X578077Y507416D01*
X577965Y507249D01*
X577823Y507107D01*
X575853Y504159D01*
X575776Y503974D01*
X575665Y503806D01*
X574308Y500531D01*
X574268Y500334D01*
X574192Y500148D01*
X573500Y496671D01*
Y496470D01*
X573461Y496273D01*
Y492727D01*
X573500Y492530D01*
Y492329D01*
X574192Y488852D01*
X574268Y488666D01*
X574308Y488469D01*
X575665Y485193D01*
X575776Y485026D01*
X575853Y484841D01*
X577823Y481893D01*
X577965Y481751D01*
X578077Y481584D01*
X580584Y479077D01*
X580751Y478965D01*
X580893Y478823D01*
X583841Y476853D01*
X584026Y476776D01*
X584193Y476665D01*
X587469Y475308D01*
X587666Y475269D01*
X587852Y475192D01*
X591329Y474500D01*
X591530D01*
X591727Y474461D01*
X595273D01*
X595470Y474500D01*
X595671D01*
X599148Y475192D01*
X599334Y475269D01*
X599531Y475308D01*
X602807Y476665D01*
X602974Y476776D01*
X603159Y476853D01*
X606107Y478823D01*
X606249Y478965D01*
X606416Y479077D01*
X608923Y481584D01*
X609035Y481751D01*
X609177Y481893D01*
X611147Y484841D01*
X611224Y485027D01*
X611335Y485193D01*
X612692Y488469D01*
X612731Y488666D01*
X612808Y488852D01*
X613500Y492329D01*
Y492530D01*
X613539Y492727D01*
Y496273D01*
X613500Y496470D01*
Y496671D01*
X612808Y500148D01*
X612731Y500334D01*
X612692Y500531D01*
X611335Y503806D01*
X611224Y503974D01*
X611147Y504159D01*
X609177Y507107D01*
X609035Y507249D01*
X608923Y507416D01*
X606416Y509923D01*
X606249Y510035D01*
X606107Y510177D01*
X603159Y512147D01*
X602974Y512224D01*
X602807Y512335D01*
X599531Y513692D01*
X599334Y513731D01*
X599148Y513808D01*
X595671Y514500D01*
X595470D01*
X595273Y514539D01*
D02*
G37*
G36*
X470388Y493540D02*
X467612D01*
X464932Y492822D01*
X462528Y491434D01*
X460566Y489472D01*
X459178Y487068D01*
X458460Y484388D01*
Y481612D01*
X459178Y478932D01*
X460566Y476528D01*
X462528Y474566D01*
X464932Y473178D01*
X467612Y472460D01*
X470388D01*
X473068Y473178D01*
X475472Y474566D01*
X477434Y476528D01*
X478822Y478932D01*
X479540Y481612D01*
Y484388D01*
X478822Y487068D01*
X477434Y489472D01*
X475472Y491434D01*
X473068Y492822D01*
X470388Y493540D01*
D02*
G37*
G36*
X445388D02*
X442612D01*
X439932Y492822D01*
X437528Y491434D01*
X435566Y489472D01*
X434178Y487068D01*
X433460Y484388D01*
Y481612D01*
X434178Y478932D01*
X435566Y476528D01*
X437528Y474566D01*
X439932Y473178D01*
X442612Y472460D01*
X445388D01*
X448068Y473178D01*
X450472Y474566D01*
X452434Y476528D01*
X453822Y478932D01*
X454540Y481612D01*
Y484388D01*
X453822Y487068D01*
X452434Y489472D01*
X450472Y491434D01*
X448068Y492822D01*
X445388Y493540D01*
D02*
G37*
G36*
X420388D02*
X417612D01*
X414932Y492822D01*
X412528Y491434D01*
X410566Y489472D01*
X409178Y487068D01*
X408460Y484388D01*
Y481612D01*
X409178Y478932D01*
X410566Y476528D01*
X412528Y474566D01*
X414932Y473178D01*
X417612Y472460D01*
X420388D01*
X423068Y473178D01*
X425472Y474566D01*
X427434Y476528D01*
X428822Y478932D01*
X429540Y481612D01*
Y484388D01*
X428822Y487068D01*
X427434Y489472D01*
X425472Y491434D01*
X423068Y492822D01*
X420388Y493540D01*
D02*
G37*
G36*
X395388D02*
X392612D01*
X389932Y492822D01*
X387528Y491434D01*
X385566Y489472D01*
X384178Y487068D01*
X383460Y484388D01*
Y481612D01*
X384178Y478932D01*
X385566Y476528D01*
X387528Y474566D01*
X389932Y473178D01*
X392612Y472460D01*
X395388D01*
X398068Y473178D01*
X400472Y474566D01*
X402434Y476528D01*
X403822Y478932D01*
X404540Y481612D01*
Y484388D01*
X403822Y487068D01*
X402434Y489472D01*
X400472Y491434D01*
X398068Y492822D01*
X395388Y493540D01*
D02*
G37*
G36*
X505000Y480500D02*
X496500D01*
Y472000D01*
X505000D01*
Y480500D01*
D02*
G37*
G36*
X491500D02*
X483000D01*
Y472000D01*
X491500D01*
Y480500D01*
D02*
G37*
G36*
X811500Y501500D02*
X776500D01*
Y501049D01*
X777423Y495219D01*
X779247Y489605D01*
X781927Y484346D01*
X785397Y479570D01*
X789570Y475397D01*
X794346Y471927D01*
X799605Y469247D01*
X805219Y467423D01*
X811049Y466500D01*
X811500D01*
Y501500D01*
D02*
G37*
G36*
X73500D02*
X38500D01*
Y466500D01*
X38951D01*
X44781Y467423D01*
X50395Y469247D01*
X55654Y471927D01*
X60430Y475397D01*
X64603Y479570D01*
X68073Y484346D01*
X70753Y489605D01*
X72577Y495219D01*
X73500Y501049D01*
Y501500D01*
D02*
G37*
G36*
X583500Y462500D02*
X574500D01*
Y453500D01*
X583500D01*
Y462500D01*
D02*
G37*
G36*
X604500Y462236D02*
Y453500D01*
X613236D01*
X612716Y455439D01*
X611202Y458061D01*
X609061Y460202D01*
X606439Y461716D01*
X604500Y462236D01*
D02*
G37*
G36*
X599500Y462236D02*
X597561Y461716D01*
X594939Y460202D01*
X592798Y458061D01*
X591284Y455439D01*
X590764Y453500D01*
X599500D01*
Y462236D01*
D02*
G37*
G36*
X569500Y462500D02*
X560500D01*
Y453500D01*
X569500D01*
Y462500D01*
D02*
G37*
G36*
X723453Y462040D02*
X720546D01*
X717739Y461288D01*
X715221Y459834D01*
X713166Y457779D01*
X711712Y455261D01*
X710960Y452453D01*
Y449547D01*
X711712Y446739D01*
X713166Y444221D01*
X715221Y442166D01*
X717739Y440712D01*
X720546Y439960D01*
X723453D01*
X726261Y440712D01*
X728779Y442166D01*
X730834Y444221D01*
X732288Y446739D01*
X733040Y449547D01*
Y452453D01*
X732288Y455261D01*
X730834Y457779D01*
X728779Y459834D01*
X726261Y461288D01*
X723453Y462040D01*
D02*
G37*
G36*
X693453D02*
X690546D01*
X687739Y461288D01*
X685221Y459834D01*
X683166Y457779D01*
X681712Y455261D01*
X680960Y452453D01*
Y449547D01*
X681712Y446739D01*
X683166Y444221D01*
X685221Y442166D01*
X687739Y440712D01*
X690546Y439960D01*
X693453D01*
X696261Y440712D01*
X698779Y442166D01*
X700834Y444221D01*
X702288Y446739D01*
X703040Y449547D01*
Y452453D01*
X702288Y455261D01*
X700834Y457779D01*
X698779Y459834D01*
X696261Y461288D01*
X693453Y462040D01*
D02*
G37*
G36*
X663453D02*
X660546D01*
X657739Y461288D01*
X655221Y459834D01*
X653166Y457779D01*
X651712Y455261D01*
X650960Y452453D01*
Y449547D01*
X651712Y446739D01*
X653166Y444221D01*
X655221Y442166D01*
X657739Y440712D01*
X660546Y439960D01*
X663453D01*
X666261Y440712D01*
X668779Y442166D01*
X670834Y444221D01*
X672288Y446739D01*
X673040Y449547D01*
Y452453D01*
X672288Y455261D01*
X670834Y457779D01*
X668779Y459834D01*
X666261Y461288D01*
X663453Y462040D01*
D02*
G37*
G36*
X633453D02*
X630546D01*
X627739Y461288D01*
X625221Y459834D01*
X623166Y457779D01*
X621712Y455261D01*
X620960Y452453D01*
Y449547D01*
X621712Y446739D01*
X623166Y444221D01*
X625221Y442166D01*
X627739Y440712D01*
X630546Y439960D01*
X633453D01*
X636261Y440712D01*
X638779Y442166D01*
X640834Y444221D01*
X642288Y446739D01*
X643040Y449547D01*
Y452453D01*
X642288Y455261D01*
X640834Y457779D01*
X638779Y459834D01*
X636261Y461288D01*
X633453Y462040D01*
D02*
G37*
G36*
X599500Y448500D02*
X590764D01*
X591284Y446561D01*
X592798Y443939D01*
X594939Y441798D01*
X597561Y440284D01*
X599500Y439764D01*
Y448500D01*
D02*
G37*
G36*
X613236D02*
X604500D01*
Y439764D01*
X606439Y440284D01*
X609061Y441798D01*
X611202Y443939D01*
X612716Y446561D01*
X613236Y448500D01*
D02*
G37*
G36*
X583500D02*
X574500D01*
Y439500D01*
X583500D01*
Y448500D01*
D02*
G37*
G36*
X569500D02*
X560500D01*
Y439500D01*
X569500D01*
Y448500D01*
D02*
G37*
G36*
X36000Y458790D02*
X34917D01*
X34720Y458750D01*
X34519D01*
X32394Y458328D01*
X32208Y458251D01*
X32011Y458212D01*
X30009Y457383D01*
X29842Y457271D01*
X29657Y457194D01*
X27855Y455990D01*
X27713Y455848D01*
X27546Y455737D01*
X26014Y454205D01*
X25902Y454038D01*
X25760Y453895D01*
X24556Y452094D01*
X24480Y451908D01*
X24368Y451741D01*
X23539Y449739D01*
X23500Y449543D01*
X23423Y449357D01*
X23000Y447232D01*
Y447031D01*
X22961Y446834D01*
X22961Y445751D01*
Y444667D01*
X23000Y444470D01*
Y444269D01*
X23423Y442144D01*
X23500Y441959D01*
X23539Y441762D01*
X24368Y439760D01*
X24480Y439593D01*
X24556Y439407D01*
X25760Y437606D01*
X25902Y437464D01*
X26014Y437296D01*
X27546Y435764D01*
X27713Y435653D01*
X27855Y435511D01*
X29657Y434307D01*
X29842Y434230D01*
X30009Y434118D01*
X32011Y433289D01*
X32208Y433250D01*
X32394Y433173D01*
X34519Y432751D01*
X34720D01*
X34917Y432711D01*
X37083D01*
X37280Y432751D01*
X37481D01*
X39606Y433173D01*
X39792Y433250D01*
X39989Y433289D01*
X41991Y434118D01*
X42158Y434230D01*
X42343Y434307D01*
X44145Y435511D01*
X44287Y435653D01*
X44454Y435764D01*
X45986Y437296D01*
X46098Y437464D01*
X46240Y437606D01*
X47444Y439407D01*
X47520Y439593D01*
X47632Y439760D01*
X48461Y441762D01*
X48500Y441959D01*
X48577Y442144D01*
X49000Y444269D01*
Y444470D01*
X49039Y444667D01*
Y446834D01*
X49000Y447031D01*
Y447232D01*
X48577Y449357D01*
X48500Y449543D01*
X48461Y449739D01*
X47632Y451741D01*
X47520Y451908D01*
X47444Y452094D01*
X46240Y453895D01*
X46098Y454038D01*
X45986Y454205D01*
X44454Y455737D01*
X44287Y455848D01*
X44145Y455990D01*
X42343Y457194D01*
X42158Y457271D01*
X41991Y457383D01*
X39989Y458212D01*
X39792Y458251D01*
X39606Y458328D01*
X37481Y458750D01*
X37280D01*
X37083Y458790D01*
X36000Y458790D01*
D02*
G37*
G36*
X663453Y432040D02*
X660546D01*
X657739Y431288D01*
X655221Y429834D01*
X653166Y427779D01*
X651712Y425261D01*
X650960Y422453D01*
Y419547D01*
X651712Y416739D01*
X653166Y414221D01*
X655221Y412166D01*
X657739Y410712D01*
X660546Y409960D01*
X663453D01*
X666261Y410712D01*
X668779Y412166D01*
X670834Y414221D01*
X672288Y416739D01*
X673040Y419547D01*
Y422453D01*
X672288Y425261D01*
X670834Y427779D01*
X668779Y429834D01*
X666261Y431288D01*
X663453Y432040D01*
D02*
G37*
G36*
X633453D02*
X630546D01*
X627739Y431288D01*
X625221Y429834D01*
X623166Y427779D01*
X621712Y425261D01*
X620960Y422453D01*
Y419547D01*
X621712Y416739D01*
X623166Y414221D01*
X625221Y412166D01*
X627739Y410712D01*
X630546Y409960D01*
X633453D01*
X636261Y410712D01*
X638779Y412166D01*
X640834Y414221D01*
X642288Y416739D01*
X643040Y419547D01*
Y422453D01*
X642288Y425261D01*
X640834Y427779D01*
X638779Y429834D01*
X636261Y431288D01*
X633453Y432040D01*
D02*
G37*
G36*
X603453D02*
X600546D01*
X597739Y431288D01*
X595221Y429834D01*
X593166Y427779D01*
X591712Y425261D01*
X590960Y422453D01*
Y419547D01*
X591712Y416739D01*
X593166Y414221D01*
X595221Y412166D01*
X597739Y410712D01*
X600546Y409960D01*
X603453D01*
X606261Y410712D01*
X608779Y412166D01*
X610834Y414221D01*
X612288Y416739D01*
X613040Y419547D01*
Y422453D01*
X612288Y425261D01*
X610834Y427779D01*
X608779Y429834D01*
X606261Y431288D01*
X603453Y432040D01*
D02*
G37*
G36*
X573453D02*
X570546D01*
X567739Y431288D01*
X565221Y429834D01*
X563166Y427779D01*
X561712Y425261D01*
X560960Y422453D01*
Y419547D01*
X561712Y416739D01*
X563166Y414221D01*
X565221Y412166D01*
X567739Y410712D01*
X570546Y409960D01*
X573453D01*
X576261Y410712D01*
X578779Y412166D01*
X580834Y414221D01*
X582288Y416739D01*
X583040Y419547D01*
Y422453D01*
X582288Y425261D01*
X580834Y427779D01*
X578779Y429834D01*
X576261Y431288D01*
X573453Y432040D01*
D02*
G37*
G36*
X574035Y332373D02*
X572014D01*
X570147Y331599D01*
X568718Y330170D01*
X567944Y328303D01*
Y326927D01*
X560351Y319334D01*
X512009D01*
X511435Y320720D01*
X512635Y321920D01*
X514011D01*
X515878Y322693D01*
X517307Y324122D01*
X518080Y325989D01*
Y328010D01*
X517307Y329878D01*
X515878Y331307D01*
X514011Y332080D01*
X511990D01*
X510122Y331307D01*
X508693Y329878D01*
X507920Y328010D01*
Y326635D01*
X505619Y324334D01*
X458744D01*
X457911Y325581D01*
X458080Y325989D01*
Y328010D01*
X457307Y329878D01*
X455878Y331307D01*
X454011Y332080D01*
X451990D01*
X450122Y331307D01*
X449150Y330334D01*
X419000D01*
X417724Y330080D01*
X416642Y329357D01*
X403643Y316357D01*
X402920Y315276D01*
X402666Y314000D01*
Y286850D01*
X401693Y285878D01*
X400920Y284011D01*
Y281989D01*
X401693Y280122D01*
X403122Y278693D01*
X404990Y277920D01*
X407010D01*
X408385Y276866D01*
X408693Y276122D01*
X410122Y274693D01*
X411990Y273920D01*
X413920D01*
Y272990D01*
X414693Y271122D01*
X416122Y269693D01*
X417990Y268920D01*
X420010D01*
X421878Y269693D01*
X423307Y271122D01*
X424080Y272990D01*
Y275011D01*
X423307Y276878D01*
X422334Y277850D01*
Y309619D01*
X425381Y312666D01*
X561732D01*
X563008Y312920D01*
X564090Y313643D01*
X572659Y322212D01*
X574035D01*
X575902Y322986D01*
X577331Y324415D01*
X578104Y326282D01*
Y328303D01*
X577331Y330170D01*
X575902Y331599D01*
X574035Y332373D01*
D02*
G37*
G36*
X837000Y313039D02*
X749000D01*
X748220Y312884D01*
X747558Y312442D01*
X747558Y312442D01*
X743558Y308442D01*
X743116Y307780D01*
X742961Y307000D01*
Y261000D01*
X743116Y260220D01*
X743558Y259558D01*
X744220Y259116D01*
X745000Y258961D01*
X837000D01*
X837780Y259116D01*
X838442Y259558D01*
X838884Y260220D01*
X839039Y261000D01*
Y311000D01*
X838884Y311780D01*
X838442Y312442D01*
X837780Y312884D01*
X837000Y313039D01*
D02*
G37*
G36*
X683000Y437039D02*
X682220Y436884D01*
X681558Y436442D01*
X675558Y430442D01*
X675116Y429780D01*
X674961Y429000D01*
Y394845D01*
X666155Y386039D01*
X615000D01*
X614220Y385884D01*
X613558Y385442D01*
X613558Y385442D01*
X609558Y381442D01*
X609116Y380780D01*
X608961Y380000D01*
Y257000D01*
X608961Y257000D01*
X609116Y256220D01*
X609558Y255558D01*
X609558Y255558D01*
X612558Y252558D01*
X613220Y252116D01*
X614000Y251961D01*
X642000D01*
X642000Y251961D01*
X642780Y252116D01*
X643442Y252558D01*
X648442Y257558D01*
X648884Y258220D01*
X649039Y259000D01*
Y350155D01*
X654845Y355961D01*
X838000D01*
X838780Y356116D01*
X839442Y356558D01*
X839884Y357220D01*
X840039Y358000D01*
Y432000D01*
X840039Y432000D01*
X839884Y432780D01*
X839442Y433442D01*
X839442Y433442D01*
X836442Y436442D01*
X835780Y436884D01*
X835000Y437039D01*
X683000D01*
X683000Y437039D01*
D02*
G37*
G36*
X274011Y143080D02*
X271989D01*
X270122Y142307D01*
X268891Y141075D01*
X248109D01*
X246878Y142307D01*
X245011Y143080D01*
X242990D01*
X241122Y142307D01*
X239693Y140878D01*
X238920Y139010D01*
Y136989D01*
X239693Y135122D01*
X241122Y133693D01*
X242990Y132920D01*
X245011D01*
X246878Y133693D01*
X248109Y134925D01*
X268891D01*
X270122Y133693D01*
X271989Y132920D01*
X274011D01*
X275878Y133693D01*
X277307Y135122D01*
X278080Y136989D01*
Y139010D01*
X277307Y140878D01*
X275878Y142307D01*
X274011Y143080D01*
D02*
G37*
G36*
X836000Y224039D02*
X746000D01*
X745220Y223884D01*
X744558Y223442D01*
X744116Y222780D01*
X743961Y222000D01*
Y147845D01*
X735155Y139039D01*
X690531D01*
X689751Y138884D01*
X688706Y138451D01*
X687294D01*
X686249Y138884D01*
X685469Y139039D01*
X603000Y139039D01*
X603000Y139039D01*
X602220Y138884D01*
X601558Y138442D01*
X601558Y138442D01*
X591558Y128442D01*
X591116Y127780D01*
X590961Y127000D01*
Y85000D01*
X590961Y85000D01*
X591116Y84220D01*
X591558Y83558D01*
X591558Y83558D01*
X595558Y79558D01*
X596220Y79116D01*
X597000Y78961D01*
X813000D01*
X813780Y79116D01*
X814442Y79558D01*
X814442Y79558D01*
X837442Y102558D01*
X837884Y103220D01*
X838039Y104000D01*
Y222000D01*
X837884Y222780D01*
X837442Y223442D01*
X836780Y223884D01*
X836000Y224039D01*
D02*
G37*
G36*
X377010Y282080D02*
X374990D01*
X373122Y281307D01*
X371693Y279878D01*
X370920Y278011D01*
Y275989D01*
X371371Y274901D01*
Y185039D01*
X99000D01*
X98220Y184884D01*
X97558Y184442D01*
X97558Y184442D01*
X87558Y174442D01*
X87116Y173780D01*
X86961Y173000D01*
Y139845D01*
X84259Y137143D01*
X83975Y137190D01*
X83517Y137900D01*
X75000D01*
Y142900D01*
X82612D01*
X82455Y143488D01*
X81402Y145312D01*
X79964Y146750D01*
X81402Y148188D01*
X82455Y150012D01*
X82612Y150600D01*
X75000D01*
Y155600D01*
X82612D01*
X82455Y156188D01*
X81402Y158012D01*
X79912Y159502D01*
X80663Y160800D01*
X81033Y161170D01*
X82026Y162890D01*
X82540Y164807D01*
Y166793D01*
X82026Y168710D01*
X81033Y170430D01*
X80663Y170800D01*
X79912Y172098D01*
X81402Y173588D01*
X82455Y175412D01*
X82612Y176000D01*
X75000D01*
Y181000D01*
X82612D01*
X82455Y181588D01*
X81402Y183412D01*
X79912Y184902D01*
X80663Y186200D01*
X81033Y186570D01*
X82026Y188290D01*
X82540Y190207D01*
Y192193D01*
X82026Y194110D01*
X81033Y195830D01*
X79630Y197234D01*
X77910Y198226D01*
X75993Y198740D01*
X74007D01*
X72090Y198226D01*
X70370Y197234D01*
X69663Y196527D01*
X68650Y195996D01*
X67637Y196527D01*
X66930Y197234D01*
X65210Y198226D01*
X63293Y198740D01*
X61307D01*
X59390Y198226D01*
X57670Y197234D01*
X56266Y195830D01*
X55274Y194110D01*
X54760Y192193D01*
Y190207D01*
X55274Y188290D01*
X56266Y186570D01*
X56974Y185863D01*
X57505Y184850D01*
X56974Y183837D01*
X56266Y183130D01*
X55274Y181410D01*
X54760Y179493D01*
Y177507D01*
X55274Y175590D01*
X56266Y173870D01*
X56974Y173163D01*
X57505Y172150D01*
X56974Y171137D01*
X56266Y170430D01*
X55274Y168710D01*
X54760Y166793D01*
Y164807D01*
X55274Y162890D01*
X56266Y161170D01*
X56974Y160463D01*
X57505Y159450D01*
X56974Y158437D01*
X56266Y157730D01*
X55274Y156010D01*
X54760Y154093D01*
Y152107D01*
X55274Y150190D01*
X56266Y148470D01*
X56974Y147763D01*
X57505Y146750D01*
X56974Y145737D01*
X56266Y145030D01*
X55274Y143310D01*
X54760Y141393D01*
Y139407D01*
X55274Y137490D01*
X56266Y135770D01*
X56974Y135063D01*
X57505Y134050D01*
X56974Y133037D01*
X56266Y132330D01*
X55274Y130610D01*
X54760Y128693D01*
Y126707D01*
X55274Y124790D01*
X56266Y123070D01*
X56974Y122363D01*
X57505Y121350D01*
X56974Y120337D01*
X56266Y119630D01*
X55274Y117910D01*
X54760Y115993D01*
Y114007D01*
X55274Y112090D01*
X56266Y110370D01*
X57670Y108967D01*
X59390Y107974D01*
X61307Y107460D01*
X63293D01*
X65210Y107974D01*
X65960Y108407D01*
X67460Y107541D01*
Y107460D01*
X82540D01*
Y120583D01*
X83000Y120961D01*
X98000D01*
X98000Y120961D01*
X98780Y121116D01*
X99442Y121558D01*
X104442Y126558D01*
X104884Y127220D01*
X105039Y128000D01*
Y149155D01*
X112845Y156961D01*
X256196D01*
X256495Y155461D01*
X256122Y155307D01*
X254693Y153878D01*
X253920Y152010D01*
Y149990D01*
X254693Y148122D01*
X256122Y146693D01*
X257990Y145920D01*
X260011D01*
X261878Y146693D01*
X263109Y147925D01*
X276891D01*
X278122Y146693D01*
X279989Y145920D01*
X282010D01*
X283878Y146693D01*
X285307Y148122D01*
X286080Y149990D01*
Y152010D01*
X285307Y153878D01*
X283878Y155307D01*
X283505Y155461D01*
X283804Y156961D01*
X295155D01*
X300961Y151155D01*
Y73845D01*
X299155Y72039D01*
X283109D01*
X283011Y72080D01*
X280989D01*
X280891Y72039D01*
X276109D01*
X276010Y72080D01*
X273990D01*
X273790Y71997D01*
X273220Y71884D01*
X272736Y71561D01*
X272122Y71307D01*
X270693Y69878D01*
X270481Y69365D01*
X269558Y68442D01*
X269116Y67780D01*
X268961Y67000D01*
Y56000D01*
X268961Y56000D01*
X269116Y55220D01*
X269558Y54558D01*
X269558Y54558D01*
X272558Y51558D01*
X273220Y51116D01*
X274000Y50961D01*
X318000D01*
X318000Y50961D01*
X318780Y51116D01*
X319442Y51558D01*
X325442Y57558D01*
X325884Y58220D01*
X326039Y59000D01*
Y136155D01*
X330845Y140961D01*
X338920D01*
X339700Y141116D01*
X340925Y139891D01*
Y109109D01*
X339693Y107878D01*
X338920Y106011D01*
Y103989D01*
X339693Y102122D01*
X341122Y100693D01*
X342990Y99920D01*
X345010D01*
X346878Y100693D01*
X348307Y102122D01*
X349080Y103989D01*
Y106011D01*
X348307Y107878D01*
X347075Y109109D01*
Y139891D01*
X348300Y141116D01*
X349080Y140961D01*
X668000D01*
X668000Y140961D01*
X668780Y141116D01*
X669442Y141558D01*
X674442Y146558D01*
X674884Y147220D01*
X675039Y148000D01*
Y189000D01*
X675039Y189000D01*
X674884Y189780D01*
X674442Y190442D01*
X674442Y190442D01*
X671442Y193442D01*
X670780Y193884D01*
X670334Y193973D01*
Y224000D01*
X670080Y225276D01*
X669358Y226357D01*
X662358Y233358D01*
X661276Y234080D01*
X660000Y234334D01*
X552381D01*
X547334Y239381D01*
Y250150D01*
X548307Y251122D01*
X549080Y252990D01*
Y255011D01*
X548307Y256878D01*
X546878Y258307D01*
X545010Y259080D01*
X542990D01*
X541122Y258307D01*
X539693Y256878D01*
X538920Y255011D01*
Y252990D01*
X539693Y251122D01*
X540666Y250150D01*
Y238000D01*
X540920Y236724D01*
X541642Y235643D01*
X548643Y228643D01*
X549724Y227920D01*
X551000Y227666D01*
X658619D01*
X663666Y222619D01*
Y194039D01*
X652000D01*
X651220Y193884D01*
X650558Y193442D01*
X650558Y193442D01*
X646558Y189442D01*
X646116Y188780D01*
X645961Y188000D01*
Y171845D01*
X642155Y168039D01*
X495845D01*
X486080Y177804D01*
Y178011D01*
X485588Y179198D01*
Y241099D01*
X492690Y248202D01*
X493878Y248693D01*
X495307Y250122D01*
X496080Y251989D01*
Y254011D01*
X495307Y255878D01*
X493878Y257307D01*
X492010Y258080D01*
X489990D01*
X488122Y257307D01*
X486693Y255878D01*
X486202Y254690D01*
X477756Y246244D01*
X476761Y244756D01*
X476412Y243000D01*
Y185039D01*
X380629D01*
Y274901D01*
X381080Y275989D01*
Y278011D01*
X380307Y279878D01*
X378878Y281307D01*
X377010Y282080D01*
D02*
G37*
G36*
X282010Y130080D02*
X279989D01*
X278122Y129307D01*
X276891Y128075D01*
X256109D01*
X254878Y129307D01*
X253011Y130080D01*
X250989D01*
X249122Y129307D01*
X247693Y127878D01*
X246920Y126011D01*
Y123989D01*
X247693Y122122D01*
X249122Y120693D01*
X250989Y119920D01*
X253011D01*
X254878Y120693D01*
X256109Y121925D01*
X276891D01*
X278122Y120693D01*
X279989Y119920D01*
X282010D01*
X283878Y120693D01*
X285307Y122122D01*
X286080Y123989D01*
Y126011D01*
X285307Y127878D01*
X283878Y129307D01*
X282010Y130080D01*
D02*
G37*
G36*
X486198Y113824D02*
Y102500D01*
X497522D01*
X496744Y105404D01*
X494900Y108596D01*
X492294Y111203D01*
X489101Y113046D01*
X486198Y113824D01*
D02*
G37*
G36*
X481198D02*
X478294Y113046D01*
X475102Y111203D01*
X472495Y108596D01*
X470652Y105404D01*
X469874Y102500D01*
X481198D01*
Y113824D01*
D02*
G37*
G36*
X421498Y114000D02*
X409998D01*
Y102500D01*
X421498D01*
Y114000D01*
D02*
G37*
G36*
X404998D02*
X393498D01*
Y102500D01*
X404998D01*
Y114000D01*
D02*
G37*
G36*
X497522Y97500D02*
X486198D01*
Y86176D01*
X489101Y86954D01*
X492294Y88797D01*
X494900Y91404D01*
X496744Y94596D01*
X497522Y97500D01*
D02*
G37*
G36*
X481198D02*
X469874D01*
X470652Y94596D01*
X472495Y91404D01*
X475102Y88797D01*
X478294Y86954D01*
X481198Y86176D01*
Y97500D01*
D02*
G37*
G36*
X421498D02*
X409998D01*
Y86000D01*
X421498D01*
Y97500D01*
D02*
G37*
G36*
X404998D02*
X393498D01*
Y86000D01*
X404998D01*
Y97500D01*
D02*
G37*
G36*
X811500Y73500D02*
X811049D01*
X805219Y72577D01*
X799605Y70753D01*
X794346Y68073D01*
X789570Y64603D01*
X785397Y60430D01*
X781927Y55654D01*
X779247Y50395D01*
X777423Y44781D01*
X776500Y38951D01*
Y38500D01*
X811500D01*
Y73500D01*
D02*
G37*
G36*
X38951D02*
X38500D01*
Y38500D01*
X73500D01*
Y38951D01*
X72577Y44781D01*
X70753Y50395D01*
X68073Y55654D01*
X64603Y60430D01*
X60430Y64603D01*
X55654Y68073D01*
X50395Y70753D01*
X44781Y72577D01*
X38951Y73500D01*
D02*
G37*
G36*
X738908Y49039D02*
X737825D01*
X737628Y49000D01*
X737427D01*
X735302Y48577D01*
X735116Y48500D01*
X734919Y48461D01*
X732917Y47632D01*
X732750Y47520D01*
X732565Y47444D01*
X730763Y46240D01*
X730621Y46098D01*
X730454Y45986D01*
X728922Y44454D01*
X728810Y44287D01*
X728668Y44145D01*
X727464Y42343D01*
X727387Y42158D01*
X727276Y41991D01*
X726447Y39989D01*
X726407Y39792D01*
X726331Y39606D01*
X725908Y37481D01*
Y37280D01*
X725869Y37083D01*
X725869Y36000D01*
Y34917D01*
X725908Y34720D01*
Y34519D01*
X726331Y32394D01*
X726407Y32208D01*
X726447Y32011D01*
X727276Y30009D01*
X727387Y29842D01*
X727464Y29657D01*
X728668Y27855D01*
X728810Y27713D01*
X728922Y27546D01*
X730454Y26014D01*
X730621Y25902D01*
X730763Y25760D01*
X732565Y24556D01*
X732750Y24480D01*
X732917Y24368D01*
X734919Y23539D01*
X735116Y23500D01*
X735302Y23423D01*
X737427Y23000D01*
X737628D01*
X737825Y22961D01*
X739991D01*
X740188Y23000D01*
X740389D01*
X742514Y23423D01*
X742700Y23500D01*
X742897Y23539D01*
X744899Y24368D01*
X745066Y24480D01*
X745251Y24556D01*
X747053Y25760D01*
X747195Y25902D01*
X747362Y26014D01*
X748894Y27546D01*
X749006Y27713D01*
X749148Y27855D01*
X750351Y29657D01*
X750428Y29842D01*
X750540Y30009D01*
X751369Y32011D01*
X751408Y32208D01*
X751485Y32394D01*
X751908Y34519D01*
Y34720D01*
X751947Y34917D01*
Y37083D01*
X751908Y37280D01*
Y37481D01*
X751485Y39606D01*
X751408Y39792D01*
X751369Y39989D01*
X750540Y41991D01*
X750428Y42158D01*
X750351Y42343D01*
X749148Y44145D01*
X749006Y44287D01*
X748894Y44454D01*
X747362Y45986D01*
X747195Y46098D01*
X747053Y46240D01*
X745251Y47444D01*
X745066Y47520D01*
X744899Y47632D01*
X742897Y48461D01*
X742700Y48500D01*
X742514Y48577D01*
X740389Y49000D01*
X740188D01*
X739991Y49039D01*
X738908Y49039D01*
D02*
G37*
G36*
X113993D02*
X112910D01*
X112713Y49000D01*
X112512D01*
X110387Y48577D01*
X110201Y48500D01*
X110004Y48461D01*
X108002Y47632D01*
X107835Y47520D01*
X107650Y47444D01*
X105848Y46240D01*
X105706Y46098D01*
X105539Y45986D01*
X104007Y44454D01*
X103895Y44287D01*
X103753Y44145D01*
X102550Y42343D01*
X102473Y42158D01*
X102361Y41991D01*
X101532Y39989D01*
X101493Y39792D01*
X101416Y39606D01*
X100993Y37481D01*
Y37280D01*
X100954Y37083D01*
X100954Y36000D01*
Y34917D01*
X100993Y34720D01*
Y34519D01*
X101416Y32394D01*
X101493Y32208D01*
X101532Y32011D01*
X102361Y30009D01*
X102473Y29842D01*
X102550Y29657D01*
X103753Y27855D01*
X103895Y27713D01*
X104007Y27546D01*
X105539Y26014D01*
X105706Y25902D01*
X105848Y25760D01*
X107650Y24556D01*
X107835Y24480D01*
X108002Y24368D01*
X110004Y23539D01*
X110201Y23500D01*
X110387Y23423D01*
X112512Y23000D01*
X112713D01*
X112910Y22961D01*
X115077D01*
X115274Y23000D01*
X115474D01*
X117600Y23423D01*
X117785Y23500D01*
X117982Y23539D01*
X119984Y24368D01*
X120151Y24480D01*
X120337Y24556D01*
X122138Y25760D01*
X122280Y25902D01*
X122447Y26014D01*
X123979Y27546D01*
X124091Y27713D01*
X124233Y27855D01*
X125437Y29657D01*
X125514Y29842D01*
X125625Y30009D01*
X126454Y32011D01*
X126494Y32208D01*
X126570Y32394D01*
X126993Y34519D01*
Y34720D01*
X127032Y34917D01*
Y37083D01*
X126993Y37280D01*
Y37481D01*
X126570Y39606D01*
X126494Y39792D01*
X126454Y39989D01*
X125625Y41991D01*
X125514Y42158D01*
X125437Y42343D01*
X124233Y44145D01*
X124091Y44287D01*
X123979Y44454D01*
X122447Y45986D01*
X122280Y46098D01*
X122138Y46240D01*
X120337Y47444D01*
X120151Y47520D01*
X119984Y47632D01*
X117982Y48461D01*
X117785Y48500D01*
X117599Y48577D01*
X115474Y49000D01*
X115274D01*
X115077Y49039D01*
X113993Y49039D01*
D02*
G37*
%LPD*%
G36*
X837000Y261000D02*
X745000D01*
Y307000D01*
X749000Y311000D01*
X837000D01*
Y261000D01*
D02*
G37*
G36*
X838000Y432000D02*
Y358000D01*
X654000D01*
X647000Y351000D01*
Y259000D01*
X642000Y254000D01*
X614000D01*
X611000Y257000D01*
Y380000D01*
X615000Y384000D01*
X667000D01*
X677000Y394000D01*
Y429000D01*
X683000Y435000D01*
X835000D01*
X838000Y432000D01*
D02*
G37*
%LPC*%
G36*
X724500Y432270D02*
Y423500D01*
X733270D01*
X733204Y424002D01*
X732045Y426800D01*
X730202Y429202D01*
X727800Y431045D01*
X725002Y432204D01*
X724500Y432270D01*
D02*
G37*
G36*
X694500Y432270D02*
Y423500D01*
X703270D01*
X703204Y424002D01*
X702045Y426800D01*
X700202Y429202D01*
X697800Y431045D01*
X695002Y432204D01*
X694500Y432270D01*
D02*
G37*
G36*
X689500Y432270D02*
X688998Y432204D01*
X686200Y431045D01*
X683798Y429202D01*
X681955Y426800D01*
X680796Y424002D01*
X680730Y423500D01*
X689500D01*
Y432270D01*
D02*
G37*
G36*
X719500D02*
X718998Y432204D01*
X716200Y431045D01*
X713798Y429202D01*
X711955Y426800D01*
X710796Y424002D01*
X710730Y423500D01*
X719500D01*
Y432270D01*
D02*
G37*
G36*
X689500Y418500D02*
X680730D01*
X680796Y417998D01*
X681955Y415200D01*
X683798Y412798D01*
X686200Y410955D01*
X688998Y409796D01*
X689500Y409730D01*
Y418500D01*
D02*
G37*
G36*
X733270D02*
X724500D01*
Y409730D01*
X725002Y409796D01*
X727800Y410955D01*
X730202Y412798D01*
X732045Y415200D01*
X733204Y417998D01*
X733270Y418500D01*
D02*
G37*
G36*
X719500D02*
X710730D01*
X710796Y417998D01*
X711955Y415200D01*
X713798Y412798D01*
X716200Y410955D01*
X718998Y409796D01*
X719500Y409730D01*
Y418500D01*
D02*
G37*
G36*
X703270D02*
X694500D01*
Y409730D01*
X695002Y409796D01*
X697800Y410955D01*
X700202Y412798D01*
X702045Y415200D01*
X703204Y417998D01*
X703270Y418500D01*
D02*
G37*
%LPD*%
G36*
X836000Y104000D02*
X813000Y81000D01*
X597000D01*
X593000Y85000D01*
Y127000D01*
X603000Y137000D01*
X685469Y137000D01*
X686889Y136412D01*
X689112D01*
X690531Y137000D01*
X736000D01*
X746000Y147000D01*
Y222000D01*
X836000D01*
Y104000D01*
D02*
G37*
%LPC*%
G36*
X692324Y113824D02*
Y102500D01*
X703648D01*
X702870Y105404D01*
X701027Y108596D01*
X698420Y111203D01*
X695228Y113046D01*
X692324Y113824D01*
D02*
G37*
G36*
X687324D02*
X684420Y113046D01*
X681228Y111203D01*
X678621Y108596D01*
X676778Y105404D01*
X676000Y102500D01*
X687324D01*
Y113824D01*
D02*
G37*
G36*
X627624Y114000D02*
X616124D01*
Y102500D01*
X627624D01*
Y114000D01*
D02*
G37*
G36*
X611124D02*
X599624D01*
Y102500D01*
X611124D01*
Y114000D01*
D02*
G37*
G36*
X703648Y97500D02*
X692324D01*
Y86176D01*
X695228Y86954D01*
X698420Y88797D01*
X701027Y91404D01*
X702870Y94596D01*
X703648Y97500D01*
D02*
G37*
G36*
X687324D02*
X676000D01*
X676778Y94596D01*
X678621Y91404D01*
X681228Y88797D01*
X684420Y86954D01*
X687324Y86176D01*
Y97500D01*
D02*
G37*
G36*
X627624D02*
X616124D01*
Y86000D01*
X627624D01*
Y97500D01*
D02*
G37*
G36*
X611124D02*
X599624D01*
Y86000D01*
X611124D01*
Y97500D01*
D02*
G37*
%LPD*%
G36*
X673000Y189000D02*
Y148000D01*
X668000Y143000D01*
X349080D01*
Y145010D01*
X348307Y146878D01*
X346878Y148307D01*
X345010Y149080D01*
X342990D01*
X341122Y148307D01*
X339693Y146878D01*
X338920Y145010D01*
Y143000D01*
X330000D01*
X324000Y137000D01*
Y59000D01*
X318000Y53000D01*
X274000D01*
X271000Y56000D01*
Y67000D01*
X274000Y70000D01*
X300000D01*
X303000Y73000D01*
Y152000D01*
X296000Y159000D01*
X112000D01*
X103000Y150000D01*
Y128000D01*
X98000Y123000D01*
X83000D01*
Y133000D01*
X89000Y139000D01*
Y173000D01*
X99000Y183000D01*
X478000D01*
X495000Y166000D01*
X643000D01*
X648000Y171000D01*
Y188000D01*
X652000Y192000D01*
X670000D01*
X673000Y189000D01*
D02*
G37*
D33*
X572000Y451000D02*
D03*
D34*
Y421000D02*
D03*
X602000Y451000D02*
D03*
Y421000D02*
D03*
X632000Y451000D02*
D03*
Y421000D02*
D03*
X662000Y451000D02*
D03*
Y421000D02*
D03*
X692000Y451000D02*
D03*
X722000D02*
D03*
Y421000D02*
D03*
X692000D02*
D03*
D40*
X62300Y191200D02*
D03*
X75000D02*
D03*
X62300Y178500D02*
D03*
X75000D02*
D03*
X62300Y165800D02*
D03*
X75000D02*
D03*
X62300Y153100D02*
D03*
X75000D02*
D03*
X62300Y140400D02*
D03*
X75000D02*
D03*
X62300Y127700D02*
D03*
X75000D02*
D03*
X62300Y115000D02*
D03*
D60*
X376000Y178000D02*
Y277000D01*
X87700Y127700D02*
X89000Y129000D01*
X75000Y127700D02*
X87700D01*
D61*
X419000Y274000D02*
Y311000D01*
X413000Y279000D02*
Y313000D01*
X421000Y321000D01*
X406000Y283000D02*
Y314000D01*
X419000Y327000D01*
X551000Y231000D02*
X660000D01*
X667000Y187000D02*
Y224000D01*
X660000Y231000D02*
X667000Y224000D01*
X544000Y238000D02*
X551000Y231000D01*
X544000Y238000D02*
Y254000D01*
X419000Y327000D02*
X453000D01*
X421000Y321000D02*
X507000D01*
X419000Y311000D02*
X424000Y316000D01*
X561732D01*
X573024Y327293D01*
X507000Y321000D02*
X513000Y327000D01*
D64*
X259000Y151000D02*
X281000D01*
X344000Y105000D02*
Y144000D01*
X244000Y138000D02*
X273000D01*
X252000Y125000D02*
X281000D01*
D65*
X481000Y178445D02*
Y243000D01*
X491000Y253000D01*
D66*
X494000Y483000D02*
D03*
D67*
X469000D02*
D03*
X444000D02*
D03*
X419000D02*
D03*
X394000D02*
D03*
D68*
X75000Y115000D02*
D03*
D69*
X613624Y100000D02*
D03*
X407498D02*
D03*
D70*
X689824D02*
D03*
X483698D02*
D03*
D71*
X36000Y36000D02*
D03*
Y504000D02*
D03*
X814000Y36000D02*
D03*
Y504000D02*
D03*
D72*
X481000Y177000D02*
D03*
X419000Y274000D02*
D03*
X413000Y279000D02*
D03*
X406000Y283000D02*
D03*
X289000Y94000D02*
D03*
X282000Y67000D02*
D03*
X275000D02*
D03*
X289000Y60000D02*
D03*
X282000D02*
D03*
X275000D02*
D03*
X259000Y151000D02*
D03*
X281000D02*
D03*
X344000Y144000D02*
D03*
X244000Y138000D02*
D03*
X273000D02*
D03*
X252000Y125000D02*
D03*
X281000D02*
D03*
X344000Y105000D02*
D03*
X470000Y153000D02*
D03*
X522000Y228000D02*
D03*
X473000Y196000D02*
D03*
X498000Y180000D02*
D03*
X512000D02*
D03*
X531000D02*
D03*
X534000Y198000D02*
D03*
Y214000D02*
D03*
X498000Y228500D02*
D03*
X573024Y327293D02*
D03*
X513000Y327000D02*
D03*
X453000D02*
D03*
X376000Y277000D02*
D03*
X356000Y176000D02*
D03*
X544000Y254000D02*
D03*
X491000Y253000D02*
D03*
D73*
X431000Y274000D02*
D03*
X594000Y403000D02*
D03*
X535000D02*
D03*
X414000D02*
D03*
X374000Y349000D02*
D03*
X434000D02*
D03*
X494000D02*
D03*
X554000D02*
D03*
X716000Y208000D02*
D03*
X727000Y223000D02*
D03*
X715000Y244000D02*
D03*
X651000Y238000D02*
D03*
Y248000D02*
D03*
X660000Y218000D02*
D03*
X622000Y223000D02*
D03*
X631000D02*
D03*
X641000D02*
D03*
X651000D02*
D03*
X610000Y220000D02*
D03*
Y212000D02*
D03*
X600000Y220000D02*
D03*
Y212000D02*
D03*
X590000Y220000D02*
D03*
Y212000D02*
D03*
X581000D02*
D03*
Y220000D02*
D03*
X438000Y210000D02*
D03*
X338000Y189000D02*
D03*
X359000Y205000D02*
D03*
X788000Y442000D02*
D03*
Y342000D02*
D03*
Y242000D02*
D03*
X763000Y492000D02*
D03*
X738000Y442000D02*
D03*
Y342000D02*
D03*
X688000D02*
D03*
X713000Y292000D02*
D03*
X688000Y242000D02*
D03*
Y142000D02*
D03*
Y42000D02*
D03*
X663000Y392000D02*
D03*
Y292000D02*
D03*
X638000Y42000D02*
D03*
X588000Y442000D02*
D03*
X613000Y392000D02*
D03*
X588000Y42000D02*
D03*
X538000Y442000D02*
D03*
Y242000D02*
D03*
X563000Y92000D02*
D03*
X538000Y42000D02*
D03*
X488000Y442000D02*
D03*
X513000Y92000D02*
D03*
X488000Y42000D02*
D03*
X463000Y392000D02*
D03*
X438000Y242000D02*
D03*
X463000Y92000D02*
D03*
X438000Y42000D02*
D03*
X388000Y442000D02*
D03*
X413000Y192000D02*
D03*
X388000Y42000D02*
D03*
X363000Y492000D02*
D03*
X338000Y442000D02*
D03*
X363000Y392000D02*
D03*
X338000Y342000D02*
D03*
X363000Y292000D02*
D03*
Y92000D02*
D03*
X313000Y492000D02*
D03*
X288000Y442000D02*
D03*
X313000Y392000D02*
D03*
X288000Y342000D02*
D03*
X313000Y292000D02*
D03*
X263000Y492000D02*
D03*
X238000Y442000D02*
D03*
X263000Y392000D02*
D03*
X238000Y342000D02*
D03*
X263000Y292000D02*
D03*
X238000Y142000D02*
D03*
Y42000D02*
D03*
X213000Y492000D02*
D03*
X188000Y442000D02*
D03*
X213000Y392000D02*
D03*
X188000Y342000D02*
D03*
X213000Y292000D02*
D03*
X188000Y142000D02*
D03*
Y42000D02*
D03*
X163000Y492000D02*
D03*
X138000Y442000D02*
D03*
X163000Y392000D02*
D03*
X138000Y342000D02*
D03*
X163000Y292000D02*
D03*
X138000Y142000D02*
D03*
Y42000D02*
D03*
X113000Y492000D02*
D03*
X88000Y442000D02*
D03*
X113000Y392000D02*
D03*
X88000Y342000D02*
D03*
X113000Y292000D02*
D03*
Y92000D02*
D03*
X88000Y42000D02*
D03*
X63000Y392000D02*
D03*
X38000Y342000D02*
D03*
X63000Y292000D02*
D03*
X38000Y242000D02*
D03*
Y142000D02*
D03*
X63000Y92000D02*
D03*
X97000Y517000D02*
D03*
X261000Y30000D02*
D03*
X231000D02*
D03*
X201000D02*
D03*
X161000D02*
D03*
Y61000D02*
D03*
X201000D02*
D03*
X231000D02*
D03*
X261000D02*
D03*
X617000Y259000D02*
D03*
X626000D02*
D03*
X635000D02*
D03*
X610000Y129000D02*
D03*
X630087Y128926D02*
D03*
X690000Y129000D02*
D03*
X670087Y128926D02*
D03*
X650000Y129000D02*
D03*
X670087Y108926D02*
D03*
X650000Y109000D02*
D03*
Y89000D02*
D03*
X670087Y88926D02*
D03*
X730087Y128926D02*
D03*
X710000Y129000D02*
D03*
X730087Y108926D02*
D03*
X710000Y109000D02*
D03*
Y89000D02*
D03*
X730087Y88926D02*
D03*
X810000Y89000D02*
D03*
X790087Y88926D02*
D03*
X770087D02*
D03*
X750000Y89000D02*
D03*
Y109000D02*
D03*
X770087Y108926D02*
D03*
X790087D02*
D03*
X830000Y109000D02*
D03*
X810000D02*
D03*
X750000Y129000D02*
D03*
X770087Y128926D02*
D03*
X790087D02*
D03*
X830000Y129000D02*
D03*
X810000D02*
D03*
X811000Y149000D02*
D03*
Y169000D02*
D03*
Y189000D02*
D03*
X831000D02*
D03*
Y169000D02*
D03*
Y149000D02*
D03*
X791087Y148926D02*
D03*
Y168926D02*
D03*
Y188926D02*
D03*
X771087D02*
D03*
Y168926D02*
D03*
Y148926D02*
D03*
X751000Y189000D02*
D03*
Y169000D02*
D03*
Y149000D02*
D03*
X831000Y306000D02*
D03*
Y294000D02*
D03*
X820000Y306000D02*
D03*
Y294000D02*
D03*
X786000Y306000D02*
D03*
Y294000D02*
D03*
X797000D02*
D03*
Y306000D02*
D03*
X808000Y294000D02*
D03*
Y306000D02*
D03*
X821000Y278000D02*
D03*
X810000D02*
D03*
X799000D02*
D03*
X821000Y266000D02*
D03*
X810000D02*
D03*
X799000D02*
D03*
X831000D02*
D03*
Y278000D02*
D03*
X783000D02*
D03*
Y266000D02*
D03*
X751000D02*
D03*
X762000D02*
D03*
X773000D02*
D03*
X751000Y278000D02*
D03*
X762000D02*
D03*
X773000D02*
D03*
Y306000D02*
D03*
Y294000D02*
D03*
X762000Y306000D02*
D03*
Y294000D02*
D03*
X751000D02*
D03*
Y306000D02*
D03*
X692920Y367074D02*
D03*
Y387074D02*
D03*
Y407074D02*
D03*
X712913Y367074D02*
D03*
Y387074D02*
D03*
Y407074D02*
D03*
X733000Y367000D02*
D03*
Y387000D02*
D03*
Y407000D02*
D03*
X753000Y427000D02*
D03*
X773000D02*
D03*
X793000D02*
D03*
X813000D02*
D03*
X833000D02*
D03*
Y407000D02*
D03*
X813000D02*
D03*
X793000D02*
D03*
X773000D02*
D03*
X753000D02*
D03*
Y387000D02*
D03*
Y367000D02*
D03*
X773000D02*
D03*
Y387000D02*
D03*
X793000D02*
D03*
X813000D02*
D03*
X833000D02*
D03*
X656000Y169000D02*
D03*
X667000D02*
D03*
X656000Y178000D02*
D03*
X667000D02*
D03*
Y187000D02*
D03*
X656000D02*
D03*
M02*
