G04 ================== begin FILE IDENTIFICATION RECORD ==================*
G04 Layout Name:  HY_TYPEC_DBUG_V10B.brd*
G04 Film Name:    BOTTOM*
G04 File Format:  Gerber RS274X*
G04 File Origin:  Cadence Allegro 17.2-S067*
G04 Origin Date:  Tue Aug 11 14:31:51 2020*
G04 *
G04 Layer:  ETCH/BOTTOM*
G04 Layer:  PIN/BOTTOM*
G04 Layer:  VIA CLASS/BOTTOM*
G04 *
G04 Offset:    (0.0000 0.0000)*
G04 Mirror:    No*
G04 Mode:      Positive*
G04 Rotation:  0*
G04 FullContactRelief:  No*
G04 UndefLineWidth:     0.1524*
G04 ================== end FILE IDENTIFICATION RECORD ====================*
%FSLAX55Y55*MOMM*%
%IR0*IPPOS*OFA0.00000B0.00000*MIA0B0*SFA1.00000B1.00000*%
%ADD15R,1.5X.3*%
%ADD14R,1.4X.7*%
%ADD11C,.508*%
%ADD13O,2.1X1.*%
%ADD12O,1.6X1.*%
%ADD10C,1.3*%
%ADD16C,.2032*%
%ADD17C,.254*%
%ADD18C,1.0004*%
%ADD20C,1.4228*%
%ADD19C,2.2148*%
G75*
%LPD*%
G75*
G36*
G01X3525740Y2910000D02*
X4300000D01*
G02X4470000Y2740000I0J-170000D01*
G01Y1052400D01*
G02X4440860Y1034100I-20319J5D01*
G03X4410000Y1041140I-30856J-64101D01*
G03X4365000Y1025100I0J-71143D01*
G03X4320000Y1041140I-45000J-55103D01*
G03X4248860Y970000I0J-71140D01*
G03X4264100Y926000I71137J0D01*
G01Y883150D01*
X4256850Y875900D01*
X3434000D01*
G03X3346000I-44000J-55897D01*
G01X1888190D01*
G03X1850000Y887020I-38190J-60019D01*
G03X1778860Y815880I0J-71140D01*
G03X1840380Y745390I71144J0D01*
G03X1910000Y688860I69620J14606D01*
G03X1954000Y704100I0J71137D01*
G01X3046000D01*
G03X3134000I44000J55897D01*
G01X3361690D01*
G02X3381310Y678500I-3J-20320D01*
G03X3378860Y660000I68689J-18509D01*
G03X3450000Y588860I71140J0D01*
G03X3485000Y598070I-8J71138D01*
G03X3497340Y592570I34999J61932D01*
G01X3504260Y590240D01*
Y451050D01*
X3551050Y404260D01*
X3708950D01*
X3755740Y451050D01*
Y604100D01*
X4246850D01*
X4264100Y586850D01*
Y394000D01*
G03X4248860Y350000I55897J-44000D01*
G03X4320000Y278860I71140J0D01*
G03X4365000Y294900I0J71143D01*
G03X4410000Y278860I45000J55103D01*
G03X4440860Y285900I4J71141D01*
G02X4470000Y267600I8821J-18305D01*
G01Y200000D01*
G02X4300000Y30000I-170000J0D01*
G01X200000D01*
G02X30000Y200000I0J170000D01*
G01Y2740000D01*
G02X200000Y2910000I170000J0D01*
G01X664260D01*
Y2601050D01*
X721050Y2544260D01*
X1228950D01*
X1275740Y2591050D01*
Y2681730D01*
G02X1301380Y2701340I20320J-1D01*
G03X1320000Y2698860I18620J68660D01*
G03X1355000Y2708070I-8J71138D01*
G03X1390000Y2698860I35008J61928D01*
G03X1425000Y2708070I-8J71138D01*
G03X1460000Y2698860I35008J61928D01*
G03X1495000Y2708070I-8J71138D01*
G03X1530000Y2698860I35008J61928D01*
G03X1576190Y2715890I5J71142D01*
G01X1583330Y2721990D01*
X1621050Y2684260D01*
X1748950D01*
X1785740Y2721050D01*
Y2784260D01*
X1848600D01*
X1850230Y2776090D01*
G03X1989770I69770J13914D01*
G01X1991400Y2784260D01*
X3241050D01*
X3294260Y2731050D01*
Y1951050D01*
X3305310Y1940000D01*
X3284260Y1918950D01*
Y1811050D01*
X3331050Y1764260D01*
X3828950D01*
X3885740Y1821050D01*
Y1834260D01*
X3958950D01*
X3975000Y1850310D01*
X3991050Y1834260D01*
X4178950D01*
X4235740Y1891050D01*
Y2778950D01*
X4158950Y2855740D01*
X3525740D01*
Y2910000D01*
G37*
G36*
G01X730000D02*
X3450000D01*
X3480000Y2880000D01*
Y2820610D01*
G03Y2719390I50011J-50610D01*
G01Y2440610D01*
G03Y2339390I50011J-50610D01*
G01Y2290610D01*
G03Y2189390I50011J-50610D01*
G01Y1960000D01*
X3470000Y1950000D01*
X3360000D01*
X3340000Y1970000D01*
Y2750000D01*
X3260000Y2830000D01*
X1978830D01*
G03X1861170I-58830J-40001D01*
G01X1760000D01*
X1740000Y2810000D01*
Y2740000D01*
X1730000Y2730000D01*
X1640000D01*
X1630000Y2740000D01*
Y2800000D01*
X1600000Y2830000D01*
X1568220D01*
G03X1530000Y2841140I-38220J-59994D01*
G03X1495000Y2831930I8J-71138D01*
G03X1460000Y2841140I-35008J-61928D01*
G03X1425000Y2831930I8J-71138D01*
G03X1390000Y2841140I-35008J-61928D01*
G03X1355000Y2831930I8J-71138D01*
G03X1320000Y2841140I-35008J-61928D01*
G03X1281780Y2830000I0J-71134D01*
G01X1250000D01*
X1230000Y2810000D01*
Y2610000D01*
X1210000Y2590000D01*
X740000D01*
X710000Y2620000D01*
Y2890000D01*
X730000Y2910000D01*
G37*
G36*
G01X3884690Y2330000D02*
X3950000D01*
X3954260Y2325740D01*
Y2174260D01*
X3840000Y2060000D01*
Y2054690D01*
X3834260Y2048950D01*
Y1881050D01*
X3840000Y1875310D01*
Y1840000D01*
X3810000Y1810000D01*
X3350000D01*
X3330000Y1830000D01*
Y1904260D01*
X3488950D01*
X3494690Y1910000D01*
X3500000D01*
X3530000Y1940000D01*
Y2130000D01*
X3554260Y2154260D01*
X3808950D01*
X3875740Y2221050D01*
Y2321050D01*
X3884690Y2330000D01*
G37*
G36*
G01X3550000Y570000D02*
X3580000Y600000D01*
X3690000D01*
X3710000Y580000D01*
Y470000D01*
X3690000Y450000D01*
X3570000D01*
X3550000Y470000D01*
Y570000D01*
G37*
G36*
G01X3750000Y2460000D02*
X3754260Y2464260D01*
X3941050D01*
X3954260Y2451050D01*
Y2384260D01*
X3950000Y2380000D01*
X3870000D01*
X3830000Y2340000D01*
Y2240000D01*
X3790000Y2200000D01*
X3520000D01*
X3510000Y2210000D01*
Y2290000D01*
X3524260Y2304260D01*
X3698950D01*
X3704690Y2310000D01*
X3710000D01*
X3750000Y2350000D01*
Y2460000D01*
G37*
G36*
G01X3540000Y2590000D02*
X4060000D01*
X4074260Y2575740D01*
Y1998950D01*
X4065310Y1990000D01*
X3980000D01*
X3960000Y1970000D01*
Y1964690D01*
X3944260Y1948950D01*
Y1884260D01*
X3940000Y1880000D01*
X3900000D01*
X3880000Y1900000D01*
Y2030000D01*
X4000000Y2150000D01*
Y2470000D01*
X3960000Y2510000D01*
X3948320D01*
X3945940Y2511390D01*
G03X3910000Y2521140I-35946J-61388D01*
G03X3871780Y2510000I0J-71134D01*
G01X3730000D01*
X3700000Y2480000D01*
Y2370000D01*
X3680000Y2350000D01*
X3520000D01*
X3510000Y2360000D01*
Y2560000D01*
X3540000Y2590000D01*
G37*
G36*
G01X3525740Y2810000D02*
X4140000D01*
X4190000Y2760000D01*
Y1910000D01*
X4160000Y1880000D01*
X4010000D01*
X3990520Y1899480D01*
X3990900Y1904170D01*
G03X3991140Y1910000I-70900J5839D01*
G03X3990140Y1921870I-71139J-16D01*
G01X3990000Y1922710D01*
Y1930000D01*
X4000000Y1940000D01*
X4080000D01*
X4120000Y1980000D01*
Y2710000D01*
X4090000Y2740000D01*
X3525740D01*
Y2810000D01*
G37*
%LPC*%
G75*
G36*
G01X1791050Y354260D02*
X1744260Y401050D01*
Y538950D01*
X1791050Y585740D01*
X1998950D01*
X2035740Y548950D01*
Y391050D01*
X1998950Y354260D01*
X1791050D01*
G37*
G36*
G01X1198250Y953660D02*
G02X1230000Y961140I31754J-63659D01*
G02Y818860I0J-71140D01*
G02X1198250Y826340I4J71139D01*
G02X1166500Y818860I-31754J63659D01*
G02Y961140I0J71140D01*
G02X1198250Y953660I-4J-71139D01*
G37*
G36*
G01X1605790Y1188440D02*
X1698680Y1281320D01*
G02X1740000Y1298440I41326J-41318D01*
G01X2350000D01*
G02X2391320Y1281320I-6J-58438D01*
G01X2502560Y1170080D01*
X2505450Y1169440D01*
G02X2561140Y1100000I-15447J-69440D01*
G02X2490000Y1028860I-71140J0D01*
G02X2420560Y1084550I0J71137D01*
G01X2419920Y1087440D01*
X2325790Y1181560D01*
X1764210D01*
X1671320Y1088680D01*
G02X1630000Y1071560I-41326J41318D01*
G01X1210000D01*
G02X1193770Y1073860I4J58439D01*
G01X1192380Y1074260D01*
X1081050D01*
X1034260Y1121050D01*
Y1248950D01*
X1081050Y1295740D01*
X1238950D01*
X1275740Y1258950D01*
Y1188440D01*
X1605790D01*
G37*
G36*
G01X314260Y1051050D02*
Y1768950D01*
X361050Y1815740D01*
X488950D01*
X536020Y1768670D01*
X540580Y1768950D01*
G02X543000Y1769020I2367J-39952D01*
G02X583020Y1729000I0J-40020D01*
G02X545310Y1689050I-40017J0D01*
G03X535740Y1678900I591J-10144D01*
G01Y1201100D01*
G03X545310Y1190950I10161J-6D01*
G02Y1111050I-2307J-39950D01*
G03X535740Y1100900I591J-10144D01*
G01Y1041050D01*
X498950Y1004260D01*
X361050D01*
X314260Y1051050D01*
G37*
G36*
G01X4220000Y1726110D02*
Y1760000D01*
X4380000D01*
Y1726110D01*
X4387400Y1724030D01*
G02X4420740Y1680000I-12404J-44030D01*
G01Y1200000D01*
G02X4407080Y1167400I-45730J0D01*
G01X4404050Y1164420D01*
Y1150000D01*
X4410000D01*
Y1120000D01*
X4205900D01*
Y1030000D01*
G02X4189530Y990470I-55913J0D01*
G01X4139530Y940470D01*
G02X4100000Y924100I-39530J39543D01*
G01X3564000D01*
G02X3520000Y908860I-44000J55897D01*
G02Y1051140I0J71140D01*
G02X3564000Y1035900I0J-71137D01*
G01X4076850D01*
X4094100Y1053150D01*
Y1084260D01*
X3921050D01*
X3884260Y1121050D01*
Y1288950D01*
X3961050Y1365740D01*
X4094100D01*
Y1446850D01*
X4086690Y1454260D01*
X3851050D01*
X3814260Y1491050D01*
Y1648950D01*
X3851050Y1685740D01*
X4088950D01*
X4135740Y1638950D01*
Y1563310D01*
X4144570Y1554480D01*
G03X4179260Y1568850I14369J14369D01*
G01Y1680000D01*
G02X4212600Y1724030I45744J0D01*
G01X4220000Y1726110D01*
G37*
G54D18*
X1190000Y190000D03*
X1690000D03*
X3070000D03*
X3570000D03*
G54D20*
X2330000Y2530000D03*
X2740000Y1790000D03*
X2769990Y2199990D03*
X2010000Y1660000D03*
X1850000Y2380000D03*
X2440000Y1500000D03*
G54D19*
X2505000Y390000D03*
X555000D03*
%LPD*%
G75*
G36*
G01X380000Y1770000D02*
X470000D01*
X490000Y1750000D01*
Y1089030D01*
G03X454960Y1050000I50999J-81029D01*
G01X380000D01*
X360000Y1070000D01*
Y1750000D01*
X380000Y1770000D01*
G37*
G36*
G01X1080000Y1230000D02*
X1100000Y1250000D01*
X1220000D01*
X1230000Y1240000D01*
Y1140000D01*
X1210000Y1120000D01*
X1100000D01*
X1080000Y1140000D01*
Y1230000D01*
G37*
G36*
G01X1790000Y520000D02*
X1810000Y540000D01*
X1980000D01*
X1990000Y530000D01*
Y410000D01*
X1980000Y400000D01*
X1810000D01*
X1790000Y420000D01*
Y520000D01*
G37*
G36*
G01X3870000Y1640000D02*
X4070000D01*
X4090000Y1620000D01*
Y1595900D01*
X4054120D01*
X4051470Y1597800D01*
G03X4010000Y1611140I-41470J-57789D01*
G03X3938860Y1540000I0J-71140D01*
G03X3940530Y1524690I71139J14D01*
G02X3920680Y1500000I-19845J-4369D01*
G01X3870000D01*
X3860000Y1510000D01*
Y1630000D01*
X3870000Y1640000D01*
G37*
G36*
G01X4110000Y1300000D02*
Y1150000D01*
X4090000Y1130000D01*
X3940000D01*
X3930000Y1140000D01*
Y1270000D01*
X3980000Y1320000D01*
X4090000D01*
X4110000Y1300000D01*
G37*
G54D10*
X305000Y390000D03*
X555000D03*
X2255000D03*
X2505000D03*
G54D11*
X200000Y180000D03*
X160000Y670000D03*
X130000Y1210000D03*
X400000Y1100000D03*
X460000D03*
Y1160000D03*
X400000D03*
X130000Y1690000D03*
X400000Y1730000D03*
X460000D03*
Y1670000D03*
X400000D03*
X110000Y2210000D03*
X120000Y2810000D03*
X460000Y2850000D03*
X800000Y390000D03*
X570000Y670000D03*
X580000Y880000D03*
X850000Y1610000D03*
X840000Y1810000D03*
X770000Y2040000D03*
X840000Y2280000D03*
X580000D03*
Y2050000D03*
X740000Y2710000D03*
Y2650000D03*
Y2770000D03*
X1000000Y390000D03*
X1150000Y670000D03*
X860000D03*
X920000Y890000D03*
X1080000Y990000D03*
X1230000Y890000D03*
X1166500D03*
X1120000Y1220000D03*
X1190000D03*
X1120000Y1150000D03*
X1190000D03*
X920000Y1350000D03*
X1110000Y1520000D03*
X1120000Y1760000D03*
X1030000Y2010000D03*
X1070000Y2360000D03*
X1170000Y2195000D03*
X860000Y2770000D03*
X970000D03*
X1070000D03*
X1180000D03*
X1410000Y170000D03*
X1450000Y670000D03*
X1550000Y880800D03*
X1310000Y1500000D03*
X1570000Y1260000D03*
X1310000Y1310000D03*
X1460000Y1930000D03*
X1360000D03*
Y1740000D03*
X1310000Y1630000D03*
X1490000Y2060000D03*
X1360000D03*
X1560000Y2390000D03*
X1320000Y2770000D03*
X1390000D03*
X1460000D03*
X1530000D03*
X1960000Y430000D03*
X1890000D03*
X1820000Y500000D03*
X1890000D03*
X1960000D03*
X1850000Y815880D03*
X1910000Y760000D03*
X1820000Y1390000D03*
X1810000Y1630000D03*
Y1750000D03*
X1800000Y2110000D03*
X1850000Y2380000D03*
X1680000Y2790000D03*
X1920000D03*
X2120000Y310000D03*
Y500000D03*
X2130000Y980000D03*
X2230000Y1080000D03*
X2030000Y980000D03*
X2230000D03*
X2130000Y1080000D03*
X2030000D03*
X2010000Y1390000D03*
Y1660000D03*
X2200000Y2220000D03*
X2300000D03*
X2200000Y2120000D03*
X2300000D03*
X2200000Y2020000D03*
X2300000D03*
X2330000Y2530000D03*
X2640000Y1200000D03*
X2520000Y1010000D03*
X2490000Y1100000D03*
X2600000Y1450000D03*
X2440000Y1500000D03*
X2600000Y1700000D03*
X2740000Y1790000D03*
X2400000Y2220000D03*
Y2120000D03*
Y2020000D03*
X2640000Y2650000D03*
X2880000Y340000D03*
X3090000Y760000D03*
X3010000Y1880000D03*
X3000000Y2180000D03*
X3130000Y2114000D03*
X2769990Y2199990D03*
X3106000Y2644000D03*
X3430000Y140000D03*
X3390000Y820000D03*
X3450000Y660000D03*
X3360000Y1310000D03*
Y1590000D03*
X3457000Y1987000D03*
X3397000D03*
X3460000Y1860000D03*
X3400000D03*
X3457000Y2517000D03*
X3397000D03*
X3590000Y556600D03*
X3660000D03*
X3590000Y493100D03*
X3660000D03*
X3520000Y660000D03*
Y980000D03*
X3870000Y1340000D03*
X3900000Y1530000D03*
Y1610000D03*
X3530000Y2240000D03*
X3590000D03*
X3650000Y2241000D03*
Y2390000D03*
X3590000D03*
X3530000D03*
Y2770000D03*
X3590000D03*
X3651000Y2771000D03*
X3965000Y305000D03*
X3970000Y120000D03*
X4220000Y990000D03*
X3960000Y1180000D03*
X4020000Y1230000D03*
X4080000Y1280000D03*
X4010000Y1540000D03*
X4050000Y1610000D03*
X3980000Y1810000D03*
X3920000Y1910000D03*
X4020000D03*
X3910000Y2300000D03*
X3995000Y2645000D03*
X3910000Y2450000D03*
X4350000Y130000D03*
X4410000Y350000D03*
X4320000D03*
Y970000D03*
X4410000D03*
X4360000Y1900000D03*
X4370000Y2790000D03*
G54D12*
X178000Y1008000D03*
Y1872000D03*
G54D13*
X596000Y1008000D03*
Y1872000D03*
G54D14*
X4305000Y1080000D03*
Y1800000D03*
G54D15*
X4300000Y1215000D03*
Y1165000D03*
Y1565000D03*
Y1515000D03*
Y1465000D03*
Y1415000D03*
Y1365000D03*
Y1315000D03*
Y1265000D03*
Y1715000D03*
Y1665000D03*
Y1615000D03*
G54D16*
G01X3390000Y820000D02*
X1854120D01*
X1850000Y815880D01*
G01X1910000Y760000D02*
X3090000D01*
G01X4410000Y970000D02*
Y810000D01*
X4360000Y760000D01*
X3090000D01*
G01X4320000Y970000D02*
Y860000D01*
X4280000Y820000D01*
X3390000D01*
G01X3450000Y660000D02*
Y669030D01*
X3496850Y715880D01*
X4334120D01*
X4410000Y640000D01*
Y350000D01*
G01X3520000Y660000D02*
X4270000D01*
X4320000Y610000D01*
Y350000D01*
G01X3520000Y980000D02*
X4100000D01*
X4150000Y1030000D01*
Y1470000D01*
X4080000Y1540000D01*
X4010000D01*
G54D17*
G01X1190000Y1150000D02*
X1210000Y1130000D01*
G01D02*
X1630000D01*
X1740000Y1240000D01*
X2350000D01*
X2490000Y1100000D01*
G01X3460000Y2640000D02*
X3465000Y2645000D01*
G01D02*
X3995000D01*
G01X4209600Y1100000D02*
Y1143400D01*
X4231200Y1165000D01*
X4300000D01*
G01X4180000Y1720000D02*
X4185000Y1715000D01*
G01D02*
X4300000D01*
G01Y1165000D02*
X4425000D01*
G01D02*
X4430000Y1170000D01*
G01X4300000Y1715000D02*
X4425000D01*
G01D02*
X4430000Y1720000D01*
M02*
