G04 ================== begin FILE IDENTIFICATION RECORD ==================*
G04 Layout Name:  HY_TYPEC_DBUG_V10B.brd*
G04 Film Name:    Drill_Legend*
G04 File Format:  Gerber RS274X*
G04 File Origin:  Cadence Allegro 17.2-S067*
G04 Origin Date:  Tue Aug 11 15:06:52 2020*
G04 *
G04 Layer:  MANUFACTURING/NCLEGEND-1-2*
G04 Layer:  MANUFACTURING/NCLEGEND-1-4*
G04 Layer:  MANUFACTURING/NCDRILL_LEGEND*
G04 Layer:  MANUFACTURING/NCDRILL_FIGURE*
G04 Layer:  BOARD GEOMETRY/DIMENSION*
G04 *
G04 Offset:    (0.0000 0.0000)*
G04 Mirror:    No*
G04 Mode:      Positive*
G04 Rotation:  0*
G04 FullContactRelief:  No*
G04 UndefLineWidth:     0.1524*
G04 ================== end FILE IDENTIFICATION RECORD ====================*
%FSLAX55Y55*MOMM*%
%IR0*IPPOS*OFA0.00000B0.00000*MIA0B0*SFA1.00000B1.00000*%
%AMMACRO12*
1,1,.1524,-.3,.3*
20,1,.1524,-.3,.3,.3,.3,0.0*
1,1,.1524,.3,.3*
20,1,.1524,.3,.3,.352094,.295442,0.0*
1,1,.1524,.352094,.295442*
20,1,.1524,.352094,.295442,.402606,.281908,0.0*
1,1,.1524,.402606,.281908*
20,1,.1524,.402606,.281908,.45,.259808,0.0*
1,1,.1524,.45,.259808*
20,1,.1524,.45,.259808,.492836,.229813,0.0*
1,1,.1524,.492836,.229813*
20,1,.1524,.492836,.229813,.529813,.192836,0.0*
1,1,.1524,.529813,.192836*
20,1,.1524,.529813,.192836,.559808,.15,0.0*
1,1,.1524,.559808,.15*
20,1,.1524,.559808,.15,.581908,.102606,0.0*
1,1,.1524,.581908,.102606*
20,1,.1524,.581908,.102606,.595442,.052094,0.0*
1,1,.1524,.595442,.052094*
20,1,.1524,.595442,.052094,.6,0.0,0.0*
1,1,.1524,.6,0.0*
20,1,.1524,.6,0.0,.595442,-.052094,0.0*
1,1,.1524,.595442,-.052094*
20,1,.1524,.595442,-.052094,.581908,-.102606,0.0*
1,1,.1524,.581908,-.102606*
20,1,.1524,.581908,-.102606,.559808,-.15,0.0*
1,1,.1524,.559808,-.15*
20,1,.1524,.559808,-.15,.529813,-.192836,0.0*
1,1,.1524,.529813,-.192836*
20,1,.1524,.529813,-.192836,.492836,-.229813,0.0*
1,1,.1524,.492836,-.229813*
20,1,.1524,.492836,-.229813,.45,-.259808,0.0*
1,1,.1524,.45,-.259808*
20,1,.1524,.45,-.259808,.402606,-.281908,0.0*
1,1,.1524,.402606,-.281908*
20,1,.1524,.402606,-.281908,.352094,-.295442,0.0*
1,1,.1524,.352094,-.295442*
20,1,.1524,.352094,-.295442,.3,-.3,0.0*
1,1,.1524,.3,-.3*
20,1,.1524,.3,-.3,-.3,-.3,0.0*
1,1,.1524,-.3,-.3*
20,1,.1524,-.3,-.3,-.352094,-.295442,0.0*
1,1,.1524,-.352094,-.295442*
20,1,.1524,-.352094,-.295442,-.402606,-.281908,0.0*
1,1,.1524,-.402606,-.281908*
20,1,.1524,-.402606,-.281908,-.45,-.259808,0.0*
1,1,.1524,-.45,-.259808*
20,1,.1524,-.45,-.259808,-.492836,-.229813,0.0*
1,1,.1524,-.492836,-.229813*
20,1,.1524,-.492836,-.229813,-.529813,-.192836,0.0*
1,1,.1524,-.529813,-.192836*
20,1,.1524,-.529813,-.192836,-.559808,-.15,0.0*
1,1,.1524,-.559808,-.15*
20,1,.1524,-.559808,-.15,-.581908,-.102606,0.0*
1,1,.1524,-.581908,-.102606*
20,1,.1524,-.581908,-.102606,-.595442,-.052094,0.0*
1,1,.1524,-.595442,-.052094*
20,1,.1524,-.595442,-.052094,-.6,0.0,0.0*
1,1,.1524,-.6,0.0*
20,1,.1524,-.6,0.0,-.595442,.052094,0.0*
1,1,.1524,-.595442,.052094*
20,1,.1524,-.595442,.052094,-.581908,.102606,0.0*
1,1,.1524,-.581908,.102606*
20,1,.1524,-.581908,.102606,-.559808,.15,0.0*
1,1,.1524,-.559808,.15*
20,1,.1524,-.559808,.15,-.529813,.192836,0.0*
1,1,.1524,-.529813,.192836*
20,1,.1524,-.529813,.192836,-.492836,.229813,0.0*
1,1,.1524,-.492836,.229813*
20,1,.1524,-.492836,.229813,-.45,.259808,0.0*
1,1,.1524,-.45,.259808*
20,1,.1524,-.45,.259808,-.402606,.281908,0.0*
1,1,.1524,-.402606,.281908*
20,1,.1524,-.402606,.281908,-.352094,.295442,0.0*
1,1,.1524,-.352094,.295442*
20,1,.1524,-.352094,.295442,-.3,.3,0.0*
1,1,.1524,-.3,.3*
1,1,.1524,-.15,-.15*
20,1,.1524,-.15,-.15,-.19,-.145,0.0*
1,1,.1524,-.19,-.145*
20,1,.1524,-.19,-.145,-.225,-.125,0.0*
1,1,.1524,-.225,-.125*
20,1,.1524,-.225,-.125,-.255,-.095,0.0*
1,1,.1524,-.255,-.095*
20,1,.1524,-.255,-.095,-.275,-.06,0.0*
1,1,.1524,-.275,-.06*
20,1,.1524,-.275,-.06,-.285,-.02,0.0*
1,1,.1524,-.285,-.02*
20,1,.1524,-.285,-.02,-.285,.02,0.0*
1,1,.1524,-.285,.02*
20,1,.1524,-.285,.02,-.275,.06,0.0*
1,1,.1524,-.275,.06*
20,1,.1524,-.275,.06,-.255,.095,0.0*
1,1,.1524,-.255,.095*
20,1,.1524,-.255,.095,-.225,.125,0.0*
1,1,.1524,-.225,.125*
20,1,.1524,-.225,.125,-.19,.145,0.0*
1,1,.1524,-.19,.145*
20,1,.1524,-.19,.145,-.15,.15,0.0*
1,1,.1524,-.15,.15*
20,1,.1524,-.15,.15,-.11,.145,0.0*
1,1,.1524,-.11,.145*
20,1,.1524,-.11,.145,-.075,.125,0.0*
1,1,.1524,-.075,.125*
20,1,.1524,-.075,.125,-.045,.095,0.0*
1,1,.1524,-.045,.095*
20,1,.1524,-.045,.095,-.025,.06,0.0*
1,1,.1524,-.025,.06*
20,1,.1524,-.025,.06,-.015,.02,0.0*
1,1,.1524,-.015,.02*
20,1,.1524,-.015,.02,-.015,-.02,0.0*
1,1,.1524,-.015,-.02*
20,1,.1524,-.015,-.02,-.025,-.06,0.0*
1,1,.1524,-.025,-.06*
20,1,.1524,-.025,-.06,-.045,-.095,0.0*
1,1,.1524,-.045,-.095*
20,1,.1524,-.045,-.095,-.075,-.125,0.0*
1,1,.1524,-.075,-.125*
20,1,.1524,-.075,-.125,-.11,-.145,0.0*
1,1,.1524,-.11,-.145*
20,1,.1524,-.11,-.145,-.15,-.15,0.0*
1,1,.1524,-.15,-.15*
1,1,.1524,.0251,-.15*
20,1,.1524,.0251,-.15,.1501,.15,0.0*
1,1,.1524,.1501,.15*
20,1,.1524,.1501,.15,.2751,-.15,0.0*
1,1,.1524,.2751,-.15*
1,1,.1524,.2301,-.045*
20,1,.1524,.2301,-.045,.0701,-.045,0.0*
1,1,.1524,.0701,-.045*
%
%ADD12MACRO12*%
%AMMACRO10*
1,1,.1524,.4,.4*
20,1,.1524,.4,.4,.4,-.4,0.0*
1,1,.1524,.4,-.4*
20,1,.1524,.4,-.4,-.4,-.4,0.0*
1,1,.1524,-.4,-.4*
20,1,.1524,-.4,-.4,-.4,.4,0.0*
1,1,.1524,-.4,.4*
20,1,.1524,-.4,.4,.4,.4,0.0*
1,1,.1524,.4,.4*
%
%ADD10MACRO10*%
%AMMACRO13*
1,1,.1524,-.55,.3*
20,1,.1524,-.55,.3,.55,.3,0.0*
1,1,.1524,.55,.3*
20,1,.1524,.55,.3,.602094,.295442,0.0*
1,1,.1524,.602094,.295442*
20,1,.1524,.602094,.295442,.652606,.281908,0.0*
1,1,.1524,.652606,.281908*
20,1,.1524,.652606,.281908,.7,.259808,0.0*
1,1,.1524,.7,.259808*
20,1,.1524,.7,.259808,.742836,.229813,0.0*
1,1,.1524,.742836,.229813*
20,1,.1524,.742836,.229813,.779813,.192836,0.0*
1,1,.1524,.779813,.192836*
20,1,.1524,.779813,.192836,.809808,.15,0.0*
1,1,.1524,.809808,.15*
20,1,.1524,.809808,.15,.831908,.102606,0.0*
1,1,.1524,.831908,.102606*
20,1,.1524,.831908,.102606,.845442,.052094,0.0*
1,1,.1524,.845442,.052094*
20,1,.1524,.845442,.052094,.85,0.0,0.0*
1,1,.1524,.85,0.0*
20,1,.1524,.85,0.0,.845442,-.052094,0.0*
1,1,.1524,.845442,-.052094*
20,1,.1524,.845442,-.052094,.831908,-.102606,0.0*
1,1,.1524,.831908,-.102606*
20,1,.1524,.831908,-.102606,.809808,-.15,0.0*
1,1,.1524,.809808,-.15*
20,1,.1524,.809808,-.15,.779813,-.192836,0.0*
1,1,.1524,.779813,-.192836*
20,1,.1524,.779813,-.192836,.742836,-.229813,0.0*
1,1,.1524,.742836,-.229813*
20,1,.1524,.742836,-.229813,.7,-.259808,0.0*
1,1,.1524,.7,-.259808*
20,1,.1524,.7,-.259808,.652606,-.281908,0.0*
1,1,.1524,.652606,-.281908*
20,1,.1524,.652606,-.281908,.602094,-.295442,0.0*
1,1,.1524,.602094,-.295442*
20,1,.1524,.602094,-.295442,.55,-.3,0.0*
1,1,.1524,.55,-.3*
20,1,.1524,.55,-.3,-.55,-.3,0.0*
1,1,.1524,-.55,-.3*
20,1,.1524,-.55,-.3,-.602094,-.295442,0.0*
1,1,.1524,-.602094,-.295442*
20,1,.1524,-.602094,-.295442,-.652606,-.281908,0.0*
1,1,.1524,-.652606,-.281908*
20,1,.1524,-.652606,-.281908,-.7,-.259808,0.0*
1,1,.1524,-.7,-.259808*
20,1,.1524,-.7,-.259808,-.742836,-.229813,0.0*
1,1,.1524,-.742836,-.229813*
20,1,.1524,-.742836,-.229813,-.779813,-.192836,0.0*
1,1,.1524,-.779813,-.192836*
20,1,.1524,-.779813,-.192836,-.809808,-.15,0.0*
1,1,.1524,-.809808,-.15*
20,1,.1524,-.809808,-.15,-.831908,-.102606,0.0*
1,1,.1524,-.831908,-.102606*
20,1,.1524,-.831908,-.102606,-.845442,-.052094,0.0*
1,1,.1524,-.845442,-.052094*
20,1,.1524,-.845442,-.052094,-.85,0.0,0.0*
1,1,.1524,-.85,0.0*
20,1,.1524,-.85,0.0,-.845442,.052094,0.0*
1,1,.1524,-.845442,.052094*
20,1,.1524,-.845442,.052094,-.831908,.102606,0.0*
1,1,.1524,-.831908,.102606*
20,1,.1524,-.831908,.102606,-.809808,.15,0.0*
1,1,.1524,-.809808,.15*
20,1,.1524,-.809808,.15,-.779813,.192836,0.0*
1,1,.1524,-.779813,.192836*
20,1,.1524,-.779813,.192836,-.742836,.229813,0.0*
1,1,.1524,-.742836,.229813*
20,1,.1524,-.742836,.229813,-.7,.259808,0.0*
1,1,.1524,-.7,.259808*
20,1,.1524,-.7,.259808,-.652606,.281908,0.0*
1,1,.1524,-.652606,.281908*
20,1,.1524,-.652606,.281908,-.602094,.295442,0.0*
1,1,.1524,-.602094,.295442*
20,1,.1524,-.602094,.295442,-.55,.3,0.0*
1,1,.1524,-.55,.3*
1,1,.1524,-.15,-.15*
20,1,.1524,-.15,-.15,-.19,-.145,0.0*
1,1,.1524,-.19,-.145*
20,1,.1524,-.19,-.145,-.225,-.125,0.0*
1,1,.1524,-.225,-.125*
20,1,.1524,-.225,-.125,-.255,-.095,0.0*
1,1,.1524,-.255,-.095*
20,1,.1524,-.255,-.095,-.275,-.06,0.0*
1,1,.1524,-.275,-.06*
20,1,.1524,-.275,-.06,-.285,-.02,0.0*
1,1,.1524,-.285,-.02*
20,1,.1524,-.285,-.02,-.285,.02,0.0*
1,1,.1524,-.285,.02*
20,1,.1524,-.285,.02,-.275,.06,0.0*
1,1,.1524,-.275,.06*
20,1,.1524,-.275,.06,-.255,.095,0.0*
1,1,.1524,-.255,.095*
20,1,.1524,-.255,.095,-.225,.125,0.0*
1,1,.1524,-.225,.125*
20,1,.1524,-.225,.125,-.19,.145,0.0*
1,1,.1524,-.19,.145*
20,1,.1524,-.19,.145,-.15,.15,0.0*
1,1,.1524,-.15,.15*
20,1,.1524,-.15,.15,-.11,.145,0.0*
1,1,.1524,-.11,.145*
20,1,.1524,-.11,.145,-.075,.125,0.0*
1,1,.1524,-.075,.125*
20,1,.1524,-.075,.125,-.045,.095,0.0*
1,1,.1524,-.045,.095*
20,1,.1524,-.045,.095,-.025,.06,0.0*
1,1,.1524,-.025,.06*
20,1,.1524,-.025,.06,-.015,.02,0.0*
1,1,.1524,-.015,.02*
20,1,.1524,-.015,.02,-.015,-.02,0.0*
1,1,.1524,-.015,-.02*
20,1,.1524,-.015,-.02,-.025,-.06,0.0*
1,1,.1524,-.025,-.06*
20,1,.1524,-.025,-.06,-.045,-.095,0.0*
1,1,.1524,-.045,-.095*
20,1,.1524,-.045,-.095,-.075,-.125,0.0*
1,1,.1524,-.075,-.125*
20,1,.1524,-.075,-.125,-.11,-.145,0.0*
1,1,.1524,-.11,-.145*
20,1,.1524,-.11,-.145,-.15,-.15,0.0*
1,1,.1524,-.15,-.15*
1,1,.1524,.1901,.01*
20,1,.1524,.1901,.01,.2101,.025,0.0*
1,1,.1524,.2101,.025*
20,1,.1524,.2101,.025,.2251,.05,0.0*
1,1,.1524,.2251,.05*
20,1,.1524,.2251,.05,.2351,.085,0.0*
1,1,.1524,.2351,.085*
20,1,.1524,.2351,.085,.2251,.115,0.0*
1,1,.1524,.2251,.115*
20,1,.1524,.2251,.115,.2051,.135,0.0*
1,1,.1524,.2051,.135*
20,1,.1524,.2051,.135,.1701,.15,0.0*
1,1,.1524,.1701,.15*
20,1,.1524,.1701,.15,.0351,.15,0.0*
1,1,.1524,.0351,.15*
20,1,.1524,.0351,.15,.0351,-.15,0.0*
1,1,.1524,.0351,-.15*
20,1,.1524,.0351,-.15,.2001,-.15,0.0*
1,1,.1524,.2001,-.15*
20,1,.1524,.2001,-.15,.2351,-.13,0.0*
1,1,.1524,.2351,-.13*
20,1,.1524,.2351,-.13,.2551,-.1,0.0*
1,1,.1524,.2551,-.1*
20,1,.1524,.2551,-.1,.2651,-.065,0.0*
1,1,.1524,.2651,-.065*
20,1,.1524,.2651,-.065,.2551,-.03,0.0*
1,1,.1524,.2551,-.03*
20,1,.1524,.2551,-.03,.2251,0.0,0.0*
1,1,.1524,.2251,0.0*
20,1,.1524,.2251,0.0,.1901,.01,0.0*
1,1,.1524,.1901,.01*
20,1,.1524,.1901,.01,.0351,.01,0.0*
1,1,.1524,.0351,.01*
%
%ADD13MACRO13*%
%AMMACRO11*
1,1,.1524,.127,0.0*
20,1,.1524,.127,0.0,-.127,0.0,0.0*
1,1,.1524,-.127,0.0*
1,1,.1524,0.0,.127*
20,1,.1524,0.0,.127,0.0,-.127,0.0*
1,1,.1524,0.0,-.127*
%
%ADD11MACRO11*%
%ADD14C,.1524*%
G75*
%LPD*%
G75*
G54D10*
X305000Y390000D03*
X555000D03*
X2255000D03*
X2505000D03*
X7781730Y1567500D03*
G54D11*
X200000Y180000D03*
X160000Y670000D03*
X130000Y1210000D03*
X400000Y1100000D03*
X460000D03*
Y1160000D03*
X400000D03*
X130000Y1690000D03*
X400000Y1730000D03*
X460000D03*
Y1670000D03*
X400000D03*
X110000Y2210000D03*
X120000Y2810000D03*
X460000Y2850000D03*
X800000Y390000D03*
X570000Y670000D03*
X580000Y880000D03*
X850000Y1610000D03*
X840000Y1810000D03*
X770000Y2040000D03*
X840000Y2280000D03*
X580000D03*
Y2050000D03*
X740000Y2710000D03*
Y2650000D03*
Y2770000D03*
X1000000Y390000D03*
X1150000Y670000D03*
X860000D03*
X920000Y890000D03*
X1080000Y990000D03*
X1230000Y890000D03*
X1166500D03*
X1120000Y1220000D03*
X1190000D03*
X1120000Y1150000D03*
X1190000D03*
X920000Y1350000D03*
X1110000Y1520000D03*
X1120000Y1760000D03*
X1030000Y2010000D03*
X1070000Y2360000D03*
X1170000Y2195000D03*
X860000Y2770000D03*
X970000D03*
X1070000D03*
X1180000D03*
X1410000Y170000D03*
X1450000Y670000D03*
X1550000Y880800D03*
X1310000Y1500000D03*
X1570000Y1260000D03*
X1310000Y1310000D03*
X1460000Y1930000D03*
X1360000D03*
Y1740000D03*
X1310000Y1630000D03*
X1490000Y2060000D03*
X1360000D03*
X1560000Y2390000D03*
X1320000Y2770000D03*
X1390000D03*
X1460000D03*
X1530000D03*
X1960000Y430000D03*
X1890000D03*
X1820000Y500000D03*
X1890000D03*
X1960000D03*
X1850000Y815880D03*
X1910000Y760000D03*
X1820000Y1390000D03*
X1810000Y1630000D03*
Y1750000D03*
X1800000Y2110000D03*
X1850000Y2380000D03*
X1680000Y2790000D03*
X1920000D03*
X2120000Y310000D03*
Y500000D03*
X2130000Y980000D03*
X2230000Y1080000D03*
X2030000Y980000D03*
X2230000D03*
X2130000Y1080000D03*
X2030000D03*
X2010000Y1390000D03*
Y1660000D03*
X2200000Y2220000D03*
X2300000D03*
X2200000Y2120000D03*
X2300000D03*
X2200000Y2020000D03*
X2300000D03*
X2330000Y2530000D03*
X2640000Y1200000D03*
X2520000Y1010000D03*
X2490000Y1100000D03*
X2600000Y1450000D03*
X2440000Y1500000D03*
X2600000Y1700000D03*
X2740000Y1790000D03*
X2400000Y2220000D03*
Y2120000D03*
Y2020000D03*
X2640000Y2650000D03*
X2880000Y340000D03*
X3090000Y760000D03*
X3010000Y1880000D03*
X3000000Y2180000D03*
X3130000Y2114000D03*
X2769990Y2199990D03*
X3106000Y2644000D03*
X3430000Y140000D03*
X3390000Y820000D03*
X3450000Y660000D03*
X3360000Y1310000D03*
Y1590000D03*
X3457000Y1987000D03*
X3397000D03*
X3460000Y1860000D03*
X3400000D03*
X3457000Y2517000D03*
X3397000D03*
X3590000Y556600D03*
X3660000D03*
X3590000Y493100D03*
X3660000D03*
X3520000Y660000D03*
Y980000D03*
X3870000Y1340000D03*
X3900000Y1530000D03*
Y1610000D03*
X3530000Y2240000D03*
X3590000D03*
X3650000Y2241000D03*
Y2390000D03*
X3590000D03*
X3530000D03*
Y2770000D03*
X3590000D03*
X3651000Y2771000D03*
X3965000Y305000D03*
X3970000Y120000D03*
X4220000Y990000D03*
X3960000Y1180000D03*
X4020000Y1230000D03*
X4080000Y1280000D03*
X4010000Y1540000D03*
X4050000Y1610000D03*
X3980000Y1810000D03*
X3920000Y1910000D03*
X4020000D03*
X3910000Y2300000D03*
X3995000Y2645000D03*
X3910000Y2450000D03*
X4350000Y130000D03*
X4410000Y350000D03*
X4320000D03*
Y970000D03*
X4410000D03*
X4360000Y1900000D03*
X4370000Y2790000D03*
X7781730Y2202500D03*
G54D12*
X178000Y1008000D03*
Y1872000D03*
X7781730Y932500D03*
G54D13*
X596000Y1008000D03*
Y1872000D03*
X7781730Y297500D03*
G54D14*
G01X-870790Y1473500D02*
X-856570Y1492550D01*
X-839970Y1502080D01*
X-821010Y1505250D01*
X-797300Y1498900D01*
X-780710Y1483020D01*
X-775970Y1463980D01*
X-778340Y1444920D01*
X-787820Y1429050D01*
X-835230Y1397300D01*
X-856570Y1375070D01*
X-870790Y1343320D01*
X-875530Y1314750D01*
X-775970D01*
G01X-675550Y1336970D02*
X-658960Y1321100D01*
X-639990Y1314750D01*
X-621030Y1321100D01*
X-604430Y1340140D01*
X-592580Y1368730D01*
X-587840Y1397300D01*
Y1432220D01*
X-592580Y1460800D01*
X-604430Y1486200D01*
X-618660Y1498900D01*
X-635250Y1505250D01*
X-654220Y1498900D01*
X-668440Y1486200D01*
X-677920Y1467150D01*
X-682660Y1441750D01*
X-677920Y1419530D01*
X-666070Y1397300D01*
X-651840Y1384600D01*
X-635250Y1381420D01*
X-616290Y1387770D01*
X-602060Y1403650D01*
X-587840Y1432220D01*
G01X-444750Y1308400D02*
X-449490Y1311580D01*
Y1317920D01*
X-444750Y1321100D01*
X-440010Y1317920D01*
Y1311580D01*
X-444750Y1308400D01*
G01X-225800Y1314750D02*
Y1505250D01*
X-313520Y1368730D01*
X-194980D01*
G01X2043200Y-485250D02*
Y-294750D01*
X1955480Y-431270D01*
X2074020D01*
G01X2153100Y-456680D02*
X2167320Y-472550D01*
X2183910Y-482080D01*
X2205250Y-485250D01*
X2226590Y-478900D01*
X2243180Y-466200D01*
X2255030Y-443980D01*
X2257400Y-418580D01*
X2252660Y-393180D01*
X2240810Y-377300D01*
X2224210Y-364600D01*
X2207620Y-361430D01*
X2191030Y-364600D01*
X2169690Y-377300D01*
X2176800Y-294750D01*
X2240810D01*
G01X6919520Y2678750D02*
Y2996250D01*
X7069140D01*
G01X7014010Y2842800D02*
X6919520D01*
G01X7262050Y2996250D02*
X7356530D01*
G01X7309290D02*
Y2678750D01*
G01X7262050D02*
X7356530D01*
G01X7647870Y2837500D02*
X7726620D01*
Y2742250D01*
X7702990Y2710490D01*
X7675430Y2689330D01*
X7636060Y2678750D01*
X7596690Y2689330D01*
X7569130Y2710490D01*
X7545510Y2742250D01*
X7529760Y2779290D01*
X7521880Y2821620D01*
Y2858670D01*
X7529760Y2890410D01*
X7545510Y2927460D01*
X7569130Y2959210D01*
X7592750Y2980370D01*
X7624250Y2996250D01*
X7651810D01*
X7683300Y2985670D01*
X7706930Y2964500D01*
G01X7852600Y2996250D02*
Y2768710D01*
X7868340Y2721070D01*
X7899840Y2689330D01*
X7939210Y2678750D01*
X7978580Y2689330D01*
X8010080Y2721070D01*
X8025820Y2768710D01*
Y2996250D01*
G01X8175430Y2678750D02*
Y2996250D01*
X8273850D01*
X8305350Y2980370D01*
X8325040Y2959210D01*
X8332910Y2916870D01*
X8325040Y2874540D01*
X8301410Y2848090D01*
X8273850Y2832200D01*
X8175430D01*
G01X8273850D02*
X8332910Y2678750D01*
G01X8647870D02*
X8490390D01*
Y2996250D01*
X8647870D01*
G01X8584880Y2842800D02*
X8490390D01*
G01X8588810Y3313750D02*
X8687240Y3631250D01*
X8785670Y3313750D01*
G01X8750230Y3424870D02*
X8624240D01*
G01X8923460Y3631250D02*
Y3313750D01*
X9080940D01*
G01X9238420Y3631250D02*
Y3313750D01*
X9395900D01*
G01X9860470Y3631250D02*
Y3403710D01*
X9876210Y3356070D01*
X9907710Y3324330D01*
X9947080Y3313750D01*
X9986450Y3324330D01*
X10017950Y3356070D01*
X10033690Y3403710D01*
Y3631250D01*
G01X10171490Y3313750D02*
Y3631250D01*
X10352590Y3313750D01*
Y3631250D01*
G01X10529760D02*
X10624240D01*
G01X10577000D02*
Y3313750D01*
G01X10529760D02*
X10624240D01*
G01X10891960Y3631250D02*
Y3313750D01*
G01X10801410Y3631250D02*
X10982510D01*
G01X11124240Y3356070D02*
X11155740Y3329620D01*
X11191170Y3313750D01*
X11222670D01*
X11254160Y3329620D01*
X11277790Y3356070D01*
X11289600Y3393130D01*
X11281730Y3430160D01*
X11262040Y3461910D01*
X11226600Y3483090D01*
X11179360Y3493670D01*
X11151800Y3514830D01*
X11139990Y3551870D01*
X11147870Y3588920D01*
X11167550Y3615370D01*
X11195110Y3631250D01*
X11222670D01*
X11250230Y3620670D01*
X11273850Y3594210D01*
G01X11738410Y3313750D02*
X11836840Y3631250D01*
X11935270Y3313750D01*
G01X11899830Y3424870D02*
X11773840D01*
G01X12073060Y3313750D02*
Y3631250D01*
X12171480D01*
X12202980Y3615370D01*
X12222670Y3594210D01*
X12230540Y3551870D01*
X12222670Y3509540D01*
X12199040Y3483090D01*
X12171480Y3467200D01*
X12073060D01*
G01X12171480D02*
X12230540Y3313750D01*
G01X12545500D02*
X12388020D01*
Y3631250D01*
X12545500D01*
G01X12482510Y3477800D02*
X12388020D01*
G01X13049440Y3631250D02*
X13143920D01*
G01X13096680D02*
Y3313750D01*
G01X13049440D02*
X13143920D01*
G01X13321090D02*
Y3631250D01*
X13502190Y3313750D01*
Y3631250D01*
G01X13939190Y3313750D02*
Y3631250D01*
X14041560Y3366670D01*
X14143930Y3631250D01*
Y3313750D01*
G01X14309280Y3631250D02*
X14403760D01*
G01X14356520D02*
Y3313750D01*
G01X14309280D02*
X14403760D01*
G01X14592740Y3631250D02*
Y3313750D01*
X14750220D01*
G01X14907700Y3631250D02*
Y3313750D01*
X15065180D01*
G01X15254160Y3631250D02*
X15348640D01*
G01X15301400D02*
Y3313750D01*
G01X15254160D02*
X15348640D01*
G01X15513990D02*
Y3631250D01*
X15616360Y3366670D01*
X15718730Y3631250D01*
Y3313750D01*
G01X16010060D02*
X15852580D01*
Y3631250D01*
X16010060D01*
G01X15947070Y3477800D02*
X15852580D01*
G01X16246280Y3631250D02*
Y3313750D01*
G01X16155730Y3631250D02*
X16336830D01*
G01X16639980Y3313750D02*
X16482500D01*
Y3631250D01*
X16639980D01*
G01X16576990Y3477800D02*
X16482500D01*
G01X16797460Y3313750D02*
Y3631250D01*
X16895880D01*
X16927380Y3615370D01*
X16947070Y3594210D01*
X16954940Y3551870D01*
X16947070Y3509540D01*
X16923440Y3483090D01*
X16895880Y3467200D01*
X16797460D01*
G01X16895880D02*
X16954940Y3313750D01*
G01X17108480Y3356070D02*
X17139980Y3329620D01*
X17175410Y3313750D01*
X17206910D01*
X17238400Y3329620D01*
X17262030Y3356070D01*
X17273840Y3393130D01*
X17265970Y3430160D01*
X17246280Y3461910D01*
X17210840Y3483090D01*
X17163600Y3493670D01*
X17136040Y3514830D01*
X17124230Y3551870D01*
X17132110Y3588920D01*
X17151790Y3615370D01*
X17179350Y3631250D01*
X17206910D01*
X17234470Y3620670D01*
X17258090Y3594210D01*
G01X8915590Y3963750D02*
Y4281250D01*
X8994320D01*
X9025820Y4265370D01*
X9049440Y4244210D01*
X9069130Y4212460D01*
X9084880Y4175410D01*
X9088810Y4122500D01*
X9084880Y4069580D01*
X9069130Y4032540D01*
X9049440Y4000780D01*
X9025820Y3979620D01*
X8994320Y3963750D01*
X8915590D01*
G01X9238420D02*
Y4281250D01*
X9336840D01*
X9368340Y4265370D01*
X9388030Y4244210D01*
X9395900Y4201870D01*
X9388030Y4159540D01*
X9364400Y4133090D01*
X9336840Y4117200D01*
X9238420D01*
G01X9336840D02*
X9395900Y3963750D01*
G01X9584880Y4281250D02*
X9679360D01*
G01X9632120D02*
Y3963750D01*
G01X9584880D02*
X9679360D01*
G01X9868340Y4281250D02*
Y3963750D01*
X10025820D01*
G01X10183300Y4281250D02*
Y3963750D01*
X10340780D01*
G01X10978570Y4254790D02*
X10954950Y4270670D01*
X10927400Y4281250D01*
X10895900D01*
X10860460Y4265370D01*
X10832910Y4238920D01*
X10813220Y4207160D01*
X10797470Y4154250D01*
X10793530Y4106620D01*
X10801410Y4059000D01*
X10813220Y4027250D01*
X10836840Y3995490D01*
X10864400Y3974330D01*
X10891960Y3963750D01*
X10919520D01*
X10947080Y3974330D01*
X10970700Y3990200D01*
X10990390Y4011360D01*
G01X11124240Y3963750D02*
Y4281250D01*
G01X11289600D02*
Y3963750D01*
G01Y4122500D02*
X11124240D01*
G01X11423450Y3963750D02*
X11521880Y4281250D01*
X11620310Y3963750D01*
G01X11584870Y4074870D02*
X11458880D01*
G01X11758100Y3963750D02*
Y4281250D01*
X11856520D01*
X11888020Y4265370D01*
X11907710Y4244210D01*
X11915580Y4201870D01*
X11907710Y4159540D01*
X11884080Y4133090D01*
X11856520Y4117200D01*
X11758100D01*
G01X11856520D02*
X11915580Y3963750D01*
G01X12151800Y4281250D02*
Y3963750D01*
G01X12061250Y4281250D02*
X12242350D01*
G01X12466760Y3953170D02*
X12458880Y3958460D01*
Y3969040D01*
X12466760Y3974330D01*
X12474640Y3969040D01*
Y3958460D01*
X12466760Y3953170D01*
G01Y4096030D02*
X12458880Y4101330D01*
Y4111910D01*
X12466760Y4117200D01*
X12474640Y4111910D01*
Y4101330D01*
X12466760Y4096030D01*
G01X13096680Y4281250D02*
Y3963750D01*
G01X13006130Y4281250D02*
X13187230D01*
G01X13411640Y3963750D02*
X13380140Y3969040D01*
X13352590Y3990200D01*
X13328960Y4021960D01*
X13313210Y4059000D01*
X13305340Y4101330D01*
Y4143670D01*
X13313210Y4186000D01*
X13328960Y4223040D01*
X13352590Y4254790D01*
X13380140Y4275960D01*
X13411640Y4281250D01*
X13443130Y4275960D01*
X13470690Y4254790D01*
X13494320Y4223040D01*
X13510070Y4186000D01*
X13517940Y4143670D01*
Y4101330D01*
X13510070Y4059000D01*
X13494320Y4021960D01*
X13470690Y3990200D01*
X13443130Y3969040D01*
X13411640Y3963750D01*
G01X13647860D02*
Y4281250D01*
X13742350D01*
X13773840Y4265370D01*
X13797470Y4228330D01*
X13805340Y4186000D01*
X13797470Y4143670D01*
X13777780Y4111910D01*
X13742350Y4096030D01*
X13647860D01*
G01X14356520Y4281250D02*
Y3963750D01*
G01X14301400Y4175410D02*
X14411640D01*
G01X14671480Y3963750D02*
X14647860Y3969040D01*
X14624240Y3990200D01*
X14608480Y4027250D01*
X14600610Y4069580D01*
X14608480Y4111910D01*
X14624240Y4148960D01*
X14647860Y4170120D01*
X14671480Y4175410D01*
X14695100Y4170120D01*
X14718720Y4148960D01*
X14734470Y4111910D01*
X14738410Y4069580D01*
X14734470Y4027250D01*
X14718720Y3990200D01*
X14695100Y3969040D01*
X14671480Y3963750D01*
G01X15332890Y4133090D02*
X15348640Y4148960D01*
X15360450Y4175410D01*
X15368330Y4212460D01*
X15360450Y4244210D01*
X15344710Y4265370D01*
X15317150Y4281250D01*
X15210850D01*
Y3963750D01*
X15340770D01*
X15368330Y3984910D01*
X15384080Y4016670D01*
X15391950Y4053710D01*
X15384080Y4090740D01*
X15360450Y4122500D01*
X15332890Y4133090D01*
X15210850D01*
G01X15616360Y3963750D02*
X15584860Y3969040D01*
X15557310Y3990200D01*
X15533680Y4021960D01*
X15517930Y4059000D01*
X15510060Y4101330D01*
Y4143670D01*
X15517930Y4186000D01*
X15533680Y4223040D01*
X15557310Y4254790D01*
X15584860Y4275960D01*
X15616360Y4281250D01*
X15647850Y4275960D01*
X15675410Y4254790D01*
X15699040Y4223040D01*
X15714790Y4186000D01*
X15722660Y4143670D01*
Y4101330D01*
X15714790Y4059000D01*
X15699040Y4021960D01*
X15675410Y3990200D01*
X15647850Y3969040D01*
X15616360Y3963750D01*
G01X15931320Y4281250D02*
Y3963750D01*
G01X15840770Y4281250D02*
X16021870D01*
G01X16246280D02*
Y3963750D01*
G01X16155730Y4281250D02*
X16336830D01*
G01X16561240Y3963750D02*
X16529740Y3969040D01*
X16502190Y3990200D01*
X16478560Y4021960D01*
X16462810Y4059000D01*
X16454940Y4101330D01*
Y4143670D01*
X16462810Y4186000D01*
X16478560Y4223040D01*
X16502190Y4254790D01*
X16529740Y4275960D01*
X16561240Y4281250D01*
X16592730Y4275960D01*
X16620290Y4254790D01*
X16643920Y4223040D01*
X16659670Y4186000D01*
X16667540Y4143670D01*
Y4101330D01*
X16659670Y4059000D01*
X16643920Y4021960D01*
X16620290Y3990200D01*
X16592730Y3969040D01*
X16561240Y3963750D01*
G01X16773830D02*
Y4281250D01*
X16876200Y4016670D01*
X16978570Y4281250D01*
Y3963750D01*
G01X9517940Y2678750D02*
Y2996250D01*
X9667560D01*
G01X9612430Y2842800D02*
X9517940D01*
G01X9860470Y2996250D02*
X9954950D01*
G01X9907710D02*
Y2678750D01*
G01X9860470D02*
X9954950D01*
G01X10132120D02*
Y2996250D01*
X10313220Y2678750D01*
Y2996250D01*
G01X10490390D02*
X10584870D01*
G01X10537630D02*
Y2678750D01*
G01X10490390D02*
X10584870D01*
G01X10769910Y2721070D02*
X10801410Y2694620D01*
X10836840Y2678750D01*
X10868340D01*
X10899830Y2694620D01*
X10923460Y2721070D01*
X10935270Y2758130D01*
X10927400Y2795160D01*
X10907710Y2826910D01*
X10872270Y2848090D01*
X10825030Y2858670D01*
X10797470Y2879830D01*
X10785660Y2916870D01*
X10793540Y2953920D01*
X10813220Y2980370D01*
X10840780Y2996250D01*
X10868340D01*
X10895900Y2985670D01*
X10919520Y2959210D01*
G01X11084870Y2678750D02*
Y2996250D01*
G01X11250230D02*
Y2678750D01*
G01Y2837500D02*
X11084870D01*
G01X11561250Y2678750D02*
X11403770D01*
Y2996250D01*
X11561250D01*
G01X11498260Y2842800D02*
X11403770D01*
G01X11710860Y2678750D02*
Y2996250D01*
X11789590D01*
X11821090Y2980370D01*
X11844710Y2959210D01*
X11864400Y2927460D01*
X11880150Y2890410D01*
X11884080Y2837500D01*
X11880150Y2784580D01*
X11864400Y2747540D01*
X11844710Y2715780D01*
X11821090Y2694620D01*
X11789590Y2678750D01*
X11710860D01*
G01X11994320Y2572920D02*
X12230540D01*
G01X12344710Y2721070D02*
X12376210Y2694620D01*
X12411640Y2678750D01*
X12443140D01*
X12474630Y2694620D01*
X12498260Y2721070D01*
X12510070Y2758130D01*
X12502200Y2795160D01*
X12482510Y2826910D01*
X12447070Y2848090D01*
X12399830Y2858670D01*
X12372270Y2879830D01*
X12360460Y2916870D01*
X12368340Y2953920D01*
X12388020Y2980370D01*
X12415580Y2996250D01*
X12443140D01*
X12470700Y2985670D01*
X12494320Y2959210D01*
G01X12695110Y2996250D02*
X12789590D01*
G01X12742350D02*
Y2678750D01*
G01X12695110D02*
X12789590D01*
G01X12982500Y2996250D02*
X13132120D01*
X12982500Y2678750D01*
X13132120D01*
G01X13451010D02*
X13293530D01*
Y2996250D01*
X13451010D01*
G01X13388020Y2842800D02*
X13293530D01*
G01X10537630Y138750D02*
Y456250D01*
X10490390Y392750D01*
G01Y138750D02*
X10584870D01*
G01X10852590Y128170D02*
X10844710Y133460D01*
Y144040D01*
X10852590Y149330D01*
X10860470Y144040D01*
Y133460D01*
X10852590Y128170D01*
G01X11159670Y138750D02*
X11167550Y207540D01*
X11179360Y265740D01*
X11195110Y318670D01*
X11214790Y376870D01*
X11246290Y456250D01*
X11088810D01*
G01X11423460Y350410D02*
X11541560Y138750D01*
G01Y350410D02*
X11423460Y138750D01*
G01X11797470Y456250D02*
X11765970Y445670D01*
X11742350Y419210D01*
X11726600Y387460D01*
X11714790Y345120D01*
X11710860Y297500D01*
X11714790Y249870D01*
X11726600Y207540D01*
X11742350Y175780D01*
X11765970Y149330D01*
X11797470Y138750D01*
X11828960Y149330D01*
X11852590Y175780D01*
X11868340Y207540D01*
X11880150Y249870D01*
X11884080Y297500D01*
X11880150Y345120D01*
X11868340Y387460D01*
X11852590Y419210D01*
X11828960Y445670D01*
X11797470Y456250D01*
G01X12112430Y128170D02*
X12104550Y133460D01*
Y144040D01*
X12112430Y149330D01*
X12120310Y144040D01*
Y133460D01*
X12112430Y128170D01*
G01X12352580Y271030D02*
X12380150Y308090D01*
X12403770Y329250D01*
X12435270Y339830D01*
X12462830Y329250D01*
X12482510Y308090D01*
X12498260Y276330D01*
X12502200Y239290D01*
X12498260Y207540D01*
X12482510Y175780D01*
X12458880Y149330D01*
X12431330Y138750D01*
X12399830Y149330D01*
X12372270Y181070D01*
X12356520Y228710D01*
X12352580Y281620D01*
X12360460Y350410D01*
X12372270Y387460D01*
X12391950Y424500D01*
X12419510Y450960D01*
X12447070Y456250D01*
X12474630Y445670D01*
X12494320Y419210D01*
G01X10537630Y773750D02*
Y1091250D01*
X10490390Y1027750D01*
G01Y773750D02*
X10584870D01*
G01X10852590Y763170D02*
X10844710Y768460D01*
Y779040D01*
X10852590Y784330D01*
X10860470Y779040D01*
Y768460D01*
X10852590Y763170D01*
G01X11092740Y1038330D02*
X11116370Y1070080D01*
X11143930Y1085960D01*
X11175430Y1091250D01*
X11214790Y1080670D01*
X11242360Y1054210D01*
X11250230Y1022460D01*
X11246290Y990700D01*
X11230540Y964250D01*
X11151800Y911330D01*
X11116370Y874290D01*
X11092740Y821360D01*
X11084870Y773750D01*
X11250230D01*
G01X11423460Y985410D02*
X11541560Y773750D01*
G01Y985410D02*
X11423460Y773750D01*
G01X11797470Y1091250D02*
X11765970Y1080670D01*
X11742350Y1054210D01*
X11726600Y1022460D01*
X11714790Y980120D01*
X11710860Y932500D01*
X11714790Y884870D01*
X11726600Y842540D01*
X11742350Y810780D01*
X11765970Y784330D01*
X11797470Y773750D01*
X11828960Y784330D01*
X11852590Y810780D01*
X11868340Y842540D01*
X11880150Y884870D01*
X11884080Y932500D01*
X11880150Y980120D01*
X11868340Y1022460D01*
X11852590Y1054210D01*
X11828960Y1080670D01*
X11797470Y1091250D01*
G01X12112430Y763170D02*
X12104550Y768460D01*
Y779040D01*
X12112430Y784330D01*
X12120310Y779040D01*
Y768460D01*
X12112430Y763170D01*
G01X12352580Y906030D02*
X12380150Y943090D01*
X12403770Y964250D01*
X12435270Y974830D01*
X12462830Y964250D01*
X12482510Y943090D01*
X12498260Y911330D01*
X12502200Y874290D01*
X12498260Y842540D01*
X12482510Y810780D01*
X12458880Y784330D01*
X12431330Y773750D01*
X12399830Y784330D01*
X12372270Y816070D01*
X12356520Y863710D01*
X12352580Y916620D01*
X12360460Y985410D01*
X12372270Y1022460D01*
X12391950Y1059500D01*
X12419510Y1085960D01*
X12447070Y1091250D01*
X12474630Y1080670D01*
X12494320Y1054210D01*
G01X11167550Y1726250D02*
X11136050Y1715670D01*
X11112430Y1689210D01*
X11096680Y1657460D01*
X11084870Y1615120D01*
X11080940Y1567500D01*
X11084870Y1519870D01*
X11096680Y1477540D01*
X11112430Y1445780D01*
X11136050Y1419330D01*
X11167550Y1408750D01*
X11199040Y1419330D01*
X11222670Y1445780D01*
X11238420Y1477540D01*
X11250230Y1519870D01*
X11254160Y1567500D01*
X11250230Y1615120D01*
X11238420Y1657460D01*
X11222670Y1689210D01*
X11199040Y1715670D01*
X11167550Y1726250D01*
G01X11482510Y1398170D02*
X11474630Y1403460D01*
Y1414040D01*
X11482510Y1419330D01*
X11490390Y1414040D01*
Y1403460D01*
X11482510Y1398170D01*
G01X11797470Y1408750D02*
X11825030Y1414040D01*
X11856520Y1429910D01*
X11876210Y1456360D01*
X11884080Y1493420D01*
X11876210Y1530450D01*
X11852590Y1562200D01*
X11817150Y1578090D01*
X11777790D01*
X11754160Y1588670D01*
X11734470Y1615120D01*
X11726600Y1652160D01*
X11738420Y1689210D01*
X11765970Y1715670D01*
X11797470Y1726250D01*
X11828960Y1715670D01*
X11856520Y1689210D01*
X11868340Y1652160D01*
X11860460Y1615120D01*
X11840780Y1588670D01*
X11817150Y1578090D01*
X11777790D01*
X11742350Y1562200D01*
X11718730Y1530450D01*
X11710860Y1493420D01*
X11718730Y1456360D01*
X11738420Y1429910D01*
X11769910Y1414040D01*
X11797470Y1408750D01*
G01X10852590Y2361250D02*
X10821090Y2350670D01*
X10797470Y2324210D01*
X10781720Y2292460D01*
X10769910Y2250120D01*
X10765980Y2202500D01*
X10769910Y2154870D01*
X10781720Y2112540D01*
X10797470Y2080780D01*
X10821090Y2054330D01*
X10852590Y2043750D01*
X10884080Y2054330D01*
X10907710Y2080780D01*
X10923460Y2112540D01*
X10935270Y2154870D01*
X10939200Y2202500D01*
X10935270Y2250120D01*
X10923460Y2292460D01*
X10907710Y2324210D01*
X10884080Y2350670D01*
X10852590Y2361250D01*
G01X11167550Y2033170D02*
X11159670Y2038460D01*
Y2049040D01*
X11167550Y2054330D01*
X11175430Y2049040D01*
Y2038460D01*
X11167550Y2033170D01*
G01X11407700Y2308330D02*
X11431330Y2340080D01*
X11458890Y2355960D01*
X11490390Y2361250D01*
X11529750Y2350670D01*
X11557320Y2324210D01*
X11565190Y2292460D01*
X11561250Y2260700D01*
X11545500Y2234250D01*
X11466760Y2181330D01*
X11431330Y2144290D01*
X11407700Y2091360D01*
X11399830Y2043750D01*
X11565190D01*
G01X11710860Y2091360D02*
X11734470Y2064910D01*
X11762030Y2049040D01*
X11797470Y2043750D01*
X11832910Y2054330D01*
X11860460Y2075490D01*
X11880150Y2112540D01*
X11884080Y2154870D01*
X11876210Y2197200D01*
X11856520Y2223670D01*
X11828960Y2244830D01*
X11801410Y2250120D01*
X11773850Y2244830D01*
X11738420Y2223670D01*
X11750230Y2361250D01*
X11856520D01*
G01X12159670Y2043750D02*
Y2361250D01*
X12014000Y2133710D01*
X12210860D01*
G01X13369730Y-178750D02*
Y-496250D01*
G01X13279180Y-178750D02*
X13460280D01*
G01X13684690Y-496250D02*
X13653190Y-490960D01*
X13625640Y-469800D01*
X13602010Y-438040D01*
X13586260Y-401000D01*
X13578390Y-358670D01*
Y-316330D01*
X13586260Y-274000D01*
X13602010Y-236960D01*
X13625640Y-205210D01*
X13653190Y-184040D01*
X13684690Y-178750D01*
X13716180Y-184040D01*
X13743740Y-205210D01*
X13767370Y-236960D01*
X13783120Y-274000D01*
X13790990Y-316330D01*
Y-358670D01*
X13783120Y-401000D01*
X13767370Y-438040D01*
X13743740Y-469800D01*
X13716180Y-490960D01*
X13684690Y-496250D01*
G01X13999650Y-178750D02*
Y-496250D01*
G01X13909100Y-178750D02*
X14090200D01*
G01X14216180Y-496250D02*
X14314610Y-178750D01*
X14413040Y-496250D01*
G01X14377600Y-385130D02*
X14251610D01*
G01X14550830Y-178750D02*
Y-496250D01*
X14708310D01*
G01X15176810D02*
Y-178750D01*
G01X15342170D02*
Y-496250D01*
G01Y-337500D02*
X15176810D01*
G01X15574450Y-496250D02*
X15542950Y-490960D01*
X15515400Y-469800D01*
X15491770Y-438040D01*
X15476020Y-401000D01*
X15468150Y-358670D01*
Y-316330D01*
X15476020Y-274000D01*
X15491770Y-236960D01*
X15515400Y-205210D01*
X15542950Y-184040D01*
X15574450Y-178750D01*
X15605940Y-184040D01*
X15633500Y-205210D01*
X15657130Y-236960D01*
X15672880Y-274000D01*
X15680750Y-316330D01*
Y-358670D01*
X15672880Y-401000D01*
X15657130Y-438040D01*
X15633500Y-469800D01*
X15605940Y-490960D01*
X15574450Y-496250D01*
G01X15810670Y-178750D02*
Y-496250D01*
X15968150D01*
G01X16283110D02*
X16125630D01*
Y-178750D01*
X16283110D01*
G01X16220120Y-332200D02*
X16125630D01*
G01X16436650Y-453930D02*
X16468150Y-480380D01*
X16503580Y-496250D01*
X16535080D01*
X16566570Y-480380D01*
X16590200Y-453930D01*
X16602010Y-416870D01*
X16594140Y-379840D01*
X16574450Y-348090D01*
X16539010Y-326910D01*
X16491770Y-316330D01*
X16464210Y-295170D01*
X16452400Y-258130D01*
X16460280Y-221080D01*
X16479960Y-194630D01*
X16507520Y-178750D01*
X16535080D01*
X16562640Y-189330D01*
X16586260Y-215790D01*
G01X16834290Y-506830D02*
X16826410Y-501540D01*
Y-490960D01*
X16834290Y-485670D01*
X16842170Y-490960D01*
Y-501540D01*
X16834290Y-506830D01*
G01Y-363970D02*
X16826410Y-358670D01*
Y-348090D01*
X16834290Y-342800D01*
X16842170Y-348090D01*
Y-358670D01*
X16834290Y-363970D01*
G01X14789590Y138750D02*
Y456250D01*
X14884080D01*
X14915570Y440370D01*
X14939200Y403330D01*
X14947070Y361000D01*
X14939200Y318670D01*
X14919510Y286910D01*
X14884080Y271030D01*
X14789590D01*
G01X15104550Y456250D02*
Y138750D01*
X15262030D01*
G01X15399820D02*
X15498250Y456250D01*
X15596680Y138750D01*
G01X15561240Y249870D02*
X15435250D01*
G01X15813210Y456250D02*
Y138750D01*
G01X15722660Y456250D02*
X15903760D01*
G01X16206910Y138750D02*
X16049430D01*
Y456250D01*
X16206910D01*
G01X16143920Y302800D02*
X16049430D01*
G01X16356520Y138750D02*
Y456250D01*
X16435250D01*
X16466750Y440370D01*
X16490370Y419210D01*
X16510060Y387460D01*
X16525810Y350410D01*
X16529740Y297500D01*
X16525810Y244580D01*
X16510060Y207540D01*
X16490370Y175780D01*
X16466750Y154620D01*
X16435250Y138750D01*
X16356520D01*
G01X14789590Y773750D02*
Y1091250D01*
X14884080D01*
X14915570Y1075370D01*
X14939200Y1038330D01*
X14947070Y996000D01*
X14939200Y953670D01*
X14919510Y921910D01*
X14884080Y906030D01*
X14789590D01*
G01X15104550Y1091250D02*
Y773750D01*
X15262030D01*
G01X15399820D02*
X15498250Y1091250D01*
X15596680Y773750D01*
G01X15561240Y884870D02*
X15435250D01*
G01X15813210Y1091250D02*
Y773750D01*
G01X15722660Y1091250D02*
X15903760D01*
G01X16206910Y773750D02*
X16049430D01*
Y1091250D01*
X16206910D01*
G01X16143920Y937800D02*
X16049430D01*
G01X16356520Y773750D02*
Y1091250D01*
X16435250D01*
X16466750Y1075370D01*
X16490370Y1054210D01*
X16510060Y1022460D01*
X16525810Y985410D01*
X16529740Y932500D01*
X16525810Y879580D01*
X16510060Y842540D01*
X16490370Y810780D01*
X16466750Y789620D01*
X16435250Y773750D01*
X16356520D01*
G01X14789590Y1408750D02*
Y1726250D01*
X14884080D01*
X14915570Y1710370D01*
X14939200Y1673330D01*
X14947070Y1631000D01*
X14939200Y1588670D01*
X14919510Y1556910D01*
X14884080Y1541030D01*
X14789590D01*
G01X15104550Y1726250D02*
Y1408750D01*
X15262030D01*
G01X15399820D02*
X15498250Y1726250D01*
X15596680Y1408750D01*
G01X15561240Y1519870D02*
X15435250D01*
G01X15813210Y1726250D02*
Y1408750D01*
G01X15722660Y1726250D02*
X15903760D01*
G01X16206910Y1408750D02*
X16049430D01*
Y1726250D01*
X16206910D01*
G01X16143920Y1572800D02*
X16049430D01*
G01X16356520Y1408750D02*
Y1726250D01*
X16435250D01*
X16466750Y1710370D01*
X16490370Y1689210D01*
X16510060Y1657460D01*
X16525810Y1620410D01*
X16529740Y1567500D01*
X16525810Y1514580D01*
X16510060Y1477540D01*
X16490370Y1445780D01*
X16466750Y1424620D01*
X16435250Y1408750D01*
X16356520D01*
G01X14789590Y2043750D02*
Y2361250D01*
X14884080D01*
X14915570Y2345370D01*
X14939200Y2308330D01*
X14947070Y2266000D01*
X14939200Y2223670D01*
X14919510Y2191910D01*
X14884080Y2176030D01*
X14789590D01*
G01X15104550Y2361250D02*
Y2043750D01*
X15262030D01*
G01X15399820D02*
X15498250Y2361250D01*
X15596680Y2043750D01*
G01X15561240Y2154870D02*
X15435250D01*
G01X15813210Y2361250D02*
Y2043750D01*
G01X15722660Y2361250D02*
X15903760D01*
G01X16206910Y2043750D02*
X16049430D01*
Y2361250D01*
X16206910D01*
G01X16143920Y2207800D02*
X16049430D01*
G01X16356520Y2043750D02*
Y2361250D01*
X16435250D01*
X16466750Y2345370D01*
X16490370Y2324210D01*
X16510060Y2292460D01*
X16525810Y2255410D01*
X16529740Y2202500D01*
X16525810Y2149580D01*
X16510060Y2112540D01*
X16490370Y2080780D01*
X16466750Y2059620D01*
X16435250Y2043750D01*
X16356520D01*
G01X14789590Y2678750D02*
Y2996250D01*
X14884080D01*
X14915570Y2980370D01*
X14939200Y2943330D01*
X14947070Y2901000D01*
X14939200Y2858670D01*
X14919510Y2826910D01*
X14884080Y2811030D01*
X14789590D01*
G01X15104550Y2996250D02*
Y2678750D01*
X15262030D01*
G01X15399820D02*
X15498250Y2996250D01*
X15596680Y2678750D01*
G01X15561240Y2789870D02*
X15435250D01*
G01X15813210Y2996250D02*
Y2678750D01*
G01X15722660Y2996250D02*
X15903760D01*
G01X16206910Y2678750D02*
X16049430D01*
Y2996250D01*
X16206910D01*
G01X16143920Y2842800D02*
X16049430D01*
G01X16356520Y2678750D02*
Y2996250D01*
X16435250D01*
X16466750Y2980370D01*
X16490370Y2959210D01*
X16510060Y2927460D01*
X16525810Y2890410D01*
X16529740Y2837500D01*
X16525810Y2784580D01*
X16510060Y2747540D01*
X16490370Y2715780D01*
X16466750Y2694620D01*
X16435250Y2678750D01*
X16356520D01*
G01X17939190Y-496250D02*
Y-178750D01*
X17891950Y-242250D01*
G01Y-496250D02*
X17986430D01*
G01X18246270D02*
X18254150Y-427460D01*
X18265960Y-369260D01*
X18281710Y-316330D01*
X18301390Y-258130D01*
X18332890Y-178750D01*
X18175410D01*
G01X18494300Y-231670D02*
X18517930Y-199920D01*
X18545490Y-184040D01*
X18576990Y-178750D01*
X18616350Y-189330D01*
X18643920Y-215790D01*
X18651790Y-247540D01*
X18647850Y-279300D01*
X18632100Y-305750D01*
X18553360Y-358670D01*
X18517930Y-395710D01*
X18494300Y-448640D01*
X18486430Y-496250D01*
X18651790D01*
G01X17939190Y2043750D02*
Y2361250D01*
X17891950Y2297750D01*
G01Y2043750D02*
X17986430D01*
G01X18179340Y2176030D02*
X18206910Y2213090D01*
X18230530Y2234250D01*
X18262030Y2244830D01*
X18289590Y2234250D01*
X18309270Y2213090D01*
X18325020Y2181330D01*
X18328960Y2144290D01*
X18325020Y2112540D01*
X18309270Y2080780D01*
X18285640Y2054330D01*
X18258090Y2043750D01*
X18226590Y2054330D01*
X18199030Y2086070D01*
X18183280Y2133710D01*
X18179340Y2186620D01*
X18187220Y2255410D01*
X18199030Y2292460D01*
X18218710Y2329500D01*
X18246270Y2355960D01*
X18273830Y2361250D01*
X18301390Y2350670D01*
X18321080Y2324210D01*
G01X18616350Y2043750D02*
Y2361250D01*
X18470680Y2133710D01*
X18667540D01*
G01X17939190Y2678750D02*
X17907690Y2684040D01*
X17880140Y2705200D01*
X17856510Y2736960D01*
X17840760Y2774000D01*
X17832890Y2816330D01*
Y2858670D01*
X17840760Y2901000D01*
X17856510Y2938040D01*
X17880140Y2969790D01*
X17907690Y2990960D01*
X17939190Y2996250D01*
X17970680Y2990960D01*
X17998240Y2969790D01*
X18021870Y2938040D01*
X18037620Y2901000D01*
X18045490Y2858670D01*
Y2816330D01*
X18037620Y2774000D01*
X18021870Y2736960D01*
X17998240Y2705200D01*
X17970680Y2684040D01*
X17939190Y2678750D01*
G01X17970680Y2763420D02*
X18017930Y2678750D01*
G01X18254150Y2996250D02*
Y2678750D01*
G01X18163600Y2996250D02*
X18344700D01*
G01X18569110Y2678750D02*
Y2821620D01*
X18490370Y2996250D01*
G01X18647850D02*
X18569110Y2821620D01*
G01X18179340Y403330D02*
X18202970Y435080D01*
X18230530Y450960D01*
X18262030Y456250D01*
X18301390Y445670D01*
X18328960Y419210D01*
X18336830Y387460D01*
X18332890Y355700D01*
X18317140Y329250D01*
X18238400Y276330D01*
X18202970Y239290D01*
X18179340Y186360D01*
X18171470Y138750D01*
X18336830D01*
G01X18179340Y1038330D02*
X18202970Y1070080D01*
X18230530Y1085960D01*
X18262030Y1091250D01*
X18301390Y1080670D01*
X18328960Y1054210D01*
X18336830Y1022460D01*
X18332890Y990700D01*
X18317140Y964250D01*
X18238400Y911330D01*
X18202970Y874290D01*
X18179340Y821360D01*
X18171470Y773750D01*
X18336830D01*
G01X18301390Y1408750D02*
Y1726250D01*
X18155720Y1498710D01*
X18352580D01*
G01X-250000Y0D02*
X-790000D01*
G01X10000Y2940000D02*
X-790000D01*
G01X-540000Y1164260D02*
Y0D01*
G01X-602500Y400000D02*
X-540000Y0D01*
X-477500Y400000D01*
X-602500D01*
G01X-540000Y1655740D02*
Y2940000D01*
G01X-477500Y2540000D02*
X-540000Y2940000D01*
X-602500Y2540000D01*
X-477500D01*
G01X0Y-250000D02*
Y-640000D01*
G01X1793140Y-390000D02*
X0D01*
G01X400000Y-327500D02*
X0Y-390000D01*
X400000Y-452500D01*
Y-327500D01*
G01X2426860Y-390000D02*
X4500000D01*
G01X4100000Y-452500D02*
X4500000Y-390000D01*
X4100000Y-327500D01*
Y-452500D01*
G01X4500000Y-10000D02*
Y-640000D01*
G01X6640000Y-20000D02*
Y4440000D01*
X19238400D01*
Y-20000D01*
X6640000D01*
G01Y615000D02*
X19238400D01*
G01X6640000Y1250000D02*
X19238400D01*
G01X6640000Y1885000D02*
X19238400D01*
G01X6640000Y2520000D02*
X19238400D01*
G01X6640000Y3155000D02*
X19238400D01*
G01X6640000Y3790000D02*
X19238400D01*
G01X8923460Y3155000D02*
Y-20000D01*
G01X14041560Y3155000D02*
Y-20000D01*
G01X17269900Y3155000D02*
Y-20000D01*
M02*
