M48
METRIC,TZ
T01C.254
T02C.8
;LEADER: 12 
;HEADER: 
;CODE  : ASCII 
;FILE  : HY_TYPEC_DBUG_V10B-1-4.drl for board H:/github/MBED-TOOLS/HARDWARE/HY_TYPEC_DBUG_V10B/PCB/#Taaaapn03188.tmp ... layers TOP and BOTTOM
;T01 Holesize 1. = 0.254000 Tolerance = +0.000000/-0.000000 PLATED MM Quantity = 164
;T02 Holesize 2. = 0.800000 Tolerance = +0.000000/-0.000000 PLATED MM Quantity = 4
%
G90
T01
X200000Y180000
X800000Y390000
X1000000Y390000
X1410000Y170000
X1820000Y500000
X1890000Y430000
X1890000Y500000
X1960000Y430000
X1960000Y500000
X2120000Y310000
X2120000Y500000
X2880000Y340000
X3430000Y140000
X3590000Y493100
X3660000Y493100
X3965000Y305000
X3970000Y120000
X4320000Y350000
X4350000Y130000
X4410000Y350000
X4410000Y970000
X4320000Y970000
X4220000Y990000
X3660000Y556600
X3590000Y556600
X3520000Y980000
X3520000Y660000
X3450000Y660000
X3390000Y820000
X3090000Y760000
X2520000Y1010000
X2230000Y980000
X2130000Y980000
X2030000Y980000
X1910000Y760000
X1850000Y815880
X1550000Y880800
X1450000Y670000
X1230000Y890000
X1166500Y890000
X1150000Y670000
X1080000Y990000
X920000Y890000
X860000Y670000
X580000Y880000
X570000Y670000
X160000Y670000
X130000Y1210000
X400000Y1100000
X400000Y1160000
X460000Y1100000
X460000Y1160000
X920000Y1350000
X1110000Y1520000
X1120000Y1150000
X1120000Y1220000
X1190000Y1150000
X1190000Y1220000
X1310000Y1310000
X1310000Y1500000
X1570000Y1260000
X1820000Y1390000
X2010000Y1390000
X2030000Y1080000
X2130000Y1080000
X2230000Y1080000
X2440000Y1500000
X2490000Y1100000
X2600000Y1450000
X2640000Y1200000
X3360000Y1310000
X3870000Y1340000
X3960000Y1180000
X4020000Y1230000
X4080000Y1280000
X4360000Y1900000
X4050000Y1610000
X4020000Y1910000
X4010000Y1540000
X3980000Y1810000
X3920000Y1910000
X3900000Y1610000
X3900000Y1530000
X3460000Y1860000
X3457000Y1987000
X3400000Y1860000
X3397000Y1987000
X3360000Y1590000
X3010000Y1880000
X2740000Y1790000
X2600000Y1700000
X2400000Y2020000
X2300000Y2020000
X2200000Y2020000
X2010000Y1660000
X1810000Y1750000
X1810000Y1630000
X1460000Y1930000
X1360000Y1930000
X1360000Y1740000
X1310000Y1630000
X1120000Y1760000
X1030000Y2010000
X850000Y1610000
X840000Y1810000
X460000Y1730000
X460000Y1670000
X400000Y1730000
X400000Y1670000
X130000Y1690000
X110000Y2210000
X580000Y2050000
X580000Y2280000
X770000Y2040000
X840000Y2280000
X1070000Y2360000
X1170000Y2195000
X1360000Y2060000
X1490000Y2060000
X1560000Y2390000
X1800000Y2110000
X1850000Y2380000
X2200000Y2120000
X2200000Y2220000
X2300000Y2120000
X2300000Y2220000
X2330000Y2530000
X2400000Y2120000
X2400000Y2220000
X2769990Y2199990
X3000000Y2180000
X3130000Y2114000
X3397000Y2517000
X3457000Y2517000
X3530000Y2240000
X3530000Y2390000
X3590000Y2240000
X3590000Y2390000
X3650000Y2241000
X3650000Y2390000
X3910000Y2300000
X3910000Y2450000
X4370000Y2790000
X3995000Y2645000
X3651000Y2771000
X3590000Y2770000
X3530000Y2770000
X3106000Y2644000
X2640000Y2650000
X1920000Y2790000
X1680000Y2790000
X1530000Y2770000
X1460000Y2770000
X1390000Y2770000
X1320000Y2770000
X1180000Y2770000
X1070000Y2770000
X970000Y2770000
X860000Y2770000
X740000Y2770000
X740000Y2710000
X740000Y2650000
X460000Y2850000
X120000Y2810000
T02
X305000Y390000
X555000Y390000
X2255000Y390000
X2505000Y390000
M30
