G04 ================== begin FILE IDENTIFICATION RECORD ==================*
G04 Layout Name:  HY_TYPEC_DBUG_V10B.brd*
G04 Film Name:    SilkScreen_Top*
G04 File Format:  Gerber RS274X*
G04 File Origin:  Cadence Allegro 17.2-S067*
G04 Origin Date:  Tue Aug 11 15:08:15 2020*
G04 *
G04 Layer:  PACKAGE GEOMETRY/SILKSCREEN_TOP*
G04 Layer:  BOARD GEOMETRY/SILKSCREEN_TOP*
G04 *
G04 Offset:    (0.0000 0.0000)*
G04 Mirror:    No*
G04 Mode:      Positive*
G04 Rotation:  0*
G04 FullContactRelief:  No*
G04 UndefLineWidth:     0.1524*
G04 ================== end FILE IDENTIFICATION RECORD ====================*
%FSLAX55Y55*MOMM*%
%IR0*IPPOS*OFA0.00000B0.00000*MIA0B0*SFA1.00000B1.00000*%
%ADD10C,.2*%
%ADD11C,.1524*%
G75*
%LPD*%
G75*
G36*
G01X1006800Y2686600D02*
G03I-25400J0D01*
G37*
G36*
G01X1373200Y2128800D02*
G03I-25400J0D01*
G37*
G36*
G01X1720000Y1700000D02*
G03I-30000J0D01*
G37*
G36*
G01X1820000Y2155000D02*
G03I-20000J0D01*
G37*
G36*
G01X2285000Y1265000D02*
G03I-30000J0D01*
G37*
G36*
G01X2130000Y1740000D02*
G03I-30000J0D01*
G37*
G36*
G01X2740000Y1350000D02*
G03I-20000J0D01*
G37*
G36*
G01Y1630000D02*
G03I-20000J0D01*
G37*
G36*
G01X3161060Y1015000D02*
G03I-36060J0D01*
G37*
G36*
G01X3197600Y1376200D02*
G03I-25400J0D01*
G37*
G36*
G01Y1656200D02*
G03I-25400J0D01*
G37*
G36*
G01X3935490Y1860000D02*
G03I-30000J0D01*
G37*
G36*
G01Y2390000D02*
G03I-30000J0D01*
G37*
G36*
G01X4270000Y490000D02*
Y410000D01*
X4310000Y450000D01*
X4270000Y490000D01*
G37*
G36*
G01Y630000D02*
Y550000D01*
X4310000Y590000D01*
X4270000Y630000D01*
G37*
G36*
G01Y910000D02*
Y830000D01*
X4310000Y870000D01*
X4270000Y910000D01*
G37*
G36*
G01Y770000D02*
Y690000D01*
X4310000Y730000D01*
X4270000Y770000D01*
G37*
G36*
G01Y2040000D02*
Y1960000D01*
X4310000Y2000000D01*
X4270000Y2040000D01*
G37*
G36*
G01Y2320000D02*
Y2240000D01*
X4310000Y2280000D01*
X4270000Y2320000D01*
G37*
G36*
G01Y2180000D02*
Y2100000D01*
X4310000Y2140000D01*
X4270000Y2180000D01*
G37*
G36*
G01Y2600000D02*
Y2520000D01*
X4310000Y2560000D01*
X4270000Y2600000D01*
G37*
G36*
G01Y2460000D02*
Y2380000D01*
X4310000Y2420000D01*
X4270000Y2460000D01*
G37*
G54D10*
G01X80000Y1890000D02*
X-30000D01*
Y990000D01*
X80000D01*
G01X750000Y390000D02*
G03I-320000J0D01*
G01X290000Y780000D02*
X110000D01*
Y880000D01*
X290000D01*
Y780000D01*
G01X280000Y990000D02*
X470000D01*
G01Y1890000D02*
X280000D01*
G01X110000Y2090000D02*
X290000D01*
Y1990000D01*
X110000D01*
Y2090000D01*
G01X390000Y2590000D02*
G02X450000I30000J0D01*
G01X510000D02*
G02X450000I-30000J0D01*
G01X670000Y2440000D02*
X230000D01*
Y2740000D01*
X670000D01*
Y2440000D01*
G01X390000Y2590000D02*
X370000D01*
G01X835000Y390000D02*
X755000D01*
G01X795000Y430000D02*
Y350000D01*
G01X555000Y300000D02*
Y220000D01*
G01X595000Y260000D02*
X515000D01*
G01X720000Y990000D02*
Y1060000D01*
G01Y1890000D02*
Y1820000D01*
G01X810000Y2460000D02*
G03X930000I60000J77500D01*
G01Y2720000D02*
G03X810000I-60000J-77500D01*
G01D02*
Y2460000D01*
G01X530000Y2590000D02*
X510000D01*
G01X980000Y40000D02*
X1460000D01*
Y-110000D01*
X1620000D01*
Y40000D01*
X1900000D01*
G01X980000Y340000D02*
X1070000D01*
G01X940000Y240000D02*
Y140000D01*
G01X1144600Y2080700D02*
G02X1195400I25400J0D01*
G01D02*
X1220800D01*
Y2309300D01*
X1119200D01*
Y2080700D01*
X1144600D01*
G01X930000Y2460000D02*
Y2720000D01*
G01X1235400Y2742400D02*
G02X1184600I-25400J0D01*
G01X1260800Y2729700D02*
Y2437600D01*
X1159200D01*
Y2742400D01*
X1184600D01*
G01X1360000Y340000D02*
X1520000D01*
G01Y730000D02*
G03Y610000I77500J-60000D01*
G01D02*
X1780000D01*
G01Y730000D02*
X1520000D01*
G01X1390000Y850000D02*
X1570000D01*
Y750000D01*
X1390000D01*
Y850000D01*
G01X1560000Y920000D02*
G03Y1040000I-77500J60000D01*
G01X1300000D02*
G03Y920000I77500J-60000D01*
G01X1560000Y1040000D02*
X1300000D01*
G01Y920000D02*
X1560000D01*
G01Y1080000D02*
G03Y1200000I-77500J60000D01*
G01X1300000D02*
G03Y1080000I77500J-60000D01*
G01X1560000Y1200000D02*
X1300000D01*
G01Y1080000D02*
X1560000D01*
G01X1610000Y1100000D02*
G03Y1000000I50000J-50000D01*
G01Y1260000D02*
G03Y1160000I50000J-50000D01*
G01Y940000D02*
G03Y840000I50000J-50000D01*
G01X1770000Y1310000D02*
Y1670000D01*
X1350000D01*
Y1310000D01*
X1770000D01*
G01X1410000Y1710000D02*
G03X1510000I50000J50000D01*
G01Y1870000D02*
G03X1410000I-50000J-50000D01*
G01Y1710000D02*
Y1870000D01*
G01X1510000D02*
Y1710000D01*
G01X1760000Y2115000D02*
X1420000D01*
Y2275000D01*
X1760000D01*
Y2115000D01*
G01X1460000Y2460000D02*
G03X1580000I60000J77500D01*
G01Y2720000D02*
G03X1460000I-60000J-77500D01*
G01X1580000Y2460000D02*
Y2720000D01*
G01X1460000D02*
Y2460000D01*
G01X1260800Y2729700D02*
Y2742400D01*
X1235400D01*
G01X1940000Y240000D02*
Y140000D01*
G01X1810000Y340000D02*
X1900000D01*
G01X1780000Y610000D02*
G03Y730000I-77500J60000D01*
G01X1920000Y820000D02*
Y770000D01*
X1970000D01*
G01X1770000Y840000D02*
G03Y940000I-50000J50000D01*
G01Y840000D02*
X1610000D01*
G01X1970000Y1190000D02*
X1920000D01*
Y1140000D01*
G01X1770000Y1000000D02*
G03Y1100000I-50000J50000D01*
G01Y1000000D02*
X1610000D01*
G01Y1100000D02*
X1770000D01*
G01Y1160000D02*
G03Y1260000I-50000J50000D01*
G01Y1160000D02*
X1610000D01*
G01Y940000D02*
X1770000D01*
G01X1610000Y1260000D02*
X1770000D01*
G01X1970000Y1450000D02*
G03X2070000I50000J50000D01*
G01X1970000D02*
Y1610000D01*
G01X1950000Y1620000D02*
Y1440000D01*
X1850000D01*
Y1620000D01*
X1950000D01*
G01X1610000Y1710000D02*
G03X1710000I50000J50000D01*
G01Y1870000D02*
G03X1610000I-50000J-50000D01*
G01Y1710000D02*
Y1870000D01*
G01X1710000D02*
Y1710000D01*
G01X1840000Y1960000D02*
G03X1740000I-50000J-50000D01*
G01Y1800000D02*
G03X1840000I50000J50000D01*
G01Y1960000D02*
Y1800000D01*
G01X1740000D02*
Y1960000D01*
G01X2070000Y1610000D02*
G03X1970000I-50000J-50000D01*
G01X1710000Y2090000D02*
Y1910000D01*
X1610000D01*
Y2090000D01*
X1710000D01*
G01X1800000Y2330000D02*
G03Y2430000I-50000J50000D01*
G01X1640000D02*
G03Y2330000I50000J-50000D01*
G01X1800000D02*
X1640000D01*
G01Y2430000D02*
X1800000D01*
G01X1730000Y2750000D02*
Y2570000D01*
X1630000D01*
Y2750000D01*
X1730000D01*
G01X1850000D02*
Y2570000D01*
X1750000D01*
Y2750000D01*
X1850000D01*
G01X1630000Y2550000D02*
X1810000D01*
Y2450000D01*
X1630000D01*
Y2550000D01*
G01X1970000Y2750000D02*
Y2570000D01*
X1870000D01*
Y2750000D01*
X1970000D01*
G01X2700000Y390000D02*
G03I-320000J0D01*
G01X2290000Y770000D02*
X2340000D01*
Y820000D01*
G01Y1140000D02*
Y1190000D01*
X2290000D01*
G01X2070000Y1610000D02*
Y1450000D01*
G01X2300000D02*
G03X2400000I50000J50000D01*
G01X2300000D02*
Y1610000D01*
G01X2400000D02*
G03X2300000I-50000J-50000D01*
G01X1990000Y1880000D02*
Y1810000D01*
X2060000D01*
G01Y2430000D02*
X1990000D01*
Y2360000D01*
G01Y2580000D02*
G03X2090000I50000J50000D01*
G01Y2740000D02*
G03X1990000I-50000J-50000D01*
G01Y2580000D02*
Y2740000D01*
G01X2090000D02*
Y2580000D01*
G01X2350000D02*
G03X2450000I50000J50000D01*
G01Y2740000D02*
G03X2350000I-50000J-50000D01*
G01Y2580000D02*
Y2740000D01*
G01X2330000Y2750000D02*
Y2570000D01*
X2230000D01*
Y2750000D01*
X2330000D01*
G01X2210000D02*
Y2570000D01*
X2110000D01*
Y2750000D01*
X2210000D01*
G01X2785000Y390000D02*
X2705000D01*
G01X2505000Y300000D02*
Y220000D01*
G01X2545000Y260000D02*
X2465000D01*
G01X2400000Y1610000D02*
Y1450000D01*
G01X2540000Y1810000D02*
X2610000D01*
Y1880000D01*
G01Y2360000D02*
Y2430000D01*
X2540000D01*
G01X2450000Y2740000D02*
Y2580000D01*
G01X2570000Y2750000D02*
Y2570000D01*
X2470000D01*
Y2750000D01*
X2570000D01*
G01X2860000Y40000D02*
X3340000D01*
Y-110000D01*
X3500000D01*
Y40000D01*
X3780000D01*
G01X2860000Y340000D02*
X2950000D01*
G01X2820000Y240000D02*
Y140000D01*
G01X2745000Y430000D02*
Y350000D01*
G01X2890000Y1040000D02*
G03Y940000I50000J-50000D01*
G01X3050000D02*
G03Y1040000I-50000J50000D01*
G01X2890000D02*
X3050000D01*
G01Y940000D02*
X2890000D01*
G01X2760000Y1390000D02*
X3100000D01*
Y1230000D01*
X2760000D01*
Y1390000D01*
G01Y1670000D02*
X3100000D01*
Y1510000D01*
X2760000D01*
Y1670000D01*
G01X3051200Y1730000D02*
G03Y1850000I-77500J60000D01*
G01X2791200D02*
G03Y1730000I77500J-60000D01*
G01X3051200Y1850000D02*
X2791200D01*
G01Y1730000D02*
X3051200D01*
G01X2810000Y1970000D02*
G03Y1870000I50000J-50000D01*
G01X2970000D02*
G03Y1970000I-50000J50000D01*
G01X2810000D02*
X2970000D01*
G01Y1870000D02*
X2810000D01*
G01Y2170000D02*
G03Y2070000I50000J-50000D01*
G01X2970000D02*
G03Y2170000I-50000J50000D01*
G01X2810000D02*
X2970000D01*
G01Y2070000D02*
X2810000D01*
G01Y2290000D02*
G03Y2190000I50000J-50000D01*
G01X2970000D02*
G03Y2290000I-50000J50000D01*
G01X2810000D02*
X2970000D01*
G01Y2190000D02*
X2810000D01*
G01X3240000Y340000D02*
X3400000D01*
G01X3455000Y1070000D02*
X3365000D01*
Y570000D01*
X3705000D01*
Y1070000D01*
X3615000D01*
G01X3324600Y1424300D02*
X3299200D01*
Y1195700D01*
X3400800D01*
Y1424300D01*
X3375400D01*
G01X3615000Y1070000D02*
G02X3455000I-80000J0D01*
G01X3324600Y1704300D02*
X3299200D01*
Y1475700D01*
X3400800D01*
Y1704300D01*
X3375400D01*
G01Y1424300D02*
G02X3324600I-25400J0D01*
G01X3375400Y1704300D02*
G02X3324600I-25400J0D01*
G01X3475490Y1800000D02*
X3355490D01*
Y2300000D01*
X3675490D01*
G01X3555490Y1800000D02*
G03X3475490I-40000J-4108D01*
G01Y2330000D02*
X3355490D01*
Y2830000D01*
X3675490D01*
G01X3555490Y2330000D02*
G03X3475490I-40000J-4108D01*
G01X3730000Y500000D02*
X3910000D01*
Y400000D01*
X3730000D01*
Y500000D01*
G01X3820000Y240000D02*
Y140000D01*
G01X3690000Y340000D02*
X3780000D01*
G01X3675490Y2300000D02*
Y1800000D01*
X3555490D01*
G01X3675490Y2830000D02*
Y2330000D01*
X3555490D01*
G01X4120000Y200000D02*
X4160000Y160000D01*
Y240000D01*
X4120000Y200000D01*
X4310000D01*
X4270000Y240000D01*
Y160000D01*
X4310000Y200000D01*
G01X4130000Y400000D02*
X3950000D01*
Y500000D01*
X4130000D01*
Y400000D01*
G01X4150000Y510000D02*
Y390000D01*
X4430000D01*
Y510000D01*
X4150000D01*
G01X4130000Y540000D02*
X3950000D01*
Y640000D01*
X4130000D01*
Y540000D01*
G01Y680000D02*
X3950000D01*
Y780000D01*
X4130000D01*
Y680000D01*
G01Y820000D02*
X3950000D01*
Y920000D01*
X4130000D01*
Y820000D01*
G01X4150000Y650000D02*
Y530000D01*
X4430000D01*
Y650000D01*
X4150000D01*
G01Y930000D02*
Y810000D01*
X4430000D01*
Y930000D01*
X4150000D01*
G01Y790000D02*
Y670000D01*
X4430000D01*
Y790000D01*
X4150000D01*
G01X4120000Y940000D02*
G03Y1040000I-50000J50000D01*
G01X3960000D02*
G03Y940000I50000J-50000D01*
G01X4120000D02*
X3960000D01*
G01Y1040000D02*
X4120000D01*
G01X4130000Y1950000D02*
X3950000D01*
Y2050000D01*
X4130000D01*
Y1950000D01*
G01X4150000Y2060000D02*
Y1940000D01*
X4430000D01*
Y2060000D01*
X4150000D01*
G01X4130000Y2230000D02*
X3950000D01*
Y2330000D01*
X4130000D01*
Y2230000D01*
G01Y2090000D02*
X3950000D01*
Y2190000D01*
X4130000D01*
Y2090000D01*
G01X4150000Y2480000D02*
Y2360000D01*
X4430000D01*
Y2480000D01*
X4150000D01*
G01Y2340000D02*
Y2220000D01*
X4430000D01*
Y2340000D01*
X4150000D01*
G01Y2200000D02*
Y2080000D01*
X4430000D01*
Y2200000D01*
X4150000D01*
G01X4130000Y2510000D02*
X3950000D01*
Y2610000D01*
X4130000D01*
Y2510000D01*
G01Y2370000D02*
X3950000D01*
Y2470000D01*
X4130000D01*
Y2370000D01*
G01X4150000Y2620000D02*
Y2500000D01*
X4430000D01*
Y2620000D01*
X4150000D01*
G01X4430000Y510000D02*
X4460000D01*
Y390000D01*
X4430000D01*
G01Y650000D02*
X4460000D01*
Y530000D01*
X4430000D01*
G01Y930000D02*
X4460000D01*
Y810000D01*
X4430000D01*
G01Y790000D02*
X4460000D01*
Y670000D01*
X4430000D01*
G01X5450000Y1050000D02*
X4640000D01*
G01Y1860000D02*
Y1020000D01*
G01X4400000Y1860000D02*
X5450000D01*
Y1020000D01*
X4400000D01*
Y1860000D01*
G01X4640000Y1300000D02*
X4400000D01*
G01X4640000Y1580000D02*
X4400000D01*
G01X5450000Y1250000D02*
X4640000D01*
G01Y1630000D02*
X5450000D01*
G01X4640000Y1830000D02*
X5450000D01*
G01X4430000Y2060000D02*
X4460000D01*
Y1940000D01*
X4430000D01*
G01Y2480000D02*
X4460000D01*
Y2360000D01*
X4430000D01*
G01Y2340000D02*
X4460000D01*
Y2220000D01*
X4430000D01*
G01Y2200000D02*
X4460000D01*
Y2080000D01*
X4430000D01*
G01Y2620000D02*
X4460000D01*
Y2500000D01*
X4430000D01*
G54D11*
G01X868000Y533500D02*
X874000Y526000D01*
X881000Y521500D01*
X890000Y520000D01*
X899000Y523000D01*
X906000Y529000D01*
X911000Y539500D01*
X912000Y551500D01*
X910000Y563500D01*
X905000Y571000D01*
X898000Y577000D01*
X891000Y578500D01*
X884000Y577000D01*
X875000Y571000D01*
X878000Y610000D01*
X905000D01*
G01X935000D02*
X960000Y520000D01*
X985000Y610000D01*
G01X1000000Y490000D02*
X1060000D01*
G01X1079000Y520000D02*
Y610000D01*
G01X1121000D02*
Y520000D01*
G01Y565000D02*
X1079000D01*
G01X1140000Y610000D02*
X1154000Y520000D01*
X1170000Y610000D01*
X1186000Y520000D01*
X1200000Y610000D01*
G01X2748000Y533500D02*
X2754000Y526000D01*
X2761000Y521500D01*
X2770000Y520000D01*
X2779000Y523000D01*
X2786000Y529000D01*
X2791000Y539500D01*
X2792000Y551500D01*
X2790000Y563500D01*
X2785000Y571000D01*
X2778000Y577000D01*
X2771000Y578500D01*
X2764000Y577000D01*
X2755000Y571000D01*
X2758000Y610000D01*
X2785000D01*
G01X2815000D02*
X2840000Y520000D01*
X2865000Y610000D01*
G01X2880000Y490000D02*
X2940000D01*
G01X2954000Y520000D02*
Y610000D01*
X2980000Y535000D01*
X3006000Y610000D01*
Y520000D01*
G01X3050000Y610000D02*
Y520000D01*
G01X3027000Y610000D02*
X3073000D01*
G01X3098000Y520000D02*
Y610000D01*
G01X3136000D02*
X3098000Y554500D01*
G01X3142000Y520000D02*
X3115000Y580000D01*
G01X3940000Y150000D02*
X3932000Y151500D01*
X3925000Y157500D01*
X3919000Y166500D01*
X3915000Y177000D01*
X3913000Y189000D01*
Y201000D01*
X3915000Y213000D01*
X3919000Y223500D01*
X3925000Y232500D01*
X3932000Y238500D01*
X3940000Y240000D01*
X3948000Y238500D01*
X3955000Y232500D01*
X3961000Y223500D01*
X3965000Y213000D01*
X3967000Y201000D01*
Y189000D01*
X3965000Y177000D01*
X3961000Y166500D01*
X3955000Y157500D01*
X3948000Y151500D01*
X3940000Y150000D01*
G01X3991000D02*
Y240000D01*
X4029000D01*
G01X4015000Y196500D02*
X3991000D01*
G01X4061000Y150000D02*
Y240000D01*
X4099000D01*
G01X4085000Y196500D02*
X4061000D01*
G01X4370000Y150000D02*
X4362000Y151500D01*
X4355000Y157500D01*
X4349000Y166500D01*
X4345000Y177000D01*
X4343000Y189000D01*
Y201000D01*
X4345000Y213000D01*
X4349000Y223500D01*
X4355000Y232500D01*
X4362000Y238500D01*
X4370000Y240000D01*
X4378000Y238500D01*
X4385000Y232500D01*
X4391000Y223500D01*
X4395000Y213000D01*
X4397000Y201000D01*
Y189000D01*
X4395000Y177000D01*
X4391000Y166500D01*
X4385000Y157500D01*
X4378000Y151500D01*
X4370000Y150000D01*
G01X4417000D02*
Y240000D01*
X4463000Y150000D01*
Y240000D01*
M02*
