G04 ================== begin FILE IDENTIFICATION RECORD ==================*
G04 Layout Name:  G:/github/DebugTool/HARDWARE/HY_1R3TFT_V10/PCB/HY_1R3TFT_V10.brd*
G04 Film Name:    Drill_Legend*
G04 File Format:  Gerber RS274X*
G04 File Origin:  Cadence Allegro 23.1-S004*
G04 Origin Date:  Sat Aug 10 15:06:14 2024*
G04 *
G04 Layer:  MANUFACTURING/NCLEGEND-1-2*
G04 Layer:  MANUFACTURING/NCDRILL_LEGEND*
G04 Layer:  MANUFACTURING/NCDRILL_FIGURE*
G04 Layer:  BOARD GEOMETRY/DIMENSION*
G04 *
G04 Offset:    (0.0000 0.0000)*
G04 Mirror:    No*
G04 Mode:      Positive*
G04 Rotation:  0*
G04 FullContactRelief:  No*
G04 UndefLineWidth:     0.1524*
G04 ================== end FILE IDENTIFICATION RECORD ====================*
%FSLAX55Y55*MOMM*%
%IR0*IPPOS*OFA0.00000B0.00000*MIA0B0*SFA1.00000B1.00000*%
%AMMACRO13*
1,1,.1524,.127,0.0*
20,1,.1524,.127,0.0,-.127,0.0,0.0*
1,1,.1524,-.127,0.0*
1,1,.1524,0.0,.127*
20,1,.1524,0.0,.127,0.0,-.127,0.0*
1,1,.1524,0.0,-.127*
%
%ADD13MACRO13*%
%AMMACRO11*
1,1,.1524,.1524,.1524*
20,1,.1524,.1524,.1524,.1524,-.1524,0.0*
1,1,.1524,.1524,-.1524*
20,1,.1524,.1524,-.1524,-.1524,-.1524,0.0*
1,1,.1524,-.1524,-.1524*
20,1,.1524,-.1524,-.1524,-.1524,.1524,0.0*
1,1,.1524,-.1524,.1524*
20,1,.1524,-.1524,.1524,.1524,.1524,0.0*
1,1,.1524,.1524,.1524*
%
%ADD11MACRO11*%
%AMMACRO12*
1,1,.1524,.55,0.0*
20,1,.1524,.55,0.0,.275,.476314,0.0*
1,1,.1524,.275,.476314*
20,1,.1524,.275,.476314,-.275,.476314,0.0*
1,1,.1524,-.275,.476314*
20,1,.1524,-.275,.476314,-.55,0.0,0.0*
1,1,.1524,-.55,0.0*
20,1,.1524,-.55,0.0,-.275,-.476314,0.0*
1,1,.1524,-.275,-.476314*
20,1,.1524,-.275,-.476314,.275,-.476314,0.0*
1,1,.1524,.275,-.476314*
20,1,.1524,.275,-.476314,.55,0.0,0.0*
1,1,.1524,.55,0.0*
%
%ADD12MACRO12*%
%AMMACRO10*
1,1,.1524,0.0,1.1*
20,1,.1524,0.0,1.1,-.952628,.55,0.0*
1,1,.1524,-.952628,.55*
20,1,.1524,-.952628,.55,-.952628,-.55,0.0*
1,1,.1524,-.952628,-.55*
20,1,.1524,-.952628,-.55,0.0,-1.1,0.0*
1,1,.1524,0.0,-1.1*
20,1,.1524,0.0,-1.1,.952628,-.55,0.0*
1,1,.1524,.952628,-.55*
20,1,.1524,.952628,-.55,.952628,.55,0.0*
1,1,.1524,.952628,.55*
20,1,.1524,.952628,.55,0.0,1.1,0.0*
1,1,.1524,0.0,1.1*
%
%ADD10MACRO10*%
%ADD14C,.1524*%
G75*
%LPD*%
G75*
G54D10*
X220000Y220000D03*
X2420000D03*
X4401730Y197500D03*
G54D11*
X353990Y1165910D03*
Y865910D03*
X308050Y1939730D03*
Y2239730D03*
Y2539730D03*
Y2839730D03*
X692790Y148110D03*
X653990Y1165910D03*
Y865910D03*
X608050Y1939730D03*
Y2239730D03*
Y2539730D03*
Y2839730D03*
X992790Y148110D03*
X953990Y1165910D03*
Y865910D03*
X908050Y1939730D03*
Y2239730D03*
Y2539730D03*
Y2839730D03*
X1592790Y148110D03*
X1292790D03*
X1553990Y1165910D03*
X1253990D03*
X1553990Y865910D03*
X1253990D03*
X1892790Y148110D03*
X1853990Y1165910D03*
Y865910D03*
X2153990Y1165910D03*
Y865910D03*
X2453990Y1165910D03*
Y865910D03*
X2438050Y2199730D03*
Y2499730D03*
Y2799730D03*
Y3099730D03*
X4401730Y1467500D03*
G54D12*
X432000Y3540000D03*
X686000D03*
X940000D03*
X1194000D03*
X1448000D03*
X1702000D03*
X1956000D03*
X2210000D03*
X4401730Y832500D03*
G54D13*
X1990000Y3070000D03*
Y2990000D03*
Y2910000D03*
X2170000Y2850000D03*
X4401730Y2102500D03*
G54D14*
G01X-1657900Y1912850D02*
X-1643680Y1890620D01*
X-1624720Y1877920D01*
X-1603380Y1874750D01*
X-1584410Y1877920D01*
X-1565450Y1893800D01*
X-1553600Y1912850D01*
X-1551230Y1931900D01*
X-1555970Y1954120D01*
X-1572560Y1970000D01*
X-1589160Y1976350D01*
X-1610490D01*
G01X-1589160D02*
X-1574930Y1985870D01*
X-1563080Y2001750D01*
X-1558340Y2020800D01*
X-1563080Y2039850D01*
X-1574930Y2055720D01*
X-1596270Y2065250D01*
X-1617600Y2062080D01*
X-1638940Y2049370D01*
G01X-1460290Y1954120D02*
X-1443700Y1976350D01*
X-1429470Y1989050D01*
X-1410510Y1995400D01*
X-1393910Y1989050D01*
X-1382060Y1976350D01*
X-1372580Y1957300D01*
X-1370210Y1935070D01*
X-1372580Y1916020D01*
X-1382060Y1896970D01*
X-1396290Y1881100D01*
X-1412880Y1874750D01*
X-1431840Y1881100D01*
X-1448440Y1900140D01*
X-1457920Y1928730D01*
X-1460290Y1960470D01*
X-1455550Y2001750D01*
X-1448440Y2023980D01*
X-1436590Y2046200D01*
X-1419990Y2062080D01*
X-1403400Y2065250D01*
X-1386800Y2058900D01*
X-1374950Y2043020D01*
G01X-1224750Y1868400D02*
X-1229490Y1871580D01*
Y1877920D01*
X-1224750Y1881100D01*
X-1220010Y1877920D01*
Y1871580D01*
X-1224750Y1868400D01*
G01X-1074550Y1896970D02*
X-1057960Y1881100D01*
X-1038990Y1874750D01*
X-1020030Y1881100D01*
X-1003430Y1900140D01*
X-991580Y1928730D01*
X-986840Y1957300D01*
Y1992220D01*
X-991580Y2020800D01*
X-1003430Y2046200D01*
X-1017660Y2058900D01*
X-1034250Y2065250D01*
X-1053220Y2058900D01*
X-1067440Y2046200D01*
X-1076920Y2027150D01*
X-1081660Y2001750D01*
X-1076920Y1979530D01*
X-1065070Y1957300D01*
X-1050840Y1944600D01*
X-1034250Y1941420D01*
X-1015290Y1947770D01*
X-1001060Y1963650D01*
X-986840Y1992220D01*
G01X-1067900Y1502850D02*
X-1053680Y1480620D01*
X-1034720Y1467920D01*
X-1013380Y1464750D01*
X-994410Y1467920D01*
X-975450Y1483800D01*
X-963600Y1502850D01*
X-961230Y1521900D01*
X-965970Y1544120D01*
X-982560Y1560000D01*
X-999160Y1566350D01*
X-1020490D01*
G01X-999160D02*
X-984930Y1575870D01*
X-973080Y1591750D01*
X-968340Y1610800D01*
X-973080Y1629850D01*
X-984930Y1645720D01*
X-1006270Y1655250D01*
X-1027600Y1652080D01*
X-1048940Y1639370D01*
G01X-877400Y1493320D02*
X-863180Y1477450D01*
X-846590Y1467920D01*
X-825250Y1464750D01*
X-803910Y1471100D01*
X-787320Y1483800D01*
X-775470Y1506020D01*
X-773100Y1531420D01*
X-777840Y1556820D01*
X-789690Y1572700D01*
X-806290Y1585400D01*
X-822880Y1588570D01*
X-839470Y1585400D01*
X-860810Y1572700D01*
X-853700Y1655250D01*
X-789690D01*
G01X-634750Y1458400D02*
X-639490Y1461580D01*
Y1467920D01*
X-634750Y1471100D01*
X-630010Y1467920D01*
Y1461580D01*
X-634750Y1458400D01*
G01X-415800Y1464750D02*
Y1655250D01*
X-503520Y1518730D01*
X-384980D01*
G01X-635540Y993500D02*
X-621320Y1012550D01*
X-604720Y1022080D01*
X-585760Y1025250D01*
X-562050Y1018900D01*
X-545460Y1003020D01*
X-540720Y983980D01*
X-543090Y964920D01*
X-552570Y949050D01*
X-599980Y917300D01*
X-621320Y895070D01*
X-635540Y863320D01*
X-640280Y834750D01*
X-540720D01*
G01X-400000Y828400D02*
X-404740Y831580D01*
Y837920D01*
X-400000Y841100D01*
X-395260Y837920D01*
Y831580D01*
X-400000Y828400D01*
G01X-254540Y993500D02*
X-240320Y1012550D01*
X-223720Y1022080D01*
X-204760Y1025250D01*
X-181050Y1018900D01*
X-164460Y1003020D01*
X-159720Y983980D01*
X-162090Y964920D01*
X-171570Y949050D01*
X-218980Y917300D01*
X-240320Y895070D01*
X-254540Y863320D01*
X-259280Y834750D01*
X-159720D01*
G01X809210Y-866500D02*
X823430Y-847450D01*
X840030Y-837920D01*
X858990Y-834750D01*
X882700Y-841100D01*
X899290Y-856980D01*
X904030Y-876020D01*
X901660Y-895080D01*
X892180Y-910950D01*
X844770Y-942700D01*
X823430Y-964930D01*
X809210Y-996680D01*
X804470Y-1025250D01*
X904030D01*
G01X1073200D02*
Y-834750D01*
X985480Y-971270D01*
X1104020D01*
G01X1235250Y-1031600D02*
X1230510Y-1028420D01*
Y-1022080D01*
X1235250Y-1018900D01*
X1239990Y-1022080D01*
Y-1028420D01*
X1235250Y-1031600D01*
G01X1380710Y-866500D02*
X1394930Y-847450D01*
X1411530Y-837920D01*
X1430490Y-834750D01*
X1454200Y-841100D01*
X1470790Y-856980D01*
X1475530Y-876020D01*
X1473160Y-895080D01*
X1463680Y-910950D01*
X1416270Y-942700D01*
X1394930Y-964930D01*
X1380710Y-996680D01*
X1375970Y-1025250D01*
X1475530D01*
G01X664460Y-166500D02*
X678680Y-147450D01*
X695280Y-137920D01*
X714240Y-134750D01*
X737950Y-141100D01*
X754540Y-156980D01*
X759280Y-176020D01*
X756910Y-195080D01*
X747430Y-210950D01*
X700020Y-242700D01*
X678680Y-264930D01*
X664460Y-296680D01*
X659720Y-325250D01*
X759280D01*
G01X900000Y-331600D02*
X895260Y-328420D01*
Y-322080D01*
X900000Y-318900D01*
X904740Y-322080D01*
Y-328420D01*
X900000Y-331600D01*
G01X1045460Y-166500D02*
X1059680Y-147450D01*
X1076280Y-137920D01*
X1095240Y-134750D01*
X1118950Y-141100D01*
X1135540Y-156980D01*
X1140280Y-176020D01*
X1137910Y-195080D01*
X1128430Y-210950D01*
X1081020Y-242700D01*
X1059680Y-264930D01*
X1045460Y-296680D01*
X1040720Y-325250D01*
X1140280D01*
G01X989210Y-1176500D02*
X1003430Y-1157450D01*
X1020030Y-1147920D01*
X1038990Y-1144750D01*
X1062700Y-1151100D01*
X1079290Y-1166980D01*
X1084030Y-1186020D01*
X1081660Y-1205080D01*
X1072180Y-1220950D01*
X1024770Y-1252700D01*
X1003430Y-1274930D01*
X989210Y-1306680D01*
X984470Y-1335250D01*
X1084030D01*
G01X1179710Y-1255880D02*
X1196300Y-1233650D01*
X1210530Y-1220950D01*
X1229490Y-1214600D01*
X1246090Y-1220950D01*
X1257940Y-1233650D01*
X1267420Y-1252700D01*
X1269790Y-1274930D01*
X1267420Y-1293980D01*
X1257940Y-1313030D01*
X1243710Y-1328900D01*
X1227120Y-1335250D01*
X1208160Y-1328900D01*
X1191560Y-1309860D01*
X1182080Y-1281270D01*
X1179710Y-1249530D01*
X1184450Y-1208250D01*
X1191560Y-1186020D01*
X1203410Y-1163800D01*
X1220010Y-1147920D01*
X1236600Y-1144750D01*
X1253200Y-1151100D01*
X1265050Y-1166980D01*
G01X1415250Y-1341600D02*
X1410510Y-1338420D01*
Y-1332080D01*
X1415250Y-1328900D01*
X1419990Y-1332080D01*
Y-1338420D01*
X1415250Y-1341600D01*
G01X1634200Y-1335250D02*
Y-1144750D01*
X1546480Y-1281270D01*
X1665020D01*
G01X1052700Y-675250D02*
Y-484750D01*
X964980Y-621270D01*
X1083520D01*
G01X1214750Y-681600D02*
X1210010Y-678420D01*
Y-672080D01*
X1214750Y-668900D01*
X1219490Y-672080D01*
Y-678420D01*
X1214750Y-681600D01*
G01X1353100Y-637150D02*
X1367320Y-659380D01*
X1386280Y-672080D01*
X1407620Y-675250D01*
X1426590Y-672080D01*
X1445550Y-656200D01*
X1457400Y-637150D01*
X1459770Y-618100D01*
X1455030Y-595880D01*
X1438440Y-580000D01*
X1421840Y-573650D01*
X1400510D01*
G01X1421840D02*
X1436070Y-564130D01*
X1447920Y-548250D01*
X1452660Y-529200D01*
X1447920Y-510150D01*
X1436070Y-494280D01*
X1414730Y-484750D01*
X1393400Y-487920D01*
X1372060Y-500630D01*
G01X1550710Y-516500D02*
X1564930Y-497450D01*
X1581530Y-487920D01*
X1600490Y-484750D01*
X1624200Y-491100D01*
X1640790Y-506980D01*
X1645530Y-526020D01*
X1643160Y-545080D01*
X1633680Y-560950D01*
X1586270Y-592700D01*
X1564930Y-614930D01*
X1550710Y-646680D01*
X1545970Y-675250D01*
X1645530D01*
G01X3539520Y2578750D02*
Y2896250D01*
X3689140D01*
G01X3634010Y2742800D02*
X3539520D01*
G01X3882050Y2896250D02*
X3976530D01*
G01X3929290D02*
Y2578750D01*
G01X3882050D02*
X3976530D01*
G01X4267870Y2737500D02*
X4346620D01*
Y2642250D01*
X4322990Y2610490D01*
X4295430Y2589330D01*
X4256060Y2578750D01*
X4216690Y2589330D01*
X4189130Y2610490D01*
X4165510Y2642250D01*
X4149760Y2679290D01*
X4141880Y2721620D01*
Y2758670D01*
X4149760Y2790410D01*
X4165510Y2827460D01*
X4189130Y2859210D01*
X4212750Y2880370D01*
X4244250Y2896250D01*
X4271810D01*
X4303300Y2885670D01*
X4326930Y2864500D01*
G01X4472600Y2896250D02*
Y2668710D01*
X4488340Y2621070D01*
X4519840Y2589330D01*
X4559210Y2578750D01*
X4598580Y2589330D01*
X4630080Y2621070D01*
X4645820Y2668710D01*
Y2896250D01*
G01X4795430Y2578750D02*
Y2896250D01*
X4893850D01*
X4925350Y2880370D01*
X4945040Y2859210D01*
X4952910Y2816870D01*
X4945040Y2774540D01*
X4921410Y2748090D01*
X4893850Y2732200D01*
X4795430D01*
G01X4893850D02*
X4952910Y2578750D01*
G01X5267870D02*
X5110390D01*
Y2896250D01*
X5267870D01*
G01X5204880Y2742800D02*
X5110390D01*
G01X5208810Y3213750D02*
X5307240Y3531250D01*
X5405670Y3213750D01*
G01X5370230Y3324870D02*
X5244240D01*
G01X5543460Y3531250D02*
Y3213750D01*
X5700940D01*
G01X5858420Y3531250D02*
Y3213750D01*
X6015900D01*
G01X6480470Y3531250D02*
Y3303710D01*
X6496210Y3256070D01*
X6527710Y3224330D01*
X6567080Y3213750D01*
X6606450Y3224330D01*
X6637950Y3256070D01*
X6653690Y3303710D01*
Y3531250D01*
G01X6791490Y3213750D02*
Y3531250D01*
X6972590Y3213750D01*
Y3531250D01*
G01X7149760D02*
X7244240D01*
G01X7197000D02*
Y3213750D01*
G01X7149760D02*
X7244240D01*
G01X7511960Y3531250D02*
Y3213750D01*
G01X7421410Y3531250D02*
X7602510D01*
G01X7744240Y3256070D02*
X7775740Y3229620D01*
X7811170Y3213750D01*
X7842670D01*
X7874160Y3229620D01*
X7897790Y3256070D01*
X7909600Y3293130D01*
X7901730Y3330160D01*
X7882040Y3361910D01*
X7846600Y3383090D01*
X7799360Y3393670D01*
X7771800Y3414830D01*
X7759990Y3451870D01*
X7767870Y3488920D01*
X7787550Y3515370D01*
X7815110Y3531250D01*
X7842670D01*
X7870230Y3520670D01*
X7893850Y3494210D01*
G01X8358410Y3213750D02*
X8456840Y3531250D01*
X8555270Y3213750D01*
G01X8519830Y3324870D02*
X8393840D01*
G01X8693060Y3213750D02*
Y3531250D01*
X8791480D01*
X8822980Y3515370D01*
X8842670Y3494210D01*
X8850540Y3451870D01*
X8842670Y3409540D01*
X8819040Y3383090D01*
X8791480Y3367200D01*
X8693060D01*
G01X8791480D02*
X8850540Y3213750D01*
G01X9165500D02*
X9008020D01*
Y3531250D01*
X9165500D01*
G01X9102510Y3377800D02*
X9008020D01*
G01X9669440Y3531250D02*
X9763920D01*
G01X9716680D02*
Y3213750D01*
G01X9669440D02*
X9763920D01*
G01X9941090D02*
Y3531250D01*
X10122190Y3213750D01*
Y3531250D01*
G01X10559190Y3213750D02*
Y3531250D01*
X10661560Y3266670D01*
X10763930Y3531250D01*
Y3213750D01*
G01X10929280Y3531250D02*
X11023760D01*
G01X10976520D02*
Y3213750D01*
G01X10929280D02*
X11023760D01*
G01X11212740Y3531250D02*
Y3213750D01*
X11370220D01*
G01X11527700Y3531250D02*
Y3213750D01*
X11685180D01*
G01X11874160Y3531250D02*
X11968640D01*
G01X11921400D02*
Y3213750D01*
G01X11874160D02*
X11968640D01*
G01X12133990D02*
Y3531250D01*
X12236360Y3266670D01*
X12338730Y3531250D01*
Y3213750D01*
G01X12630060D02*
X12472580D01*
Y3531250D01*
X12630060D01*
G01X12567070Y3377800D02*
X12472580D01*
G01X12866280Y3531250D02*
Y3213750D01*
G01X12775730Y3531250D02*
X12956830D01*
G01X13259980Y3213750D02*
X13102500D01*
Y3531250D01*
X13259980D01*
G01X13196990Y3377800D02*
X13102500D01*
G01X13417460Y3213750D02*
Y3531250D01*
X13515880D01*
X13547380Y3515370D01*
X13567070Y3494210D01*
X13574940Y3451870D01*
X13567070Y3409540D01*
X13543440Y3383090D01*
X13515880Y3367200D01*
X13417460D01*
G01X13515880D02*
X13574940Y3213750D01*
G01X13728480Y3256070D02*
X13759980Y3229620D01*
X13795410Y3213750D01*
X13826910D01*
X13858400Y3229620D01*
X13882030Y3256070D01*
X13893840Y3293130D01*
X13885970Y3330160D01*
X13866280Y3361910D01*
X13830840Y3383090D01*
X13783600Y3393670D01*
X13756040Y3414830D01*
X13744230Y3451870D01*
X13752110Y3488920D01*
X13771790Y3515370D01*
X13799350Y3531250D01*
X13826910D01*
X13854470Y3520670D01*
X13878090Y3494210D01*
G01X5535590Y3863750D02*
Y4181250D01*
X5614320D01*
X5645820Y4165370D01*
X5669440Y4144210D01*
X5689130Y4112460D01*
X5704880Y4075410D01*
X5708810Y4022500D01*
X5704880Y3969580D01*
X5689130Y3932540D01*
X5669440Y3900780D01*
X5645820Y3879620D01*
X5614320Y3863750D01*
X5535590D01*
G01X5858420D02*
Y4181250D01*
X5956840D01*
X5988340Y4165370D01*
X6008030Y4144210D01*
X6015900Y4101870D01*
X6008030Y4059540D01*
X5984400Y4033090D01*
X5956840Y4017200D01*
X5858420D01*
G01X5956840D02*
X6015900Y3863750D01*
G01X6204880Y4181250D02*
X6299360D01*
G01X6252120D02*
Y3863750D01*
G01X6204880D02*
X6299360D01*
G01X6488340Y4181250D02*
Y3863750D01*
X6645820D01*
G01X6803300Y4181250D02*
Y3863750D01*
X6960780D01*
G01X7598570Y4154790D02*
X7574950Y4170670D01*
X7547400Y4181250D01*
X7515900D01*
X7480460Y4165370D01*
X7452910Y4138920D01*
X7433220Y4107160D01*
X7417470Y4054250D01*
X7413530Y4006620D01*
X7421410Y3959000D01*
X7433220Y3927250D01*
X7456840Y3895490D01*
X7484400Y3874330D01*
X7511960Y3863750D01*
X7539520D01*
X7567080Y3874330D01*
X7590700Y3890200D01*
X7610390Y3911360D01*
G01X7744240Y3863750D02*
Y4181250D01*
G01X7909600D02*
Y3863750D01*
G01Y4022500D02*
X7744240D01*
G01X8043450Y3863750D02*
X8141880Y4181250D01*
X8240310Y3863750D01*
G01X8204870Y3974870D02*
X8078880D01*
G01X8378100Y3863750D02*
Y4181250D01*
X8476520D01*
X8508020Y4165370D01*
X8527710Y4144210D01*
X8535580Y4101870D01*
X8527710Y4059540D01*
X8504080Y4033090D01*
X8476520Y4017200D01*
X8378100D01*
G01X8476520D02*
X8535580Y3863750D01*
G01X8771800Y4181250D02*
Y3863750D01*
G01X8681250Y4181250D02*
X8862350D01*
G01X9086760Y3853170D02*
X9078880Y3858460D01*
Y3869040D01*
X9086760Y3874330D01*
X9094640Y3869040D01*
Y3858460D01*
X9086760Y3853170D01*
G01Y3996030D02*
X9078880Y4001330D01*
Y4011910D01*
X9086760Y4017200D01*
X9094640Y4011910D01*
Y4001330D01*
X9086760Y3996030D01*
G01X9716680Y4181250D02*
Y3863750D01*
G01X9626130Y4181250D02*
X9807230D01*
G01X10031640Y3863750D02*
X10000140Y3869040D01*
X9972590Y3890200D01*
X9948960Y3921960D01*
X9933210Y3959000D01*
X9925340Y4001330D01*
Y4043670D01*
X9933210Y4086000D01*
X9948960Y4123040D01*
X9972590Y4154790D01*
X10000140Y4175960D01*
X10031640Y4181250D01*
X10063130Y4175960D01*
X10090690Y4154790D01*
X10114320Y4123040D01*
X10130070Y4086000D01*
X10137940Y4043670D01*
Y4001330D01*
X10130070Y3959000D01*
X10114320Y3921960D01*
X10090690Y3890200D01*
X10063130Y3869040D01*
X10031640Y3863750D01*
G01X10267860D02*
Y4181250D01*
X10362350D01*
X10393840Y4165370D01*
X10417470Y4128330D01*
X10425340Y4086000D01*
X10417470Y4043670D01*
X10397780Y4011910D01*
X10362350Y3996030D01*
X10267860D01*
G01X10976520Y4181250D02*
Y3863750D01*
G01X10921400Y4075410D02*
X11031640D01*
G01X11291480Y3863750D02*
X11267860Y3869040D01*
X11244240Y3890200D01*
X11228480Y3927250D01*
X11220610Y3969580D01*
X11228480Y4011910D01*
X11244240Y4048960D01*
X11267860Y4070120D01*
X11291480Y4075410D01*
X11315100Y4070120D01*
X11338720Y4048960D01*
X11354470Y4011910D01*
X11358410Y3969580D01*
X11354470Y3927250D01*
X11338720Y3890200D01*
X11315100Y3869040D01*
X11291480Y3863750D01*
G01X11952890Y4033090D02*
X11968640Y4048960D01*
X11980450Y4075410D01*
X11988330Y4112460D01*
X11980450Y4144210D01*
X11964710Y4165370D01*
X11937150Y4181250D01*
X11830850D01*
Y3863750D01*
X11960770D01*
X11988330Y3884910D01*
X12004080Y3916670D01*
X12011950Y3953710D01*
X12004080Y3990740D01*
X11980450Y4022500D01*
X11952890Y4033090D01*
X11830850D01*
G01X12236360Y3863750D02*
X12204860Y3869040D01*
X12177310Y3890200D01*
X12153680Y3921960D01*
X12137930Y3959000D01*
X12130060Y4001330D01*
Y4043670D01*
X12137930Y4086000D01*
X12153680Y4123040D01*
X12177310Y4154790D01*
X12204860Y4175960D01*
X12236360Y4181250D01*
X12267850Y4175960D01*
X12295410Y4154790D01*
X12319040Y4123040D01*
X12334790Y4086000D01*
X12342660Y4043670D01*
Y4001330D01*
X12334790Y3959000D01*
X12319040Y3921960D01*
X12295410Y3890200D01*
X12267850Y3869040D01*
X12236360Y3863750D01*
G01X12551320Y4181250D02*
Y3863750D01*
G01X12460770Y4181250D02*
X12641870D01*
G01X12866280D02*
Y3863750D01*
G01X12775730Y4181250D02*
X12956830D01*
G01X13181240Y3863750D02*
X13149740Y3869040D01*
X13122190Y3890200D01*
X13098560Y3921960D01*
X13082810Y3959000D01*
X13074940Y4001330D01*
Y4043670D01*
X13082810Y4086000D01*
X13098560Y4123040D01*
X13122190Y4154790D01*
X13149740Y4175960D01*
X13181240Y4181250D01*
X13212730Y4175960D01*
X13240290Y4154790D01*
X13263920Y4123040D01*
X13279670Y4086000D01*
X13287540Y4043670D01*
Y4001330D01*
X13279670Y3959000D01*
X13263920Y3921960D01*
X13240290Y3890200D01*
X13212730Y3869040D01*
X13181240Y3863750D01*
G01X13393830D02*
Y4181250D01*
X13496200Y3916670D01*
X13598570Y4181250D01*
Y3863750D01*
G01X6137940Y2578750D02*
Y2896250D01*
X6287560D01*
G01X6232430Y2742800D02*
X6137940D01*
G01X6480470Y2896250D02*
X6574950D01*
G01X6527710D02*
Y2578750D01*
G01X6480470D02*
X6574950D01*
G01X6752120D02*
Y2896250D01*
X6933220Y2578750D01*
Y2896250D01*
G01X7110390D02*
X7204870D01*
G01X7157630D02*
Y2578750D01*
G01X7110390D02*
X7204870D01*
G01X7389910Y2621070D02*
X7421410Y2594620D01*
X7456840Y2578750D01*
X7488340D01*
X7519830Y2594620D01*
X7543460Y2621070D01*
X7555270Y2658130D01*
X7547400Y2695160D01*
X7527710Y2726910D01*
X7492270Y2748090D01*
X7445030Y2758670D01*
X7417470Y2779830D01*
X7405660Y2816870D01*
X7413540Y2853920D01*
X7433220Y2880370D01*
X7460780Y2896250D01*
X7488340D01*
X7515900Y2885670D01*
X7539520Y2859210D01*
G01X7704870Y2578750D02*
Y2896250D01*
G01X7870230D02*
Y2578750D01*
G01Y2737500D02*
X7704870D01*
G01X8181250Y2578750D02*
X8023770D01*
Y2896250D01*
X8181250D01*
G01X8118260Y2742800D02*
X8023770D01*
G01X8330860Y2578750D02*
Y2896250D01*
X8409590D01*
X8441090Y2880370D01*
X8464710Y2859210D01*
X8484400Y2827460D01*
X8500150Y2790410D01*
X8504080Y2737500D01*
X8500150Y2684580D01*
X8484400Y2647540D01*
X8464710Y2615780D01*
X8441090Y2594620D01*
X8409590Y2578750D01*
X8330860D01*
G01X8614320Y2472920D02*
X8850540D01*
G01X8964710Y2621070D02*
X8996210Y2594620D01*
X9031640Y2578750D01*
X9063140D01*
X9094630Y2594620D01*
X9118260Y2621070D01*
X9130070Y2658130D01*
X9122200Y2695160D01*
X9102510Y2726910D01*
X9067070Y2748090D01*
X9019830Y2758670D01*
X8992270Y2779830D01*
X8980460Y2816870D01*
X8988340Y2853920D01*
X9008020Y2880370D01*
X9035580Y2896250D01*
X9063140D01*
X9090700Y2885670D01*
X9114320Y2859210D01*
G01X9315110Y2896250D02*
X9409590D01*
G01X9362350D02*
Y2578750D01*
G01X9315110D02*
X9409590D01*
G01X9602500Y2896250D02*
X9752120D01*
X9602500Y2578750D01*
X9752120D01*
G01X10071010D02*
X9913530D01*
Y2896250D01*
X10071010D01*
G01X10008020Y2742800D02*
X9913530D01*
G01X7315110Y1626250D02*
X7283610Y1615670D01*
X7259990Y1589210D01*
X7244240Y1557460D01*
X7232430Y1515120D01*
X7228500Y1467500D01*
X7232430Y1419870D01*
X7244240Y1377540D01*
X7259990Y1345780D01*
X7283610Y1319330D01*
X7315110Y1308750D01*
X7346600Y1319330D01*
X7370230Y1345780D01*
X7385980Y1377540D01*
X7397790Y1419870D01*
X7401720Y1467500D01*
X7397790Y1515120D01*
X7385980Y1557460D01*
X7370230Y1589210D01*
X7346600Y1615670D01*
X7315110Y1626250D01*
G01X7630070Y1298170D02*
X7622190Y1303460D01*
Y1314040D01*
X7630070Y1319330D01*
X7637950Y1314040D01*
Y1303460D01*
X7630070Y1298170D01*
G01X7858420Y1372250D02*
X7882030Y1335200D01*
X7913530Y1314040D01*
X7948970Y1308750D01*
X7980470Y1314040D01*
X8011960Y1340490D01*
X8031640Y1372250D01*
X8035580Y1404000D01*
X8027710Y1441030D01*
X8000150Y1467500D01*
X7972590Y1478090D01*
X7937150D01*
G01X7972590D02*
X7996210Y1493960D01*
X8015900Y1520410D01*
X8023770Y1552160D01*
X8015900Y1583920D01*
X7996210Y1610370D01*
X7960780Y1626250D01*
X7925350Y1620960D01*
X7889910Y1599790D01*
G01X8259990Y1626250D02*
X8228490Y1615670D01*
X8204870Y1589210D01*
X8189120Y1557460D01*
X8177310Y1515120D01*
X8173380Y1467500D01*
X8177310Y1419870D01*
X8189120Y1377540D01*
X8204870Y1345780D01*
X8228490Y1319330D01*
X8259990Y1308750D01*
X8291480Y1319330D01*
X8315110Y1345780D01*
X8330860Y1377540D01*
X8342670Y1419870D01*
X8346600Y1467500D01*
X8342670Y1515120D01*
X8330860Y1557460D01*
X8315110Y1589210D01*
X8291480Y1615670D01*
X8259990Y1626250D01*
G01X8622190Y1308750D02*
Y1626250D01*
X8476520Y1398710D01*
X8673380D01*
G01X8889910Y1308750D02*
X8917470Y1314040D01*
X8948960Y1329910D01*
X8968650Y1356360D01*
X8976520Y1393420D01*
X8968650Y1430450D01*
X8945030Y1462200D01*
X8909590Y1478090D01*
X8870230D01*
X8846600Y1488670D01*
X8826910Y1515120D01*
X8819040Y1552160D01*
X8830860Y1589210D01*
X8858410Y1615670D01*
X8889910Y1626250D01*
X8921400Y1615670D01*
X8948960Y1589210D01*
X8960780Y1552160D01*
X8952900Y1515120D01*
X8933220Y1488670D01*
X8909590Y1478090D01*
X8870230D01*
X8834790Y1462200D01*
X8811170Y1430450D01*
X8803300Y1393420D01*
X8811170Y1356360D01*
X8830860Y1329910D01*
X8862350Y1314040D01*
X8889910Y1308750D01*
G01X7712740Y303330D02*
X7736370Y335080D01*
X7763930Y350960D01*
X7795430Y356250D01*
X7834790Y345670D01*
X7862360Y319210D01*
X7870230Y287460D01*
X7866290Y255700D01*
X7850540Y229250D01*
X7771800Y176330D01*
X7736370Y139290D01*
X7712740Y86360D01*
X7704870Y38750D01*
X7870230D01*
G01X8102510Y28170D02*
X8094630Y33460D01*
Y44040D01*
X8102510Y49330D01*
X8110390Y44040D01*
Y33460D01*
X8102510Y28170D01*
G01X8342660Y303330D02*
X8366290Y335080D01*
X8393850Y350960D01*
X8425350Y356250D01*
X8464710Y345670D01*
X8492280Y319210D01*
X8500150Y287460D01*
X8496210Y255700D01*
X8480460Y229250D01*
X8401720Y176330D01*
X8366290Y139290D01*
X8342660Y86360D01*
X8334790Y38750D01*
X8500150D01*
G01X7787550Y673750D02*
Y991250D01*
X7740310Y927750D01*
G01Y673750D02*
X7834790D01*
G01X8102510Y663170D02*
X8094630Y668460D01*
Y679040D01*
X8102510Y684330D01*
X8110390Y679040D01*
Y668460D01*
X8102510Y663170D01*
G01X8417470Y673750D02*
Y991250D01*
X8370230Y927750D01*
G01Y673750D02*
X8464710D01*
G01X7472590Y2261250D02*
X7441090Y2250670D01*
X7417470Y2224210D01*
X7401720Y2192460D01*
X7389910Y2150120D01*
X7385980Y2102500D01*
X7389910Y2054870D01*
X7401720Y2012540D01*
X7417470Y1980780D01*
X7441090Y1954330D01*
X7472590Y1943750D01*
X7504080Y1954330D01*
X7527710Y1980780D01*
X7543460Y2012540D01*
X7555270Y2054870D01*
X7559200Y2102500D01*
X7555270Y2150120D01*
X7543460Y2192460D01*
X7527710Y2224210D01*
X7504080Y2250670D01*
X7472590Y2261250D01*
G01X7787550Y1933170D02*
X7779670Y1938460D01*
Y1949040D01*
X7787550Y1954330D01*
X7795430Y1949040D01*
Y1938460D01*
X7787550Y1933170D01*
G01X8027700Y2208330D02*
X8051330Y2240080D01*
X8078890Y2255960D01*
X8110390Y2261250D01*
X8149750Y2250670D01*
X8177320Y2224210D01*
X8185190Y2192460D01*
X8181250Y2160700D01*
X8165500Y2134250D01*
X8086760Y2081330D01*
X8051330Y2044290D01*
X8027700Y1991360D01*
X8019830Y1943750D01*
X8185190D01*
G01X8330860Y1991360D02*
X8354470Y1964910D01*
X8382030Y1949040D01*
X8417470Y1943750D01*
X8452910Y1954330D01*
X8480460Y1975490D01*
X8500150Y2012540D01*
X8504080Y2054870D01*
X8496210Y2097200D01*
X8476520Y2123670D01*
X8448960Y2144830D01*
X8421410Y2150120D01*
X8393850Y2144830D01*
X8358420Y2123670D01*
X8370230Y2261250D01*
X8476520D01*
G01X8779670Y1943750D02*
Y2261250D01*
X8634000Y2033710D01*
X8830860D01*
G01X9989730Y-278750D02*
Y-596250D01*
G01X9899180Y-278750D02*
X10080280D01*
G01X10304690Y-596250D02*
X10273190Y-590960D01*
X10245640Y-569800D01*
X10222010Y-538040D01*
X10206260Y-501000D01*
X10198390Y-458670D01*
Y-416330D01*
X10206260Y-374000D01*
X10222010Y-336960D01*
X10245640Y-305210D01*
X10273190Y-284040D01*
X10304690Y-278750D01*
X10336180Y-284040D01*
X10363740Y-305210D01*
X10387370Y-336960D01*
X10403120Y-374000D01*
X10410990Y-416330D01*
Y-458670D01*
X10403120Y-501000D01*
X10387370Y-538040D01*
X10363740Y-569800D01*
X10336180Y-590960D01*
X10304690Y-596250D01*
G01X10619650Y-278750D02*
Y-596250D01*
G01X10529100Y-278750D02*
X10710200D01*
G01X10836180Y-596250D02*
X10934610Y-278750D01*
X11033040Y-596250D01*
G01X10997600Y-485130D02*
X10871610D01*
G01X11170830Y-278750D02*
Y-596250D01*
X11328310D01*
G01X11796810D02*
Y-278750D01*
G01X11962170D02*
Y-596250D01*
G01Y-437500D02*
X11796810D01*
G01X12194450Y-596250D02*
X12162950Y-590960D01*
X12135400Y-569800D01*
X12111770Y-538040D01*
X12096020Y-501000D01*
X12088150Y-458670D01*
Y-416330D01*
X12096020Y-374000D01*
X12111770Y-336960D01*
X12135400Y-305210D01*
X12162950Y-284040D01*
X12194450Y-278750D01*
X12225940Y-284040D01*
X12253500Y-305210D01*
X12277130Y-336960D01*
X12292880Y-374000D01*
X12300750Y-416330D01*
Y-458670D01*
X12292880Y-501000D01*
X12277130Y-538040D01*
X12253500Y-569800D01*
X12225940Y-590960D01*
X12194450Y-596250D01*
G01X12430670Y-278750D02*
Y-596250D01*
X12588150D01*
G01X12903110D02*
X12745630D01*
Y-278750D01*
X12903110D01*
G01X12840120Y-432200D02*
X12745630D01*
G01X13056650Y-553930D02*
X13088150Y-580380D01*
X13123580Y-596250D01*
X13155080D01*
X13186570Y-580380D01*
X13210200Y-553930D01*
X13222010Y-516870D01*
X13214140Y-479840D01*
X13194450Y-448090D01*
X13159010Y-426910D01*
X13111770Y-416330D01*
X13084210Y-395170D01*
X13072400Y-358130D01*
X13080280Y-321080D01*
X13099960Y-294630D01*
X13127520Y-278750D01*
X13155080D01*
X13182640Y-289330D01*
X13206260Y-315790D01*
G01X13454290Y-606830D02*
X13446410Y-601540D01*
Y-590960D01*
X13454290Y-585670D01*
X13462170Y-590960D01*
Y-601540D01*
X13454290Y-606830D01*
G01Y-463970D02*
X13446410Y-458670D01*
Y-448090D01*
X13454290Y-442800D01*
X13462170Y-448090D01*
Y-458670D01*
X13454290Y-463970D01*
G01X11409590Y38750D02*
Y356250D01*
X11504080D01*
X11535570Y340370D01*
X11559200Y303330D01*
X11567070Y261000D01*
X11559200Y218670D01*
X11539510Y186910D01*
X11504080Y171030D01*
X11409590D01*
G01X11724550Y356250D02*
Y38750D01*
X11882030D01*
G01X12019820D02*
X12118250Y356250D01*
X12216680Y38750D01*
G01X12181240Y149870D02*
X12055250D01*
G01X12433210Y356250D02*
Y38750D01*
G01X12342660Y356250D02*
X12523760D01*
G01X12826910Y38750D02*
X12669430D01*
Y356250D01*
X12826910D01*
G01X12763920Y202800D02*
X12669430D01*
G01X12976520Y38750D02*
Y356250D01*
X13055250D01*
X13086750Y340370D01*
X13110370Y319210D01*
X13130060Y287460D01*
X13145810Y250410D01*
X13149740Y197500D01*
X13145810Y144580D01*
X13130060Y107540D01*
X13110370Y75780D01*
X13086750Y54620D01*
X13055250Y38750D01*
X12976520D01*
G01X11409590Y673750D02*
Y991250D01*
X11504080D01*
X11535570Y975370D01*
X11559200Y938330D01*
X11567070Y896000D01*
X11559200Y853670D01*
X11539510Y821910D01*
X11504080Y806030D01*
X11409590D01*
G01X11724550Y991250D02*
Y673750D01*
X11882030D01*
G01X12019820D02*
X12118250Y991250D01*
X12216680Y673750D01*
G01X12181240Y784870D02*
X12055250D01*
G01X12433210Y991250D02*
Y673750D01*
G01X12342660Y991250D02*
X12523760D01*
G01X12826910Y673750D02*
X12669430D01*
Y991250D01*
X12826910D01*
G01X12763920Y837800D02*
X12669430D01*
G01X12976520Y673750D02*
Y991250D01*
X13055250D01*
X13086750Y975370D01*
X13110370Y954210D01*
X13130060Y922460D01*
X13145810Y885410D01*
X13149740Y832500D01*
X13145810Y779580D01*
X13130060Y742540D01*
X13110370Y710780D01*
X13086750Y689620D01*
X13055250Y673750D01*
X12976520D01*
G01X11409590Y1308750D02*
Y1626250D01*
X11504080D01*
X11535570Y1610370D01*
X11559200Y1573330D01*
X11567070Y1531000D01*
X11559200Y1488670D01*
X11539510Y1456910D01*
X11504080Y1441030D01*
X11409590D01*
G01X11724550Y1626250D02*
Y1308750D01*
X11882030D01*
G01X12019820D02*
X12118250Y1626250D01*
X12216680Y1308750D01*
G01X12181240Y1419870D02*
X12055250D01*
G01X12433210Y1626250D02*
Y1308750D01*
G01X12342660Y1626250D02*
X12523760D01*
G01X12826910Y1308750D02*
X12669430D01*
Y1626250D01*
X12826910D01*
G01X12763920Y1472800D02*
X12669430D01*
G01X12976520Y1308750D02*
Y1626250D01*
X13055250D01*
X13086750Y1610370D01*
X13110370Y1589210D01*
X13130060Y1557460D01*
X13145810Y1520410D01*
X13149740Y1467500D01*
X13145810Y1414580D01*
X13130060Y1377540D01*
X13110370Y1345780D01*
X13086750Y1324620D01*
X13055250Y1308750D01*
X12976520D01*
G01X11409590Y1943750D02*
Y2261250D01*
X11504080D01*
X11535570Y2245370D01*
X11559200Y2208330D01*
X11567070Y2166000D01*
X11559200Y2123670D01*
X11539510Y2091910D01*
X11504080Y2076030D01*
X11409590D01*
G01X11724550Y2261250D02*
Y1943750D01*
X11882030D01*
G01X12019820D02*
X12118250Y2261250D01*
X12216680Y1943750D01*
G01X12181240Y2054870D02*
X12055250D01*
G01X12433210Y2261250D02*
Y1943750D01*
G01X12342660Y2261250D02*
X12523760D01*
G01X12826910Y1943750D02*
X12669430D01*
Y2261250D01*
X12826910D01*
G01X12763920Y2107800D02*
X12669430D01*
G01X12976520Y1943750D02*
Y2261250D01*
X13055250D01*
X13086750Y2245370D01*
X13110370Y2224210D01*
X13130060Y2192460D01*
X13145810Y2155410D01*
X13149740Y2102500D01*
X13145810Y2049580D01*
X13130060Y2012540D01*
X13110370Y1980780D01*
X13086750Y1959620D01*
X13055250Y1943750D01*
X12976520D01*
G01X11409590Y2578750D02*
Y2896250D01*
X11504080D01*
X11535570Y2880370D01*
X11559200Y2843330D01*
X11567070Y2801000D01*
X11559200Y2758670D01*
X11539510Y2726910D01*
X11504080Y2711030D01*
X11409590D01*
G01X11724550Y2896250D02*
Y2578750D01*
X11882030D01*
G01X12019820D02*
X12118250Y2896250D01*
X12216680Y2578750D01*
G01X12181240Y2689870D02*
X12055250D01*
G01X12433210Y2896250D02*
Y2578750D01*
G01X12342660Y2896250D02*
X12523760D01*
G01X12826910Y2578750D02*
X12669430D01*
Y2896250D01*
X12826910D01*
G01X12763920Y2742800D02*
X12669430D01*
G01X12976520Y2578750D02*
Y2896250D01*
X13055250D01*
X13086750Y2880370D01*
X13110370Y2859210D01*
X13130060Y2827460D01*
X13145810Y2790410D01*
X13149740Y2737500D01*
X13145810Y2684580D01*
X13130060Y2647540D01*
X13110370Y2615780D01*
X13086750Y2594620D01*
X13055250Y2578750D01*
X12976520D01*
G01X14559190D02*
X14527690Y2584040D01*
X14500140Y2605200D01*
X14476510Y2636960D01*
X14460760Y2674000D01*
X14452890Y2716330D01*
Y2758670D01*
X14460760Y2801000D01*
X14476510Y2838040D01*
X14500140Y2869790D01*
X14527690Y2890960D01*
X14559190Y2896250D01*
X14590680Y2890960D01*
X14618240Y2869790D01*
X14641870Y2838040D01*
X14657620Y2801000D01*
X14665490Y2758670D01*
Y2716330D01*
X14657620Y2674000D01*
X14641870Y2636960D01*
X14618240Y2605200D01*
X14590680Y2584040D01*
X14559190Y2578750D01*
G01X14590680Y2663420D02*
X14637930Y2578750D01*
G01X14874150Y2896250D02*
Y2578750D01*
G01X14783600Y2896250D02*
X14964700D01*
G01X15189110Y2578750D02*
Y2721620D01*
X15110370Y2896250D01*
G01X15267850D02*
X15189110Y2721620D01*
G01X14630060Y-548640D02*
X14653670Y-575090D01*
X14681230Y-590960D01*
X14716670Y-596250D01*
X14752110Y-585670D01*
X14779660Y-564510D01*
X14799350Y-527460D01*
X14803280Y-485130D01*
X14795410Y-442800D01*
X14775720Y-416330D01*
X14748160Y-395170D01*
X14720610Y-389880D01*
X14693050Y-395170D01*
X14657620Y-416330D01*
X14669430Y-278750D01*
X14775720D01*
G01X15031630Y-596250D02*
Y-278750D01*
X14984390Y-342250D01*
G01Y-596250D02*
X15078870D01*
G01X14799340Y303330D02*
X14822970Y335080D01*
X14850530Y350960D01*
X14882030Y356250D01*
X14921390Y345670D01*
X14948960Y319210D01*
X14956830Y287460D01*
X14952890Y255700D01*
X14937140Y229250D01*
X14858400Y176330D01*
X14822970Y139290D01*
X14799340Y86360D01*
X14791470Y38750D01*
X14956830D01*
G01X14874150Y673750D02*
X14901710Y679040D01*
X14933200Y694910D01*
X14952890Y721360D01*
X14960760Y758420D01*
X14952890Y795450D01*
X14929270Y827200D01*
X14893830Y843090D01*
X14854470D01*
X14830840Y853670D01*
X14811150Y880120D01*
X14803280Y917160D01*
X14815100Y954210D01*
X14842650Y980670D01*
X14874150Y991250D01*
X14905640Y980670D01*
X14933200Y954210D01*
X14945020Y917160D01*
X14937140Y880120D01*
X14917460Y853670D01*
X14893830Y843090D01*
X14854470D01*
X14819030Y827200D01*
X14795410Y795450D01*
X14787540Y758420D01*
X14795410Y721360D01*
X14815100Y694910D01*
X14846590Y679040D01*
X14874150Y673750D01*
G01X14630060Y1372250D02*
X14653670Y1335200D01*
X14685170Y1314040D01*
X14720610Y1308750D01*
X14752110Y1314040D01*
X14783600Y1340490D01*
X14803280Y1372250D01*
X14807220Y1404000D01*
X14799350Y1441030D01*
X14771790Y1467500D01*
X14744230Y1478090D01*
X14708790D01*
G01X14744230D02*
X14767850Y1493960D01*
X14787540Y1520410D01*
X14795410Y1552160D01*
X14787540Y1583920D01*
X14767850Y1610370D01*
X14732420Y1626250D01*
X14696990Y1620960D01*
X14661550Y1599790D01*
G01X15023750Y1308750D02*
X15031630Y1377540D01*
X15043440Y1435740D01*
X15059190Y1488670D01*
X15078870Y1546870D01*
X15110370Y1626250D01*
X14952890D01*
G01X14921390Y1943750D02*
Y2261250D01*
X14775720Y2033710D01*
X14972580D01*
G01X-250000Y0D02*
X-1570000D01*
G01X-120000Y3690000D02*
X-1570000D01*
G01X-1320000Y1724260D02*
Y0D01*
G01X-1382500Y400000D02*
X-1320000Y0D01*
X-1257500Y400000D01*
X-1382500D01*
G01X-1320000Y2215740D02*
Y3690000D01*
G01X-1257500Y3290000D02*
X-1320000Y3690000D01*
X-1382500Y3290000D01*
X-1257500D01*
G01X-800000Y-580000D02*
X0D01*
G01X-250000Y0D02*
X-980000D01*
G01X-730000Y1314260D02*
Y0D01*
G01X-792500Y400000D02*
X-730000Y0D01*
X-667500Y400000D01*
X-792500D01*
G01X-800000Y-230000D02*
X0D01*
G01X-730000Y1805740D02*
Y3540000D01*
G01X-667500Y3140000D02*
X-730000Y3540000D01*
X-792500Y3140000D01*
X-667500D01*
G01X182000Y3540000D02*
X-980000D01*
G01X-400000Y-800000D02*
Y0D01*
G01X-337500Y-400000D02*
X-400000Y0D01*
X-462500Y-400000D01*
X-337500D01*
G01X-400000Y-642500D02*
X0Y-580000D01*
X-400000Y-517500D01*
Y-642500D01*
G01X-250000Y0D02*
X-650000D01*
G01X-400000Y-292500D02*
X0Y-230000D01*
X-400000Y-167500D01*
Y-292500D01*
G01X-30000Y220000D02*
X-650000D01*
G01X-400000Y684260D02*
Y220000D01*
G01X-462500Y620000D02*
X-400000Y220000D01*
X-337500Y620000D01*
X-462500D01*
G01X0Y-250000D02*
Y-1490000D01*
G01Y-250000D02*
Y-1180000D01*
G01X812640Y-1240000D02*
X0D01*
G01X400000Y-1177500D02*
X0Y-1240000D01*
X400000Y-1302500D01*
Y-1177500D01*
G01X0Y-250000D02*
Y-830000D01*
G01X632640Y-930000D02*
X0D01*
G01X400000Y-867500D02*
X0Y-930000D01*
X400000Y-992500D01*
Y-867500D01*
G01X0Y-250000D02*
Y-480000D01*
G01X432000Y3290000D02*
Y-830000D01*
G01X220000Y-30000D02*
Y-480000D01*
G01X802640Y-580000D02*
X432000D01*
G01X832000Y-517500D02*
X432000Y-580000D01*
X832000Y-642500D01*
Y-517500D01*
G01X487890Y-230000D02*
X220000D01*
G01X620000Y-167500D02*
X220000Y-230000D01*
X620000Y-292500D01*
Y-167500D01*
G01X1827360Y-1240000D02*
X2640000D01*
G01X1647360Y-930000D02*
X2420000D01*
G01X2240000Y-1302500D02*
X2640000Y-1240000D01*
X2240000Y-1177500D01*
Y-1302500D01*
G01X2020000Y-992500D02*
X2420000Y-930000D01*
X2020000Y-867500D01*
Y-992500D01*
G01X2640000Y-140000D02*
Y-1490000D01*
G01X2420000Y-30000D02*
Y-1180000D01*
G01X3260000Y-120000D02*
Y4340000D01*
X15858400D01*
Y-120000D01*
X3260000D01*
G01Y515000D02*
X15858400D01*
G01X3260000Y1150000D02*
X15858400D01*
G01X3260000Y1785000D02*
X15858400D01*
G01X3260000Y2420000D02*
X15858400D01*
G01X3260000Y3055000D02*
X15858400D01*
G01X3260000Y3690000D02*
X15858400D01*
G01X5543460Y3055000D02*
Y-120000D01*
G01X10661560Y3055000D02*
Y-120000D01*
G01X13889900Y3055000D02*
Y-120000D01*
M02*
