M48
METRIC,TZ
T01C.254
T02C.3048
T03C1.1
T04C2.2
;LEADER: 12 
;HEADER: 
;CODE  : ASCII 
;FILE  : HY_1R3TFT_V10-1-2.drl for board G:/github/MBED-TOOLS/HARDWARE/HY_1R3TFT_V10/PCB/#Taaaagn16356.tmp ... layers TOP and BOTTOM
;T01 Holesize 1. = 0.254000 Tolerance = +0.000000/-0.000000 PLATED MM Quantity = 4
;T02 Holesize 2. = 0.304800 Tolerance = +0.000000/-0.000000 PLATED MM Quantity = 37
;T03 Holesize 3. = 1.100000 Tolerance = +0.000000/-0.000000 PLATED MM Quantity = 8
;T04 Holesize 4. = 2.200000 Tolerance = +0.000000/-0.000000 PLATED MM Quantity = 2
%
G90
T01
X2170000Y2850000
X1990000Y2910000
X1990000Y2990000
X1990000Y3070000
T02
X692790Y148110
X353990Y865910
X653990Y865910
X353990Y1165910
X653990Y1165910
X308050Y1939730
X608050Y1939730
X308050Y2239730
X608050Y2239730
X308050Y2539730
X608050Y2539730
X308050Y2839730
X608050Y2839730
X908050Y2839730
X908050Y2539730
X908050Y2239730
X908050Y1939730
X1253990Y1165910
X953990Y1165910
X1253990Y865910
X953990Y865910
X1292790Y148110
X992790Y148110
X1592790Y148110
X1892790Y148110
X1553990Y865910
X1853990Y865910
X2153990Y865910
X1553990Y1165910
X1853990Y1165910
X2153990Y1165910
X2453990Y865910
X2453990Y1165910
X2438050Y2199730
X2438050Y2499730
X2438050Y2799730
X2438050Y3099730
T03
X432000Y3540000
X686000Y3540000
X940000Y3540000
X1194000Y3540000
X1448000Y3540000
X1702000Y3540000
X1956000Y3540000
X2210000Y3540000
T04
X220000Y220000
X2420000Y220000
M30
