G04 ================== begin FILE IDENTIFICATION RECORD ==================*
G04 Layout Name:  G:/github/DebugTool/HARDWARE/HY_1R3TFT_V10/PCB/HY_1R3TFT_V10.brd*
G04 Film Name:    SilkScreen_Bottom*
G04 File Format:  Gerber RS274X*
G04 File Origin:  Cadence Allegro 23.1-S004*
G04 Origin Date:  Sat Aug 10 15:06:14 2024*
G04 *
G04 Layer:  REF DES/SILKSCREEN_BOTTOM*
G04 Layer:  PACKAGE GEOMETRY/SILKSCREEN_BOTTOM*
G04 Layer:  BOARD GEOMETRY/SILKSCREEN_BOTTOM*
G04 *
G04 Offset:    (0.0000 0.0000)*
G04 Mirror:    No*
G04 Mode:      Positive*
G04 Rotation:  0*
G04 FullContactRelief:  No*
G04 UndefLineWidth:     0.1524*
G04 ================== end FILE IDENTIFICATION RECORD ====================*
%FSLAX55Y55*MOMM*%
%IR0*IPPOS*OFA0.00000B0.00000*MIA0B0*SFA1.00000B1.00000*%
%ADD10C,.2*%
%ADD11C,.1524*%
G75*
%LPD*%
G75*
G36*
G01X2197360Y2000000D02*
G03I-22360J0D01*
G37*
G36*
G01X2210000Y3410000D02*
X2260000Y3360000D01*
X2160000D01*
X2210000Y3410000D01*
G37*
G54D10*
G01X2343000Y3670000D02*
Y3410000D01*
X290000D01*
Y3670000D01*
X2343000D01*
G01X2490000Y1470000D02*
Y1370000D01*
X710000D01*
Y1470000D01*
G01X990000Y1820000D02*
X780000D01*
G01X2210000D02*
X2420000D01*
G01X2210000Y2240000D02*
Y2580000D01*
X2050000D01*
Y2240000D01*
X2210000D01*
G01X2170000Y2660000D02*
X2210000D01*
Y2750000D01*
G01X2090000Y2660000D02*
X2050000D01*
Y2750000D01*
G54D11*
G01X392000Y3159000D02*
X384500Y3167000D01*
X380000Y3176000D01*
Y3184000D01*
X384500Y3192000D01*
X392000Y3198000D01*
X402500Y3201000D01*
X413000Y3199000D01*
X422000Y3194000D01*
X428000Y3185000D01*
X431000Y3173000D01*
X437000Y3166000D01*
X447500Y3163000D01*
X458000Y3165000D01*
X465500Y3170000D01*
X470000Y3177000D01*
Y3184000D01*
X467000Y3191000D01*
X459500Y3197000D01*
G01X380000Y3228000D02*
X470000D01*
Y3248000D01*
X465500Y3256000D01*
X459500Y3262000D01*
X450500Y3267000D01*
X440000Y3271000D01*
X425000Y3272000D01*
X410000Y3271000D01*
X399500Y3267000D01*
X390500Y3262000D01*
X384500Y3256000D01*
X380000Y3248000D01*
Y3228000D01*
G01Y3295000D02*
X470000Y3320000D01*
X380000Y3345000D01*
G01X411500Y3336000D02*
Y3304000D01*
G01X720000Y3160000D02*
X630000Y3174000D01*
X720000Y3190000D01*
X630000Y3206000D01*
X720000Y3220000D01*
G01X630000Y3240000D02*
X720000D01*
Y3265000D01*
X715500Y3273000D01*
X709500Y3278000D01*
X697500Y3280000D01*
X685500Y3278000D01*
X678000Y3272000D01*
X673500Y3265000D01*
Y3240000D01*
G01Y3265000D02*
X630000Y3280000D01*
G01X1569000Y135000D02*
X1563000Y144000D01*
X1556000Y148500D01*
X1548000Y150000D01*
X1538000Y147000D01*
X1531000Y139500D01*
X1529000Y130500D01*
X1530000Y121500D01*
X1534000Y114000D01*
X1554000Y99000D01*
X1563000Y88500D01*
X1569000Y73500D01*
X1571000Y60000D01*
X1529000D01*
G01X1468000D02*
Y150000D01*
X1505000Y85500D01*
X1455000D01*
G01X1410000Y150000D02*
X1418000Y147000D01*
X1424000Y139500D01*
X1428000Y130500D01*
X1431000Y118500D01*
X1432000Y105000D01*
X1431000Y91500D01*
X1428000Y79500D01*
X1424000Y70500D01*
X1418000Y63000D01*
X1410000Y60000D01*
X1402000Y63000D01*
X1396000Y70500D01*
X1392000Y79500D01*
X1389000Y91500D01*
X1388000Y105000D01*
X1389000Y118500D01*
X1392000Y130500D01*
X1396000Y139500D01*
X1402000Y147000D01*
X1410000Y150000D01*
G01X1340000Y60000D02*
X1333000Y61500D01*
X1325000Y66000D01*
X1320000Y73500D01*
X1318000Y84000D01*
X1320000Y94500D01*
X1326000Y103500D01*
X1335000Y108000D01*
X1345000D01*
X1351000Y111000D01*
X1356000Y118500D01*
X1358000Y129000D01*
X1355000Y139500D01*
X1348000Y147000D01*
X1340000Y150000D01*
X1332000Y147000D01*
X1325000Y139500D01*
X1322000Y129000D01*
X1324000Y118500D01*
X1329000Y111000D01*
X1335000Y108000D01*
X1345000D01*
X1354000Y103500D01*
X1360000Y94500D01*
X1362000Y84000D01*
X1360000Y73500D01*
X1355000Y66000D01*
X1347000Y61500D01*
X1340000Y60000D01*
G01X1270000D02*
Y150000D01*
X1282000Y132000D01*
G01Y60000D02*
X1258000D01*
G01X1200000Y150000D02*
X1208000Y147000D01*
X1214000Y139500D01*
X1218000Y130500D01*
X1221000Y118500D01*
X1222000Y105000D01*
X1221000Y91500D01*
X1218000Y79500D01*
X1214000Y70500D01*
X1208000Y63000D01*
X1200000Y60000D01*
X1192000Y63000D01*
X1186000Y70500D01*
X1182000Y79500D01*
X1179000Y91500D01*
X1178000Y105000D01*
X1179000Y118500D01*
X1182000Y130500D01*
X1186000Y139500D01*
X1192000Y147000D01*
X1200000Y150000D01*
G01X1560000Y210000D02*
Y300000D01*
X1572000Y282000D01*
G01Y210000D02*
X1548000D01*
G01X1510000D02*
Y300000D01*
X1485000D01*
X1477000Y295500D01*
X1472000Y289500D01*
X1470000Y277500D01*
X1472000Y265500D01*
X1478000Y258000D01*
X1485000Y253500D01*
X1510000D01*
G01X1485000D02*
X1470000Y210000D01*
G01X1442000Y228000D02*
X1436000Y217500D01*
X1428000Y211500D01*
X1419000Y210000D01*
X1411000Y211500D01*
X1403000Y219000D01*
X1398000Y228000D01*
X1397000Y237000D01*
X1399000Y247500D01*
X1406000Y255000D01*
X1413000Y258000D01*
X1422000D01*
G01X1413000D02*
X1407000Y262500D01*
X1402000Y270000D01*
X1400000Y279000D01*
X1402000Y288000D01*
X1407000Y295500D01*
X1416000Y300000D01*
X1425000Y298500D01*
X1434000Y292500D01*
G01X1350000Y300000D02*
Y210000D01*
G01X1373000Y300000D02*
X1327000D01*
G01X1299000Y210000D02*
Y300000D01*
X1261000D01*
G01X1275000Y256500D02*
X1299000D01*
G01X1210000Y300000D02*
Y210000D01*
G01X1233000Y300000D02*
X1187000D01*
G01X1170000Y180000D02*
X1110000D01*
G01X1095000Y300000D02*
X1070000Y210000D01*
X1045000Y300000D01*
G01X1000000Y210000D02*
Y300000D01*
X1012000Y282000D01*
G01Y210000D02*
X988000D01*
G01X930000Y300000D02*
X938000Y297000D01*
X944000Y289500D01*
X948000Y280500D01*
X951000Y268500D01*
X952000Y255000D01*
X951000Y241500D01*
X948000Y229500D01*
X944000Y220500D01*
X938000Y213000D01*
X930000Y210000D01*
X922000Y213000D01*
X916000Y220500D01*
X912000Y229500D01*
X909000Y241500D01*
X908000Y255000D01*
X909000Y268500D01*
X912000Y280500D01*
X916000Y289500D01*
X922000Y297000D01*
X930000Y300000D01*
G01X1232500Y3192000D02*
X1237000Y3186000D01*
X1240000Y3179000D01*
Y3171000D01*
X1235500Y3162000D01*
X1228000Y3155000D01*
X1219000Y3150000D01*
X1204000Y3146000D01*
X1190500Y3145000D01*
X1177000Y3147000D01*
X1168000Y3150000D01*
X1159000Y3156000D01*
X1153000Y3163000D01*
X1150000Y3170000D01*
Y3177000D01*
X1153000Y3184000D01*
X1157500Y3190000D01*
X1163500Y3195000D01*
G01X1162000Y3219000D02*
X1154500Y3227000D01*
X1150000Y3236000D01*
Y3244000D01*
X1154500Y3252000D01*
X1162000Y3258000D01*
X1172500Y3261000D01*
X1183000Y3259000D01*
X1192000Y3254000D01*
X1198000Y3245000D01*
X1201000Y3233000D01*
X1207000Y3226000D01*
X1217500Y3223000D01*
X1228000Y3225000D01*
X1235500Y3230000D01*
X1240000Y3237000D01*
Y3244000D01*
X1237000Y3251000D01*
X1229500Y3257000D01*
G01X902000Y3149000D02*
X894500Y3157000D01*
X890000Y3166000D01*
Y3174000D01*
X894500Y3182000D01*
X902000Y3188000D01*
X912500Y3191000D01*
X923000Y3189000D01*
X932000Y3184000D01*
X938000Y3175000D01*
X941000Y3163000D01*
X947000Y3156000D01*
X957500Y3153000D01*
X968000Y3155000D01*
X975500Y3160000D01*
X980000Y3167000D01*
Y3174000D01*
X977000Y3181000D01*
X969500Y3187000D01*
G01X972500Y3262000D02*
X977000Y3256000D01*
X980000Y3249000D01*
Y3241000D01*
X975500Y3232000D01*
X968000Y3225000D01*
X959000Y3220000D01*
X944000Y3216000D01*
X930500Y3215000D01*
X917000Y3217000D01*
X908000Y3220000D01*
X899000Y3226000D01*
X893000Y3233000D01*
X890000Y3240000D01*
Y3247000D01*
X893000Y3254000D01*
X897500Y3260000D01*
X903500Y3265000D01*
G01X980000Y3290000D02*
X890000D01*
Y3330000D01*
G01X1390000Y3140000D02*
X1480000D01*
Y3165000D01*
X1475500Y3173000D01*
X1469500Y3178000D01*
X1457500Y3180000D01*
X1445500Y3178000D01*
X1438000Y3172000D01*
X1433500Y3165000D01*
Y3140000D01*
G01Y3165000D02*
X1390000Y3180000D01*
G01Y3250000D02*
Y3210000D01*
X1480000D01*
Y3250000D01*
G01X1436500Y3234000D02*
Y3210000D01*
G01X1402000Y3279000D02*
X1394500Y3287000D01*
X1390000Y3296000D01*
Y3304000D01*
X1394500Y3312000D01*
X1402000Y3318000D01*
X1412500Y3321000D01*
X1423000Y3319000D01*
X1432000Y3314000D01*
X1438000Y3305000D01*
X1441000Y3293000D01*
X1447000Y3286000D01*
X1457500Y3283000D01*
X1468000Y3285000D01*
X1475500Y3290000D01*
X1480000Y3297000D01*
Y3304000D01*
X1477000Y3311000D01*
X1469500Y3317000D01*
G01X2005000Y2078000D02*
X2000000Y2069000D01*
X1994000Y2063000D01*
X1987000Y2060000D01*
X1979000Y2063000D01*
X1973000Y2069000D01*
X1967000Y2078000D01*
X1965000Y2090000D01*
Y2150000D01*
G01X1915000Y2060000D02*
Y2150000D01*
X1927000Y2132000D01*
G01Y2060000D02*
X1903000D01*
G01X1975000Y2670000D02*
X1983000Y2671500D01*
X1990000Y2677500D01*
X1996000Y2686500D01*
X2000000Y2697000D01*
X2002000Y2709000D01*
Y2721000D01*
X2000000Y2733000D01*
X1996000Y2743500D01*
X1990000Y2752500D01*
X1983000Y2758500D01*
X1975000Y2760000D01*
X1967000Y2758500D01*
X1960000Y2752500D01*
X1954000Y2743500D01*
X1950000Y2733000D01*
X1948000Y2721000D01*
Y2709000D01*
X1950000Y2697000D01*
X1954000Y2686500D01*
X1960000Y2677500D01*
X1967000Y2671500D01*
X1975000Y2670000D01*
G01X1967000Y2694000D02*
X1955000Y2670000D01*
G01X1905000D02*
Y2760000D01*
X1917000Y2742000D01*
G01Y2670000D02*
X1893000D01*
G01X1995000Y2490000D02*
Y2580000D01*
X1970000D01*
X1962000Y2575500D01*
X1957000Y2569500D01*
X1955000Y2557500D01*
X1957000Y2545500D01*
X1963000Y2538000D01*
X1970000Y2533500D01*
X1995000D01*
G01X1970000D02*
X1955000Y2490000D01*
G01X1905000D02*
Y2580000D01*
X1917000Y2562000D01*
G01Y2490000D02*
X1893000D01*
G01X1955000Y3166000D02*
Y3186000D01*
X1928000D01*
X1919000Y3180000D01*
X1913000Y3173000D01*
X1910000Y3163000D01*
X1913000Y3153000D01*
X1919000Y3146000D01*
X1928000Y3140000D01*
X1938500Y3136000D01*
X1950500Y3134000D01*
X1961000D01*
X1970000Y3136000D01*
X1980500Y3140000D01*
X1989500Y3146000D01*
X1995500Y3152000D01*
X2000000Y3160000D01*
Y3167000D01*
X1997000Y3175000D01*
X1991000Y3181000D01*
G01X1910000Y3207000D02*
X2000000D01*
X1910000Y3253000D01*
X2000000D01*
G01X1910000Y3278000D02*
X2000000D01*
Y3298000D01*
X1995500Y3306000D01*
X1989500Y3312000D01*
X1980500Y3317000D01*
X1970000Y3321000D01*
X1955000Y3322000D01*
X1940000Y3321000D01*
X1929500Y3317000D01*
X1920500Y3312000D01*
X1914500Y3306000D01*
X1910000Y3298000D01*
Y3278000D01*
G01X1708000Y3168000D02*
X1712500Y3172000D01*
X1720000Y3175000D01*
X1730500Y3177000D01*
X1739500Y3175000D01*
X1745500Y3171000D01*
X1750000Y3164000D01*
Y3137000D01*
X1660000D01*
Y3170000D01*
X1666000Y3177000D01*
X1675000Y3181000D01*
X1685500Y3183000D01*
X1696000Y3181000D01*
X1705000Y3175000D01*
X1708000Y3168000D01*
Y3137000D01*
G01X1750000Y3210000D02*
X1660000D01*
Y3250000D01*
G01Y3278000D02*
X1750000D01*
G01Y3316000D02*
X1694500Y3278000D01*
G01X1660000Y3322000D02*
X1720000Y3295000D01*
G01X2188000Y3138000D02*
X2177500Y3144000D01*
X2171500Y3152000D01*
X2170000Y3161000D01*
X2171500Y3169000D01*
X2179000Y3177000D01*
X2188000Y3182000D01*
X2197000Y3183000D01*
X2207500Y3181000D01*
X2215000Y3174000D01*
X2218000Y3167000D01*
Y3158000D01*
G01Y3167000D02*
X2222500Y3173000D01*
X2230000Y3178000D01*
X2239000Y3180000D01*
X2248000Y3178000D01*
X2255500Y3173000D01*
X2260000Y3164000D01*
X2258500Y3155000D01*
X2252500Y3146000D01*
G01X2260000Y3205000D02*
X2170000Y3230000D01*
X2260000Y3255000D01*
G01X2188000Y3278000D02*
X2177500Y3284000D01*
X2171500Y3292000D01*
X2170000Y3301000D01*
X2171500Y3309000D01*
X2179000Y3317000D01*
X2188000Y3322000D01*
X2197000Y3323000D01*
X2207500Y3321000D01*
X2215000Y3314000D01*
X2218000Y3307000D01*
Y3298000D01*
G01Y3307000D02*
X2222500Y3313000D01*
X2230000Y3318000D01*
X2239000Y3320000D01*
X2248000Y3318000D01*
X2255500Y3313000D01*
X2260000Y3304000D01*
X2258500Y3295000D01*
X2252500Y3286000D01*
G01X2495000Y3588000D02*
X2490000Y3579000D01*
X2484000Y3573000D01*
X2477000Y3570000D01*
X2469000Y3573000D01*
X2463000Y3579000D01*
X2457000Y3588000D01*
X2455000Y3600000D01*
Y3660000D01*
G01X2424000Y3645000D02*
X2418000Y3654000D01*
X2411000Y3658500D01*
X2403000Y3660000D01*
X2393000Y3657000D01*
X2386000Y3649500D01*
X2384000Y3640500D01*
X2385000Y3631500D01*
X2389000Y3624000D01*
X2409000Y3609000D01*
X2418000Y3598500D01*
X2424000Y3583500D01*
X2426000Y3570000D01*
X2384000D01*
M02*
