G04 ================== begin FILE IDENTIFICATION RECORD ==================*
G04 Layout Name:  G:/github/DebugTool/HARDWARE/HY_1R3TFT_V10/PCB/HY_1R3TFT_V10.brd*
G04 Film Name:    SilkScreen_Top*
G04 File Format:  Gerber RS274X*
G04 File Origin:  Cadence Allegro 23.1-S004*
G04 Origin Date:  Sat Aug 10 15:06:14 2024*
G04 *
G04 Layer:  REF DES/SILKSCREEN_TOP*
G04 Layer:  PACKAGE GEOMETRY/SILKSCREEN_TOP*
G04 Layer:  BOARD GEOMETRY/SILKSCREEN_TOP*
G04 *
G04 Offset:    (0.0000 0.0000)*
G04 Mirror:    No*
G04 Mode:      Positive*
G04 Rotation:  0*
G04 FullContactRelief:  No*
G04 UndefLineWidth:     0.1524*
G04 ================== end FILE IDENTIFICATION RECORD ====================*
%FSLAX55Y55*MOMM*%
%IR0*IPPOS*OFA0.00000B0.00000*MIA0B0*SFA1.00000B1.00000*%
%ADD10C,.2*%
%ADD11C,.1524*%
G75*
%LPD*%
G75*
G36*
G01X10000Y3380000D02*
Y450000D01*
X2630000D01*
Y3380000D01*
X10000D01*
G37*
G54D10*
G01D02*
X2630000D01*
Y450000D01*
X10000D01*
Y3380000D01*
G54D11*
G01X194000Y190000D02*
Y280000D01*
X220000Y205000D01*
X246000Y280000D01*
Y190000D01*
G01X269000D02*
Y280000D01*
G01X311000D02*
Y190000D01*
G01Y235000D02*
X269000D01*
G01X360000Y190000D02*
Y280000D01*
X348000Y262000D01*
G01Y190000D02*
X372000D01*
G01X579000Y222000D02*
X587000Y214500D01*
X596000Y210000D01*
X604000D01*
X612000Y214500D01*
X618000Y222000D01*
X621000Y232500D01*
X619000Y243000D01*
X614000Y252000D01*
X605000Y258000D01*
X593000Y261000D01*
X586000Y267000D01*
X583000Y277500D01*
X585000Y288000D01*
X590000Y295500D01*
X597000Y300000D01*
X604000D01*
X611000Y297000D01*
X617000Y289500D01*
G01X670000Y300000D02*
Y210000D01*
G01X647000Y300000D02*
X693000D01*
G01X738000Y210000D02*
X740000Y229500D01*
X743000Y246000D01*
X747000Y261000D01*
X752000Y277500D01*
X760000Y300000D01*
X720000D01*
G01X808000Y210000D02*
X810000Y229500D01*
X813000Y246000D01*
X817000Y261000D01*
X822000Y277500D01*
X830000Y300000D01*
X790000D01*
G01X880000Y210000D02*
X887000Y211500D01*
X895000Y216000D01*
X900000Y223500D01*
X902000Y234000D01*
X900000Y244500D01*
X894000Y253500D01*
X885000Y258000D01*
X875000D01*
X869000Y261000D01*
X864000Y268500D01*
X862000Y279000D01*
X865000Y289500D01*
X872000Y297000D01*
X880000Y300000D01*
X888000Y297000D01*
X895000Y289500D01*
X898000Y279000D01*
X896000Y268500D01*
X891000Y261000D01*
X885000Y258000D01*
X875000D01*
X866000Y253500D01*
X860000Y244500D01*
X858000Y234000D01*
X860000Y223500D01*
X865000Y216000D01*
X873000Y211500D01*
X880000Y210000D01*
G01X933000Y220500D02*
X940000Y213000D01*
X948000Y210000D01*
X956000Y213000D01*
X963000Y222000D01*
X968000Y235500D01*
X970000Y249000D01*
Y265500D01*
X968000Y279000D01*
X963000Y291000D01*
X957000Y297000D01*
X950000Y300000D01*
X942000Y297000D01*
X936000Y291000D01*
X932000Y282000D01*
X930000Y270000D01*
X932000Y259500D01*
X937000Y249000D01*
X943000Y243000D01*
X950000Y241500D01*
X958000Y244500D01*
X964000Y252000D01*
X970000Y265500D01*
G01X1071000Y285000D02*
X1077000Y294000D01*
X1084000Y298500D01*
X1092000Y300000D01*
X1102000Y297000D01*
X1109000Y289500D01*
X1111000Y280500D01*
X1110000Y271500D01*
X1106000Y264000D01*
X1086000Y249000D01*
X1077000Y238500D01*
X1071000Y223500D01*
X1069000Y210000D01*
X1111000D01*
G01X1172000D02*
Y300000D01*
X1135000Y235500D01*
X1185000D01*
G01X1230000Y300000D02*
X1222000Y297000D01*
X1216000Y289500D01*
X1212000Y280500D01*
X1209000Y268500D01*
X1208000Y255000D01*
X1209000Y241500D01*
X1212000Y229500D01*
X1216000Y220500D01*
X1222000Y213000D01*
X1230000Y210000D01*
X1238000Y213000D01*
X1244000Y220500D01*
X1248000Y229500D01*
X1251000Y241500D01*
X1252000Y255000D01*
X1251000Y268500D01*
X1248000Y280500D01*
X1244000Y289500D01*
X1238000Y297000D01*
X1230000Y300000D01*
G01X1279000Y210000D02*
X1321000Y300000D01*
G01X1279000D02*
X1321000Y210000D01*
G01X1351000Y285000D02*
X1357000Y294000D01*
X1364000Y298500D01*
X1372000Y300000D01*
X1382000Y297000D01*
X1389000Y289500D01*
X1391000Y280500D01*
X1390000Y271500D01*
X1386000Y264000D01*
X1366000Y249000D01*
X1357000Y238500D01*
X1351000Y223500D01*
X1349000Y210000D01*
X1391000D01*
G01X1452000D02*
Y300000D01*
X1415000Y235500D01*
X1465000D01*
G01X1510000Y300000D02*
X1502000Y297000D01*
X1496000Y289500D01*
X1492000Y280500D01*
X1489000Y268500D01*
X1488000Y255000D01*
X1489000Y241500D01*
X1492000Y229500D01*
X1496000Y220500D01*
X1502000Y213000D01*
X1510000Y210000D01*
X1518000Y213000D01*
X1524000Y220500D01*
X1528000Y229500D01*
X1531000Y241500D01*
X1532000Y255000D01*
X1531000Y268500D01*
X1528000Y280500D01*
X1524000Y289500D01*
X1518000Y297000D01*
X1510000Y300000D01*
G01X1650000Y210000D02*
Y300000D01*
X1638000Y282000D01*
G01Y210000D02*
X1662000D01*
G01X1720000Y207000D02*
X1718000Y208500D01*
Y211500D01*
X1720000Y213000D01*
X1722000Y211500D01*
Y208500D01*
X1720000Y207000D01*
G01X1768000Y228000D02*
X1774000Y217500D01*
X1782000Y211500D01*
X1791000Y210000D01*
X1799000Y211500D01*
X1807000Y219000D01*
X1812000Y228000D01*
X1813000Y237000D01*
X1811000Y247500D01*
X1804000Y255000D01*
X1797000Y258000D01*
X1788000D01*
G01X1797000D02*
X1803000Y262500D01*
X1808000Y270000D01*
X1810000Y279000D01*
X1808000Y288000D01*
X1803000Y295500D01*
X1794000Y300000D01*
X1785000Y298500D01*
X1776000Y292500D01*
G01X1918000Y300000D02*
X1942000D01*
G01X1930000D02*
Y210000D01*
G01X1918000D02*
X1942000D01*
G01X1980000D02*
Y300000D01*
X2004000D01*
X2012000Y295500D01*
X2018000Y285000D01*
X2020000Y273000D01*
X2018000Y261000D01*
X2013000Y252000D01*
X2004000Y247500D01*
X1980000D01*
G01X2049000Y222000D02*
X2057000Y214500D01*
X2066000Y210000D01*
X2074000D01*
X2082000Y214500D01*
X2088000Y222000D01*
X2091000Y232500D01*
X2089000Y243000D01*
X2084000Y252000D01*
X2075000Y258000D01*
X2063000Y261000D01*
X2056000Y267000D01*
X2053000Y277500D01*
X2055000Y288000D01*
X2060000Y295500D01*
X2067000Y300000D01*
X2074000D01*
X2081000Y297000D01*
X2087000Y289500D01*
G01X2394000Y190000D02*
Y280000D01*
X2420000Y205000D01*
X2446000Y280000D01*
Y190000D01*
G01X2469000D02*
Y280000D01*
G01X2511000D02*
Y190000D01*
G01Y235000D02*
X2469000D01*
G01X2541000Y265000D02*
X2547000Y274000D01*
X2554000Y278500D01*
X2562000Y280000D01*
X2572000Y277000D01*
X2579000Y269500D01*
X2581000Y260500D01*
X2580000Y251500D01*
X2576000Y244000D01*
X2556000Y229000D01*
X2547000Y218500D01*
X2541000Y203500D01*
X2539000Y190000D01*
X2581000D01*
M02*
