G04 ================== begin FILE IDENTIFICATION RECORD ==================*
G04 Layout Name:  G:/github/DebugTool/HARDWARE/HY_1R3TFT_V10/PCB/HY_1R3TFT_V10.brd*
G04 Film Name:    TOP*
G04 File Format:  Gerber RS274X*
G04 File Origin:  Cadence Allegro 23.1-S004*
G04 Origin Date:  Sat Aug 10 15:06:14 2024*
G04 *
G04 Layer:  VIA CLASS/TOP*
G04 Layer:  PIN/TOP*
G04 Layer:  ETCH/TOP*
G04 *
G04 Offset:    (0.0000 0.0000)*
G04 Mirror:    No*
G04 Mode:      Positive*
G04 Rotation:  0*
G04 FullContactRelief:  No*
G04 UndefLineWidth:     0.1524*
G04 ================== end FILE IDENTIFICATION RECORD ====================*
%FSLAX55Y55*MOMM*%
%IR0*IPPOS*OFA0.00000B0.00000*MIA0B0*SFA1.00000B1.00000*%
%ADD13C,.508*%
%ADD11C,.6096*%
%ADD10C,4.2*%
%ADD12C,1.8*%
%ADD14R,1.8X1.8*%
G75*
%LPD*%
G75*
G36*
G01X2355740Y3660000D02*
X2420000D01*
G02X2610000Y3470000I0J-190000D01*
G01Y220000D01*
G02X2420000Y30000I-190000J0D01*
G01X220000D01*
G02X30000Y220000I0J190000D01*
G01Y3470000D01*
G02X220000Y3660000I190000J0D01*
G01X311920D01*
G02X327560Y3626700I5J-20321D01*
G03X296260Y3540000I104428J-86700D01*
G03X432000Y3404260I135740J0D01*
G03X542460Y3461110I0J135737D01*
G02X575540I16540J-11805D01*
G03X796460I110460J78887D01*
G02X829540I16540J-11805D01*
G03X1050460I110460J78887D01*
G02X1083540I16540J-11805D01*
G03X1304460I110460J78887D01*
G02X1337540I16540J-11805D01*
G03X1558460I110460J78887D01*
G02X1591540I16540J-11805D01*
G03X1702000Y3404260I110460J78887D01*
G03X1837740Y3540000I0J135740D01*
G03X1806440Y3626700I-135728J0D01*
G02X1822080Y3660000I15635J12979D01*
G01X2074260D01*
Y3298950D01*
X1864260Y3088950D01*
Y2891050D01*
X1921050Y2834260D01*
X2058950D01*
X2355740Y3131050D01*
Y3660000D01*
G37*
G36*
G01X2310000Y3630000D02*
Y3150000D01*
X2040000Y2880000D01*
X1940000D01*
X1910000Y2910000D01*
Y3070000D01*
X2120000Y3280000D01*
Y3630000D01*
X2310000D01*
G37*
%LPC*%
G75*
G36*
G01X2370000Y570020D02*
G02X2460020Y480000I0J-90020D01*
G01Y470000D01*
G02X2370000Y379980I-90020J0D01*
G01X480000D01*
G02X389980Y470000I0J90020D01*
G01Y480000D01*
G02X480000Y570020I90020J0D01*
G01X2370000D01*
G37*
%LPD*%
G75*
G54D10*
X220000Y220000D03*
X2420000D03*
G54D11*
X353990Y1165910D03*
Y865910D03*
X308050Y1939730D03*
Y2239730D03*
Y2539730D03*
Y2839730D03*
X692790Y148110D03*
X653990Y1165910D03*
Y865910D03*
X608050Y1939730D03*
Y2239730D03*
Y2539730D03*
Y2839730D03*
X992790Y148110D03*
X953990Y1165910D03*
Y865910D03*
X908050Y1939730D03*
Y2239730D03*
Y2539730D03*
Y2839730D03*
X1592790Y148110D03*
X1292790D03*
X1553990Y1165910D03*
X1253990D03*
X1553990Y865910D03*
X1253990D03*
X1892790Y148110D03*
X1853990Y1165910D03*
Y865910D03*
X2153990Y1165910D03*
Y865910D03*
X2453990Y1165910D03*
Y865910D03*
X2438050Y2199730D03*
Y2499730D03*
Y2799730D03*
Y3099730D03*
G54D12*
X432000Y3540000D03*
X686000D03*
X940000D03*
X1194000D03*
X1448000D03*
X1702000D03*
X1956000D03*
G54D13*
X1990000Y3070000D03*
Y2990000D03*
Y2910000D03*
X2170000Y2850000D03*
G54D14*
X2210000Y3540000D03*
M02*
