G04 ================== begin FILE IDENTIFICATION RECORD ==================*
G04 Layout Name:  HY_VREF_V10_220518.brd*
G04 Film Name:    SilkScreen_Bottom*
G04 File Format:  Gerber RS274X*
G04 File Origin:  Cadence Allegro 17.2-S079*
G04 Origin Date:  Wed May 18 19:17:32 2022*
G04 *
G04 Layer:  REF DES/SILKSCREEN_BOTTOM*
G04 Layer:  PACKAGE GEOMETRY/SILKSCREEN_BOTTOM*
G04 Layer:  BOARD GEOMETRY/SILKSCREEN_BOTTOM*
G04 *
G04 Offset:    (0.0000 0.0000)*
G04 Mirror:    No*
G04 Mode:      Positive*
G04 Rotation:  0*
G04 FullContactRelief:  No*
G04 UndefLineWidth:     0.1524*
G04 ================== end FILE IDENTIFICATION RECORD ====================*
%FSLAX55Y55*MOMM*%
%IR0*IPPOS*OFA0.00000B0.00000*MIA0B0*SFA1.00000B1.00000*%
%ADD10C,.2*%
%ADD11C,.1524*%
G75*
%LPD*%
G75*
G54D10*
G01X1050000Y640000D02*
X1950000D01*
Y100000D01*
X1050000D01*
Y640000D01*
G54D11*
G01X1861000Y480000D02*
Y570000D01*
G01X1819000D02*
Y480000D01*
G01Y525000D02*
X1861000D01*
G01X1770000Y480000D02*
Y520500D01*
X1790000Y570000D01*
G01X1750000D02*
X1770000Y520500D01*
G01X1730000Y450000D02*
X1670000D01*
G01X1655000Y570000D02*
X1630000Y480000D01*
X1605000Y570000D01*
G01X1580000Y480000D02*
Y570000D01*
X1555000D01*
X1547000Y565500D01*
X1542000Y559500D01*
X1540000Y547500D01*
X1542000Y535500D01*
X1548000Y528000D01*
X1555000Y523500D01*
X1580000D01*
G01X1555000D02*
X1540000Y480000D01*
G01X1470000D02*
X1510000D01*
Y570000D01*
X1470000D01*
G01X1486000Y526500D02*
X1510000D01*
G01X1439000Y480000D02*
Y570000D01*
X1401000D01*
G01X1415000Y526500D02*
X1439000D01*
G01X1380000Y450000D02*
X1320000D01*
G01X1305000Y570000D02*
X1280000Y480000D01*
X1255000Y570000D01*
G01X1210000Y480000D02*
Y570000D01*
X1222000Y552000D01*
G01Y480000D02*
X1198000D01*
G01X1140000Y570000D02*
X1148000Y567000D01*
X1154000Y559500D01*
X1158000Y550500D01*
X1161000Y538500D01*
X1162000Y525000D01*
X1161000Y511500D01*
X1158000Y499500D01*
X1154000Y490500D01*
X1148000Y483000D01*
X1140000Y480000D01*
X1132000Y483000D01*
X1126000Y490500D01*
X1122000Y499500D01*
X1119000Y511500D01*
X1118000Y525000D01*
X1119000Y538500D01*
X1122000Y550500D01*
X1126000Y559500D01*
X1132000Y567000D01*
X1140000Y570000D01*
G01X1861000Y160000D02*
X1819000Y250000D01*
G01X1861000D02*
X1819000Y160000D01*
G01X1791000D02*
X1749000Y250000D01*
G01X1791000D02*
X1749000Y160000D01*
G01X1721000D02*
X1679000Y250000D01*
G01X1721000D02*
X1679000Y160000D01*
G01X1650000Y250000D02*
Y160000D01*
X1610000D01*
G01X1579000Y250000D02*
X1541000D01*
X1579000Y160000D01*
X1541000D01*
G01X1510000Y178000D02*
X1505000Y169000D01*
X1499000Y163000D01*
X1492000Y160000D01*
X1484000Y163000D01*
X1478000Y169000D01*
X1472000Y178000D01*
X1470000Y190000D01*
Y250000D01*
G01X1441000Y160000D02*
X1399000Y250000D01*
G01X1441000D02*
X1399000Y160000D01*
G01X1371000D02*
X1329000Y250000D01*
G01X1371000D02*
X1329000Y160000D01*
G01X1301000D02*
X1259000Y250000D01*
G01X1301000D02*
X1259000Y160000D01*
G01X1859000Y395000D02*
X1853000Y404000D01*
X1846000Y408500D01*
X1838000Y410000D01*
X1828000Y407000D01*
X1821000Y399500D01*
X1819000Y390500D01*
X1820000Y381500D01*
X1824000Y374000D01*
X1844000Y359000D01*
X1853000Y348500D01*
X1859000Y333500D01*
X1861000Y320000D01*
X1819000D01*
G01X1789000Y395000D02*
X1783000Y404000D01*
X1776000Y408500D01*
X1768000Y410000D01*
X1758000Y407000D01*
X1751000Y399500D01*
X1749000Y390500D01*
X1750000Y381500D01*
X1754000Y374000D01*
X1774000Y359000D01*
X1783000Y348500D01*
X1789000Y333500D01*
X1791000Y320000D01*
X1749000D01*
G01X1700000Y410000D02*
X1708000Y407000D01*
X1714000Y399500D01*
X1718000Y390500D01*
X1721000Y378500D01*
X1722000Y365000D01*
X1721000Y351500D01*
X1718000Y339500D01*
X1714000Y330500D01*
X1708000Y323000D01*
X1700000Y320000D01*
X1692000Y323000D01*
X1686000Y330500D01*
X1682000Y339500D01*
X1679000Y351500D01*
X1678000Y365000D01*
X1679000Y378500D01*
X1682000Y390500D01*
X1686000Y399500D01*
X1692000Y407000D01*
X1700000Y410000D01*
G01X1652000Y333500D02*
X1646000Y326000D01*
X1639000Y321500D01*
X1630000Y320000D01*
X1621000Y323000D01*
X1614000Y329000D01*
X1609000Y339500D01*
X1608000Y351500D01*
X1610000Y363500D01*
X1615000Y371000D01*
X1622000Y377000D01*
X1629000Y378500D01*
X1636000Y377000D01*
X1645000Y371000D01*
X1642000Y410000D01*
X1615000D01*
G01X1560000Y320000D02*
Y410000D01*
X1572000Y392000D01*
G01Y320000D02*
X1548000D01*
G01X1490000D02*
X1483000Y321500D01*
X1475000Y326000D01*
X1470000Y333500D01*
X1468000Y344000D01*
X1470000Y354500D01*
X1476000Y363500D01*
X1485000Y368000D01*
X1495000D01*
X1501000Y371000D01*
X1506000Y378500D01*
X1508000Y389000D01*
X1505000Y399500D01*
X1498000Y407000D01*
X1490000Y410000D01*
X1482000Y407000D01*
X1475000Y399500D01*
X1472000Y389000D01*
X1474000Y378500D01*
X1479000Y371000D01*
X1485000Y368000D01*
X1495000D01*
X1504000Y363500D01*
X1510000Y354500D01*
X1512000Y344000D01*
X1510000Y333500D01*
X1505000Y326000D01*
X1497000Y321500D01*
X1490000Y320000D01*
M02*
