G04 ================== begin FILE IDENTIFICATION RECORD ==================*
G04 Layout Name:  HY_VREF_V10_220518.brd*
G04 Film Name:    TOP*
G04 File Format:  Gerber RS274X*
G04 File Origin:  Cadence Allegro 17.2-S079*
G04 Origin Date:  Wed May 18 19:17:32 2022*
G04 *
G04 Layer:  VIA CLASS/TOP*
G04 Layer:  PIN/TOP*
G04 Layer:  ETCH/TOP*
G04 *
G04 Offset:    (0.0000 0.0000)*
G04 Mirror:    No*
G04 Mode:      Positive*
G04 Rotation:  0*
G04 FullContactRelief:  No*
G04 UndefLineWidth:     0.1524*
G04 ================== end FILE IDENTIFICATION RECORD ====================*
%FSLAX55Y55*MOMM*%
%IR0*IPPOS*OFA0.00000B0.00000*MIA0B0*SFA1.00000B1.00000*%
%ADD20R,.6X1.*%
%ADD18R,1.5X.6*%
%ADD19R,1.5X.45*%
%ADD16R,.8X.8*%
%ADD14C,.6096*%
%ADD17R,1.6X1.8*%
%ADD13C,2.2*%
%ADD15C,2.3*%
%ADD11C,1.65*%
%ADD12R,1.6X1.6*%
%ADD10C,6.9*%
%ADD21C,.4*%
%ADD22C,.5032*%
%ADD23C,.254*%
%ADD24C,.762*%
%ADD25C,3.2148*%
G75*
%LPD*%
G75*
G36*
G01X630310Y5370000D02*
X7869690D01*
G02X7883050Y5334370I-1J-20320D01*
G03X7749260Y5040000I256947J-294370D01*
G03X8140000Y4649260I390740J0D01*
G03X8434370Y4783050I0J390737D01*
G02X8470000Y4769690I15310J-13361D01*
G01Y630310D01*
G02X8434370Y616950I-20320J1D01*
G03X8140000Y750740I-294370J-256947D01*
G03X7749260Y360000I0J-390740D01*
G03X7883050Y65630I390737J0D01*
G02X7869690Y30000I-13361J-15310D01*
G01X630310D01*
G02X616950Y65630I1J20320D01*
G03X750740Y360000I-256947J294370D01*
G03X360000Y750740I-390740J0D01*
G03X65630Y616950I0J-390737D01*
G02X30000Y630310I-15310J13361D01*
G01Y2957330D01*
G02X67940Y2967450I20319J1D01*
G03X203000Y2889260I135060J77552D01*
G03Y3200740I0J155740D01*
G03X67940Y3122550I0J-155742D01*
G02X30000Y3132670I-17621J10119D01*
G01Y4287330D01*
G02X67940Y4297450I20319J1D01*
G03X203000Y4219260I135060J77552D01*
G03Y4530740I0J155740D01*
G03X67940Y4452550I0J-155742D01*
G02X30000Y4462670I-17621J10119D01*
G01Y4769690D01*
G02X65630Y4783050I20320J-1D01*
G03X360000Y4649260I294370J256947D01*
G03X750740Y5040000I0J390740D01*
G03X616950Y5334370I-390737J0D01*
G02X630310Y5370000I13361J15310D01*
G37*
%LPC*%
G75*
G36*
G01X3854260Y4746200D02*
Y4826200D01*
G02X3900000Y4871940I45740J0D01*
G01X3980000D01*
G02X4025740Y4826200I0J-45740D01*
G01Y4746200D01*
G02X4025380Y4740490I-45739J17D01*
G03X4045540Y4717640I20162J-2530D01*
G01X4146200D01*
G02X4205480Y4693080I-7J-83837D01*
G01X4212830Y4685740D01*
X4220000D01*
G02X4265740Y4640000I0J-45740D01*
G01Y4626020D01*
X4266620Y4624050D01*
G02X4273840Y4590000I-76623J-34038D01*
G02X4266620Y4555950I-83843J-12D01*
G01X4265740Y4553980D01*
Y4540000D01*
G02X4220000Y4494260I-45740J0D01*
G01X4160000D01*
G02X4114260Y4539840I0J45740D01*
G01X4114220Y4549960D01*
X3993110D01*
X3991820Y4549610D01*
G02X3980000Y4548060I-11807J44192D01*
G01X3900000D01*
G02X3888180Y4549610I-13J45742D01*
G01X3886890Y4549960D01*
X3728530D01*
X3663840Y4485270D01*
Y3840000D01*
G02X3639280Y3780720I-83837J7D01*
G01X3568570Y3710000D01*
X3629280Y3649280D01*
G02X3653840Y3590000I-59277J-59287D01*
G01Y3259310D01*
X3654190Y3258020D01*
G02X3655740Y3246200I-44192J-11807D01*
G01Y3228240D01*
X3879260D01*
Y3250000D01*
G02X3925000Y3295740I45740J0D01*
G01X4084260D01*
Y3345710D01*
G03X4058110Y3365180I-20320J4D01*
G02X4045000Y3363260I-13113J43820D01*
G01X3895000D01*
G02X3849260Y3409000I0J45740D01*
G01Y3469000D01*
G02X3858380Y3496410I45750J0D01*
G03Y3508590I-8130J6090D01*
G02X3849260Y3536000I36630J27410D01*
G01Y3596000D01*
G02X3858380Y3623410I45750J0D01*
G03Y3635590I-8130J6090D01*
G02X3849260Y3663000I36630J27410D01*
G01Y3723000D01*
G02X3858380Y3750410I45750J0D01*
G03Y3762590I-8130J6090D01*
G02X3849260Y3790000I36630J27410D01*
G01Y3850000D01*
G02X3895000Y3895740I45740J0D01*
G01X4045000D01*
G02X4090740Y3850000I0J-45740D01*
G01Y3790000D01*
G02X4087360Y3772730I-45743J-13D01*
G01X4086600Y3770890D01*
Y3758740D01*
X4110000D01*
G02X4156490Y3739490I8J-65743D01*
G01X4196490Y3699490D01*
G02X4215740Y3653000I-46493J-46482D01*
G01Y3200000D01*
G02X4196490Y3153510I-65743J-8D01*
G01X4158990Y3116010D01*
G02X4128440Y3098720I-46481J46493D01*
G01X4120740Y3096800D01*
Y3075000D01*
G02X4119630Y3065000I-45738J15D01*
G02X4120740Y3055000I-44628J-10015D01*
G01Y3010000D01*
G02X4075000Y2964260I-45740J0D01*
G01X3925000D01*
G02X3879260Y3010000I0J45740D01*
G01Y3055000D01*
G02X3880370Y3065000I45738J-15D01*
G02X3879260Y3075000I44628J10015D01*
G01Y3096760D01*
X3655740D01*
Y3013800D01*
G02X3610000Y2968060I-45740J0D01*
G01X3530000D01*
G02X3484260Y3013800I0J45740D01*
G01Y3093800D01*
G02X3495150Y3123420I45727J0D01*
G03Y3136580I-7745J6580D01*
G02X3484260Y3166200I34837J29620D01*
G01Y3246200D01*
G02X3485810Y3258020I45742J13D01*
G01X3486160Y3259310D01*
Y3555270D01*
X3415270Y3626160D01*
X2496300D01*
X2495620Y3616730D01*
G02X2450000Y3574260I-45620J3267D01*
G01X2290000D01*
G02X2244260Y3620000I0J45740D01*
G01Y3800000D01*
G02X2247120Y3815930I45742J9D01*
G01X2247760Y3817640D01*
Y3844260D01*
X2231570D01*
G03X2212630Y3816580I-1J-20319D01*
G02X2215740Y3800000I-42641J-16580D01*
G01Y3620000D01*
G02X2170000Y3574260I-45740J0D01*
G01X2010000D01*
G02X1964380Y3616730I0J45737D01*
G01X1963700Y3626160D01*
X1262140D01*
G02X1125000Y3549260I-137140J83835D01*
G02Y3870740I0J160740D01*
G02X1262140Y3793840I0J-160735D01*
G01X1963700D01*
X1964380Y3803270D01*
G02X2010000Y3845740I45620J-3267D01*
G01X2052230D01*
G03X2071170Y3873420I1J20319D01*
G02X2068060Y3890000I42641J16580D01*
G01Y3970000D01*
G02X2077400Y3997700I45745J0D01*
G03Y4022300I-16173J12300D01*
G02X2068060Y4050000I36405J27700D01*
G01Y4130000D01*
G02X2113800Y4175740I45740J0D01*
G01X2346200D01*
G02X2391940Y4130000I0J-45740D01*
G01Y4050000D01*
G02X2382600Y4022300I-45745J0D01*
G03Y3997700I16173J-12300D01*
G02X2391940Y3970000I-36405J-27700D01*
G01Y3890000D01*
G02X2388830Y3873420I-45751J0D01*
G03X2407770Y3845740I18939J-7361D01*
G01X2450000D01*
G02X2495620Y3803270I0J-45737D01*
G01X2496300Y3793840D01*
X3415270D01*
X3496160Y3874730D01*
Y4520000D01*
G02X3520720Y4579280I83837J-7D01*
G01X3634520Y4693080D01*
G02X3693800Y4717640I59287J-59277D01*
G01X3834460D01*
G03X3854620Y4740490I-2J20320D01*
G02X3854260Y4746200I45379J5727D01*
G37*
G36*
G01X4214260Y4780000D02*
Y4880000D01*
G02X4260000Y4925740I45740J0D01*
G01X4320000D01*
G02X4365740Y4880000I0J-45740D01*
G01Y4780000D01*
G02X4320000Y4734260I-45740J0D01*
G01X4260000D01*
G02X4214260Y4780000I0J45740D01*
G37*
G36*
G01X1046160Y1794730D02*
Y3089920D01*
G02X964260Y3230000I78845J140080D01*
G02X1285740I160740J0D01*
G02X1213840Y3096040I-160743J0D01*
G01Y1760000D01*
G02X1189280Y1700720I-83837J7D01*
G01X1074280Y1585720D01*
G02X1015000Y1561160I-59287J59277D01*
G01X486250D01*
X484280Y1553540D01*
G02X440000Y1519260I-44280J11459D01*
G01X280000D01*
G02X234260Y1565000I0J45740D01*
G01Y1725000D01*
G02X280000Y1770740I45740J0D01*
G01X291830D01*
Y1786250D01*
X287420Y1789280D01*
G02X231760Y1895000I72572J105720D01*
G02X488240I128240J0D01*
G02X432580Y1789280I-128232J0D01*
G01X428170Y1786250D01*
Y1770740D01*
X440000D01*
G02X484280Y1736460I0J-45739D01*
G01X486250Y1728840D01*
X980270D01*
X1046160Y1794730D01*
G37*
G36*
G01X4389260Y3505740D02*
Y3850000D01*
G02X4435000Y3895740I45740J0D01*
G01X4585000D01*
G02X4630740Y3850000I0J-45740D01*
G01Y3631740D01*
X4664000D01*
G02X4710490Y3612490I8J-65743D01*
G01X4726920Y3596050D01*
G03X4744260Y3603240I7180J7188D01*
G01Y3696200D01*
G02X4790000Y3741940I45740J0D01*
G01X4870000D01*
G02X4915740Y3696200I0J-45740D01*
G01Y3463800D01*
G02X4914190Y3451980I-45742J-13D01*
G01X4913840Y3450690D01*
Y3389310D01*
X4914190Y3388020D01*
G02X4915740Y3376200I-44192J-11807D01*
G01Y3292140D01*
G03X4937270Y3271860I20319J3D01*
G02X4940000Y3271940I2704J-45661D01*
G01X5020000D01*
G02X5031820Y3270390I13J-45742D01*
G01X5033110Y3270040D01*
X7303800D01*
G02X7363080Y3245480I-7J-83837D01*
G01X7439280Y3169280D01*
G02X7463840Y3110000I-59277J-59287D01*
G01Y1454730D01*
X7521550Y1397020D01*
X8013750D01*
X8015720Y1404640D01*
G02X8060000Y1438920I44280J-11459D01*
G01X8071830D01*
Y1454430D01*
X8067420Y1457460D01*
G02X8011760Y1563180I72572J105720D01*
G02X8268240I128240J0D01*
G02X8212580Y1457460I-128232J0D01*
G01X8208170Y1454430D01*
Y1438920D01*
X8220000D01*
G02X8265740Y1393180I0J-45740D01*
G01Y1233180D01*
G02X8220000Y1187440I-45740J0D01*
G01X8060000D01*
G02X8015720Y1221720I0J45739D01*
G01X8013750Y1229340D01*
X7486820D01*
G02X7427540Y1253900I7J83837D01*
G01X7320720Y1360720D01*
G02X7296160Y1420000I59277J59287D01*
G01Y3075270D01*
X7269070Y3102360D01*
X5065740D01*
Y2993800D01*
G02X5020000Y2948060I-45740J0D01*
G01X4940000D01*
G02X4937270Y2948140I-26J45741D01*
G03X4915740Y2927860I-1211J-20283D01*
G01Y2833800D01*
G02X4870000Y2788060I-45740J0D01*
G01X4790000D01*
G02X4744260Y2833800I0J45740D01*
G01Y2966760D01*
X4569990D01*
X4568530Y2966310D01*
G02X4555000Y2964260I-13540J43689D01*
G01X4405000D01*
G02X4391470Y2966310I10J45739D01*
G01X4390010Y2966760D01*
X4370000D01*
G02X4323510Y2986010I-8J65743D01*
G01X4283510Y3026010D01*
G02X4264260Y3072500I46493J46482D01*
G01Y3410000D01*
G02X4283510Y3456490I65743J8D01*
G01X4313510Y3486490D01*
G02X4360000Y3505740I46482J-46493D01*
G01X4389260D01*
G37*
G36*
G01X4564260Y4717640D02*
Y4826200D01*
G02X4610000Y4871940I45740J0D01*
G01X4690000D01*
G02X4735740Y4826200I0J-45740D01*
G01Y4717640D01*
X7366200D01*
G02X7425480Y4693080I-7J-83837D01*
G01X7509280Y4609280D01*
G02X7533840Y4550000I-59277J-59287D01*
G01Y3910930D01*
X7560930Y3883840D01*
X8014560D01*
X8016980Y3890550D01*
G02X8060000Y3920740I43020J-15556D01*
G01X8071830D01*
Y3936250D01*
X8067420Y3939280D01*
G02X8011760Y4045000I72572J105720D01*
G02X8268240I128240J0D01*
G02X8212580Y3939280I-128232J0D01*
G01X8208170Y3936250D01*
Y3920740D01*
X8220000D01*
G02X8265740Y3875000I0J-45740D01*
G01Y3715000D01*
G02X8220000Y3669260I-45740J0D01*
G01X8060000D01*
G02X8014860Y3707640I0J45735D01*
G01X8013470Y3716160D01*
X7526200D01*
G02X7466920Y3740720I7J83837D01*
G01X7390720Y3816920D01*
G02X7366160Y3876200I59277J59287D01*
G01Y4515270D01*
X7331470Y4549960D01*
X4703110D01*
X4701820Y4549610D01*
G02X4690000Y4548060I-11807J44192D01*
G01X4610000D01*
G02X4598180Y4549610I-13J45742D01*
G01X4596890Y4549960D01*
X4465780D01*
X4465740Y4539840D01*
G02X4420000Y4494260I-45740J160D01*
G01X4360000D01*
G02X4314260Y4540000I0J45740D01*
G01Y4553980D01*
X4313380Y4555950D01*
G02X4306160Y4590000I76623J34038D01*
G02X4313380Y4624050I83843J12D01*
G01X4314260Y4626020D01*
Y4640000D01*
G02X4360000Y4685740I45740J0D01*
G01X4367170D01*
X4374520Y4693080D01*
G02X4433800Y4717640I59287J-59277D01*
G01X4564260D01*
G37*
G54D25*
X1125000Y4190000D03*
%LPD*%
G75*
G54D10*
X360000Y360000D03*
Y5040000D03*
X8140000Y360000D03*
Y5040000D03*
G54D11*
X360000Y1895000D03*
X8140000Y1563180D03*
Y4045000D03*
G54D20*
X4390000Y4590000D03*
X4190000D03*
X4290000Y4830000D03*
G54D21*
G01X4000000Y3162500D02*
X3613700D01*
X3570000Y3206200D01*
G01X4480000Y3032500D02*
X4370000D01*
X4330000Y3072500D01*
Y3410000D01*
X4360000Y3440000D01*
X4509000D01*
X4510000Y3439000D01*
G01X3970000Y3693000D02*
X4110000D01*
X4150000Y3653000D01*
Y3200000D01*
X4112500Y3162500D01*
X4000000D01*
G01X4480000Y3032500D02*
X4823700D01*
X4830000Y3026200D01*
G01X4703800Y3183800D02*
X4617500Y3097500D01*
X4480000D01*
G01X4830000Y3183800D02*
X4703800D01*
G01X4980000Y3166200D02*
X4962400Y3183800D01*
G01X4703800D02*
X4700000Y3187600D01*
Y3530000D01*
X4664000Y3566000D01*
X4510000D01*
G54D12*
X360000Y1645000D03*
X8140000Y1313180D03*
Y3795000D03*
G54D22*
G01X221600Y1895000D02*
X360000D01*
G01X203000Y2879100D02*
Y3045000D01*
G01D02*
Y3210900D01*
G01Y3045000D02*
X368900D01*
G01X203000Y4209100D02*
Y4375000D01*
G01D02*
Y4540900D01*
G01Y4375000D02*
X368900D01*
G01X360000Y360000D02*
Y760900D01*
G01Y360000D02*
X760900D01*
G01X360000Y1895000D02*
Y2033400D01*
G01Y1895000D02*
X498400D01*
G01X360000Y4639100D02*
Y5040000D01*
G01D02*
X760900D01*
G01X2306200Y4090000D02*
Y4185900D01*
G01Y4090000D02*
X2402100D01*
G01X3869100Y3032500D02*
X4000000D01*
G01X3570000Y2957900D02*
Y3053800D01*
G01X3474100D02*
X3570000D01*
G01D02*
X3665900D01*
G01X3839100Y3439000D02*
X3970000D01*
G01X3844100Y4786200D02*
X3940000D01*
G01X4000000Y2954100D02*
Y3032500D01*
G01D02*
X4130900D01*
G01X3970000Y3353100D02*
Y3439000D01*
G01X3940000Y4786200D02*
Y4882100D01*
G01Y4786200D02*
X4035900D01*
G01X4290000Y4724100D02*
Y4830000D01*
G01D02*
Y4935900D01*
G01X4204100Y4830000D02*
X4290000D01*
G01D02*
X4375900D01*
G01X4830000Y2777900D02*
Y2873800D01*
G01X4734100D02*
X4830000D01*
G01D02*
X4925900D01*
G01X4830000Y3656200D02*
Y3752100D01*
G01X4734100Y3656200D02*
X4830000D01*
G01D02*
X4925900D01*
G01X4650000Y4786200D02*
Y4882100D01*
G01X4554100Y4786200D02*
X4650000D01*
G01D02*
X4745900D01*
G01X4980000Y2937900D02*
Y3033800D01*
G01D02*
X5075900D01*
G01X7739100Y360000D02*
X8140000D01*
G01X8001600Y1563180D02*
X8140000D01*
G01X8001600Y4045000D02*
X8140000D01*
G01X7739100Y5040000D02*
X8140000D01*
G01Y360000D02*
Y760900D01*
G01Y1563180D02*
Y1701580D01*
G01Y1563180D02*
X8278400D01*
G01X8140000Y4045000D02*
Y4183400D01*
G01Y4045000D02*
X8278400D01*
G01X8140000Y4639100D02*
Y5040000D01*
G54D13*
X203000Y3045000D03*
Y4375000D03*
G54D23*
G01X2306200Y3930000D02*
Y3773800D01*
X2370000Y3710000D01*
G01X2153800Y3930000D02*
Y4090000D01*
G54D14*
X736080Y1457140D03*
X336080D03*
X736080Y1057140D03*
X336080D03*
X736080Y1857140D03*
Y2257140D03*
X336080D03*
X736080Y3057140D03*
Y2657140D03*
X336080D03*
X736080Y3457140D03*
X336080D03*
X736080Y3857140D03*
X336080D03*
X736080Y4657140D03*
Y4257140D03*
X1136080Y257140D03*
Y657140D03*
Y1457140D03*
Y1057140D03*
Y3457140D03*
Y4657140D03*
Y5057140D03*
X1536080Y257140D03*
Y657140D03*
Y1457140D03*
Y1057140D03*
Y1857140D03*
Y2257140D03*
Y3057140D03*
Y2657140D03*
Y3457140D03*
Y3857140D03*
Y4657140D03*
Y4257140D03*
Y5057140D03*
X2336080Y257140D03*
X1936080D03*
X2336080Y657140D03*
X1936080D03*
X2336080Y1457140D03*
X1936080D03*
X2336080Y1057140D03*
X1936080D03*
X2336080Y1857140D03*
X1936080D03*
X2336080Y2257140D03*
X1936080D03*
X2336080Y3057140D03*
X1936080D03*
X2336080Y2657140D03*
X1936080D03*
X2336080Y3457140D03*
X1936080D03*
Y3857140D03*
X2336080Y4657140D03*
X1936080D03*
X2336080Y4257140D03*
X1936080D03*
X2336080Y5057140D03*
X1936080D03*
X2736080Y257140D03*
Y657140D03*
Y1457140D03*
Y1057140D03*
Y1857140D03*
Y2257140D03*
Y3057140D03*
Y2657140D03*
Y3457140D03*
Y3857140D03*
Y4657140D03*
Y4257140D03*
Y5057140D03*
X3136080Y257140D03*
Y657140D03*
Y1457140D03*
Y1057140D03*
Y1857140D03*
Y2257140D03*
Y3057140D03*
Y2657140D03*
Y3457140D03*
Y3857140D03*
Y4657140D03*
Y4257140D03*
Y5057140D03*
X3536080Y257140D03*
Y657140D03*
Y1457140D03*
Y1057140D03*
Y1857140D03*
Y2257140D03*
Y2657140D03*
X3736080Y3057140D03*
Y3457140D03*
Y3857140D03*
X3536080Y4657140D03*
Y5057140D03*
X4336080Y257140D03*
X3936080D03*
X4336080Y657140D03*
X3936080D03*
X4336080Y1457140D03*
X3936080D03*
X4336080Y1057140D03*
X3936080D03*
X4336080Y1857140D03*
X3936080D03*
X4336080Y2257140D03*
X3936080D03*
X4336080Y2657140D03*
X3936080D03*
X4220000Y3060000D03*
X4240000Y3450000D03*
X4336080Y3857140D03*
Y4257140D03*
X3936080D03*
X4336080Y5057140D03*
X3936080D03*
X4736080Y257140D03*
Y657140D03*
Y1457140D03*
Y1057140D03*
Y1857140D03*
Y2257140D03*
Y2657140D03*
Y3857140D03*
Y4257140D03*
Y5057140D03*
X5136080Y257140D03*
Y657140D03*
Y1457140D03*
Y1057140D03*
Y1857140D03*
Y2257140D03*
Y3057140D03*
Y2657140D03*
Y3457140D03*
Y3857140D03*
Y4257140D03*
Y5057140D03*
X5936080Y257140D03*
X5536080D03*
X5936080Y657140D03*
X5536080D03*
X5936080Y1457140D03*
X5536080D03*
X5936080Y1057140D03*
X5536080D03*
X5936080Y1857140D03*
X5536080D03*
X5936080Y2257140D03*
X5536080D03*
X5936080Y3057140D03*
X5536080D03*
X5936080Y2657140D03*
X5536080D03*
X5936080Y3457140D03*
X5536080D03*
X5936080Y3857140D03*
X5536080D03*
X5936080Y4257140D03*
X5536080D03*
X5936080Y5057140D03*
X5536080D03*
X6336080Y257140D03*
Y657140D03*
Y1457140D03*
Y1057140D03*
Y1857140D03*
Y2257140D03*
Y3057140D03*
Y2657140D03*
Y3457140D03*
Y3857140D03*
Y4257140D03*
Y5057140D03*
X6736080Y257140D03*
Y657140D03*
Y1457140D03*
Y1057140D03*
Y1857140D03*
Y2257140D03*
Y3057140D03*
Y2657140D03*
Y3457140D03*
Y3857140D03*
Y4257140D03*
Y5057140D03*
X7536080Y257140D03*
X7136080D03*
X7536080Y657140D03*
X7136080D03*
X7536080Y1457140D03*
X7136080D03*
X7536080Y1057140D03*
X7136080D03*
X7536080Y1857140D03*
X7136080D03*
X7536080Y2257140D03*
X7136080D03*
X7536080Y3057140D03*
X7136080D03*
X7536080Y2657140D03*
X7136080D03*
X7536080Y3457140D03*
X7136080D03*
Y3857140D03*
Y4257140D03*
X7536080Y5057140D03*
X7136080D03*
X7936080Y1457140D03*
Y1057140D03*
Y1857140D03*
Y2257140D03*
Y3057140D03*
Y2657140D03*
Y3457140D03*
Y4657140D03*
Y4257140D03*
G54D24*
G01X1125000Y3230000D02*
X1130000Y3225000D01*
Y1760000D01*
X1015000Y1645000D01*
X360000D01*
G01X1125000Y3710000D02*
X2090000D01*
G01X3450000D02*
X2370000D01*
G01X3570000Y3206200D02*
Y3590000D01*
X3450000Y3710000D01*
G01X3940000Y4633800D02*
X3693800D01*
X3580000Y4520000D01*
Y3840000D01*
X3450000Y3710000D01*
G01X3940000Y4633800D02*
X4146200D01*
X4190000Y4590000D01*
G01X4650000Y4633800D02*
X4433800D01*
X4390000Y4590000D01*
G01X4830000Y3336200D02*
Y3503800D01*
G01X4962400Y3183800D02*
X4977600D01*
X4980000Y3186200D01*
G01X4830000Y3183800D02*
X4962400D01*
G01X8140000Y3795000D02*
X8135000Y3800000D01*
X7526200D01*
X7450000Y3876200D01*
Y4550000D01*
X7366200Y4633800D01*
X4650000D01*
G01X8140000Y1313180D02*
X7486820D01*
X7380000Y1420000D01*
Y3110000D01*
X7303800Y3186200D01*
X4980000D01*
G54D15*
X1125000Y3710000D03*
Y3230000D03*
Y4190000D03*
G54D16*
X2306200Y3930000D03*
X2153800D03*
Y4090000D03*
X2306200D03*
X3570000Y3053800D03*
Y3206200D03*
X3940000Y4633800D03*
Y4786200D03*
X4830000Y3026200D03*
Y2873800D03*
X4980000Y3033800D03*
X4830000Y3183800D03*
Y3336200D03*
Y3503800D03*
X4980000Y3186200D03*
X4830000Y3656200D03*
X4650000Y4633800D03*
Y4786200D03*
G54D17*
X2370000Y3710000D03*
X2090000D03*
G54D18*
X3970000Y3439000D03*
Y3566000D03*
Y3693000D03*
Y3820000D03*
X4510000Y3566000D03*
Y3439000D03*
Y3820000D03*
Y3693000D03*
G54D19*
X4480000Y3097500D03*
Y3032500D03*
X4000000D03*
Y3097500D03*
X4480000Y3227500D03*
Y3162500D03*
X4000000D03*
Y3227500D03*
M02*
