G04 ================== begin FILE IDENTIFICATION RECORD ==================*
G04 Layout Name:  H:/github/MBED-TOOLS/HARDWARE/CP2104_TEST_V10/PCB/CP2104_TEST_V10.brd*
G04 Film Name:    BOTTOM*
G04 File Format:  Gerber RS274X*
G04 File Origin:  Cadence Allegro 17.2-S067*
G04 Origin Date:  Sat Sep 19 10:08:32 2020*
G04 *
G04 Layer:  ETCH/BOTTOM*
G04 Layer:  PIN/BOTTOM*
G04 Layer:  VIA CLASS/BOTTOM*
G04 *
G04 Offset:    (0.0000 0.0000)*
G04 Mirror:    No*
G04 Mode:      Positive*
G04 Rotation:  0*
G04 FullContactRelief:  No*
G04 UndefLineWidth:     0.1524*
G04 ================== end FILE IDENTIFICATION RECORD ====================*
%FSLAX55Y55*MOMM*%
%IR0*IPPOS*OFA0.00000B0.00000*MIA0B0*SFA1.00000B1.00000*%
%ADD13C,.508*%
%ADD15R,.6X.5*%
%ADD14C,1.3*%
%ADD10C,3.3*%
%ADD12C,1.6*%
%ADD18C,1.8*%
%ADD16R,1.3X1.3*%
%ADD11R,1.6X1.6*%
%ADD17R,1.8X1.8*%
%ADD19C,.2032*%
%ADD20C,1.8004*%
G75*
%LPD*%
G75*
G36*
G01X100000Y1580000D02*
X3200000D01*
X3380000Y1400000D01*
Y1313010D01*
G02X3345400Y1298560I-20320J7D01*
G03X3250000Y1337740I-95400J-96555D01*
G03X3164670Y1307560I6J-135738D01*
G02X3134710Y1312520I-12774J15804D01*
G03X3074550Y1345690I-60160J-37971D01*
G03X3003410Y1274550I0J-71140D01*
G01Y1174020D01*
X2995130Y1165740D01*
X2178950D01*
X2175740Y1168950D01*
Y1330000D01*
G03X2155900Y1367700I-45739J0D01*
G01Y1395880D01*
X2157800Y1398540D01*
G03X2171140Y1440000I-57786J41469D01*
G03X2028860I-71140J0D01*
G03X2042200Y1398540I71126J9D01*
G01X2044100Y1395880D01*
Y1367700D01*
G03X2024260Y1330000I25899J-37700D01*
G01Y1285740D01*
X1975740D01*
Y1330000D01*
G03X1955900Y1367700I-45739J0D01*
G01Y1395880D01*
X1957800Y1398540D01*
G03X1971140Y1440000I-57786J41469D01*
G03X1828860I-71140J0D01*
G03X1842200Y1398540I71126J9D01*
G01X1844100Y1395880D01*
Y1367700D01*
G03X1824260Y1330000I25899J-37700D01*
G01Y1021050D01*
X1891050Y954260D01*
X2931050D01*
X2934260Y951050D01*
Y341050D01*
X2971050Y304260D01*
X3058950D01*
X3095740Y341050D01*
Y622860D01*
X3134400D01*
G03X3250000Y558260I115600J71132D01*
G03X3345400Y597440I0J135735D01*
G02X3380000Y582990I14280J-14457D01*
G01Y200000D01*
X3200000Y20000D01*
X100000D01*
X20000Y100000D01*
Y1500000D01*
X100000Y1580000D01*
G37*
G36*
G01X1910000Y1000000D02*
X1870000Y1040000D01*
Y1240000D01*
X2130000D01*
Y1150000D01*
X2160000Y1120000D01*
X3020000D01*
X3050000Y1090000D01*
Y360000D01*
X3040000Y350000D01*
X2990000D01*
X2980000Y360000D01*
Y970000D01*
X2950000Y1000000D01*
X1910000D01*
G37*
%LPC*%
G75*
G36*
G01X1304260Y1401050D02*
Y1508950D01*
X1351050Y1555740D01*
X1718950D01*
X1795740Y1478950D01*
Y451260D01*
G03X1814710Y430980I20321J-4D01*
G02X1854000Y415900I-4705J-70983D01*
G01X2266000D01*
G02X2310000Y431140I44000J-55897D01*
G02X2381140Y360000I0J-71140D01*
G02X2380310Y349160I-71140J-5D01*
G03X2400390Y325740I20081J-3101D01*
G01X2694260D01*
Y648950D01*
X2741050Y695740D01*
X2868950D01*
X2905740Y658950D01*
Y181050D01*
X2828950Y104260D01*
X1681050D01*
X1574260Y211050D01*
Y1351050D01*
X1571050Y1354260D01*
X1351050D01*
X1304260Y1401050D01*
G37*
G36*
G01X1095500Y603420D02*
G03X1064500I-15500J-13135D01*
G02X980000Y564260I-84500J71588D01*
G02Y785740I0J110740D01*
G02X1064500Y746580I0J-110748D01*
G03X1095500I15500J13135D01*
G02X1180000Y785740I84500J-71588D01*
G02Y564260I0J-110740D01*
G02X1095500Y603420I0J110748D01*
G37*
G36*
G01X719700Y1020300D02*
X819700Y1120300D01*
G02X870000Y1141140I50300J-50283D01*
G01X1035000D01*
G02X1085300Y1120300I0J-71123D01*
G01X1169870Y1035740D01*
X1245000D01*
G02X1290740Y990000I0J-45740D01*
G01Y860000D01*
G02X1245000Y814260I-45740J0D01*
G01X1115000D01*
G02X1069260Y860000I0J45740D01*
G01Y935130D01*
X1005530Y998860D01*
X899470D01*
X841140Y940530D01*
Y540000D01*
G02X820300Y489700I-71123J0D01*
G01X730300Y399700D01*
G02X680000Y378860I-50306J50297D01*
G01X605960D01*
X605730Y368940D01*
G02X560000Y324260I-45730J1062D01*
G01X400000D01*
G02X354260Y370000I0J45740D01*
G01Y530000D01*
G02X400000Y575740I45740J0D01*
G01X416340D01*
Y591430D01*
X411700Y594430D01*
G02X354260Y700000I68294J105570D01*
G02X388350Y786090I125750J0D01*
G03Y813910I-14809J13910D01*
G02X354260Y900000I91660J86090D01*
G02X605740I125740J0D01*
G02X571650Y813910I-125750J0D01*
G03Y786090I14809J-13910D01*
G02X605740Y700000I-91660J-86090D01*
G02X548300Y594430I-125734J0D01*
G01X543660Y591430D01*
Y575740D01*
X560000D01*
G02X605730Y531060I0J-45742D01*
G01X605960Y521140D01*
X650530D01*
X698860Y569470D01*
Y970000D01*
G02X719700Y1020300I71123J0D01*
G37*
G54D20*
X240000Y575000D03*
Y1025000D03*
%LPD*%
G75*
G36*
G01X1370000Y1510000D02*
X1700000D01*
X1750000Y1460000D01*
Y398220D01*
G03X1738860Y360000I59994J-38220D01*
G03X1765520Y304480I71141J0D01*
G01X1790000Y280000D01*
X2720000D01*
X2740000Y300000D01*
Y630000D01*
X2760000Y650000D01*
X2850000D01*
X2860000Y640000D01*
Y200000D01*
X2810000Y150000D01*
X1700000D01*
X1620000Y230000D01*
Y1370000D01*
X1590000Y1400000D01*
X1370000D01*
X1350000Y1420000D01*
Y1490000D01*
X1370000Y1510000D01*
G37*
G54D10*
X709000Y198000D03*
X280000Y200000D03*
X709000Y1402000D03*
X280000Y1400000D03*
G54D11*
X480000Y450000D03*
G54D12*
Y700000D03*
Y900000D03*
Y1150000D03*
G54D13*
G01Y450000D02*
X680000D01*
X770000Y540000D01*
Y970000D01*
X870000Y1070000D01*
X1035000D01*
X1180000Y925000D01*
G01X3020000Y700000D02*
X3026000Y694000D01*
G01D02*
X3250000D01*
G01X3020000Y1090000D02*
X3074550Y1144550D01*
Y1274550D01*
X90000Y570000D03*
Y1110000D03*
X1500000Y740000D03*
X1530000Y580000D03*
X1330000D03*
Y360000D03*
Y70000D03*
X1730000Y60000D03*
Y200000D03*
X1810000D03*
Y360000D03*
X1280000Y1530000D03*
Y1210000D03*
X1850000Y860000D03*
X1350000Y900000D03*
X1530000D03*
X1460000Y1450000D03*
X1380000D03*
X1540000D03*
X1620000D03*
X1900000Y1440000D03*
X2100000Y610000D03*
X2000000Y710000D03*
X2100000D03*
X2200000D03*
X2000000Y610000D03*
X2200000D03*
X2000000Y510000D03*
X2100000D03*
X2200000D03*
X2410000Y550000D03*
X2380000Y70000D03*
X2580000D03*
X2810000D03*
X2790000Y800000D03*
X2010000Y60000D03*
X3010000Y530000D03*
Y460000D03*
Y390000D03*
X2770000Y620000D03*
X2833500D03*
Y540000D03*
X2770000D03*
X2310000Y360000D03*
X2670000Y900000D03*
X2520000D03*
X2370000D03*
X2690000Y1260000D03*
X3080000Y1530000D03*
X2580000D03*
X2080000D03*
X3074550Y1274550D03*
X2360000Y1090000D03*
X2550000Y1040000D03*
X2100000Y1440000D03*
X3340000Y250000D03*
G54D14*
X1180000Y675000D03*
X980000D03*
Y925000D03*
G54D15*
X1900000Y1215000D03*
Y1305000D03*
X2100000Y1215000D03*
Y1305000D03*
G54D16*
X1180000Y925000D03*
G54D17*
X3250000Y440000D03*
G54D18*
Y694000D03*
Y1202000D03*
Y948000D03*
G54D19*
G01X2310000Y360000D02*
X1810000D01*
G01X1900000Y1440000D02*
Y1305000D01*
G01X2100000Y1440000D02*
Y1305000D01*
M02*
