M48
METRIC,TZ
T01C.254
T02C.8
T03C.9
T04C1.1
T05C2.3
;LEADER: 12 
;HEADER: 
;CODE  : ASCII 
;FILE  : CP2104_TEST_V10-1-2.drl for board H:/github/MBED-TOOLS/HARDWARE/CP2104_TEST_V10/PCB/#Taaaacc11092.tmp ... layers TOP and BOTTOM
;T01 Holesize 1. = 0.254000 Tolerance = +0.000000/-0.000000 PLATED MM Quantity = 56
;T02 Holesize 2. = 0.800000 Tolerance = +0.000000/-0.000000 PLATED MM Quantity = 4
;T03 Holesize 3. = 0.900000 Tolerance = +0.000000/-0.000000 PLATED MM Quantity = 4
;T04 Holesize 4. = 1.100000 Tolerance = +0.000000/-0.000000 PLATED MM Quantity = 4
;T05 Holesize 5. = 2.300000 Tolerance = +0.000000/-0.000000 PLATED MM Quantity = 4
%
G90
T01
X90000Y570000
X90000Y1110000
X1280000Y1530000
X1460000Y1450000
X1380000Y1450000
X1280000Y1210000
X1350000Y900000
X1500000Y740000
X1330000Y580000
X1330000Y360000
X1330000Y70000
X1730000Y60000
X2010000Y60000
X1730000Y200000
X1810000Y200000
X1810000Y360000
X2000000Y510000
X1530000Y580000
X2000000Y610000
X2000000Y710000
X1850000Y860000
X1530000Y900000
X1900000Y1440000
X1540000Y1450000
X1620000Y1450000
X2080000Y1530000
X2100000Y1440000
X2360000Y1090000
X2520000Y900000
X2370000Y900000
X2200000Y710000
X2100000Y710000
X2200000Y610000
X2100000Y610000
X2410000Y550000
X2200000Y510000
X2100000Y510000
X2310000Y360000
X2380000Y70000
X2580000Y70000
X2810000Y70000
X3010000Y390000
X3010000Y460000
X3010000Y530000
X2770000Y540000
X2833500Y540000
X2770000Y620000
X2833500Y620000
X2790000Y800000
X2670000Y900000
X2550000Y1040000
X2690000Y1260000
X2580000Y1530000
X3080000Y1530000
X3074550Y1274550
X3340000Y250000
T02
X980000Y675000
X1180000Y675000
X1180000Y925000
X980000Y925000
T03
X480000Y450000
X480000Y700000
X480000Y900000
X480000Y1150000
T04
X3250000Y440000
X3250000Y694000
X3250000Y948000
X3250000Y1202000
T05
X709000Y198000
X280000Y200000
X280000Y1400000
X709000Y1402000
M30
