G04 ================== begin FILE IDENTIFICATION RECORD ==================*
G04 Layout Name:  H:/github/MBED-TOOLS/HARDWARE/CP2104_TEST_V10/PCB/CP2104_TEST_V10.brd*
G04 Film Name:    SilkScreen_Top*
G04 File Format:  Gerber RS274X*
G04 File Origin:  Cadence Allegro 17.2-S067*
G04 Origin Date:  Sat Sep 19 10:08:32 2020*
G04 *
G04 Layer:  PACKAGE GEOMETRY/SILKSCREEN_TOP*
G04 Layer:  BOARD GEOMETRY/SILKSCREEN_TOP*
G04 *
G04 Offset:    (0.0000 0.0000)*
G04 Mirror:    No*
G04 Mode:      Positive*
G04 Rotation:  0*
G04 FullContactRelief:  No*
G04 UndefLineWidth:     0.1524*
G04 ================== end FILE IDENTIFICATION RECORD ====================*
%FSLAX55Y55*MOMM*%
%IR0*IPPOS*OFA0.00000B0.00000*MIA0B0*SFA1.00000B1.00000*%
%ADD10C,.2*%
%ADD11C,.254*%
%ADD12C,.1524*%
%ADD13C,.1778*%
G75*
%LPD*%
G75*
G36*
G01X1845000Y735000D02*
G03I-30000J0D01*
G37*
G36*
G01X1703200Y673800D02*
G03I-25400J0D01*
G37*
G36*
G01X2702000Y508600D02*
G03I-25400J0D01*
G37*
G36*
G01X2472360Y1304550D02*
G03I-22360J0D01*
G37*
G36*
G01X3380000Y440000D02*
X3430000Y390000D01*
Y490000D01*
X3380000Y440000D01*
G37*
G54D10*
G01X1890000Y450000D02*
Y400000D01*
X1940000D01*
G01Y820000D02*
X1890000D01*
Y770000D01*
G01X1670000Y435000D02*
G03Y535000I-50000J50000D01*
G01X1510000D02*
G03Y435000I50000J-50000D01*
G01X1670000D02*
X1510000D01*
G01Y535000D02*
X1670000D01*
G01X2000000Y270000D02*
G03X1900000I-50000J-50000D01*
G01Y110000D02*
G03X2000000I50000J50000D01*
G01X1900000D02*
Y270000D01*
G01X1670000Y130000D02*
G03Y250000I-77500J60000D01*
G01X1410000D02*
G03Y130000I77500J-60000D01*
G01X1670000Y250000D02*
X1410000D01*
G01Y130000D02*
X1670000D01*
G01Y290000D02*
G03Y410000I-77500J60000D01*
G01X1410000D02*
G03Y290000I77500J-60000D01*
G01X1670000Y410000D02*
X1410000D01*
G01Y290000D02*
X1670000D01*
G01X1474600Y625700D02*
G02X1525400I25400J0D01*
G01D02*
X1550800D01*
Y854300D01*
X1449200D01*
Y625700D01*
X1474600D01*
G01X1500000Y1240000D02*
G02Y1180000I0J-30000D01*
G01Y1120000D02*
G02Y1180000I0J30000D01*
G01X1350000Y960000D02*
Y1400000D01*
X1650000D01*
Y960000D01*
X1350000D01*
G01X1500000Y1240000D02*
Y1260000D01*
G01Y1100000D02*
Y1120000D01*
G01X1990000Y1059550D02*
Y1029550D01*
X1810000D01*
Y1059550D01*
G01X1990000Y1399550D02*
X1810000D01*
Y1059550D01*
X1990000D01*
Y1399550D01*
G01X2260000Y400000D02*
X2310000D01*
Y450000D01*
G01Y770000D02*
Y820000D01*
X2260000D01*
G01X2953800Y360000D02*
X3063800D01*
Y200000D01*
G01X2853800D02*
X2953800D01*
G01X2853800Y360000D02*
X2743800D01*
Y200000D01*
G01X2732400Y254600D02*
G02Y305400I0J25400D01*
G01X2719700Y229200D02*
X2732400D01*
Y254600D01*
G01X2719700Y229200D02*
X2427600D01*
Y330800D01*
X2732400D01*
Y305400D01*
G01X2000000Y270000D02*
Y110000D01*
G01X2125000Y270000D02*
G03X2025000I-50000J-50000D01*
G01Y110000D02*
G03X2125000I50000J50000D01*
G01Y270000D02*
Y110000D01*
G01X2025000D02*
Y270000D01*
G01X2250000Y280000D02*
Y100000D01*
X2150000D01*
Y280000D01*
X2250000D01*
G01X2460000Y580000D02*
G03X2580000I60000J77500D01*
G01D02*
Y840000D01*
G01X2460000D02*
Y580000D01*
G01X2615000D02*
G03X2735000I60000J77500D01*
G01D02*
Y840000D01*
G01X2615000D02*
Y580000D01*
G01X2943800D02*
G03X3063800I60000J77500D01*
G01X2943800Y840000D02*
Y580000D01*
G01X3063800D02*
Y840000D01*
G01X3120000Y307000D02*
X3380000D01*
Y1337000D01*
X3120000D01*
Y307000D01*
G01X2640000Y1339550D02*
G03X2720000I40000J0D01*
G01X2770000D01*
Y1119550D01*
X2590000D01*
Y1339550D01*
X2640000D01*
G01X3030000Y1309550D02*
G03X2930000I-50000J-50000D01*
G01Y1149550D02*
G03X3030000I50000J50000D01*
G01Y1309550D02*
Y1149550D01*
G01X2930000D02*
Y1309550D01*
G01X2310000Y1149550D02*
G03X2410000I50000J50000D01*
G01Y1309550D02*
G03X2310000I-50000J-50000D01*
G01Y1149550D02*
Y1309550D01*
G01X2410000D02*
Y1149550D01*
G01X2770000Y990000D02*
X2590000D01*
Y1090000D01*
X2770000D01*
Y990000D01*
G01X2580000Y840000D02*
G03X2460000I-60000J-77500D01*
G01X2735000D02*
G03X2615000I-60000J-77500D01*
G01X3063800D02*
G03X2943800I-60000J-77500D01*
G01X2190000Y1059550D02*
Y1029550D01*
X2010000D01*
Y1059550D01*
G01X2190000Y1399550D02*
X2010000D01*
Y1059550D01*
X2190000D01*
Y1399550D01*
G54D11*
G01X320000Y200000D02*
X-1520000D01*
Y1400000D01*
X360000D01*
Y200000D01*
X320000D01*
G01X-730000Y410000D02*
Y710000D01*
X-930000D01*
Y410000D01*
X-730000D01*
G01Y900000D02*
Y1200000D01*
X-930000D01*
Y900000D01*
X-730000D01*
G01X-40000Y200000D02*
Y1400000D01*
G54D12*
G01X1880000Y910000D02*
Y1000000D01*
X1905000D01*
X1913000Y995500D01*
X1918000Y989500D01*
X1920000Y977500D01*
X1918000Y965500D01*
X1912000Y958000D01*
X1905000Y953500D01*
X1880000D01*
G01X1905000D02*
X1920000Y910000D01*
G01X2100000Y1000000D02*
Y910000D01*
G01X2077000Y1000000D02*
X2123000D01*
G01X3245000Y96000D02*
Y116000D01*
X3272000D01*
X3281000Y110000D01*
X3287000Y103000D01*
X3290000Y93000D01*
X3287000Y83000D01*
X3281000Y76000D01*
X3272000Y70000D01*
X3261500Y66000D01*
X3249500Y64000D01*
X3239000D01*
X3230000Y66000D01*
X3219500Y70000D01*
X3210500Y76000D01*
X3204500Y82000D01*
X3200000Y90000D01*
Y97000D01*
X3203000Y105000D01*
X3209000Y111000D01*
G01X3200000Y205000D02*
X3290000Y230000D01*
X3200000Y255000D01*
G01Y1540000D02*
X3290000D01*
G01X3200000Y1517000D02*
Y1563000D01*
G01X3290000Y1380000D02*
X3200000D01*
Y1405000D01*
X3204500Y1413000D01*
X3210500Y1418000D01*
X3222500Y1420000D01*
X3234500Y1418000D01*
X3242000Y1412000D01*
X3246500Y1405000D01*
Y1380000D01*
G01Y1405000D02*
X3290000Y1420000D01*
G54D13*
G01X1963500Y1260030D02*
X1900000Y1196530D01*
X1836500Y1260030D01*
X1963500D01*
X1945720Y1242250D01*
X1861900D01*
X1874600Y1229550D01*
X1925400D01*
X1912700Y1216850D01*
X1887300D01*
G01X2163500Y1260030D02*
X2100000Y1196530D01*
X2036500Y1260030D01*
X2163500D01*
X2145720Y1242250D01*
X2061900D01*
X2074600Y1229550D01*
X2125400D01*
X2112700Y1216850D01*
X2087300D01*
M02*
