G04 ================== begin FILE IDENTIFICATION RECORD ==================*
G04 Layout Name:  H:/github/MBED-TOOLS/HARDWARE/CP2104_TEST_V10/PCB/CP2104_TEST_V10.brd*
G04 Film Name:    TOP*
G04 File Format:  Gerber RS274X*
G04 File Origin:  Cadence Allegro 17.2-S067*
G04 Origin Date:  Sat Sep 19 10:08:32 2020*
G04 *
G04 Layer:  VIA CLASS/TOP*
G04 Layer:  PIN/TOP*
G04 Layer:  ETCH/TOP*
G04 *
G04 Offset:    (0.0000 0.0000)*
G04 Mirror:    No*
G04 Mode:      Positive*
G04 Rotation:  0*
G04 FullContactRelief:  No*
G04 UndefLineWidth:     0.1524*
G04 ================== end FILE IDENTIFICATION RECORD ====================*
%FSLAX55Y55*MOMM*%
%IR0*IPPOS*OFA0.00000B0.00000*MIA0B0*SFA1.00000B1.00000*%
%ADD26R,.6X1.1*%
%ADD25R,.6X1.*%
%ADD22R,1.3X.9*%
%ADD13C,.508*%
%ADD18R,.8X.8*%
%ADD21R,2.5X1.*%
%ADD20R,.6X.4*%
%ADD16R,.5X.6*%
%ADD17R,.6X.5*%
%ADD19C,1.3*%
%ADD24R,2.7X2.7*%
%ADD15R,.8X.25*%
%ADD10C,3.3*%
%ADD14R,.25X.8*%
%ADD12C,1.6*%
%ADD28C,1.8*%
%ADD23R,1.3X1.3*%
%ADD11R,1.6X1.6*%
%ADD27R,1.8X1.8*%
%ADD29C,.2032*%
%ADD30C,.254*%
%ADD31C,1.27*%
%ADD32C,1.8004*%
G75*
%LPD*%
G75*
G36*
G01X100000Y1580000D02*
X3200000D01*
X3380000Y1400000D01*
Y1313020D01*
G02X3345400Y1298560I-20320J-3D01*
G03X3250000Y1337740I-95400J-96555D01*
G03X3207880Y1331040I0J-135745D01*
G01X3201950Y1329100D01*
X3141530Y1389530D01*
G03X3102000Y1405900I-39530J-39543D01*
G01X2910000D01*
G03X2870470Y1389530I0J-55913D01*
G01X2843740Y1362790D01*
X2795000D01*
G03X2749260Y1317050I0J-45740D01*
G01Y1292050D01*
G03X2751000Y1279550I45741J-4D01*
G03X2749280Y1268470I43999J-12504D01*
G02X2741500Y1258910I-10153J317D01*
G03X2715020Y1244080I13050J-54358D01*
G01X2685470Y1214530D01*
G03X2669100Y1175000I39543J-39530D01*
G01Y1115740D01*
X2630790D01*
G02X2610550Y1137900I-3J20320D01*
G03X2610740Y1142050I-45549J4165D01*
G01Y1167050D01*
G03X2609000Y1179550I-45741J4D01*
G03X2610740Y1192050I-44001J12496D01*
G01Y1217050D01*
G03X2598920Y1247730I-45727J0D01*
G02Y1261370I7535J6820D01*
G03X2610740Y1292050I-33907J30680D01*
G01Y1317050D01*
G03X2565000Y1362790I-45740J0D01*
G01X2516250D01*
X2479520Y1399530D01*
G03X2439990Y1415900I-39530J-39543D01*
G01X2250000D01*
G03X2214160Y1402900I0J-55904D01*
G02X2199890Y1404120I-6521J7793D01*
G03X2177640Y1418510I-34899J-29565D01*
G02X2170400Y1429740I2812J9761D01*
G03X2171140Y1440000I-70402J10234D01*
G03X2028860I-71140J0D01*
G03X2029600Y1429740I71142J-26D01*
G02X2022360Y1418510I-10052J-1469D01*
G03X2006360Y1410210I12649J-43956D01*
G02X1993640I-6360J7927D01*
G03X1977640Y1418510I-28649J-35656D01*
G02X1970400Y1429740I2812J9761D01*
G03X1971140Y1440000I-70402J10234D01*
G03X1828860I-71140J0D01*
G03X1829600Y1429740I71142J-26D01*
G02X1822360Y1418510I-10052J-1469D01*
G03X1789260Y1374550I12642J-43960D01*
G01Y1285340D01*
X1782310Y1283030D01*
G03X1760470Y1269530I17687J-53030D01*
G01X1730470Y1239530D01*
G03X1714100Y1200000I39543J-39530D01*
G01Y1010000D01*
G03X1730470Y970470I55913J0D01*
G01X1770470Y930470D01*
G03X1810000Y914100I39530J39543D01*
G01X1913030D01*
G02X1928250Y880310I4J-20321D01*
G03X1916760Y850000I34248J-30316D01*
G01Y793240D01*
X1860000D01*
G03X1814260Y747500I0J-45740D01*
G01Y736800D01*
G02X1796920Y729620I-10159J5D01*
G01X1684070Y842460D01*
X1683310Y844700D01*
G03X1640000Y875740I-43310J-14695D01*
G01X1580000D01*
G03X1546280Y860900I0J-45730D01*
G01X1453720D01*
G03X1420000Y875740I-33720J-30890D01*
G01X1360000D01*
G03X1326280Y860900I0J-45730D01*
G01X1290740D01*
Y881250D01*
X1330250Y920760D01*
X1500000D01*
G03X1552600Y934260I-4J109239D01*
G01X1625000D01*
G03X1670740Y980000I0J45740D01*
G01Y1080000D01*
G03X1625000Y1125740I-45740J0D01*
G01X1552600D01*
G03X1500000Y1139240I-52604J-95739D01*
G01X1285000D01*
G03X1207760Y1107240I7J-109237D01*
G01X1136250Y1035740D01*
X1115000D01*
G03X1069260Y990000I0J-45740D01*
G01Y860000D01*
G03X1070210Y850740I45739J14D01*
G01X1071320Y845370D01*
X1008180Y782240D01*
X1002800Y783370D01*
G03X980000Y785740I-22788J-108371D01*
G03Y564260I0J-110740D01*
G03X982920Y564300I-57J110739D01*
G02X1003780Y543990I540J-20313D01*
G01Y532830D01*
X996850Y525900D01*
X823150D01*
X795900Y553150D01*
Y770000D01*
G03X779530Y809530I-55913J0D01*
G01X729210Y859850D01*
G03X689680Y876220I-39530J-39543D01*
G01X626020D01*
G02X605700Y897020I-4J20321D01*
G03X605740Y900000I-125697J3177D01*
G03X354260I-125740J0D01*
G03X388350Y813910I125750J0D01*
G02Y786090I-14809J-13910D01*
G03X354260Y700000I91660J-86090D01*
G03X411700Y594430I125734J0D01*
G01X416340Y591430D01*
Y575740D01*
X400000D01*
G03X354260Y530000I0J-45740D01*
G01Y370000D01*
G03X400000Y324260I45740J0D01*
G01X560000D01*
G03X605740Y370000I0J45740D01*
G01Y530000D01*
G03X560000Y575740I-45740J0D01*
G01X543660D01*
Y591430D01*
X548300Y594430D01*
G03X605740Y700000I-68294J105570D01*
G03X605700Y702980I-125737J-197D01*
G02X626020Y723780I20316J479D01*
G01X643460D01*
Y513160D01*
G03X659830Y473630I55913J0D01*
G01X743630Y389830D01*
G03X783160Y373460I39530J39543D01*
G01X1036840D01*
G03X1076370Y389830I0J55913D01*
G01X1139850Y453310D01*
G03X1156220Y492840I-39543J39530D01*
G01Y543990D01*
G02X1177080Y564300I20320J-3D01*
G03X1180000Y564260I2977J110699D01*
G03X1275600Y619100I0J110747D01*
G01X1326280D01*
G03X1360000Y604260I33720J30890D01*
G01X1420000D01*
G03X1453720Y619100I0J45730D01*
G01X1546280D01*
G03X1580000Y604260I33720J30890D01*
G01X1585050D01*
G02X1592230Y586920I-6J-10159D01*
G01X1554260Y548950D01*
Y448950D01*
X1524260Y418950D01*
Y104260D01*
X1838950D01*
X1898950Y164260D01*
X1998950D01*
X2011950Y177260D01*
X2018920Y172420D01*
G03X2045000Y164260I26075J37582D01*
G01X2105000D01*
G03X2112450Y164870I5J45740D01*
G01X2113270Y165010D01*
X2124260D01*
Y120000D01*
G03X2170000Y74260I45740J0D01*
G01X2230000D01*
G03X2261040Y86400I0J45752D01*
G01X2263960Y89100D01*
X2275000D01*
G03X2314530Y105470I0J55913D01*
G01X2349530Y140470D01*
G03X2365900Y180000I-39543J39530D01*
G01Y316000D01*
G03X2381140Y360000I-55897J44000D01*
G03X2364020Y406290I-71141J0D01*
G02X2367310Y435810I15429J13224D01*
G03X2385740Y472500I-27306J36690D01*
G01Y497500D01*
G03X2384000Y510000I-45741J4D01*
G03X2385740Y522500I-44001J12496D01*
G01Y547500D01*
G03X2384000Y560000I-45741J4D01*
G03X2385470Y567510I-43997J12511D01*
G01X2386460Y576560D01*
X2437220D01*
X2440130Y571380D01*
G03X2449800Y559440I39877J22410D01*
G02X2450760Y529810I-13410J-15265D01*
G01X2445470Y524530D01*
G03X2432800Y504990I39539J-39516D01*
G03X2409260Y465000I22198J-39990D01*
G01Y355000D01*
G03X2455000Y309260I45740J0D01*
G01X2515000D01*
G03X2560740Y355000I0J45740D01*
G01Y464100D01*
X2594260D01*
Y54260D01*
X2624090D01*
X2626090Y53350D01*
G03X2645000Y49260I18906J41651D01*
G01X2705000D01*
G03X2723910Y53350I4J45741D01*
G01X2725910Y54260D01*
X2765740D01*
Y194260D01*
X2844260D01*
Y101050D01*
X2881050Y64260D01*
X3058950D01*
X3095740Y101050D01*
Y622860D01*
X3134400D01*
G03X3250000Y558260I115600J71132D01*
G03X3345400Y597440I0J135735D01*
G02X3380000Y582980I14280J-14457D01*
G01Y200000D01*
X3200000Y20000D01*
X100000D01*
X20000Y100000D01*
Y1500000D01*
X100000Y1580000D01*
G37*
G36*
G01X1884690Y330000D02*
X2019100D01*
Y297700D01*
G03X1999260Y260000I25899J-37700D01*
G01Y229260D01*
X1985610Y215610D01*
X1981240Y215720D01*
G03X1980000Y215740I-1358J-45718D01*
G01X1920000D01*
G03X1899810Y211040I5J-45739D01*
G01X1897690Y210000D01*
X1880000D01*
X1820000Y150000D01*
X1570000D01*
Y250000D01*
X1790000D01*
X1804260Y264260D01*
X1818950D01*
X1884690Y330000D01*
G37*
G36*
G01X1620000Y550000D02*
X1760950D01*
X1765470Y545470D01*
G03X1805000Y529100I39530J39543D01*
G01X1840000D01*
Y350000D01*
X1800000Y310000D01*
X1570000D01*
Y400000D01*
X1580380Y410380D01*
X1582870Y411110D01*
G03X1615740Y455000I-12867J43890D01*
G01Y515000D01*
G03X1612040Y533010I-45738J-11D01*
G01X1609340Y539340D01*
X1620000Y550000D01*
G37*
G36*
G01X1986530Y724260D02*
X2213470D01*
X2214780Y715630D01*
G03X2216000Y710000I45224J6853D01*
G03X2214260Y697500I44001J-12496D01*
G01Y672500D01*
G03X2216000Y660000I45741J-4D01*
G03X2214260Y647500I44001J-12496D01*
G01Y622500D01*
G03X2216000Y610000I45741J-4D01*
G03X2214260Y597500I44001J-12496D01*
G01Y572500D01*
G03X2216000Y560000I45741J-4D01*
G03X2214260Y547500I44001J-12496D01*
G01Y522500D01*
G03X2216000Y510000I45741J-4D01*
G03X2214780Y504370I44004J-12483D01*
G01X2213470Y495740D01*
X1986530D01*
X1985220Y504370D01*
G03X1984000Y510000I-45224J-6853D01*
G03X1985740Y522500I-44001J12496D01*
G01Y547500D01*
G03X1984000Y560000I-45741J4D01*
G03X1985740Y572500I-44001J12496D01*
G01Y597500D01*
G03X1984000Y610000I-45741J4D01*
G03X1985740Y622500I-44001J12496D01*
G01Y647500D01*
G03X1973920Y678180I-45727J0D01*
G02Y691820I7535J6820D01*
G03X1985220Y715630I-33919J30684D01*
G01X1986530Y724260D01*
G37*
G36*
G01X2460970Y974100D02*
G03X2499700Y989690I0J55903D01*
G03X2550000Y968860I50300J50317D01*
G03X2579980Y975490I-9J71138D01*
G03X2610000Y964260I30020J34510D01*
G01X2750000D01*
G03X2776750Y972900I0J45730D01*
G02X2790740Y970860I5942J-8243D01*
G03X2795470Y965470I44295J34100D01*
G01X2852470Y908470D01*
G03X2892000Y892100I39530J39543D01*
G01X3126300D01*
G03X3171110Y837540I123693J55908D01*
G02Y804460I-11805J-16540D01*
G03X3134400Y765140I78896J-110455D01*
G01X3064000D01*
G03X3013700Y744300I6J-71137D01*
G01X2995130Y725740D01*
X2594260D01*
Y714080D01*
X2581800D01*
X2579720Y715070D01*
G03X2560000Y719540I-19720J-41264D01*
G01X2480000D01*
G03X2441300Y698180I0J-45738D01*
G01X2438310Y693440D01*
X2386460D01*
X2385470Y702490D01*
G03X2384000Y710000I-45467J-5001D01*
G03X2385740Y722500I-44001J12496D01*
G01Y747500D01*
G03X2340000Y793240I-45740J0D01*
G01X2283240D01*
Y850000D01*
G03X2240410Y895650I-45743J0D01*
G02X2230900Y905790I649J10138D01*
G01Y941850D01*
X2263150Y974100D01*
X2460970D01*
G37*
G36*
G01X2975740Y680000D02*
X3050000D01*
Y120000D01*
X3040000Y110000D01*
X2900000D01*
X2890000Y120000D01*
Y220000D01*
X2870000Y240000D01*
X2868570D01*
X2865620Y242860D01*
G03X2833800Y255740I-31820J-32866D01*
G01X2773800D01*
G03X2739270Y240000I0J-45746D01*
G01X2730000D01*
X2720000Y230000D01*
Y100000D01*
X2640000D01*
Y300000D01*
X2644260Y304260D01*
X2975740D01*
Y331650D01*
X2976430Y333420D01*
G03X2979540Y350000I-42641J16580D01*
G01Y450000D01*
G03X2976430Y466580I-45751J0D01*
G01X2975740Y468350D01*
Y680000D01*
G37*
G36*
G01X2640000D02*
X2900000D01*
X2930000Y650000D01*
Y350000D01*
X2655740D01*
Y465000D01*
G03X2640000Y499530I-45746J0D01*
G01Y680000D01*
G37*
G36*
G01X3038100Y1213460D02*
G03X3074550Y1203410I36454J61089D01*
G03X3090320Y1205180I0J71137D01*
G02X3115030Y1187530I4507J-19812D01*
G03X3171110Y1091540I134967J14475D01*
G02Y1058460I-11805J-16540D01*
G03X3126300Y1003900I78883J-110468D01*
G01X2915150D01*
X2890900Y1028150D01*
Y1098730D01*
X2896320Y1101580D01*
G03X2920740Y1142050I-21324J40470D01*
G01Y1167050D01*
G03X2919000Y1179550I-45741J4D01*
G03X2920470Y1187060I-43997J12511D01*
G01X2921460Y1196110D01*
X2960000D01*
G03X2986900Y1202670I0J58433D01*
G01X2989100Y1203810D01*
X3010000D01*
G03X3038100Y1213460I0J45737D01*
G37*
G36*
G01X2273150Y1304100D02*
X2416840D01*
X2440760Y1280170D01*
X2441520Y1277860D01*
G03X2441950Y1276580I43570J13924D01*
G01X2442550Y1274920D01*
Y1262990D01*
X2380000D01*
G03X2353100Y1256430I0J-58433D01*
G01X2350900Y1255290D01*
X2330000D01*
G03X2299690Y1243800I6J-45738D01*
G02X2265900Y1259020I-13469J15216D01*
G01Y1296850D01*
X2273150Y1304100D01*
G37*
%LPC*%
G75*
G36*
G01X2409260Y95000D02*
Y205000D01*
G02X2455000Y250740I45740J0D01*
G01X2515000D01*
G02X2560740Y205000I0J-45740D01*
G01Y95000D01*
G02X2515000Y49260I-45740J0D01*
G01X2455000D01*
G02X2409260Y95000I0J45740D01*
G37*
G36*
G01X1658950Y1224260D02*
X1331050D01*
X1294260Y1261050D01*
Y1508950D01*
X1331050Y1545740D01*
X1658950D01*
X1695740Y1508950D01*
Y1261050D01*
X1658950Y1224260D01*
G37*
G54D32*
X240000Y575000D03*
Y1025000D03*
%LPD*%
G75*
G36*
G01X1340000Y1280000D02*
Y1490000D01*
X1350000Y1500000D01*
X1640000D01*
X1650000Y1490000D01*
Y1280000D01*
X1640000Y1270000D01*
X1350000D01*
X1340000Y1280000D01*
G37*
G54D10*
X709000Y198000D03*
X280000Y200000D03*
X709000Y1402000D03*
X280000Y1400000D03*
G54D11*
X480000Y450000D03*
G54D20*
X1390000Y740000D03*
X1610000D03*
G54D30*
G01D02*
X1500000D01*
G01D02*
X1390000D01*
G01X1980000Y320000D02*
X1975000Y325000D01*
G01X1750000Y530000D02*
X1755000Y535000D01*
G01X1830000Y480000D02*
X1835000Y485000D01*
G01D02*
X1900000D01*
G01X1755000Y535000D02*
X1900000D01*
G01X2025000Y410000D02*
Y325000D01*
G01D02*
Y315000D01*
X2020000Y310000D01*
G01X1975000Y325000D02*
Y410000D01*
G01X2520000Y633800D02*
X2518800Y635000D01*
X2300000D01*
G01X3074550Y1274550D02*
X2980000D01*
G01X2360000Y1090000D02*
Y1184550D01*
G01X2980000Y1274550D02*
X2960000Y1254550D01*
X2835000D01*
G01X2360000Y1184550D02*
X2380000Y1204550D01*
X2525000D01*
G54D12*
X480000Y700000D03*
Y900000D03*
Y1150000D03*
G54D21*
X1500000Y1330000D03*
Y1030000D03*
G54D31*
G01X1180000Y925000D02*
X1285000Y1030000D01*
X1500000D01*
G54D13*
G01X3250000Y694000D02*
X3064000D01*
X3003800Y633800D01*
X90000Y570000D03*
Y1110000D03*
X1500000Y740000D03*
X1530000Y580000D03*
X1330000D03*
Y360000D03*
Y70000D03*
X1730000Y60000D03*
Y200000D03*
X1810000D03*
Y360000D03*
X1280000Y1530000D03*
Y1210000D03*
X1850000Y860000D03*
X1350000Y900000D03*
X1530000D03*
X1460000Y1450000D03*
X1380000D03*
X1540000D03*
X1620000D03*
X1900000Y1440000D03*
X2100000Y610000D03*
X2000000Y710000D03*
X2100000D03*
X2200000D03*
X2000000Y610000D03*
X2200000D03*
X2000000Y510000D03*
X2100000D03*
X2200000D03*
X2410000Y550000D03*
X2380000Y70000D03*
X2580000D03*
X2810000D03*
X2790000Y800000D03*
X2010000Y60000D03*
X3010000Y530000D03*
Y460000D03*
Y390000D03*
X2770000Y620000D03*
X2833500D03*
Y540000D03*
X2770000D03*
X2310000Y360000D03*
X2670000Y900000D03*
X2520000D03*
X2370000D03*
X2690000Y1260000D03*
X3080000Y1530000D03*
X2580000D03*
X2080000D03*
X3074550Y1274550D03*
X2360000Y1090000D03*
X2550000Y1040000D03*
X2100000Y1440000D03*
X3340000Y250000D03*
G54D22*
X1900000Y1329550D03*
Y1129550D03*
X2100000Y1329550D03*
Y1129550D03*
G54D23*
X1180000Y925000D03*
G54D14*
X1975000Y810000D03*
Y410000D03*
X2025000Y810000D03*
X2075000D03*
X2125000D03*
X2175000D03*
X2225000D03*
Y410000D03*
X2175000D03*
X2125000D03*
X2075000D03*
X2025000D03*
G54D15*
X1900000Y485000D03*
Y535000D03*
Y585000D03*
Y635000D03*
Y685000D03*
Y735000D03*
X2300000D03*
Y685000D03*
Y635000D03*
Y585000D03*
Y535000D03*
Y485000D03*
X2835000Y1304550D03*
Y1254550D03*
Y1204550D03*
Y1154550D03*
X2525000D03*
Y1204550D03*
Y1254550D03*
Y1304550D03*
G54D24*
X2100000Y610000D03*
G54D16*
X1635000Y485000D03*
X1545000D03*
X2635000Y1040000D03*
X2725000D03*
G54D25*
X3003800Y160000D03*
X2803800D03*
X2903800Y400000D03*
G54D17*
X1950000Y235000D03*
Y145000D03*
X1390000Y675000D03*
Y805000D03*
X1610000D03*
Y675000D03*
X2075000Y235000D03*
Y145000D03*
X2200000D03*
Y235000D03*
X2980000Y1274550D03*
Y1184550D03*
X2360000D03*
Y1274550D03*
G54D26*
X2675000Y150000D03*
X2485000D03*
Y410000D03*
X2580000D03*
X2675000D03*
G54D27*
X3250000Y440000D03*
G54D18*
X1463800Y190000D03*
X1616200D03*
X1463800Y350000D03*
X1616200D03*
X2520000Y786200D03*
Y633800D03*
X2675000Y786200D03*
Y633800D03*
X3003800D03*
Y786200D03*
G54D28*
X3250000Y694000D03*
Y1202000D03*
Y948000D03*
G54D19*
X1180000Y675000D03*
X980000D03*
Y925000D03*
G54D29*
G01X480000Y900000D02*
X559680Y820320D01*
X689680D01*
X740000Y770000D01*
Y530000D01*
X800000Y470000D01*
X1020000D01*
X1059680Y509680D01*
Y595320D01*
X980000Y675000D01*
G01X480000Y700000D02*
X559680Y779680D01*
X672840D01*
X699360Y753160D01*
Y513160D01*
X783160Y429360D01*
X1036840D01*
X1100320Y492840D01*
Y595320D01*
X1180000Y675000D01*
G01X1800000Y740000D02*
X1855000Y685000D01*
X1900000D01*
G01D02*
X1956740D01*
X1980000Y661740D01*
X2048260D01*
G01X1900000Y635000D02*
X1812480D01*
X1642480Y805000D01*
X1610000D01*
G01X1390000D02*
X1110000D01*
X980000Y675000D01*
G01X1610000Y805000D02*
X1390000D01*
G01X1900000Y585000D02*
X1805000D01*
X1715000Y675000D01*
X1610000D01*
G01X1390000D02*
X1180000D01*
G01X1610000D02*
X1390000D01*
G01X1900000Y1329550D02*
Y1440000D01*
G01Y1129550D02*
X1910450D01*
X2010000Y1030000D01*
X2110000D01*
X2175000Y965000D01*
G01X2125000Y810000D02*
Y925000D01*
X2080000Y970000D01*
X1810000D01*
X1770000Y1010000D01*
Y1200000D01*
X1800000Y1230000D01*
X1989990D01*
X2090440Y1129550D01*
X2100000D01*
G01X2048260Y661740D02*
X2100000Y610000D01*
G01X2025000Y325000D02*
X1990000Y290000D01*
G01X2670000Y520000D02*
X2520000D01*
X2485000Y485000D01*
Y410000D01*
G01X2175000Y810000D02*
Y965000D01*
G01X2075000Y410000D02*
Y235000D01*
G01D02*
X2200000D01*
G01Y145000D02*
X2275000D01*
X2310000Y180000D01*
Y360000D01*
G01X2525000Y1254550D02*
X2380000D01*
X2360000Y1274550D01*
G01X2610000Y1250000D02*
X2605450Y1254550D01*
G01X3140000Y1080000D02*
X3380000D01*
G01X2605450Y1254550D02*
X2525000D01*
G01X2635000Y1040000D02*
X2550000D01*
G01X2100000Y1329550D02*
Y1440000D01*
G01X2525000Y1154550D02*
Y1094030D01*
X2460970Y1030000D01*
X2240000D01*
X2175000Y965000D01*
G01X2100000Y1129550D02*
X2129550D01*
X2210000Y1210000D01*
Y1320000D01*
X2250000Y1360000D01*
X2439990D01*
X2495440Y1304550D01*
X2525000D01*
G01X3250000Y1202000D02*
X3102000Y1350000D01*
X2910000D01*
X2864550Y1304550D01*
X2835000D01*
G01X3250000Y948000D02*
X2892000D01*
X2835000Y1005000D01*
Y1154550D01*
G01X2725000Y1040000D02*
Y1175000D01*
X2754550Y1204550D01*
X2835000D01*
G01X3380000Y1080000D02*
Y290000D01*
G01D02*
X3340000Y250000D01*
G01X3380000Y1080000D02*
Y1340000D01*
M02*
