G04 ================== begin FILE IDENTIFICATION RECORD ==================*
G04 Layout Name:  HY_VREF_V10_260126.brd*
G04 Film Name:    BOTTOM*
G04 File Format:  Gerber RS274X*
G04 File Origin:  Cadence Allegro 24.1-S006*
G04 Origin Date:  Wed Jan 28 16:08:27 2026*
G04 *
G04 Layer:  ETCH/BOTTOM*
G04 Layer:  PIN/BOTTOM*
G04 Layer:  VIA CLASS/BOTTOM*
G04 *
G04 Offset:    (0.0000 0.0000)*
G04 Mirror:    No*
G04 Mode:      Positive*
G04 Rotation:  0*
G04 FullContactRelief:  No*
G04 UndefLineWidth:     0.1524*
G04 ================== end FILE IDENTIFICATION RECORD ====================*
%FSLAX55Y55*MOMM*%
%IR0*IPPOS*OFA0.00000B0.00000*MIA0B0*SFA1.00000B1.00000*%
%ADD11C,.508*%
%ADD13O,2.1X1.*%
%ADD12O,1.6X1.*%
%ADD16C,2.2*%
%ADD15C,2.3*%
%ADD14C,2.5*%
%ADD20C,1.7*%
%ADD17C,1.8*%
%ADD10C,6.9*%
%ADD18R,1.8X1.8*%
%ADD19R,1.9X1.9*%
%ADD21C,.5032*%
%ADD22C,.254*%
%ADD23C,.762*%
%ADD24C,2.*%
%ADD25C,1.27*%
%ADD26C,3.6004*%
%ADD28C,3.2148*%
%ADD27C,3.4148*%
G75*
%LPD*%
G75*
G36*
G01X2378020Y5360000D02*
X7858640D01*
G02X7872550Y5324870I1J-20319D01*
G03X7749260Y5040000I267461J-284870D01*
G03X8140000Y4649260I390740J0D01*
G03X8424870Y4772550I0J390751D01*
G02X8460000Y4758640I14811J-13909D01*
G01Y3329010D01*
G02X8425140Y3314810I-20320J-5D01*
G03X8328000Y3355740I-97140J-94807D01*
G03X8316430Y3355250I-47J-135742D01*
G01X8311720Y3354840D01*
X8207280Y3459280D01*
G03X8148000Y3483840I-59287J-59277D01*
G01X7698000D01*
G03X7638720Y3459280I7J-83837D01*
G01X7534280Y3354840D01*
X7529570Y3355250D01*
G03X7518000Y3355740I-11523J-135252D01*
G03X7506430Y3355250I-47J-135742D01*
G01X7501720Y3354840D01*
X7397280Y3459280D01*
G03X7338000Y3483840I-59287J-59277D01*
G01X6888000D01*
G03X6828720Y3459280I7J-83837D01*
G01X6724280Y3354840D01*
X6719570Y3355250D01*
G03X6708000Y3355740I-11523J-135252D01*
G03X6696430Y3355250I-47J-135742D01*
G01X6691720Y3354840D01*
X6587280Y3459280D01*
G03X6528000Y3483840I-59287J-59277D01*
G01X6078000D01*
G03X6018720Y3459280I7J-83837D01*
G01X5923090Y3363650D01*
X5918080Y3364350D01*
G03X5877920I-20080J-144343D01*
G01X5872910Y3363650D01*
X5777280Y3459280D01*
G03X5718000Y3483840I-59287J-59277D01*
G01X5268000D01*
G03X5208720Y3459280I7J-83837D01*
G01X5104280Y3354840D01*
X5099570Y3355250D01*
G03X5088000Y3355740I-11523J-135252D01*
G03X5076430Y3355250I-47J-135742D01*
G01X5071720Y3354840D01*
X4967280Y3459280D01*
G03X4908000Y3483840I-59287J-59277D01*
G01X4458000D01*
G03X4398720Y3459280I7J-83837D01*
G01X4294280Y3354840D01*
X4289570Y3355250D01*
G03X4278000Y3355740I-11523J-135252D01*
G03X4266430Y3355250I-47J-135742D01*
G01X4261720Y3354840D01*
X4157280Y3459280D01*
G03X4098000Y3483840I-59287J-59277D01*
G01X3648000D01*
G03X3588720Y3459280I7J-83837D01*
G01X3484280Y3354840D01*
X3479570Y3355250D01*
G03X3468000Y3355740I-11523J-135252D01*
G03X3357540Y3298890I0J-135737D01*
G02X3324460I-16540J11805D01*
G03X3214000Y3355740I-110460J-78887D01*
G03X3128460Y3325390I6J-135738D01*
G02X3097000Y3333120I-12802J15781D01*
G03X3055000Y3360740I-42000J-18123D01*
G01X2865000D01*
G03X2819260Y3315000I0J-45740D01*
G01Y3125000D01*
G03X2865000Y3079260I45740J0D01*
G01X3055000D01*
G03X3097000Y3106880I0J45743D01*
G02X3128460Y3114610I18658J-8051D01*
G03X3214000Y3084260I85546J105388D01*
G03X3324460Y3141110I0J135737D01*
G02X3357540I16540J-11805D01*
G03X3468000Y3084260I110460J78887D01*
G03X3603740Y3220000I0J135740D01*
G03X3603250Y3231570I-135742J47D01*
G01X3602840Y3236280D01*
X3611920Y3245350D01*
G02X3629260Y3238160I7181J-7187D01*
G01Y3125000D01*
G03X3675000Y3079260I45740J0D01*
G01X3865000D01*
G03X3907000Y3106880I0J45743D01*
G02X3938460Y3114610I18658J-8051D01*
G03X4024000Y3084260I85546J105388D01*
G03X4134460Y3141110I0J135737D01*
G02X4167540I16540J-11805D01*
G03X4278000Y3084260I110460J78887D01*
G03X4413740Y3220000I0J135740D01*
G03X4413250Y3231570I-135742J47D01*
G01X4412840Y3236280D01*
X4421920Y3245350D01*
G02X4439260Y3238160I7181J-7187D01*
G01Y3125000D01*
G03X4485000Y3079260I45740J0D01*
G01X4675000D01*
G03X4717000Y3106880I0J45743D01*
G02X4748460Y3114610I18658J-8051D01*
G03X4834000Y3084260I85546J105388D01*
G03X4944460Y3141110I0J135737D01*
G02X4977540I16540J-11805D01*
G03X5088000Y3084260I110460J78887D01*
G03X5223740Y3220000I0J135740D01*
G03X5223250Y3231570I-135742J47D01*
G01X5222840Y3236280D01*
X5231920Y3245350D01*
G02X5249260Y3238160I7181J-7187D01*
G01Y3125000D01*
G03X5295000Y3079260I45740J0D01*
G01X5485000D01*
G03X5527000Y3106880I0J45743D01*
G02X5558460Y3114610I18658J-8051D01*
G03X5644000Y3084260I85546J105388D01*
G03X5720490Y3107860I4J135741D01*
G02X5752260Y3091080I11451J-16785D01*
G01Y1118370D01*
X5519630Y885740D01*
X5500000D01*
G03X5454260Y840000I0J-45740D01*
G01Y803090D01*
X5453610Y801360D01*
G03Y698640I136386J-51360D01*
G01X5454260Y696910D01*
Y660000D01*
G03X5481500Y618170I45737J0D01*
G02X5488470Y586100I-8225J-18580D01*
G03X5454260Y496000I101532J-90095D01*
G03X5725740I135740J0D01*
G03X5691530Y586100I-135742J5D01*
G02X5698500Y618170I15195J13490D01*
G03X5725740Y660000I-18497J41830D01*
G01Y679630D01*
X6001050Y954950D01*
G03X6043740Y1058000I-103047J103056D01*
G01Y3073160D01*
G02X6076650Y3089100I20318J-6D01*
G03X6105000Y3079260I28344J35902D01*
G01X6295000D01*
G03X6337000Y3106880I0J45743D01*
G02X6368460Y3114610I18658J-8051D01*
G03X6454000Y3084260I85546J105388D01*
G03X6564460Y3141110I0J135737D01*
G02X6597540I16540J-11805D01*
G03X6708000Y3084260I110460J78887D01*
G03X6843740Y3220000I0J135740D01*
G03X6843250Y3231570I-135742J47D01*
G01X6842840Y3236280D01*
X6851920Y3245350D01*
G02X6869260Y3238160I7181J-7187D01*
G01Y3125000D01*
G03X6915000Y3079260I45740J0D01*
G01X7105000D01*
G03X7147000Y3106880I0J45743D01*
G02X7178460Y3114610I18658J-8051D01*
G03X7264000Y3084260I85546J105388D01*
G03X7374460Y3141110I0J135737D01*
G02X7407540I16540J-11805D01*
G03X7518000Y3084260I110460J78887D01*
G03X7653740Y3220000I0J135740D01*
G03X7653250Y3231570I-135742J47D01*
G01X7652840Y3236280D01*
X7661920Y3245350D01*
G02X7679260Y3238160I7181J-7187D01*
G01Y3125000D01*
G03X7725000Y3079260I45740J0D01*
G01X7915000D01*
G03X7957000Y3106880I0J45743D01*
G02X7988460Y3114610I18658J-8051D01*
G03X8074000Y3084260I85546J105388D01*
G03X8184460Y3141110I0J135737D01*
G02X8217540I16540J-11805D01*
G03X8328000Y3084260I110460J78887D01*
G03X8425140Y3125190I0J135737D01*
G02X8460000Y3110990I14540J-14195D01*
G01Y641360D01*
G02X8424870Y627450I-20319J-1D01*
G03X8140000Y750740I-284870J-267461D01*
G03X7749260Y360000I0J-390740D01*
G03X7872550Y75130I390751J0D01*
G02X7858640Y40000I-13909J-14811D01*
G01X641360D01*
G02X627450Y75130I-1J20319D01*
G03X750740Y360000I-267461J284870D01*
G03X360000Y750740I-390740J0D01*
G03X75130Y627450I0J-390751D01*
G02X40000Y641360I-14811J13909D01*
G01Y4758640D01*
G02X75130Y4772550I20319J1D01*
G03X360000Y4649260I284870J267461D01*
G03X750740Y5040000I0J390740D01*
G03X627450Y5324870I-390751J0D01*
G02X641360Y5360000I13909J14811D01*
G01X761980D01*
G02X778490Y5327830I3J-20320D01*
G03X749260Y5237000I126509J-90830D01*
G03X1060740I155740J0D01*
G03X1031510Y5327830I-155739J0D01*
G02X1048020Y5360000I16507J11850D01*
G01X2091980D01*
G02X2108490Y5327830I3J-20320D01*
G03X2079260Y5237000I126509J-90830D01*
G03X2390740I155740J0D01*
G03X2361510Y5327830I-155739J0D01*
G02X2378020Y5360000I16507J11850D01*
G37*
%LPC*%
G75*
G36*
G01X228000Y4367740D02*
X288000D01*
G02Y4176260I0J-95740D01*
G01X228000D01*
G02Y4367740I0J95740D01*
G37*
G36*
G01Y3503740D02*
X288000D01*
G02Y3312260I0J-95740D01*
G01X228000D01*
G02Y3503740I0J95740D01*
G37*
G36*
G01X3774060Y217500D02*
Y346930D01*
G02X3761360Y387500I58450J40570D01*
G02X3903640I71140J0D01*
G02X3890940Y346930I-71150J0D01*
G01Y241710D01*
X3931710Y200940D01*
X4451930D01*
G02X4492500Y213640I40570J-58450D01*
G02Y71360I0J-71140D01*
G02X4451930Y84060I0J71150D01*
G01X3907500D01*
G02X3866180Y101180I6J58438D01*
G01X3791180Y176180D01*
G02X3774060Y217500I41318J41326D01*
G37*
G36*
G01X1222760Y4122240D02*
X1409320Y4308810D01*
X1409270Y4313090D01*
G02X1409260Y4315000I160731J1797D01*
G02X1570000Y4154260I160740J0D01*
G02X1568090Y4154270I-113J160741D01*
G01X1563810Y4154320D01*
X1409240Y3999750D01*
Y881880D01*
X1414060Y878900D01*
G02X1435740Y840000I-24059J-38900D01*
G01Y660000D01*
G02X1408500Y618170I-45737J0D01*
G03X1401530Y586100I8225J-18580D01*
G02X1435740Y496000I-101532J-90095D01*
G02X1164260I-135740J0D01*
G02X1198470Y586100I135742J5D01*
G03X1191500Y618170I-15195J13490D01*
G02X1164260Y660000I18497J41830D01*
G01Y840000D01*
G02X1185940Y878900I45739J0D01*
G01X1190760Y881880D01*
Y4045000D01*
G02X1222760Y4122240I109237J-7D01*
G37*
G36*
G01X6403920Y5084790D02*
G03X6438080I17080J11003D01*
G02X6657920I109920J-70796D01*
G03X6692080I17080J11003D01*
G02X6802000Y5144740I109920J-70796D01*
G02X6932740Y5014000I0J-130740D01*
G02X6872790Y4904080I-130746J0D01*
G03Y4869920I11003J-17080D01*
G02X6932740Y4760000I-70796J-109920D01*
G02X6802000Y4629260I-130740J0D01*
G02X6692080Y4689210I0J130746D01*
G03X6657920I-17080J-11003D01*
G02X6438080I-109920J70796D01*
G03X6403920I-17080J-11003D01*
G02X6184080I-109920J70796D01*
G03X6149920I-17080J-11003D01*
G02X5930080I-109920J70796D01*
G03X5895920I-17080J-11003D01*
G02X5676080I-109920J70796D01*
G03X5641920I-17080J-11003D01*
G02X5422080I-109920J70796D01*
G03X5387920I-17080J-11003D01*
G02X5168080I-109920J70796D01*
G03X5133920I-17080J-11003D01*
G02X5024000Y4629260I-109920J70796D01*
G02X4936040Y4663270I0J130750D01*
G03X4903190Y4654930I-13667J-15034D01*
G02X4860000Y4624260I-43190J15075D01*
G01X4680000D01*
G02X4634260Y4670000I0J45740D01*
G01Y4850000D01*
G02X4664930Y4893190I45745J0D01*
G03X4673270Y4926040I-6694J19183D01*
G02X4639260Y5014000I96740J87960D01*
G02X4770000Y5144740I130740J0D01*
G02X4879920Y5084790I0J-130746D01*
G03X4914080I17080J11003D01*
G02X5133920I109920J-70796D01*
G03X5168080I17080J11003D01*
G02X5387920I109920J-70796D01*
G03X5422080I17080J11003D01*
G02X5641920I109920J-70796D01*
G03X5676080I17080J11003D01*
G02X5895920I109920J-70796D01*
G03X5930080I17080J11003D01*
G02X6149920I109920J-70796D01*
G03X6184080I17080J11003D01*
G02X6403920I109920J-70796D01*
G37*
G36*
G01X591120Y3526810D02*
G02X582980Y3551000I31873J24190D01*
G02X663020I40020J0D01*
G02X658810Y3533130I-40031J0D01*
G03X676990Y3503740I18182J-9071D01*
G01X731000D01*
G02Y3312260I0J-95740D01*
G01X621000D01*
G02X525260Y3408000I0J95740D01*
G02X583000Y3495870I95731J0D01*
G03X591120Y3526810I-8066J18652D01*
G37*
G36*
G01X583000Y4184130D02*
G02X525260Y4272000I37991J87870D01*
G02X621000Y4367740I95740J0D01*
G01X731000D01*
G02Y4176260I0J-95740D01*
G01X676990D01*
G03X658810Y4146870I2J-20319D01*
G02X663020Y4129000I-35821J-17870D01*
G02X582980I-40020J0D01*
G02X591120Y4153190I40013J0D01*
G03X583000Y4184130I-16186J12288D01*
G37*
G54D26*
X1840000Y1980000D03*
X7340000D03*
G54D28*
X1090000Y4315000D03*
X2050000D03*
G54D27*
X990000Y1980000D03*
X8190000D03*
%LPD*%
G75*
G54D10*
X360000Y360000D03*
Y5040000D03*
X8140000Y360000D03*
Y5040000D03*
G54D20*
X4770000Y5014000D03*
X5278000Y4760000D03*
X5024000D03*
X5278000Y5014000D03*
X5024000D03*
X5532000Y4760000D03*
Y5014000D03*
X6040000Y4760000D03*
X5786000D03*
X6040000Y5014000D03*
X5786000D03*
X6294000Y4760000D03*
Y5014000D03*
X6802000Y4760000D03*
X6548000D03*
X6802000Y5014000D03*
X6548000D03*
G54D11*
G01X5030000Y5180000D02*
X5024000Y5174000D01*
G01D02*
Y5014000D01*
G01X5532000D02*
Y5174000D01*
G01X5278000Y5014000D02*
Y5174000D01*
G01X6040000Y5014000D02*
Y5174000D01*
G01X5786000Y5014000D02*
Y5174000D01*
G01X6294000Y5014000D02*
Y5174000D01*
G01X6548000Y5014000D02*
Y5174000D01*
X170000Y930000D03*
Y1430000D03*
X110000Y3570000D03*
Y4070000D03*
X320000Y1670000D03*
X440000D03*
X560000D03*
X320000Y1800000D03*
Y2100000D03*
Y1940000D03*
X250000Y2350000D03*
X460000D03*
X250000Y2840000D03*
X500000Y3100000D03*
X900000Y110000D03*
X670000Y930000D03*
Y1430000D03*
X610000Y2110000D03*
Y2540000D03*
X650000Y2810000D03*
Y3100000D03*
Y2950000D03*
X810000Y2810000D03*
Y2950000D03*
Y3100000D03*
X920000Y3300000D03*
Y3820000D03*
Y4110000D03*
X860000Y4440000D03*
Y4940000D03*
X1400000Y110000D03*
X1110000Y2540000D03*
X1080000Y3300000D03*
Y3820000D03*
Y4110000D03*
X1360000Y4440000D03*
Y4940000D03*
X1740000Y1250000D03*
X2140000Y70000D03*
X2240000D03*
X1900000Y950000D03*
X2040000D03*
X2170000D03*
X1900000Y1070000D03*
X2040000D03*
X2170000D03*
X2240000Y1250000D03*
X2000000Y2370000D03*
Y2870000D03*
X2350000Y210000D03*
X2540000D03*
X2400000Y700000D03*
X2540000D03*
X2670000D03*
X2400000Y810000D03*
X2540000D03*
X2670000D03*
X2500000Y1870000D03*
Y2370000D03*
Y2870000D03*
X2430000Y3580000D03*
Y4080000D03*
Y4580000D03*
X2730000Y70000D03*
X2740000Y1250000D03*
X3000000Y1870000D03*
Y2370000D03*
Y2870000D03*
X3010000Y3820000D03*
X2850000D03*
Y4030000D03*
X3010000D03*
Y4530000D03*
X2850000D03*
X2870000Y4790000D03*
Y5290000D03*
X3530000Y70000D03*
Y750000D03*
Y890000D03*
Y1020000D03*
X3240000Y1250000D03*
X3500000Y1870000D03*
Y2370000D03*
Y2870000D03*
X3330000Y3820000D03*
X3170000D03*
Y4030000D03*
X3330000D03*
X3510000D03*
X3330000Y4530000D03*
X3170000D03*
X3370000Y4790000D03*
Y5290000D03*
X3840000Y70000D03*
X3832500Y387500D03*
X3770000Y750000D03*
Y890000D03*
Y1020000D03*
X3740000Y1250000D03*
X3830000Y4030000D03*
X3670000D03*
Y4210000D03*
X3780000Y4530000D03*
X3620000D03*
X3870000Y4790000D03*
Y5290000D03*
X4180000Y420000D03*
X4130000Y530000D03*
X4230000D03*
X4130000Y310000D03*
X4230000D03*
X4240000Y1250000D03*
X4000000Y1870000D03*
Y2370000D03*
Y2870000D03*
X4270000Y3490000D03*
Y3650000D03*
X3990000Y4030000D03*
X4330000D03*
X4170000D03*
X4130000Y4530000D03*
X3970000D03*
X4370000Y4790000D03*
Y5290000D03*
X4492500Y142500D03*
X4740000Y730000D03*
Y870000D03*
Y1000000D03*
X4500000Y730000D03*
Y870000D03*
Y1000000D03*
X4740000Y1250000D03*
X4500000Y1870000D03*
Y2370000D03*
Y2870000D03*
X4650000Y4030000D03*
X4490000D03*
Y4200000D03*
X4980000Y100000D03*
Y230000D03*
X5070000Y1000000D03*
Y870000D03*
X5000000Y1870000D03*
Y2370000D03*
Y2870000D03*
X5090000Y3490000D03*
Y3650000D03*
X4990000Y4030000D03*
X5150000D03*
X4830000D03*
X5020000Y5270000D03*
X5350000Y140000D03*
X5240000Y1250000D03*
X5500000Y1870000D03*
Y2370000D03*
Y2870000D03*
X5310000Y4030000D03*
X5500000D03*
X5310000Y4200000D03*
X5510000Y4550000D03*
X5520000Y5270000D03*
X5850000Y140000D03*
X5910000Y3500000D03*
Y3660000D03*
X5980000Y4030000D03*
X5820000D03*
X5660000D03*
X5940000Y4530000D03*
X5670000Y4550000D03*
X6020000Y5270000D03*
X6350000Y140000D03*
X6140000Y2360000D03*
Y2860000D03*
X6320000Y4030000D03*
X6160000D03*
X6120000Y4210000D03*
X6100000Y4530000D03*
X6750000Y140000D03*
X6890000Y530000D03*
X6640000Y2360000D03*
Y2860000D03*
X6720000Y3490000D03*
Y3650000D03*
X6640000Y4030000D03*
X6480000D03*
X6800000D03*
X6660000Y5260000D03*
X7250000Y140000D03*
X7110000Y530000D03*
X7010000D03*
X7210000D03*
X7110000Y660000D03*
X7010000D03*
X7140000Y2360000D03*
Y2860000D03*
X7280000Y4030000D03*
X7120000D03*
X6960000D03*
X6930000Y4210000D03*
X7200000Y4530000D03*
X6960000Y4810000D03*
X7160000Y5260000D03*
X7640000Y2360000D03*
Y2860000D03*
X7530000Y3490000D03*
Y3650000D03*
X7620000Y4030000D03*
X7460000D03*
X7720000Y4200000D03*
X7700000Y4530000D03*
X7540000D03*
X7360000D03*
X7460000Y4810000D03*
X7660000Y5260000D03*
X7750000Y140000D03*
X8140000Y2360000D03*
Y2860000D03*
X7940000Y4030000D03*
X7780000D03*
X8100000D03*
X8060000Y4550000D03*
X8290000Y3500000D03*
Y3660000D03*
X8260000Y4030000D03*
X8420000D03*
X8220000Y4550000D03*
X8380000D03*
G54D21*
G01X122100Y3408000D02*
X258000D01*
G01X122100Y4272000D02*
X258000D01*
G01X360000Y360000D02*
Y760900D01*
G01Y360000D02*
X760900D01*
G01X258000Y3302100D02*
Y3408000D01*
G01D02*
Y3513900D01*
G01Y3408000D02*
X393900D01*
G01X515100D02*
X676000D01*
G01X258000Y4166100D02*
Y4272000D01*
G01D02*
Y4377900D01*
G01Y4272000D02*
X393900D01*
G01X515100D02*
X676000D01*
G01X360000Y4639100D02*
Y5040000D01*
G01D02*
X760900D01*
G01X676000Y3302100D02*
Y3408000D01*
G01D02*
X836900D01*
G01X676000Y4272000D02*
Y4377900D01*
G01Y4272000D02*
X836900D01*
G01X905000Y5071100D02*
Y5237000D01*
G01X739100D02*
X905000D01*
G01D02*
X1070900D01*
G01X1300000Y350100D02*
Y496000D01*
G01X1154100D02*
X1300000D01*
G01D02*
X1445900D01*
G01X2235000Y5071100D02*
Y5237000D01*
G01X2069100D02*
X2235000D01*
G01D02*
X2400900D01*
G01X4770000Y4614100D02*
Y4760000D01*
G01X4624100D02*
X4770000D01*
G01Y5014000D02*
Y5154900D01*
G01X4629100Y5014000D02*
X4770000D01*
G01X5590000Y350100D02*
Y496000D01*
G01X5444100D02*
X5590000D01*
G01D02*
X5735900D01*
G01X6802000Y4619100D02*
Y4760000D01*
G01D02*
X6942900D01*
G01X6802000Y5014000D02*
Y5154900D01*
G01Y5014000D02*
X6942900D01*
G01X8140000Y360000D02*
Y760900D01*
G01X7739100Y360000D02*
X8140000D01*
G01Y4639100D02*
Y5040000D01*
G01X7739100D02*
X8140000D01*
G54D12*
X258000Y3408000D03*
Y4272000D03*
G54D22*
G01X4492500Y142500D02*
X3907500D01*
X3832500Y217500D01*
Y387500D01*
G54D13*
X676000Y3408000D03*
Y4272000D03*
G54D23*
G01X3468000Y3220000D02*
X3648000Y3400000D01*
X4098000D01*
X4278000Y3220000D01*
G01D02*
X4458000Y3400000D01*
X4908000D01*
X5088000Y3220000D01*
G01D02*
X5268000Y3400000D01*
X5718000D01*
X5898000Y3220000D01*
G01D02*
X6078000Y3400000D01*
X6528000D01*
X6708000Y3220000D01*
G01D02*
X6888000Y3400000D01*
X7338000D01*
X7518000Y3220000D01*
G01D02*
X7698000Y3400000D01*
X8148000D01*
X8328000Y3220000D01*
G54D14*
X990000Y1980000D03*
X8190000D03*
G54D24*
G01X5898000Y3220000D02*
Y1058000D01*
X5590000Y750000D01*
G54D15*
X1090000Y4315000D03*
X1570000D03*
X2050000D03*
G54D25*
G01X1300000Y750000D02*
Y4045000D01*
X1570000Y4315000D01*
G54D16*
X905000Y5237000D03*
X2235000D03*
G54D17*
X1300000Y496000D03*
X3468000Y3220000D03*
X3214000D03*
X4024000D03*
X4278000D03*
X4834000D03*
X5088000D03*
X5590000Y496000D03*
X5644000Y3220000D03*
X5898000D03*
X6454000D03*
X6708000D03*
X7264000D03*
X7518000D03*
X8074000D03*
X8328000D03*
G54D18*
X1300000Y750000D03*
X4770000Y4760000D03*
X5590000Y750000D03*
G54D19*
X2960000Y3220000D03*
X3770000D03*
X4580000D03*
X5390000D03*
X6200000D03*
X7010000D03*
X7820000D03*
M02*
