G04 ================== begin FILE IDENTIFICATION RECORD ==================*
G04 Layout Name:  HY_VREF_V10_260126.brd*
G04 Film Name:    Drill_Legend*
G04 File Format:  Gerber RS274X*
G04 File Origin:  Cadence Allegro 24.1-S006*
G04 Origin Date:  Wed Jan 28 16:08:28 2026*
G04 *
G04 Layer:  MANUFACTURING/NCLEGEND-1-2*
G04 Layer:  MANUFACTURING/NCDRILL_LEGEND*
G04 Layer:  MANUFACTURING/NCDRILL_FIGURE*
G04 Layer:  BOARD GEOMETRY/DIMENSION*
G04 *
G04 Offset:    (0.0000 0.0000)*
G04 Mirror:    No*
G04 Mode:      Positive*
G04 Rotation:  0*
G04 FullContactRelief:  No*
G04 UndefLineWidth:     0.1524*
G04 ================== end FILE IDENTIFICATION RECORD ====================*
%FSLAX55Y55*MOMM*%
%IR0*IPPOS*OFA0.00000B0.00000*MIA0B0*SFA1.00000B1.00000*%
%AMMACRO14*
1,1,.1524,.352082,-.85*
20,1,.1524,.352082,-.85,-.352082,-.85,0.0*
1,1,.1524,-.352082,-.85*
20,1,.1524,-.352082,-.85,-.85,-.352082,0.0*
1,1,.1524,-.85,-.352082*
20,1,.1524,-.85,-.352082,-.85,.352082,0.0*
1,1,.1524,-.85,.352082*
20,1,.1524,-.85,.352082,-.352082,.85,0.0*
1,1,.1524,-.352082,.85*
20,1,.1524,-.352082,.85,.352082,.85,0.0*
1,1,.1524,.352082,.85*
20,1,.1524,.352082,.85,.85,.352082,0.0*
1,1,.1524,.85,.352082*
20,1,.1524,.85,.352082,.85,-.352082,0.0*
1,1,.1524,.85,-.352082*
20,1,.1524,.85,-.352082,.352082,-.85,0.0*
1,1,.1524,.352082,-.85*
%
%ADD14MACRO14*%
%AMMACRO10*
1,1,.1524,1.65,0.0*
20,1,.1524,1.65,0.0,0.0,-1.65,0.0*
1,1,.1524,0.0,-1.65*
20,1,.1524,0.0,-1.65,-1.65,0.0,0.0*
1,1,.1524,-1.65,0.0*
20,1,.1524,-1.65,0.0,0.0,1.65,0.0*
1,1,.1524,0.0,1.65*
20,1,.1524,0.0,1.65,1.65,0.0,0.0*
1,1,.1524,1.65,0.0*
%
%ADD10MACRO10*%
%AMMACRO12*
1,1,.1524,-.3,.3*
20,1,.1524,-.3,.3,.3,.3,0.0*
1,1,.1524,.3,.3*
20,1,.1524,.3,.3,.352094,.295442,0.0*
1,1,.1524,.352094,.295442*
20,1,.1524,.352094,.295442,.402606,.281908,0.0*
1,1,.1524,.402606,.281908*
20,1,.1524,.402606,.281908,.45,.259808,0.0*
1,1,.1524,.45,.259808*
20,1,.1524,.45,.259808,.492836,.229813,0.0*
1,1,.1524,.492836,.229813*
20,1,.1524,.492836,.229813,.529813,.192836,0.0*
1,1,.1524,.529813,.192836*
20,1,.1524,.529813,.192836,.559808,.15,0.0*
1,1,.1524,.559808,.15*
20,1,.1524,.559808,.15,.581908,.102606,0.0*
1,1,.1524,.581908,.102606*
20,1,.1524,.581908,.102606,.595442,.052094,0.0*
1,1,.1524,.595442,.052094*
20,1,.1524,.595442,.052094,.6,0.0,0.0*
1,1,.1524,.6,0.0*
20,1,.1524,.6,0.0,.595442,-.052094,0.0*
1,1,.1524,.595442,-.052094*
20,1,.1524,.595442,-.052094,.581908,-.102606,0.0*
1,1,.1524,.581908,-.102606*
20,1,.1524,.581908,-.102606,.559808,-.15,0.0*
1,1,.1524,.559808,-.15*
20,1,.1524,.559808,-.15,.529813,-.192836,0.0*
1,1,.1524,.529813,-.192836*
20,1,.1524,.529813,-.192836,.492836,-.229813,0.0*
1,1,.1524,.492836,-.229813*
20,1,.1524,.492836,-.229813,.45,-.259808,0.0*
1,1,.1524,.45,-.259808*
20,1,.1524,.45,-.259808,.402606,-.281908,0.0*
1,1,.1524,.402606,-.281908*
20,1,.1524,.402606,-.281908,.352094,-.295442,0.0*
1,1,.1524,.352094,-.295442*
20,1,.1524,.352094,-.295442,.3,-.3,0.0*
1,1,.1524,.3,-.3*
20,1,.1524,.3,-.3,-.3,-.3,0.0*
1,1,.1524,-.3,-.3*
20,1,.1524,-.3,-.3,-.352094,-.295442,0.0*
1,1,.1524,-.352094,-.295442*
20,1,.1524,-.352094,-.295442,-.402606,-.281908,0.0*
1,1,.1524,-.402606,-.281908*
20,1,.1524,-.402606,-.281908,-.45,-.259808,0.0*
1,1,.1524,-.45,-.259808*
20,1,.1524,-.45,-.259808,-.492836,-.229813,0.0*
1,1,.1524,-.492836,-.229813*
20,1,.1524,-.492836,-.229813,-.529813,-.192836,0.0*
1,1,.1524,-.529813,-.192836*
20,1,.1524,-.529813,-.192836,-.559808,-.15,0.0*
1,1,.1524,-.559808,-.15*
20,1,.1524,-.559808,-.15,-.581908,-.102606,0.0*
1,1,.1524,-.581908,-.102606*
20,1,.1524,-.581908,-.102606,-.595442,-.052094,0.0*
1,1,.1524,-.595442,-.052094*
20,1,.1524,-.595442,-.052094,-.6,0.0,0.0*
1,1,.1524,-.6,0.0*
20,1,.1524,-.6,0.0,-.595442,.052094,0.0*
1,1,.1524,-.595442,.052094*
20,1,.1524,-.595442,.052094,-.581908,.102606,0.0*
1,1,.1524,-.581908,.102606*
20,1,.1524,-.581908,.102606,-.559808,.15,0.0*
1,1,.1524,-.559808,.15*
20,1,.1524,-.559808,.15,-.529813,.192836,0.0*
1,1,.1524,-.529813,.192836*
20,1,.1524,-.529813,.192836,-.492836,.229813,0.0*
1,1,.1524,-.492836,.229813*
20,1,.1524,-.492836,.229813,-.45,.259808,0.0*
1,1,.1524,-.45,.259808*
20,1,.1524,-.45,.259808,-.402606,.281908,0.0*
1,1,.1524,-.402606,.281908*
20,1,.1524,-.402606,.281908,-.352094,.295442,0.0*
1,1,.1524,-.352094,.295442*
20,1,.1524,-.352094,.295442,-.3,.3,0.0*
1,1,.1524,-.3,.3*
1,1,.1524,-.15,-.15*
20,1,.1524,-.15,-.15,-.19,-.145,0.0*
1,1,.1524,-.19,-.145*
20,1,.1524,-.19,-.145,-.225,-.125,0.0*
1,1,.1524,-.225,-.125*
20,1,.1524,-.225,-.125,-.255,-.095,0.0*
1,1,.1524,-.255,-.095*
20,1,.1524,-.255,-.095,-.275,-.06,0.0*
1,1,.1524,-.275,-.06*
20,1,.1524,-.275,-.06,-.285,-.02,0.0*
1,1,.1524,-.285,-.02*
20,1,.1524,-.285,-.02,-.285,.02,0.0*
1,1,.1524,-.285,.02*
20,1,.1524,-.285,.02,-.275,.06,0.0*
1,1,.1524,-.275,.06*
20,1,.1524,-.275,.06,-.255,.095,0.0*
1,1,.1524,-.255,.095*
20,1,.1524,-.255,.095,-.225,.125,0.0*
1,1,.1524,-.225,.125*
20,1,.1524,-.225,.125,-.19,.145,0.0*
1,1,.1524,-.19,.145*
20,1,.1524,-.19,.145,-.15,.15,0.0*
1,1,.1524,-.15,.15*
20,1,.1524,-.15,.15,-.11,.145,0.0*
1,1,.1524,-.11,.145*
20,1,.1524,-.11,.145,-.075,.125,0.0*
1,1,.1524,-.075,.125*
20,1,.1524,-.075,.125,-.045,.095,0.0*
1,1,.1524,-.045,.095*
20,1,.1524,-.045,.095,-.025,.06,0.0*
1,1,.1524,-.025,.06*
20,1,.1524,-.025,.06,-.015,.02,0.0*
1,1,.1524,-.015,.02*
20,1,.1524,-.015,.02,-.015,-.02,0.0*
1,1,.1524,-.015,-.02*
20,1,.1524,-.015,-.02,-.025,-.06,0.0*
1,1,.1524,-.025,-.06*
20,1,.1524,-.025,-.06,-.045,-.095,0.0*
1,1,.1524,-.045,-.095*
20,1,.1524,-.045,-.095,-.075,-.125,0.0*
1,1,.1524,-.075,-.125*
20,1,.1524,-.075,-.125,-.11,-.145,0.0*
1,1,.1524,-.11,-.145*
20,1,.1524,-.11,-.145,-.15,-.15,0.0*
1,1,.1524,-.15,-.15*
1,1,.1524,.0251,-.15*
20,1,.1524,.0251,-.15,.1501,.15,0.0*
1,1,.1524,.1501,.15*
20,1,.1524,.1501,.15,.2751,-.15,0.0*
1,1,.1524,.2751,-.15*
1,1,.1524,.2301,-.045*
20,1,.1524,.2301,-.045,.0701,-.045,0.0*
1,1,.1524,.0701,-.045*
%
%ADD12MACRO12*%
%AMMACRO13*
1,1,.1524,-.55,.3*
20,1,.1524,-.55,.3,.55,.3,0.0*
1,1,.1524,.55,.3*
20,1,.1524,.55,.3,.602094,.295442,0.0*
1,1,.1524,.602094,.295442*
20,1,.1524,.602094,.295442,.652606,.281908,0.0*
1,1,.1524,.652606,.281908*
20,1,.1524,.652606,.281908,.7,.259808,0.0*
1,1,.1524,.7,.259808*
20,1,.1524,.7,.259808,.742836,.229813,0.0*
1,1,.1524,.742836,.229813*
20,1,.1524,.742836,.229813,.779813,.192836,0.0*
1,1,.1524,.779813,.192836*
20,1,.1524,.779813,.192836,.809808,.15,0.0*
1,1,.1524,.809808,.15*
20,1,.1524,.809808,.15,.831908,.102606,0.0*
1,1,.1524,.831908,.102606*
20,1,.1524,.831908,.102606,.845442,.052094,0.0*
1,1,.1524,.845442,.052094*
20,1,.1524,.845442,.052094,.85,0.0,0.0*
1,1,.1524,.85,0.0*
20,1,.1524,.85,0.0,.845442,-.052094,0.0*
1,1,.1524,.845442,-.052094*
20,1,.1524,.845442,-.052094,.831908,-.102606,0.0*
1,1,.1524,.831908,-.102606*
20,1,.1524,.831908,-.102606,.809808,-.15,0.0*
1,1,.1524,.809808,-.15*
20,1,.1524,.809808,-.15,.779813,-.192836,0.0*
1,1,.1524,.779813,-.192836*
20,1,.1524,.779813,-.192836,.742836,-.229813,0.0*
1,1,.1524,.742836,-.229813*
20,1,.1524,.742836,-.229813,.7,-.259808,0.0*
1,1,.1524,.7,-.259808*
20,1,.1524,.7,-.259808,.652606,-.281908,0.0*
1,1,.1524,.652606,-.281908*
20,1,.1524,.652606,-.281908,.602094,-.295442,0.0*
1,1,.1524,.602094,-.295442*
20,1,.1524,.602094,-.295442,.55,-.3,0.0*
1,1,.1524,.55,-.3*
20,1,.1524,.55,-.3,-.55,-.3,0.0*
1,1,.1524,-.55,-.3*
20,1,.1524,-.55,-.3,-.602094,-.295442,0.0*
1,1,.1524,-.602094,-.295442*
20,1,.1524,-.602094,-.295442,-.652606,-.281908,0.0*
1,1,.1524,-.652606,-.281908*
20,1,.1524,-.652606,-.281908,-.7,-.259808,0.0*
1,1,.1524,-.7,-.259808*
20,1,.1524,-.7,-.259808,-.742836,-.229813,0.0*
1,1,.1524,-.742836,-.229813*
20,1,.1524,-.742836,-.229813,-.779813,-.192836,0.0*
1,1,.1524,-.779813,-.192836*
20,1,.1524,-.779813,-.192836,-.809808,-.15,0.0*
1,1,.1524,-.809808,-.15*
20,1,.1524,-.809808,-.15,-.831908,-.102606,0.0*
1,1,.1524,-.831908,-.102606*
20,1,.1524,-.831908,-.102606,-.845442,-.052094,0.0*
1,1,.1524,-.845442,-.052094*
20,1,.1524,-.845442,-.052094,-.85,0.0,0.0*
1,1,.1524,-.85,0.0*
20,1,.1524,-.85,0.0,-.845442,.052094,0.0*
1,1,.1524,-.845442,.052094*
20,1,.1524,-.845442,.052094,-.831908,.102606,0.0*
1,1,.1524,-.831908,.102606*
20,1,.1524,-.831908,.102606,-.809808,.15,0.0*
1,1,.1524,-.809808,.15*
20,1,.1524,-.809808,.15,-.779813,.192836,0.0*
1,1,.1524,-.779813,.192836*
20,1,.1524,-.779813,.192836,-.742836,.229813,0.0*
1,1,.1524,-.742836,.229813*
20,1,.1524,-.742836,.229813,-.7,.259808,0.0*
1,1,.1524,-.7,.259808*
20,1,.1524,-.7,.259808,-.652606,.281908,0.0*
1,1,.1524,-.652606,.281908*
20,1,.1524,-.652606,.281908,-.602094,.295442,0.0*
1,1,.1524,-.602094,.295442*
20,1,.1524,-.602094,.295442,-.55,.3,0.0*
1,1,.1524,-.55,.3*
1,1,.1524,-.15,-.15*
20,1,.1524,-.15,-.15,-.19,-.145,0.0*
1,1,.1524,-.19,-.145*
20,1,.1524,-.19,-.145,-.225,-.125,0.0*
1,1,.1524,-.225,-.125*
20,1,.1524,-.225,-.125,-.255,-.095,0.0*
1,1,.1524,-.255,-.095*
20,1,.1524,-.255,-.095,-.275,-.06,0.0*
1,1,.1524,-.275,-.06*
20,1,.1524,-.275,-.06,-.285,-.02,0.0*
1,1,.1524,-.285,-.02*
20,1,.1524,-.285,-.02,-.285,.02,0.0*
1,1,.1524,-.285,.02*
20,1,.1524,-.285,.02,-.275,.06,0.0*
1,1,.1524,-.275,.06*
20,1,.1524,-.275,.06,-.255,.095,0.0*
1,1,.1524,-.255,.095*
20,1,.1524,-.255,.095,-.225,.125,0.0*
1,1,.1524,-.225,.125*
20,1,.1524,-.225,.125,-.19,.145,0.0*
1,1,.1524,-.19,.145*
20,1,.1524,-.19,.145,-.15,.15,0.0*
1,1,.1524,-.15,.15*
20,1,.1524,-.15,.15,-.11,.145,0.0*
1,1,.1524,-.11,.145*
20,1,.1524,-.11,.145,-.075,.125,0.0*
1,1,.1524,-.075,.125*
20,1,.1524,-.075,.125,-.045,.095,0.0*
1,1,.1524,-.045,.095*
20,1,.1524,-.045,.095,-.025,.06,0.0*
1,1,.1524,-.025,.06*
20,1,.1524,-.025,.06,-.015,.02,0.0*
1,1,.1524,-.015,.02*
20,1,.1524,-.015,.02,-.015,-.02,0.0*
1,1,.1524,-.015,-.02*
20,1,.1524,-.015,-.02,-.025,-.06,0.0*
1,1,.1524,-.025,-.06*
20,1,.1524,-.025,-.06,-.045,-.095,0.0*
1,1,.1524,-.045,-.095*
20,1,.1524,-.045,-.095,-.075,-.125,0.0*
1,1,.1524,-.075,-.125*
20,1,.1524,-.075,-.125,-.11,-.145,0.0*
1,1,.1524,-.11,-.145*
20,1,.1524,-.11,-.145,-.15,-.15,0.0*
1,1,.1524,-.15,-.15*
1,1,.1524,.1901,.01*
20,1,.1524,.1901,.01,.2101,.025,0.0*
1,1,.1524,.2101,.025*
20,1,.1524,.2101,.025,.2251,.05,0.0*
1,1,.1524,.2251,.05*
20,1,.1524,.2251,.05,.2351,.085,0.0*
1,1,.1524,.2351,.085*
20,1,.1524,.2351,.085,.2251,.115,0.0*
1,1,.1524,.2251,.115*
20,1,.1524,.2251,.115,.2051,.135,0.0*
1,1,.1524,.2051,.135*
20,1,.1524,.2051,.135,.1701,.15,0.0*
1,1,.1524,.1701,.15*
20,1,.1524,.1701,.15,.0351,.15,0.0*
1,1,.1524,.0351,.15*
20,1,.1524,.0351,.15,.0351,-.15,0.0*
1,1,.1524,.0351,-.15*
20,1,.1524,.0351,-.15,.2001,-.15,0.0*
1,1,.1524,.2001,-.15*
20,1,.1524,.2001,-.15,.2351,-.13,0.0*
1,1,.1524,.2351,-.13*
20,1,.1524,.2351,-.13,.2551,-.1,0.0*
1,1,.1524,.2551,-.1*
20,1,.1524,.2551,-.1,.2651,-.065,0.0*
1,1,.1524,.2651,-.065*
20,1,.1524,.2651,-.065,.2551,-.03,0.0*
1,1,.1524,.2551,-.03*
20,1,.1524,.2551,-.03,.2251,0.0,0.0*
1,1,.1524,.2251,0.0*
20,1,.1524,.2251,0.0,.1901,.01,0.0*
1,1,.1524,.1901,.01*
20,1,.1524,.1901,.01,.0351,.01,0.0*
1,1,.1524,.0351,.01*
%
%ADD13MACRO13*%
%AMMACRO11*
1,1,.1524,.127,0.0*
20,1,.1524,.127,0.0,-.127,0.0,0.0*
1,1,.1524,-.127,0.0*
1,1,.1524,0.0,.127*
20,1,.1524,0.0,.127,0.0,-.127,0.0*
1,1,.1524,0.0,-.127*
%
%ADD11MACRO11*%
%AMMACRO16*
1,1,.1524,.75,0.0*
20,1,.1524,.75,0.0,.375,.649519,0.0*
1,1,.1524,.375,.649519*
20,1,.1524,.375,.649519,-.375,.649519,0.0*
1,1,.1524,-.375,.649519*
20,1,.1524,-.375,.649519,-.75,0.0,0.0*
1,1,.1524,-.75,0.0*
20,1,.1524,-.75,0.0,-.375,-.649519,0.0*
1,1,.1524,-.375,-.649519*
20,1,.1524,-.375,-.649519,.375,-.649519,0.0*
1,1,.1524,.375,-.649519*
20,1,.1524,.375,-.649519,.75,0.0,0.0*
1,1,.1524,.75,0.0*
%
%ADD16MACRO16*%
%AMMACRO15*
1,1,.1524,0.0,.8*
20,1,.1524,0.0,.8,-.69282,.4,0.0*
1,1,.1524,-.69282,.4*
20,1,.1524,-.69282,.4,-.69282,-.4,0.0*
1,1,.1524,-.69282,-.4*
20,1,.1524,-.69282,-.4,0.0,-.8,0.0*
1,1,.1524,0.0,-.8*
20,1,.1524,0.0,-.8,.69282,-.4,0.0*
1,1,.1524,.69282,-.4*
20,1,.1524,.69282,-.4,.69282,.4,0.0*
1,1,.1524,.69282,.4*
20,1,.1524,.69282,.4,0.0,.8,0.0*
1,1,.1524,0.0,.8*
%
%ADD15MACRO15*%
%AMMACRO17*
1,1,.1524,.55,.55*
20,1,.1524,.55,.55,.55,-.55,0.0*
1,1,.1524,.55,-.55*
20,1,.1524,.55,-.55,-.55,-.55,0.0*
1,1,.1524,-.55,-.55*
20,1,.1524,-.55,-.55,-.55,.55,0.0*
1,1,.1524,-.55,.55*
20,1,.1524,-.55,.55,.55,.55,0.0*
1,1,.1524,.55,.55*
%
%ADD17MACRO17*%
%ADD18C,.1524*%
G75*
%LPD*%
G75*
G54D10*
X360000Y360000D03*
Y5040000D03*
X8140000Y360000D03*
Y5040000D03*
X10201730Y1527500D03*
G54D11*
X170000Y930000D03*
Y1430000D03*
X110000Y3570000D03*
Y4070000D03*
X320000Y1670000D03*
X440000D03*
X560000D03*
X320000Y1800000D03*
Y2100000D03*
Y1940000D03*
X250000Y2350000D03*
X460000D03*
X250000Y2840000D03*
X500000Y3100000D03*
X900000Y110000D03*
X670000Y930000D03*
Y1430000D03*
X610000Y2110000D03*
Y2540000D03*
X650000Y2810000D03*
Y3100000D03*
Y2950000D03*
X810000Y2810000D03*
Y2950000D03*
Y3100000D03*
X920000Y3300000D03*
Y3820000D03*
Y4110000D03*
X860000Y4440000D03*
Y4940000D03*
X1400000Y110000D03*
X1110000Y2540000D03*
X1080000Y3300000D03*
Y3820000D03*
Y4110000D03*
X1360000Y4440000D03*
Y4940000D03*
X1740000Y1250000D03*
X2140000Y70000D03*
X2240000D03*
X1900000Y950000D03*
X2040000D03*
X2170000D03*
X1900000Y1070000D03*
X2040000D03*
X2170000D03*
X2240000Y1250000D03*
X2000000Y2370000D03*
Y2870000D03*
X2350000Y210000D03*
X2540000D03*
X2400000Y700000D03*
X2540000D03*
X2670000D03*
X2400000Y810000D03*
X2540000D03*
X2670000D03*
X2500000Y1870000D03*
Y2370000D03*
Y2870000D03*
X2430000Y3580000D03*
Y4080000D03*
Y4580000D03*
X2730000Y70000D03*
X2740000Y1250000D03*
X3000000Y1870000D03*
Y2370000D03*
Y2870000D03*
X3010000Y3820000D03*
X2850000D03*
Y4030000D03*
X3010000D03*
Y4530000D03*
X2850000D03*
X2870000Y4790000D03*
Y5290000D03*
X3530000Y70000D03*
Y750000D03*
Y890000D03*
Y1020000D03*
X3240000Y1250000D03*
X3500000Y1870000D03*
Y2370000D03*
Y2870000D03*
X3330000Y3820000D03*
X3170000D03*
Y4030000D03*
X3330000D03*
X3510000D03*
X3330000Y4530000D03*
X3170000D03*
X3370000Y4790000D03*
Y5290000D03*
X3840000Y70000D03*
X3832500Y387500D03*
X3770000Y750000D03*
Y890000D03*
Y1020000D03*
X3740000Y1250000D03*
X3830000Y4030000D03*
X3670000D03*
Y4210000D03*
X3780000Y4530000D03*
X3620000D03*
X3870000Y4790000D03*
Y5290000D03*
X4180000Y420000D03*
X4130000Y530000D03*
X4230000D03*
X4130000Y310000D03*
X4230000D03*
X4240000Y1250000D03*
X4000000Y1870000D03*
Y2370000D03*
Y2870000D03*
X4270000Y3490000D03*
Y3650000D03*
X3990000Y4030000D03*
X4330000D03*
X4170000D03*
X4130000Y4530000D03*
X3970000D03*
X4370000Y4790000D03*
Y5290000D03*
X4492500Y142500D03*
X4740000Y730000D03*
Y870000D03*
Y1000000D03*
X4500000Y730000D03*
Y870000D03*
Y1000000D03*
X4740000Y1250000D03*
X4500000Y1870000D03*
Y2370000D03*
Y2870000D03*
X4650000Y4030000D03*
X4490000D03*
Y4200000D03*
X4980000Y100000D03*
Y230000D03*
X5070000Y1000000D03*
Y870000D03*
X5000000Y1870000D03*
Y2370000D03*
Y2870000D03*
X5090000Y3490000D03*
Y3650000D03*
X4990000Y4030000D03*
X5150000D03*
X4830000D03*
X5020000Y5270000D03*
X5350000Y140000D03*
X5240000Y1250000D03*
X5500000Y1870000D03*
Y2370000D03*
Y2870000D03*
X5310000Y4030000D03*
X5500000D03*
X5310000Y4200000D03*
X5510000Y4550000D03*
X5520000Y5270000D03*
X5850000Y140000D03*
X5910000Y3500000D03*
Y3660000D03*
X5980000Y4030000D03*
X5820000D03*
X5660000D03*
X5940000Y4530000D03*
X5670000Y4550000D03*
X6020000Y5270000D03*
X6350000Y140000D03*
X6140000Y2360000D03*
Y2860000D03*
X6320000Y4030000D03*
X6160000D03*
X6120000Y4210000D03*
X6100000Y4530000D03*
X6750000Y140000D03*
X6890000Y530000D03*
X6640000Y2360000D03*
Y2860000D03*
X6720000Y3490000D03*
Y3650000D03*
X6640000Y4030000D03*
X6480000D03*
X6800000D03*
X6660000Y5260000D03*
X7250000Y140000D03*
X7110000Y530000D03*
X7010000D03*
X7210000D03*
X7110000Y660000D03*
X7010000D03*
X7140000Y2360000D03*
Y2860000D03*
X7280000Y4030000D03*
X7120000D03*
X6960000D03*
X6930000Y4210000D03*
X7200000Y4530000D03*
X6960000Y4810000D03*
X7160000Y5260000D03*
X7640000Y2360000D03*
Y2860000D03*
X7530000Y3490000D03*
Y3650000D03*
X7620000Y4030000D03*
X7460000D03*
X7720000Y4200000D03*
X7700000Y4530000D03*
X7540000D03*
X7360000D03*
X7460000Y4810000D03*
X7660000Y5260000D03*
X7750000Y140000D03*
X8140000Y2360000D03*
Y2860000D03*
X7940000Y4030000D03*
X7780000D03*
X8100000D03*
X8060000Y4550000D03*
X8290000Y3500000D03*
Y3660000D03*
X8260000Y4030000D03*
X8420000D03*
X8220000Y4550000D03*
X8380000D03*
X10201730Y4702500D03*
G54D12*
X258000Y3408000D03*
Y4272000D03*
X10201730Y892500D03*
G54D13*
X676000Y3408000D03*
Y4272000D03*
X10201730Y257500D03*
G54D14*
X990000Y1980000D03*
X8190000D03*
X10201730Y2162500D03*
G54D15*
X1090000Y4315000D03*
X1570000D03*
X2050000D03*
X10201730Y2797500D03*
G54D16*
X905000Y5237000D03*
X2235000D03*
X10201730Y3432500D03*
G54D17*
X1300000Y496000D03*
Y750000D03*
X2960000Y3220000D03*
X3468000D03*
X3214000D03*
X3770000D03*
X4024000D03*
X4278000D03*
X4580000D03*
X4834000D03*
X4770000Y4760000D03*
Y5014000D03*
X5088000Y3220000D03*
X5278000Y4760000D03*
X5024000D03*
X5278000Y5014000D03*
X5024000D03*
X5590000Y496000D03*
Y750000D03*
X5390000Y3220000D03*
X5644000D03*
X5532000Y4760000D03*
Y5014000D03*
X5898000Y3220000D03*
X6040000Y4760000D03*
X5786000D03*
X6040000Y5014000D03*
X5786000D03*
X6200000Y3220000D03*
X6454000D03*
X6294000Y4760000D03*
Y5014000D03*
X6708000Y3220000D03*
X6802000Y4760000D03*
X6548000D03*
X6802000Y5014000D03*
X6548000D03*
X7010000Y3220000D03*
X7264000D03*
X7518000D03*
X7820000D03*
X8074000D03*
X8328000D03*
X10201730Y4067500D03*
G54D18*
G01X-1037400Y2603320D02*
X-1023180Y2587450D01*
X-1006590Y2577920D01*
X-985250Y2574750D01*
X-963910Y2581100D01*
X-947320Y2593800D01*
X-935470Y2616020D01*
X-933100Y2641420D01*
X-937840Y2666820D01*
X-949690Y2682700D01*
X-966290Y2695400D01*
X-982880Y2698570D01*
X-999470Y2695400D01*
X-1020810Y2682700D01*
X-1013700Y2765250D01*
X-949690D01*
G01X-766300Y2574750D02*
Y2765250D01*
X-854020Y2628730D01*
X-735480D01*
G01X3544750Y-765250D02*
X3561340Y-762080D01*
X3580310Y-752550D01*
X3592160Y-736680D01*
X3596900Y-714450D01*
X3592160Y-692230D01*
X3577940Y-673180D01*
X3556600Y-663650D01*
X3532900D01*
X3518670Y-657300D01*
X3506820Y-641430D01*
X3502080Y-619200D01*
X3509190Y-596980D01*
X3525780Y-581100D01*
X3544750Y-574750D01*
X3563710Y-581100D01*
X3580310Y-596980D01*
X3587420Y-619200D01*
X3582680Y-641430D01*
X3570830Y-657300D01*
X3556600Y-663650D01*
X3532900D01*
X3511560Y-673180D01*
X3497340Y-692230D01*
X3492600Y-714450D01*
X3497340Y-736680D01*
X3509190Y-752550D01*
X3528160Y-762080D01*
X3544750Y-765250D01*
G01X3683100Y-736680D02*
X3697320Y-752550D01*
X3713910Y-762080D01*
X3735250Y-765250D01*
X3756590Y-758900D01*
X3773180Y-746200D01*
X3785030Y-723980D01*
X3787400Y-698580D01*
X3782660Y-673180D01*
X3770810Y-657300D01*
X3754210Y-644600D01*
X3737620Y-641430D01*
X3721030Y-644600D01*
X3699690Y-657300D01*
X3706800Y-574750D01*
X3770810D01*
G01X9339520Y5178750D02*
Y5496250D01*
X9489140D01*
G01X9434010Y5342800D02*
X9339520D01*
G01X9682050Y5496250D02*
X9776530D01*
G01X9729290D02*
Y5178750D01*
G01X9682050D02*
X9776530D01*
G01X10067870Y5337500D02*
X10146620D01*
Y5242250D01*
X10122990Y5210490D01*
X10095430Y5189330D01*
X10056060Y5178750D01*
X10016690Y5189330D01*
X9989130Y5210490D01*
X9965510Y5242250D01*
X9949760Y5279290D01*
X9941880Y5321620D01*
Y5358670D01*
X9949760Y5390410D01*
X9965510Y5427460D01*
X9989130Y5459210D01*
X10012750Y5480370D01*
X10044250Y5496250D01*
X10071810D01*
X10103300Y5485670D01*
X10126930Y5464500D01*
G01X10272600Y5496250D02*
Y5268710D01*
X10288340Y5221070D01*
X10319840Y5189330D01*
X10359210Y5178750D01*
X10398580Y5189330D01*
X10430080Y5221070D01*
X10445820Y5268710D01*
Y5496250D01*
G01X10595430Y5178750D02*
Y5496250D01*
X10693850D01*
X10725350Y5480370D01*
X10745040Y5459210D01*
X10752910Y5416870D01*
X10745040Y5374540D01*
X10721410Y5348090D01*
X10693850Y5332200D01*
X10595430D01*
G01X10693850D02*
X10752910Y5178750D01*
G01X11067870D02*
X10910390D01*
Y5496250D01*
X11067870D01*
G01X11004880Y5342800D02*
X10910390D01*
G01X11937940Y5178750D02*
Y5496250D01*
X12087560D01*
G01X12032430Y5342800D02*
X11937940D01*
G01X12280470Y5496250D02*
X12374950D01*
G01X12327710D02*
Y5178750D01*
G01X12280470D02*
X12374950D01*
G01X12552120D02*
Y5496250D01*
X12733220Y5178750D01*
Y5496250D01*
G01X12910390D02*
X13004870D01*
G01X12957630D02*
Y5178750D01*
G01X12910390D02*
X13004870D01*
G01X13189910Y5221070D02*
X13221410Y5194620D01*
X13256840Y5178750D01*
X13288340D01*
X13319830Y5194620D01*
X13343460Y5221070D01*
X13355270Y5258130D01*
X13347400Y5295160D01*
X13327710Y5326910D01*
X13292270Y5348090D01*
X13245030Y5358670D01*
X13217470Y5379830D01*
X13205660Y5416870D01*
X13213540Y5453920D01*
X13233220Y5480370D01*
X13260780Y5496250D01*
X13288340D01*
X13315900Y5485670D01*
X13339520Y5459210D01*
G01X13504870Y5178750D02*
Y5496250D01*
G01X13670230D02*
Y5178750D01*
G01Y5337500D02*
X13504870D01*
G01X13981250Y5178750D02*
X13823770D01*
Y5496250D01*
X13981250D01*
G01X13918260Y5342800D02*
X13823770D01*
G01X14130860Y5178750D02*
Y5496250D01*
X14209590D01*
X14241090Y5480370D01*
X14264710Y5459210D01*
X14284400Y5427460D01*
X14300150Y5390410D01*
X14304080Y5337500D01*
X14300150Y5284580D01*
X14284400Y5247540D01*
X14264710Y5215780D01*
X14241090Y5194620D01*
X14209590Y5178750D01*
X14130860D01*
G01X14414320Y5072920D02*
X14650540D01*
G01X14764710Y5221070D02*
X14796210Y5194620D01*
X14831640Y5178750D01*
X14863140D01*
X14894630Y5194620D01*
X14918260Y5221070D01*
X14930070Y5258130D01*
X14922200Y5295160D01*
X14902510Y5326910D01*
X14867070Y5348090D01*
X14819830Y5358670D01*
X14792270Y5379830D01*
X14780460Y5416870D01*
X14788340Y5453920D01*
X14808020Y5480370D01*
X14835580Y5496250D01*
X14863140D01*
X14890700Y5485670D01*
X14914320Y5459210D01*
G01X15115110Y5496250D02*
X15209590D01*
G01X15162350D02*
Y5178750D01*
G01X15115110D02*
X15209590D01*
G01X15402500Y5496250D02*
X15552120D01*
X15402500Y5178750D01*
X15552120D01*
G01X15871010D02*
X15713530D01*
Y5496250D01*
X15871010D01*
G01X15808020Y5342800D02*
X15713530D01*
G01X12957630Y98750D02*
Y416250D01*
X12910390Y352750D01*
G01Y98750D02*
X13004870D01*
G01X13272590Y88170D02*
X13264710Y93460D01*
Y104040D01*
X13272590Y109330D01*
X13280470Y104040D01*
Y93460D01*
X13272590Y88170D01*
G01X13579670Y98750D02*
X13587550Y167540D01*
X13599360Y225740D01*
X13615110Y278670D01*
X13634790Y336870D01*
X13666290Y416250D01*
X13508810D01*
G01X13843460Y310410D02*
X13961560Y98750D01*
G01Y310410D02*
X13843460Y98750D01*
G01X14217470Y416250D02*
X14185970Y405670D01*
X14162350Y379210D01*
X14146600Y347460D01*
X14134790Y305120D01*
X14130860Y257500D01*
X14134790Y209870D01*
X14146600Y167540D01*
X14162350Y135780D01*
X14185970Y109330D01*
X14217470Y98750D01*
X14248960Y109330D01*
X14272590Y135780D01*
X14288340Y167540D01*
X14300150Y209870D01*
X14304080Y257500D01*
X14300150Y305120D01*
X14288340Y347460D01*
X14272590Y379210D01*
X14248960Y405670D01*
X14217470Y416250D01*
G01X14532430Y88170D02*
X14524550Y93460D01*
Y104040D01*
X14532430Y109330D01*
X14540310Y104040D01*
Y93460D01*
X14532430Y88170D01*
G01X14772580Y231030D02*
X14800150Y268090D01*
X14823770Y289250D01*
X14855270Y299830D01*
X14882830Y289250D01*
X14902510Y268090D01*
X14918260Y236330D01*
X14922200Y199290D01*
X14918260Y167540D01*
X14902510Y135780D01*
X14878880Y109330D01*
X14851330Y98750D01*
X14819830Y109330D01*
X14792270Y141070D01*
X14776520Y188710D01*
X14772580Y241620D01*
X14780460Y310410D01*
X14792270Y347460D01*
X14811950Y384500D01*
X14839510Y410960D01*
X14867070Y416250D01*
X14894630Y405670D01*
X14914320Y379210D01*
G01X12957630Y733750D02*
Y1051250D01*
X12910390Y987750D01*
G01Y733750D02*
X13004870D01*
G01X13272590Y723170D02*
X13264710Y728460D01*
Y739040D01*
X13272590Y744330D01*
X13280470Y739040D01*
Y728460D01*
X13272590Y723170D01*
G01X13512740Y998330D02*
X13536370Y1030080D01*
X13563930Y1045960D01*
X13595430Y1051250D01*
X13634790Y1040670D01*
X13662360Y1014210D01*
X13670230Y982460D01*
X13666290Y950700D01*
X13650540Y924250D01*
X13571800Y871330D01*
X13536370Y834290D01*
X13512740Y781360D01*
X13504870Y733750D01*
X13670230D01*
G01X13843460Y945410D02*
X13961560Y733750D01*
G01Y945410D02*
X13843460Y733750D01*
G01X14217470Y1051250D02*
X14185970Y1040670D01*
X14162350Y1014210D01*
X14146600Y982460D01*
X14134790Y940120D01*
X14130860Y892500D01*
X14134790Y844870D01*
X14146600Y802540D01*
X14162350Y770780D01*
X14185970Y744330D01*
X14217470Y733750D01*
X14248960Y744330D01*
X14272590Y770780D01*
X14288340Y802540D01*
X14300150Y844870D01*
X14304080Y892500D01*
X14300150Y940120D01*
X14288340Y982460D01*
X14272590Y1014210D01*
X14248960Y1040670D01*
X14217470Y1051250D01*
G01X14532430Y723170D02*
X14524550Y728460D01*
Y739040D01*
X14532430Y744330D01*
X14540310Y739040D01*
Y728460D01*
X14532430Y723170D01*
G01X14772580Y866030D02*
X14800150Y903090D01*
X14823770Y924250D01*
X14855270Y934830D01*
X14882830Y924250D01*
X14902510Y903090D01*
X14918260Y871330D01*
X14922200Y834290D01*
X14918260Y802540D01*
X14902510Y770780D01*
X14878880Y744330D01*
X14851330Y733750D01*
X14819830Y744330D01*
X14792270Y776070D01*
X14776520Y823710D01*
X14772580Y876620D01*
X14780460Y945410D01*
X14792270Y982460D01*
X14811950Y1019500D01*
X14839510Y1045960D01*
X14867070Y1051250D01*
X14894630Y1040670D01*
X14914320Y1014210D01*
G01X13272590Y4861250D02*
X13241090Y4850670D01*
X13217470Y4824210D01*
X13201720Y4792460D01*
X13189910Y4750120D01*
X13185980Y4702500D01*
X13189910Y4654870D01*
X13201720Y4612540D01*
X13217470Y4580780D01*
X13241090Y4554330D01*
X13272590Y4543750D01*
X13304080Y4554330D01*
X13327710Y4580780D01*
X13343460Y4612540D01*
X13355270Y4654870D01*
X13359200Y4702500D01*
X13355270Y4750120D01*
X13343460Y4792460D01*
X13327710Y4824210D01*
X13304080Y4850670D01*
X13272590Y4861250D01*
G01X13587550Y4533170D02*
X13579670Y4538460D01*
Y4549040D01*
X13587550Y4554330D01*
X13595430Y4549040D01*
Y4538460D01*
X13587550Y4533170D01*
G01X13827700Y4808330D02*
X13851330Y4840080D01*
X13878890Y4855960D01*
X13910390Y4861250D01*
X13949750Y4850670D01*
X13977320Y4824210D01*
X13985190Y4792460D01*
X13981250Y4760700D01*
X13965500Y4734250D01*
X13886760Y4681330D01*
X13851330Y4644290D01*
X13827700Y4591360D01*
X13819830Y4543750D01*
X13985190D01*
G01X14130860Y4591360D02*
X14154470Y4564910D01*
X14182030Y4549040D01*
X14217470Y4543750D01*
X14252910Y4554330D01*
X14280460Y4575490D01*
X14300150Y4612540D01*
X14304080Y4654870D01*
X14296210Y4697200D01*
X14276520Y4723670D01*
X14248960Y4744830D01*
X14221410Y4750120D01*
X14193850Y4744830D01*
X14158420Y4723670D01*
X14170230Y4861250D01*
X14276520D01*
G01X14579670Y4543750D02*
Y4861250D01*
X14434000Y4633710D01*
X14630860D01*
G01X13500940Y1432250D02*
X13524550Y1395200D01*
X13556050Y1374040D01*
X13591490Y1368750D01*
X13622990Y1374040D01*
X13654480Y1400490D01*
X13674160Y1432250D01*
X13678100Y1464000D01*
X13670230Y1501030D01*
X13642670Y1527500D01*
X13615110Y1538090D01*
X13579670D01*
G01X13615110D02*
X13638730Y1553960D01*
X13658420Y1580410D01*
X13666290Y1612160D01*
X13658420Y1643920D01*
X13638730Y1670370D01*
X13603300Y1686250D01*
X13567870Y1680960D01*
X13532430Y1659790D01*
G01X13902510Y1358170D02*
X13894630Y1363460D01*
Y1374040D01*
X13902510Y1379330D01*
X13910390Y1374040D01*
Y1363460D01*
X13902510Y1358170D01*
G01X14130860Y1432250D02*
X14154470Y1395200D01*
X14185970Y1374040D01*
X14221410Y1368750D01*
X14252910Y1374040D01*
X14284400Y1400490D01*
X14304080Y1432250D01*
X14308020Y1464000D01*
X14300150Y1501030D01*
X14272590Y1527500D01*
X14245030Y1538090D01*
X14209590D01*
G01X14245030D02*
X14268650Y1553960D01*
X14288340Y1580410D01*
X14296210Y1612160D01*
X14288340Y1643920D01*
X14268650Y1670370D01*
X14233220Y1686250D01*
X14197790Y1680960D01*
X14162350Y1659790D01*
G01X13587550Y2003750D02*
Y2321250D01*
X13540310Y2257750D01*
G01Y2003750D02*
X13634790D01*
G01X13902510Y1993170D02*
X13894630Y1998460D01*
Y2009040D01*
X13902510Y2014330D01*
X13910390Y2009040D01*
Y1998460D01*
X13902510Y1993170D01*
G01X14209590Y2003750D02*
X14217470Y2072540D01*
X14229280Y2130740D01*
X14245030Y2183670D01*
X14264710Y2241870D01*
X14296210Y2321250D01*
X14138730D01*
G01X13587550Y2638750D02*
Y2956250D01*
X13540310Y2892750D01*
G01Y2638750D02*
X13634790D01*
G01X13902510Y2628170D02*
X13894630Y2633460D01*
Y2644040D01*
X13902510Y2649330D01*
X13910390Y2644040D01*
Y2633460D01*
X13902510Y2628170D01*
G01X14142660Y2771030D02*
X14170230Y2808090D01*
X14193850Y2829250D01*
X14225350Y2839830D01*
X14252910Y2829250D01*
X14272590Y2808090D01*
X14288340Y2776330D01*
X14292280Y2739290D01*
X14288340Y2707540D01*
X14272590Y2675780D01*
X14248960Y2649330D01*
X14221410Y2638750D01*
X14189910Y2649330D01*
X14162350Y2681070D01*
X14146600Y2728710D01*
X14142660Y2781620D01*
X14150540Y2850410D01*
X14162350Y2887460D01*
X14182030Y2924500D01*
X14209590Y2950960D01*
X14237150Y2956250D01*
X14264710Y2945670D01*
X14284400Y2919210D01*
G01X13587550Y3273750D02*
Y3591250D01*
X13540310Y3527750D01*
G01Y3273750D02*
X13634790D01*
G01X13902510Y3263170D02*
X13894630Y3268460D01*
Y3279040D01*
X13902510Y3284330D01*
X13910390Y3279040D01*
Y3268460D01*
X13902510Y3263170D01*
G01X14130860Y3321360D02*
X14154470Y3294910D01*
X14182030Y3279040D01*
X14217470Y3273750D01*
X14252910Y3284330D01*
X14280460Y3305490D01*
X14300150Y3342540D01*
X14304080Y3384870D01*
X14296210Y3427200D01*
X14276520Y3453670D01*
X14248960Y3474830D01*
X14221410Y3480120D01*
X14193850Y3474830D01*
X14158420Y3453670D01*
X14170230Y3591250D01*
X14276520D01*
G01X13587550Y3908750D02*
Y4226250D01*
X13540310Y4162750D01*
G01Y3908750D02*
X13634790D01*
G01X13902510Y3898170D02*
X13894630Y3903460D01*
Y3914040D01*
X13902510Y3919330D01*
X13910390Y3914040D01*
Y3903460D01*
X13902510Y3898170D01*
G01X14217470Y3908750D02*
Y4226250D01*
X14170230Y4162750D01*
G01Y3908750D02*
X14264710D01*
G01X13567860Y5813750D02*
X13666290Y6131250D01*
X13764720Y5813750D01*
G01X13729280Y5924870D02*
X13603290D01*
G01X13902510Y6131250D02*
Y5813750D01*
X14059990D01*
G01X14217470Y6131250D02*
Y5813750D01*
X14374950D01*
G01X14839520Y6131250D02*
Y5903710D01*
X14855260Y5856070D01*
X14886760Y5824330D01*
X14926130Y5813750D01*
X14965500Y5824330D01*
X14997000Y5856070D01*
X15012740Y5903710D01*
Y6131250D01*
G01X15150540Y5813750D02*
Y6131250D01*
X15331640Y5813750D01*
Y6131250D01*
G01X15508810D02*
X15603290D01*
G01X15556050D02*
Y5813750D01*
G01X15508810D02*
X15603290D01*
G01X15871010Y6131250D02*
Y5813750D01*
G01X15780460Y6131250D02*
X15961560D01*
G01X16103290Y5856070D02*
X16134790Y5829620D01*
X16170220Y5813750D01*
X16201720D01*
X16233210Y5829620D01*
X16256840Y5856070D01*
X16268650Y5893130D01*
X16260780Y5930160D01*
X16241090Y5961910D01*
X16205650Y5983090D01*
X16158410Y5993670D01*
X16130850Y6014830D01*
X16119040Y6051870D01*
X16126920Y6088920D01*
X16146600Y6115370D01*
X16174160Y6131250D01*
X16201720D01*
X16229280Y6120670D01*
X16252900Y6094210D01*
G01X16717460Y5813750D02*
X16815890Y6131250D01*
X16914320Y5813750D01*
G01X16878880Y5924870D02*
X16752890D01*
G01X17052110Y5813750D02*
Y6131250D01*
X17150530D01*
X17182030Y6115370D01*
X17201720Y6094210D01*
X17209590Y6051870D01*
X17201720Y6009540D01*
X17178090Y5983090D01*
X17150530Y5967200D01*
X17052110D01*
G01X17150530D02*
X17209590Y5813750D01*
G01X17524550D02*
X17367070D01*
Y6131250D01*
X17524550D01*
G01X17461560Y5977800D02*
X17367070D01*
G01X18028490Y6131250D02*
X18122970D01*
G01X18075730D02*
Y5813750D01*
G01X18028490D02*
X18122970D01*
G01X18300140D02*
Y6131250D01*
X18481240Y5813750D01*
Y6131250D01*
G01X18918240Y5813750D02*
Y6131250D01*
X19020610Y5866670D01*
X19122980Y6131250D01*
Y5813750D01*
G01X19288330Y6131250D02*
X19382810D01*
G01X19335570D02*
Y5813750D01*
G01X19288330D02*
X19382810D01*
G01X19571790Y6131250D02*
Y5813750D01*
X19729270D01*
G01X19886750Y6131250D02*
Y5813750D01*
X20044230D01*
G01X20233210Y6131250D02*
X20327690D01*
G01X20280450D02*
Y5813750D01*
G01X20233210D02*
X20327690D01*
G01X20493040D02*
Y6131250D01*
X20595410Y5866670D01*
X20697780Y6131250D01*
Y5813750D01*
G01X20989110D02*
X20831630D01*
Y6131250D01*
X20989110D01*
G01X20926120Y5977800D02*
X20831630D01*
G01X21225330Y6131250D02*
Y5813750D01*
G01X21134780Y6131250D02*
X21315880D01*
G01X21619030Y5813750D02*
X21461550D01*
Y6131250D01*
X21619030D01*
G01X21556040Y5977800D02*
X21461550D01*
G01X21776510Y5813750D02*
Y6131250D01*
X21874930D01*
X21906430Y6115370D01*
X21926120Y6094210D01*
X21933990Y6051870D01*
X21926120Y6009540D01*
X21902490Y5983090D01*
X21874930Y5967200D01*
X21776510D01*
G01X21874930D02*
X21933990Y5813750D01*
G01X22087530Y5856070D02*
X22119030Y5829620D01*
X22154460Y5813750D01*
X22185960D01*
X22217450Y5829620D01*
X22241080Y5856070D01*
X22252890Y5893130D01*
X22245020Y5930160D01*
X22225330Y5961910D01*
X22189890Y5983090D01*
X22142650Y5993670D01*
X22115090Y6014830D01*
X22103280Y6051870D01*
X22111160Y6088920D01*
X22130840Y6115370D01*
X22158400Y6131250D01*
X22185960D01*
X22213520Y6120670D01*
X22237140Y6094210D01*
G01X13894640Y6463750D02*
Y6781250D01*
X13973370D01*
X14004870Y6765370D01*
X14028490Y6744210D01*
X14048180Y6712460D01*
X14063930Y6675410D01*
X14067860Y6622500D01*
X14063930Y6569580D01*
X14048180Y6532540D01*
X14028490Y6500780D01*
X14004870Y6479620D01*
X13973370Y6463750D01*
X13894640D01*
G01X14217470D02*
Y6781250D01*
X14315890D01*
X14347390Y6765370D01*
X14367080Y6744210D01*
X14374950Y6701870D01*
X14367080Y6659540D01*
X14343450Y6633090D01*
X14315890Y6617200D01*
X14217470D01*
G01X14315890D02*
X14374950Y6463750D01*
G01X14563930Y6781250D02*
X14658410D01*
G01X14611170D02*
Y6463750D01*
G01X14563930D02*
X14658410D01*
G01X14847390Y6781250D02*
Y6463750D01*
X15004870D01*
G01X15162350Y6781250D02*
Y6463750D01*
X15319830D01*
G01X15957620Y6754790D02*
X15934000Y6770670D01*
X15906450Y6781250D01*
X15874950D01*
X15839510Y6765370D01*
X15811960Y6738920D01*
X15792270Y6707160D01*
X15776520Y6654250D01*
X15772580Y6606620D01*
X15780460Y6559000D01*
X15792270Y6527250D01*
X15815890Y6495490D01*
X15843450Y6474330D01*
X15871010Y6463750D01*
X15898570D01*
X15926130Y6474330D01*
X15949750Y6490200D01*
X15969440Y6511360D01*
G01X16103290Y6463750D02*
Y6781250D01*
G01X16268650D02*
Y6463750D01*
G01Y6622500D02*
X16103290D01*
G01X16402500Y6463750D02*
X16500930Y6781250D01*
X16599360Y6463750D01*
G01X16563920Y6574870D02*
X16437930D01*
G01X16737150Y6463750D02*
Y6781250D01*
X16835570D01*
X16867070Y6765370D01*
X16886760Y6744210D01*
X16894630Y6701870D01*
X16886760Y6659540D01*
X16863130Y6633090D01*
X16835570Y6617200D01*
X16737150D01*
G01X16835570D02*
X16894630Y6463750D01*
G01X17130850Y6781250D02*
Y6463750D01*
G01X17040300Y6781250D02*
X17221400D01*
G01X17445810Y6453170D02*
X17437930Y6458460D01*
Y6469040D01*
X17445810Y6474330D01*
X17453690Y6469040D01*
Y6458460D01*
X17445810Y6453170D01*
G01Y6596030D02*
X17437930Y6601330D01*
Y6611910D01*
X17445810Y6617200D01*
X17453690Y6611910D01*
Y6601330D01*
X17445810Y6596030D01*
G01X18075730Y6781250D02*
Y6463750D01*
G01X17985180Y6781250D02*
X18166280D01*
G01X18390690Y6463750D02*
X18359190Y6469040D01*
X18331640Y6490200D01*
X18308010Y6521960D01*
X18292260Y6559000D01*
X18284390Y6601330D01*
Y6643670D01*
X18292260Y6686000D01*
X18308010Y6723040D01*
X18331640Y6754790D01*
X18359190Y6775960D01*
X18390690Y6781250D01*
X18422180Y6775960D01*
X18449740Y6754790D01*
X18473370Y6723040D01*
X18489120Y6686000D01*
X18496990Y6643670D01*
Y6601330D01*
X18489120Y6559000D01*
X18473370Y6521960D01*
X18449740Y6490200D01*
X18422180Y6469040D01*
X18390690Y6463750D01*
G01X18626910D02*
Y6781250D01*
X18721400D01*
X18752890Y6765370D01*
X18776520Y6728330D01*
X18784390Y6686000D01*
X18776520Y6643670D01*
X18756830Y6611910D01*
X18721400Y6596030D01*
X18626910D01*
G01X19335570Y6781250D02*
Y6463750D01*
G01X19280450Y6675410D02*
X19390690D01*
G01X19650530Y6463750D02*
X19626910Y6469040D01*
X19603290Y6490200D01*
X19587530Y6527250D01*
X19579660Y6569580D01*
X19587530Y6611910D01*
X19603290Y6648960D01*
X19626910Y6670120D01*
X19650530Y6675410D01*
X19674150Y6670120D01*
X19697770Y6648960D01*
X19713520Y6611910D01*
X19717460Y6569580D01*
X19713520Y6527250D01*
X19697770Y6490200D01*
X19674150Y6469040D01*
X19650530Y6463750D01*
G01X20311940Y6633090D02*
X20327690Y6648960D01*
X20339500Y6675410D01*
X20347380Y6712460D01*
X20339500Y6744210D01*
X20323760Y6765370D01*
X20296200Y6781250D01*
X20189900D01*
Y6463750D01*
X20319820D01*
X20347380Y6484910D01*
X20363130Y6516670D01*
X20371000Y6553710D01*
X20363130Y6590740D01*
X20339500Y6622500D01*
X20311940Y6633090D01*
X20189900D01*
G01X20595410Y6463750D02*
X20563910Y6469040D01*
X20536360Y6490200D01*
X20512730Y6521960D01*
X20496980Y6559000D01*
X20489110Y6601330D01*
Y6643670D01*
X20496980Y6686000D01*
X20512730Y6723040D01*
X20536360Y6754790D01*
X20563910Y6775960D01*
X20595410Y6781250D01*
X20626900Y6775960D01*
X20654460Y6754790D01*
X20678090Y6723040D01*
X20693840Y6686000D01*
X20701710Y6643670D01*
Y6601330D01*
X20693840Y6559000D01*
X20678090Y6521960D01*
X20654460Y6490200D01*
X20626900Y6469040D01*
X20595410Y6463750D01*
G01X20910370Y6781250D02*
Y6463750D01*
G01X20819820Y6781250D02*
X21000920D01*
G01X21225330D02*
Y6463750D01*
G01X21134780Y6781250D02*
X21315880D01*
G01X21540290Y6463750D02*
X21508790Y6469040D01*
X21481240Y6490200D01*
X21457610Y6521960D01*
X21441860Y6559000D01*
X21433990Y6601330D01*
Y6643670D01*
X21441860Y6686000D01*
X21457610Y6723040D01*
X21481240Y6754790D01*
X21508790Y6775960D01*
X21540290Y6781250D01*
X21571780Y6775960D01*
X21599340Y6754790D01*
X21622970Y6723040D01*
X21638720Y6686000D01*
X21646590Y6643670D01*
Y6601330D01*
X21638720Y6559000D01*
X21622970Y6521960D01*
X21599340Y6490200D01*
X21571780Y6469040D01*
X21540290Y6463750D01*
G01X21752880D02*
Y6781250D01*
X21855250Y6516670D01*
X21957620Y6781250D01*
Y6463750D01*
G01X17201720Y5178750D02*
Y5496250D01*
X17280450D01*
X17311950Y5480370D01*
X17335570Y5459210D01*
X17355260Y5427460D01*
X17371010Y5390410D01*
X17374940Y5337500D01*
X17371010Y5284580D01*
X17355260Y5247540D01*
X17335570Y5215780D01*
X17311950Y5194620D01*
X17280450Y5178750D01*
X17201720D01*
G01X17524550D02*
Y5496250D01*
X17622970D01*
X17654470Y5480370D01*
X17674160Y5459210D01*
X17682030Y5416870D01*
X17674160Y5374540D01*
X17650530Y5348090D01*
X17622970Y5332200D01*
X17524550D01*
G01X17622970D02*
X17682030Y5178750D01*
G01X17871010Y5496250D02*
X17965490D01*
G01X17918250D02*
Y5178750D01*
G01X17871010D02*
X17965490D01*
G01X18154470Y5496250D02*
Y5178750D01*
X18311950D01*
G01X18469430Y5496250D02*
Y5178750D01*
X18626910D01*
G01X18941870D02*
X18784390D01*
Y5496250D01*
X18941870D01*
G01X18878880Y5342800D02*
X18784390D01*
G01X19091480Y5178750D02*
Y5496250D01*
X19170210D01*
X19201710Y5480370D01*
X19225330Y5459210D01*
X19245020Y5427460D01*
X19260770Y5390410D01*
X19264700Y5337500D01*
X19260770Y5284580D01*
X19245020Y5247540D01*
X19225330Y5215780D01*
X19201710Y5194620D01*
X19170210Y5178750D01*
X19091480D01*
G01X19374940Y5072920D02*
X19611160D01*
G01X19725330Y5221070D02*
X19756830Y5194620D01*
X19792260Y5178750D01*
X19823760D01*
X19855250Y5194620D01*
X19878880Y5221070D01*
X19890690Y5258130D01*
X19882820Y5295160D01*
X19863130Y5326910D01*
X19827690Y5348090D01*
X19780450Y5358670D01*
X19752890Y5379830D01*
X19741080Y5416870D01*
X19748960Y5453920D01*
X19768640Y5480370D01*
X19796200Y5496250D01*
X19823760D01*
X19851320Y5485670D01*
X19874940Y5459210D01*
G01X20075730Y5496250D02*
X20170210D01*
G01X20122970D02*
Y5178750D01*
G01X20075730D02*
X20170210D01*
G01X20363120Y5496250D02*
X20512740D01*
X20363120Y5178750D01*
X20512740D01*
G01X20831630D02*
X20674150D01*
Y5496250D01*
X20831630D01*
G01X20768640Y5342800D02*
X20674150D01*
G01X18969430Y204580D02*
X19071790D01*
G01X18969430Y839580D02*
X19071790D01*
G01X18969430Y1474580D02*
X19071790D01*
G01X18969430Y2109580D02*
X19071790D01*
G01X18969430Y2744580D02*
X19071790D01*
G01X18969430Y3379580D02*
X19071790D01*
G01X18969430Y4014580D02*
X19071790D01*
G01X18969430Y4649580D02*
X19071790D01*
G01X20907830Y-218750D02*
Y-536250D01*
G01X20817280Y-218750D02*
X20998380D01*
G01X21222790Y-536250D02*
X21191290Y-530960D01*
X21163740Y-509800D01*
X21140110Y-478040D01*
X21124360Y-441000D01*
X21116490Y-398670D01*
Y-356330D01*
X21124360Y-314000D01*
X21140110Y-276960D01*
X21163740Y-245210D01*
X21191290Y-224040D01*
X21222790Y-218750D01*
X21254280Y-224040D01*
X21281840Y-245210D01*
X21305470Y-276960D01*
X21321220Y-314000D01*
X21329090Y-356330D01*
Y-398670D01*
X21321220Y-441000D01*
X21305470Y-478040D01*
X21281840Y-509800D01*
X21254280Y-530960D01*
X21222790Y-536250D01*
G01X21537750Y-218750D02*
Y-536250D01*
G01X21447200Y-218750D02*
X21628300D01*
G01X21754280Y-536250D02*
X21852710Y-218750D01*
X21951140Y-536250D01*
G01X21915700Y-425130D02*
X21789710D01*
G01X22088930Y-218750D02*
Y-536250D01*
X22246410D01*
G01X22714910D02*
Y-218750D01*
G01X22880270D02*
Y-536250D01*
G01Y-377500D02*
X22714910D01*
G01X23112550Y-536250D02*
X23081050Y-530960D01*
X23053500Y-509800D01*
X23029870Y-478040D01*
X23014120Y-441000D01*
X23006250Y-398670D01*
Y-356330D01*
X23014120Y-314000D01*
X23029870Y-276960D01*
X23053500Y-245210D01*
X23081050Y-224040D01*
X23112550Y-218750D01*
X23144040Y-224040D01*
X23171600Y-245210D01*
X23195230Y-276960D01*
X23210980Y-314000D01*
X23218850Y-356330D01*
Y-398670D01*
X23210980Y-441000D01*
X23195230Y-478040D01*
X23171600Y-509800D01*
X23144040Y-530960D01*
X23112550Y-536250D01*
G01X23348770Y-218750D02*
Y-536250D01*
X23506250D01*
G01X23821210D02*
X23663730D01*
Y-218750D01*
X23821210D01*
G01X23758220Y-372200D02*
X23663730D01*
G01X23974750Y-493930D02*
X24006250Y-520380D01*
X24041680Y-536250D01*
X24073180D01*
X24104670Y-520380D01*
X24128300Y-493930D01*
X24140110Y-456870D01*
X24132240Y-419840D01*
X24112550Y-388090D01*
X24077110Y-366910D01*
X24029870Y-356330D01*
X24002310Y-335170D01*
X23990500Y-298130D01*
X23998380Y-261080D01*
X24018060Y-234630D01*
X24045620Y-218750D01*
X24073180D01*
X24100740Y-229330D01*
X24124360Y-255790D01*
G01X24372390Y-546830D02*
X24364510Y-541540D01*
Y-530960D01*
X24372390Y-525670D01*
X24380270Y-530960D01*
Y-541540D01*
X24372390Y-546830D01*
G01Y-403970D02*
X24364510Y-398670D01*
Y-388090D01*
X24372390Y-382800D01*
X24380270Y-388090D01*
Y-398670D01*
X24372390Y-403970D01*
G01X22327690Y98750D02*
Y416250D01*
X22422180D01*
X22453670Y400370D01*
X22477300Y363330D01*
X22485170Y321000D01*
X22477300Y278670D01*
X22457610Y246910D01*
X22422180Y231030D01*
X22327690D01*
G01X22642650Y416250D02*
Y98750D01*
X22800130D01*
G01X22937920D02*
X23036350Y416250D01*
X23134780Y98750D01*
G01X23099340Y209870D02*
X22973350D01*
G01X23351310Y416250D02*
Y98750D01*
G01X23260760Y416250D02*
X23441860D01*
G01X23745010Y98750D02*
X23587530D01*
Y416250D01*
X23745010D01*
G01X23682020Y262800D02*
X23587530D01*
G01X23894620Y98750D02*
Y416250D01*
X23973350D01*
X24004850Y400370D01*
X24028470Y379210D01*
X24048160Y347460D01*
X24063910Y310410D01*
X24067840Y257500D01*
X24063910Y204580D01*
X24048160Y167540D01*
X24028470Y135780D01*
X24004850Y114620D01*
X23973350Y98750D01*
X23894620D01*
G01X22327690Y733750D02*
Y1051250D01*
X22422180D01*
X22453670Y1035370D01*
X22477300Y998330D01*
X22485170Y956000D01*
X22477300Y913670D01*
X22457610Y881910D01*
X22422180Y866030D01*
X22327690D01*
G01X22642650Y1051250D02*
Y733750D01*
X22800130D01*
G01X22937920D02*
X23036350Y1051250D01*
X23134780Y733750D01*
G01X23099340Y844870D02*
X22973350D01*
G01X23351310Y1051250D02*
Y733750D01*
G01X23260760Y1051250D02*
X23441860D01*
G01X23745010Y733750D02*
X23587530D01*
Y1051250D01*
X23745010D01*
G01X23682020Y897800D02*
X23587530D01*
G01X23894620Y733750D02*
Y1051250D01*
X23973350D01*
X24004850Y1035370D01*
X24028470Y1014210D01*
X24048160Y982460D01*
X24063910Y945410D01*
X24067840Y892500D01*
X24063910Y839580D01*
X24048160Y802540D01*
X24028470Y770780D01*
X24004850Y749620D01*
X23973350Y733750D01*
X23894620D01*
G01X22327690Y1368750D02*
Y1686250D01*
X22422180D01*
X22453670Y1670370D01*
X22477300Y1633330D01*
X22485170Y1591000D01*
X22477300Y1548670D01*
X22457610Y1516910D01*
X22422180Y1501030D01*
X22327690D01*
G01X22642650Y1686250D02*
Y1368750D01*
X22800130D01*
G01X22937920D02*
X23036350Y1686250D01*
X23134780Y1368750D01*
G01X23099340Y1479870D02*
X22973350D01*
G01X23351310Y1686250D02*
Y1368750D01*
G01X23260760Y1686250D02*
X23441860D01*
G01X23745010Y1368750D02*
X23587530D01*
Y1686250D01*
X23745010D01*
G01X23682020Y1532800D02*
X23587530D01*
G01X23894620Y1368750D02*
Y1686250D01*
X23973350D01*
X24004850Y1670370D01*
X24028470Y1649210D01*
X24048160Y1617460D01*
X24063910Y1580410D01*
X24067840Y1527500D01*
X24063910Y1474580D01*
X24048160Y1437540D01*
X24028470Y1405780D01*
X24004850Y1384620D01*
X23973350Y1368750D01*
X23894620D01*
G01X22327690Y2003750D02*
Y2321250D01*
X22422180D01*
X22453670Y2305370D01*
X22477300Y2268330D01*
X22485170Y2226000D01*
X22477300Y2183670D01*
X22457610Y2151910D01*
X22422180Y2136030D01*
X22327690D01*
G01X22642650Y2321250D02*
Y2003750D01*
X22800130D01*
G01X22937920D02*
X23036350Y2321250D01*
X23134780Y2003750D01*
G01X23099340Y2114870D02*
X22973350D01*
G01X23351310Y2321250D02*
Y2003750D01*
G01X23260760Y2321250D02*
X23441860D01*
G01X23745010Y2003750D02*
X23587530D01*
Y2321250D01*
X23745010D01*
G01X23682020Y2167800D02*
X23587530D01*
G01X23894620Y2003750D02*
Y2321250D01*
X23973350D01*
X24004850Y2305370D01*
X24028470Y2284210D01*
X24048160Y2252460D01*
X24063910Y2215410D01*
X24067840Y2162500D01*
X24063910Y2109580D01*
X24048160Y2072540D01*
X24028470Y2040780D01*
X24004850Y2019620D01*
X23973350Y2003750D01*
X23894620D01*
G01X22327690Y2638750D02*
Y2956250D01*
X22422180D01*
X22453670Y2940370D01*
X22477300Y2903330D01*
X22485170Y2861000D01*
X22477300Y2818670D01*
X22457610Y2786910D01*
X22422180Y2771030D01*
X22327690D01*
G01X22642650Y2956250D02*
Y2638750D01*
X22800130D01*
G01X22937920D02*
X23036350Y2956250D01*
X23134780Y2638750D01*
G01X23099340Y2749870D02*
X22973350D01*
G01X23351310Y2956250D02*
Y2638750D01*
G01X23260760Y2956250D02*
X23441860D01*
G01X23745010Y2638750D02*
X23587530D01*
Y2956250D01*
X23745010D01*
G01X23682020Y2802800D02*
X23587530D01*
G01X23894620Y2638750D02*
Y2956250D01*
X23973350D01*
X24004850Y2940370D01*
X24028470Y2919210D01*
X24048160Y2887460D01*
X24063910Y2850410D01*
X24067840Y2797500D01*
X24063910Y2744580D01*
X24048160Y2707540D01*
X24028470Y2675780D01*
X24004850Y2654620D01*
X23973350Y2638750D01*
X23894620D01*
G01X22327690Y3273750D02*
Y3591250D01*
X22422180D01*
X22453670Y3575370D01*
X22477300Y3538330D01*
X22485170Y3496000D01*
X22477300Y3453670D01*
X22457610Y3421910D01*
X22422180Y3406030D01*
X22327690D01*
G01X22642650Y3591250D02*
Y3273750D01*
X22800130D01*
G01X22937920D02*
X23036350Y3591250D01*
X23134780Y3273750D01*
G01X23099340Y3384870D02*
X22973350D01*
G01X23351310Y3591250D02*
Y3273750D01*
G01X23260760Y3591250D02*
X23441860D01*
G01X23745010Y3273750D02*
X23587530D01*
Y3591250D01*
X23745010D01*
G01X23682020Y3437800D02*
X23587530D01*
G01X23894620Y3273750D02*
Y3591250D01*
X23973350D01*
X24004850Y3575370D01*
X24028470Y3554210D01*
X24048160Y3522460D01*
X24063910Y3485410D01*
X24067840Y3432500D01*
X24063910Y3379580D01*
X24048160Y3342540D01*
X24028470Y3310780D01*
X24004850Y3289620D01*
X23973350Y3273750D01*
X23894620D01*
G01X22327690Y3908750D02*
Y4226250D01*
X22422180D01*
X22453670Y4210370D01*
X22477300Y4173330D01*
X22485170Y4131000D01*
X22477300Y4088670D01*
X22457610Y4056910D01*
X22422180Y4041030D01*
X22327690D01*
G01X22642650Y4226250D02*
Y3908750D01*
X22800130D01*
G01X22937920D02*
X23036350Y4226250D01*
X23134780Y3908750D01*
G01X23099340Y4019870D02*
X22973350D01*
G01X23351310Y4226250D02*
Y3908750D01*
G01X23260760Y4226250D02*
X23441860D01*
G01X23745010Y3908750D02*
X23587530D01*
Y4226250D01*
X23745010D01*
G01X23682020Y4072800D02*
X23587530D01*
G01X23894620Y3908750D02*
Y4226250D01*
X23973350D01*
X24004850Y4210370D01*
X24028470Y4189210D01*
X24048160Y4157460D01*
X24063910Y4120410D01*
X24067840Y4067500D01*
X24063910Y4014580D01*
X24048160Y3977540D01*
X24028470Y3945780D01*
X24004850Y3924620D01*
X23973350Y3908750D01*
X23894620D01*
G01X22327690Y4543750D02*
Y4861250D01*
X22422180D01*
X22453670Y4845370D01*
X22477300Y4808330D01*
X22485170Y4766000D01*
X22477300Y4723670D01*
X22457610Y4691910D01*
X22422180Y4676030D01*
X22327690D01*
G01X22642650Y4861250D02*
Y4543750D01*
X22800130D01*
G01X22937920D02*
X23036350Y4861250D01*
X23134780Y4543750D01*
G01X23099340Y4654870D02*
X22973350D01*
G01X23351310Y4861250D02*
Y4543750D01*
G01X23260760Y4861250D02*
X23441860D01*
G01X23745010Y4543750D02*
X23587530D01*
Y4861250D01*
X23745010D01*
G01X23682020Y4707800D02*
X23587530D01*
G01X23894620Y4543750D02*
Y4861250D01*
X23973350D01*
X24004850Y4845370D01*
X24028470Y4824210D01*
X24048160Y4792460D01*
X24063910Y4755410D01*
X24067840Y4702500D01*
X24063910Y4649580D01*
X24048160Y4612540D01*
X24028470Y4580780D01*
X24004850Y4559620D01*
X23973350Y4543750D01*
X23894620D01*
G01X22327690Y5178750D02*
Y5496250D01*
X22422180D01*
X22453670Y5480370D01*
X22477300Y5443330D01*
X22485170Y5401000D01*
X22477300Y5358670D01*
X22457610Y5326910D01*
X22422180Y5311030D01*
X22327690D01*
G01X22642650Y5496250D02*
Y5178750D01*
X22800130D01*
G01X22937920D02*
X23036350Y5496250D01*
X23134780Y5178750D01*
G01X23099340Y5289870D02*
X22973350D01*
G01X23351310Y5496250D02*
Y5178750D01*
G01X23260760Y5496250D02*
X23441860D01*
G01X23745010Y5178750D02*
X23587530D01*
Y5496250D01*
X23745010D01*
G01X23682020Y5342800D02*
X23587530D01*
G01X23894620Y5178750D02*
Y5496250D01*
X23973350D01*
X24004850Y5480370D01*
X24028470Y5459210D01*
X24048160Y5427460D01*
X24063910Y5390410D01*
X24067840Y5337500D01*
X24063910Y5284580D01*
X24048160Y5247540D01*
X24028470Y5215780D01*
X24004850Y5194620D01*
X23973350Y5178750D01*
X23894620D01*
G01X25402480Y-271670D02*
X25426110Y-239920D01*
X25453670Y-224040D01*
X25485170Y-218750D01*
X25524530Y-229330D01*
X25552100Y-255790D01*
X25559970Y-287540D01*
X25556030Y-319300D01*
X25540280Y-345750D01*
X25461540Y-398670D01*
X25426110Y-435710D01*
X25402480Y-488640D01*
X25394610Y-536250D01*
X25559970D01*
G01X25792250D02*
X25819810Y-530960D01*
X25851300Y-515090D01*
X25870990Y-488640D01*
X25878860Y-451580D01*
X25870990Y-414550D01*
X25847370Y-382800D01*
X25811930Y-366910D01*
X25772570D01*
X25748940Y-356330D01*
X25729250Y-329880D01*
X25721380Y-292840D01*
X25733200Y-255790D01*
X25760750Y-229330D01*
X25792250Y-218750D01*
X25823740Y-229330D01*
X25851300Y-255790D01*
X25863120Y-292840D01*
X25855240Y-329880D01*
X25835560Y-356330D01*
X25811930Y-366910D01*
X25772570D01*
X25737130Y-382800D01*
X25713510Y-414550D01*
X25705640Y-451580D01*
X25713510Y-488640D01*
X25733200Y-515090D01*
X25764690Y-530960D01*
X25792250Y-536250D01*
G01X26020600Y-488640D02*
X26044210Y-515090D01*
X26071770Y-530960D01*
X26107210Y-536250D01*
X26142650Y-525670D01*
X26170200Y-504510D01*
X26189890Y-467460D01*
X26193820Y-425130D01*
X26185950Y-382800D01*
X26166260Y-356330D01*
X26138700Y-335170D01*
X26111150Y-329880D01*
X26083590Y-335170D01*
X26048160Y-356330D01*
X26059970Y-218750D01*
X26166260D01*
G01X25717440Y363330D02*
X25741070Y395080D01*
X25768630Y410960D01*
X25800130Y416250D01*
X25839490Y405670D01*
X25867060Y379210D01*
X25874930Y347460D01*
X25870990Y315700D01*
X25855240Y289250D01*
X25776500Y236330D01*
X25741070Y199290D01*
X25717440Y146360D01*
X25709570Y98750D01*
X25874930D01*
G01X25717440Y998330D02*
X25741070Y1030080D01*
X25768630Y1045960D01*
X25800130Y1051250D01*
X25839490Y1040670D01*
X25867060Y1014210D01*
X25874930Y982460D01*
X25870990Y950700D01*
X25855240Y924250D01*
X25776500Y871330D01*
X25741070Y834290D01*
X25717440Y781360D01*
X25709570Y733750D01*
X25874930D01*
G01X25839490Y1368750D02*
Y1686250D01*
X25693820Y1458710D01*
X25890680D01*
G01X25717440Y2268330D02*
X25741070Y2300080D01*
X25768630Y2315960D01*
X25800130Y2321250D01*
X25839490Y2310670D01*
X25867060Y2284210D01*
X25874930Y2252460D01*
X25870990Y2220700D01*
X25855240Y2194250D01*
X25776500Y2141330D01*
X25741070Y2104290D01*
X25717440Y2051360D01*
X25709570Y2003750D01*
X25874930D01*
G01X25705640Y2702250D02*
X25729250Y2665200D01*
X25760750Y2644040D01*
X25796190Y2638750D01*
X25827690Y2644040D01*
X25859180Y2670490D01*
X25878860Y2702250D01*
X25882800Y2734000D01*
X25874930Y2771030D01*
X25847370Y2797500D01*
X25819810Y2808090D01*
X25784370D01*
G01X25819810D02*
X25843430Y2823960D01*
X25863120Y2850410D01*
X25870990Y2882160D01*
X25863120Y2913920D01*
X25843430Y2940370D01*
X25808000Y2956250D01*
X25772570Y2950960D01*
X25737130Y2929790D01*
G01X25717440Y3538330D02*
X25741070Y3570080D01*
X25768630Y3585960D01*
X25800130Y3591250D01*
X25839490Y3580670D01*
X25867060Y3554210D01*
X25874930Y3522460D01*
X25870990Y3490700D01*
X25855240Y3464250D01*
X25776500Y3411330D01*
X25741070Y3374290D01*
X25717440Y3321360D01*
X25709570Y3273750D01*
X25874930D01*
G01X25682010Y3908750D02*
Y4226250D01*
X25536340Y3998710D01*
X25733200D01*
G01X25863120Y3972250D02*
X25886730Y3935200D01*
X25918230Y3914040D01*
X25953670Y3908750D01*
X25985170Y3914040D01*
X26016660Y3940490D01*
X26036340Y3972250D01*
X26040280Y4004000D01*
X26032410Y4041030D01*
X26004850Y4067500D01*
X25977290Y4078090D01*
X25941850D01*
G01X25977290D02*
X26000910Y4093960D01*
X26020600Y4120410D01*
X26028470Y4152160D01*
X26020600Y4183920D01*
X26000910Y4210370D01*
X25965480Y4226250D01*
X25930050Y4220960D01*
X25894610Y4199790D01*
G01X25402480Y4808330D02*
X25426110Y4840080D01*
X25453670Y4855960D01*
X25485170Y4861250D01*
X25524530Y4850670D01*
X25552100Y4824210D01*
X25559970Y4792460D01*
X25556030Y4760700D01*
X25540280Y4734250D01*
X25461540Y4681330D01*
X25426110Y4644290D01*
X25402480Y4591360D01*
X25394610Y4543750D01*
X25559970D01*
G01X25717440Y4808330D02*
X25741070Y4840080D01*
X25768630Y4855960D01*
X25800130Y4861250D01*
X25839490Y4850670D01*
X25867060Y4824210D01*
X25874930Y4792460D01*
X25870990Y4760700D01*
X25855240Y4734250D01*
X25776500Y4681330D01*
X25741070Y4644290D01*
X25717440Y4591360D01*
X25709570Y4543750D01*
X25874930D01*
G01X26099330D02*
X26107210Y4612540D01*
X26119020Y4670740D01*
X26134770Y4723670D01*
X26154450Y4781870D01*
X26185950Y4861250D01*
X26028470D01*
G01X25477290Y5178750D02*
X25445790Y5184040D01*
X25418240Y5205200D01*
X25394610Y5236960D01*
X25378860Y5274000D01*
X25370990Y5316330D01*
Y5358670D01*
X25378860Y5401000D01*
X25394610Y5438040D01*
X25418240Y5469790D01*
X25445790Y5490960D01*
X25477290Y5496250D01*
X25508780Y5490960D01*
X25536340Y5469790D01*
X25559970Y5438040D01*
X25575720Y5401000D01*
X25583590Y5358670D01*
Y5316330D01*
X25575720Y5274000D01*
X25559970Y5236960D01*
X25536340Y5205200D01*
X25508780Y5184040D01*
X25477290Y5178750D01*
G01X25508780Y5263420D02*
X25556030Y5178750D01*
G01X25792250Y5496250D02*
Y5178750D01*
G01X25701700Y5496250D02*
X25882800D01*
G01X26107210Y5178750D02*
Y5321620D01*
X26028470Y5496250D01*
G01X26185950D02*
X26107210Y5321620D01*
G01X-250000Y0D02*
X-1140000D01*
G01X510000Y5400000D02*
X-1140000D01*
G01X-890000Y2424260D02*
Y0D01*
G01X-952500Y400000D02*
X-890000Y0D01*
X-827500Y400000D01*
X-952500D01*
G01X-890000Y2915740D02*
Y5400000D01*
G01X-827500Y5000000D02*
X-890000Y5400000D01*
X-952500Y5000000D01*
X-827500D01*
G01X0Y-250000D02*
Y-920000D01*
G01X3323140Y-670000D02*
X0D01*
G01X400000Y-607500D02*
X0Y-670000D01*
X400000Y-732500D01*
Y-607500D01*
G01X3956860Y-670000D02*
X8500000D01*
G01X8100000Y-732500D02*
X8500000Y-670000D01*
X8100000Y-607500D01*
Y-732500D01*
G01X8500000Y50000D02*
Y-920000D01*
G01X9060000Y-60000D02*
Y6940000D01*
X26776500D01*
Y-60000D01*
X9060000D01*
G01Y575000D02*
X26776500D01*
G01X9060000Y1210000D02*
X26776500D01*
G01X9060000Y1845000D02*
X26776500D01*
G01X9060000Y2480000D02*
X26776500D01*
G01X9060000Y3115000D02*
X26776500D01*
G01X9060000Y3750000D02*
X26776500D01*
G01X9060000Y4385000D02*
X26776500D01*
G01X9060000Y5020000D02*
X26776500D01*
G01X9060000Y5655000D02*
X26776500D01*
G01X9060000Y6290000D02*
X26776500D01*
G01X11343460Y5655000D02*
Y-60000D01*
G01X16461560Y5655000D02*
Y-60000D01*
G01X21579660Y5655000D02*
Y-60000D01*
G01X24808000Y5655000D02*
Y-60000D01*
M02*
