G04 ================== begin FILE IDENTIFICATION RECORD ==================*
G04 Layout Name:  HY_VREF_V10_260126.brd*
G04 Film Name:    TOP*
G04 File Format:  Gerber RS274X*
G04 File Origin:  Cadence Allegro 24.1-S006*
G04 Origin Date:  Wed Jan 28 16:08:27 2026*
G04 *
G04 Layer:  VIA CLASS/TOP*
G04 Layer:  PIN/TOP*
G04 Layer:  ETCH/TOP*
G04 *
G04 Offset:    (0.0000 0.0000)*
G04 Mirror:    No*
G04 Mode:      Positive*
G04 Rotation:  0*
G04 FullContactRelief:  No*
G04 UndefLineWidth:     0.1524*
G04 ================== end FILE IDENTIFICATION RECORD ====================*
%FSLAX55Y55*MOMM*%
%IR0*IPPOS*OFA0.00000B0.00000*MIA0B0*SFA1.00000B1.00000*%
%ADD36R,1.1X.4*%
%ADD21R,1.2X.3*%
%ADD16R,.6X1.1*%
%ADD20R,1.2X.6*%
%ADD34R,.6X1.5*%
%ADD31C,.75*%
%ADD11C,.508*%
%ADD18O,2.1X1.*%
%ADD15R,1.2X1.*%
%ADD32R,1.X1.2*%
%ADD17O,1.6X1.*%
%ADD29R,2.5X1.5*%
%ADD26R,1.6X1.8*%
%ADD23C,2.2*%
%ADD14R,.7X.6*%
%ADD28R,.45X.5*%
%ADD27R,.6X.7*%
%ADD22C,2.3*%
%ADD35R,.55X.5*%
%ADD13R,.7X.8*%
%ADD12R,.5X.45*%
%ADD38R,.5X.55*%
%ADD30R,.8X.7*%
%ADD19C,2.5*%
%ADD39C,1.7*%
%ADD24C,1.8*%
%ADD37R,1.65X2.85*%
%ADD10C,6.9*%
%ADD25R,1.8X1.8*%
%ADD33R,1.9X1.9*%
%ADD40C,.4*%
%ADD41C,.6*%
%ADD42C,.5032*%
%ADD43C,.254*%
%ADD44C,.762*%
%ADD45C,2.*%
%ADD46C,1.27*%
%ADD49R,.7X.2*%
%ADD47C,3.6004*%
%ADD48C,3.2148*%
%ADD50C,3.4148*%
G75*
%LPD*%
G75*
G36*
G01X1513840Y3338900D02*
G02X1550760Y3327180I16600J-11718D01*
G01Y2695250D01*
X1005600Y2150090D01*
X1001010Y2150380D01*
G03X990000Y2150740I-11082J-170378D01*
G03X836050Y2053840I0J-170744D01*
G01X546250D01*
X544280Y2061460D01*
G03X523730Y2089100I-44279J-11462D01*
G01X518840Y2092070D01*
Y2220000D01*
G03X511620Y2254050I-83843J12D01*
G01X510740Y2256020D01*
Y2275000D01*
G03X465000Y2320740I-45740J0D01*
G01X405000D01*
G03X359260Y2275000I0J-45740D01*
G01Y2256020D01*
X358380Y2254050D01*
G03X351160Y2220000I76623J-34038D01*
G01Y2085500D01*
G03X334260Y2050000I28836J-35500D01*
G01Y1950000D01*
G03X380000Y1904260I45740J0D01*
G01X417970D01*
G03X470000Y1886160I52030J65732D01*
G01X847360D01*
G03X990000Y1809260I142640J93840D01*
G03X1043590Y1817890I-6J170739D01*
G01X1049540Y1819850D01*
X1219700Y1649700D01*
G03X1270000Y1628860I50306J50297D01*
G01X6160530D01*
X6208860Y1580530D01*
Y494870D01*
G03X6229700Y444570I71123J0D01*
G01X6280500Y393770D01*
G03X6330800Y372930I50306J50297D01*
G01X6499260D01*
Y355000D01*
G03X6545000Y309260I45740J0D01*
G01X6595000D01*
G03X6626210Y321560I0J45746D01*
G02X6642570Y317930I6935J-7426D01*
G03X6643020Y316830I42555J16767D01*
G01X6643860Y314900D01*
Y305000D01*
G03X6664700Y254700I71123J0D01*
G01X6719700Y199700D01*
G03X6770000Y178860I50306J50297D01*
G01X7344200D01*
G03X7394500Y199700I-6J71137D01*
G01X7445300Y250500D01*
G03X7466140Y300800I-50283J50300D01*
G01Y314900D01*
X7466980Y316830D01*
G03X7470740Y335000I-41982J18162D01*
G01Y445000D01*
G03X7425000Y490740I-45740J0D01*
G01X7371140D01*
Y549260D01*
X7425000D01*
G03X7470740Y595000I0J45740D01*
G01Y704260D01*
X7886950D01*
G02X7899460Y667930I1J-20319D01*
G03X7749260Y360000I240549J-307930D01*
G03X7872550Y75130I390751J0D01*
G02X7858640Y40000I-13909J-14811D01*
G01X2113740D01*
G02X2099370Y74690I0J20321D01*
G01X2125740Y101050D01*
Y234260D01*
X2159260D01*
Y125000D01*
G03X2205000Y79260I45740J0D01*
G01X2236220D01*
X2238080Y78490D01*
G03X2260400Y74060I22320J54013D01*
G01X2386530D01*
X2389130Y72280D01*
G03X2415000Y64260I25870J37714D01*
G01X2465000D01*
G03X2490870Y72280I0J45734D01*
G01X2493470Y74060D01*
X2576530D01*
X2579130Y72280D01*
G03X2605000Y64260I25870J37714D01*
G01X2655000D01*
G03X2700740Y110000I0J45740D01*
G01Y155000D01*
G03X2693300Y180000I-45739J-5D01*
G03X2700740Y205000I-38299J25005D01*
G01Y234260D01*
X3501560D01*
Y212500D01*
G03X3518680Y171180I58438J6D01*
G01X3559260Y130590D01*
Y120000D01*
G03X3605000Y74260I45740J0D01*
G01X3655000D01*
G03X3700740Y120000I0J45740D01*
G01Y169260D01*
X3775000D01*
G03X3815450Y193640I0J45746D01*
G01X3818310Y199060D01*
X3870070D01*
X3872400Y197730D01*
G03X3895000Y191760I22595J39771D01*
G01X4005000D01*
G03X4050740Y237500I0J45740D01*
G01Y277500D01*
G03X4049000Y290000I-45741J4D01*
G03X4050740Y302500I-44001J12496D01*
G01Y324260D01*
X4055740D01*
Y648950D01*
X3998950Y705740D01*
X2911050D01*
X2681050Y475740D01*
X2310740D01*
Y495000D01*
G03X2293440Y530820I-45733J0D01*
G01Y545070D01*
X2294770Y547400D01*
G03X2300740Y570000I-39771J22595D01*
G01Y615000D01*
G03X2293300Y640000I-45739J-5D01*
G03X2300740Y665000I-38299J25005D01*
G01Y710000D01*
G03X2255000Y755740I-45740J0D01*
G01X2205000D01*
G03X2179130Y747720I0J-45734D01*
G01X2176530Y745940D01*
X2107500D01*
G03X2066180Y728820I6J-58438D01*
G01X2053090Y715740D01*
X2008950D01*
X1838950Y885740D01*
X1603090D01*
X1601360Y886390D01*
G03X1550000Y895740I-51360J-136386D01*
G01X1300000D01*
G03X1248640Y886390I0J-145736D01*
G01X1246910Y885740D01*
X1164260D01*
Y803090D01*
X1163610Y801360D01*
G03Y698640I136386J-51360D01*
G01X1164260Y696910D01*
Y614260D01*
X1178500D01*
G02X1194320Y581190I-1J-20319D01*
G03X1164260Y496000I105684J-85190D01*
G03X1435740I135740J0D01*
G03X1435680Y499990I-135739J-46D01*
G02X1470360Y514950I20311J594D01*
G01X1480000Y505310D01*
Y130000D01*
X1534260D01*
Y40000D01*
X641360D01*
G02X627450Y75130I-1J20319D01*
G03X750740Y360000I-267461J284870D01*
G03X360000Y750740I-390740J0D01*
G03X75130Y627450I0J-390751D01*
G02X40000Y641360I-14811J13909D01*
G01Y2639330D01*
X58510D01*
X60130Y2631140D01*
G03X71560Y2608790I44875J8852D01*
G01Y2350000D01*
G03X88680Y2308680I58438J6D01*
G01X169260Y2228090D01*
Y2165000D01*
G03X215000Y2119260I45740J0D01*
G01X275000D01*
G03X320740Y2165000I0J45740D01*
G01Y2275000D01*
G03X275000Y2320740I-45740J0D01*
G01X241910D01*
X218070Y2344570D01*
G02X232440Y2379260I14370J14369D01*
G01X465000D01*
G03X510740Y2425000I0J45740D01*
G01Y2443980D01*
X511620Y2445950D01*
G03X518840Y2480000I-76623J34038D01*
G01Y2560270D01*
X552830Y2594260D01*
X590000D01*
G03X620770Y2606160I0J45731D01*
G01X1353800D01*
G03X1413080Y2630720I-7J83837D01*
G01X1489280Y2706920D01*
G03X1513840Y2766200I-59277J59287D01*
G01Y3338900D01*
G37*
G36*
G01X158440Y2826290D02*
Y2974260D01*
X203090D01*
X238680Y2938680D01*
G03X280000Y2921560I41326J41318D01*
G01X305790D01*
X311560Y2915790D01*
Y2811210D01*
G03X299260Y2780000I33446J-31210D01*
G01Y2730740D01*
X200740D01*
Y2780000D01*
G03X166130Y2824370I-45746J0D01*
G01X158440Y2826290D01*
G37*
G36*
G01X2378020Y5360000D02*
X7858640D01*
G02X7872550Y5324870I1J-20319D01*
G03X7749260Y5040000I267461J-284870D01*
G03X8140000Y4649260I390740J0D01*
G03X8424870Y4772550I0J390751D01*
G02X8460000Y4758640I14811J-13909D01*
G01Y3329010D01*
G02X8425140Y3314810I-20320J-5D01*
G03X8328000Y3355740I-97140J-94807D01*
G03X8217540Y3298890I0J-135737D01*
G02X8184460I-16540J11805D01*
G03X8145140Y3335610I-110470J-78880D01*
G01Y3336000D01*
G03X8124300Y3386300I-71137J-6D01*
G01X8035740Y3474870D01*
Y3542020D01*
X8094000D01*
G03X8139740Y3587760I0J45740D01*
G01Y3737760D01*
G03X8094000Y3783500I-45740J0D01*
G01X7780000D01*
G03X7734260Y3737760I0J-45740D01*
G01Y3587760D01*
G03X7780000Y3542020I45740J0D01*
G01X7844260D01*
Y3410000D01*
G03X7848880Y3389960I45742J-7D01*
G02X7830620Y3360740I-18265J-8901D01*
G01X7725000D01*
G03X7679260Y3315000I0J-45740D01*
G01Y3197830D01*
X7661670Y3180240D01*
X7650750Y3191170D01*
X7651670Y3196380D01*
G03X7653740Y3220000I-133670J23615D01*
G03X7518000Y3355740I-135740J0D01*
G03X7407540Y3298890I0J-135737D01*
G02X7374460I-16540J11805D01*
G03X7335140Y3335600I-110455J-78896D01*
G01Y3366000D01*
G03X7314300Y3416300I-71137J-6D01*
G01X7255740Y3474870D01*
Y3542020D01*
X7314000D01*
G03X7359740Y3587760I0J45740D01*
G01Y3737760D01*
G03X7314000Y3783500I-45740J0D01*
G01X7000000D01*
G03X6954260Y3737760I0J-45740D01*
G01Y3587760D01*
G03X7000000Y3542020I45740J0D01*
G01X7064260D01*
Y3410000D01*
G03X7068880Y3389960I45742J-7D01*
G02X7050620Y3360740I-18265J-8901D01*
G01X6915000D01*
G03X6869260Y3315000I0J-45740D01*
G01Y3197830D01*
X6851670Y3180240D01*
X6840750Y3191170D01*
X6841670Y3196380D01*
G03X6843740Y3220000I-133670J23615D01*
G03X6708000Y3355740I-135740J0D01*
G03X6597540Y3298890I0J-135737D01*
G02X6564460I-16540J11805D01*
G03X6525140Y3335600I-110455J-78896D01*
G01Y3366000D01*
G03X6504300Y3416300I-71137J-6D01*
G01X6445740Y3474870D01*
Y3542020D01*
X6504000D01*
G03X6549740Y3587760I0J45740D01*
G01Y3737760D01*
G03X6504000Y3783500I-45740J0D01*
G01X6190000D01*
G03X6144260Y3737760I0J-45740D01*
G01Y3587760D01*
G03X6190000Y3542020I45740J0D01*
G01X6254260D01*
Y3410000D01*
G03X6258880Y3389960I45742J-7D01*
G02X6240620Y3360740I-18265J-8901D01*
G01X6105000D01*
G03X6059260Y3315000I0J-45740D01*
G01Y3197830D01*
X6041670Y3180240D01*
X6030750Y3191170D01*
X6031670Y3196380D01*
G03X6033740Y3220000I-133670J23615D01*
G03X5898000Y3355740I-135740J0D01*
G03X5787540Y3298890I0J-135737D01*
G02X5754460I-16540J11805D01*
G03X5715140Y3335600I-110455J-78896D01*
G01Y3366000D01*
G03X5694300Y3416300I-71137J-6D01*
G01X5635740Y3474870D01*
Y3542020D01*
X5694000D01*
G03X5739740Y3587760I0J45740D01*
G01Y3737760D01*
G03X5694000Y3783500I-45740J0D01*
G01X5380000D01*
G03X5334260Y3737760I0J-45740D01*
G01Y3587760D01*
G03X5380000Y3542020I45740J0D01*
G01X5444260D01*
Y3410000D01*
G03X5448880Y3389960I45742J-7D01*
G02X5430620Y3360740I-18265J-8901D01*
G01X5295000D01*
G03X5249260Y3315000I0J-45740D01*
G01Y3197830D01*
X5231670Y3180240D01*
X5220750Y3191170D01*
X5221670Y3196380D01*
G03X5223740Y3220000I-133670J23615D01*
G03X5088000Y3355740I-135740J0D01*
G03X4977540Y3298890I0J-135737D01*
G02X4944460I-16540J11805D01*
G03X4909640Y3332710I-110460J-78891D01*
G01X4905140Y3335730D01*
Y3346000D01*
G03X4884300Y3396300I-71137J-6D01*
G01X4815740Y3464870D01*
Y3542020D01*
X4874000D01*
G03X4919740Y3587760I0J45740D01*
G01Y3737760D01*
G03X4874000Y3783500I-45740J0D01*
G01X4560000D01*
G03X4514260Y3737760I0J-45740D01*
G01Y3587760D01*
G03X4560000Y3542020I45740J0D01*
G01X4624260D01*
Y3410000D01*
G03X4628880Y3389960I45742J-7D01*
G02X4610620Y3360740I-18265J-8901D01*
G01X4485000D01*
G03X4439260Y3315000I0J-45740D01*
G01Y3197830D01*
X4421670Y3180240D01*
X4410750Y3191170D01*
X4411670Y3196380D01*
G03X4413740Y3220000I-133670J23615D01*
G03X4278000Y3355740I-135740J0D01*
G03X4167540Y3298890I0J-135737D01*
G02X4134460I-16540J11805D01*
G03X4095140Y3335600I-110455J-78896D01*
G01Y3356000D01*
G03X4074300Y3406300I-71137J-6D01*
G01X4005740Y3474870D01*
Y3538940D01*
X4064000D01*
G03X4109740Y3584680I0J45740D01*
G01Y3734680D01*
G03X4064000Y3780420I-45740J0D01*
G01X3750000D01*
G03X3704260Y3734680I0J-45740D01*
G01Y3584680D01*
G03X3750000Y3538940I45740J0D01*
G01X3814260D01*
Y3410000D01*
G03X3818880Y3389960I45742J-7D01*
G02X3800620Y3360740I-18265J-8901D01*
G01X3675000D01*
G03X3629260Y3315000I0J-45740D01*
G01Y3197830D01*
X3611670Y3180240D01*
X3600750Y3191170D01*
X3601670Y3196380D01*
G03X3603740Y3220000I-133670J23615D01*
G03X3528440Y3341540I-135737J0D01*
G01Y3870000D01*
G03X3511320Y3911320I-58438J-6D01*
G01X3451320Y3971320D01*
G03X3410000Y3988440I-41326J-41318D01*
G01X2744210D01*
X2718440Y4014210D01*
Y4838790D01*
G03X2730740Y4870000I-33446J31210D01*
G01Y4915000D01*
G03X2723300Y4940000I-45739J-5D01*
G03X2730740Y4965000I-38299J25005D01*
G01Y5010000D01*
G03X2723850Y5034140I-45734J0D01*
G02X2726580Y5047770I8630J5360D01*
G03X2745740Y5085000I-26591J37230D01*
G01Y5155000D01*
G03X2700000Y5200740I-45740J0D01*
G01X2620000D01*
G03X2592300Y5191400I0J-45745D01*
G02X2567700I-12300J16173D01*
G03X2540000Y5200740I-27700J-36405D01*
G01X2460000D01*
G03X2414260Y5155000I0J-45740D01*
G01Y5085000D01*
G03X2433420Y5047770I45751J0D01*
G02X2436150Y5034140I-5900J-8270D01*
G03X2429260Y5010000I38844J-24140D01*
G01Y4950940D01*
X1642500D01*
G03X1601180Y4933820I6J-58438D01*
G01X1528680Y4861320D01*
G03X1511560Y4820000I41318J-41326D01*
G01Y4464740D01*
G03X1409260Y4315000I58440J-149740D01*
G03X1570000Y4154260I160740J0D01*
G03X1571910Y4154270I113J160741D01*
G01X1576190Y4154320D01*
X1830760Y3899750D01*
Y3410000D01*
G03X1862760Y3332760I109237J7D01*
G01X2052760Y3142760D01*
G03X2130000Y3110760I77247J77237D01*
G01X2821070D01*
X2823850Y3105030D01*
G03X2865000Y3079260I41150J19970D01*
G01X2982170D01*
X3080720Y2980720D01*
G03X3140000Y2956160I59287J59277D01*
G01X3590000D01*
G03X3649280Y2980720I-7J83837D01*
G01X3747830Y3079260D01*
X3792170D01*
X3890720Y2980720D01*
G03X3950000Y2956160I59287J59277D01*
G01X4400000D01*
G03X4459280Y2980720I-7J83837D01*
G01X4557830Y3079260D01*
X4602170D01*
X4700720Y2980720D01*
G03X4760000Y2956160I59287J59277D01*
G01X5210000D01*
G03X5269280Y2980720I-7J83837D01*
G01X5367830Y3079260D01*
X5412170D01*
X5510720Y2980720D01*
G03X5570000Y2956160I59287J59277D01*
G01X6020000D01*
G03X6079280Y2980720I-7J83837D01*
G01X6177830Y3079260D01*
X6222170D01*
X6320720Y2980720D01*
G03X6380000Y2956160I59287J59277D01*
G01X6830000D01*
G03X6889280Y2980720I-7J83837D01*
G01X6987830Y3079260D01*
X7032170D01*
X7130720Y2980720D01*
G03X7190000Y2956160I59287J59277D01*
G01X7640000D01*
G03X7699280Y2980720I-7J83837D01*
G01X7797830Y3079260D01*
X7915000D01*
G03X7957000Y3106880I0J45743D01*
G02X7988460Y3114610I18658J-8051D01*
G03X8074000Y3084260I85546J105388D01*
G03X8184460Y3141110I0J135737D01*
G02X8217540I16540J-11805D01*
G03X8328000Y3084260I110460J78887D01*
G03X8425140Y3125190I0J135737D01*
G02X8460000Y3110990I14540J-14195D01*
G01Y2223740D01*
G02X8425310Y2209370I-20321J0D01*
G01X8378950Y2255740D01*
X7991050D01*
X7914260Y2178950D01*
Y1858950D01*
X7871050Y1815740D01*
X7479350D01*
G02X7465210Y1850660I-6J20320D01*
G03X7520020Y1980000I-125203J129340D01*
G03X7159980I-180020J0D01*
G03X7214790Y1850660I180013J0D01*
G02X7200650Y1815740I-14134J-14600D01*
G01X6431050D01*
X6302960Y1687650D01*
X6240300Y1750300D01*
G03X6190000Y1771140I-50306J-50297D01*
G01X1299470D01*
X1150150Y1920460D01*
X1152110Y1926410D01*
G03X1160740Y1980000I-162109J53596D01*
G03X1160380Y1991010I-170738J-72D01*
G01X1160090Y1995600D01*
X1737240Y2572760D01*
G03X1769240Y2650000I-77237J77247D01*
G01Y3745000D01*
G03X1737240Y3822240I-109237J-7D01*
G01X1250680Y4308810D01*
X1250730Y4313090D01*
G03X1250740Y4315000I-160731J1797D01*
G03X1090000Y4154260I-160740J0D01*
G03X1091910Y4154270I113J160741D01*
G01X1096190Y4154320D01*
X1482430Y3768080D01*
G02X1475240Y3750740I-7187J-7180D01*
G01X1472630D01*
X1471350Y3751080D01*
G03X1450000Y3753840I-21335J-81082D01*
G03X1428650Y3751080I-15J-83842D01*
G01X1427370Y3750740D01*
X1420000D01*
G03X1374270Y3705970I0J-45740D01*
G03X1366160Y3670000I75729J-35974D01*
G01Y3615740D01*
X1350000D01*
G03X1304260Y3570000I0J-45740D01*
G01Y3390000D01*
G03X1338540Y3345720I45739J0D01*
G01X1346160Y3343750D01*
Y2800930D01*
X1319070Y2773840D01*
X620770D01*
G03X590000Y2785740I-30770J-33831D01*
G01X549450D01*
X494480Y2840710D01*
Y2976660D01*
G03X473640Y3026960I-71137J-6D01*
G01X420740Y3079870D01*
Y3100000D01*
G03X412880Y3125630I-45738J-6D01*
G01X411140Y3128210D01*
Y3141790D01*
X412880Y3144370D01*
G03X420740Y3170000I-37878J25636D01*
G01Y3250000D01*
G03X375000Y3295740I-45740J0D01*
G01X358830D01*
G02X346430Y3332160I-2J20320D01*
G03X383740Y3408000I-58425J75840D01*
G03X288000Y3503740I-95740J0D01*
G01X228000D01*
G03X132260Y3408000I0J-95740D01*
G03X202580Y3315700I95735J0D01*
G01X210050Y3313640D01*
Y3295740D01*
X165000D01*
G03X119260Y3250000I0J-45740D01*
G01Y3211910D01*
X74690Y3167330D01*
G02X40000Y3181700I-14369J14370D01*
G01Y4758640D01*
G02X75130Y4772550I20319J1D01*
G03X360000Y4649260I284870J267461D01*
G03X750740Y5040000I0J390740D01*
G03X627450Y5324870I-390751J0D01*
G02X641360Y5360000I13909J14811D01*
G01X761980D01*
G02X778490Y5327830I3J-20320D01*
G03X749260Y5237000I126509J-90830D01*
G03X1060740I155740J0D01*
G03X1031510Y5327830I-155739J0D01*
G02X1048020Y5360000I16507J11850D01*
G01X2091980D01*
G02X2108490Y5327830I3J-20320D01*
G03X2079260Y5237000I126509J-90830D01*
G03X2390740I155740J0D01*
G03X2361510Y5327830I-155739J0D01*
G02X2378020Y5360000I16507J11850D01*
G37*
G36*
G01X1580000Y260000D02*
X2060000D01*
X2067380Y252620D01*
X2065850Y246940D01*
G03X2064260Y235000I44148J-11955D01*
G01Y108440D01*
X1580000D01*
Y260000D01*
G37*
G36*
G01X1435740Y840000D02*
X1820000D01*
X1990000Y670000D01*
X2100000D01*
Y540000D01*
X2099520Y539520D01*
G03X2064260Y495000I10476J-44520D01*
G01Y390000D01*
X2000000D01*
X1910000Y480000D01*
X1570000D01*
X1422890Y627110D01*
X1427680Y634070D01*
G03X1435740Y660000I-37680J25930D01*
G01Y840000D01*
G37*
G36*
G01X2525000Y4824260D02*
G03X2563080Y4844660I0J45741D01*
G02X2596920I16920J-11251D01*
G03X2601560Y4838790I38084J25335D01*
G01Y3990000D01*
G03X2618680Y3948680I58438J6D01*
G01X2678680Y3888680D01*
G03X2720000Y3871560I41326J41318D01*
G01X3385790D01*
X3411560Y3845790D01*
Y3343450D01*
G03X3357540Y3298890I56442J-123449D01*
G02X3324460I-16540J11805D01*
G03X3285140Y3335600I-110455J-78896D01*
G01Y3356000D01*
G03X3264300Y3406300I-71137J-6D01*
G01X3195740Y3474870D01*
Y3538940D01*
X3244640D01*
G03X3290380Y3584680I0J45740D01*
G01Y3734680D01*
G03X3244640Y3780420I-45740J0D01*
G01X2930640D01*
G03X2884900Y3734680I0J-45740D01*
G01Y3584680D01*
G03X2930640Y3538940I45740J0D01*
G01X3004260D01*
Y3410000D01*
G03X3008880Y3389960I45742J-7D01*
G02X2990620Y3360740I-18265J-8901D01*
G01X2865000D01*
G03X2823850Y3334970I0J-45740D01*
G01X2821070Y3329240D01*
X2175250D01*
X2049240Y3455250D01*
Y3945000D01*
G03X2017240Y4022240I-109237J-7D01*
G01X1730680Y4308810D01*
X1730730Y4313090D01*
G03X1730740Y4315000I-160731J1797D01*
G03X1628440Y4464740I-160740J0D01*
G01Y4795790D01*
X1666710Y4834060D01*
X2446530D01*
X2449130Y4832280D01*
G03X2475000Y4824260I25870J37714D01*
G01X2525000D01*
G37*
G36*
G01X2930000Y660000D02*
X3980000D01*
X4010000Y630000D01*
Y560000D01*
X3870000D01*
Y540000D01*
X4010000D01*
Y490000D01*
X3870000D01*
Y470000D01*
X4010000D01*
Y430000D01*
X3870000D01*
Y410000D01*
X4010000D01*
Y388240D01*
X3895000D01*
G03X3872400Y382270I-5J-45741D01*
G01X3870070Y380940D01*
X3715000D01*
G03X3673680Y363820I6J-58438D01*
G01X3615590Y305740D01*
X3605000D01*
G03X3566490Y284680I0J-45739D01*
G01X3563490Y280000D01*
X2552710D01*
X2551870Y280140D01*
G03X2540000Y281140I-11886J-70139D01*
G03X2528130Y280140I16J-71139D01*
G01X2527290Y280000D01*
X2499530D01*
G03X2465000Y295740I-34530J-30006D01*
G01X2415000D01*
G03X2380470Y280000I0J-45746D01*
G01X2362710D01*
X2361870Y280140D01*
G03X2350000Y281140I-11886J-70139D01*
G03X2338130Y280140I16J-71139D01*
G01X2337290Y280000D01*
X2273240D01*
X2272420Y280130D01*
G03X2265000Y280740I-7445J-45128D01*
G01X2129260D01*
X2110000Y300000D01*
Y344260D01*
X2115740D01*
Y364090D01*
X2116650Y366090D01*
G03X2120740Y385000I-41651J18906D01*
G01Y500000D01*
X2159260D01*
Y385000D01*
G03X2205000Y339260I45740J0D01*
G01X2265000D01*
G03X2310740Y385000I0J45740D01*
G01Y400740D01*
X2340000Y430000D01*
X2700000D01*
X2930000Y660000D01*
G37*
G36*
G01X2310740Y234260D02*
X2559260D01*
Y205000D01*
G03X2559370Y201810I45741J-20D01*
G01X2559400Y201450D01*
Y190940D01*
X2493470D01*
X2490870Y192720D01*
G03X2465000Y200740I-25870J-37714D01*
G01X2415000D01*
G03X2389130Y192720I0J-45734D01*
G01X2386530Y190940D01*
X2310740D01*
Y234260D01*
G37*
G36*
G01X8010000Y2210000D02*
X8360000D01*
X8410000Y2160000D01*
Y820000D01*
X8340000Y750000D01*
X8164040D01*
X8163730Y750020D01*
G03X8140000Y750740I-23710J-390021D01*
G03X8116270Y750020I-20J-390741D01*
G01X8115960Y750000D01*
X7338240D01*
X7337420Y750130D01*
G03X7330000Y750740I-7445J-45128D01*
G01X7175000D01*
G03X7167580Y750130I25J-45738D01*
G01X7166760Y750000D01*
X6943240D01*
X6942420Y750130D01*
G03X6935000Y750740I-7445J-45128D01*
G01X6780000D01*
G03X6772580Y750130I25J-45738D01*
G01X6771760Y750000D01*
X6351140D01*
Y1610000D01*
G03X6350140Y1621870I-71139J-16D01*
G01X6350000Y1622710D01*
Y1670000D01*
X6450000Y1770000D01*
X7890000D01*
X7960000Y1840000D01*
Y2160000D01*
X8010000Y2210000D01*
G37*
G36*
G01X6980740Y704260D02*
X7224260D01*
Y595000D01*
G03X7228020Y576830I45742J-8D01*
G01X7228860Y574900D01*
Y490740D01*
X7175000D01*
G03X7134640Y466520I0J-45738D01*
G01X7131770Y461140D01*
X6978230D01*
X6975360Y466520D01*
G03X6935000Y490740I-40360J-21518D01*
G01X6861910D01*
X6834950Y517700D01*
X6851320Y534080D01*
G03X6862270Y549260I-41308J41337D01*
G01X6935000D01*
G03X6980740Y595000I0J45740D01*
G01Y704260D01*
G37*
%LPC*%
G75*
G36*
G01X5021050Y705740D02*
X5211050Y895740D01*
X5725740D01*
Y803090D01*
X5726390Y801360D01*
G02Y698640I-136386J-51360D01*
G01X5725740Y696910D01*
Y614260D01*
X5711500D01*
G03X5695680Y581190I1J-20319D01*
G02X5725740Y496000I-105684J-85190D01*
G02X5454260I-135740J0D01*
G02X5458710Y530470I135728J0D01*
G03X5424690Y550000I-19652J5163D01*
G01X5338950Y464260D01*
X5050740D01*
Y420000D01*
G02X5046140Y400000I-45742J-8D01*
G02X5050740Y380000I-41142J-19992D01*
G01Y325000D01*
G02X5005000Y279260I-45740J0D01*
G01X4955000D01*
G02X4945350Y280290I2J45740D01*
G03X4920740Y260430I-4290J-19862D01*
G01Y215000D01*
G02X4875000Y169260I-45740J0D01*
G01X4851910D01*
X4788580Y105930D01*
X4787800Y103880D01*
G02X4745000Y74260I-42800J16112D01*
G01X4695000D01*
G02X4667300Y83600I0J45745D01*
G03X4642700I-12300J-16173D01*
G02X4615000Y74260I-27700J36405D01*
G01X4565000D01*
G02X4535010Y85460I0J45752D01*
G02X4492500Y71360I-42510J57032D01*
G02X4421360Y142500I0J71140D01*
G02X4425020Y165010I71138J-14D01*
G03X4405740Y191760I-19278J6429D01*
G01X4355000D01*
G02X4309260Y237500I0J45740D01*
G01Y277500D01*
G02X4311000Y290000I45741J4D01*
G02X4309260Y302500I44001J12496D01*
G01Y342500D01*
G02X4317270Y368360I45749J0D01*
G01X4319050Y370950D01*
Y384260D01*
X4304260D01*
Y648950D01*
X4361050Y705740D01*
X5021050D01*
G37*
G36*
G01X228000Y4367740D02*
X288000D01*
G02Y4176260I0J-95740D01*
G01X228000D01*
G02Y4367740I0J95740D01*
G37*
G36*
G01X6403920Y5084790D02*
G03X6438080I17080J11003D01*
G02X6657920I109920J-70796D01*
G03X6692080I17080J11003D01*
G02X6802000Y5144740I109920J-70796D01*
G02X6932740Y5014000I0J-130740D01*
G02X6872790Y4904080I-130746J0D01*
G03Y4869920I11003J-17080D01*
G02X6932740Y4760000I-70796J-109920D01*
G02X6928250Y4726020I-130741J-11D01*
G03X6947870Y4700420I19620J-5281D01*
G01X7740720D01*
G02X7791020Y4679580I-6J-71137D01*
G01X7964870Y4505740D01*
X8275740D01*
Y4273900D01*
X8329740D01*
G02X8349380Y4271130I-18J-71137D01*
G01X8350760Y4270740D01*
X8360000D01*
G02X8405740Y4225000I0J-45740D01*
G01Y4175000D01*
G02X8360000Y4129260I-45740J0D01*
G01X8340050D01*
X8339550Y4129210D01*
G02X8332500Y4128860I-7048J70790D01*
G02X8325450Y4129210I-2J71140D01*
G01X8324950Y4129260D01*
X8305000D01*
G02X8291850Y4131190I-3J45740D01*
G01X8290420Y4131620D01*
X8267470D01*
X8266450Y4122610D01*
G02X8221000Y4082020I-45450J5151D01*
G01X8145740D01*
Y4074260D01*
X7984260D01*
Y4082020D01*
X7780000D01*
G02X7734260Y4127760I0J45740D01*
G01Y4277760D01*
G02X7780000Y4323500I45740J0D01*
G01X7874260D01*
Y4395130D01*
X7711250Y4558140D01*
X7171520D01*
G03X7157160Y4523450I4J-20319D01*
G01X7174870Y4505740D01*
X7495740D01*
Y4273900D01*
X7539740D01*
G02X7559380Y4271130I-18J-71137D01*
G01X7560760Y4270740D01*
X7570000D01*
G02X7615740Y4225000I0J-45740D01*
G01Y4175000D01*
G02X7570000Y4129260I-45740J0D01*
G01X7550050D01*
X7549550Y4129210D01*
G02X7542500Y4128860I-7048J70790D01*
G02X7535450Y4129210I-2J71140D01*
G01X7534950Y4129260D01*
X7515000D01*
G02X7501850Y4131190I-3J45740D01*
G01X7500420Y4131620D01*
X7487470D01*
X7486450Y4122610D01*
G02X7441000Y4082020I-45450J5151D01*
G01X7365740D01*
Y4074260D01*
X7204260D01*
Y4082020D01*
X7000000D01*
G02X6954260Y4127760I0J45740D01*
G01Y4277760D01*
G02X7000000Y4323500I45740J0D01*
G01X7094260D01*
Y4385130D01*
X7000530Y4478860D01*
X6685740D01*
Y4273900D01*
X6739740D01*
G02X6759380Y4271130I-18J-71137D01*
G01X6760760Y4270740D01*
X6770000D01*
G02X6815740Y4225000I0J-45740D01*
G01Y4175000D01*
G02X6770000Y4129260I-45740J0D01*
G01X6750050D01*
X6749550Y4129210D01*
G02X6742500Y4128860I-7048J70790D01*
G02X6735450Y4129210I-2J71140D01*
G01X6734950Y4129260D01*
X6715000D01*
G02X6701850Y4131190I-3J45740D01*
G01X6700420Y4131620D01*
X6677470D01*
X6676450Y4122610D01*
G02X6631000Y4082020I-45450J5151D01*
G01X6555740D01*
Y4074260D01*
X6394260D01*
Y4082020D01*
X6190000D01*
G02X6144260Y4127760I0J45740D01*
G01Y4277760D01*
G02X6190000Y4323500I45740J0D01*
G01X6284260D01*
Y4385130D01*
X6040190Y4629200D01*
X6036160Y4629320D01*
G02X5930080Y4689210I3834J130683D01*
G03X5895920I-17080J-11003D01*
G02X5851140Y4646640I-109920J70789D01*
G01Y4505740D01*
X5875740D01*
Y4273900D01*
X5929740D01*
G02X5949380Y4271130I-18J-71137D01*
G01X5950760Y4270740D01*
X5960000D01*
G02X6005740Y4225000I0J-45740D01*
G01Y4175000D01*
G02X5960000Y4129260I-45740J0D01*
G01X5940050D01*
X5939550Y4129210D01*
G02X5932500Y4128860I-7048J70790D01*
G02X5925450Y4129210I-2J71140D01*
G01X5924950Y4129260D01*
X5905000D01*
G02X5891850Y4131190I-3J45740D01*
G01X5890420Y4131620D01*
X5867470D01*
X5866450Y4122610D01*
G02X5821000Y4082020I-45450J5151D01*
G01X5745740D01*
Y4074260D01*
X5584260D01*
Y4082020D01*
X5380000D01*
G02X5334260Y4127760I0J45740D01*
G01Y4277760D01*
G02X5380000Y4323500I45740J0D01*
G01X5474260D01*
Y4505740D01*
X5708860D01*
Y4654440D01*
G02X5676080Y4689210I77138J105560D01*
G03X5641920I-17080J-11003D01*
G02X5532000Y4629260I-109920J70796D01*
G02X5509840Y4631150I-10J130741D01*
G01X5504650Y4632040D01*
X5342300Y4469700D01*
G02X5292000Y4448860I-50306J50297D01*
G01X5119470D01*
X5055740Y4385130D01*
Y4273900D01*
X5099740D01*
G02X5119380Y4271130I-18J-71137D01*
G01X5120760Y4270740D01*
X5130000D01*
G02X5175740Y4225000I0J-45740D01*
G01Y4175000D01*
G02X5130000Y4129260I-45740J0D01*
G01X5110050D01*
X5109550Y4129210D01*
G02X5102500Y4128860I-7048J70790D01*
G02X5095450Y4129210I-2J71140D01*
G01X5094950Y4129260D01*
X5075000D01*
G02X5061850Y4131190I-3J45740D01*
G01X5060420Y4131620D01*
X5047470D01*
X5046450Y4122610D01*
G02X5001000Y4082020I-45450J5151D01*
G01X4925740D01*
Y4074260D01*
X4764260D01*
Y4082020D01*
X4560000D01*
G02X4514260Y4127760I0J45740D01*
G01Y4277760D01*
G02X4560000Y4323500I45740J0D01*
G01X4654260D01*
Y4468860D01*
X4329470D01*
X4245740Y4385130D01*
Y4271140D01*
X4282500D01*
G02X4289550Y4270790I2J-71140D01*
G01X4290050Y4270740D01*
X4310000D01*
G02X4355740Y4225000I0J-45740D01*
G01Y4175000D01*
G02X4310000Y4129260I-45740J0D01*
G01X4290050D01*
X4289550Y4129210D01*
G02X4282500Y4128860I-7048J70790D01*
G01X4237450D01*
X4236480Y4119790D01*
G02X4191000Y4078940I-45480J4892D01*
G01X4115740D01*
Y4074260D01*
X3954260D01*
Y4078940D01*
X3750000D01*
G02X3704260Y4124680I0J45740D01*
G01Y4274680D01*
G02X3750000Y4320420I45740J0D01*
G01X3844260D01*
Y4505740D01*
X4165130D01*
X4177840Y4518450D01*
G03X4163480Y4553140I-14364J14371D01*
G01X3593750D01*
X3425740Y4385130D01*
Y4270820D01*
X3455740D01*
X3456190Y4270860D01*
G02X3462500Y4271140I6306J-70860D01*
G02X3469550Y4270790I2J-71140D01*
G01X3470050Y4270740D01*
X3490000D01*
G02X3535740Y4225000I0J-45740D01*
G01Y4175000D01*
G02X3490000Y4129260I-45740J0D01*
G01X3472300D01*
X3471630Y4129170D01*
G02X3462180Y4128540I-9447J70510D01*
G01X3418110D01*
X3417090Y4119530D01*
G02X3371640Y4078940I-45450J5151D01*
G01X3295740D01*
Y4074260D01*
X3134260D01*
Y4078940D01*
X2930640D01*
G02X2884900Y4124680I0J45740D01*
G01Y4274680D01*
G02X2930640Y4320420I45740J0D01*
G01X3024260D01*
Y4505740D01*
X3345130D01*
X3513980Y4674580D01*
G02X3564280Y4695420I50306J-50297D01*
G01X4634260D01*
Y4850000D01*
G02X4664930Y4893190I45745J0D01*
G03X4673270Y4926040I-6694J19183D01*
G02X4639260Y5014000I96740J87960D01*
G02X4770000Y5144740I130740J0D01*
G02X4879920Y5084790I0J-130746D01*
G03X4914080I17080J11003D01*
G02X5133920I109920J-70796D01*
G03X5168080I17080J11003D01*
G02X5387920I109920J-70796D01*
G03X5422080I17080J11003D01*
G02X5641920I109920J-70796D01*
G03X5676080I17080J11003D01*
G02X5895920I109920J-70796D01*
G03X5930080I17080J11003D01*
G02X6149920I109920J-70796D01*
G03X6184080I17080J11003D01*
G02X6403920I109920J-70796D01*
G37*
G36*
G01X583000Y4184130D02*
G02X525260Y4272000I37991J87870D01*
G02X621000Y4367740I95740J0D01*
G01X731000D01*
G02Y4176260I0J-95740D01*
G01X656790D01*
X649950Y4158590D01*
G02X657890Y4148600I-26960J-29578D01*
G02X690000Y4155740I32103J-68602D01*
G01X840000D01*
G02X885740Y4110000I0J-45740D01*
G01Y4050000D01*
G02X884630Y4040000I-45738J15D01*
G02X885650Y4032950I-44622J-10055D01*
G01X886260Y4023440D01*
X1034180D01*
G02X1070000Y4040740I35820J-28433D01*
G01X1115000D01*
G02X1160740Y3995000I0J-45740D01*
G01Y3945000D01*
G02X1115000Y3899260I-45740J0D01*
G01X1070000D01*
G02X1047400Y3905230I-5J45741D01*
G01X1045070Y3906560D01*
X885740D01*
Y3723440D01*
X1034180D01*
G02X1070000Y3740740I35820J-28433D01*
G01X1115000D01*
G02X1160740Y3695000I0J-45740D01*
G01Y3645000D01*
G02X1160320Y3638810I-45740J-6D01*
G03X1180450Y3615740I20132J-2751D01*
G01X1230000D01*
G02X1275740Y3570000I0J-45740D01*
G01Y3390000D01*
G02X1230000Y3344260I-45740J0D01*
G01X1070000D01*
G02X1024260Y3390000I0J45740D01*
G01Y3498630D01*
X998630Y3524260D01*
X690800D01*
G02X658060Y3531700I-4J75741D01*
G02X649950Y3521410I-35064J19294D01*
G01X656790Y3503740D01*
X731000D01*
G02Y3312260I0J-95740D01*
G01X621000D01*
G02X525260Y3408000I0J95740D01*
G02X583000Y3495870I95731J0D01*
G03X591120Y3526810I-8066J18652D01*
G02X582980Y3551000I31873J24190D01*
G02X592900Y3577370I40009J0D01*
G01X599160Y3584520D01*
X586440Y3597240D01*
G02X564260Y3650800I53563J53554D01*
G01Y4030000D01*
G02X586440Y4083560I75743J6D01*
G01X598720Y4095830D01*
X592600Y4102970D01*
G02X582980Y4129000I30406J26030D01*
G02X591120Y4153190I40013J0D01*
G03X583000Y4184130I-16186J12288D01*
G37*
G54D49*
X3905000Y610000D03*
G54D47*
X1840000Y1980000D03*
G54D48*
X2050000Y4315000D03*
G54D50*
X8190000Y1980000D03*
%LPD*%
G75*
G36*
G01X3342710Y4460000D02*
X3380000D01*
Y4320420D01*
X3311640D01*
G03X3306040Y4320080I-33J-45742D01*
G01X3305420Y4320000D01*
X3290000D01*
X3250000Y4280000D01*
Y4120000D01*
X3180000D01*
Y4280000D01*
X3140000Y4320000D01*
X3123860D01*
X3123240Y4320080D01*
G03X3117640Y4320420I-5567J-45402D01*
G01X3070000D01*
Y4460000D01*
X3157290D01*
X3158130Y4459860D01*
G03X3170000Y4458860I11886J70139D01*
G03X3181870Y4459860I-16J71139D01*
G01X3182710Y4460000D01*
X3317290D01*
X3318130Y4459860D01*
G03X3330000Y4458860I11886J70139D01*
G03X3341870Y4459860I-16J71139D01*
G01X3342710Y4460000D01*
G37*
G36*
G01X4142710D02*
X4200000D01*
Y4320420D01*
X4131000D01*
G03X4125400Y4320080I-33J-45742D01*
G01X4124780Y4320000D01*
X4110000D01*
X4070000Y4280000D01*
Y4120000D01*
X4000000D01*
Y4280000D01*
X3960000Y4320000D01*
X3943220D01*
X3942600Y4320080D01*
G03X3937000Y4320420I-5567J-45402D01*
G01X3890000D01*
Y4460000D01*
X3957290D01*
X3958130Y4459860D01*
G03X3970000Y4458860I11886J70139D01*
G03X3981870Y4459860I-16J71139D01*
G01X3982710Y4460000D01*
X4117290D01*
X4118130Y4459860D01*
G03X4130000Y4458860I11886J70139D01*
G03X4141870Y4459860I-16J71139D01*
G01X4142710Y4460000D01*
G37*
G36*
G01X5230000Y850000D02*
X5454260D01*
Y644260D01*
X5320000Y510000D01*
X4774450D01*
G03X4745000Y520740I-29450J-35007D01*
G01X4695000D01*
G03X4672110Y514600I0J-45737D01*
G01X4669760Y513240D01*
X4629990D01*
X4628530Y513690D01*
G03X4615000Y515740I-13540J-43689D01*
G01X4565000D01*
G03X4521110Y482870I0J-45737D01*
G01X4520380Y480380D01*
X4507340Y467340D01*
G02X4490000Y474530I-7180J7188D01*
G01Y500000D01*
X4350000D01*
Y540000D01*
X4490000D01*
Y560000D01*
X4350000D01*
Y630000D01*
X4380000Y660000D01*
X4487290D01*
X4488130Y659860D01*
G03X4500000Y658860I11886J70139D01*
G03X4511870Y659860I-16J71139D01*
G01X4512710Y660000D01*
X4727290D01*
X4728130Y659860D01*
G03X4740000Y658860I11886J70139D01*
G03X4751870Y659860I-16J71139D01*
G01X4752710Y660000D01*
X5040000D01*
X5230000Y850000D01*
G37*
G36*
G01X4574220Y464260D02*
X4779260D01*
Y444570D01*
G02X4754650Y424710I-20320J2D01*
G03X4745000Y425740I-9652J-44710D01*
G01X4695000D01*
G03X4661310Y410940I0J-45745D01*
G01X4643470D01*
X4640870Y412720D01*
G03X4615000Y420740I-25870J-37714D01*
G01X4586750D01*
G02X4568630Y450250I-1J20318D01*
G03X4571790Y457570I-58666J29668D01*
G01X4574220Y464260D01*
G37*
G36*
G01X4700000Y4460000D02*
X5010000D01*
Y4323500D01*
X4941000D01*
G03X4925070Y4320640I-9J-45742D01*
G01X4923360Y4320000D01*
X4920000D01*
X4916220Y4316220D01*
X4915410Y4315670D01*
G03X4903090Y4303350I25590J-37910D01*
G01X4902540Y4302540D01*
X4880000Y4280000D01*
Y4120000D01*
X4810000D01*
Y4280000D01*
X4770000Y4320000D01*
X4764640D01*
X4762930Y4320640D01*
G03X4747000Y4323500I-15921J-42882D01*
G01X4700000D01*
Y4460000D01*
G37*
G36*
G01X5520000D02*
X5830000D01*
Y4323500D01*
X5761000D01*
G03X5745070Y4320640I-9J-45742D01*
G01X5743360Y4320000D01*
X5740000D01*
X5736220Y4316220D01*
X5735410Y4315670D01*
G03X5723090Y4303350I25590J-37910D01*
G01X5722540Y4302540D01*
X5700000Y4280000D01*
Y4120000D01*
X5630000D01*
Y4280000D01*
X5590000Y4320000D01*
X5584640D01*
X5582930Y4320640D01*
G03X5567000Y4323500I-15921J-42882D01*
G01X5520000D01*
Y4460000D01*
G37*
G36*
G01X6330000D02*
X6640000D01*
Y4323500D01*
X6571000D01*
G03X6555070Y4320640I-9J-45742D01*
G01X6553360Y4320000D01*
X6550000D01*
X6546220Y4316220D01*
X6545410Y4315670D01*
G03X6533090Y4303350I25590J-37910D01*
G01X6532540Y4302540D01*
X6510000Y4280000D01*
Y4120000D01*
X6440000D01*
Y4280000D01*
X6400000Y4320000D01*
X6394640D01*
X6392930Y4320640D01*
G03X6377000Y4323500I-15921J-42882D01*
G01X6330000D01*
Y4460000D01*
G37*
G36*
G01X7372710D02*
X7450000D01*
Y4323500D01*
X7381000D01*
G03X7365070Y4320640I-9J-45742D01*
G01X7363360Y4320000D01*
X7360000D01*
X7356220Y4316220D01*
X7355410Y4315670D01*
G03X7343090Y4303350I25590J-37910D01*
G01X7342540Y4302540D01*
X7320000Y4280000D01*
Y4120000D01*
X7250000D01*
Y4280000D01*
X7210000Y4320000D01*
X7204640D01*
X7202930Y4320640D01*
G03X7187000Y4323500I-15921J-42882D01*
G01X7140000D01*
Y4460000D01*
X7187290D01*
X7188130Y4459860D01*
G03X7200000Y4458860I11886J70139D01*
G03X7211870Y4459860I-16J71139D01*
G01X7212710Y4460000D01*
X7347290D01*
X7348130Y4459860D01*
G03X7360000Y4458860I11886J70139D01*
G03X7371870Y4459860I-16J71139D01*
G01X7372710Y4460000D01*
G37*
G36*
G01X7920000D02*
X8230000D01*
Y4323500D01*
X8161000D01*
G03X8145070Y4320640I-9J-45742D01*
G01X8143360Y4320000D01*
X8140000D01*
X8136220Y4316220D01*
X8135410Y4315670D01*
G03X8123090Y4303350I25590J-37910D01*
G01X8122540Y4302540D01*
X8100000Y4280000D01*
Y4120000D01*
X8030000D01*
Y4280000D01*
X7990000Y4320000D01*
X7984640D01*
X7982930Y4320640D01*
G03X7967000Y4323500I-15921J-42882D01*
G01X7920000D01*
Y4460000D01*
G37*
%LPC*%
G75*
G54D49*
X4455000Y610000D03*
%LPD*%
G75*
G54D10*
X360000Y360000D03*
Y5040000D03*
X8140000Y360000D03*
Y5040000D03*
G54D11*
G01X340000Y3060000D02*
X423340Y2976660D01*
Y2811240D01*
X530000Y2704580D01*
Y2690000D01*
G01X250000Y2757500D02*
Y2840000D01*
G01X340000Y3060000D02*
Y3210000D01*
G01X990000Y1980000D02*
X1270000Y1700000D01*
X6190000D01*
X6280000Y1610000D01*
Y494870D01*
X6330800Y444070D01*
X6534070D01*
X6570000Y480000D01*
Y482500D01*
G01X2140000Y360000D02*
Y320000D01*
G01Y360000D02*
Y440000D01*
G01X2180000Y320000D02*
X2140000Y360000D01*
G01X3100000Y3470000D02*
Y3480000D01*
X3097640Y3482360D01*
Y3649680D01*
X3087640Y3659680D01*
G01X3214000Y3220000D02*
Y3356000D01*
X3100000Y3470000D01*
G01X3341640Y4199680D02*
X3462180D01*
X3462500Y4200000D01*
G01X3330000Y4390000D02*
X3564280Y4624280D01*
X4888280D01*
X5024000Y4760000D01*
G01X3907000Y3659680D02*
Y3473000D01*
X3910000Y3470000D01*
G01X4024000Y3220000D02*
Y3356000D01*
X3910000Y3470000D01*
G01X4282500Y4200000D02*
X4161320D01*
X4161000Y4199680D01*
G01X4150000Y4390000D02*
X4300000Y4540000D01*
X4960000D01*
X5030000Y4610000D01*
X5128000D01*
X5278000Y4760000D01*
G01X4834000Y3220000D02*
Y3346000D01*
X4720000Y3460000D01*
Y3470000D01*
G01D02*
X4717000Y3473000D01*
Y3662760D01*
G01X4971000Y4202760D02*
X5099740D01*
X5102500Y4200000D01*
G01X4960000Y4390000D02*
X5090000Y4520000D01*
X5292000D01*
X5532000Y4760000D01*
G01X5030000Y5180000D02*
X5024000Y5174000D01*
G01D02*
Y5014000D01*
G01X5537000Y3662760D02*
Y3473000D01*
X5540000Y3470000D01*
G01D02*
X5644000Y3366000D01*
Y3220000D01*
G01X5532000Y5014000D02*
Y5174000D01*
G01X5278000Y5014000D02*
Y5174000D01*
G01X5791000Y4202760D02*
X5929740D01*
X5932500Y4200000D01*
G01X5780000Y4390000D02*
Y4754000D01*
X5786000Y4760000D01*
G01X6040000D02*
Y4730000D01*
X6380000Y4390000D01*
G01X6040000Y5014000D02*
Y5174000D01*
G01X5786000Y5014000D02*
Y5174000D01*
G01X6350000Y3470000D02*
X6454000Y3366000D01*
Y3220000D01*
G01X6347000Y3662760D02*
Y3473000D01*
X6350000Y3470000D01*
G01X7190000Y4390000D02*
X7030000Y4550000D01*
X6504000D01*
X6294000Y4760000D01*
G01Y5014000D02*
Y5174000D01*
G01X7395000Y390000D02*
Y300800D01*
X7344200Y250000D01*
X6770000D01*
X6715000Y305000D01*
Y390000D01*
G01X6720000Y790000D02*
X6715000Y785000D01*
G01D02*
Y650000D01*
G01X6601000Y4202760D02*
X6739740D01*
X6742500Y4200000D01*
G01X7980000Y4390000D02*
X7740720Y4629280D01*
X6678720D01*
X6548000Y4760000D01*
G01Y5014000D02*
Y5174000D01*
G01X7300000Y650000D02*
Y390000D01*
G01X6905000D02*
X7205000D01*
G01X7264000Y3220000D02*
Y3366000D01*
X7160000Y3470000D01*
G01X7157000Y3662760D02*
Y3473000D01*
X7160000Y3470000D01*
G01X7400000Y780000D02*
X7395000Y775000D01*
G01D02*
Y650000D01*
G01X7411000Y4202760D02*
X7539740D01*
X7542500Y4200000D01*
G01X8074000Y3220000D02*
Y3336000D01*
X7940000Y3470000D01*
G01X7937000Y3662760D02*
Y3473000D01*
X7940000Y3470000D01*
G01X8191000Y4202760D02*
X8329740D01*
X8332500Y4200000D01*
X170000Y930000D03*
Y1430000D03*
X110000Y3570000D03*
Y4070000D03*
X320000Y1670000D03*
X440000D03*
X560000D03*
X320000Y1800000D03*
Y2100000D03*
Y1940000D03*
X250000Y2350000D03*
X460000D03*
X250000Y2840000D03*
X500000Y3100000D03*
X900000Y110000D03*
X670000Y930000D03*
Y1430000D03*
X610000Y2110000D03*
Y2540000D03*
X650000Y2810000D03*
Y3100000D03*
Y2950000D03*
X810000Y2810000D03*
Y2950000D03*
Y3100000D03*
X920000Y3300000D03*
Y3820000D03*
Y4110000D03*
X860000Y4440000D03*
Y4940000D03*
X1400000Y110000D03*
X1110000Y2540000D03*
X1080000Y3300000D03*
Y3820000D03*
Y4110000D03*
X1360000Y4440000D03*
Y4940000D03*
X1740000Y1250000D03*
X2140000Y70000D03*
X2240000D03*
X1900000Y950000D03*
X2040000D03*
X2170000D03*
X1900000Y1070000D03*
X2040000D03*
X2170000D03*
X2240000Y1250000D03*
X2000000Y2370000D03*
Y2870000D03*
X2350000Y210000D03*
X2540000D03*
X2400000Y700000D03*
X2540000D03*
X2670000D03*
X2400000Y810000D03*
X2540000D03*
X2670000D03*
X2500000Y1870000D03*
Y2370000D03*
Y2870000D03*
X2430000Y3580000D03*
Y4080000D03*
Y4580000D03*
X2730000Y70000D03*
X2740000Y1250000D03*
X3000000Y1870000D03*
Y2370000D03*
Y2870000D03*
X3010000Y3820000D03*
X2850000D03*
Y4030000D03*
X3010000D03*
Y4530000D03*
X2850000D03*
X2870000Y4790000D03*
Y5290000D03*
X3530000Y70000D03*
Y750000D03*
Y890000D03*
Y1020000D03*
X3240000Y1250000D03*
X3500000Y1870000D03*
Y2370000D03*
Y2870000D03*
X3330000Y3820000D03*
X3170000D03*
Y4030000D03*
X3330000D03*
X3510000D03*
X3330000Y4530000D03*
X3170000D03*
X3370000Y4790000D03*
Y5290000D03*
X3840000Y70000D03*
X3832500Y387500D03*
X3770000Y750000D03*
Y890000D03*
Y1020000D03*
X3740000Y1250000D03*
X3830000Y4030000D03*
X3670000D03*
Y4210000D03*
X3780000Y4530000D03*
X3620000D03*
X3870000Y4790000D03*
Y5290000D03*
X4180000Y420000D03*
X4130000Y530000D03*
X4230000D03*
X4130000Y310000D03*
X4230000D03*
X4240000Y1250000D03*
X4000000Y1870000D03*
Y2370000D03*
Y2870000D03*
X4270000Y3490000D03*
Y3650000D03*
X3990000Y4030000D03*
X4330000D03*
X4170000D03*
X4130000Y4530000D03*
X3970000D03*
X4370000Y4790000D03*
Y5290000D03*
X4492500Y142500D03*
X4740000Y730000D03*
Y870000D03*
Y1000000D03*
X4500000Y730000D03*
Y870000D03*
Y1000000D03*
X4740000Y1250000D03*
X4500000Y1870000D03*
Y2370000D03*
Y2870000D03*
X4650000Y4030000D03*
X4490000D03*
Y4200000D03*
X4980000Y100000D03*
Y230000D03*
X5070000Y1000000D03*
Y870000D03*
X5000000Y1870000D03*
Y2370000D03*
Y2870000D03*
X5090000Y3490000D03*
Y3650000D03*
X4990000Y4030000D03*
X5150000D03*
X4830000D03*
X5020000Y5270000D03*
X5350000Y140000D03*
X5240000Y1250000D03*
X5500000Y1870000D03*
Y2370000D03*
Y2870000D03*
X5310000Y4030000D03*
X5500000D03*
X5310000Y4200000D03*
X5510000Y4550000D03*
X5520000Y5270000D03*
X5850000Y140000D03*
X5910000Y3500000D03*
Y3660000D03*
X5980000Y4030000D03*
X5820000D03*
X5660000D03*
X5940000Y4530000D03*
X5670000Y4550000D03*
X6020000Y5270000D03*
X6350000Y140000D03*
X6140000Y2360000D03*
Y2860000D03*
X6320000Y4030000D03*
X6160000D03*
X6120000Y4210000D03*
X6100000Y4530000D03*
X6750000Y140000D03*
X6890000Y530000D03*
X6640000Y2360000D03*
Y2860000D03*
X6720000Y3490000D03*
Y3650000D03*
X6640000Y4030000D03*
X6480000D03*
X6800000D03*
X6660000Y5260000D03*
X7250000Y140000D03*
X7110000Y530000D03*
X7010000D03*
X7210000D03*
X7110000Y660000D03*
X7010000D03*
X7140000Y2360000D03*
Y2860000D03*
X7280000Y4030000D03*
X7120000D03*
X6960000D03*
X6930000Y4210000D03*
X7200000Y4530000D03*
X6960000Y4810000D03*
X7160000Y5260000D03*
X7640000Y2360000D03*
Y2860000D03*
X7530000Y3490000D03*
Y3650000D03*
X7620000Y4030000D03*
X7460000D03*
X7720000Y4200000D03*
X7700000Y4530000D03*
X7540000D03*
X7360000D03*
X7460000Y4810000D03*
X7660000Y5260000D03*
X7750000Y140000D03*
X8140000Y2360000D03*
Y2860000D03*
X7940000Y4030000D03*
X7780000D03*
X8100000D03*
X8060000Y4550000D03*
X8290000Y3500000D03*
Y3660000D03*
X8260000Y4030000D03*
X8420000D03*
X8220000Y4550000D03*
X8380000D03*
G54D20*
X780000Y3520000D03*
Y3600000D03*
Y4080000D03*
Y4160000D03*
G54D30*
X2500000Y5120000D03*
X2660000D03*
X2500000Y5260000D03*
X2660000D03*
G54D12*
X130000Y2662500D03*
Y2757500D03*
X250000Y2662500D03*
X370000D03*
X250000Y2757500D03*
X370000D03*
X2230000Y592500D03*
Y687500D03*
X2440000Y132500D03*
X2630000D03*
X2440000Y227500D03*
X2630000D03*
X2660000Y4892500D03*
Y4987500D03*
X2500000Y4892500D03*
Y4987500D03*
X3750000Y142500D03*
X3630000D03*
X3750000Y237500D03*
X3630000D03*
X4590000Y142500D03*
X4720000D03*
X4590000Y447500D03*
Y352500D03*
Y237500D03*
X4720000D03*
X4850000Y142500D03*
Y237500D03*
Y352500D03*
Y447500D03*
X6570000Y482500D03*
Y577500D03*
Y282500D03*
Y377500D03*
G54D21*
X780000Y3665000D03*
Y3715000D03*
Y3765000D03*
Y3815000D03*
Y3865000D03*
Y3915000D03*
Y3965000D03*
Y4015000D03*
G54D40*
G01X4180000Y420000D02*
X4212500Y387500D01*
G01D02*
X4410000D01*
G01X4590000Y447500D02*
X4720000D01*
G01X4590000D02*
X4587660D01*
G01D02*
X4527660Y387500D01*
X4410000D01*
G01X4510000Y480000D02*
X4482500Y452500D01*
X4410000D01*
G54D13*
X200000Y3060000D03*
Y3210000D03*
X340000Y3060000D03*
Y3210000D03*
G54D22*
X1090000Y4315000D03*
X1570000D03*
X2050000D03*
G54D31*
X2820000Y380000D03*
X5210000Y610000D03*
G54D41*
G01X780000Y3600000D02*
X1030000D01*
X1150000Y3480000D01*
G01X780000Y3600000D02*
X690800D01*
X640000Y3650800D01*
Y4030000D01*
X690000Y4080000D01*
X780000D01*
G54D14*
X600000Y1830000D03*
Y1970000D03*
G54D23*
X905000Y5237000D03*
X2235000D03*
G54D32*
X3100000Y3470000D03*
X3120000Y4390000D03*
X2920000D03*
X3300000Y3470000D03*
X3330000Y4390000D03*
X3530000D03*
X3910000Y3470000D03*
X3940000Y4390000D03*
X3740000D03*
X4110000Y3470000D03*
X4150000Y4390000D03*
X4350000D03*
X4720000Y3470000D03*
X4750000Y4390000D03*
X4550000D03*
X4920000Y3470000D03*
X4960000Y4390000D03*
X5160000D03*
X5540000Y3470000D03*
X5570000Y4390000D03*
X5370000D03*
X5740000Y3470000D03*
X5780000Y4390000D03*
X5980000D03*
X6350000Y3470000D03*
X6380000Y4390000D03*
X6180000D03*
X6550000Y3470000D03*
X6590000Y4390000D03*
X6790000D03*
X7160000Y3470000D03*
X7190000Y4390000D03*
X6990000D03*
X7360000Y3470000D03*
X7390000Y4390000D03*
X7590000D03*
X7940000Y3470000D03*
X8140000D03*
X7980000Y4390000D03*
X7780000D03*
X8180000D03*
X8380000D03*
G54D42*
G01X122100Y3408000D02*
X258000D01*
G01X122100Y4272000D02*
X258000D01*
G01X360000Y360000D02*
Y760900D01*
G01Y360000D02*
X760900D01*
G01X258000Y3408000D02*
Y3513900D01*
G01Y3408000D02*
X393900D01*
G01X515100D02*
X676000D01*
G01X258000Y4166100D02*
Y4272000D01*
G01D02*
Y4377900D01*
G01Y4272000D02*
X393900D01*
G01X515100D02*
X676000D01*
G01X360000Y4639100D02*
Y5040000D01*
G01D02*
X760900D01*
G01X676000Y3302100D02*
Y3408000D01*
G01D02*
X836900D01*
G01X676000Y4272000D02*
Y4377900D01*
G01Y4272000D02*
X836900D01*
G01X905000Y5071100D02*
Y5237000D01*
G01X739100D02*
X905000D01*
G01D02*
X1070900D01*
G01X1300000Y350100D02*
Y496000D01*
G01X1154100D02*
X1300000D01*
G01D02*
X1445900D01*
G01X2235000Y5071100D02*
Y5237000D01*
G01X2069100D02*
X2235000D01*
G01D02*
X2400900D01*
G01X4770000Y5014000D02*
Y5154900D01*
G01X4629100Y5014000D02*
X4770000D01*
G01X5590000Y350100D02*
Y496000D01*
G01X5444100D02*
X5590000D01*
G01D02*
X5735900D01*
G01X6802000Y5014000D02*
Y5154900D01*
G01Y5014000D02*
X6942900D01*
G01X8009100Y1980000D02*
X8190000D01*
G01X8140000Y4639100D02*
Y5040000D01*
G01X7739100D02*
X8140000D01*
G01X8190000Y1799100D02*
Y1980000D01*
G01D02*
Y2160900D01*
G01Y1980000D02*
X8370900D01*
G54D33*
X2960000Y3220000D03*
X3770000D03*
X4580000D03*
X5390000D03*
X6200000D03*
X7010000D03*
X7820000D03*
G54D24*
X1300000Y496000D03*
X3468000Y3220000D03*
X3214000D03*
X4024000D03*
X4278000D03*
X4834000D03*
X5088000D03*
X5590000Y496000D03*
X5644000Y3220000D03*
X5898000D03*
X6454000D03*
X6708000D03*
X7264000D03*
X7518000D03*
X8074000D03*
X8328000D03*
G54D15*
X440000Y1800000D03*
Y2000000D03*
X530000Y2690000D03*
Y2890000D03*
X2040000Y620000D03*
Y820000D03*
X2630000Y380000D03*
Y580000D03*
X2440000Y380000D03*
Y580000D03*
X3650000Y610000D03*
Y810000D03*
X4620000Y610000D03*
Y810000D03*
X4950000Y610000D03*
Y810000D03*
X6410000Y570000D03*
Y770000D03*
G54D43*
G01X50000Y3190000D02*
Y2620000D01*
G01X130000Y2662500D02*
Y2350000D01*
X245000Y2235000D01*
Y2220000D01*
G01X130000Y2757500D02*
X100000Y2787500D01*
Y3110000D01*
X200000Y3210000D01*
G01X250000Y2662500D02*
Y2485000D01*
X245000Y2480000D01*
G01X340000D02*
Y2632500D01*
X370000Y2662500D01*
G01Y2757500D02*
Y2940000D01*
X330000Y2980000D01*
X280000D01*
X200000Y3060000D01*
G01X910000Y3490000D02*
X880000Y3520000D01*
X780000D01*
G01Y3665000D02*
X1087500D01*
X1092500Y3670000D01*
G01X900000Y4170000D02*
X890000Y4160000D01*
X780000D01*
G01Y3965000D02*
X1087500D01*
X1092500Y3970000D01*
G01X1520000Y50000D02*
X2110000D01*
G01X1570000Y4315000D02*
Y4820000D01*
X1642500Y4892500D01*
X2500000D01*
G01X2440000Y132500D02*
X2260400D01*
X2235000Y157900D01*
Y180000D01*
G01Y440000D02*
Y587500D01*
X2230000Y592500D01*
G01Y687500D02*
X2107500D01*
X2040000Y620000D01*
G01X2440000Y132500D02*
X2630000D01*
G01Y227500D02*
Y380000D01*
G01X2660000Y4892500D02*
Y3990000D01*
X2720000Y3930000D01*
X3410000D01*
X3470000Y3870000D01*
Y3222000D01*
X3468000Y3220000D01*
G01X2660000Y5120000D02*
Y4987500D01*
G01X2500000Y5120000D02*
Y4987500D01*
G01X3560000Y520000D02*
Y212500D01*
X3630000Y142500D01*
G01X3950000Y387500D02*
X3832500D01*
G01X3650000Y610000D02*
X3560000Y520000D01*
G01X3950000Y257500D02*
X3770000D01*
X3750000Y237500D01*
G01X3950000Y322500D02*
X3715000D01*
X3630000Y237500D01*
G01X4590000Y142500D02*
X4492500D01*
G01X4720000D02*
X4742500D01*
X4837500Y237500D01*
X4850000D01*
G01X4410000Y322500D02*
X4560000D01*
X4590000Y352500D01*
G01D02*
X4720000D01*
G01X4410000Y257500D02*
X4570000D01*
X4590000Y237500D01*
G01D02*
X4720000D01*
G01X4850000Y447500D02*
X4980000D01*
G01D02*
Y580000D01*
G01D02*
X4950000Y610000D01*
G01X4850000Y237500D02*
Y352500D01*
G01D02*
X4980000D01*
G01X6570000Y577500D02*
X6417500D01*
X6410000Y570000D01*
G01X6570000Y577500D02*
X6597500Y550000D01*
X6784600D01*
X6810000Y575400D01*
Y650000D01*
G01X6570000Y377500D02*
X6682500Y490000D01*
X6780000D01*
X6810000Y460000D01*
Y390000D01*
G54D25*
X1300000Y750000D03*
X4770000Y4760000D03*
X5590000Y750000D03*
G54D34*
X3087640Y3659680D03*
X2960640D03*
Y4199680D03*
X3087640D03*
X3341640Y3659680D03*
X3214640D03*
Y4199680D03*
X3341640D03*
X3907000Y3659680D03*
X3780000D03*
Y4199680D03*
X3907000D03*
X4161000Y3659680D03*
X4034000D03*
Y4199680D03*
X4161000D03*
X4717000Y3662760D03*
X4590000D03*
Y4202760D03*
X4717000D03*
X4971000Y3662760D03*
X4844000D03*
Y4202760D03*
X4971000D03*
X5537000Y3662760D03*
X5410000D03*
Y4202760D03*
X5537000D03*
X5791000Y3662760D03*
X5664000D03*
Y4202760D03*
X5791000D03*
X6474000Y3662760D03*
X6347000D03*
X6220000D03*
Y4202760D03*
X6347000D03*
X6474000D03*
X6601000Y3662760D03*
Y4202760D03*
X7284000Y3662760D03*
X7157000D03*
X7030000D03*
Y4202760D03*
X7157000D03*
X7284000D03*
X7411000Y3662760D03*
Y4202760D03*
X8064000Y3662760D03*
X7937000D03*
X7810000D03*
Y4202760D03*
X7937000D03*
X8064000D03*
X8191000Y3662760D03*
Y4202760D03*
G54D16*
X435000Y2220000D03*
X340000D03*
X245000D03*
X340000Y2480000D03*
X245000D03*
X435000D03*
X2235000Y180000D03*
X2140000D03*
X2045000D03*
X2140000Y440000D03*
X2045000D03*
X2235000D03*
X6810000Y650000D03*
X6715000D03*
X6810000Y390000D03*
X6715000D03*
X6905000Y650000D03*
Y390000D03*
X7300000D03*
X7205000D03*
Y650000D03*
X7300000D03*
X7395000Y390000D03*
Y650000D03*
G54D44*
G01X435000Y2220000D02*
Y2005000D01*
X440000Y2000000D01*
G01X600000Y1970000D02*
X470000D01*
X440000Y2000000D01*
G01X600000Y1970000D02*
X980000D01*
X990000Y1980000D01*
G01X435000Y2480000D02*
Y2595000D01*
X530000Y2690000D01*
G01X1430000Y3480000D02*
Y2766200D01*
X1353800Y2690000D01*
X530000D01*
G01X1450000Y3670000D02*
Y3500000D01*
X1430000Y3480000D01*
G01X2960000Y3220000D02*
X3140000Y3040000D01*
X3590000D01*
X3770000Y3220000D01*
G01D02*
X3950000Y3040000D01*
X4400000D01*
X4580000Y3220000D01*
G01D02*
X4760000Y3040000D01*
X5210000D01*
X5390000Y3220000D01*
G01D02*
X5570000Y3040000D01*
X6020000D01*
X6200000Y3220000D01*
G01D02*
X6380000Y3040000D01*
X6830000D01*
X7010000Y3220000D01*
G01D02*
X7190000Y3040000D01*
X7640000D01*
X7820000Y3220000D01*
G54D35*
X3462500Y4200000D03*
X3557500D03*
X4282500D03*
X4377500D03*
X5102500D03*
X5197500D03*
X5932500D03*
X6027500D03*
X6742500D03*
X6837500D03*
X7542500D03*
X7637500D03*
X8332500D03*
X8427500D03*
G54D26*
X1430000Y3480000D03*
X1150000D03*
G54D17*
X258000Y3408000D03*
Y4272000D03*
G54D45*
G01X1300000Y750000D02*
X1550000D01*
G01X5590000D02*
X5370000D01*
G54D27*
X1310000Y3670000D03*
X1450000D03*
G54D18*
X676000Y3408000D03*
Y4272000D03*
G54D36*
X3950000Y257500D03*
Y322500D03*
Y387500D03*
Y452500D03*
Y517500D03*
Y582500D03*
X4410000D03*
Y517500D03*
Y452500D03*
Y387500D03*
Y322500D03*
Y257500D03*
G54D46*
G01X1090000Y4315000D02*
X1660000Y3745000D01*
Y2650000D01*
X990000Y1980000D01*
G01X1570000Y4315000D02*
X1940000Y3945000D01*
Y3410000D01*
X2130000Y3220000D01*
X2960000D01*
G54D37*
X4180000Y420000D03*
G54D19*
X990000Y1980000D03*
X8190000D03*
G54D28*
X1187500Y3970000D03*
X1092500D03*
X1187500Y3670000D03*
X1092500D03*
G54D38*
X4720000Y352500D03*
Y447500D03*
X4980000Y352500D03*
Y447500D03*
G54D29*
X1710000Y185000D03*
Y555000D03*
G54D39*
X4770000Y5014000D03*
X5278000Y4760000D03*
X5024000D03*
X5278000Y5014000D03*
X5024000D03*
X5532000Y4760000D03*
Y5014000D03*
X6040000Y4760000D03*
X5786000D03*
X6040000Y5014000D03*
X5786000D03*
X6294000Y4760000D03*
Y5014000D03*
X6802000Y4760000D03*
X6548000D03*
X6802000Y5014000D03*
X6548000D03*
M02*
