G04 ================== begin FILE IDENTIFICATION RECORD ==================*
G04 Layout Name:  HY_IP5328_V11_211230.brd*
G04 Film Name:    BOTTOM*
G04 File Format:  Gerber RS274X*
G04 File Origin:  Cadence Allegro 17.2-S071*
G04 Origin Date:  Thu Dec 30 13:46:59 2021*
G04 *
G04 Layer:  ETCH/BOTTOM*
G04 Layer:  PIN/BOTTOM*
G04 Layer:  VIA CLASS/BOTTOM*
G04 *
G04 Offset:    (0.0000 0.0000)*
G04 Mirror:    No*
G04 Mode:      Positive*
G04 Rotation:  0*
G04 FullContactRelief:  No*
G04 UndefLineWidth:     0.1524*
G04 ================== end FILE IDENTIFICATION RECORD ====================*
%FSLAX55Y55*MOMM*%
%IR0*IPPOS*OFA0.00000B0.00000*MIA0B0*SFA1.00000B1.00000*%
%AMMACRO28*
4,1,20,-2.335,-2.3,
-2.335,2.3,
1.785,2.3,
1.785,2.155,
2.335,2.155,
2.335,1.655,
1.785,1.655,
1.785,.885,
2.335,.885,
2.335,.385,
1.785,.385,
1.785,-.385,
2.335,-.385,
2.335,-.885,
1.785,-.885,
1.785,-1.655,
2.335,-1.655,
2.335,-2.155,
1.785,-2.155,
1.785,-2.3,
-2.335,-2.3,
0.0*
%
%ADD28MACRO28*%
%ADD15R,.8X.8*%
%ADD11C,.6096*%
%ADD21O,1.X2.1*%
%ADD29R,1.2X1.*%
%ADD14R,1.X1.2*%
%ADD20O,1.X1.6*%
%ADD26R,1.8X3.2*%
%ADD18R,2.5X3.5*%
%ADD13R,.5X.6*%
%ADD22R,.6X.5*%
%ADD30C,1.3*%
%ADD27R,.7X.6*%
%ADD23R,4.5X4.5*%
%ADD24R,.8X.25*%
%AMMACRO16*
4,1,28,1.14,1.225,
.725,1.225,
.725,1.525,
.295,1.525,
.295,1.225,
-.84,1.225,
-.84,1.175,
-1.14,1.175,
-1.14,.775,
-.84,.775,
-.84,.525,
-1.14,.525,
-1.14,.125,
-.84,.125,
-.84,-.125,
-1.14,-.125,
-1.14,-.525,
-.84,-.525,
-.84,-.775,
-1.14,-.775,
-1.14,-1.175,
-.84,-1.175,
-.84,-1.225,
.295,-1.225,
.295,-1.525,
.725,-1.525,
.725,-1.225,
1.14,-1.225,
1.14,1.225,
0.0*
%
%ADD16MACRO16*%
%ADD25R,.25X.8*%
%ADD17R,.8X.35*%
%ADD12C,2.5*%
%ADD19C,1.65*%
%ADD10C,6.9*%
%ADD31C,.2032*%
%ADD32C,.254*%
%ADD34C,.8004*%
%ADD36C,1.2004*%
%ADD35C,1.6004*%
%ADD33C,7.2004*%
%ADD37C,2.1068*%
G75*
%LPD*%
G75*
G36*
G01X360000Y6550000D02*
X7440000D01*
G02X7750000Y6240000I0J-310000D01*
G01Y360000D01*
G02X7440000Y50000I-310000J0D01*
G01X360000D01*
G02X50000Y360000I0J310000D01*
G01Y896450D01*
G02X75650Y916060I20320J2D01*
G03X90320Y914100I14673J53940D01*
G01X730000D01*
G03X769530Y930470I0J55913D01*
G01X799410Y960360D01*
G02X834100Y945990I14369J-14369D01*
G01Y794120D01*
G03X850470Y754590I55913J0D01*
G01X894590Y710470D01*
G03X934120Y694100I39530J39543D01*
G01X1418070D01*
X1420540Y687500D01*
G03X1486870Y641510I66330J24838D01*
G03X1557690Y712330I0J70820D01*
G03X1541510Y757390I-70822J5D01*
G02Y783240I15675J12925D01*
G03X1557690Y828300I-54642J45055D01*
G03X1486870Y899120I-70820J0D01*
G03X1420550Y853140I0J-70819D01*
G01X1418080Y846540D01*
X1360280D01*
G02X1345910Y881230I0J20321D01*
G01X1418950Y954260D01*
X1748950D01*
X1785740Y991050D01*
Y1004660D01*
X1811620D01*
X1812290Y1004570D01*
G03X1820000Y1004060I7704J57930D01*
G01X1922010D01*
G02X1941620Y978450I-7J-20318D01*
G03X1939180Y960000I68383J-18430D01*
G03X2010000Y889180I70820J0D01*
G03X2080820Y959490I0J70822D01*
G02X2101140Y979660I20319J-149D01*
G01X2130000D01*
G03X2170340Y1020000I0J40340D01*
G01Y1075650D01*
X2235740Y1141050D01*
Y1361050D01*
X2268950Y1394260D01*
X2480520D01*
G02X2494890Y1359570I0J-20321D01*
G01X2434260Y1298950D01*
Y1108950D01*
X2394260Y1068950D01*
Y831050D01*
X2441050Y784260D01*
X3018360D01*
X3019950Y783720D01*
G03X3037900Y780760I17950J52946D01*
G01X3082100D01*
G03X3100050Y783720I0J55906D01*
G01X3101640Y784260D01*
X3128950D01*
X3138790Y794100D01*
X3486850D01*
X3501410Y779540D01*
X3497780Y772870D01*
G03X3489180Y739040I62221J-33825D01*
G03X3559200Y668220I70825J0D01*
G03X3630000Y599180I70800J1782D01*
G03X3664020Y607890I-6J70818D01*
G02X3694100Y590060I9759J-17824D01*
G01Y573600D01*
X3692230Y570960D01*
G03X3679180Y530000I57769J-40964D01*
G03X3750000Y459180I70820J0D01*
G03X3819010Y514110I0J70815D01*
G02X3841310Y529720I19805J-4559D01*
G03X3850000Y529180I8729J70278D01*
G03X3920820Y600000I0J70820D01*
G03X3905900Y643480I-70815J0D01*
G01Y1534260D01*
X4128950D01*
X4166920Y1572230D01*
G02X4184260Y1565050I7181J-7186D01*
G01Y1554260D01*
X4755740D01*
Y2051050D01*
X4798950Y2094260D01*
X5750380D01*
G02X5768240Y2064260I-3J-20318D01*
G03X5759680Y2030500I62262J-33752D01*
G03X5762270Y2011510I70822J-12D01*
G02X5742700Y1985740I-19574J-5451D01*
G01X5711050D01*
X5654260Y1928950D01*
Y1544260D01*
X6038950D01*
X6076920Y1582230D01*
G02X6094260Y1575050I7181J-7186D01*
G01Y1564260D01*
X6655740D01*
Y2118950D01*
X6205740Y2568950D01*
Y4818950D01*
X5978950Y5045740D01*
X4031050D01*
X3934260Y4948950D01*
Y4558440D01*
X3890000D01*
G03X3879660Y4557520I-11J-58441D01*
G02X3855740Y4577520I-3601J19997D01*
G01Y4658950D01*
X3808950Y4705740D01*
X3111050D01*
X3054260Y4648950D01*
Y4111050D01*
X3131050Y4034260D01*
X3574260D01*
Y3949320D01*
G02X3556920Y3942140I-10159J5D01*
G01X3554530Y3944530D01*
G03X3515000Y3960900I-39530J-39543D01*
G01X3296140D01*
X3293480Y3962800D01*
G03X3270000Y3970340I-23480J-32789D01*
G01X3210000D01*
G03X3169660Y3930000I0J-40340D01*
G01Y3880000D01*
G03X3210000Y3839660I40340J0D01*
G01X3270000D01*
G03X3293480Y3847200I0J40329D01*
G01X3296140Y3849100D01*
X3491850D01*
X3589740Y3751210D01*
Y3738220D01*
G03X3590340Y3730060I55899J8D01*
G02X3578800Y3718520I-10051J-1489D01*
G03X3570640Y3719120I-8168J-55299D01*
G01X3549930D01*
X3489530Y3779530D01*
G03X3450000Y3795900I-39530J-39543D01*
G01X2700000D01*
G03X2660470Y3779530I0J-55913D01*
G01X2610470Y3729530D01*
G03X2594100Y3690000I39543J-39530D01*
G01Y3323150D01*
X2526850Y3255900D01*
X2317840D01*
G03X2278310Y3239530I0J-55913D01*
G01X2130470Y3091690D01*
G03X2114100Y3052160I39543J-39530D01*
G01Y2394020D01*
X2015980Y2295900D01*
X869710D01*
G03X830180Y2279530I0J-55913D01*
G01X635470Y2084820D01*
G03X619100Y2045290I39543J-39530D01*
G01Y1640340D01*
X560000D01*
G03X531390Y1628440I0J-40342D01*
G01X530000D01*
G03X490000Y1640820I-40000J-58430D01*
G03Y1499180I0J-70820D01*
G03X530000Y1511560I0J70810D01*
G01X531390D01*
G03X544140Y1502910I28606J28443D01*
G01X545940Y1502140D01*
X554510Y1493570D01*
X545470Y1484530D01*
G03X529100Y1445000I39543J-39530D01*
G01Y1419180D01*
G02X504590Y1399300I-20320J3D01*
G03X490000Y1400820I-14594J-69300D01*
G03X419180Y1330000I0J-70820D01*
G03X437550Y1282410I70829J0D01*
G02X422500Y1248440I-15050J-13651D01*
G01X170000D01*
G03X130000Y1260820I-40000J-58430D01*
G03X83630Y1243520I9J-70817D01*
G02X50000Y1258880I-13308J15358D01*
G01Y6240000D01*
G02X360000Y6550000I310000J0D01*
G37*
G36*
G01X710000Y1434100D02*
G03X713330Y1434200I-12J55900D01*
G02X724100Y1424060I610J-10142D01*
G01Y1280540D01*
G02X702510Y1260260I-20320J1D01*
G03X700000Y1260340I-2539J-40259D01*
G01X667490D01*
G02X648230Y1287140I1J20321D01*
G03X650340Y1300000I-38227J12875D01*
G01Y1360000D01*
G03X642800Y1383480I-40329J0D01*
G01X640900Y1386140D01*
Y1421850D01*
X653150Y1434100D01*
X710000D01*
G37*
G36*
G01X2403150Y2994100D02*
X3219660D01*
Y2940000D01*
G03X3260000Y2899660I40340J0D01*
G01X3310000D01*
G03X3338610Y2911560I0J40342D01*
G01X3370000D01*
G03X3411320Y2928680I-6J58438D01*
G01X3426920Y2944270D01*
G02X3444260Y2937090I7181J-7186D01*
G01Y2891050D01*
X3444730Y2890590D01*
G02X3430360Y2855900I-14370J-14369D01*
G01X3090000D01*
G03X3050470Y2839530I0J-55913D01*
G01X2940470Y2729530D01*
G03X2924100Y2690000I39543J-39530D01*
G01Y2036540D01*
X993160D01*
G03X953630Y2020170I0J-55913D01*
G01X888800Y1955340D01*
G02X871460Y1962520I-7181J7185D01*
G01Y1982400D01*
X963160Y2074100D01*
X2080000D01*
G03X2119530Y2090470I0J55913D01*
G01X2359530Y2330470D01*
G03X2375900Y2370000I-39543J39530D01*
G01Y2966850D01*
X2403150Y2994100D01*
G37*
G36*
G01X4723410Y3212000D02*
X5421210D01*
X5423680Y3205400D01*
G03X5490000Y3159420I66320J24839D01*
G03X5539680Y3179770I0J70816D01*
G02X5574260Y3165290I14260J-14476D01*
G01Y2688950D01*
X5501050Y2615740D01*
X3201050D01*
X3114260Y2528950D01*
Y1868950D01*
X3091050Y1845740D01*
X1801050D01*
X1724260Y1768950D01*
Y1375740D01*
X1211050D01*
X1144260Y1308950D01*
Y1118950D01*
X1094260Y1068950D01*
Y901050D01*
X1114090Y881230D01*
G02X1099720Y846540I-14370J-14369D01*
G01X986540D01*
Y1837490D01*
X1033150Y1884100D01*
X2966520D01*
G03X3006050Y1900470I0J55913D01*
G01X3060170Y1954590D01*
G03X3076540Y1994120I-39543J39530D01*
G01Y2650010D01*
X3129990Y2703460D01*
X3756840D01*
G03X3796370Y2719830I0J55913D01*
G01X3855000Y2778470D01*
X3925190Y2708270D01*
G03X3964720Y2691900I39530J39543D01*
G01X3982760D01*
X3985230Y2685300D01*
G03X4051550Y2639320I66320J24839D01*
G03X4122370Y2710140I0J70820D01*
G03X4106190Y2755200I-70822J5D01*
G02Y2781050I15675J12925D01*
G03X4122370Y2826110I-54642J45055D01*
G03X4121990Y2833430I-70820J-7D01*
G01X4121490Y2838240D01*
X4132100Y2848850D01*
X4150470Y2830470D01*
G03X4186370Y2814220I39522J39533D01*
G03X4230000Y2799180I43635J55778D01*
G03X4300820Y2870000I0J70820D01*
G03X4290490Y2906830I-70821J0D01*
G03X4300820Y2943660I-60491J36830D01*
G03X4293830Y2974340I-70824J0D01*
G02X4312140Y3003460I18315J8800D01*
G01X4581210D01*
X4583680Y2996860D01*
G03X4650000Y2950880I66320J24839D01*
G03X4720820Y3021700I0J70820D01*
G03X4704640Y3066760I-70822J5D01*
G02Y3092610I15675J12925D01*
G03X4720820Y3137670I-54642J45055D01*
G03X4707040Y3179640I-70818J-5D01*
G02X4723410Y3212000I16370J12039D01*
G37*
G36*
G01X1740000Y1320000D02*
Y1010000D01*
X1730000Y1000000D01*
X1400000D01*
X1300000Y900000D01*
X1160000D01*
X1140000Y920000D01*
Y1050000D01*
X1190000Y1100000D01*
Y1290000D01*
X1230000Y1330000D01*
X1730000D01*
X1740000Y1320000D01*
G37*
G36*
G01X4050000Y5000000D02*
X5960000D01*
X6160000Y4800000D01*
Y2550000D01*
X6610000Y2100000D01*
Y1610000D01*
X6140000D01*
Y2100000D01*
X6100000Y2140000D01*
X4780000D01*
X4710000Y2070000D01*
Y1600000D01*
X4230000D01*
Y2090000D01*
X4170000Y2150000D01*
X3600000D01*
X3560000Y2110000D01*
Y1723860D01*
X3559610Y1721080D01*
Y1721070D01*
G03X3558060Y1710000I38789J-11075D01*
G01Y1590000D01*
G03X3559610Y1578930I40339J5D01*
G01X3560000Y1577560D01*
Y1130000D01*
X3540000Y1110000D01*
X3476970D01*
G03X3450000Y1120340I-26970J-30003D01*
G01X3400000D01*
G03X3373030Y1110000I0J-40343D01*
G01X3276970D01*
G03X3250000Y1120340I-26970J-30003D01*
G01X3170000D01*
Y1380000D01*
X3110000Y1440000D01*
X2250000D01*
X2190000Y1380000D01*
Y1160000D01*
X2140000Y1110000D01*
X2066970D01*
G03X2040000Y1120340I-26970J-30003D01*
G01X1990000D01*
G03X1963030Y1110000I0J-40343D01*
G01X1886970D01*
G03X1860000Y1120340I-26970J-30003D01*
G01X1770000D01*
Y1750000D01*
X1820000Y1800000D01*
X3110000D01*
X3160000Y1850000D01*
Y2510000D01*
X3220000Y2570000D01*
X5520000D01*
X5620000Y2670000D01*
Y4470000D01*
X5550000Y4540000D01*
X4210000D01*
X4160000Y4490000D01*
Y4348440D01*
X3980000D01*
Y4930000D01*
X4050000Y5000000D01*
G37*
G36*
G01X3130000Y850000D02*
X3110000Y830000D01*
X2460000D01*
X2440000Y850000D01*
Y1050000D01*
X2480000Y1090000D01*
Y1280000D01*
X2530000Y1330000D01*
X3090000D01*
X3130000Y1290000D01*
Y850000D01*
G37*
G36*
G01X2810000Y3620000D02*
X3174600D01*
X3177640Y3615910D01*
G03X3210000Y3599660I32360J24096D01*
G01X3270000D01*
G03X3293480Y3607200I0J40329D01*
G01X3296140Y3609100D01*
X3431850D01*
X3467250Y3573690D01*
G03X3506780Y3557320I39530J39543D01*
G01X3520000D01*
Y3530000D01*
X3605300D01*
Y3500000D01*
X3520000D01*
Y3480000D01*
X3605300D01*
Y3450000D01*
X3520000D01*
Y3430000D01*
X3605300D01*
Y3400000D01*
X3520000D01*
Y3369120D01*
X3483220D01*
G03X3443690Y3352750I0J-55913D01*
G01X3350950Y3260000D01*
X2810000D01*
Y3620000D01*
G37*
G36*
G01X3130000Y4660000D02*
X3790000D01*
X3810000Y4640000D01*
Y3987650D01*
X3804320Y3981960D01*
G03X3787200Y3940640I41318J-41326D01*
G01Y3780000D01*
X3760000D01*
Y3703560D01*
X3730000D01*
Y3780000D01*
X3701820D01*
X3699920Y3787730D01*
G03X3685170Y3813890I-54280J-13367D01*
G01X3620000Y3879050D01*
Y3994740D01*
X3620070Y3995330D01*
G03X3620340Y4000000I-40071J4660D01*
G01Y4050000D01*
G03X3620070Y4054670I-40341J10D01*
G01X3620000Y4055260D01*
Y4060000D01*
X3618830Y4061170D01*
X3618070Y4063350D01*
G03X3580000Y4090340I-38070J-13354D01*
G01X3520000D01*
G03X3493030Y4080000I0J-40343D01*
G01X3150000D01*
X3100000Y4130000D01*
Y4630000D01*
X3130000Y4660000D01*
G37*
G36*
G01X3780510Y2069560D02*
X3710470Y1999530D01*
G03X3694100Y1960000I39543J-39530D01*
G01Y868130D01*
X3675640Y862260D01*
G03X3669530Y869520I-45670J-32235D01*
G01X3572240Y966810D01*
G02X3570990Y994180I14366J14370D01*
G03X3580340Y1020000I-30976J25820D01*
G01Y1080000D01*
G03X3580320Y1081140I-40338J-138D01*
G01X3580200Y1085510D01*
X3605740Y1111050D01*
Y2091050D01*
X3618950Y2104260D01*
X3766150D01*
G02X3780510Y2069560I1J-20321D01*
G37*
G36*
G01X4008140Y3657880D02*
G03X4033080Y3666510I0J40352D01*
G02X4058200I12560J-15970D01*
G03X4080810Y3657950I24932J31713D01*
G02X4090370Y3648390I-586J-10146D01*
G03X4092290Y3638220I40270J2336D01*
G03X4090300Y3625720I38348J-12513D01*
G01Y3600720D01*
G03X4092290Y3588220I40338J13D01*
G03X4090300Y3575720I38348J-12513D01*
G01Y3550720D01*
G03X4092290Y3538220I40338J13D01*
G03X4090300Y3525720I38348J-12513D01*
G01Y3500720D01*
G03X4092290Y3488220I40338J13D01*
G03X4090300Y3475720I38348J-12513D01*
G01Y3450720D01*
G03X4092290Y3438220I40338J13D01*
G03X4090300Y3425720I38348J-12513D01*
G01Y3400720D01*
G03X4092290Y3388220I40338J13D01*
G03X4090300Y3375720I38348J-12513D01*
G01Y3350720D01*
G03X4092290Y3338220I40338J13D01*
G03X4090300Y3325720I38348J-12513D01*
G01Y3300720D01*
G03X4092290Y3288220I40338J13D01*
G03X4090300Y3275720I38348J-12513D01*
G01Y3250720D01*
G03X4092290Y3238220I40338J13D01*
G03X4090370Y3228120I38346J-12522D01*
G01X4089800Y3218560D01*
X3805740D01*
Y3225740D01*
X3651820D01*
X3650150Y3233850D01*
G03X3648990Y3238220I-39506J-8148D01*
G03X3650980Y3250720I-38348J12513D01*
G01Y3275720D01*
G03X3650420Y3282410I-40339J-8D01*
G01X3650280Y3283250D01*
Y3294260D01*
X3665740D01*
Y3644260D01*
X3855740D01*
Y3657880D01*
X4008140D01*
G37*
G36*
G01X3698240Y3090000D02*
X3743040D01*
X3745570Y3083540D01*
G03X3760000Y3065180I37572J14679D01*
G01Y2940000D01*
X3720000Y2900000D01*
X3500000D01*
X3490000Y2910000D01*
Y3007350D01*
X3532650Y3050000D01*
X3660000D01*
X3669420Y3059420D01*
X3671590Y3060190D01*
G03X3695710Y3083540I-13453J38029D01*
G01X3698240Y3090000D01*
G37*
G36*
G01X3830000Y1940000D02*
X4150000D01*
Y1620000D01*
X4110000Y1580000D01*
X3805900D01*
Y1915900D01*
X3830000Y1940000D01*
G37*
G36*
G01X4228950Y4494260D02*
X5531050D01*
X5574260Y4451050D01*
Y3411160D01*
G02X5539680Y3396680I-20320J-4D01*
G03X5490000Y3417030I-49680J-50466D01*
G03X5423670Y3371040I0J-70828D01*
G01X5421200Y3364440D01*
X5256500D01*
G02X5236910Y3390170I-4J20320D01*
G03X5238940Y3400390I-68260J18870D01*
G03X5296700Y3470000I-13066J69610D01*
G03X5278370Y3517540I-70814J0D01*
G02Y3544820I15063J13640D01*
G03X5296700Y3592360I-52484J47540D01*
G03X5277160Y3641200I-70808J0D01*
G02Y3669230I14718J14015D01*
G03X5296700Y3718070I-51268J48840D01*
G03X5240430Y3787380I-70821J0D01*
G03X5170000Y3850820I-70430J-7375D01*
G03X5126520Y3835900I0J-70815D01*
G01X4340000D01*
G03X4300470Y3819530I0J-55913D01*
G01X4200070Y3719120D01*
X4170640D01*
G03X4169290Y3719100I153J-55898D01*
G02X4148480Y3739420I-489J20315D01*
G01Y3778220D01*
G03X4138550Y3804720I-40338J-5D01*
G01X4146210Y3821560D01*
X4156200D01*
G03X4197520Y3838680I-6J58438D01*
G01X4322310Y3963460D01*
X4360000D01*
G03X4400340Y4003800I0J40340D01*
G01Y4041490D01*
X4441060Y4082210D01*
X4443910Y4082870D01*
G03X4498920Y4151900I-15807J69030D01*
G03X4428100Y4222720I-70820J0D01*
G03X4359070Y4167710I0J-70817D01*
G01X4358410Y4164860D01*
X4317690Y4124140D01*
X4280000D01*
G03X4256040Y4116250I4J-40339D01*
G02X4243960I-6040J8173D01*
G03X4220000Y4124140I-23964J-32449D01*
G01X4140000D01*
G03X4132410Y4123420I-2J-40340D01*
G01X4131460Y4123240D01*
X4120340D01*
Y4140000D01*
G03X4110830Y4166010I-40338J-5D01*
G01X4108440Y4168850D01*
Y4179890D01*
X4109990Y4182370D01*
G03X4120820Y4220000I-59988J37638D01*
G03X4107080Y4261910I-70817J-10D01*
G02X4123460Y4294260I16380J12028D01*
G01X4205740D01*
Y4471050D01*
X4228950Y4494260D01*
G37*
G36*
G01X3908440Y4435790D02*
X3914210Y4441560D01*
X3934260D01*
Y4294260D01*
X3976540D01*
G02X3992920Y4261910I0J-20322D01*
G03X3979180Y4220000I57077J-41920D01*
G03X3990010Y4182370I70818J8D01*
G01X3991560Y4179890D01*
Y4168850D01*
X3989170Y4166010D01*
G03X3979660Y4140000I30828J-26015D01*
G01Y4089440D01*
X3968540D01*
X3967590Y4089620D01*
G03X3960000Y4090340I-7588J-39620D01*
G01X3932310D01*
X3908440Y4114210D01*
Y4435790D01*
G37*
G36*
G01X6020000Y1590000D02*
X5700000D01*
Y1910000D01*
X5730000Y1940000D01*
X6050000D01*
Y1620000D01*
X6020000Y1590000D01*
G37*
%LPC*%
G75*
G36*
G01X134260Y4888950D02*
X211050Y4965740D01*
X222520D01*
X224710Y4966870D01*
G02X300640Y4985340I75937J-146868D01*
G02X453970Y4881860I0J-165337D01*
G01X454750Y4879940D01*
X465740Y4868950D01*
Y4828910D01*
X465750Y4828640D01*
G02X465980Y4820000I-165108J-8718D01*
G02X465750Y4811360I-165338J78D01*
G01X465740Y4811090D01*
Y3718950D01*
X508950Y3675740D01*
X2075740D01*
Y3214260D01*
X498950D01*
X465740Y3181050D01*
Y2703210D01*
X465750Y2702940D01*
G02X465980Y2694300I-165108J-8718D01*
G02X465750Y2685660I-165338J78D01*
G01X465740Y2685390D01*
Y2641050D01*
X451660Y2626980D01*
X450900Y2625320D01*
G02X369620Y2544040I-150260J68980D01*
G01X367960Y2543280D01*
X348950Y2524260D01*
X241050D01*
X207900Y2557420D01*
X207120Y2557950D01*
G02X164290Y2600780I93520J136350D01*
G01X163760Y2601560D01*
X134260Y2631050D01*
Y4888950D01*
G37*
G54D34*
X3059000Y561450D03*
X2481000D03*
X1600000Y450000D03*
X1200000D03*
G54D36*
X2025000Y6410000D03*
X1795000D03*
G54D35*
X6100000Y970000D03*
X6600000D03*
X4200000D03*
X4700000D03*
G54D33*
X1150640Y2694300D03*
X6650640D03*
Y4820000D03*
X1150640D03*
G54D37*
X6333000Y6240000D03*
%LPD*%
G75*
G36*
G01X230000Y4920000D02*
X350000D01*
X420000Y4850000D01*
Y3700000D01*
X490000Y3630000D01*
X2030000D01*
Y3260000D01*
X480000D01*
X420000Y3200000D01*
Y2660000D01*
X330000Y2570000D01*
X260000D01*
X180000Y2650000D01*
Y4870000D01*
X230000Y4920000D01*
G37*
G54D10*
X360000Y360000D03*
Y6240000D03*
X7440000Y360000D03*
Y6240000D03*
G54D20*
X2338000Y196450D03*
X3202000D03*
G54D11*
X130000Y1050000D03*
Y1190000D03*
X308910Y1934940D03*
Y2334940D03*
X294370Y5332670D03*
Y5732670D03*
X680000Y1420000D03*
X490000Y1330000D03*
Y1570000D03*
X646650Y2626050D03*
Y3026050D03*
X701510Y4043380D03*
X694370Y5332670D03*
Y5732670D03*
X1183950Y226650D03*
X1040000Y1000000D03*
X1253660Y950000D03*
X1180000D03*
X1030000Y1320000D03*
X1180000Y1020000D03*
X1253660D03*
X1370000Y1120000D03*
Y1190000D03*
X1205600Y1658660D03*
X1101510Y4043380D03*
X1094370Y5332670D03*
Y5732670D03*
X1583950Y226650D03*
X1720000Y900000D03*
Y670000D03*
X1486870Y828300D03*
Y712330D03*
X1443660Y1120000D03*
Y1190000D03*
X1605600Y1658660D03*
X1630000Y3470000D03*
X1501510Y4043380D03*
X1494370Y5332670D03*
Y5732670D03*
X2190000Y550000D03*
X2180000Y860000D03*
X2010000Y960000D03*
X2330000Y1030000D03*
Y1310000D03*
X1996650Y2616050D03*
Y3016050D03*
X2039280Y3951280D03*
Y4361280D03*
X1894370Y5332670D03*
Y5732670D03*
X2573950Y196650D03*
X2570000Y960000D03*
X2480000D03*
X2570000Y890000D03*
X2480000D03*
Y1030000D03*
X2570000D03*
X2526650Y2246050D03*
Y2646050D03*
X2439280Y3951280D03*
Y4361280D03*
X2611210Y4753010D03*
Y5163010D03*
Y5563010D03*
Y5963010D03*
X2973950Y196650D03*
X2970000Y890000D03*
X3060000D03*
X2970000Y960000D03*
X3060000D03*
X3076650Y1906050D03*
X2866650Y2246050D03*
Y2646050D03*
X3140000Y2650000D03*
X2839280Y3951280D03*
Y4361280D03*
X3011210Y4753010D03*
Y5163010D03*
Y5563010D03*
Y5963010D03*
X3630000Y670000D03*
X3560000Y739040D03*
X3646650Y1886050D03*
Y1486050D03*
X3500000Y2650000D03*
X3690000Y3260000D03*
X3540000Y3010000D03*
Y2936340D03*
X3620000D03*
Y3010000D03*
X3700000Y2936340D03*
Y3010000D03*
X3690000Y3620000D03*
Y3440000D03*
X3300000Y4220000D03*
Y4130000D03*
X3380000D03*
Y4220000D03*
X3460000Y4130000D03*
Y4220000D03*
X3411210Y4753010D03*
Y5163010D03*
Y5563010D03*
Y5963010D03*
X4198730Y243350D03*
X3798730D03*
X3750000Y530000D03*
X3850000Y600000D03*
X3830000Y1900000D03*
Y1800000D03*
X3910000D03*
Y1900000D03*
X4000000Y1800000D03*
Y1900000D03*
Y1610000D03*
Y1710000D03*
X3900000Y2650000D03*
X4051550Y2710140D03*
Y2826110D03*
X3870000Y3260000D03*
X4050000D03*
X3870640Y3438220D03*
X4050000Y3620000D03*
X3870000D03*
X4050000Y3440000D03*
X3990000Y3952850D03*
X4050000Y4220000D03*
X4211210Y5163010D03*
X3811210D03*
X4211210Y5563010D03*
X3811210D03*
X4211210Y5963010D03*
X3811210D03*
X4598730Y243350D03*
X4273950Y1176650D03*
X4673950D03*
X4230000Y2870000D03*
X4340000Y2970000D03*
X4230000Y2943660D03*
X4650000Y3137670D03*
Y3021700D03*
X4230000Y3810000D03*
X4583950Y4256650D03*
X4428100Y4151900D03*
X4611210Y5163010D03*
Y5563010D03*
Y5963010D03*
X4998730Y243350D03*
X4806650Y2716050D03*
Y3116050D03*
X4983950Y4256650D03*
X5011210Y5163010D03*
Y5563010D03*
Y5963010D03*
X5398730Y243350D03*
X5350000Y1790000D03*
X5610000D03*
X5620000Y1500000D03*
X5490000Y3346210D03*
Y3230240D03*
X5170000Y3657110D03*
X5225880Y3718070D03*
X5170000Y3780000D03*
X5168650Y3409040D03*
X5170000Y3531400D03*
X5225880Y3470000D03*
Y3592360D03*
X5383950Y4256650D03*
X5798730Y243350D03*
X5740000Y1890000D03*
Y1800000D03*
X5830000D03*
Y1890000D03*
X5920000Y1800000D03*
Y1890000D03*
X5880000Y1620000D03*
Y1710000D03*
X5830500Y2030500D03*
X5970180Y5337530D03*
Y5737530D03*
X6198730Y243350D03*
X6370180Y5337530D03*
Y5737530D03*
X6598730Y243350D03*
X6980890Y3306650D03*
X6580890D03*
X6980890Y3706650D03*
X6580890D03*
X6980890Y4106650D03*
X6580890D03*
X6770180Y5337530D03*
Y5737530D03*
X7288550Y1081880D03*
Y1881880D03*
Y1481880D03*
Y2281880D03*
X7380890Y3306650D03*
Y3706650D03*
Y4106650D03*
X7170180Y5337530D03*
Y5737530D03*
X7570180Y5337530D03*
Y5737530D03*
G54D12*
X300640Y2694300D03*
Y4820000D03*
X7500640Y2694300D03*
Y4820000D03*
G54D30*
X6587000Y6240000D03*
X6333000D03*
G54D21*
X2338000Y614450D03*
X3202000D03*
G54D31*
G01X3570640Y3213220D02*
X3524660D01*
X3361440Y3050000D01*
X2380000D01*
X2320000Y2990000D01*
Y2370000D01*
X2080000Y2130000D01*
X940010D01*
X815560Y2005550D01*
Y1055560D01*
X730000Y970000D01*
X90320D01*
X69040Y991280D01*
Y1090000D01*
X99040Y1120000D01*
X605930D01*
X675000Y1189070D01*
Y1190000D01*
G01X3795640Y3138220D02*
Y3059720D01*
X3800320Y3055040D01*
Y2860320D01*
X3740000Y2800000D01*
X3090000D01*
X2980000Y2690000D01*
Y2010960D01*
X2949680Y1980640D01*
X993160D01*
X890000Y1877480D01*
Y794120D01*
X934120Y750000D01*
X1449200D01*
X1486870Y712330D01*
G01X3570640Y3263220D02*
X3503940D01*
X3340720Y3100000D01*
X2359280D01*
X2270000Y3010720D01*
Y2370290D01*
X2065270Y2165560D01*
X915850D01*
X780000Y2029710D01*
Y1155000D01*
X675000Y1050000D01*
G01X585000Y1330000D02*
Y1445000D01*
X630000Y1490000D01*
X710000D01*
X740000Y1520000D01*
Y2050000D01*
X891120Y2201120D01*
X2050540D01*
X2220000Y2370580D01*
Y3031440D01*
X2338560Y3150000D01*
X3320000D01*
X3483220Y3313220D01*
X3570640D01*
G01X675000Y1570000D02*
Y2045290D01*
X869710Y2240000D01*
X2039130D01*
X2170000Y2370870D01*
Y3052160D01*
X2317840Y3200000D01*
X2550000D01*
X2650000Y3300000D01*
Y3690000D01*
X2700000Y3740000D01*
X3450000D01*
X3526780Y3663220D01*
X3570640D01*
G01X3845640Y3138220D02*
Y3059720D01*
X3840960Y3055040D01*
Y2843480D01*
X3756840Y2759360D01*
X3106840D01*
X3020640Y2673160D01*
Y1994120D01*
X2966520Y1940000D01*
X1010000D01*
X930640Y1860640D01*
Y810960D01*
X950960Y790640D01*
X1449210D01*
X1486870Y828300D01*
G01X2010000Y960000D02*
Y1045000D01*
X2015000Y1050000D01*
G01X3006660Y900000D02*
Y867900D01*
X3037900Y836660D01*
X3082100D01*
X3095440Y850000D01*
G01D02*
X3510000D01*
X3560000Y800000D01*
Y739040D01*
G01X3240000Y3665000D02*
X3455000D01*
X3506780Y3613220D01*
X3570640D01*
G01X3240000Y3905000D02*
X3515000D01*
X3645640Y3774360D01*
Y3738220D01*
G01X3630000Y670000D02*
Y829990D01*
X3425000Y1034990D01*
Y1050000D01*
G01X3750000Y530000D02*
Y1960000D01*
X3820000Y2030000D01*
X4107000D01*
X4107500Y2030500D01*
G01X3850000Y1648400D02*
Y600000D01*
G01X3851600Y1650000D02*
X3850000Y1648400D01*
G01X4051550Y2710140D02*
X4013890Y2747800D01*
X3964720D01*
X3900320Y2812200D01*
Y3055040D01*
X3895640Y3059720D01*
Y3138220D01*
G01X4051550Y2826110D02*
X4013880Y2788440D01*
X3981560D01*
X3940960Y2829040D01*
Y3055040D01*
X3945640Y3059720D01*
Y3138220D01*
G01X4230000Y2943660D02*
X4187060D01*
X4045640Y3085080D01*
Y3138220D01*
G01X4230000Y2870000D02*
X4190000D01*
X3995640Y3064360D01*
Y3138220D01*
G01X5490000Y3346210D02*
X5452330Y3308540D01*
X4225080D01*
X4220400Y3313220D01*
X4170640D01*
G01X4650000Y3137670D02*
X4612330Y3100000D01*
X4237600D01*
X4199310Y3138290D01*
Y3184550D01*
X4170640Y3213220D01*
G01X4650000Y3021700D02*
X4612340Y3059360D01*
X4220760D01*
X4170570Y3109550D01*
X4124310D01*
X4095640Y3138220D01*
G01X4170640Y3263220D02*
X4177410Y3269990D01*
X4206150D01*
X4208240Y3267900D01*
X5452340D01*
X5490000Y3230240D01*
G01X4045640Y3738220D02*
Y3791750D01*
X4071940Y3818050D01*
X4221950D01*
G01X5170000Y3657110D02*
X4358550D01*
X4264660Y3563220D01*
X4170640D01*
G01X5225880Y3718070D02*
X4348790D01*
X4243940Y3613220D01*
X4170640D01*
G01X5170000Y3780000D02*
X4340000D01*
X4223220Y3663220D01*
X4170640D01*
G01X5168650Y3409040D02*
X4393360D01*
X4347540Y3363220D01*
X4170640D01*
G01X5170000Y3531400D02*
X4374280D01*
X4306100Y3463220D01*
X4170640D01*
G01X5225880Y3470000D02*
X4383600D01*
X4326820Y3413220D01*
X4170640D01*
G01X5225880Y3592360D02*
X4364520D01*
X4285380Y3513220D01*
X4170640D01*
G01X4221950Y3818050D02*
X4230000Y3810000D01*
G54D22*
X3240000Y3815000D03*
Y3665000D03*
Y3575000D03*
Y3905000D03*
X3550000Y4115000D03*
Y4025000D03*
X4050000D03*
Y4115000D03*
X3930000Y4025000D03*
Y4115000D03*
G54D13*
X675000Y1330000D03*
X585000D03*
Y1190000D03*
X675000D03*
X585000Y1050000D03*
X675000D03*
X585000Y1570000D03*
X675000D03*
X2105000Y1050000D03*
X2015000D03*
X3195000Y2970000D03*
X3515000Y1050000D03*
X3425000D03*
X3285000Y2970000D03*
G54D32*
G01X80000Y1270000D02*
X30000Y1220000D01*
Y950000D01*
X80000Y900000D01*
G01X130000Y1050000D02*
X585000D01*
G01X130000Y1190000D02*
X585000D01*
G01Y1330000D02*
X490000D01*
G01X585000Y1570000D02*
X490000D01*
G01X1820000Y1062500D02*
X2002500D01*
X2015000Y1050000D01*
G01X2110000Y1130000D02*
X2105000Y1125000D01*
G01D02*
Y1050000D01*
G01X3210000Y1062500D02*
X3412500D01*
X3425000Y1050000D01*
G01X3510000Y1130000D02*
X3515000Y1125000D01*
G01D02*
Y1050000D01*
G01X3350000Y3270000D02*
X3443220Y3363220D01*
X3453220D01*
G01X3660000Y3040000D02*
X3695640Y3075640D01*
G01D02*
Y3138220D01*
G01X3745640Y3043390D02*
X3755880Y3033150D01*
Y2986850D01*
X3745640Y2976610D01*
Y2975640D01*
X3720000Y2950000D01*
Y2920000D01*
G01X3285000Y2970000D02*
X3370000D01*
X3538220Y3138220D01*
X3645640D01*
G01X3430000Y3600000D02*
X3466780Y3563220D01*
G01X3453220Y3363220D02*
X3570640D01*
G01X3450000Y3360000D02*
X3453220Y3363220D01*
G01X3466780Y3563220D02*
X3570640D01*
G01X3695640Y3824360D02*
Y3738220D01*
G01X3690000Y3830000D02*
X3695640Y3824360D01*
G01X3745640Y3138220D02*
Y3043390D01*
G01X4050000Y3620000D02*
X4045640Y3624360D01*
G01D02*
Y3738220D01*
G01X3990000Y3952850D02*
X3977850D01*
X3895640Y3870640D01*
Y3738220D01*
G01X3740000Y3810000D02*
X3745640Y3804360D01*
Y3738220D01*
G01X3795640Y4005640D02*
Y3738220D01*
G01X4180000Y4043800D02*
X3945640Y3809440D01*
Y3738220D01*
G01X4320000Y4043800D02*
X4156200Y3880000D01*
X4080000D01*
X3995640Y3795640D01*
Y3738220D01*
G01X3845640D02*
Y3940640D01*
X3930000Y4025000D01*
G01X4050000D02*
X3990000Y3965000D01*
Y3952850D01*
G01X3800000Y4010000D02*
X3795640Y4005640D01*
G01X4070000Y4500000D02*
X3890000D01*
X3850000Y4460000D01*
Y4090000D01*
X3915000Y4025000D01*
X3930000D01*
G01X4050000Y4115000D02*
Y4220000D01*
G01X3940000Y4290000D02*
X4210000D01*
G01X4320000Y4043800D02*
X4428100Y4151900D01*
G01X5560000Y3170000D02*
X5550000Y3160000D01*
G01X5560000Y3420000D02*
Y3170000D01*
G01X6007500Y2030500D02*
X5830500D01*
G54D23*
X3870640Y3438220D03*
G54D14*
X1241600Y1160000D03*
X1038400D03*
X2338400D03*
X2541600D03*
X3174360Y4220000D03*
X2971160D03*
X3174360Y4600000D03*
X2971160D03*
X3174360Y4408220D03*
X2971160D03*
X3648400Y1650000D03*
X3851600D03*
X5548400D03*
X5751600D03*
G54D24*
X3570640Y3313220D03*
Y3263220D03*
Y3213220D03*
Y3663220D03*
Y3613220D03*
Y3563220D03*
Y3513220D03*
Y3463220D03*
Y3413220D03*
Y3363220D03*
X4170640Y3213220D03*
Y3263220D03*
Y3313220D03*
Y3363220D03*
Y3413220D03*
Y3463220D03*
Y3513220D03*
Y3563220D03*
Y3613220D03*
Y3663220D03*
G54D15*
X1290000Y3593800D03*
Y3746200D03*
X1460000Y3593800D03*
Y3746200D03*
X1630000Y3593800D03*
Y3746200D03*
X4180000Y4196200D03*
Y4043800D03*
X4320000Y4196200D03*
Y4043800D03*
G54D25*
X3645640Y3138220D03*
X3695640D03*
Y3738220D03*
X3645640D03*
X3745640Y3138220D03*
X3795640D03*
X3845640D03*
X3895640D03*
X3945640D03*
X3995640D03*
X4045640D03*
X4095640D03*
Y3738220D03*
X4045640D03*
X3995640D03*
X3945640D03*
X3895640D03*
X3845640D03*
X3795640D03*
X3745640D03*
G54D16*
X1619000Y1160000D03*
X3009000D03*
G54D17*
X1820000Y1062500D03*
Y1127500D03*
Y1192500D03*
Y1257500D03*
X3210000Y1062500D03*
Y1127500D03*
Y1192500D03*
Y1257500D03*
G54D26*
X3430000Y4500000D03*
X4070000D03*
G54D27*
X4107500Y1903500D03*
Y1776500D03*
Y1649500D03*
Y2030500D03*
X6007500Y1903500D03*
Y1776500D03*
Y1649500D03*
Y2030500D03*
G54D18*
X1900000Y3438220D03*
X2940000D03*
G54D19*
X1535000Y6440000D03*
X2285000D03*
G54D28*
X4473500Y1840000D03*
X6373500D03*
G54D29*
X4320000Y4601600D03*
Y4398400D03*
M02*
