M48
METRIC,TZ
T01C.3048
T02C.8
T03C1.
T04C1.7
T05C3.3
;LEADER: 12 
;HEADER: 
;CODE  : ASCII 
;FILE  : HY_IP5328_V11_211230-1-2.drl for board G:/github/MBED-TOOLS/HARDWARE/HY_IP5328_V11_211230/PCB/#Taaaajw10696.tmp ... layers TOP and BOTTOM
;T01 Holesize 1. = 0.304800 Tolerance = +0.000000/-0.000000 PLATED MM Quantity = 203
;T02 Holesize 2. = 0.800000 Tolerance = +0.000000/-0.000000 PLATED MM Quantity = 2
;T03 Holesize 3. = 1.000000 Tolerance = +0.000000/-0.000000 PLATED MM Quantity = 2
;T04 Holesize 4. = 1.700000 Tolerance = +0.000000/-0.000000 PLATED MM Quantity = 4
;T05 Holesize 5. = 3.300000 Tolerance = +0.000000/-0.000000 PLATED MM Quantity = 4
%
G90
T01
X1183950Y226650
X1486870Y712330
X1583950Y226650
X1720000Y670000
X2190000Y550000
X2573950Y196650
X2973950Y196650
X3560000Y739040
X3630000Y670000
X3750000Y530000
X3798730Y243350
X3850000Y600000
X4198730Y243350
X4598730Y243350
X4998730Y243350
X5398730Y243350
X5798730Y243350
X6198730Y243350
X6598730Y243350
X7288550Y1481880
X7288550Y1081880
X5620000Y1500000
X4673950Y1176650
X4273950Y1176650
X3646650Y1486050
X3060000Y960000
X3060000Y890000
X2970000Y960000
X2970000Y890000
X2570000Y1030000
X2570000Y960000
X2570000Y890000
X2480000Y1030000
X2480000Y960000
X2480000Y890000
X2330000Y1310000
X2330000Y1030000
X2180000Y860000
X2010000Y960000
X1720000Y900000
X1486870Y828300
X1443660Y1190000
X1443660Y1120000
X1370000Y1190000
X1370000Y1120000
X1253660Y1020000
X1253660Y950000
X1180000Y1020000
X1180000Y950000
X1040000Y1000000
X1030000Y1320000
X680000Y1420000
X490000Y1330000
X130000Y1190000
X130000Y1050000
X308910Y1934940
X490000Y1570000
X1205600Y1658660
X1605600Y1658660
X2526650Y2246050
X2866650Y2246050
X3076650Y1906050
X3646650Y1886050
X3830000Y1800000
X3830000Y1900000
X3910000Y1800000
X3910000Y1900000
X4000000Y1610000
X4000000Y1710000
X4000000Y1800000
X4000000Y1900000
X5350000Y1790000
X5610000Y1790000
X5740000Y1800000
X5740000Y1890000
X5830000Y1800000
X5830000Y1890000
X5830500Y2030500
X5880000Y1620000
X5880000Y1710000
X5920000Y1800000
X5920000Y1890000
X7288550Y1881880
X7288550Y2281880
X4806650Y2716050
X4650000Y3021700
X4340000Y2970000
X4230000Y2943660
X4230000Y2870000
X4051550Y2826110
X4051550Y2710140
X3900000Y2650000
X3700000Y3010000
X3700000Y2936340
X3620000Y3010000
X3620000Y2936340
X3540000Y3010000
X3540000Y2936340
X3500000Y2650000
X3140000Y2650000
X2866650Y2646050
X2526650Y2646050
X1996650Y3016050
X1996650Y2616050
X646650Y3026050
X646650Y2626050
X308910Y2334940
X1630000Y3470000
X3690000Y3260000
X3690000Y3440000
X3690000Y3620000
X3870000Y3260000
X3870640Y3438220
X3870000Y3620000
X4050000Y3260000
X4050000Y3440000
X4050000Y3620000
X4650000Y3137670
X4806650Y3116050
X5168650Y3409040
X5170000Y3531400
X5170000Y3657110
X5170000Y3780000
X5225880Y3470000
X5225880Y3592360
X5225880Y3718070
X5490000Y3230240
X5490000Y3346210
X6580890Y3306650
X6580890Y3706650
X6980890Y3306650
X6980890Y3706650
X7380890Y3306650
X7380890Y3706650
X7380890Y4106650
X6980890Y4106650
X6580890Y4106650
X5383950Y4256650
X4983950Y4256650
X4583950Y4256650
X4428100Y4151900
X4230000Y3810000
X4050000Y4220000
X3990000Y3952850
X3460000Y4220000
X3460000Y4130000
X3380000Y4220000
X3380000Y4130000
X3300000Y4220000
X3300000Y4130000
X2839280Y4361280
X2839280Y3951280
X2439280Y4361280
X2439280Y3951280
X2039280Y4361280
X2039280Y3951280
X1501510Y4043380
X1101510Y4043380
X701510Y4043380
X294370Y5332670
X694370Y5332670
X1094370Y5332670
X1494370Y5332670
X1894370Y5332670
X2611210Y4753010
X2611210Y5163010
X3011210Y4753010
X3011210Y5163010
X3411210Y4753010
X3411210Y5163010
X3811210Y5163010
X4211210Y5163010
X4611210Y5163010
X5011210Y5163010
X7570180Y5737530
X7570180Y5337530
X7170180Y5737530
X7170180Y5337530
X6770180Y5737530
X6770180Y5337530
X6370180Y5737530
X6370180Y5337530
X5970180Y5737530
X5970180Y5337530
X5011210Y5963010
X5011210Y5563010
X4611210Y5963010
X4611210Y5563010
X4211210Y5963010
X4211210Y5563010
X3811210Y5963010
X3811210Y5563010
X3411210Y5963010
X3411210Y5563010
X3011210Y5963010
X3011210Y5563010
X2611210Y5963010
X2611210Y5563010
X1894370Y5732670
X1494370Y5732670
X1094370Y5732670
X694370Y5732670
X294370Y5732670
T02
X6333000Y6240000
X6587000Y6240000
T03
X1535000Y6440000
X2285000Y6440000
T04
X300640Y2694300
X300640Y4820000
X7500640Y4820000
X7500640Y2694300
T05
X360000Y360000
X360000Y6240000
X7440000Y6240000
X7440000Y360000
M30
