G04 ================== begin FILE IDENTIFICATION RECORD ==================*
G04 Layout Name:  HY_IP5328_V11_211230.brd*
G04 Film Name:    PasteMask_Bottom*
G04 File Format:  Gerber RS274X*
G04 File Origin:  Cadence Allegro 17.2-S071*
G04 Origin Date:  Thu Dec 30 13:46:59 2021*
G04 *
G04 Layer:  PIN/PASTEMASK_BOTTOM*
G04 Layer:  PACKAGE GEOMETRY/PASTEMASK_BOTTOM*
G04 *
G04 Offset:    (0.0000 0.0000)*
G04 Mirror:    No*
G04 Mode:      Positive*
G04 Rotation:  0*
G04 FullContactRelief:  No*
G04 UndefLineWidth:     0.1524*
G04 ================== end FILE IDENTIFICATION RECORD ====================*
%FSLAX55Y55*MOMM*%
%IR0*IPPOS*OFA0.00000B0.00000*MIA0B0*SFA1.00000B1.00000*%
%AMMACRO23*
4,1,20,-2.335,-2.3,
-2.335,2.3,
1.785,2.3,
1.785,2.155,
2.335,2.155,
2.335,1.655,
1.785,1.655,
1.785,.885,
2.335,.885,
2.335,.385,
1.785,.385,
1.785,-.385,
2.335,-.385,
2.335,-.885,
1.785,-.885,
1.785,-1.655,
2.335,-1.655,
2.335,-2.155,
1.785,-2.155,
1.785,-2.3,
-2.335,-2.3,
0.0*
%
%ADD23MACRO23*%
%ADD13R,.8X.8*%
%ADD24R,1.2X1.*%
%ADD12R,1.X1.2*%
%ADD21R,1.8X3.2*%
%ADD16R,2.5X3.5*%
%ADD11R,.5X.6*%
%ADD17R,.6X.5*%
%ADD22R,.7X.6*%
%ADD18R,4.5X4.5*%
%ADD19R,.8X.25*%
%AMMACRO14*
4,1,28,1.14,1.225,
.725,1.225,
.725,1.525,
.295,1.525,
.295,1.225,
-.84,1.225,
-.84,1.175,
-1.14,1.175,
-1.14,.775,
-.84,.775,
-.84,.525,
-1.14,.525,
-1.14,.125,
-.84,.125,
-.84,-.125,
-1.14,-.125,
-1.14,-.525,
-.84,-.525,
-.84,-.775,
-1.14,-.775,
-1.14,-1.175,
-.84,-1.175,
-.84,-1.225,
.295,-1.225,
.295,-1.525,
.725,-1.525,
.725,-1.225,
1.14,-1.225,
1.14,1.225,
0.0*
%
%ADD14MACRO14*%
%ADD20R,.25X.8*%
%ADD15R,.8X.35*%
%ADD10C,6.9*%
%LPD*%
G75*
G54D10*
X360000Y360000D03*
Y6240000D03*
X7440000Y360000D03*
Y6240000D03*
G54D20*
X3645640Y3138220D03*
X3695640D03*
Y3738220D03*
X3645640D03*
X3745640Y3138220D03*
X3795640D03*
X3845640D03*
X3895640D03*
X3945640D03*
X3995640D03*
X4045640D03*
X4095640D03*
Y3738220D03*
X4045640D03*
X3995640D03*
X3945640D03*
X3895640D03*
X3845640D03*
X3795640D03*
X3745640D03*
G54D11*
X675000Y1330000D03*
X585000D03*
Y1190000D03*
X675000D03*
X585000Y1050000D03*
X675000D03*
X585000Y1570000D03*
X675000D03*
X2105000Y1050000D03*
X2015000D03*
X3195000Y2970000D03*
X3515000Y1050000D03*
X3425000D03*
X3285000Y2970000D03*
G54D21*
X3430000Y4500000D03*
X4070000D03*
G54D12*
X1241600Y1160000D03*
X1038400D03*
X2338400D03*
X2541600D03*
X3174360Y4220000D03*
X2971160D03*
X3174360Y4600000D03*
X2971160D03*
X3174360Y4408220D03*
X2971160D03*
X3648400Y1650000D03*
X3851600D03*
X5548400D03*
X5751600D03*
G54D22*
X4107500Y1903500D03*
Y1776500D03*
Y1649500D03*
Y2030500D03*
X6007500Y1903500D03*
Y1776500D03*
Y1649500D03*
Y2030500D03*
G54D13*
X1290000Y3593800D03*
Y3746200D03*
X1460000Y3593800D03*
Y3746200D03*
X1630000Y3593800D03*
Y3746200D03*
X4180000Y4196200D03*
Y4043800D03*
X4320000Y4196200D03*
Y4043800D03*
G54D14*
X1619000Y1160000D03*
X3009000D03*
G54D23*
X4473500Y1840000D03*
X6373500D03*
G54D15*
X1820000Y1062500D03*
Y1127500D03*
Y1192500D03*
Y1257500D03*
X3210000Y1062500D03*
Y1127500D03*
Y1192500D03*
Y1257500D03*
G54D24*
X4320000Y4601600D03*
Y4398400D03*
G54D16*
X1900000Y3438220D03*
X2940000D03*
G54D17*
X3240000Y3815000D03*
Y3665000D03*
Y3575000D03*
Y3905000D03*
X3550000Y4115000D03*
Y4025000D03*
X4050000D03*
Y4115000D03*
X3930000Y4025000D03*
Y4115000D03*
G54D18*
X3870640Y3438220D03*
G54D19*
X3570640Y3313220D03*
Y3263220D03*
Y3213220D03*
Y3663220D03*
Y3613220D03*
Y3563220D03*
Y3513220D03*
Y3463220D03*
Y3413220D03*
Y3363220D03*
X4170640Y3213220D03*
Y3263220D03*
Y3313220D03*
Y3363220D03*
Y3413220D03*
Y3463220D03*
Y3513220D03*
Y3563220D03*
Y3613220D03*
Y3663220D03*
M02*
