G04 ================== begin FILE IDENTIFICATION RECORD ==================*
G04 Layout Name:  HY_IP5328_V11_211230.brd*
G04 Film Name:    SilkScreen_Bottom*
G04 File Format:  Gerber RS274X*
G04 File Origin:  Cadence Allegro 17.2-S071*
G04 Origin Date:  Thu Dec 30 13:46:59 2021*
G04 *
G04 Layer:  REF DES/SILKSCREEN_BOTTOM*
G04 Layer:  PACKAGE GEOMETRY/SILKSCREEN_BOTTOM*
G04 Layer:  BOARD GEOMETRY/SILKSCREEN_BOTTOM*
G04 *
G04 Offset:    (0.0000 0.0000)*
G04 Mirror:    No*
G04 Mode:      Positive*
G04 Rotation:  0*
G04 FullContactRelief:  No*
G04 UndefLineWidth:     0.1524*
G04 ================== end FILE IDENTIFICATION RECORD ====================*
%FSLAX55Y55*MOMM*%
%IR0*IPPOS*OFA0.00000B0.00000*MIA0B0*SFA1.00000B1.00000*%
%ADD10C,.2*%
%ADD11C,.2032*%
%ADD12C,.254*%
%ADD13C,.1524*%
G75*
%LPD*%
G75*
G36*
G01X1930000Y1257500D02*
G03I-30000J0D01*
G37*
G36*
G01X3320000D02*
G03I-30000J0D01*
G37*
G36*
G01X4060000Y1647500D02*
G03I-30000J0D01*
G37*
G36*
G01X4118000Y3058220D02*
G03I-22360J0D01*
G37*
G36*
G01X5960000Y1647500D02*
G03I-30000J0D01*
G37*
G54D10*
G01X540000Y1280000D02*
X720000D01*
Y1380000D01*
X540000D01*
Y1280000D01*
G01X720000Y1240000D02*
X540000D01*
Y1140000D01*
X720000D01*
Y1240000D01*
G01Y1100000D02*
X540000D01*
Y1000000D01*
X720000D01*
Y1100000D01*
G01Y1620000D02*
X540000D01*
Y1520000D01*
X720000D01*
Y1620000D01*
G01X920000Y370000D02*
X1890000D01*
Y20000D01*
X920000D01*
Y370000D01*
G01X970000Y1080000D02*
G02Y1240000I147500J80000D01*
G01X1310000D02*
G02Y1080000I-147500J-80000D01*
G01X970000D02*
X1310000D01*
G01Y1240000D02*
X970000D01*
G01X1350000Y3540000D02*
G02X1230000I-60000J77500D01*
G01X1350000Y3800000D02*
Y3540000D01*
G01X1230000D02*
Y3800000D01*
G01D02*
G02X1350000I60000J-77500D01*
G01X1620000Y1000000D02*
X1510000D01*
Y1020000D01*
G01X1830000Y1030000D02*
Y1000000D01*
X1720000D01*
G01Y1320000D02*
X1830000D01*
Y1300000D01*
G01X1510000D02*
Y1320000D01*
X1620000D01*
G01X1520000Y3540000D02*
G02X1400000I-60000J77500D01*
G01X1520000Y3800000D02*
Y3540000D01*
G01X1400000D02*
Y3800000D01*
G01X1690000Y3540000D02*
G02X1570000I-60000J77500D01*
G01X1690000Y3800000D02*
Y3540000D01*
G01X1570000D02*
Y3800000D01*
G01X1400000D02*
G02X1520000I60000J-77500D01*
G01X1570000D02*
G02X1690000I60000J-77500D01*
G01X2270000Y1080000D02*
G02Y1240000I147500J80000D01*
G01Y1080000D02*
X2610000D01*
G01Y1240000D02*
X2270000D01*
G01X1970000Y1000000D02*
X2150000D01*
Y1100000D01*
X1970000D01*
Y1000000D01*
G01X2610000Y1240000D02*
G02Y1080000I-147500J-80000D01*
G01X3010000Y1000000D02*
X2900000D01*
Y1020000D01*
G01X3220000Y1030000D02*
Y1000000D01*
X3110000D01*
G01Y1320000D02*
X3220000D01*
Y1300000D01*
G01X2900000D02*
Y1320000D01*
X3010000D01*
G01X3330000Y3020000D02*
X3150000D01*
Y2920000D01*
X3330000D01*
Y3020000D01*
G01X3190000Y3950000D02*
Y3770000D01*
X3290000D01*
Y3950000D01*
X3190000D01*
G01Y3700000D02*
G02X3290000I50000J-50000D01*
G01Y3540000D02*
G02X3190000I-50000J50000D01*
G01Y3700000D02*
Y3540000D01*
G01X2902760Y4140000D02*
G02Y4300000I147500J80000D01*
G01X3242760D02*
G02Y4140000I-147500J-80000D01*
G01X2902760D02*
X3242760D01*
G01X2902760Y4520000D02*
G02Y4680000I147500J80000D01*
G01X3242760D02*
G02Y4520000I-147500J-80000D01*
G01X2902760D02*
X3242760D01*
G01Y4680000D02*
X2902760D01*
G01Y4328220D02*
G02Y4488220I147500J80000D01*
G01X3242760D02*
G02Y4328220I-147500J-80000D01*
G01X2902760D02*
X3242760D01*
G01Y4488220D02*
X2902760D01*
G01X3242760Y4300000D02*
X2902760D01*
G01X3380000Y1000000D02*
X3560000D01*
Y1100000D01*
X3380000D01*
Y1000000D01*
G01X3580000Y1570000D02*
G02Y1730000I147500J80000D01*
G01Y1570000D02*
X3920000D01*
G01Y1730000D02*
X3580000D01*
G01X3610640Y3128220D02*
X3560640D01*
Y3178220D01*
G01Y3698220D02*
Y3748220D01*
X3610640D01*
G01X3290000Y3540000D02*
Y3700000D01*
G01X3500000Y4150000D02*
G02X3600000I50000J-50000D01*
G01Y3990000D02*
G02X3500000I-50000J50000D01*
G01Y4150000D02*
Y3990000D01*
G01X3600000D02*
Y4150000D01*
G01X4100000Y1600000D02*
Y1570000D01*
X4680000D01*
Y1600000D01*
G01X3920000Y1730000D02*
G02Y1570000I-147500J-80000D01*
G01X4680000Y2080000D02*
Y2110000D01*
X4100000D01*
Y2080000D01*
G01X4180640Y3178220D02*
Y3128220D01*
X4130640D01*
G01Y3748220D02*
X4180640D01*
Y3698220D01*
G01X4240000Y3990000D02*
G02X4120000I-60000J77500D01*
G01Y4250000D02*
G02X4240000I60000J-77500D01*
G01X4120000Y3990000D02*
Y4250000D01*
G01X4000000Y4160000D02*
Y3980000D01*
X4100000D01*
Y4160000D01*
X4000000D01*
G01X3980000Y3990000D02*
G02X3880000I-50000J50000D01*
G01Y4150000D02*
G02X3980000I50000J-50000D01*
G01Y3990000D02*
Y4150000D01*
G01X3880000D02*
Y3990000D01*
G01X4380000D02*
G02X4260000I-60000J77500D01*
G01Y4250000D02*
G02X4380000I60000J-77500D01*
G01X4260000Y3990000D02*
Y4250000D01*
G01X4380000D02*
Y3990000D01*
G01X4240000Y4250000D02*
Y3990000D01*
G01X4400000Y4330000D02*
G02X4240000I-80000J147500D01*
G01Y4670000D02*
G02X4400000I80000J-147500D01*
G01Y4330000D02*
Y4670000D01*
G01X4240000D02*
Y4330000D01*
G01X5480000Y1570000D02*
G02Y1730000I147500J80000D01*
G01Y1570000D02*
X5820000D01*
G01Y1730000D02*
X5480000D01*
G01X6000000Y1600000D02*
Y1570000D01*
X6580000D01*
Y1600000D01*
G01X5820000Y1730000D02*
G02Y1570000I-147500J-80000D01*
G01X6580000Y2080000D02*
Y2110000D01*
X6000000D01*
Y2080000D01*
G54D11*
G01X1820000Y3238220D02*
Y2918220D01*
X3020000D01*
Y3238220D01*
G01Y3638220D02*
Y3958220D01*
X1820000D01*
Y3638220D01*
G01X2120000Y3438220D02*
X2050000D01*
G01X2320000D02*
G03X2220000I-50000J0D01*
G01D02*
G03X2120000I-50000J0D01*
G01X2420000D02*
G03X2320000I-50000J0D01*
G01X2520000D02*
G03X2420000I-50000J0D01*
G01X2620000D02*
G03X2520000I-50000J0D01*
G01X2720000D02*
G03X2620000I-50000J0D01*
G01X2790000D02*
X2720000D01*
G54D12*
G01X3310000Y4310000D02*
X4190000D01*
Y4690000D01*
X3310000D01*
Y4310000D01*
G54D13*
G01X865000Y1005000D02*
Y1095000D01*
X840000D01*
X832000Y1090500D01*
X827000Y1084500D01*
X825000Y1072500D01*
X827000Y1060500D01*
X833000Y1053000D01*
X840000Y1048500D01*
X865000D01*
G01X840000D02*
X825000Y1005000D01*
G01X775000D02*
X768000Y1006500D01*
X760000Y1011000D01*
X755000Y1018500D01*
X753000Y1029000D01*
X755000Y1039500D01*
X761000Y1048500D01*
X770000Y1053000D01*
X780000D01*
X786000Y1056000D01*
X791000Y1063500D01*
X793000Y1074000D01*
X790000Y1084500D01*
X783000Y1092000D01*
X775000Y1095000D01*
X767000Y1092000D01*
X760000Y1084500D01*
X757000Y1074000D01*
X759000Y1063500D01*
X764000Y1056000D01*
X770000Y1053000D01*
X780000D01*
X789000Y1048500D01*
X795000Y1039500D01*
X797000Y1029000D01*
X795000Y1018500D01*
X790000Y1011000D01*
X782000Y1006500D01*
X775000Y1005000D01*
G01X865000Y1285000D02*
Y1375000D01*
X840000D01*
X832000Y1370500D01*
X827000Y1364500D01*
X825000Y1352500D01*
X827000Y1340500D01*
X833000Y1333000D01*
X840000Y1328500D01*
X865000D01*
G01X840000D02*
X825000Y1285000D01*
G01X777000D02*
X775000Y1304500D01*
X772000Y1321000D01*
X768000Y1336000D01*
X763000Y1352500D01*
X755000Y1375000D01*
X795000D01*
G01X865000Y1145000D02*
Y1235000D01*
X840000D01*
X832000Y1230500D01*
X827000Y1224500D01*
X825000Y1212500D01*
X827000Y1200500D01*
X833000Y1193000D01*
X840000Y1188500D01*
X865000D01*
G01X840000D02*
X825000Y1145000D01*
G01X792000Y1155500D02*
X785000Y1148000D01*
X777000Y1145000D01*
X769000Y1148000D01*
X762000Y1157000D01*
X757000Y1170500D01*
X755000Y1184000D01*
Y1200500D01*
X757000Y1214000D01*
X762000Y1226000D01*
X768000Y1232000D01*
X775000Y1235000D01*
X783000Y1232000D01*
X789000Y1226000D01*
X793000Y1217000D01*
X795000Y1205000D01*
X793000Y1194500D01*
X788000Y1184000D01*
X782000Y1178000D01*
X775000Y1176500D01*
X767000Y1179500D01*
X761000Y1187000D01*
X755000Y1200500D01*
G01X865000Y1525000D02*
Y1615000D01*
X840000D01*
X832000Y1610500D01*
X827000Y1604500D01*
X825000Y1592500D01*
X827000Y1580500D01*
X833000Y1573000D01*
X840000Y1568500D01*
X865000D01*
G01X840000D02*
X825000Y1525000D01*
G01X797000Y1538500D02*
X791000Y1531000D01*
X784000Y1526500D01*
X775000Y1525000D01*
X766000Y1528000D01*
X759000Y1534000D01*
X754000Y1544500D01*
X753000Y1556500D01*
X755000Y1568500D01*
X760000Y1576000D01*
X767000Y1582000D01*
X774000Y1583500D01*
X781000Y1582000D01*
X790000Y1576000D01*
X787000Y1615000D01*
X760000D01*
G01X1841000Y230000D02*
Y320000D01*
G01X1799000D02*
Y230000D01*
G01Y275000D02*
X1841000D01*
G01X1750000Y230000D02*
Y270500D01*
X1770000Y320000D01*
G01X1730000D02*
X1750000Y270500D01*
G01X1710000Y200000D02*
X1650000D01*
G01X1622000Y320000D02*
X1598000D01*
G01X1610000D02*
Y230000D01*
G01X1622000D02*
X1598000D01*
G01X1560000D02*
Y320000D01*
X1536000D01*
X1528000Y315500D01*
X1522000Y305000D01*
X1520000Y293000D01*
X1522000Y281000D01*
X1527000Y272000D01*
X1536000Y267500D01*
X1560000D01*
G01X1492000Y243500D02*
X1486000Y236000D01*
X1479000Y231500D01*
X1470000Y230000D01*
X1461000Y233000D01*
X1454000Y239000D01*
X1449000Y249500D01*
X1448000Y261500D01*
X1450000Y273500D01*
X1455000Y281000D01*
X1462000Y287000D01*
X1469000Y288500D01*
X1476000Y287000D01*
X1485000Y281000D01*
X1482000Y320000D01*
X1455000D01*
G01X1422000Y248000D02*
X1416000Y237500D01*
X1408000Y231500D01*
X1399000Y230000D01*
X1391000Y231500D01*
X1383000Y239000D01*
X1378000Y248000D01*
X1377000Y257000D01*
X1379000Y267500D01*
X1386000Y275000D01*
X1393000Y278000D01*
X1402000D01*
G01X1393000D02*
X1387000Y282500D01*
X1382000Y290000D01*
X1380000Y299000D01*
X1382000Y308000D01*
X1387000Y315500D01*
X1396000Y320000D01*
X1405000Y318500D01*
X1414000Y312500D01*
G01X1349000Y305000D02*
X1343000Y314000D01*
X1336000Y318500D01*
X1328000Y320000D01*
X1318000Y317000D01*
X1311000Y309500D01*
X1309000Y300500D01*
X1310000Y291500D01*
X1314000Y284000D01*
X1334000Y269000D01*
X1343000Y258500D01*
X1349000Y243500D01*
X1351000Y230000D01*
X1309000D01*
G01X1260000D02*
X1253000Y231500D01*
X1245000Y236000D01*
X1240000Y243500D01*
X1238000Y254000D01*
X1240000Y264500D01*
X1246000Y273500D01*
X1255000Y278000D01*
X1265000D01*
X1271000Y281000D01*
X1276000Y288500D01*
X1278000Y299000D01*
X1275000Y309500D01*
X1268000Y317000D01*
X1260000Y320000D01*
X1252000Y317000D01*
X1245000Y309500D01*
X1242000Y299000D01*
X1244000Y288500D01*
X1249000Y281000D01*
X1255000Y278000D01*
X1265000D01*
X1274000Y273500D01*
X1280000Y264500D01*
X1282000Y254000D01*
X1280000Y243500D01*
X1275000Y236000D01*
X1267000Y231500D01*
X1260000Y230000D01*
G01X1220000Y200000D02*
X1160000D01*
G01X1145000Y320000D02*
X1120000Y230000D01*
X1095000Y320000D01*
G01X1050000Y230000D02*
Y320000D01*
X1062000Y302000D01*
G01Y230000D02*
X1038000D01*
G01X980000D02*
Y320000D01*
X992000Y302000D01*
G01Y230000D02*
X968000D01*
G01X1268000Y1042500D02*
X1274000Y1047000D01*
X1281000Y1050000D01*
X1289000D01*
X1298000Y1045500D01*
X1305000Y1038000D01*
X1310000Y1029000D01*
X1314000Y1014000D01*
X1315000Y1000500D01*
X1313000Y987000D01*
X1310000Y978000D01*
X1304000Y969000D01*
X1297000Y963000D01*
X1290000Y960000D01*
X1283000D01*
X1276000Y963000D01*
X1270000Y967500D01*
X1265000Y973500D01*
G01X1220000Y960000D02*
Y1050000D01*
X1232000Y1032000D01*
G01Y960000D02*
X1208000D01*
G01X1138000D02*
Y1050000D01*
X1175000Y985500D01*
X1125000D01*
G01X1242500Y3988000D02*
X1238000Y3994000D01*
X1235000Y4001000D01*
Y4009000D01*
X1239500Y4018000D01*
X1247000Y4025000D01*
X1256000Y4030000D01*
X1271000Y4034000D01*
X1284500Y4035000D01*
X1298000Y4033000D01*
X1307000Y4030000D01*
X1316000Y4024000D01*
X1322000Y4017000D01*
X1325000Y4010000D01*
Y4003000D01*
X1322000Y3996000D01*
X1317500Y3990000D01*
X1311500Y3985000D01*
G01X1325000Y3940000D02*
X1235000D01*
X1253000Y3952000D01*
G01X1325000D02*
Y3928000D01*
G01X1307000Y3892000D02*
X1317500Y3886000D01*
X1323500Y3878000D01*
X1325000Y3869000D01*
X1323500Y3861000D01*
X1316000Y3853000D01*
X1307000Y3848000D01*
X1298000Y3847000D01*
X1287500Y3849000D01*
X1280000Y3856000D01*
X1277000Y3863000D01*
Y3872000D01*
G01Y3863000D02*
X1272500Y3857000D01*
X1265000Y3852000D01*
X1256000Y3850000D01*
X1247000Y3852000D01*
X1239500Y3857000D01*
X1235000Y3866000D01*
X1236500Y3875000D01*
X1242500Y3884000D01*
G01X1839000Y145000D02*
X1833000Y154000D01*
X1826000Y158500D01*
X1818000Y160000D01*
X1808000Y157000D01*
X1801000Y149500D01*
X1799000Y140500D01*
X1800000Y131500D01*
X1804000Y124000D01*
X1824000Y109000D01*
X1833000Y98500D01*
X1839000Y83500D01*
X1841000Y70000D01*
X1799000D01*
G01X1750000D02*
Y160000D01*
X1762000Y142000D01*
G01Y70000D02*
X1738000D01*
G01X1680000D02*
Y160000D01*
X1692000Y142000D01*
G01Y70000D02*
X1668000D01*
G01X1629000Y145000D02*
X1623000Y154000D01*
X1616000Y158500D01*
X1608000Y160000D01*
X1598000Y157000D01*
X1591000Y149500D01*
X1589000Y140500D01*
X1590000Y131500D01*
X1594000Y124000D01*
X1614000Y109000D01*
X1623000Y98500D01*
X1629000Y83500D01*
X1631000Y70000D01*
X1589000D01*
G01X1562000Y88000D02*
X1556000Y77500D01*
X1548000Y71500D01*
X1539000Y70000D01*
X1531000Y71500D01*
X1523000Y79000D01*
X1518000Y88000D01*
X1517000Y97000D01*
X1519000Y107500D01*
X1526000Y115000D01*
X1533000Y118000D01*
X1542000D01*
G01X1533000D02*
X1527000Y122500D01*
X1522000Y130000D01*
X1520000Y139000D01*
X1522000Y148000D01*
X1527000Y155500D01*
X1536000Y160000D01*
X1545000Y158500D01*
X1554000Y152500D01*
G01X1470000Y160000D02*
X1478000Y157000D01*
X1484000Y149500D01*
X1488000Y140500D01*
X1491000Y128500D01*
X1492000Y115000D01*
X1491000Y101500D01*
X1488000Y89500D01*
X1484000Y80500D01*
X1478000Y73000D01*
X1470000Y70000D01*
X1462000Y73000D01*
X1456000Y80500D01*
X1452000Y89500D01*
X1449000Y101500D01*
X1448000Y115000D01*
X1449000Y128500D01*
X1452000Y140500D01*
X1456000Y149500D01*
X1462000Y157000D01*
X1470000Y160000D01*
G01X1805000Y870000D02*
X1813000Y871500D01*
X1820000Y877500D01*
X1826000Y886500D01*
X1830000Y897000D01*
X1832000Y909000D01*
Y921000D01*
X1830000Y933000D01*
X1826000Y943500D01*
X1820000Y952500D01*
X1813000Y958500D01*
X1805000Y960000D01*
X1797000Y958500D01*
X1790000Y952500D01*
X1784000Y943500D01*
X1780000Y933000D01*
X1778000Y921000D01*
Y909000D01*
X1780000Y897000D01*
X1784000Y886500D01*
X1790000Y877500D01*
X1797000Y871500D01*
X1805000Y870000D01*
G01X1797000Y894000D02*
X1785000Y870000D01*
G01X1754000Y945000D02*
X1748000Y954000D01*
X1741000Y958500D01*
X1733000Y960000D01*
X1723000Y957000D01*
X1716000Y949500D01*
X1714000Y940500D01*
X1715000Y931500D01*
X1719000Y924000D01*
X1739000Y909000D01*
X1748000Y898500D01*
X1754000Y883500D01*
X1756000Y870000D01*
X1714000D01*
G01X1412500Y3988000D02*
X1408000Y3994000D01*
X1405000Y4001000D01*
Y4009000D01*
X1409500Y4018000D01*
X1417000Y4025000D01*
X1426000Y4030000D01*
X1441000Y4034000D01*
X1454500Y4035000D01*
X1468000Y4033000D01*
X1477000Y4030000D01*
X1486000Y4024000D01*
X1492000Y4017000D01*
X1495000Y4010000D01*
Y4003000D01*
X1492000Y3996000D01*
X1487500Y3990000D01*
X1481500Y3985000D01*
G01X1495000Y3940000D02*
X1405000D01*
X1423000Y3952000D01*
G01X1495000D02*
Y3928000D01*
G01X1420000Y3889000D02*
X1411000Y3883000D01*
X1406500Y3876000D01*
X1405000Y3868000D01*
X1408000Y3858000D01*
X1415500Y3851000D01*
X1424500Y3849000D01*
X1433500Y3850000D01*
X1441000Y3854000D01*
X1456000Y3874000D01*
X1466500Y3883000D01*
X1481500Y3889000D01*
X1495000Y3891000D01*
Y3849000D01*
G01X1582500Y3988000D02*
X1578000Y3994000D01*
X1575000Y4001000D01*
Y4009000D01*
X1579500Y4018000D01*
X1587000Y4025000D01*
X1596000Y4030000D01*
X1611000Y4034000D01*
X1624500Y4035000D01*
X1638000Y4033000D01*
X1647000Y4030000D01*
X1656000Y4024000D01*
X1662000Y4017000D01*
X1665000Y4010000D01*
Y4003000D01*
X1662000Y3996000D01*
X1657500Y3990000D01*
X1651500Y3985000D01*
G01X1665000Y3940000D02*
X1575000D01*
X1593000Y3952000D01*
G01X1665000D02*
Y3928000D01*
G01Y3870000D02*
X1575000D01*
X1593000Y3882000D01*
G01X1665000D02*
Y3858000D01*
G01X2150000Y880000D02*
Y970000D01*
X2125000D01*
X2117000Y965500D01*
X2112000Y959500D01*
X2110000Y947500D01*
X2112000Y935500D01*
X2118000Y928000D01*
X2125000Y923500D01*
X2150000D01*
G01X2125000D02*
X2110000Y880000D01*
G01X2060000D02*
Y970000D01*
X2072000Y952000D01*
G01Y880000D02*
X2048000D01*
G01X1990000D02*
Y970000D01*
X2002000Y952000D01*
G01Y880000D02*
X1978000D01*
G01X2568000Y1042500D02*
X2574000Y1047000D01*
X2581000Y1050000D01*
X2589000D01*
X2598000Y1045500D01*
X2605000Y1038000D01*
X2610000Y1029000D01*
X2614000Y1014000D01*
X2615000Y1000500D01*
X2613000Y987000D01*
X2610000Y978000D01*
X2604000Y969000D01*
X2597000Y963000D01*
X2590000Y960000D01*
X2583000D01*
X2576000Y963000D01*
X2570000Y967500D01*
X2565000Y973500D01*
G01X2520000Y960000D02*
Y1050000D01*
X2532000Y1032000D01*
G01Y960000D02*
X2508000D01*
G01X2450000Y1050000D02*
X2458000Y1047000D01*
X2464000Y1039500D01*
X2468000Y1030500D01*
X2471000Y1018500D01*
X2472000Y1005000D01*
X2471000Y991500D01*
X2468000Y979500D01*
X2464000Y970500D01*
X2458000Y963000D01*
X2450000Y960000D01*
X2442000Y963000D01*
X2436000Y970500D01*
X2432000Y979500D01*
X2429000Y991500D01*
X2428000Y1005000D01*
X2429000Y1018500D01*
X2432000Y1030500D01*
X2436000Y1039500D01*
X2442000Y1047000D01*
X2450000Y1050000D01*
G01X2805760Y4267500D02*
X2811760Y4272000D01*
X2818760Y4275000D01*
X2826760D01*
X2835760Y4270500D01*
X2842760Y4263000D01*
X2847760Y4254000D01*
X2851760Y4239000D01*
X2852760Y4225500D01*
X2850760Y4212000D01*
X2847760Y4203000D01*
X2841760Y4194000D01*
X2834760Y4188000D01*
X2827760Y4185000D01*
X2820760D01*
X2813760Y4188000D01*
X2807760Y4192500D01*
X2802760Y4198500D01*
G01X2776760Y4222500D02*
X2769760Y4233000D01*
X2763760Y4239000D01*
X2755760Y4242000D01*
X2748760Y4239000D01*
X2743760Y4233000D01*
X2739760Y4224000D01*
X2738760Y4213500D01*
X2739760Y4204500D01*
X2743760Y4195500D01*
X2749760Y4188000D01*
X2756760Y4185000D01*
X2764760Y4188000D01*
X2771760Y4197000D01*
X2775760Y4210500D01*
X2776760Y4225500D01*
X2774760Y4245000D01*
X2771760Y4255500D01*
X2766760Y4266000D01*
X2759760Y4273500D01*
X2752760Y4275000D01*
X2745760Y4272000D01*
X2740760Y4264500D01*
G01X2805760Y4647500D02*
X2811760Y4652000D01*
X2818760Y4655000D01*
X2826760D01*
X2835760Y4650500D01*
X2842760Y4643000D01*
X2847760Y4634000D01*
X2851760Y4619000D01*
X2852760Y4605500D01*
X2850760Y4592000D01*
X2847760Y4583000D01*
X2841760Y4574000D01*
X2834760Y4568000D01*
X2827760Y4565000D01*
X2820760D01*
X2813760Y4568000D01*
X2807760Y4572500D01*
X2802760Y4578500D01*
G01X2745760Y4565000D02*
Y4655000D01*
X2782760Y4590500D01*
X2732760D01*
G01X2805760Y4455720D02*
X2811760Y4460220D01*
X2818760Y4463220D01*
X2826760D01*
X2835760Y4458720D01*
X2842760Y4451220D01*
X2847760Y4442220D01*
X2851760Y4427220D01*
X2852760Y4413720D01*
X2850760Y4400220D01*
X2847760Y4391220D01*
X2841760Y4382220D01*
X2834760Y4376220D01*
X2827760Y4373220D01*
X2820760D01*
X2813760Y4376220D01*
X2807760Y4380720D01*
X2802760Y4386720D01*
G01X2779760D02*
X2773760Y4379220D01*
X2766760Y4374720D01*
X2757760Y4373220D01*
X2748760Y4376220D01*
X2741760Y4382220D01*
X2736760Y4392720D01*
X2735760Y4404720D01*
X2737760Y4416720D01*
X2742760Y4424220D01*
X2749760Y4430220D01*
X2756760Y4431720D01*
X2763760Y4430220D01*
X2772760Y4424220D01*
X2769760Y4463220D01*
X2742760D01*
G01X3215000Y870000D02*
X3223000Y871500D01*
X3230000Y877500D01*
X3236000Y886500D01*
X3240000Y897000D01*
X3242000Y909000D01*
Y921000D01*
X3240000Y933000D01*
X3236000Y943500D01*
X3230000Y952500D01*
X3223000Y958500D01*
X3215000Y960000D01*
X3207000Y958500D01*
X3200000Y952500D01*
X3194000Y943500D01*
X3190000Y933000D01*
X3188000Y921000D01*
Y909000D01*
X3190000Y897000D01*
X3194000Y886500D01*
X3200000Y877500D01*
X3207000Y871500D01*
X3215000Y870000D01*
G01X3207000Y894000D02*
X3195000Y870000D01*
G01X3145000D02*
Y960000D01*
X3157000Y942000D01*
G01Y870000D02*
X3133000D01*
G01X3330000Y3050000D02*
Y3140000D01*
X3305000D01*
X3297000Y3135500D01*
X3292000Y3129500D01*
X3290000Y3117500D01*
X3292000Y3105500D01*
X3298000Y3098000D01*
X3305000Y3093500D01*
X3330000D01*
G01X3305000D02*
X3290000Y3050000D01*
G01X3240000D02*
Y3140000D01*
X3252000Y3122000D01*
G01Y3050000D02*
X3228000D01*
G01X3170000Y3140000D02*
X3178000Y3137000D01*
X3184000Y3129500D01*
X3188000Y3120500D01*
X3191000Y3108500D01*
X3192000Y3095000D01*
X3191000Y3081500D01*
X3188000Y3069500D01*
X3184000Y3060500D01*
X3178000Y3053000D01*
X3170000Y3050000D01*
X3162000Y3053000D01*
X3156000Y3060500D01*
X3152000Y3069500D01*
X3149000Y3081500D01*
X3148000Y3095000D01*
X3149000Y3108500D01*
X3152000Y3120500D01*
X3156000Y3129500D01*
X3162000Y3137000D01*
X3170000Y3140000D01*
G01X3015000Y4080000D02*
Y3990000D01*
X2975000D01*
G01X2925000D02*
Y4080000D01*
X2937000Y4062000D01*
G01Y3990000D02*
X2913000D01*
G01X3545000Y875000D02*
Y965000D01*
X3520000D01*
X3512000Y960500D01*
X3507000Y954500D01*
X3505000Y942500D01*
X3507000Y930500D01*
X3513000Y923000D01*
X3520000Y918500D01*
X3545000D01*
G01X3520000D02*
X3505000Y875000D01*
G01X3474000Y912500D02*
X3467000Y923000D01*
X3461000Y929000D01*
X3453000Y932000D01*
X3446000Y929000D01*
X3441000Y923000D01*
X3437000Y914000D01*
X3436000Y903500D01*
X3437000Y894500D01*
X3441000Y885500D01*
X3447000Y878000D01*
X3454000Y875000D01*
X3462000Y878000D01*
X3469000Y887000D01*
X3473000Y900500D01*
X3474000Y915500D01*
X3472000Y935000D01*
X3469000Y945500D01*
X3464000Y956000D01*
X3457000Y963500D01*
X3450000Y965000D01*
X3443000Y962000D01*
X3438000Y954500D01*
G01X3332500Y3663000D02*
X3328000Y3669000D01*
X3325000Y3676000D01*
Y3684000D01*
X3329500Y3693000D01*
X3337000Y3700000D01*
X3346000Y3705000D01*
X3361000Y3709000D01*
X3374500Y3710000D01*
X3388000Y3708000D01*
X3397000Y3705000D01*
X3406000Y3699000D01*
X3412000Y3692000D01*
X3415000Y3685000D01*
Y3678000D01*
X3412000Y3671000D01*
X3407500Y3665000D01*
X3401500Y3660000D01*
G01X3404500Y3632000D02*
X3412000Y3625000D01*
X3415000Y3617000D01*
X3412000Y3609000D01*
X3403000Y3602000D01*
X3389500Y3597000D01*
X3376000Y3595000D01*
X3359500D01*
X3346000Y3597000D01*
X3334000Y3602000D01*
X3328000Y3608000D01*
X3325000Y3615000D01*
X3328000Y3623000D01*
X3334000Y3629000D01*
X3343000Y3633000D01*
X3355000Y3635000D01*
X3365500Y3633000D01*
X3376000Y3628000D01*
X3382000Y3622000D01*
X3383500Y3615000D01*
X3380500Y3607000D01*
X3373000Y3601000D01*
X3359500Y3595000D01*
G01X3415000Y3945000D02*
X3325000D01*
Y3920000D01*
X3329500Y3912000D01*
X3335500Y3907000D01*
X3347500Y3905000D01*
X3359500Y3907000D01*
X3367000Y3913000D01*
X3371500Y3920000D01*
Y3945000D01*
G01Y3920000D02*
X3415000Y3905000D01*
G01Y3843000D02*
X3325000D01*
X3389500Y3880000D01*
Y3830000D01*
G01X3637500Y4103000D02*
X3633000Y4109000D01*
X3630000Y4116000D01*
Y4124000D01*
X3634500Y4133000D01*
X3642000Y4140000D01*
X3651000Y4145000D01*
X3666000Y4149000D01*
X3679500Y4150000D01*
X3693000Y4148000D01*
X3702000Y4145000D01*
X3711000Y4139000D01*
X3717000Y4132000D01*
X3720000Y4125000D01*
Y4118000D01*
X3717000Y4111000D01*
X3712500Y4105000D01*
X3706500Y4100000D01*
G01X3702000Y4077000D02*
X3712500Y4071000D01*
X3718500Y4063000D01*
X3720000Y4054000D01*
X3718500Y4046000D01*
X3711000Y4038000D01*
X3702000Y4033000D01*
X3693000Y4032000D01*
X3682500Y4034000D01*
X3675000Y4041000D01*
X3672000Y4048000D01*
Y4057000D01*
G01Y4048000D02*
X3667500Y4042000D01*
X3660000Y4037000D01*
X3651000Y4035000D01*
X3642000Y4037000D01*
X3634500Y4042000D01*
X3630000Y4051000D01*
X3631500Y4060000D01*
X3637500Y4069000D01*
G01X3878000Y1532500D02*
X3884000Y1537000D01*
X3891000Y1540000D01*
X3899000D01*
X3908000Y1535500D01*
X3915000Y1528000D01*
X3920000Y1519000D01*
X3924000Y1504000D01*
X3925000Y1490500D01*
X3923000Y1477000D01*
X3920000Y1468000D01*
X3914000Y1459000D01*
X3907000Y1453000D01*
X3900000Y1450000D01*
X3893000D01*
X3886000Y1453000D01*
X3880000Y1457500D01*
X3875000Y1463500D01*
G01X3830000Y1450000D02*
Y1540000D01*
X3842000Y1522000D01*
G01Y1450000D02*
X3818000D01*
G01X3779000Y1487500D02*
X3772000Y1498000D01*
X3766000Y1504000D01*
X3758000Y1507000D01*
X3751000Y1504000D01*
X3746000Y1498000D01*
X3742000Y1489000D01*
X3741000Y1478500D01*
X3742000Y1469500D01*
X3746000Y1460500D01*
X3752000Y1453000D01*
X3759000Y1450000D01*
X3767000Y1453000D01*
X3774000Y1462000D01*
X3778000Y1475500D01*
X3779000Y1490500D01*
X3777000Y1510000D01*
X3774000Y1520500D01*
X3769000Y1531000D01*
X3762000Y1538500D01*
X3755000Y1540000D01*
X3748000Y1537000D01*
X3743000Y1529500D01*
G01X4177000Y3010000D02*
Y2945500D01*
X4173000Y2932000D01*
X4165000Y2923000D01*
X4155000Y2920000D01*
X4145000Y2923000D01*
X4137000Y2932000D01*
X4133000Y2945500D01*
Y3010000D01*
G01X4085000Y2920000D02*
Y3010000D01*
X4097000Y2992000D01*
G01Y2920000D02*
X4073000D01*
G01X4185000Y4720000D02*
Y4810000D01*
X4160000D01*
X4152000Y4805500D01*
X4147000Y4799500D01*
X4145000Y4787500D01*
X4147000Y4775500D01*
X4153000Y4768000D01*
X4160000Y4763500D01*
X4185000D01*
G01X4160000D02*
X4145000Y4720000D01*
G01X4095000D02*
Y4810000D01*
X4107000Y4792000D01*
G01Y4720000D02*
X4083000D01*
G01X4655000Y1450000D02*
X4663000Y1451500D01*
X4670000Y1457500D01*
X4676000Y1466500D01*
X4680000Y1477000D01*
X4682000Y1489000D01*
Y1501000D01*
X4680000Y1513000D01*
X4676000Y1523500D01*
X4670000Y1532500D01*
X4663000Y1538500D01*
X4655000Y1540000D01*
X4647000Y1538500D01*
X4640000Y1532500D01*
X4634000Y1523500D01*
X4630000Y1513000D01*
X4628000Y1501000D01*
Y1489000D01*
X4630000Y1477000D01*
X4634000Y1466500D01*
X4640000Y1457500D01*
X4647000Y1451500D01*
X4655000Y1450000D01*
G01X4647000Y1474000D02*
X4635000Y1450000D01*
G01X4573000D02*
Y1540000D01*
X4610000Y1475500D01*
X4560000D01*
G01X4625000Y4245000D02*
X4535000D01*
Y4220000D01*
X4539500Y4212000D01*
X4545500Y4207000D01*
X4557500Y4205000D01*
X4569500Y4207000D01*
X4577000Y4213000D01*
X4581500Y4220000D01*
Y4245000D01*
G01Y4220000D02*
X4625000Y4205000D01*
G01X4607000Y4177000D02*
X4617500Y4171000D01*
X4623500Y4163000D01*
X4625000Y4154000D01*
X4623500Y4146000D01*
X4616000Y4138000D01*
X4607000Y4133000D01*
X4598000Y4132000D01*
X4587500Y4134000D01*
X4580000Y4141000D01*
X4577000Y4148000D01*
Y4157000D01*
G01Y4148000D02*
X4572500Y4142000D01*
X4565000Y4137000D01*
X4556000Y4135000D01*
X4547000Y4137000D01*
X4539500Y4142000D01*
X4535000Y4151000D01*
X4536500Y4160000D01*
X4542500Y4169000D01*
G01X4422500Y4203000D02*
X4418000Y4209000D01*
X4415000Y4216000D01*
Y4224000D01*
X4419500Y4233000D01*
X4427000Y4240000D01*
X4436000Y4245000D01*
X4451000Y4249000D01*
X4464500Y4250000D01*
X4478000Y4248000D01*
X4487000Y4245000D01*
X4496000Y4239000D01*
X4502000Y4232000D01*
X4505000Y4225000D01*
Y4218000D01*
X4502000Y4211000D01*
X4497500Y4205000D01*
X4491500Y4200000D01*
G01X4430000Y4174000D02*
X4421000Y4168000D01*
X4416500Y4161000D01*
X4415000Y4153000D01*
X4418000Y4143000D01*
X4425500Y4136000D01*
X4434500Y4134000D01*
X4443500Y4135000D01*
X4451000Y4139000D01*
X4466000Y4159000D01*
X4476500Y4168000D01*
X4491500Y4174000D01*
X4505000Y4176000D01*
Y4134000D01*
G01X4437500Y4623000D02*
X4433000Y4629000D01*
X4430000Y4636000D01*
Y4644000D01*
X4434500Y4653000D01*
X4442000Y4660000D01*
X4451000Y4665000D01*
X4466000Y4669000D01*
X4479500Y4670000D01*
X4493000Y4668000D01*
X4502000Y4665000D01*
X4511000Y4659000D01*
X4517000Y4652000D01*
X4520000Y4645000D01*
Y4638000D01*
X4517000Y4631000D01*
X4512500Y4625000D01*
X4506500Y4620000D01*
G01X4520000Y4575000D02*
X4430000D01*
X4448000Y4587000D01*
G01X4520000D02*
Y4563000D01*
G01X4797500Y4203000D02*
X4793000Y4209000D01*
X4790000Y4216000D01*
Y4224000D01*
X4794500Y4233000D01*
X4802000Y4240000D01*
X4811000Y4245000D01*
X4826000Y4249000D01*
X4839500Y4250000D01*
X4853000Y4248000D01*
X4862000Y4245000D01*
X4871000Y4239000D01*
X4877000Y4232000D01*
X4880000Y4225000D01*
Y4218000D01*
X4877000Y4211000D01*
X4872500Y4205000D01*
X4866500Y4200000D01*
G01X4880000Y4157000D02*
X4860500Y4155000D01*
X4844000Y4152000D01*
X4829000Y4148000D01*
X4812500Y4143000D01*
X4790000Y4135000D01*
Y4175000D01*
G01X4672500Y4203000D02*
X4668000Y4209000D01*
X4665000Y4216000D01*
Y4224000D01*
X4669500Y4233000D01*
X4677000Y4240000D01*
X4686000Y4245000D01*
X4701000Y4249000D01*
X4714500Y4250000D01*
X4728000Y4248000D01*
X4737000Y4245000D01*
X4746000Y4239000D01*
X4752000Y4232000D01*
X4755000Y4225000D01*
Y4218000D01*
X4752000Y4211000D01*
X4747500Y4205000D01*
X4741500Y4200000D01*
G01X4755000Y4155000D02*
X4753500Y4148000D01*
X4749000Y4140000D01*
X4741500Y4135000D01*
X4731000Y4133000D01*
X4720500Y4135000D01*
X4711500Y4141000D01*
X4707000Y4150000D01*
Y4160000D01*
X4704000Y4166000D01*
X4696500Y4171000D01*
X4686000Y4173000D01*
X4675500Y4170000D01*
X4668000Y4163000D01*
X4665000Y4155000D01*
X4668000Y4147000D01*
X4675500Y4140000D01*
X4686000Y4137000D01*
X4696500Y4139000D01*
X4704000Y4144000D01*
X4707000Y4150000D01*
Y4160000D01*
X4711500Y4169000D01*
X4720500Y4175000D01*
X4731000Y4177000D01*
X4741500Y4175000D01*
X4749000Y4170000D01*
X4753500Y4162000D01*
X4755000Y4155000D01*
G01X5778000Y1527500D02*
X5784000Y1532000D01*
X5791000Y1535000D01*
X5799000D01*
X5808000Y1530500D01*
X5815000Y1523000D01*
X5820000Y1514000D01*
X5824000Y1499000D01*
X5825000Y1485500D01*
X5823000Y1472000D01*
X5820000Y1463000D01*
X5814000Y1454000D01*
X5807000Y1448000D01*
X5800000Y1445000D01*
X5793000D01*
X5786000Y1448000D01*
X5780000Y1452500D01*
X5775000Y1458500D01*
G01X5730000Y1445000D02*
Y1535000D01*
X5742000Y1517000D01*
G01Y1445000D02*
X5718000D01*
G01X5682000Y1458500D02*
X5676000Y1451000D01*
X5669000Y1446500D01*
X5660000Y1445000D01*
X5651000Y1448000D01*
X5644000Y1454000D01*
X5639000Y1464500D01*
X5638000Y1476500D01*
X5640000Y1488500D01*
X5645000Y1496000D01*
X5652000Y1502000D01*
X5659000Y1503500D01*
X5666000Y1502000D01*
X5675000Y1496000D01*
X5672000Y1535000D01*
X5645000D01*
G01X6565000Y1450000D02*
X6573000Y1451500D01*
X6580000Y1457500D01*
X6586000Y1466500D01*
X6590000Y1477000D01*
X6592000Y1489000D01*
Y1501000D01*
X6590000Y1513000D01*
X6586000Y1523500D01*
X6580000Y1532500D01*
X6573000Y1538500D01*
X6565000Y1540000D01*
X6557000Y1538500D01*
X6550000Y1532500D01*
X6544000Y1523500D01*
X6540000Y1513000D01*
X6538000Y1501000D01*
Y1489000D01*
X6540000Y1477000D01*
X6544000Y1466500D01*
X6550000Y1457500D01*
X6557000Y1451500D01*
X6565000Y1450000D01*
G01X6557000Y1474000D02*
X6545000Y1450000D01*
G01X6517000Y1468000D02*
X6511000Y1457500D01*
X6503000Y1451500D01*
X6494000Y1450000D01*
X6486000Y1451500D01*
X6478000Y1459000D01*
X6473000Y1468000D01*
X6472000Y1477000D01*
X6474000Y1487500D01*
X6481000Y1495000D01*
X6488000Y1498000D01*
X6497000D01*
G01X6488000D02*
X6482000Y1502500D01*
X6477000Y1510000D01*
X6475000Y1519000D01*
X6477000Y1528000D01*
X6482000Y1535500D01*
X6491000Y1540000D01*
X6500000Y1538500D01*
X6509000Y1532500D01*
M02*
