G04 ================== begin FILE IDENTIFICATION RECORD ==================*
G04 Layout Name:  HY_IP5328_V11_211230.brd*
G04 Film Name:    SolderMask_Top*
G04 File Format:  Gerber RS274X*
G04 File Origin:  Cadence Allegro 17.2-S071*
G04 Origin Date:  Thu Dec 30 13:46:59 2021*
G04 *
G04 Layer:  PIN/SOLDERMASK_TOP*
G04 Layer:  PACKAGE GEOMETRY/SOLDERMASK_TOP*
G04 Layer:  BOARD GEOMETRY/SOLDERMASK_TOP*
G04 *
G04 Offset:    (0.0000 0.0000)*
G04 Mirror:    No*
G04 Mode:      Positive*
G04 Rotation:  0*
G04 FullContactRelief:  No*
G04 UndefLineWidth:     0.1524*
G04 ================== end FILE IDENTIFICATION RECORD ====================*
%FSLAX55Y55*MOMM*%
%IR0*IPPOS*OFA0.00000B0.00000*MIA0B0*SFA1.00000B1.00000*%
%ADD21R,.4X1.3*%
%ADD20R,.7X1.3*%
%ADD15R,.5X1.7*%
%ADD11R,.9X.9*%
%ADD19O,1.1X2.2*%
%ADD18O,1.1X1.7*%
%ADD23R,1.3X3.1*%
%ADD17R,1.5X1.3*%
%ADD22R,2.8X5.*%
%ADD14R,1.7X1.6*%
%ADD13R,1.9X1.7*%
%ADD25C,1.4*%
%ADD24R,1.7X1.9*%
%ADD10C,7.*%
%ADD12C,2.6*%
%ADD16C,1.75*%
G75*
%LPD*%
G75*
G36*
G01X3640000Y3670000D02*
Y3210000D01*
X4100000D01*
Y3670000D01*
X3640000D01*
G37*
G54D10*
X360000Y360000D03*
Y6240000D03*
X7440000Y360000D03*
Y6240000D03*
G54D11*
X230320Y910000D03*
X382720D03*
X230320Y1190000D03*
X382720D03*
Y1330000D03*
X230320D03*
X382720Y1050000D03*
X230320D03*
X382720Y1570000D03*
X230320D03*
G54D20*
X2530000Y718450D03*
X2450000D03*
X3090000D03*
X3010000D03*
G54D12*
X300640Y2694300D03*
Y4820000D03*
X7500640Y2694300D03*
Y4820000D03*
G54D21*
X2745000Y718450D03*
X2695000D03*
X2645000D03*
X2595000D03*
X2945000D03*
X2895000D03*
X2845000D03*
X2795000D03*
G54D13*
X980000Y220000D03*
X1820000D03*
G54D22*
X3752500Y1120000D03*
X5147500D03*
X5652500D03*
X7047500D03*
G54D14*
X1070000Y480000D03*
X1730000D03*
G54D23*
X4100000Y1470000D03*
X4350000D03*
X4550000D03*
X4800000D03*
X6000000D03*
X6250000D03*
X6450000D03*
X6700000D03*
G54D24*
X5610000Y6240000D03*
X5890000D03*
G54D15*
X1335000Y530000D03*
X1270000D03*
X1530000D03*
X1465000D03*
X1400000D03*
G54D16*
X1535000Y6440000D03*
X2285000D03*
G54D25*
X6587000Y6240000D03*
X6333000D03*
G54D17*
X1690000D03*
X2130000D03*
G54D18*
X2338000Y196450D03*
X3202000D03*
G54D19*
X2338000Y614450D03*
X3202000D03*
M02*
