G04 ================== begin FILE IDENTIFICATION RECORD ==================*
G04 Layout Name:  HY_IP5328_V11_211230.brd*
G04 Film Name:    SolderMask_Bottom*
G04 File Format:  Gerber RS274X*
G04 File Origin:  Cadence Allegro 17.2-S071*
G04 Origin Date:  Thu Dec 30 13:46:59 2021*
G04 *
G04 Layer:  PIN/SOLDERMASK_BOTTOM*
G04 Layer:  PACKAGE GEOMETRY/SOLDERMASK_BOTTOM*
G04 Layer:  BOARD GEOMETRY/SOLDERMASK_BOTTOM*
G04 *
G04 Offset:    (0.0000 0.0000)*
G04 Mirror:    No*
G04 Mode:      Positive*
G04 Rotation:  0*
G04 FullContactRelief:  No*
G04 UndefLineWidth:     0.1524*
G04 ================== end FILE IDENTIFICATION RECORD ====================*
%FSLAX55Y55*MOMM*%
%IR0*IPPOS*OFA0.00000B0.00000*MIA0B0*SFA1.00000B1.00000*%
%AMMACRO15*
4,1,28,1.24,-1.325,
1.24,1.325,
.825,1.325,
.825,1.625,
.195,1.625,
.195,1.325,
-.94,1.325,
-.94,1.275,
-1.24,1.275,
-1.24,.675,
-.94,.675,
-.94,.625,
-1.24,.625,
-1.24,.025,
-.94,.025,
-.94,-.025,
-1.24,-.025,
-1.24,-.625,
-.94,-.625,
-.94,-.675,
-1.24,-.675,
-1.24,-1.275,
-.94,-1.275,
-.94,-1.325,
.195,-1.325,
.195,-1.625,
.825,-1.625,
.825,-1.325,
1.24,-1.325,
0.0*
%
%ADD15MACRO15*%
%ADD14R,.9X.9*%
%ADD20O,1.1X2.2*%
%ADD28R,1.3X1.1*%
%ADD13R,1.1X1.3*%
%ADD19O,1.1X1.7*%
%ADD25R,1.9X3.3*%
%AMMACRO27*
4,1,20,1.885,-2.4,
1.885,-2.255,
2.435,-2.255,
2.435,-1.555,
1.885,-1.555,
1.885,-.985,
2.435,-.985,
2.435,-.285,
1.885,-.285,
1.885,.285,
2.435,.285,
2.435,.985,
1.885,.985,
1.885,1.555,
2.435,1.555,
2.435,2.255,
1.885,2.255,
1.885,2.4,
-2.435,2.4,
-2.435,-2.4,
1.885,-2.4,
0.0*
%
%ADD27MACRO27*%
%ADD12R,.6X.7*%
%ADD29C,1.4*%
%ADD21R,.7X.6*%
%ADD26R,.8X.7*%
%ADD22R,4.6X4.6*%
%ADD10C,7.*%
%ADD23R,.9X.35*%
%ADD11C,2.6*%
%ADD24R,.35X.9*%
%ADD16R,.9X.45*%
%ADD18C,1.75*%
%ADD17R,2.65X3.65*%
%LPD*%
G75*
G54D10*
X360000Y360000D03*
Y6240000D03*
X7440000Y360000D03*
Y6240000D03*
G54D11*
X300640Y2694300D03*
Y4820000D03*
X7500640Y2694300D03*
Y4820000D03*
G54D20*
X2338000Y614450D03*
X3202000D03*
G54D21*
X3240000Y3815000D03*
Y3665000D03*
Y3575000D03*
Y3905000D03*
X3550000Y4115000D03*
Y4025000D03*
X4050000D03*
Y4115000D03*
X3930000Y4025000D03*
Y4115000D03*
G54D12*
X675000Y1330000D03*
X585000D03*
Y1190000D03*
X675000D03*
X585000Y1050000D03*
X675000D03*
X585000Y1570000D03*
X675000D03*
X2105000Y1050000D03*
X2015000D03*
X3195000Y2970000D03*
X3515000Y1050000D03*
X3425000D03*
X3285000Y2970000D03*
G54D22*
X3870640Y3438220D03*
G54D13*
X1241600Y1160000D03*
X1038400D03*
X2338400D03*
X2541600D03*
X3174360Y4220000D03*
X2971160D03*
X3174360Y4600000D03*
X2971160D03*
X3174360Y4408220D03*
X2971160D03*
X3648400Y1650000D03*
X3851600D03*
X5548400D03*
X5751600D03*
G54D23*
X3570640Y3313220D03*
Y3263220D03*
Y3213220D03*
Y3663220D03*
Y3613220D03*
Y3563220D03*
Y3513220D03*
Y3463220D03*
Y3413220D03*
Y3363220D03*
X4170640Y3213220D03*
Y3263220D03*
Y3313220D03*
Y3363220D03*
Y3413220D03*
Y3463220D03*
Y3513220D03*
Y3563220D03*
Y3613220D03*
Y3663220D03*
G54D14*
X1290000Y3593800D03*
Y3746200D03*
X1460000Y3593800D03*
Y3746200D03*
X1630000Y3593800D03*
Y3746200D03*
X4180000Y4196200D03*
Y4043800D03*
X4320000Y4196200D03*
Y4043800D03*
G54D24*
X3645640Y3138220D03*
X3695640D03*
Y3738220D03*
X3645640D03*
X3745640Y3138220D03*
X3795640D03*
X3845640D03*
X3895640D03*
X3945640D03*
X3995640D03*
X4045640D03*
X4095640D03*
Y3738220D03*
X4045640D03*
X3995640D03*
X3945640D03*
X3895640D03*
X3845640D03*
X3795640D03*
X3745640D03*
G54D15*
X1619000Y1160000D03*
X3009000D03*
G54D16*
X1820000Y1062500D03*
Y1127500D03*
Y1192500D03*
Y1257500D03*
X3210000Y1062500D03*
Y1127500D03*
Y1192500D03*
Y1257500D03*
G54D25*
X3430000Y4500000D03*
X4070000D03*
G54D17*
X1900000Y3438220D03*
X2940000D03*
G54D26*
X4107500Y1903500D03*
Y1776500D03*
Y1649500D03*
Y2030500D03*
X6007500Y1903500D03*
Y1776500D03*
Y1649500D03*
Y2030500D03*
G54D18*
X1535000Y6440000D03*
X2285000D03*
G54D27*
X4473500Y1840000D03*
X6373500D03*
G54D19*
X2338000Y196450D03*
X3202000D03*
G54D28*
X4320000Y4601600D03*
Y4398400D03*
G54D29*
X6587000Y6240000D03*
X6333000D03*
M02*
