M48
METRIC,TZ
T01C.6
%
G90
F1
M16
T01
M16
G00X229990Y2080000
G40
M15
G01X370010Y2080000
M16
G00X229990Y1100000
G40
M15
G01X370010Y1100000
M16
G00X969990Y1989990
G40
M15
G01X1110010Y1989990
M16
G00X969990Y1460000
G40
M15
G01X1110010Y1460000
M16
G00X969990Y1140000
G40
M15
G01X1110010Y1140000
M16
G00X10829990Y2720000
G40
M15
G01X10970010Y2720000
M16
G00X10829990Y3700000
G40
M15
G01X10970010Y3700000
M16
G00X10089980Y2810000
G40
M15
G01X10230000Y2810000
M16
G00X10089980Y3339990
G40
M15
G01X10230000Y3339990
M16
G00X10089980Y3660000
G40
M15
G01X10230000Y3660000
M16
G00X8533000Y570980
G40
M15
G01X8533000Y681000
M16
G00X9397000Y570980
G40
M15
G01X9397000Y681000
M16
G00X8533000Y178000
G40
M15
G01X8533000Y238000
M16
G00X9397000Y178000
G40
M15
G01X9397000Y238000
M16
G00X4282990Y570980
G40
M15
G01X4282990Y681000
M16
G00X5146990Y570980
G40
M15
G01X5146990Y681000
M16
G00X4282990Y178000
G40
M15
G01X4282990Y238000
M16
G00X5146990Y178000
G40
M15
G01X5146990Y238000
M16
G40
M30
