G04 ================== begin FILE IDENTIFICATION RECORD ==================*
G04 Layout Name:  G:/github/MBED-TOOLS/HARDWARE/HY_SW3518S_V11/PCB/HY_SW3518S_V11.brd*
G04 Film Name:    SilkScreen_Top*
G04 File Format:  Gerber RS274X*
G04 File Origin:  Cadence Allegro 17.2-S079*
G04 Origin Date:  Sat Jul 08 17:13:57 2023*
G04 *
G04 Layer:  PACKAGE GEOMETRY/SILKSCREEN_TOP*
G04 Layer:  BOARD GEOMETRY/SILKSCREEN_TOP*
G04 *
G04 Offset:    (0.0000 0.0000)*
G04 Mirror:    No*
G04 Mode:      Positive*
G04 Rotation:  0*
G04 FullContactRelief:  No*
G04 UndefLineWidth:     0.1524*
G04 ================== end FILE IDENTIFICATION RECORD ====================*
%FSLAX55Y55*MOMM*%
%IR0*IPPOS*OFA0.00000B0.00000*MIA0B0*SFA1.00000B1.00000*%
%ADD10C,.2*%
%ADD11C,.2032*%
%ADD12C,.254*%
%ADD13C,.1524*%
G75*
%LPD*%
G75*
G36*
G01X0Y1560000D02*
Y1360000D01*
X100000D01*
Y1560000D01*
X0D01*
G37*
G36*
G01X2220000Y3282500D02*
G03I-30000J0D01*
G37*
G36*
G01X3535000Y1670000D02*
G03I-30000J0D01*
G37*
G36*
G01X3550000Y2592500D02*
G03I-30000J0D01*
G37*
G36*
G01X4250000Y1290000D02*
Y1370000D01*
X4210000Y1330000D01*
X4250000Y1290000D01*
G37*
G36*
G01Y1430000D02*
Y1510000D01*
X4210000Y1470000D01*
X4250000Y1430000D01*
G37*
G36*
G01X4240000Y2592500D02*
G03I-30000J0D01*
G37*
G36*
G01X5110000Y3477500D02*
G03I-30000J0D01*
G37*
G36*
G01X6470000Y3282500D02*
G03I-30000J0D01*
G37*
G36*
G01X7785000Y1670000D02*
G03I-30000J0D01*
G37*
G36*
G01X7800000Y2592500D02*
G03I-30000J0D01*
G37*
G36*
G01X8490000D02*
G03I-30000J0D01*
G37*
G36*
G01X8500000Y1430000D02*
Y1510000D01*
X8460000Y1470000D01*
X8500000Y1430000D01*
G37*
G36*
G01Y1290000D02*
Y1370000D01*
X8460000Y1330000D01*
X8500000Y1290000D01*
G37*
G36*
G01X9360000Y3477500D02*
G03I-30000J0D01*
G37*
G36*
G01X11200000Y3240000D02*
Y3440000D01*
X11100000D01*
Y3240000D01*
X11200000D01*
G37*
G54D10*
G01X100000Y1460000D02*
Y1760000D01*
X0D01*
Y1160000D01*
X100000D01*
Y1460000D01*
G01X140000Y2100000D02*
X0D01*
Y1080000D01*
X140000D01*
G01X760000Y2100000D02*
Y2000000D01*
X860000D01*
Y1180000D01*
X760000D01*
Y1080000D01*
G01X460000D02*
X900000D01*
G01X1170000Y2060000D02*
Y2100000D01*
X460000D01*
G01X1170000Y1210000D02*
Y1390000D01*
G01Y1530000D02*
Y1920000D01*
G01X1300000Y250000D02*
Y830000D01*
X1580000D01*
Y250000D01*
X1300000D01*
G01Y830000D02*
Y860000D01*
X1580000D01*
Y830000D01*
G01X1330000Y1080000D02*
Y1560000D01*
X1550000D01*
Y1080000D01*
X1330000D01*
G01X2050000Y2790000D02*
X1890000D01*
X1790000Y2690000D01*
Y2130000D01*
X2050000D01*
G01X1800000Y3240000D02*
Y3220000D01*
X1910000D01*
G01Y3540000D02*
X1800000D01*
Y3520000D01*
G01X3350000Y870000D02*
Y0D01*
X1990000D01*
Y860000D01*
G01X2000000Y1390000D02*
X2240000D01*
G01X2190000Y2130000D02*
X2450000D01*
Y2690000D01*
X2350000Y2790000D01*
X2190000D01*
G01X2010000Y3220000D02*
X2120000D01*
Y3240000D01*
G01Y3510000D02*
Y3540000D01*
X2010000D01*
G01X2290000Y4180000D02*
Y4020000D01*
G01X2190000D02*
Y4180000D01*
G01X2290000D02*
G03X2190000I-50000J-50000D01*
G01Y4020000D02*
G03X2290000I50000J50000D01*
G01X2490000Y1390000D02*
X2400000D01*
G01X2700000Y2210000D02*
G02Y2430000I292500J110000D01*
G01X3180000Y2210000D02*
X2700000D01*
G01X2990000Y2060000D02*
Y2180000D01*
X2710000D01*
Y2060000D01*
X2990000D01*
G01X2700000Y2430000D02*
X3180000D01*
G01X2400000Y3210000D02*
G02Y3430000I292500J110000D01*
G01D02*
X2880000D01*
G01Y3210000D02*
X2400000D01*
G01X2650000Y4510000D02*
X2490000D01*
X2390000Y4410000D01*
Y3850000D01*
X2650000D01*
G01X2400000Y3520000D02*
G02Y3740000I292500J110000D01*
G01D02*
X2880000D01*
G01Y3520000D02*
X2400000D01*
G01X2940000Y1390000D02*
X2850000D01*
G01X3340000D02*
X3100000D01*
G01X3010000Y1810000D02*
X3190000D01*
Y1710000D01*
X3010000D01*
Y1810000D01*
G01X2980000Y1830000D02*
X2800000D01*
Y1930000D01*
X2980000D01*
Y1830000D01*
G01X3020000Y1930000D02*
X3180000D01*
G01Y1830000D02*
X3020000D01*
G01Y1930000D02*
G03Y1830000I50000J-50000D01*
G01X3180000Y1950000D02*
X3020000D01*
G01Y2050000D02*
G03Y1950000I50000J-50000D01*
G01X3190000Y2070000D02*
X3010000D01*
Y2170000D01*
X3190000D01*
Y2070000D01*
G01X3020000Y2050000D02*
X3180000D01*
G01X2880000Y3430000D02*
G02Y3210000I-292500J-110000D01*
G01X2790000Y3850000D02*
X3050000D01*
Y4410000D01*
X2950000Y4510000D01*
X2790000D01*
G01X2880000Y3740000D02*
G02Y3520000I-292500J-110000D01*
G01X3415000Y1790000D02*
Y1730000D01*
X3475000D01*
G01X3180000Y1830000D02*
G03Y1930000I-50000J50000D01*
G01Y1950000D02*
G03Y2050000I-50000J50000D01*
G01X3475000Y2150000D02*
X3415000D01*
Y2090000D01*
G01X3480000Y2310000D02*
Y2470000D01*
G01Y2310000D02*
G03X3580000I50000J50000D01*
G01X3180000Y2430000D02*
G02Y2210000I-292500J-110000D01*
G01X3340000Y2530000D02*
X3450000D01*
Y2550000D01*
G01X3130000D02*
Y2530000D01*
X3240000D01*
G01X3580000Y2470000D02*
G03X3480000I-50000J-50000D01*
G01X3240000Y2850000D02*
X3130000D01*
Y2830000D01*
G01X3450000Y2820000D02*
Y2850000D01*
X3340000D01*
G01X3610000Y4270000D02*
G02X3390000I-110000J292500D01*
G01D02*
Y4750000D01*
G01D02*
G02X3610000I110000J-292500D01*
G01Y1300000D02*
Y1460000D01*
G01X3710000D02*
Y1300000D01*
G01X3610000D02*
G03X3710000I50000J50000D01*
G01Y1460000D02*
G03X3610000I-50000J-50000D01*
G01X3730000Y1300000D02*
Y1460000D01*
G01X3830000D02*
Y1300000D01*
G01X3730000D02*
G03X3830000I50000J50000D01*
G01Y1460000D02*
G03X3730000I-50000J-50000D01*
G01X3775000Y1730000D02*
X3835000D01*
Y1790000D01*
G01Y2090000D02*
Y2150000D01*
X3775000D01*
G01X3580000Y2470000D02*
Y2310000D01*
G01X3810000D02*
Y2470000D01*
G01Y2310000D02*
G03X3910000I50000J50000D01*
G01X3820000Y2550000D02*
Y2530000D01*
X3930000D01*
G01X3910000Y2470000D02*
G03X3810000I-50000J-50000D01*
G01X3930000Y2850000D02*
X3820000D01*
Y2830000D01*
G01X3830000Y4540000D02*
Y4380000D01*
G01X3730000D02*
Y4540000D01*
G01X3830000D02*
G03X3730000I-50000J-50000D01*
G01Y4380000D02*
G03X3830000I50000J50000D01*
G01X3610000Y4750000D02*
Y4270000D01*
G01X4265000Y110000D02*
Y0D01*
X5165000D01*
Y110000D01*
G01X4265000Y500000D02*
Y310000D01*
G01Y750000D02*
X4335000D01*
G01X4090000Y1270000D02*
X4060000D01*
Y1390000D01*
X4090000D01*
G01X4370000Y1270000D02*
Y1390000D01*
X4090000D01*
Y1270000D01*
X4370000D01*
G01X4090000Y1410000D02*
X4060000D01*
Y1530000D01*
X4090000D01*
G01X4370000Y1410000D02*
Y1530000D01*
X4090000D01*
Y1410000D01*
X4370000D01*
G01X4100000Y1890000D02*
G02Y2110000I292500J110000D01*
G01X4580000Y1890000D02*
X4100000D01*
G01X3910000Y2470000D02*
Y2310000D01*
G01X4100000Y2110000D02*
X4580000D01*
G01X4100000Y2210000D02*
G02Y2430000I292500J110000D01*
G01X4580000Y2210000D02*
X4100000D01*
G01X4030000Y2530000D02*
X4140000D01*
Y2550000D01*
G01X4100000Y2430000D02*
X4580000D01*
G01X4140000Y2820000D02*
Y2850000D01*
X4030000D01*
G01X4490000Y4510000D02*
X4330000D01*
X4230000Y4410000D01*
Y3850000D01*
X4490000D01*
G01X4570000Y1280000D02*
X4390000D01*
Y1380000D01*
X4570000D01*
Y1280000D01*
G01Y1420000D02*
X4390000D01*
Y1520000D01*
X4570000D01*
Y1420000D01*
G01X4580000Y2110000D02*
G02Y1890000I-292500J-110000D01*
G01Y2430000D02*
G02Y2210000I-292500J-110000D01*
G01X4410000Y3210000D02*
G02Y3430000I292500J110000D01*
G01X4890000Y3210000D02*
X4410000D01*
G01Y3430000D02*
X4890000D01*
G01X4630000Y3850000D02*
X4890000D01*
Y4410000D01*
X4790000Y4510000D01*
X4630000D01*
G01X4410000Y3520000D02*
G02Y3740000I292500J110000D01*
G01X4890000Y3520000D02*
X4410000D01*
G01Y3740000D02*
X4890000D01*
G01Y3430000D02*
G02Y3210000I-292500J-110000D01*
G01Y3740000D02*
G02Y3520000I-292500J-110000D01*
G01X4980000Y4020000D02*
Y4180000D01*
G01X5080000D02*
G03X4980000I-50000J-50000D01*
G01Y4020000D02*
G03X5080000I50000J50000D01*
G01X5165000Y310000D02*
Y500000D01*
G01Y750000D02*
X5095000D01*
G01X5360000Y3220000D02*
X5470000D01*
Y3240000D01*
G01X5150000Y3250000D02*
Y3220000D01*
X5260000D01*
G01Y3540000D02*
X5150000D01*
Y3520000D01*
G01X5470000D02*
Y3540000D01*
X5360000D01*
G01X5080000Y4180000D02*
Y4020000D01*
G01X6300000Y2790000D02*
X6140000D01*
X6040000Y2690000D01*
Y2130000D01*
X6300000D01*
G01X6050000Y3240000D02*
Y3220000D01*
X6160000D01*
G01Y3540000D02*
X6050000D01*
Y3520000D01*
G01X7600000Y870000D02*
Y0D01*
X6240000D01*
Y860000D01*
G01X6250000Y1390000D02*
X6490000D01*
G01X6440000Y2130000D02*
X6700000D01*
Y2690000D01*
X6600000Y2790000D01*
X6440000D01*
G01X6260000Y3220000D02*
X6370000D01*
Y3240000D01*
G01Y3510000D02*
Y3540000D01*
X6260000D01*
G01X6540000Y4180000D02*
Y4020000D01*
G01X6440000D02*
Y4180000D01*
G01X6540000D02*
G03X6440000I-50000J-50000D01*
G01Y4020000D02*
G03X6540000I50000J50000D01*
G01X6740000Y1390000D02*
X6650000D01*
G01X6950000Y2210000D02*
G02Y2430000I292500J110000D01*
G01X6650000Y3210000D02*
G02Y3430000I292500J110000D01*
G01D02*
X7130000D01*
G01Y3210000D02*
X6650000D01*
G01X6900000Y4510000D02*
X6740000D01*
X6640000Y4410000D01*
Y3850000D01*
X6900000D01*
G01X6650000Y3520000D02*
G02Y3740000I292500J110000D01*
G01D02*
X7130000D01*
G01Y3520000D02*
X6650000D01*
G01X7190000Y1390000D02*
X7100000D01*
G01X7230000Y1830000D02*
X7050000D01*
Y1930000D01*
X7230000D01*
Y1830000D01*
G01X7260000Y1810000D02*
X7440000D01*
Y1710000D01*
X7260000D01*
Y1810000D01*
G01X7270000Y1930000D02*
X7430000D01*
G01Y1830000D02*
X7270000D01*
G01Y1930000D02*
G03Y1830000I50000J-50000D01*
G01X7430000Y1950000D02*
X7270000D01*
G01Y2050000D02*
G03Y1950000I50000J-50000D01*
G01X7440000Y2070000D02*
X7260000D01*
Y2170000D01*
X7440000D01*
Y2070000D01*
G01X7270000Y2050000D02*
X7430000D01*
G01Y2210000D02*
X6950000D01*
G01X7240000Y2060000D02*
Y2180000D01*
X6960000D01*
Y2060000D01*
X7240000D01*
G01X6950000Y2430000D02*
X7430000D01*
G01X7130000Y3430000D02*
G02Y3210000I-292500J-110000D01*
G01X7040000Y3850000D02*
X7300000D01*
Y4410000D01*
X7200000Y4510000D01*
X7040000D01*
G01X7130000Y3740000D02*
G02Y3520000I-292500J-110000D01*
G01X7590000Y1390000D02*
X7350000D01*
G01X7665000Y1790000D02*
Y1730000D01*
X7725000D01*
G01X7430000Y1830000D02*
G03Y1930000I-50000J50000D01*
G01Y1950000D02*
G03Y2050000I-50000J50000D01*
G01X7725000Y2150000D02*
X7665000D01*
Y2090000D01*
G01X7430000Y2430000D02*
G02Y2210000I-292500J-110000D01*
G01X7590000Y2530000D02*
X7700000D01*
Y2550000D01*
G01X7380000D02*
Y2530000D01*
X7490000D01*
G01Y2850000D02*
X7380000D01*
Y2830000D01*
G01X7700000Y2820000D02*
Y2850000D01*
X7590000D01*
G01X7860000Y4270000D02*
G02X7640000I-110000J292500D01*
G01D02*
Y4750000D01*
G01D02*
G02X7860000I110000J-292500D01*
G01X7980000Y1300000D02*
Y1460000D01*
G01Y1300000D02*
G03X8080000I50000J50000D01*
G01Y1460000D02*
G03X7980000I-50000J-50000D01*
G01X7860000Y1300000D02*
Y1460000D01*
G01X7960000D02*
Y1300000D01*
G01X7860000D02*
G03X7960000I50000J50000D01*
G01Y1460000D02*
G03X7860000I-50000J-50000D01*
G01X8025000Y1730000D02*
X8085000D01*
Y1790000D01*
G01Y2090000D02*
Y2150000D01*
X8025000D01*
G01X8060000Y2310000D02*
Y2470000D01*
G01Y2310000D02*
G03X8160000I50000J50000D01*
G01X7730000D02*
Y2470000D01*
G01X7830000D02*
Y2310000D01*
G01X7730000D02*
G03X7830000I50000J50000D01*
G01X8070000Y2550000D02*
Y2530000D01*
X8180000D01*
G01X8160000Y2470000D02*
G03X8060000I-50000J-50000D01*
G01X7830000D02*
G03X7730000I-50000J-50000D01*
G01X8180000Y2850000D02*
X8070000D01*
Y2830000D01*
G01X7980000Y4380000D02*
Y4540000D01*
G01X8080000D02*
G03X7980000I-50000J-50000D01*
G01Y4380000D02*
G03X8080000I50000J50000D01*
G01X7860000Y4750000D02*
Y4270000D01*
G01X8340000Y1410000D02*
X8310000D01*
Y1530000D01*
X8340000D01*
G01X8620000Y1410000D02*
Y1530000D01*
X8340000D01*
Y1410000D01*
X8620000D01*
G01X8340000Y1270000D02*
X8310000D01*
Y1390000D01*
X8340000D01*
G01X8620000Y1270000D02*
Y1390000D01*
X8340000D01*
Y1270000D01*
X8620000D01*
G01X8080000Y1460000D02*
Y1300000D01*
G01X8350000Y1890000D02*
G02Y2110000I292500J110000D01*
G01X8830000Y1890000D02*
X8350000D01*
G01X8160000Y2470000D02*
Y2310000D01*
G01X8350000Y2110000D02*
X8830000D01*
G01X8350000Y2210000D02*
G02Y2430000I292500J110000D01*
G01X8830000Y2210000D02*
X8350000D01*
G01X8280000Y2530000D02*
X8390000D01*
Y2550000D01*
G01X8350000Y2430000D02*
X8830000D01*
G01X8390000Y2820000D02*
Y2850000D01*
X8280000D01*
G01X8080000Y4540000D02*
Y4380000D01*
G01X8515000Y110000D02*
Y0D01*
X9415000D01*
Y110000D01*
G01X8515000Y500000D02*
Y310000D01*
G01Y750000D02*
X8585000D01*
G01X8820000Y1420000D02*
X8640000D01*
Y1520000D01*
X8820000D01*
Y1420000D01*
G01Y1280000D02*
X8640000D01*
Y1380000D01*
X8820000D01*
Y1280000D01*
G01X8830000Y2110000D02*
G02Y1890000I-292500J-110000D01*
G01Y2430000D02*
G02Y2210000I-292500J-110000D01*
G01X8660000Y3210000D02*
G02Y3430000I292500J110000D01*
G01X9140000Y3210000D02*
X8660000D01*
G01Y3430000D02*
X9140000D01*
G01X8740000Y4510000D02*
X8580000D01*
X8480000Y4410000D01*
Y3850000D01*
X8740000D01*
G01X8660000Y3520000D02*
G02Y3740000I292500J110000D01*
G01X9140000Y3520000D02*
X8660000D01*
G01Y3740000D02*
X9140000D01*
G01Y3430000D02*
G02Y3210000I-292500J-110000D01*
G01X8880000Y3850000D02*
X9140000D01*
Y4410000D01*
X9040000Y4510000D01*
X8880000D01*
G01X9140000Y3740000D02*
G02Y3520000I-292500J-110000D01*
G01X9415000Y310000D02*
Y500000D01*
G01Y750000D02*
X9345000D01*
G01X9400000Y3250000D02*
Y3220000D01*
X9510000D01*
G01Y3540000D02*
X9400000D01*
Y3520000D01*
G01X9330000Y4180000D02*
Y4020000D01*
G01X9230000D02*
Y4180000D01*
G01X9330000D02*
G03X9230000I-50000J-50000D01*
G01Y4020000D02*
G03X9330000I50000J50000D01*
G01X9610000Y3220000D02*
X9720000D01*
Y3240000D01*
G01Y3520000D02*
Y3540000D01*
X9610000D01*
G01X10030000Y2740000D02*
Y2700000D01*
X10740000D01*
G01X10440000D02*
Y2800000D01*
X10340000D01*
Y3620000D01*
X10440000D01*
Y3720000D01*
G01X10030000Y3270000D02*
Y2880000D01*
G01Y3590000D02*
Y3410000D01*
G01X10740000Y3720000D02*
X10300000D01*
G01X11060000Y2700000D02*
X11200000D01*
Y3720000D01*
X11060000D01*
G01X11100000Y3340000D02*
Y3040000D01*
X11200000D01*
Y3640000D01*
X11100000D01*
Y3340000D01*
G54D11*
G01X3435000Y2970000D02*
X3115000D01*
Y4170000D01*
X3435000D01*
G01X3835000D02*
X4155000D01*
Y2970000D01*
X3835000D01*
G01X3635000Y3470000D02*
G02Y3570000I0J50000D01*
G01Y3370000D02*
G02Y3470000I0J50000D01*
G01Y3270000D02*
G02Y3370000I0J50000D01*
G01Y3200000D02*
Y3270000D01*
G01Y3870000D02*
Y3940000D01*
G01Y3570000D02*
G02Y3670000I0J50000D01*
G01D02*
G02Y3770000I0J50000D01*
G01D02*
G02Y3870000I0J50000D01*
G01X7685000Y2970000D02*
X7365000D01*
Y4170000D01*
X7685000D01*
G01X7885000Y3470000D02*
G02Y3570000I0J50000D01*
G01Y3370000D02*
G02Y3470000I0J50000D01*
G01Y3270000D02*
G02Y3370000I0J50000D01*
G01Y3200000D02*
Y3270000D01*
G01Y3870000D02*
Y3940000D01*
G01Y3570000D02*
G02Y3670000I0J50000D01*
G01D02*
G02Y3770000I0J50000D01*
G01D02*
G02Y3870000I0J50000D01*
G01X8085000Y4170000D02*
X8405000D01*
Y2970000D01*
X8085000D01*
G54D12*
G01X1770000Y3660000D02*
Y4540000D01*
X2150000D01*
Y3660000D01*
X1770000D01*
G01X5120000D02*
Y4540000D01*
X5500000D01*
Y3660000D01*
X5120000D01*
G01X6020000D02*
Y4540000D01*
X6400000D01*
Y3660000D01*
X6020000D01*
G01X9370000D02*
Y4540000D01*
X9750000D01*
Y3660000D01*
X9370000D01*
G54D13*
G01X838000Y2153500D02*
X844000Y2146000D01*
X851000Y2141500D01*
X860000Y2140000D01*
X869000Y2143000D01*
X876000Y2149000D01*
X881000Y2159500D01*
X882000Y2171500D01*
X880000Y2183500D01*
X875000Y2191000D01*
X868000Y2197000D01*
X861000Y2198500D01*
X854000Y2197000D01*
X845000Y2191000D01*
X848000Y2230000D01*
X875000D01*
G01X917000Y2170000D02*
X943000D01*
G01X978000Y2158000D02*
X984000Y2147500D01*
X992000Y2141500D01*
X1001000Y2140000D01*
X1009000Y2141500D01*
X1017000Y2149000D01*
X1022000Y2158000D01*
X1023000Y2167000D01*
X1021000Y2177500D01*
X1014000Y2185000D01*
X1007000Y2188000D01*
X998000D01*
G01X1007000D02*
X1013000Y2192500D01*
X1018000Y2200000D01*
X1020000Y2209000D01*
X1018000Y2218000D01*
X1013000Y2225500D01*
X1004000Y2230000D01*
X995000Y2228500D01*
X986000Y2222500D01*
G01X1051000Y2177500D02*
X1058000Y2188000D01*
X1064000Y2194000D01*
X1072000Y2197000D01*
X1079000Y2194000D01*
X1084000Y2188000D01*
X1088000Y2179000D01*
X1089000Y2168500D01*
X1088000Y2159500D01*
X1084000Y2150500D01*
X1078000Y2143000D01*
X1071000Y2140000D01*
X1063000Y2143000D01*
X1056000Y2152000D01*
X1052000Y2165500D01*
X1051000Y2180500D01*
X1053000Y2200000D01*
X1056000Y2210500D01*
X1061000Y2221000D01*
X1068000Y2228500D01*
X1075000Y2230000D01*
X1082000Y2227000D01*
X1087000Y2219500D01*
G01X1115000Y2230000D02*
X1140000Y2140000D01*
X1165000Y2230000D01*
G01X10362000Y2646500D02*
X10356000Y2654000D01*
X10349000Y2658500D01*
X10340000Y2660000D01*
X10331000Y2657000D01*
X10324000Y2651000D01*
X10319000Y2640500D01*
X10318000Y2628500D01*
X10320000Y2616500D01*
X10325000Y2609000D01*
X10332000Y2603000D01*
X10339000Y2601500D01*
X10346000Y2603000D01*
X10355000Y2609000D01*
X10352000Y2570000D01*
X10325000D01*
G01X10283000Y2630000D02*
X10257000D01*
G01X10222000Y2642000D02*
X10216000Y2652500D01*
X10208000Y2658500D01*
X10199000Y2660000D01*
X10191000Y2658500D01*
X10183000Y2651000D01*
X10178000Y2642000D01*
X10177000Y2633000D01*
X10179000Y2622500D01*
X10186000Y2615000D01*
X10193000Y2612000D01*
X10202000D01*
G01X10193000D02*
X10187000Y2607500D01*
X10182000Y2600000D01*
X10180000Y2591000D01*
X10182000Y2582000D01*
X10187000Y2574500D01*
X10196000Y2570000D01*
X10205000Y2571500D01*
X10214000Y2577500D01*
G01X10149000Y2622500D02*
X10142000Y2612000D01*
X10136000Y2606000D01*
X10128000Y2603000D01*
X10121000Y2606000D01*
X10116000Y2612000D01*
X10112000Y2621000D01*
X10111000Y2631500D01*
X10112000Y2640500D01*
X10116000Y2649500D01*
X10122000Y2657000D01*
X10129000Y2660000D01*
X10137000Y2657000D01*
X10144000Y2648000D01*
X10148000Y2634500D01*
X10149000Y2619500D01*
X10147000Y2600000D01*
X10144000Y2589500D01*
X10139000Y2579000D01*
X10132000Y2571500D01*
X10125000Y2570000D01*
X10118000Y2573000D01*
X10113000Y2580500D01*
G01X10085000Y2570000D02*
X10060000Y2660000D01*
X10035000Y2570000D01*
M02*
