M48
METRIC,TZ
T01C.254
T02C.8
T03C.9
T04C1.1
T05C1.8
T06C2.3
;LEADER: 12 
;HEADER: 
;CODE  : ASCII 
;FILE  : CH340E_CAN_V10_230905-1-2.drl for board G:/github/MBED-TOOLS/HARDWARE/CH340E_CAN_V10_230905/PCB/#Taaaahz02976.tmp ... layers TOP and BOTTOM
;T01 Holesize 1. = 0.254000 Tolerance = +0.000000/-0.000000 PLATED MM Quantity = 37
;T02 Holesize 2. = 0.800000 Tolerance = +0.000000/-0.000000 PLATED MM Quantity = 4
;T03 Holesize 3. = 0.900000 Tolerance = +0.000000/-0.000000 PLATED MM Quantity = 4
;T04 Holesize 4. = 1.100000 Tolerance = +0.000000/-0.000000 PLATED MM Quantity = 4
;T05 Holesize 5. = 1.800000 Tolerance = +0.000000/-0.000000 PLATED MM Quantity = 2
;T06 Holesize 6. = 2.300000 Tolerance = +0.000000/-0.000000 PLATED MM Quantity = 4
%
G90
T01
X1040000Y130000
X1040000Y330000
X1240000Y330000
X1310000Y590000
X1500000Y590000
X1500000Y740000
X1320000Y890000
X1500000Y890000
X1320000Y1180000
X1320000Y1490000
X1750000Y1060000
X1750000Y890000
X1690000Y590000
X1780000Y330000
X1970000Y560000
X1970000Y740000
X1820000Y1490000
X2160000Y710000
X2190000Y1050000
X2320000Y1490000
X2440000Y1070000
X2485000Y960000
X2380000Y860000
X2485000Y490000
X2575000Y490000
X2760000Y500000
X2575000Y960000
X2573800Y1336200
X2820000Y1490000
X2990000Y1260000
X2990000Y990000
X2990000Y730000
X3130000Y320000
X3320000Y1490000
X3820000Y1490000
X3820000Y800000
X3820000Y300000
T02
X980000Y675000
X1180000Y675000
X1180000Y925000
X980000Y925000
T03
X460000Y450000
X460000Y700000
X460000Y900000
X460000Y1150000
T04
X2018000Y190000
X2272000Y190000
X2526000Y190000
X2780000Y190000
T05
X3660000Y546000
X3660000Y1054000
T06
X709000Y198000
X260000Y200000
X260000Y1400000
X709000Y1402000
M30
