G04 ================== begin FILE IDENTIFICATION RECORD ==================*
G04 Layout Name:  CH340E_CAN_V10_230905.brd*
G04 Film Name:    Drill_Legend*
G04 File Format:  Gerber RS274X*
G04 File Origin:  Cadence Allegro 17.2-S079*
G04 Origin Date:  Tue Sep 05 18:40:26 2023*
G04 *
G04 Layer:  MANUFACTURING/NCLEGEND-1-2*
G04 Layer:  MANUFACTURING/NCDRILL_LEGEND*
G04 Layer:  MANUFACTURING/NCDRILL_FIGURE*
G04 Layer:  BOARD GEOMETRY/DIMENSION*
G04 *
G04 Offset:    (0.0000 0.0000)*
G04 Mirror:    No*
G04 Mode:      Positive*
G04 Rotation:  0*
G04 FullContactRelief:  No*
G04 UndefLineWidth:     0.1524*
G04 ================== end FILE IDENTIFICATION RECORD ====================*
%FSLAX55Y55*MOMM*%
%IR0*IPPOS*OFA0.00000B0.00000*MIA0B0*SFA1.00000B1.00000*%
%AMMACRO10*
1,1,.1524,1.15,0.0*
20,1,.1524,1.15,0.0,0.0,-1.15,0.0*
1,1,.1524,0.0,-1.15*
20,1,.1524,0.0,-1.15,-1.15,0.0,0.0*
1,1,.1524,-1.15,0.0*
20,1,.1524,-1.15,0.0,0.0,1.15,0.0*
1,1,.1524,0.0,1.15*
20,1,.1524,0.0,1.15,1.15,0.0,0.0*
1,1,.1524,1.15,0.0*
%
%ADD10MACRO10*%
%AMMACRO15*
1,1,.1524,.372792,-.9*
20,1,.1524,.372792,-.9,-.372792,-.9,0.0*
1,1,.1524,-.372792,-.9*
20,1,.1524,-.372792,-.9,-.9,-.372792,0.0*
1,1,.1524,-.9,-.372792*
20,1,.1524,-.9,-.372792,-.9,.372792,0.0*
1,1,.1524,-.9,.372792*
20,1,.1524,-.9,.372792,-.372792,.9,0.0*
1,1,.1524,-.372792,.9*
20,1,.1524,-.372792,.9,.372792,.9,0.0*
1,1,.1524,.372792,.9*
20,1,.1524,.372792,.9,.9,.372792,0.0*
1,1,.1524,.9,.372792*
20,1,.1524,.9,.372792,.9,-.372792,0.0*
1,1,.1524,.9,-.372792*
20,1,.1524,.9,-.372792,.372792,-.9,0.0*
1,1,.1524,.372792,-.9*
%
%ADD15MACRO15*%
%AMMACRO13*
1,1,.1524,.4,.4*
20,1,.1524,.4,.4,.4,-.4,0.0*
1,1,.1524,.4,-.4*
20,1,.1524,.4,-.4,-.4,-.4,0.0*
1,1,.1524,-.4,-.4*
20,1,.1524,-.4,-.4,-.4,.4,0.0*
1,1,.1524,-.4,.4*
20,1,.1524,-.4,.4,.4,.4,0.0*
1,1,.1524,.4,.4*
%
%ADD13MACRO13*%
%AMMACRO14*
1,1,.1524,.127,0.0*
20,1,.1524,.127,0.0,-.127,0.0,0.0*
1,1,.1524,-.127,0.0*
1,1,.1524,0.0,.127*
20,1,.1524,0.0,.127,0.0,-.127,0.0*
1,1,.1524,0.0,-.127*
%
%ADD14MACRO14*%
%AMMACRO12*
1,1,.1524,0.0,.55*
20,1,.1524,0.0,.55,-.476314,.275,0.0*
1,1,.1524,-.476314,.275*
20,1,.1524,-.476314,.275,-.476314,-.275,0.0*
1,1,.1524,-.476314,-.275*
20,1,.1524,-.476314,-.275,0.0,-.55,0.0*
1,1,.1524,0.0,-.55*
20,1,.1524,0.0,-.55,.476314,-.275,0.0*
1,1,.1524,.476314,-.275*
20,1,.1524,.476314,-.275,.476314,.275,0.0*
1,1,.1524,.476314,.275*
20,1,.1524,.476314,.275,0.0,.55,0.0*
1,1,.1524,0.0,.55*
%
%ADD12MACRO12*%
%AMMACRO11*
1,1,.1524,.45,0.0*
20,1,.1524,.45,0.0,.225,.389711,0.0*
1,1,.1524,.225,.389711*
20,1,.1524,.225,.389711,-.225,.389711,0.0*
1,1,.1524,-.225,.389711*
20,1,.1524,-.225,.389711,-.45,0.0,0.0*
1,1,.1524,-.45,0.0*
20,1,.1524,-.45,0.0,-.225,-.389711,0.0*
1,1,.1524,-.225,-.389711*
20,1,.1524,-.225,-.389711,.225,-.389711,0.0*
1,1,.1524,.225,-.389711*
20,1,.1524,.225,-.389711,.45,0.0,0.0*
1,1,.1524,.45,0.0*
%
%ADD11MACRO11*%
%ADD16C,.1524*%
G75*
%LPD*%
G75*
G54D10*
X709000Y198000D03*
X260000Y200000D03*
X709000Y1402000D03*
X260000Y1400000D03*
X6341730Y-692500D03*
G54D11*
X460000Y450000D03*
Y700000D03*
Y900000D03*
Y1150000D03*
X6341730Y1212500D03*
G54D12*
X2018000Y190000D03*
X2272000D03*
X2780000D03*
X2526000D03*
X6341730Y577500D03*
G54D13*
X1180000Y675000D03*
X980000D03*
Y925000D03*
X1180000D03*
X6341730Y1847500D03*
G54D14*
X1500000Y740000D03*
Y590000D03*
X1690000D03*
X1310000D03*
X1970000Y740000D03*
Y560000D03*
X1040000Y130000D03*
Y330000D03*
X1780000D03*
X1240000D03*
X1320000Y890000D03*
X1500000D03*
X1750000D03*
Y1060000D03*
X1820000Y1490000D03*
X1320000D03*
Y1180000D03*
X2575000Y490000D03*
X3130000Y320000D03*
X2760000Y500000D03*
X2990000Y730000D03*
X2485000Y490000D03*
X2160000Y710000D03*
X2485000Y960000D03*
X2440000Y1070000D03*
X2380000Y860000D03*
X2990000Y990000D03*
Y1260000D03*
X2820000Y1490000D03*
X2320000D03*
X2190000Y1050000D03*
X2573800Y1336200D03*
X2575000Y960000D03*
X3820000Y800000D03*
Y300000D03*
X3320000Y1490000D03*
X3820000D03*
X6341730Y2482500D03*
G54D15*
X3660000Y546000D03*
Y1054000D03*
X6341730Y-57500D03*
G54D16*
G01X-1825250Y734750D02*
Y925250D01*
X-1853700Y887150D01*
G01Y734750D02*
X-1796810D01*
G01X-1679790Y814120D02*
X-1663200Y836350D01*
X-1648970Y849050D01*
X-1630010Y855400D01*
X-1613410Y849050D01*
X-1601560Y836350D01*
X-1592080Y817300D01*
X-1589710Y795070D01*
X-1592080Y776020D01*
X-1601560Y756970D01*
X-1615790Y741100D01*
X-1632380Y734750D01*
X-1651340Y741100D01*
X-1667940Y760140D01*
X-1677420Y788730D01*
X-1679790Y820470D01*
X-1675050Y861750D01*
X-1667940Y883980D01*
X-1656090Y906200D01*
X-1639490Y922080D01*
X-1622900Y925250D01*
X-1606300Y918900D01*
X-1594450Y903020D01*
G01X1843200Y-375250D02*
Y-184750D01*
X1755480Y-321270D01*
X1874020D01*
G01X2005250Y-184750D02*
X1986280Y-191100D01*
X1972060Y-206980D01*
X1962580Y-226020D01*
X1955470Y-251430D01*
X1953100Y-280000D01*
X1955470Y-308580D01*
X1962580Y-333980D01*
X1972060Y-353030D01*
X1986280Y-368900D01*
X2005250Y-375250D01*
X2024210Y-368900D01*
X2038440Y-353030D01*
X2047920Y-333980D01*
X2055030Y-308580D01*
X2057400Y-280000D01*
X2055030Y-251430D01*
X2047920Y-226020D01*
X2038440Y-206980D01*
X2024210Y-191100D01*
X2005250Y-184750D01*
G01X5479520Y2958750D02*
Y3276250D01*
X5629140D01*
G01X5574010Y3122800D02*
X5479520D01*
G01X5822050Y3276250D02*
X5916530D01*
G01X5869290D02*
Y2958750D01*
G01X5822050D02*
X5916530D01*
G01X6207870Y3117500D02*
X6286620D01*
Y3022250D01*
X6262990Y2990490D01*
X6235430Y2969330D01*
X6196060Y2958750D01*
X6156690Y2969330D01*
X6129130Y2990490D01*
X6105510Y3022250D01*
X6089760Y3059290D01*
X6081880Y3101620D01*
Y3138670D01*
X6089760Y3170410D01*
X6105510Y3207460D01*
X6129130Y3239210D01*
X6152750Y3260370D01*
X6184250Y3276250D01*
X6211810D01*
X6243300Y3265670D01*
X6266930Y3244500D01*
G01X6412600Y3276250D02*
Y3048710D01*
X6428340Y3001070D01*
X6459840Y2969330D01*
X6499210Y2958750D01*
X6538580Y2969330D01*
X6570080Y3001070D01*
X6585820Y3048710D01*
Y3276250D01*
G01X6735430Y2958750D02*
Y3276250D01*
X6833850D01*
X6865350Y3260370D01*
X6885040Y3239210D01*
X6892910Y3196870D01*
X6885040Y3154540D01*
X6861410Y3128090D01*
X6833850Y3112200D01*
X6735430D01*
G01X6833850D02*
X6892910Y2958750D01*
G01X7207870D02*
X7050390D01*
Y3276250D01*
X7207870D01*
G01X7144880Y3122800D02*
X7050390D01*
G01X7475590Y4243750D02*
Y4561250D01*
X7554320D01*
X7585820Y4545370D01*
X7609440Y4524210D01*
X7629130Y4492460D01*
X7644880Y4455410D01*
X7648810Y4402500D01*
X7644880Y4349580D01*
X7629130Y4312540D01*
X7609440Y4280780D01*
X7585820Y4259620D01*
X7554320Y4243750D01*
X7475590D01*
G01X7798420D02*
Y4561250D01*
X7896840D01*
X7928340Y4545370D01*
X7948030Y4524210D01*
X7955900Y4481870D01*
X7948030Y4439540D01*
X7924400Y4413090D01*
X7896840Y4397200D01*
X7798420D01*
G01X7896840D02*
X7955900Y4243750D01*
G01X8144880Y4561250D02*
X8239360D01*
G01X8192120D02*
Y4243750D01*
G01X8144880D02*
X8239360D01*
G01X8428340Y4561250D02*
Y4243750D01*
X8585820D01*
G01X8743300Y4561250D02*
Y4243750D01*
X8900780D01*
G01X9538570Y4534790D02*
X9514950Y4550670D01*
X9487400Y4561250D01*
X9455900D01*
X9420460Y4545370D01*
X9392910Y4518920D01*
X9373220Y4487160D01*
X9357470Y4434250D01*
X9353530Y4386620D01*
X9361410Y4339000D01*
X9373220Y4307250D01*
X9396840Y4275490D01*
X9424400Y4254330D01*
X9451960Y4243750D01*
X9479520D01*
X9507080Y4254330D01*
X9530700Y4270200D01*
X9550390Y4291360D01*
G01X9684240Y4243750D02*
Y4561250D01*
G01X9849600D02*
Y4243750D01*
G01Y4402500D02*
X9684240D01*
G01X9983450Y4243750D02*
X10081880Y4561250D01*
X10180310Y4243750D01*
G01X10144870Y4354870D02*
X10018880D01*
G01X10318100Y4243750D02*
Y4561250D01*
X10416520D01*
X10448020Y4545370D01*
X10467710Y4524210D01*
X10475580Y4481870D01*
X10467710Y4439540D01*
X10444080Y4413090D01*
X10416520Y4397200D01*
X10318100D01*
G01X10416520D02*
X10475580Y4243750D01*
G01X10711800Y4561250D02*
Y4243750D01*
G01X10621250Y4561250D02*
X10802350D01*
G01X11026760Y4233170D02*
X11018880Y4238460D01*
Y4249040D01*
X11026760Y4254330D01*
X11034640Y4249040D01*
Y4238460D01*
X11026760Y4233170D01*
G01Y4376030D02*
X11018880Y4381330D01*
Y4391910D01*
X11026760Y4397200D01*
X11034640Y4391910D01*
Y4381330D01*
X11026760Y4376030D01*
G01X11656680Y4561250D02*
Y4243750D01*
G01X11566130Y4561250D02*
X11747230D01*
G01X11971640Y4243750D02*
X11940140Y4249040D01*
X11912590Y4270200D01*
X11888960Y4301960D01*
X11873210Y4339000D01*
X11865340Y4381330D01*
Y4423670D01*
X11873210Y4466000D01*
X11888960Y4503040D01*
X11912590Y4534790D01*
X11940140Y4555960D01*
X11971640Y4561250D01*
X12003130Y4555960D01*
X12030690Y4534790D01*
X12054320Y4503040D01*
X12070070Y4466000D01*
X12077940Y4423670D01*
Y4381330D01*
X12070070Y4339000D01*
X12054320Y4301960D01*
X12030690Y4270200D01*
X12003130Y4249040D01*
X11971640Y4243750D01*
G01X12207860D02*
Y4561250D01*
X12302350D01*
X12333840Y4545370D01*
X12357470Y4508330D01*
X12365340Y4466000D01*
X12357470Y4423670D01*
X12337780Y4391910D01*
X12302350Y4376030D01*
X12207860D01*
G01X12916520Y4561250D02*
Y4243750D01*
G01X12861400Y4455410D02*
X12971640D01*
G01X13231480Y4243750D02*
X13207860Y4249040D01*
X13184240Y4270200D01*
X13168480Y4307250D01*
X13160610Y4349580D01*
X13168480Y4391910D01*
X13184240Y4428960D01*
X13207860Y4450120D01*
X13231480Y4455410D01*
X13255100Y4450120D01*
X13278720Y4428960D01*
X13294470Y4391910D01*
X13298410Y4349580D01*
X13294470Y4307250D01*
X13278720Y4270200D01*
X13255100Y4249040D01*
X13231480Y4243750D01*
G01X13892890Y4413090D02*
X13908640Y4428960D01*
X13920450Y4455410D01*
X13928330Y4492460D01*
X13920450Y4524210D01*
X13904710Y4545370D01*
X13877150Y4561250D01*
X13770850D01*
Y4243750D01*
X13900770D01*
X13928330Y4264910D01*
X13944080Y4296670D01*
X13951950Y4333710D01*
X13944080Y4370740D01*
X13920450Y4402500D01*
X13892890Y4413090D01*
X13770850D01*
G01X14176360Y4243750D02*
X14144860Y4249040D01*
X14117310Y4270200D01*
X14093680Y4301960D01*
X14077930Y4339000D01*
X14070060Y4381330D01*
Y4423670D01*
X14077930Y4466000D01*
X14093680Y4503040D01*
X14117310Y4534790D01*
X14144860Y4555960D01*
X14176360Y4561250D01*
X14207850Y4555960D01*
X14235410Y4534790D01*
X14259040Y4503040D01*
X14274790Y4466000D01*
X14282660Y4423670D01*
Y4381330D01*
X14274790Y4339000D01*
X14259040Y4301960D01*
X14235410Y4270200D01*
X14207850Y4249040D01*
X14176360Y4243750D01*
G01X14491320Y4561250D02*
Y4243750D01*
G01X14400770Y4561250D02*
X14581870D01*
G01X14806280D02*
Y4243750D01*
G01X14715730Y4561250D02*
X14896830D01*
G01X15121240Y4243750D02*
X15089740Y4249040D01*
X15062190Y4270200D01*
X15038560Y4301960D01*
X15022810Y4339000D01*
X15014940Y4381330D01*
Y4423670D01*
X15022810Y4466000D01*
X15038560Y4503040D01*
X15062190Y4534790D01*
X15089740Y4555960D01*
X15121240Y4561250D01*
X15152730Y4555960D01*
X15180290Y4534790D01*
X15203920Y4503040D01*
X15219670Y4466000D01*
X15227540Y4423670D01*
Y4381330D01*
X15219670Y4339000D01*
X15203920Y4301960D01*
X15180290Y4270200D01*
X15152730Y4249040D01*
X15121240Y4243750D01*
G01X15333830D02*
Y4561250D01*
X15436200Y4296670D01*
X15538570Y4561250D01*
Y4243750D01*
G01X7148810Y3593750D02*
X7247240Y3911250D01*
X7345670Y3593750D01*
G01X7310230Y3704870D02*
X7184240D01*
G01X7483460Y3911250D02*
Y3593750D01*
X7640940D01*
G01X7798420Y3911250D02*
Y3593750D01*
X7955900D01*
G01X8420470Y3911250D02*
Y3683710D01*
X8436210Y3636070D01*
X8467710Y3604330D01*
X8507080Y3593750D01*
X8546450Y3604330D01*
X8577950Y3636070D01*
X8593690Y3683710D01*
Y3911250D01*
G01X8731490Y3593750D02*
Y3911250D01*
X8912590Y3593750D01*
Y3911250D01*
G01X9089760D02*
X9184240D01*
G01X9137000D02*
Y3593750D01*
G01X9089760D02*
X9184240D01*
G01X9451960Y3911250D02*
Y3593750D01*
G01X9361410Y3911250D02*
X9542510D01*
G01X9684240Y3636070D02*
X9715740Y3609620D01*
X9751170Y3593750D01*
X9782670D01*
X9814160Y3609620D01*
X9837790Y3636070D01*
X9849600Y3673130D01*
X9841730Y3710160D01*
X9822040Y3741910D01*
X9786600Y3763090D01*
X9739360Y3773670D01*
X9711800Y3794830D01*
X9699990Y3831870D01*
X9707870Y3868920D01*
X9727550Y3895370D01*
X9755110Y3911250D01*
X9782670D01*
X9810230Y3900670D01*
X9833850Y3874210D01*
G01X10298410Y3593750D02*
X10396840Y3911250D01*
X10495270Y3593750D01*
G01X10459830Y3704870D02*
X10333840D01*
G01X10633060Y3593750D02*
Y3911250D01*
X10731480D01*
X10762980Y3895370D01*
X10782670Y3874210D01*
X10790540Y3831870D01*
X10782670Y3789540D01*
X10759040Y3763090D01*
X10731480Y3747200D01*
X10633060D01*
G01X10731480D02*
X10790540Y3593750D01*
G01X11105500D02*
X10948020D01*
Y3911250D01*
X11105500D01*
G01X11042510Y3757800D02*
X10948020D01*
G01X11609440Y3911250D02*
X11703920D01*
G01X11656680D02*
Y3593750D01*
G01X11609440D02*
X11703920D01*
G01X11881090D02*
Y3911250D01*
X12062190Y3593750D01*
Y3911250D01*
G01X12499190Y3593750D02*
Y3911250D01*
X12601560Y3646670D01*
X12703930Y3911250D01*
Y3593750D01*
G01X12869280Y3911250D02*
X12963760D01*
G01X12916520D02*
Y3593750D01*
G01X12869280D02*
X12963760D01*
G01X13152740Y3911250D02*
Y3593750D01*
X13310220D01*
G01X13467700Y3911250D02*
Y3593750D01*
X13625180D01*
G01X13814160Y3911250D02*
X13908640D01*
G01X13861400D02*
Y3593750D01*
G01X13814160D02*
X13908640D01*
G01X14073990D02*
Y3911250D01*
X14176360Y3646670D01*
X14278730Y3911250D01*
Y3593750D01*
G01X14570060D02*
X14412580D01*
Y3911250D01*
X14570060D01*
G01X14507070Y3757800D02*
X14412580D01*
G01X14806280Y3911250D02*
Y3593750D01*
G01X14715730Y3911250D02*
X14896830D01*
G01X15199980Y3593750D02*
X15042500D01*
Y3911250D01*
X15199980D01*
G01X15136990Y3757800D02*
X15042500D01*
G01X15357460Y3593750D02*
Y3911250D01*
X15455880D01*
X15487380Y3895370D01*
X15507070Y3874210D01*
X15514940Y3831870D01*
X15507070Y3789540D01*
X15483440Y3763090D01*
X15455880Y3747200D01*
X15357460D01*
G01X15455880D02*
X15514940Y3593750D01*
G01X15668480Y3636070D02*
X15699980Y3609620D01*
X15735410Y3593750D01*
X15766910D01*
X15798400Y3609620D01*
X15822030Y3636070D01*
X15833840Y3673130D01*
X15825970Y3710160D01*
X15806280Y3741910D01*
X15770840Y3763090D01*
X15723600Y3773670D01*
X15696040Y3794830D01*
X15684230Y3831870D01*
X15692110Y3868920D01*
X15711790Y3895370D01*
X15739350Y3911250D01*
X15766910D01*
X15794470Y3900670D01*
X15818090Y3874210D01*
G01X8077940Y2958750D02*
Y3276250D01*
X8227560D01*
G01X8172430Y3122800D02*
X8077940D01*
G01X8420470Y3276250D02*
X8514950D01*
G01X8467710D02*
Y2958750D01*
G01X8420470D02*
X8514950D01*
G01X8692120D02*
Y3276250D01*
X8873220Y2958750D01*
Y3276250D01*
G01X9050390D02*
X9144870D01*
G01X9097630D02*
Y2958750D01*
G01X9050390D02*
X9144870D01*
G01X9329910Y3001070D02*
X9361410Y2974620D01*
X9396840Y2958750D01*
X9428340D01*
X9459830Y2974620D01*
X9483460Y3001070D01*
X9495270Y3038130D01*
X9487400Y3075160D01*
X9467710Y3106910D01*
X9432270Y3128090D01*
X9385030Y3138670D01*
X9357470Y3159830D01*
X9345660Y3196870D01*
X9353540Y3233920D01*
X9373220Y3260370D01*
X9400780Y3276250D01*
X9428340D01*
X9455900Y3265670D01*
X9479520Y3239210D01*
G01X9644870Y2958750D02*
Y3276250D01*
G01X9810230D02*
Y2958750D01*
G01Y3117500D02*
X9644870D01*
G01X10121250Y2958750D02*
X9963770D01*
Y3276250D01*
X10121250D01*
G01X10058260Y3122800D02*
X9963770D01*
G01X10270860Y2958750D02*
Y3276250D01*
X10349590D01*
X10381090Y3260370D01*
X10404710Y3239210D01*
X10424400Y3207460D01*
X10440150Y3170410D01*
X10444080Y3117500D01*
X10440150Y3064580D01*
X10424400Y3027540D01*
X10404710Y2995780D01*
X10381090Y2974620D01*
X10349590Y2958750D01*
X10270860D01*
G01X10554320Y2852920D02*
X10790540D01*
G01X10904710Y3001070D02*
X10936210Y2974620D01*
X10971640Y2958750D01*
X11003140D01*
X11034630Y2974620D01*
X11058260Y3001070D01*
X11070070Y3038130D01*
X11062200Y3075160D01*
X11042510Y3106910D01*
X11007070Y3128090D01*
X10959830Y3138670D01*
X10932270Y3159830D01*
X10920460Y3196870D01*
X10928340Y3233920D01*
X10948020Y3260370D01*
X10975580Y3276250D01*
X11003140D01*
X11030700Y3265670D01*
X11054320Y3239210D01*
G01X11255110Y3276250D02*
X11349590D01*
G01X11302350D02*
Y2958750D01*
G01X11255110D02*
X11349590D01*
G01X11542500Y3276250D02*
X11692120D01*
X11542500Y2958750D01*
X11692120D01*
G01X12011010D02*
X11853530D01*
Y3276250D01*
X12011010D01*
G01X11948020Y3122800D02*
X11853530D01*
G01X9652740Y-586670D02*
X9676370Y-554920D01*
X9703930Y-539040D01*
X9735430Y-533750D01*
X9774790Y-544330D01*
X9802360Y-570790D01*
X9810230Y-602540D01*
X9806290Y-634300D01*
X9790540Y-660750D01*
X9711800Y-713670D01*
X9676370Y-750710D01*
X9652740Y-803640D01*
X9644870Y-851250D01*
X9810230D01*
G01X10042510Y-861830D02*
X10034630Y-856540D01*
Y-845960D01*
X10042510Y-840670D01*
X10050390Y-845960D01*
Y-856540D01*
X10042510Y-861830D01*
G01X10270860Y-787750D02*
X10294470Y-824800D01*
X10325970Y-845960D01*
X10361410Y-851250D01*
X10392910Y-845960D01*
X10424400Y-819510D01*
X10444080Y-787750D01*
X10448020Y-756000D01*
X10440150Y-718970D01*
X10412590Y-692500D01*
X10385030Y-681910D01*
X10349590D01*
G01X10385030D02*
X10408650Y-666040D01*
X10428340Y-639590D01*
X10436210Y-607840D01*
X10428340Y-576080D01*
X10408650Y-549630D01*
X10373220Y-533750D01*
X10337790Y-539040D01*
X10302350Y-560210D01*
G01X9727550Y418750D02*
Y736250D01*
X9680310Y672750D01*
G01Y418750D02*
X9774790D01*
G01X10042510Y408170D02*
X10034630Y413460D01*
Y424040D01*
X10042510Y429330D01*
X10050390Y424040D01*
Y413460D01*
X10042510Y408170D01*
G01X10357470Y418750D02*
Y736250D01*
X10310230Y672750D01*
G01Y418750D02*
X10404710D01*
G01X9727550Y-216250D02*
Y101250D01*
X9680310Y37750D01*
G01Y-216250D02*
X9774790D01*
G01X10042510Y-226830D02*
X10034630Y-221540D01*
Y-210960D01*
X10042510Y-205670D01*
X10050390Y-210960D01*
Y-221540D01*
X10042510Y-226830D01*
G01X10357470Y-216250D02*
X10385030Y-210960D01*
X10416520Y-195090D01*
X10436210Y-168640D01*
X10444080Y-131580D01*
X10436210Y-94550D01*
X10412590Y-62800D01*
X10377150Y-46910D01*
X10337790D01*
X10314160Y-36330D01*
X10294470Y-9880D01*
X10286600Y27160D01*
X10298420Y64210D01*
X10325970Y90670D01*
X10357470Y101250D01*
X10388960Y90670D01*
X10416520Y64210D01*
X10428340Y27160D01*
X10420460Y-9880D01*
X10400780Y-36330D01*
X10377150Y-46910D01*
X10337790D01*
X10302350Y-62800D01*
X10278730Y-94550D01*
X10270860Y-131580D01*
X10278730Y-168640D01*
X10298420Y-195090D01*
X10329910Y-210960D01*
X10357470Y-216250D01*
G01X9727550Y2006250D02*
X9696050Y1995670D01*
X9672430Y1969210D01*
X9656680Y1937460D01*
X9644870Y1895120D01*
X9640940Y1847500D01*
X9644870Y1799870D01*
X9656680Y1757540D01*
X9672430Y1725780D01*
X9696050Y1699330D01*
X9727550Y1688750D01*
X9759040Y1699330D01*
X9782670Y1725780D01*
X9798420Y1757540D01*
X9810230Y1799870D01*
X9814160Y1847500D01*
X9810230Y1895120D01*
X9798420Y1937460D01*
X9782670Y1969210D01*
X9759040Y1995670D01*
X9727550Y2006250D01*
G01X10042510Y1678170D02*
X10034630Y1683460D01*
Y1694040D01*
X10042510Y1699330D01*
X10050390Y1694040D01*
Y1683460D01*
X10042510Y1678170D01*
G01X10357470Y1688750D02*
X10385030Y1694040D01*
X10416520Y1709910D01*
X10436210Y1736360D01*
X10444080Y1773420D01*
X10436210Y1810450D01*
X10412590Y1842200D01*
X10377150Y1858090D01*
X10337790D01*
X10314160Y1868670D01*
X10294470Y1895120D01*
X10286600Y1932160D01*
X10298420Y1969210D01*
X10325970Y1995670D01*
X10357470Y2006250D01*
X10388960Y1995670D01*
X10416520Y1969210D01*
X10428340Y1932160D01*
X10420460Y1895120D01*
X10400780Y1868670D01*
X10377150Y1858090D01*
X10337790D01*
X10302350Y1842200D01*
X10278730Y1810450D01*
X10270860Y1773420D01*
X10278730Y1736360D01*
X10298420Y1709910D01*
X10329910Y1694040D01*
X10357470Y1688750D01*
G01X9727550Y1371250D02*
X9696050Y1360670D01*
X9672430Y1334210D01*
X9656680Y1302460D01*
X9644870Y1260120D01*
X9640940Y1212500D01*
X9644870Y1164870D01*
X9656680Y1122540D01*
X9672430Y1090780D01*
X9696050Y1064330D01*
X9727550Y1053750D01*
X9759040Y1064330D01*
X9782670Y1090780D01*
X9798420Y1122540D01*
X9810230Y1164870D01*
X9814160Y1212500D01*
X9810230Y1260120D01*
X9798420Y1302460D01*
X9782670Y1334210D01*
X9759040Y1360670D01*
X9727550Y1371250D01*
G01X10042510Y1043170D02*
X10034630Y1048460D01*
Y1059040D01*
X10042510Y1064330D01*
X10050390Y1059040D01*
Y1048460D01*
X10042510Y1043170D01*
G01X10290540Y1090780D02*
X10318100Y1064330D01*
X10349590Y1053750D01*
X10381090Y1064330D01*
X10408650Y1096070D01*
X10428340Y1143710D01*
X10436210Y1191330D01*
Y1249540D01*
X10428340Y1297160D01*
X10408650Y1339500D01*
X10385030Y1360670D01*
X10357470Y1371250D01*
X10325970Y1360670D01*
X10302350Y1339500D01*
X10286600Y1307750D01*
X10278730Y1265410D01*
X10286600Y1228380D01*
X10306290Y1191330D01*
X10329910Y1170160D01*
X10357470Y1164870D01*
X10388960Y1175450D01*
X10412590Y1201910D01*
X10436210Y1249540D01*
G01X9412590Y2641250D02*
X9381090Y2630670D01*
X9357470Y2604210D01*
X9341720Y2572460D01*
X9329910Y2530120D01*
X9325980Y2482500D01*
X9329910Y2434870D01*
X9341720Y2392540D01*
X9357470Y2360780D01*
X9381090Y2334330D01*
X9412590Y2323750D01*
X9444080Y2334330D01*
X9467710Y2360780D01*
X9483460Y2392540D01*
X9495270Y2434870D01*
X9499200Y2482500D01*
X9495270Y2530120D01*
X9483460Y2572460D01*
X9467710Y2604210D01*
X9444080Y2630670D01*
X9412590Y2641250D01*
G01X9727550Y2313170D02*
X9719670Y2318460D01*
Y2329040D01*
X9727550Y2334330D01*
X9735430Y2329040D01*
Y2318460D01*
X9727550Y2313170D01*
G01X9967700Y2588330D02*
X9991330Y2620080D01*
X10018890Y2635960D01*
X10050390Y2641250D01*
X10089750Y2630670D01*
X10117320Y2604210D01*
X10125190Y2572460D01*
X10121250Y2540700D01*
X10105500Y2514250D01*
X10026760Y2461330D01*
X9991330Y2424290D01*
X9967700Y2371360D01*
X9959830Y2323750D01*
X10125190D01*
G01X10270860Y2371360D02*
X10294470Y2344910D01*
X10322030Y2329040D01*
X10357470Y2323750D01*
X10392910Y2334330D01*
X10420460Y2355490D01*
X10440150Y2392540D01*
X10444080Y2434870D01*
X10436210Y2477200D01*
X10416520Y2503670D01*
X10388960Y2524830D01*
X10361410Y2530120D01*
X10333850Y2524830D01*
X10298420Y2503670D01*
X10310230Y2641250D01*
X10416520D01*
G01X10719670Y2323750D02*
Y2641250D01*
X10574000Y2413710D01*
X10770860D01*
G01X11929730Y-1168750D02*
Y-1486250D01*
G01X11839180Y-1168750D02*
X12020280D01*
G01X12244690Y-1486250D02*
X12213190Y-1480960D01*
X12185640Y-1459800D01*
X12162010Y-1428040D01*
X12146260Y-1391000D01*
X12138390Y-1348670D01*
Y-1306330D01*
X12146260Y-1264000D01*
X12162010Y-1226960D01*
X12185640Y-1195210D01*
X12213190Y-1174040D01*
X12244690Y-1168750D01*
X12276180Y-1174040D01*
X12303740Y-1195210D01*
X12327370Y-1226960D01*
X12343120Y-1264000D01*
X12350990Y-1306330D01*
Y-1348670D01*
X12343120Y-1391000D01*
X12327370Y-1428040D01*
X12303740Y-1459800D01*
X12276180Y-1480960D01*
X12244690Y-1486250D01*
G01X12559650Y-1168750D02*
Y-1486250D01*
G01X12469100Y-1168750D02*
X12650200D01*
G01X12776180Y-1486250D02*
X12874610Y-1168750D01*
X12973040Y-1486250D01*
G01X12937600Y-1375130D02*
X12811610D01*
G01X13110830Y-1168750D02*
Y-1486250D01*
X13268310D01*
G01X13736810D02*
Y-1168750D01*
G01X13902170D02*
Y-1486250D01*
G01Y-1327500D02*
X13736810D01*
G01X14134450Y-1486250D02*
X14102950Y-1480960D01*
X14075400Y-1459800D01*
X14051770Y-1428040D01*
X14036020Y-1391000D01*
X14028150Y-1348670D01*
Y-1306330D01*
X14036020Y-1264000D01*
X14051770Y-1226960D01*
X14075400Y-1195210D01*
X14102950Y-1174040D01*
X14134450Y-1168750D01*
X14165940Y-1174040D01*
X14193500Y-1195210D01*
X14217130Y-1226960D01*
X14232880Y-1264000D01*
X14240750Y-1306330D01*
Y-1348670D01*
X14232880Y-1391000D01*
X14217130Y-1428040D01*
X14193500Y-1459800D01*
X14165940Y-1480960D01*
X14134450Y-1486250D01*
G01X14370670Y-1168750D02*
Y-1486250D01*
X14528150D01*
G01X14843110D02*
X14685630D01*
Y-1168750D01*
X14843110D01*
G01X14780120Y-1322200D02*
X14685630D01*
G01X14996650Y-1443930D02*
X15028150Y-1470380D01*
X15063580Y-1486250D01*
X15095080D01*
X15126570Y-1470380D01*
X15150200Y-1443930D01*
X15162010Y-1406870D01*
X15154140Y-1369840D01*
X15134450Y-1338090D01*
X15099010Y-1316910D01*
X15051770Y-1306330D01*
X15024210Y-1285170D01*
X15012400Y-1248130D01*
X15020280Y-1211080D01*
X15039960Y-1184630D01*
X15067520Y-1168750D01*
X15095080D01*
X15122640Y-1179330D01*
X15146260Y-1205790D01*
G01X15394290Y-1496830D02*
X15386410Y-1491540D01*
Y-1480960D01*
X15394290Y-1475670D01*
X15402170Y-1480960D01*
Y-1491540D01*
X15394290Y-1496830D01*
G01Y-1353970D02*
X15386410Y-1348670D01*
Y-1338090D01*
X15394290Y-1332800D01*
X15402170Y-1338090D01*
Y-1348670D01*
X15394290Y-1353970D01*
G01X13349590Y-851250D02*
Y-533750D01*
X13444080D01*
X13475570Y-549630D01*
X13499200Y-586670D01*
X13507070Y-629000D01*
X13499200Y-671330D01*
X13479510Y-703090D01*
X13444080Y-718970D01*
X13349590D01*
G01X13664550Y-533750D02*
Y-851250D01*
X13822030D01*
G01X13959820D02*
X14058250Y-533750D01*
X14156680Y-851250D01*
G01X14121240Y-740130D02*
X13995250D01*
G01X14373210Y-533750D02*
Y-851250D01*
G01X14282660Y-533750D02*
X14463760D01*
G01X14766910Y-851250D02*
X14609430D01*
Y-533750D01*
X14766910D01*
G01X14703920Y-687200D02*
X14609430D01*
G01X14916520Y-851250D02*
Y-533750D01*
X14995250D01*
X15026750Y-549630D01*
X15050370Y-570790D01*
X15070060Y-602540D01*
X15085810Y-639590D01*
X15089740Y-692500D01*
X15085810Y-745420D01*
X15070060Y-782460D01*
X15050370Y-814220D01*
X15026750Y-835380D01*
X14995250Y-851250D01*
X14916520D01*
G01X13349590Y418750D02*
Y736250D01*
X13444080D01*
X13475570Y720370D01*
X13499200Y683330D01*
X13507070Y641000D01*
X13499200Y598670D01*
X13479510Y566910D01*
X13444080Y551030D01*
X13349590D01*
G01X13664550Y736250D02*
Y418750D01*
X13822030D01*
G01X13959820D02*
X14058250Y736250D01*
X14156680Y418750D01*
G01X14121240Y529870D02*
X13995250D01*
G01X14373210Y736250D02*
Y418750D01*
G01X14282660Y736250D02*
X14463760D01*
G01X14766910Y418750D02*
X14609430D01*
Y736250D01*
X14766910D01*
G01X14703920Y582800D02*
X14609430D01*
G01X14916520Y418750D02*
Y736250D01*
X14995250D01*
X15026750Y720370D01*
X15050370Y699210D01*
X15070060Y667460D01*
X15085810Y630410D01*
X15089740Y577500D01*
X15085810Y524580D01*
X15070060Y487540D01*
X15050370Y455780D01*
X15026750Y434620D01*
X14995250Y418750D01*
X14916520D01*
G01X13349590Y-216250D02*
Y101250D01*
X13444080D01*
X13475570Y85370D01*
X13499200Y48330D01*
X13507070Y6000D01*
X13499200Y-36330D01*
X13479510Y-68090D01*
X13444080Y-83970D01*
X13349590D01*
G01X13664550Y101250D02*
Y-216250D01*
X13822030D01*
G01X13959820D02*
X14058250Y101250D01*
X14156680Y-216250D01*
G01X14121240Y-105130D02*
X13995250D01*
G01X14373210Y101250D02*
Y-216250D01*
G01X14282660Y101250D02*
X14463760D01*
G01X14766910Y-216250D02*
X14609430D01*
Y101250D01*
X14766910D01*
G01X14703920Y-52200D02*
X14609430D01*
G01X14916520Y-216250D02*
Y101250D01*
X14995250D01*
X15026750Y85370D01*
X15050370Y64210D01*
X15070060Y32460D01*
X15085810Y-4590D01*
X15089740Y-57500D01*
X15085810Y-110420D01*
X15070060Y-147460D01*
X15050370Y-179220D01*
X15026750Y-200380D01*
X14995250Y-216250D01*
X14916520D01*
G01X13349590Y1688750D02*
Y2006250D01*
X13444080D01*
X13475570Y1990370D01*
X13499200Y1953330D01*
X13507070Y1911000D01*
X13499200Y1868670D01*
X13479510Y1836910D01*
X13444080Y1821030D01*
X13349590D01*
G01X13664550Y2006250D02*
Y1688750D01*
X13822030D01*
G01X13959820D02*
X14058250Y2006250D01*
X14156680Y1688750D01*
G01X14121240Y1799870D02*
X13995250D01*
G01X14373210Y2006250D02*
Y1688750D01*
G01X14282660Y2006250D02*
X14463760D01*
G01X14766910Y1688750D02*
X14609430D01*
Y2006250D01*
X14766910D01*
G01X14703920Y1852800D02*
X14609430D01*
G01X14916520Y1688750D02*
Y2006250D01*
X14995250D01*
X15026750Y1990370D01*
X15050370Y1969210D01*
X15070060Y1937460D01*
X15085810Y1900410D01*
X15089740Y1847500D01*
X15085810Y1794580D01*
X15070060Y1757540D01*
X15050370Y1725780D01*
X15026750Y1704620D01*
X14995250Y1688750D01*
X14916520D01*
G01X13349590Y1053750D02*
Y1371250D01*
X13444080D01*
X13475570Y1355370D01*
X13499200Y1318330D01*
X13507070Y1276000D01*
X13499200Y1233670D01*
X13479510Y1201910D01*
X13444080Y1186030D01*
X13349590D01*
G01X13664550Y1371250D02*
Y1053750D01*
X13822030D01*
G01X13959820D02*
X14058250Y1371250D01*
X14156680Y1053750D01*
G01X14121240Y1164870D02*
X13995250D01*
G01X14373210Y1371250D02*
Y1053750D01*
G01X14282660Y1371250D02*
X14463760D01*
G01X14766910Y1053750D02*
X14609430D01*
Y1371250D01*
X14766910D01*
G01X14703920Y1217800D02*
X14609430D01*
G01X14916520Y1053750D02*
Y1371250D01*
X14995250D01*
X15026750Y1355370D01*
X15050370Y1334210D01*
X15070060Y1302460D01*
X15085810Y1265410D01*
X15089740Y1212500D01*
X15085810Y1159580D01*
X15070060Y1122540D01*
X15050370Y1090780D01*
X15026750Y1069620D01*
X14995250Y1053750D01*
X14916520D01*
G01X13349590Y2958750D02*
Y3276250D01*
X13444080D01*
X13475570Y3260370D01*
X13499200Y3223330D01*
X13507070Y3181000D01*
X13499200Y3138670D01*
X13479510Y3106910D01*
X13444080Y3091030D01*
X13349590D01*
G01X13664550Y3276250D02*
Y2958750D01*
X13822030D01*
G01X13959820D02*
X14058250Y3276250D01*
X14156680Y2958750D01*
G01X14121240Y3069870D02*
X13995250D01*
G01X14373210Y3276250D02*
Y2958750D01*
G01X14282660Y3276250D02*
X14463760D01*
G01X14766910Y2958750D02*
X14609430D01*
Y3276250D01*
X14766910D01*
G01X14703920Y3122800D02*
X14609430D01*
G01X14916520Y2958750D02*
Y3276250D01*
X14995250D01*
X15026750Y3260370D01*
X15050370Y3239210D01*
X15070060Y3207460D01*
X15085810Y3170410D01*
X15089740Y3117500D01*
X15085810Y3064580D01*
X15070060Y3027540D01*
X15050370Y2995780D01*
X15026750Y2974620D01*
X14995250Y2958750D01*
X14916520D01*
G01X13349590Y2323750D02*
Y2641250D01*
X13444080D01*
X13475570Y2625370D01*
X13499200Y2588330D01*
X13507070Y2546000D01*
X13499200Y2503670D01*
X13479510Y2471910D01*
X13444080Y2456030D01*
X13349590D01*
G01X13664550Y2641250D02*
Y2323750D01*
X13822030D01*
G01X13959820D02*
X14058250Y2641250D01*
X14156680Y2323750D01*
G01X14121240Y2434870D02*
X13995250D01*
G01X14373210Y2641250D02*
Y2323750D01*
G01X14282660Y2641250D02*
X14463760D01*
G01X14766910Y2323750D02*
X14609430D01*
Y2641250D01*
X14766910D01*
G01X14703920Y2487800D02*
X14609430D01*
G01X14916520Y2323750D02*
Y2641250D01*
X14995250D01*
X15026750Y2625370D01*
X15050370Y2604210D01*
X15070060Y2572460D01*
X15085810Y2535410D01*
X15089740Y2482500D01*
X15085810Y2429580D01*
X15070060Y2392540D01*
X15050370Y2360780D01*
X15026750Y2339620D01*
X14995250Y2323750D01*
X14916520D01*
G01X16570060Y-1438640D02*
X16593670Y-1465090D01*
X16621230Y-1480960D01*
X16656670Y-1486250D01*
X16692110Y-1475670D01*
X16719660Y-1454510D01*
X16739350Y-1417460D01*
X16743280Y-1375130D01*
X16735410Y-1332800D01*
X16715720Y-1306330D01*
X16688160Y-1285170D01*
X16660610Y-1279880D01*
X16633050Y-1285170D01*
X16597620Y-1306330D01*
X16609430Y-1168750D01*
X16715720D01*
G01X16885020Y-1438640D02*
X16908630Y-1465090D01*
X16936190Y-1480960D01*
X16971630Y-1486250D01*
X17007070Y-1475670D01*
X17034620Y-1454510D01*
X17054310Y-1417460D01*
X17058240Y-1375130D01*
X17050370Y-1332800D01*
X17030680Y-1306330D01*
X17003120Y-1285170D01*
X16975570Y-1279880D01*
X16948010Y-1285170D01*
X16912580Y-1306330D01*
X16924390Y-1168750D01*
X17030680D01*
G01X16861390Y-851250D02*
Y-533750D01*
X16715720Y-761290D01*
X16912580D01*
G01X16861390Y418750D02*
Y736250D01*
X16715720Y508710D01*
X16912580D01*
G01X16739340Y48330D02*
X16762970Y80080D01*
X16790530Y95960D01*
X16822030Y101250D01*
X16861390Y90670D01*
X16888960Y64210D01*
X16896830Y32460D01*
X16892890Y700D01*
X16877140Y-25750D01*
X16798400Y-78670D01*
X16762970Y-115710D01*
X16739340Y-168640D01*
X16731470Y-216250D01*
X16896830D01*
G01X16861390Y1688750D02*
Y2006250D01*
X16715720Y1778710D01*
X16912580D01*
G01X16861390Y1053750D02*
Y1371250D01*
X16715720Y1143710D01*
X16912580D01*
G01X16499190Y2958750D02*
X16467690Y2964040D01*
X16440140Y2985200D01*
X16416510Y3016960D01*
X16400760Y3054000D01*
X16392890Y3096330D01*
Y3138670D01*
X16400760Y3181000D01*
X16416510Y3218040D01*
X16440140Y3249790D01*
X16467690Y3270960D01*
X16499190Y3276250D01*
X16530680Y3270960D01*
X16558240Y3249790D01*
X16581870Y3218040D01*
X16597620Y3181000D01*
X16605490Y3138670D01*
Y3096330D01*
X16597620Y3054000D01*
X16581870Y3016960D01*
X16558240Y2985200D01*
X16530680Y2964040D01*
X16499190Y2958750D01*
G01X16530680Y3043420D02*
X16577930Y2958750D01*
G01X16814150Y3276250D02*
Y2958750D01*
G01X16723600Y3276250D02*
X16904700D01*
G01X17129110Y2958750D02*
Y3101620D01*
X17050370Y3276250D01*
G01X17207850D02*
X17129110Y3101620D01*
G01X16570060Y2387250D02*
X16593670Y2350200D01*
X16625170Y2329040D01*
X16660610Y2323750D01*
X16692110Y2329040D01*
X16723600Y2355490D01*
X16743280Y2387250D01*
X16747220Y2419000D01*
X16739350Y2456030D01*
X16711790Y2482500D01*
X16684230Y2493090D01*
X16648790D01*
G01X16684230D02*
X16707850Y2508960D01*
X16727540Y2535410D01*
X16735410Y2567160D01*
X16727540Y2598920D01*
X16707850Y2625370D01*
X16672420Y2641250D01*
X16636990Y2635960D01*
X16601550Y2614790D01*
G01X16963750Y2323750D02*
X16971630Y2392540D01*
X16983440Y2450740D01*
X16999190Y2503670D01*
X17018870Y2561870D01*
X17050370Y2641250D01*
X16892890D01*
G01X-250000Y0D02*
X-1980000D01*
G01X-1730000Y584260D02*
Y0D01*
G01X-1792500Y400000D02*
X-1730000Y0D01*
X-1667500Y400000D01*
X-1792500D01*
G01X-80000Y1600000D02*
X-1980000D01*
G01X-1730000Y1075740D02*
Y1600000D01*
G01X-1667500Y1200000D02*
X-1730000Y1600000D01*
X-1792500Y1200000D01*
X-1667500D01*
G01X0Y-250000D02*
Y-530000D01*
G01X1593140Y-280000D02*
X0D01*
G01X400000Y-217500D02*
X0Y-280000D01*
X400000Y-342500D01*
Y-217500D01*
G01X2226860Y-280000D02*
X4000000D01*
G01Y40000D02*
Y-530000D01*
G01X3600000Y-342500D02*
X4000000Y-280000D01*
X3600000Y-217500D01*
Y-342500D01*
G01X5200000Y-1010000D02*
Y4720000D01*
X17798400D01*
Y-1010000D01*
X5200000D01*
G01Y-375000D02*
X17798400D01*
G01X5200000Y260000D02*
X17798400D01*
G01X5200000Y1530000D02*
X17798400D01*
G01X5200000Y895000D02*
X17798400D01*
G01X5200000Y2800000D02*
X17798400D01*
G01X5200000Y2165000D02*
X17798400D01*
G01X5200000Y4070000D02*
X17798400D01*
G01X5200000Y3435000D02*
X17798400D01*
G01X7483460D02*
Y-1010000D01*
G01X12601560Y3435000D02*
Y-1010000D01*
G01X15829900Y3435000D02*
Y-1010000D01*
M02*
