G04 ================== begin FILE IDENTIFICATION RECORD ==================*
G04 Layout Name:  CH340E_CAN_V10_230905.brd*
G04 Film Name:    SilkScreen_Top*
G04 File Format:  Gerber RS274X*
G04 File Origin:  Cadence Allegro 17.2-S079*
G04 Origin Date:  Tue Sep 05 18:40:26 2023*
G04 *
G04 Layer:  PACKAGE GEOMETRY/SILKSCREEN_TOP*
G04 Layer:  BOARD GEOMETRY/SILKSCREEN_TOP*
G04 *
G04 Offset:    (0.0000 0.0000)*
G04 Mirror:    No*
G04 Mode:      Positive*
G04 Rotation:  0*
G04 FullContactRelief:  No*
G04 UndefLineWidth:     0.1524*
G04 ================== end FILE IDENTIFICATION RECORD ====================*
%FSLAX55Y55*MOMM*%
%IR0*IPPOS*OFA0.00000B0.00000*MIA0B0*SFA1.00000B1.00000*%
%ADD10C,.2*%
%ADD11C,.254*%
%ADD12C,.1524*%
%ADD13C,.1778*%
G75*
%LPD*%
G75*
G36*
G01X1755000Y757500D02*
G03I-30000J0D01*
G37*
G36*
G01X1703200Y673800D02*
G03I-25400J0D01*
G37*
G36*
G01X1871800Y1356600D02*
G03I-25400J0D01*
G37*
G36*
G01X2780000Y320000D02*
X2830000Y370000D01*
X2730000D01*
X2780000Y320000D01*
G37*
G36*
G01X2650000Y1120000D02*
G03I-30000J0D01*
G37*
G36*
G01X3461620Y548000D02*
G03I-31620J0D01*
G37*
G54D10*
G01X2025000Y820000D02*
X1915000D01*
Y500000D01*
X2235000D01*
Y820000D01*
X2125000D01*
G01X1730000Y100000D02*
Y280000D01*
X1830000D01*
Y100000D01*
X1730000D01*
G01X1190000D02*
Y280000D01*
X1290000D01*
Y100000D01*
X1190000D01*
G01X1320000Y419550D02*
Y449550D01*
X1500000D01*
Y419550D01*
G01X1320000Y79550D02*
X1500000D01*
Y419550D01*
X1320000D01*
Y79550D01*
G01X1520000Y419550D02*
Y449550D01*
X1700000D01*
Y419550D01*
G01X1520000Y79550D02*
X1700000D01*
Y419550D01*
X1520000D01*
Y79550D01*
G01X2913000Y60000D02*
Y320000D01*
X1883000D01*
Y60000D01*
X2913000D01*
G01X1474600Y625700D02*
G02X1525400I25400J0D01*
G01D02*
X1550800D01*
Y854300D01*
X1449200D01*
Y625700D01*
X1474600D01*
G01X1500000Y1240000D02*
G02Y1180000I0J-30000D01*
G01Y1120000D02*
G02Y1180000I0J30000D01*
G01X1350000Y960000D02*
Y1400000D01*
X1650000D01*
Y960000D01*
X1350000D01*
G01X1500000Y1240000D02*
Y1260000D01*
G01Y1100000D02*
Y1120000D01*
G01X2025000Y1090000D02*
X1915000D01*
Y930000D01*
G01X1800000Y1390000D02*
G03X1680000I-60000J-77500D01*
G01Y1130000D02*
G03X1800000I60000J77500D01*
G01X1680000Y1390000D02*
Y1130000D01*
G01X1800000D02*
Y1390000D01*
G01X2125000Y820000D02*
G02X2025000I-50000J0D01*
G01X3080000Y260000D02*
X3180000D01*
G01X3080000Y420000D02*
X2970000D01*
Y260000D01*
G01X2610000Y820000D02*
G03Y920000I-50000J50000D01*
G01X2450000D02*
G03Y820000I50000J-50000D01*
G01X2610000D02*
X2450000D01*
G01Y630000D02*
G03Y530000I50000J-50000D01*
G01X2610000D02*
G03Y630000I-50000J50000D01*
G01X2450000D02*
X2610000D01*
G01Y530000D02*
X2450000D01*
G01X3220000D02*
X3040000D01*
Y630000D01*
X3220000D01*
Y530000D01*
G01X2850000Y680000D02*
Y1180000D01*
X2970000D01*
G01X3050000D02*
X3170000D01*
Y680000D01*
X2850000D01*
G01X2125000Y1090000D02*
X2235000D01*
Y930000D01*
G01X2025000D02*
X2125000D01*
G01X2100400Y1412400D02*
G02X2049600I-25400J0D01*
G01X2125800Y1399700D02*
Y1412400D01*
X2100400D01*
G01X2125800Y1399700D02*
Y1107600D01*
X2024200D01*
Y1412400D01*
X2049600D01*
G01X2450000Y920000D02*
X2610000D01*
G01X3220000Y1210000D02*
X3040000D01*
Y1310000D01*
X3220000D01*
Y1210000D01*
G01X2380000Y1130000D02*
G03X2500000I60000J77500D01*
G01Y1390000D02*
G03X2380000I-60000J-77500D01*
G01X2500000Y1130000D02*
Y1390000D01*
G01X2380000D02*
Y1130000D01*
G01X2970000Y1180000D02*
G03X3050000I40000J4108D01*
G01X3180000Y420000D02*
X3290000D01*
Y260000D01*
G01X3800000Y448000D02*
X4410000D01*
X4560000Y488000D01*
Y598000D01*
X4410000Y638000D01*
X3800000D01*
G01X3480000Y200000D02*
Y1390000D01*
X4720000D01*
Y200000D01*
X3480000D01*
G01X3800000Y958000D02*
X4410000D01*
X4560000Y998000D01*
Y1108000D01*
X4410000Y1148000D01*
X3800000D01*
G01X4720000Y200000D02*
X4410000D01*
Y1390000D01*
X4720000D01*
G01Y798000D02*
X4718000Y800000D01*
G54D11*
G01X300000Y200000D02*
X-1540000D01*
Y1400000D01*
X340000D01*
Y200000D01*
X300000D01*
G01X-750000Y410000D02*
Y710000D01*
X-950000D01*
Y410000D01*
X-750000D01*
G01Y900000D02*
Y1200000D01*
X-950000D01*
Y900000D01*
X-750000D01*
G01X-60000Y200000D02*
Y1400000D01*
G54D12*
G01X1390000Y480000D02*
Y570000D01*
X1415000D01*
X1423000Y565500D01*
X1428000Y559500D01*
X1430000Y547500D01*
X1428000Y535500D01*
X1422000Y528000D01*
X1415000Y523500D01*
X1390000D01*
G01X1415000D02*
X1430000Y480000D01*
G01X1610000Y570000D02*
Y480000D01*
G01X1587000Y570000D02*
X1633000D01*
G01X2786000Y425000D02*
X2806000D01*
Y398000D01*
X2800000Y389000D01*
X2793000Y383000D01*
X2783000Y380000D01*
X2773000Y383000D01*
X2766000Y389000D01*
X2760000Y398000D01*
X2756000Y408500D01*
X2754000Y420500D01*
Y431000D01*
X2756000Y440000D01*
X2760000Y450500D01*
X2766000Y459500D01*
X2772000Y465500D01*
X2780000Y470000D01*
X2787000D01*
X2795000Y467000D01*
X2801000Y461000D01*
G01X2501670Y470000D02*
X2526670Y380000D01*
X2551670Y470000D01*
G01X2020000D02*
Y380000D01*
G01X1997000Y470000D02*
X2043000D01*
G01X2253330Y380000D02*
Y470000D01*
X2278330D01*
X2286330Y465500D01*
X2291330Y459500D01*
X2293330Y447500D01*
X2291330Y435500D01*
X2285330Y428000D01*
X2278330Y423500D01*
X2253330D01*
G01X2278330D02*
X2293330Y380000D01*
G01X3639000Y70000D02*
Y160000D01*
G01X3681000D02*
Y70000D01*
G01Y115000D02*
X3639000D01*
G01X3640000Y1520000D02*
Y1430000D01*
X3680000D01*
G54D13*
G01X1346500Y219070D02*
X1410000Y282570D01*
X1473500Y219070D01*
X1346500D01*
X1364280Y236850D01*
X1448100D01*
X1435400Y249550D01*
X1384600D01*
X1397300Y262250D01*
X1422700D01*
G01X1546500Y219070D02*
X1610000Y282570D01*
X1673500Y219070D01*
X1546500D01*
X1564280Y236850D01*
X1648100D01*
X1635400Y249550D01*
X1584600D01*
X1597300Y262250D01*
X1622700D01*
M02*
