G04 ================== begin FILE IDENTIFICATION RECORD ==================*
G04 Layout Name:  H:/github/MBED-TOOLS/HARDWARE/HY_TPL5010_V10/PCB/HY_TPL5010_V10.brd*
G04 Film Name:    BOTTOM*
G04 File Format:  Gerber RS274X*
G04 File Origin:  Cadence Allegro 17.2-S067*
G04 Origin Date:  Mon Dec 28 10:43:58 2020*
G04 *
G04 Layer:  ETCH/BOTTOM*
G04 Layer:  PIN/BOTTOM*
G04 Layer:  VIA CLASS/BOTTOM*
G04 *
G04 Offset:    (0.0000 0.0000)*
G04 Mirror:    No*
G04 Mode:      Positive*
G04 Rotation:  0*
G04 FullContactRelief:  No*
G04 UndefLineWidth:     0.1524*
G04 ================== end FILE IDENTIFICATION RECORD ====================*
%FSLAX55Y55*MOMM*%
%IR0*IPPOS*OFA0.00000B0.00000*MIA0B0*SFA1.00000B1.00000*%
%ADD15C,.508*%
%ADD11C,.6096*%
%ADD13C,1.3*%
%ADD12C,3.3*%
%ADD16C,1.8*%
%ADD14R,1.3X1.3*%
%ADD18C,1.65*%
%ADD10C,6.9*%
%ADD17R,1.8X1.8*%
%ADD19C,1.2004*%
G75*
%LPD*%
G75*
G36*
G01X360000Y5370000D02*
X8140000D01*
G02X8470000Y5040000I0J-330000D01*
G01Y360000D01*
G02X8140000Y30000I-330000J0D01*
G01X360000D01*
G02X30000Y360000I0J330000D01*
G01Y5040000D01*
G02X360000Y5370000I330000J0D01*
G37*
%LPC*%
G75*
G36*
G01X1399260Y2510000D02*
Y2640000D01*
G02X1445000Y2685740I45740J0D01*
G01X1575000D01*
G02X1620740Y2640000I0J-45740D01*
G01Y2510000D01*
G02X1575000Y2464260I-45740J0D01*
G01X1445000D01*
G02X1399260Y2510000I0J45740D01*
G37*
G36*
G01X1425500Y2753420D02*
G03X1394500I-15500J-13135D01*
G02X1310000Y2714260I-84500J71588D01*
G02Y2935740I0J110740D01*
G02X1394500Y2896580I0J-110748D01*
G03X1425500I15500J13135D01*
G02X1510000Y2935740I84500J-71588D01*
G02Y2714260I0J-110740D01*
G02X1425500Y2753420I0J110748D01*
G37*
G36*
G01X2765130Y2345740D02*
X2843860Y2424470D01*
Y3285000D01*
G02X2986140I71140J0D01*
G01Y2395000D01*
G02X2965300Y2344700I-71123J0D01*
G01X2845740Y2225130D01*
Y2151050D01*
X2798950Y2104260D01*
X2348950D01*
X2335740Y2091050D01*
Y958950D01*
X2338950Y955740D01*
X5121050D01*
X5261050Y1095740D01*
X6988950D01*
X7035740Y1048950D01*
Y851050D01*
X6988950Y804260D01*
X5378950D01*
X5228950Y654260D01*
X2171050D01*
X2084260Y741050D01*
Y2278950D01*
X2151050Y2345740D01*
X2765130D01*
G37*
G36*
G01X3255180Y5218890D02*
G03X3288260I16540J11805D01*
G02X3398720Y5275740I110460J-78887D01*
G02X3515510Y5209180I0J-135743D01*
G01X3525740Y5198950D01*
Y5187900D01*
X3526350Y5186220D01*
G02X3534460Y5140000I-127631J-46216D01*
G02X3526350Y5093780I-135741J-4D01*
G01X3525740Y5092100D01*
Y3678950D01*
X3558950Y3645740D01*
X7098950D01*
X7205740Y3538950D01*
Y2911050D01*
X7168950Y2874260D01*
X7041050D01*
X6994260Y2921050D01*
Y3431050D01*
X6981050Y3444260D01*
X5138950D01*
X5115740Y3421050D01*
Y1958950D01*
X5128950Y1945740D01*
X6358950D01*
X6415740Y1888950D01*
Y1741050D01*
X6368950Y1694260D01*
X5378950D01*
X5228950Y1544260D01*
X2451050D01*
X2404260Y1591050D01*
Y1708950D01*
X2451050Y1755740D01*
X4791050D01*
X4844260Y1808950D01*
Y3441050D01*
X4841050Y3444260D01*
X3042550D01*
X3042050Y3444210D01*
G02X3035000Y3443860I-7048J70790D01*
G02X3027950Y3444210I-2J71140D01*
G01X3027450Y3444260D01*
X2302550D01*
X2302050Y3444210D01*
G02X2295000Y3443860I-7048J70790D01*
G02X2287950Y3444210I-2J71140D01*
G01X2287450Y3444260D01*
X2251050D01*
X2204260Y3491050D01*
Y3558950D01*
X2251050Y3605740D01*
X3241050D01*
X3274260Y3638950D01*
Y5028530D01*
G03X3239720Y5043040I-20319J-2D01*
G02X3144720Y5004260I-95000J96972D01*
G02X3034260Y5061110I0J135737D01*
G03X3001180I-16540J-11805D01*
G02X2890720Y5004260I-110460J78887D01*
G02Y5275740I0J135740D01*
G02X3001180Y5218890I0J-135737D01*
G03X3034260I16540J11805D01*
G02X3255180I110460J-78887D01*
G37*
G54D19*
X7285000Y5230000D03*
X7055000D03*
X4700000D03*
X4470000D03*
X5973640D03*
X5743640D03*
%LPD*%
G75*
G36*
G01X2290000Y940000D02*
X2320000Y910000D01*
X5140000D01*
X5280000Y1050000D01*
X6970000D01*
X6990000Y1030000D01*
Y870000D01*
X6970000Y850000D01*
X5360000D01*
X5210000Y700000D01*
X2190000D01*
X2130000Y760000D01*
Y2260000D01*
X2170000Y2300000D01*
X2790000D01*
X2800000Y2290000D01*
Y2170000D01*
X2780000Y2150000D01*
X2330000D01*
X2290000Y2110000D01*
Y940000D01*
G37*
G36*
G01X3340000Y5200000D02*
X3460000D01*
X3480000Y5180000D01*
Y3660000D01*
X3540000Y3600000D01*
X7080000D01*
X7160000Y3520000D01*
Y2930000D01*
X7150000Y2920000D01*
X7060000D01*
X7040000Y2940000D01*
Y3450000D01*
X7000000Y3490000D01*
X6280220D01*
X6278400Y3490730D01*
G03X6250000Y3496220I-28403J-70729D01*
G03X6221600Y3490730I3J-76219D01*
G01X6219780Y3490000D01*
X5120000D01*
X5070000Y3440000D01*
Y1940000D01*
X5110000Y1900000D01*
X6340000D01*
X6370000Y1870000D01*
Y1760000D01*
X6350000Y1740000D01*
X5360000D01*
X5210000Y1590000D01*
X2470000D01*
X2450000Y1610000D01*
Y1690000D01*
X2470000Y1710000D01*
X4810000D01*
X4890000Y1790000D01*
Y3460000D01*
X4860000Y3490000D01*
X2270000D01*
X2250000Y3510000D01*
Y3540000D01*
X2270000Y3560000D01*
X3260000D01*
X3320000Y3620000D01*
Y5180000D01*
X3340000Y5200000D01*
G37*
G54D10*
X360000Y360000D03*
Y5040000D03*
X8140000Y360000D03*
Y5040000D03*
G54D11*
X364330Y1208450D03*
Y1708450D03*
Y2208450D03*
Y2708450D03*
Y3208450D03*
X635930Y3963210D03*
Y4463210D03*
X1146790Y432460D03*
Y932460D03*
X1135930Y3963210D03*
Y4463210D03*
X1646790Y432460D03*
Y932460D03*
X1930000Y1250000D03*
X1968980Y1808500D03*
X1778980Y2878500D03*
X1758980Y3348500D03*
X1635930Y3963210D03*
Y4463210D03*
X2278980Y2878500D03*
X2258980Y3348500D03*
X2135930Y3963210D03*
Y4463210D03*
X2485370Y290190D03*
X2750000Y1380000D03*
X2468980Y1808500D03*
X2985370Y290190D03*
X2930000Y1370000D03*
X3485370Y290190D03*
X3740000Y1430000D03*
X3552350Y2197830D03*
X3836880Y4040800D03*
Y4540800D03*
X3985370Y290190D03*
X4052350Y2197830D03*
X4485370Y290190D03*
X4580000Y1440000D03*
X4421500Y2768980D03*
Y3268980D03*
X4336880Y4040800D03*
Y4540800D03*
X4985370Y290190D03*
X4836880Y4040800D03*
Y4540800D03*
X5210000Y2050000D03*
X5150000Y2400000D03*
X5485370Y290190D03*
X5631500Y2428980D03*
Y2928980D03*
X5595790Y4002000D03*
Y4502000D03*
X5985370Y290190D03*
X6110000Y760000D03*
X5880000Y1980000D03*
X6130000D03*
X6091500Y2448980D03*
Y2948980D03*
X6095790Y4002000D03*
Y4502000D03*
X6290000Y2450000D03*
X6280000Y2940000D03*
X6510000Y3280000D03*
X6250000Y3420000D03*
X6811500Y1298980D03*
Y1798980D03*
X6730000Y2230000D03*
X6620000Y2300000D03*
X6910000Y3120000D03*
X6688640Y4079600D03*
Y4579600D03*
X7010000Y2230000D03*
X6990000Y2690000D03*
X7020000Y2460000D03*
X7210000Y2870000D03*
X7380000Y950000D03*
X7981950Y1214920D03*
Y1714920D03*
Y2214920D03*
Y2714920D03*
Y3214920D03*
Y3714920D03*
Y4214920D03*
G54D12*
X1039000Y2098000D03*
Y3302000D03*
G54D13*
X1310000Y2575000D03*
X1510000Y2825000D03*
X1310000D03*
G54D14*
X1510000Y2575000D03*
G54D15*
G01X2915000Y3285000D02*
Y2395000D01*
X2760000Y2240000D01*
X2000000Y3190000D03*
X2295000Y3515000D03*
X2480000Y1660000D03*
X2560000D03*
X2660000D03*
X2750000D03*
X2420000Y2240000D03*
X2530000D03*
X2650000D03*
X2760000D03*
X3035000Y3515000D03*
X2915000Y3285000D03*
X4935000Y2225000D03*
X5030000Y2940000D03*
X5169240Y749240D03*
X5363900Y3546100D03*
X5465000Y1825000D03*
X5995000Y965000D03*
X6033900Y3546100D03*
X6335000Y1825000D03*
X6935000Y895000D03*
X7100000Y2970000D03*
X6950000Y3550000D03*
G54D16*
X2890720Y5140000D03*
X3144720D03*
X3398720D03*
G54D17*
X3652720D03*
G54D18*
X4210000Y5260000D03*
X4960000D03*
X5483640D03*
X6233640D03*
X6795000D03*
X7545000D03*
M02*
