M48
METRIC,TZ
T01C.254
T02C.3048
T03C.8
T04C1.
T05C1.1
T06C2.3
T07C3.3
;LEADER: 12 
;HEADER: 
;CODE  : ASCII 
;FILE  : HY_TPL5010_V10-1-2.drl for board H:/github/MBED-TOOLS/HARDWARE/HY_TPL5010_V10/PCB/#Taaaaew09296.tmp ... layers TOP and BOTTOM
;T01 Holesize 1. = 0.254000 Tolerance = +0.000000/-0.000000 PLATED MM Quantity = 23
;T02 Holesize 2. = 0.304800 Tolerance = +0.000000/-0.000000 PLATED MM Quantity = 82
;T03 Holesize 3. = 0.800000 Tolerance = +0.000000/-0.000000 PLATED MM Quantity = 4
;T04 Holesize 4. = 1.000000 Tolerance = +0.000000/-0.000000 PLATED MM Quantity = 6
;T05 Holesize 5. = 1.100000 Tolerance = +0.000000/-0.000000 PLATED MM Quantity = 4
;T06 Holesize 6. = 2.300000 Tolerance = +0.000000/-0.000000 PLATED MM Quantity = 2
;T07 Holesize 7. = 3.300000 Tolerance = +0.000000/-0.000000 PLATED MM Quantity = 4
%
G90
T01
X2000000Y3190000
X3035000Y3515000
X2295000Y3515000
X2915000Y3285000
X2760000Y2240000
X2650000Y2240000
X2530000Y2240000
X2420000Y2240000
X2750000Y1660000
X2660000Y1660000
X2560000Y1660000
X2480000Y1660000
X5169240Y749240
X5995000Y965000
X5465000Y1825000
X4935000Y2225000
X5030000Y2940000
X5363900Y3546100
X6033900Y3546100
X6950000Y3550000
X7100000Y2970000
X6335000Y1825000
X6935000Y895000
T02
X1146790Y432460
X1146790Y932460
X364330Y1208450
X364330Y1708450
X364330Y2208450
X364330Y2708450
X364330Y3208450
X635930Y3963210
X1135930Y3963210
X635930Y4463210
X1135930Y4463210
X2135930Y4463210
X1635930Y4463210
X2135930Y3963210
X1635930Y3963210
X2258980Y3348500
X1758980Y3348500
X2278980Y2878500
X1778980Y2878500
X2468980Y1808500
X1968980Y1808500
X1930000Y1250000
X1646790Y932460
X1646790Y432460
X2485370Y290190
X2985370Y290190
X3485370Y290190
X2930000Y1370000
X2750000Y1380000
X3740000Y1430000
X3552350Y2197830
X3985370Y290190
X4485370Y290190
X4985370Y290190
X4580000Y1440000
X4052350Y2197830
X4421500Y2768980
X4421500Y3268980
X3836880Y4040800
X4336880Y4040800
X4836880Y4040800
X3836880Y4540800
X4336880Y4540800
X4836880Y4540800
X6095790Y4502000
X5595790Y4502000
X6095790Y4002000
X5595790Y4002000
X6250000Y3420000
X6091500Y2948980
X6280000Y2940000
X5631500Y2928980
X6290000Y2450000
X6091500Y2448980
X5631500Y2428980
X5150000Y2400000
X5210000Y2050000
X6130000Y1980000
X5880000Y1980000
X6110000Y760000
X5985370Y290190
X5485370Y290190
X7380000Y950000
X6811500Y1298980
X6811500Y1798980
X6730000Y2230000
X7010000Y2230000
X6620000Y2300000
X7020000Y2460000
X6990000Y2690000
X7210000Y2870000
X6910000Y3120000
X6510000Y3280000
X6688640Y4079600
X6688640Y4579600
X7981950Y4214920
X7981950Y3714920
X7981950Y3214920
X7981950Y2714920
X7981950Y2214920
X7981950Y1714920
X7981950Y1214920
T03
X1310000Y2575000
X1510000Y2575000
X1510000Y2825000
X1310000Y2825000
T04
X4210000Y5260000
X4960000Y5260000
X5483640Y5260000
X6233640Y5260000
X6795000Y5260000
X7545000Y5260000
T05
X2890720Y5140000
X3144720Y5140000
X3398720Y5140000
X3652720Y5140000
T06
X1039000Y2098000
X1039000Y3302000
T07
X360000Y360000
X360000Y5040000
X8140000Y5040000
X8140000Y360000
M30
