G04 ================== begin FILE IDENTIFICATION RECORD ==================*
G04 Layout Name:  H:/github/MBED-TOOLS/HARDWARE/HY_TPL5010_V10/PCB/HY_TPL5010_V10.brd*
G04 Film Name:    TOP*
G04 File Format:  Gerber RS274X*
G04 File Origin:  Cadence Allegro 17.2-S067*
G04 Origin Date:  Mon Dec 28 10:43:58 2020*
G04 *
G04 Layer:  VIA CLASS/TOP*
G04 Layer:  PIN/TOP*
G04 Layer:  ETCH/TOP*
G04 *
G04 Offset:    (0.0000 0.0000)*
G04 Mirror:    No*
G04 Mode:      Positive*
G04 Rotation:  0*
G04 FullContactRelief:  No*
G04 UndefLineWidth:     0.1524*
G04 ================== end FILE IDENTIFICATION RECORD ====================*
%FSLAX55Y55*MOMM*%
%IR0*IPPOS*OFA0.00000B0.00000*MIA0B0*SFA1.00000B1.00000*%
%ADD31R,.3X1.2*%
%ADD21R,1.2X.3*%
%ADD32R,2.X.5*%
%ADD19R,1.1X.6*%
%ADD22R,1.3X.9*%
%ADD30R,.9X1.3*%
%ADD23C,.75*%
%ADD20C,.508*%
%ADD15R,.8X.8*%
%ADD11C,.6096*%
%ADD28R,1.4X1.2*%
%ADD16R,1.X2.5*%
%ADD29R,2.7X1.6*%
%ADD24R,.5X.6*%
%ADD18R,.6X.4*%
%ADD33R,1.6X2.7*%
%ADD17R,.6X.5*%
%ADD13C,1.3*%
%ADD12C,3.3*%
%ADD25C,1.8*%
%ADD14R,1.3X1.3*%
%ADD27C,1.65*%
%ADD10C,6.9*%
%ADD26R,1.8X1.8*%
%ADD34C,.2032*%
%ADD35C,.254*%
%ADD36C,1.2004*%
G75*
%LPD*%
G75*
G36*
G01X360000Y5370000D02*
X8140000D01*
G02X8470000Y5040000I0J-330000D01*
G01Y360000D01*
G02X8140000Y30000I-330000J0D01*
G01X360000D01*
G02X30000Y360000I0J330000D01*
G01Y5040000D01*
G02X360000Y5370000I330000J0D01*
G37*
%LPC*%
G75*
G36*
G01X7004750Y5197170D02*
G02X6994980Y5230000I50252J32823D01*
G02X7115020I60020J0D01*
G02X7071680Y5172340I-60026J0D01*
G03X7059690Y5142730I5646J-19519D01*
G02X7065740Y5120000I-39689J-22734D01*
G01Y5000000D01*
G02X7020000Y4954260I-45740J0D01*
G01X7008440D01*
Y3590570D01*
G02X7021140Y3550000I-58450J-40570D01*
G02X6878860I-71140J0D01*
G02X6891560Y3590570I71150J0D01*
G01Y4954260D01*
X6880000D01*
G02X6834260Y5000000I0J45740D01*
G01Y5120000D01*
G02X6880000Y5165740I45740J0D01*
G01X6987740D01*
G03X7004750Y5197170I-1J20318D01*
G37*
G36*
G01X5924260Y900000D02*
G02X5934060Y928290I45733J0D01*
G02X5923860Y965000I60941J36705D01*
G02X6066140I71140J0D01*
G02X6064190Y948480I-71137J22D01*
G03X6083960Y923440I19766J-4719D01*
G01X6147820D01*
G02X6183640Y940740I35820J-28433D01*
G01X6293640D01*
G02X6339380Y895000I0J-45740D01*
G01Y835000D01*
G02X6293640Y789260I-45740J0D01*
G01X6183640D01*
G02X6147820Y806560I0J45733D01*
G01X6051210D01*
G02X6020000Y794260I-31210J33446D01*
G01X5970000D01*
G02X5924260Y840000I0J45740D01*
G01Y900000D01*
G37*
G36*
G01X4776260Y669240D02*
Y829240D01*
G02X4822000Y874980I45740J0D01*
G01X5092000D01*
G02X5137740Y829240I0J-45740D01*
G01Y817530D01*
X5149260D01*
X5150570Y817890D01*
G02X5169240Y820380I18657J-68652D01*
G02Y678100I0J-71140D01*
G02X5150570Y680590I-13J71142D01*
G01X5149260Y680950D01*
X5137740D01*
Y669240D01*
G02X5092000Y623500I-45740J0D01*
G01X4822000D01*
G02X4776260Y669240I0J45740D01*
G37*
G36*
G01X2314260Y1708950D02*
X2351050Y1745740D01*
X2918950D01*
X2955740Y1708950D01*
Y1580900D01*
X2976040D01*
X2978960Y1583600D01*
G02X3010000Y1595740I31040J-33612D01*
G01X3070000D01*
G02X3115740Y1550000I0J-45740D01*
G01Y1488290D01*
G03X3141890Y1468820I20320J-4D01*
G02X3155000Y1470740I13113J-43820D01*
G01X3285000D01*
G02X3330740Y1425000I0J-45740D01*
G01Y1335000D01*
G02X3285000Y1289260I-45740J0D01*
G01X3155000D01*
G02X3112630Y1317770I0J45739D01*
G01X3110050Y1324100D01*
X3095000D01*
G02X3055470Y1340470I0J55913D01*
G01X3031690Y1364260D01*
X3010000D01*
G02X2964260Y1410000I0J45740D01*
G01Y1469100D01*
X2913790D01*
X2908950Y1464260D01*
X2534380D01*
G03X2516120Y1435040I5J-20319D01*
G02X2520740Y1415000I-41122J-20033D01*
G01Y1355000D01*
G02X2475000Y1309260I-45740J0D01*
G01X2365000D01*
G02X2319260Y1355000I0J45740D01*
G01Y1415000D01*
G02X2335010Y1449540I45748J0D01*
G03X2336060Y1479250I-13318J15344D01*
G01X2314260Y1501050D01*
Y1708950D01*
G37*
G36*
G01X7268320Y5172340D02*
G02X7224980Y5230000I16686J57660D01*
G02X7345020I60020J0D01*
G02X7335250Y5197170I-60022J-7D01*
G03X7352260Y5165740I17011J-11112D01*
G01X7460000D01*
G02X7505740Y5120000I0J-45740D01*
G01Y5000000D01*
G02X7464960Y4954530I-45740J0D01*
G01X7455900Y4953540D01*
Y3470000D01*
G02X7439530Y3430470I-55913J0D01*
G01X7399640Y3390590D01*
G03X7414010Y3355900I14369J-14369D01*
G01X7580000D01*
G02X7619530Y3339530I0J-55913D01*
G01X7719530Y3239530D01*
G02X7735900Y3200000I-39543J-39530D01*
G01Y830000D01*
G02X7719530Y790470I-55913J0D01*
G01X7539530Y610470D01*
G02X7500000Y594100I-39530J39543D01*
G01X6891840D01*
G02X6854140Y574260I-37700J25899D01*
G01X6714140D01*
G02X6669300Y610950I0J45745D01*
G01X6667660Y619100D01*
X6591340D01*
G02X6562690Y600160I-37705J25896D01*
G01X6554540Y598520D01*
Y573640D01*
G02X6538170Y534110I-55913J0D01*
G01X6505740Y501690D01*
Y480000D01*
G02X6460000Y434260I-45740J0D01*
G01X6400000D01*
G02X6372850Y443190I0J45737D01*
G03X6360790I-6030J-8178D01*
G02X6333640Y434260I-27150J36807D01*
G01X6273640D01*
G02X6227900Y480000I0J45740D01*
G01Y530000D01*
G02X6273640Y575740I45740J0D01*
G01X6295330D01*
X6308690Y589100D01*
X6298480Y599320D01*
X6294200Y599260D01*
X6218310D01*
X6149530Y530470D01*
G02X6110000Y514100I-39530J39543D01*
G01X5979070D01*
G02X5939540Y530470I0J55913D01*
G01X5900760Y569260D01*
X5880000D01*
G02X5842300Y589100I0J45739D01*
G01X5765000D01*
G02X5725470Y605470I0J55913D01*
G01X5707450Y623500D01*
X5468000D01*
G02X5422260Y669240I0J45740D01*
G01Y829240D01*
G02X5468000Y874980I45740J0D01*
G01X5738000D01*
G02X5783740Y829240I0J-45740D01*
G01Y705310D01*
X5788150Y700900D01*
X5842300D01*
G02X5880000Y720740I37700J-25899D01*
G01X5930000D01*
G02X5975740Y675000I0J-45740D01*
G01Y652380D01*
X6002220Y625900D01*
X6086850D01*
X6137900Y676950D01*
Y705000D01*
G02X6183640Y750740I45740J0D01*
G01X6293640D01*
G02X6307300Y748650I-8J-45739D01*
G03X6319510Y753990I3031J9698D01*
G02X6330470Y769530I50497J-23979D01*
G01X6370470Y809530D01*
G02X6391220Y822650I39521J-39535D01*
G03X6397960Y832730I-3409J9573D01*
G02X6397900Y835000I45678J2343D01*
G01Y895000D01*
G02X6443640Y940740I45740J0D01*
G01X6553640D01*
G02X6591340Y920900I0J-45739D01*
G01X6667680D01*
X6668670Y929960D01*
G02X6683240Y958720I45469J-4964D01*
G01Y1124100D01*
X2220000D01*
G02X2180470Y1140470I0J55913D01*
G01X2120470Y1200470D01*
G02X2104100Y1240000I39543J39530D01*
G01Y1308520D01*
X2095950Y1310160D01*
G02X2059260Y1355000I9055J44840D01*
G01Y1415000D01*
G02X2105000Y1460740I45740J0D01*
G01X2215000D01*
G02X2260740Y1415000I0J-45740D01*
G01Y1355000D01*
G02X2224050Y1310160I-45745J0D01*
G01X2215900Y1308520D01*
Y1263150D01*
X2243150Y1235900D01*
X6718820D01*
G02X6758350Y1219530I0J-55913D01*
G01X6778670Y1199210D01*
G02X6795040Y1159680I-39543J-39530D01*
G01Y970740D01*
X6854140D01*
G02X6886230Y957590I0J-45730D01*
G03X6898570Y956100I7134J7237D01*
G02X6935000Y966140I36437J-61098D01*
G02X7006140Y895000I0J-71140D01*
G02X6994800Y856470I-71127J0D01*
G03X7011880Y825140I17079J-11010D01*
G01X7536090D01*
X7584100Y873150D01*
Y2838530D01*
G03X7550310Y2853750I-20321J4D01*
G02X7520000Y2842260I-30316J34248D01*
G01X7496580D01*
X7495500Y2833320D01*
G02X7479530Y2800470I-55502J6675D01*
G01X7419530Y2740470D01*
G02X7380000Y2724100I-39530J39543D01*
G01X6873150D01*
X6860740Y2711690D01*
Y2680000D01*
G02X6858820Y2666890I-45740J3D01*
G03X6878290Y2640740I19466J-5830D01*
G01X6955000D01*
G02X7000740Y2595000I0J-45740D01*
G01Y2545000D01*
G02X6955000Y2499260I-45740J0D01*
G01X6755000D01*
G02X6721280Y2514100I0J45730D01*
G01X6668050D01*
G03X6653680Y2479410I-1J-20321D01*
G01X6736030Y2397060D01*
X6741850Y2398810D01*
G02X6755000Y2400740I13147J-43810D01*
G01X6955000D01*
G02X7000740Y2355000I0J-45740D01*
G01Y2305000D01*
G02X6955000Y2259260I-45740J0D01*
G01X6755000D01*
G02X6721210Y2274170I0J45744D01*
G02X6684510Y2290470I2827J55830D01*
G01X6558920Y2416070D01*
X6549370Y2406520D01*
X6548870Y2403210D01*
G02X6548270Y2400000I-45231J6793D01*
G02X6549380Y2390000I-44628J-10015D01*
G01Y2360000D01*
G02X6548270Y2350000I-45738J15D01*
G02X6549380Y2340000I-44628J-10015D01*
G01Y2310000D01*
G02X6503640Y2264260I-45740J0D01*
G01X6383640D01*
G02X6370650Y2266140I-11J45742D01*
G01X6369240Y2266560D01*
X6299210D01*
X6292080Y2259430D01*
Y2189400D01*
X6292500Y2187990D01*
G02X6294380Y2175000I-43862J-12979D01*
G01Y2055000D01*
G02X6292500Y2042010I-45742J-11D01*
G01X6292080Y2040600D01*
Y1913620D01*
G03X6317420Y1893930I20321J1D01*
G02X6335000Y1896140I17594J-68928D01*
G02Y1753860I0J-71140D01*
G02X6292580Y1767890I0J71144D01*
G02X6260000Y1754260I-32580J32123D01*
G01X6200000D01*
G02X6154260Y1800000I0J45740D01*
G01Y1850000D01*
G02X6175200Y1888430I45734J0D01*
G01Y1989240D01*
G03X6152960Y2009460I-20318J-7D01*
G02X6148640Y2009260I-4273J45542D01*
G01X6089540D01*
Y1884920D01*
G02X6105740Y1850000I-29536J-34920D01*
G01Y1800000D01*
G02X6060000Y1754260I-45740J0D01*
G01X6000000D01*
G02X5954260Y1800000I0J45740D01*
G01Y1850000D01*
G02X5977740Y1889960I45743J0D01*
G01Y2009260D01*
X5789540D01*
Y1868140D01*
G03X5798850Y1858020I10159J4D01*
G02X5840740Y1812440I-3853J-45580D01*
G01Y1722440D01*
G02X5820340Y1684360I-45741J0D01*
G03Y1650520I11251J-16920D01*
G02X5840740Y1612440I-25341J-38080D01*
G01Y1522440D01*
G02X5795000Y1476700I-45740J0D01*
G01X5665000D01*
G02X5621840Y1507300I0J45738D01*
G01X5619450Y1514100D01*
X5610000D01*
G02X5570470Y1530470I0J55913D01*
G01X5520470Y1580470D01*
G02X5504100Y1620000I39543J39530D01*
G01Y1672300D01*
G02X5484260Y1710000I25899J37700D01*
G01Y1733550D01*
G03X5464180Y1753860I-20318J-7D01*
G02X5393860Y1825000I825J71140D01*
G02X5465000Y1896140I71140J0D01*
G02X5501710Y1885940I5J-71141D01*
G02X5530000Y1895740I28290J-35933D01*
G01X5590000D01*
G02X5631790Y1868600I0J-45744D01*
G03X5654860Y1857040I18567J8254D01*
G02X5665000Y1858180I10148J-44599D01*
G01X5677740D01*
Y2009260D01*
X5468640D01*
G02X5422900Y2055000I0J45740D01*
G01Y2175000D01*
G02X5426860Y2193620I45741J3D01*
G01X5427740Y2195590D01*
Y2348820D01*
G03X5406780Y2369130I-20320J0D01*
G02X5405000Y2369100I-1832J55869D01*
G01X5399110D01*
G03X5378970Y2346080I1J-20321D01*
G02X5379380Y2340000I-45328J-6110D01*
G01Y2310000D01*
G02X5333640Y2264260I-45740J0D01*
G01X5213640D01*
G02X5200650Y2266140I-11J45742D01*
G01X5199240Y2266560D01*
X5023960D01*
G03X5004190Y2241520I-4J-20321D01*
G02X5006140Y2225000I-69187J-16542D01*
G02X4863860I-71140J0D01*
G02X4874060Y2261710I71141J5D01*
G02X4864260Y2290000I35933J28290D01*
G01Y2350000D01*
G02X4910000Y2395740I45740J0D01*
G01X4960000D01*
G02X4991210Y2383440I0J-45746D01*
G01X5147880D01*
G03X5168100Y2405680I-7J20318D01*
G02X5167900Y2410000I45542J4273D01*
G01Y2440000D01*
G02X5169010Y2450000I45738J-15D01*
G02X5167900Y2460000I44628J10015D01*
G01Y2490000D01*
G02X5169010Y2500000I45738J-15D01*
G02X5167910Y2509130I44630J10008D01*
G01X5167720Y2519100D01*
X4134280D01*
G02X4094750Y2535470I0J55913D01*
G01X3990470Y2639750D01*
G02X3974100Y2679280I39543J39530D01*
G01Y3006130D01*
X3926130Y3054100D01*
X3287700D01*
G02X3250000Y3034260I-37700J25899D01*
G01X3205590D01*
Y3023730D01*
X3205620Y3023350D01*
G02X3205740Y3020000I-45621J-3311D01*
G01Y2960000D01*
G02X3193440Y2928790I-45746J0D01*
G01Y2325000D01*
G02X3176320Y2283680I-58438J6D01*
G01X3101320Y2208680D01*
G02X3060000Y2191560I-41326J41318D01*
G01X2945740D01*
Y2150900D01*
X2976280D01*
G02X3010000Y2165740I33720J-30890D01*
G01X3070000D01*
G02X3115740Y2120000I0J-45740D01*
G01Y2058290D01*
G03X3141890Y2038820I20320J-4D01*
G02X3155000Y2040740I13113J-43820D01*
G01X3285000D01*
G02X3330740Y1995000I0J-45740D01*
G01Y1905000D01*
G02X3285000Y1859260I-45740J0D01*
G01X3155000D01*
G02X3112630Y1887770I0J45739D01*
G01X3110050Y1894100D01*
X3095000D01*
G02X3055470Y1910470I0J55913D01*
G01X3031690Y1934260D01*
X3010000D01*
G02X2964260Y1980000I0J45740D01*
G01Y2039100D01*
X2899280D01*
G02X2898200Y2039110I-22J55900D01*
G01X2893880Y2039190D01*
X2888950Y2034260D01*
X2534380D01*
G03X2516120Y2005040I5J-20319D01*
G02X2520740Y1985000I-41122J-20033D01*
G01Y1925000D01*
G02X2475000Y1879260I-45740J0D01*
G01X2365000D01*
G02X2325400Y1902110I0J45739D01*
G03X2296400Y1908750I-17589J-10173D01*
G02X2265000Y1899100I-31400J46261D01*
G01X2252700D01*
G02X2215000Y1879260I-37700J25899D01*
G01X2105000D01*
G02X2059260Y1925000I0J45740D01*
G01Y1985000D01*
G02X2105000Y2030740I45740J0D01*
G01X2215000D01*
G02X2222320Y2030150I-3J-45740D01*
G01X2223120Y2030020D01*
X2234100D01*
Y2064260D01*
X2002900D01*
G02X1970160Y2050460I-32740J31937D01*
G01X1885740D01*
Y1678950D01*
X1888950Y1675740D01*
X2238950D01*
X2275740Y1638950D01*
Y1531050D01*
X2238950Y1494260D01*
X2088950D01*
X2068950Y1474260D01*
X1988510D01*
X1986740Y1473570D01*
G02X1970160Y1470460I-16580J42641D01*
G01X1890160D01*
G02X1873580Y1473570I0J45751D01*
G01X1871810Y1474260D01*
X1691050D01*
X1644260Y1521050D01*
Y2378950D01*
X1652230Y2386920D01*
G03X1645050Y2404260I-7186J7181D01*
G01X1441050D01*
X1394260Y2451050D01*
Y2718950D01*
X1426750Y2751440D01*
X1421460Y2758490D01*
G02X1418400Y2762760I88459J66623D01*
G03X1401600I-8400J-5707D01*
G02X1310000Y2714260I-91600J62251D01*
G02Y2935740I0J110740D01*
G02X1312920Y2935700I-57J-110739D01*
G03X1333780Y2956010I540J20313D01*
G01Y3129680D01*
G02X1350150Y3169210I55913J0D01*
G01X1430790Y3249850D01*
G02X1470320Y3266220I39530J-39543D01*
G01X1769310D01*
X1797610Y3294530D01*
G02X1825120Y3309590I39520J-39535D01*
G02X1860000Y3325740I34880J-29591D01*
G01X1920000D01*
G02X1953720Y3310900I0J-45730D01*
G01X2046280D01*
G02X2080000Y3325740I33720J-30890D01*
G01X2140000D01*
G02X2171040Y3313600I0J-45752D01*
G01X2173960Y3310900D01*
X2180320D01*
G02X2219850Y3294530I0J-55913D01*
G01X2253150Y3261220D01*
X2304030D01*
X2305830Y3261940D01*
G02X2326500Y3265900I20665J-51941D01*
G01X2344410D01*
X2346380Y3266780D01*
G02X2365000Y3270740I18617J-41781D01*
G01X2485000D01*
G02X2492320Y3270150I-3J-45740D01*
G01X2493120Y3270020D01*
X2504100D01*
Y3359110D01*
G03X2494130Y3369270I-10160J1D01*
G02X2449260Y3415000I868J45730D01*
G01Y3424550D01*
G03X2426190Y3444680I-20319J-2D01*
G02X2420000Y3444260I-6184J45320D01*
G01X2360000D01*
G02X2331710Y3454060I0J45733D01*
G02X2295000Y3443860I-36705J60941D01*
G02X2223860Y3515000I0J71140D01*
G02X2294180Y3586140I71145J0D01*
G03X2314260Y3606450I-238J20317D01*
G01Y3630000D01*
G02X2360000Y3675740I45740J0D01*
G01X2420000D01*
G02X2426190Y3675320I6J-45740D01*
G03X2449260Y3695450I2751J20132D01*
G01Y3705000D01*
G02X2495000Y3750740I45740J0D01*
G01X2625000D01*
G02X2653640Y3740660I0J-45727D01*
G03X2666360I6360J7927D01*
G02X2695000Y3750740I28640J-35647D01*
G01X2825000D01*
G02X2870740Y3705000I0J-45740D01*
G01Y3695450D01*
G03X2893810Y3675320I20319J2D01*
G02X2900000Y3675740I6184J-45320D01*
G01X2960000D01*
G02X2969800Y3674680I10J-45741D01*
G01X2975230Y3673490D01*
X2986340Y3684600D01*
X2851190Y3819750D01*
G02X2834820Y3859280I39543J39530D01*
G01Y5016300D01*
G02X2754980Y5140000I55907J123700D01*
G02X2890720Y5275740I135740J0D01*
G02X3001180Y5218890I0J-135737D01*
G03X3034260I16540J11805D01*
G02X3255180I110460J-78887D01*
G03X3288260I16540J11805D01*
G02X3398720Y5275740I110460J-78887D01*
G02Y5004260I0J-135740D01*
G02X3288260Y5061110I0J135737D01*
G03X3255180I-16540J-11805D01*
G02X3200620Y5016300I-110468J78883D01*
G01Y3690150D01*
X3381230Y3509540D01*
X5118080D01*
G02X5157610Y3493170I0J-55913D01*
G01X5169410Y3481360D01*
G03X5204100Y3495730I14369J14369D01*
G01Y4956850D01*
X5156850Y5004100D01*
X4921460D01*
X4920470Y4995040D01*
G02X4875000Y4954260I-45470J4960D01*
G01X4735000D01*
G02X4689260Y5000000I0J45740D01*
G01Y5120000D01*
G02X4695310Y5142730I45739J-4D01*
G03X4683320Y5172340I-17636J10091D01*
G02X4639980Y5230000I16686J57660D01*
G02X4760020I60020J0D01*
G02X4750250Y5197170I-60022J-7D01*
G03X4767260Y5165740I17011J-11112D01*
G01X4875000D01*
G02X4920470Y5124960I0J-45740D01*
G01X4921460Y5115900D01*
X5180000D01*
G02X5219530Y5099530I0J-55913D01*
G01X5299530Y5019530D01*
G02X5315900Y4980000I-39543J-39530D01*
G01Y3633270D01*
G03X5342370Y3613900I20321J-2D01*
G02X5363900Y3617240I21542J-67798D01*
G02X5395600Y3609790I6J-71141D01*
G02X5420000Y3616840I24400J-38699D01*
G01X5480000D01*
G02X5524270Y3582610I0J-45742D01*
G01X5526240Y3575010D01*
X5544260D01*
Y3593800D01*
G02X5590000Y3639540I45740J0D01*
G01X5670000D01*
G02X5715740Y3593800I0J-45740D01*
G01Y3513800D01*
G02X5670000Y3468060I-45740J0D01*
G01X5642080D01*
Y3390740D01*
X6075200D01*
Y3457080D01*
G03X6050220Y3476860I-20321J1D01*
G02X6033900Y3474960I-16331J69239D01*
G02Y3617240I0J71140D01*
G02X6071230Y3606660I0J-71147D01*
G02X6100000Y3616840I28770J-35564D01*
G01X6160000D01*
G02X6205740Y3571100I0J-45740D01*
G01Y3521100D01*
G02X6192080Y3488500I-45730J0D01*
G01Y3410760D01*
G03X6214320Y3390540I20318J7D01*
G02X6218640Y3390740I4273J-45542D01*
G01X6248640D01*
G02X6279900Y3378400I8J-45743D01*
G03X6314100Y3393230I13882J14835D01*
G01Y4936850D01*
X6246850Y5004100D01*
X6195100D01*
X6194110Y4995040D01*
G02X6148640Y4954260I-45470J4960D01*
G01X6008640D01*
G02X5962900Y5000000I0J45740D01*
G01Y5120000D01*
G02X5968950Y5142730I45739J-4D01*
G03X5956960Y5172340I-17636J10091D01*
G02X5913620Y5230000I16686J57660D01*
G02X6033660I60020J0D01*
G02X6023890Y5197170I-60022J-7D01*
G03X6040900Y5165740I17011J-11112D01*
G01X6148640D01*
G02X6194110Y5124960I0J-45740D01*
G01X6195100Y5115900D01*
X6270000D01*
G02X6309530Y5099530I0J-55913D01*
G01X6409530Y4999530D01*
G02X6425900Y4960000I-39543J-39530D01*
G01Y3230000D01*
G02X6424180Y3216230I-55901J-10D01*
G03X6443870Y3190900I19691J-5011D01*
G01X6641850D01*
X6850470Y3399530D01*
G02X6890000Y3415900I39530J-39543D01*
G01X7266850D01*
X7344100Y3493150D01*
Y4954260D01*
X7320000D01*
G02X7274260Y5000000I0J45740D01*
G01Y5120000D01*
G02X7280310Y5142730I45739J-4D01*
G03X7268320Y5172340I-17636J10091D01*
G37*
G54D36*
X5743640Y5230000D03*
X4470000D03*
%LPD*%
G75*
G36*
G01X1460000Y2450000D02*
X1440000Y2470000D01*
Y2700000D01*
X1450000Y2710000D01*
X1970000D01*
Y2450000D01*
X1460000D01*
G37*
G36*
G01X1510310Y3113780D02*
X1769310D01*
X1797610Y3085470D01*
G03X1825120Y3070410I39520J39535D01*
G03X1860000Y3054260I34880J29591D01*
G01X1920000D01*
G03X1953720Y3069100I0J45730D01*
G01X2046280D01*
G03X2080000Y3054260I33720J30890D01*
G01X2140000D01*
G03X2173720Y3069100I0J45730D01*
G01X2190320D01*
G03X2229850Y3085470I0J55913D01*
G01X2253150Y3108780D01*
X2304030D01*
X2305830Y3108060D01*
G03X2307300Y3107500I20633J51953D01*
G02X2320210Y3084290I-6984J-19080D01*
G03X2319260Y3075000I44792J-9274D01*
G01Y3045000D01*
G03X2320370Y3035000I45738J15D01*
G03X2319260Y3025000I44628J-10015D01*
G01Y2995000D01*
G03X2365000Y2949260I45740J0D01*
G01X2485000D01*
G03X2530740Y2995000I0J45740D01*
G01Y3025000D01*
G03X2529630Y3035000I-45738J-15D01*
G03X2530740Y3045000I-44628J10015D01*
G01Y3075000D01*
G03X2524360Y3098300I-45736J0D01*
G01X2520350Y3105080D01*
X2533110Y3117840D01*
X2580470Y3070470D01*
G03X2620000Y3054100I39530J39543D01*
G01X2809080D01*
X2809270Y3044130D01*
G03X2810370Y3035000I45730J878D01*
G03X2809260Y3025000I44628J-10015D01*
G01Y2995000D01*
G03X2855000Y2949260I45740J0D01*
G01X2975000D01*
G03X3020650Y2992050I0J45746D01*
G01X3021260Y3001560D01*
X3040790D01*
X3064260Y2978090D01*
Y2960000D01*
G03X3076560Y2928790I45746J0D01*
G01Y2349210D01*
X3035790Y2308440D01*
X2896250D01*
X2888950Y2315740D01*
X2351050D01*
X2348280Y2312960D01*
X2335740Y2318160D01*
Y2718950D01*
X2298950Y2755740D01*
X2114260D01*
Y2438950D01*
X2111050Y2435740D01*
X2015740D01*
Y2755740D01*
X1631580D01*
G02X1612730Y2783650I-1J20320D01*
G03X1620740Y2825000I-102725J41350D01*
G03X1510000Y2935740I-110740J0D01*
G03X1507080Y2935700I57J-110739D01*
G02X1486220Y2956010I-540J20313D01*
G01Y3089690D01*
X1510310Y3113780D01*
G37*
G36*
G01X2160000Y2710000D02*
X2280000D01*
X2290000Y2700000D01*
Y2330000D01*
X2260000Y2300000D01*
X1870000D01*
X1850000Y2280000D01*
Y2220000D01*
X1880000Y2190000D01*
X2230000D01*
Y2135690D01*
G02X2218960Y2125570I-10159J1D01*
G03X2215000Y2125740I-3940J-45571D01*
G01X2105000D01*
G03X2070470Y2110000I0J-45746D01*
G01X1880000D01*
X1840000Y2070000D01*
Y1660000D01*
X1870000Y1630000D01*
X2220000D01*
X2230000Y1620000D01*
Y1565690D01*
G02X2218960Y1555570I-10159J1D01*
G03X2215000Y1555740I-3940J-45571D01*
G01X2105000D01*
G03X2073180Y1542860I0J-45746D01*
G01X2070230Y1540000D01*
X2070000D01*
X2050000Y1520000D01*
X1710000D01*
X1690000Y1540000D01*
Y2360000D01*
X1720000Y2390000D01*
X2130000D01*
X2160000Y2420000D01*
Y2710000D01*
G37*
G36*
G01X2350000Y2100000D02*
Y2250000D01*
X2370000Y2270000D01*
X2870000D01*
X2900000Y2240000D01*
Y2110000D01*
X2870000Y2080000D01*
X2370000D01*
X2350000Y2100000D01*
G37*
G36*
G01X2900000Y1700000D02*
X2910000Y1690000D01*
Y1530000D01*
X2890000Y1510000D01*
X2370000D01*
X2360000Y1520000D01*
Y1690000D01*
X2370000Y1700000D01*
X2900000D01*
G37*
G36*
G01X2992580Y3457890D02*
G03X3035000Y3443860I42420J57114D01*
G03X3106140Y3515000I0J71140D01*
G01Y3515590D01*
G02X3140820Y3530120I20317J160D01*
G01X3300470Y3370470D01*
G03X3340000Y3354100I39530J39543D01*
G01X5076850D01*
X5260520Y3170430D01*
G02X5246150Y3135740I-14369J-14369D01*
G01X5213640D01*
G03X5167900Y3090000I0J-45740D01*
G01Y3060000D01*
G03X5169010Y3050000I45738J15D01*
G03X5167900Y3040000I44628J-10015D01*
G01Y3010000D01*
G03X5169010Y3000000I45738J15D01*
G03X5167900Y2990000I44628J-10015D01*
G01Y2960000D01*
G03X5169010Y2950000I45738J15D01*
G03X5167900Y2940000I44628J-10015D01*
G01Y2910000D01*
G03X5169010Y2900000I45738J15D01*
G03X5167900Y2890000I44628J-10015D01*
G01Y2860000D01*
G03X5169010Y2850000I45738J15D01*
G03X5167900Y2840000I44628J-10015D01*
G01Y2810000D01*
G03X5169010Y2800000I45738J15D01*
G03X5167900Y2790000I44628J-10015D01*
G01Y2760000D01*
G03X5169010Y2750000I45738J15D01*
G03X5167910Y2740870I44630J-10008D01*
G01X5167720Y2730900D01*
X5018150D01*
X5000740Y2748310D01*
Y2835000D01*
G03X4999680Y2844790I-45739J0D01*
G02X5021850Y2869330I19849J4353D01*
G03X5030000Y2868860I8164J70669D01*
G03Y3011140I0J71140D01*
G03X4993550Y3001090I4J-71139D01*
G03X4960000Y3015740I-33550J-31091D01*
G01X4820000D01*
G03X4784180Y2998440I0J-45733D01*
G01X4750000D01*
G03X4708680Y2981320I6J-58438D01*
G01X4668680Y2941320D01*
G03X4651560Y2900000I41318J-41326D01*
G01Y2879200D01*
X4645690Y2876460D01*
G03X4619260Y2835000I19304J-41460D01*
G01Y2705000D01*
G03X4619330Y2702380I45742J-89D01*
G02X4599050Y2680900I-20285J-1162D01*
G01X4178150D01*
X4135900Y2723150D01*
Y3050000D01*
G03X4119530Y3089530I-55913J0D01*
G01X3939530Y3269530D01*
G03X3900000Y3285900I-39530J-39543D01*
G01X3287700D01*
G03X3250000Y3305740I-37700J-25899D01*
G01X3110000D01*
G03X3064260Y3260000I0J-45740D01*
G01Y3238310D01*
X3041850Y3215900D01*
X3020920D01*
X3020730Y3225870D01*
G03X2984490Y3269750I-45733J-865D01*
G03X2986140Y3285000I-69492J15233D01*
G03X2843860I-71140J0D01*
G03X2845510Y3269750I71142J-17D01*
G03X2831320Y3264130I9512J-44741D01*
G01X2828890Y3262670D01*
X2815900D01*
Y3359110D01*
G02X2825870Y3369270I10160J1D01*
G03X2870740Y3415000I-868J45730D01*
G01Y3424550D01*
G02X2893810Y3444680I20319J-2D01*
G03X2900000Y3444260I6184J45320D01*
G01X2960000D01*
G03X2992580Y3457890I0J45753D01*
G37*
G36*
G01X5539280Y3104100D02*
X5696850D01*
X5727740Y3073210D01*
Y2220740D01*
X5539540D01*
Y3088080D01*
G03X5539320Y3093040I-55900J5D01*
G01X5539280Y3093490D01*
Y3104100D01*
G37*
G36*
G01X5978150Y3079100D02*
X6337900D01*
Y3060000D01*
G03X6339010Y3050000I45738J15D01*
G03X6337900Y3040000I44628J-10015D01*
G01Y3010000D01*
G03X6339010Y3000000I45738J15D01*
G03X6337900Y2990000I44628J-10015D01*
G01Y2960000D01*
G03X6339010Y2950000I45738J15D01*
G03X6337900Y2940000I44628J-10015D01*
G01Y2910000D01*
G03X6339010Y2900000I45738J15D01*
G03X6337900Y2890000I44628J-10015D01*
G01Y2860000D01*
G03X6339010Y2850000I45738J15D01*
G03X6337900Y2840000I44628J-10015D01*
G01Y2810000D01*
G03X6339010Y2800000I45738J15D01*
G03X6337900Y2790000I44628J-10015D01*
G01Y2760000D01*
G03X6339010Y2750000I45738J15D01*
G03X6337900Y2740000I44628J-10015D01*
G01Y2710000D01*
G03X6339010Y2700000I45738J15D01*
G03X6337900Y2690000I44628J-10015D01*
G01Y2660000D01*
G03X6339010Y2650000I45738J15D01*
G03X6337900Y2640000I44628J-10015D01*
G01Y2610000D01*
G03X6339010Y2600000I45738J15D01*
G03X6337900Y2590000I44628J-10015D01*
G01Y2560000D01*
G03X6339010Y2550000I45738J15D01*
G03X6337900Y2540000I44628J-10015D01*
G01Y2510000D01*
G03X6339010Y2500000I45738J15D01*
G03X6337900Y2490000I44628J-10015D01*
G01Y2460000D01*
G03X6339010Y2450000I45738J15D01*
G03X6337900Y2440000I44628J-10015D01*
G01Y2410000D01*
G03X6339010Y2400000I45738J15D01*
G03X6337990Y2392950I44622J-10055D01*
G01X6337380Y2383440D01*
X6275000D01*
G03X6233680Y2366320I6J-58438D01*
G01X6192320Y2324960D01*
G03X6175200Y2283640I41318J-41326D01*
G01Y2240760D01*
G02X6152960Y2220540I-20318J7D01*
G03X6148640Y2220740I-4273J-45542D01*
G01X5939540D01*
Y3040490D01*
X5978150Y3079100D01*
G37*
G36*
G01X6933870Y3194100D02*
X7295850D01*
G02X7315580Y3168930I0J-20318D01*
G03X7314260Y3158000I44422J-10910D01*
G01Y2888000D01*
G03X7319900Y2866000I45728J0D01*
G02X7302090Y2835900I-17812J-9780D01*
G01X6995740D01*
Y2870000D01*
G03X6995660Y2872730I-45741J26D01*
G02X7015940Y2894260I20283J1211D01*
G01X7040000D01*
G03X7070020Y2905490I0J45740D01*
G03X7100000Y2898860I29989J64508D01*
G03Y3041140I0J71140D01*
G03X7070020Y3034510I9J-71138D01*
G03X7040000Y3045740I-30020J-34510D01*
G01X6900000D01*
G03X6859550Y3021350I0J-45737D01*
G03X6840000Y3025740I-19550J-41336D01*
G01X6814570D01*
G02X6800200Y3060430I-1J20321D01*
G01X6933870Y3194100D01*
G37*
G54D10*
X360000Y360000D03*
Y5040000D03*
X8140000Y360000D03*
Y5040000D03*
G54D11*
X364330Y1208450D03*
Y1708450D03*
Y2208450D03*
Y2708450D03*
Y3208450D03*
X635930Y3963210D03*
Y4463210D03*
X1146790Y432460D03*
Y932460D03*
X1135930Y3963210D03*
Y4463210D03*
X1646790Y432460D03*
Y932460D03*
X1930000Y1250000D03*
X1968980Y1808500D03*
X1778980Y2878500D03*
X1758980Y3348500D03*
X1635930Y3963210D03*
Y4463210D03*
X2278980Y2878500D03*
X2258980Y3348500D03*
X2135930Y3963210D03*
Y4463210D03*
X2485370Y290190D03*
X2750000Y1380000D03*
X2468980Y1808500D03*
X2985370Y290190D03*
X2930000Y1370000D03*
X3485370Y290190D03*
X3740000Y1430000D03*
X3552350Y2197830D03*
X3836880Y4040800D03*
Y4540800D03*
X3985370Y290190D03*
X4052350Y2197830D03*
X4485370Y290190D03*
X4580000Y1440000D03*
X4421500Y2768980D03*
Y3268980D03*
X4336880Y4040800D03*
Y4540800D03*
X4985370Y290190D03*
X4836880Y4040800D03*
Y4540800D03*
X5210000Y2050000D03*
X5150000Y2400000D03*
X5485370Y290190D03*
X5631500Y2428980D03*
Y2928980D03*
X5595790Y4002000D03*
Y4502000D03*
X5985370Y290190D03*
X6110000Y760000D03*
X5880000Y1980000D03*
X6130000D03*
X6091500Y2448980D03*
Y2948980D03*
X6095790Y4002000D03*
Y4502000D03*
X6290000Y2450000D03*
X6280000Y2940000D03*
X6510000Y3280000D03*
X6250000Y3420000D03*
X6811500Y1298980D03*
Y1798980D03*
X6730000Y2230000D03*
X6620000Y2300000D03*
X6910000Y3120000D03*
X6688640Y4079600D03*
Y4579600D03*
X7010000Y2230000D03*
X6990000Y2690000D03*
X7020000Y2460000D03*
X7210000Y2870000D03*
X7380000Y950000D03*
X7981950Y1214920D03*
Y1714920D03*
Y2214920D03*
Y2714920D03*
Y3214920D03*
Y3714920D03*
Y4214920D03*
G54D20*
X2000000Y3190000D03*
X2295000Y3515000D03*
X2480000Y1660000D03*
X2560000D03*
X2660000D03*
X2750000D03*
X2420000Y2240000D03*
X2530000D03*
X2650000D03*
X2760000D03*
X3035000Y3515000D03*
X2915000Y3285000D03*
X4935000Y2225000D03*
X5030000Y2940000D03*
X5169240Y749240D03*
X5363900Y3546100D03*
X5465000Y1825000D03*
X5995000Y965000D03*
X6033900Y3546100D03*
X6335000Y1825000D03*
X6935000Y895000D03*
X7100000Y2970000D03*
X6950000Y3550000D03*
G54D12*
X1039000Y2098000D03*
Y3302000D03*
G54D30*
X4710000Y2770000D03*
X4910000D03*
G54D21*
X2425000Y3010000D03*
Y3060000D03*
Y3110000D03*
Y3160000D03*
Y3210000D03*
X2915000Y3110000D03*
Y3060000D03*
Y3010000D03*
Y3210000D03*
Y3160000D03*
X5273640Y2325000D03*
Y2375000D03*
Y2425000D03*
Y2475000D03*
Y2525000D03*
Y2575000D03*
Y2625000D03*
Y2675000D03*
Y2725000D03*
Y2775000D03*
Y2825000D03*
Y2875000D03*
Y2925000D03*
Y2975000D03*
Y3025000D03*
Y3075000D03*
X6443640Y2325000D03*
Y2725000D03*
Y2675000D03*
Y2625000D03*
Y2575000D03*
Y2525000D03*
Y2475000D03*
Y2425000D03*
Y2375000D03*
Y3075000D03*
Y3025000D03*
Y2975000D03*
Y2925000D03*
Y2875000D03*
Y2825000D03*
Y2775000D03*
G54D13*
X1310000Y2575000D03*
X1510000Y2825000D03*
X1310000D03*
G54D22*
X2760000Y3460000D03*
X2560000D03*
X2760000Y3660000D03*
X2560000D03*
X3220000Y1380000D03*
Y1580000D03*
Y1950000D03*
Y2150000D03*
X5730000Y1567440D03*
Y1767440D03*
G54D31*
X5783640Y2115000D03*
X5733640D03*
X5683640D03*
X5633640D03*
X5583640D03*
X5533640D03*
X5483640D03*
Y3285000D03*
X5533640D03*
X5583640D03*
X5633640D03*
X5683640D03*
X5733640D03*
X5783640D03*
X6133640Y2115000D03*
X6083640D03*
X6033640D03*
X5983640D03*
X5933640D03*
X5883640D03*
X5833640D03*
Y3285000D03*
X5883640D03*
X5933640D03*
X5983640D03*
X6033640D03*
X6083640D03*
X6133640D03*
X6233640Y2115000D03*
X6183640D03*
Y3285000D03*
X6233640D03*
G54D14*
X1510000Y2575000D03*
G54D23*
X2840000Y1584280D03*
Y2154280D03*
G54D32*
X6855000Y2330000D03*
Y2450000D03*
Y2570000D03*
G54D33*
X7440000Y2377000D03*
Y3023000D03*
G54D24*
X3135000Y2990000D03*
Y3110000D03*
Y3230000D03*
X3225000Y2990000D03*
Y3110000D03*
Y3230000D03*
X4935000Y2320000D03*
X4845000D03*
Y2940000D03*
X4935000D03*
X5995000Y645000D03*
X5905000D03*
Y870000D03*
X5995000D03*
X6829140Y650000D03*
X6739140D03*
X6829140Y769240D03*
X6739140D03*
Y895000D03*
X6829140D03*
X6880000Y2710000D03*
X6790000D03*
X6925000Y2840000D03*
Y2970000D03*
X7015000Y2840000D03*
Y2970000D03*
G54D15*
X1930160Y1556200D03*
Y1403800D03*
Y1983800D03*
Y2136200D03*
X2620000Y1556200D03*
Y1403800D03*
Y1973800D03*
Y2126200D03*
X5630000Y3553800D03*
Y3706200D03*
G54D34*
G01X1310000Y2825000D02*
X1389680Y2904680D01*
Y3129680D01*
X1470320Y3210320D01*
X1792460D01*
X1837140Y3255000D01*
X1890000D01*
G01X1510000Y2825000D02*
X1430320Y2904680D01*
Y3112840D01*
X1487160Y3169680D01*
X1792460D01*
X1837140Y3125000D01*
X1890000D01*
G01Y3255000D02*
X2110000D01*
G01X1890000Y3125000D02*
X2110000D01*
G01X2160000Y1385000D02*
Y1240000D01*
X2220000Y1180000D01*
X6718820D01*
X6739140Y1159680D01*
Y895000D01*
G01X2165000Y2150000D02*
X2270000D01*
X2290000Y2130000D01*
Y1980000D01*
X2265000Y1955000D01*
X2160000D01*
G01Y2145000D02*
X2165000Y2150000D01*
G01X2110000Y3125000D02*
X2190320D01*
X2230000Y3164680D01*
X2321820D01*
X2326500Y3160000D01*
X2425000D01*
G01X2110000Y3255000D02*
X2180320D01*
X2230000Y3205320D01*
X2321820D01*
X2326500Y3210000D01*
X2425000D01*
G01X2560000Y3460000D02*
Y3170000D01*
X2620000Y3110000D01*
X2915000D01*
G01X2390000Y3605000D02*
X2485000D01*
X2540000Y3660000D01*
X2560000D01*
G01X2840000Y1584280D02*
X2899280Y1525000D01*
G01D02*
X3040000D01*
G01X3220000Y1380000D02*
X3095000D01*
X3040000Y1435000D01*
G01X3220000Y1950000D02*
X3095000D01*
X3040000Y2005000D01*
G01Y2095000D02*
X2899280D01*
X2840000Y2154280D01*
G01X2915000Y3110000D02*
X3135000D01*
G01X2915000Y3160000D02*
X3065000D01*
X3135000Y3230000D01*
G01X2760000Y3460000D02*
Y3200000D01*
X2800000Y3160000D01*
X2915000D01*
G01X2890720Y5140000D02*
Y3859280D01*
X3340000Y3410000D01*
X5100000D01*
X5440000Y3070000D01*
Y2460000D01*
X5405000Y2425000D01*
X5273640D01*
G01X2930000Y3605000D02*
X2835000D01*
X2780000Y3660000D01*
X2760000D01*
G01X3225000Y3110000D02*
X3949280D01*
X4030000Y3029280D01*
Y2679280D01*
X4134280Y2575000D01*
X5273640D01*
G01X3225000Y3230000D02*
X3900000D01*
X4080000Y3050000D01*
Y2700000D01*
X4155000Y2625000D01*
X5273640D01*
G01X3144720Y5140000D02*
Y3667000D01*
X3358080Y3453640D01*
X5118080D01*
X5483640Y3088080D01*
Y2115000D01*
G01X5273640Y2675000D02*
X4995000D01*
X4910000Y2760000D01*
Y2770000D01*
G01X4805000Y5060000D02*
X5180000D01*
X5260000Y4980000D01*
Y3370000D01*
X5470000Y3160000D01*
X5720000D01*
X5783640Y3096360D01*
Y2115000D01*
G01X5905000Y645000D02*
X5765000D01*
X5660760Y749240D01*
X5603000D01*
G01X5730000Y1567440D02*
X5727440Y1570000D01*
X5610000D01*
X5560000Y1620000D01*
Y1735000D01*
G01X5733640Y2115000D02*
Y1771080D01*
X5730000Y1767440D01*
G01X5905000Y645000D02*
Y644070D01*
X5979070Y570000D01*
X6110000D01*
X6215000Y675000D01*
X6238640D01*
G01X6033640Y2115000D02*
Y1828640D01*
X6030000Y1825000D01*
G01X7390000Y5060000D02*
X7400000Y5050000D01*
Y3470000D01*
X7290000Y3360000D01*
X6890000D01*
X6665000Y3135000D01*
X5955000D01*
X5883640Y3063640D01*
Y2115000D01*
G01X6078640Y5060000D02*
X6270000D01*
X6370000Y4960000D01*
Y3230000D01*
X6310560Y3170560D01*
X5920560D01*
X5833640Y3083640D01*
Y2115000D01*
G01X6498640Y770000D02*
X6738380D01*
X6739140Y769240D01*
G01X6498640Y770000D02*
X6410000D01*
X6370000Y730000D01*
Y571360D01*
X6303640Y505000D01*
G01X6498640Y675000D02*
X6714140D01*
X6739140Y650000D01*
G01X6498640Y675000D02*
Y573640D01*
X6430000Y505000D01*
G01X6498640Y865000D02*
X6709140D01*
X6739140Y895000D01*
G01X6443640Y2575000D02*
X6448640Y2570000D01*
X6855000D01*
G01X6443640Y2625000D02*
X6705000D01*
X6790000Y2710000D01*
G01X6443640Y2525000D02*
X6529040D01*
X6724040Y2330000D01*
X6855000D01*
G01X6829140Y769240D02*
X7559240D01*
X7640000Y850000D01*
Y3169280D01*
X7559280Y3250000D01*
X6910720D01*
X6685720Y3025000D01*
X6443640D01*
G01X6829140Y650000D02*
X7500000D01*
X7680000Y830000D01*
Y3200000D01*
X7580000Y3300000D01*
X6890000D01*
X6665000Y3075000D01*
X6443640D01*
G01X7440000Y3023000D02*
Y2840000D01*
X7380000Y2780000D01*
X6850000D01*
X6790000Y2720000D01*
Y2710000D01*
G54D25*
X2890720Y5140000D03*
X3144720D03*
X3398720D03*
G54D16*
X1920000Y2580000D03*
X2220000D03*
G54D35*
G01X1890000Y3190000D02*
X2000000D01*
G01X2290000Y3090000D02*
X2310000Y3110000D01*
X2425000D01*
G01X2000000Y3190000D02*
X2110000D01*
G01X2390000Y3515000D02*
X2295000D01*
G01X2530000Y3100000D02*
X2520000Y3110000D01*
X2425000D01*
G01X2870000Y2250000D02*
X3060000D01*
X3135000Y2325000D01*
Y2990000D01*
G01X2915000Y3060000D02*
X3065000D01*
X3135000Y2990000D01*
G01X2915000Y3210000D02*
Y3285000D01*
G01X2930000Y3515000D02*
X3035000D01*
G01X4957000Y749240D02*
X5169240D01*
G01X5273640Y2325000D02*
X4940000D01*
X4935000Y2320000D01*
G01D02*
Y2225000D01*
G01Y2940000D02*
X5030000D01*
G01X4845000D02*
X4750000D01*
X4710000Y2900000D01*
Y2770000D01*
G01X5390000Y2350000D02*
X5365000Y2375000D01*
X5273640D01*
G01D02*
X5175000D01*
X5150000Y2400000D01*
G01X5450000Y3546100D02*
X5363900D01*
G01X5560000Y1825000D02*
X5465000D01*
G01X5533640Y3285000D02*
Y3586360D01*
G01X5483640Y3285000D02*
Y3512460D01*
X5450000Y3546100D01*
G01X5583640Y3285000D02*
Y3507440D01*
X5630000Y3553800D01*
G01X5533640Y3586360D02*
X5530000Y3590000D01*
G01X6238640Y865000D02*
X6000000D01*
X5995000Y870000D01*
G01D02*
Y965000D01*
G01X6160000Y2250000D02*
X6183640Y2226360D01*
Y2115000D01*
G01X6150000Y2000000D02*
X6183640Y2033640D01*
Y2115000D01*
G01X6133640Y3285000D02*
Y3542460D01*
X6130000Y3546100D01*
G01D02*
X6033900D01*
G01X6233640Y2115000D02*
Y1828640D01*
X6230000Y1825000D01*
G01D02*
X6335000D01*
G01X6233640Y2115000D02*
Y2283640D01*
X6275000Y2325000D01*
X6443640D01*
G01Y2875000D02*
X6800000D01*
X6810000Y2865000D01*
G01X6443640Y2925000D02*
X6765000D01*
X6795000Y2955000D01*
X6810000D01*
G01X6210000Y3410000D02*
X6183640Y3383640D01*
Y3285000D01*
G01X6829140Y895000D02*
X6935000D01*
G01X6810000Y2865000D02*
X6900000D01*
X6925000Y2840000D01*
G01X6810000Y2955000D02*
X6910000D01*
X6925000Y2970000D01*
G01X7015000D02*
X7100000D01*
G01X6950000Y5060000D02*
Y3550000D01*
G54D26*
X3652720Y5140000D03*
G54D17*
X1890000Y3125000D03*
Y3255000D03*
X2110000Y3125000D03*
Y3255000D03*
X2390000Y3515000D03*
Y3605000D03*
X3040000Y1435000D03*
Y1525000D03*
Y2005000D03*
Y2095000D03*
X2930000Y3515000D03*
Y3605000D03*
X5560000Y1735000D03*
Y1825000D03*
X5450000Y3546100D03*
Y3636100D03*
X6030000Y1735000D03*
Y1825000D03*
X6130000Y3546100D03*
Y3636100D03*
X6303640Y415000D03*
X6430000D03*
X6303640Y505000D03*
X6430000D03*
X6230000Y1825000D03*
Y1735000D03*
X6810000Y2955000D03*
Y2865000D03*
G54D27*
X4210000Y5260000D03*
X4960000D03*
X5483640D03*
X6233640D03*
X6795000D03*
X7545000D03*
G54D18*
X1890000Y3190000D03*
X2110000D03*
G54D28*
X4365000Y5060000D03*
X4805000D03*
X5638640D03*
X6078640D03*
X6950000D03*
X7390000D03*
G54D19*
X2420000Y1575000D03*
Y1385000D03*
X2160000D03*
Y1480000D03*
Y1575000D03*
X2420000Y1955000D03*
X2160000D03*
X2420000Y2145000D03*
X2160000Y2050000D03*
Y2145000D03*
X6238640Y675000D03*
Y770000D03*
Y865000D03*
X6498640Y770000D03*
Y865000D03*
Y675000D03*
G54D29*
X4957000Y749240D03*
X5603000D03*
M02*
