M48
METRIC,TZ
T01C.254
;LEADER: 12 
;HEADER: 
;CODE  : ASCII 
;FILE  : HY_BQ24090_V10-1-2.drl for board H:/github/MBED-TOOLS/HARDWARE/HY_BQ24090_V10/PCB/#Taaaagg04136.tmp ... layers TOP and BOTTOM
;T01 Holesize 1. = 0.254000 Tolerance = +0.000000/-0.000000 PLATED MM Quantity = 39
%
G90
T01
X80000Y90000
X80000Y260000
X80000Y980000
X330000Y460000
X330000Y290000
X510000Y80000
X680000Y80000
X690000Y730000
X760000Y730000
X690000Y800000
X760000Y800000
X600000Y1000000
X800000Y910000
X1000000Y910000
X800000Y1000000
X1000000Y1000000
X1130000Y850000
X1130000Y770000
X1190000Y710000
X1070000Y710000
X1190000Y600000
X1130000Y600000
X1070000Y600000
X1190000Y530000
X1130000Y530000
X1070000Y530000
X1190000Y460000
X1130000Y460000
X1070000Y460000
X1040000Y260000
X1240000Y90000
X1040000Y90000
X1410000Y90000
X1290000Y350000
X1400000Y350000
X1600000Y470000
X1710000Y470000
X1970000Y700000
X1840000Y860000
M30
