M48
METRIC,TZ
T01C.254
T02C.8
T03C.9
T04C1.1
T05C1.4
T06C1.8
T07C2.3
T08C3.3
;LEADER: 12 
;HEADER: 
;CODE  : ASCII 
;FILE  : hy_uart_dbug_v30_251110-1-2.drl for board G:/github/DebugTool/HARDWARE/HY_UART_DBUG_V30_251110/#Taaadfg19368.tmp ... layers TOP and BOTTOM
;T01 Holesize 1. = 0.254000 Tolerance = +0.000000/-0.000000 PLATED MM Quantity = 326
;T02 Holesize 2. = 0.800000 Tolerance = +0.000000/-0.000000 PLATED MM Quantity = 18
;T03 Holesize 3. = 0.900000 Tolerance = +0.000000/-0.000000 PLATED MM Quantity = 12
;T04 Holesize 4. = 1.100000 Tolerance = +0.000000/-0.000000 PLATED MM Quantity = 8
;T05 Holesize 5. = 1.400000 Tolerance = +0.000000/-0.000000 PLATED MM Quantity = 6
;T06 Holesize 6. = 1.800000 Tolerance = +0.000000/-0.000000 PLATED MM Quantity = 2
;T07 Holesize 7. = 2.300000 Tolerance = +0.000000/-0.000000 PLATED MM Quantity = 6
;T08 Holesize 8. = 3.300000 Tolerance = +0.000000/-0.000000 PLATED MM Quantity = 6
%
G90
T01
X980000Y260000
X1290000Y260000
X1620000Y260000
X1930000Y260000
X2200000Y60000
X2200000Y330000
X2440000Y60000
X2580000Y60000
X2720000Y170000
X2720000Y340000
X3260000Y210000
X3410000Y100000
X3700000Y100000
X4010000Y110000
X4270000Y60000
X4270000Y210000
X4270000Y480000
X4540000Y110000
X4830000Y110000
X5140000Y110000
X5580000Y110000
X5870000Y110000
X6180000Y110000
X6420000Y110000
X6610000Y180000
X6700000Y500000
X6700000Y940000
X6700000Y710000
X6320000Y840000
X6190000Y590000
X5880000Y590000
X5590000Y590000
X5390000Y820000
X5150000Y860000
X5150000Y620000
X4840000Y620000
X4550000Y890000
X4550000Y620000
X4270000Y750000
X4010000Y890000
X4010000Y620000
X3700000Y890000
X3700000Y620000
X3410000Y890000
X3410000Y620000
X3250000Y760000
X3060000Y920000
X2870000Y920000
X2750000Y570000
X2550000Y860000
X2550000Y760000
X2550000Y660000
X2450000Y860000
X2450000Y760000
X2450000Y660000
X2350000Y860000
X2350000Y760000
X2350000Y660000
X2130000Y570000
X1870000Y930000
X1870000Y800000
X1870000Y670000
X1870000Y540000
X250000Y890000
X250000Y1200000
X910000Y1300000
X1660000Y1210000
X1850000Y1276200
X2010000Y1380000
X2260000Y1370000
X2440000Y1440000
X2498330Y1280000
X2601680Y1280000
X2700000Y1280000
X2710000Y1110000
X2800000Y1450000
X2870000Y1110000
X3000000Y1250000
X3000000Y1500000
X3200000Y1050000
X3210000Y1290000
X3400000Y1360000
X3410000Y1140000
X3655000Y1255000
X3700000Y1140000
X3845000Y1255000
X3940000Y1370000
X4010000Y1140000
X4220000Y1180000
X4270000Y1020000
X4420000Y1190000
X4640000Y1470000
X5180000Y1130000
X5390000Y1130000
X6290000Y1400000
X6510000Y1060000
X6280000Y1970000
X5970000Y1970000
X5620000Y1760000
X5380000Y1970000
X5380000Y1760000
X5010000Y1970000
X4750000Y1970000
X4530000Y1870000
X4430000Y1670000
X3845000Y1965000
X3655000Y1965000
X3500000Y1730000
X3405000Y1555000
X3160000Y1570000
X2896520Y2016670
X2896520Y1913320
X2800000Y1640000
X2610000Y1990000
X2610000Y1890000
X2610000Y1790000
X2510000Y1990000
X2510000Y1890000
X2510000Y1790000
X2410000Y1990000
X2410000Y1890000
X2410000Y1790000
X2260000Y1570000
X2120000Y1970000
X2120000Y1860000
X2120000Y1670000
X2010000Y1570000
X1720000Y1530000
X1510000Y1940000
X1510000Y1630000
X1300000Y1940000
X1300000Y1630000
X910000Y1610000
X250000Y1840000
X250000Y1530000
X260000Y2420000
X950000Y2300000
X1150000Y2520000
X1300000Y2230000
X1510000Y2230000
X1853800Y2050000
X2445000Y2375000
X2760000Y2375000
X2900000Y2120000
X3100000Y2120000
X3240000Y2466200
X3300000Y2120000
X3405000Y2285000
X3940000Y2100000
X4700000Y2290000
X5010000Y2290000
X7000000Y2530000
X7310000Y2530000
X7970000Y2410000
X8280000Y2410000
X8280000Y2850000
X7970000Y2850000
X6980000Y3040000
X6980000Y2740000
X6690000Y2670000
X6550000Y2890000
X6390000Y2670000
X5580000Y3000000
X5320000Y2820000
X5185000Y2815000
X4940000Y2550000
X4880000Y2780000
X4570000Y2780000
X2990000Y2900000
X2440000Y2910000
X2330000Y2750000
X2180000Y2610000
X2030000Y2750000
X1510000Y2540000
X1300000Y2690000
X260000Y2730000
X250000Y3270000
X1810000Y3210000
X2120000Y3210000
X2440000Y3220000
X2990000Y3290000
X3140000Y3050000
X3140000Y3170000
X3250000Y3050000
X3250000Y3170000
X3690000Y3100000
X3957650Y3110000
X4270000Y3260000
X4270000Y3510000
X4550000Y3260000
X4550000Y3510000
X4640000Y3160000
X4700000Y3100000
X4820000Y3260000
X4820000Y3510000
X5140000Y3160000
X5345000Y3165000
X5450000Y3540000
X5700000Y3540000
X5910000Y3302850
X5960000Y3380000
X6120000Y3160000
X6120000Y3320000
X6390000Y3110000
X6390000Y3310000
X6550000Y3540000
X6690000Y3110000
X6690000Y3310000
X6980000Y3380000
X7970000Y3350000
X8280000Y3350000
X8280000Y3850000
X7970000Y3850000
X6990000Y4020000
X6980000Y3680000
X6700000Y3950000
X6700000Y3750000
X6400000Y3950000
X6400000Y3750000
X6220000Y3750000
X5520000Y3920000
X5185000Y3760000
X5010000Y3770000
X4420000Y3980000
X4080000Y4060000
X3850000Y3740000
X3720000Y3990000
X3710000Y3740000
X3540000Y3740000
X3420000Y3990000
X2990000Y3990000
X2990000Y3660000
X2440000Y3870000
X2440000Y3560000
X1900000Y4060000
X1900000Y3920000
X1900000Y3790000
X1900000Y3680000
X1900000Y3570000
X1450000Y4000000
X1140000Y4000000
X250000Y3910000
X250000Y3580000
X250000Y4220000
X630000Y4390000
X1600000Y4340000
X1600000Y4460000
X1660000Y4340000
X1660000Y4460000
X1720000Y4340000
X1720000Y4460000
X1780000Y4340000
X1780000Y4460000
X1900000Y4210000
X2140000Y4340000
X2140000Y4460000
X2200000Y4340000
X2200000Y4460000
X2260000Y4340000
X2260000Y4460000
X2410000Y4200000
X2480000Y4570000
X2570000Y4570000
X3640000Y4190000
X3640000Y4310000
X3730000Y4190000
X3730000Y4310000
X4420000Y4230000
X4940000Y4070000
X5130000Y4330000
X5430000Y4330000
X6120000Y4400000
X6390000Y4440000
X6550000Y4170000
X6690000Y4440000
X6990000Y4320000
X7970000Y4350000
X8280000Y4350000
X6770000Y4950000
X6430000Y4850000
X6425000Y5035000
X6120000Y4850000
X5960000Y5015000
X5800000Y4970000
X5800000Y4660000
X5500000Y4950000
X5240000Y4850000
X5155000Y5035000
X4930000Y4850000
X4700000Y5015000
X4440000Y5020000
X4440000Y4700000
X4130000Y5020000
X4130000Y4700000
X3420000Y4940000
X3110000Y4940000
X2930000Y5070000
X2660000Y5070000
X2570000Y4760000
X2570000Y4660000
X2360000Y4690000
X1890000Y4960000
X1890000Y4830000
X1890000Y4720000
X1890000Y4610000
X1890000Y5100000
X1890000Y5250000
X2790000Y5080000
X2790000Y5140000
X2790000Y5200000
X3110000Y5110000
X3110000Y5280000
X3420000Y5110000
X3420000Y5280000
X4130000Y5320000
X4440000Y5320000
X4700000Y5145000
X4750000Y5320000
X4910000Y5080000
X5060000Y5320000
X5870000Y5330000
X5960000Y5145000
X6180000Y5080000
X6180000Y5330000
X6690000Y5320000
X7000000Y5320000
T02
X1300000Y1215000
X1500000Y1215000
X1300000Y1465000
X1500000Y1465000
X1565000Y2890000
X1815000Y2890000
X4270000Y2355000
X4270000Y2105000
X4270000Y1625000
X4270000Y1375000
X5160000Y1320000
X5160000Y1580000
X5410000Y1580000
X5410000Y1320000
X5610000Y1320000
X5610000Y1580000
X5860000Y1580000
X5860000Y1320000
T03
X6521000Y1232000
X6521000Y1486000
X6521000Y1740000
X6521000Y1994000
X6775000Y1867000
X6775000Y1613000
X6775000Y1359000
X6775000Y1105000
X7900000Y887500
X7900000Y1141500
X7900000Y1958500
X7900000Y2212500
T04
X4860000Y4660000
X5114000Y4660000
X5368000Y4660000
X5622000Y4660000
X6130000Y4660000
X6384000Y4660000
X6638000Y4660000
X6892000Y4660000
T05
X7610000Y3160000
X7610000Y3414000
X7610000Y3668000
X7610000Y3922000
X7610000Y4176000
X7610000Y4430000
T06
X7105000Y775500
X7105000Y2324500
T07
X1029000Y738000
X1029000Y1942000
X4840000Y1630000
X4840000Y1050000
X6170000Y1050000
X6170000Y1630000
T08
X360000Y360000
X360000Y5040000
X1060000Y5040000
X7440000Y5040000
X8140000Y5040000
X8140000Y360000
M30
