G04 ================== begin FILE IDENTIFICATION RECORD ==================*
G04 Layout Name:  hy_uart_dbug_v30_251110.brd*
G04 Film Name:    SilkScreen_Top*
G04 File Format:  Gerber RS274X*
G04 File Origin:  Cadence Allegro 24.1-S006*
G04 Origin Date:  Tue Nov 11 18:31:43 2025*
G04 *
G04 Layer:  PACKAGE GEOMETRY/SILKSCREEN_TOP*
G04 Layer:  BOARD GEOMETRY/SILKSCREEN_TOP*
G04 *
G04 Offset:    (0.0000 0.0000)*
G04 Mirror:    No*
G04 Mode:      Positive*
G04 Rotation:  0*
G04 FullContactRelief:  No*
G04 UndefLineWidth:     0.1524*
G04 ================== end FILE IDENTIFICATION RECORD ====================*
%FSLAX55Y55*MOMM*%
%IR0*IPPOS*OFA0.00000B0.00000*MIA0B0*SFA1.00000B1.00000*%
%ADD10C,.2*%
%ADD11C,.127*%
%ADD12C,.1524*%
G75*
%LPD*%
G75*
G36*
G01X260000Y4350000D02*
Y4430000D01*
X220000Y4390000D01*
X260000Y4350000D01*
G37*
G36*
G01X997600Y2586200D02*
G03I-25400J0D01*
G37*
G36*
G01X1940000Y2400000D02*
X1860000D01*
X1900000Y2360000D01*
X1940000Y2400000D01*
G37*
G36*
G01X2350000Y70000D02*
G03I-30000J0D01*
G37*
G36*
G01X2765000Y635000D02*
G03I-30000J0D01*
G37*
G36*
G01X2386000Y1545000D02*
G03I-30000J0D01*
G37*
G36*
G01X2525000Y4325000D02*
G03I-30000J0D01*
G37*
G36*
G01X2751600Y5257800D02*
G03I-25400J0D01*
G37*
G36*
G01X3260000Y4435000D02*
G03I-30000J0D01*
G37*
G36*
G01X3021600Y5257800D02*
G03I-25400J0D01*
G37*
G36*
G01X3400000Y1700000D02*
G03I-30000J0D01*
G37*
G36*
G01X3730000Y2740000D02*
Y2660000D01*
X3770000Y2700000D01*
X3730000Y2740000D01*
G37*
G36*
G01Y2880000D02*
Y2800000D01*
X3770000Y2840000D01*
X3730000Y2880000D01*
G37*
G36*
G01Y3020000D02*
Y2940000D01*
X3770000Y2980000D01*
X3730000Y3020000D01*
G37*
G36*
G01X3340000Y3627840D02*
G03I-30000J0D01*
G37*
G36*
G01X3872000Y1728600D02*
G03I-25400J0D01*
G37*
G36*
G01Y2458600D02*
G03I-25400J0D01*
G37*
G36*
G01X4040000Y3602840D02*
G03I-30000J0D01*
G37*
G36*
G01X4473200Y143800D02*
G03I-25400J0D01*
G37*
G36*
G01Y683800D02*
G03I-25400J0D01*
G37*
G36*
G01Y413800D02*
G03I-25400J0D01*
G37*
G36*
G01Y953800D02*
G03I-25400J0D01*
G37*
G36*
G01X4860000Y4530000D02*
X4810000Y4480000D01*
X4910000D01*
X4860000Y4530000D01*
G37*
G36*
G01X5113200Y5013800D02*
G03I-25400J0D01*
G37*
G36*
G01X5290000Y2520000D02*
Y2440000D01*
X5330000Y2480000D01*
X5290000Y2520000D01*
G37*
G36*
G01Y2660000D02*
Y2580000D01*
X5330000Y2620000D01*
X5290000Y2660000D01*
G37*
G36*
G01X5610000Y2500000D02*
G03I-30000J0D01*
G37*
G36*
G01Y3650000D02*
G03I-30000J0D01*
G37*
G36*
G01X5290000Y4040000D02*
Y3960000D01*
X5330000Y4000000D01*
X5290000Y4040000D01*
G37*
G36*
G01Y4180000D02*
Y4100000D01*
X5330000Y4140000D01*
X5290000Y4180000D01*
G37*
G36*
G01X5670000Y5100000D02*
X5590000D01*
X5630000Y5060000D01*
X5670000Y5100000D01*
G37*
G36*
G01X5410000D02*
X5330000D01*
X5370000Y5060000D01*
X5410000Y5100000D01*
G37*
G36*
G01X6130000Y4530000D02*
X6080000Y4480000D01*
X6180000D01*
X6130000Y4530000D01*
G37*
G36*
G01X6680000Y5100000D02*
X6600000D01*
X6640000Y5060000D01*
X6680000Y5100000D01*
G37*
G36*
G01X6383200Y5013800D02*
G03I-25400J0D01*
G37*
G36*
G01X6940000Y5100000D02*
X6860000D01*
X6900000Y5060000D01*
X6940000Y5100000D01*
G37*
G36*
G01X7480000Y3160000D02*
G03I-30000J0D01*
G37*
G54D10*
G01X840000Y1940000D02*
X0D01*
Y740000D01*
X840000D01*
G01X160000Y3024000D02*
X0D01*
Y2124000D01*
X160000D01*
G01X870000Y3226000D02*
X0D01*
Y4126000D01*
X1420000D01*
Y3886000D01*
G01X100000Y4330000D02*
X70000D01*
Y4450000D01*
X100000D01*
G01X380000Y4330000D02*
Y4450000D01*
X100000D01*
Y4330000D01*
X380000D01*
G01X360000Y2124000D02*
X550000D01*
G01Y3024000D02*
X360000D01*
G01X410000Y4440000D02*
X590000D01*
Y4340000D01*
X410000D01*
Y4440000D01*
G01X890000Y450000D02*
X1900000D01*
Y80000D01*
X890000D01*
Y450000D01*
G01X1220000Y1940000D02*
X1600000D01*
Y740000D01*
X1220000D01*
G01X1060000Y2350000D02*
X1240000D01*
Y2250000D01*
X1060000D01*
Y2350000D01*
G01X800000Y2124000D02*
Y2194000D01*
G01X1240000Y2680000D02*
X1060000D01*
Y2780000D01*
X1240000D01*
Y2680000D01*
G01X1175400Y2634300D02*
G02X1124600I-25400J0D01*
G01D02*
X1099200D01*
Y2405700D01*
X1200800D01*
Y2634300D01*
X1175400D01*
G01X800000Y3024000D02*
Y2954000D01*
G01X1843500Y1130000D02*
G03I-63500J0D01*
G01X2010000Y2890000D02*
G03I-320000J0D01*
G01X1285000D02*
X1365000D01*
G01X1325000Y2850000D02*
Y2930000D01*
G01X1565000Y2980000D02*
Y3060000D01*
G01X1525000Y3020000D02*
X1605000D01*
G01X1420000Y3466000D02*
Y3226000D01*
X1310000D01*
G01X1800000Y3916000D02*
Y3436000D01*
X1580000D01*
Y3916000D01*
X1800000D01*
G01X1540000Y4170000D02*
X1470000D01*
Y4630000D01*
X1540000D01*
G01X2080000Y490000D02*
X1920000D01*
G01Y590000D02*
X2080000D01*
G01Y490000D02*
G03Y590000I-50000J50000D01*
G01X1920000D02*
G03Y490000I50000J-50000D01*
G01X2090000Y620000D02*
X1910000D01*
Y720000D01*
X2090000D01*
Y620000D01*
G01Y750000D02*
X1910000D01*
Y850000D01*
X2090000D01*
Y750000D01*
G01X2080000Y880000D02*
X1920000D01*
G01Y980000D02*
X2080000D01*
G01Y880000D02*
G03Y980000I-50000J50000D01*
G01X1920000D02*
G03Y880000I50000J-50000D01*
G01X2240000Y1330000D02*
G03X2120000I-60000J-77500D01*
G01Y1070000D02*
G03X2240000I60000J77500D01*
G01X2120000Y1330000D02*
Y1070000D01*
G01X2030000Y1200000D02*
X1970000D01*
G01X2065000Y1060000D02*
X1940000D01*
G01X1935000D02*
Y1340000D01*
X2065000D01*
Y1060000D01*
G01X1890000Y1720000D02*
X2050000D01*
G01Y1620000D02*
X1890000D01*
G01Y1720000D02*
G03Y1620000I50000J-50000D01*
G01X2050000D02*
G03Y1720000I-50000J50000D01*
G01X1800000Y1860000D02*
G03Y1740000I77500J-60000D01*
G01X2060000D02*
G03Y1860000I-77500J60000D01*
G01X1800000Y1740000D02*
X2060000D01*
G01Y1860000D02*
X1800000D01*
G01X2070000Y2015000D02*
Y1890000D01*
G01Y1885000D02*
X1790000D01*
Y2015000D01*
X2070000D01*
G01X1960000Y2240000D02*
Y2210000D01*
X1840000D01*
Y2240000D01*
G01X1960000Y2520000D02*
X1840000D01*
Y2240000D01*
X1960000D01*
Y2520000D01*
G01X2100000Y2330000D02*
Y2510000D01*
X2200000D01*
Y2330000D01*
X2100000D01*
G01X2080000Y2510000D02*
Y2330000D01*
X1980000D01*
Y2510000D01*
X2080000D01*
G01X1930000Y1980000D02*
Y1920000D01*
G01X2070000Y2650000D02*
Y3130000D01*
X2290000D01*
Y2650000D01*
X2070000D01*
G01X1960000Y3890000D02*
G03Y3730000I147500J-80000D01*
G01X2300000D02*
X1960000D01*
G01Y3890000D02*
X2300000D01*
G01X1960000Y3680000D02*
G03Y3520000I147500J-80000D01*
G01X2300000D02*
X1960000D01*
G01Y3680000D02*
X2300000D01*
G01X1960000Y4160000D02*
Y4320000D01*
G01X2060000D02*
Y4160000D01*
G01X1960000D02*
G03X2060000I50000J50000D01*
G01Y4320000D02*
G03X1960000I-50000J-50000D01*
G01X1840000Y4630000D02*
X1910000D01*
Y4170000D01*
X1840000D01*
G01X1960000Y4100000D02*
G03Y3940000I147500J-80000D01*
G01X2300000D02*
X1960000D01*
G01Y4100000D02*
X2300000D01*
G01X2150000Y4310000D02*
Y4240000D01*
X2180000D01*
G01X2060000Y4640000D02*
Y4480000D01*
G01X1960000D02*
Y4640000D01*
G01X2060000D02*
G03X1960000I-50000J-50000D01*
G01Y4480000D02*
G03X2060000I50000J50000D01*
G01X1940000Y4890000D02*
G03Y4730000I147500J-80000D01*
G01X2280000D02*
X1940000D01*
G01Y4890000D02*
X2280000D01*
G01X1940000Y5080000D02*
G03Y4920000I147500J-80000D01*
G01X2280000D02*
X1940000D01*
G01X2180000Y4560000D02*
X2150000D01*
Y4490000D01*
G01X1940000Y5270000D02*
G03Y5110000I147500J-80000D01*
G01X2280000D02*
X1940000D01*
G01Y5270000D02*
X2280000D01*
G01X1940000Y5080000D02*
X2280000D01*
G01X2240000Y460000D02*
Y100000D01*
X2660000D01*
Y460000D01*
X2240000D01*
G01X2610000Y550000D02*
X2660000D01*
Y600000D01*
G01X2240000D02*
Y550000D01*
X2290000D01*
G01X2280000Y1080000D02*
Y1240000D01*
G01X2380000D02*
Y1080000D01*
G01X2280000D02*
G03X2380000I50000J50000D01*
G01Y1240000D02*
G03X2280000I-50000J-50000D01*
G01X2400000Y1080000D02*
Y1240000D01*
G01X2500000D02*
Y1080000D01*
G01X2400000D02*
G03X2500000I50000J50000D01*
G01Y1240000D02*
G03X2400000I-50000J-50000D01*
G01X2240000Y1070000D02*
Y1330000D01*
G01X2290000Y970000D02*
X2240000D01*
Y920000D01*
G01X2660000D02*
Y970000D01*
X2610000D01*
G01X2246000Y1700000D02*
Y1630000D01*
X2316000D01*
G01X2696000D02*
X2766000D01*
Y1700000D01*
G01X2410000Y2500000D02*
Y2340000D01*
G01X2310000D02*
Y2500000D01*
G01Y2340000D02*
G03X2410000I50000J50000D01*
G01X2766000Y2080000D02*
Y2150000D01*
X2696000D01*
G01X2316000D02*
X2246000D01*
Y2080000D01*
G01X2410000Y2500000D02*
G03X2310000I-50000J-50000D01*
G01X2300000Y3730000D02*
G03Y3890000I-147500J80000D01*
G01Y3520000D02*
G03Y3680000I-147500J80000D01*
G01X2700000Y4410000D02*
X2540000D01*
G01X2700000D02*
G03Y4510000I-50000J50000D01*
G01X2540000D02*
G03Y4410000I50000J-50000D01*
G01X2530000Y4000000D02*
X2350000D01*
Y4100000D01*
X2530000D01*
Y4000000D01*
G01Y4390000D02*
X2710000D01*
Y4290000D01*
X2530000D01*
Y4390000D01*
G01X2300000Y3940000D02*
G03Y4100000I-147500J80000D01*
G01X2400000Y4240000D02*
X2430000D01*
Y4290000D01*
G01X2540000Y4510000D02*
X2700000D01*
G01X2330000Y4830000D02*
X2510000D01*
Y4730000D01*
X2330000D01*
Y4830000D01*
G01X2510000Y4850000D02*
X2330000D01*
Y4950000D01*
X2510000D01*
Y4850000D01*
G01X2280000Y4730000D02*
G03Y4890000I-147500J80000D01*
G01Y4920000D02*
G03Y5080000I-147500J80000D01*
G01X2430000Y4510000D02*
Y4560000D01*
X2400000D01*
G01X2443500Y5190000D02*
G03I-63500J0D01*
G01X2774300Y5095400D02*
Y5120800D01*
X2545700D01*
Y5019200D01*
X2774300D01*
Y5044600D01*
G01X2280000Y5110000D02*
G03Y5270000I-147500J80000D01*
G01X3080000Y340000D02*
G03Y460000I-77500J60000D01*
G01X2820000D02*
G03Y340000I77500J-60000D01*
G01D02*
X3080000D01*
G01X2820000Y620000D02*
X2980000D01*
G01Y520000D02*
X2820000D01*
G01Y620000D02*
G03Y520000I50000J-50000D01*
G01X2980000D02*
G03Y620000I-50000J50000D01*
G01X3080000Y460000D02*
X2820000D01*
G01X2980000Y1620000D02*
X3340000D01*
Y2040000D01*
X2980000D01*
Y1620000D01*
G01X2900000Y2500000D02*
Y2340000D01*
G01X2800000D02*
Y2500000D01*
G01Y2340000D02*
G03X2900000I50000J50000D01*
G01X2930000Y2240000D02*
G03X3050000I60000J77500D01*
G01D02*
Y2500000D01*
G01X2930000D02*
Y2240000D01*
G01X3170000Y2370000D02*
X3110000D01*
G01X3205000Y2230000D02*
X3080000D01*
G01X3075000D02*
Y2510000D01*
X3205000D01*
Y2230000D01*
G01X2900000Y2500000D02*
G03X2800000I-50000J-50000D01*
G01X3050000D02*
G03X2930000I-60000J-77500D01*
G01X2960000Y4380000D02*
G02X3040000I40000J0D01*
G01X3080000D02*
X3040000D01*
G01X2920000D02*
X2960000D01*
G01X3210000Y4230000D02*
X3030000D01*
Y4330000D01*
X3210000D01*
Y4230000D01*
G01X2990000D02*
X2810000D01*
Y4330000D01*
X2990000D01*
Y4230000D01*
G01X2920000Y4680000D02*
X3080000D01*
G01X2920000Y4490000D02*
Y4570000D01*
G01X3130000Y4720000D02*
G03Y4840000I-77500J60000D01*
G01X2870000D02*
G03Y4720000I77500J-60000D01*
G01X3130000Y4840000D02*
X2870000D01*
G01Y4720000D02*
X3130000D01*
G01X2774300Y5044600D02*
G02Y5095400I0J25400D01*
G01X3044300Y5044600D02*
G02Y5095400I0J25400D01*
G01D02*
Y5120800D01*
X2815700D01*
Y5019200D01*
X3044300D01*
Y5044600D01*
G01X3550000Y1490000D02*
Y1310000D01*
X3450000D01*
Y1490000D01*
X3550000D01*
G01Y1690000D02*
Y1510000D01*
X3450000D01*
Y1690000D01*
X3550000D01*
G01X3889700Y1449200D02*
X3597600D01*
Y1550800D01*
X3902400D01*
Y1525400D01*
G01X3550000Y2420000D02*
Y2240000D01*
X3450000D01*
Y2420000D01*
X3550000D01*
G01Y2220000D02*
Y2040000D01*
X3450000D01*
Y2220000D01*
X3550000D01*
G01X3889700Y2179200D02*
X3597600D01*
Y2280800D01*
X3902400D01*
Y2255400D01*
G01X3610000Y2760000D02*
Y2640000D01*
X3890000D01*
Y2760000D01*
X3610000D01*
G01Y2900000D02*
Y2780000D01*
X3890000D01*
Y2900000D01*
X3610000D01*
G01X3590000Y2790000D02*
X3410000D01*
Y2890000D01*
X3590000D01*
Y2790000D01*
G01Y2650000D02*
X3410000D01*
Y2750000D01*
X3590000D01*
Y2650000D01*
G01X3910000Y3340000D02*
X3750000D01*
G01Y3440000D02*
G03Y3340000I50000J-50000D01*
G01Y3160000D02*
X3910000D01*
G01Y3060000D02*
X3750000D01*
G01Y3160000D02*
G03Y3060000I50000J-50000D01*
G01Y3310000D02*
X3910000D01*
G01Y3210000D02*
X3750000D01*
G01Y3310000D02*
G03Y3210000I50000J-50000D01*
G01X3610000Y3040000D02*
Y2920000D01*
X3890000D01*
Y3040000D01*
X3610000D01*
G01X3590000Y2930000D02*
X3410000D01*
Y3030000D01*
X3590000D01*
Y2930000D01*
G01X3530000Y3240000D02*
X3710000D01*
Y3140000D01*
X3530000D01*
Y3240000D01*
G01X3700000Y3707840D02*
X3340000D01*
Y3287840D01*
X3700000D01*
Y3707840D01*
G01X3750000Y3440000D02*
X3910000D01*
G01Y3560000D02*
X3750000D01*
G01Y3660000D02*
X3910000D01*
G01X3750000D02*
G03Y3560000I50000J-50000D01*
G01X3320000Y4250000D02*
G03Y4130000I77500J-60000D01*
G01X3580000D02*
G03Y4250000I-77500J60000D01*
G01X3320000Y4130000D02*
X3580000D01*
G01Y4250000D02*
X3320000D01*
G01Y4400000D02*
G03Y4280000I77500J-60000D01*
G01X3580000D02*
G03Y4400000I-77500J60000D01*
G01X3320000Y4280000D02*
X3580000D01*
G01Y4400000D02*
X3320000D01*
G01X3743500Y4490000D02*
G03I-63500J0D01*
G01X3260000Y4580000D02*
X3580000D01*
G01X3260000Y4900000D02*
X3580000D01*
G01X3420000Y4690000D02*
G03Y4640000I0J-25000D01*
G01Y4580000D01*
G01Y4740000D02*
G03Y4690000I0J-25000D01*
G01Y4790000D02*
G03Y4740000I0J-25000D01*
G01Y4790000D02*
G02Y4840000I0J25000D01*
G01Y4890000D01*
G01X3320000Y4550000D02*
G03Y4430000I77500J-60000D01*
G01X3580000D02*
G03Y4550000I-77500J60000D01*
G01X3320000Y4430000D02*
X3580000D01*
G01Y4550000D02*
X3320000D01*
G01X4244600Y365700D02*
G02X4295400I25400J0D01*
G01D02*
X4320800D01*
Y594300D01*
X4219200D01*
Y365700D01*
X4244600D01*
G01Y95700D02*
G02X4295400I25400J0D01*
G01D02*
X4320800D01*
Y324300D01*
X4219200D01*
Y95700D01*
X4244600D01*
G01Y635700D02*
G02X4295400I25400J0D01*
G01D02*
X4320800D01*
Y864300D01*
X4219200D01*
Y635700D01*
X4244600D01*
G01X4590000Y1500000D02*
G03I-320000J0D01*
G01X4244600Y905700D02*
G02X4295400I25400J0D01*
G01D02*
X4320800D01*
Y1134300D01*
X4219200D01*
Y905700D01*
X4244600D01*
G01X4230000Y1865000D02*
X4310000D01*
G01D02*
X4230000D01*
G01X3902400Y1474600D02*
G02Y1525400I0J25400D01*
G01X3889700Y1449200D02*
X3902400D01*
Y1474600D01*
G01X4590000Y2230000D02*
G03I-320000J0D01*
G01X4180000Y2105000D02*
X4100000D01*
G01X4140000Y2065000D02*
Y2145000D01*
G01X3902400Y2204600D02*
G02Y2255400I0J25400D01*
G01X3889700Y2179200D02*
X3902400D01*
Y2204600D01*
G01X3890000Y2760000D02*
X3920000D01*
Y2640000D01*
X3890000D01*
G01Y2900000D02*
X3920000D01*
Y2780000D01*
X3890000D01*
G01X3910000Y3340000D02*
G03Y3440000I-50000J50000D01*
G01Y3060000D02*
G03Y3160000I-50000J50000D01*
G01Y3210000D02*
G03Y3310000I-50000J50000D01*
G01X3890000Y3040000D02*
X3920000D01*
Y2920000D01*
X3890000D01*
G01X4880000Y3667840D02*
Y2987840D01*
X4200000D01*
Y3667840D01*
X4880000D01*
G01X4180000Y3900000D02*
Y4060000D01*
G01Y3900000D02*
G03X4280000I50000J50000D01*
G01X3910000Y3560000D02*
G03Y3660000I-50000J50000D01*
G01X3770000Y4610000D02*
X4250000D01*
Y4390000D01*
X3770000D01*
Y4610000D01*
G01Y4360000D02*
X4250000D01*
Y4140000D01*
X3770000D01*
Y4360000D01*
G01X4280000Y4060000D02*
G03X4180000I-50000J-50000D01*
G01X4270000Y1905000D02*
Y1825000D01*
G01X4360000Y1625000D02*
X4440000D01*
G01X4400000Y1665000D02*
Y1585000D01*
G01X4270000Y1825000D02*
Y1905000D01*
G01X4280000Y4060000D02*
Y3900000D01*
G01X4727000Y4790000D02*
Y4530000D01*
X5757000D01*
Y4790000D01*
X4727000D01*
G01X5402800Y862800D02*
X5352000Y253200D01*
X5199600D01*
X5148800Y862800D01*
X5250400Y304000D01*
X5301200D01*
X5402800Y862800D01*
G01X4840000Y860000D02*
Y0D01*
X6180000D01*
Y860000D01*
G01X4840000Y1240000D02*
Y1440000D01*
G01X4990000Y1780000D02*
X6020000D01*
G01X5310000Y2850000D02*
X5150000D01*
G01Y2950000D02*
G03Y2850000I50000J-50000D01*
G01X5170000Y2540000D02*
Y2420000D01*
X5450000D01*
Y2540000D01*
X5170000D01*
G01Y2680000D02*
Y2560000D01*
X5450000D01*
Y2680000D01*
X5170000D01*
G01X5150000Y2570000D02*
X4970000D01*
Y2670000D01*
X5150000D01*
Y2570000D01*
G01Y2430000D02*
X4970000D01*
Y2530000D01*
X5150000D01*
Y2430000D01*
G01Y2950000D02*
X5310000D01*
G01Y3590000D02*
X5150000D01*
G01Y3690000D02*
X5310000D01*
G01X5150000D02*
G03Y3590000I50000J-50000D01*
G01X5170000Y4060000D02*
Y3940000D01*
X5450000D01*
Y4060000D01*
X5170000D01*
G01Y4200000D02*
Y4080000D01*
X5450000D01*
Y4200000D01*
X5170000D01*
G01X5150000Y3950000D02*
X4970000D01*
Y4050000D01*
X5150000D01*
Y3950000D01*
G01Y4090000D02*
X4970000D01*
Y4190000D01*
X5150000D01*
Y4090000D01*
G01X5290000Y5170000D02*
Y4990000D01*
X5190000D01*
Y5170000D01*
X5290000D01*
G01X4884600Y4965700D02*
G02X4935400I25400J0D01*
G01D02*
X4960800D01*
Y5194300D01*
X4859200D01*
Y4965700D01*
X4884600D01*
G01X5606000Y862800D02*
X5707600Y304000D01*
X5758400D01*
X5860000Y862800D01*
X5809200Y253200D01*
X5656800D01*
X5606000Y862800D01*
G01X5310000Y2850000D02*
G03Y2950000I-50000J50000D01*
G01X5450000Y2540000D02*
X5480000D01*
Y2420000D01*
X5450000D01*
G01Y2680000D02*
X5480000D01*
Y2560000D01*
X5450000D01*
G01X5390000Y2820000D02*
Y3000000D01*
X5490000D01*
Y2820000D01*
X5390000D01*
G01X6020000Y2730000D02*
X5520000D01*
Y2850000D01*
G01D02*
G03Y2930000I-4108J40000D01*
G01X5390000Y3040000D02*
Y3200000D01*
G01X5490000D02*
Y3040000D01*
G01X5390000D02*
G03X5490000I50000J50000D01*
G01Y3200000D02*
G03X5390000I-50000J-50000D01*
G01X5520000Y2930000D02*
Y3050000D01*
X6020000D01*
Y2730000D01*
G01X5310000Y3590000D02*
G03Y3690000I-50000J50000D01*
G01X5490000Y3890000D02*
Y3730000D01*
G01X5390000D02*
Y3890000D01*
G01X5490000D02*
G03X5390000I-50000J-50000D01*
G01Y3730000D02*
G03X5490000I50000J50000D01*
G01X6020000Y3880000D02*
X5520000D01*
Y4000000D01*
G01X5450000Y4060000D02*
X5480000D01*
Y3940000D01*
X5450000D01*
G01Y4200000D02*
X5480000D01*
Y4080000D01*
X5450000D01*
G01X5520000D02*
Y4200000D01*
X6020000D01*
Y3880000D01*
G01X5520000Y4000000D02*
G03Y4080000I-4108J40000D01*
G01X5690000Y4940000D02*
Y4910000D01*
X5570000D01*
Y4940000D01*
G01X5430000D02*
Y4910000D01*
X5310000D01*
Y4940000D01*
G01X5690000Y5220000D02*
X5570000D01*
Y4940000D01*
X5690000D01*
Y5220000D01*
G01X5430000D02*
X5310000D01*
Y4940000D01*
X5430000D01*
Y5220000D01*
G01X5550000Y5170000D02*
Y4990000D01*
X5450000D01*
Y5170000D01*
X5550000D01*
G01X6180000Y1240000D02*
Y1440000D01*
G01X6070000Y2700000D02*
Y2880000D01*
X6170000D01*
Y2700000D01*
X6070000D01*
G01Y2900000D02*
Y3080000D01*
X6170000D01*
Y2900000D01*
X6070000D01*
G01X6190000Y2720000D02*
Y3060000D01*
X6350000D01*
Y2720000D01*
X6190000D01*
G01X6170000Y3530000D02*
Y3350000D01*
X6070000D01*
Y3530000D01*
X6170000D01*
G01X6350000Y3710000D02*
Y3370000D01*
X6190000D01*
Y3710000D01*
X6350000D01*
G01X6170000Y3730000D02*
Y3550000D01*
X6070000D01*
Y3730000D01*
X6170000D01*
G01X6070000Y4180000D02*
Y4360000D01*
X6170000D01*
Y4180000D01*
X6070000D01*
G01Y3980000D02*
Y4160000D01*
X6170000D01*
Y3980000D01*
X6070000D01*
G01X6190000Y4000000D02*
Y4340000D01*
X6350000D01*
Y4000000D01*
X6190000D01*
G01X5997000Y4790000D02*
Y4530000D01*
X7027000D01*
Y4790000D01*
X5997000D01*
G01X6154600Y4965700D02*
G02X6205400I25400J0D01*
G01D02*
X6230800D01*
Y5194300D01*
X6129200D01*
Y4965700D01*
X6154600D01*
G01X6750000Y430000D02*
Y590000D01*
G01X6850000D02*
G03X6750000I-50000J-50000D01*
G01Y430000D02*
G03X6850000I50000J50000D01*
G01X6960000Y2350000D02*
X6370000D01*
Y750000D01*
X6960000D01*
G01X6630000Y2840000D02*
Y2940000D01*
G01X6470000Y2840000D02*
Y2730000D01*
X6630000D01*
G01X6762640Y2880000D02*
X7202640D01*
Y2580000D01*
X6762640D01*
Y2880000D01*
G01Y3200000D02*
X7202640D01*
Y2900000D01*
X6762640D01*
Y3200000D01*
G01X6630000Y3490000D02*
Y3380000D01*
X6470000D01*
G01Y2940000D02*
Y3050000D01*
X6630000D01*
G01X6762640Y3520000D02*
X7202640D01*
Y3220000D01*
X6762640D01*
Y3520000D01*
G01X6470000Y3590000D02*
Y3490000D01*
G01X6630000Y3590000D02*
Y3700000D01*
X6470000D01*
G01X6762640Y3840000D02*
X7202640D01*
Y3540000D01*
X6762640D01*
Y3840000D01*
G01Y4160000D02*
X7202640D01*
Y3860000D01*
X6762640D01*
Y4160000D01*
G01X6630000Y4120000D02*
Y4010000D01*
X6470000D01*
G01Y4220000D02*
Y4120000D01*
G01X6630000Y4220000D02*
Y4330000D01*
X6470000D01*
G01X6762640Y4480000D02*
X7202640D01*
Y4180000D01*
X6762640D01*
Y4480000D01*
G01X6700000Y4940000D02*
Y4910000D01*
X6580000D01*
Y4940000D01*
G01X6700000Y5220000D02*
X6580000D01*
Y4940000D01*
X6700000D01*
Y5220000D01*
G01X6820000Y5170000D02*
Y4990000D01*
X6720000D01*
Y5170000D01*
X6820000D01*
G01X6560000D02*
Y4990000D01*
X6460000D01*
Y5170000D01*
X6560000D01*
G01X7400000Y120000D02*
G02X7180000I-110000J292500D01*
G01D02*
Y600000D01*
G01X6980000Y590000D02*
Y430000D01*
G01X6880000D02*
Y590000D01*
G01X6980000D02*
G03X6880000I-50000J-50000D01*
G01Y430000D02*
G03X6980000I50000J50000D01*
G01X6850000Y590000D02*
Y430000D01*
G01X7180000Y600000D02*
G02X7400000I110000J-292500D01*
G01X7250000Y750000D02*
X8500000D01*
Y2350000D01*
X7250000D01*
G01X7042640Y2730000D02*
G02X6982640I-30000J0D01*
G01X6922640D02*
G02X6982640I30000J0D01*
G01X7042640D02*
X7062640D01*
G01X6902640D02*
X6922640D01*
G01X7042640Y3370000D02*
G02X6982640I-30000J0D01*
G01X6922640D02*
G02X6982640I30000J0D01*
G01X7042640D02*
X7062640D01*
G01X6902640D02*
X6922640D01*
G01X7042640Y3050000D02*
G02X6982640I-30000J0D01*
G01X6922640D02*
G02X6982640I30000J0D01*
G01X7042640D02*
X7062640D01*
G01X6902640D02*
X6922640D01*
G01X7042640Y3690000D02*
G02X6982640I-30000J0D01*
G01X6922640D02*
G02X6982640I30000J0D01*
G01X7042640D02*
X7062640D01*
G01X6902640D02*
X6922640D01*
G01X7042640Y4010000D02*
G02X6982640I-30000J0D01*
G01X6922640D02*
G02X6982640I30000J0D01*
G01X7042640D02*
X7062640D01*
G01X6902640D02*
X6922640D01*
G01X7042640Y4330000D02*
G02X6982640I-30000J0D01*
G01X6922640D02*
G02X6982640I30000J0D01*
G01X7042640D02*
X7062640D01*
G01X6902640D02*
X6922640D01*
G01X6960000Y4940000D02*
Y4910000D01*
X6840000D01*
Y4940000D01*
G01X6960000Y5220000D02*
X6840000D01*
Y4940000D01*
X6960000D01*
Y5220000D01*
G01X7400000Y600000D02*
Y120000D01*
G01X7440000D02*
Y600000D01*
X7660000D01*
Y120000D01*
X7440000D01*
G01X7490000Y2940000D02*
Y4650000D01*
X8500000D01*
Y2940000D01*
X7490000D01*
G01X7380000Y3910000D02*
X7300000D01*
G01X7340000Y3700000D02*
Y3620000D01*
G01X7380000Y3660000D02*
X7300000D01*
G01X7380000Y4420000D02*
X7300000D01*
G01X7340000Y4460000D02*
Y4380000D01*
G01X7380000Y4170000D02*
X7300000D01*
G54D11*
G01X2427480Y-2887120D02*
X2447800D01*
G54D12*
G01X80000Y2060000D02*
Y1970000D01*
G01X57000Y2060000D02*
X103000D01*
G01X150000Y1970000D02*
Y2010500D01*
X130000Y2060000D01*
G01X170000D02*
X150000Y2010500D01*
G01X200000Y1970000D02*
Y2060000D01*
X224000D01*
X232000Y2055500D01*
X238000Y2045000D01*
X240000Y2033000D01*
X238000Y2021000D01*
X233000Y2012000D01*
X224000Y2007500D01*
X200000D01*
G01X310000Y1970000D02*
X270000D01*
Y2060000D01*
X310000D01*
G01X294000Y2016500D02*
X270000D01*
G01X347000Y2000000D02*
X373000D01*
G01X438000Y2018000D02*
X442000Y2022500D01*
X445000Y2030000D01*
X447000Y2040500D01*
X445000Y2049500D01*
X441000Y2055500D01*
X434000Y2060000D01*
X407000D01*
Y1970000D01*
X440000D01*
X447000Y1976000D01*
X451000Y1985000D01*
X453000Y1995500D01*
X451000Y2006000D01*
X445000Y2015000D01*
X438000Y2018000D01*
X407000D01*
G01X80000Y3180000D02*
Y3090000D01*
G01X57000Y3180000D02*
X103000D01*
G01X150000Y3090000D02*
Y3130500D01*
X130000Y3180000D01*
G01X170000D02*
X150000Y3130500D01*
G01X200000Y3090000D02*
Y3180000D01*
X224000D01*
X232000Y3175500D01*
X238000Y3165000D01*
X240000Y3153000D01*
X238000Y3141000D01*
X233000Y3132000D01*
X224000Y3127500D01*
X200000D01*
G01X310000Y3090000D02*
X270000D01*
Y3180000D01*
X310000D01*
G01X294000Y3136500D02*
X270000D01*
G01X347000Y3120000D02*
X373000D01*
G01X452000Y3172500D02*
X446000Y3177000D01*
X439000Y3180000D01*
X431000D01*
X422000Y3175500D01*
X415000Y3168000D01*
X410000Y3159000D01*
X406000Y3144000D01*
X405000Y3130500D01*
X407000Y3117000D01*
X410000Y3108000D01*
X416000Y3099000D01*
X423000Y3093000D01*
X430000Y3090000D01*
X437000D01*
X444000Y3093000D01*
X450000Y3097500D01*
X455000Y3103500D01*
G01X68000Y4170000D02*
Y4260000D01*
X88000D01*
X96000Y4255500D01*
X102000Y4249500D01*
X107000Y4240500D01*
X111000Y4230000D01*
X112000Y4215000D01*
X111000Y4200000D01*
X107000Y4189500D01*
X102000Y4180500D01*
X96000Y4174500D01*
X88000Y4170000D01*
X68000D01*
G01X182000Y4252500D02*
X176000Y4257000D01*
X169000Y4260000D01*
X161000D01*
X152000Y4255500D01*
X145000Y4248000D01*
X140000Y4239000D01*
X136000Y4224000D01*
X135000Y4210500D01*
X137000Y4197000D01*
X140000Y4188000D01*
X146000Y4179000D01*
X153000Y4173000D01*
X160000Y4170000D01*
X167000D01*
X174000Y4173000D01*
X180000Y4177500D01*
X185000Y4183500D01*
G01X230000Y4167000D02*
X228000Y4168500D01*
Y4171500D01*
X230000Y4173000D01*
X232000Y4171500D01*
Y4168500D01*
X230000Y4167000D01*
G01Y4207500D02*
X228000Y4209000D01*
Y4212000D01*
X230000Y4213500D01*
X232000Y4212000D01*
Y4209000D01*
X230000Y4207500D01*
G01X278000Y4183500D02*
X284000Y4176000D01*
X291000Y4171500D01*
X300000Y4170000D01*
X309000Y4173000D01*
X316000Y4179000D01*
X321000Y4189500D01*
X322000Y4201500D01*
X320000Y4213500D01*
X315000Y4221000D01*
X308000Y4227000D01*
X301000Y4228500D01*
X294000Y4227000D01*
X285000Y4221000D01*
X288000Y4260000D01*
X315000D01*
G01X357000Y4200000D02*
X383000D01*
G01X440000Y4170000D02*
Y4260000D01*
X428000Y4242000D01*
G01Y4170000D02*
X452000D01*
G01X491000Y4245000D02*
X497000Y4254000D01*
X504000Y4258500D01*
X512000Y4260000D01*
X522000Y4257000D01*
X529000Y4249500D01*
X531000Y4240500D01*
X530000Y4231500D01*
X526000Y4224000D01*
X506000Y4209000D01*
X497000Y4198500D01*
X491000Y4183500D01*
X489000Y4170000D01*
X531000D01*
G01X555000Y4260000D02*
X580000Y4170000D01*
X605000Y4260000D01*
G01X628000Y4368000D02*
X634000Y4357500D01*
X642000Y4351500D01*
X651000Y4350000D01*
X659000Y4351500D01*
X667000Y4359000D01*
X672000Y4368000D01*
X673000Y4377000D01*
X671000Y4387500D01*
X664000Y4395000D01*
X657000Y4398000D01*
X648000D01*
G01X657000D02*
X663000Y4402500D01*
X668000Y4410000D01*
X670000Y4419000D01*
X668000Y4428000D01*
X663000Y4435500D01*
X654000Y4440000D01*
X645000Y4438500D01*
X636000Y4432500D01*
G01X695000Y4440000D02*
X720000Y4350000D01*
X745000Y4440000D01*
G01X768000Y4368000D02*
X774000Y4357500D01*
X782000Y4351500D01*
X791000Y4350000D01*
X799000Y4351500D01*
X807000Y4359000D01*
X812000Y4368000D01*
X813000Y4377000D01*
X811000Y4387500D01*
X804000Y4395000D01*
X797000Y4398000D01*
X788000D01*
G01X797000D02*
X803000Y4402500D01*
X808000Y4410000D01*
X810000Y4419000D01*
X808000Y4428000D01*
X803000Y4435500D01*
X794000Y4440000D01*
X785000Y4438500D01*
X776000Y4432500D01*
G01X958000Y390000D02*
Y325500D01*
X962000Y312000D01*
X970000Y303000D01*
X980000Y300000D01*
X990000Y303000D01*
X998000Y312000D01*
X1002000Y325500D01*
Y390000D01*
G01X1025000Y300000D02*
X1050000Y390000D01*
X1075000Y300000D01*
G01X1066000Y331500D02*
X1034000D01*
G01X1100000Y300000D02*
Y390000D01*
X1125000D01*
X1133000Y385500D01*
X1138000Y379500D01*
X1140000Y367500D01*
X1138000Y355500D01*
X1132000Y348000D01*
X1125000Y343500D01*
X1100000D01*
G01X1125000D02*
X1140000Y300000D01*
G01X1190000Y390000D02*
Y300000D01*
G01X1167000Y390000D02*
X1213000D01*
G01X1230000Y270000D02*
X1290000D01*
G01X1308000Y300000D02*
Y390000D01*
X1328000D01*
X1336000Y385500D01*
X1342000Y379500D01*
X1347000Y370500D01*
X1351000Y360000D01*
X1352000Y345000D01*
X1351000Y330000D01*
X1347000Y319500D01*
X1342000Y310500D01*
X1336000Y304500D01*
X1328000Y300000D01*
X1308000D01*
G01X1408000Y348000D02*
X1412000Y352500D01*
X1415000Y360000D01*
X1417000Y370500D01*
X1415000Y379500D01*
X1411000Y385500D01*
X1404000Y390000D01*
X1377000D01*
Y300000D01*
X1410000D01*
X1417000Y306000D01*
X1421000Y315000D01*
X1423000Y325500D01*
X1421000Y336000D01*
X1415000Y345000D01*
X1408000Y348000D01*
X1377000D01*
G01X1448000Y390000D02*
Y325500D01*
X1452000Y312000D01*
X1460000Y303000D01*
X1470000Y300000D01*
X1480000Y303000D01*
X1488000Y312000D01*
X1492000Y325500D01*
Y390000D01*
G01X1546000Y345000D02*
X1566000D01*
Y318000D01*
X1560000Y309000D01*
X1553000Y303000D01*
X1543000Y300000D01*
X1533000Y303000D01*
X1526000Y309000D01*
X1520000Y318000D01*
X1516000Y328500D01*
X1514000Y340500D01*
Y351000D01*
X1516000Y360000D01*
X1520000Y370500D01*
X1526000Y379500D01*
X1532000Y385500D01*
X1540000Y390000D01*
X1547000D01*
X1555000Y387000D01*
X1561000Y381000D01*
G01X1580000Y270000D02*
X1640000D01*
G01X1655000Y390000D02*
X1680000Y300000D01*
X1705000Y390000D01*
G01X1728000Y318000D02*
X1734000Y307500D01*
X1742000Y301500D01*
X1751000Y300000D01*
X1759000Y301500D01*
X1767000Y309000D01*
X1772000Y318000D01*
X1773000Y327000D01*
X1771000Y337500D01*
X1764000Y345000D01*
X1757000Y348000D01*
X1748000D01*
G01X1757000D02*
X1763000Y352500D01*
X1768000Y360000D01*
X1770000Y369000D01*
X1768000Y378000D01*
X1763000Y385500D01*
X1754000Y390000D01*
X1745000Y388500D01*
X1736000Y382500D01*
G01X1820000Y390000D02*
X1812000Y387000D01*
X1806000Y379500D01*
X1802000Y370500D01*
X1799000Y358500D01*
X1798000Y345000D01*
X1799000Y331500D01*
X1802000Y319500D01*
X1806000Y310500D01*
X1812000Y303000D01*
X1820000Y300000D01*
X1828000Y303000D01*
X1834000Y310500D01*
X1838000Y319500D01*
X1841000Y331500D01*
X1842000Y345000D01*
X1841000Y358500D01*
X1838000Y370500D01*
X1834000Y379500D01*
X1828000Y387000D01*
X1820000Y390000D01*
G01X961000Y215000D02*
X967000Y224000D01*
X974000Y228500D01*
X982000Y230000D01*
X992000Y227000D01*
X999000Y219500D01*
X1001000Y210500D01*
X1000000Y201500D01*
X996000Y194000D01*
X976000Y179000D01*
X967000Y168500D01*
X961000Y153500D01*
X959000Y140000D01*
X1001000D01*
G01X1028000Y153500D02*
X1034000Y146000D01*
X1041000Y141500D01*
X1050000Y140000D01*
X1059000Y143000D01*
X1066000Y149000D01*
X1071000Y159500D01*
X1072000Y171500D01*
X1070000Y183500D01*
X1065000Y191000D01*
X1058000Y197000D01*
X1051000Y198500D01*
X1044000Y197000D01*
X1035000Y191000D01*
X1038000Y230000D01*
X1065000D01*
G01X1120000Y140000D02*
Y230000D01*
X1108000Y212000D01*
G01Y140000D02*
X1132000D01*
G01X1190000D02*
Y230000D01*
X1178000Y212000D01*
G01Y140000D02*
X1202000D01*
G01X1260000D02*
Y230000D01*
X1248000Y212000D01*
G01Y140000D02*
X1272000D01*
G01X1330000Y230000D02*
X1322000Y227000D01*
X1316000Y219500D01*
X1312000Y210500D01*
X1309000Y198500D01*
X1308000Y185000D01*
X1309000Y171500D01*
X1312000Y159500D01*
X1316000Y150500D01*
X1322000Y143000D01*
X1330000Y140000D01*
X1338000Y143000D01*
X1344000Y150500D01*
X1348000Y159500D01*
X1351000Y171500D01*
X1352000Y185000D01*
X1351000Y198500D01*
X1348000Y210500D01*
X1344000Y219500D01*
X1338000Y227000D01*
X1330000Y230000D01*
G01X1417000Y2250000D02*
Y2340000D01*
X1463000Y2250000D01*
Y2340000D01*
G01X1510000Y2250000D02*
X1502000Y2251500D01*
X1495000Y2257500D01*
X1489000Y2266500D01*
X1485000Y2277000D01*
X1483000Y2289000D01*
Y2301000D01*
X1485000Y2313000D01*
X1489000Y2323500D01*
X1495000Y2332500D01*
X1502000Y2338500D01*
X1510000Y2340000D01*
X1518000Y2338500D01*
X1525000Y2332500D01*
X1531000Y2323500D01*
X1535000Y2313000D01*
X1537000Y2301000D01*
Y2289000D01*
X1535000Y2277000D01*
X1531000Y2266500D01*
X1525000Y2257500D01*
X1518000Y2251500D01*
X1510000Y2250000D01*
G01X1560000D02*
Y2340000D01*
X1585000D01*
X1593000Y2335500D01*
X1598000Y2329500D01*
X1600000Y2317500D01*
X1598000Y2305500D01*
X1592000Y2298000D01*
X1585000Y2293500D01*
X1560000D01*
G01X1585000D02*
X1600000Y2250000D01*
G01X1624000D02*
Y2340000D01*
X1650000Y2265000D01*
X1676000Y2340000D01*
Y2250000D01*
G01X1695000D02*
X1720000Y2340000D01*
X1745000Y2250000D01*
G01X1736000Y2281500D02*
X1704000D01*
G01X1770000Y2340000D02*
Y2250000D01*
X1810000D01*
G01X1720000Y4400000D02*
G02X1780000I30000J0D01*
G01X1830000D01*
G01X1660000D02*
G03X1600000I-30000J0D01*
G01X1550000D01*
G01X1660000D02*
G02X1720000I30000J0D01*
G01X2328000Y5293500D02*
X2334000Y5286000D01*
X2341000Y5281500D01*
X2350000Y5280000D01*
X2359000Y5283000D01*
X2366000Y5289000D01*
X2371000Y5299500D01*
X2372000Y5311500D01*
X2370000Y5323500D01*
X2365000Y5331000D01*
X2358000Y5337000D01*
X2351000Y5338500D01*
X2344000Y5337000D01*
X2335000Y5331000D01*
X2338000Y5370000D01*
X2365000D01*
G01X2395000D02*
X2420000Y5280000D01*
X2445000Y5370000D01*
G01X3638000Y4658000D02*
X3644000Y4647500D01*
X3652000Y4641500D01*
X3661000Y4640000D01*
X3669000Y4641500D01*
X3677000Y4649000D01*
X3682000Y4658000D01*
X3683000Y4667000D01*
X3681000Y4677500D01*
X3674000Y4685000D01*
X3667000Y4688000D01*
X3658000D01*
G01X3667000D02*
X3673000Y4692500D01*
X3678000Y4700000D01*
X3680000Y4709000D01*
X3678000Y4718000D01*
X3673000Y4725500D01*
X3664000Y4730000D01*
X3655000Y4728500D01*
X3646000Y4722500D01*
G01X3705000Y4730000D02*
X3730000Y4640000D01*
X3755000Y4730000D01*
G01X3778000Y4658000D02*
X3784000Y4647500D01*
X3792000Y4641500D01*
X3801000Y4640000D01*
X3809000Y4641500D01*
X3817000Y4649000D01*
X3822000Y4658000D01*
X3823000Y4667000D01*
X3821000Y4677500D01*
X3814000Y4685000D01*
X3807000Y4688000D01*
X3798000D01*
G01X3807000D02*
X3813000Y4692500D01*
X3818000Y4700000D01*
X3820000Y4709000D01*
X3818000Y4718000D01*
X3813000Y4725500D01*
X3804000Y4730000D01*
X3795000Y4728500D01*
X3786000Y4722500D01*
G01X4010000Y2890000D02*
Y2800000D01*
G01X3987000Y2890000D02*
X4033000D01*
G01X3990000Y2660000D02*
Y2750000D01*
X4015000D01*
X4023000Y2745500D01*
X4028000Y2739500D01*
X4030000Y2727500D01*
X4028000Y2715500D01*
X4022000Y2708000D01*
X4015000Y2703500D01*
X3990000D01*
G01X4015000D02*
X4030000Y2660000D01*
G01X3945000Y2930000D02*
X3970000Y3020000D01*
X3995000Y2930000D01*
G01X3986000Y2961500D02*
X3954000D01*
G01X4062000Y3012500D02*
X4056000Y3017000D01*
X4049000Y3020000D01*
X4041000D01*
X4032000Y3015500D01*
X4025000Y3008000D01*
X4020000Y2999000D01*
X4016000Y2984000D01*
X4015000Y2970500D01*
X4017000Y2957000D01*
X4020000Y2948000D01*
X4026000Y2939000D01*
X4033000Y2933000D01*
X4040000Y2930000D01*
X4047000D01*
X4054000Y2933000D01*
X4060000Y2937500D01*
X4065000Y2943500D01*
G01X4110000Y3020000D02*
Y2930000D01*
G01X4087000Y3020000D02*
X4133000D01*
G01X4736000Y2410000D02*
Y2520000D01*
X4686670Y2441170D01*
X4753330D01*
G01X4810000Y2410000D02*
X4819330Y2411830D01*
X4830000Y2417330D01*
X4836670Y2426500D01*
X4839330Y2439330D01*
X4836670Y2452160D01*
X4828670Y2463170D01*
X4816670Y2468670D01*
X4803330D01*
X4795330Y2472330D01*
X4788670Y2481500D01*
X4786000Y2494330D01*
X4790000Y2507170D01*
X4799330Y2516330D01*
X4810000Y2520000D01*
X4820670Y2516330D01*
X4830000Y2507170D01*
X4834000Y2494330D01*
X4831330Y2481500D01*
X4824670Y2472330D01*
X4816670Y2468670D01*
X4803330D01*
X4791330Y2463170D01*
X4783330Y2452160D01*
X4780670Y2439330D01*
X4783330Y2426500D01*
X4790000Y2417330D01*
X4800670Y2411830D01*
X4810000Y2410000D01*
G01X4870670Y2426500D02*
X4878670Y2417330D01*
X4888000Y2411830D01*
X4900000Y2410000D01*
X4912000Y2413670D01*
X4921330Y2421000D01*
X4928000Y2433830D01*
X4929330Y2448500D01*
X4926670Y2463170D01*
X4920000Y2472330D01*
X4910670Y2479670D01*
X4901330Y2481500D01*
X4892000Y2479670D01*
X4880000Y2472330D01*
X4884000Y2520000D01*
X4920000D01*
G01X4503330Y2560000D02*
Y2670000D01*
X4535330D01*
X4546000Y2664500D01*
X4554000Y2651670D01*
X4556670Y2637000D01*
X4554000Y2622330D01*
X4547330Y2611330D01*
X4535330Y2605830D01*
X4503330D01*
G01X4620000Y2560000D02*
X4609330Y2561830D01*
X4600000Y2569160D01*
X4592000Y2580170D01*
X4586670Y2593000D01*
X4584000Y2607670D01*
Y2622330D01*
X4586670Y2637000D01*
X4592000Y2649830D01*
X4600000Y2660830D01*
X4609330Y2668170D01*
X4620000Y2670000D01*
X4630670Y2668170D01*
X4640000Y2660830D01*
X4648000Y2649830D01*
X4653330Y2637000D01*
X4656000Y2622330D01*
Y2607670D01*
X4653330Y2593000D01*
X4648000Y2580170D01*
X4640000Y2569160D01*
X4630670Y2561830D01*
X4620000Y2560000D01*
G01X4683330D02*
Y2670000D01*
X4716670D01*
X4727330Y2664500D01*
X4734000Y2657170D01*
X4736670Y2642500D01*
X4734000Y2627830D01*
X4726000Y2618670D01*
X4716670Y2613170D01*
X4683330D01*
G01X4716670D02*
X4736670Y2560000D01*
G01X4800000Y2670000D02*
Y2560000D01*
G01X4769330Y2670000D02*
X4830670D01*
G01X4919330Y2660830D02*
X4911330Y2666330D01*
X4902000Y2670000D01*
X4891330D01*
X4879330Y2664500D01*
X4870000Y2655330D01*
X4863330Y2644330D01*
X4858000Y2626000D01*
X4856670Y2609500D01*
X4859330Y2593000D01*
X4863330Y2582000D01*
X4871330Y2571000D01*
X4880670Y2563670D01*
X4890000Y2560000D01*
X4899330D01*
X4908670Y2563670D01*
X4916670Y2569160D01*
X4923330Y2576500D01*
G01X4726000Y3950000D02*
Y4060000D01*
X4676670Y3981170D01*
X4743330D01*
G01X4774670Y4041670D02*
X4782670Y4052660D01*
X4792000Y4058170D01*
X4802670Y4060000D01*
X4816000Y4056330D01*
X4825330Y4047170D01*
X4828000Y4036170D01*
X4826670Y4025160D01*
X4821330Y4016000D01*
X4794670Y3997670D01*
X4782670Y3984830D01*
X4774670Y3966500D01*
X4772000Y3950000D01*
X4828000D01*
G01X4864670Y4041670D02*
X4872670Y4052660D01*
X4882000Y4058170D01*
X4892670Y4060000D01*
X4906000Y4056330D01*
X4915330Y4047170D01*
X4918000Y4036170D01*
X4916670Y4025160D01*
X4911330Y4016000D01*
X4884670Y3997670D01*
X4872670Y3984830D01*
X4864670Y3966500D01*
X4862000Y3950000D01*
X4918000D01*
G01X4513330Y4090000D02*
Y4200000D01*
X4545330D01*
X4556000Y4194500D01*
X4564000Y4181670D01*
X4566670Y4167000D01*
X4564000Y4152330D01*
X4557330Y4141330D01*
X4545330Y4135830D01*
X4513330D01*
G01X4630000Y4090000D02*
X4619330Y4091830D01*
X4610000Y4099160D01*
X4602000Y4110170D01*
X4596670Y4123000D01*
X4594000Y4137670D01*
Y4152330D01*
X4596670Y4167000D01*
X4602000Y4179830D01*
X4610000Y4190830D01*
X4619330Y4198170D01*
X4630000Y4200000D01*
X4640670Y4198170D01*
X4650000Y4190830D01*
X4658000Y4179830D01*
X4663330Y4167000D01*
X4666000Y4152330D01*
Y4137670D01*
X4663330Y4123000D01*
X4658000Y4110170D01*
X4650000Y4099160D01*
X4640670Y4091830D01*
X4630000Y4090000D01*
G01X4693330D02*
Y4200000D01*
X4726670D01*
X4737330Y4194500D01*
X4744000Y4187170D01*
X4746670Y4172500D01*
X4744000Y4157830D01*
X4736000Y4148670D01*
X4726670Y4143170D01*
X4693330D01*
G01X4726670D02*
X4746670Y4090000D01*
G01X4810000Y4200000D02*
Y4090000D01*
G01X4779330Y4200000D02*
X4840670D01*
G01X4870670Y4090000D02*
Y4200000D01*
X4897330D01*
X4908000Y4194500D01*
X4916000Y4187170D01*
X4922670Y4176170D01*
X4928000Y4163330D01*
X4929330Y4145000D01*
X4928000Y4126670D01*
X4922670Y4113830D01*
X4916000Y4102830D01*
X4908000Y4095500D01*
X4897330Y4090000D01*
X4870670D01*
G01X4733330Y4820000D02*
Y4930000D01*
X4765330D01*
X4776000Y4924500D01*
X4784000Y4911670D01*
X4786670Y4897000D01*
X4784000Y4882330D01*
X4777330Y4871330D01*
X4765330Y4865830D01*
X4733330D01*
G01X4850000Y4820000D02*
X4839330Y4821830D01*
X4830000Y4829160D01*
X4822000Y4840170D01*
X4816670Y4853000D01*
X4814000Y4867670D01*
Y4882330D01*
X4816670Y4897000D01*
X4822000Y4909830D01*
X4830000Y4920830D01*
X4839330Y4928170D01*
X4850000Y4930000D01*
X4860670Y4928170D01*
X4870000Y4920830D01*
X4878000Y4909830D01*
X4883330Y4897000D01*
X4886000Y4882330D01*
Y4867670D01*
X4883330Y4853000D01*
X4878000Y4840170D01*
X4870000Y4829160D01*
X4860670Y4821830D01*
X4850000Y4820000D01*
G01X4913330D02*
Y4930000D01*
X4946670D01*
X4957330Y4924500D01*
X4964000Y4917170D01*
X4966670Y4902500D01*
X4964000Y4887830D01*
X4956000Y4878670D01*
X4946670Y4873170D01*
X4913330D01*
G01X4946670D02*
X4966670Y4820000D01*
G01X5030000Y4930000D02*
Y4820000D01*
G01X4999330Y4930000D02*
X5060670D01*
G01X5130670Y4878670D02*
X5136000Y4884170D01*
X5140000Y4893330D01*
X5142670Y4906170D01*
X5140000Y4917170D01*
X5134670Y4924500D01*
X5125330Y4930000D01*
X5089330D01*
Y4820000D01*
X5133330D01*
X5142670Y4827330D01*
X5148000Y4838330D01*
X5150670Y4851170D01*
X5148000Y4864000D01*
X5140000Y4875000D01*
X5130670Y4878670D01*
X5089330D01*
G01X4855000Y5318000D02*
Y5344670D01*
X4888000D01*
X4899000Y5336670D01*
X4906330Y5327330D01*
X4910000Y5314000D01*
X4906330Y5300670D01*
X4899000Y5291330D01*
X4888000Y5283330D01*
X4875170Y5278000D01*
X4860500Y5275330D01*
X4847670D01*
X4836670Y5278000D01*
X4823830Y5283330D01*
X4812830Y5291330D01*
X4805500Y5299330D01*
X4800000Y5310000D01*
Y5319330D01*
X4803670Y5330000D01*
X4811000Y5338000D01*
G01X5060000Y5276670D02*
X5170000Y5310000D01*
X5060000Y5343330D01*
G01X5283330Y2280000D02*
Y2390000D01*
X5316670D01*
X5327330Y2384500D01*
X5334000Y2377170D01*
X5336670Y2362500D01*
X5334000Y2347830D01*
X5326000Y2338670D01*
X5316670Y2333170D01*
X5283330D01*
G01X5316670D02*
X5336670Y2280000D01*
G01X5310000Y2820000D02*
Y2710000D01*
G01X5279330Y2820000D02*
X5340670D01*
G01X5283330Y3800000D02*
Y3910000D01*
X5316670D01*
X5327330Y3904500D01*
X5334000Y3897170D01*
X5336670Y3882500D01*
X5334000Y3867830D01*
X5326000Y3858670D01*
X5316670Y3853170D01*
X5283330D01*
G01X5316670D02*
X5336670Y3800000D01*
G01X5310000Y4340000D02*
Y4230000D01*
G01X5279330Y4340000D02*
X5340670D01*
G01X5430000Y5283330D02*
X5320000D01*
Y5316670D01*
X5325500Y5327330D01*
X5332830Y5334000D01*
X5347500Y5336670D01*
X5362170Y5334000D01*
X5371330Y5326000D01*
X5376830Y5316670D01*
Y5283330D01*
G01Y5316670D02*
X5430000Y5336670D01*
G01X5580000Y5310000D02*
X5690000D01*
G01X5580000Y5279330D02*
Y5340670D01*
G01X6222000Y190000D02*
Y300000D01*
G01X6278000D02*
Y190000D01*
G01Y245000D02*
X6222000D01*
G01X6310670Y300000D02*
Y221170D01*
X6316000Y204660D01*
X6326670Y193670D01*
X6340000Y190000D01*
X6353330Y193670D01*
X6364000Y204660D01*
X6369330Y221170D01*
Y300000D01*
G01X6440670Y248670D02*
X6446000Y254170D01*
X6450000Y263330D01*
X6452670Y276170D01*
X6450000Y287170D01*
X6444670Y294500D01*
X6435330Y300000D01*
X6399330D01*
Y190000D01*
X6443330D01*
X6452670Y197330D01*
X6458000Y208330D01*
X6460670Y221170D01*
X6458000Y234000D01*
X6450000Y245000D01*
X6440670Y248670D01*
X6399330D01*
G01X6520000Y190000D02*
Y300000D01*
X6504000Y278000D01*
G01Y190000D02*
X6536000D01*
G01X6222000Y40000D02*
Y150000D01*
G01X6278000D02*
Y40000D01*
G01Y95000D02*
X6222000D01*
G01X6310670Y150000D02*
Y71170D01*
X6316000Y54660D01*
X6326670Y43670D01*
X6340000Y40000D01*
X6353330Y43670D01*
X6364000Y54660D01*
X6369330Y71170D01*
Y150000D01*
G01X6440670Y98670D02*
X6446000Y104170D01*
X6450000Y113330D01*
X6452670Y126170D01*
X6450000Y137170D01*
X6444670Y144500D01*
X6435330Y150000D01*
X6399330D01*
Y40000D01*
X6443330D01*
X6452670Y47330D01*
X6458000Y58330D01*
X6460670Y71170D01*
X6458000Y84000D01*
X6450000Y95000D01*
X6440670Y98670D01*
X6399330D01*
G01X6494670Y131670D02*
X6502670Y142660D01*
X6512000Y148170D01*
X6522670Y150000D01*
X6536000Y146330D01*
X6545330Y137170D01*
X6548000Y126170D01*
X6546670Y115160D01*
X6541330Y106000D01*
X6514670Y87670D01*
X6502670Y74830D01*
X6494670Y56500D01*
X6492000Y40000D01*
X6548000D01*
G01X6003330Y4820000D02*
Y4930000D01*
X6035330D01*
X6046000Y4924500D01*
X6054000Y4911670D01*
X6056670Y4897000D01*
X6054000Y4882330D01*
X6047330Y4871330D01*
X6035330Y4865830D01*
X6003330D01*
G01X6120000Y4820000D02*
X6109330Y4821830D01*
X6100000Y4829160D01*
X6092000Y4840170D01*
X6086670Y4853000D01*
X6084000Y4867670D01*
Y4882330D01*
X6086670Y4897000D01*
X6092000Y4909830D01*
X6100000Y4920830D01*
X6109330Y4928170D01*
X6120000Y4930000D01*
X6130670Y4928170D01*
X6140000Y4920830D01*
X6148000Y4909830D01*
X6153330Y4897000D01*
X6156000Y4882330D01*
Y4867670D01*
X6153330Y4853000D01*
X6148000Y4840170D01*
X6140000Y4829160D01*
X6130670Y4821830D01*
X6120000Y4820000D01*
G01X6183330D02*
Y4930000D01*
X6216670D01*
X6227330Y4924500D01*
X6234000Y4917170D01*
X6236670Y4902500D01*
X6234000Y4887830D01*
X6226000Y4878670D01*
X6216670Y4873170D01*
X6183330D01*
G01X6216670D02*
X6236670Y4820000D01*
G01X6300000Y4930000D02*
Y4820000D01*
G01X6269330Y4930000D02*
X6330670D01*
G01X6356670Y4820000D02*
X6390000Y4930000D01*
X6423330Y4820000D01*
G01X6411330Y4858500D02*
X6368670D01*
G01X6115000Y5318000D02*
Y5344670D01*
X6148000D01*
X6159000Y5336670D01*
X6166330Y5327330D01*
X6170000Y5314000D01*
X6166330Y5300670D01*
X6159000Y5291330D01*
X6148000Y5283330D01*
X6135170Y5278000D01*
X6120500Y5275330D01*
X6107670D01*
X6096670Y5278000D01*
X6083830Y5283330D01*
X6072830Y5291330D01*
X6065500Y5299330D01*
X6060000Y5310000D01*
Y5319330D01*
X6063670Y5330000D01*
X6071000Y5338000D01*
G01X6320000Y5276670D02*
X6430000Y5310000D01*
X6320000Y5343330D01*
G01X6690000Y5283330D02*
X6580000D01*
Y5316670D01*
X6585500Y5327330D01*
X6592830Y5334000D01*
X6607500Y5336670D01*
X6622170Y5334000D01*
X6631330Y5326000D01*
X6636830Y5316670D01*
Y5283330D01*
G01Y5316670D02*
X6690000Y5336670D01*
G01X6840000Y5310000D02*
X6950000D01*
G01X6840000Y5279330D02*
Y5340670D01*
G01X7649330Y2480830D02*
X7641330Y2486330D01*
X7632000Y2490000D01*
X7621330D01*
X7609330Y2484500D01*
X7600000Y2475330D01*
X7593330Y2464330D01*
X7588000Y2446000D01*
X7586670Y2429500D01*
X7589330Y2413000D01*
X7593330Y2402000D01*
X7601330Y2391000D01*
X7610670Y2383670D01*
X7620000Y2380000D01*
X7629330D01*
X7638670Y2383670D01*
X7646670Y2389160D01*
X7653330Y2396500D01*
G01X7682000Y2380000D02*
Y2490000D01*
G01X7738000D02*
Y2380000D01*
G01Y2435000D02*
X7682000D01*
G01X7770670Y2402000D02*
X7778670Y2389160D01*
X7789330Y2381830D01*
X7801330Y2380000D01*
X7812000Y2381830D01*
X7822670Y2391000D01*
X7829330Y2402000D01*
X7830670Y2413000D01*
X7828000Y2425830D01*
X7818670Y2435000D01*
X7809330Y2438670D01*
X7797330D01*
G01X7809330D02*
X7817330Y2444170D01*
X7824000Y2453330D01*
X7826670Y2464330D01*
X7824000Y2475330D01*
X7817330Y2484500D01*
X7805330Y2490000D01*
X7793330Y2488170D01*
X7781330Y2480830D01*
G01X7867330Y2392830D02*
X7876670Y2383670D01*
X7887330Y2380000D01*
X7898000Y2383670D01*
X7907330Y2394660D01*
X7914000Y2411170D01*
X7916670Y2427670D01*
Y2447830D01*
X7914000Y2464330D01*
X7907330Y2479000D01*
X7899330Y2486330D01*
X7890000Y2490000D01*
X7879330Y2486330D01*
X7871330Y2479000D01*
X7866000Y2468000D01*
X7863330Y2453330D01*
X7866000Y2440500D01*
X7872670Y2427670D01*
X7880670Y2420330D01*
X7890000Y2418500D01*
X7900670Y2422160D01*
X7908670Y2431330D01*
X7916670Y2447830D01*
G01X7977330Y2380000D02*
X7980000Y2403830D01*
X7984000Y2424000D01*
X7989330Y2442330D01*
X7996000Y2462500D01*
X8006670Y2490000D01*
X7953330D01*
G01X8036670Y2380000D02*
X8070000Y2490000D01*
X8103330Y2380000D01*
G01X8091330Y2418500D02*
X8048670D01*
G01X8276670Y2380000D02*
X8223330D01*
Y2490000D01*
X8276670D01*
G01X8255330Y2436830D02*
X8223330D01*
G01X8340000Y2490000D02*
Y2380000D01*
G01X8309330Y2490000D02*
X8370670D01*
G01X8402000Y2380000D02*
Y2490000D01*
G01X8458000D02*
Y2380000D01*
G01Y2435000D02*
X8402000D01*
G01X7706000Y2800000D02*
Y2910000D01*
X7656670Y2831170D01*
X7723330D01*
G01X7780000Y2800000D02*
X7789330Y2801830D01*
X7800000Y2807330D01*
X7806670Y2816500D01*
X7809330Y2829330D01*
X7806670Y2842160D01*
X7798670Y2853170D01*
X7786670Y2858670D01*
X7773330D01*
X7765330Y2862330D01*
X7758670Y2871500D01*
X7756000Y2884330D01*
X7760000Y2897170D01*
X7769330Y2906330D01*
X7780000Y2910000D01*
X7790670Y2906330D01*
X7800000Y2897170D01*
X7804000Y2884330D01*
X7801330Y2871500D01*
X7794670Y2862330D01*
X7786670Y2858670D01*
X7773330D01*
X7761330Y2853170D01*
X7753330Y2842160D01*
X7750670Y2829330D01*
X7753330Y2816500D01*
X7760000Y2807330D01*
X7770670Y2801830D01*
X7780000Y2800000D01*
G01X7840670Y2816500D02*
X7848670Y2807330D01*
X7858000Y2801830D01*
X7870000Y2800000D01*
X7882000Y2803670D01*
X7891330Y2811000D01*
X7898000Y2823830D01*
X7899330Y2838500D01*
X7896670Y2853170D01*
X7890000Y2862330D01*
X7880670Y2869670D01*
X7871330Y2871500D01*
X7862000Y2869670D01*
X7850000Y2862330D01*
X7854000Y2910000D01*
X7890000D01*
G01X7368000Y3158000D02*
X7372000Y3162500D01*
X7375000Y3170000D01*
X7377000Y3180500D01*
X7375000Y3189500D01*
X7371000Y3195500D01*
X7364000Y3200000D01*
X7337000D01*
Y3110000D01*
X7370000D01*
X7377000Y3116000D01*
X7381000Y3125000D01*
X7383000Y3135500D01*
X7381000Y3146000D01*
X7375000Y3155000D01*
X7368000Y3158000D01*
X7337000D01*
G01X7335000Y3360000D02*
X7360000Y3450000D01*
X7385000Y3360000D01*
G01X7376000Y3391500D02*
X7344000D01*
G01X7438000Y3918000D02*
X7442000Y3922500D01*
X7445000Y3930000D01*
X7447000Y3940500D01*
X7445000Y3949500D01*
X7441000Y3955500D01*
X7434000Y3960000D01*
X7407000D01*
Y3870000D01*
X7440000D01*
X7447000Y3876000D01*
X7451000Y3885000D01*
X7453000Y3895500D01*
X7451000Y3906000D01*
X7445000Y3915000D01*
X7438000Y3918000D01*
X7407000D01*
G01X7405000Y3620000D02*
X7430000Y3710000D01*
X7455000Y3620000D01*
G01X7446000Y3651500D02*
X7414000D01*
G01X7320000Y3740000D02*
Y3830000D01*
X7345000D01*
X7353000Y3825500D01*
X7358000Y3819500D01*
X7360000Y3807500D01*
X7358000Y3795500D01*
X7352000Y3788000D01*
X7345000Y3783500D01*
X7320000D01*
G01X7345000D02*
X7360000Y3740000D01*
G01X7411000Y4220000D02*
X7449000D01*
X7411000Y4130000D01*
X7449000D01*
G01X7430000Y4380000D02*
Y4420500D01*
X7410000Y4470000D01*
G01X7450000D02*
X7430000Y4420500D01*
G01X7340000Y4330000D02*
Y4240000D01*
G01X7317000Y4330000D02*
X7363000D01*
G01X7696000Y4660000D02*
Y4770000D01*
X7646670Y4691170D01*
X7713330D01*
G01X7744670Y4751670D02*
X7752670Y4762660D01*
X7762000Y4768170D01*
X7772670Y4770000D01*
X7786000Y4766330D01*
X7795330Y4757170D01*
X7798000Y4746170D01*
X7796670Y4735160D01*
X7791330Y4726000D01*
X7764670Y4707670D01*
X7752670Y4694830D01*
X7744670Y4676500D01*
X7742000Y4660000D01*
X7798000D01*
G01X7834670Y4751670D02*
X7842670Y4762660D01*
X7852000Y4768170D01*
X7862670Y4770000D01*
X7876000Y4766330D01*
X7885330Y4757170D01*
X7888000Y4746170D01*
X7886670Y4735160D01*
X7881330Y4726000D01*
X7854670Y4707670D01*
X7842670Y4694830D01*
X7834670Y4676500D01*
X7832000Y4660000D01*
X7888000D01*
M02*
