G04 ================== begin FILE IDENTIFICATION RECORD ==================*
G04 Layout Name:  hy_uart_dbug_v30_251110.brd*
G04 Film Name:    SolderMask_Top*
G04 File Format:  Gerber RS274X*
G04 File Origin:  Cadence Allegro 24.1-S006*
G04 Origin Date:  Tue Nov 11 18:29:46 2025*
G04 *
G04 Layer:  PIN/SOLDERMASK_TOP*
G04 Layer:  PACKAGE GEOMETRY/SOLDERMASK_TOP*
G04 Layer:  BOARD GEOMETRY/SOLDERMASK_TOP*
G04 *
G04 Offset:    (0.0000 0.0000)*
G04 Mirror:    No*
G04 Mode:      Positive*
G04 Rotation:  0*
G04 FullContactRelief:  No*
G04 UndefLineWidth:     0.1524*
G04 ================== end FILE IDENTIFICATION RECORD ====================*
%FSLAX55Y55*MOMM*%
%IR0*IPPOS*OFA0.00000B0.00000*MIA0B0*SFA1.00000B1.00000*%
%ADD29R,1.1X.4*%
%ADD38R,.5X1.*%
%ADD36R,.4X1.1*%
%ADD18R,1.3X.4*%
%ADD50R,1.1X.7*%
%ADD43R,.4X1.3*%
%ADD17R,1.3X.7*%
%ADD42R,.8X1.3*%
%ADD40R,1.3X.8*%
%ADD47R,.7X1.6*%
%ADD32R,1.6X.35*%
%ADD31R,1.9X.35*%
%ADD27C,.85*%
%ADD12R,.9X.9*%
%ADD13O,2.2X1.1*%
%ADD48R,1.3X1.1*%
%ADD30R,1.1X1.3*%
%ADD11O,1.7X1.1*%
%ADD51R,1.1X2.6*%
%ADD39R,1.3X1.5*%
%ADD34R,1.5X1.3*%
%ADD41R,1.1X2.8*%
%ADD25R,2.6X1.6*%
%ADD21O,4.15X2.15*%
%ADD53C,2.*%
%ADD14O,2.15X4.15*%
%ADD24R,1.9X1.7*%
%ADD19R,.7X.5*%
%ADD15R,.6X.7*%
%ADD44R,1.7X1.9*%
%ADD22C,1.4*%
%ADD20R,.7X.6*%
%ADD35R,2.8X2.8*%
%ADD16C,3.4*%
%ADD10C,7.*%
%ADD52C,2.6*%
%ADD49C,1.7*%
%ADD26R,.9X.35*%
%ADD33R,.35X.9*%
%ADD46C,1.9*%
%ADD23R,1.4X1.4*%
%ADD37R,3.3X3.3*%
%ADD28R,1.016X1.016*%
%ADD45R,1.9X1.9*%
%LPD*%
G75*
G54D10*
X360000Y360000D03*
Y5040000D03*
X1060000D03*
X7440000D03*
X8140000Y360000D03*
Y5040000D03*
G54D20*
X1040000Y2455000D03*
Y2585000D03*
X1260000D03*
Y2455000D03*
X2150000Y2375000D03*
X2030000D03*
X2150000Y2465000D03*
X2030000D03*
X2010000Y4195000D03*
Y4285000D03*
Y4605000D03*
Y4515000D03*
X2330000Y1115000D03*
Y1205000D03*
X2450000Y1115000D03*
Y1205000D03*
X2360000Y2375000D03*
Y2465000D03*
X2850000Y2375000D03*
Y2465000D03*
X3500000Y1355000D03*
Y1445000D03*
Y1645000D03*
Y1555000D03*
Y2375000D03*
Y2285000D03*
Y2175000D03*
Y2085000D03*
X4160000Y145000D03*
Y275000D03*
Y685000D03*
Y815000D03*
Y415000D03*
Y545000D03*
Y955000D03*
Y1085000D03*
X4230000Y3935000D03*
Y4025000D03*
X4380000Y275000D03*
Y145000D03*
Y815000D03*
Y685000D03*
Y545000D03*
Y415000D03*
Y1085000D03*
Y955000D03*
X5240000Y5125000D03*
Y5035000D03*
X4800000Y5015000D03*
Y5145000D03*
X5020000D03*
Y5015000D03*
X5440000Y2865000D03*
Y3075000D03*
Y3165000D03*
Y2955000D03*
Y3855000D03*
Y3765000D03*
X5500000Y5125000D03*
Y5035000D03*
X6120000Y2745000D03*
Y2835000D03*
Y3395000D03*
Y2945000D03*
Y3035000D03*
Y3685000D03*
Y3595000D03*
Y3485000D03*
Y4225000D03*
Y4315000D03*
Y4025000D03*
Y4115000D03*
X6070000Y5015000D03*
Y5145000D03*
X6290000D03*
Y5015000D03*
X6800000Y555000D03*
Y465000D03*
X6770000Y5125000D03*
Y5035000D03*
X6510000Y5125000D03*
Y5035000D03*
X6930000Y555000D03*
Y465000D03*
G54D11*
X258000Y2142000D03*
Y3006000D03*
G54D21*
X1090000Y3206000D03*
G54D30*
X2028400Y3810000D03*
X2231600D03*
X2028400Y3600000D03*
X2231600D03*
X2028400Y4020000D03*
X2231600D03*
X2008400Y4810000D03*
X2211600D03*
X2008400Y5190000D03*
X2211600D03*
X2008400Y5000000D03*
X2211600D03*
G54D12*
X163800Y4390000D03*
X316200D03*
X2180000Y1123800D03*
Y1276200D03*
X2006200Y1800000D03*
X1853800D03*
X1900000Y2303800D03*
Y2456200D03*
X2873800Y400000D03*
X3026200D03*
X2990000Y2293800D03*
Y2446200D03*
X2923800Y4780000D03*
X3076200D03*
X3673800Y2700000D03*
Y2840000D03*
Y2980000D03*
X3526200Y4190000D03*
X3373800D03*
X3526200Y4340000D03*
X3373800D03*
X3526200Y4490000D03*
X3373800D03*
X3826200Y2700000D03*
Y2840000D03*
Y2980000D03*
X5233800Y2480000D03*
Y2620000D03*
Y4000000D03*
Y4140000D03*
X5386200Y2480000D03*
Y2620000D03*
Y4000000D03*
Y4140000D03*
X5630000Y5156200D03*
Y5003800D03*
X5370000Y5156200D03*
Y5003800D03*
X6640000Y5156200D03*
Y5003800D03*
X6900000Y5156200D03*
Y5003800D03*
G54D22*
X1300000Y1215000D03*
X1500000Y1465000D03*
X1300000D03*
X1565000Y2890000D03*
X1815000D03*
X4270000Y1375000D03*
Y1625000D03*
Y2105000D03*
Y2355000D03*
X5610000Y1320000D03*
X5410000D03*
X5610000Y1580000D03*
X5410000D03*
X5860000Y1320000D03*
Y1580000D03*
G54D13*
X676000Y2142000D03*
Y3006000D03*
G54D31*
X2210000Y4400000D03*
G54D40*
X2870000Y4435000D03*
X3130000D03*
X2870000Y4625000D03*
X3130000D03*
Y4530000D03*
G54D23*
X1500000Y1215000D03*
X5160000Y1320000D03*
Y1580000D03*
G54D14*
X770000Y3676000D03*
X1390000D03*
G54D41*
X3290000Y4740000D03*
X3550000D03*
G54D32*
X2195000Y4350000D03*
Y4450000D03*
G54D50*
X6670000Y2790000D03*
X6430000Y2890000D03*
X6670000Y2990000D03*
X6430000Y3440000D03*
Y3640000D03*
X6670000Y3540000D03*
X6430000Y4070000D03*
Y4270000D03*
X6670000Y4170000D03*
G54D33*
X2215000Y4250000D03*
Y4550000D03*
X2575000Y560000D03*
X2525000D03*
X2475000D03*
X2425000D03*
X2375000D03*
X2325000D03*
Y960000D03*
X2375000D03*
X2425000D03*
X2475000D03*
X2525000D03*
X2575000D03*
X2365000Y4250000D03*
X2315000D03*
X2265000D03*
Y4550000D03*
X2315000D03*
X2365000D03*
G54D15*
X455000Y4390000D03*
X545000D03*
X1105000Y2300000D03*
X1195000D03*
Y2730000D03*
X1105000D03*
X2045000Y540000D03*
X1955000D03*
X2045000Y670000D03*
X1955000D03*
X2045000Y800000D03*
X1955000D03*
X2045000Y930000D03*
X1955000D03*
X1925000Y1670000D03*
X2015000D03*
X2485000Y4050000D03*
X2395000D03*
X2575000Y4340000D03*
X2665000D03*
Y4460000D03*
X2575000D03*
X2375000Y4780000D03*
X2465000D03*
Y4900000D03*
X2375000D03*
X2855000Y570000D03*
X2945000D03*
X3165000Y4280000D03*
X3075000D03*
X2945000D03*
X2855000D03*
X3545000Y2840000D03*
X3455000D03*
X3545000Y2700000D03*
X3455000D03*
X3545000Y2980000D03*
X3455000D03*
X3575000Y3190000D03*
X3665000D03*
X3875000Y3390000D03*
X3785000D03*
Y3110000D03*
X3875000D03*
X3785000Y3260000D03*
X3875000D03*
Y3610000D03*
X3785000D03*
X5275000Y2900000D03*
X5185000D03*
X5105000Y2620000D03*
X5015000D03*
X5105000Y2480000D03*
X5015000D03*
X5275000Y3640000D03*
X5185000D03*
X5105000Y4000000D03*
X5015000D03*
X5105000Y4140000D03*
X5015000D03*
G54D24*
X1690000Y3536000D03*
Y3816000D03*
X2180000Y2750000D03*
Y3030000D03*
X7290000Y220000D03*
Y500000D03*
X7550000Y220000D03*
Y500000D03*
G54D51*
X6832640Y2730000D03*
Y3370000D03*
Y3050000D03*
Y3690000D03*
Y4010000D03*
Y4330000D03*
X7132640Y2730000D03*
Y3370000D03*
Y3050000D03*
Y3690000D03*
Y4010000D03*
Y4330000D03*
G54D42*
X3750000Y1370000D03*
X3655000D03*
Y1630000D03*
X3750000D03*
Y2100000D03*
X3655000D03*
Y2360000D03*
X3750000D03*
X3845000Y1370000D03*
Y1630000D03*
Y2100000D03*
Y2360000D03*
G54D52*
X7105000Y775500D03*
Y2324500D03*
G54D16*
X1029000Y738000D03*
Y1942000D03*
X4840000Y1050000D03*
Y1630000D03*
X6170000Y1050000D03*
Y1630000D03*
G54D25*
X1690000Y4215000D03*
Y4585000D03*
G54D34*
X2330000Y185000D03*
X2570000D03*
Y375000D03*
X2330000D03*
G54D43*
X4264990Y2902840D03*
Y3752840D03*
X4764990Y2902840D03*
X4715010D03*
X4664990D03*
X4615010D03*
X4564990D03*
X4515010D03*
X4464990D03*
X4415010D03*
X4364990D03*
X4315010D03*
Y3752840D03*
X4364990D03*
X4415010D03*
X4464990D03*
X4515010D03*
X4564990D03*
X4615010D03*
X4664990D03*
X4715010D03*
X4764990D03*
X4815010Y2902840D03*
Y3752840D03*
G54D26*
X2250000Y635000D03*
Y685000D03*
Y735000D03*
Y785000D03*
Y835000D03*
Y885000D03*
X2650000D03*
Y835000D03*
Y785000D03*
Y735000D03*
Y685000D03*
Y635000D03*
X2420000Y4425000D03*
Y4375000D03*
Y4325000D03*
Y4475000D03*
G54D35*
X2450000Y760000D03*
G54D44*
X4150000Y4500000D03*
X3870000D03*
X4150000Y4250000D03*
X3870000D03*
G54D53*
X7610000Y3414000D03*
Y3922000D03*
Y3668000D03*
Y4430000D03*
Y4176000D03*
G54D17*
X780000Y2254000D03*
Y2334000D03*
Y2814000D03*
Y2894000D03*
G54D45*
X4860000Y4660000D03*
X6130000D03*
X7610000Y3160000D03*
G54D27*
X1780000Y1130000D03*
X2380000Y5190000D03*
X3680000Y4490000D03*
G54D18*
X780000Y2399000D03*
Y2449000D03*
Y2499000D03*
Y2549000D03*
Y2599000D03*
Y2649000D03*
Y2699000D03*
Y2749000D03*
X4115000Y3052830D03*
Y3102850D03*
Y3152830D03*
Y3202850D03*
Y3252830D03*
Y3302850D03*
Y3352830D03*
Y3402850D03*
Y3452830D03*
Y3502850D03*
Y3552830D03*
Y3602850D03*
X4965000Y3402850D03*
Y3352830D03*
Y3302850D03*
Y3252830D03*
Y3202850D03*
Y3152830D03*
Y3102850D03*
Y3052830D03*
Y3602850D03*
Y3552830D03*
Y3502850D03*
Y3452830D03*
G54D36*
X2656000Y1640000D03*
X2606000D03*
X2556000D03*
X2506000D03*
X2456000D03*
X2406000D03*
X2356000D03*
Y2140000D03*
X2406000D03*
X2456000D03*
X2506000D03*
X2556000D03*
X2606000D03*
X2656000D03*
G54D28*
X2000000Y1276200D03*
Y1123800D03*
X1853800Y1950000D03*
X2006200D03*
X3140000Y2293800D03*
Y2446200D03*
G54D37*
X2506000Y1890000D03*
G54D46*
X5114000Y4660000D03*
X5622000D03*
X5368000D03*
X6638000D03*
X6384000D03*
X6892000D03*
G54D19*
X1040000Y2520000D03*
X1260000D03*
X4160000Y210000D03*
Y750000D03*
Y480000D03*
Y1020000D03*
X4380000Y210000D03*
Y750000D03*
Y480000D03*
Y1020000D03*
X4800000Y5080000D03*
X5020000D03*
X6070000D03*
X6290000D03*
G54D47*
X5707000Y2620000D03*
X5580000D03*
Y3160000D03*
X5707000D03*
Y3770000D03*
X5580000D03*
Y4310000D03*
X5707000D03*
X5961000Y2620000D03*
X5834000D03*
Y3160000D03*
X5961000D03*
Y3770000D03*
X5834000D03*
Y4310000D03*
X5961000D03*
G54D38*
X2660000Y4960000D03*
X2725000D03*
X2595000D03*
X2660000Y5180000D03*
X2595000D03*
X2725000D03*
X2930000Y4960000D03*
X2995000D03*
X2865000D03*
X2930000Y5180000D03*
X2865000D03*
X2995000D03*
G54D29*
X2256000Y1740000D03*
Y1790000D03*
Y1840000D03*
Y1890000D03*
Y1940000D03*
Y1990000D03*
Y2040000D03*
X2756000Y1890000D03*
Y1840000D03*
Y1790000D03*
Y1740000D03*
Y2040000D03*
Y1990000D03*
Y1940000D03*
G54D39*
X3255000Y1710000D03*
Y1950000D03*
X3065000D03*
Y1710000D03*
X3425000Y3377840D03*
X3615000D03*
X3425000Y3617840D03*
X3615000D03*
G54D48*
X6270000Y2788400D03*
Y2991600D03*
Y3438400D03*
Y3641600D03*
Y4068400D03*
Y4271600D03*
G54D49*
X6521000Y1232000D03*
X6775000Y1359000D03*
Y1105000D03*
X6521000Y1740000D03*
Y1486000D03*
X6775000Y1867000D03*
Y1613000D03*
X6521000Y1994000D03*
X7900000Y887500D03*
Y1141500D03*
Y1958500D03*
Y2212500D03*
M02*
