G04 ================== begin FILE IDENTIFICATION RECORD ==================*
G04 Layout Name:  hy_uart_dbug_v30_251110.brd*
G04 Film Name:    TOP*
G04 File Format:  Gerber RS274X*
G04 File Origin:  Cadence Allegro 24.1-S006*
G04 Origin Date:  Tue Nov 11 18:29:46 2025*
G04 *
G04 Layer:  VIA CLASS/TOP*
G04 Layer:  PIN/TOP*
G04 Layer:  ETCH/TOP*
G04 *
G04 Offset:    (0.0000 0.0000)*
G04 Mirror:    No*
G04 Mode:      Positive*
G04 Rotation:  0*
G04 FullContactRelief:  No*
G04 UndefLineWidth:     0.1524*
G04 ================== end FILE IDENTIFICATION RECORD ====================*
%FSLAX55Y55*MOMM*%
%IR0*IPPOS*OFA0.00000B0.00000*MIA0B0*SFA1.00000B1.00000*%
%ADD30R,1.X.3*%
%ADD38R,.3X1.*%
%ADD19R,1.2X.3*%
%ADD52R,1.X.6*%
%ADD45R,.3X1.2*%
%ADD44R,.6X1.1*%
%ADD42R,1.1X.6*%
%ADD18R,1.2X.6*%
%ADD49R,.6X1.5*%
%ADD34R,1.5X.25*%
%ADD33R,1.8X.25*%
%ADD28C,.75*%
%ADD13C,.508*%
%ADD12R,.8X.8*%
%ADD14O,2.1X1.*%
%ADD22O,4.X2.*%
%ADD50R,1.2X1.*%
%ADD15O,2.X4.*%
%ADD32R,1.X1.2*%
%ADD11O,1.6X1.*%
%ADD53R,1.X2.5*%
%ADD41R,1.2X1.4*%
%ADD36R,1.4X1.2*%
%ADD43R,1.X2.7*%
%ADD26R,2.5X1.5*%
%ADD25R,1.8X1.6*%
%ADD20R,.6X.4*%
%ADD16R,.5X.6*%
%ADD46R,1.6X1.8*%
%ADD21R,.6X.5*%
%ADD23C,1.3*%
%ADD40R,.4X.9*%
%ADD37R,2.7X2.7*%
%ADD27R,.8X.25*%
%ADD17C,3.3*%
%ADD54C,2.5*%
%ADD51C,1.6*%
%ADD35R,.25X.8*%
%ADD48C,1.8*%
%ADD55C,1.9*%
%ADD24R,1.3X1.3*%
%ADD39R,3.2X3.2*%
%ADD10C,6.9*%
%ADD47R,1.8X1.8*%
%ADD29R,.9144X.9144*%
%ADD31R,.9144X.9144*%
%ADD56C,.2032*%
%ADD57C,.1331*%
%ADD58C,.254*%
%ADD59C,.7112*%
%ADD60C,.762*%
%ADD61C,.1554*%
%ADD62C,1.27*%
%ADD65C,2.2148*%
%ADD64C,4.2148*%
%ADD63O,2.9148X4.9148*%
G75*
%LPD*%
G75*
G36*
G01X1330310Y5370000D02*
X2104260D01*
Y4676140D01*
X2010000D01*
G03X2002950Y4675790I-2J-71140D01*
G01X2002450Y4675740D01*
X1980000D01*
G03X1934260Y4630000I0J-45740D01*
G01Y4580000D01*
G03X1980000Y4534260I45740J0D01*
G01X2002450D01*
X2002950Y4534210D01*
G03X2010000Y4533860I7048J70790D01*
G01X2065850D01*
G02X2082320Y4501650I-4J-20318D01*
G03X2068860Y4460000I57683J-41641D01*
G03X2074590Y4432030I71130J0D01*
G03X2086080Y4406820I45410J5473D01*
G02Y4393180I-7535J-6820D01*
G03X2074590Y4367970I33920J-30683D01*
G03X2068860Y4340000I65400J-27970D01*
G03X2082320Y4298350I71143J-9D01*
G02X2065850Y4266140I-16474J-11892D01*
G01X2010000D01*
G03X2002950Y4265790I-2J-71140D01*
G01X2002450Y4265740D01*
X1980000D01*
G03X1934260Y4220000I0J-45740D01*
G01Y4170000D01*
G03X1980000Y4124260I45740J0D01*
G01X2002450D01*
X2002950Y4124210D01*
G03X2010000Y4123860I7048J70790D01*
G01X2104260D01*
Y3545740D01*
X1825740D01*
Y3665740D01*
X1535740D01*
Y3680250D01*
X1563000Y3707510D01*
X1570140Y3701350D01*
G03X1600000Y3690260I29860J34654D01*
G01X1780000D01*
G03X1825740Y3736000I0J45740D01*
G01Y3896000D01*
G03X1780000Y3941740I-45740J0D01*
G01X1600000D01*
G03X1564830Y3925240I0J-45733D01*
G01X1517000D01*
G03X1455420Y3906230I0J-109245D01*
G03X1390000Y3921740I-65424J-130229D01*
G03X1244260Y3776000I0J-145740D01*
G01Y3576000D01*
G03X1390000Y3430260I145740J0D01*
G03X1516330Y3503330I0J145740D01*
G02X1554260Y3493190I17610J-10137D01*
G01Y3311050D01*
X1621050Y3244260D01*
X2258950D01*
X2335740Y3321050D01*
Y3955430D01*
G02X2360350Y3975290I20320J-2D01*
G03X2370000Y3974260I9652J44710D01*
G01X2510000D01*
G03X2555740Y4020000I0J45740D01*
G01Y4080000D01*
G03X2540900Y4113720I-45730J0D01*
G01Y4264260D01*
X2690000D01*
G03X2735740Y4310000I0J45740D01*
G01Y4336690D01*
X2770040Y4370980D01*
G02X2784090Y4371290I7187J-7181D01*
G03X2815000Y4359260I30915J33708D01*
G01X2889100D01*
Y4343960D01*
X2886400Y4341040D01*
G03X2874260Y4310000I33612J-31040D01*
G01Y4250000D01*
G03X2920000Y4204260I45740J0D01*
G01X2970000D01*
G03X2997700Y4213600I0J45745D01*
G02X3022300I12300J-16173D01*
G03X3050000Y4204260I27700J36405D01*
G01X3109100D01*
Y4145000D01*
G03X3125470Y4105470I55913J0D01*
G01X3160470Y4070470D01*
G03X3200000Y4054100I39530J39543D01*
G01X3446200D01*
G03X3485730Y4070470I0J55913D01*
G01X3509510Y4094260D01*
X3858860D01*
Y4010000D01*
G03X3879700Y3959700I71137J6D01*
G01X3901190Y3938200D01*
G02X3886830Y3903510I-14364J-14371D01*
G01X2749990D01*
G03X2712150Y3887840I0J-53523D01*
G01X2575230Y3750920D01*
G03X2559560Y3713080I37853J-37840D01*
G01Y2235740D01*
X2414440D01*
Y2303860D01*
X2445000D01*
G03Y2446140I0J71140D01*
G01X2360000D01*
G03X2352950Y2445790I-2J-71140D01*
G01X2352450Y2445740D01*
X2330000D01*
G03X2284260Y2400000I0J-45740D01*
G01Y2350000D01*
G03X2297560Y2317750I45750J0D01*
G01Y2204400D01*
X2297140Y2202990D01*
G03X2295260Y2190000I43862J-12979D01*
G01Y2100740D01*
X2208440D01*
Y2314180D01*
G03X2225740Y2350000I-28433J35820D01*
G01Y2400000D01*
G03X2180000Y2445740I-45740J0D01*
G01X2105740D01*
Y2490000D01*
G03X2060000Y2535740I-45740J0D01*
G01X2000000D01*
G03X1973530Y2527310I-9J-45743D01*
G03X1940000Y2541940I-33530J-31108D01*
G01X1860000D01*
G03X1814260Y2496200I0J-45740D01*
G01Y2416200D01*
G03X1860000Y2370460I45740J0D01*
G01X1940000D01*
G03X1943350Y2370580I39J45741D01*
G02X1954260Y2360450I751J-10131D01*
G01Y2350000D01*
G03X2000000Y2304260I45740J0D01*
G01X2060000D01*
G03X2067780Y2304930I-20J45738D01*
G02X2091560Y2284900I3459J-20024D01*
G01Y2058890D01*
G02X2065300Y2039460I-20319J2D01*
G03X2051920Y2041460I-13378J-43740D01*
G01X1925120D01*
X1924930Y2051420D01*
G03X1853800Y2121140I-71130J-1424D01*
G03X1782660Y2050000I0J-71140D01*
G01Y2033750D01*
G03X1762340Y1995720I25428J-38030D01*
G01Y1904280D01*
G03X1808080Y1858540I45740J0D01*
G01X1920460D01*
Y1760000D01*
G03X1939930Y1722550I45752J0D01*
G01X1944260Y1719520D01*
Y1677550D01*
X1944210Y1677050D01*
G03X1943860Y1670000I70790J-7048D01*
G03X1944210Y1662950I71140J-2D01*
G01X1944260Y1662450D01*
Y1640000D01*
G03X1990000Y1594260I45740J0D01*
G01X2040000D01*
G03X2058170Y1598020I8J45742D01*
G01X2060100Y1598860D01*
X2120000D01*
G03X2189440Y1654550I0J71137D01*
G01X2190080Y1657440D01*
X2211910Y1679260D01*
X2295260D01*
Y1590000D01*
G03X2306960Y1559450I45735J0D01*
G01X2309560Y1556550D01*
Y1545950D01*
X2302980Y1539370D01*
X1785860D01*
G03X1748020Y1523700I0J-53523D01*
G01X1623250Y1398920D01*
X1607190D01*
G02X1598180Y1413780I-1J10161D01*
G03X1610740Y1465000I-98179J51225D01*
G03X1500000Y1575740I-110740J0D01*
G03X1493040Y1575520I17J-110739D01*
G02X1471440Y1595800I-1280J20280D01*
G01Y2503460D01*
G03X1455770Y2541300I-53523J0D01*
G01X1419230Y2577840D01*
G03X1381390Y2593510I-37840J-37853D01*
G01X1372160D01*
X1342840Y2622840D01*
G03X1329900Y2632360I-37821J-37854D01*
G03X1290000Y2655740I-39900J-22356D01*
G01X1230000D01*
G03X1194230Y2638510I0J-45745D01*
G01X1181660D01*
G02X1165770Y2671490I2J20319D01*
G03X1175740Y2700000I-35778J28510D01*
G01Y2760000D01*
G03X1167150Y2786690I-45742J6D01*
G02X1183650Y2818860I16504J11852D01*
G01X1480130D01*
G03X1565000Y2779260I84870J71146D01*
G03X1675740Y2890000I0J110740D01*
G03X1675610Y2895300I-110738J-65D01*
G01X1675400Y2899790D01*
X1695040Y2919440D01*
X1705740Y2908740D01*
X1705120Y2903800D01*
G03X1704260Y2890000I109882J-13774D01*
G03X1925740I110740J0D01*
G03X1917860Y2931010I-110737J-16D01*
G02X1936740Y2958860I18876J7528D01*
G01X2044040D01*
X2044270Y2948940D01*
G03X2090000Y2904260I45730J1062D01*
G01X2270000D01*
G03X2315740Y2950000I0J45740D01*
G01Y3110000D01*
G03X2270000Y3155740I-45740J0D01*
G01X2090000D01*
G03X2044270Y3111060I0J-45742D01*
G01X2044040Y3101140D01*
X1705000D01*
G03X1654700Y3080300I0J-71123D01*
G01X1574790Y3000400D01*
X1570300Y3000610D01*
G03X1565000Y3000740I-5365J-110608D01*
G03X1480130Y2961140I0J-110746D01*
G01X1010000D01*
G03X959700Y2940300I0J-71123D01*
G01X904530Y2885140D01*
X860100D01*
X858170Y2885980D01*
G03X840000Y2889740I-18162J-41982D01*
G01X720000D01*
G03X701830Y2885980I-8J-45742D01*
G01X699900Y2885140D01*
X694000D01*
G03X668850Y2880550I-10J-71142D01*
G02X656710Y2884570I-3589J9504D01*
G03X649950Y2892590I-33717J-21561D01*
G01X656790Y2910260D01*
X731000D01*
G03Y3101740I0J95740D01*
G01X621000D01*
G03X525260Y3006000I0J-95740D01*
G03X583000Y2918130I95731J0D01*
G02X591120Y2887190I-8066J-18652D01*
G03X582980Y2863000I31873J-24190D01*
G03X591770Y2837970I40032J0D01*
G02X590290Y2810890I-15852J-12714D01*
G01X549700Y2770300D01*
G03X528860Y2720000I50297J-50306D01*
G01Y2449470D01*
X469700Y2390300D01*
G03X448860Y2340000I50297J-50306D01*
G01Y1150000D01*
G03X469700Y1099700I71137J6D01*
G01X529700Y1039700D01*
G03X580000Y1018860I50300J50283D01*
G01X1375000D01*
G03X1425300Y1039700I0J71123D01*
G01X1489870Y1104260D01*
X1565000D01*
G03X1610740Y1150000I0J45740D01*
G01Y1256040D01*
X1660270D01*
G03X1698110Y1271710I0J53523D01*
G01X1822880Y1396490D01*
X2340000D01*
G03X2377840Y1412160I0J53523D01*
G01X2445000Y1479330D01*
X2532160Y1392160D01*
G03X2570000Y1376490I37840J37853D01*
G01X2647840D01*
X3332160Y692160D01*
G03X3370000Y676490I37840J37853D01*
G01X4037840D01*
X4067160Y647160D01*
G03X4089010Y633930I37841J37838D01*
G02X4091370Y597160I-7373J-18934D01*
G03X4059240Y582050I4913J-52163D01*
G01X4028300Y551100D01*
X3437740D01*
X3122440Y866410D01*
G03X3085390Y881760I-37050J-37038D01*
G01X2720310D01*
G03X2690000Y893240I-30310J-34273D01*
G01X2633240D01*
Y1000000D01*
G03X2621440Y1030660I-45732J0D01*
G01Y1211310D01*
X2627860Y1213850D01*
G03X2672820Y1280000I-26184J66150D01*
G03X2601680Y1351140I-71140J0D01*
G03X2556460Y1334920I0J-71145D01*
G02X2543550I-6455J7844D01*
G03X2498330Y1351140I-45220J-54925D01*
G03X2427190Y1280000I0J-71140D01*
G03X2472140Y1213860I71135J0D01*
G01X2478560Y1211310D01*
Y1185740D01*
X2420000D01*
G03X2390000Y1174530I0J-45748D01*
G03X2360000Y1185740I-30000J-34538D01*
G01X2341740D01*
X2341240Y1185790D01*
G03X2334190Y1186140I-7048J-70790D01*
G01X2259910D01*
G03X2220000Y1209540I-39910J-22334D01*
G01X2140000D01*
G03X2109180Y1197590I7J-45737D01*
G01X2106270Y1194940D01*
X2085370D01*
Y1207540D01*
X2086470Y1209710D01*
G03X2091460Y1230480I-40749J20774D01*
G01Y1321920D01*
G03X2045720Y1367660I-45740J0D01*
G01X1954280D01*
G03X1931230Y1361420I12J-45737D01*
G01X1928850Y1360040D01*
X1850000D01*
G03X1766160Y1276200I0J-83840D01*
G03X1774540Y1239660I83841J-3D01*
G02X1760910Y1211020I-18286J-8861D01*
G03X1696760Y1130000I19088J-81020D01*
G03X1708860Y1086780I83239J0D01*
G01Y500000D01*
G03X1729700Y449700I71137J6D01*
G01X1789700Y389700D01*
G03X1840000Y368860I50306J50297D01*
G01X1967480D01*
G03X2017780Y389700I-6J71137D01*
G01X2095300Y467220D01*
G03X2108160Y484780I-50288J50317D01*
G03X2112290Y492570I-38159J25221D01*
G01X2114880Y498860D01*
X2130000D01*
G03X2199440Y554550I0J71137D01*
G01X2200080Y557440D01*
X2219210Y576560D01*
X2250000D01*
G03X2254460Y576730I6J58440D01*
G01X2254850Y576760D01*
X2266760D01*
Y520000D01*
G03X2312500Y474260I45740J0D01*
G01X2369100D01*
Y445930D01*
G03X2369440Y439790I55899J16D01*
G01X2369500Y439230D01*
Y303550D01*
X2356690Y290740D01*
X2260000D01*
G03X2214260Y245000I0J-45740D01*
G01Y125000D01*
G03X2260000Y79260I45740J0D01*
G01X2400000D01*
G03X2445740Y125000I0J45740D01*
G01Y221690D01*
X2464930Y240870D01*
G03X2478310Y262380I-39541J39512D01*
G01X2480660Y269260D01*
X2640000D01*
G03X2685740Y315000I0J45740D01*
G01Y421560D01*
X2769590D01*
X2788060Y403090D01*
Y360000D01*
G03X2833800Y314260I45740J0D01*
G01X2913800D01*
G03X2959540Y360000I0J45740D01*
G01Y440000D01*
G03X2928160Y483430I-45744J0D01*
G02X2917760Y514190I6375J19294D01*
G03X2925740Y540000I-37749J25810D01*
G01Y562450D01*
X2925790Y562950D01*
G03X2926140Y570000I-70790J7048D01*
G03X2925790Y577050I-71140J2D01*
G01X2925740Y577550D01*
Y595630D01*
G02X2943080Y602820I10159J3D01*
G01X3392950Y152950D01*
G03X3430000Y137600I37050J37038D01*
G01X4038300D01*
X4067950Y107950D01*
G03X4092240Y94180I37051J37049D01*
G03X4130000Y74260I37760J25829D01*
G01X4190000D01*
G03X4226630Y92600I0J45750D01*
G01X4313370D01*
G03X4350000Y74260I36630J27410D01*
G01X4410000D01*
G03X4446690Y92690I0J45736D01*
G03X4480760Y107950I-2978J52311D01*
G01X4511700Y138900D01*
X6516040D01*
G03X6553090Y154240I8J52393D01*
G01X6655760Y256910D01*
G03X6671100Y293960I-37053J37042D01*
G01Y740000D01*
X6728860D01*
Y600100D01*
X6728020Y598170D01*
G03X6724260Y580000I41982J-18162D01*
G01Y530000D01*
G03X6770000Y484260I45740J0D01*
G01X6792450D01*
X6792950Y484210D01*
G03X6800000Y483860I7048J70790D01*
G03X6807050Y484210I2J71140D01*
G01X6807550Y484260D01*
X6830000D01*
G03X6858640Y494340I0J45727D01*
G02X6871360I6360J-7927D01*
G03X6900000Y484260I28640J35647D01*
G01X6922450D01*
X6922950Y484210D01*
G03X6930000Y483860I7048J70790D01*
G03X6937050Y484210I2J71140D01*
G01X6937550Y484260D01*
X6960000D01*
G03X7005740Y530000I0J45740D01*
G01Y580000D01*
G03X7001980Y598170I-45742J8D01*
G01X7001140Y600100D01*
Y609840D01*
G02X7018480Y617030I10160J3D01*
G01X7154260Y481250D01*
Y420000D01*
G03X7200000Y374260I45740J0D01*
G01X7380000D01*
G03X7412450Y387760I0J45750D01*
G01X7415430Y390760D01*
X7424570D01*
X7427550Y387760D01*
G03X7460000Y374260I32450J32250D01*
G01X7640000D01*
G03X7685740Y420000I0J45740D01*
G01Y481250D01*
X7767240Y562760D01*
G03X7799240Y640000I-77237J77247D01*
G01Y740000D01*
X7941000D01*
G02X7950840Y701900I3J-20320D01*
G03X7749260Y360000I189158J-341900D01*
G03X7883050Y65630I390737J0D01*
G02X7869690Y30000I-13361J-15310D01*
G01X630310D01*
G02X616950Y65630I1J20320D01*
G03X750740Y360000I-256947J294370D01*
G03X360000Y750740I-390740J0D01*
G03X65630Y616950I0J-390737D01*
G02X30000Y630310I-15310J13361D01*
G01Y4769690D01*
G02X65630Y4783050I20320J-1D01*
G03X360000Y4649260I294370J256947D01*
G03X692700Y4835090I0J390739D01*
G02X727300I17300J-10659D01*
G03X1060000Y4649260I332700J204909D01*
G03X1450740Y5040000I0J390740D01*
G03X1316950Y5334370I-390737J0D01*
G02X1330310Y5370000I13361J15310D01*
G37*
G36*
G01X1105770Y2401490D02*
X1194230D01*
G03X1230000Y2384260I35770J28515D01*
G01X1290000D01*
G03X1302630Y2386040I-6J45739D01*
G02X1328560Y2366510I5610J-19531D01*
G01Y1595800D01*
G02X1306960Y1575520I-20320J0D01*
G03X1300000Y1575740I-6977J-110519D01*
G03Y1354260I0J-110740D01*
G03X1307770Y1354530I42J110741D01*
G02X1329250Y1337520I1425J-20268D01*
G03X1329480Y1336200I52827J8525D01*
G02X1317860Y1324290I-9983J-1883D01*
G03X1300000Y1325740I-17862J-109290D01*
G03X1189260Y1215000I0J-110740D01*
G03X1192950Y1186660I110739J8D01*
G02X1173300Y1161140I-19644J-5200D01*
G01X609470D01*
X591140Y1179470D01*
Y2026330D01*
G02X613130Y2046580I20318J1D01*
G03X621000Y2046260I7821J95422D01*
G01X731000D01*
G03Y2237740I0J95740D01*
G01X656790D01*
X649950Y2255410D01*
G03X659260Y2268070I-26959J29578D01*
G03X686000Y2262860I26724J65933D01*
G01X699900D01*
X701830Y2262020D01*
G03X720000Y2258260I18162J41982D01*
G01X840000D01*
G03X885740Y2304000I0J45740D01*
G01Y2343100D01*
X982850D01*
X1034260Y2291690D01*
Y2270000D01*
G03X1080000Y2224260I45740J0D01*
G01X1130000D01*
G03X1175740Y2270000I0J45740D01*
G01Y2330000D01*
G03X1130000Y2375740I-45740J0D01*
G01X1108310D01*
X1094360Y2389690D01*
X1101620Y2396950D01*
X1101690Y2397020D01*
G03X1105770Y2401490I-31669J33003D01*
G37*
G36*
G01X2150000Y4268860D02*
X2220000D01*
Y4230000D01*
X2180000D01*
Y4190000D01*
X2259100D01*
Y4145000D01*
G03X2275470Y4105470I55913J0D01*
G01X2290000Y4090950D01*
Y3340000D01*
X2240000Y3290000D01*
X1640000D01*
X1600000Y3330000D01*
Y3620000D01*
X1780000D01*
Y3520000D01*
X1800000Y3500000D01*
X1887290D01*
X1888130Y3499860D01*
G03X1900000Y3498860I11886J70139D01*
G03X1911870Y3499860I-16J71139D01*
G01X1912710Y3500000D01*
X1956090D01*
X1958210Y3498960D01*
G03X1978400Y3494260I20195J41039D01*
G01X2078400D01*
G03X2098590Y3498960I-5J45739D01*
G01X2100710Y3500000D01*
X2130000D01*
X2150000Y3520000D01*
Y4268860D01*
G37*
G36*
G01X1871140Y598870D02*
G03X1899980Y605490I-1147J71129D01*
G03X1930000Y594260I30020J34510D01*
G01X1954060D01*
G02X1974340Y572730I-3J-20319D01*
G03X1974260Y570000I45661J-2704D01*
G01Y547390D01*
X1938010Y511140D01*
X1869470D01*
X1851140Y529470D01*
Y578550D01*
G02X1871140Y598870I20320J3D01*
G37*
G36*
G01X1851140Y1052660D02*
X1916250D01*
G03X1954280Y1032340I38030J25428D01*
G01X1973860D01*
Y930000D01*
G03X1974210Y922950I71140J-2D01*
G01X1974260Y922450D01*
Y875740D01*
X1930000D01*
G03X1899980Y864510I0J-45740D01*
G03X1871140Y871130I-29987J-64509D01*
G02X1851140Y891450I320J20317D01*
G01Y1052660D01*
G37*
G36*
G01X2180000Y5370000D02*
X3000000D01*
X3020000Y5350000D01*
Y5130000D01*
X2995740D01*
Y5225000D01*
G03X2962870Y5268890I-45737J0D01*
G01X2960380Y5269620D01*
X2960000Y5270000D01*
X2958240D01*
X2957420Y5270130D01*
G03X2950000Y5270740I-7445J-45128D01*
G01X2845000D01*
G03X2837580Y5270130I25J-45738D01*
G01X2836760Y5270000D01*
X2802710D01*
X2801870Y5270140D01*
G03X2790000Y5271140I-11886J-70139D01*
G03X2778130Y5270140I16J-71139D01*
G01X2777290Y5270000D01*
X2753240D01*
X2752420Y5270130D01*
G03X2745000Y5270740I-7445J-45128D01*
G01X2640000D01*
G03X2632580Y5270130I25J-45738D01*
G01X2631760Y5270000D01*
X2630000D01*
X2629620Y5269620D01*
X2627130Y5268890D01*
G03X2594260Y5225000I12867J-43890D01*
G01Y5135000D01*
G03X2601440Y5110400I45732J0D01*
G03X2588860Y5070000I58562J-40394D01*
G03X2589100Y5064170I71140J9D01*
G01X2589480Y5059480D01*
X2580740Y5050740D01*
X2575000D01*
G03X2530970Y5017400I0J-45744D01*
G01X2528890Y5010000D01*
X2310000D01*
X2280000Y4980000D01*
Y4692650D01*
X2273680Y4686320D01*
G03X2256560Y4645000I41318J-41326D01*
G01Y4600000D01*
X2190000D01*
Y4570000D01*
X2230000D01*
Y4531140D01*
X2158860D01*
X2150000Y4540000D01*
Y5340000D01*
X2180000Y5370000D01*
G37*
G36*
G01X2336530Y874260D02*
X2564260D01*
Y822500D01*
G03X2566000Y810000I45741J-4D01*
G03X2564260Y797500I44001J-12496D01*
G01Y772500D01*
G03X2566000Y760000I45741J-4D01*
G03X2564260Y747500I44001J-12496D01*
G01Y722500D01*
G03X2566000Y710000I45741J-4D01*
G03X2564260Y697500I44001J-12496D01*
G01Y672500D01*
G03X2566000Y660000I45741J-4D01*
G03X2564510Y652230I44006J-12467D01*
G02X2551330Y643600I-10106J1055D01*
G03X2537500Y645740I-13827J-43600D01*
G01X2336530D01*
X2335220Y654370D01*
G03X2334000Y660000I-45224J-6853D01*
G03X2335740Y672500I-44001J12496D01*
G01Y697500D01*
G03X2334000Y710000I-45741J4D01*
G03X2335740Y722500I-44001J12496D01*
G01Y747500D01*
G03X2334000Y760000I-45741J4D01*
G03X2335740Y772500I-44001J12496D01*
G01Y797500D01*
G03X2334000Y810000I-45741J4D01*
G03X2335740Y822500I-44001J12496D01*
G01Y847500D01*
G03X2334000Y860000I-45741J4D01*
G03X2335220Y865630I-44004J12483D01*
G01X2336530Y874260D01*
G37*
G36*
G01X2351740Y2044260D02*
X2660260D01*
Y2025000D01*
G03X2661370Y2015000I45738J15D01*
G03X2660260Y2005000I44628J-10015D01*
G01Y1975000D01*
G03X2661370Y1965000I45738J15D01*
G03X2660260Y1955000I44628J-10015D01*
G01Y1925000D01*
G03X2661370Y1915000I45738J15D01*
G03X2660260Y1905000I44628J-10015D01*
G01Y1875000D01*
G03X2661370Y1865000I45738J15D01*
G03X2660260Y1855000I44628J-10015D01*
G01Y1825000D01*
G03X2661370Y1815000I45738J15D01*
G03X2660260Y1805000I44628J-10015D01*
G01Y1775000D01*
G03X2661370Y1765000I45738J15D01*
G03X2660260Y1755000I44628J-10015D01*
G01Y1735740D01*
X2351740D01*
Y1755000D01*
G03X2350630Y1765000I-45738J-15D01*
G03X2351740Y1775000I-44628J10015D01*
G01Y1805000D01*
G03X2350630Y1815000I-45738J-15D01*
G03X2351740Y1825000I-44628J10015D01*
G01Y1855000D01*
G03X2350630Y1865000I-45738J-15D01*
G03X2351740Y1875000I-44628J10015D01*
G01Y1905000D01*
G03X2350630Y1915000I-45738J-15D01*
G03X2351740Y1925000I-44628J10015D01*
G01Y1955000D01*
G03X2350630Y1965000I-45738J-15D01*
G03X2351740Y1975000I-44628J10015D01*
G01Y2005000D01*
G03X2350630Y2015000I-45738J-15D01*
G03X2351740Y2025000I-44628J10015D01*
G01Y2044260D01*
G37*
G36*
G01X7014840Y5039580D02*
G02X7049510Y5025950I14366J-14367D01*
G03X7440000Y4649260I390490J14053D01*
G03X7772700Y4835090I0J390739D01*
G02X7807300I17300J-10659D01*
G03X8140000Y4649260I332700J204909D01*
G03X8434370Y4783050I0J390737D01*
G02X8470000Y4769690I15310J-13361D01*
G01Y2370000D01*
X7680380D01*
X7613130Y2437240D01*
G03X7535890Y2469240I-77247J-77237D01*
G01X7195570D01*
G03X7105000Y2495240I-90570J-144749D01*
G03X7001180Y2460050I0J-170744D01*
G01X6610810D01*
G03X6533570Y2428050I7J-109237D01*
G01X6475510Y2370000D01*
X6360000D01*
Y1786830D01*
G02X6324760Y1773040I-20320J4D01*
G03X6170000Y1840740I-154760J-143038D01*
G03X5964300Y1675800I0J-210736D01*
G02X5931370Y1664680I-19834J4415D01*
G03X5860000Y1690740I-71364J-84682D01*
G03Y1469260I0J-110740D01*
G03X5954370Y1522060I0J110734D01*
G02X5989130Y1521850I17316J-10635D01*
G03X6170000Y1419260I180870J108145D01*
G03X6322570Y1484630I0J210730D01*
G02X6357600Y1470610I14711J-14016D01*
G01Y1416450D01*
X6301610Y1360460D01*
G03X6286260Y1323410I37038J-37050D01*
G01Y1260200D01*
G02X6257510Y1241710I-20319J-3D01*
G03X6170000Y1260740I-87513J-191709D01*
G03Y839260I0J-210740D01*
G03X6313450Y895620I0J210738D01*
G02X6347600Y880740I13832J-14883D01*
G01Y631700D01*
X6268300Y552400D01*
X4511700D01*
X4482050Y582050D01*
G03X4448410Y597280I-37043J-37054D01*
G02X4447000Y631840I9953J17715D01*
G03X4478700Y647160I-6139J53159D01*
G01X4512160Y680630D01*
X5244860D01*
G03X5282700Y696300I0J53523D01*
G01X5347840Y761440D01*
G03X5363510Y799280I-37853J37840D01*
G01Y1191580D01*
G02X5387890Y1211490I20320J0D01*
G03X5410000Y1209260I22112J108510D01*
G03X5494500Y1248420I0J110748D01*
G02X5525500I15500J-13135D01*
G03X5610000Y1209260I84500J71588D01*
G03Y1430740I0J110740D01*
G03X5602230Y1430470I-42J-110741D01*
G02X5580750Y1447480I-1425J20268D01*
G03X5578050Y1457640I-52813J-8596D01*
G02X5589460Y1471180I9518J3557D01*
G03X5610000Y1469260I20532J108821D01*
G03Y1690740I0J110740D01*
G03X5603040Y1690520I17J-110739D01*
G02X5581440Y1710800I-1280J20280D01*
G01Y1812070D01*
G03X5565770Y1849910I-53523J0D01*
G01X5491980Y1923700D01*
G03X5454140Y1939370I-37840J-37853D01*
G01X4675140D01*
G03X4637300Y1923700I0J-53523D01*
G01X4472160Y1758560D01*
G03X4456490Y1720720I37853J-37840D01*
G01Y1170650D01*
G02X4428120Y1152000I-20319J6D01*
G03X4410000Y1155740I-18115J-42001D01*
G01X4350000D01*
G03X4314230Y1138510I0J-45745D01*
G01X4225770D01*
G03X4190000Y1155740I-35770J-28515D01*
G01X4130000D01*
G03X4094040Y1138270I0J-45745D01*
G03X4061300Y1122840I5099J-53269D01*
G01X4027840Y1089370D01*
X3387020D01*
X2878560Y1597840D01*
G03X2840720Y1613510I-37840J-37853D01*
G01X2716740D01*
Y1679260D01*
X2806000D01*
G03X2821030Y1681800I0J45739D01*
G01X2827050Y1683890D01*
X3295470Y1215470D01*
G03X3335000Y1199100I39530J39543D01*
G01X3611000D01*
G03X3655000Y1183860I44000J55897D01*
G03X3725980Y1250290I0J71136D01*
G02X3746260Y1269260I20276J-1351D01*
G01X3773860D01*
Y1255000D01*
G03X3916140I71140J0D01*
G01Y1295010D01*
G03X3917800Y1298860I-41128J20016D01*
G01X3940000D01*
G03Y1441140I0J71140D01*
G01X3918230D01*
X3915360Y1446520D01*
G03X3875000Y1470740I-40360J-21518D01*
G01X3806550D01*
X3805130Y1479220D01*
G03X3789530Y1509530I-55136J-9208D01*
G01X3772160Y1526890D01*
X3784920Y1539650D01*
X3791700Y1535640D01*
G03X3815000Y1529260I23300J39356D01*
G01X3875000D01*
G03X3910500Y1546160I0J45736D01*
G01X4192230D01*
G03X4270000Y1514260I77770J78849D01*
G03Y1735740I0J110740D01*
G03X4203890Y1713840I0J-110734D01*
G01X3910500D01*
G03X3875000Y1730740I-35500J-28836D01*
G01X3815000D01*
G03X3769260Y1685000I0J-45740D01*
G01Y1666020D01*
X3768380Y1664050D01*
G03X3761160Y1630000I76623J-34038D01*
G03X3768380Y1595950I83843J-12D01*
G01X3769260Y1593980D01*
Y1575000D01*
G03X3769370Y1571850I45739J20D01*
G02X3741340Y1551670I-20271J-1401D01*
G03X3737690Y1553030I-21332J-51672D01*
G01X3730740Y1555340D01*
Y1685000D01*
G03X3685000Y1730740I-45740J0D01*
G01X3625000D01*
G03X3601280Y1724110I0J-45746D01*
G02X3570580Y1738930I-10542J17370D01*
G03X3500000Y1801140I-70580J-8933D01*
G03X3428860Y1730000I0J-71140D01*
G01Y1690100D01*
X3428020Y1688170D01*
G03X3424260Y1670000I41982J-18162D01*
G01Y1646450D01*
G02X3404180Y1626140I-20318J7D01*
G03X3386380Y1623660I838J-71137D01*
G02X3360740Y1643270I-5320J19611D01*
G01Y1780000D01*
G03X3315000Y1825740I-45740J0D01*
G01X3218310D01*
X3194530Y1849530D01*
G03X3176920Y1861420I-39516J-39540D01*
G01X3170740Y1864060D01*
Y2020000D01*
G03X3125000Y2065740I-45740J0D01*
G01X3005000D01*
G03X2979020Y2057650I-6J-45742D01*
G02X2951720Y2061550I-11540J16723D01*
G03X2896520Y2087810I-55200J-44887D01*
G03X2858410Y2076740I0J-71134D01*
G02X2844430Y2079810I-5443J8578D01*
G03X2821220Y2098130I-38423J-24816D01*
G01X2814440Y2100530D01*
Y2239700D01*
G02X2849130Y2254060I20319J-4D01*
G01X2859700Y2243500D01*
G03X2910000Y2222660I50306J50297D01*
G01X2916270D01*
X2919180Y2220010D01*
G03X2950000Y2208060I30827J33787D01*
G01X3030000D01*
G03X3059270Y2218650I0J45745D01*
G03X3094280Y2202340I35010J29420D01*
G01X3185720D01*
G03X3231460Y2248080I0J45740D01*
G01Y2339520D01*
G03X3219820Y2370000I-45727J0D01*
G03X3229650Y2387730I-34093J30492D01*
G01X3231770Y2395060D01*
X3379330D01*
X3388820Y2385570D01*
G02X3381240Y2352050I-14370J-14367D01*
G03X3333860Y2285000I23753J-67050D01*
G03X3404180Y2213860I71145J0D01*
G02X3424260Y2193550I-238J-20317D01*
G01Y2150000D01*
G03X3470000Y2104260I45740J0D01*
G01X3530000D01*
G03X3550040Y2108880I7J45742D01*
G02X3579260Y2090620I8901J-18265D01*
G01Y2045000D01*
G03X3592150Y2013170I45745J0D01*
G02X3593620Y2000960I-7295J-7072D01*
G03X3583860Y1965000I61366J-35960D01*
G03X3726140I71140J0D01*
G03X3725310Y1975840I-71140J5D01*
G02X3745390Y1999260I20081J3101D01*
G01X3773860D01*
Y1965000D01*
G03X3916140I71140J0D01*
G01Y2025010D01*
G03X3917800Y2028860I-41128J20016D01*
G01X3940000D01*
G03Y2171140I0J71140D01*
G01X3918230D01*
X3915360Y2176520D01*
G03X3875000Y2200740I-40360J-21518D01*
G01X3806550D01*
X3805130Y2209220D01*
G03X3789530Y2239530I-55136J-9208D01*
G01X3772160Y2256890D01*
X3784920Y2269650D01*
X3791700Y2265640D01*
G03X3815000Y2259260I23300J39356D01*
G01X3875000D01*
G03X3910500Y2276160I0J45736D01*
G01X3980270D01*
X4159500Y2096940D01*
X4159870Y2093360D01*
G03X4270000Y1994260I110130J11644D01*
G03X4380740Y2105000I0J110740D01*
G03X4281640Y2215130I-110744J0D01*
G01X4278060Y2215500D01*
X4259410Y2234160D01*
X4269440Y2244190D01*
X4273460Y2244310D01*
G03X4380740Y2355000I-3464J110690D01*
G03X4270000Y2465740I-110740J0D01*
G03X4161430Y2376800I0J-110736D01*
G02X4127140Y2366430I-19923J4000D01*
G01X4074280Y2419280D01*
G03X4015000Y2443840I-59287J-59277D01*
G01X3910500D01*
G03X3875000Y2460740I-35500J-28836D01*
G01X3815000D01*
G03X3769260Y2415000I0J-45740D01*
G01Y2396020D01*
X3768380Y2394050D01*
G03X3761160Y2360000I76623J-34038D01*
G03X3768380Y2325950I83843J-12D01*
G01X3769260Y2323980D01*
Y2305000D01*
G03X3769370Y2301850I45739J20D01*
G02X3741340Y2281670I-20271J-1401D01*
G03X3737690Y2283030I-21332J-51672D01*
G01X3730740Y2285340D01*
Y2415000D01*
G03X3685000Y2460740I-45740J0D01*
G01X3625000D01*
G03X3587220Y2440780I0J-45735D01*
G02X3558000Y2436170I-16781J11458D01*
G03X3533470Y2445610I-28001J-36169D01*
G01X3529710Y2445890D01*
X3459100Y2516500D01*
G03X3408800Y2537340I-50306J-50297D01*
G01X3223840D01*
Y2884260D01*
X3383860D01*
Y2700000D01*
G03X3384210Y2692950I71140J-2D01*
G01X3384260Y2692450D01*
Y2670000D01*
G03X3430000Y2624260I45740J0D01*
G01X3570000D01*
G03X3596880Y2632990I0J45747D01*
G03X3633800Y2614260I36920J27023D01*
G01X3866200D01*
G03X3905500Y2636600I0J45738D01*
G01X3908450Y2641560D01*
X4360000D01*
G03X4401320Y2658680I-6J58438D01*
G01X4456330Y2713690D01*
G03X4473450Y2755010I-41318J41326D01*
G01Y2797100D01*
X4530010D01*
G03X4540000Y2798200I19J45742D01*
G03X4549990Y2797100I9971J44642D01*
G01X4609090D01*
Y2485010D01*
G03X4625460Y2445480I55913J0D01*
G01X4710470Y2360470D01*
G03X4750000Y2344100I39530J39543D01*
G01X5306200D01*
G03X5345730Y2360470I0J55913D01*
G01X5379510Y2394260D01*
X5392890D01*
X5426670Y2360470D01*
G03X5466200Y2344100I39530J39543D01*
G01X5890000D01*
G03X5929530Y2360470I0J55913D01*
G01X6000530Y2431470D01*
G03X6016900Y2471000I-39543J39530D01*
G01Y2507300D01*
G03X6036740Y2545000I-25899J37700D01*
G01Y2695000D01*
G03X5991000Y2740740I-45740J0D01*
G01X5762890D01*
X5760810Y2748150D01*
G03X5758640Y2754420I-53822J-15117D01*
G02X5771390Y2767890I9384J3887D01*
G03X5795000Y2763860I23604J67111D01*
G01X6164260D01*
Y2738400D01*
G03X6210000Y2692660I45740J0D01*
G01X6330000D01*
G03X6368750Y2714100I0J45738D01*
G01X6371740Y2718860D01*
X6599900D01*
X6601830Y2718020D01*
G03X6620000Y2714260I18162J41982D01*
G01X6736900D01*
Y2605000D01*
G03X6782640Y2559260I45740J0D01*
G01X6882640D01*
G03X6928380Y2605000I0J45740D01*
G01Y2855000D01*
G03X6918300Y2883640I-45727J0D01*
G02Y2896360I7927J6360D01*
G03X6928380Y2925000I-35647J28640D01*
G01Y3175000D01*
G03X6918300Y3203640I-45727J0D01*
G02Y3216360I7927J6360D01*
G03X6928380Y3245000I-35647J28640D01*
G01Y3495000D01*
G03X6918300Y3523640I-45727J0D01*
G02Y3536360I7927J6360D01*
G03X6928380Y3565000I-35647J28640D01*
G01Y3815000D01*
G03X6918300Y3843640I-45727J0D01*
G02Y3856360I7927J6360D01*
G03X6928380Y3885000I-35647J28640D01*
G01Y4135000D01*
G03X6918300Y4163640I-45727J0D01*
G02Y4176360I7927J6360D01*
G03X6928380Y4205000I-35647J28640D01*
G01Y4455000D01*
G03X6882640Y4500740I-45740J0D01*
G01X6782640D01*
G03X6736900Y4455000I0J-45740D01*
G01Y4341140D01*
X6500100D01*
X6498170Y4341980D01*
G03X6480000Y4345740I-18162J-41982D01*
G01X6368850D01*
G03X6330000Y4367340I-38850J-24138D01*
G01X6191140D01*
Y4400000D01*
G03X6190730Y4407610I-71139J-17D01*
G01X6190670Y4408150D01*
Y4418860D01*
X6214000D01*
G03X6264300Y4439700I-6J71137D01*
G01X6352470Y4527860D01*
X6357780Y4526820D01*
G03X6384000Y4524260I26238J133178D01*
G03X6494460Y4581110I0J135737D01*
G02X6527540I16540J-11805D01*
G03X6748460I110460J78887D01*
G02X6781540I16540J-11805D01*
G03X6892000Y4524260I110460J78887D01*
G03X7027740Y4660000I0J135740D01*
G03X6958440Y4778370I-135743J0D01*
G01Y4921550D01*
X6963400Y4924500D01*
G03X6985740Y4963800I-23398J39300D01*
G01Y5010490D01*
X7014840Y5039580D01*
G37*
G36*
G01X2787010Y3760630D02*
X4012980D01*
X4075330Y3698280D01*
G02X4060960Y3663590I-14369J-14369D01*
G01X4055000D01*
G03X4009260Y3617850I0J-45740D01*
G01Y3587850D01*
G03X4010370Y3577840I45739J5D01*
G03X4009260Y3567830I44629J-10015D01*
G01Y3558850D01*
G02X3974570Y3544480I-20321J-1D01*
G01X3949530Y3569530D01*
G03X3910000Y3585900I-39530J-39543D01*
G01X3887220D01*
X3855740Y3617380D01*
Y3640000D01*
G03X3810000Y3685740I-45740J0D01*
G01X3760000D01*
G03X3714260Y3640000I0J-45740D01*
G01Y3623310D01*
X3656850Y3565900D01*
X3555990D01*
X3530740Y3591150D01*
Y3687840D01*
G03X3485000Y3733580I-45740J0D01*
G01X3365000D01*
G03X3319260Y3687840I0J-45740D01*
G01Y3547840D01*
G03X3365000Y3502100I45740J0D01*
G01X3461690D01*
X3493310Y3470470D01*
G03X3504290Y3461940I39519J39538D01*
G01X3509260Y3458990D01*
Y3307840D01*
G03X3511820Y3292760I45739J7D01*
G02X3492630Y3265740I-19184J-6699D01*
G01X3111050D01*
X3054260Y3208950D01*
Y2951050D01*
X3056160Y2949150D01*
Y2517350D01*
X3054780Y2514970D01*
G03X3048540Y2491920I39497J-23062D01*
G01Y2400480D01*
G03X3049540Y2390980I45739J12D01*
G02X3037850Y2378860I-9939J-2111D01*
G03X3030000Y2379540I-7858J-45059D01*
G01X2950000D01*
G03X2947270Y2379460I-26J-45741D01*
G02X2925740Y2399740I-1211J20283D01*
G01Y2400000D01*
G03X2880000Y2445740I-45740J0D01*
G01X2857550D01*
X2857050Y2445790D01*
G03X2850000Y2446140I-7048J-70790D01*
G01X2760000D01*
G03X2731030Y2439980I-13J-71143D01*
G02X2702440Y2458530I-8272J18558D01*
G01Y3676060D01*
X2787010Y3760630D01*
G37*
G36*
G01X2373240Y4210000D02*
Y4266760D01*
X2424190D01*
X2429100Y4261850D01*
Y4175900D01*
X2370900D01*
Y4195480D01*
X2371330Y4196900D01*
G03X2373240Y4210000I-43833J13080D01*
G37*
G36*
G01X2325740Y4633220D02*
Y4824260D01*
X2394260D01*
Y4750000D01*
G03X2409100Y4716280I45730J0D01*
G01Y4698150D01*
X2346380Y4635430D01*
X2343380Y4634820D01*
G03X2338920Y4633680I9083J-44829D01*
G01X2337440Y4633220D01*
X2325740D01*
G37*
G36*
G01X2535740Y4786150D02*
G02X2570430Y4800520I20321J1D01*
G01X2594100Y4776850D01*
Y4600000D01*
G03X2604320Y4567770I55903J-9D01*
G02X2587720Y4535740I-16602J-11712D01*
G01X2550000D01*
G03X2504270Y4490870I0J-45738D01*
G01X2504080Y4480900D01*
X2474520D01*
X2473100Y4481330D01*
G03X2460000Y4483240I-13080J-43833D01*
G01X2423240D01*
Y4554190D01*
X2504530Y4635470D01*
G03X2520900Y4675000I-39543J39530D01*
G01Y4716280D01*
G03X2535740Y4750000I-30890J33720D01*
G01Y4786150D01*
G37*
G36*
G01X2705900Y4820000D02*
X2970000D01*
Y4620000D01*
X2940000Y4590000D01*
X2739050D01*
X2705900Y4623150D01*
Y4820000D01*
G37*
G36*
G01X2725740Y5224260D02*
X2864260D01*
Y5135000D01*
G03X2871440Y5110400I45732J0D01*
G03X2858860Y5070580I58560J-40397D01*
G02X2840530Y5050520I-20319J162D01*
G03X2806700Y5030000I4472J-45520D01*
G01X2783300D01*
G03X2749470Y5050520I-38302J-25000D01*
G02X2731140Y5070580I1989J20222D01*
G03X2718560Y5110400I-71140J-577D01*
G03X2725740Y5135000I-38552J24600D01*
G01Y5224260D01*
G37*
G36*
G01X2780290Y1470630D02*
X2803700D01*
X3312160Y962160D01*
G03X3350000Y946490I37840J37853D01*
G01X4027840D01*
X4057160Y917160D01*
G03X4094230Y901500I37830J37844D01*
G03X4102860Y893180I35786J28484D01*
G02Y876820I-6023J-8180D01*
G03X4092200Y865760I27137J-36822D01*
G03X4071300Y852840I16936J-50761D01*
G01X4037840Y819370D01*
X3407020D01*
X2773110Y1453290D01*
G02X2780290Y1470630I7185J7181D01*
G37*
G36*
G01X2964010Y1754100D02*
X3131850D01*
X3149260Y1736690D01*
Y1640000D01*
G03X3195000Y1594260I45740J0D01*
G01X3315520D01*
G02X3335400Y1569730I2J-20319D01*
G03X3333860Y1555000I69601J-14722D01*
G03X3404180Y1483860I71145J0D01*
G02X3424260Y1463550I-238J-20317D01*
G01Y1420000D01*
G03X3470000Y1374260I45740J0D01*
G01X3530000D01*
G03X3550040Y1378880I7J45742D01*
G02X3579260Y1360620I8901J-18265D01*
G01Y1310900D01*
X3358150D01*
X2949640Y1719410D01*
G02X2964010Y1754100I14369J14369D01*
G37*
G36*
G01X3130000Y3220000D02*
X3500230D01*
G03X3542840Y3201560I42610J40010D01*
G01X3594260D01*
Y3160000D01*
G03X3598960Y3139810I45739J5D01*
G01X3600000Y3137690D01*
Y3090000D01*
X3590000Y3080000D01*
X3540000D01*
X3515650Y3055650D01*
X3512440Y3055110D01*
G03X3474260Y3010000I7559J-45110D01*
G01Y2930000D01*
X3140000D01*
X3100000Y2970000D01*
Y3190000D01*
X3130000Y3220000D01*
G37*
G36*
G01X3065740Y5370000D02*
X7169690D01*
G02X7183050Y5334370I-1J-20320D01*
G03X7065790Y5152450I256949J-294372D01*
G01X7063620Y5145210D01*
X7045900D01*
Y5210000D01*
G03X7029530Y5249530I-55913J0D01*
G01X6999530Y5279530D01*
G03X6960000Y5295900I-39530J-39543D01*
G01X6390000D01*
G03X6350470Y5279530I0J-55913D01*
G01X6286690Y5215740D01*
X6260000D01*
G03X6226280Y5200900I0J-45730D01*
G01X6133720D01*
G03X6100000Y5215740I-33720J-30890D01*
G01X6040000D01*
G03X6006280Y5200900I0J-45730D01*
G01X6004000D01*
G03X5960000Y5216140I-44000J-55897D01*
G03X5888860Y5145000I0J-71140D01*
G03X5909950Y5094440I71150J0D01*
G02Y5065560I-14292J-14440D01*
G03X5888860Y5015000I50060J-50560D01*
G03X5960000Y4943860I71140J0D01*
G03X6004000Y4959100I0J71137D01*
G01X6006280D01*
G03X6040000Y4944260I33720J30890D01*
G01X6100000D01*
G03X6133720Y4959100I0J45730D01*
G01X6226280D01*
G03X6260000Y4944260I33720J30890D01*
G01X6276690D01*
X6310470Y4910470D01*
G03X6350000Y4894100I39530J39543D01*
G01X6581560D01*
Y4783450D01*
G03X6527540Y4738890I56442J-123449D01*
G02X6494460I-16540J11805D01*
G03X6384000Y4795740I-110460J-78887D01*
G03X6293900Y4761530I-5J-135742D01*
G02X6261830Y4768500I-13490J15195D01*
G03X6220000Y4795740I-41830J-18497D01*
G01X6040000D01*
G03X5994260Y4750000I0J-45740D01*
G01Y4561140D01*
X5756860D01*
G02X5739300Y4591690I-4J20319D01*
G03X5757740Y4660000I-117305J68310D01*
G03X5688440Y4778370I-135743J0D01*
G01Y4921550D01*
X5693400Y4924500D01*
G03X5715740Y4963800I-23398J39300D01*
G01Y5010490D01*
X5759530Y5054270D01*
G03X5775900Y5093800I-39543J39530D01*
G01Y5220000D01*
G03X5759530Y5259530I-55913J0D01*
G01X5739530Y5279530D01*
G03X5700000Y5295900I-39530J-39543D01*
G01X5120000D01*
G03X5080470Y5279530I0J-55913D01*
G01X5016690Y5215740D01*
X4990000D01*
G03X4956280Y5200900I0J-45730D01*
G01X4863720D01*
G03X4830000Y5215740I-33720J-30890D01*
G01X4770000D01*
G03X4739550Y5204130I0J-45736D01*
G03X4700000Y5216140I-39554J-59129D01*
G03X4628860Y5145000I0J-71140D01*
G03X4649950Y5094440I71150J0D01*
G02Y5065560I-14292J-14440D01*
G03X4628860Y5015000I50060J-50560D01*
G03X4700000Y4943860I71140J0D01*
G03X4739550Y4955870I-4J71139D01*
G03X4770000Y4944260I30450J34126D01*
G01X4830000D01*
G03X4863720Y4959100I0J45730D01*
G01X4956280D01*
G03X4990000Y4944260I33720J30890D01*
G01X5016690D01*
X5040470Y4920470D01*
G03X5080000Y4904100I39530J39543D01*
G01X5311560D01*
Y4783450D01*
G03X5257540Y4738890I56442J-123449D01*
G02X5224460I-16540J11805D01*
G03X5114000Y4795740I-110460J-78887D01*
G03X5023900Y4761530I-5J-135742D01*
G02X4991830Y4768500I-13490J15195D01*
G03X4950000Y4795740I-41830J-18497D01*
G01X4770000D01*
G03X4724260Y4750000I0J-45740D01*
G01Y4571140D01*
X4275740D01*
Y4590000D01*
G03X4230000Y4635740I-45740J0D01*
G01X4070000D01*
G03X4024260Y4590000I0J-45740D01*
G01Y4410000D01*
G03X4034340Y4381360I45727J0D01*
G02Y4368640I-7927J-6360D01*
G03X4024260Y4340000I35647J-28640D01*
G01Y4160000D01*
G03X4070000Y4114260I45740J0D01*
G01X4230000D01*
G03X4275740Y4160000I0J45740D01*
G01Y4275130D01*
X4339470Y4338860D01*
X5010000D01*
G03X5060300Y4359700I-6J71137D01*
G01X5119470Y4418860D01*
X5485340D01*
G02X5505230Y4394380I2J-20319D01*
G03X5504260Y4385000I44771J-9370D01*
G01Y4235000D01*
G03X5508020Y4216830I45742J-8D01*
G01X5508860Y4214900D01*
Y4195900D01*
X5469520D01*
X5466670Y4201320D01*
G03X5426200Y4225740I-40470J-21324D01*
G01X5379510D01*
X5345730Y4259530D01*
G03X5306200Y4275900I-39530J-39543D01*
G01X4870000D01*
G03X4830470Y4259530I0J-55913D01*
G01X4775480Y4204540D01*
G03X4759110Y4165010I39543J-39530D01*
G01Y3868730D01*
G02X4749140Y3858570I-10161J-1D01*
G03X4740000Y3857480I819J-45733D01*
G03X4730010Y3858580I-9971J-44642D01*
G01X4649990D01*
G03X4640000Y3857480I-19J-45742D01*
G03X4630010Y3858580I-9971J-44642D01*
G01X4549990D01*
G03X4540000Y3857480I-19J-45742D01*
G03X4530010Y3858580I-9971J-44642D01*
G01X4400010D01*
G03X4390000Y3857470I5J-45739D01*
G03X4379990Y3858580I-10015J-44629D01*
G01X4323430D01*
Y3900010D01*
G03X4305740Y3941900I-58443J0D01*
G01Y3960000D01*
G03X4260000Y4005740I-45740J0D01*
G01X4237550D01*
X4237050Y4005790D01*
G03X4230000Y4006140I-7048J-70790D01*
G01X4034470D01*
X4001140Y4039470D01*
Y4190000D01*
G03X3996410Y4215490I-71137J-17D01*
G01X3995740Y4217250D01*
Y4858950D01*
X3928950Y4925740D01*
X3471050D01*
X3434260Y4888950D01*
Y4177110D01*
X3423050Y4165900D01*
X3223150D01*
X3220900Y4168150D01*
Y4216280D01*
G03X3235740Y4250000I-30890J33720D01*
G01Y4310000D01*
G03X3219970Y4344560I-45742J5D01*
G02X3218430Y4373780I13309J15352D01*
G03X3230740Y4405000I-33434J31220D01*
G01Y4465000D01*
G03X3185000Y4510740I-45740J0D01*
G01X3075000D01*
G03X3068920Y4510330I30J-45738D01*
G02X3045900Y4530470I-2699J20141D01*
G01Y4552570D01*
X3057830D01*
X3059500Y4551970D01*
G03X3075000Y4549260I15510J43028D01*
G01X3185000D01*
G03X3203170Y4553020I8J45742D01*
G01X3205100Y4553860D01*
X3239200D01*
G03X3264690Y4558590I-17J71137D01*
G01X3266450Y4559260D01*
X3340000D01*
G03X3385740Y4605000I0J45740D01*
G01Y4875000D01*
G03X3340000Y4920740I-45740J0D01*
G01X3240000D01*
G03X3194260Y4875000I0J-45740D01*
G01Y4744870D01*
X3150130Y4700740D01*
X3075000D01*
G03X3048040Y4691950I0J-45740D01*
G02X3015740Y4708360I-11980J16412D01*
G01Y4771330D01*
X3045300Y4800900D01*
G03X3066140Y4851200I-50297J50306D01*
G01Y4960000D01*
G03X3061410Y4985490I-71137J-17D01*
G01X3060740Y4987250D01*
Y5005000D01*
G03X3015000Y5050740I-45740J0D01*
G01X2925740D01*
Y5084260D01*
X3065740D01*
Y5370000D01*
G37*
G36*
G01X3727700Y3134100D02*
X3804260D01*
Y3117550D01*
X3804210Y3117050D01*
G03X3803860Y3110000I70790J-7048D01*
G03X3804210Y3102950I71140J-2D01*
G01X3804260Y3102450D01*
Y3065740D01*
X3645740D01*
Y3114260D01*
X3690000D01*
G03X3727700Y3134100I0J45739D01*
G37*
G36*
G01X3746260Y3316370D02*
G03X3760000Y3314260I13732J43631D01*
G01X3784060D01*
G02X3804340Y3292730I-3J-20319D01*
G03X3804260Y3290000I45661J-2704D01*
G01Y3267380D01*
X3782780Y3245900D01*
X3727700D01*
G03X3718090Y3256090I-37687J-25915D01*
G02X3713480Y3283110I12486J16033D01*
G03X3720120Y3300330I-38480J24728D01*
G02X3746260Y3316370I20042J-3342D01*
G37*
G36*
G01X3480000Y4870000D02*
X3490000Y4880000D01*
X3910000D01*
X3950000Y4840000D01*
Y4140000D01*
X3480000D01*
Y4870000D01*
G37*
G36*
G01X4630010Y3647100D02*
G03X4640000Y3648200I19J45742D01*
G03X4649990Y3647100I9971J44642D01*
G01X4713850D01*
X4750470Y3610470D01*
G03X4790000Y3594100I39530J39543D01*
G01X4858710D01*
X4859370Y3584650D01*
G03X4869340Y3559210I45627J3208D01*
G02Y3546490I-7927J-6360D01*
G03X4859260Y3517850I35647J-28640D01*
G01Y3487850D01*
G03X4860370Y3477840I45739J5D01*
G03X4859260Y3467830I44629J-10015D01*
G01Y3437830D01*
G03X4860360Y3427840I45742J-19D01*
G03X4859260Y3417850I44642J-9971D01*
G01Y3387850D01*
G03X4860370Y3377840I45739J5D01*
G03X4859260Y3367830I44629J-10015D01*
G01Y3337830D01*
G03X4860360Y3327840I45742J-19D01*
G03X4859260Y3317850I44642J-9971D01*
G01Y3287850D01*
G03X4860370Y3277840I45739J5D01*
G03X4859260Y3267830I44629J-10015D01*
G01Y3237830D01*
G03X4860360Y3227840I45742J-19D01*
G03X4859260Y3217850I44642J-9971D01*
G01Y3187850D01*
G03X4860370Y3177840I45739J5D01*
G03X4859260Y3167830I44629J-10015D01*
G01Y3137830D01*
G03X4860360Y3127840I45742J-19D01*
G03X4859260Y3117850I44642J-9971D01*
G01Y3087850D01*
G03X4860370Y3077840I45739J5D01*
G03X4859760Y3074560I44633J-9997D01*
G01X4858470Y3065900D01*
X4790420D01*
G02X4770330Y3089280I-3J20319D01*
G03X4771140Y3100000I-70331J10705D01*
G03X4710380Y3170380I-71142J0D01*
G03X4640000Y3231140I-70380J-10382D01*
G03X4596000Y3215900I0J-71137D01*
G01X4290000D01*
G03X4239990Y3184970I0J-55895D01*
G01X4237180Y3179350D01*
X4220740D01*
Y3217850D01*
G03X4210660Y3246490I-45727J0D01*
G02Y3259210I7927J6360D01*
G03X4220740Y3287850I-35647J28640D01*
G01Y3317850D01*
G03X4219640Y3327840I-45742J19D01*
G03X4220740Y3337830I-44642J9971D01*
G01Y3367830D01*
G03X4219630Y3377840I-45739J-5D01*
G03X4220740Y3387850I-44629J10015D01*
G01Y3417850D01*
G03X4219640Y3427840I-45742J19D01*
G03X4220740Y3437830I-44642J9971D01*
G01Y3467830D01*
G03X4219630Y3477840I-45739J-5D01*
G03X4220740Y3487850I-44629J10015D01*
G01Y3517850D01*
G03X4219640Y3527840I-45742J19D01*
G03X4220690Y3535750I-44645J9951D01*
G02X4234720Y3544680I10150J-461D01*
G03X4255140Y3540630I20420J49454D01*
G01X4519380D01*
G03X4557220Y3556300I0J53523D01*
G01X4595770Y3594850D01*
G03X4611440Y3632690I-37853J37840D01*
G01Y3647100D01*
X4630010D01*
G37*
G36*
G01X4599370Y1683700D02*
X4630710Y1715030D01*
X4642350Y1703390D01*
X4640330Y1697420D01*
G03X4629260Y1630000I199673J-67404D01*
G03X4840000Y1419260I210740J0D01*
G03X5029940Y1538710I0J210739D01*
G01X5032710Y1544470D01*
X5049260D01*
Y1515000D01*
G03X5095000Y1469260I45740J0D01*
G01X5204350D01*
G02X5223560Y1442310I0J-20321D01*
G03X5222360Y1438340I50580J-17455D01*
G01X5220380Y1430740D01*
X5095000D01*
G03X5049260Y1385000I0J-45740D01*
G01Y1255000D01*
G03X5095000Y1209260I45740J0D01*
G01X5220630D01*
Y836300D01*
X5207840Y823510D01*
X4944320D01*
G02X4935140Y861960I-3J20320D01*
G03X5050740Y1050000I-95137J188040D01*
G03X4629260I-210740J0D01*
G03X4744860Y861960I210737J0D01*
G02X4735680Y823510I-9177J-18130D01*
G01X4512160D01*
X4482840Y852840D01*
G03X4445770Y868500I-37830J-37844D01*
G03X4437140Y876820I-35786J-28484D01*
G02Y893180I6023J8180D01*
G03X4449900Y907640I-27145J36814D01*
G03X4462840Y917160I-24881J47374D01*
G01X4492160Y946490D01*
X4509320D01*
G03X4547160Y962160I0J53523D01*
G01X4583700Y998700D01*
G03X4599370Y1036540I-37853J37840D01*
G01Y1683700D01*
G37*
G36*
G01X5018950Y1796490D02*
X5417120D01*
X5438560Y1775050D01*
Y1710800D01*
G02X5416960Y1690520I-20320J0D01*
G03X5410000Y1690740I-6977J-110519D01*
G03X5299260Y1580000I0J-110740D01*
G03X5309650Y1533160I110742J-8D01*
G02X5270740Y1541350I-18592J8197D01*
G01Y1645000D01*
G03X5225000Y1690740I-45740J0D01*
G01X5095000D01*
G03X5070690Y1683750I-7J-45742D01*
G02X5040560Y1694720I-10796J17212D01*
G03X5003210Y1763320I-200555J-64727D01*
G02X5018950Y1796490I15740J12851D01*
G37*
G36*
G01X4876540Y2844400D02*
X5113860D01*
Y2815000D01*
G03X5120570Y2784840I71136J0D01*
G02X5102170Y2755900I-18401J-8620D01*
G01X4793150D01*
X4770910Y2778140D01*
Y2797100D01*
X4830010D01*
G03X4875210Y2835800I0J45746D01*
G01X4876540Y2844400D01*
G37*
G36*
G01X5253970Y2954100D02*
X5270920D01*
X5364260Y2860760D01*
Y2840000D01*
G03X5410000Y2794260I45740J0D01*
G01X5470000D01*
G03X5503720Y2809100I0J45730D01*
G01X5551850D01*
X5585520Y2775430D01*
G02X5571150Y2740740I-14369J-14369D01*
G01X5550000D01*
G03X5504260Y2695000I0J-45740D01*
G01Y2675900D01*
X5469520D01*
X5466670Y2681320D01*
G03X5426200Y2705740I-40470J-21324D01*
G01X5379510D01*
X5345730Y2739530D01*
G03X5306200Y2755900I-39530J-39543D01*
G01X5267830D01*
G02X5249430Y2784840I1J20320D01*
G03X5256140Y2815000I-64426J30160D01*
G01Y2900000D01*
G03X5255790Y2907050I-71140J2D01*
G01X5255740Y2907550D01*
Y2930000D01*
G03X5254290Y2941410I-45738J-15D01*
G01X5253970Y2942650D01*
Y2954100D01*
G37*
G36*
G01X5070920Y3246950D02*
X5277420D01*
G02X5292440Y3212940I4J-20320D01*
G03X5273860Y3165000I52557J-47940D01*
G03X5345000Y3093860I71140J0D01*
G01X5504040D01*
X5504270Y3083940D01*
G03X5550000Y3039260I45730J1062D01*
G01X5635860D01*
Y2929540D01*
G02X5604730Y2912340I-20319J5D01*
G03X5575000Y2920900I-29730J-47348D01*
G01X5503720D01*
G03X5470000Y2935740I-33720J-30890D01*
G01X5447380D01*
X5333600Y3049530D01*
G03X5294070Y3065900I-39530J-39543D01*
G01X5071530D01*
X5070240Y3074560D01*
G03X5069630Y3077840I-45243J-6717D01*
G03X5070740Y3087850I-44629J10015D01*
G01Y3117850D01*
G03X5069640Y3127840I-45742J19D01*
G03X5070740Y3137830I-44642J9971D01*
G01Y3167830D01*
G03X5069630Y3177840I-45739J-5D01*
G03X5070740Y3187850I-44629J10015D01*
G01Y3217850D01*
G03X5069640Y3227840I-45742J19D01*
G03X5070730Y3236980I-44643J9959D01*
G01X5070920Y3246950D01*
G37*
G36*
G01X5469520Y3944100D02*
X5556850D01*
X5575520Y3925430D01*
G02X5561150Y3890740I-14369J-14369D01*
G01X5550000D01*
G03X5504270Y3846060I0J-45742D01*
G01X5504040Y3836140D01*
X5190000D01*
G03X5139700Y3815300I6J-71137D01*
G01X5134700Y3810300D01*
G03X5113860Y3760000I50297J-50306D01*
G01Y3661290D01*
X5039400D01*
X5037990Y3661710D01*
G03X5025000Y3663590I-12979J-43862D01*
G01X4925900D01*
Y3846850D01*
X4943150Y3864100D01*
X5306200D01*
G03X5345730Y3880470I0J55913D01*
G01X5379510Y3914260D01*
X5426200D01*
G03X5466670Y3938680I0J45744D01*
G01X5469520Y3944100D01*
G37*
G36*
G01X5904470Y3878860D02*
X5920530D01*
X5960500Y3838890D01*
Y3570880D01*
G03X5981340Y3520580I71137J6D01*
G01X6044180Y3457730D01*
X6044620Y3454280D01*
G03X6048860Y3440000I45384J5706D01*
G03X6046780Y3434970I41155J-19963D01*
G02X6012570Y3427930I-19199J6656D01*
G03X5960000Y3451140I-52570J-47930D01*
G03X5918530Y3437800I0J-71129D01*
G01X5915880Y3435900D01*
X5900000D01*
G03X5860470Y3419530I0J-55913D01*
G01X5849680Y3408730D01*
X5070920D01*
X5070730Y3418700D01*
G03X5069640Y3427840I-45733J-819D01*
G03X5070740Y3437830I-44642J9971D01*
G01Y3467830D01*
G03X5069630Y3477840I-45739J-5D01*
G03X5070740Y3487850I-44629J10015D01*
G01Y3544410D01*
X5147850D01*
G03X5191740Y3564260I0J58447D01*
G01X5210000D01*
G03X5255740Y3610000I0J45740D01*
G01Y3632450D01*
X5255790Y3632950D01*
G03X5256140Y3640000I-70790J7048D01*
G01Y3693860D01*
X5503530D01*
X5505200Y3685750D01*
G03X5550000Y3649260I44800J9256D01*
G01X5864000D01*
G03X5909740Y3695000I0J45740D01*
G01Y3845000D01*
G03X5905430Y3864390I-45741J7D01*
G01X5904470Y3866440D01*
Y3878860D01*
G37*
G36*
G01X6027130Y3356460D02*
G02X6046400Y3356170I9587J-3366D01*
G03X6048020Y3351830I43608J13805D01*
G01X6048860Y3349900D01*
Y3320000D01*
G03X6085520Y3257770I71147J0D01*
G02Y3222230I-9847J-17770D01*
G03X6048860Y3160000I34487J-62230D01*
G01Y3080100D01*
X6048020Y3078170D01*
G03X6044260Y3060000I41982J-18162D01*
G01Y3016140D01*
X5924470D01*
X5905140Y3035470D01*
Y3064900D01*
X5905980Y3066830D01*
G03X5909740Y3085000I-41982J18162D01*
G01Y3231140D01*
X5918660Y3232240D01*
G03X5981140Y3302850I-8659J70610D01*
G03X5980560Y3311900I-71139J-16D01*
G03X6027130Y3356460I-20559J68102D01*
G37*
G36*
G01X6500100Y3368860D02*
X6733170D01*
X6736900Y3365130D01*
Y3245000D01*
G03X6746980Y3216360I45727J0D01*
G02Y3203640I-7927J-6360D01*
G03X6736900Y3175000I35647J-28640D01*
G01Y3065740D01*
X6620000D01*
G03X6601830Y3061980I-8J-45742D01*
G01X6599900Y3061140D01*
X6371740D01*
X6368750Y3065900D01*
G03X6330000Y3087340I-38750J-24298D01*
G01X6191140D01*
Y3160000D01*
G03X6154480Y3222230I-71147J0D01*
G02Y3257770I9847J17770D01*
G03X6191140Y3320000I-34487J62230D01*
G01Y3343340D01*
X6202100D01*
X6202880Y3343220D01*
G03X6210000Y3342660I7135J45179D01*
G01X6330000D01*
G03X6368850Y3364260I0J45738D01*
G01X6480000D01*
G03X6498170Y3368020I8J45742D01*
G01X6500100Y3368860D01*
G37*
G36*
G01X6102780Y3666140D02*
Y3798860D01*
X6230530D01*
X6238860Y3790530D01*
Y3737340D01*
X6210000D01*
G03X6164260Y3691600I0J-45740D01*
G01Y3666140D01*
X6102780D01*
G37*
G36*
G01X6105800Y4043860D02*
X6164260D01*
Y4018400D01*
G03X6210000Y3972660I45740J0D01*
G01X6330000D01*
G03X6368850Y3994260I0J45738D01*
G01X6480000D01*
G03X6498170Y3998020I8J45742D01*
G01X6500100Y3998860D01*
X6736900D01*
Y3885000D01*
G03X6746980Y3856360I45727J0D01*
G02Y3843640I-7927J-6360D01*
G03X6736900Y3815000I35647J-28640D01*
G01Y3711140D01*
X6500100D01*
X6498170Y3711980D01*
G03X6480000Y3715740I-18162J-41982D01*
G01X6381140D01*
Y3820000D01*
G03X6360300Y3870300I-71137J-6D01*
G01X6310300Y3920300D01*
G03X6260000Y3941140I-50306J-50297D01*
G01X6159470D01*
X6091440Y4009170D01*
G02X6105800Y4043860I14364J14371D01*
G37*
G36*
G01X6369690Y2918860D02*
X6599900D01*
X6601830Y2918020D01*
G03X6620000Y2914260I18162J41982D01*
G01X6737650D01*
X6740220Y2907900D01*
G03X6746980Y2896360I42421J17100D01*
G02Y2883640I-7927J-6360D01*
G03X6740220Y2872100I35661J-28640D01*
G01X6737650Y2865740D01*
X6620000D01*
G03X6601830Y2861980I-8J-45742D01*
G01X6599900Y2861140D01*
X6369690D01*
G03X6358560Y2874130I-39688J-22742D01*
G02Y2905870I12687J15870D01*
G03X6369690Y2918860I-28558J35732D01*
G37*
G36*
G01X6500100Y3568860D02*
X6736170D01*
X6737190Y3559850D01*
G03X6746980Y3536360I45448J5156D01*
G02Y3523640I-7927J-6360D01*
G03X6742280Y3516520I35656J-28648D01*
G01X6739410Y3511140D01*
X6500100D01*
X6498170Y3511980D01*
G03X6480000Y3515740I-18162J-41982D01*
G01X6366670D01*
G03X6358560Y3524130I-36674J-27335D01*
G02Y3555870I12687J15870D01*
G03X6366670Y3564260I-28564J35725D01*
G01X6480000D01*
G03X6498170Y3568020I8J45742D01*
G01X6500100Y3568860D01*
G37*
G36*
G01Y4198860D02*
X6736690D01*
X6738890Y4191660D01*
G03X6746980Y4176360I43749J13344D01*
G02Y4163640I-7927J-6360D01*
G03X6738890Y4148340I35659J-28644D01*
G01X6736690Y4141140D01*
X6500100D01*
X6498170Y4141980D01*
G03X6480000Y4145740I-18162J-41982D01*
G01X6366670D01*
G03X6358560Y4154130I-36674J-27335D01*
G02Y4185870I12687J15870D01*
G03X6366670Y4194260I-28564J35725D01*
G01X6480000D01*
G03X6498170Y4198020I8J45742D01*
G01X6500100Y4198860D01*
G37*
%LPC*%
G75*
G36*
G01X990000Y3351740D02*
X1190000D01*
G02Y3060260I0J-145740D01*
G01X990000D01*
G02Y3351740I0J145740D01*
G37*
G36*
G01X228000Y3101740D02*
X288000D01*
G02Y2910260I0J-95740D01*
G01X228000D01*
G02Y3101740I0J95740D01*
G37*
G36*
G01Y2237740D02*
X288000D01*
G02Y2046260I0J-95740D01*
G01X228000D01*
G02Y2237740I0J95740D01*
G37*
G36*
G01X2030000Y2821140D02*
X2044040D01*
X2044270Y2831060D01*
G02X2090000Y2875740I45730J-1062D01*
G01X2270000D01*
G02X2315730Y2831060I0J-45742D01*
G01X2315960Y2821140D01*
X2330000D01*
G02Y2678860I0J-71140D01*
G01X2315960D01*
X2315730Y2668940D01*
G02X2270000Y2624260I-45730J1062D01*
G01X2251140D01*
Y2610000D01*
G02X2108860I-71140J0D01*
G01Y2624260D01*
X2090000D01*
G02X2044270Y2668940I0J45742D01*
G01X2044040Y2678860D01*
X2030000D01*
G02Y2821140I0J71140D01*
G37*
G36*
G01X230460Y4350000D02*
Y4430000D01*
G02X276200Y4475740I45740J0D01*
G01X356200D01*
G02X390970Y4459710I-6J-45737D01*
G03X404390Y4457900I7723J6604D01*
G02X430000Y4465740I25610J-37909D01*
G01X570000D01*
G02X588170Y4461980I8J-45742D01*
G01X590100Y4461140D01*
X630000D01*
G02Y4318860I0J-71140D01*
G01X590100D01*
X588170Y4318020D01*
G02X570000Y4314260I-18162J41982D01*
G01X430000D01*
G02X404390Y4322100I0J45749D01*
G03X390970Y4320290I-5697J-8414D01*
G02X356200Y4304260I-34776J29707D01*
G01X276200D01*
G02X230460Y4350000I0J45740D01*
G37*
G36*
G01X1545310Y4400000D02*
X1514260Y4431050D01*
Y4705740D01*
X1865740D01*
Y4431050D01*
X1834690Y4400000D01*
X1865740Y4368950D01*
Y4094260D01*
X1514260D01*
Y4368950D01*
X1545310Y4400000D01*
G37*
G36*
G01X7176390Y4500790D02*
G02X7183440Y4501140I7048J-70790D01*
G01X7488560D01*
G02X7610000Y4570740I121440J-71146D01*
G02X7750740Y4430000I0J-140740D01*
G02X7696560Y4319020I-140753J0D01*
G03Y4286980I12492J-16020D01*
G02Y4065020I-86573J-110980D01*
G03Y4032980I12492J-16020D01*
G02Y3811020I-86573J-110980D01*
G03Y3778980I12492J-16020D01*
G02Y3557020I-86573J-110980D01*
G03Y3524980I12492J-16020D01*
G02X7750740Y3414000I-86573J-110980D01*
G02X7716060Y3321490I-140727J0D01*
G03X7721730Y3290250I15316J-13355D01*
G02X7745740Y3250000I-21732J-40250D01*
G01Y3070000D01*
G02X7700000Y3024260I-45740J0D01*
G01X7520000D01*
G02X7490920Y3034690I0J45754D01*
G01X7483800Y3040560D01*
X7228380Y2785130D01*
Y2605000D01*
G02X7182640Y2559260I-45740J0D01*
G01X7082640D01*
G02X7036900Y2605000I0J45740D01*
G01Y2855000D01*
G02X7046980Y2883640I45727J0D01*
G03Y2896360I-7927J6360D01*
G02X7036900Y2925000I35647J28640D01*
G01Y3175000D01*
G02X7046980Y3203640I45727J0D01*
G03Y3216360I-7927J6360D01*
G02X7036900Y3245000I35647J28640D01*
G01Y3495000D01*
G02X7046980Y3523640I45727J0D01*
G03Y3536360I-7927J6360D01*
G02X7036900Y3565000I35647J28640D01*
G01Y3815000D01*
G02X7046980Y3843640I45727J0D01*
G03Y3856360I-7927J6360D01*
G02X7036900Y3885000I35647J28640D01*
G01Y4135000D01*
G02X7046980Y4163640I45727J0D01*
G03Y4176360I-7927J6360D01*
G02X7036900Y4205000I35647J28640D01*
G01Y4455000D01*
G02X7082640Y4500740I45740J0D01*
G01X7175890D01*
X7176390Y4500790D01*
G37*
G54D65*
X4270000Y1375000D03*
X5860000Y1320000D03*
G54D64*
X1029000Y738000D03*
Y1942000D03*
G54D63*
X770000Y3676000D03*
%LPD*%
G75*
G36*
G01X1560000Y4140000D02*
Y4350000D01*
X1580000Y4370000D01*
X1800000D01*
X1820000Y4350000D01*
Y4140000D01*
X1560000D01*
G37*
G36*
G01Y4660000D02*
X1820000D01*
Y4622710D01*
X1819860Y4621870D01*
G03X1818860Y4610000I70139J-11886D01*
G03X1819860Y4598130I71139J16D01*
G01X1820000Y4597290D01*
Y4450000D01*
X1800000Y4430000D01*
X1580000D01*
X1560000Y4450000D01*
Y4660000D01*
G37*
G54D10*
X360000Y360000D03*
Y5040000D03*
X1060000D03*
X7440000D03*
X8140000Y360000D03*
Y5040000D03*
G54D20*
X1040000Y2520000D03*
X1260000D03*
X4160000Y210000D03*
Y750000D03*
Y480000D03*
Y1020000D03*
X4380000Y210000D03*
Y750000D03*
Y480000D03*
Y1020000D03*
X4800000Y5080000D03*
X5020000D03*
X6070000D03*
X6290000D03*
G54D11*
X258000Y2142000D03*
Y3006000D03*
G54D21*
X1040000Y2455000D03*
Y2585000D03*
X1260000D03*
Y2455000D03*
X2150000Y2375000D03*
X2030000D03*
X2150000Y2465000D03*
X2030000D03*
X2010000Y4195000D03*
Y4285000D03*
Y4605000D03*
Y4515000D03*
X2330000Y1115000D03*
Y1205000D03*
X2450000Y1115000D03*
Y1205000D03*
X2360000Y2375000D03*
Y2465000D03*
X2850000Y2375000D03*
Y2465000D03*
X3500000Y1355000D03*
Y1445000D03*
Y1645000D03*
Y1555000D03*
Y2375000D03*
Y2285000D03*
Y2175000D03*
Y2085000D03*
X4160000Y145000D03*
Y275000D03*
Y685000D03*
Y815000D03*
Y415000D03*
Y545000D03*
Y955000D03*
Y1085000D03*
X4230000Y3935000D03*
Y4025000D03*
X4380000Y275000D03*
Y145000D03*
Y815000D03*
Y685000D03*
Y545000D03*
Y415000D03*
Y1085000D03*
Y955000D03*
X5240000Y5125000D03*
Y5035000D03*
X4800000Y5015000D03*
Y5145000D03*
X5020000D03*
Y5015000D03*
X5440000Y2865000D03*
Y3075000D03*
Y3165000D03*
Y2955000D03*
Y3855000D03*
Y3765000D03*
X5500000Y5125000D03*
Y5035000D03*
X6120000Y2745000D03*
Y2835000D03*
Y3395000D03*
Y2945000D03*
Y3035000D03*
Y3685000D03*
Y3595000D03*
Y3485000D03*
Y4225000D03*
Y4315000D03*
Y4025000D03*
Y4115000D03*
X6070000Y5015000D03*
Y5145000D03*
X6290000D03*
Y5015000D03*
X6800000Y555000D03*
Y465000D03*
X6770000Y5125000D03*
Y5035000D03*
X6510000Y5125000D03*
Y5035000D03*
X6930000Y555000D03*
Y465000D03*
G54D12*
X163800Y4390000D03*
X316200D03*
X2180000Y1123800D03*
Y1276200D03*
X2006200Y1800000D03*
X1853800D03*
X1900000Y2303800D03*
Y2456200D03*
X2873800Y400000D03*
X3026200D03*
X2990000Y2293800D03*
Y2446200D03*
X2923800Y4780000D03*
X3076200D03*
X3673800Y2700000D03*
Y2840000D03*
Y2980000D03*
X3526200Y4190000D03*
X3373800D03*
X3526200Y4340000D03*
X3373800D03*
X3526200Y4490000D03*
X3373800D03*
X3826200Y2700000D03*
Y2840000D03*
Y2980000D03*
X5233800Y2480000D03*
Y2620000D03*
Y4000000D03*
Y4140000D03*
X5386200Y2480000D03*
Y2620000D03*
Y4000000D03*
Y4140000D03*
X5630000Y5156200D03*
Y5003800D03*
X5370000Y5156200D03*
Y5003800D03*
X6640000Y5156200D03*
Y5003800D03*
X6900000Y5156200D03*
Y5003800D03*
G54D30*
X2256000Y1740000D03*
Y1790000D03*
Y1840000D03*
Y1890000D03*
Y1940000D03*
Y1990000D03*
Y2040000D03*
X2756000Y1890000D03*
Y1840000D03*
Y1790000D03*
Y1740000D03*
Y2040000D03*
Y1990000D03*
Y1940000D03*
G54D31*
X1853800Y1950000D03*
X2006200D03*
G54D40*
X2660000Y4960000D03*
X2725000D03*
X2595000D03*
X2660000Y5180000D03*
X2595000D03*
X2725000D03*
X2930000Y4960000D03*
X2995000D03*
X2865000D03*
X2930000Y5180000D03*
X2865000D03*
X2995000D03*
G54D22*
X1090000Y3206000D03*
G54D13*
G01X600000Y2420000D02*
X520000Y2340000D01*
Y1150000D01*
X580000Y1090000D01*
X1375000D01*
X1500000Y1215000D01*
G01X780000Y2334000D02*
X686000D01*
X600000Y2420000D01*
G01D02*
Y2720000D01*
X694000Y2814000D01*
X780000D01*
G01X545000Y4390000D02*
X630000D01*
G01X1565000Y2890000D02*
X1010000D01*
X934000Y2814000D01*
X780000D01*
G01X2180000Y3030000D02*
X1705000D01*
X1565000Y2890000D01*
G01X1955000Y540000D02*
X1870000D01*
G01X2045000D02*
Y517520D01*
X1967480Y440000D01*
X1840000D01*
X1780000Y500000D01*
Y1130000D01*
G01X2130000Y570000D02*
X2075000D01*
X2045000Y540000D01*
G01X1955000Y930000D02*
X1870000D01*
G01X2330000Y1115000D02*
X2188800D01*
X2180000Y1123800D01*
G01D02*
X2000000D01*
G01X2045000Y930000D02*
Y1078800D01*
X2000000Y1123800D01*
G01D02*
X1786200D01*
X1780000Y1130000D01*
G01X2015000Y1670000D02*
X2120000D01*
G01X1853800Y1950000D02*
Y2050000D01*
G01X2180000Y2750000D02*
Y2610000D01*
G01Y2750000D02*
X2030000D01*
G01X2180000D02*
X2330000D01*
G01X2200000Y4340000D02*
X2260000D01*
G01X2140000D02*
X2200000D01*
G01X2160000Y4200000D02*
X2155000Y4195000D01*
G01X2145000D02*
X2180000Y4160000D01*
G01X2010000Y4195000D02*
X2145000D01*
G01X2155000D02*
X2145000D01*
G01X2200000Y4460000D02*
X2260000D01*
G01X2140000D02*
X2200000D01*
G01X2170000Y4610000D02*
X2165000Y4605000D01*
G01D02*
X2010000D01*
G01X2750000Y570000D02*
X2855000D01*
G01X2330000Y1115000D02*
X2334190D01*
X2399590Y1049600D01*
G01X2360000Y2375000D02*
X2445000D01*
G01X2725000Y4960000D02*
Y4825000D01*
X2770000Y4780000D01*
G01X2990000Y2293800D02*
X3140000D01*
G01X2850000Y2375000D02*
Y2353800D01*
X2910000Y2293800D01*
X2990000D01*
G01X2850000Y2375000D02*
X2760000D01*
G01X3140000Y2446200D02*
X3160000Y2466200D01*
X3240000D01*
G01D02*
X3408800D01*
X3500000Y2375000D01*
G01X2995000Y4960000D02*
Y4851200D01*
X2923800Y4780000D01*
G01X2770000D02*
X2923800D01*
G01X3175000Y4625000D02*
X3239200D01*
X3290000Y4675800D01*
Y4740000D01*
G01X3175000Y4625000D02*
X3290000Y4740000D01*
G01X3130000Y4625000D02*
X3175000D01*
G01X3500000Y1645000D02*
Y1730000D01*
G01X3455000Y2840000D02*
Y2980000D01*
G01Y2700000D02*
Y2840000D01*
G01X3845000Y1370000D02*
X3940000D01*
G01X3845000D02*
Y1255000D01*
G01Y2100000D02*
X3940000D01*
G01X3845000D02*
Y1965000D01*
G01X3875000Y3110000D02*
X3957650D01*
G01X3930000Y4190000D02*
Y4010000D01*
X4005000Y3935000D01*
X4230000D01*
G01X3870000Y4250000D02*
X3930000Y4190000D01*
G01X4150000Y4250000D02*
X4310000Y4410000D01*
X5010000D01*
X5090000Y4490000D01*
X6214000D01*
X6384000Y4660000D01*
G01X4150000Y4500000D02*
X4954000D01*
X5114000Y4660000D01*
G01X5185000Y2900000D02*
Y2815000D01*
G01X5015000Y2480000D02*
X5010000D01*
X4940000Y2550000D01*
G01X5015000Y2620000D02*
X5010000D01*
X4940000Y2550000D01*
G01X5440000Y3765000D02*
X5190000D01*
X5185000Y3760000D01*
G01D02*
Y3640000D01*
G01X5015000Y4000000D02*
X5010000D01*
X4940000Y4070000D01*
G01X5015000Y4140000D02*
X5010000D01*
X4940000Y4070000D01*
G01X5240000Y5035000D02*
X5155000D01*
G01X6120000Y2835000D02*
X5795000D01*
X5707000Y2923000D01*
Y3160000D01*
G01X5440000Y3165000D02*
X5575000D01*
X5580000Y3160000D01*
G01X5440000Y3165000D02*
X5345000D01*
G01X5440000Y3765000D02*
X5575000D01*
X5580000Y3770000D01*
G01X6270000Y3641600D02*
X6310000Y3681600D01*
Y3820000D01*
X6260000Y3870000D01*
X6130000D01*
X5970000Y4030000D01*
X5850000D01*
X5707000Y4173000D01*
Y4310000D01*
G01X6120000Y3485000D02*
X6117520D01*
X6031640Y3570880D01*
Y3868360D01*
X5950000Y3950000D01*
X5800000D01*
X5580000Y4170000D01*
Y4310000D01*
G01X5500000Y5035000D02*
Y4950000D01*
G01X6120000Y2835000D02*
X6223400D01*
X6270000Y2788400D01*
G01X6670000Y2790000D02*
X6271600D01*
X6270000Y2788400D01*
G01X6120000Y3395000D02*
Y3320000D01*
G01Y3035000D02*
Y3160000D01*
G01Y2945000D02*
X6223400D01*
X6270000Y2991600D01*
G01X6670000Y2990000D02*
X6271600D01*
X6270000Y2991600D01*
G01X6120000Y2945000D02*
X5895000D01*
X5834000Y3006000D01*
Y3160000D01*
G01X6120000Y3595000D02*
X6223400D01*
X6270000Y3641600D01*
G01X6430000Y3640000D02*
X6271600D01*
X6270000Y3641600D01*
G01X6120000Y3485000D02*
X6223400D01*
X6270000Y3438400D01*
G01X6430000Y3440000D02*
X6271600D01*
X6270000Y3438400D01*
G01X6120000Y4315000D02*
Y4400000D01*
G01X6430000Y4070000D02*
X6271600D01*
X6270000Y4068400D01*
G01X6120000Y4115000D02*
X6223400D01*
X6270000Y4068400D01*
G01X5834000Y4310000D02*
Y4186000D01*
X5905000Y4115000D01*
X6120000D01*
G01X6430000Y4270000D02*
X6271600D01*
X6270000Y4271600D01*
G01X6120000Y4225000D02*
X6223400D01*
X6270000Y4271600D01*
G01X6120000Y4225000D02*
X6011800D01*
X5961000Y4275800D01*
Y4310000D01*
G01X6800000Y555000D02*
Y880000D01*
X6970000Y1050000D01*
Y1420000D01*
X6904000Y1486000D01*
X6521000D01*
G01X6930000Y555000D02*
Y880000D01*
X7060000Y1010000D01*
Y1530000D01*
X6977000Y1613000D01*
X6775000D01*
G01X6670000Y2790000D02*
X6772640D01*
X6832640Y2730000D01*
G01X6670000Y2990000D02*
X6772640D01*
X6832640Y3050000D01*
G01X6430000Y3440000D02*
X6762640D01*
X6832640Y3370000D01*
G01X6430000Y3640000D02*
X6782640D01*
X6832640Y3690000D01*
G01X6430000Y4070000D02*
X6772640D01*
X6832640Y4010000D01*
G01X6430000Y4270000D02*
X6772640D01*
X6832640Y4330000D01*
G01X6770000Y5035000D02*
Y4950000D01*
G01X6510000Y5035000D02*
X6425000D01*
G01X7610000Y3160000D02*
X7502640D01*
X7132640Y2790000D01*
Y2730000D01*
G01X7610000Y3414000D02*
X7436640D01*
X7132640Y3110000D01*
Y3050000D01*
G01X7610000Y3668000D02*
X7370640D01*
X7132640Y3430000D01*
Y3370000D01*
G01X7610000Y3922000D02*
X7304640D01*
X7132640Y3750000D01*
Y3690000D01*
G01X7610000Y4176000D02*
X7238640D01*
X7132640Y4070000D01*
Y4010000D01*
G01X7610000Y4430000D02*
X7183440D01*
X7132640Y4379200D01*
Y4330000D01*
X250000Y890000D03*
Y1200000D03*
Y1530000D03*
Y1840000D03*
X260000Y2730000D03*
Y2420000D03*
X250000Y3270000D03*
Y3910000D03*
Y3580000D03*
Y4220000D03*
X630000Y4390000D03*
X980000Y260000D03*
X910000Y1300000D03*
Y1610000D03*
X950000Y2300000D03*
X1150000Y2520000D03*
X1140000Y4000000D03*
X1290000Y260000D03*
X1620000D03*
X1660000Y1210000D03*
X1510000Y1630000D03*
X1300000D03*
X1720000Y1530000D03*
X1510000Y1940000D03*
Y2230000D03*
X1300000Y1940000D03*
Y2230000D03*
X1510000Y2540000D03*
X1300000Y2690000D03*
X1450000Y4000000D03*
X1720000Y4340000D03*
X1660000D03*
X1600000D03*
X1720000Y4460000D03*
X1660000D03*
X1600000D03*
X2200000Y60000D03*
Y330000D03*
X1930000Y260000D03*
X1870000Y540000D03*
Y800000D03*
Y670000D03*
X2130000Y570000D03*
X1870000Y930000D03*
X2010000Y1380000D03*
X1850000Y1276200D03*
X2010000Y1570000D03*
X2120000Y1670000D03*
Y1860000D03*
X1853800Y2050000D03*
X2120000Y1970000D03*
X2030000Y2750000D03*
X2180000Y2610000D03*
X2120000Y3210000D03*
X1810000D03*
X1900000Y3920000D03*
Y3790000D03*
Y3680000D03*
Y3570000D03*
Y4210000D03*
Y4060000D03*
X1780000Y4340000D03*
X2200000D03*
X2140000D03*
X1890000Y4830000D03*
Y4720000D03*
Y4610000D03*
X1780000Y4460000D03*
X2200000D03*
X2140000D03*
X1890000Y5250000D03*
Y5100000D03*
Y4960000D03*
X2720000Y340000D03*
Y170000D03*
X2580000Y60000D03*
X2440000D03*
X2450000Y760000D03*
X2350000Y860000D03*
X2450000D03*
X2550000D03*
Y760000D03*
X2350000D03*
Y660000D03*
X2450000D03*
X2550000D03*
X2750000Y570000D03*
X2260000Y1370000D03*
X2700000Y1280000D03*
X2710000Y1110000D03*
X2601680Y1280000D03*
X2498330D03*
X2440000Y1440000D03*
X2610000Y1790000D03*
X2510000D03*
X2410000D03*
Y1890000D03*
X2610000D03*
X2510000D03*
X2260000Y1570000D03*
X2610000Y1990000D03*
X2510000D03*
X2410000D03*
X2445000Y2375000D03*
X2440000Y2910000D03*
X2330000Y2750000D03*
X2440000Y3220000D03*
Y3870000D03*
Y3560000D03*
X2410000Y4200000D03*
X2260000Y4340000D03*
X2360000Y4690000D03*
X2480000Y4570000D03*
X2570000D03*
Y4660000D03*
Y4760000D03*
X2260000Y4460000D03*
X2660000Y5070000D03*
X3260000Y210000D03*
X3250000Y760000D03*
X2870000Y1110000D03*
X3060000Y920000D03*
X3000000Y1250000D03*
X3200000Y1050000D03*
X3210000Y1290000D03*
X2870000Y920000D03*
X3160000Y1570000D03*
X2800000Y1640000D03*
Y1450000D03*
X3000000Y1500000D03*
X2900000Y2120000D03*
X3100000D03*
X2760000Y2375000D03*
X2896520Y1913320D03*
Y2016670D03*
X2990000Y2900000D03*
X3240000Y2466200D03*
X2990000Y3290000D03*
X3250000Y3050000D03*
Y3170000D03*
X3140000Y3050000D03*
Y3170000D03*
X2990000Y3660000D03*
Y3990000D03*
X3110000Y4940000D03*
X2930000Y5070000D03*
X3110000Y5110000D03*
Y5280000D03*
X2790000Y5200000D03*
Y5140000D03*
Y5080000D03*
X3410000Y100000D03*
X3700000D03*
X3410000Y620000D03*
Y890000D03*
X3700000D03*
Y620000D03*
X3400000Y1360000D03*
X3410000Y1140000D03*
X3700000D03*
X3655000Y1255000D03*
X3500000Y1730000D03*
X3405000Y1555000D03*
X3300000Y2120000D03*
X3655000Y1965000D03*
X3405000Y2285000D03*
X3690000Y3100000D03*
X3540000Y3740000D03*
X3710000D03*
X3720000Y3990000D03*
X3420000D03*
X3730000Y4190000D03*
Y4310000D03*
X3640000Y4190000D03*
Y4310000D03*
X3420000Y4940000D03*
Y5110000D03*
Y5280000D03*
X4270000Y210000D03*
X4010000Y110000D03*
X4270000Y60000D03*
Y750000D03*
X4010000Y890000D03*
Y620000D03*
X4270000Y480000D03*
Y1020000D03*
X4010000Y1140000D03*
X4220000Y1180000D03*
X3940000Y1370000D03*
X3845000Y1255000D03*
X3940000Y2100000D03*
X3845000Y1965000D03*
X4270000Y3260000D03*
X3957650Y3110000D03*
X3850000Y3740000D03*
X4270000Y3510000D03*
X4080000Y4060000D03*
X4130000Y4700000D03*
Y5020000D03*
Y5320000D03*
X4540000Y110000D03*
X4550000Y620000D03*
Y890000D03*
X4420000Y1190000D03*
X4430000Y1670000D03*
X4530000Y1870000D03*
X4640000Y1470000D03*
X4750000Y1970000D03*
X4700000Y2290000D03*
X4570000Y2780000D03*
X4550000Y3260000D03*
X4640000Y3160000D03*
X4700000Y3100000D03*
X4550000Y3510000D03*
X4420000Y4230000D03*
Y3980000D03*
X4440000Y4700000D03*
Y5020000D03*
Y5320000D03*
X4750000D03*
X4700000Y5145000D03*
Y5015000D03*
X5140000Y110000D03*
X4830000D03*
X5150000Y620000D03*
X4840000D03*
X5150000Y860000D03*
X5180000Y1130000D03*
X5010000Y1970000D03*
Y2290000D03*
X4880000Y2780000D03*
X5185000Y2815000D03*
X4940000Y2550000D03*
X4820000Y3260000D03*
X5140000Y3160000D03*
X4820000Y3510000D03*
X5010000Y3770000D03*
X5185000Y3760000D03*
X5130000Y4330000D03*
X4940000Y4070000D03*
X5240000Y4850000D03*
X4930000D03*
X4910000Y5080000D03*
X5060000Y5320000D03*
X5155000Y5035000D03*
X5580000Y110000D03*
X5590000Y590000D03*
X5390000Y820000D03*
Y1130000D03*
X5380000Y1760000D03*
X5620000D03*
X5380000Y1970000D03*
X5320000Y2820000D03*
X5580000Y3000000D03*
X5345000Y3165000D03*
X5700000Y3540000D03*
X5450000D03*
X5520000Y3920000D03*
X5430000Y4330000D03*
X5500000Y4950000D03*
X6180000Y110000D03*
X5870000D03*
X6190000Y590000D03*
X5880000D03*
X6290000Y1400000D03*
X5970000Y1970000D03*
X6280000D03*
X6120000Y3160000D03*
Y3320000D03*
X5960000Y3380000D03*
X5910000Y3302850D03*
X6220000Y3750000D03*
X6120000Y4400000D03*
Y4850000D03*
X5800000Y4660000D03*
X6180000Y5080000D03*
X5800000Y4970000D03*
X6180000Y5330000D03*
X5870000D03*
X5960000Y5015000D03*
Y5145000D03*
X6610000Y180000D03*
X6420000Y110000D03*
X6700000Y710000D03*
Y500000D03*
X6320000Y840000D03*
X6510000Y1060000D03*
X6700000Y940000D03*
X6550000Y2890000D03*
X6690000Y2670000D03*
X6390000D03*
Y3310000D03*
X6690000D03*
X6390000Y3110000D03*
X6690000D03*
X6550000Y3540000D03*
X6400000Y3750000D03*
X6700000D03*
X6550000Y4170000D03*
X6400000Y3950000D03*
X6700000D03*
X6390000Y4440000D03*
X6690000D03*
X6430000Y4850000D03*
X6690000Y5320000D03*
X6770000Y4950000D03*
X6425000Y5035000D03*
X6980000Y2740000D03*
X7000000Y2530000D03*
X7310000D03*
X6980000Y3380000D03*
Y3040000D03*
Y3680000D03*
X6990000Y4020000D03*
Y4320000D03*
X7000000Y5320000D03*
X7970000Y2410000D03*
X8280000D03*
Y2850000D03*
X7970000D03*
X8280000Y3350000D03*
X7970000D03*
X8280000Y3850000D03*
X7970000D03*
X8280000Y4350000D03*
X7970000D03*
G54D23*
X1300000Y1215000D03*
X1500000Y1465000D03*
X1300000D03*
X1565000Y2890000D03*
X1815000D03*
X4270000Y1375000D03*
Y1625000D03*
Y2105000D03*
Y2355000D03*
X5610000Y1320000D03*
X5410000D03*
X5610000Y1580000D03*
X5410000D03*
X5860000Y1320000D03*
Y1580000D03*
G54D41*
X3255000Y1710000D03*
Y1950000D03*
X3065000D03*
Y1710000D03*
X3425000Y3377840D03*
X3615000D03*
X3425000Y3617840D03*
X3615000D03*
G54D32*
X2028400Y3810000D03*
X2231600D03*
X2028400Y3600000D03*
X2231600D03*
X2028400Y4020000D03*
X2231600D03*
X2008400Y4810000D03*
X2211600D03*
X2008400Y5190000D03*
X2211600D03*
X2008400Y5000000D03*
X2211600D03*
G54D50*
X6270000Y2788400D03*
Y2991600D03*
Y3438400D03*
Y3641600D03*
Y4068400D03*
Y4271600D03*
G54D14*
X676000Y2142000D03*
Y3006000D03*
G54D60*
G01X360000Y5040000D02*
Y4610000D01*
G01X1060000Y5040000D02*
X360000D01*
G01X2000000Y1276200D02*
X1850000D01*
G01X3140000Y3050000D02*
Y2446200D01*
G01X3845000Y1630000D02*
X4265000D01*
X4270000Y1625000D01*
G01X3845000Y2360000D02*
X4015000D01*
X4270000Y2105000D01*
G01X7690000Y370000D02*
X7700000Y360000D01*
G01D02*
X8140000D01*
G01X7440000Y5040000D02*
X8140000D01*
G01D02*
Y4630000D01*
G54D24*
X1500000Y1215000D03*
X5160000Y1320000D03*
Y1580000D03*
G54D51*
X6521000Y1232000D03*
X6775000Y1359000D03*
Y1105000D03*
X6521000Y1740000D03*
Y1486000D03*
X6775000Y1867000D03*
Y1613000D03*
X6521000Y1994000D03*
X7900000Y887500D03*
Y1141500D03*
Y1958500D03*
Y2212500D03*
G54D15*
X770000Y3676000D03*
X1390000D03*
G54D33*
X2210000Y4400000D03*
G54D42*
X2870000Y4435000D03*
X3130000D03*
X2870000Y4625000D03*
X3130000D03*
Y4530000D03*
G54D61*
G01X780000Y2499000D02*
X779000Y2500000D01*
X690000D01*
X670000Y2520000D01*
Y2570000D01*
X699000Y2599000D01*
X780000D01*
G01X1040000Y2585000D02*
X1260000D01*
G01X1040000D02*
X995000D01*
X951930Y2541930D01*
X900000D01*
G01D02*
X787070D01*
X780000Y2549000D01*
G01X900000Y2541930D02*
Y2630000D01*
X881000Y2649000D01*
X780000D01*
G01X1040000Y2455000D02*
X1260000D01*
G01X780000Y2499000D02*
X787070Y2506070D01*
X953930D01*
X1005000Y2455000D01*
X1040000D01*
G01X2356000Y1640000D02*
X2363070Y1632930D01*
Y1523790D01*
X2325140Y1485860D01*
X1785860D01*
X1645410Y1345410D01*
X1433470D01*
X1417930Y1360950D01*
Y1382930D01*
X1500000Y1465000D01*
G01X2406000Y1640000D02*
X2398930Y1632930D01*
Y1508930D01*
X2340000Y1450000D01*
X1800720D01*
X1660270Y1309550D01*
X1418610D01*
X1382070Y1346090D01*
Y1382930D01*
X1300000Y1465000D01*
G01X1500000D02*
X1417930Y1547070D01*
Y2503460D01*
X1381390Y2540000D01*
X1350000D01*
X1305000Y2585000D01*
X1260000D01*
G01X1300000Y1465000D02*
X1382070Y1547070D01*
Y2488600D01*
X1366530Y2504140D01*
X1350000D01*
X1300860Y2455000D01*
X1260000D01*
G01X2456000Y1640000D02*
X2463070Y1632930D01*
Y1536930D01*
X2570000Y1430000D01*
X2670000D01*
X3370000Y730000D01*
X4060000D01*
X4105000Y685000D01*
X4160000D01*
G01X2601680Y1280000D02*
X2567930Y1246250D01*
Y1005560D01*
X2575000Y998490D01*
Y960000D01*
G01X2498330Y1280000D02*
X2532070Y1246260D01*
Y1005560D01*
X2525000Y998490D01*
Y960000D01*
G01X2506000Y1640000D02*
X2498930Y1632930D01*
Y1551790D01*
X2584860Y1465860D01*
X2684860D01*
X3384860Y765860D01*
X4060000D01*
X4109140Y815000D01*
X4160000D01*
G01X2606000Y1640000D02*
X2613070Y1632930D01*
Y1560680D01*
X2649610Y1524140D01*
X2825860D01*
X3350000Y1000000D01*
X4050000D01*
X4095000Y955000D01*
X4160000D01*
G01X2656000Y1640000D02*
X2648930Y1632930D01*
Y1575540D01*
X2664470Y1560000D01*
X2840720D01*
X3364860Y1035860D01*
X4050000D01*
X4099140Y1085000D01*
X4160000D01*
G01X2656000Y2140000D02*
X2648930Y2147070D01*
Y3698220D01*
X2764850Y3814140D01*
X4035140D01*
X4255140Y3594140D01*
X4519380D01*
X4557930Y3632690D01*
Y3745780D01*
X4564990Y3752840D01*
G01X2606000Y2140000D02*
X2613070Y2147070D01*
Y3713080D01*
X2749990Y3850000D01*
X4050000D01*
X4270000Y3630000D01*
X4504520D01*
X4522070Y3647550D01*
Y3745780D01*
X4515010Y3752840D01*
G01X2896520Y1913320D02*
X2862770Y1947070D01*
X2763070D01*
X2756000Y1940000D01*
G01X2896520Y2016670D02*
X2862780Y1982930D01*
X2763070D01*
X2756000Y1990000D01*
G01X4160000Y685000D02*
X4380000D01*
G01X4160000Y815000D02*
X4380000D01*
G01X4160000Y955000D02*
X4380000D01*
G01X4160000Y1085000D02*
X4380000D01*
G01Y685000D02*
X4440860D01*
X4490000Y734140D01*
X5244860D01*
X5310000Y799280D01*
Y1410000D01*
X5340000Y1440000D01*
X5476120D01*
X5492070Y1424050D01*
Y1402070D01*
X5410000Y1320000D01*
G01X4380000Y815000D02*
X4445000D01*
X4490000Y770000D01*
X5230000D01*
X5274140Y814140D01*
Y1424860D01*
X5325140Y1475860D01*
X5490980D01*
X5527930Y1438910D01*
Y1402070D01*
X5610000Y1320000D01*
G01X4380000Y955000D02*
X4425000D01*
X4470000Y1000000D01*
X4509320D01*
X4545860Y1036540D01*
Y1705860D01*
X4690000Y1850000D01*
X5439280D01*
X5492070Y1797210D01*
Y1662070D01*
X5410000Y1580000D01*
G01X4380000Y1085000D02*
X4420860D01*
X4470000Y1035860D01*
X4494460D01*
X4510000Y1051400D01*
Y1720720D01*
X4675140Y1885860D01*
X5454140D01*
X5527930Y1812070D01*
Y1662070D01*
X5610000Y1580000D01*
G54D16*
X455000Y4390000D03*
X545000D03*
X1105000Y2300000D03*
X1195000D03*
Y2730000D03*
X1105000D03*
X2045000Y540000D03*
X1955000D03*
X2045000Y670000D03*
X1955000D03*
X2045000Y800000D03*
X1955000D03*
X2045000Y930000D03*
X1955000D03*
X1925000Y1670000D03*
X2015000D03*
X2485000Y4050000D03*
X2395000D03*
X2575000Y4340000D03*
X2665000D03*
Y4460000D03*
X2575000D03*
X2375000Y4780000D03*
X2465000D03*
Y4900000D03*
X2375000D03*
X2855000Y570000D03*
X2945000D03*
X3165000Y4280000D03*
X3075000D03*
X2945000D03*
X2855000D03*
X3545000Y2840000D03*
X3455000D03*
X3545000Y2700000D03*
X3455000D03*
X3545000Y2980000D03*
X3455000D03*
X3575000Y3190000D03*
X3665000D03*
X3875000Y3390000D03*
X3785000D03*
Y3110000D03*
X3875000D03*
X3785000Y3260000D03*
X3875000D03*
Y3610000D03*
X3785000D03*
X5275000Y2900000D03*
X5185000D03*
X5105000Y2620000D03*
X5015000D03*
X5105000Y2480000D03*
X5015000D03*
X5275000Y3640000D03*
X5185000D03*
X5105000Y4000000D03*
X5015000D03*
X5105000Y4140000D03*
X5015000D03*
G54D25*
X1690000Y3536000D03*
Y3816000D03*
X2180000Y2750000D03*
Y3030000D03*
X7290000Y220000D03*
Y500000D03*
X7550000Y220000D03*
Y500000D03*
G54D43*
X3290000Y4740000D03*
X3550000D03*
G54D34*
X2195000Y4350000D03*
Y4450000D03*
G54D52*
X6670000Y2790000D03*
X6430000Y2890000D03*
X6670000Y2990000D03*
X6430000Y3440000D03*
Y3640000D03*
X6670000Y3540000D03*
X6430000Y4070000D03*
Y4270000D03*
X6670000Y4170000D03*
G54D62*
G01X1690000Y3816000D02*
X1517000D01*
X1390000Y3689000D01*
Y3676000D01*
G01X7105000Y2324500D02*
X7110000Y2319500D01*
Y1980000D01*
X6997000Y1867000D01*
X6775000D01*
G01X7105000Y2324500D02*
X7078690Y2350810D01*
X6610810D01*
X6521000Y2261000D01*
Y1994000D01*
G01X7105000Y775500D02*
Y685000D01*
X7290000Y500000D01*
G01D02*
X7550000D01*
G01D02*
X7690000Y640000D01*
Y2205890D01*
X7535890Y2360000D01*
X7180810D01*
X7130500Y2350000D01*
X7105000Y2324500D01*
G54D35*
X2215000Y4250000D03*
Y4550000D03*
X2575000Y560000D03*
X2525000D03*
X2475000D03*
X2425000D03*
X2375000D03*
X2325000D03*
Y960000D03*
X2375000D03*
X2425000D03*
X2475000D03*
X2525000D03*
X2575000D03*
X2365000Y4250000D03*
X2315000D03*
X2265000D03*
Y4550000D03*
X2315000D03*
X2365000D03*
G54D17*
X1029000Y738000D03*
Y1942000D03*
X4840000Y1050000D03*
Y1630000D03*
X6170000Y1050000D03*
Y1630000D03*
G54D26*
X1690000Y4215000D03*
Y4585000D03*
G54D53*
X6832640Y2730000D03*
Y3370000D03*
Y3050000D03*
Y3690000D03*
Y4010000D03*
Y4330000D03*
X7132640Y2730000D03*
Y3370000D03*
Y3050000D03*
Y3690000D03*
Y4010000D03*
Y4330000D03*
G54D44*
X3750000Y1370000D03*
X3655000D03*
Y1630000D03*
X3750000D03*
Y2100000D03*
X3655000D03*
Y2360000D03*
X3750000D03*
X3845000Y1370000D03*
Y1630000D03*
Y2100000D03*
Y2360000D03*
G54D54*
X7105000Y775500D03*
Y2324500D03*
G54D27*
X2250000Y635000D03*
Y685000D03*
Y735000D03*
Y785000D03*
Y835000D03*
Y885000D03*
X2650000D03*
Y835000D03*
Y785000D03*
Y735000D03*
Y685000D03*
Y635000D03*
X2420000Y4425000D03*
Y4375000D03*
Y4325000D03*
Y4475000D03*
G54D36*
X2330000Y185000D03*
X2570000D03*
Y375000D03*
X2330000D03*
G54D18*
X780000Y2254000D03*
Y2334000D03*
Y2814000D03*
Y2894000D03*
G54D45*
X4264990Y2902840D03*
Y3752840D03*
X4764990Y2902840D03*
X4715010D03*
X4664990D03*
X4615010D03*
X4564990D03*
X4515010D03*
X4464990D03*
X4415010D03*
X4364990D03*
X4315010D03*
Y3752840D03*
X4364990D03*
X4415010D03*
X4464990D03*
X4515010D03*
X4564990D03*
X4615010D03*
X4664990D03*
X4715010D03*
X4764990D03*
X4815010Y2902840D03*
Y3752840D03*
G54D55*
X7610000Y3414000D03*
Y3922000D03*
Y3668000D03*
Y4430000D03*
Y4176000D03*
G54D37*
X2450000Y760000D03*
G54D46*
X4150000Y4500000D03*
X3870000D03*
X4150000Y4250000D03*
X3870000D03*
G54D28*
X1780000Y1130000D03*
X2380000Y5190000D03*
X3680000Y4490000D03*
G54D19*
X780000Y2399000D03*
Y2449000D03*
Y2499000D03*
Y2549000D03*
Y2599000D03*
Y2649000D03*
Y2699000D03*
Y2749000D03*
X4115000Y3052830D03*
Y3102850D03*
Y3152830D03*
Y3202850D03*
Y3252830D03*
Y3302850D03*
Y3352830D03*
Y3402850D03*
Y3452830D03*
Y3502850D03*
Y3552830D03*
Y3602850D03*
X4965000Y3402850D03*
Y3352830D03*
Y3302850D03*
Y3252830D03*
Y3202850D03*
Y3152830D03*
Y3102850D03*
Y3052830D03*
Y3602850D03*
Y3552830D03*
Y3502850D03*
Y3452830D03*
G54D56*
G01X316200Y4390000D02*
X455000D01*
G01X780000Y2399000D02*
X1006000D01*
X1105000Y2300000D01*
G01X780000Y2699000D02*
X1074000D01*
X1105000Y2730000D01*
G01X1955000Y800000D02*
X1870000D01*
G01X1955000Y670000D02*
X1870000D01*
G01X2256000Y1890000D02*
X2150000D01*
X2120000Y1860000D01*
G01X2256000Y1940000D02*
X2150000D01*
X2120000Y1970000D01*
G01X2210000Y4400000D02*
X2060000D01*
G01X2475000Y560000D02*
Y470000D01*
X2570000Y375000D01*
G01X2425000Y560000D02*
Y445930D01*
X2425400Y445530D01*
Y280400D01*
X2330000Y185000D01*
G01X2365000Y4250000D02*
Y4285000D01*
X2352900Y4297100D01*
Y4300530D01*
X2330000Y4323430D01*
Y4379680D01*
X2309680Y4400000D01*
X2293020D01*
G01X2485000Y4050000D02*
Y4120000D01*
G01X2315000Y4250000D02*
Y4145000D01*
X2340000Y4120000D01*
X2485000D01*
G01X2315000Y4255000D02*
Y4250000D01*
G01X2420000Y4325000D02*
X2445000D01*
X2485000Y4285000D01*
Y4120000D01*
G01X2415000Y4325000D02*
X2420000D01*
G01Y4425000D02*
X2540000D01*
X2575000Y4460000D01*
G01X2420000Y4375000D02*
X2540000D01*
X2575000Y4340000D01*
G01X2415000Y4375000D02*
X2420000D01*
G01X2520000Y5030000D02*
X2540000Y5010000D01*
Y4910000D01*
X2650000Y4800000D01*
Y4600000D01*
X2750000Y4500000D01*
Y4430000D01*
X2665000Y4345000D01*
Y4340000D01*
G01X2261600Y4050000D02*
X2395000D01*
G01X2570000Y4570000D02*
X2665000Y4475000D01*
Y4460000D01*
G01X2415000Y4425000D02*
X2420000D01*
G01X2465000Y4900000D02*
Y4780000D01*
G01X2365000Y4550000D02*
Y4575000D01*
X2465000Y4675000D01*
Y4780000D01*
G01X2365000Y4545000D02*
Y4550000D01*
G01X2375000Y4900000D02*
Y5015000D01*
G01X3655000Y1255000D02*
X3335000D01*
X2850000Y1740000D01*
X2756000D01*
G01X3065000Y1950000D02*
X2972440Y1857440D01*
X2873370D01*
X2840810Y1890000D01*
X2756000D01*
G01X3255000Y1710000D02*
X3155000Y1810000D01*
X2850000D01*
X2820000Y1840000D01*
X2756000D01*
G01X3526200Y4190000D02*
X3446200Y4110000D01*
X3200000D01*
X3165000Y4145000D01*
Y4280000D01*
G01X3075000D02*
X2945000D01*
G01D02*
Y4385000D01*
X2895000Y4435000D01*
X2870000D01*
G01X3130000D02*
X3025000D01*
X2990000Y4470000D01*
Y4590000D01*
X2955000Y4625000D01*
G01D02*
X2870000D01*
G01X3655000Y1370000D02*
Y1255000D01*
G01X3500000Y1445000D02*
X3555000Y1500000D01*
X3720000D01*
X3750000Y1470000D01*
Y1370000D01*
G01X3500000Y1555000D02*
X3605000D01*
X3655000Y1605000D01*
Y1630000D01*
G01X3500000Y1555000D02*
X3405000D01*
G01X3655000Y2100000D02*
Y1965000D01*
G01X3500000Y2285000D02*
X3615000D01*
X3655000Y2325000D01*
Y2360000D01*
G01X3500000Y2285000D02*
X3405000D01*
G01X3500000Y2175000D02*
X3555000Y2230000D01*
X3720000D01*
X3750000Y2200000D01*
Y2100000D01*
G01X3785000Y3390000D02*
X3627160D01*
X3615000Y3377840D01*
G01X3665000Y3190000D02*
X3805930D01*
X3875000Y3259070D01*
Y3260000D01*
G01X3425000Y3617840D02*
X3532840Y3510000D01*
X3680000D01*
X3780000Y3610000D01*
X3785000D01*
G01X4115000Y3352830D02*
X4027170D01*
X3910000Y3470000D01*
X3864070D01*
X3785000Y3390930D01*
Y3390000D01*
G01X4115000Y3402850D02*
X4037150D01*
X3910000Y3530000D01*
X3864070D01*
X3785000Y3609070D01*
Y3610000D01*
G01X4640000Y3160000D02*
X4290000D01*
X4182830Y3052830D01*
X4115000D01*
G01Y3302850D02*
X3917850D01*
X3875000Y3260000D01*
G01X5386200Y2480000D02*
X5306200Y2400000D01*
X4750000D01*
X4664990Y2485010D01*
Y2902840D01*
G01X5386200Y2620000D02*
X5306200Y2700000D01*
X4770000D01*
X4715010Y2754990D01*
Y2902840D01*
G01X4564990D02*
Y2984990D01*
X4590000Y3010000D01*
X5294070D01*
X5439070Y2865000D01*
X5440000D01*
G01X4700000Y3100000D02*
X4330000D01*
X4264990Y3034990D01*
Y2902840D01*
G01X4764990Y3752840D02*
Y3675010D01*
X4790000Y3650000D01*
X4840000D01*
X4870000Y3680000D01*
Y3870000D01*
X4920000Y3920000D01*
X5306200D01*
X5386200Y4000000D01*
G01X4800000Y5145000D02*
X4700000D01*
G01X4800000Y5015000D02*
X4700000D01*
G01X5233800Y2480000D02*
X5105000D01*
G01X5233800Y2620000D02*
X5105000D01*
G01X5960000Y3380000D02*
X5900000D01*
X5872830Y3352830D01*
X4965000D01*
G01Y3302850D02*
X5910000D01*
G01X5386200Y4140000D02*
X5306200Y4220000D01*
X4870000D01*
X4815010Y4165010D01*
Y3752840D01*
G01X5233800Y4000000D02*
X5105000D01*
G01X5233800Y4140000D02*
X5105000D01*
G01X4800000Y5145000D02*
X5020000D01*
G01X5630000Y5003800D02*
X5720000Y5093800D01*
Y5220000D01*
X5700000Y5240000D01*
X5120000D01*
X5025000Y5145000D01*
X5020000D01*
G01X4800000Y5015000D02*
X5020000D01*
G01X5370000Y5003800D02*
X5326200Y4960000D01*
X5080000D01*
X5025000Y5015000D01*
X5020000D01*
G01X5386200Y2480000D02*
X5466200Y2400000D01*
X5890000D01*
X5961000Y2471000D01*
Y2620000D01*
G01X5386200D02*
X5580000D01*
G01X5440000Y2865000D02*
X5575000D01*
X5707000Y2733000D01*
Y2620000D01*
G01Y3770000D02*
Y3873000D01*
X5580000Y4000000D01*
X5386200D01*
G01Y4140000D02*
X5510000D01*
X5830000Y3820000D01*
Y3774000D01*
X5834000Y3770000D01*
G01X6290000Y5015000D02*
X6070000D01*
G01D02*
X5960000D01*
G01X6290000Y5145000D02*
X6070000D01*
G01D02*
X5960000D01*
G01X6640000Y5003800D02*
X6586200Y4950000D01*
X6350000D01*
X6290000Y5010000D01*
Y5015000D01*
G01X6900000Y5003800D02*
X6990000Y5093800D01*
Y5210000D01*
X6960000Y5240000D01*
X6390000D01*
X6295000Y5145000D01*
X6290000D01*
G54D29*
X2000000Y1276200D03*
Y1123800D03*
X3140000Y2293800D03*
Y2446200D03*
G54D47*
X4860000Y4660000D03*
X6130000D03*
X7610000Y3160000D03*
G54D38*
X2656000Y1640000D03*
X2606000D03*
X2556000D03*
X2506000D03*
X2456000D03*
X2406000D03*
X2356000D03*
Y2140000D03*
X2406000D03*
X2456000D03*
X2506000D03*
X2556000D03*
X2606000D03*
X2656000D03*
G54D57*
G01X2650000Y785000D02*
X2655650Y790650D01*
X3069350D01*
X3400000Y460000D01*
X4050000D01*
X4095000Y415000D01*
X4160000D01*
G01X2650000Y835000D02*
X2655640Y829360D01*
X3085390D01*
X3416040Y498710D01*
X4050000D01*
X4096290Y545000D01*
X4160000D01*
G01Y145000D02*
X4105000D01*
X4060000Y190000D01*
X3430000D01*
X2929360Y690640D01*
X2655640D01*
X2650000Y685000D01*
G01X4160000Y275000D02*
X4106290D01*
X4060000Y228710D01*
X3446040D01*
X2945400Y729350D01*
X2655650D01*
X2650000Y735000D01*
G01X4160000Y145000D02*
X4380000D01*
G01X4160000Y275000D02*
X4380000D01*
G01X4160000Y415000D02*
X4380000D01*
G01X4160000Y545000D02*
X4380000D01*
G01Y145000D02*
X4443710D01*
X4490000Y191290D01*
X6516040D01*
X6618710Y293960D01*
Y1096050D01*
X6648130Y1125470D01*
X6659370Y1147940D01*
X6677230Y1153900D01*
X6775000Y1105000D01*
G01X4380000Y275000D02*
X4445000D01*
X4490000Y230000D01*
X6500000D01*
X6580000Y310000D01*
Y1112090D01*
X6616310Y1148400D01*
X6624720Y1165230D01*
X6618780Y1183090D01*
X6521000Y1232000D01*
G01X4380000Y415000D02*
X4443710D01*
X4490000Y461290D01*
X6306040D01*
X6438710Y593960D01*
Y1126040D01*
X6377370Y1187380D01*
Y1307370D01*
X6430000Y1360000D01*
X6774000D01*
X6775000Y1359000D01*
G01X4380000Y545000D02*
X4445000D01*
X4490000Y500000D01*
X6290000D01*
X6400000Y610000D01*
Y1110000D01*
X6338660Y1171340D01*
Y1323410D01*
X6410000Y1394750D01*
Y1629000D01*
X6521000Y1740000D01*
G54D39*
X2506000Y1890000D03*
G54D48*
X5114000Y4660000D03*
X5622000D03*
X5368000D03*
X6638000D03*
X6384000D03*
X6892000D03*
G54D58*
G01X1040000Y2520000D02*
X1150000D01*
G01X2250000Y685000D02*
X2060000D01*
X2045000Y670000D01*
G01X2250000Y885000D02*
X2090000D01*
X2045000Y930000D01*
G01X2250000Y635000D02*
X2195000D01*
X2130000Y570000D01*
G01X2250000Y785000D02*
X2060000D01*
X2045000Y800000D01*
G01X2256000Y1740000D02*
X2190000D01*
X2120000Y1670000D01*
G01X2256000Y1790000D02*
X2016200D01*
X2006200Y1800000D01*
G01Y1950000D02*
Y1800000D01*
G01X2150000Y2375000D02*
Y2040000D01*
X2200000Y1990000D01*
X2256000D01*
G01X2030000Y2375000D02*
X2150000D01*
G01X2030000Y2465000D02*
X1908800D01*
X1900000Y2456200D01*
G01X2293020Y4400000D02*
X2210000D01*
G01X2220000Y4170000D02*
X2215000Y4175000D01*
Y4250000D01*
G01X2261600Y4050000D02*
X2231600Y4020000D01*
G01X2220000Y4620000D02*
X2215000Y4615000D01*
Y4550000D01*
G01X2211600Y4810000D02*
X2265000Y4756600D01*
G01X2575000Y560000D02*
Y635000D01*
X2550000Y660000D01*
G01X2740000Y910000D02*
X2715000Y885000D01*
X2650000D01*
G01X2550000Y660000D02*
X2450000Y760000D01*
G01X2873800Y400000D02*
X2793800Y480000D01*
X2550000D01*
X2525000Y505000D01*
Y560000D01*
G01X2650000Y635000D02*
X2685000D01*
X2750000Y570000D01*
G01X2650000Y885000D02*
Y930000D01*
G01X2475000Y960000D02*
Y1090000D01*
X2450000Y1115000D01*
G01X2425000Y960000D02*
Y1024190D01*
X2399590Y1049600D01*
G01D02*
X2375000Y1025010D01*
Y960000D01*
G01X2356000Y2140000D02*
Y2371000D01*
X2360000Y2375000D01*
G01X2318420Y4480000D02*
Y4425400D01*
X2293020Y4400000D01*
G01X2380000Y4190000D02*
X2365000Y4205000D01*
Y4250000D01*
G01X2265000D02*
Y4053400D01*
G01D02*
X2261600Y4050000D01*
G01X2315000Y4550000D02*
Y4645000D01*
X2360000Y4690000D01*
G01X2420000Y4475000D02*
X2323420D01*
X2318420Y4480000D01*
G01D02*
Y4546580D01*
X2315000Y4550000D01*
G01X2460000Y4500000D02*
X2435000Y4475000D01*
X2420000D01*
G01X2265000Y4756600D02*
Y4550000D01*
G01X2660000Y5070000D02*
Y4960000D01*
G01Y5180000D02*
Y5070000D01*
G01X2780000Y5050000D02*
X2740000D01*
X2725000Y5065000D01*
Y5180000D01*
G01X2600000Y5280000D02*
X2595000Y5275000D01*
G01X2570000Y5100000D02*
X2595000Y5125000D01*
G01Y5275000D02*
Y5180000D01*
G01Y5125000D02*
Y5180000D01*
G01X2760000Y2375000D02*
Y2370000D01*
X2756000Y2366000D01*
Y2040000D01*
G01X2930000Y5180000D02*
Y5070000D01*
G01D02*
Y4960000D01*
G01X2790000Y5050000D02*
X2840000D01*
X2865000Y5075000D01*
Y5180000D01*
G01X2990000Y5290000D02*
X2995000Y5285000D01*
G01D02*
Y5180000D01*
G01X3673800Y2700000D02*
X3545000D01*
G01X3673800Y2840000D02*
X3545000D01*
G01X3785000Y3260000D02*
X3542840D01*
X3425000Y3377840D01*
G01X3673800Y2980000D02*
X3545000D01*
G01X4080000Y620000D02*
X4450000D01*
G01X4080000Y890000D02*
X4450000D01*
G01X4415010Y2902840D02*
Y2755010D01*
X4360000Y2700000D01*
X3826200D01*
G01Y2840000D02*
X3916200Y2750000D01*
X4320000D01*
X4364990Y2794990D01*
Y2902840D01*
G01X3826200Y2980000D02*
X4006200Y2800000D01*
X4280000D01*
X4315010Y2835010D01*
Y2902840D01*
G01X4260000Y3240000D02*
X4247170Y3252830D01*
G01X3785000Y3110000D02*
Y3114520D01*
G01Y3260000D02*
Y3264520D01*
G01Y3114520D02*
X3860480Y3190000D01*
X3940000D01*
X4002830Y3252830D01*
X4115000D01*
G01X3785000Y3264520D02*
X3875000Y3354520D01*
Y3390000D01*
G01X4247170Y3252830D02*
X4115000D01*
G01Y3202850D02*
X4042860D01*
X3957650Y3117640D01*
Y3110000D01*
G01X4264990Y3752840D02*
Y3900010D01*
X4230000Y3935000D01*
G01X4380000Y210000D02*
X4270000D01*
G01X4380000Y750000D02*
X4270000D01*
G01X4380000Y480000D02*
X4270000D01*
G01X4380000Y1020000D02*
X4270000D01*
G01X4450000Y890000D02*
X4460000Y900000D01*
G01X4615010Y2902840D02*
Y2825010D01*
X4570000Y2780000D01*
G01X4790000D02*
X4764990Y2805010D01*
Y2902840D01*
G01X4460000Y3880000D02*
X4464990Y3875010D01*
G01X4315010Y3984990D02*
Y3752840D01*
G01X4464990Y3875010D02*
Y3752840D01*
G01X4310000Y3990000D02*
X4315010Y3984990D01*
G01X4815010Y2902840D02*
X5182160D01*
X5185000Y2900000D01*
G01X4965000Y3552830D02*
X4849020D01*
G01X5090000Y3520000D02*
X5057170Y3552830D01*
X4965000D01*
G01Y3602850D02*
X5147850D01*
X5185000Y3640000D01*
G01X5020000Y5080000D02*
X4910000D01*
G01X5240000Y5125000D02*
X5338800D01*
X5370000Y5156200D01*
G01X5834000Y2620000D02*
Y2510000D01*
X5814000Y2490000D01*
X5730000D01*
X5707000Y2513000D01*
Y2620000D01*
G01X5622000Y4660000D02*
X5630000Y4668000D01*
Y5003800D01*
G01X5368000Y4660000D02*
X5370000Y4662000D01*
Y5003800D01*
G01X5500000Y5125000D02*
X5598800D01*
X5630000Y5156200D01*
G01X6030000Y3440000D02*
Y3330000D01*
G01X6200000Y3240000D02*
X6070000D01*
G01X5950000Y3520000D02*
X5961000Y3531000D01*
G01D02*
Y3770000D01*
G01X6290000Y5080000D02*
X6180000D01*
G01X6638000Y4660000D02*
X6640000Y4662000D01*
Y5003800D01*
G01X6510000Y5125000D02*
X6608800D01*
X6640000Y5156200D01*
G01X6770000Y5125000D02*
X6868800D01*
X6900000Y5156200D01*
G01X6892000Y4660000D02*
X6900000Y4668000D01*
Y5003800D01*
G54D49*
X5707000Y2620000D03*
X5580000D03*
Y3160000D03*
X5707000D03*
Y3770000D03*
X5580000D03*
Y4310000D03*
X5707000D03*
X5961000Y2620000D03*
X5834000D03*
Y3160000D03*
X5961000D03*
Y3770000D03*
X5834000D03*
Y4310000D03*
X5961000D03*
G54D59*
G01X122100Y2142000D02*
X258000D01*
G01X122100Y3006000D02*
X258000D01*
G01X360000Y360000D02*
Y760900D01*
G01Y360000D02*
X760900D01*
G01X258000Y2036100D02*
Y2142000D01*
G01D02*
Y2247900D01*
G01Y2142000D02*
X393900D01*
G01X676000Y2036100D02*
Y2142000D01*
G01D02*
X836900D01*
G01X258000Y2900100D02*
Y3006000D01*
G01D02*
Y3111900D01*
G01Y3006000D02*
X393900D01*
G01X676000D02*
Y3111900D01*
G01X515100Y3006000D02*
X676000D01*
G01D02*
X836900D01*
G01X614100Y3676000D02*
X770000D01*
G01X1029000Y517100D02*
Y738000D01*
G01D02*
Y958900D01*
G01X808100Y738000D02*
X1029000D01*
G01D02*
X1249900D01*
G01X1179100Y1215000D02*
X1300000D01*
G01X1029000Y1721100D02*
Y1942000D01*
G01D02*
Y2162900D01*
G01X808100Y1942000D02*
X1029000D01*
G01D02*
X1249900D01*
G01X1090000Y3050100D02*
Y3206000D01*
G01D02*
Y3361900D01*
G01X834100Y3206000D02*
X1090000D01*
G01D02*
X1345900D01*
G01X770000Y3420100D02*
Y3676000D01*
G01D02*
Y3931900D01*
G01Y3676000D02*
X925900D01*
G01X1060000Y4639100D02*
Y5040000D01*
G01D02*
X1460900D01*
G01X1300000Y1215000D02*
Y1335900D01*
G01X1694100Y2890000D02*
X1815000D01*
G01Y2769100D02*
Y2890000D01*
G01D02*
X1935900D01*
G01X4270000Y1254100D02*
Y1375000D01*
G01X4149100D02*
X4270000D01*
G01D02*
X4390900D01*
G01X4270000Y2355000D02*
Y2475900D01*
G01Y2355000D02*
X4390900D01*
G01X4619100Y1050000D02*
X4840000D01*
G01X4619100Y1630000D02*
X4840000D01*
G01X4714100Y4660000D02*
X4860000D01*
G01X4840000Y1050000D02*
Y1270900D01*
G01Y1050000D02*
X5060900D01*
G01X4840000Y1409100D02*
Y1630000D01*
G01X4860000Y4660000D02*
Y4805900D01*
G01X5739100Y1580000D02*
X5860000D01*
G01X6170000Y829100D02*
Y1050000D01*
G01D02*
Y1270900D01*
G01X5949100Y1050000D02*
X6170000D01*
G01X5860000Y1199100D02*
Y1320000D01*
G01D02*
X5980900D01*
G01X6170000Y1409100D02*
Y1630000D01*
G01D02*
Y1850900D01*
G01X5860000Y1459100D02*
Y1580000D01*
G01D02*
Y1700900D01*
G01X6130000Y4660000D02*
Y4805900D01*
G01X5984100Y4660000D02*
X6130000D01*
G01X7039100Y5040000D02*
X7440000D01*
G01Y4639100D02*
Y5040000D01*
M02*
