G04 ================== begin FILE IDENTIFICATION RECORD ==================*
G04 Layout Name:  H:/MBED-TOOLS/HARDWARE/EZFET_V10B/PCB/EZFET_V10B.brd*
G04 Film Name:    ADB*
G04 File Format:  Gerber RS274X*
G04 File Origin:  Cadence Allegro 17.2-S037*
G04 Origin Date:  Fri May 18 10:52:10 2018*
G04 *
G04 Layer:  REF DES/SILKSCREEN_BOTTOM*
G04 Layer:  PIN/BOTTOM*
G04 Layer:  PACKAGE GEOMETRY/SILKSCREEN_BOTTOM*
G04 Layer:  BOARD GEOMETRY/SILKSCREEN_BOTTOM*
G04 Layer:  BOARD GEOMETRY/OUTLINE*
G04 *
G04 Offset:    (0.0000 0.0000)*
G04 Mirror:    No*
G04 Mode:      Positive*
G04 Rotation:  0*
G04 FullContactRelief:  No*
G04 UndefLineWidth:     0.1524*
G04 ================== end FILE IDENTIFICATION RECORD ====================*
%FSLAX55Y55*MOMM*%
%IR0*IPPOS*OFA0.00000B0.00000*MIA0B0*SFA1.00000B1.00000*%
%ADD12R,.65X1.06*%
%ADD15R,1.27X1.27*%
%ADD11C,3.3*%
%ADD13C,1.6*%
%ADD10R,1.27X1.27*%
%ADD14R,1.6X1.6*%
%ADD18C,1.778*%
%ADD16R,.9144X.9144*%
%ADD17R,.9144X.9144*%
%ADD19R,1.778X1.778*%
%ADD20C,.2032*%
%ADD21C,.254*%
%ADD22C,.1524*%
G75*
%LPD*%
G75*
G36*
G01X591980Y1094620D02*
G03I-29620J0D01*
G37*
G54D10*
X625860Y590000D03*
Y1310000D03*
X834140Y590000D03*
Y1310000D03*
G54D20*
G01X544580Y508720D02*
G02Y671280I106888J81280D01*
G01X915420Y508720D02*
X544580D01*
G01Y671280D02*
X915420D01*
G01X542040Y1391280D02*
G03Y1228720I106888J-81280D01*
G01X915420D02*
X544580D01*
G01Y1391280D02*
X915420D01*
G01X917960Y508720D02*
G03Y671280I-106888J81280D01*
G01X915420Y1391280D02*
G02Y1228720I-106888J-81280D01*
G01X1831280Y64580D02*
G02X1668720I-81280J106888D01*
G01D02*
Y435420D01*
G01X1831280D02*
Y64580D01*
G01X2143500Y349700D02*
Y70300D01*
G01X2016500D02*
Y349700D01*
G01X2143500Y70300D02*
G02X2016500I-63500J71651D01*
G01X1866500Y349700D02*
Y70300D01*
X1993500D01*
Y349700D01*
G01X1831280Y437960D02*
G03X1668720I-81280J-106888D01*
G01X1959700Y496500D02*
X1680300D01*
G01Y623500D02*
X1959700D01*
G01X1962240Y496500D02*
G03Y623500I-73330J63500D01*
G01X1680300Y496500D02*
G02Y623500I71651J63500D01*
G01X2143500Y352240D02*
G03X2016500I-63500J-73330D01*
G01X1959700Y646500D02*
X1680300D01*
G01X1962240D02*
G03Y773500I-73330J63500D01*
G01X1680300Y646500D02*
G02Y773500I71651J63500D01*
G01X1993500Y349700D02*
X1866500D01*
G01X1680300Y773500D02*
X1959700D01*
G01X2593500Y349700D02*
Y70300D01*
G01X2466500D02*
Y349700D01*
G01X2593500Y70300D02*
G02X2466500I-63500J71651D01*
G01X2616500D02*
Y349700D01*
G01X2743500Y70300D02*
G02X2616500I-63500J71651D01*
G01X2166500D02*
X2293500D01*
G01D02*
Y349700D01*
X2166500D01*
Y70300D01*
G01X2316500D02*
X2443500D01*
G01D02*
Y349700D01*
X2316500D01*
Y70300D01*
G01X2593500Y352240D02*
G03X2466500I-63500J-73330D01*
G01X2743500D02*
G03X2616500I-63500J-73330D01*
G01X2743500Y349700D02*
Y70300D01*
G01X3066500D02*
Y349700D01*
G01X3193500Y70300D02*
G02X3066500I-63500J71651D01*
G01X2916500D02*
X3043500D01*
G01D02*
Y349700D01*
X2916500D01*
Y70300D01*
G01X2766500D02*
X2893500D01*
G01D02*
Y349700D01*
X2766500D01*
Y70300D01*
G01X3193500Y352240D02*
G03X3066500I-63500J-73330D01*
G01X3653500Y349700D02*
Y70300D01*
G01X3526500D02*
Y349700D01*
G01X3653500Y70300D02*
G02X3526500I-63500J71651D01*
G01X3343500Y349700D02*
Y70300D01*
G01X3216500D02*
Y349700D01*
G01X3343500Y70300D02*
G02X3216500I-63500J71651D01*
G01X3193500Y349700D02*
Y70300D01*
G01X3493500Y349700D02*
Y70300D01*
G01X3366500D02*
Y349700D01*
G01X3493500Y70300D02*
G02X3366500I-63500J71651D01*
G01X3653500Y352240D02*
G03X3526500I-63500J-73330D01*
G01X3343500D02*
G03X3216500I-63500J-73330D01*
G01X3493500D02*
G03X3366500I-63500J-73330D01*
G01X3726500Y339700D02*
Y60300D01*
X3853500D01*
Y339700D01*
G01X3876500D02*
Y60300D01*
X4003500D01*
Y339700D01*
G01X3853500D02*
X3726500D01*
G01X4003500D02*
X3876500D01*
G01X4159700Y516500D02*
Y643500D01*
G01D02*
X3880300D01*
Y516500D01*
X4159700D01*
G01Y366500D02*
Y493500D01*
G01D02*
X3880300D01*
Y366500D01*
X4159700D01*
G01Y816500D02*
Y943500D01*
G01D02*
X3880300D01*
Y816500D01*
X4159700D01*
G01Y966500D02*
Y1093500D01*
G01D02*
X3880300D01*
Y966500D01*
X4159700D01*
G01Y666500D02*
Y793500D01*
G01D02*
X3880300D01*
Y666500D01*
X4159700D01*
G01Y1116500D02*
Y1243500D01*
G01D02*
X3880300D01*
Y1116500D01*
X4159700D01*
G01Y1566500D02*
Y1693500D01*
G01D02*
X3880300D01*
Y1566500D01*
X4159700D01*
G01Y1416500D02*
Y1543500D01*
G01D02*
X3880300D01*
Y1416500D01*
X4159700D01*
G01Y1266500D02*
Y1393500D01*
G01D02*
X3880300D01*
Y1266500D01*
X4159700D01*
G01X3880300Y1843500D02*
X4159700D01*
G01Y1716500D02*
X3880300D01*
G01X3877760Y1843500D02*
G03Y1716500I73330J-63500D01*
G01X4159700Y1843500D02*
G02Y1716500I-71651J-63500D01*
G54D11*
X1049000Y358000D03*
Y1562000D03*
G54D21*
G01X590300Y921900D02*
G03Y998100I-12700J38100D01*
G01Y921900D02*
Y896500D01*
X869700D01*
Y1023500D01*
X590300D01*
Y998100D01*
G54D12*
X635000Y824600D03*
X825000D03*
Y1095400D03*
X730000D03*
X635000D03*
G54D22*
G01X100000Y130670D02*
X210000D01*
Y157330D01*
X204500Y168000D01*
X197170Y176000D01*
X186170Y182670D01*
X173330Y188000D01*
X155000Y189330D01*
X136670Y188000D01*
X123830Y182670D01*
X112830Y176000D01*
X105500Y168000D01*
X100000Y157330D01*
Y130670D01*
G01Y216670D02*
X210000Y250000D01*
X100000Y283330D01*
G01X138500Y271330D02*
Y228670D01*
G01X210000Y340000D02*
X100000D01*
G01X210000Y309330D02*
Y370670D01*
G01X100000Y456670D02*
Y403330D01*
X210000D01*
Y456670D01*
G01X156830Y435330D02*
Y403330D01*
G01X96330Y520000D02*
X98170Y517330D01*
X101830D01*
X103670Y520000D01*
X101830Y522670D01*
X98170D01*
X96330Y520000D01*
G01X145830D02*
X147670Y517330D01*
X151330D01*
X153170Y520000D01*
X151330Y522670D01*
X147670D01*
X145830Y520000D01*
G01X191670Y584670D02*
X202660Y592670D01*
X208170Y602000D01*
X210000Y612670D01*
X206330Y626000D01*
X197170Y635330D01*
X186170Y638000D01*
X175160Y636670D01*
X166000Y631330D01*
X147670Y604670D01*
X134830Y592670D01*
X116500Y584670D01*
X100000Y582000D01*
Y638000D01*
G01X210000Y700000D02*
X206330Y689330D01*
X197170Y681330D01*
X186170Y676000D01*
X171500Y672000D01*
X155000Y670670D01*
X138500Y672000D01*
X123830Y676000D01*
X112830Y681330D01*
X103670Y689330D01*
X100000Y700000D01*
X103670Y710670D01*
X112830Y718670D01*
X123830Y724000D01*
X138500Y728000D01*
X155000Y729330D01*
X171500Y728000D01*
X186170Y724000D01*
X197170Y718670D01*
X206330Y710670D01*
X210000Y700000D01*
G01X100000Y790000D02*
X210000D01*
X188000Y774000D01*
G01X100000D02*
Y806000D01*
G01Y880000D02*
X101830Y889330D01*
X107330Y900000D01*
X116500Y906670D01*
X129330Y909330D01*
X142160Y906670D01*
X153170Y898670D01*
X158670Y886670D01*
Y873330D01*
X162330Y865330D01*
X171500Y858670D01*
X184330Y856000D01*
X197170Y860000D01*
X206330Y869330D01*
X210000Y880000D01*
X206330Y890670D01*
X197170Y900000D01*
X184330Y904000D01*
X171500Y901330D01*
X162330Y894670D01*
X158670Y886670D01*
Y873330D01*
X153170Y861330D01*
X142160Y853330D01*
X129330Y850670D01*
X116500Y853330D01*
X107330Y860000D01*
X101830Y870670D01*
X100000Y880000D01*
G01X63330Y930000D02*
Y1010000D01*
G01X210000Y1060000D02*
X206330Y1049330D01*
X197170Y1041330D01*
X186170Y1036000D01*
X171500Y1032000D01*
X155000Y1030670D01*
X138500Y1032000D01*
X123830Y1036000D01*
X112830Y1041330D01*
X103670Y1049330D01*
X100000Y1060000D01*
X103670Y1070670D01*
X112830Y1078670D01*
X123830Y1084000D01*
X138500Y1088000D01*
X155000Y1089330D01*
X171500Y1088000D01*
X186170Y1084000D01*
X197170Y1078670D01*
X206330Y1070670D01*
X210000Y1060000D01*
G01X122000Y1120670D02*
X109160Y1128670D01*
X101830Y1139330D01*
X100000Y1151330D01*
X101830Y1162000D01*
X111000Y1172670D01*
X122000Y1179330D01*
X133000Y1180670D01*
X145830Y1178000D01*
X155000Y1168670D01*
X158670Y1159330D01*
Y1147330D01*
G01Y1159330D02*
X164170Y1167330D01*
X173330Y1174000D01*
X184330Y1176670D01*
X195330Y1174000D01*
X204500Y1167330D01*
X210000Y1155330D01*
X208170Y1143330D01*
X200830Y1131330D01*
G01X63330Y1200000D02*
Y1280000D01*
G01X191670Y1304670D02*
X202660Y1312670D01*
X208170Y1322000D01*
X210000Y1332670D01*
X206330Y1346000D01*
X197170Y1355330D01*
X186170Y1358000D01*
X175160Y1356670D01*
X166000Y1351330D01*
X147670Y1324670D01*
X134830Y1312670D01*
X116500Y1304670D01*
X100000Y1302000D01*
Y1358000D01*
G01Y1417330D02*
X123830Y1420000D01*
X144000Y1424000D01*
X162330Y1429330D01*
X182500Y1436000D01*
X210000Y1446670D01*
Y1393330D01*
G01X4800000Y1900000D02*
X200000D01*
G03X0Y1700000I0J-200000D01*
G01Y200000D01*
G03X200000Y0I200000J0D01*
G01X4800000D01*
G03X5000000Y200000I0J200000D01*
G01Y1700000D01*
G03X4800000Y1900000I-200000J0D01*
G01X300000Y129330D02*
X410000D01*
X300000Y190670D01*
X410000D01*
G01X300000Y216670D02*
X410000Y250000D01*
X300000Y283330D01*
G01X338500Y271330D02*
Y228670D01*
G01X300000Y305330D02*
X410000D01*
X318330Y340000D01*
X410000Y374670D01*
X300000D01*
G01Y456670D02*
Y403330D01*
X410000D01*
Y456670D01*
G01X356830Y435330D02*
Y403330D01*
G01X296330Y520000D02*
X298170Y517330D01*
X301830D01*
X303670Y520000D01*
X301830Y522670D01*
X298170D01*
X296330Y520000D01*
G01X345830D02*
X347670Y517330D01*
X351330D01*
X353170Y520000D01*
X351330Y522670D01*
X347670D01*
X345830Y520000D01*
G01X300000Y636670D02*
Y583330D01*
X410000D01*
Y636670D01*
G01X356830Y615330D02*
Y583330D01*
G01X410000Y674670D02*
Y725330D01*
X300000Y674670D01*
Y725330D01*
G01Y764670D02*
X410000D01*
Y815330D01*
G01X356830Y796670D02*
Y764670D01*
G01X300000Y906670D02*
Y853330D01*
X410000D01*
Y906670D01*
G01X356830Y885330D02*
Y853330D01*
G01X410000Y970000D02*
X300000D01*
G01X410000Y939330D02*
Y1000670D01*
G01X263330Y1020000D02*
Y1100000D01*
G01X410000Y1116670D02*
X300000Y1150000D01*
X410000Y1183330D01*
G01X300000Y1240000D02*
X410000D01*
X388000Y1224000D01*
G01X300000D02*
Y1256000D01*
G01X410000Y1330000D02*
X406330Y1319330D01*
X397170Y1311330D01*
X386170Y1306000D01*
X371500Y1302000D01*
X355000Y1300670D01*
X338500Y1302000D01*
X323830Y1306000D01*
X312830Y1311330D01*
X303670Y1319330D01*
X300000Y1330000D01*
X303670Y1340670D01*
X312830Y1348670D01*
X323830Y1354000D01*
X338500Y1358000D01*
X355000Y1359330D01*
X371500Y1358000D01*
X386170Y1354000D01*
X397170Y1348670D01*
X406330Y1340670D01*
X410000Y1330000D01*
G01X358670Y1430670D02*
X364170Y1436000D01*
X373330Y1440000D01*
X386170Y1442670D01*
X397170Y1440000D01*
X404500Y1434670D01*
X410000Y1425330D01*
Y1389330D01*
X300000D01*
Y1433330D01*
X307330Y1442670D01*
X318330Y1448000D01*
X331170Y1450670D01*
X344000Y1448000D01*
X355000Y1440000D01*
X358670Y1430670D01*
Y1389330D01*
G01X296330Y1510000D02*
X298170Y1507330D01*
X301830D01*
X303670Y1510000D01*
X301830Y1512670D01*
X298170D01*
X296330Y1510000D01*
G01X358670Y1610670D02*
X364170Y1616000D01*
X373330Y1620000D01*
X386170Y1622670D01*
X397170Y1620000D01*
X404500Y1614670D01*
X410000Y1605330D01*
Y1569330D01*
X300000D01*
Y1613330D01*
X307330Y1622670D01*
X318330Y1628000D01*
X331170Y1630670D01*
X344000Y1628000D01*
X355000Y1620000D01*
X358670Y1610670D01*
Y1569330D01*
G01X300000Y1663330D02*
X410000D01*
Y1696670D01*
X404500Y1707330D01*
X397170Y1714000D01*
X382500Y1716670D01*
X367830Y1714000D01*
X358670Y1706000D01*
X353170Y1696670D01*
Y1663330D01*
G01Y1696670D02*
X300000Y1716670D01*
G01Y1750670D02*
X410000D01*
Y1777330D01*
X404500Y1788000D01*
X397170Y1796000D01*
X386170Y1802670D01*
X373330Y1808000D01*
X355000Y1809330D01*
X336670Y1808000D01*
X323830Y1802670D01*
X312830Y1796000D01*
X305500Y1788000D01*
X300000Y1777330D01*
Y1750670D01*
G01X1150670Y670830D02*
X1158670Y676330D01*
X1168000Y680000D01*
X1178670D01*
X1190670Y674500D01*
X1200000Y665330D01*
X1206670Y654330D01*
X1212000Y636000D01*
X1213330Y619500D01*
X1210670Y603000D01*
X1206670Y592000D01*
X1198670Y581000D01*
X1189330Y573670D01*
X1180000Y570000D01*
X1170670D01*
X1161330Y573670D01*
X1153330Y579160D01*
X1146670Y586500D01*
G01X1090000Y570000D02*
Y680000D01*
X1106000Y658000D01*
G01Y570000D02*
X1074000D01*
G01X1002670D02*
X1000000Y593830D01*
X996000Y614000D01*
X990670Y632330D01*
X984000Y652500D01*
X973330Y680000D01*
X1026670D01*
G01X1030000Y890670D02*
X951170D01*
X934660Y896000D01*
X923670Y906670D01*
X920000Y920000D01*
X923670Y933330D01*
X934660Y944000D01*
X951170Y949330D01*
X1030000D01*
G01X1011670Y984670D02*
X1022660Y992670D01*
X1028170Y1002000D01*
X1030000Y1012670D01*
X1026330Y1026000D01*
X1017170Y1035330D01*
X1006170Y1038000D01*
X995160Y1036670D01*
X986000Y1031330D01*
X967670Y1004670D01*
X954830Y992670D01*
X936500Y984670D01*
X920000Y982000D01*
Y1038000D01*
G01X1150670Y1320830D02*
X1158670Y1326330D01*
X1168000Y1330000D01*
X1178670D01*
X1190670Y1324500D01*
X1200000Y1315330D01*
X1206670Y1304330D01*
X1212000Y1286000D01*
X1213330Y1269500D01*
X1210670Y1253000D01*
X1206670Y1242000D01*
X1198670Y1231000D01*
X1189330Y1223670D01*
X1180000Y1220000D01*
X1170670D01*
X1161330Y1223670D01*
X1153330Y1229160D01*
X1146670Y1236500D01*
G01X1090000Y1220000D02*
Y1330000D01*
X1106000Y1308000D01*
G01Y1220000D02*
X1074000D01*
G01X1029330Y1236500D02*
X1021330Y1227330D01*
X1012000Y1221830D01*
X1000000Y1220000D01*
X988000Y1223670D01*
X978670Y1231000D01*
X972000Y1243830D01*
X970670Y1258500D01*
X973330Y1273170D01*
X980000Y1282330D01*
X989330Y1289670D01*
X998670Y1291500D01*
X1008000Y1289670D01*
X1020000Y1282330D01*
X1016000Y1330000D01*
X980000D01*
G01X1350830Y139330D02*
X1356330Y131330D01*
X1360000Y122000D01*
Y111330D01*
X1354500Y99330D01*
X1345330Y90000D01*
X1334330Y83330D01*
X1316000Y78000D01*
X1299500Y76670D01*
X1283000Y79330D01*
X1272000Y83330D01*
X1261000Y91330D01*
X1253670Y100670D01*
X1250000Y110000D01*
Y119330D01*
X1253670Y128670D01*
X1259160Y136670D01*
X1266500Y143330D01*
G01X1250000Y200000D02*
X1360000D01*
X1338000Y184000D01*
G01X1250000D02*
Y216000D01*
G01Y290000D02*
X1251830Y299330D01*
X1257330Y310000D01*
X1266500Y316670D01*
X1279330Y319330D01*
X1292160Y316670D01*
X1303170Y308670D01*
X1308670Y296670D01*
Y283330D01*
X1312330Y275330D01*
X1321500Y268670D01*
X1334330Y266000D01*
X1347170Y270000D01*
X1356330Y279330D01*
X1360000Y290000D01*
X1356330Y300670D01*
X1347170Y310000D01*
X1334330Y314000D01*
X1321500Y311330D01*
X1312330Y304670D01*
X1308670Y296670D01*
Y283330D01*
X1303170Y271330D01*
X1292160Y263330D01*
X1279330Y260670D01*
X1266500Y263330D01*
X1257330Y270000D01*
X1251830Y280670D01*
X1250000Y290000D01*
G01X1630830Y139330D02*
X1636330Y131330D01*
X1640000Y122000D01*
Y111330D01*
X1634500Y99330D01*
X1625330Y90000D01*
X1614330Y83330D01*
X1596000Y78000D01*
X1579500Y76670D01*
X1563000Y79330D01*
X1552000Y83330D01*
X1541000Y91330D01*
X1533670Y100670D01*
X1530000Y110000D01*
Y119330D01*
X1533670Y128670D01*
X1539160Y136670D01*
X1546500Y143330D01*
G01Y170670D02*
X1537330Y178670D01*
X1531830Y188000D01*
X1530000Y200000D01*
X1533670Y212000D01*
X1541000Y221330D01*
X1553830Y228000D01*
X1568500Y229330D01*
X1583170Y226670D01*
X1592330Y220000D01*
X1599670Y210670D01*
X1601500Y201330D01*
X1599670Y192000D01*
X1592330Y180000D01*
X1640000Y184000D01*
Y220000D01*
G01X1390000Y93330D02*
X1500000D01*
Y126670D01*
X1494500Y137330D01*
X1487170Y144000D01*
X1472500Y146670D01*
X1457830Y144000D01*
X1448670Y136000D01*
X1443170Y126670D01*
Y93330D01*
G01Y126670D02*
X1390000Y146670D01*
G01X1412000Y180670D02*
X1399160Y188670D01*
X1391830Y199330D01*
X1390000Y211330D01*
X1391830Y222000D01*
X1401000Y232670D01*
X1412000Y239330D01*
X1423000Y240670D01*
X1435830Y238000D01*
X1445000Y228670D01*
X1448670Y219330D01*
Y207330D01*
G01Y219330D02*
X1454170Y227330D01*
X1463330Y234000D01*
X1474330Y236670D01*
X1485330Y234000D01*
X1494500Y227330D01*
X1500000Y215330D01*
X1498170Y203330D01*
X1490830Y191330D01*
G01X1560670Y560830D02*
X1568670Y566330D01*
X1578000Y570000D01*
X1588670D01*
X1600670Y564500D01*
X1610000Y555330D01*
X1616670Y544330D01*
X1622000Y526000D01*
X1623330Y509500D01*
X1620670Y493000D01*
X1616670Y482000D01*
X1608670Y471000D01*
X1599330Y463670D01*
X1590000Y460000D01*
X1580670D01*
X1571330Y463670D01*
X1563330Y469160D01*
X1556670Y476500D01*
G01X1529330Y482000D02*
X1521330Y469160D01*
X1510670Y461830D01*
X1498670Y460000D01*
X1488000Y461830D01*
X1477330Y471000D01*
X1470670Y482000D01*
X1469330Y493000D01*
X1472000Y505830D01*
X1481330Y515000D01*
X1490670Y518670D01*
X1502670D01*
G01X1490670D02*
X1482670Y524170D01*
X1476000Y533330D01*
X1473330Y544330D01*
X1476000Y555330D01*
X1482670Y564500D01*
X1494670Y570000D01*
X1506670Y568170D01*
X1518670Y560830D01*
G01X1560670Y700830D02*
X1568670Y706330D01*
X1578000Y710000D01*
X1588670D01*
X1600670Y704500D01*
X1610000Y695330D01*
X1616670Y684330D01*
X1622000Y666000D01*
X1623330Y649500D01*
X1620670Y633000D01*
X1616670Y622000D01*
X1608670Y611000D01*
X1599330Y603670D01*
X1590000Y600000D01*
X1580670D01*
X1571330Y603670D01*
X1563330Y609160D01*
X1556670Y616500D01*
G01X1484000Y600000D02*
Y710000D01*
X1533330Y631170D01*
X1466670D01*
G01X2060000Y433330D02*
X2170000D01*
Y466670D01*
X2164500Y477330D01*
X2157170Y484000D01*
X2142500Y486670D01*
X2127830Y484000D01*
X2118670Y476000D01*
X2113170Y466670D01*
Y433330D01*
G01Y466670D02*
X2060000Y486670D01*
G01Y566000D02*
X2170000D01*
X2091170Y516670D01*
Y583330D01*
G01X2450830Y479330D02*
X2456330Y471330D01*
X2460000Y462000D01*
Y451330D01*
X2454500Y439330D01*
X2445330Y430000D01*
X2434330Y423330D01*
X2416000Y418000D01*
X2399500Y416670D01*
X2383000Y419330D01*
X2372000Y423330D01*
X2361000Y431330D01*
X2353670Y440670D01*
X2350000Y450000D01*
Y459330D01*
X2353670Y468670D01*
X2359160Y476670D01*
X2366500Y483330D01*
G01X2395830Y514670D02*
X2408670Y524000D01*
X2416000Y532000D01*
X2419670Y542670D01*
X2416000Y552000D01*
X2408670Y558670D01*
X2397670Y564000D01*
X2384830Y565330D01*
X2373830Y564000D01*
X2362830Y558670D01*
X2353670Y550670D01*
X2350000Y541330D01*
X2353670Y530670D01*
X2364660Y521330D01*
X2381170Y516000D01*
X2399500Y514670D01*
X2423330Y517330D01*
X2436170Y521330D01*
X2449000Y528000D01*
X2458170Y537330D01*
X2460000Y546670D01*
X2456330Y556000D01*
X2447170Y562670D01*
G01X2600830Y479330D02*
X2606330Y471330D01*
X2610000Y462000D01*
Y451330D01*
X2604500Y439330D01*
X2595330Y430000D01*
X2584330Y423330D01*
X2566000Y418000D01*
X2549500Y416670D01*
X2533000Y419330D01*
X2522000Y423330D01*
X2511000Y431330D01*
X2503670Y440670D01*
X2500000Y450000D01*
Y459330D01*
X2503670Y468670D01*
X2509160Y476670D01*
X2516500Y483330D01*
G01X2500000Y540000D02*
X2610000D01*
X2588000Y524000D01*
G01X2500000D02*
Y556000D01*
G01X2522000Y600670D02*
X2509160Y608670D01*
X2501830Y619330D01*
X2500000Y631330D01*
X2501830Y642000D01*
X2511000Y652670D01*
X2522000Y659330D01*
X2533000Y660670D01*
X2545830Y658000D01*
X2555000Y648670D01*
X2558670Y639330D01*
Y627330D01*
G01Y639330D02*
X2564170Y647330D01*
X2573330Y654000D01*
X2584330Y656670D01*
X2595330Y654000D01*
X2604500Y647330D01*
X2610000Y635330D01*
X2608170Y623330D01*
X2600830Y611330D01*
G01X2660000Y423330D02*
X2770000D01*
Y456670D01*
X2764500Y467330D01*
X2757170Y474000D01*
X2742500Y476670D01*
X2727830Y474000D01*
X2718670Y466000D01*
X2713170Y456670D01*
Y423330D01*
G01Y456670D02*
X2660000Y476670D01*
G01Y540000D02*
X2770000D01*
X2748000Y524000D01*
G01X2660000D02*
Y556000D01*
G01X2705830Y604670D02*
X2718670Y614000D01*
X2726000Y622000D01*
X2729670Y632670D01*
X2726000Y642000D01*
X2718670Y648670D01*
X2707670Y654000D01*
X2694830Y655330D01*
X2683830Y654000D01*
X2672830Y648670D01*
X2663670Y640670D01*
X2660000Y631330D01*
X2663670Y620670D01*
X2674660Y611330D01*
X2691170Y606000D01*
X2709500Y604670D01*
X2733330Y607330D01*
X2746170Y611330D01*
X2759000Y618000D01*
X2768170Y627330D01*
X2770000Y636670D01*
X2766330Y646000D01*
X2757170Y652670D01*
G01X2210000Y433330D02*
X2320000D01*
Y466670D01*
X2314500Y477330D01*
X2307170Y484000D01*
X2292500Y486670D01*
X2277830Y484000D01*
X2268670Y476000D01*
X2263170Y466670D01*
Y433330D01*
G01Y466670D02*
X2210000Y486670D01*
G01X2226500Y520670D02*
X2217330Y528670D01*
X2211830Y538000D01*
X2210000Y550000D01*
X2213670Y562000D01*
X2221000Y571330D01*
X2233830Y578000D01*
X2248500Y579330D01*
X2263170Y576670D01*
X2272330Y570000D01*
X2279670Y560670D01*
X2281500Y551330D01*
X2279670Y542000D01*
X2272330Y530000D01*
X2320000Y534000D01*
Y570000D01*
G01X2590000Y1333330D02*
X2700000D01*
Y1366670D01*
X2694500Y1377330D01*
X2687170Y1384000D01*
X2672500Y1386670D01*
X2657830Y1384000D01*
X2648670Y1376000D01*
X2643170Y1366670D01*
Y1333330D01*
G01Y1366670D02*
X2590000Y1386670D01*
G01X2604660Y1422000D02*
X2595500Y1432670D01*
X2590000Y1444670D01*
Y1455330D01*
X2595500Y1466000D01*
X2604660Y1474000D01*
X2617500Y1478000D01*
X2630330Y1475330D01*
X2641330Y1468670D01*
X2648670Y1456670D01*
X2652330Y1440670D01*
X2659670Y1431330D01*
X2672500Y1427330D01*
X2685330Y1430000D01*
X2694500Y1436670D01*
X2700000Y1446000D01*
Y1455330D01*
X2696330Y1464670D01*
X2687170Y1472670D01*
G01X2700000Y1540000D02*
X2590000D01*
G01X2700000Y1509330D02*
Y1570670D01*
G01X3200830Y479330D02*
X3206330Y471330D01*
X3210000Y462000D01*
Y451330D01*
X3204500Y439330D01*
X3195330Y430000D01*
X3184330Y423330D01*
X3166000Y418000D01*
X3149500Y416670D01*
X3133000Y419330D01*
X3122000Y423330D01*
X3111000Y431330D01*
X3103670Y440670D01*
X3100000Y450000D01*
Y459330D01*
X3103670Y468670D01*
X3109160Y476670D01*
X3116500Y483330D01*
G01X3100000Y540000D02*
X3210000D01*
X3188000Y524000D01*
G01X3100000D02*
Y556000D01*
G01X3210000Y630000D02*
X3206330Y619330D01*
X3197170Y611330D01*
X3186170Y606000D01*
X3171500Y602000D01*
X3155000Y600670D01*
X3138500Y602000D01*
X3123830Y606000D01*
X3112830Y611330D01*
X3103670Y619330D01*
X3100000Y630000D01*
X3103670Y640670D01*
X3112830Y648670D01*
X3123830Y654000D01*
X3138500Y658000D01*
X3155000Y659330D01*
X3171500Y658000D01*
X3186170Y654000D01*
X3197170Y648670D01*
X3206330Y640670D01*
X3210000Y630000D01*
G01X3050830Y479330D02*
X3056330Y471330D01*
X3060000Y462000D01*
Y451330D01*
X3054500Y439330D01*
X3045330Y430000D01*
X3034330Y423330D01*
X3016000Y418000D01*
X2999500Y416670D01*
X2983000Y419330D01*
X2972000Y423330D01*
X2961000Y431330D01*
X2953670Y440670D01*
X2950000Y450000D01*
Y459330D01*
X2953670Y468670D01*
X2959160Y476670D01*
X2966500Y483330D01*
G01X2950000Y537330D02*
X2973830Y540000D01*
X2994000Y544000D01*
X3012330Y549330D01*
X3032500Y556000D01*
X3060000Y566670D01*
Y513330D01*
G01X2810000Y423330D02*
X2920000D01*
Y456670D01*
X2914500Y467330D01*
X2907170Y474000D01*
X2892500Y476670D01*
X2877830Y474000D01*
X2868670Y466000D01*
X2863170Y456670D01*
Y423330D01*
G01Y456670D02*
X2810000Y476670D01*
G01Y540000D02*
X2920000D01*
X2898000Y524000D01*
G01X2810000D02*
Y556000D01*
G01X2826500Y600670D02*
X2817330Y608670D01*
X2811830Y618000D01*
X2810000Y630000D01*
X2813670Y642000D01*
X2821000Y651330D01*
X2833830Y658000D01*
X2848500Y659330D01*
X2863170Y656670D01*
X2872330Y650000D01*
X2879670Y640670D01*
X2881500Y631330D01*
X2879670Y622000D01*
X2872330Y610000D01*
X2920000Y614000D01*
Y650000D01*
G01X3112000Y1330670D02*
X3099160Y1338670D01*
X3091830Y1349330D01*
X3090000Y1361330D01*
X3091830Y1372000D01*
X3101000Y1382670D01*
X3112000Y1389330D01*
X3123000Y1390670D01*
X3135830Y1388000D01*
X3145000Y1378670D01*
X3148670Y1369330D01*
Y1357330D01*
G01Y1369330D02*
X3154170Y1377330D01*
X3163330Y1384000D01*
X3174330Y1386670D01*
X3185330Y1384000D01*
X3194500Y1377330D01*
X3200000Y1365330D01*
X3198170Y1353330D01*
X3190830Y1341330D01*
G01X3200000Y1416670D02*
X3090000Y1450000D01*
X3200000Y1483330D01*
G01X3112000Y1510670D02*
X3099160Y1518670D01*
X3091830Y1529330D01*
X3090000Y1541330D01*
X3091830Y1552000D01*
X3101000Y1562670D01*
X3112000Y1569330D01*
X3123000Y1570670D01*
X3135830Y1568000D01*
X3145000Y1558670D01*
X3148670Y1549330D01*
Y1537330D01*
G01Y1549330D02*
X3154170Y1557330D01*
X3163330Y1564000D01*
X3174330Y1566670D01*
X3185330Y1564000D01*
X3194500Y1557330D01*
X3200000Y1545330D01*
X3198170Y1533330D01*
X3190830Y1521330D01*
G01X2950000Y1360000D02*
X2840000D01*
G01X2950000Y1329330D02*
Y1390670D01*
G01X2854660Y1422000D02*
X2845500Y1432670D01*
X2840000Y1444670D01*
Y1455330D01*
X2845500Y1466000D01*
X2854660Y1474000D01*
X2867500Y1478000D01*
X2880330Y1475330D01*
X2891330Y1468670D01*
X2898670Y1456670D01*
X2902330Y1440670D01*
X2909670Y1431330D01*
X2922500Y1427330D01*
X2935330Y1430000D01*
X2944500Y1436670D01*
X2950000Y1446000D01*
Y1455330D01*
X2946330Y1464670D01*
X2937170Y1472670D01*
G01X2950000Y1540000D02*
X2840000D01*
G01X2950000Y1509330D02*
Y1570670D01*
G01X3510830Y479330D02*
X3516330Y471330D01*
X3520000Y462000D01*
Y451330D01*
X3514500Y439330D01*
X3505330Y430000D01*
X3494330Y423330D01*
X3476000Y418000D01*
X3459500Y416670D01*
X3443000Y419330D01*
X3432000Y423330D01*
X3421000Y431330D01*
X3413670Y440670D01*
X3410000Y450000D01*
Y459330D01*
X3413670Y468670D01*
X3419160Y476670D01*
X3426500Y483330D01*
G01X3410000Y540000D02*
X3520000D01*
X3498000Y524000D01*
G01X3410000D02*
Y556000D01*
G01X3501670Y604670D02*
X3512660Y612670D01*
X3518170Y622000D01*
X3520000Y632670D01*
X3516330Y646000D01*
X3507170Y655330D01*
X3496170Y658000D01*
X3485160Y656670D01*
X3476000Y651330D01*
X3457670Y624670D01*
X3444830Y612670D01*
X3426500Y604670D01*
X3410000Y602000D01*
Y658000D01*
G01X3350830Y479330D02*
X3356330Y471330D01*
X3360000Y462000D01*
Y451330D01*
X3354500Y439330D01*
X3345330Y430000D01*
X3334330Y423330D01*
X3316000Y418000D01*
X3299500Y416670D01*
X3283000Y419330D01*
X3272000Y423330D01*
X3261000Y431330D01*
X3253670Y440670D01*
X3250000Y450000D01*
Y459330D01*
X3253670Y468670D01*
X3259160Y476670D01*
X3266500Y483330D01*
G01X3262830Y517330D02*
X3253670Y526670D01*
X3250000Y537330D01*
X3253670Y548000D01*
X3264660Y557330D01*
X3281170Y564000D01*
X3297670Y566670D01*
X3317830D01*
X3334330Y564000D01*
X3349000Y557330D01*
X3356330Y549330D01*
X3360000Y540000D01*
X3356330Y529330D01*
X3349000Y521330D01*
X3338000Y516000D01*
X3323330Y513330D01*
X3310500Y516000D01*
X3297670Y522670D01*
X3290330Y530670D01*
X3288500Y540000D01*
X3292160Y550670D01*
X3301330Y558670D01*
X3317830Y566670D01*
G01X3816670Y530000D02*
Y640000D01*
X3783330D01*
X3772670Y634500D01*
X3766000Y627170D01*
X3763330Y612500D01*
X3766000Y597830D01*
X3774000Y588670D01*
X3783330Y583170D01*
X3816670D01*
G01X3783330D02*
X3763330Y530000D01*
G01X3700000D02*
Y640000D01*
X3716000Y618000D01*
G01Y530000D02*
X3684000D01*
G01X3639330Y552000D02*
X3631330Y539160D01*
X3620670Y531830D01*
X3608670Y530000D01*
X3598000Y531830D01*
X3587330Y541000D01*
X3580670Y552000D01*
X3579330Y563000D01*
X3582000Y575830D01*
X3591330Y585000D01*
X3600670Y588670D01*
X3612670D01*
G01X3600670D02*
X3592670Y594170D01*
X3586000Y603330D01*
X3583330Y614330D01*
X3586000Y625330D01*
X3592670Y634500D01*
X3604670Y640000D01*
X3616670Y638170D01*
X3628670Y630830D01*
G01X3816670Y380000D02*
Y490000D01*
X3783330D01*
X3772670Y484500D01*
X3766000Y477170D01*
X3763330Y462500D01*
X3766000Y447830D01*
X3774000Y438670D01*
X3783330Y433170D01*
X3816670D01*
G01X3783330D02*
X3763330Y380000D01*
G01X3700000D02*
Y490000D01*
X3716000Y468000D01*
G01Y380000D02*
X3684000D01*
G01X3594000D02*
Y490000D01*
X3643330Y411170D01*
X3576670D01*
G01X3816670Y680000D02*
Y790000D01*
X3783330D01*
X3772670Y784500D01*
X3766000Y777170D01*
X3763330Y762500D01*
X3766000Y747830D01*
X3774000Y738670D01*
X3783330Y733170D01*
X3816670D01*
G01X3783330D02*
X3763330Y680000D01*
G01X3700000D02*
Y790000D01*
X3716000Y768000D01*
G01Y680000D02*
X3684000D01*
G01X3610000D02*
Y790000D01*
X3626000Y768000D01*
G01Y680000D02*
X3594000D01*
G01X3816670Y830000D02*
Y940000D01*
X3783330D01*
X3772670Y934500D01*
X3766000Y927170D01*
X3763330Y912500D01*
X3766000Y897830D01*
X3774000Y888670D01*
X3783330Y883170D01*
X3816670D01*
G01X3783330D02*
X3763330Y830000D01*
G01X3700000D02*
Y940000D01*
X3716000Y918000D01*
G01Y830000D02*
X3684000D01*
G01X3635330Y921670D02*
X3627330Y932660D01*
X3618000Y938170D01*
X3607330Y940000D01*
X3594000Y936330D01*
X3584670Y927170D01*
X3582000Y916170D01*
X3583330Y905160D01*
X3588670Y896000D01*
X3615330Y877670D01*
X3627330Y864830D01*
X3635330Y846500D01*
X3638000Y830000D01*
X3582000D01*
G01X3816670Y980000D02*
Y1090000D01*
X3783330D01*
X3772670Y1084500D01*
X3766000Y1077170D01*
X3763330Y1062500D01*
X3766000Y1047830D01*
X3774000Y1038670D01*
X3783330Y1033170D01*
X3816670D01*
G01X3783330D02*
X3763330Y980000D01*
G01X3700000D02*
X3690670Y981830D01*
X3680000Y987330D01*
X3673330Y996500D01*
X3670670Y1009330D01*
X3673330Y1022160D01*
X3681330Y1033170D01*
X3693330Y1038670D01*
X3706670D01*
X3714670Y1042330D01*
X3721330Y1051500D01*
X3724000Y1064330D01*
X3720000Y1077170D01*
X3710670Y1086330D01*
X3700000Y1090000D01*
X3689330Y1086330D01*
X3680000Y1077170D01*
X3676000Y1064330D01*
X3678670Y1051500D01*
X3685330Y1042330D01*
X3693330Y1038670D01*
X3706670D01*
X3718670Y1033170D01*
X3726670Y1022160D01*
X3729330Y1009330D01*
X3726670Y996500D01*
X3720000Y987330D01*
X3709330Y981830D01*
X3700000Y980000D01*
G01X3816670Y1130000D02*
Y1240000D01*
X3783330D01*
X3772670Y1234500D01*
X3766000Y1227170D01*
X3763330Y1212500D01*
X3766000Y1197830D01*
X3774000Y1188670D01*
X3783330Y1183170D01*
X3816670D01*
G01X3783330D02*
X3763330Y1130000D01*
G01X3725330Y1175830D02*
X3716000Y1188670D01*
X3708000Y1196000D01*
X3697330Y1199670D01*
X3688000Y1196000D01*
X3681330Y1188670D01*
X3676000Y1177670D01*
X3674670Y1164830D01*
X3676000Y1153830D01*
X3681330Y1142830D01*
X3689330Y1133670D01*
X3698670Y1130000D01*
X3709330Y1133670D01*
X3718670Y1144660D01*
X3724000Y1161170D01*
X3725330Y1179500D01*
X3722670Y1203330D01*
X3718670Y1216170D01*
X3712000Y1229000D01*
X3702670Y1238170D01*
X3693330Y1240000D01*
X3684000Y1236330D01*
X3677330Y1227170D01*
G01X3395000Y1368000D02*
Y1394670D01*
X3362000D01*
X3351000Y1386670D01*
X3343670Y1377330D01*
X3340000Y1364000D01*
X3343670Y1350670D01*
X3351000Y1341330D01*
X3362000Y1333330D01*
X3374830Y1328000D01*
X3389500Y1325330D01*
X3402330D01*
X3413330Y1328000D01*
X3426170Y1333330D01*
X3437170Y1341330D01*
X3444500Y1349330D01*
X3450000Y1360000D01*
Y1369330D01*
X3446330Y1380000D01*
X3439000Y1388000D01*
G01X3340000Y1419330D02*
X3450000D01*
X3340000Y1480670D01*
X3450000D01*
G01X3340000Y1510670D02*
X3450000D01*
Y1537330D01*
X3444500Y1548000D01*
X3437170Y1556000D01*
X3426170Y1562670D01*
X3413330Y1568000D01*
X3395000Y1569330D01*
X3376670Y1568000D01*
X3363830Y1562670D01*
X3352830Y1556000D01*
X3345500Y1548000D01*
X3340000Y1537330D01*
Y1510670D01*
G01X3816670Y1580000D02*
Y1690000D01*
X3783330D01*
X3772670Y1684500D01*
X3766000Y1677170D01*
X3763330Y1662500D01*
X3766000Y1647830D01*
X3774000Y1638670D01*
X3783330Y1633170D01*
X3816670D01*
G01X3783330D02*
X3763330Y1580000D01*
G01X3702670D02*
X3700000Y1603830D01*
X3696000Y1624000D01*
X3690670Y1642330D01*
X3684000Y1662500D01*
X3673330Y1690000D01*
X3726670D01*
G01X3816670Y1430000D02*
Y1540000D01*
X3783330D01*
X3772670Y1534500D01*
X3766000Y1527170D01*
X3763330Y1512500D01*
X3766000Y1497830D01*
X3774000Y1488670D01*
X3783330Y1483170D01*
X3816670D01*
G01X3783330D02*
X3763330Y1430000D01*
G01X3722670Y1442830D02*
X3713330Y1433670D01*
X3702670Y1430000D01*
X3692000Y1433670D01*
X3682670Y1444660D01*
X3676000Y1461170D01*
X3673330Y1477670D01*
Y1497830D01*
X3676000Y1514330D01*
X3682670Y1529000D01*
X3690670Y1536330D01*
X3700000Y1540000D01*
X3710670Y1536330D01*
X3718670Y1529000D01*
X3724000Y1518000D01*
X3726670Y1503330D01*
X3724000Y1490500D01*
X3717330Y1477670D01*
X3709330Y1470330D01*
X3700000Y1468500D01*
X3689330Y1472160D01*
X3681330Y1481330D01*
X3673330Y1497830D01*
G01X3816670Y1280000D02*
Y1390000D01*
X3783330D01*
X3772670Y1384500D01*
X3766000Y1377170D01*
X3763330Y1362500D01*
X3766000Y1347830D01*
X3774000Y1338670D01*
X3783330Y1333170D01*
X3816670D01*
G01X3783330D02*
X3763330Y1280000D01*
G01X3700000D02*
Y1390000D01*
X3716000Y1368000D01*
G01Y1280000D02*
X3684000D01*
G01X3610000Y1390000D02*
X3620670Y1386330D01*
X3628670Y1377170D01*
X3634000Y1366170D01*
X3638000Y1351500D01*
X3639330Y1335000D01*
X3638000Y1318500D01*
X3634000Y1303830D01*
X3628670Y1292830D01*
X3620670Y1283670D01*
X3610000Y1280000D01*
X3599330Y1283670D01*
X3591330Y1292830D01*
X3586000Y1303830D01*
X3582000Y1318500D01*
X3580670Y1335000D01*
X3582000Y1351500D01*
X3586000Y1366170D01*
X3591330Y1377170D01*
X3599330Y1386330D01*
X3610000Y1390000D01*
G01X3770670Y1830830D02*
X3778670Y1836330D01*
X3788000Y1840000D01*
X3798670D01*
X3810670Y1834500D01*
X3820000Y1825330D01*
X3826670Y1814330D01*
X3832000Y1796000D01*
X3833330Y1779500D01*
X3830670Y1763000D01*
X3826670Y1752000D01*
X3818670Y1741000D01*
X3809330Y1733670D01*
X3800000Y1730000D01*
X3790670D01*
X3781330Y1733670D01*
X3773330Y1739160D01*
X3766670Y1746500D01*
G01X3710000Y1730000D02*
Y1840000D01*
X3726000Y1818000D01*
G01Y1730000D02*
X3694000D01*
G01X3620000D02*
Y1840000D01*
X3636000Y1818000D01*
G01Y1730000D02*
X3604000D01*
G01X4030000Y83330D02*
X4140000D01*
Y116670D01*
X4134500Y127330D01*
X4127170Y134000D01*
X4112500Y136670D01*
X4097830Y134000D01*
X4088670Y126000D01*
X4083170Y116670D01*
Y83330D01*
G01Y116670D02*
X4030000Y136670D01*
G01Y200000D02*
X4140000D01*
X4118000Y184000D01*
G01X4030000D02*
Y216000D01*
G01Y287330D02*
X4053830Y290000D01*
X4074000Y294000D01*
X4092330Y299330D01*
X4112500Y306000D01*
X4140000Y316670D01*
Y263330D01*
G01X4180000Y83330D02*
X4290000D01*
Y116670D01*
X4284500Y127330D01*
X4277170Y134000D01*
X4262500Y136670D01*
X4247830Y134000D01*
X4238670Y126000D01*
X4233170Y116670D01*
Y83330D01*
G01Y116670D02*
X4180000Y136670D01*
G01Y200000D02*
X4290000D01*
X4268000Y184000D01*
G01X4180000D02*
Y216000D01*
G01Y290000D02*
X4181830Y299330D01*
X4187330Y310000D01*
X4196500Y316670D01*
X4209330Y319330D01*
X4222160Y316670D01*
X4233170Y308670D01*
X4238670Y296670D01*
Y283330D01*
X4242330Y275330D01*
X4251500Y268670D01*
X4264330Y266000D01*
X4277170Y270000D01*
X4286330Y279330D01*
X4290000Y290000D01*
X4286330Y300670D01*
X4277170Y310000D01*
X4264330Y314000D01*
X4251500Y311330D01*
X4242330Y304670D01*
X4238670Y296670D01*
Y283330D01*
X4233170Y271330D01*
X4222160Y263330D01*
X4209330Y260670D01*
X4196500Y263330D01*
X4187330Y270000D01*
X4181830Y280670D01*
X4180000Y290000D01*
G54D13*
X1320000Y835000D03*
X1520000Y1085000D03*
X1320000D03*
G54D14*
X1520000Y835000D03*
G54D15*
X1750000Y145860D03*
Y354140D03*
G54D16*
X2080000Y133800D03*
X1930000D03*
X2080000Y286200D03*
X1930000D03*
X2530000Y133800D03*
X2680000D03*
X2230000D03*
X2380000D03*
X2530000Y286200D03*
X2680000D03*
X2230000D03*
X2380000D03*
X3130000Y133800D03*
X2980000D03*
X2830000D03*
X3130000Y286200D03*
X2980000D03*
X2830000D03*
X3590000Y133800D03*
X3280000D03*
X3430000D03*
X3590000Y286200D03*
X3280000D03*
X3430000D03*
X3790000Y123800D03*
X3940000D03*
X3790000Y276200D03*
X3940000D03*
G54D17*
X1896200Y560000D03*
X1743800D03*
X1896200Y710000D03*
X1743800D03*
X3943800Y580000D03*
X4096200D03*
X3943800Y430000D03*
X4096200D03*
X3943800Y880000D03*
X4096200D03*
X3943800Y1030000D03*
X4096200D03*
X3943800Y730000D03*
X4096200D03*
X3943800Y1180000D03*
X4096200D03*
X3943800Y1630000D03*
X4096200D03*
X3943800Y1480000D03*
X4096200D03*
X3943800Y1330000D03*
X4096200D03*
X3943800Y1780000D03*
X4096200D03*
G54D18*
X2639000Y1720000D03*
X2893000D03*
X3147000D03*
X4654000Y196000D03*
X4400000D03*
X4654000Y450000D03*
X4400000D03*
X4654000Y704000D03*
X4400000D03*
X4654000Y958000D03*
X4400000D03*
X4654000Y1212000D03*
X4400000D03*
X4654000Y1466000D03*
X4400000D03*
X4654000Y1720000D03*
X4400000D03*
G54D19*
X3401000D03*
M02*
