M48
METRIC,TZ
T01C.3048
T02C.4572
T03C.889
T04C.9
T05C2.3
;LEADER: 12 
;HEADER: 
;CODE  : ASCII 
;FILE  : EZFET_V10B-1-2.drl for board H:/MBED-TOOLS/HARDWARE/EZFET_V10B/PCB/#Taaaaan04600.tmp ... layers TOP and BOTTOM
;T01 Holesize 1. = 0.304800 Tolerance = +0.000000/-0.000000 PLATED MM Quantity = 92
;T02 Holesize 2. = 0.457200 Tolerance = +0.000000/-0.000000 PLATED MM Quantity = 5
;T03 Holesize 3. = 0.889000 Tolerance = +0.000000/-0.000000 PLATED MM Quantity = 18
;T04 Holesize 4. = 0.900000 Tolerance = +0.000000/-0.000000 PLATED MM Quantity = 4
;T05 Holesize 5. = 2.300000 Tolerance = +0.000000/-0.000000 PLATED MM Quantity = 2
%
G90
T01
X203210Y128680
X403210Y128680
X203210Y328680
X403210Y328680
X203210Y528680
X403210Y528680
X203210Y728680
X403210Y728680
X203210Y928680
X403210Y928680
X203210Y1128680
X403210Y1128680
X203210Y1328680
X403210Y1328680
X203210Y1528680
X403210Y1528680
X203210Y1728680
X403210Y1728680
X613210Y1728680
X613210Y1528680
X958680Y1066790
X958680Y856790
X1313210Y248680
X1473210Y1418680
X1473210Y1608680
X1473210Y1808680
X1883210Y1808680
X1673210Y1808680
X1883210Y1608680
X1673210Y1608680
X1683210Y1418680
X1870000Y1260000
X1983210Y1088680
X1773210Y1088680
X1983210Y938680
X2030000Y430000
X1870000Y430000
X1523210Y248680
X1620000Y150000
X2150000Y410000
X2340000Y410000
X2193210Y938680
X2462710Y1050000
X2460000Y1150000
X2090000Y1260000
X2460000Y1390000
X2450000Y1490000
X2113210Y1808680
X2323210Y1808680
X2840000Y1570000
X2930000Y1351620
X2835000Y1350000
X2655000Y1275000
X2655000Y1175000
X2730000Y875000
X3008680Y706790
X2808680Y706790
X2660000Y670000
X2685000Y415000
X3008100Y408100
X2850000Y410000
X2580000Y410000
X3240000Y440000
X3208680Y706790
X3323210Y798680
X3323210Y998680
X3323210Y1198680
X3808680Y1766790
X3608680Y1766790
X3830000Y1630000
X3840000Y880000
X3840000Y800000
X3840000Y680000
X3840000Y530000
X3730000Y480000
X3660000Y420000
X3580000Y420000
X3690000Y210000
X4043800Y123800
X4170000Y120000
X4173210Y288680
X4200000Y730000
X4200000Y1020000
X4903210Y1748680
X4903210Y1548680
X4903210Y1348680
X4903210Y1148680
X4903210Y948680
X4903210Y748680
X4903210Y548680
X4903210Y348680
X4903210Y148680
T02
X2920000Y910000
X3100000Y910000
X3010000Y1000000
X2920000Y1100000
X3100000Y1100000
T03
X2639000Y1720000
X2893000Y1720000
X3147000Y1720000
X3401000Y1720000
X4400000Y1720000
X4400000Y1466000
X4400000Y1212000
X4400000Y958000
X4400000Y704000
X4400000Y450000
X4400000Y196000
X4654000Y196000
X4654000Y450000
X4654000Y704000
X4654000Y958000
X4654000Y1212000
X4654000Y1466000
X4654000Y1720000
T04
X1320000Y835000
X1520000Y835000
X1520000Y1085000
X1320000Y1085000
T05
X1049000Y358000
X1049000Y1562000
M30
