G04 ================== begin FILE IDENTIFICATION RECORD ==================*
G04 Layout Name:  H:/MBED-TOOLS/HARDWARE/EZFET_V10B/PCB/EZFET_V10B.brd*
G04 Film Name:    SolderMask_Top*
G04 File Format:  Gerber RS274X*
G04 File Origin:  Cadence Allegro 17.2-S037*
G04 Origin Date:  Fri May 18 10:52:10 2018*
G04 *
G04 Layer:  BOARD GEOMETRY/OUTLINE*
G04 Layer:  PIN/SOLDERMASK_TOP*
G04 Layer:  PACKAGE GEOMETRY/SOLDERMASK_TOP*
G04 Layer:  BOARD GEOMETRY/SOLDERMASK_TOP*
G04 *
G04 Offset:    (0.0000 0.0000)*
G04 Mirror:    No*
G04 Mode:      Positive*
G04 Rotation:  0*
G04 FullContactRelief:  No*
G04 UndefLineWidth:     0.1524*
G04 ================== end FILE IDENTIFICATION RECORD ====================*
%FSLAX55Y55*MOMM*%
%IR0*IPPOS*OFA0.00000B0.00000*MIA0B0*SFA1.00000B1.00000*%
%ADD15R,.9144X.9144*%
%ADD14R,1.0668X.6858*%
%ADD13R,1.2X2.3*%
%ADD20R,4.2X4.2*%
%ADD11C,1.7*%
%ADD10C,3.5*%
%ADD19R,1.2192X1.4224*%
%ADD18C,1.905*%
%ADD12R,1.7X1.7*%
%ADD16R,.95X.38*%
%ADD17R,.38X.95*%
%ADD21R,1.905X1.905*%
%ADD22C,.1524*%
G75*
%LPD*%
G75*
G54D10*
X1049000Y358000D03*
Y1562000D03*
G54D11*
X1320000Y835000D03*
X1520000Y1085000D03*
X1320000D03*
G54D20*
X3010000Y1000000D03*
G54D21*
X3401000Y1720000D03*
G54D12*
X1520000Y835000D03*
G54D22*
G01X4800000Y1900000D02*
X200000D01*
G03X0Y1700000I0J-200000D01*
G01Y200000D01*
G03X200000Y0I200000J0D01*
G01X4800000D01*
G03X5000000Y200000I0J200000D01*
G01Y1700000D01*
G03X4800000Y1900000I-200000J0D01*
G54D13*
X2160000Y700000D03*
X2010000D03*
X2310000D03*
G54D14*
X1760780Y1196500D03*
Y1260000D03*
Y1323500D03*
X1979220D03*
Y1260000D03*
Y1196500D03*
G54D15*
X1893800Y1490000D03*
X2046200D03*
X2346200Y1040000D03*
X2193800D03*
Y1190000D03*
X2346200D03*
X2193800Y1640000D03*
X2346200D03*
X2193800Y1340000D03*
X2346200D03*
X2193800Y1490000D03*
X2346200D03*
G54D16*
X2560000Y625000D03*
Y675000D03*
Y725000D03*
Y775000D03*
Y825000D03*
Y875000D03*
Y925000D03*
Y975000D03*
Y1025000D03*
Y1075000D03*
Y1125000D03*
Y1175000D03*
Y1225000D03*
Y1275000D03*
Y1325000D03*
Y1375000D03*
X3460000Y625000D03*
Y1125000D03*
Y1075000D03*
Y1025000D03*
Y975000D03*
Y925000D03*
Y875000D03*
Y825000D03*
Y775000D03*
Y725000D03*
Y675000D03*
Y1375000D03*
Y1325000D03*
Y1275000D03*
Y1225000D03*
Y1175000D03*
G54D17*
X2635000Y550000D03*
Y1450000D03*
X3185000Y550000D03*
X3135000D03*
X3085000D03*
X3035000D03*
X2985000D03*
X2935000D03*
X2885000D03*
X2835000D03*
X2785000D03*
X2735000D03*
X2685000D03*
Y1450000D03*
X2735000D03*
X2785000D03*
X2835000D03*
X2885000D03*
X2935000D03*
X2985000D03*
X3035000D03*
X3085000D03*
X3135000D03*
X3185000D03*
X3385000Y550000D03*
X3335000D03*
X3285000D03*
X3235000D03*
Y1450000D03*
X3285000D03*
X3335000D03*
X3385000D03*
G54D18*
X2639000Y1720000D03*
X2893000D03*
X3147000D03*
X4654000Y196000D03*
X4400000D03*
X4654000Y450000D03*
X4400000D03*
X4654000Y704000D03*
X4400000D03*
X4654000Y958000D03*
X4400000D03*
X4654000Y1212000D03*
X4400000D03*
X4654000Y1466000D03*
X4400000D03*
X4654000Y1720000D03*
X4400000D03*
G54D19*
X3208400Y110000D03*
Y310000D03*
X3411600Y110000D03*
Y310000D03*
M02*
