M48
METRIC,TZ
T01C.254
T02C.3048
T03C.8
T04C1.3
T05C3.3
;LEADER: 12 
;HEADER: 
;CODE  : ASCII 
;FILE  : HY_IP5328_TEST_V10B-1-2.drl for board H:/github/MBED-TOOLS/HARDWARE/HY_IP5328_TEST_V10B/PCB/#Taaaael08160.tmp ... layers TOP and BOTTOM
;T01 Holesize 1. = 0.254000 Tolerance = +0.000000/-0.000000 PLATED MM Quantity = 110
;T02 Holesize 2. = 0.304800 Tolerance = +0.000000/-0.000000 PLATED MM Quantity = 196
;T03 Holesize 3. = 0.800000 Tolerance = +0.000000/-0.000000 PLATED MM Quantity = 2
;T04 Holesize 4. = 1.300000 Tolerance = +0.000000/-0.000000 PLATED MM Quantity = 4
;T05 Holesize 5. = 3.300000 Tolerance = +0.000000/-0.000000 PLATED MM Quantity = 6
%
G90
T01
X860000Y820000
X6110000Y1060000
X6350000Y840000
X6600000Y840000
X7350000Y1180000
X9040000Y670000
X9040000Y750000
X9040000Y830000
X9140000Y670000
X9140000Y750000
X9140000Y830000
X9240000Y670000
X9240000Y750000
X9240000Y830000
X9340000Y670000
X9340000Y750000
X9340000Y830000
X9440000Y670000
X9440000Y750000
X9440000Y830000
X9540000Y670000
X9540000Y750000
X9540000Y830000
X10140000Y590000
X10140000Y660000
X10220000Y590000
X10220000Y660000
X10300000Y590000
X10300000Y660000
X10380000Y590000
X10380000Y660000
X10830000Y590000
X10830000Y660000
X10893500Y590000
X10893500Y660000
X10960000Y590000
X10960000Y660000
X11400000Y2490000
X11300000Y2490000
X11200000Y2490000
X11100000Y2490000
X11000000Y2490000
X10050000Y2480000
X10050000Y2380000
X9950000Y2480000
X9950000Y2380000
X9850000Y2480000
X9850000Y2380000
X9750000Y2480000
X9650000Y2480000
X9510000Y1840000
X9420000Y1920000
X9420000Y1840000
X9330000Y1920000
X9330000Y1840000
X9240000Y1920000
X9240000Y1840000
X9210000Y2120000
X9195000Y2455000
X9150000Y1920000
X9150000Y1840000
X8290000Y1910000
X8290000Y1830000
X8200000Y1910000
X8200000Y1830000
X8110000Y1910000
X8110000Y1830000
X7590000Y1490000
X5860000Y1570000
X6040000Y2960000
X6040000Y3060000
X6040000Y3160000
X6040000Y3260000
X6040000Y3360000
X6160000Y2960000
X6160000Y3060000
X6160000Y3160000
X6160000Y3260000
X6160000Y3360000
X7190000Y3050000
X7300000Y2790000
X8000000Y2920000
X8000000Y3020000
X8000000Y3120000
X8000000Y3220000
X8000000Y3320000
X8120000Y2920000
X8120000Y3020000
X8120000Y3120000
X8120000Y3220000
X8120000Y3320000
X8800000Y2790000
X8840000Y2710000
X8890000Y2640000
X8930000Y2580000
X9650000Y2590000
X9750000Y2590000
X9850000Y2590000
X9950000Y2590000
X10050000Y2590000
X11000000Y2610000
X11000000Y2730000
X11100000Y2610000
X11100000Y2730000
X11200000Y2610000
X11200000Y2730000
X11300000Y2610000
X11300000Y2730000
X11400000Y2610000
X11400000Y2730000
T02
X1257270Y584820
X1257270Y984820
X164820Y1502730
X164820Y1902730
X164820Y2302730
X164820Y2702730
X164820Y3102730
X164820Y3502730
X164820Y3902730
X1174140Y4085820
X1174140Y4485820
X2774140Y4485820
X2374140Y4485820
X1974140Y4485820
X1574140Y4485820
X2774140Y4085820
X2374140Y4085820
X1974140Y4085820
X1574140Y4085820
X2857270Y984820
X2457270Y984820
X2057270Y984820
X1657270Y984820
X2857270Y584820
X2457270Y584820
X2057270Y584820
X1657270Y584820
X3257270Y584820
X3657270Y584820
X4057270Y584820
X4457270Y584820
X3257270Y984820
X3657270Y984820
X4057270Y984820
X4457270Y984820
X3174140Y4085820
X3574140Y4085820
X3974140Y4085820
X4374140Y4085820
X3174140Y4485820
X3574140Y4485820
X3974140Y4485820
X4374140Y4485820
X5574140Y4485820
X5174140Y4485820
X4774140Y4485820
X5574140Y4085820
X5174140Y4085820
X4774140Y4085820
X5584820Y3742730
X5584820Y3342730
X5584820Y2942730
X5584820Y2542730
X5584820Y2142730
X5584820Y1742730
X5584820Y1342730
X5657270Y984820
X5257270Y984820
X4857270Y984820
X5657270Y584820
X5257270Y584820
X4857270Y584820
X6237270Y124820
X6637270Y124820
X7161340Y345460
X7161340Y745460
X6651340Y1115460
X6891340Y1115460
X7161340Y1145460
X6651340Y1515460
X6891340Y1515460
X7160000Y1520000
X7300000Y1860000
X6651340Y1915460
X6891340Y1915460
X6470000Y2100000
X6300000Y2310000
X6400000Y2390000
X6800000Y2750000
X6940000Y2750000
X7080000Y2750000
X6310000Y2760000
X6510000Y2760000
X6221170Y3909590
X6621170Y3909590
X7021170Y3909590
X6231170Y4519590
X6631170Y4519590
X7031170Y4519590
X7431170Y4519590
X9031170Y4519590
X8631170Y4519590
X8231170Y4519590
X7831170Y4519590
X9044540Y3821340
X8644540Y3821340
X8244540Y3821340
X7844540Y3821340
X9100000Y2790000
X9100000Y2670000
X9100000Y2550000
X9050000Y2440000
X8890000Y2240000
X8730000Y2240000
X8560000Y2240000
X8890000Y2070000
X8730000Y2070000
X8560000Y2070000
X8890000Y1910000
X8730000Y1910000
X8560000Y1910000
X7940000Y1870000
X9030000Y1390000
X8141340Y1315460
X7811340Y1305460
X9030000Y1200000
X8141340Y915460
X7811340Y905460
X8141340Y515460
X7811340Y505460
X8960000Y400000
X8141340Y235460
X8961640Y230260
X8771640Y230260
X7811340Y225460
X10321640Y170260
X9171640Y230260
X9361640Y230260
X9561640Y230260
X9751640Y230260
X9750000Y380000
X9750000Y520000
X9415460Y1248660
X9815460Y1248660
X10215460Y1248660
X10630000Y1250000
X10630000Y1520000
X10630000Y1730000
X10450000Y1800000
X10450000Y1930000
X10630000Y1930000
X9710000Y1940000
X10305460Y2148660
X10305460Y2578660
X10400000Y2860000
X10570000Y2860000
X10400000Y3000000
X10660000Y3000000
X9831170Y3919590
X10231170Y3919590
X10631170Y3919590
X9431170Y4519590
X9831170Y4519590
X10231170Y4519590
X10631170Y4519590
X11846850Y4713280
X11446850Y4713280
X11846850Y4313280
X11446850Y4313280
X11320000Y3980000
X11320000Y3520000
X10750000Y2860000
X10705460Y2578660
X10705460Y2148660
X11360000Y1290000
X11240000Y1290000
X11240000Y1180000
X12151640Y550260
X11751640Y550260
X11351640Y550260
X10721640Y170260
X12151640Y150260
X11751640Y150260
X11351640Y150260
X12551640Y150260
X12951640Y150260
X13351640Y150260
X12551640Y550260
X12951640Y550260
X13351640Y550260
X12246850Y4313280
X12646850Y4313280
X13046850Y4313280
X13446850Y4313280
X12246850Y4713280
X12646850Y4713280
X13046850Y4713280
X13446850Y4713280
X14335050Y3812480
X14335050Y3412480
X14335050Y3012480
X14335050Y2612480
X14335050Y2212480
X14335050Y1812480
X14335050Y1412480
X14335050Y1012480
T03
X300000Y1113000
X300000Y1367000
T04
X390000Y1874040
X890000Y1874040
X890000Y3124040
X390000Y3124040
T05
X360000Y360000
X360000Y4640000
X2500000Y2500000
X12100000Y2500000
X14240000Y360000
X14240000Y4640000
M30
