G04 ================== begin FILE IDENTIFICATION RECORD ==================*
G04 Layout Name:  HY_IP5328_TEST_V10B.brd*
G04 Film Name:    SilkScreen_Bottom*
G04 File Format:  Gerber RS274X*
G04 File Origin:  Cadence Allegro 17.2-S067*
G04 Origin Date:  Fri Oct 30 17:53:24 2020*
G04 *
G04 Layer:  PACKAGE GEOMETRY/SILKSCREEN_BOTTOM*
G04 Layer:  BOARD GEOMETRY/SILKSCREEN_BOTTOM*
G04 *
G04 Offset:    (0.0000 0.0000)*
G04 Mirror:    No*
G04 Mode:      Positive*
G04 Rotation:  0*
G04 FullContactRelief:  No*
G04 UndefLineWidth:     0.1524*
G04 ================== end FILE IDENTIFICATION RECORD ====================*
%FSLAX55Y55*MOMM*%
%IR0*IPPOS*OFA0.00000B0.00000*MIA0B0*SFA1.00000B1.00000*%
%ADD10C,.2*%
%ADD11C,.1524*%
G75*
%LPD*%
G75*
G54D10*
G01X12070000Y410000D02*
X13470000D01*
Y40000D01*
X12070000D01*
Y410000D01*
G54D11*
G01X13421000Y270000D02*
Y360000D01*
G01X13379000D02*
Y270000D01*
G01Y315000D02*
X13421000D01*
G01X13330000Y270000D02*
Y310500D01*
X13350000Y360000D01*
G01X13310000D02*
X13330000Y310500D01*
G01X13290000Y240000D02*
X13230000D01*
G01X13202000Y360000D02*
X13178000D01*
G01X13190000D02*
Y270000D01*
G01X13202000D02*
X13178000D01*
G01X13140000D02*
Y360000D01*
X13116000D01*
X13108000Y355500D01*
X13102000Y345000D01*
X13100000Y333000D01*
X13102000Y321000D01*
X13107000Y312000D01*
X13116000Y307500D01*
X13140000D01*
G01X13072000Y283500D02*
X13066000Y276000D01*
X13059000Y271500D01*
X13050000Y270000D01*
X13041000Y273000D01*
X13034000Y279000D01*
X13029000Y289500D01*
X13028000Y301500D01*
X13030000Y313500D01*
X13035000Y321000D01*
X13042000Y327000D01*
X13049000Y328500D01*
X13056000Y327000D01*
X13065000Y321000D01*
X13062000Y360000D01*
X13035000D01*
G01X13002000Y288000D02*
X12996000Y277500D01*
X12988000Y271500D01*
X12979000Y270000D01*
X12971000Y271500D01*
X12963000Y279000D01*
X12958000Y288000D01*
X12957000Y297000D01*
X12959000Y307500D01*
X12966000Y315000D01*
X12973000Y318000D01*
X12982000D01*
G01X12973000D02*
X12967000Y322500D01*
X12962000Y330000D01*
X12960000Y339000D01*
X12962000Y348000D01*
X12967000Y355500D01*
X12976000Y360000D01*
X12985000Y358500D01*
X12994000Y352500D01*
G01X12929000Y345000D02*
X12923000Y354000D01*
X12916000Y358500D01*
X12908000Y360000D01*
X12898000Y357000D01*
X12891000Y349500D01*
X12889000Y340500D01*
X12890000Y331500D01*
X12894000Y324000D01*
X12914000Y309000D01*
X12923000Y298500D01*
X12929000Y283500D01*
X12931000Y270000D01*
X12889000D01*
G01X12840000D02*
X12833000Y271500D01*
X12825000Y276000D01*
X12820000Y283500D01*
X12818000Y294000D01*
X12820000Y304500D01*
X12826000Y313500D01*
X12835000Y318000D01*
X12845000D01*
X12851000Y321000D01*
X12856000Y328500D01*
X12858000Y339000D01*
X12855000Y349500D01*
X12848000Y357000D01*
X12840000Y360000D01*
X12832000Y357000D01*
X12825000Y349500D01*
X12822000Y339000D01*
X12824000Y328500D01*
X12829000Y321000D01*
X12835000Y318000D01*
X12845000D01*
X12854000Y313500D01*
X12860000Y304500D01*
X12862000Y294000D01*
X12860000Y283500D01*
X12855000Y276000D01*
X12847000Y271500D01*
X12840000Y270000D01*
G01X12800000Y240000D02*
X12740000D01*
G01X12700000Y360000D02*
Y270000D01*
G01X12723000Y360000D02*
X12677000D01*
G01X12610000Y270000D02*
X12650000D01*
Y360000D01*
X12610000D01*
G01X12626000Y316500D02*
X12650000D01*
G01X12581000Y282000D02*
X12573000Y274500D01*
X12564000Y270000D01*
X12556000D01*
X12548000Y274500D01*
X12542000Y282000D01*
X12539000Y292500D01*
X12541000Y303000D01*
X12546000Y312000D01*
X12555000Y318000D01*
X12567000Y321000D01*
X12574000Y327000D01*
X12577000Y337500D01*
X12575000Y348000D01*
X12570000Y355500D01*
X12563000Y360000D01*
X12556000D01*
X12549000Y357000D01*
X12543000Y349500D01*
G01X12490000Y360000D02*
Y270000D01*
G01X12513000Y360000D02*
X12467000D01*
G01X12450000Y240000D02*
X12390000D01*
G01X12375000Y360000D02*
X12350000Y270000D01*
X12325000Y360000D01*
G01X12280000Y270000D02*
Y360000D01*
X12292000Y342000D01*
G01Y270000D02*
X12268000D01*
G01X12210000Y360000D02*
X12218000Y357000D01*
X12224000Y349500D01*
X12228000Y340500D01*
X12231000Y328500D01*
X12232000Y315000D01*
X12231000Y301500D01*
X12228000Y289500D01*
X12224000Y280500D01*
X12218000Y273000D01*
X12210000Y270000D01*
X12202000Y273000D01*
X12196000Y280500D01*
X12192000Y289500D01*
X12189000Y301500D01*
X12188000Y315000D01*
X12189000Y328500D01*
X12192000Y340500D01*
X12196000Y349500D01*
X12202000Y357000D01*
X12210000Y360000D01*
G01X12132000Y318000D02*
X12128000Y322500D01*
X12125000Y330000D01*
X12123000Y340500D01*
X12125000Y349500D01*
X12129000Y355500D01*
X12136000Y360000D01*
X12163000D01*
Y270000D01*
X12130000D01*
X12123000Y276000D01*
X12119000Y285000D01*
X12117000Y295500D01*
X12119000Y306000D01*
X12125000Y315000D01*
X12132000Y318000D01*
X12163000D01*
G01X13409000Y185000D02*
X13403000Y194000D01*
X13396000Y198500D01*
X13388000Y200000D01*
X13378000Y197000D01*
X13371000Y189500D01*
X13369000Y180500D01*
X13370000Y171500D01*
X13374000Y164000D01*
X13394000Y149000D01*
X13403000Y138500D01*
X13409000Y123500D01*
X13411000Y110000D01*
X13369000D01*
G01X13320000Y200000D02*
X13328000Y197000D01*
X13334000Y189500D01*
X13338000Y180500D01*
X13341000Y168500D01*
X13342000Y155000D01*
X13341000Y141500D01*
X13338000Y129500D01*
X13334000Y120500D01*
X13328000Y113000D01*
X13320000Y110000D01*
X13312000Y113000D01*
X13306000Y120500D01*
X13302000Y129500D01*
X13299000Y141500D01*
X13298000Y155000D01*
X13299000Y168500D01*
X13302000Y180500D01*
X13306000Y189500D01*
X13312000Y197000D01*
X13320000Y200000D01*
G01X13269000Y185000D02*
X13263000Y194000D01*
X13256000Y198500D01*
X13248000Y200000D01*
X13238000Y197000D01*
X13231000Y189500D01*
X13229000Y180500D01*
X13230000Y171500D01*
X13234000Y164000D01*
X13254000Y149000D01*
X13263000Y138500D01*
X13269000Y123500D01*
X13271000Y110000D01*
X13229000D01*
G01X13180000Y200000D02*
X13188000Y197000D01*
X13194000Y189500D01*
X13198000Y180500D01*
X13201000Y168500D01*
X13202000Y155000D01*
X13201000Y141500D01*
X13198000Y129500D01*
X13194000Y120500D01*
X13188000Y113000D01*
X13180000Y110000D01*
X13172000Y113000D01*
X13166000Y120500D01*
X13162000Y129500D01*
X13159000Y141500D01*
X13158000Y155000D01*
X13159000Y168500D01*
X13162000Y180500D01*
X13166000Y189500D01*
X13172000Y197000D01*
X13180000Y200000D01*
G01X13140000Y80000D02*
X13080000D01*
G01X13040000Y110000D02*
Y200000D01*
X13052000Y182000D01*
G01Y110000D02*
X13028000D01*
G01X12970000Y200000D02*
X12978000Y197000D01*
X12984000Y189500D01*
X12988000Y180500D01*
X12991000Y168500D01*
X12992000Y155000D01*
X12991000Y141500D01*
X12988000Y129500D01*
X12984000Y120500D01*
X12978000Y113000D01*
X12970000Y110000D01*
X12962000Y113000D01*
X12956000Y120500D01*
X12952000Y129500D01*
X12949000Y141500D01*
X12948000Y155000D01*
X12949000Y168500D01*
X12952000Y180500D01*
X12956000Y189500D01*
X12962000Y197000D01*
X12970000Y200000D01*
G01X12930000Y80000D02*
X12870000D01*
G01X12852000Y128000D02*
X12846000Y117500D01*
X12838000Y111500D01*
X12829000Y110000D01*
X12821000Y111500D01*
X12813000Y119000D01*
X12808000Y128000D01*
X12807000Y137000D01*
X12809000Y147500D01*
X12816000Y155000D01*
X12823000Y158000D01*
X12832000D01*
G01X12823000D02*
X12817000Y162500D01*
X12812000Y170000D01*
X12810000Y179000D01*
X12812000Y188000D01*
X12817000Y195500D01*
X12826000Y200000D01*
X12835000Y198500D01*
X12844000Y192500D01*
G01X12760000Y200000D02*
X12768000Y197000D01*
X12774000Y189500D01*
X12778000Y180500D01*
X12781000Y168500D01*
X12782000Y155000D01*
X12781000Y141500D01*
X12778000Y129500D01*
X12774000Y120500D01*
X12768000Y113000D01*
X12760000Y110000D01*
X12752000Y113000D01*
X12746000Y120500D01*
X12742000Y129500D01*
X12739000Y141500D01*
X12738000Y155000D01*
X12739000Y168500D01*
X12742000Y180500D01*
X12746000Y189500D01*
X12752000Y197000D01*
X12760000Y200000D01*
M02*
