G04 ================== begin FILE IDENTIFICATION RECORD ==================*
G04 Layout Name:  STLINKV3_PINOUT_V10B.brd*
G04 Film Name:    BOTTOM*
G04 File Format:  Gerber RS274X*
G04 File Origin:  Cadence Allegro 17.2-S058*
G04 Origin Date:  Wed Jul 22 08:20:25 2020*
G04 *
G04 Layer:  ETCH/BOTTOM*
G04 Layer:  PIN/BOTTOM*
G04 Layer:  VIA CLASS/BOTTOM*
G04 *
G04 Offset:    (0.0000 0.0000)*
G04 Mirror:    No*
G04 Mode:      Positive*
G04 Rotation:  0*
G04 FullContactRelief:  No*
G04 UndefLineWidth:     0.1524*
G04 ================== end FILE IDENTIFICATION RECORD ====================*
%FSLAX55Y55*MOMM*%
%IR0*IPPOS*OFA0.00000B0.00000*MIA0B0*SFA1.00000B1.00000*%
%ADD10C,.6096*%
%ADD13C,1.*%
%ADD17R,.5X.6*%
%ADD11C,1.6*%
%ADD12R,1.X1.*%
%ADD16C,1.8*%
%ADD14R,1.6X1.6*%
%ADD15R,1.8X1.8*%
%ADD18C,.2032*%
%ADD19C,.254*%
%ADD20C,.508*%
G75*
%LPD*%
G75*
G36*
G01X20000Y2460000D02*
X1186120D01*
G02X1202090Y2427120I-3J-20320D01*
G03X1185780Y2380000I59910J-47120D01*
G03X1262000Y2303780I76220J0D01*
G03X1313810Y2324100I0J76210D01*
G01X3096850D01*
X3210470Y2210470D01*
G03X3225780Y2199620I39519J39537D01*
G02X3235480Y2172920I-8808J-18312D01*
G03X3224260Y2121000I114519J-51920D01*
G03X3229080Y2086520I125737J0D01*
G01X3230720Y2080770D01*
X3184710Y2034760D01*
G02X3150020Y2049130I-14369J14369D01*
G01Y2130000D01*
G03X3090000Y2190020I-60020J0D01*
G01X2010000D01*
G03X1949980Y2130000I0J-60020D01*
G01Y860000D01*
G03X2010000Y799980I60020J0D01*
G01X3090000D01*
G03X3107770Y802670I3J60020D01*
G02X3134100Y783260I6011J-19410D01*
G01Y693150D01*
X3114670Y673720D01*
X2710810D01*
G03X2659000Y694040I-51810J-55890D01*
G03X2599660Y665660I0J-76227D01*
G03X2574000Y671900I-25665J-49659D01*
G01X1567810D01*
G03X1516000Y692220I-51810J-55890D01*
G03X1439780Y616000I0J-76220D01*
G03X1448850Y579930I76222J-9D01*
G02X1430950Y550000I-17901J-9612D01*
G01X20000D01*
Y2460000D01*
G37*
G36*
G01X3180000Y2980000D02*
X4000000D01*
X4080000Y2900000D01*
Y2874080D01*
G02X4046700Y2858440I-20321J-5D01*
G03X3960000Y2889740I-86700J-104428D01*
G03X3836300Y2809900I0J-135747D01*
G01X3767700D01*
G03X3730000Y2829740I-37700J-25899D01*
G01X3590000D01*
G03X3544260Y2784000I0J-45740D01*
G01Y2724000D01*
G03X3559100Y2690280I45730J0D01*
G01Y2442140D01*
X3453680D01*
G03X3350000Y2496740I-103680J-71139D01*
G03X3226900Y2396640I0J-125742D01*
G02X3192640Y2386410I-19894J4141D01*
G01X3159530Y2419530D01*
G03X3120000Y2435900I-39530J-39543D01*
G01X1313810D01*
G03X1306850Y2441630I-51840J-55876D01*
G01X1312830Y2460000D01*
X3130000D01*
X3180000Y2510000D01*
Y2980000D01*
G37*
G36*
G01X3941100Y2249500D02*
X3830580Y2360030D01*
X3842950Y2372400D01*
X3849500Y2369110D01*
G03X3870000Y2364260I20500J40900D01*
G01X4050000D01*
G03X4056700Y2364750I23J45742D01*
G02X4080000Y2344650I2981J-20099D01*
G01Y395350D01*
G02X4056700Y375250I-20319J-1D01*
G03X4050000Y375740I-6677J-45252D01*
G01X3870000D01*
G03X3824260Y330000I0J-45740D01*
G01Y150000D01*
G03X3870000Y104260I45740J0D01*
G01X4050000D01*
G03X4058820Y105120I-8J45739D01*
G01X4064140Y106160D01*
X4075150Y95150D01*
X4000000Y20000D01*
X3180000D01*
Y502830D01*
G03X3189530Y510470I-29992J47175D01*
G01X3222290Y543240D01*
G02X3252430Y541690I14371J-14368D01*
G03X3284960Y513390I97572J79309D01*
G02Y478610I-10514J-17390D01*
G03X3224260Y371000I65036J-107610D01*
G03X3475740I125740J0D01*
G03X3415040Y478610I-125736J0D01*
G02Y513390I10514J17390D01*
G03Y728610I-65036J107610D01*
G02Y763390I10514J17390D01*
G03X3452990Y798860I-65033J107617D01*
G01X3810000D01*
G03X3860300Y819700I-6J71137D01*
G01X3941100Y900500D01*
G03X3961940Y950800I-50283J50300D01*
G01Y2199200D01*
G03X3941100Y2249500I-71123J0D01*
G37*
G36*
G01X3291460Y1011970D02*
Y1230030D01*
G02X3317100Y1249640I20320J-1D01*
G03X3350000Y1245260I32900J121373D01*
G03X3384480Y1250080I0J125737D01*
G01X3390230Y1251720D01*
X3404100Y1237850D01*
Y1170000D01*
G03X3420470Y1130470I55913J0D01*
G01X3450470Y1100470D01*
G03X3490000Y1084100I39530J39543D01*
G01X3683180D01*
G03X3722710Y1100470I0J55913D01*
G01X3753030Y1130790D01*
G03X3769040Y1164020I-39535J39519D01*
G03X3791230Y1186110I-55540J77981D01*
G03X3792000Y1186100I1111J55886D01*
G03X3797380Y1186360I-5J55900D01*
G02X3819660Y1166130I1960J-20225D01*
G01Y980270D01*
X3780530Y941140D01*
X3454360D01*
G03X3350000Y996740I-104360J-70141D01*
G03X3317100Y992360I0J-125753D01*
G02X3291460Y1011970I-5320J19611D01*
G37*
G36*
G01X3309770Y1751720D02*
X3315520Y1750080D01*
G03X3384480I34480J120917D01*
G01X3390230Y1751720D01*
X3404100Y1737850D01*
Y1667250D01*
G03X3404510Y1660520I55898J28D01*
G01X3404580Y1659910D01*
Y1512980D01*
G02X3379490Y1493230I-20321J3D01*
G03X3350000Y1496740I-29502J-122229D01*
G03X3317100Y1492360I0J-125753D01*
G02X3291460Y1511970I-5320J19611D01*
G01Y1733410D01*
X3309770Y1751720D01*
G37*
G36*
G01X3486190Y2194100D02*
X3726850D01*
X3784100Y2136850D01*
Y1854600D01*
G02X3754980Y1836290I-20319J4D01*
G03X3713500Y1845740I-41475J-86291D01*
G03X3617760Y1750000I0J-95740D01*
G03X3618230Y1740500I95741J-25D01*
G02X3596000Y1718270I-20217J-2013D01*
G03X3586500Y1718740I-9475J-95271D01*
G03X3578020Y1718360I42J-95738D01*
G02X3555900Y1738600I-1799J20241D01*
G01Y1971000D01*
G03X3539530Y2010530I-55913J0D01*
G01X3469280Y2080770D01*
X3470920Y2086520D01*
G03X3475740Y2121000I-120917J34480D01*
G03X3467240Y2166440I-125739J-6D01*
G02X3486190Y2194100I18949J7340D01*
G37*
G36*
G01X3767700Y2698100D02*
X3836300D01*
G03X3858470Y2663900I123698J55901D01*
G02X3851500Y2631830I-15195J-13490D01*
G03X3824260Y2590000I18497J-41830D01*
G01Y2410000D01*
G03X3829110Y2389500I45750J0D01*
G01X3832400Y2382950D01*
X3820030Y2370580D01*
X3769300Y2421300D01*
G03X3719000Y2442140I-50306J-50297D01*
G01X3670900D01*
Y2678260D01*
X3730000D01*
G03X3767700Y2698100I0J45739D01*
G37*
G54D10*
X191680Y1118930D03*
Y1518930D03*
Y1918930D03*
X591680Y1118930D03*
Y1518930D03*
Y1918930D03*
X991680Y1118930D03*
X1391680D03*
X991680Y1518930D03*
X1391680D03*
X991680Y1918930D03*
X1391680D03*
X1262000Y2380000D03*
X1516000Y616000D03*
X1791680Y1118930D03*
Y1518930D03*
Y1918930D03*
X2659000Y617820D03*
X3268930Y118320D03*
X3200000Y2170000D03*
X3600000Y1970000D03*
Y2160000D03*
X3220000Y2490000D03*
X3520000Y2500000D03*
X3248930Y2898320D03*
X3448930D03*
X3668930Y118320D03*
X3681680Y598930D03*
Y998930D03*
X4021680Y978930D03*
Y1378930D03*
X4041680Y1858930D03*
Y2258930D03*
X3720000Y2500000D03*
X3648930Y2898320D03*
X3848930D03*
G54D20*
G01X3620000Y2371000D02*
X3719000D01*
X3890800Y2199200D01*
Y950800D01*
X3810000Y870000D01*
X3351000D01*
X3350000Y871000D01*
G01X3620000Y2371000D02*
X3350000D01*
G54D11*
Y371000D03*
Y621000D03*
Y871000D03*
Y1121000D03*
Y1371000D03*
Y1621000D03*
Y1871000D03*
Y2121000D03*
Y2371000D03*
G54D12*
X3586500Y1242000D03*
G54D13*
Y1623000D03*
Y1496000D03*
Y1369000D03*
Y1750000D03*
X3713500Y1623000D03*
Y1496000D03*
Y1369000D03*
Y1242000D03*
Y1750000D03*
G54D14*
X3350000Y2621000D03*
G54D15*
X3960000Y240000D03*
Y2500000D03*
G54D16*
Y494000D03*
Y2754000D03*
G54D17*
X3615000D03*
X3705000D03*
G54D18*
G01X1262000Y2380000D02*
X3120000D01*
X3250000Y2250000D01*
X3750000D01*
X3840000Y2160000D01*
Y1290000D01*
X3792000Y1242000D01*
X3713500D01*
G01X3190000Y480000D02*
X3160000Y510000D01*
X3159190Y510160D01*
X2821270D01*
X2820460Y510000D01*
X2540000D01*
X2494960Y555040D01*
X1444960D01*
X1430000Y570000D01*
G01X1516000Y616000D02*
X2574000D01*
X2640000Y550000D01*
X3150000D01*
X3235560Y635560D01*
Y1756560D01*
X3350000Y1871000D01*
G01Y2121000D02*
X3190000Y1961000D01*
Y670000D01*
X3137820Y617820D01*
X2659000D01*
G01X3350000Y1871000D02*
X3460000Y1761000D01*
Y1667250D01*
X3460480Y1666770D01*
Y1349520D01*
X3568000Y1242000D01*
X3586500D01*
G01X3350000Y2121000D02*
X3500000Y1971000D01*
Y1450000D01*
X3581000Y1369000D01*
X3586500D01*
G01X3350000Y1371000D02*
X3460000Y1261000D01*
Y1170000D01*
X3490000Y1140000D01*
X3683180D01*
X3713500Y1170320D01*
Y1242000D01*
G01X3615000Y2754000D02*
Y2376000D01*
X3620000Y2371000D01*
G01X3705000Y2754000D02*
X3960000D01*
G54D19*
G01X1320000Y2450000D02*
X1200000D01*
G01D02*
X1190000Y2440000D01*
M02*
