G04 ================== begin FILE IDENTIFICATION RECORD ==================*
G04 Layout Name:  H:/MBED-TOOLS/HARDWARE/GL850_HUB_V10A/PCB/GL850_HUB_V10A.brd*
G04 Film Name:    PasteMask_Bottom*
G04 File Format:  Gerber RS274X*
G04 File Origin:  Cadence Allegro 17.2-S045*
G04 Origin Date:  Tue Feb 12 09:45:57 2019*
G04 *
G04 Layer:  BOARD GEOMETRY/OUTLINE*
G04 Layer:  PIN/PASTEMASK_BOTTOM*
G04 Layer:  PACKAGE GEOMETRY/PASTEMASK_BOTTOM*
G04 *
G04 Offset:    (0.0000 0.0000)*
G04 Mirror:    No*
G04 Mode:      Positive*
G04 Rotation:  0*
G04 FullContactRelief:  No*
G04 UndefLineWidth:     0.1524*
G04 ================== end FILE IDENTIFICATION RECORD ====================*
%FSLAX55Y55*MOMM*%
%IR0*IPPOS*OFA0.00000B0.00000*MIA0B0*SFA1.00000B1.00000*%
%ADD13R,1.1X.6*%
%ADD10R,.7X1.1*%
%ADD11R,.8X.8*%
%ADD12R,1.X1.2*%
%ADD14R,1.X2.5*%
%ADD15C,.1*%
G75*
%LPD*%
G75*
G54D10*
X1660000Y2540000D03*
X1760000Y2300000D03*
X1860000Y2540000D03*
G54D11*
X1683800Y2690000D03*
Y2840000D03*
X1853800Y730000D03*
Y920000D03*
Y1060000D03*
X1836200Y2690000D03*
Y2840000D03*
X2006200Y730000D03*
Y920000D03*
Y1060000D03*
X2533800Y2390000D03*
X2613800Y448920D03*
X2623800Y600000D03*
X2613800Y740000D03*
Y1250000D03*
Y1390000D03*
Y1530000D03*
X2686200Y2390000D03*
X2766200Y448920D03*
X2776200Y600000D03*
X2766200Y740000D03*
Y1250000D03*
Y1390000D03*
Y1530000D03*
G54D12*
X1658400Y3010000D03*
X1861600D03*
X2128400Y2390000D03*
Y3010000D03*
X2331600Y2390000D03*
Y3010000D03*
X2588400Y900000D03*
Y1090000D03*
X2791600Y900000D03*
Y1090000D03*
X3388400Y511420D03*
Y2300000D03*
X3591600Y511420D03*
Y2300000D03*
X4288400Y511420D03*
Y2300000D03*
X4491600Y511420D03*
Y2300000D03*
G54D13*
X2100000Y2710000D03*
Y2615000D03*
Y2805000D03*
X2360000Y2615000D03*
Y2805000D03*
G54D14*
X2080000Y3270000D03*
X2380000D03*
G54D15*
G01X0Y100000D02*
Y3400000D01*
G02X100000Y3500000I100000J0D01*
G01X5300000D01*
G02X5400000Y3400000I0J-100000D01*
G01Y100000D01*
G02X5300000Y0I-100000J0D01*
G01X100000D01*
G02X0Y100000I0J100000D01*
M02*
