G04 ================== begin FILE IDENTIFICATION RECORD ==================*
G04 Layout Name:  H:/MBED-TOOLS/HARDWARE/GL850_HUB_V10A/PCB/GL850_HUB_V10A.brd*
G04 Film Name:    SolderMask_Bottom*
G04 File Format:  Gerber RS274X*
G04 File Origin:  Cadence Allegro 17.2-S045*
G04 Origin Date:  Tue Feb 12 09:45:57 2019*
G04 *
G04 Layer:  BOARD GEOMETRY/OUTLINE*
G04 Layer:  PIN/SOLDERMASK_BOTTOM*
G04 Layer:  PACKAGE GEOMETRY/SOLDERMASK_BOTTOM*
G04 Layer:  BOARD GEOMETRY/SOLDERMASK_BOTTOM*
G04 *
G04 Offset:    (0.0000 0.0000)*
G04 Mirror:    No*
G04 Mode:      Positive*
G04 Rotation:  0*
G04 FullContactRelief:  No*
G04 UndefLineWidth:     0.1524*
G04 ================== end FILE IDENTIFICATION RECORD ====================*
%FSLAX55Y55*MOMM*%
%IR0*IPPOS*OFA0.00000B0.00000*MIA0B0*SFA1.00000B1.00000*%
%ADD15R,.7X1.1*%
%ADD18R,1.3X.8*%
%ADD16R,.9X.9*%
%ADD17R,1.1X1.3*%
%ADD19R,1.1X2.6*%
%ADD12O,4.15X2.15*%
%ADD10O,2.15X4.15*%
%ADD13C,1.4*%
%ADD11C,3.5*%
%ADD14R,1.4X1.4*%
%ADD20C,.1*%
G75*
%LPD*%
G75*
G54D10*
X800000Y2910000D03*
X1400000D03*
G54D20*
G01X0Y100000D02*
Y3400000D01*
G02X100000Y3500000I100000J0D01*
G01X5300000D01*
G02X5400000Y3400000I0J-100000D01*
G01Y100000D01*
G02X5300000Y0I-100000J0D01*
G01X100000D01*
G02X0Y100000I0J100000D01*
G54D11*
X1029000Y198000D03*
Y1402000D03*
X3758020Y191420D03*
Y1521420D03*
X3760000Y1980000D03*
Y3310000D03*
X4338020Y191420D03*
Y1521420D03*
X4340000Y1980000D03*
Y3310000D03*
G54D12*
X1120000Y2430000D03*
G54D13*
X1300000Y675000D03*
Y925000D03*
X1500000D03*
X3808020Y761420D03*
Y961420D03*
Y1211420D03*
X3810000Y2550000D03*
Y2750000D03*
Y3000000D03*
X4068020Y761420D03*
Y961420D03*
Y1211420D03*
X4070000Y2550000D03*
Y2750000D03*
Y3000000D03*
G54D14*
X1500000Y675000D03*
X3808020Y511420D03*
X3810000Y2300000D03*
X4068020Y511420D03*
X4070000Y2300000D03*
G54D15*
X1660000Y2540000D03*
X1760000Y2300000D03*
X1860000Y2540000D03*
G54D16*
X1683800Y2690000D03*
Y2840000D03*
X1853800Y730000D03*
Y920000D03*
Y1060000D03*
X1836200Y2690000D03*
Y2840000D03*
X2006200Y730000D03*
Y920000D03*
Y1060000D03*
X2533800Y2390000D03*
X2613800Y448920D03*
X2623800Y600000D03*
X2613800Y740000D03*
Y1250000D03*
Y1390000D03*
Y1530000D03*
X2686200Y2390000D03*
X2766200Y448920D03*
X2776200Y600000D03*
X2766200Y740000D03*
Y1250000D03*
Y1390000D03*
Y1530000D03*
G54D17*
X1658400Y3010000D03*
X1861600D03*
X2128400Y2390000D03*
Y3010000D03*
X2331600Y2390000D03*
Y3010000D03*
X2588400Y900000D03*
Y1090000D03*
X2791600Y900000D03*
Y1090000D03*
X3388400Y511420D03*
Y2300000D03*
X3591600Y511420D03*
Y2300000D03*
X4288400Y511420D03*
Y2300000D03*
X4491600Y511420D03*
Y2300000D03*
G54D18*
X2100000Y2710000D03*
Y2615000D03*
Y2805000D03*
X2360000Y2615000D03*
Y2805000D03*
G54D19*
X2080000Y3270000D03*
X2380000D03*
M02*
