G04 ================== begin FILE IDENTIFICATION RECORD ==================*
G04 Layout Name:  HY_CN3600_V10_250614.brd*
G04 Film Name:    Drill_Legend*
G04 File Format:  Gerber RS274X*
G04 File Origin:  Cadence Allegro 24.1-S003*
G04 Origin Date:  Sat Jun 14 15:38:47 2025*
G04 *
G04 Layer:  MANUFACTURING/NCLEGEND-1-2*
G04 Layer:  MANUFACTURING/NCDRILL_LEGEND*
G04 Layer:  MANUFACTURING/NCDRILL_FIGURE*
G04 Layer:  BOARD GEOMETRY/DIMENSION*
G04 *
G04 Offset:    (0.0000 0.0000)*
G04 Mirror:    No*
G04 Mode:      Positive*
G04 Rotation:  0*
G04 FullContactRelief:  No*
G04 UndefLineWidth:     0.1524*
G04 ================== end FILE IDENTIFICATION RECORD ====================*
%FSLAX55Y55*MOMM*%
%IR0*IPPOS*OFA0.00000B0.00000*MIA0B0*SFA1.00000B1.00000*%
%AMMACRO10*
1,1,.1524,1.65,1.65*
20,1,.1524,1.65,1.65,1.65,-1.65,0.0*
1,1,.1524,1.65,-1.65*
20,1,.1524,1.65,-1.65,-1.65,-1.65,0.0*
1,1,.1524,-1.65,-1.65*
20,1,.1524,-1.65,-1.65,-1.65,1.65,0.0*
1,1,.1524,-1.65,1.65*
20,1,.1524,-1.65,1.65,1.65,1.65,0.0*
1,1,.1524,1.65,1.65*
%
%ADD10MACRO10*%
%AMMACRO13*
1,1,.1524,-.3,.3*
20,1,.1524,-.3,.3,.3,.3,0.0*
1,1,.1524,.3,.3*
20,1,.1524,.3,.3,.352094,.295442,0.0*
1,1,.1524,.352094,.295442*
20,1,.1524,.352094,.295442,.402606,.281908,0.0*
1,1,.1524,.402606,.281908*
20,1,.1524,.402606,.281908,.45,.259808,0.0*
1,1,.1524,.45,.259808*
20,1,.1524,.45,.259808,.492836,.229813,0.0*
1,1,.1524,.492836,.229813*
20,1,.1524,.492836,.229813,.529813,.192836,0.0*
1,1,.1524,.529813,.192836*
20,1,.1524,.529813,.192836,.559808,.15,0.0*
1,1,.1524,.559808,.15*
20,1,.1524,.559808,.15,.581908,.102606,0.0*
1,1,.1524,.581908,.102606*
20,1,.1524,.581908,.102606,.595442,.052094,0.0*
1,1,.1524,.595442,.052094*
20,1,.1524,.595442,.052094,.6,0.0,0.0*
1,1,.1524,.6,0.0*
20,1,.1524,.6,0.0,.595442,-.052094,0.0*
1,1,.1524,.595442,-.052094*
20,1,.1524,.595442,-.052094,.581908,-.102606,0.0*
1,1,.1524,.581908,-.102606*
20,1,.1524,.581908,-.102606,.559808,-.15,0.0*
1,1,.1524,.559808,-.15*
20,1,.1524,.559808,-.15,.529813,-.192836,0.0*
1,1,.1524,.529813,-.192836*
20,1,.1524,.529813,-.192836,.492836,-.229813,0.0*
1,1,.1524,.492836,-.229813*
20,1,.1524,.492836,-.229813,.45,-.259808,0.0*
1,1,.1524,.45,-.259808*
20,1,.1524,.45,-.259808,.402606,-.281908,0.0*
1,1,.1524,.402606,-.281908*
20,1,.1524,.402606,-.281908,.352094,-.295442,0.0*
1,1,.1524,.352094,-.295442*
20,1,.1524,.352094,-.295442,.3,-.3,0.0*
1,1,.1524,.3,-.3*
20,1,.1524,.3,-.3,-.3,-.3,0.0*
1,1,.1524,-.3,-.3*
20,1,.1524,-.3,-.3,-.352094,-.295442,0.0*
1,1,.1524,-.352094,-.295442*
20,1,.1524,-.352094,-.295442,-.402606,-.281908,0.0*
1,1,.1524,-.402606,-.281908*
20,1,.1524,-.402606,-.281908,-.45,-.259808,0.0*
1,1,.1524,-.45,-.259808*
20,1,.1524,-.45,-.259808,-.492836,-.229813,0.0*
1,1,.1524,-.492836,-.229813*
20,1,.1524,-.492836,-.229813,-.529813,-.192836,0.0*
1,1,.1524,-.529813,-.192836*
20,1,.1524,-.529813,-.192836,-.559808,-.15,0.0*
1,1,.1524,-.559808,-.15*
20,1,.1524,-.559808,-.15,-.581908,-.102606,0.0*
1,1,.1524,-.581908,-.102606*
20,1,.1524,-.581908,-.102606,-.595442,-.052094,0.0*
1,1,.1524,-.595442,-.052094*
20,1,.1524,-.595442,-.052094,-.6,0.0,0.0*
1,1,.1524,-.6,0.0*
20,1,.1524,-.6,0.0,-.595442,.052094,0.0*
1,1,.1524,-.595442,.052094*
20,1,.1524,-.595442,.052094,-.581908,.102606,0.0*
1,1,.1524,-.581908,.102606*
20,1,.1524,-.581908,.102606,-.559808,.15,0.0*
1,1,.1524,-.559808,.15*
20,1,.1524,-.559808,.15,-.529813,.192836,0.0*
1,1,.1524,-.529813,.192836*
20,1,.1524,-.529813,.192836,-.492836,.229813,0.0*
1,1,.1524,-.492836,.229813*
20,1,.1524,-.492836,.229813,-.45,.259808,0.0*
1,1,.1524,-.45,.259808*
20,1,.1524,-.45,.259808,-.402606,.281908,0.0*
1,1,.1524,-.402606,.281908*
20,1,.1524,-.402606,.281908,-.352094,.295442,0.0*
1,1,.1524,-.352094,.295442*
20,1,.1524,-.352094,.295442,-.3,.3,0.0*
1,1,.1524,-.3,.3*
1,1,.1524,-.15,-.15*
20,1,.1524,-.15,-.15,-.19,-.145,0.0*
1,1,.1524,-.19,-.145*
20,1,.1524,-.19,-.145,-.225,-.125,0.0*
1,1,.1524,-.225,-.125*
20,1,.1524,-.225,-.125,-.255,-.095,0.0*
1,1,.1524,-.255,-.095*
20,1,.1524,-.255,-.095,-.275,-.06,0.0*
1,1,.1524,-.275,-.06*
20,1,.1524,-.275,-.06,-.285,-.02,0.0*
1,1,.1524,-.285,-.02*
20,1,.1524,-.285,-.02,-.285,.02,0.0*
1,1,.1524,-.285,.02*
20,1,.1524,-.285,.02,-.275,.06,0.0*
1,1,.1524,-.275,.06*
20,1,.1524,-.275,.06,-.255,.095,0.0*
1,1,.1524,-.255,.095*
20,1,.1524,-.255,.095,-.225,.125,0.0*
1,1,.1524,-.225,.125*
20,1,.1524,-.225,.125,-.19,.145,0.0*
1,1,.1524,-.19,.145*
20,1,.1524,-.19,.145,-.15,.15,0.0*
1,1,.1524,-.15,.15*
20,1,.1524,-.15,.15,-.11,.145,0.0*
1,1,.1524,-.11,.145*
20,1,.1524,-.11,.145,-.075,.125,0.0*
1,1,.1524,-.075,.125*
20,1,.1524,-.075,.125,-.045,.095,0.0*
1,1,.1524,-.045,.095*
20,1,.1524,-.045,.095,-.025,.06,0.0*
1,1,.1524,-.025,.06*
20,1,.1524,-.025,.06,-.015,.02,0.0*
1,1,.1524,-.015,.02*
20,1,.1524,-.015,.02,-.015,-.02,0.0*
1,1,.1524,-.015,-.02*
20,1,.1524,-.015,-.02,-.025,-.06,0.0*
1,1,.1524,-.025,-.06*
20,1,.1524,-.025,-.06,-.045,-.095,0.0*
1,1,.1524,-.045,-.095*
20,1,.1524,-.045,-.095,-.075,-.125,0.0*
1,1,.1524,-.075,-.125*
20,1,.1524,-.075,-.125,-.11,-.145,0.0*
1,1,.1524,-.11,-.145*
20,1,.1524,-.11,-.145,-.15,-.15,0.0*
1,1,.1524,-.15,-.15*
1,1,.1524,.0251,-.15*
20,1,.1524,.0251,-.15,.1501,.15,0.0*
1,1,.1524,.1501,.15*
20,1,.1524,.1501,.15,.2751,-.15,0.0*
1,1,.1524,.2751,-.15*
1,1,.1524,.2301,-.045*
20,1,.1524,.2301,-.045,.0701,-.045,0.0*
1,1,.1524,.0701,-.045*
%
%ADD13MACRO13*%
%AMMACRO11*
1,1,.1524,-.7,.3*
20,1,.1524,-.7,.3,.7,.3,0.0*
1,1,.1524,.7,.3*
20,1,.1524,.7,.3,.752094,.295442,0.0*
1,1,.1524,.752094,.295442*
20,1,.1524,.752094,.295442,.802606,.281908,0.0*
1,1,.1524,.802606,.281908*
20,1,.1524,.802606,.281908,.85,.259808,0.0*
1,1,.1524,.85,.259808*
20,1,.1524,.85,.259808,.892836,.229813,0.0*
1,1,.1524,.892836,.229813*
20,1,.1524,.892836,.229813,.929813,.192836,0.0*
1,1,.1524,.929813,.192836*
20,1,.1524,.929813,.192836,.959808,.15,0.0*
1,1,.1524,.959808,.15*
20,1,.1524,.959808,.15,.981908,.102606,0.0*
1,1,.1524,.981908,.102606*
20,1,.1524,.981908,.102606,.995442,.052094,0.0*
1,1,.1524,.995442,.052094*
20,1,.1524,.995442,.052094,1.,0.0,0.0*
1,1,.1524,1.,0.0*
20,1,.1524,1.,0.0,.995442,-.052094,0.0*
1,1,.1524,.995442,-.052094*
20,1,.1524,.995442,-.052094,.981908,-.102606,0.0*
1,1,.1524,.981908,-.102606*
20,1,.1524,.981908,-.102606,.959808,-.15,0.0*
1,1,.1524,.959808,-.15*
20,1,.1524,.959808,-.15,.929813,-.192836,0.0*
1,1,.1524,.929813,-.192836*
20,1,.1524,.929813,-.192836,.892836,-.229813,0.0*
1,1,.1524,.892836,-.229813*
20,1,.1524,.892836,-.229813,.85,-.259808,0.0*
1,1,.1524,.85,-.259808*
20,1,.1524,.85,-.259808,.802606,-.281908,0.0*
1,1,.1524,.802606,-.281908*
20,1,.1524,.802606,-.281908,.752094,-.295442,0.0*
1,1,.1524,.752094,-.295442*
20,1,.1524,.752094,-.295442,.7,-.3,0.0*
1,1,.1524,.7,-.3*
20,1,.1524,.7,-.3,-.7,-.3,0.0*
1,1,.1524,-.7,-.3*
20,1,.1524,-.7,-.3,-.752094,-.295442,0.0*
1,1,.1524,-.752094,-.295442*
20,1,.1524,-.752094,-.295442,-.802606,-.281908,0.0*
1,1,.1524,-.802606,-.281908*
20,1,.1524,-.802606,-.281908,-.85,-.259808,0.0*
1,1,.1524,-.85,-.259808*
20,1,.1524,-.85,-.259808,-.892836,-.229813,0.0*
1,1,.1524,-.892836,-.229813*
20,1,.1524,-.892836,-.229813,-.929813,-.192836,0.0*
1,1,.1524,-.929813,-.192836*
20,1,.1524,-.929813,-.192836,-.959808,-.15,0.0*
1,1,.1524,-.959808,-.15*
20,1,.1524,-.959808,-.15,-.981908,-.102606,0.0*
1,1,.1524,-.981908,-.102606*
20,1,.1524,-.981908,-.102606,-.995442,-.052094,0.0*
1,1,.1524,-.995442,-.052094*
20,1,.1524,-.995442,-.052094,-1.,0.0,0.0*
1,1,.1524,-1.,0.0*
20,1,.1524,-1.,0.0,-.995442,.052094,0.0*
1,1,.1524,-.995442,.052094*
20,1,.1524,-.995442,.052094,-.981908,.102606,0.0*
1,1,.1524,-.981908,.102606*
20,1,.1524,-.981908,.102606,-.959808,.15,0.0*
1,1,.1524,-.959808,.15*
20,1,.1524,-.959808,.15,-.929813,.192836,0.0*
1,1,.1524,-.929813,.192836*
20,1,.1524,-.929813,.192836,-.892836,.229813,0.0*
1,1,.1524,-.892836,.229813*
20,1,.1524,-.892836,.229813,-.85,.259808,0.0*
1,1,.1524,-.85,.259808*
20,1,.1524,-.85,.259808,-.802606,.281908,0.0*
1,1,.1524,-.802606,.281908*
20,1,.1524,-.802606,.281908,-.752094,.295442,0.0*
1,1,.1524,-.752094,.295442*
20,1,.1524,-.752094,.295442,-.7,.3,0.0*
1,1,.1524,-.7,.3*
1,1,.1524,-.15,-.15*
20,1,.1524,-.15,-.15,-.19,-.145,0.0*
1,1,.1524,-.19,-.145*
20,1,.1524,-.19,-.145,-.225,-.125,0.0*
1,1,.1524,-.225,-.125*
20,1,.1524,-.225,-.125,-.255,-.095,0.0*
1,1,.1524,-.255,-.095*
20,1,.1524,-.255,-.095,-.275,-.06,0.0*
1,1,.1524,-.275,-.06*
20,1,.1524,-.275,-.06,-.285,-.02,0.0*
1,1,.1524,-.285,-.02*
20,1,.1524,-.285,-.02,-.285,.02,0.0*
1,1,.1524,-.285,.02*
20,1,.1524,-.285,.02,-.275,.06,0.0*
1,1,.1524,-.275,.06*
20,1,.1524,-.275,.06,-.255,.095,0.0*
1,1,.1524,-.255,.095*
20,1,.1524,-.255,.095,-.225,.125,0.0*
1,1,.1524,-.225,.125*
20,1,.1524,-.225,.125,-.19,.145,0.0*
1,1,.1524,-.19,.145*
20,1,.1524,-.19,.145,-.15,.15,0.0*
1,1,.1524,-.15,.15*
20,1,.1524,-.15,.15,-.11,.145,0.0*
1,1,.1524,-.11,.145*
20,1,.1524,-.11,.145,-.075,.125,0.0*
1,1,.1524,-.075,.125*
20,1,.1524,-.075,.125,-.045,.095,0.0*
1,1,.1524,-.045,.095*
20,1,.1524,-.045,.095,-.025,.06,0.0*
1,1,.1524,-.025,.06*
20,1,.1524,-.025,.06,-.015,.02,0.0*
1,1,.1524,-.015,.02*
20,1,.1524,-.015,.02,-.015,-.02,0.0*
1,1,.1524,-.015,-.02*
20,1,.1524,-.015,-.02,-.025,-.06,0.0*
1,1,.1524,-.025,-.06*
20,1,.1524,-.025,-.06,-.045,-.095,0.0*
1,1,.1524,-.045,-.095*
20,1,.1524,-.045,-.095,-.075,-.125,0.0*
1,1,.1524,-.075,-.125*
20,1,.1524,-.075,-.125,-.11,-.145,0.0*
1,1,.1524,-.11,-.145*
20,1,.1524,-.11,-.145,-.15,-.15,0.0*
1,1,.1524,-.15,-.15*
1,1,.1524,.2601,.125*
20,1,.1524,.2601,.125,.2301,.14,0.0*
1,1,.1524,.2301,.14*
20,1,.1524,.2301,.14,.1951,.15,0.0*
1,1,.1524,.1951,.15*
20,1,.1524,.1951,.15,.1551,.15,0.0*
1,1,.1524,.1551,.15*
20,1,.1524,.1551,.15,.1101,.135,0.0*
1,1,.1524,.1101,.135*
20,1,.1524,.1101,.135,.0751,.11,0.0*
1,1,.1524,.0751,.11*
20,1,.1524,.0751,.11,.0501,.08,0.0*
1,1,.1524,.0501,.08*
20,1,.1524,.0501,.08,.0301,.03,0.0*
1,1,.1524,.0301,.03*
20,1,.1524,.0301,.03,.0251,-.015,0.0*
1,1,.1524,.0251,-.015*
20,1,.1524,.0251,-.015,.0351,-.06,0.0*
1,1,.1524,.0351,-.06*
20,1,.1524,.0351,-.06,.0501,-.09,0.0*
1,1,.1524,.0501,-.09*
20,1,.1524,.0501,-.09,.0801,-.12,0.0*
1,1,.1524,.0801,-.12*
20,1,.1524,.0801,-.12,.1151,-.14,0.0*
1,1,.1524,.1151,-.14*
20,1,.1524,.1151,-.14,.1501,-.15,0.0*
1,1,.1524,.1501,-.15*
20,1,.1524,.1501,-.15,.1851,-.15,0.0*
1,1,.1524,.1851,-.15*
20,1,.1524,.1851,-.15,.2201,-.14,0.0*
1,1,.1524,.2201,-.14*
20,1,.1524,.2201,-.14,.2501,-.125,0.0*
1,1,.1524,.2501,-.125*
20,1,.1524,.2501,-.125,.2751,-.105,0.0*
1,1,.1524,.2751,-.105*
%
%ADD11MACRO11*%
%AMMACRO14*
1,1,.1524,-.55,.3*
20,1,.1524,-.55,.3,.55,.3,0.0*
1,1,.1524,.55,.3*
20,1,.1524,.55,.3,.602094,.295442,0.0*
1,1,.1524,.602094,.295442*
20,1,.1524,.602094,.295442,.652606,.281908,0.0*
1,1,.1524,.652606,.281908*
20,1,.1524,.652606,.281908,.7,.259808,0.0*
1,1,.1524,.7,.259808*
20,1,.1524,.7,.259808,.742836,.229813,0.0*
1,1,.1524,.742836,.229813*
20,1,.1524,.742836,.229813,.779813,.192836,0.0*
1,1,.1524,.779813,.192836*
20,1,.1524,.779813,.192836,.809808,.15,0.0*
1,1,.1524,.809808,.15*
20,1,.1524,.809808,.15,.831908,.102606,0.0*
1,1,.1524,.831908,.102606*
20,1,.1524,.831908,.102606,.845442,.052094,0.0*
1,1,.1524,.845442,.052094*
20,1,.1524,.845442,.052094,.85,0.0,0.0*
1,1,.1524,.85,0.0*
20,1,.1524,.85,0.0,.845442,-.052094,0.0*
1,1,.1524,.845442,-.052094*
20,1,.1524,.845442,-.052094,.831908,-.102606,0.0*
1,1,.1524,.831908,-.102606*
20,1,.1524,.831908,-.102606,.809808,-.15,0.0*
1,1,.1524,.809808,-.15*
20,1,.1524,.809808,-.15,.779813,-.192836,0.0*
1,1,.1524,.779813,-.192836*
20,1,.1524,.779813,-.192836,.742836,-.229813,0.0*
1,1,.1524,.742836,-.229813*
20,1,.1524,.742836,-.229813,.7,-.259808,0.0*
1,1,.1524,.7,-.259808*
20,1,.1524,.7,-.259808,.652606,-.281908,0.0*
1,1,.1524,.652606,-.281908*
20,1,.1524,.652606,-.281908,.602094,-.295442,0.0*
1,1,.1524,.602094,-.295442*
20,1,.1524,.602094,-.295442,.55,-.3,0.0*
1,1,.1524,.55,-.3*
20,1,.1524,.55,-.3,-.55,-.3,0.0*
1,1,.1524,-.55,-.3*
20,1,.1524,-.55,-.3,-.602094,-.295442,0.0*
1,1,.1524,-.602094,-.295442*
20,1,.1524,-.602094,-.295442,-.652606,-.281908,0.0*
1,1,.1524,-.652606,-.281908*
20,1,.1524,-.652606,-.281908,-.7,-.259808,0.0*
1,1,.1524,-.7,-.259808*
20,1,.1524,-.7,-.259808,-.742836,-.229813,0.0*
1,1,.1524,-.742836,-.229813*
20,1,.1524,-.742836,-.229813,-.779813,-.192836,0.0*
1,1,.1524,-.779813,-.192836*
20,1,.1524,-.779813,-.192836,-.809808,-.15,0.0*
1,1,.1524,-.809808,-.15*
20,1,.1524,-.809808,-.15,-.831908,-.102606,0.0*
1,1,.1524,-.831908,-.102606*
20,1,.1524,-.831908,-.102606,-.845442,-.052094,0.0*
1,1,.1524,-.845442,-.052094*
20,1,.1524,-.845442,-.052094,-.85,0.0,0.0*
1,1,.1524,-.85,0.0*
20,1,.1524,-.85,0.0,-.845442,.052094,0.0*
1,1,.1524,-.845442,.052094*
20,1,.1524,-.845442,.052094,-.831908,.102606,0.0*
1,1,.1524,-.831908,.102606*
20,1,.1524,-.831908,.102606,-.809808,.15,0.0*
1,1,.1524,-.809808,.15*
20,1,.1524,-.809808,.15,-.779813,.192836,0.0*
1,1,.1524,-.779813,.192836*
20,1,.1524,-.779813,.192836,-.742836,.229813,0.0*
1,1,.1524,-.742836,.229813*
20,1,.1524,-.742836,.229813,-.7,.259808,0.0*
1,1,.1524,-.7,.259808*
20,1,.1524,-.7,.259808,-.652606,.281908,0.0*
1,1,.1524,-.652606,.281908*
20,1,.1524,-.652606,.281908,-.602094,.295442,0.0*
1,1,.1524,-.602094,.295442*
20,1,.1524,-.602094,.295442,-.55,.3,0.0*
1,1,.1524,-.55,.3*
1,1,.1524,-.15,-.15*
20,1,.1524,-.15,-.15,-.19,-.145,0.0*
1,1,.1524,-.19,-.145*
20,1,.1524,-.19,-.145,-.225,-.125,0.0*
1,1,.1524,-.225,-.125*
20,1,.1524,-.225,-.125,-.255,-.095,0.0*
1,1,.1524,-.255,-.095*
20,1,.1524,-.255,-.095,-.275,-.06,0.0*
1,1,.1524,-.275,-.06*
20,1,.1524,-.275,-.06,-.285,-.02,0.0*
1,1,.1524,-.285,-.02*
20,1,.1524,-.285,-.02,-.285,.02,0.0*
1,1,.1524,-.285,.02*
20,1,.1524,-.285,.02,-.275,.06,0.0*
1,1,.1524,-.275,.06*
20,1,.1524,-.275,.06,-.255,.095,0.0*
1,1,.1524,-.255,.095*
20,1,.1524,-.255,.095,-.225,.125,0.0*
1,1,.1524,-.225,.125*
20,1,.1524,-.225,.125,-.19,.145,0.0*
1,1,.1524,-.19,.145*
20,1,.1524,-.19,.145,-.15,.15,0.0*
1,1,.1524,-.15,.15*
20,1,.1524,-.15,.15,-.11,.145,0.0*
1,1,.1524,-.11,.145*
20,1,.1524,-.11,.145,-.075,.125,0.0*
1,1,.1524,-.075,.125*
20,1,.1524,-.075,.125,-.045,.095,0.0*
1,1,.1524,-.045,.095*
20,1,.1524,-.045,.095,-.025,.06,0.0*
1,1,.1524,-.025,.06*
20,1,.1524,-.025,.06,-.015,.02,0.0*
1,1,.1524,-.015,.02*
20,1,.1524,-.015,.02,-.015,-.02,0.0*
1,1,.1524,-.015,-.02*
20,1,.1524,-.015,-.02,-.025,-.06,0.0*
1,1,.1524,-.025,-.06*
20,1,.1524,-.025,-.06,-.045,-.095,0.0*
1,1,.1524,-.045,-.095*
20,1,.1524,-.045,-.095,-.075,-.125,0.0*
1,1,.1524,-.075,-.125*
20,1,.1524,-.075,-.125,-.11,-.145,0.0*
1,1,.1524,-.11,-.145*
20,1,.1524,-.11,-.145,-.15,-.15,0.0*
1,1,.1524,-.15,-.15*
1,1,.1524,.1901,.01*
20,1,.1524,.1901,.01,.2101,.025,0.0*
1,1,.1524,.2101,.025*
20,1,.1524,.2101,.025,.2251,.05,0.0*
1,1,.1524,.2251,.05*
20,1,.1524,.2251,.05,.2351,.085,0.0*
1,1,.1524,.2351,.085*
20,1,.1524,.2351,.085,.2251,.115,0.0*
1,1,.1524,.2251,.115*
20,1,.1524,.2251,.115,.2051,.135,0.0*
1,1,.1524,.2051,.135*
20,1,.1524,.2051,.135,.1701,.15,0.0*
1,1,.1524,.1701,.15*
20,1,.1524,.1701,.15,.0351,.15,0.0*
1,1,.1524,.0351,.15*
20,1,.1524,.0351,.15,.0351,-.15,0.0*
1,1,.1524,.0351,-.15*
20,1,.1524,.0351,-.15,.2001,-.15,0.0*
1,1,.1524,.2001,-.15*
20,1,.1524,.2001,-.15,.2351,-.13,0.0*
1,1,.1524,.2351,-.13*
20,1,.1524,.2351,-.13,.2551,-.1,0.0*
1,1,.1524,.2551,-.1*
20,1,.1524,.2551,-.1,.2651,-.065,0.0*
1,1,.1524,.2651,-.065*
20,1,.1524,.2651,-.065,.2551,-.03,0.0*
1,1,.1524,.2551,-.03*
20,1,.1524,.2551,-.03,.2251,0.0,0.0*
1,1,.1524,.2251,0.0*
20,1,.1524,.2251,0.0,.1901,.01,0.0*
1,1,.1524,.1901,.01*
20,1,.1524,.1901,.01,.0351,.01,0.0*
1,1,.1524,.0351,.01*
%
%ADD14MACRO14*%
%AMMACRO12*
1,1,.1524,.1524,0.0*
20,1,.1524,.1524,0.0,-.1524,0.0,0.0*
1,1,.1524,-.1524,0.0*
1,1,.1524,0.0,.1524*
20,1,.1524,0.0,.1524,0.0,-.1524,0.0*
1,1,.1524,0.0,-.1524*
%
%ADD12MACRO12*%
%ADD15C,.1524*%
G75*
%LPD*%
G75*
G54D10*
X360000Y360000D03*
Y4440000D03*
X10840000Y360000D03*
Y4440000D03*
X13031730Y2597500D03*
G54D11*
X300000Y1140000D03*
Y2120000D03*
X1040000Y1180000D03*
Y1500000D03*
Y2030000D03*
X13031730Y692500D03*
G54D12*
X200000Y990000D03*
Y1390000D03*
Y1790000D03*
X190000Y2520000D03*
Y2920000D03*
Y3320000D03*
X340000Y3880000D03*
X740000D03*
X950000Y90000D03*
Y490000D03*
Y890000D03*
X1090000Y3510000D03*
X970000D03*
X1190000Y3590000D03*
Y3700000D03*
X1140000Y3880000D03*
X1350000Y90000D03*
Y490000D03*
Y890000D03*
X1620000Y2950000D03*
X1470000Y3480000D03*
X1400000Y3590000D03*
X1300000D03*
X1400000Y3700000D03*
X1300000D03*
X1750000Y90000D03*
Y490000D03*
Y890000D03*
X1760000Y2050000D03*
Y2450000D03*
X1890000Y3110000D03*
X1980000D03*
X1850000Y2950000D03*
X1980000Y3250000D03*
X1890000Y3390000D03*
X1980000D03*
X1890000Y3250000D03*
X1700000Y4580000D03*
X2150000Y90000D03*
Y490000D03*
Y890000D03*
X2160000Y2050000D03*
Y2450000D03*
X2070000Y3110000D03*
X2110000Y2950000D03*
X2070000Y3390000D03*
Y3250000D03*
X2100000Y4580000D03*
X2500000D03*
X3320000Y4380000D03*
X3420000D03*
X3210000D03*
X3320000Y4480000D03*
X3420000D03*
X3210000D03*
X3320000Y4590000D03*
X3420000D03*
X3210000D03*
X3720000Y170000D03*
X4120000D03*
X4520000D03*
X4920000D03*
X6110000Y2900000D03*
Y3300000D03*
Y3700000D03*
X6510000Y2900000D03*
Y3300000D03*
Y3700000D03*
X6780000Y150000D03*
X6910000Y2900000D03*
Y3300000D03*
Y3700000D03*
X7180000Y150000D03*
X7310000Y2900000D03*
Y3300000D03*
Y3700000D03*
X7580000Y150000D03*
X7710000Y2900000D03*
Y3300000D03*
Y3700000D03*
X7980000Y150000D03*
X8110000Y2900000D03*
Y3300000D03*
Y3700000D03*
X8510000Y2900000D03*
Y3300000D03*
Y3700000D03*
X9060000Y160000D03*
X8910000Y2900000D03*
Y3300000D03*
Y3700000D03*
X9460000Y160000D03*
X9520000Y4610000D03*
X9860000Y160000D03*
X9920000Y4610000D03*
X10260000Y160000D03*
Y1900000D03*
X10320000Y4610000D03*
X10660000Y1900000D03*
X11060000D03*
X13031730Y3232500D03*
G54D13*
X258000Y2728000D03*
Y3592000D03*
X13031730Y1962500D03*
G54D14*
X676000Y2728000D03*
Y3592000D03*
X13031730Y1327500D03*
G54D15*
G01X-1766800Y2264750D02*
Y2455250D01*
X-1854520Y2318730D01*
X-1735980D01*
G01X-1604750Y2264750D02*
X-1588160Y2267920D01*
X-1569190Y2277450D01*
X-1557340Y2293320D01*
X-1552600Y2315550D01*
X-1557340Y2337770D01*
X-1571560Y2356820D01*
X-1592900Y2366350D01*
X-1616600D01*
X-1630830Y2372700D01*
X-1642680Y2388570D01*
X-1647420Y2410800D01*
X-1640310Y2433020D01*
X-1623720Y2448900D01*
X-1604750Y2455250D01*
X-1585790Y2448900D01*
X-1569190Y2433020D01*
X-1562080Y2410800D01*
X-1566820Y2388570D01*
X-1578670Y2372700D01*
X-1592900Y2366350D01*
X-1616600D01*
X-1637940Y2356820D01*
X-1652160Y2337770D01*
X-1656900Y2315550D01*
X-1652160Y2293320D01*
X-1640310Y2277450D01*
X-1621340Y2267920D01*
X-1604750Y2264750D01*
G01X-1317300Y1994750D02*
Y2185250D01*
X-1405020Y2048730D01*
X-1286480D01*
G01X-1126800Y1994750D02*
Y2185250D01*
X-1214520Y2048730D01*
X-1095980D01*
G01X-964750Y1988400D02*
X-969490Y1991580D01*
Y1997920D01*
X-964750Y2001100D01*
X-960010Y1997920D01*
Y1991580D01*
X-964750Y1988400D01*
G01X-745800Y1994750D02*
Y2185250D01*
X-833520Y2048730D01*
X-714980D01*
G01X-712650Y1142850D02*
X-698430Y1120620D01*
X-679470Y1107920D01*
X-658130Y1104750D01*
X-639160Y1107920D01*
X-620200Y1123800D01*
X-608350Y1142850D01*
X-605980Y1161900D01*
X-610720Y1184120D01*
X-627310Y1200000D01*
X-643910Y1206350D01*
X-665240D01*
G01X-643910D02*
X-629680Y1215870D01*
X-617830Y1231750D01*
X-613090Y1250800D01*
X-617830Y1269850D01*
X-629680Y1285720D01*
X-651020Y1295250D01*
X-672350Y1292080D01*
X-693690Y1279370D01*
G01X-470000Y1098400D02*
X-474740Y1101580D01*
Y1107920D01*
X-470000Y1111100D01*
X-465260Y1107920D01*
Y1101580D01*
X-470000Y1098400D01*
G01X-324540Y1184120D02*
X-307950Y1206350D01*
X-293720Y1219050D01*
X-274760Y1225400D01*
X-258160Y1219050D01*
X-246310Y1206350D01*
X-236830Y1187300D01*
X-234460Y1165070D01*
X-236830Y1146020D01*
X-246310Y1126970D01*
X-260540Y1111100D01*
X-277130Y1104750D01*
X-296090Y1111100D01*
X-312690Y1130140D01*
X-322170Y1158730D01*
X-324540Y1190470D01*
X-319800Y1231750D01*
X-312690Y1253980D01*
X-300840Y1276200D01*
X-284240Y1292080D01*
X-267650Y1295250D01*
X-251050Y1288900D01*
X-239200Y1273020D01*
G01X1237350Y-447150D02*
X1251570Y-469380D01*
X1270530Y-482080D01*
X1291870Y-485250D01*
X1310840Y-482080D01*
X1329800Y-466200D01*
X1341650Y-447150D01*
X1344020Y-428100D01*
X1339280Y-405880D01*
X1322690Y-390000D01*
X1306090Y-383650D01*
X1284760D01*
G01X1306090D02*
X1320320Y-374130D01*
X1332170Y-358250D01*
X1336910Y-339200D01*
X1332170Y-320150D01*
X1320320Y-304280D01*
X1298980Y-294750D01*
X1277650Y-297920D01*
X1256310Y-310630D01*
G01X1480000Y-491600D02*
X1475260Y-488420D01*
Y-482080D01*
X1480000Y-478900D01*
X1484740Y-482080D01*
Y-488420D01*
X1480000Y-491600D01*
G01X1625460Y-405880D02*
X1642050Y-383650D01*
X1656280Y-370950D01*
X1675240Y-364600D01*
X1691840Y-370950D01*
X1703690Y-383650D01*
X1713170Y-402700D01*
X1715540Y-424930D01*
X1713170Y-443980D01*
X1703690Y-463030D01*
X1689460Y-478900D01*
X1672870Y-485250D01*
X1653910Y-478900D01*
X1637310Y-459860D01*
X1627830Y-431270D01*
X1625460Y-399530D01*
X1630200Y-358250D01*
X1637310Y-336020D01*
X1649160Y-313800D01*
X1665760Y-297920D01*
X1682350Y-294750D01*
X1698950Y-301100D01*
X1710800Y-316980D01*
G01X2599000Y-805250D02*
Y-614750D01*
X2570550Y-652850D01*
G01Y-805250D02*
X2627440D01*
G01X2789500Y-614750D02*
X2770530Y-621100D01*
X2756310Y-636980D01*
X2746830Y-656020D01*
X2739720Y-681430D01*
X2737350Y-710000D01*
X2739720Y-738580D01*
X2746830Y-763980D01*
X2756310Y-783030D01*
X2770530Y-798900D01*
X2789500Y-805250D01*
X2808460Y-798900D01*
X2822690Y-783030D01*
X2832170Y-763980D01*
X2839280Y-738580D01*
X2841650Y-710000D01*
X2839280Y-681430D01*
X2832170Y-656020D01*
X2822690Y-636980D01*
X2808460Y-621100D01*
X2789500Y-614750D01*
G01X2980000Y-805250D02*
X2996590Y-802080D01*
X3015560Y-792550D01*
X3027410Y-776680D01*
X3032150Y-754450D01*
X3027410Y-732230D01*
X3013190Y-713180D01*
X2991850Y-703650D01*
X2968150D01*
X2953920Y-697300D01*
X2942070Y-681430D01*
X2937330Y-659200D01*
X2944440Y-636980D01*
X2961030Y-621100D01*
X2980000Y-614750D01*
X2998960Y-621100D01*
X3015560Y-636980D01*
X3022670Y-659200D01*
X3017930Y-681430D01*
X3006080Y-697300D01*
X2991850Y-703650D01*
X2968150D01*
X2946810Y-713180D01*
X2932590Y-732230D01*
X2927850Y-754450D01*
X2932590Y-776680D01*
X2944440Y-792550D01*
X2963410Y-802080D01*
X2980000Y-805250D01*
G01X3170500Y-811600D02*
X3165760Y-808420D01*
Y-802080D01*
X3170500Y-798900D01*
X3175240Y-802080D01*
Y-808420D01*
X3170500Y-811600D01*
G01X3389450Y-805250D02*
Y-614750D01*
X3301730Y-751270D01*
X3420270D01*
G01X4969500Y-1185250D02*
Y-994750D01*
X4941050Y-1032850D01*
G01Y-1185250D02*
X4997940D01*
G01X5160000D02*
Y-994750D01*
X5131550Y-1032850D01*
G01Y-1185250D02*
X5188440D01*
G01X5305460Y-1026500D02*
X5319680Y-1007450D01*
X5336280Y-997920D01*
X5355240Y-994750D01*
X5378950Y-1001100D01*
X5395540Y-1016980D01*
X5400280Y-1036020D01*
X5397910Y-1055080D01*
X5388430Y-1070950D01*
X5341020Y-1102700D01*
X5319680Y-1124930D01*
X5305460Y-1156680D01*
X5300720Y-1185250D01*
X5400280D01*
G01X12169520Y3708750D02*
Y4026250D01*
X12319140D01*
G01X12264010Y3872800D02*
X12169520D01*
G01X12512050Y4026250D02*
X12606530D01*
G01X12559290D02*
Y3708750D01*
G01X12512050D02*
X12606530D01*
G01X12897870Y3867500D02*
X12976620D01*
Y3772250D01*
X12952990Y3740490D01*
X12925430Y3719330D01*
X12886060Y3708750D01*
X12846690Y3719330D01*
X12819130Y3740490D01*
X12795510Y3772250D01*
X12779760Y3809290D01*
X12771880Y3851620D01*
Y3888670D01*
X12779760Y3920410D01*
X12795510Y3957460D01*
X12819130Y3989210D01*
X12842750Y4010370D01*
X12874250Y4026250D01*
X12901810D01*
X12933300Y4015670D01*
X12956930Y3994500D01*
G01X13102600Y4026250D02*
Y3798710D01*
X13118340Y3751070D01*
X13149840Y3719330D01*
X13189210Y3708750D01*
X13228580Y3719330D01*
X13260080Y3751070D01*
X13275820Y3798710D01*
Y4026250D01*
G01X13425430Y3708750D02*
Y4026250D01*
X13523850D01*
X13555350Y4010370D01*
X13575040Y3989210D01*
X13582910Y3946870D01*
X13575040Y3904540D01*
X13551410Y3878090D01*
X13523850Y3862200D01*
X13425430D01*
G01X13523850D02*
X13582910Y3708750D01*
G01X13897870D02*
X13740390D01*
Y4026250D01*
X13897870D01*
G01X13834880Y3872800D02*
X13740390D01*
G01X14767940Y3708750D02*
Y4026250D01*
X14917560D01*
G01X14862430Y3872800D02*
X14767940D01*
G01X15110470Y4026250D02*
X15204950D01*
G01X15157710D02*
Y3708750D01*
G01X15110470D02*
X15204950D01*
G01X15382120D02*
Y4026250D01*
X15563220Y3708750D01*
Y4026250D01*
G01X15740390D02*
X15834870D01*
G01X15787630D02*
Y3708750D01*
G01X15740390D02*
X15834870D01*
G01X16019910Y3751070D02*
X16051410Y3724620D01*
X16086840Y3708750D01*
X16118340D01*
X16149830Y3724620D01*
X16173460Y3751070D01*
X16185270Y3788130D01*
X16177400Y3825160D01*
X16157710Y3856910D01*
X16122270Y3878090D01*
X16075030Y3888670D01*
X16047470Y3909830D01*
X16035660Y3946870D01*
X16043540Y3983920D01*
X16063220Y4010370D01*
X16090780Y4026250D01*
X16118340D01*
X16145900Y4015670D01*
X16169520Y3989210D01*
G01X16334870Y3708750D02*
Y4026250D01*
G01X16500230D02*
Y3708750D01*
G01Y3867500D02*
X16334870D01*
G01X16811250Y3708750D02*
X16653770D01*
Y4026250D01*
X16811250D01*
G01X16748260Y3872800D02*
X16653770D01*
G01X16960860Y3708750D02*
Y4026250D01*
X17039590D01*
X17071090Y4010370D01*
X17094710Y3989210D01*
X17114400Y3957460D01*
X17130150Y3920410D01*
X17134080Y3867500D01*
X17130150Y3814580D01*
X17114400Y3777540D01*
X17094710Y3745780D01*
X17071090Y3724620D01*
X17039590Y3708750D01*
X16960860D01*
G01X17244320Y3602920D02*
X17480540D01*
G01X17594710Y3751070D02*
X17626210Y3724620D01*
X17661640Y3708750D01*
X17693140D01*
X17724630Y3724620D01*
X17748260Y3751070D01*
X17760070Y3788130D01*
X17752200Y3825160D01*
X17732510Y3856910D01*
X17697070Y3878090D01*
X17649830Y3888670D01*
X17622270Y3909830D01*
X17610460Y3946870D01*
X17618340Y3983920D01*
X17638020Y4010370D01*
X17665580Y4026250D01*
X17693140D01*
X17720700Y4015670D01*
X17744320Y3989210D01*
G01X17945110Y4026250D02*
X18039590D01*
G01X17992350D02*
Y3708750D01*
G01X17945110D02*
X18039590D01*
G01X18232500Y4026250D02*
X18382120D01*
X18232500Y3708750D01*
X18382120D01*
G01X18701010D02*
X18543530D01*
Y4026250D01*
X18701010D01*
G01X18638020Y3872800D02*
X18543530D01*
G01X15712820Y798330D02*
X15736450Y830080D01*
X15764010Y845960D01*
X15795510Y851250D01*
X15834870Y840670D01*
X15862440Y814210D01*
X15870310Y782460D01*
X15866370Y750700D01*
X15850620Y724250D01*
X15771880Y671330D01*
X15736450Y634290D01*
X15712820Y581360D01*
X15704950Y533750D01*
X15870310D01*
G01X16102590Y523170D02*
X16094710Y528460D01*
Y539040D01*
X16102590Y544330D01*
X16110470Y539040D01*
Y528460D01*
X16102590Y523170D01*
G01X16417550Y851250D02*
X16386050Y840670D01*
X16362430Y814210D01*
X16346680Y782460D01*
X16334870Y740120D01*
X16330940Y692500D01*
X16334870Y644870D01*
X16346680Y602540D01*
X16362430Y570780D01*
X16386050Y544330D01*
X16417550Y533750D01*
X16449040Y544330D01*
X16472670Y570780D01*
X16488420Y602540D01*
X16500230Y644870D01*
X16504160Y692500D01*
X16500230Y740120D01*
X16488420Y782460D01*
X16472670Y814210D01*
X16449040Y840670D01*
X16417550Y851250D01*
G01X16673460Y745410D02*
X16791560Y533750D01*
G01Y745410D02*
X16673460Y533750D01*
G01X17047470Y851250D02*
X17015970Y840670D01*
X16992350Y814210D01*
X16976600Y782460D01*
X16964790Y740120D01*
X16960860Y692500D01*
X16964790Y644870D01*
X16976600Y602540D01*
X16992350Y570780D01*
X17015970Y544330D01*
X17047470Y533750D01*
X17078960Y544330D01*
X17102590Y570780D01*
X17118340Y602540D01*
X17130150Y644870D01*
X17134080Y692500D01*
X17130150Y740120D01*
X17118340Y782460D01*
X17102590Y814210D01*
X17078960Y840670D01*
X17047470Y851250D01*
G01X17362430Y523170D02*
X17354550Y528460D01*
Y539040D01*
X17362430Y544330D01*
X17370310Y539040D01*
Y528460D01*
X17362430Y523170D01*
G01X17602580Y666030D02*
X17630150Y703090D01*
X17653770Y724250D01*
X17685270Y734830D01*
X17712830Y724250D01*
X17732510Y703090D01*
X17748260Y671330D01*
X17752200Y634290D01*
X17748260Y602540D01*
X17732510Y570780D01*
X17708880Y544330D01*
X17681330Y533750D01*
X17649830Y544330D01*
X17622270Y576070D01*
X17606520Y623710D01*
X17602580Y676620D01*
X17610460Y745410D01*
X17622270Y782460D01*
X17641950Y819500D01*
X17669510Y845960D01*
X17697070Y851250D01*
X17724630Y840670D01*
X17744320Y814210D01*
G01X15787630Y1168750D02*
Y1486250D01*
X15740390Y1422750D01*
G01Y1168750D02*
X15834870D01*
G01X16102590Y1158170D02*
X16094710Y1163460D01*
Y1174040D01*
X16102590Y1179330D01*
X16110470Y1174040D01*
Y1163460D01*
X16102590Y1158170D01*
G01X16409670Y1168750D02*
X16417550Y1237540D01*
X16429360Y1295740D01*
X16445110Y1348670D01*
X16464790Y1406870D01*
X16496290Y1486250D01*
X16338810D01*
G01X16673460Y1380410D02*
X16791560Y1168750D01*
G01Y1380410D02*
X16673460Y1168750D01*
G01X17047470Y1486250D02*
X17015970Y1475670D01*
X16992350Y1449210D01*
X16976600Y1417460D01*
X16964790Y1375120D01*
X16960860Y1327500D01*
X16964790Y1279870D01*
X16976600Y1237540D01*
X16992350Y1205780D01*
X17015970Y1179330D01*
X17047470Y1168750D01*
X17078960Y1179330D01*
X17102590Y1205780D01*
X17118340Y1237540D01*
X17130150Y1279870D01*
X17134080Y1327500D01*
X17130150Y1375120D01*
X17118340Y1417460D01*
X17102590Y1449210D01*
X17078960Y1475670D01*
X17047470Y1486250D01*
G01X17362430Y1158170D02*
X17354550Y1163460D01*
Y1174040D01*
X17362430Y1179330D01*
X17370310Y1174040D01*
Y1163460D01*
X17362430Y1158170D01*
G01X17602580Y1301030D02*
X17630150Y1338090D01*
X17653770Y1359250D01*
X17685270Y1369830D01*
X17712830Y1359250D01*
X17732510Y1338090D01*
X17748260Y1306330D01*
X17752200Y1269290D01*
X17748260Y1237540D01*
X17732510Y1205780D01*
X17708880Y1179330D01*
X17681330Y1168750D01*
X17649830Y1179330D01*
X17622270Y1211070D01*
X17606520Y1258710D01*
X17602580Y1311620D01*
X17610460Y1380410D01*
X17622270Y1417460D01*
X17641950Y1454500D01*
X17669510Y1480960D01*
X17697070Y1486250D01*
X17724630Y1475670D01*
X17744320Y1449210D01*
G01X15787630Y1803750D02*
Y2121250D01*
X15740390Y2057750D01*
G01Y1803750D02*
X15834870D01*
G01X16102590Y1793170D02*
X16094710Y1798460D01*
Y1809040D01*
X16102590Y1814330D01*
X16110470Y1809040D01*
Y1798460D01*
X16102590Y1793170D01*
G01X16342740Y2068330D02*
X16366370Y2100080D01*
X16393930Y2115960D01*
X16425430Y2121250D01*
X16464790Y2110670D01*
X16492360Y2084210D01*
X16500230Y2052460D01*
X16496290Y2020700D01*
X16480540Y1994250D01*
X16401800Y1941330D01*
X16366370Y1904290D01*
X16342740Y1851360D01*
X16334870Y1803750D01*
X16500230D01*
G01X16673460Y2015410D02*
X16791560Y1803750D01*
G01Y2015410D02*
X16673460Y1803750D01*
G01X17047470Y2121250D02*
X17015970Y2110670D01*
X16992350Y2084210D01*
X16976600Y2052460D01*
X16964790Y2010120D01*
X16960860Y1962500D01*
X16964790Y1914870D01*
X16976600Y1872540D01*
X16992350Y1840780D01*
X17015970Y1814330D01*
X17047470Y1803750D01*
X17078960Y1814330D01*
X17102590Y1840780D01*
X17118340Y1872540D01*
X17130150Y1914870D01*
X17134080Y1962500D01*
X17130150Y2010120D01*
X17118340Y2052460D01*
X17102590Y2084210D01*
X17078960Y2110670D01*
X17047470Y2121250D01*
G01X17362430Y1793170D02*
X17354550Y1798460D01*
Y1809040D01*
X17362430Y1814330D01*
X17370310Y1809040D01*
Y1798460D01*
X17362430Y1793170D01*
G01X17602580Y1936030D02*
X17630150Y1973090D01*
X17653770Y1994250D01*
X17685270Y2004830D01*
X17712830Y1994250D01*
X17732510Y1973090D01*
X17748260Y1941330D01*
X17752200Y1904290D01*
X17748260Y1872540D01*
X17732510Y1840780D01*
X17708880Y1814330D01*
X17681330Y1803750D01*
X17649830Y1814330D01*
X17622270Y1846070D01*
X17606520Y1893710D01*
X17602580Y1946620D01*
X17610460Y2015410D01*
X17622270Y2052460D01*
X17641950Y2089500D01*
X17669510Y2115960D01*
X17697070Y2121250D01*
X17724630Y2110670D01*
X17744320Y2084210D01*
G01X15945110Y3391250D02*
X15913610Y3380670D01*
X15889990Y3354210D01*
X15874240Y3322460D01*
X15862430Y3280120D01*
X15858500Y3232500D01*
X15862430Y3184870D01*
X15874240Y3142540D01*
X15889990Y3110780D01*
X15913610Y3084330D01*
X15945110Y3073750D01*
X15976600Y3084330D01*
X16000230Y3110780D01*
X16015980Y3142540D01*
X16027790Y3184870D01*
X16031720Y3232500D01*
X16027790Y3280120D01*
X16015980Y3322460D01*
X16000230Y3354210D01*
X15976600Y3380670D01*
X15945110Y3391250D01*
G01X16260070Y3063170D02*
X16252190Y3068460D01*
Y3079040D01*
X16260070Y3084330D01*
X16267950Y3079040D01*
Y3068460D01*
X16260070Y3063170D01*
G01X16488420Y3137250D02*
X16512030Y3100200D01*
X16543530Y3079040D01*
X16578970Y3073750D01*
X16610470Y3079040D01*
X16641960Y3105490D01*
X16661640Y3137250D01*
X16665580Y3169000D01*
X16657710Y3206030D01*
X16630150Y3232500D01*
X16602590Y3243090D01*
X16567150D01*
G01X16602590D02*
X16626210Y3258960D01*
X16645900Y3285410D01*
X16653770Y3317160D01*
X16645900Y3348920D01*
X16626210Y3375370D01*
X16590780Y3391250D01*
X16555350Y3385960D01*
X16519910Y3364790D01*
G01X16889990Y3391250D02*
X16858490Y3380670D01*
X16834870Y3354210D01*
X16819120Y3322460D01*
X16807310Y3280120D01*
X16803380Y3232500D01*
X16807310Y3184870D01*
X16819120Y3142540D01*
X16834870Y3110780D01*
X16858490Y3084330D01*
X16889990Y3073750D01*
X16921480Y3084330D01*
X16945110Y3110780D01*
X16960860Y3142540D01*
X16972670Y3184870D01*
X16976600Y3232500D01*
X16972670Y3280120D01*
X16960860Y3322460D01*
X16945110Y3354210D01*
X16921480Y3380670D01*
X16889990Y3391250D01*
G01X17252190Y3073750D02*
Y3391250D01*
X17106520Y3163710D01*
X17303380D01*
G01X17519910Y3073750D02*
X17547470Y3079040D01*
X17578960Y3094910D01*
X17598650Y3121360D01*
X17606520Y3158420D01*
X17598650Y3195450D01*
X17575030Y3227200D01*
X17539590Y3243090D01*
X17500230D01*
X17476600Y3253670D01*
X17456910Y3280120D01*
X17449040Y3317160D01*
X17460860Y3354210D01*
X17488410Y3380670D01*
X17519910Y3391250D01*
X17551400Y3380670D01*
X17578960Y3354210D01*
X17590780Y3317160D01*
X17582900Y3280120D01*
X17563220Y3253670D01*
X17539590Y3243090D01*
X17500230D01*
X17464790Y3227200D01*
X17441170Y3195450D01*
X17433300Y3158420D01*
X17441170Y3121360D01*
X17460860Y3094910D01*
X17492350Y3079040D01*
X17519910Y3073750D01*
G01X16330940Y2502250D02*
X16354550Y2465200D01*
X16386050Y2444040D01*
X16421490Y2438750D01*
X16452990Y2444040D01*
X16484480Y2470490D01*
X16504160Y2502250D01*
X16508100Y2534000D01*
X16500230Y2571030D01*
X16472670Y2597500D01*
X16445110Y2608090D01*
X16409670D01*
G01X16445110D02*
X16468730Y2623960D01*
X16488420Y2650410D01*
X16496290Y2682160D01*
X16488420Y2713920D01*
X16468730Y2740370D01*
X16433300Y2756250D01*
X16397870Y2750960D01*
X16362430Y2729790D01*
G01X16732510Y2428170D02*
X16724630Y2433460D01*
Y2444040D01*
X16732510Y2449330D01*
X16740390Y2444040D01*
Y2433460D01*
X16732510Y2428170D01*
G01X16960860Y2502250D02*
X16984470Y2465200D01*
X17015970Y2444040D01*
X17051410Y2438750D01*
X17082910Y2444040D01*
X17114400Y2470490D01*
X17134080Y2502250D01*
X17138020Y2534000D01*
X17130150Y2571030D01*
X17102590Y2597500D01*
X17075030Y2608090D01*
X17039590D01*
G01X17075030D02*
X17098650Y2623960D01*
X17118340Y2650410D01*
X17126210Y2682160D01*
X17118340Y2713920D01*
X17098650Y2740370D01*
X17063220Y2756250D01*
X17027790Y2750960D01*
X16992350Y2729790D01*
G01X16397860Y4343750D02*
X16496290Y4661250D01*
X16594720Y4343750D01*
G01X16559280Y4454870D02*
X16433290D01*
G01X16732510Y4661250D02*
Y4343750D01*
X16889990D01*
G01X17047470Y4661250D02*
Y4343750D01*
X17204950D01*
G01X17669520Y4661250D02*
Y4433710D01*
X17685260Y4386070D01*
X17716760Y4354330D01*
X17756130Y4343750D01*
X17795500Y4354330D01*
X17827000Y4386070D01*
X17842740Y4433710D01*
Y4661250D01*
G01X17980540Y4343750D02*
Y4661250D01*
X18161640Y4343750D01*
Y4661250D01*
G01X18338810D02*
X18433290D01*
G01X18386050D02*
Y4343750D01*
G01X18338810D02*
X18433290D01*
G01X18701010Y4661250D02*
Y4343750D01*
G01X18610460Y4661250D02*
X18791560D01*
G01X18933290Y4386070D02*
X18964790Y4359620D01*
X19000220Y4343750D01*
X19031720D01*
X19063210Y4359620D01*
X19086840Y4386070D01*
X19098650Y4423130D01*
X19090780Y4460160D01*
X19071090Y4491910D01*
X19035650Y4513090D01*
X18988410Y4523670D01*
X18960850Y4544830D01*
X18949040Y4581870D01*
X18956920Y4618920D01*
X18976600Y4645370D01*
X19004160Y4661250D01*
X19031720D01*
X19059280Y4650670D01*
X19082900Y4624210D01*
G01X19547460Y4343750D02*
X19645890Y4661250D01*
X19744320Y4343750D01*
G01X19708880Y4454870D02*
X19582890D01*
G01X19882110Y4343750D02*
Y4661250D01*
X19980530D01*
X20012030Y4645370D01*
X20031720Y4624210D01*
X20039590Y4581870D01*
X20031720Y4539540D01*
X20008090Y4513090D01*
X19980530Y4497200D01*
X19882110D01*
G01X19980530D02*
X20039590Y4343750D01*
G01X20354550D02*
X20197070D01*
Y4661250D01*
X20354550D01*
G01X20291560Y4507800D02*
X20197070D01*
G01X20858490Y4661250D02*
X20952970D01*
G01X20905730D02*
Y4343750D01*
G01X20858490D02*
X20952970D01*
G01X21130140D02*
Y4661250D01*
X21311240Y4343750D01*
Y4661250D01*
G01X21748240Y4343750D02*
Y4661250D01*
X21850610Y4396670D01*
X21952980Y4661250D01*
Y4343750D01*
G01X22118330Y4661250D02*
X22212810D01*
G01X22165570D02*
Y4343750D01*
G01X22118330D02*
X22212810D01*
G01X22401790Y4661250D02*
Y4343750D01*
X22559270D01*
G01X22716750Y4661250D02*
Y4343750D01*
X22874230D01*
G01X23063210Y4661250D02*
X23157690D01*
G01X23110450D02*
Y4343750D01*
G01X23063210D02*
X23157690D01*
G01X23323040D02*
Y4661250D01*
X23425410Y4396670D01*
X23527780Y4661250D01*
Y4343750D01*
G01X23819110D02*
X23661630D01*
Y4661250D01*
X23819110D01*
G01X23756120Y4507800D02*
X23661630D01*
G01X24055330Y4661250D02*
Y4343750D01*
G01X23964780Y4661250D02*
X24145880D01*
G01X24449030Y4343750D02*
X24291550D01*
Y4661250D01*
X24449030D01*
G01X24386040Y4507800D02*
X24291550D01*
G01X24606510Y4343750D02*
Y4661250D01*
X24704930D01*
X24736430Y4645370D01*
X24756120Y4624210D01*
X24763990Y4581870D01*
X24756120Y4539540D01*
X24732490Y4513090D01*
X24704930Y4497200D01*
X24606510D01*
G01X24704930D02*
X24763990Y4343750D01*
G01X24917530Y4386070D02*
X24949030Y4359620D01*
X24984460Y4343750D01*
X25015960D01*
X25047450Y4359620D01*
X25071080Y4386070D01*
X25082890Y4423130D01*
X25075020Y4460160D01*
X25055330Y4491910D01*
X25019890Y4513090D01*
X24972650Y4523670D01*
X24945090Y4544830D01*
X24933280Y4581870D01*
X24941160Y4618920D01*
X24960840Y4645370D01*
X24988400Y4661250D01*
X25015960D01*
X25043520Y4650670D01*
X25067140Y4624210D01*
G01X16724640Y4993750D02*
Y5311250D01*
X16803370D01*
X16834870Y5295370D01*
X16858490Y5274210D01*
X16878180Y5242460D01*
X16893930Y5205410D01*
X16897860Y5152500D01*
X16893930Y5099580D01*
X16878180Y5062540D01*
X16858490Y5030780D01*
X16834870Y5009620D01*
X16803370Y4993750D01*
X16724640D01*
G01X17047470D02*
Y5311250D01*
X17145890D01*
X17177390Y5295370D01*
X17197080Y5274210D01*
X17204950Y5231870D01*
X17197080Y5189540D01*
X17173450Y5163090D01*
X17145890Y5147200D01*
X17047470D01*
G01X17145890D02*
X17204950Y4993750D01*
G01X17393930Y5311250D02*
X17488410D01*
G01X17441170D02*
Y4993750D01*
G01X17393930D02*
X17488410D01*
G01X17677390Y5311250D02*
Y4993750D01*
X17834870D01*
G01X17992350Y5311250D02*
Y4993750D01*
X18149830D01*
G01X18787620Y5284790D02*
X18764000Y5300670D01*
X18736450Y5311250D01*
X18704950D01*
X18669510Y5295370D01*
X18641960Y5268920D01*
X18622270Y5237160D01*
X18606520Y5184250D01*
X18602580Y5136620D01*
X18610460Y5089000D01*
X18622270Y5057250D01*
X18645890Y5025490D01*
X18673450Y5004330D01*
X18701010Y4993750D01*
X18728570D01*
X18756130Y5004330D01*
X18779750Y5020200D01*
X18799440Y5041360D01*
G01X18933290Y4993750D02*
Y5311250D01*
G01X19098650D02*
Y4993750D01*
G01Y5152500D02*
X18933290D01*
G01X19232500Y4993750D02*
X19330930Y5311250D01*
X19429360Y4993750D01*
G01X19393920Y5104870D02*
X19267930D01*
G01X19567150Y4993750D02*
Y5311250D01*
X19665570D01*
X19697070Y5295370D01*
X19716760Y5274210D01*
X19724630Y5231870D01*
X19716760Y5189540D01*
X19693130Y5163090D01*
X19665570Y5147200D01*
X19567150D01*
G01X19665570D02*
X19724630Y4993750D01*
G01X19960850Y5311250D02*
Y4993750D01*
G01X19870300Y5311250D02*
X20051400D01*
G01X20275810Y4983170D02*
X20267930Y4988460D01*
Y4999040D01*
X20275810Y5004330D01*
X20283690Y4999040D01*
Y4988460D01*
X20275810Y4983170D01*
G01Y5126030D02*
X20267930Y5131330D01*
Y5141910D01*
X20275810Y5147200D01*
X20283690Y5141910D01*
Y5131330D01*
X20275810Y5126030D01*
G01X20905730Y5311250D02*
Y4993750D01*
G01X20815180Y5311250D02*
X20996280D01*
G01X21220690Y4993750D02*
X21189190Y4999040D01*
X21161640Y5020200D01*
X21138010Y5051960D01*
X21122260Y5089000D01*
X21114390Y5131330D01*
Y5173670D01*
X21122260Y5216000D01*
X21138010Y5253040D01*
X21161640Y5284790D01*
X21189190Y5305960D01*
X21220690Y5311250D01*
X21252180Y5305960D01*
X21279740Y5284790D01*
X21303370Y5253040D01*
X21319120Y5216000D01*
X21326990Y5173670D01*
Y5131330D01*
X21319120Y5089000D01*
X21303370Y5051960D01*
X21279740Y5020200D01*
X21252180Y4999040D01*
X21220690Y4993750D01*
G01X21456910D02*
Y5311250D01*
X21551400D01*
X21582890Y5295370D01*
X21606520Y5258330D01*
X21614390Y5216000D01*
X21606520Y5173670D01*
X21586830Y5141910D01*
X21551400Y5126030D01*
X21456910D01*
G01X22165570Y5311250D02*
Y4993750D01*
G01X22110450Y5205410D02*
X22220690D01*
G01X22480530Y4993750D02*
X22456910Y4999040D01*
X22433290Y5020200D01*
X22417530Y5057250D01*
X22409660Y5099580D01*
X22417530Y5141910D01*
X22433290Y5178960D01*
X22456910Y5200120D01*
X22480530Y5205410D01*
X22504150Y5200120D01*
X22527770Y5178960D01*
X22543520Y5141910D01*
X22547460Y5099580D01*
X22543520Y5057250D01*
X22527770Y5020200D01*
X22504150Y4999040D01*
X22480530Y4993750D01*
G01X23141940Y5163090D02*
X23157690Y5178960D01*
X23169500Y5205410D01*
X23177380Y5242460D01*
X23169500Y5274210D01*
X23153760Y5295370D01*
X23126200Y5311250D01*
X23019900D01*
Y4993750D01*
X23149820D01*
X23177380Y5014910D01*
X23193130Y5046670D01*
X23201000Y5083710D01*
X23193130Y5120740D01*
X23169500Y5152500D01*
X23141940Y5163090D01*
X23019900D01*
G01X23425410Y4993750D02*
X23393910Y4999040D01*
X23366360Y5020200D01*
X23342730Y5051960D01*
X23326980Y5089000D01*
X23319110Y5131330D01*
Y5173670D01*
X23326980Y5216000D01*
X23342730Y5253040D01*
X23366360Y5284790D01*
X23393910Y5305960D01*
X23425410Y5311250D01*
X23456900Y5305960D01*
X23484460Y5284790D01*
X23508090Y5253040D01*
X23523840Y5216000D01*
X23531710Y5173670D01*
Y5131330D01*
X23523840Y5089000D01*
X23508090Y5051960D01*
X23484460Y5020200D01*
X23456900Y4999040D01*
X23425410Y4993750D01*
G01X23740370Y5311250D02*
Y4993750D01*
G01X23649820Y5311250D02*
X23830920D01*
G01X24055330D02*
Y4993750D01*
G01X23964780Y5311250D02*
X24145880D01*
G01X24370290Y4993750D02*
X24338790Y4999040D01*
X24311240Y5020200D01*
X24287610Y5051960D01*
X24271860Y5089000D01*
X24263990Y5131330D01*
Y5173670D01*
X24271860Y5216000D01*
X24287610Y5253040D01*
X24311240Y5284790D01*
X24338790Y5305960D01*
X24370290Y5311250D01*
X24401780Y5305960D01*
X24429340Y5284790D01*
X24452970Y5253040D01*
X24468720Y5216000D01*
X24476590Y5173670D01*
Y5131330D01*
X24468720Y5089000D01*
X24452970Y5051960D01*
X24429340Y5020200D01*
X24401780Y4999040D01*
X24370290Y4993750D01*
G01X24582880D02*
Y5311250D01*
X24685250Y5046670D01*
X24787620Y5311250D01*
Y4993750D01*
G01X20031720Y3708750D02*
Y4026250D01*
X20110450D01*
X20141950Y4010370D01*
X20165570Y3989210D01*
X20185260Y3957460D01*
X20201010Y3920410D01*
X20204940Y3867500D01*
X20201010Y3814580D01*
X20185260Y3777540D01*
X20165570Y3745780D01*
X20141950Y3724620D01*
X20110450Y3708750D01*
X20031720D01*
G01X20354550D02*
Y4026250D01*
X20452970D01*
X20484470Y4010370D01*
X20504160Y3989210D01*
X20512030Y3946870D01*
X20504160Y3904540D01*
X20480530Y3878090D01*
X20452970Y3862200D01*
X20354550D01*
G01X20452970D02*
X20512030Y3708750D01*
G01X20701010Y4026250D02*
X20795490D01*
G01X20748250D02*
Y3708750D01*
G01X20701010D02*
X20795490D01*
G01X20984470Y4026250D02*
Y3708750D01*
X21141950D01*
G01X21299430Y4026250D02*
Y3708750D01*
X21456910D01*
G01X21771870D02*
X21614390D01*
Y4026250D01*
X21771870D01*
G01X21708880Y3872800D02*
X21614390D01*
G01X21921480Y3708750D02*
Y4026250D01*
X22000210D01*
X22031710Y4010370D01*
X22055330Y3989210D01*
X22075020Y3957460D01*
X22090770Y3920410D01*
X22094700Y3867500D01*
X22090770Y3814580D01*
X22075020Y3777540D01*
X22055330Y3745780D01*
X22031710Y3724620D01*
X22000210Y3708750D01*
X21921480D01*
G01X22204940Y3602920D02*
X22441160D01*
G01X22555330Y3751070D02*
X22586830Y3724620D01*
X22622260Y3708750D01*
X22653760D01*
X22685250Y3724620D01*
X22708880Y3751070D01*
X22720690Y3788130D01*
X22712820Y3825160D01*
X22693130Y3856910D01*
X22657690Y3878090D01*
X22610450Y3888670D01*
X22582890Y3909830D01*
X22571080Y3946870D01*
X22578960Y3983920D01*
X22598640Y4010370D01*
X22626200Y4026250D01*
X22653760D01*
X22681320Y4015670D01*
X22704940Y3989210D01*
G01X22905730Y4026250D02*
X23000210D01*
G01X22952970D02*
Y3708750D01*
G01X22905730D02*
X23000210D01*
G01X23193120Y4026250D02*
X23342740D01*
X23193120Y3708750D01*
X23342740D01*
G01X23661630D02*
X23504150D01*
Y4026250D01*
X23661630D01*
G01X23598640Y3872800D02*
X23504150D01*
G01X21799430Y639580D02*
X21901790D01*
G01X21799430Y1274580D02*
X21901790D01*
G01X21799430Y1909580D02*
X21901790D01*
G01X21799430Y2544580D02*
X21901790D01*
G01X21799430Y3179580D02*
X21901790D01*
G01X23737830Y216250D02*
Y-101250D01*
G01X23647280Y216250D02*
X23828380D01*
G01X24052790Y-101250D02*
X24021290Y-95960D01*
X23993740Y-74800D01*
X23970110Y-43040D01*
X23954360Y-6000D01*
X23946490Y36330D01*
Y78670D01*
X23954360Y121000D01*
X23970110Y158040D01*
X23993740Y189790D01*
X24021290Y210960D01*
X24052790Y216250D01*
X24084280Y210960D01*
X24111840Y189790D01*
X24135470Y158040D01*
X24151220Y121000D01*
X24159090Y78670D01*
Y36330D01*
X24151220Y-6000D01*
X24135470Y-43040D01*
X24111840Y-74800D01*
X24084280Y-95960D01*
X24052790Y-101250D01*
G01X24367750Y216250D02*
Y-101250D01*
G01X24277200Y216250D02*
X24458300D01*
G01X24584280Y-101250D02*
X24682710Y216250D01*
X24781140Y-101250D01*
G01X24745700Y9870D02*
X24619710D01*
G01X24918930Y216250D02*
Y-101250D01*
X25076410D01*
G01X25544910D02*
Y216250D01*
G01X25710270D02*
Y-101250D01*
G01Y57500D02*
X25544910D01*
G01X25942550Y-101250D02*
X25911050Y-95960D01*
X25883500Y-74800D01*
X25859870Y-43040D01*
X25844120Y-6000D01*
X25836250Y36330D01*
Y78670D01*
X25844120Y121000D01*
X25859870Y158040D01*
X25883500Y189790D01*
X25911050Y210960D01*
X25942550Y216250D01*
X25974040Y210960D01*
X26001600Y189790D01*
X26025230Y158040D01*
X26040980Y121000D01*
X26048850Y78670D01*
Y36330D01*
X26040980Y-6000D01*
X26025230Y-43040D01*
X26001600Y-74800D01*
X25974040Y-95960D01*
X25942550Y-101250D01*
G01X26178770Y216250D02*
Y-101250D01*
X26336250D01*
G01X26651210D02*
X26493730D01*
Y216250D01*
X26651210D01*
G01X26588220Y62800D02*
X26493730D01*
G01X26804750Y-58930D02*
X26836250Y-85380D01*
X26871680Y-101250D01*
X26903180D01*
X26934670Y-85380D01*
X26958300Y-58930D01*
X26970110Y-21870D01*
X26962240Y15160D01*
X26942550Y46910D01*
X26907110Y68090D01*
X26859870Y78670D01*
X26832310Y99830D01*
X26820500Y136870D01*
X26828380Y173920D01*
X26848060Y200370D01*
X26875620Y216250D01*
X26903180D01*
X26930740Y205670D01*
X26954360Y179210D01*
G01X27202390Y-111830D02*
X27194510Y-106540D01*
Y-95960D01*
X27202390Y-90670D01*
X27210270Y-95960D01*
Y-106540D01*
X27202390Y-111830D01*
G01Y31030D02*
X27194510Y36330D01*
Y46910D01*
X27202390Y52200D01*
X27210270Y46910D01*
Y36330D01*
X27202390Y31030D01*
G01X25157690Y533750D02*
Y851250D01*
X25252180D01*
X25283670Y835370D01*
X25307300Y798330D01*
X25315170Y756000D01*
X25307300Y713670D01*
X25287610Y681910D01*
X25252180Y666030D01*
X25157690D01*
G01X25472650Y851250D02*
Y533750D01*
X25630130D01*
G01X25767920D02*
X25866350Y851250D01*
X25964780Y533750D01*
G01X25929340Y644870D02*
X25803350D01*
G01X26181310Y851250D02*
Y533750D01*
G01X26090760Y851250D02*
X26271860D01*
G01X26575010Y533750D02*
X26417530D01*
Y851250D01*
X26575010D01*
G01X26512020Y697800D02*
X26417530D01*
G01X26724620Y533750D02*
Y851250D01*
X26803350D01*
X26834850Y835370D01*
X26858470Y814210D01*
X26878160Y782460D01*
X26893910Y745410D01*
X26897840Y692500D01*
X26893910Y639580D01*
X26878160Y602540D01*
X26858470Y570780D01*
X26834850Y549620D01*
X26803350Y533750D01*
X26724620D01*
G01X25157690Y1168750D02*
Y1486250D01*
X25252180D01*
X25283670Y1470370D01*
X25307300Y1433330D01*
X25315170Y1391000D01*
X25307300Y1348670D01*
X25287610Y1316910D01*
X25252180Y1301030D01*
X25157690D01*
G01X25472650Y1486250D02*
Y1168750D01*
X25630130D01*
G01X25767920D02*
X25866350Y1486250D01*
X25964780Y1168750D01*
G01X25929340Y1279870D02*
X25803350D01*
G01X26181310Y1486250D02*
Y1168750D01*
G01X26090760Y1486250D02*
X26271860D01*
G01X26575010Y1168750D02*
X26417530D01*
Y1486250D01*
X26575010D01*
G01X26512020Y1332800D02*
X26417530D01*
G01X26724620Y1168750D02*
Y1486250D01*
X26803350D01*
X26834850Y1470370D01*
X26858470Y1449210D01*
X26878160Y1417460D01*
X26893910Y1380410D01*
X26897840Y1327500D01*
X26893910Y1274580D01*
X26878160Y1237540D01*
X26858470Y1205780D01*
X26834850Y1184620D01*
X26803350Y1168750D01*
X26724620D01*
G01X25157690Y1803750D02*
Y2121250D01*
X25252180D01*
X25283670Y2105370D01*
X25307300Y2068330D01*
X25315170Y2026000D01*
X25307300Y1983670D01*
X25287610Y1951910D01*
X25252180Y1936030D01*
X25157690D01*
G01X25472650Y2121250D02*
Y1803750D01*
X25630130D01*
G01X25767920D02*
X25866350Y2121250D01*
X25964780Y1803750D01*
G01X25929340Y1914870D02*
X25803350D01*
G01X26181310Y2121250D02*
Y1803750D01*
G01X26090760Y2121250D02*
X26271860D01*
G01X26575010Y1803750D02*
X26417530D01*
Y2121250D01*
X26575010D01*
G01X26512020Y1967800D02*
X26417530D01*
G01X26724620Y1803750D02*
Y2121250D01*
X26803350D01*
X26834850Y2105370D01*
X26858470Y2084210D01*
X26878160Y2052460D01*
X26893910Y2015410D01*
X26897840Y1962500D01*
X26893910Y1909580D01*
X26878160Y1872540D01*
X26858470Y1840780D01*
X26834850Y1819620D01*
X26803350Y1803750D01*
X26724620D01*
G01X25157690Y2438750D02*
Y2756250D01*
X25252180D01*
X25283670Y2740370D01*
X25307300Y2703330D01*
X25315170Y2661000D01*
X25307300Y2618670D01*
X25287610Y2586910D01*
X25252180Y2571030D01*
X25157690D01*
G01X25472650Y2756250D02*
Y2438750D01*
X25630130D01*
G01X25767920D02*
X25866350Y2756250D01*
X25964780Y2438750D01*
G01X25929340Y2549870D02*
X25803350D01*
G01X26181310Y2756250D02*
Y2438750D01*
G01X26090760Y2756250D02*
X26271860D01*
G01X26575010Y2438750D02*
X26417530D01*
Y2756250D01*
X26575010D01*
G01X26512020Y2602800D02*
X26417530D01*
G01X26724620Y2438750D02*
Y2756250D01*
X26803350D01*
X26834850Y2740370D01*
X26858470Y2719210D01*
X26878160Y2687460D01*
X26893910Y2650410D01*
X26897840Y2597500D01*
X26893910Y2544580D01*
X26878160Y2507540D01*
X26858470Y2475780D01*
X26834850Y2454620D01*
X26803350Y2438750D01*
X26724620D01*
G01X25157690Y3073750D02*
Y3391250D01*
X25252180D01*
X25283670Y3375370D01*
X25307300Y3338330D01*
X25315170Y3296000D01*
X25307300Y3253670D01*
X25287610Y3221910D01*
X25252180Y3206030D01*
X25157690D01*
G01X25472650Y3391250D02*
Y3073750D01*
X25630130D01*
G01X25767920D02*
X25866350Y3391250D01*
X25964780Y3073750D01*
G01X25929340Y3184870D02*
X25803350D01*
G01X26181310Y3391250D02*
Y3073750D01*
G01X26090760Y3391250D02*
X26271860D01*
G01X26575010Y3073750D02*
X26417530D01*
Y3391250D01*
X26575010D01*
G01X26512020Y3237800D02*
X26417530D01*
G01X26724620Y3073750D02*
Y3391250D01*
X26803350D01*
X26834850Y3375370D01*
X26858470Y3354210D01*
X26878160Y3322460D01*
X26893910Y3285410D01*
X26897840Y3232500D01*
X26893910Y3179580D01*
X26878160Y3142540D01*
X26858470Y3110780D01*
X26834850Y3089620D01*
X26803350Y3073750D01*
X26724620D01*
G01X25157690Y3708750D02*
Y4026250D01*
X25252180D01*
X25283670Y4010370D01*
X25307300Y3973330D01*
X25315170Y3931000D01*
X25307300Y3888670D01*
X25287610Y3856910D01*
X25252180Y3841030D01*
X25157690D01*
G01X25472650Y4026250D02*
Y3708750D01*
X25630130D01*
G01X25767920D02*
X25866350Y4026250D01*
X25964780Y3708750D01*
G01X25929340Y3819870D02*
X25803350D01*
G01X26181310Y4026250D02*
Y3708750D01*
G01X26090760Y4026250D02*
X26271860D01*
G01X26575010Y3708750D02*
X26417530D01*
Y4026250D01*
X26575010D01*
G01X26512020Y3872800D02*
X26417530D01*
G01X26724620Y3708750D02*
Y4026250D01*
X26803350D01*
X26834850Y4010370D01*
X26858470Y3989210D01*
X26878160Y3957460D01*
X26893910Y3920410D01*
X26897840Y3867500D01*
X26893910Y3814580D01*
X26878160Y3777540D01*
X26858470Y3745780D01*
X26834850Y3724620D01*
X26803350Y3708750D01*
X26724620D01*
G01X28307290Y-101250D02*
Y216250D01*
X28260050Y152750D01*
G01Y-101250D02*
X28354530D01*
G01X28622250D02*
Y216250D01*
X28575010Y152750D01*
G01Y-101250D02*
X28669490D01*
G01X28850600Y-37750D02*
X28874210Y-74800D01*
X28905710Y-95960D01*
X28941150Y-101250D01*
X28972650Y-95960D01*
X29004140Y-69510D01*
X29023820Y-37750D01*
X29027760Y-6000D01*
X29019890Y31030D01*
X28992330Y57500D01*
X28964770Y68090D01*
X28929330D01*
G01X28964770D02*
X28988390Y83960D01*
X29008080Y110410D01*
X29015950Y142160D01*
X29008080Y173920D01*
X28988390Y200370D01*
X28952960Y216250D01*
X28917530Y210960D01*
X28882090Y189790D01*
G01X28307290Y3073750D02*
Y3391250D01*
X28260050Y3327750D01*
G01Y3073750D02*
X28354530D01*
G01X28622250Y3391250D02*
X28590750Y3380670D01*
X28567130Y3354210D01*
X28551380Y3322460D01*
X28539570Y3280120D01*
X28535640Y3232500D01*
X28539570Y3184870D01*
X28551380Y3142540D01*
X28567130Y3110780D01*
X28590750Y3084330D01*
X28622250Y3073750D01*
X28653740Y3084330D01*
X28677370Y3110780D01*
X28693120Y3142540D01*
X28704930Y3184870D01*
X28708860Y3232500D01*
X28704930Y3280120D01*
X28693120Y3322460D01*
X28677370Y3354210D01*
X28653740Y3380670D01*
X28622250Y3391250D01*
G01X28937210D02*
X28905710Y3380670D01*
X28882090Y3354210D01*
X28866340Y3322460D01*
X28854530Y3280120D01*
X28850600Y3232500D01*
X28854530Y3184870D01*
X28866340Y3142540D01*
X28882090Y3110780D01*
X28905710Y3084330D01*
X28937210Y3073750D01*
X28968700Y3084330D01*
X28992330Y3110780D01*
X29008080Y3142540D01*
X29019890Y3184870D01*
X29023820Y3232500D01*
X29019890Y3280120D01*
X29008080Y3322460D01*
X28992330Y3354210D01*
X28968700Y3380670D01*
X28937210Y3391250D01*
G01X28307290Y3708750D02*
X28275790Y3714040D01*
X28248240Y3735200D01*
X28224610Y3766960D01*
X28208860Y3804000D01*
X28200990Y3846330D01*
Y3888670D01*
X28208860Y3931000D01*
X28224610Y3968040D01*
X28248240Y3999790D01*
X28275790Y4020960D01*
X28307290Y4026250D01*
X28338780Y4020960D01*
X28366340Y3999790D01*
X28389970Y3968040D01*
X28405720Y3931000D01*
X28413590Y3888670D01*
Y3846330D01*
X28405720Y3804000D01*
X28389970Y3766960D01*
X28366340Y3735200D01*
X28338780Y3714040D01*
X28307290Y3708750D01*
G01X28338780Y3793420D02*
X28386030Y3708750D01*
G01X28622250Y4026250D02*
Y3708750D01*
G01X28531700Y4026250D02*
X28712800D01*
G01X28937210Y3708750D02*
Y3851620D01*
X28858470Y4026250D01*
G01X29015950D02*
X28937210Y3851620D01*
G01X28535640Y581360D02*
X28559250Y554910D01*
X28586810Y539040D01*
X28622250Y533750D01*
X28657690Y544330D01*
X28685240Y565490D01*
X28704930Y602540D01*
X28708860Y644870D01*
X28700990Y687200D01*
X28681300Y713670D01*
X28653740Y734830D01*
X28626190Y740120D01*
X28598630Y734830D01*
X28563200Y713670D01*
X28575010Y851250D01*
X28681300D01*
G01X28547440Y1433330D02*
X28571070Y1465080D01*
X28598630Y1480960D01*
X28630130Y1486250D01*
X28669490Y1475670D01*
X28697060Y1449210D01*
X28704930Y1417460D01*
X28700990Y1385700D01*
X28685240Y1359250D01*
X28606500Y1306330D01*
X28571070Y1269290D01*
X28547440Y1216360D01*
X28539570Y1168750D01*
X28704930D01*
G01X28547440Y2068330D02*
X28571070Y2100080D01*
X28598630Y2115960D01*
X28630130Y2121250D01*
X28669490Y2110670D01*
X28697060Y2084210D01*
X28704930Y2052460D01*
X28700990Y2020700D01*
X28685240Y1994250D01*
X28606500Y1941330D01*
X28571070Y1904290D01*
X28547440Y1851360D01*
X28539570Y1803750D01*
X28704930D01*
G01X28669490Y2438750D02*
Y2756250D01*
X28523820Y2528710D01*
X28720680D01*
G01X-250000Y0D02*
X-1950000D01*
G01X500000Y4800000D02*
X-1950000D01*
G01X-1700000Y2114260D02*
Y0D01*
G01X-1762500Y400000D02*
X-1700000Y0D01*
X-1637500Y400000D01*
X-1762500D01*
G01X-1700000Y2605740D02*
Y4800000D01*
G01X-1637500Y4400000D02*
X-1700000Y4800000D01*
X-1762500Y4400000D01*
X-1637500D01*
G01X-250000Y0D02*
X-1310000D01*
G01X-1122500Y400000D02*
X-1060000Y0D01*
X-997500Y400000D01*
X-1122500D01*
G01X-997500Y4040000D02*
X-1060000Y4440000D01*
X-1122500Y4040000D01*
X-997500D01*
G01X110000Y4440000D02*
X-1310000D01*
G01X-800000Y-390000D02*
X0D01*
G01X-250000Y0D02*
X-720000D01*
G01X-1060000Y1844260D02*
Y0D01*
G01X110000Y360000D02*
X-720000D01*
G01X-1060000Y2335740D02*
Y4440000D01*
G01X-470000Y-800000D02*
Y0D01*
G01X-400000Y-452500D02*
X0Y-390000D01*
X-400000Y-327500D01*
Y-452500D01*
G01X-407500Y-400000D02*
X-470000Y0D01*
X-532500Y-400000D01*
X-407500D01*
G01X-470000Y954260D02*
Y360000D01*
G01X-532500Y760000D02*
X-470000Y360000D01*
X-407500Y760000D01*
X-532500D01*
G01X0Y-250000D02*
Y-1340000D01*
G01X4747890Y-1090000D02*
X0D01*
G01X400000Y-1027500D02*
X0Y-1090000D01*
X400000Y-1152500D01*
Y-1027500D01*
G01X0Y-250000D02*
Y-960000D01*
G01X2377390Y-710000D02*
X0D01*
G01X400000Y-647500D02*
X0Y-710000D01*
X400000Y-772500D01*
Y-647500D01*
G01X0Y-250000D02*
Y-640000D01*
G01X360000Y110000D02*
Y-640000D01*
G01X1067890Y-390000D02*
X360000D01*
G01X760000Y-327500D02*
X360000Y-390000D01*
X760000Y-452500D01*
Y-327500D01*
G01X3582610Y-710000D02*
X10840000D01*
G01X5572110Y-1090000D02*
X11200000D01*
G01X10440000Y-772500D02*
X10840000Y-710000D01*
X10440000Y-647500D01*
Y-772500D01*
G01X10800000Y-1152500D02*
X11200000Y-1090000D01*
X10800000Y-1027500D01*
Y-1152500D01*
G01X10840000Y110000D02*
Y-960000D01*
G01X11200000Y620000D02*
Y-1340000D01*
G01X11890000Y375000D02*
Y5470000D01*
X29606500D01*
Y375000D01*
X11890000D01*
G01Y1010000D02*
X29606500D01*
G01X11890000Y1645000D02*
X29606500D01*
G01X11890000Y2280000D02*
X29606500D01*
G01X11890000Y2915000D02*
X29606500D01*
G01X11890000Y3550000D02*
X29606500D01*
G01X11890000Y4185000D02*
X29606500D01*
G01X11890000Y4820000D02*
X29606500D01*
G01X14173460Y4185000D02*
Y375000D01*
G01X19291560Y4185000D02*
Y375000D01*
G01X24409660Y4185000D02*
Y375000D01*
G01X27638000Y4185000D02*
Y375000D01*
M02*
