M48
METRIC,TZ
T01C.3048
T02C3.3
;LEADER: 12 
;HEADER: 
;CODE  : ASCII 
;FILE  : HY_CN3600_V10_250614-1-2.drl for board G:/github/DebugTool/HARDWARE/HY_CN3600_V10_250614/PCB/#Taaabge04816.tmp ... layers TOP and BOTTOM
;T01 Holesize 1. = 0.304800 Tolerance = +0.000000/-0.000000 PLATED MM Quantity = 100
;T02 Holesize 2. = 3.300000 Tolerance = +0.000000/-0.000000 PLATED MM Quantity = 4
%
G90
T01
X200000Y990000
X200000Y1390000
X950000Y90000
X950000Y490000
X950000Y890000
X1350000Y90000
X1350000Y490000
X1350000Y890000
X1750000Y90000
X1750000Y490000
X1750000Y890000
X2150000Y90000
X2150000Y490000
X2150000Y890000
X3720000Y170000
X4120000Y170000
X4520000Y170000
X4920000Y170000
X6780000Y150000
X7180000Y150000
X7580000Y150000
X7980000Y150000
X9060000Y160000
X9460000Y160000
X9860000Y160000
X10260000Y160000
X11060000Y1900000
X10660000Y1900000
X10260000Y1900000
X8910000Y3300000
X8910000Y2900000
X8510000Y3300000
X8510000Y2900000
X8110000Y3300000
X8110000Y2900000
X7710000Y3300000
X7710000Y2900000
X7310000Y3300000
X7310000Y2900000
X6910000Y3300000
X6910000Y2900000
X6510000Y3300000
X6510000Y2900000
X6110000Y3300000
X6110000Y2900000
X2160000Y2450000
X2160000Y2050000
X2110000Y2950000
X2070000Y3390000
X2070000Y3250000
X2070000Y3110000
X1980000Y3390000
X1980000Y3250000
X1980000Y3110000
X1890000Y3390000
X1890000Y3250000
X1890000Y3110000
X1850000Y2950000
X1760000Y2450000
X1760000Y2050000
X1620000Y2950000
X1470000Y3480000
X1090000Y3510000
X970000Y3510000
X200000Y1790000
X190000Y3320000
X190000Y2920000
X190000Y2520000
X340000Y3880000
X740000Y3880000
X1140000Y3880000
X1190000Y3590000
X1190000Y3700000
X1300000Y3590000
X1300000Y3700000
X1400000Y3590000
X1400000Y3700000
X1700000Y4580000
X2100000Y4580000
X2500000Y4580000
X3210000Y4380000
X3210000Y4480000
X3210000Y4590000
X3320000Y4380000
X3320000Y4480000
X3320000Y4590000
X3420000Y4380000
X3420000Y4480000
X3420000Y4590000
X6110000Y3700000
X6510000Y3700000
X6910000Y3700000
X7310000Y3700000
X7710000Y3700000
X8110000Y3700000
X8510000Y3700000
X8910000Y3700000
X9520000Y4610000
X9920000Y4610000
X10320000Y4610000
T02
X360000Y360000
X360000Y4440000
X10840000Y4440000
X10840000Y360000
M30
