G04 ================== begin FILE IDENTIFICATION RECORD ==================*
G04 Layout Name:  HY_CN3600_V10_250614.brd*
G04 Film Name:    TOP*
G04 File Format:  Gerber RS274X*
G04 File Origin:  Cadence Allegro 24.1-S003*
G04 Origin Date:  Sat Jun 14 15:38:47 2025*
G04 *
G04 Layer:  VIA CLASS/TOP*
G04 Layer:  PIN/TOP*
G04 Layer:  ETCH/TOP*
G04 *
G04 Offset:    (0.0000 0.0000)*
G04 Mirror:    No*
G04 Mode:      Positive*
G04 Rotation:  0*
G04 FullContactRelief:  No*
G04 UndefLineWidth:     0.1524*
G04 ================== end FILE IDENTIFICATION RECORD ====================*
%FSLAX55Y55*MOMM*%
%IR0*IPPOS*OFA0.00000B0.00000*MIA0B0*SFA1.00000B1.00000*%
%ADD17R,1.2X.3*%
%ADD16R,1.2X.6*%
%ADD22R,1.5X.6*%
%ADD18R,.8X.8*%
%ADD12C,.6096*%
%ADD15O,2.1X1.*%
%ADD13O,1.6X1.*%
%ADD11O,2.8X1.4*%
%ADD23R,1.8X1.6*%
%ADD21R,.5X.6*%
%ADD20R,2.5X3.5*%
%ADD19R,1.6X1.8*%
%ADD14R,.6X.5*%
%ADD25R,7.1X4.7*%
%ADD24R,7.4X6.4*%
%ADD10C,6.9*%
%ADD26C,.2032*%
%ADD27C,.254*%
%ADD28C,.508*%
%ADD29C,.762*%
%ADD30C,2.2004*%
%ADD31C,2.6004*%
G75*
%LPD*%
G75*
G36*
G01X360000Y4770000D02*
X10840000D01*
G02X11170000Y4440000I0J-330000D01*
G01Y360000D01*
G02X10840000Y30000I-330000J0D01*
G01X360000D01*
G02X30000Y360000I0J330000D01*
G01Y4440000D01*
G02X360000Y4770000I330000J0D01*
G37*
%LPC*%
G75*
G36*
G01X3451050Y4195740D02*
X3911050Y4655740D01*
X9228950D01*
X10068950Y3815740D01*
X11005740D01*
Y2921050D01*
X10868950Y2784260D01*
X6071050D01*
X5984260Y2871050D01*
Y3791050D01*
X5961050Y3814260D01*
X4478950D01*
X4178950Y3514260D01*
X3118950D01*
X3085740Y3481050D01*
Y2828950D01*
X3188950Y2725740D01*
X5425740D01*
Y2161050D01*
X5388950Y2124260D01*
X4608950D01*
X4555740Y2071050D01*
Y988950D01*
X4638950Y905740D01*
X9951050D01*
X10174260Y1128950D01*
Y1625740D01*
X11005740D01*
Y1061050D01*
X10258950Y314260D01*
X2501050D01*
X2374260Y441050D01*
Y2970620D01*
G03X2345040Y2988880I-20319J-5D01*
G02X2325000Y2984260I-20033J41122D01*
G01X2308440D01*
Y2902450D01*
G02X2321940Y2870000I-32250J-32450D01*
G01Y2790000D01*
G02X2276200Y2744260I-45740J0D01*
G01X2235740D01*
Y2660000D01*
G02X2190000Y2614260I-45740J0D01*
G01X2176910D01*
X2131320Y2568680D01*
G02X2090000Y2551560I-41326J41318D01*
G01X1930480D01*
G02X1889160Y2568680I6J58438D01*
G01X1843570Y2614260D01*
X1830000D01*
G02X1794180Y2631560I0J45733D01*
G01X1445740D01*
Y1968950D01*
X1458950Y1955740D01*
X1818950D01*
X1905740Y1868950D01*
Y1384260D01*
X1615740D01*
Y1031050D01*
X1538950Y954260D01*
X591050D01*
X474260Y1071050D01*
Y1404980D01*
X304980D01*
Y1595020D01*
X474260D01*
Y2348950D01*
X561050Y2435740D01*
X811050D01*
X834260Y2458950D01*
Y2844260D01*
X720000D01*
G02X689170Y2856210I0J45744D01*
G03X657800Y2851240I-13701J-15005D01*
G02X623000Y2830980I-34800J19757D01*
G02X598610Y2839270I0J40024D01*
G03X565900Y2823170I-12391J-16104D01*
G01Y2617700D01*
G02X585740Y2580000I-25899J-37700D01*
G01Y2530000D01*
G02X540000Y2484260I-45740J0D01*
G01X480000D01*
G02X450000Y2495470I0J45748D01*
G02X420000Y2484260I-30000J34538D01*
G01X360000D01*
G02X314260Y2530000I0J45740D01*
G01Y2580000D01*
G02X334100Y2617700I45739J0D01*
G01Y3210000D01*
G02X350470Y3249530I55913J0D01*
G01X425470Y3324530D01*
G02X465000Y3340900I39530J-39543D01*
G01X674080D01*
X674270Y3350870D01*
G02X675370Y3360000I45730J-878D01*
G02X674260Y3370000I44628J10015D01*
G01Y3397200D01*
G03X643520Y3414640I-20319J-4D01*
G02X623000Y3408980I-20520J34367D01*
G02Y3489020I0J40020D01*
G02X657800Y3468760I0J-40017D01*
G03X689170Y3463790I17669J10035D01*
G02X720000Y3475740I30830J-33794D01*
G01X1118950D01*
X1185150Y3409540D01*
X1270000D01*
G02X1286580Y3406430I0J-45751D01*
G01X1288350Y3405740D01*
X1321650D01*
X1323420Y3406430D01*
G02X1340000Y3409540I16580J-42641D01*
G01X1420000D01*
G02X1436580Y3406430I0J-45751D01*
G01X1438350Y3405740D01*
X1530520D01*
G03X1544890Y3440430I0J20321D01*
G01X1444260Y3541050D01*
Y4405740D01*
X1768950D01*
X1825740Y4348950D01*
Y3491910D01*
X1826650Y3489910D01*
G02X1830740Y3471000I-41651J-18906D01*
G01Y3405740D01*
X1835740D01*
Y3204260D01*
X1830740D01*
Y3157000D01*
G02X1821620Y3129590I-45750J0D01*
G03Y3117410I8130J-6090D01*
G02X1830740Y3090000I-36630J-27410D01*
G01Y3030000D01*
G02X1785000Y2984260I-45740J0D01*
G01X1635000D01*
G02X1616830Y2988020I-8J45742D01*
G01X1614900Y2988860D01*
X1596670D01*
G02X1560000Y2970460I-36670J27340D01*
G01X1498440D01*
Y2864210D01*
X1504210Y2858440D01*
X1688060D01*
Y2870000D01*
G02X1733800Y2915740I45740J0D01*
G01X1966200D01*
G02X1997950Y2902930I0J-45752D01*
G03X2012050I7050J7311D01*
G02X2043800Y2915740I31750J-32942D01*
G01X2191560D01*
Y2984260D01*
X2175000D01*
G02X2129260Y3030000I0J45740D01*
G01Y3090000D01*
G02X2175000Y3135740I45740J0D01*
G01X2325000D01*
G02X2345040Y3131120I7J-45742D01*
G03X2374260Y3149380I8901J18265D01*
G01Y3230160D01*
X2250000D01*
G02X2215950Y3237380I-12J83843D01*
G01X2213980Y3238260D01*
X2175000D01*
G02X2129260Y3284000I0J45740D01*
G01Y3344000D01*
G02X2175000Y3389740I45740J0D01*
G01X2213980D01*
X2215950Y3390620D01*
G02X2250000Y3397840I34038J-76623D01*
G01X2374260D01*
Y3448950D01*
X2844260Y3918950D01*
Y3954260D01*
X2484260D01*
Y4438950D01*
X2571050Y4525740D01*
X3058950D01*
X3115740Y4468950D01*
Y4244260D01*
X2858950D01*
X2835740Y4221050D01*
Y4159480D01*
G03X2870430Y4145110I20321J0D01*
G01X2921050Y4195740D01*
X3451050D01*
G37*
G54D30*
X10155000Y4015000D03*
%LPD*%
G75*
G36*
G01X880000Y3427820D02*
G03X881140Y3430000I-39948J22278D01*
G01X1100000D01*
X1130000Y3400000D01*
Y2200000D01*
X1100000Y2170000D01*
X890000D01*
X850000Y2130000D01*
Y1360000D01*
X880000Y1330000D01*
X1310000D01*
X1350000Y1370000D01*
Y1620000D01*
X1370000Y1640000D01*
X1570000D01*
Y1050000D01*
X1520000Y1000000D01*
X610000D01*
X520000Y1090000D01*
Y2330000D01*
X580000Y2390000D01*
X830000D01*
X880000Y2440000D01*
Y2787690D01*
X881040Y2789810D01*
G03X885740Y2810000I-41039J20195D01*
G01Y2870000D01*
G03X881040Y2890190I-45739J-5D01*
G01X880000Y2892310D01*
Y2947690D01*
X881040Y2949810D01*
G03X885740Y2970000I-41039J20195D01*
G01Y3350000D01*
G03X881040Y3370190I-45739J-5D01*
G01X880000Y3372310D01*
Y3427820D01*
G37*
G36*
G01X908950Y2124260D02*
X1144260D01*
Y1701050D01*
X1211050Y1634260D01*
X1304260D01*
Y1388950D01*
X1291050Y1375740D01*
X1197800D01*
G02X1184690Y1411580I2J20318D01*
G03X1225740Y1500000I-74702J88420D01*
G03X1110000Y1615740I-115740J0D01*
G01X970000D01*
G03X924120Y1606260I-4J-115741D01*
G02X895740Y1624910I-8061J18652D01*
G01Y2111050D01*
X908950Y2124260D01*
G37*
G36*
G01X1591510Y3360000D02*
X1790000D01*
Y3262740D01*
X1635000D01*
G03X1603330Y3250000I0J-45734D01*
G01X1440000D01*
X1400000Y3210000D01*
Y3182610D01*
G03X1381560Y3140000I40010J-42610D01*
G01Y2840000D01*
G03X1400000Y2797390I58450J0D01*
G01Y1950000D01*
X1440000Y1910000D01*
X1800000D01*
X1860000Y1850000D01*
Y1430000D01*
X1680000D01*
Y1650000D01*
X1650000Y1680000D01*
X1615740D01*
Y1685740D01*
X1351050D01*
X1345310Y1680000D01*
X1230000D01*
X1190000Y1720000D01*
Y1946360D01*
G03Y2113640I-79999J83640D01*
G01Y3360000D01*
X1448490D01*
X1451490Y3355320D01*
G03X1490000Y3334260I38510J24679D01*
G01X1497450D01*
X1497950Y3334210D01*
G03X1505000Y3333860I7048J70790D01*
G01X1520000D01*
G03X1527050Y3334210I2J71140D01*
G01X1527550Y3334260D01*
X1550000D01*
G03X1588510Y3355320I0J45739D01*
G01X1591510Y3360000D01*
G37*
G36*
G01X1490000Y4360000D02*
X1750000D01*
X1780000Y4330000D01*
Y3410000D01*
X1640000D01*
X1540160Y3509840D01*
X1539400Y3511520D01*
G03X1501520Y3549400I-69400J-31520D01*
G01X1499840Y3550160D01*
X1490000Y3560000D01*
Y4360000D01*
G37*
G36*
G01X10850000Y2830000D02*
X6090000D01*
X6030000Y2890000D01*
Y3810000D01*
X5980000Y3860000D01*
X4460000D01*
X4160000Y3560000D01*
X3100000D01*
X3040000Y3500000D01*
Y2810000D01*
X3170000Y2680000D01*
X5380000D01*
Y2180000D01*
X5370000Y2170000D01*
X4590000D01*
X4510000Y2090000D01*
Y970000D01*
X4620000Y860000D01*
X9970000D01*
X10220000Y1110000D01*
Y1580000D01*
X10960000D01*
Y1080000D01*
X10240000Y360000D01*
X2520000D01*
X2420000Y460000D01*
Y3430000D01*
X2890000Y3900000D01*
Y4100000D01*
X2940000Y4150000D01*
X3470000D01*
X3930000Y4610000D01*
X9210000D01*
X10050000Y3770000D01*
X10960000D01*
Y2940000D01*
X10850000Y2830000D01*
G37*
G36*
G01X3070000Y4450000D02*
Y4290000D01*
X2840000D01*
X2790000Y4240000D01*
Y4000000D01*
X2530000D01*
Y4420000D01*
X2590000Y4480000D01*
X3040000D01*
X3070000Y4450000D01*
G37*
%LPC*%
G75*
G54D30*
X5465000Y4015000D03*
G54D31*
X3865000Y1036000D03*
Y3824000D03*
%LPD*%
G75*
G54D10*
X360000Y360000D03*
Y4440000D03*
X10840000Y360000D03*
Y4440000D03*
G54D20*
X1620000Y4180000D03*
X1980000Y3250000D03*
X2660000Y4180000D03*
G54D11*
X300000Y1140000D03*
Y2120000D03*
X1040000Y1180000D03*
Y1500000D03*
Y2030000D03*
G54D21*
X1855000Y2690000D03*
X1945000D03*
X2165000D03*
X2075000D03*
G54D12*
X200000Y990000D03*
Y1390000D03*
Y1790000D03*
X190000Y2520000D03*
Y2920000D03*
Y3320000D03*
X340000Y3880000D03*
X740000D03*
X950000Y90000D03*
Y490000D03*
Y890000D03*
X1090000Y3510000D03*
X970000D03*
X1190000Y3590000D03*
Y3700000D03*
X1140000Y3880000D03*
X1350000Y90000D03*
Y490000D03*
Y890000D03*
X1620000Y2950000D03*
X1470000Y3480000D03*
X1400000Y3590000D03*
X1300000D03*
X1400000Y3700000D03*
X1300000D03*
X1750000Y90000D03*
Y490000D03*
Y890000D03*
X1760000Y2050000D03*
Y2450000D03*
X1890000Y3110000D03*
X1980000D03*
X1850000Y2950000D03*
X1980000Y3250000D03*
X1890000Y3390000D03*
X1980000D03*
X1890000Y3250000D03*
X1700000Y4580000D03*
X2150000Y90000D03*
Y490000D03*
Y890000D03*
X2160000Y2050000D03*
Y2450000D03*
X2070000Y3110000D03*
X2110000Y2950000D03*
X2070000Y3390000D03*
Y3250000D03*
X2100000Y4580000D03*
X2500000D03*
X3320000Y4380000D03*
X3420000D03*
X3210000D03*
X3320000Y4480000D03*
X3420000D03*
X3210000D03*
X3320000Y4590000D03*
X3420000D03*
X3210000D03*
X3720000Y170000D03*
X4120000D03*
X4520000D03*
X4920000D03*
X6110000Y2900000D03*
Y3300000D03*
Y3700000D03*
X6510000Y2900000D03*
Y3300000D03*
Y3700000D03*
X6780000Y150000D03*
X6910000Y2900000D03*
Y3300000D03*
Y3700000D03*
X7180000Y150000D03*
X7310000Y2900000D03*
Y3300000D03*
Y3700000D03*
X7580000Y150000D03*
X7710000Y2900000D03*
Y3300000D03*
Y3700000D03*
X7980000Y150000D03*
X8110000Y2900000D03*
Y3300000D03*
Y3700000D03*
X8510000Y2900000D03*
Y3300000D03*
Y3700000D03*
X9060000Y160000D03*
X8910000Y2900000D03*
Y3300000D03*
Y3700000D03*
X9460000Y160000D03*
X9520000Y4610000D03*
X9860000Y160000D03*
X9920000Y4610000D03*
X10260000Y160000D03*
Y1900000D03*
X10320000Y4610000D03*
X10660000Y1900000D03*
X11060000D03*
G54D13*
X258000Y2728000D03*
Y3592000D03*
G54D22*
X1710000Y3060000D03*
Y3187000D03*
Y3314000D03*
Y3441000D03*
X2250000Y3060000D03*
Y3441000D03*
Y3314000D03*
Y3187000D03*
G54D14*
X390000Y2555000D03*
Y2465000D03*
X510000Y2555000D03*
Y2465000D03*
X1520000Y3315000D03*
Y3405000D03*
G54D23*
X2980000Y3990000D03*
Y4370000D03*
G54D24*
X3495000Y1709000D03*
Y3151000D03*
X9645000Y1709000D03*
Y3151000D03*
G54D15*
X676000Y2728000D03*
Y3592000D03*
G54D25*
X5015000Y1320000D03*
Y2420000D03*
Y3520000D03*
X10605000Y1320000D03*
Y2420000D03*
Y3520000D03*
G54D16*
X780000Y2840000D03*
Y2920000D03*
Y3400000D03*
Y3480000D03*
G54D26*
G01Y3285000D02*
X465000D01*
X390000Y3210000D01*
Y2555000D01*
G01X510000D02*
Y2930000D01*
X565000Y2985000D01*
X780000D01*
G54D17*
D03*
Y3035000D03*
Y3085000D03*
Y3135000D03*
Y3185000D03*
Y3235000D03*
Y3285000D03*
Y3335000D03*
G54D27*
G01X1855000Y2690000D02*
X1360000D01*
G01X1773800Y2830000D02*
X1743800Y2800000D01*
X1480000D01*
X1440000Y2840000D01*
Y3140000D01*
X1487000Y3187000D01*
X1710000D01*
G01X1945000Y2690000D02*
Y2811200D01*
X1926200Y2830000D01*
G01X1855000Y2690000D02*
Y2685480D01*
X1930480Y2610000D01*
X2090000D01*
X2165000Y2685000D01*
Y2690000D01*
G01X2075000D02*
Y2821200D01*
X2083800Y2830000D01*
G01X2250000Y3060000D02*
Y2843800D01*
X2236200Y2830000D01*
G54D18*
X1230000Y3323800D03*
Y3476200D03*
X1520000Y3056200D03*
Y2903800D03*
X1380000Y3323800D03*
Y3476200D03*
X1926200Y2830000D03*
X1773800D03*
X2083800D03*
X2236200D03*
X3240000Y4256200D03*
Y4103800D03*
X3400000Y4256200D03*
Y4103800D03*
G54D28*
G01X860000Y2920000D02*
X920000Y2980000D01*
G01X780000Y2920000D02*
X860000D01*
G01Y3400000D02*
X910000Y3350000D01*
G01X780000Y3400000D02*
X860000D01*
G01X870000Y2920000D02*
X900000D01*
G01X870000D02*
X910000Y2880000D01*
G01X860000Y2920000D02*
X870000D01*
G01X860000Y3400000D02*
X920000D01*
G01X1710000Y3060000D02*
X1523800D01*
X1520000Y3056200D01*
G01X1470000Y3440000D02*
X1505000Y3405000D01*
X1520000D01*
G54D19*
X1440000Y1220000D03*
X1490000Y1530000D03*
X1820000Y1220000D03*
X1770000Y1530000D03*
G54D29*
G01X2464000Y3314000D02*
X2250000D01*
G01X2470000Y3320000D02*
X2464000Y3314000D01*
M02*
