G04 ================== begin FILE IDENTIFICATION RECORD ==================*
G04 Layout Name:  CH348Q_V10_240815.brd*
G04 Film Name:    BOTTOM*
G04 File Format:  Gerber RS274X*
G04 File Origin:  Cadence Allegro 23.1-S004*
G04 Origin Date:  Thu Aug 15 17:23:26 2024*
G04 *
G04 Layer:  ETCH/BOTTOM*
G04 Layer:  PIN/BOTTOM*
G04 Layer:  VIA CLASS/BOTTOM*
G04 *
G04 Offset:    (0.0000 0.0000)*
G04 Mirror:    No*
G04 Mode:      Positive*
G04 Rotation:  0*
G04 FullContactRelief:  No*
G04 UndefLineWidth:     0.1524*
G04 ================== end FILE IDENTIFICATION RECORD ====================*
%FSLAX55Y55*MOMM*%
%IR0*IPPOS*OFA0.00000B0.00000*MIA0B0*SFA1.00000B1.00000*%
%ADD11C,.508*%
%ADD14O,2.1X1.*%
%ADD12O,1.6X1.*%
%ADD15C,1.3*%
%ADD13C,3.3*%
%ADD18C,1.8*%
%ADD20C,1.9*%
%ADD16R,1.3X1.3*%
%ADD10C,6.9*%
%ADD17R,1.8X1.8*%
%ADD19R,1.9X1.9*%
%ADD21C,.2032*%
%ADD22C,.7112*%
%ADD23C,.762*%
%ADD24C,4.2148*%
G75*
%LPD*%
G75*
G36*
G01X1330310Y5370000D02*
X7169690D01*
G02X7183050Y5334370I-1J-20320D01*
G03X7049260Y5040000I256947J-294370D01*
G03X7440000Y4649260I390740J0D01*
G03X7772700Y4835090I0J390739D01*
G02X7807300I17300J-10659D01*
G03X8140000Y4649260I332700J204909D01*
G03X8434370Y4783050I0J390737D01*
G02X8470000Y4769690I15310J-13361D01*
G01Y630310D01*
G02X8434370Y616950I-20320J1D01*
G03X8140000Y750740I-294370J-256947D01*
G03X7749260Y360000I0J-390740D01*
G03X7883050Y65630I390737J0D01*
G02X7869690Y30000I-13361J-15310D01*
G01X630310D01*
G02X616950Y65630I1J20320D01*
G03X750740Y360000I-256947J294370D01*
G03X360000Y750740I-390740J0D01*
G03X65630Y616950I0J-390737D01*
G02X30000Y630310I-15310J13361D01*
G01Y4769690D01*
G02X65630Y4783050I20320J-1D01*
G03X360000Y4649260I294370J256947D01*
G03X692700Y4835090I0J390739D01*
G02X727300I17300J-10659D01*
G03X1060000Y4649260I332700J204909D01*
G03X1450740Y5040000I0J390740D01*
G03X1316950Y5334370I-390737J0D01*
G02X1330310Y5370000I13361J15310D01*
G37*
%LPC*%
G75*
G36*
G01X228000Y3197740D02*
X288000D01*
G02Y3006260I0J-95740D01*
G01X228000D01*
G02Y3197740I0J95740D01*
G37*
G36*
G01X4804460Y828890D02*
G03X4837540I16540J11805D01*
G02X5058460I110460J-78887D01*
G03X5091540I16540J11805D01*
G02X5202000Y885740I110460J-78887D01*
G02Y614260I0J-135740D01*
G02X5091540Y671110I0J135737D01*
G03X5058460I-16540J-11805D01*
G02X4837540I-110460J78887D01*
G03X4804460I-16540J-11805D01*
G02X4694000Y614260I-110460J78887D01*
G02X4603900Y648470I-5J135742D01*
G03X4571830Y641500I-13490J-15195D01*
G02X4530000Y614260I-41830J18497D01*
G01X4350000D01*
G02X4304260Y660000I0J45740D01*
G01Y840000D01*
G02X4350000Y885740I45740J0D01*
G01X4530000D01*
G02X4571830Y858500I0J-45737D01*
G03X4603900Y851530I18580J8225D01*
G02X4694000Y885740I90095J-101532D01*
G02X4804460Y828890I0J-135737D01*
G37*
G36*
G01X7523440Y2301380D02*
G03Y2333420I-12492J16020D01*
G02X7469260Y2444400I86573J110980D01*
G02X7750740I140740J0D01*
G02X7696560Y2333420I-140753J0D01*
G03Y2301380I12492J-16020D01*
G02Y2079420I-86573J-110980D01*
G03Y2047380I12492J-16020D01*
G02Y1825420I-86573J-110980D01*
G03Y1793380I12492J-16020D01*
G02Y1571420I-86573J-110980D01*
G03Y1539380I12492J-16020D01*
G02X7750740Y1428400I-86573J-110980D01*
G02X7716060Y1335890I-140727J0D01*
G03X7721730Y1304650I15316J-13355D01*
G02X7745740Y1264400I-21732J-40250D01*
G01Y1084400D01*
G02X7700000Y1038660I-45740J0D01*
G01X7520000D01*
G02X7474260Y1084400I0J45740D01*
G01Y1264400D01*
G02X7498270Y1304650I45742J0D01*
G03X7503940Y1335890I-9646J17885D01*
G02X7469260Y1428400I106047J92510D01*
G02X7523440Y1539380I140753J0D01*
G03Y1571420I-12492J16020D01*
G02Y1793380I86573J110980D01*
G03Y1825420I-12492J16020D01*
G02Y2047380I86573J110980D01*
G03Y2079420I-12492J16020D01*
G02Y2301380I86573J110980D01*
G37*
G36*
G01X2910290Y3129110D02*
X2119010D01*
G02X2075010Y3113870I-44000J55897D01*
G02Y3256150I0J71140D01*
G02X2119010Y3240910I0J-71137D01*
G01X2923250D01*
G02X2960000Y3251140I36754J-60909D01*
G02Y3108860I0J-71140D01*
G02X2910290Y3129110I0J71139D01*
G37*
G36*
G01X7523440Y4066980D02*
G03Y4099020I-12492J16020D01*
G02X7469260Y4210000I86573J110980D01*
G02X7750740I140740J0D01*
G02X7696560Y4099020I-140753J0D01*
G03Y4066980I12492J-16020D01*
G02Y3845020I-86573J-110980D01*
G03Y3812980I12492J-16020D01*
G02Y3591020I-86573J-110980D01*
G03Y3558980I12492J-16020D01*
G02Y3337020I-86573J-110980D01*
G03Y3304980I12492J-16020D01*
G02X7750740Y3194000I-86573J-110980D01*
G02X7716060Y3101490I-140727J0D01*
G03X7721730Y3070250I15316J-13355D01*
G02X7745740Y3030000I-21732J-40250D01*
G01Y2850000D01*
G02X7700000Y2804260I-45740J0D01*
G01X7520000D01*
G02X7474260Y2850000I0J45740D01*
G01Y3030000D01*
G02X7498270Y3070250I45742J0D01*
G03X7503940Y3101490I-9646J17885D01*
G02X7469260Y3194000I106047J92510D01*
G02X7523440Y3304980I140753J0D01*
G03Y3337020I-12492J16020D01*
G02Y3558980I86573J110980D01*
G03Y3591020I-12492J16020D01*
G02Y3812980I86573J110980D01*
G03Y3845020I-12492J16020D01*
G02Y4066980I86573J110980D01*
G37*
G36*
G01X583000Y3014130D02*
G02X525260Y3102000I37991J87870D01*
G02X621000Y3197740I95740J0D01*
G01X731000D01*
G02Y3006260I0J-95740D01*
G01X676990D01*
G03X658810Y2976870I2J-20319D01*
G02X663020Y2959000I-35821J-17870D01*
G02X582980I-40020J0D01*
G02X591120Y2983190I40013J0D01*
G03X583000Y3014130I-16186J12288D01*
G37*
G36*
G01X826160Y2744730D02*
Y2910000D01*
G02X993840I83840J0D01*
G01Y2865280D01*
G03X1012500Y2845030I20320J3D01*
G02X1071990Y2802350I-5811J-70900D01*
G01X1074640Y2796220D01*
X1299680D01*
G02X1339210Y2779850I0J-55913D01*
G01X1459850Y2659210D01*
G02X1476220Y2619680I-39543J-39530D01*
G01Y1676010D01*
G03X1497080Y1655700I20320J3D01*
G02X1500000Y1655740I2977J-110699D01*
G02Y1434260I0J-110740D01*
G02X1415500Y1473420I0J110748D01*
G03X1384500I-15500J-13135D01*
G02X1300000Y1434260I-84500J71588D01*
G02Y1655740I0J110740D01*
G02X1302920Y1655700I-57J-110739D01*
G03X1323780Y1676010I540J20313D01*
G01Y2579690D01*
X1259690Y2643780D01*
X1074640D01*
X1071990Y2637650D01*
G02X1012500Y2594970I-65301J28220D01*
G03X993840Y2574720I1660J-20253D01*
G01Y2430000D01*
G02X826160I-83840J0D01*
G01Y2555270D01*
X815270Y2566160D01*
X554730D01*
X523840Y2535270D01*
Y2324980D01*
G03X557610Y2309750I20319J0D01*
G02X583000Y2325870I63373J-71761D01*
G03X591120Y2356810I-8066J18652D01*
G02X582980Y2381000I31873J24190D01*
G02X663020I40020J0D01*
G02X658810Y2363130I-40031J0D01*
G03X676990Y2333740I18182J-9071D01*
G01X731000D01*
G02Y2142260I0J-95740D01*
G01X621000D01*
G02X557610Y2166250I0J95744D01*
G03X523840Y2151020I-13451J-15230D01*
G01Y1259530D01*
X549530Y1233840D01*
X1175470D01*
G03X1194770Y1260490I-7J20318D01*
G02X1189260Y1295000I105232J34497D01*
G02X1300000Y1405740I110740J0D01*
G02X1368430Y1382060I-8J-110737D01*
G03X1397600Y1386340I12555J15978D01*
G02X1435000Y1405740I37400J-26351D01*
G01X1565000D01*
G02X1610740Y1360000I0J-45740D01*
G01Y1230000D01*
G02X1565000Y1184260I-45740J0D01*
G01X1507830D01*
X1414280Y1090720D01*
G02X1355000Y1066160I-59287J59277D01*
G01X514800D01*
G02X455520Y1090720I7J83837D01*
G01X380720Y1165520D01*
G02X356160Y1224800I59277J59287D01*
G01Y2132260D01*
G03X327460Y2150770I-20320J-1D01*
G02X288000Y2142260I-39460J87231D01*
G01X228000D01*
G02Y2333740I0J95740D01*
G01X288000D01*
G02X327460Y2325230I0J-95741D01*
G03X356160Y2343740I8380J18511D01*
G01Y2570000D01*
G02X380720Y2629280I83837J-7D01*
G01X460720Y2709280D01*
G02X520000Y2733840I59287J-59277D01*
G01X815270D01*
X826160Y2744730D01*
G37*
G36*
G01X4996720Y5305480D02*
G02X5056000Y5330040I59287J-59277D01*
G01X6194110D01*
G02X6253390Y5305480I-7J-83837D01*
G01X6307280Y5251590D01*
G02X6331840Y5192310I-59277J-59287D01*
G01Y4761930D01*
G03X6370170Y4758500I19747J4792D01*
G02X6412000Y4785740I41830J-18497D01*
G01X6592000D01*
G02X6637740Y4740000I0J-45740D01*
G01Y4560000D01*
G02X6592000Y4514260I-45740J0D01*
G01X6412000D01*
G02X6370170Y4541500I0J45737D01*
G03X6338100Y4548470I-18580J-8225D01*
G02X6248000Y4514260I-90095J101532D01*
G02X6137540Y4571110I0J135737D01*
G03X6104460I-16540J-11805D01*
G02X6049900Y4526300I-110468J78883D01*
G01Y2044000D01*
G02X6033530Y2004470I-55913J0D01*
G01X5870310Y1841250D01*
G02X5830780Y1824880I-39530J39543D01*
G01X4683650D01*
G03X4664170Y1798800I4J-20318D01*
G02X4669740Y1760300I-130172J-38486D01*
G02X4534000Y1624560I-135740J0D01*
G02X4423540Y1681410I0J135737D01*
G03X4390460I-16540J-11805D01*
G02X4280000Y1624560I-110460J78887D01*
G02X4198430Y1651800I0J135750D01*
G03X4165900Y1635560I-12211J-16240D01*
G01Y583150D01*
X4203150Y545900D01*
X5964850D01*
X5998810Y579870D01*
G03X5985690Y614510I-14371J14362D01*
G02X5903900Y648470I8311J135488D01*
G03X5871830Y641500I-13490J-15195D01*
G02X5830000Y614260I-41830J18497D01*
G01X5650000D01*
G02X5604260Y660000I0J45740D01*
G01Y840000D01*
G02X5650000Y885740I45740J0D01*
G01X5830000D01*
G02X5871830Y858500I0J-45737D01*
G03X5903900Y851530I18580J8225D01*
G02X5994000Y885740I90095J-101532D01*
G02X6020220Y883180I-18J-135738D01*
G01X6025530Y882140D01*
X6083860Y940470D01*
Y1595530D01*
X6080530Y1598860D01*
X5865000D01*
G02Y1741140I0J71140D01*
G01X6080530D01*
X6083860Y1744470D01*
Y2745000D01*
G02X6226140I71140J0D01*
G01Y1715000D01*
G02X6210100Y1670000I-71143J0D01*
G02X6226140Y1625000I-55103J-45000D01*
G01Y906050D01*
G03X6246660Y885730I20321J0D01*
G02X6248000Y885740I1683J-135727D01*
G02X6358460Y828890I0J-135737D01*
G03X6391540I16540J11805D01*
G02X6502000Y885740I110460J-78887D01*
G02Y614260I0J-135740D01*
G02X6459880Y620960I0J135745D01*
G01X6453950Y622900D01*
X6221530Y390470D01*
G02X6182000Y374100I-39530J39543D01*
G01X4150000D01*
G02X4110470Y390470I0J55913D01*
G01X4010470Y490470D01*
G02X3994100Y530000I39543J39530D01*
G01Y611430D01*
G03X3964430Y629470I-20320J-1D01*
G02X3902000Y614260I-62430J120518D01*
G02X3791540Y671110I0J135737D01*
G03X3758460I-16540J-11805D01*
G02X3537540I-110460J78887D01*
G03X3504460I-16540J-11805D01*
G02X3477840Y643250I-110457J78894D01*
G01Y302530D01*
X3542730Y237640D01*
X6370000D01*
G02Y69960I0J-83840D01*
G01X3508000D01*
G02X3448720Y94520I7J83837D01*
G01X3394000Y149230D01*
X3339280Y94520D01*
G02X3280000Y69960I-59287J59277D01*
G01X2176200D01*
G02X2116920Y94520I7J83837D01*
G01X2034720Y176720D01*
G02X2010160Y236000I59277J59287D01*
G01Y638070D01*
G03X1971830Y641500I-19747J-4792D01*
G02X1930000Y614260I-41830J18497D01*
G01X1750000D01*
G02X1704260Y660000I0J45740D01*
G01Y840000D01*
G02X1750000Y885740I45740J0D01*
G01X1930000D01*
G02X1971830Y858500I0J-45737D01*
G03X2003900Y851530I18580J8225D01*
G02X2094000Y885740I90095J-101532D01*
G02X2204460Y828890I0J-135737D01*
G03X2237540I16540J11805D01*
G02X2458460I110460J-78887D01*
G03X2491540I16540J11805D01*
G02X2602000Y885740I110460J-78887D01*
G02Y614260I0J-135740D01*
G02X2491540Y671110I0J135737D01*
G03X2458460I-16540J-11805D01*
G02X2237540I-110460J78887D01*
G03X2204460I-16540J-11805D01*
G02X2177840Y643250I-110457J78894D01*
G01Y270730D01*
X2210930Y237640D01*
X3245270D01*
X3310160Y302530D01*
Y638070D01*
G03X3271830Y641500I-19747J-4792D01*
G02X3230000Y614260I-41830J18497D01*
G01X3050000D01*
G02X3004260Y660000I0J45740D01*
G01Y840000D01*
G02X3050000Y885740I45740J0D01*
G01X3230000D01*
G02X3271830Y858500I0J-45737D01*
G03X3310160Y861930I18583J8222D01*
G01Y1241270D01*
X3265270Y1286160D01*
X3170850D01*
X3168950Y1284260D01*
X2821050D01*
X2774260Y1331050D01*
Y1428860D01*
X2660000D01*
G02X2609700Y1449700I6J71137D01*
G01X2539700Y1519700D01*
G02X2518860Y1570000I50297J50306D01*
G01Y2228860D01*
X2160000D01*
G02Y2371140I0J71140D01*
G01X2518860D01*
Y2670530D01*
X2480530Y2708860D01*
X1570000D01*
G02X1519700Y2729700I0J71123D01*
G01X1429700Y2819700D01*
G02X1408860Y2870000I50297J50306D01*
G01Y3900530D01*
X1370530Y3938860D01*
X349470D01*
X341140Y3930530D01*
Y3460000D01*
G02X198860I-71140J0D01*
G01Y3960000D01*
G02X219700Y4010300I71137J-6D01*
G01X269700Y4060300D01*
G02X320000Y4081140I50300J-50283D01*
G01X1400000D01*
G02X1450300Y4060300I0J-71123D01*
G01X1480000Y4030610D01*
X1504700Y4055300D01*
G02X1555000Y4076140I50300J-50283D01*
G01X2545000D01*
G02X2595300Y4055300I0J-71123D01*
G01X2655300Y3995300D01*
G02X2676140Y3945000I-50297J-50306D01*
G01Y3775000D01*
G02X2533860I-71140J0D01*
G01Y3915530D01*
X2515530Y3933860D01*
X1584470D01*
X1551140Y3900530D01*
Y2899470D01*
X1599470Y2851140D01*
X2510000D01*
G02X2560300Y2830300I0J-71123D01*
G01X2640300Y2750300D01*
G02X2661140Y2700000I-50297J-50306D01*
G01Y1599470D01*
X2689470Y1571140D01*
X2806450D01*
X2811050Y1575740D01*
X3093980D01*
X3095950Y1576620D01*
G02X3130000Y1583840I34038J-76623D01*
G02X3164050Y1576620I12J-83843D01*
G01X3166020Y1575740D01*
X3168950D01*
X3170850Y1573840D01*
X3269070D01*
X3296160Y1600930D01*
Y3520000D01*
G02X3320720Y3579280I83837J-7D01*
G01X3564160Y3822730D01*
Y4543250D01*
G02X3537540Y4571110I83837J106754D01*
G03X3504460I-16540J-11805D01*
G02X3283540I-110460J78887D01*
G03X3250460I-16540J-11805D01*
G02X3140000Y4514260I-110460J78887D01*
G02Y4785740I0J135740D01*
G02X3250460Y4728890I0J-135737D01*
G03X3283540I16540J11805D01*
G02X3504460I110460J-78887D01*
G03X3537540I16540J11805D01*
G02X3564160Y4756750I110457J-78894D01*
G01Y5123470D01*
X3525270Y5162360D01*
X2460730D01*
X2431840Y5133470D01*
Y4761930D01*
G03X2470170Y4758500I19747J4792D01*
G02X2512000Y4785740I41830J-18497D01*
G01X2692000D01*
G02X2737740Y4740000I0J-45740D01*
G01Y4560000D01*
G02X2692000Y4514260I-45740J0D01*
G01X2512000D01*
G02X2470170Y4541500I0J45737D01*
G03X2438100Y4548470I-18580J-8225D01*
G02X2348000Y4514260I-90095J101532D01*
G02X2237540Y4571110I0J135737D01*
G03X2204460I-16540J-11805D01*
G02X1983540I-110460J78887D01*
G03X1950460I-16540J-11805D01*
G02X1840000Y4514260I-110460J78887D01*
G02Y4785740I0J135740D01*
G02X1950460Y4728890I0J-135737D01*
G03X1983540I16540J11805D01*
G02X2204460I110460J-78887D01*
G03X2237540I16540J11805D01*
G02X2264160Y4756750I110457J-78894D01*
G01Y5133470D01*
X2235270Y5162360D01*
X1960000D01*
G02Y5330040I0J83840D01*
G01X2270000D01*
G02X2329280Y5305480I-7J-83837D01*
G01X2348000Y5286770D01*
X2366720Y5305480D01*
G02X2426000Y5330040I59287J-59277D01*
G01X3560000D01*
G02X3619280Y5305480I-7J-83837D01*
G01X3648000Y5276770D01*
X3676720Y5305480D01*
G02X3736000Y5330040I59287J-59277D01*
G01X4840000D01*
G02X4899280Y5305480I-7J-83837D01*
G01X4948000Y5256770D01*
X4996720Y5305480D01*
G37*
G54D24*
X1029000Y818000D03*
Y2022000D03*
%LPD*%
G75*
G36*
G01X2820000Y1520000D02*
X2830000Y1530000D01*
X3150000D01*
X3170000Y1510000D01*
Y1350000D01*
X3150000Y1330000D01*
X2840000D01*
X2820000Y1350000D01*
Y1520000D01*
G37*
G36*
G01X3770730Y5162360D02*
X4805270D01*
X4864160Y5103470D01*
Y4756750D01*
G03X4837540Y4728890I83837J-106754D01*
G02X4804460I-16540J11805D01*
G03X4583540I-110460J-78887D01*
G02X4550460I-16540J11805D01*
G03X4440000Y4785740I-110460J-78887D01*
G03Y4514260I0J-135740D01*
G03X4482120Y4520960I0J135745D01*
G01X4488050Y4522900D01*
X4674100Y4336850D01*
Y3860040D01*
G02X4638180Y3847010I-20321J-6D01*
G03X4534000Y3895740I-104180J-86998D01*
G03X4448460Y3865390I6J-135738D01*
G02X4417000Y3873120I-12802J15781D01*
G03X4375000Y3900740I-42000J-18123D01*
G01X4185000D01*
G03X4139260Y3855000I0J-45740D01*
G01Y3665000D01*
G03X4166880Y3623000I45743J0D01*
G02X4174610Y3591540I-8051J-18658D01*
G03X4153760Y3555900I105375J-85565D01*
G01X3710000D01*
G03X3670470Y3539530I0J-55913D01*
G01X3608470Y3477530D01*
G03X3592100Y3438000I39543J-39530D01*
G01Y873700D01*
G03X3537540Y828890I55908J-123693D01*
G02X3504460I-16540J11805D01*
G03X3477840Y856750I-110457J-78894D01*
G01Y1276000D01*
G03X3453280Y1335280I-83837J-7D01*
G01X3360470Y1428100D01*
X3439280Y1506920D01*
G03X3463840Y1566200I-59277J59287D01*
G01Y3485270D01*
X3707280Y3728720D01*
G03X3731840Y3788000I-59277J59287D01*
G01Y4538070D01*
G02X3770170Y4541500I19747J-4792D01*
G03X3812000Y4514260I41830J18497D01*
G01X3992000D01*
G03X4037740Y4560000I0J45740D01*
G01Y4740000D01*
G03X3992000Y4785740I-45740J0D01*
G01X3812000D01*
G03X3770170Y4758500I0J-45737D01*
G02X3731840Y4761930I-18583J8222D01*
G01Y5123470D01*
X3770730Y5162360D01*
G37*
G36*
G01X3733150Y3444100D02*
X4159200D01*
G03X4166450Y3431630I120805J61893D01*
G02X4157950Y3415900I-8499J-5569D01*
G01X3960000D01*
G03X3920470Y3399530I0J-55913D01*
G01X3862470Y3341530D01*
G03X3846100Y3302000I39543J-39530D01*
G01Y873700D01*
G03X3791540Y828890I55908J-123693D01*
G02X3758460I-16540J11805D01*
G03X3703900Y873700I-110468J-78883D01*
G01Y3414850D01*
X3733150Y3444100D01*
G37*
G36*
G01X5090730Y5162360D02*
X6159380D01*
X6164160Y5157580D01*
Y4756750D01*
G03X6137540Y4728890I83837J-106754D01*
G02X6104460I-16540J11805D01*
G03X5883540I-110460J-78887D01*
G02X5850460I-16540J11805D01*
G03X5740000Y4785740I-110460J-78887D01*
G03X5604260Y4650000I0J-135740D01*
G03X5684100Y4526300I135747J0D01*
G01Y2323150D01*
X5596850Y2235900D01*
X4661650D01*
G02X4645030Y2267910I-1J20319D01*
G03X4669740Y2346000I-111037J78090D01*
G03X4612890Y2456460I-135737J0D01*
G02Y2489540I11805J16540D01*
G03X4669740Y2600000I-78887J110460D01*
G03X4534000Y2735740I-135740J0D01*
G03X4448460Y2705390I6J-135738D01*
G02X4417000Y2713120I-12802J15781D01*
G03X4375000Y2740740I-42000J-18123D01*
G01X4185000D01*
G03X4139260Y2695000I0J-45740D01*
G01Y2538310D01*
X4010470Y2409530D01*
G03X3994100Y2370000I39543J-39530D01*
G01Y888570D01*
G02X3957900Y875900I-20319J4D01*
G01Y3278850D01*
X3983150Y3304100D01*
X4119530D01*
G02X4139670Y3281080I-1J-20321D01*
G03X4139260Y3275000I45328J-6110D01*
G01Y3085000D01*
G03X4166880Y3043000I45743J0D01*
G02X4174610Y3011540I-8051J-18658D01*
G03X4144260Y2926000I105388J-85546D01*
G03X4280000Y2790260I135740J0D01*
G03X4390460Y2847110I0J135737D01*
G02X4423540I16540J-11805D01*
G03X4534000Y2790260I110460J78887D01*
G03X4669740Y2926000I0J135740D01*
G03X4664170Y2964500I-135742J14D01*
G02X4683650Y2990580I19484J5762D01*
G01X4706480D01*
G03X4746010Y3006950I0J55913D01*
G01X4839530Y3100470D01*
G03X4855900Y3140000I-39543J39530D01*
G01Y4529280D01*
G02X4871770Y4537690I10161J5D01*
G03X4876860Y4534400I76210J112323D01*
G01Y3931990D01*
G03X4897700Y3881690I71137J6D01*
G01X5003860Y3775520D01*
Y2729470D01*
X4884700Y2610300D01*
G03X4863860Y2560000I50283J-50300D01*
G03X4935000Y2488860I71140J0D01*
G03X4985300Y2509700I-6J71137D01*
G01X5125300Y2649700D01*
G03X5146140Y2700000I-50297J50306D01*
G01Y3804990D01*
G03X5125300Y3855290I-71137J-6D01*
G01X5019140Y3961460D01*
Y4534400D01*
G03X5038100Y4548470I-71104J115626D01*
G02X5070170Y4541500I13490J-15195D01*
G03X5112000Y4514260I41830J18497D01*
G01X5292000D01*
G03X5337740Y4560000I0J45740D01*
G01Y4740000D01*
G03X5292000Y4785740I-45740J0D01*
G01X5112000D01*
G03X5070170Y4758500I0J-45737D01*
G02X5031840Y4761930I-18583J8222D01*
G01Y5103470D01*
X5090730Y5162360D01*
G37*
G36*
G01X5795900Y4526300D02*
G03X5850460Y4571110I-55908J123693D01*
G02X5883540I16540J-11805D01*
G03X5938100Y4526300I110468J78883D01*
G01Y2067150D01*
X5807630Y1936680D01*
X4679160D01*
G02X4660260Y1964460I0J20319D01*
G03X4669740Y2014300I-126274J49840D01*
G03X4645210Y2092130I-135736J0D01*
G02X4661860Y2124100I16649J11650D01*
G01X5620000D01*
G03X5659530Y2140470I0J55913D01*
G01X5779530Y2260470D01*
G03X5795900Y2300000I-39543J39530D01*
G01Y4526300D01*
G37*
G54D10*
X360000Y360000D03*
Y5040000D03*
X1060000D03*
X7440000D03*
X8140000Y360000D03*
Y5040000D03*
G54D20*
X7610000Y1428400D03*
Y1936400D03*
Y1682400D03*
Y2190400D03*
Y2444400D03*
Y3194000D03*
Y3702000D03*
Y3448000D03*
Y3956000D03*
Y4210000D03*
G54D11*
G01X1480000Y3930000D02*
X1400000Y4010000D01*
X320000D01*
X270000Y3960000D01*
Y3460000D01*
G01X1480000Y2960000D02*
Y2870000D01*
X1570000Y2780000D01*
X2280000D01*
G01X1480000Y2960000D02*
Y3930000D01*
G01D02*
X1555000Y4005000D01*
X1600000D01*
G01X2605000Y3775000D02*
Y3945000D01*
X2545000Y4005000D01*
X1600000D01*
G01X2160000Y2300000D02*
X2590000D01*
G01D02*
Y2700000D01*
X2510000Y2780000D01*
X2280000D01*
G01X2870000Y1500000D02*
X2660000D01*
X2590000Y1570000D01*
Y2300000D01*
G01X4694000Y156000D02*
X4727800D01*
X4730000Y153800D01*
G01X5075000Y3330000D02*
Y2700000D01*
X4935000Y2560000D01*
G01X5075000Y3770000D02*
Y3330000D01*
G01X4948000Y4650000D02*
Y3931990D01*
X5075000Y3804990D01*
Y3770000D01*
G01X6155000Y1115000D02*
Y911000D01*
X5994000Y750000D01*
G01X6155000Y1115000D02*
Y1625000D01*
X6110000Y1670000D01*
G01D02*
X5865000D01*
G01X6155000Y1995000D02*
Y1715000D01*
X6110000Y1670000D01*
G01X6155000Y2745000D02*
Y1995000D01*
X110000Y810000D03*
Y1310000D03*
Y1810000D03*
X90000Y4180000D03*
X250000Y2500000D03*
Y2850000D03*
X270000Y3460000D03*
X490000Y3770000D03*
X610000Y810000D03*
Y1310000D03*
Y1810000D03*
X830000Y3260000D03*
X590000Y4180000D03*
X1220000Y80000D03*
Y580000D03*
X1070000Y2560000D03*
X910000Y2430000D03*
X1250000Y2840000D03*
X1020000Y2880000D03*
X910000Y2910000D03*
X1006690Y2665870D03*
Y2774130D03*
X1100000Y3200000D03*
X910000Y3020000D03*
X1230000Y3384800D03*
X1220000Y3550000D03*
X960000Y3500000D03*
X990000Y3770000D03*
X1090000Y4180000D03*
X1590000Y2190000D03*
Y2340000D03*
Y2500000D03*
X1600000Y2960000D03*
X1480000D03*
X1600000Y3830000D03*
Y4095000D03*
Y4005000D03*
X1490000Y4700000D03*
Y4390000D03*
Y5200000D03*
X1720000Y80000D03*
Y580000D03*
X1890000Y1080000D03*
Y1650000D03*
X1690000Y2120000D03*
X1850000D03*
X1660000Y2680000D03*
X1740000Y3100000D03*
Y3300000D03*
Y3490000D03*
Y3670000D03*
X1880000Y4110000D03*
X2220000Y580000D03*
X2150000Y1090000D03*
X2090000Y2220000D03*
X1990000Y2120000D03*
X2280000Y1980000D03*
X2060000Y2570000D03*
X2280000Y2480000D03*
X2160000Y2300000D03*
X2060000Y2680000D03*
X2280000Y2780000D03*
X1980000Y3100000D03*
X2230000Y3300000D03*
X1980000D03*
X2230000Y3100000D03*
X2075010Y3185010D03*
X1980000Y3490000D03*
X2230000D03*
Y3670000D03*
X1980000D03*
X1990000Y4390000D03*
X1960000Y5246200D03*
X2480000Y153800D03*
X2330000Y1090000D03*
X2570000Y1110000D03*
X2340000Y1280000D03*
X2370000Y1650000D03*
X2500000Y2480000D03*
X2590000Y2300000D03*
X2510000Y3010000D03*
X2450000Y3820000D03*
X2605000Y3775000D03*
X2550000Y4400000D03*
X2720000Y580000D03*
X2810000Y1110000D03*
X3000000Y1370000D03*
Y1500000D03*
X2870000D03*
X2800000Y1660000D03*
X2710000Y2160000D03*
X2680000Y2480000D03*
X2890000D03*
X2670000Y3010000D03*
X2880000D03*
X2960000Y3280000D03*
Y3180000D03*
X2695000Y3775000D03*
X2940000Y3770000D03*
X2850000Y4110000D03*
X2800000Y5040000D03*
X3230000Y280000D03*
X3220000Y580000D03*
X3030000Y1110000D03*
X3230000Y1170000D03*
X3130000Y1370000D03*
Y1500000D03*
X3200000Y1650000D03*
X3250000Y2130000D03*
Y1940000D03*
Y2560000D03*
Y2370000D03*
X3040000Y3010000D03*
X3250000Y3430000D03*
X3290000Y4440000D03*
X3260000Y5246200D03*
X3510000Y1020000D03*
Y1430000D03*
X3530000Y2130000D03*
X3510000Y1910000D03*
X3530000Y2560000D03*
Y2370000D03*
X3440000Y3770000D03*
X3780000Y153800D03*
X3750000Y1010000D03*
X3980000Y1240000D03*
X3770000Y2370000D03*
Y2560000D03*
X4030000D03*
X3950000Y3920000D03*
X3800000Y4260000D03*
X4020000Y5060000D03*
X4110000Y300000D03*
X4220000Y580000D03*
X4410000Y1240000D03*
X4400000Y1570000D03*
X4200000Y4270000D03*
X4540000Y300000D03*
X4694000Y156000D03*
X4710000Y2100000D03*
X4740000Y2470000D03*
Y2820000D03*
X4450000Y3920000D03*
X4550000Y4390000D03*
X4560000Y5246200D03*
X5080000Y153800D03*
X4840000Y1240000D03*
Y1570000D03*
X4930000Y2100000D03*
X4845000Y2560000D03*
X4935000D03*
X4890000Y3240000D03*
X4985000Y3330000D03*
X5075000D03*
X4985000Y3770000D03*
X4900000Y3680000D03*
X5075000Y3770000D03*
X4870000Y4170000D03*
X5440000Y320000D03*
X5220000Y980000D03*
X5430000Y1150000D03*
Y1480000D03*
Y1750000D03*
Y2050000D03*
Y2480000D03*
X5440000Y3980000D03*
Y4230000D03*
Y4660000D03*
X5310000Y5030000D03*
X5720000Y580000D03*
X5780000Y1750000D03*
X5550000Y2760000D03*
X5560000Y3090000D03*
Y3520000D03*
X5870000Y320000D03*
X5910000Y980000D03*
X6155000Y1115000D03*
X6050000Y1580000D03*
X5865000Y1670000D03*
X6155000Y1995000D03*
X5870000Y2900000D03*
X6155000Y2745000D03*
X6150000Y4190000D03*
X5860000Y5246200D03*
X6370000Y153800D03*
X6400000Y1320000D03*
X6420000Y1540000D03*
X6400000Y2190000D03*
X6420000Y1970000D03*
X6230000Y2370000D03*
X6390000Y2560000D03*
X6240000Y2900000D03*
X6170000Y3250000D03*
X6240000Y3800000D03*
X6440000Y4060000D03*
X6490000Y5200000D03*
X6720000Y80000D03*
Y580000D03*
X6570000Y2900000D03*
X6700000Y3570000D03*
X7200000D03*
X6990000Y4700000D03*
Y5200000D03*
X7220000Y80000D03*
Y580000D03*
X7720000Y80000D03*
Y580000D03*
X7830000Y780000D03*
Y1280000D03*
Y1780000D03*
Y2280000D03*
Y2780000D03*
Y3280000D03*
Y3780000D03*
Y4280000D03*
X8330000Y780000D03*
Y1280000D03*
Y1780000D03*
Y2280000D03*
Y2780000D03*
Y3280000D03*
Y3780000D03*
Y4280000D03*
G54D21*
G01X1300000Y1545000D02*
X1379680Y1624680D01*
Y2602840D01*
X1282840Y2699680D01*
X1040500D01*
X1006690Y2665870D01*
G01X1500000Y1545000D02*
X1420320Y1624680D01*
Y2619680D01*
X1299680Y2740320D01*
X1040500D01*
X1006690Y2774130D01*
G01X2075010Y3185010D02*
X2954990D01*
X2960000Y3180000D01*
G01X4280000Y3506000D02*
X4274000Y3500000D01*
X3710000D01*
X3648000Y3438000D01*
Y750000D01*
G01X4280000Y3760000D02*
X4410000Y3630000D01*
Y3440000D01*
X4330000Y3360000D01*
X3960000D01*
X3902000Y3302000D01*
Y750000D01*
G01X6502000D02*
X6182000Y430000D01*
X4150000D01*
X4050000Y530000D01*
Y2370000D01*
X4280000Y2600000D01*
G01Y2346000D02*
X4110000Y2176000D01*
Y560000D01*
X4180000Y490000D01*
X5988000D01*
X6248000Y750000D01*
G01X5994000Y4650000D02*
Y2044000D01*
X5830780Y1880780D01*
X4400480D01*
X4280000Y1760300D01*
G01X5740000Y4650000D02*
Y2300000D01*
X5620000Y2180000D01*
X4445700D01*
X4280000Y2014300D01*
G01X4694000Y4650000D02*
X4800000Y4544000D01*
Y3140000D01*
X4706480Y3046480D01*
X4400480D01*
X4280000Y2926000D01*
G01X4440000Y4650000D02*
X4730000Y4360000D01*
Y3430000D01*
X4640000Y3340000D01*
X4430000D01*
X4280000Y3190000D01*
Y3180000D01*
G54D12*
X258000Y2238000D03*
Y3102000D03*
G54D22*
G01X122100Y2238000D02*
X258000D01*
G01X122100Y3102000D02*
X258000D01*
G01X360000Y360000D02*
Y760900D01*
G01Y360000D02*
X760900D01*
G01X258000Y2132100D02*
Y2238000D01*
G01D02*
Y2343900D01*
G01Y2996100D02*
Y3102000D01*
G01D02*
Y3207900D01*
G01Y3102000D02*
X393900D01*
G01X515100D02*
X676000D01*
G01X808100Y818000D02*
X1029000D01*
G01X808100Y2022000D02*
X1029000D01*
G01X676000Y2132100D02*
Y2238000D01*
G01D02*
X836900D01*
G01X676000Y3102000D02*
Y3207900D01*
G01Y3102000D02*
X836900D01*
G01X1029000Y597100D02*
Y818000D01*
G01D02*
Y1038900D01*
G01Y818000D02*
X1249900D01*
G01X1179100Y1295000D02*
X1300000D01*
G01X1029000Y1801100D02*
Y2022000D01*
G01D02*
Y2242900D01*
G01Y2022000D02*
X1249900D01*
G01X1060000Y4639100D02*
Y5040000D01*
G01D02*
X1460900D01*
G01X1300000Y1295000D02*
Y1415900D01*
G01X1840000Y604100D02*
Y750000D01*
G01D02*
Y895900D01*
G01X1694100Y750000D02*
X1840000D01*
G01X2602000Y4504100D02*
Y4650000D01*
G01D02*
Y4795900D01*
G01Y4650000D02*
X2747900D01*
G01X2994100Y750000D02*
X3140000D01*
G01Y604100D02*
Y750000D01*
G01D02*
Y895900D01*
G01X3902000Y4504100D02*
Y4650000D01*
G01D02*
Y4795900D01*
G01Y4650000D02*
X4047900D01*
G01X4294100Y750000D02*
X4440000D01*
G01Y604100D02*
Y750000D01*
G01D02*
Y895900D01*
G01X5202000Y4504100D02*
Y4650000D01*
G01D02*
Y4795900D01*
G01Y4650000D02*
X5347900D01*
G01X5740000Y604100D02*
Y750000D01*
G01D02*
Y895900D01*
G01X5594100Y750000D02*
X5740000D01*
G01X6502000Y4504100D02*
Y4650000D01*
G01D02*
Y4795900D01*
G01Y4650000D02*
X6647900D01*
G01X7039100Y5040000D02*
X7440000D01*
G01X7459100Y3448000D02*
X7610000D01*
G01X7459100Y3702000D02*
X7610000D01*
G01X7440000Y4639100D02*
Y5040000D01*
G01X7739100Y360000D02*
X8140000D01*
G01X7610000Y3448000D02*
X7760900D01*
G01X7610000Y3702000D02*
X7760900D01*
G01X8140000Y360000D02*
Y760900D01*
G54D13*
X1029000Y818000D03*
Y2022000D03*
G54D23*
G01X1500000Y1295000D02*
X1355000Y1150000D01*
X514800D01*
X440000Y1224800D01*
Y2570000D01*
X520000Y2650000D01*
X850000D01*
G01X360000Y5040000D02*
Y4560000D01*
G01Y5040000D02*
X1060000D01*
G01X910000Y2430000D02*
Y2590000D01*
X850000Y2650000D01*
G01X910000Y2910000D02*
Y2710000D01*
X850000Y2650000D01*
G01X2348000Y5168200D02*
X2270000Y5246200D01*
X1960000D01*
G01X2480000Y153800D02*
X2176200D01*
X2094000Y236000D01*
Y750000D01*
G01X3394000Y267800D02*
X3280000Y153800D01*
X2480000D01*
G01X2348000Y4650000D02*
Y5168200D01*
G01X3260000Y5246200D02*
X2426000D01*
X2348000Y5168200D01*
G01X3130000Y1370000D02*
X3300000D01*
X3394000Y1276000D01*
Y750000D01*
G01X3130000Y1500000D02*
X3140000Y1490000D01*
G01D02*
X3303800D01*
X3380000Y1566200D01*
Y3520000D01*
X3648000Y3788000D01*
Y4650000D01*
G01Y5158200D02*
X3560000Y5246200D01*
X3260000D01*
G01X3780000Y153800D02*
X3508000D01*
X3394000Y267800D01*
G01Y750000D02*
Y267800D01*
G01X3648000Y4650000D02*
Y5158200D01*
G01X4560000Y5246200D02*
X3736000D01*
X3648000Y5158200D01*
G01X3780000Y153800D02*
X4730000D01*
G01D02*
X5080000D01*
G01X4948000Y5138200D02*
X4840000Y5246200D01*
X4560000D01*
G01X5080000Y153800D02*
X6370000D01*
G01X4948000Y4650000D02*
Y5138200D01*
G01X5860000Y5246200D02*
X5056000D01*
X4948000Y5138200D01*
G01X5860000Y5246200D02*
X6194110D01*
X6248000Y5192310D01*
Y4650000D01*
G01X8140000Y5040000D02*
X7440000D01*
G01X8150000Y4610000D02*
X8140000Y4620000D01*
G01D02*
Y5040000D01*
G54D14*
X676000Y2238000D03*
Y3102000D03*
G54D15*
X1300000Y1295000D03*
Y1545000D03*
X1500000D03*
G54D16*
Y1295000D03*
G54D17*
X1840000Y750000D03*
X2602000Y4650000D03*
X3140000Y750000D03*
X3902000Y4650000D03*
X4440000Y750000D03*
X5202000Y4650000D03*
X5740000Y750000D03*
X6502000Y4650000D03*
X7610000Y1174400D03*
Y2940000D03*
G54D18*
X1840000Y4650000D03*
X2348000Y750000D03*
X2094000D03*
Y4650000D03*
X2348000D03*
X2602000Y750000D03*
X3394000D03*
X3140000Y4650000D03*
X3394000D03*
X3648000Y750000D03*
Y4650000D03*
X3902000Y750000D03*
X4280000Y1760300D03*
Y2346000D03*
Y2926000D03*
Y3506000D03*
X4440000Y4650000D03*
X4694000Y750000D03*
X4534000Y1760300D03*
Y2014300D03*
Y2346000D03*
Y2600000D03*
Y2926000D03*
Y3180000D03*
Y3506000D03*
Y3760000D03*
X4694000Y4650000D03*
X4948000Y750000D03*
Y4650000D03*
X5202000Y750000D03*
X5740000Y4650000D03*
X5994000Y750000D03*
Y4650000D03*
X6502000Y750000D03*
X6248000D03*
Y4650000D03*
G54D19*
X4280000Y2014300D03*
Y2600000D03*
Y3180000D03*
Y3760000D03*
M02*
