G04 ================== begin FILE IDENTIFICATION RECORD ==================*
G04 Layout Name:  CH348Q_V10_240815.brd*
G04 Film Name:    Drill_Legend*
G04 File Format:  Gerber RS274X*
G04 File Origin:  Cadence Allegro 23.1-S004*
G04 Origin Date:  Thu Aug 15 17:23:26 2024*
G04 *
G04 Layer:  MANUFACTURING/NCLEGEND-1-2*
G04 Layer:  MANUFACTURING/NCDRILL_LEGEND*
G04 Layer:  MANUFACTURING/NCDRILL_FIGURE*
G04 Layer:  BOARD GEOMETRY/DIMENSION*
G04 *
G04 Offset:    (0.0000 0.0000)*
G04 Mirror:    No*
G04 Mode:      Positive*
G04 Rotation:  0*
G04 FullContactRelief:  No*
G04 UndefLineWidth:     0.1524*
G04 ================== end FILE IDENTIFICATION RECORD ====================*
%FSLAX55Y55*MOMM*%
%IR0*IPPOS*OFA0.00000B0.00000*MIA0B0*SFA1.00000B1.00000*%
%AMMACRO13*
1,1,.1524,.476346,-1.15*
20,1,.1524,.476346,-1.15,-.476346,-1.15,0.0*
1,1,.1524,-.476346,-1.15*
20,1,.1524,-.476346,-1.15,-1.15,-.476346,0.0*
1,1,.1524,-1.15,-.476346*
20,1,.1524,-1.15,-.476346,-1.15,.476346,0.0*
1,1,.1524,-1.15,.476346*
20,1,.1524,-1.15,.476346,-.476346,1.15,0.0*
1,1,.1524,-.476346,1.15*
20,1,.1524,-.476346,1.15,.476346,1.15,0.0*
1,1,.1524,.476346,1.15*
20,1,.1524,.476346,1.15,1.15,.476346,0.0*
1,1,.1524,1.15,.476346*
20,1,.1524,1.15,.476346,1.15,-.476346,0.0*
1,1,.1524,1.15,-.476346*
20,1,.1524,1.15,-.476346,.476346,-1.15,0.0*
1,1,.1524,.476346,-1.15*
%
%ADD13MACRO13*%
%AMMACRO10*
1,1,.1524,1.65,0.0*
20,1,.1524,1.65,0.0,0.0,-1.65,0.0*
1,1,.1524,0.0,-1.65*
20,1,.1524,0.0,-1.65,-1.65,0.0,0.0*
1,1,.1524,-1.65,0.0*
20,1,.1524,-1.65,0.0,0.0,1.65,0.0*
1,1,.1524,0.0,1.65*
20,1,.1524,0.0,1.65,1.65,0.0,0.0*
1,1,.1524,1.65,0.0*
%
%ADD10MACRO10*%
%AMMACRO12*
1,1,.1524,-.3,.3*
20,1,.1524,-.3,.3,.3,.3,0.0*
1,1,.1524,.3,.3*
20,1,.1524,.3,.3,.352094,.295442,0.0*
1,1,.1524,.352094,.295442*
20,1,.1524,.352094,.295442,.402606,.281908,0.0*
1,1,.1524,.402606,.281908*
20,1,.1524,.402606,.281908,.45,.259808,0.0*
1,1,.1524,.45,.259808*
20,1,.1524,.45,.259808,.492836,.229813,0.0*
1,1,.1524,.492836,.229813*
20,1,.1524,.492836,.229813,.529813,.192836,0.0*
1,1,.1524,.529813,.192836*
20,1,.1524,.529813,.192836,.559808,.15,0.0*
1,1,.1524,.559808,.15*
20,1,.1524,.559808,.15,.581908,.102606,0.0*
1,1,.1524,.581908,.102606*
20,1,.1524,.581908,.102606,.595442,.052094,0.0*
1,1,.1524,.595442,.052094*
20,1,.1524,.595442,.052094,.6,0.0,0.0*
1,1,.1524,.6,0.0*
20,1,.1524,.6,0.0,.595442,-.052094,0.0*
1,1,.1524,.595442,-.052094*
20,1,.1524,.595442,-.052094,.581908,-.102606,0.0*
1,1,.1524,.581908,-.102606*
20,1,.1524,.581908,-.102606,.559808,-.15,0.0*
1,1,.1524,.559808,-.15*
20,1,.1524,.559808,-.15,.529813,-.192836,0.0*
1,1,.1524,.529813,-.192836*
20,1,.1524,.529813,-.192836,.492836,-.229813,0.0*
1,1,.1524,.492836,-.229813*
20,1,.1524,.492836,-.229813,.45,-.259808,0.0*
1,1,.1524,.45,-.259808*
20,1,.1524,.45,-.259808,.402606,-.281908,0.0*
1,1,.1524,.402606,-.281908*
20,1,.1524,.402606,-.281908,.352094,-.295442,0.0*
1,1,.1524,.352094,-.295442*
20,1,.1524,.352094,-.295442,.3,-.3,0.0*
1,1,.1524,.3,-.3*
20,1,.1524,.3,-.3,-.3,-.3,0.0*
1,1,.1524,-.3,-.3*
20,1,.1524,-.3,-.3,-.352094,-.295442,0.0*
1,1,.1524,-.352094,-.295442*
20,1,.1524,-.352094,-.295442,-.402606,-.281908,0.0*
1,1,.1524,-.402606,-.281908*
20,1,.1524,-.402606,-.281908,-.45,-.259808,0.0*
1,1,.1524,-.45,-.259808*
20,1,.1524,-.45,-.259808,-.492836,-.229813,0.0*
1,1,.1524,-.492836,-.229813*
20,1,.1524,-.492836,-.229813,-.529813,-.192836,0.0*
1,1,.1524,-.529813,-.192836*
20,1,.1524,-.529813,-.192836,-.559808,-.15,0.0*
1,1,.1524,-.559808,-.15*
20,1,.1524,-.559808,-.15,-.581908,-.102606,0.0*
1,1,.1524,-.581908,-.102606*
20,1,.1524,-.581908,-.102606,-.595442,-.052094,0.0*
1,1,.1524,-.595442,-.052094*
20,1,.1524,-.595442,-.052094,-.6,0.0,0.0*
1,1,.1524,-.6,0.0*
20,1,.1524,-.6,0.0,-.595442,.052094,0.0*
1,1,.1524,-.595442,.052094*
20,1,.1524,-.595442,.052094,-.581908,.102606,0.0*
1,1,.1524,-.581908,.102606*
20,1,.1524,-.581908,.102606,-.559808,.15,0.0*
1,1,.1524,-.559808,.15*
20,1,.1524,-.559808,.15,-.529813,.192836,0.0*
1,1,.1524,-.529813,.192836*
20,1,.1524,-.529813,.192836,-.492836,.229813,0.0*
1,1,.1524,-.492836,.229813*
20,1,.1524,-.492836,.229813,-.45,.259808,0.0*
1,1,.1524,-.45,.259808*
20,1,.1524,-.45,.259808,-.402606,.281908,0.0*
1,1,.1524,-.402606,.281908*
20,1,.1524,-.402606,.281908,-.352094,.295442,0.0*
1,1,.1524,-.352094,.295442*
20,1,.1524,-.352094,.295442,-.3,.3,0.0*
1,1,.1524,-.3,.3*
1,1,.1524,-.15,-.15*
20,1,.1524,-.15,-.15,-.19,-.145,0.0*
1,1,.1524,-.19,-.145*
20,1,.1524,-.19,-.145,-.225,-.125,0.0*
1,1,.1524,-.225,-.125*
20,1,.1524,-.225,-.125,-.255,-.095,0.0*
1,1,.1524,-.255,-.095*
20,1,.1524,-.255,-.095,-.275,-.06,0.0*
1,1,.1524,-.275,-.06*
20,1,.1524,-.275,-.06,-.285,-.02,0.0*
1,1,.1524,-.285,-.02*
20,1,.1524,-.285,-.02,-.285,.02,0.0*
1,1,.1524,-.285,.02*
20,1,.1524,-.285,.02,-.275,.06,0.0*
1,1,.1524,-.275,.06*
20,1,.1524,-.275,.06,-.255,.095,0.0*
1,1,.1524,-.255,.095*
20,1,.1524,-.255,.095,-.225,.125,0.0*
1,1,.1524,-.225,.125*
20,1,.1524,-.225,.125,-.19,.145,0.0*
1,1,.1524,-.19,.145*
20,1,.1524,-.19,.145,-.15,.15,0.0*
1,1,.1524,-.15,.15*
20,1,.1524,-.15,.15,-.11,.145,0.0*
1,1,.1524,-.11,.145*
20,1,.1524,-.11,.145,-.075,.125,0.0*
1,1,.1524,-.075,.125*
20,1,.1524,-.075,.125,-.045,.095,0.0*
1,1,.1524,-.045,.095*
20,1,.1524,-.045,.095,-.025,.06,0.0*
1,1,.1524,-.025,.06*
20,1,.1524,-.025,.06,-.015,.02,0.0*
1,1,.1524,-.015,.02*
20,1,.1524,-.015,.02,-.015,-.02,0.0*
1,1,.1524,-.015,-.02*
20,1,.1524,-.015,-.02,-.025,-.06,0.0*
1,1,.1524,-.025,-.06*
20,1,.1524,-.025,-.06,-.045,-.095,0.0*
1,1,.1524,-.045,-.095*
20,1,.1524,-.045,-.095,-.075,-.125,0.0*
1,1,.1524,-.075,-.125*
20,1,.1524,-.075,-.125,-.11,-.145,0.0*
1,1,.1524,-.11,-.145*
20,1,.1524,-.11,-.145,-.15,-.15,0.0*
1,1,.1524,-.15,-.15*
1,1,.1524,.0251,-.15*
20,1,.1524,.0251,-.15,.1501,.15,0.0*
1,1,.1524,.1501,.15*
20,1,.1524,.1501,.15,.2751,-.15,0.0*
1,1,.1524,.2751,-.15*
1,1,.1524,.2301,-.045*
20,1,.1524,.2301,-.045,.0701,-.045,0.0*
1,1,.1524,.0701,-.045*
%
%ADD12MACRO12*%
%AMMACRO15*
1,1,.1524,.4,.4*
20,1,.1524,.4,.4,.4,-.4,0.0*
1,1,.1524,.4,-.4*
20,1,.1524,.4,-.4,-.4,-.4,0.0*
1,1,.1524,-.4,-.4*
20,1,.1524,-.4,-.4,-.4,.4,0.0*
1,1,.1524,-.4,.4*
20,1,.1524,-.4,.4,.4,.4,0.0*
1,1,.1524,.4,.4*
%
%ADD15MACRO15*%
%AMMACRO14*
1,1,.1524,-.55,.3*
20,1,.1524,-.55,.3,.55,.3,0.0*
1,1,.1524,.55,.3*
20,1,.1524,.55,.3,.602094,.295442,0.0*
1,1,.1524,.602094,.295442*
20,1,.1524,.602094,.295442,.652606,.281908,0.0*
1,1,.1524,.652606,.281908*
20,1,.1524,.652606,.281908,.7,.259808,0.0*
1,1,.1524,.7,.259808*
20,1,.1524,.7,.259808,.742836,.229813,0.0*
1,1,.1524,.742836,.229813*
20,1,.1524,.742836,.229813,.779813,.192836,0.0*
1,1,.1524,.779813,.192836*
20,1,.1524,.779813,.192836,.809808,.15,0.0*
1,1,.1524,.809808,.15*
20,1,.1524,.809808,.15,.831908,.102606,0.0*
1,1,.1524,.831908,.102606*
20,1,.1524,.831908,.102606,.845442,.052094,0.0*
1,1,.1524,.845442,.052094*
20,1,.1524,.845442,.052094,.85,0.0,0.0*
1,1,.1524,.85,0.0*
20,1,.1524,.85,0.0,.845442,-.052094,0.0*
1,1,.1524,.845442,-.052094*
20,1,.1524,.845442,-.052094,.831908,-.102606,0.0*
1,1,.1524,.831908,-.102606*
20,1,.1524,.831908,-.102606,.809808,-.15,0.0*
1,1,.1524,.809808,-.15*
20,1,.1524,.809808,-.15,.779813,-.192836,0.0*
1,1,.1524,.779813,-.192836*
20,1,.1524,.779813,-.192836,.742836,-.229813,0.0*
1,1,.1524,.742836,-.229813*
20,1,.1524,.742836,-.229813,.7,-.259808,0.0*
1,1,.1524,.7,-.259808*
20,1,.1524,.7,-.259808,.652606,-.281908,0.0*
1,1,.1524,.652606,-.281908*
20,1,.1524,.652606,-.281908,.602094,-.295442,0.0*
1,1,.1524,.602094,-.295442*
20,1,.1524,.602094,-.295442,.55,-.3,0.0*
1,1,.1524,.55,-.3*
20,1,.1524,.55,-.3,-.55,-.3,0.0*
1,1,.1524,-.55,-.3*
20,1,.1524,-.55,-.3,-.602094,-.295442,0.0*
1,1,.1524,-.602094,-.295442*
20,1,.1524,-.602094,-.295442,-.652606,-.281908,0.0*
1,1,.1524,-.652606,-.281908*
20,1,.1524,-.652606,-.281908,-.7,-.259808,0.0*
1,1,.1524,-.7,-.259808*
20,1,.1524,-.7,-.259808,-.742836,-.229813,0.0*
1,1,.1524,-.742836,-.229813*
20,1,.1524,-.742836,-.229813,-.779813,-.192836,0.0*
1,1,.1524,-.779813,-.192836*
20,1,.1524,-.779813,-.192836,-.809808,-.15,0.0*
1,1,.1524,-.809808,-.15*
20,1,.1524,-.809808,-.15,-.831908,-.102606,0.0*
1,1,.1524,-.831908,-.102606*
20,1,.1524,-.831908,-.102606,-.845442,-.052094,0.0*
1,1,.1524,-.845442,-.052094*
20,1,.1524,-.845442,-.052094,-.85,0.0,0.0*
1,1,.1524,-.85,0.0*
20,1,.1524,-.85,0.0,-.845442,.052094,0.0*
1,1,.1524,-.845442,.052094*
20,1,.1524,-.845442,.052094,-.831908,.102606,0.0*
1,1,.1524,-.831908,.102606*
20,1,.1524,-.831908,.102606,-.809808,.15,0.0*
1,1,.1524,-.809808,.15*
20,1,.1524,-.809808,.15,-.779813,.192836,0.0*
1,1,.1524,-.779813,.192836*
20,1,.1524,-.779813,.192836,-.742836,.229813,0.0*
1,1,.1524,-.742836,.229813*
20,1,.1524,-.742836,.229813,-.7,.259808,0.0*
1,1,.1524,-.7,.259808*
20,1,.1524,-.7,.259808,-.652606,.281908,0.0*
1,1,.1524,-.652606,.281908*
20,1,.1524,-.652606,.281908,-.602094,.295442,0.0*
1,1,.1524,-.602094,.295442*
20,1,.1524,-.602094,.295442,-.55,.3,0.0*
1,1,.1524,-.55,.3*
1,1,.1524,-.15,-.15*
20,1,.1524,-.15,-.15,-.19,-.145,0.0*
1,1,.1524,-.19,-.145*
20,1,.1524,-.19,-.145,-.225,-.125,0.0*
1,1,.1524,-.225,-.125*
20,1,.1524,-.225,-.125,-.255,-.095,0.0*
1,1,.1524,-.255,-.095*
20,1,.1524,-.255,-.095,-.275,-.06,0.0*
1,1,.1524,-.275,-.06*
20,1,.1524,-.275,-.06,-.285,-.02,0.0*
1,1,.1524,-.285,-.02*
20,1,.1524,-.285,-.02,-.285,.02,0.0*
1,1,.1524,-.285,.02*
20,1,.1524,-.285,.02,-.275,.06,0.0*
1,1,.1524,-.275,.06*
20,1,.1524,-.275,.06,-.255,.095,0.0*
1,1,.1524,-.255,.095*
20,1,.1524,-.255,.095,-.225,.125,0.0*
1,1,.1524,-.225,.125*
20,1,.1524,-.225,.125,-.19,.145,0.0*
1,1,.1524,-.19,.145*
20,1,.1524,-.19,.145,-.15,.15,0.0*
1,1,.1524,-.15,.15*
20,1,.1524,-.15,.15,-.11,.145,0.0*
1,1,.1524,-.11,.145*
20,1,.1524,-.11,.145,-.075,.125,0.0*
1,1,.1524,-.075,.125*
20,1,.1524,-.075,.125,-.045,.095,0.0*
1,1,.1524,-.045,.095*
20,1,.1524,-.045,.095,-.025,.06,0.0*
1,1,.1524,-.025,.06*
20,1,.1524,-.025,.06,-.015,.02,0.0*
1,1,.1524,-.015,.02*
20,1,.1524,-.015,.02,-.015,-.02,0.0*
1,1,.1524,-.015,-.02*
20,1,.1524,-.015,-.02,-.025,-.06,0.0*
1,1,.1524,-.025,-.06*
20,1,.1524,-.025,-.06,-.045,-.095,0.0*
1,1,.1524,-.045,-.095*
20,1,.1524,-.045,-.095,-.075,-.125,0.0*
1,1,.1524,-.075,-.125*
20,1,.1524,-.075,-.125,-.11,-.145,0.0*
1,1,.1524,-.11,-.145*
20,1,.1524,-.11,-.145,-.15,-.15,0.0*
1,1,.1524,-.15,-.15*
1,1,.1524,.1901,.01*
20,1,.1524,.1901,.01,.2101,.025,0.0*
1,1,.1524,.2101,.025*
20,1,.1524,.2101,.025,.2251,.05,0.0*
1,1,.1524,.2251,.05*
20,1,.1524,.2251,.05,.2351,.085,0.0*
1,1,.1524,.2351,.085*
20,1,.1524,.2351,.085,.2251,.115,0.0*
1,1,.1524,.2251,.115*
20,1,.1524,.2251,.115,.2051,.135,0.0*
1,1,.1524,.2051,.135*
20,1,.1524,.2051,.135,.1701,.15,0.0*
1,1,.1524,.1701,.15*
20,1,.1524,.1701,.15,.0351,.15,0.0*
1,1,.1524,.0351,.15*
20,1,.1524,.0351,.15,.0351,-.15,0.0*
1,1,.1524,.0351,-.15*
20,1,.1524,.0351,-.15,.2001,-.15,0.0*
1,1,.1524,.2001,-.15*
20,1,.1524,.2001,-.15,.2351,-.13,0.0*
1,1,.1524,.2351,-.13*
20,1,.1524,.2351,-.13,.2551,-.1,0.0*
1,1,.1524,.2551,-.1*
20,1,.1524,.2551,-.1,.2651,-.065,0.0*
1,1,.1524,.2651,-.065*
20,1,.1524,.2651,-.065,.2551,-.03,0.0*
1,1,.1524,.2551,-.03*
20,1,.1524,.2551,-.03,.2251,0.0,0.0*
1,1,.1524,.2251,0.0*
20,1,.1524,.2251,0.0,.1901,.01,0.0*
1,1,.1524,.1901,.01*
20,1,.1524,.1901,.01,.0351,.01,0.0*
1,1,.1524,.0351,.01*
%
%ADD14MACRO14*%
%AMMACRO11*
1,1,.1524,.127,0.0*
20,1,.1524,.127,0.0,-.127,0.0,0.0*
1,1,.1524,-.127,0.0*
1,1,.1524,0.0,.127*
20,1,.1524,0.0,.127,0.0,-.127,0.0*
1,1,.1524,0.0,-.127*
%
%ADD11MACRO11*%
%AMMACRO16*
1,1,.1524,.55,0.0*
20,1,.1524,.55,0.0,.275,.476314,0.0*
1,1,.1524,.275,.476314*
20,1,.1524,.275,.476314,-.275,.476314,0.0*
1,1,.1524,-.275,.476314*
20,1,.1524,-.275,.476314,-.55,0.0,0.0*
1,1,.1524,-.55,0.0*
20,1,.1524,-.55,0.0,-.275,-.476314,0.0*
1,1,.1524,-.275,-.476314*
20,1,.1524,-.275,-.476314,.275,-.476314,0.0*
1,1,.1524,.275,-.476314*
20,1,.1524,.275,-.476314,.55,0.0,0.0*
1,1,.1524,.55,0.0*
%
%ADD16MACRO16*%
%AMMACRO17*
1,1,.1524,0.0,.7*
20,1,.1524,0.0,.7,-.606218,.35,0.0*
1,1,.1524,-.606218,.35*
20,1,.1524,-.606218,.35,-.606218,-.35,0.0*
1,1,.1524,-.606218,-.35*
20,1,.1524,-.606218,-.35,0.0,-.7,0.0*
1,1,.1524,0.0,-.7*
20,1,.1524,0.0,-.7,.606218,-.35,0.0*
1,1,.1524,.606218,-.35*
20,1,.1524,.606218,-.35,.606218,.35,0.0*
1,1,.1524,.606218,.35*
20,1,.1524,.606218,.35,0.0,.7,0.0*
1,1,.1524,0.0,.7*
%
%ADD17MACRO17*%
%ADD18C,.1524*%
G75*
%LPD*%
G75*
G54D10*
X360000Y360000D03*
Y5040000D03*
X1060000D03*
X7440000D03*
X8140000Y360000D03*
Y5040000D03*
X11121730Y1447500D03*
G54D11*
X110000Y810000D03*
Y1310000D03*
Y1810000D03*
X90000Y4180000D03*
X250000Y2500000D03*
Y2850000D03*
X270000Y3460000D03*
X490000Y3770000D03*
X610000Y810000D03*
Y1310000D03*
Y1810000D03*
X830000Y3260000D03*
X590000Y4180000D03*
X1220000Y80000D03*
Y580000D03*
X1070000Y2560000D03*
X910000Y2430000D03*
X1250000Y2840000D03*
X1020000Y2880000D03*
X910000Y2910000D03*
X1006690Y2665870D03*
Y2774130D03*
X1100000Y3200000D03*
X910000Y3020000D03*
X1230000Y3384800D03*
X1220000Y3550000D03*
X960000Y3500000D03*
X990000Y3770000D03*
X1090000Y4180000D03*
X1590000Y2190000D03*
Y2340000D03*
Y2500000D03*
X1600000Y2960000D03*
X1480000D03*
X1600000Y3830000D03*
Y4095000D03*
Y4005000D03*
X1490000Y4700000D03*
Y4390000D03*
Y5200000D03*
X1720000Y80000D03*
Y580000D03*
X1890000Y1080000D03*
Y1650000D03*
X1690000Y2120000D03*
X1850000D03*
X1660000Y2680000D03*
X1740000Y3100000D03*
Y3300000D03*
Y3490000D03*
Y3670000D03*
X1880000Y4110000D03*
X2220000Y580000D03*
X2150000Y1090000D03*
X2090000Y2220000D03*
X1990000Y2120000D03*
X2280000Y1980000D03*
X2060000Y2570000D03*
X2280000Y2480000D03*
X2160000Y2300000D03*
X2060000Y2680000D03*
X2280000Y2780000D03*
X1980000Y3100000D03*
X2230000Y3300000D03*
X1980000D03*
X2230000Y3100000D03*
X2075010Y3185010D03*
X1980000Y3490000D03*
X2230000D03*
Y3670000D03*
X1980000D03*
X1990000Y4390000D03*
X1960000Y5246200D03*
X2480000Y153800D03*
X2330000Y1090000D03*
X2570000Y1110000D03*
X2340000Y1280000D03*
X2370000Y1650000D03*
X2500000Y2480000D03*
X2590000Y2300000D03*
X2510000Y3010000D03*
X2450000Y3820000D03*
X2605000Y3775000D03*
X2550000Y4400000D03*
X2720000Y580000D03*
X2810000Y1110000D03*
X3000000Y1370000D03*
Y1500000D03*
X2870000D03*
X2800000Y1660000D03*
X2710000Y2160000D03*
X2680000Y2480000D03*
X2890000D03*
X2670000Y3010000D03*
X2880000D03*
X2960000Y3280000D03*
Y3180000D03*
X2695000Y3775000D03*
X2940000Y3770000D03*
X2850000Y4110000D03*
X2800000Y5040000D03*
X3230000Y280000D03*
X3220000Y580000D03*
X3030000Y1110000D03*
X3230000Y1170000D03*
X3130000Y1370000D03*
Y1500000D03*
X3200000Y1650000D03*
X3250000Y2130000D03*
Y1940000D03*
Y2560000D03*
Y2370000D03*
X3040000Y3010000D03*
X3250000Y3430000D03*
X3290000Y4440000D03*
X3260000Y5246200D03*
X3510000Y1020000D03*
Y1430000D03*
X3530000Y2130000D03*
X3510000Y1910000D03*
X3530000Y2560000D03*
Y2370000D03*
X3440000Y3770000D03*
X3780000Y153800D03*
X3750000Y1010000D03*
X3980000Y1240000D03*
X3770000Y2370000D03*
Y2560000D03*
X4030000D03*
X3950000Y3920000D03*
X3800000Y4260000D03*
X4020000Y5060000D03*
X4110000Y300000D03*
X4220000Y580000D03*
X4410000Y1240000D03*
X4400000Y1570000D03*
X4200000Y4270000D03*
X4540000Y300000D03*
X4694000Y156000D03*
X4710000Y2100000D03*
X4740000Y2470000D03*
Y2820000D03*
X4450000Y3920000D03*
X4550000Y4390000D03*
X4560000Y5246200D03*
X5080000Y153800D03*
X4840000Y1240000D03*
Y1570000D03*
X4930000Y2100000D03*
X4845000Y2560000D03*
X4935000D03*
X4890000Y3240000D03*
X4985000Y3330000D03*
X5075000D03*
X4985000Y3770000D03*
X4900000Y3680000D03*
X5075000Y3770000D03*
X4870000Y4170000D03*
X5440000Y320000D03*
X5220000Y980000D03*
X5430000Y1150000D03*
Y1480000D03*
Y1750000D03*
Y2050000D03*
Y2480000D03*
X5440000Y3980000D03*
Y4230000D03*
Y4660000D03*
X5310000Y5030000D03*
X5720000Y580000D03*
X5780000Y1750000D03*
X5550000Y2760000D03*
X5560000Y3090000D03*
Y3520000D03*
X5870000Y320000D03*
X5910000Y980000D03*
X6155000Y1115000D03*
X6050000Y1580000D03*
X5865000Y1670000D03*
X6155000Y1995000D03*
X5870000Y2900000D03*
X6155000Y2745000D03*
X6150000Y4190000D03*
X5860000Y5246200D03*
X6370000Y153800D03*
X6400000Y1320000D03*
X6420000Y1540000D03*
X6400000Y2190000D03*
X6420000Y1970000D03*
X6230000Y2370000D03*
X6390000Y2560000D03*
X6240000Y2900000D03*
X6170000Y3250000D03*
X6240000Y3800000D03*
X6440000Y4060000D03*
X6490000Y5200000D03*
X6720000Y80000D03*
Y580000D03*
X6570000Y2900000D03*
X6700000Y3570000D03*
X7200000D03*
X6990000Y4700000D03*
Y5200000D03*
X7220000Y80000D03*
Y580000D03*
X7720000Y80000D03*
Y580000D03*
X7830000Y780000D03*
Y1280000D03*
Y1780000D03*
Y2280000D03*
Y2780000D03*
Y3280000D03*
Y3780000D03*
Y4280000D03*
X8330000Y780000D03*
Y1280000D03*
Y1780000D03*
Y2280000D03*
Y2780000D03*
Y3280000D03*
Y3780000D03*
Y4280000D03*
X11121730Y4622500D03*
G54D12*
X258000Y2238000D03*
Y3102000D03*
X11121730Y812500D03*
G54D13*
X1029000Y818000D03*
Y2022000D03*
X11121730Y2082500D03*
G54D14*
X676000Y2238000D03*
Y3102000D03*
X11121730Y177500D03*
G54D15*
X1300000Y1295000D03*
Y1545000D03*
X1500000D03*
Y1295000D03*
X11121730Y3987500D03*
G54D16*
X1840000Y750000D03*
Y4650000D03*
X2348000Y750000D03*
X2094000D03*
Y4650000D03*
X2348000D03*
X2602000Y750000D03*
Y4650000D03*
X3140000Y750000D03*
X3394000D03*
X3140000Y4650000D03*
X3394000D03*
X3648000Y750000D03*
Y4650000D03*
X3902000Y750000D03*
Y4650000D03*
X4440000Y750000D03*
X4280000Y1760300D03*
Y2014300D03*
Y2346000D03*
Y2600000D03*
Y2926000D03*
Y3180000D03*
Y3506000D03*
Y3760000D03*
X4440000Y4650000D03*
X4694000Y750000D03*
X4534000Y1760300D03*
Y2014300D03*
Y2346000D03*
Y2600000D03*
Y2926000D03*
Y3180000D03*
Y3506000D03*
Y3760000D03*
X4694000Y4650000D03*
X4948000Y750000D03*
Y4650000D03*
X5202000Y750000D03*
Y4650000D03*
X5740000Y750000D03*
Y4650000D03*
X5994000Y750000D03*
Y4650000D03*
X6502000Y750000D03*
X6248000D03*
X6502000Y4650000D03*
X6248000D03*
X11121730Y3352500D03*
G54D17*
X7610000Y1174400D03*
Y1428400D03*
Y1936400D03*
Y1682400D03*
Y2190400D03*
Y2444400D03*
Y2940000D03*
Y3194000D03*
Y3702000D03*
Y3448000D03*
Y3956000D03*
Y4210000D03*
X11121730Y2717500D03*
G54D18*
G01X-1427400Y2503320D02*
X-1413180Y2487450D01*
X-1396590Y2477920D01*
X-1375250Y2474750D01*
X-1353910Y2481100D01*
X-1337320Y2493800D01*
X-1325470Y2516020D01*
X-1323100Y2541420D01*
X-1327840Y2566820D01*
X-1339690Y2582700D01*
X-1356290Y2595400D01*
X-1372880Y2598570D01*
X-1389470Y2595400D01*
X-1410810Y2582700D01*
X-1403700Y2665250D01*
X-1339690D01*
G01X-1156300Y2474750D02*
Y2665250D01*
X-1244020Y2528730D01*
X-1125480D01*
G01X-957900Y1913320D02*
X-943680Y1897450D01*
X-927090Y1887920D01*
X-905750Y1884750D01*
X-884410Y1891100D01*
X-867820Y1903800D01*
X-855970Y1926020D01*
X-853600Y1951420D01*
X-858340Y1976820D01*
X-870190Y1992700D01*
X-886790Y2005400D01*
X-903380Y2008570D01*
X-919970Y2005400D01*
X-941310Y1992700D01*
X-934200Y2075250D01*
X-870190D01*
G01X-715250D02*
X-734220Y2068900D01*
X-748440Y2053020D01*
X-757920Y2033980D01*
X-765030Y2008570D01*
X-767400Y1980000D01*
X-765030Y1951420D01*
X-757920Y1926020D01*
X-748440Y1906970D01*
X-734220Y1891100D01*
X-715250Y1884750D01*
X-696290Y1891100D01*
X-682060Y1906970D01*
X-672580Y1926020D01*
X-665470Y1951420D01*
X-663100Y1980000D01*
X-665470Y2008570D01*
X-672580Y2033980D01*
X-682060Y2053020D01*
X-696290Y2068900D01*
X-715250Y2075250D01*
G01X-524750Y1878400D02*
X-529490Y1881580D01*
Y1887920D01*
X-524750Y1891100D01*
X-520010Y1887920D01*
Y1881580D01*
X-524750Y1878400D01*
G01X-305800Y1884750D02*
Y2075250D01*
X-393520Y1938730D01*
X-274980D01*
G01X-512650Y972850D02*
X-498430Y950620D01*
X-479470Y937920D01*
X-458130Y934750D01*
X-439160Y937920D01*
X-420200Y953800D01*
X-408350Y972850D01*
X-405980Y991900D01*
X-410720Y1014120D01*
X-427310Y1030000D01*
X-443910Y1036350D01*
X-465240D01*
G01X-443910D02*
X-429680Y1045870D01*
X-417830Y1061750D01*
X-413090Y1080800D01*
X-417830Y1099850D01*
X-429680Y1115720D01*
X-451020Y1125250D01*
X-472350Y1122080D01*
X-493690Y1109370D01*
G01X-270000Y928400D02*
X-274740Y931580D01*
Y937920D01*
X-270000Y941100D01*
X-265260Y937920D01*
Y931580D01*
X-270000Y928400D01*
G01X-124540Y1014120D02*
X-107950Y1036350D01*
X-93720Y1049050D01*
X-74760Y1055400D01*
X-58160Y1049050D01*
X-46310Y1036350D01*
X-36830Y1017300D01*
X-34460Y995070D01*
X-36830Y976020D01*
X-46310Y956970D01*
X-60540Y941100D01*
X-77130Y934750D01*
X-96090Y941100D01*
X-112690Y960140D01*
X-122170Y988730D01*
X-124540Y1020470D01*
X-119800Y1061750D01*
X-112690Y1083980D01*
X-100840Y1106200D01*
X-84240Y1122080D01*
X-67650Y1125250D01*
X-51050Y1118900D01*
X-39200Y1103020D01*
G01X787350Y-247150D02*
X801570Y-269380D01*
X820530Y-282080D01*
X841870Y-285250D01*
X860840Y-282080D01*
X879800Y-266200D01*
X891650Y-247150D01*
X894020Y-228100D01*
X889280Y-205880D01*
X872690Y-190000D01*
X856090Y-183650D01*
X834760D01*
G01X856090D02*
X870320Y-174130D01*
X882170Y-158250D01*
X886910Y-139200D01*
X882170Y-120150D01*
X870320Y-104280D01*
X848980Y-94750D01*
X827650Y-97920D01*
X806310Y-110630D01*
G01X1030000Y-291600D02*
X1025260Y-288420D01*
Y-282080D01*
X1030000Y-278900D01*
X1034740Y-282080D01*
Y-288420D01*
X1030000Y-291600D01*
G01X1175460Y-205880D02*
X1192050Y-183650D01*
X1206280Y-170950D01*
X1225240Y-164600D01*
X1241840Y-170950D01*
X1253690Y-183650D01*
X1263170Y-202700D01*
X1265540Y-224930D01*
X1263170Y-243980D01*
X1253690Y-263030D01*
X1239460Y-278900D01*
X1222870Y-285250D01*
X1203910Y-278900D01*
X1187310Y-259860D01*
X1177830Y-231270D01*
X1175460Y-199530D01*
X1180200Y-158250D01*
X1187310Y-136020D01*
X1199160Y-113800D01*
X1215760Y-97920D01*
X1232350Y-94750D01*
X1248950Y-101100D01*
X1260800Y-116980D01*
G01X665260Y5754750D02*
X670000Y5796020D01*
X677110Y5830950D01*
X686590Y5862700D01*
X698450Y5897620D01*
X717410Y5945250D01*
X622590D01*
G01X2084250Y-515250D02*
X2100840Y-512080D01*
X2119810Y-502550D01*
X2131660Y-486680D01*
X2136400Y-464450D01*
X2131660Y-442230D01*
X2117440Y-423180D01*
X2096100Y-413650D01*
X2072400D01*
X2058170Y-407300D01*
X2046320Y-391430D01*
X2041580Y-369200D01*
X2048690Y-346980D01*
X2065280Y-331100D01*
X2084250Y-324750D01*
X2103210Y-331100D01*
X2119810Y-346980D01*
X2126920Y-369200D01*
X2122180Y-391430D01*
X2110330Y-407300D01*
X2096100Y-413650D01*
X2072400D01*
X2051060Y-423180D01*
X2036840Y-442230D01*
X2032100Y-464450D01*
X2036840Y-486680D01*
X2048690Y-502550D01*
X2067660Y-512080D01*
X2084250Y-515250D01*
G01X2274750D02*
Y-324750D01*
X2246300Y-362850D01*
G01Y-515250D02*
X2303190D01*
G01X2465250Y-521600D02*
X2460510Y-518420D01*
Y-512080D01*
X2465250Y-508900D01*
X2469990Y-512080D01*
Y-518420D01*
X2465250Y-521600D01*
G01X2684200Y-515250D02*
Y-324750D01*
X2596480Y-461270D01*
X2715020D01*
G01X3544750Y-765250D02*
X3561340Y-762080D01*
X3580310Y-752550D01*
X3592160Y-736680D01*
X3596900Y-714450D01*
X3592160Y-692230D01*
X3577940Y-673180D01*
X3556600Y-663650D01*
X3532900D01*
X3518670Y-657300D01*
X3506820Y-641430D01*
X3502080Y-619200D01*
X3509190Y-596980D01*
X3525780Y-581100D01*
X3544750Y-574750D01*
X3563710Y-581100D01*
X3580310Y-596980D01*
X3587420Y-619200D01*
X3582680Y-641430D01*
X3570830Y-657300D01*
X3556600Y-663650D01*
X3532900D01*
X3511560Y-673180D01*
X3497340Y-692230D01*
X3492600Y-714450D01*
X3497340Y-736680D01*
X3509190Y-752550D01*
X3528160Y-762080D01*
X3544750Y-765250D01*
G01X3683100Y-736680D02*
X3697320Y-752550D01*
X3713910Y-762080D01*
X3735250Y-765250D01*
X3756590Y-758900D01*
X3773180Y-746200D01*
X3785030Y-723980D01*
X3787400Y-698580D01*
X3782660Y-673180D01*
X3770810Y-657300D01*
X3754210Y-644600D01*
X3737620Y-641430D01*
X3721030Y-644600D01*
X3699690Y-657300D01*
X3706800Y-574750D01*
X3770810D01*
G01X10259520Y5098750D02*
Y5416250D01*
X10409140D01*
G01X10354010Y5262800D02*
X10259520D01*
G01X10602050Y5416250D02*
X10696530D01*
G01X10649290D02*
Y5098750D01*
G01X10602050D02*
X10696530D01*
G01X10987870Y5257500D02*
X11066620D01*
Y5162250D01*
X11042990Y5130490D01*
X11015430Y5109330D01*
X10976060Y5098750D01*
X10936690Y5109330D01*
X10909130Y5130490D01*
X10885510Y5162250D01*
X10869760Y5199290D01*
X10861880Y5241620D01*
Y5278670D01*
X10869760Y5310410D01*
X10885510Y5347460D01*
X10909130Y5379210D01*
X10932750Y5400370D01*
X10964250Y5416250D01*
X10991810D01*
X11023300Y5405670D01*
X11046930Y5384500D01*
G01X11192600Y5416250D02*
Y5188710D01*
X11208340Y5141070D01*
X11239840Y5109330D01*
X11279210Y5098750D01*
X11318580Y5109330D01*
X11350080Y5141070D01*
X11365820Y5188710D01*
Y5416250D01*
G01X11515430Y5098750D02*
Y5416250D01*
X11613850D01*
X11645350Y5400370D01*
X11665040Y5379210D01*
X11672910Y5336870D01*
X11665040Y5294540D01*
X11641410Y5268090D01*
X11613850Y5252200D01*
X11515430D01*
G01X11613850D02*
X11672910Y5098750D01*
G01X11987870D02*
X11830390D01*
Y5416250D01*
X11987870D01*
G01X11924880Y5262800D02*
X11830390D01*
G01X12857940Y5098750D02*
Y5416250D01*
X13007560D01*
G01X12952430Y5262800D02*
X12857940D01*
G01X13200470Y5416250D02*
X13294950D01*
G01X13247710D02*
Y5098750D01*
G01X13200470D02*
X13294950D01*
G01X13472120D02*
Y5416250D01*
X13653220Y5098750D01*
Y5416250D01*
G01X13830390D02*
X13924870D01*
G01X13877630D02*
Y5098750D01*
G01X13830390D02*
X13924870D01*
G01X14109910Y5141070D02*
X14141410Y5114620D01*
X14176840Y5098750D01*
X14208340D01*
X14239830Y5114620D01*
X14263460Y5141070D01*
X14275270Y5178130D01*
X14267400Y5215160D01*
X14247710Y5246910D01*
X14212270Y5268090D01*
X14165030Y5278670D01*
X14137470Y5299830D01*
X14125660Y5336870D01*
X14133540Y5373920D01*
X14153220Y5400370D01*
X14180780Y5416250D01*
X14208340D01*
X14235900Y5405670D01*
X14259520Y5379210D01*
G01X14424870Y5098750D02*
Y5416250D01*
G01X14590230D02*
Y5098750D01*
G01Y5257500D02*
X14424870D01*
G01X14901250Y5098750D02*
X14743770D01*
Y5416250D01*
X14901250D01*
G01X14838260Y5262800D02*
X14743770D01*
G01X15050860Y5098750D02*
Y5416250D01*
X15129590D01*
X15161090Y5400370D01*
X15184710Y5379210D01*
X15204400Y5347460D01*
X15220150Y5310410D01*
X15224080Y5257500D01*
X15220150Y5204580D01*
X15204400Y5167540D01*
X15184710Y5135780D01*
X15161090Y5114620D01*
X15129590Y5098750D01*
X15050860D01*
G01X15334320Y4992920D02*
X15570540D01*
G01X15684710Y5141070D02*
X15716210Y5114620D01*
X15751640Y5098750D01*
X15783140D01*
X15814630Y5114620D01*
X15838260Y5141070D01*
X15850070Y5178130D01*
X15842200Y5215160D01*
X15822510Y5246910D01*
X15787070Y5268090D01*
X15739830Y5278670D01*
X15712270Y5299830D01*
X15700460Y5336870D01*
X15708340Y5373920D01*
X15728020Y5400370D01*
X15755580Y5416250D01*
X15783140D01*
X15810700Y5405670D01*
X15834320Y5379210D01*
G01X16035110Y5416250D02*
X16129590D01*
G01X16082350D02*
Y5098750D01*
G01X16035110D02*
X16129590D01*
G01X16322500Y5416250D02*
X16472120D01*
X16322500Y5098750D01*
X16472120D01*
G01X16791010D02*
X16633530D01*
Y5416250D01*
X16791010D01*
G01X16728020Y5262800D02*
X16633530D01*
G01X13877630Y18750D02*
Y336250D01*
X13830390Y272750D01*
G01Y18750D02*
X13924870D01*
G01X14192590Y8170D02*
X14184710Y13460D01*
Y24040D01*
X14192590Y29330D01*
X14200470Y24040D01*
Y13460D01*
X14192590Y8170D01*
G01X14499670Y18750D02*
X14507550Y87540D01*
X14519360Y145740D01*
X14535110Y198670D01*
X14554790Y256870D01*
X14586290Y336250D01*
X14428810D01*
G01X14763460Y230410D02*
X14881560Y18750D01*
G01Y230410D02*
X14763460Y18750D01*
G01X15137470Y336250D02*
X15105970Y325670D01*
X15082350Y299210D01*
X15066600Y267460D01*
X15054790Y225120D01*
X15050860Y177500D01*
X15054790Y129870D01*
X15066600Y87540D01*
X15082350Y55780D01*
X15105970Y29330D01*
X15137470Y18750D01*
X15168960Y29330D01*
X15192590Y55780D01*
X15208340Y87540D01*
X15220150Y129870D01*
X15224080Y177500D01*
X15220150Y225120D01*
X15208340Y267460D01*
X15192590Y299210D01*
X15168960Y325670D01*
X15137470Y336250D01*
G01X15452430Y8170D02*
X15444550Y13460D01*
Y24040D01*
X15452430Y29330D01*
X15460310Y24040D01*
Y13460D01*
X15452430Y8170D01*
G01X15692580Y151030D02*
X15720150Y188090D01*
X15743770Y209250D01*
X15775270Y219830D01*
X15802830Y209250D01*
X15822510Y188090D01*
X15838260Y156330D01*
X15842200Y119290D01*
X15838260Y87540D01*
X15822510Y55780D01*
X15798880Y29330D01*
X15771330Y18750D01*
X15739830Y29330D01*
X15712270Y61070D01*
X15696520Y108710D01*
X15692580Y161620D01*
X15700460Y230410D01*
X15712270Y267460D01*
X15731950Y304500D01*
X15759510Y330960D01*
X15787070Y336250D01*
X15814630Y325670D01*
X15834320Y299210D01*
G01X13877630Y653750D02*
Y971250D01*
X13830390Y907750D01*
G01Y653750D02*
X13924870D01*
G01X14192590Y643170D02*
X14184710Y648460D01*
Y659040D01*
X14192590Y664330D01*
X14200470Y659040D01*
Y648460D01*
X14192590Y643170D01*
G01X14432740Y918330D02*
X14456370Y950080D01*
X14483930Y965960D01*
X14515430Y971250D01*
X14554790Y960670D01*
X14582360Y934210D01*
X14590230Y902460D01*
X14586290Y870700D01*
X14570540Y844250D01*
X14491800Y791330D01*
X14456370Y754290D01*
X14432740Y701360D01*
X14424870Y653750D01*
X14590230D01*
G01X14763460Y865410D02*
X14881560Y653750D01*
G01Y865410D02*
X14763460Y653750D01*
G01X15137470Y971250D02*
X15105970Y960670D01*
X15082350Y934210D01*
X15066600Y902460D01*
X15054790Y860120D01*
X15050860Y812500D01*
X15054790Y764870D01*
X15066600Y722540D01*
X15082350Y690780D01*
X15105970Y664330D01*
X15137470Y653750D01*
X15168960Y664330D01*
X15192590Y690780D01*
X15208340Y722540D01*
X15220150Y764870D01*
X15224080Y812500D01*
X15220150Y860120D01*
X15208340Y902460D01*
X15192590Y934210D01*
X15168960Y960670D01*
X15137470Y971250D01*
G01X15452430Y643170D02*
X15444550Y648460D01*
Y659040D01*
X15452430Y664330D01*
X15460310Y659040D01*
Y648460D01*
X15452430Y643170D01*
G01X15692580Y786030D02*
X15720150Y823090D01*
X15743770Y844250D01*
X15775270Y854830D01*
X15802830Y844250D01*
X15822510Y823090D01*
X15838260Y791330D01*
X15842200Y754290D01*
X15838260Y722540D01*
X15822510Y690780D01*
X15798880Y664330D01*
X15771330Y653750D01*
X15739830Y664330D01*
X15712270Y696070D01*
X15696520Y743710D01*
X15692580Y796620D01*
X15700460Y865410D01*
X15712270Y902460D01*
X15731950Y939500D01*
X15759510Y965960D01*
X15787070Y971250D01*
X15814630Y960670D01*
X15834320Y934210D01*
G01X14192590Y4781250D02*
X14161090Y4770670D01*
X14137470Y4744210D01*
X14121720Y4712460D01*
X14109910Y4670120D01*
X14105980Y4622500D01*
X14109910Y4574870D01*
X14121720Y4532540D01*
X14137470Y4500780D01*
X14161090Y4474330D01*
X14192590Y4463750D01*
X14224080Y4474330D01*
X14247710Y4500780D01*
X14263460Y4532540D01*
X14275270Y4574870D01*
X14279200Y4622500D01*
X14275270Y4670120D01*
X14263460Y4712460D01*
X14247710Y4744210D01*
X14224080Y4770670D01*
X14192590Y4781250D01*
G01X14507550Y4453170D02*
X14499670Y4458460D01*
Y4469040D01*
X14507550Y4474330D01*
X14515430Y4469040D01*
Y4458460D01*
X14507550Y4453170D01*
G01X14747700Y4728330D02*
X14771330Y4760080D01*
X14798890Y4775960D01*
X14830390Y4781250D01*
X14869750Y4770670D01*
X14897320Y4744210D01*
X14905190Y4712460D01*
X14901250Y4680700D01*
X14885500Y4654250D01*
X14806760Y4601330D01*
X14771330Y4564290D01*
X14747700Y4511360D01*
X14739830Y4463750D01*
X14905190D01*
G01X15050860Y4511360D02*
X15074470Y4484910D01*
X15102030Y4469040D01*
X15137470Y4463750D01*
X15172910Y4474330D01*
X15200460Y4495490D01*
X15220150Y4532540D01*
X15224080Y4574870D01*
X15216210Y4617200D01*
X15196520Y4643670D01*
X15168960Y4664830D01*
X15141410Y4670120D01*
X15113850Y4664830D01*
X15078420Y4643670D01*
X15090230Y4781250D01*
X15196520D01*
G01X15499670Y4463750D02*
Y4781250D01*
X15354000Y4553710D01*
X15550860D01*
G01X14420940Y1352250D02*
X14444550Y1315200D01*
X14476050Y1294040D01*
X14511490Y1288750D01*
X14542990Y1294040D01*
X14574480Y1320490D01*
X14594160Y1352250D01*
X14598100Y1384000D01*
X14590230Y1421030D01*
X14562670Y1447500D01*
X14535110Y1458090D01*
X14499670D01*
G01X14535110D02*
X14558730Y1473960D01*
X14578420Y1500410D01*
X14586290Y1532160D01*
X14578420Y1563920D01*
X14558730Y1590370D01*
X14523300Y1606250D01*
X14487870Y1600960D01*
X14452430Y1579790D01*
G01X14822510Y1278170D02*
X14814630Y1283460D01*
Y1294040D01*
X14822510Y1299330D01*
X14830390Y1294040D01*
Y1283460D01*
X14822510Y1278170D01*
G01X15050860Y1352250D02*
X15074470Y1315200D01*
X15105970Y1294040D01*
X15141410Y1288750D01*
X15172910Y1294040D01*
X15204400Y1320490D01*
X15224080Y1352250D01*
X15228020Y1384000D01*
X15220150Y1421030D01*
X15192590Y1447500D01*
X15165030Y1458090D01*
X15129590D01*
G01X15165030D02*
X15188650Y1473960D01*
X15208340Y1500410D01*
X15216210Y1532160D01*
X15208340Y1563920D01*
X15188650Y1590370D01*
X15153220Y1606250D01*
X15117790Y1600960D01*
X15082350Y1579790D01*
G01X14432740Y2188330D02*
X14456370Y2220080D01*
X14483930Y2235960D01*
X14515430Y2241250D01*
X14554790Y2230670D01*
X14582360Y2204210D01*
X14590230Y2172460D01*
X14586290Y2140700D01*
X14570540Y2114250D01*
X14491800Y2061330D01*
X14456370Y2024290D01*
X14432740Y1971360D01*
X14424870Y1923750D01*
X14590230D01*
G01X14822510Y1913170D02*
X14814630Y1918460D01*
Y1929040D01*
X14822510Y1934330D01*
X14830390Y1929040D01*
Y1918460D01*
X14822510Y1913170D01*
G01X15050860Y1987250D02*
X15074470Y1950200D01*
X15105970Y1929040D01*
X15141410Y1923750D01*
X15172910Y1929040D01*
X15204400Y1955490D01*
X15224080Y1987250D01*
X15228020Y2019000D01*
X15220150Y2056030D01*
X15192590Y2082500D01*
X15165030Y2093090D01*
X15129590D01*
G01X15165030D02*
X15188650Y2108960D01*
X15208340Y2135410D01*
X15216210Y2167160D01*
X15208340Y2198920D01*
X15188650Y2225370D01*
X15153220Y2241250D01*
X15117790Y2235960D01*
X15082350Y2214790D01*
G01X14507550Y2558750D02*
Y2876250D01*
X14460310Y2812750D01*
G01Y2558750D02*
X14554790D01*
G01X14822510Y2548170D02*
X14814630Y2553460D01*
Y2564040D01*
X14822510Y2569330D01*
X14830390Y2564040D01*
Y2553460D01*
X14822510Y2548170D01*
G01X15184710Y2558750D02*
Y2876250D01*
X15039040Y2648710D01*
X15235900D01*
G01X14507550Y3193750D02*
Y3511250D01*
X14460310Y3447750D01*
G01Y3193750D02*
X14554790D01*
G01X14822510Y3183170D02*
X14814630Y3188460D01*
Y3199040D01*
X14822510Y3204330D01*
X14830390Y3199040D01*
Y3188460D01*
X14822510Y3183170D01*
G01X15137470Y3193750D02*
Y3511250D01*
X15090230Y3447750D01*
G01Y3193750D02*
X15184710D01*
G01X14507550Y4146250D02*
X14476050Y4135670D01*
X14452430Y4109210D01*
X14436680Y4077460D01*
X14424870Y4035120D01*
X14420940Y3987500D01*
X14424870Y3939870D01*
X14436680Y3897540D01*
X14452430Y3865780D01*
X14476050Y3839330D01*
X14507550Y3828750D01*
X14539040Y3839330D01*
X14562670Y3865780D01*
X14578420Y3897540D01*
X14590230Y3939870D01*
X14594160Y3987500D01*
X14590230Y4035120D01*
X14578420Y4077460D01*
X14562670Y4109210D01*
X14539040Y4135670D01*
X14507550Y4146250D01*
G01X14822510Y3818170D02*
X14814630Y3823460D01*
Y3834040D01*
X14822510Y3839330D01*
X14830390Y3834040D01*
Y3823460D01*
X14822510Y3818170D01*
G01X15137470Y3828750D02*
X15165030Y3834040D01*
X15196520Y3849910D01*
X15216210Y3876360D01*
X15224080Y3913420D01*
X15216210Y3950450D01*
X15192590Y3982200D01*
X15157150Y3998090D01*
X15117790D01*
X15094160Y4008670D01*
X15074470Y4035120D01*
X15066600Y4072160D01*
X15078420Y4109210D01*
X15105970Y4135670D01*
X15137470Y4146250D01*
X15168960Y4135670D01*
X15196520Y4109210D01*
X15208340Y4072160D01*
X15200460Y4035120D01*
X15180780Y4008670D01*
X15157150Y3998090D01*
X15117790D01*
X15082350Y3982200D01*
X15058730Y3950450D01*
X15050860Y3913420D01*
X15058730Y3876360D01*
X15078420Y3849910D01*
X15109910Y3834040D01*
X15137470Y3828750D01*
G01X14487860Y5733750D02*
X14586290Y6051250D01*
X14684720Y5733750D01*
G01X14649280Y5844870D02*
X14523290D01*
G01X14822510Y6051250D02*
Y5733750D01*
X14979990D01*
G01X15137470Y6051250D02*
Y5733750D01*
X15294950D01*
G01X15759520Y6051250D02*
Y5823710D01*
X15775260Y5776070D01*
X15806760Y5744330D01*
X15846130Y5733750D01*
X15885500Y5744330D01*
X15917000Y5776070D01*
X15932740Y5823710D01*
Y6051250D01*
G01X16070540Y5733750D02*
Y6051250D01*
X16251640Y5733750D01*
Y6051250D01*
G01X16428810D02*
X16523290D01*
G01X16476050D02*
Y5733750D01*
G01X16428810D02*
X16523290D01*
G01X16791010Y6051250D02*
Y5733750D01*
G01X16700460Y6051250D02*
X16881560D01*
G01X17023290Y5776070D02*
X17054790Y5749620D01*
X17090220Y5733750D01*
X17121720D01*
X17153210Y5749620D01*
X17176840Y5776070D01*
X17188650Y5813130D01*
X17180780Y5850160D01*
X17161090Y5881910D01*
X17125650Y5903090D01*
X17078410Y5913670D01*
X17050850Y5934830D01*
X17039040Y5971870D01*
X17046920Y6008920D01*
X17066600Y6035370D01*
X17094160Y6051250D01*
X17121720D01*
X17149280Y6040670D01*
X17172900Y6014210D01*
G01X17637460Y5733750D02*
X17735890Y6051250D01*
X17834320Y5733750D01*
G01X17798880Y5844870D02*
X17672890D01*
G01X17972110Y5733750D02*
Y6051250D01*
X18070530D01*
X18102030Y6035370D01*
X18121720Y6014210D01*
X18129590Y5971870D01*
X18121720Y5929540D01*
X18098090Y5903090D01*
X18070530Y5887200D01*
X17972110D01*
G01X18070530D02*
X18129590Y5733750D01*
G01X18444550D02*
X18287070D01*
Y6051250D01*
X18444550D01*
G01X18381560Y5897800D02*
X18287070D01*
G01X18948490Y6051250D02*
X19042970D01*
G01X18995730D02*
Y5733750D01*
G01X18948490D02*
X19042970D01*
G01X19220140D02*
Y6051250D01*
X19401240Y5733750D01*
Y6051250D01*
G01X19838240Y5733750D02*
Y6051250D01*
X19940610Y5786670D01*
X20042980Y6051250D01*
Y5733750D01*
G01X20208330Y6051250D02*
X20302810D01*
G01X20255570D02*
Y5733750D01*
G01X20208330D02*
X20302810D01*
G01X20491790Y6051250D02*
Y5733750D01*
X20649270D01*
G01X20806750Y6051250D02*
Y5733750D01*
X20964230D01*
G01X21153210Y6051250D02*
X21247690D01*
G01X21200450D02*
Y5733750D01*
G01X21153210D02*
X21247690D01*
G01X21413040D02*
Y6051250D01*
X21515410Y5786670D01*
X21617780Y6051250D01*
Y5733750D01*
G01X21909110D02*
X21751630D01*
Y6051250D01*
X21909110D01*
G01X21846120Y5897800D02*
X21751630D01*
G01X22145330Y6051250D02*
Y5733750D01*
G01X22054780Y6051250D02*
X22235880D01*
G01X22539030Y5733750D02*
X22381550D01*
Y6051250D01*
X22539030D01*
G01X22476040Y5897800D02*
X22381550D01*
G01X22696510Y5733750D02*
Y6051250D01*
X22794930D01*
X22826430Y6035370D01*
X22846120Y6014210D01*
X22853990Y5971870D01*
X22846120Y5929540D01*
X22822490Y5903090D01*
X22794930Y5887200D01*
X22696510D01*
G01X22794930D02*
X22853990Y5733750D01*
G01X23007530Y5776070D02*
X23039030Y5749620D01*
X23074460Y5733750D01*
X23105960D01*
X23137450Y5749620D01*
X23161080Y5776070D01*
X23172890Y5813130D01*
X23165020Y5850160D01*
X23145330Y5881910D01*
X23109890Y5903090D01*
X23062650Y5913670D01*
X23035090Y5934830D01*
X23023280Y5971870D01*
X23031160Y6008920D01*
X23050840Y6035370D01*
X23078400Y6051250D01*
X23105960D01*
X23133520Y6040670D01*
X23157140Y6014210D01*
G01X14814640Y6383750D02*
Y6701250D01*
X14893370D01*
X14924870Y6685370D01*
X14948490Y6664210D01*
X14968180Y6632460D01*
X14983930Y6595410D01*
X14987860Y6542500D01*
X14983930Y6489580D01*
X14968180Y6452540D01*
X14948490Y6420780D01*
X14924870Y6399620D01*
X14893370Y6383750D01*
X14814640D01*
G01X15137470D02*
Y6701250D01*
X15235890D01*
X15267390Y6685370D01*
X15287080Y6664210D01*
X15294950Y6621870D01*
X15287080Y6579540D01*
X15263450Y6553090D01*
X15235890Y6537200D01*
X15137470D01*
G01X15235890D02*
X15294950Y6383750D01*
G01X15483930Y6701250D02*
X15578410D01*
G01X15531170D02*
Y6383750D01*
G01X15483930D02*
X15578410D01*
G01X15767390Y6701250D02*
Y6383750D01*
X15924870D01*
G01X16082350Y6701250D02*
Y6383750D01*
X16239830D01*
G01X16877620Y6674790D02*
X16854000Y6690670D01*
X16826450Y6701250D01*
X16794950D01*
X16759510Y6685370D01*
X16731960Y6658920D01*
X16712270Y6627160D01*
X16696520Y6574250D01*
X16692580Y6526620D01*
X16700460Y6479000D01*
X16712270Y6447250D01*
X16735890Y6415490D01*
X16763450Y6394330D01*
X16791010Y6383750D01*
X16818570D01*
X16846130Y6394330D01*
X16869750Y6410200D01*
X16889440Y6431360D01*
G01X17023290Y6383750D02*
Y6701250D01*
G01X17188650D02*
Y6383750D01*
G01Y6542500D02*
X17023290D01*
G01X17322500Y6383750D02*
X17420930Y6701250D01*
X17519360Y6383750D01*
G01X17483920Y6494870D02*
X17357930D01*
G01X17657150Y6383750D02*
Y6701250D01*
X17755570D01*
X17787070Y6685370D01*
X17806760Y6664210D01*
X17814630Y6621870D01*
X17806760Y6579540D01*
X17783130Y6553090D01*
X17755570Y6537200D01*
X17657150D01*
G01X17755570D02*
X17814630Y6383750D01*
G01X18050850Y6701250D02*
Y6383750D01*
G01X17960300Y6701250D02*
X18141400D01*
G01X18365810Y6373170D02*
X18357930Y6378460D01*
Y6389040D01*
X18365810Y6394330D01*
X18373690Y6389040D01*
Y6378460D01*
X18365810Y6373170D01*
G01Y6516030D02*
X18357930Y6521330D01*
Y6531910D01*
X18365810Y6537200D01*
X18373690Y6531910D01*
Y6521330D01*
X18365810Y6516030D01*
G01X18995730Y6701250D02*
Y6383750D01*
G01X18905180Y6701250D02*
X19086280D01*
G01X19310690Y6383750D02*
X19279190Y6389040D01*
X19251640Y6410200D01*
X19228010Y6441960D01*
X19212260Y6479000D01*
X19204390Y6521330D01*
Y6563670D01*
X19212260Y6606000D01*
X19228010Y6643040D01*
X19251640Y6674790D01*
X19279190Y6695960D01*
X19310690Y6701250D01*
X19342180Y6695960D01*
X19369740Y6674790D01*
X19393370Y6643040D01*
X19409120Y6606000D01*
X19416990Y6563670D01*
Y6521330D01*
X19409120Y6479000D01*
X19393370Y6441960D01*
X19369740Y6410200D01*
X19342180Y6389040D01*
X19310690Y6383750D01*
G01X19546910D02*
Y6701250D01*
X19641400D01*
X19672890Y6685370D01*
X19696520Y6648330D01*
X19704390Y6606000D01*
X19696520Y6563670D01*
X19676830Y6531910D01*
X19641400Y6516030D01*
X19546910D01*
G01X20255570Y6701250D02*
Y6383750D01*
G01X20200450Y6595410D02*
X20310690D01*
G01X20570530Y6383750D02*
X20546910Y6389040D01*
X20523290Y6410200D01*
X20507530Y6447250D01*
X20499660Y6489580D01*
X20507530Y6531910D01*
X20523290Y6568960D01*
X20546910Y6590120D01*
X20570530Y6595410D01*
X20594150Y6590120D01*
X20617770Y6568960D01*
X20633520Y6531910D01*
X20637460Y6489580D01*
X20633520Y6447250D01*
X20617770Y6410200D01*
X20594150Y6389040D01*
X20570530Y6383750D01*
G01X21231940Y6553090D02*
X21247690Y6568960D01*
X21259500Y6595410D01*
X21267380Y6632460D01*
X21259500Y6664210D01*
X21243760Y6685370D01*
X21216200Y6701250D01*
X21109900D01*
Y6383750D01*
X21239820D01*
X21267380Y6404910D01*
X21283130Y6436670D01*
X21291000Y6473710D01*
X21283130Y6510740D01*
X21259500Y6542500D01*
X21231940Y6553090D01*
X21109900D01*
G01X21515410Y6383750D02*
X21483910Y6389040D01*
X21456360Y6410200D01*
X21432730Y6441960D01*
X21416980Y6479000D01*
X21409110Y6521330D01*
Y6563670D01*
X21416980Y6606000D01*
X21432730Y6643040D01*
X21456360Y6674790D01*
X21483910Y6695960D01*
X21515410Y6701250D01*
X21546900Y6695960D01*
X21574460Y6674790D01*
X21598090Y6643040D01*
X21613840Y6606000D01*
X21621710Y6563670D01*
Y6521330D01*
X21613840Y6479000D01*
X21598090Y6441960D01*
X21574460Y6410200D01*
X21546900Y6389040D01*
X21515410Y6383750D01*
G01X21830370Y6701250D02*
Y6383750D01*
G01X21739820Y6701250D02*
X21920920D01*
G01X22145330D02*
Y6383750D01*
G01X22054780Y6701250D02*
X22235880D01*
G01X22460290Y6383750D02*
X22428790Y6389040D01*
X22401240Y6410200D01*
X22377610Y6441960D01*
X22361860Y6479000D01*
X22353990Y6521330D01*
Y6563670D01*
X22361860Y6606000D01*
X22377610Y6643040D01*
X22401240Y6674790D01*
X22428790Y6695960D01*
X22460290Y6701250D01*
X22491780Y6695960D01*
X22519340Y6674790D01*
X22542970Y6643040D01*
X22558720Y6606000D01*
X22566590Y6563670D01*
Y6521330D01*
X22558720Y6479000D01*
X22542970Y6441960D01*
X22519340Y6410200D01*
X22491780Y6389040D01*
X22460290Y6383750D01*
G01X22672880D02*
Y6701250D01*
X22775250Y6436670D01*
X22877620Y6701250D01*
Y6383750D01*
G01X18121720Y5098750D02*
Y5416250D01*
X18200450D01*
X18231950Y5400370D01*
X18255570Y5379210D01*
X18275260Y5347460D01*
X18291010Y5310410D01*
X18294940Y5257500D01*
X18291010Y5204580D01*
X18275260Y5167540D01*
X18255570Y5135780D01*
X18231950Y5114620D01*
X18200450Y5098750D01*
X18121720D01*
G01X18444550D02*
Y5416250D01*
X18542970D01*
X18574470Y5400370D01*
X18594160Y5379210D01*
X18602030Y5336870D01*
X18594160Y5294540D01*
X18570530Y5268090D01*
X18542970Y5252200D01*
X18444550D01*
G01X18542970D02*
X18602030Y5098750D01*
G01X18791010Y5416250D02*
X18885490D01*
G01X18838250D02*
Y5098750D01*
G01X18791010D02*
X18885490D01*
G01X19074470Y5416250D02*
Y5098750D01*
X19231950D01*
G01X19389430Y5416250D02*
Y5098750D01*
X19546910D01*
G01X19861870D02*
X19704390D01*
Y5416250D01*
X19861870D01*
G01X19798880Y5262800D02*
X19704390D01*
G01X20011480Y5098750D02*
Y5416250D01*
X20090210D01*
X20121710Y5400370D01*
X20145330Y5379210D01*
X20165020Y5347460D01*
X20180770Y5310410D01*
X20184700Y5257500D01*
X20180770Y5204580D01*
X20165020Y5167540D01*
X20145330Y5135780D01*
X20121710Y5114620D01*
X20090210Y5098750D01*
X20011480D01*
G01X20294940Y4992920D02*
X20531160D01*
G01X20645330Y5141070D02*
X20676830Y5114620D01*
X20712260Y5098750D01*
X20743760D01*
X20775250Y5114620D01*
X20798880Y5141070D01*
X20810690Y5178130D01*
X20802820Y5215160D01*
X20783130Y5246910D01*
X20747690Y5268090D01*
X20700450Y5278670D01*
X20672890Y5299830D01*
X20661080Y5336870D01*
X20668960Y5373920D01*
X20688640Y5400370D01*
X20716200Y5416250D01*
X20743760D01*
X20771320Y5405670D01*
X20794940Y5379210D01*
G01X20995730Y5416250D02*
X21090210D01*
G01X21042970D02*
Y5098750D01*
G01X20995730D02*
X21090210D01*
G01X21283120Y5416250D02*
X21432740D01*
X21283120Y5098750D01*
X21432740D01*
G01X21751630D02*
X21594150D01*
Y5416250D01*
X21751630D01*
G01X21688640Y5262800D02*
X21594150D01*
G01X19889430Y124580D02*
X19991790D01*
G01X19889430Y759580D02*
X19991790D01*
G01X19889430Y1394580D02*
X19991790D01*
G01X19889430Y2029580D02*
X19991790D01*
G01X19889430Y2664580D02*
X19991790D01*
G01X19889430Y3299580D02*
X19991790D01*
G01X19889430Y3934580D02*
X19991790D01*
G01X19889430Y4569580D02*
X19991790D01*
G01X21827830Y-298750D02*
Y-616250D01*
G01X21737280Y-298750D02*
X21918380D01*
G01X22142790Y-616250D02*
X22111290Y-610960D01*
X22083740Y-589800D01*
X22060110Y-558040D01*
X22044360Y-521000D01*
X22036490Y-478670D01*
Y-436330D01*
X22044360Y-394000D01*
X22060110Y-356960D01*
X22083740Y-325210D01*
X22111290Y-304040D01*
X22142790Y-298750D01*
X22174280Y-304040D01*
X22201840Y-325210D01*
X22225470Y-356960D01*
X22241220Y-394000D01*
X22249090Y-436330D01*
Y-478670D01*
X22241220Y-521000D01*
X22225470Y-558040D01*
X22201840Y-589800D01*
X22174280Y-610960D01*
X22142790Y-616250D01*
G01X22457750Y-298750D02*
Y-616250D01*
G01X22367200Y-298750D02*
X22548300D01*
G01X22674280Y-616250D02*
X22772710Y-298750D01*
X22871140Y-616250D01*
G01X22835700Y-505130D02*
X22709710D01*
G01X23008930Y-298750D02*
Y-616250D01*
X23166410D01*
G01X23634910D02*
Y-298750D01*
G01X23800270D02*
Y-616250D01*
G01Y-457500D02*
X23634910D01*
G01X24032550Y-616250D02*
X24001050Y-610960D01*
X23973500Y-589800D01*
X23949870Y-558040D01*
X23934120Y-521000D01*
X23926250Y-478670D01*
Y-436330D01*
X23934120Y-394000D01*
X23949870Y-356960D01*
X23973500Y-325210D01*
X24001050Y-304040D01*
X24032550Y-298750D01*
X24064040Y-304040D01*
X24091600Y-325210D01*
X24115230Y-356960D01*
X24130980Y-394000D01*
X24138850Y-436330D01*
Y-478670D01*
X24130980Y-521000D01*
X24115230Y-558040D01*
X24091600Y-589800D01*
X24064040Y-610960D01*
X24032550Y-616250D01*
G01X24268770Y-298750D02*
Y-616250D01*
X24426250D01*
G01X24741210D02*
X24583730D01*
Y-298750D01*
X24741210D01*
G01X24678220Y-452200D02*
X24583730D01*
G01X24894750Y-573930D02*
X24926250Y-600380D01*
X24961680Y-616250D01*
X24993180D01*
X25024670Y-600380D01*
X25048300Y-573930D01*
X25060110Y-536870D01*
X25052240Y-499840D01*
X25032550Y-468090D01*
X24997110Y-446910D01*
X24949870Y-436330D01*
X24922310Y-415170D01*
X24910500Y-378130D01*
X24918380Y-341080D01*
X24938060Y-314630D01*
X24965620Y-298750D01*
X24993180D01*
X25020740Y-309330D01*
X25044360Y-335790D01*
G01X25292390Y-626830D02*
X25284510Y-621540D01*
Y-610960D01*
X25292390Y-605670D01*
X25300270Y-610960D01*
Y-621540D01*
X25292390Y-626830D01*
G01Y-483970D02*
X25284510Y-478670D01*
Y-468090D01*
X25292390Y-462800D01*
X25300270Y-468090D01*
Y-478670D01*
X25292390Y-483970D01*
G01X23247690Y18750D02*
Y336250D01*
X23342180D01*
X23373670Y320370D01*
X23397300Y283330D01*
X23405170Y241000D01*
X23397300Y198670D01*
X23377610Y166910D01*
X23342180Y151030D01*
X23247690D01*
G01X23562650Y336250D02*
Y18750D01*
X23720130D01*
G01X23857920D02*
X23956350Y336250D01*
X24054780Y18750D01*
G01X24019340Y129870D02*
X23893350D01*
G01X24271310Y336250D02*
Y18750D01*
G01X24180760Y336250D02*
X24361860D01*
G01X24665010Y18750D02*
X24507530D01*
Y336250D01*
X24665010D01*
G01X24602020Y182800D02*
X24507530D01*
G01X24814620Y18750D02*
Y336250D01*
X24893350D01*
X24924850Y320370D01*
X24948470Y299210D01*
X24968160Y267460D01*
X24983910Y230410D01*
X24987840Y177500D01*
X24983910Y124580D01*
X24968160Y87540D01*
X24948470Y55780D01*
X24924850Y34620D01*
X24893350Y18750D01*
X24814620D01*
G01X23247690Y653750D02*
Y971250D01*
X23342180D01*
X23373670Y955370D01*
X23397300Y918330D01*
X23405170Y876000D01*
X23397300Y833670D01*
X23377610Y801910D01*
X23342180Y786030D01*
X23247690D01*
G01X23562650Y971250D02*
Y653750D01*
X23720130D01*
G01X23857920D02*
X23956350Y971250D01*
X24054780Y653750D01*
G01X24019340Y764870D02*
X23893350D01*
G01X24271310Y971250D02*
Y653750D01*
G01X24180760Y971250D02*
X24361860D01*
G01X24665010Y653750D02*
X24507530D01*
Y971250D01*
X24665010D01*
G01X24602020Y817800D02*
X24507530D01*
G01X24814620Y653750D02*
Y971250D01*
X24893350D01*
X24924850Y955370D01*
X24948470Y934210D01*
X24968160Y902460D01*
X24983910Y865410D01*
X24987840Y812500D01*
X24983910Y759580D01*
X24968160Y722540D01*
X24948470Y690780D01*
X24924850Y669620D01*
X24893350Y653750D01*
X24814620D01*
G01X23247690Y1288750D02*
Y1606250D01*
X23342180D01*
X23373670Y1590370D01*
X23397300Y1553330D01*
X23405170Y1511000D01*
X23397300Y1468670D01*
X23377610Y1436910D01*
X23342180Y1421030D01*
X23247690D01*
G01X23562650Y1606250D02*
Y1288750D01*
X23720130D01*
G01X23857920D02*
X23956350Y1606250D01*
X24054780Y1288750D01*
G01X24019340Y1399870D02*
X23893350D01*
G01X24271310Y1606250D02*
Y1288750D01*
G01X24180760Y1606250D02*
X24361860D01*
G01X24665010Y1288750D02*
X24507530D01*
Y1606250D01*
X24665010D01*
G01X24602020Y1452800D02*
X24507530D01*
G01X24814620Y1288750D02*
Y1606250D01*
X24893350D01*
X24924850Y1590370D01*
X24948470Y1569210D01*
X24968160Y1537460D01*
X24983910Y1500410D01*
X24987840Y1447500D01*
X24983910Y1394580D01*
X24968160Y1357540D01*
X24948470Y1325780D01*
X24924850Y1304620D01*
X24893350Y1288750D01*
X24814620D01*
G01X23247690Y1923750D02*
Y2241250D01*
X23342180D01*
X23373670Y2225370D01*
X23397300Y2188330D01*
X23405170Y2146000D01*
X23397300Y2103670D01*
X23377610Y2071910D01*
X23342180Y2056030D01*
X23247690D01*
G01X23562650Y2241250D02*
Y1923750D01*
X23720130D01*
G01X23857920D02*
X23956350Y2241250D01*
X24054780Y1923750D01*
G01X24019340Y2034870D02*
X23893350D01*
G01X24271310Y2241250D02*
Y1923750D01*
G01X24180760Y2241250D02*
X24361860D01*
G01X24665010Y1923750D02*
X24507530D01*
Y2241250D01*
X24665010D01*
G01X24602020Y2087800D02*
X24507530D01*
G01X24814620Y1923750D02*
Y2241250D01*
X24893350D01*
X24924850Y2225370D01*
X24948470Y2204210D01*
X24968160Y2172460D01*
X24983910Y2135410D01*
X24987840Y2082500D01*
X24983910Y2029580D01*
X24968160Y1992540D01*
X24948470Y1960780D01*
X24924850Y1939620D01*
X24893350Y1923750D01*
X24814620D01*
G01X23247690Y2558750D02*
Y2876250D01*
X23342180D01*
X23373670Y2860370D01*
X23397300Y2823330D01*
X23405170Y2781000D01*
X23397300Y2738670D01*
X23377610Y2706910D01*
X23342180Y2691030D01*
X23247690D01*
G01X23562650Y2876250D02*
Y2558750D01*
X23720130D01*
G01X23857920D02*
X23956350Y2876250D01*
X24054780Y2558750D01*
G01X24019340Y2669870D02*
X23893350D01*
G01X24271310Y2876250D02*
Y2558750D01*
G01X24180760Y2876250D02*
X24361860D01*
G01X24665010Y2558750D02*
X24507530D01*
Y2876250D01*
X24665010D01*
G01X24602020Y2722800D02*
X24507530D01*
G01X24814620Y2558750D02*
Y2876250D01*
X24893350D01*
X24924850Y2860370D01*
X24948470Y2839210D01*
X24968160Y2807460D01*
X24983910Y2770410D01*
X24987840Y2717500D01*
X24983910Y2664580D01*
X24968160Y2627540D01*
X24948470Y2595780D01*
X24924850Y2574620D01*
X24893350Y2558750D01*
X24814620D01*
G01X23247690Y3193750D02*
Y3511250D01*
X23342180D01*
X23373670Y3495370D01*
X23397300Y3458330D01*
X23405170Y3416000D01*
X23397300Y3373670D01*
X23377610Y3341910D01*
X23342180Y3326030D01*
X23247690D01*
G01X23562650Y3511250D02*
Y3193750D01*
X23720130D01*
G01X23857920D02*
X23956350Y3511250D01*
X24054780Y3193750D01*
G01X24019340Y3304870D02*
X23893350D01*
G01X24271310Y3511250D02*
Y3193750D01*
G01X24180760Y3511250D02*
X24361860D01*
G01X24665010Y3193750D02*
X24507530D01*
Y3511250D01*
X24665010D01*
G01X24602020Y3357800D02*
X24507530D01*
G01X24814620Y3193750D02*
Y3511250D01*
X24893350D01*
X24924850Y3495370D01*
X24948470Y3474210D01*
X24968160Y3442460D01*
X24983910Y3405410D01*
X24987840Y3352500D01*
X24983910Y3299580D01*
X24968160Y3262540D01*
X24948470Y3230780D01*
X24924850Y3209620D01*
X24893350Y3193750D01*
X24814620D01*
G01X23247690Y3828750D02*
Y4146250D01*
X23342180D01*
X23373670Y4130370D01*
X23397300Y4093330D01*
X23405170Y4051000D01*
X23397300Y4008670D01*
X23377610Y3976910D01*
X23342180Y3961030D01*
X23247690D01*
G01X23562650Y4146250D02*
Y3828750D01*
X23720130D01*
G01X23857920D02*
X23956350Y4146250D01*
X24054780Y3828750D01*
G01X24019340Y3939870D02*
X23893350D01*
G01X24271310Y4146250D02*
Y3828750D01*
G01X24180760Y4146250D02*
X24361860D01*
G01X24665010Y3828750D02*
X24507530D01*
Y4146250D01*
X24665010D01*
G01X24602020Y3992800D02*
X24507530D01*
G01X24814620Y3828750D02*
Y4146250D01*
X24893350D01*
X24924850Y4130370D01*
X24948470Y4109210D01*
X24968160Y4077460D01*
X24983910Y4040410D01*
X24987840Y3987500D01*
X24983910Y3934580D01*
X24968160Y3897540D01*
X24948470Y3865780D01*
X24924850Y3844620D01*
X24893350Y3828750D01*
X24814620D01*
G01X23247690Y4463750D02*
Y4781250D01*
X23342180D01*
X23373670Y4765370D01*
X23397300Y4728330D01*
X23405170Y4686000D01*
X23397300Y4643670D01*
X23377610Y4611910D01*
X23342180Y4596030D01*
X23247690D01*
G01X23562650Y4781250D02*
Y4463750D01*
X23720130D01*
G01X23857920D02*
X23956350Y4781250D01*
X24054780Y4463750D01*
G01X24019340Y4574870D02*
X23893350D01*
G01X24271310Y4781250D02*
Y4463750D01*
G01X24180760Y4781250D02*
X24361860D01*
G01X24665010Y4463750D02*
X24507530D01*
Y4781250D01*
X24665010D01*
G01X24602020Y4627800D02*
X24507530D01*
G01X24814620Y4463750D02*
Y4781250D01*
X24893350D01*
X24924850Y4765370D01*
X24948470Y4744210D01*
X24968160Y4712460D01*
X24983910Y4675410D01*
X24987840Y4622500D01*
X24983910Y4569580D01*
X24968160Y4532540D01*
X24948470Y4500780D01*
X24924850Y4479620D01*
X24893350Y4463750D01*
X24814620D01*
G01X23247690Y5098750D02*
Y5416250D01*
X23342180D01*
X23373670Y5400370D01*
X23397300Y5363330D01*
X23405170Y5321000D01*
X23397300Y5278670D01*
X23377610Y5246910D01*
X23342180Y5231030D01*
X23247690D01*
G01X23562650Y5416250D02*
Y5098750D01*
X23720130D01*
G01X23857920D02*
X23956350Y5416250D01*
X24054780Y5098750D01*
G01X24019340Y5209870D02*
X23893350D01*
G01X24271310Y5416250D02*
Y5098750D01*
G01X24180760Y5416250D02*
X24361860D01*
G01X24665010Y5098750D02*
X24507530D01*
Y5416250D01*
X24665010D01*
G01X24602020Y5262800D02*
X24507530D01*
G01X24814620Y5098750D02*
Y5416250D01*
X24893350D01*
X24924850Y5400370D01*
X24948470Y5379210D01*
X24968160Y5347460D01*
X24983910Y5310410D01*
X24987840Y5257500D01*
X24983910Y5204580D01*
X24968160Y5167540D01*
X24948470Y5135780D01*
X24924850Y5114620D01*
X24893350Y5098750D01*
X24814620D01*
G01X26322480Y-351670D02*
X26346110Y-319920D01*
X26373670Y-304040D01*
X26405170Y-298750D01*
X26444530Y-309330D01*
X26472100Y-335790D01*
X26479970Y-367540D01*
X26476030Y-399300D01*
X26460280Y-425750D01*
X26381540Y-478670D01*
X26346110Y-515710D01*
X26322480Y-568640D01*
X26314610Y-616250D01*
X26479970D01*
G01X26645320Y-579220D02*
X26672880Y-605670D01*
X26704370Y-616250D01*
X26735870Y-605670D01*
X26763430Y-573930D01*
X26783120Y-526290D01*
X26790990Y-478670D01*
Y-420460D01*
X26783120Y-372840D01*
X26763430Y-330500D01*
X26739810Y-309330D01*
X26712250Y-298750D01*
X26680750Y-309330D01*
X26657130Y-330500D01*
X26641380Y-362250D01*
X26633510Y-404590D01*
X26641380Y-441620D01*
X26661070Y-478670D01*
X26684690Y-499840D01*
X26712250Y-505130D01*
X26743740Y-494550D01*
X26767370Y-468090D01*
X26790990Y-420460D01*
G01X26960280Y-579220D02*
X26987840Y-605670D01*
X27019330Y-616250D01*
X27050830Y-605670D01*
X27078390Y-573930D01*
X27098080Y-526290D01*
X27105950Y-478670D01*
Y-420460D01*
X27098080Y-372840D01*
X27078390Y-330500D01*
X27054770Y-309330D01*
X27027210Y-298750D01*
X26995710Y-309330D01*
X26972090Y-330500D01*
X26956340Y-362250D01*
X26948470Y-404590D01*
X26956340Y-441620D01*
X26976030Y-478670D01*
X26999650Y-499840D01*
X27027210Y-505130D01*
X27058700Y-494550D01*
X27082330Y-468090D01*
X27105950Y-420460D01*
G01X26554770Y2558750D02*
Y2876250D01*
X26507530Y2812750D01*
G01Y2558750D02*
X26602010D01*
G01X26794920Y2823330D02*
X26818550Y2855080D01*
X26846110Y2870960D01*
X26877610Y2876250D01*
X26916970Y2865670D01*
X26944540Y2839210D01*
X26952410Y2807460D01*
X26948470Y2775700D01*
X26932720Y2749250D01*
X26853980Y2696330D01*
X26818550Y2659290D01*
X26794920Y2606360D01*
X26787050Y2558750D01*
X26952410D01*
G01X26602010Y3193750D02*
Y3511250D01*
X26456340Y3283710D01*
X26653200D01*
G01X26869730Y3193750D02*
X26897290Y3199040D01*
X26928780Y3214910D01*
X26948470Y3241360D01*
X26956340Y3278420D01*
X26948470Y3315450D01*
X26924850Y3347200D01*
X26889410Y3363090D01*
X26850050D01*
X26826420Y3373670D01*
X26806730Y3400120D01*
X26798860Y3437160D01*
X26810680Y3474210D01*
X26838230Y3500670D01*
X26869730Y3511250D01*
X26901220Y3500670D01*
X26928780Y3474210D01*
X26940600Y3437160D01*
X26932720Y3400120D01*
X26913040Y3373670D01*
X26889410Y3363090D01*
X26850050D01*
X26814610Y3347200D01*
X26790990Y3315450D01*
X26783120Y3278420D01*
X26790990Y3241360D01*
X26810680Y3214910D01*
X26842170Y3199040D01*
X26869730Y3193750D01*
G01X26322480Y4728330D02*
X26346110Y4760080D01*
X26373670Y4775960D01*
X26405170Y4781250D01*
X26444530Y4770670D01*
X26472100Y4744210D01*
X26479970Y4712460D01*
X26476030Y4680700D01*
X26460280Y4654250D01*
X26381540Y4601330D01*
X26346110Y4564290D01*
X26322480Y4511360D01*
X26314610Y4463750D01*
X26479970D01*
G01X26637440Y4728330D02*
X26661070Y4760080D01*
X26688630Y4775960D01*
X26720130Y4781250D01*
X26759490Y4770670D01*
X26787060Y4744210D01*
X26794930Y4712460D01*
X26790990Y4680700D01*
X26775240Y4654250D01*
X26696500Y4601330D01*
X26661070Y4564290D01*
X26637440Y4511360D01*
X26629570Y4463750D01*
X26794930D01*
G01X26940600Y4527250D02*
X26964210Y4490200D01*
X26995710Y4469040D01*
X27031150Y4463750D01*
X27062650Y4469040D01*
X27094140Y4495490D01*
X27113820Y4527250D01*
X27117760Y4559000D01*
X27109890Y4596030D01*
X27082330Y4622500D01*
X27054770Y4633090D01*
X27019330D01*
G01X27054770D02*
X27078390Y4648960D01*
X27098080Y4675410D01*
X27105950Y4707160D01*
X27098080Y4738920D01*
X27078390Y4765370D01*
X27042960Y4781250D01*
X27007530Y4775960D01*
X26972090Y4754790D01*
G01X26397290Y5098750D02*
X26365790Y5104040D01*
X26338240Y5125200D01*
X26314610Y5156960D01*
X26298860Y5194000D01*
X26290990Y5236330D01*
Y5278670D01*
X26298860Y5321000D01*
X26314610Y5358040D01*
X26338240Y5389790D01*
X26365790Y5410960D01*
X26397290Y5416250D01*
X26428780Y5410960D01*
X26456340Y5389790D01*
X26479970Y5358040D01*
X26495720Y5321000D01*
X26503590Y5278670D01*
Y5236330D01*
X26495720Y5194000D01*
X26479970Y5156960D01*
X26456340Y5125200D01*
X26428780Y5104040D01*
X26397290Y5098750D01*
G01X26428780Y5183420D02*
X26476030Y5098750D01*
G01X26712250Y5416250D02*
Y5098750D01*
G01X26621700Y5416250D02*
X26802800D01*
G01X27027210Y5098750D02*
Y5241620D01*
X26948470Y5416250D01*
G01X27105950D02*
X27027210Y5241620D01*
G01X26637440Y283330D02*
X26661070Y315080D01*
X26688630Y330960D01*
X26720130Y336250D01*
X26759490Y325670D01*
X26787060Y299210D01*
X26794930Y267460D01*
X26790990Y235700D01*
X26775240Y209250D01*
X26696500Y156330D01*
X26661070Y119290D01*
X26637440Y66360D01*
X26629570Y18750D01*
X26794930D01*
G01X26637440Y918330D02*
X26661070Y950080D01*
X26688630Y965960D01*
X26720130Y971250D01*
X26759490Y960670D01*
X26787060Y934210D01*
X26794930Y902460D01*
X26790990Y870700D01*
X26775240Y844250D01*
X26696500Y791330D01*
X26661070Y754290D01*
X26637440Y701360D01*
X26629570Y653750D01*
X26794930D01*
G01X26637440Y1421030D02*
X26665010Y1458090D01*
X26688630Y1479250D01*
X26720130Y1489830D01*
X26747690Y1479250D01*
X26767370Y1458090D01*
X26783120Y1426330D01*
X26787060Y1389290D01*
X26783120Y1357540D01*
X26767370Y1325780D01*
X26743740Y1299330D01*
X26716190Y1288750D01*
X26684690Y1299330D01*
X26657130Y1331070D01*
X26641380Y1378710D01*
X26637440Y1431620D01*
X26645320Y1500410D01*
X26657130Y1537460D01*
X26676810Y1574500D01*
X26704370Y1600960D01*
X26731930Y1606250D01*
X26759490Y1595670D01*
X26779180Y1569210D01*
G01X26637440Y2188330D02*
X26661070Y2220080D01*
X26688630Y2235960D01*
X26720130Y2241250D01*
X26759490Y2230670D01*
X26787060Y2204210D01*
X26794930Y2172460D01*
X26790990Y2140700D01*
X26775240Y2114250D01*
X26696500Y2061330D01*
X26661070Y2024290D01*
X26637440Y1971360D01*
X26629570Y1923750D01*
X26794930D01*
G01X26759490Y3828750D02*
Y4146250D01*
X26613820Y3918710D01*
X26810680D01*
G01X-250000Y0D02*
X-1530000D01*
G01X-1280000Y2324260D02*
Y0D01*
G01X-1342500Y400000D02*
X-1280000Y0D01*
X-1217500Y400000D01*
X-1342500D01*
G01X-1280000Y2815740D02*
Y5400000D01*
G01X-1217500Y5000000D02*
X-1280000Y5400000D01*
X-1342500Y5000000D01*
X-1217500D01*
G01X510000Y5400000D02*
X-1530000D01*
G01X-250000Y0D02*
X-870000D01*
G01X110000Y5040000D02*
X-870000D01*
G01X-250000Y0D02*
X-520000D01*
G01X-800000Y-190000D02*
X0D01*
G01X-620000Y1734260D02*
Y0D01*
G01X-682500Y400000D02*
X-620000Y0D01*
X-557500Y400000D01*
X-682500D01*
G01X110000Y360000D02*
X-520000D01*
G01X-620000Y2225740D02*
Y5040000D01*
G01X-557500Y4640000D02*
X-620000Y5040000D01*
X-682500Y4640000D01*
X-557500D01*
G01X-270000Y-800000D02*
Y0D01*
G01X-207500Y-400000D02*
X-270000Y0D01*
X-332500Y-400000D01*
X-207500D01*
G01X-400000Y-252500D02*
X0Y-190000D01*
X-400000Y-127500D01*
Y-252500D01*
G01X-270000Y784260D02*
Y360000D01*
G01X-332500Y760000D02*
X-270000Y360000D01*
X-207500Y760000D01*
X-332500D01*
G01X0Y-250000D02*
Y-920000D01*
G01X3323140Y-670000D02*
X0D01*
G01X400000Y-607500D02*
X0Y-670000D01*
X400000Y-732500D01*
Y-607500D01*
G01X0Y-250000D02*
Y-670000D01*
G01Y-250000D02*
Y-440000D01*
G01X1862640Y-420000D02*
X0D01*
G01X400000Y-357500D02*
X0Y-420000D01*
X400000Y-482500D01*
Y-357500D01*
G01X-40000Y5787500D02*
X360000Y5850000D01*
X-40000Y5912500D01*
Y5787500D01*
G01X360000Y110000D02*
Y-440000D01*
G01X617890Y-190000D02*
X360000D01*
G01X760000Y-127500D02*
X360000Y-190000D01*
X760000Y-252500D01*
Y-127500D01*
G01X360000Y5290000D02*
Y6100000D01*
G01X448390Y5850000D02*
X360000D01*
G01X1060000Y5290000D02*
Y6100000D01*
G01X891610Y5850000D02*
X1060000D01*
G01X1460000Y5912500D02*
X1060000Y5850000D01*
X1460000Y5787500D01*
Y5912500D01*
G01X2877360Y-420000D02*
X8140000D01*
G01X3956860Y-670000D02*
X8500000D01*
G01X7740000Y-482500D02*
X8140000Y-420000D01*
X7740000Y-357500D01*
Y-482500D01*
G01X8100000Y-732500D02*
X8500000Y-670000D01*
X8100000Y-607500D01*
Y-732500D01*
G01X8140000Y110000D02*
Y-670000D01*
G01X8500000Y50000D02*
Y-920000D01*
G01X9980000Y-140000D02*
Y6860000D01*
X27696500D01*
Y-140000D01*
X9980000D01*
G01Y495000D02*
X27696500D01*
G01X9980000Y1130000D02*
X27696500D01*
G01X9980000Y1765000D02*
X27696500D01*
G01X9980000Y2400000D02*
X27696500D01*
G01X9980000Y3035000D02*
X27696500D01*
G01X9980000Y3670000D02*
X27696500D01*
G01X9980000Y4305000D02*
X27696500D01*
G01X9980000Y4940000D02*
X27696500D01*
G01X9980000Y5575000D02*
X27696500D01*
G01X9980000Y6210000D02*
X27696500D01*
G01X12263460Y5575000D02*
Y-140000D01*
G01X17381560Y5575000D02*
Y-140000D01*
G01X22499660Y5575000D02*
Y-140000D01*
G01X25728000Y5575000D02*
Y-140000D01*
M02*
