G04 ================== begin FILE IDENTIFICATION RECORD ==================*
G04 Layout Name:  CH348Q_V10_240815.brd*
G04 Film Name:    SilkScreen_Top*
G04 File Format:  Gerber RS274X*
G04 File Origin:  Cadence Allegro 23.1-S004*
G04 Origin Date:  Thu Aug 15 17:23:26 2024*
G04 *
G04 Layer:  PACKAGE GEOMETRY/SILKSCREEN_TOP*
G04 Layer:  BOARD GEOMETRY/SILKSCREEN_TOP*
G04 *
G04 Offset:    (0.0000 0.0000)*
G04 Mirror:    No*
G04 Mode:      Positive*
G04 Rotation:  0*
G04 FullContactRelief:  No*
G04 UndefLineWidth:     0.1524*
G04 ================== end FILE IDENTIFICATION RECORD ====================*
%FSLAX55Y55*MOMM*%
%IR0*IPPOS*OFA0.00000B0.00000*MIA0B0*SFA1.00000B1.00000*%
%ADD10C,.2*%
%ADD11C,.127*%
%ADD12C,.1524*%
G75*
%LPD*%
G75*
G36*
G01X90000Y3360000D02*
X170000D01*
X130000Y3400000D01*
X90000Y3360000D01*
G37*
G36*
G01X1077600Y3451000D02*
G03I-25400J0D01*
G37*
G36*
G01X1840000Y620000D02*
X1790000Y570000D01*
X1890000D01*
X1840000Y620000D01*
G37*
G36*
G01X1750000Y2140000D02*
G03I-30000J0D01*
G37*
G36*
G01X1755000Y2854800D02*
G03I-30000J0D01*
G37*
G36*
G01X1880000Y5190000D02*
X1800000D01*
X1840000Y5150000D01*
X1880000Y5190000D01*
G37*
G36*
G01X2130000D02*
X2050000D01*
X2090000Y5150000D01*
X2130000Y5190000D01*
G37*
G36*
G01X2570000Y210000D02*
X2650000D01*
X2610000Y250000D01*
X2570000Y210000D01*
G37*
G36*
G01X2310000D02*
X2390000D01*
X2350000Y250000D01*
X2310000Y210000D01*
G37*
G36*
G01X2376800Y1395100D02*
G03I-38100J0D01*
G37*
G36*
G01X2550000Y2667520D02*
X2630000D01*
X2590000Y2707520D01*
X2550000Y2667520D01*
G37*
G36*
G01X2602000Y4780000D02*
X2652000Y4830000D01*
X2552000D01*
X2602000Y4780000D01*
G37*
G36*
G01X3140000Y620000D02*
X3090000Y570000D01*
X3190000D01*
X3140000Y620000D01*
G37*
G36*
G01X3180000Y5190000D02*
X3100000D01*
X3140000Y5150000D01*
X3180000Y5190000D01*
G37*
G36*
G01X3610000Y210000D02*
X3690000D01*
X3650000Y250000D01*
X3610000Y210000D01*
G37*
G36*
G01X3430000Y5190000D02*
X3350000D01*
X3390000Y5150000D01*
X3430000Y5190000D01*
G37*
G36*
G01X3860000Y210000D02*
X3940000D01*
X3900000Y250000D01*
X3860000Y210000D01*
G37*
G36*
G01X3902000Y4780000D02*
X3952000Y4830000D01*
X3852000D01*
X3902000Y4780000D01*
G37*
G36*
G01X4150000Y2014300D02*
X4100000Y2064300D01*
Y1964300D01*
X4150000Y2014300D01*
G37*
G36*
G01Y2600000D02*
X4100000Y2650000D01*
Y2550000D01*
X4150000Y2600000D01*
G37*
G36*
G01Y3180000D02*
X4100000Y3230000D01*
Y3130000D01*
X4150000Y3180000D01*
G37*
G36*
G01Y3760000D02*
X4100000Y3810000D01*
Y3710000D01*
X4150000Y3760000D01*
G37*
G36*
G01X4440000Y620000D02*
X4390000Y570000D01*
X4490000D01*
X4440000Y620000D01*
G37*
G36*
G01X4480000Y5190000D02*
X4400000D01*
X4440000Y5150000D01*
X4480000Y5190000D01*
G37*
G36*
G01X4730000D02*
X4650000D01*
X4690000Y5150000D01*
X4730000Y5190000D01*
G37*
G36*
G01X4910000Y210000D02*
X4990000D01*
X4950000Y250000D01*
X4910000Y210000D01*
G37*
G36*
G01X5070000Y1510000D02*
G03I-30000J0D01*
G37*
G36*
G01Y2470000D02*
G03I-30000J0D01*
G37*
G36*
G01X5169780Y210000D02*
X5249780D01*
X5209780Y250000D01*
X5169780Y210000D01*
G37*
G36*
G01X5200000Y3490000D02*
G03I-30000J0D01*
G37*
G36*
G01X5202000Y4780000D02*
X5252000Y4830000D01*
X5152000D01*
X5202000Y4780000D01*
G37*
G36*
G01X5740000Y620000D02*
X5690000Y570000D01*
X5790000D01*
X5740000Y620000D01*
G37*
G36*
G01X5780000Y5190000D02*
X5700000D01*
X5740000Y5150000D01*
X5780000Y5190000D01*
G37*
G36*
G01X6000000Y3682500D02*
G03I-30000J0D01*
G37*
G36*
G01X6030000Y5190000D02*
X5950000D01*
X5990000Y5150000D01*
X6030000Y5190000D01*
G37*
G36*
G01X6460000Y210000D02*
X6540000D01*
X6500000Y250000D01*
X6460000Y210000D01*
G37*
G36*
G01X6210000D02*
X6290000D01*
X6250000Y250000D01*
X6210000Y210000D01*
G37*
G36*
G01X6502000Y4780000D02*
X6552000Y4830000D01*
X6452000D01*
X6502000Y4780000D01*
G37*
G36*
G01X7480000Y1174400D02*
G03I-30000J0D01*
G37*
G36*
G01Y2940000D02*
G03I-30000J0D01*
G37*
G54D10*
G01X840000Y2020000D02*
X0D01*
Y820000D01*
X840000D01*
G01X160000Y3120000D02*
X0D01*
Y2220000D01*
X160000D01*
G01X70000Y3240000D02*
X190000D01*
Y3520000D01*
X70000D01*
Y3240000D01*
G01Y3520000D02*
Y3550000D01*
X190000D01*
Y3520000D01*
G01X360000Y2220000D02*
X550000D01*
G01X350000Y3240000D02*
Y3420000D01*
X450000D01*
Y3240000D01*
X350000D01*
G01X570000Y3420000D02*
Y3240000D01*
X470000D01*
Y3420000D01*
X570000D01*
G01X220000Y3240000D02*
Y3420000D01*
X320000D01*
Y3240000D01*
X220000D01*
G01X550000Y3120000D02*
X360000D01*
G01X800000Y550000D02*
X1600000D01*
Y60000D01*
X800000D01*
Y550000D01*
G01Y2220000D02*
Y2290000D01*
G01Y3120000D02*
Y3050000D01*
G01X1220000Y2020000D02*
X1600000D01*
Y820000D01*
X1220000D01*
G01X1140000Y3240000D02*
X1320000D01*
Y3140000D01*
X1140000D01*
Y3240000D01*
G01X1204600Y3499100D02*
X1179200D01*
Y3270500D01*
X1280800D01*
Y3499100D01*
X1255400D01*
G01D02*
G02X1204600I-25400J0D01*
G01X1550000Y2720000D02*
Y2900000D01*
X1650000D01*
Y2720000D01*
X1550000D01*
G01X1430000Y2730000D02*
Y2890000D01*
G01X1530000D02*
Y2730000D01*
G01X1430000D02*
G03X1530000I50000J50000D01*
G01Y2890000D02*
G03X1430000I-50000J-50000D01*
G01X1707000Y880000D02*
Y620000D01*
X2737000D01*
Y880000D01*
X1707000D01*
G01X1670000Y1450000D02*
X2110000D01*
Y1150000D01*
X1670000D01*
Y1450000D01*
G01X1950000Y1300000D02*
G02X1890000I-30000J0D01*
G01X1830000D02*
G02X1890000I30000J0D01*
G01X1810000D02*
X1830000D01*
G01X1640000Y2530000D02*
Y2170000D01*
X2060000D01*
Y2530000D01*
X1640000D01*
G01X1800000Y2730000D02*
Y2570000D01*
G01X1700000D02*
Y2730000D01*
G01Y2570000D02*
G03X1800000I50000J50000D01*
G01X1900000D02*
Y2730000D01*
G01Y2570000D02*
G03X2000000I50000J50000D01*
G01X1800000Y2730000D02*
G03X1700000I-50000J-50000D01*
G01X2000000D02*
G03X1900000I-50000J-50000D01*
G01X1660000Y3724800D02*
X2340000D01*
Y3044800D01*
X1660000D01*
Y3724800D01*
G01X1740000Y4130000D02*
Y3970000D01*
G01X1640000D02*
Y4130000D01*
G01Y3970000D02*
G03X1740000I50000J50000D01*
G01Y4130000D02*
G03X1640000I-50000J-50000D01*
G01X2735000Y4520000D02*
Y4780000D01*
X1705000D01*
Y4520000D01*
X2735000D01*
G01X1790000Y4800000D02*
Y4980000D01*
X1890000D01*
Y4800000D01*
X1790000D01*
G01X1900000Y5030000D02*
Y5000000D01*
X1780000D01*
Y5030000D01*
G01X1900000Y5310000D02*
X1780000D01*
Y5030000D01*
X1900000D01*
Y5310000D01*
G01X2290000Y90000D02*
X2410000D01*
Y370000D01*
X2290000D01*
Y90000D01*
G01Y370000D02*
Y400000D01*
X2410000D01*
Y370000D01*
G01X2160000Y1170000D02*
G03X2280000I60000J77500D01*
G01X2160000Y1430000D02*
Y1170000D01*
G01X2280000D02*
Y1430000D01*
G01D02*
G03X2160000I-60000J-77500D01*
G01X1950000Y1300000D02*
X1970000D01*
G01X2110000Y2350000D02*
Y2530000D01*
X2210000D01*
Y2350000D01*
X2110000D01*
G01Y2570000D02*
Y2730000D01*
G01X2210000D02*
Y2570000D01*
G01X2110000D02*
G03X2210000I50000J50000D01*
G01X2230000D02*
Y2730000D01*
G01Y2570000D02*
G03X2330000I50000J50000D01*
G01X2000000Y2730000D02*
Y2570000D01*
G01X2210000Y2730000D02*
G03X2110000I-50000J-50000D01*
G01X2330000D02*
G03X2230000I-50000J-50000D01*
G01X2040000Y4800000D02*
Y4980000D01*
X2140000D01*
Y4800000D01*
X2040000D01*
G01X2150000Y5030000D02*
Y5000000D01*
X2030000D01*
Y5030000D01*
G01X2150000Y5310000D02*
X2030000D01*
Y5030000D01*
X2150000D01*
Y5310000D01*
G01X2550000Y90000D02*
X2670000D01*
Y370000D01*
X2550000D01*
Y90000D01*
G01X2400000Y600000D02*
Y420000D01*
X2300000D01*
Y600000D01*
X2400000D01*
G01X2660000D02*
Y420000D01*
X2560000D01*
Y600000D01*
X2660000D01*
G01X2550000Y370000D02*
Y400000D01*
X2670000D01*
Y370000D01*
G01X2630800Y1439700D02*
Y1147600D01*
X2529200D01*
Y1452400D01*
X2554600D01*
G01X2605400D02*
G02X2554600I-25400J0D01*
G01X2630800Y1439700D02*
Y1452400D01*
X2605400D01*
G01X2640000Y2530000D02*
Y2350000D01*
X2540000D01*
Y2530000D01*
X2640000D01*
G01X2330000Y2730000D02*
Y2570000D01*
G01X2530000Y2547520D02*
X2650000D01*
Y2827520D01*
X2530000D01*
Y2547520D01*
G01Y2827520D02*
Y2857520D01*
X2650000D01*
Y2827520D01*
G01X2730000Y3640000D02*
X2570000D01*
G01Y3740000D02*
X2730000D01*
G01X2570000D02*
G03Y3640000I50000J-50000D01*
G01X2820000Y1170000D02*
G03X2940000I60000J77500D01*
G01X2820000Y1430000D02*
Y1170000D01*
G01X2940000D02*
Y1430000D01*
G01D02*
G03X2820000I-60000J-77500D01*
G01X2730000Y3640000D02*
G03Y3740000I-50000J50000D01*
G01X3007000Y880000D02*
Y620000D01*
X4037000D01*
Y880000D01*
X3007000D01*
G01X4035000Y4520000D02*
Y4780000D01*
X3005000D01*
Y4520000D01*
X4035000D01*
G01X3340000Y4800000D02*
Y4980000D01*
X3440000D01*
Y4800000D01*
X3340000D01*
G01X3090000D02*
Y4980000D01*
X3190000D01*
Y4800000D01*
X3090000D01*
G01X3450000Y5030000D02*
Y5000000D01*
X3330000D01*
Y5030000D01*
G01X3450000Y5310000D02*
X3330000D01*
Y5030000D01*
X3450000D01*
Y5310000D01*
G01X3200000Y5030000D02*
Y5000000D01*
X3080000D01*
Y5030000D01*
G01X3200000Y5310000D02*
X3080000D01*
Y5030000D01*
X3200000D01*
Y5310000D01*
G01X3590000Y90000D02*
X3710000D01*
Y370000D01*
X3590000D01*
Y90000D01*
G01X3700000Y600000D02*
Y420000D01*
X3600000D01*
Y600000D01*
X3700000D01*
G01X3590000Y370000D02*
Y400000D01*
X3710000D01*
Y370000D01*
G01X4660000Y2150000D02*
X3620000D01*
Y1630000D01*
X4660000D01*
G01Y2730000D02*
X3620000D01*
Y2210000D01*
X4660000D01*
G01Y3310000D02*
X3620000D01*
Y2790000D01*
X4660000D01*
G01Y3890000D02*
X3620000D01*
Y3370000D01*
X4660000D01*
G01X3840000Y90000D02*
X3960000D01*
Y370000D01*
X3840000D01*
Y90000D01*
G01X3950000Y600000D02*
Y420000D01*
X3850000D01*
Y600000D01*
X3950000D01*
G01X3840000Y370000D02*
Y400000D01*
X3960000D01*
Y370000D01*
G01X4307000Y880000D02*
Y620000D01*
X5337000D01*
Y880000D01*
X4307000D01*
G01X4150000Y1880000D02*
X4660000D01*
G01X4410000Y2147300D02*
X4150000D01*
Y1627300D01*
X4660000D01*
Y2147300D01*
X4410000D01*
G01Y2733000D02*
X4150000D01*
Y2213000D01*
X4660000D01*
Y2733000D01*
X4410000D01*
G01X4150000Y2470000D02*
X4660000D01*
G01X4410000Y3313000D02*
X4150000D01*
Y2793000D01*
X4660000D01*
Y3313000D01*
X4410000D01*
G01X4150000Y3050000D02*
X4660000D01*
G01X4150000Y3630000D02*
X4660000D01*
G01X4410000Y3893000D02*
X4150000D01*
Y3373000D01*
X4660000D01*
Y3893000D01*
X4410000D01*
G01X5335000Y4520000D02*
Y4780000D01*
X4305000D01*
Y4520000D01*
X5335000D01*
G01X4390000Y4800000D02*
Y4980000D01*
X4490000D01*
Y4800000D01*
X4390000D01*
G01X4500000Y5030000D02*
Y5000000D01*
X4380000D01*
Y5030000D01*
G01X4500000Y5310000D02*
X4380000D01*
Y5030000D01*
X4500000D01*
Y5310000D01*
G01X4640000Y4800000D02*
Y4980000D01*
X4740000D01*
Y4800000D01*
X4640000D01*
G01X4750000Y5030000D02*
Y5000000D01*
X4630000D01*
Y5030000D01*
G01X4750000Y5310000D02*
X4630000D01*
Y5030000D01*
X4750000D01*
Y5310000D01*
G01X4890000Y90000D02*
X5010000D01*
Y370000D01*
X4890000D01*
Y90000D01*
G01X5000000Y600000D02*
Y420000D01*
X4900000D01*
Y600000D01*
X5000000D01*
G01X4890000Y370000D02*
Y400000D01*
X5010000D01*
Y370000D01*
G01X5000000Y1340000D02*
X4820000D01*
Y1440000D01*
X5000000D01*
Y1340000D01*
G01X4810000Y2520000D02*
X4970000D01*
G01Y2420000D02*
X4810000D01*
G01Y2520000D02*
G03Y2420000I50000J-50000D01*
G01X4970000D02*
G03Y2520000I-50000J50000D01*
G01X5110000Y3190000D02*
X4950000D01*
G01Y3290000D02*
G03Y3190000I50000J-50000D01*
G01X5110000Y3630000D02*
X4950000D01*
G01Y3730000D02*
G03Y3630000I50000J-50000D01*
G01Y3290000D02*
X5110000D01*
G01X4950000Y3730000D02*
X5110000D01*
G01X5149780Y90000D02*
X5269780D01*
Y370000D01*
X5149780D01*
Y90000D01*
G01X5259780Y600000D02*
Y420000D01*
X5159780D01*
Y600000D01*
X5259780D01*
G01X5149780Y370000D02*
Y400000D01*
X5269780D01*
Y370000D01*
G01X5270000Y1070000D02*
Y1570000D01*
X5390000D01*
G01X5470000D02*
X5590000D01*
Y1070000D01*
X5270000D01*
G01X5390000Y1570000D02*
G03X5470000I40000J4108D01*
G01X5270000Y2030000D02*
Y2530000D01*
X5390000D01*
G01X5470000D02*
X5590000D01*
Y2030000D01*
X5270000D01*
G01X5390000Y2530000D02*
G03X5470000I40000J4108D01*
G01X5110000Y3190000D02*
G03Y3290000I-50000J50000D01*
G01X5400000Y3050000D02*
Y3550000D01*
X5520000D01*
G01X5600000D02*
X5720000D01*
Y3050000D01*
X5400000D01*
G01X5110000Y3630000D02*
G03Y3730000I-50000J50000D01*
G01X5630000Y3660000D02*
X5750000D01*
Y4160000D01*
X5370000D01*
Y3660000D01*
X5490000D01*
G01X5607000Y880000D02*
Y620000D01*
X6637000D01*
Y880000D01*
X5607000D01*
G01X5520000Y3550000D02*
G03X5600000I40000J4108D01*
G01X5490000Y3660000D02*
G02X5630000I70000J0D01*
G01X6635000Y4520000D02*
Y4780000D01*
X5605000D01*
Y4520000D01*
X6635000D01*
G01X5690000Y4800000D02*
Y4980000D01*
X5790000D01*
Y4800000D01*
X5690000D01*
G01X5800000Y5030000D02*
Y5000000D01*
X5680000D01*
Y5030000D01*
G01X5800000Y5310000D02*
X5680000D01*
Y5030000D01*
X5800000D01*
Y5310000D01*
G01X6020000Y1260000D02*
X6200000D01*
Y1160000D01*
X6020000D01*
Y1260000D01*
G01X5990000Y1490000D02*
Y1150000D01*
X5830000D01*
Y1490000D01*
X5990000D01*
G01X6200000Y1380000D02*
X6020000D01*
Y1480000D01*
X6200000D01*
Y1380000D01*
G01X5990000Y1530000D02*
X5830000D01*
G01X5990000D02*
G03Y1630000I-50000J50000D01*
G01X5830000D02*
G03Y1530000I50000J-50000D01*
G01Y1630000D02*
X5990000D01*
G01X6020000Y2130000D02*
X6200000D01*
Y2030000D01*
X6020000D01*
Y2130000D01*
G01X5990000Y2360000D02*
Y2020000D01*
X5830000D01*
Y2360000D01*
X5990000D01*
G01X6200000Y2250000D02*
X6020000D01*
Y2350000D01*
X6200000D01*
Y2250000D01*
G01Y2400000D02*
X6020000D01*
Y2500000D01*
X6200000D01*
Y2400000D01*
G01X5830000Y2390000D02*
Y2730000D01*
X5990000D01*
Y2390000D01*
X5830000D01*
G01X6020000Y2710000D02*
X6200000D01*
Y2610000D01*
X6020000D01*
Y2710000D01*
G01X6250000Y3200000D02*
Y3090000D01*
X6090000D01*
G01Y3300000D02*
Y3200000D01*
G01X6020000Y3540000D02*
X6200000D01*
Y3440000D01*
X6020000D01*
Y3540000D01*
G01X6190000Y3630000D02*
X6030000D01*
G01Y3730000D02*
G03Y3630000I50000J-50000D01*
G01X6250000Y3300000D02*
Y3410000D01*
X6090000D01*
G01X6190000Y3750000D02*
X6030000D01*
G01Y3850000D02*
X6190000D01*
G01X6030000D02*
G03Y3750000I50000J-50000D01*
G01Y3730000D02*
X6190000D01*
G01Y3940000D02*
X6030000D01*
G01Y4040000D02*
G03Y3940000I50000J-50000D01*
G01X6190000Y4060000D02*
X6030000D01*
G01Y4160000D02*
X6190000D01*
G01X6030000D02*
G03Y4060000I50000J-50000D01*
G01Y4040000D02*
X6190000D01*
G01X5940000Y4800000D02*
Y4980000D01*
X6040000D01*
Y4800000D01*
X5940000D01*
G01X6050000Y5030000D02*
Y5000000D01*
X5930000D01*
Y5030000D01*
G01X6050000Y5310000D02*
X5930000D01*
Y5030000D01*
X6050000D01*
Y5310000D01*
G01X6440000Y90000D02*
X6560000D01*
Y370000D01*
X6440000D01*
Y90000D01*
G01X6190000D02*
X6310000D01*
Y370000D01*
X6190000D01*
Y90000D01*
G01X6300000Y600000D02*
Y420000D01*
X6200000D01*
Y600000D01*
X6300000D01*
G01X6550000D02*
Y420000D01*
X6450000D01*
Y600000D01*
X6550000D01*
G01X6440000Y370000D02*
Y400000D01*
X6560000D01*
Y370000D01*
G01X6190000D02*
Y400000D01*
X6310000D01*
Y370000D01*
G01X6482000Y1270000D02*
Y1160000D01*
X6322000D01*
G01Y1370000D02*
Y1270000D01*
G01X6482000Y1370000D02*
Y1480000D01*
X6322000D01*
G01X6480000Y2140000D02*
Y2240000D01*
G01X6320000Y2140000D02*
Y2030000D01*
X6480000D01*
G01X6320000Y2240000D02*
Y2350000D01*
X6480000D01*
G01Y2510000D02*
Y2610000D01*
G01X6320000Y2510000D02*
Y2400000D01*
X6480000D01*
G01X6320000Y2610000D02*
Y2720000D01*
X6480000D01*
G01X6410000Y3080000D02*
Y3420000D01*
X6570000D01*
Y3080000D01*
X6410000D01*
G01X6190000Y3630000D02*
G03Y3730000I-50000J50000D01*
G01Y3750000D02*
G03Y3850000I-50000J50000D01*
G01Y3940000D02*
G03Y4040000I-50000J50000D01*
G01X6520000Y4010000D02*
Y3900000D01*
X6360000D01*
G01X6190000Y4060000D02*
G03Y4160000I-50000J50000D01*
G01X6360000Y4110000D02*
Y4010000D01*
G01X6520000Y4110000D02*
Y4220000D01*
X6360000D01*
G01X6800000Y1180000D02*
G02X6860000I30000J0D01*
G01X6640000Y1330000D02*
X7080000D01*
Y1030000D01*
X6640000D01*
Y1330000D01*
G01X6780000Y1180000D02*
X6800000D01*
G01Y1520000D02*
G02X6860000I30000J0D01*
G01X6640000Y1670000D02*
X7080000D01*
Y1370000D01*
X6640000D01*
Y1670000D01*
G01X6780000Y1520000D02*
X6800000D01*
G01Y1880000D02*
G02X6860000I30000J0D01*
G01X6640000Y2030000D02*
X7080000D01*
Y1730000D01*
X6640000D01*
Y2030000D01*
G01X6780000Y1880000D02*
X6800000D01*
G01Y2210000D02*
G02X6860000I30000J0D01*
G01X6640000Y2360000D02*
X7080000D01*
Y2060000D01*
X6640000D01*
Y2360000D01*
G01X6780000Y2210000D02*
X6800000D01*
G01Y2540000D02*
G02X6860000I30000J0D01*
G01X6640000Y2690000D02*
X7080000D01*
Y2390000D01*
X6640000D01*
Y2690000D01*
G01X6780000Y2540000D02*
X6800000D01*
G01Y2870000D02*
G02X6860000I30000J0D01*
G01X6640000Y3020000D02*
X7080000D01*
Y2720000D01*
X6640000D01*
Y3020000D01*
G01X6780000Y2870000D02*
X6800000D01*
G01X6820000Y3950000D02*
G02X6880000I30000J0D01*
G01X6660000Y4100000D02*
X7100000D01*
Y3800000D01*
X6660000D01*
Y4100000D01*
G01X6800000Y3950000D02*
X6820000D01*
G01Y4280000D02*
G02X6880000I30000J0D01*
G01X6660000Y4430000D02*
X7100000D01*
Y4130000D01*
X6660000D01*
Y4430000D01*
G01X6800000Y4280000D02*
X6820000D01*
G01X6920000Y1180000D02*
G02X6860000I-30000J0D01*
G01X6920000D02*
X6940000D01*
G01X6920000Y1520000D02*
G02X6860000I-30000J0D01*
G01X6920000D02*
X6940000D01*
G01X6920000Y1880000D02*
G02X6860000I-30000J0D01*
G01X6920000D02*
X6940000D01*
G01X6920000Y2210000D02*
G02X6860000I-30000J0D01*
G01X6920000D02*
X6940000D01*
G01X6920000Y2540000D02*
G02X6860000I-30000J0D01*
G01X6920000D02*
X6940000D01*
G01X6920000Y2870000D02*
G02X6860000I-30000J0D01*
G01X6920000D02*
X6940000D01*
G01Y3950000D02*
G02X6880000I-30000J0D01*
G01X6940000D02*
X6960000D01*
G01X6940000Y4280000D02*
G02X6880000I-30000J0D01*
G01X6940000D02*
X6960000D01*
G01X7490000Y954400D02*
Y2664400D01*
X8500000D01*
Y954400D01*
X7490000D01*
G01Y2720000D02*
Y4430000D01*
X8500000D01*
Y2720000D01*
X7490000D01*
G54D11*
G01X210000Y3979060D02*
X331920D01*
G01X461460D02*
X728160D01*
G01X210000Y3971440D02*
X324300D01*
G01X461460D02*
X583380D01*
G01X210000Y3963820D02*
X324300D01*
G01X469080D02*
X583380D01*
G01X210000Y3956200D02*
X316680D01*
G01X469080D02*
X583380D01*
G01X210000Y3948580D02*
X316680D01*
G01X476700D02*
X583380D01*
G01X210000Y3940960D02*
X316680D01*
G01X476700D02*
X583380D01*
G01X210000Y3933340D02*
X309060D01*
G01X484320D02*
X583380D01*
G01X210000Y3925720D02*
X309060D01*
G01X484320D02*
X583380D01*
G01X210000Y3918100D02*
X301440D01*
G01X491940D02*
X583380D01*
G01X210000Y3910480D02*
X301440D01*
G01X491940D02*
X583380D01*
G01X210000Y3902860D02*
X293820D01*
G01X499560D02*
X583380D01*
G01X210000Y3895240D02*
X293820D01*
G01X499560D02*
X583380D01*
G01X210000Y3887620D02*
X286200D01*
G01X507180D02*
X583380D01*
G01X210000Y3880000D02*
X286200D01*
G01X507180D02*
X583380D01*
G01X210000Y4329580D02*
X278580D01*
G01X514800D02*
X583380D01*
G01X210000Y4321960D02*
X278580D01*
G01X514800D02*
X583380D01*
G01X210000Y4314340D02*
X278580D01*
G01X514800D02*
X583380D01*
G01X210000Y4306720D02*
X278580D01*
G01X514800D02*
X583380D01*
G01X210000Y4299100D02*
X278580D01*
G01X514800D02*
X583380D01*
G01X210000Y4291480D02*
X278580D01*
G01X514800D02*
X697680D01*
G01X210000Y4283860D02*
X278580D01*
G01X514800D02*
X690060D01*
G01X210000Y4276240D02*
X278580D01*
G01X514800D02*
X674820D01*
G01X210000Y4268620D02*
X278580D01*
G01X514800D02*
X667200D01*
G01X210000Y4261000D02*
X278580D01*
G01X514800D02*
X659580D01*
G01X210000Y4253380D02*
X278580D01*
G01X514800D02*
X651960D01*
G01X210000Y4245760D02*
X278580D01*
G01X514800D02*
X644340D01*
G01X210000Y4238140D02*
X278580D01*
G01X514800D02*
X636720D01*
G01X210000Y4230520D02*
X278580D01*
G01X514800D02*
X629100D01*
G01X210000Y4222900D02*
X278580D01*
G01X514800D02*
X629100D01*
G01X210000Y4215280D02*
X278580D01*
G01X514800D02*
X621480D01*
G01X210000Y4207660D02*
X278580D01*
G01X514800D02*
X621480D01*
G01X210000Y4200040D02*
X278580D01*
G01X514800D02*
X621480D01*
G01X210000Y4192420D02*
X278580D01*
G01X514800D02*
X613860D01*
G01X210000Y4184800D02*
X278580D01*
G01X514800D02*
X613860D01*
G01X210000Y4177180D02*
X278580D01*
G01X514800D02*
X613860D01*
G01X210000Y4169560D02*
X278580D01*
G01X354780D02*
X430980D01*
G01X514800D02*
X613860D01*
G01X210000Y4161940D02*
X278580D01*
G01X354780D02*
X438600D01*
G01X514800D02*
X613860D01*
G01X210000Y4154320D02*
X278580D01*
G01X347160D02*
X438600D01*
G01X514800D02*
X613860D01*
G01X210000Y4146700D02*
X278580D01*
G01X347160D02*
X446220D01*
G01X514800D02*
X613860D01*
G01X210000Y4139080D02*
X278580D01*
G01X339540D02*
X453840D01*
G01X514800D02*
X613860D01*
G01X210000Y4131460D02*
X278580D01*
G01X339540D02*
X453840D01*
G01X514800D02*
X613860D01*
G01X210000Y4123840D02*
X278580D01*
G01X331920D02*
X461460D01*
G01X514800D02*
X613860D01*
G01X210000Y4116220D02*
X278580D01*
G01X331920D02*
X461460D01*
G01X514800D02*
X613860D01*
G01X210000Y4108600D02*
X278580D01*
G01X324300D02*
X469080D01*
G01X514800D02*
X621480D01*
G01X210000Y4100980D02*
X278580D01*
G01X316680D02*
X469080D01*
G01X514800D02*
X621480D01*
G01X210000Y4093360D02*
X278580D01*
G01X316680D02*
X476700D01*
G01X514800D02*
X621480D01*
G01X210000Y4085740D02*
X278580D01*
G01X309060D02*
X385260D01*
G01X408120D02*
X476700D01*
G01X514800D02*
X621480D01*
G01X210000Y4078120D02*
X278580D01*
G01X309060D02*
X377640D01*
G01X415740D02*
X484320D01*
G01X514800D02*
X629100D01*
G01X210000Y4070500D02*
X278580D01*
G01X301440D02*
X377640D01*
G01X415740D02*
X491940D01*
G01X514800D02*
X629100D01*
G01X210000Y4062880D02*
X278580D01*
G01X301440D02*
X370020D01*
G01X423360D02*
X491940D01*
G01X514800D02*
X636720D01*
G01X210000Y4055260D02*
X278580D01*
G01X293820D02*
X370020D01*
G01X423360D02*
X499560D01*
G01X514800D02*
X636720D01*
G01X210000Y4047640D02*
X278580D01*
G01X286200D02*
X362400D01*
G01X423360D02*
X499560D01*
G01X507180D02*
X644340D01*
G01X210000Y4040020D02*
X362400D01*
G01X430980D02*
X651960D01*
G01X210000Y4032400D02*
X354780D01*
G01X430980D02*
X659580D01*
G01X210000Y4024780D02*
X354780D01*
G01X438600D02*
X667200D01*
G01X210000Y4017160D02*
X347160D01*
G01X438600D02*
X674820D01*
G01X210000Y4009540D02*
X347160D01*
G01X446220D02*
X682440D01*
G01X210000Y4001920D02*
X339540D01*
G01X446220D02*
X690060D01*
G01X210000Y3994300D02*
X339540D01*
G01X453840D02*
X705300D01*
G01X210000Y3986680D02*
X331920D01*
G01X453840D02*
X712920D01*
G01X210000Y4398160D02*
X278580D01*
G01X514800D02*
X583380D01*
G01X210000Y4390540D02*
X278580D01*
G01X514800D02*
X583380D01*
G01X210000Y4382920D02*
X278580D01*
G01X514800D02*
X583380D01*
G01X210000Y4375300D02*
X278580D01*
G01X514800D02*
X583380D01*
G01X210000Y4367680D02*
X278580D01*
G01X514800D02*
X583380D01*
G01X210000Y4360060D02*
X278580D01*
G01X514800D02*
X583380D01*
G01X210000Y4352440D02*
X278580D01*
G01X514800D02*
X583380D01*
G01X210000Y4344820D02*
X278580D01*
G01X514800D02*
X583380D01*
G01X210000Y4337200D02*
X278580D01*
G01X514800D02*
X583380D01*
G01X811980Y3979060D02*
X888180D01*
G01X598620Y3971440D02*
X743400D01*
G01X811980D02*
X888180D01*
G01X606240Y3963820D02*
X758640D01*
G01X811980D02*
X888180D01*
G01X613860Y3956200D02*
X781500D01*
G01X811980D02*
X888180D01*
G01X621480Y3948580D02*
X888180D01*
G01X629100Y3940960D02*
X888180D01*
G01X636720Y3933340D02*
X888180D01*
G01X644340Y3925720D02*
X888180D01*
G01X659580Y3918100D02*
X888180D01*
G01X674820Y3910480D02*
X888180D01*
G01X690060Y3902860D02*
X888180D01*
G01X712920Y3895240D02*
X888180D01*
G01X735780Y3887620D02*
X888180D01*
G01X773880Y3880000D02*
X888180D01*
G01X621480Y4329580D02*
X888180D01*
G01X613860Y4321960D02*
X781500D01*
G01X811980D02*
X888180D01*
G01X606240Y4314340D02*
X751020D01*
G01X811980D02*
X888180D01*
G01X598620Y4306720D02*
X735780D01*
G01X811980D02*
X888180D01*
G01X598620Y4299100D02*
X712920D01*
G01X811980D02*
X888180D01*
G01X811980Y4291480D02*
X888180D01*
G01X811980Y4283860D02*
X888180D01*
G01X811980Y4276240D02*
X888180D01*
G01X811980Y4268620D02*
X888180D01*
G01X811980Y4261000D02*
X888180D01*
G01X811980Y4253380D02*
X888180D01*
G01X811980Y4245760D02*
X888180D01*
G01X811980Y4238140D02*
X888180D01*
G01X811980Y4230520D02*
X888180D01*
G01X811980Y4222900D02*
X888180D01*
G01X811980Y4215280D02*
X888180D01*
G01X811980Y4207660D02*
X888180D01*
G01X811980Y4200040D02*
X888180D01*
G01X811980Y4192420D02*
X888180D01*
G01X811980Y4184800D02*
X880560D01*
G01X811980Y4177180D02*
X888180D01*
G01X811980Y4169560D02*
X1185360D01*
G01X811980Y4161940D02*
X1185360D01*
G01X811980Y4154320D02*
X1185360D01*
G01X811980Y4146700D02*
X1185360D01*
G01X811980Y4139080D02*
X1185360D01*
G01X811980Y4131460D02*
X1185360D01*
G01X811980Y4123840D02*
X1185360D01*
G01X811980Y4116220D02*
X1185360D01*
G01X811980Y4108600D02*
X1185360D01*
G01X811980Y4100980D02*
X1185360D01*
G01X811980Y4093360D02*
X888180D01*
G01X811980Y4085740D02*
X888180D01*
G01X811980Y4078120D02*
X888180D01*
G01X811980Y4070500D02*
X888180D01*
G01X811980Y4062880D02*
X888180D01*
G01X811980Y4055260D02*
X888180D01*
G01X811980Y4047640D02*
X888180D01*
G01X811980Y4040020D02*
X888180D01*
G01X811980Y4032400D02*
X888180D01*
G01X811980Y4024780D02*
X888180D01*
G01X811980Y4017160D02*
X888180D01*
G01X811980Y4009540D02*
X888180D01*
G01X811980Y4001920D02*
X888180D01*
G01X811980Y3994300D02*
X888180D01*
G01X811980Y3986680D02*
X888180D01*
G01X804360Y4398160D02*
X872940D01*
G01X751020Y4390540D02*
X888180D01*
G01X720540Y4382920D02*
X888180D01*
G01X697680Y4375300D02*
X888180D01*
G01X682440Y4367680D02*
X888180D01*
G01X667200Y4360060D02*
X888180D01*
G01X651960Y4352440D02*
X888180D01*
G01X644340Y4344820D02*
X888180D01*
G01X629100Y4337200D02*
X888180D01*
G01X1116780Y3979060D02*
X1185360D01*
G01X1116780Y3971440D02*
X1185360D01*
G01X1116780Y3963820D02*
X1185360D01*
G01X1116780Y3956200D02*
X1185360D01*
G01X1116780Y3948580D02*
X1185360D01*
G01X1116780Y3940960D02*
X1185360D01*
G01X1116780Y3933340D02*
X1185360D01*
G01X1116780Y3925720D02*
X1185360D01*
G01X1116780Y3918100D02*
X1185360D01*
G01X1116780Y3910480D02*
X1185360D01*
G01X1116780Y3902860D02*
X1185360D01*
G01X1116780Y3895240D02*
X1185360D01*
G01X1116780Y3887620D02*
X1185360D01*
G01X1116780Y3880000D02*
X1185360D01*
G01X1116780Y4329580D02*
X1185360D01*
G01X1116780Y4321960D02*
X1185360D01*
G01X1116780Y4314340D02*
X1185360D01*
G01X1116780Y4306720D02*
X1185360D01*
G01X1116780Y4299100D02*
X1185360D01*
G01X1116780Y4291480D02*
X1185360D01*
G01X1116780Y4283860D02*
X1185360D01*
G01X1116780Y4276240D02*
X1185360D01*
G01X1116780Y4268620D02*
X1185360D01*
G01X1116780Y4261000D02*
X1185360D01*
G01X1116780Y4253380D02*
X1185360D01*
G01X1116780Y4245760D02*
X1185360D01*
G01X1116780Y4238140D02*
X1185360D01*
G01X1116780Y4230520D02*
X1185360D01*
G01X1116780Y4222900D02*
X1185360D01*
G01X1116780Y4215280D02*
X1185360D01*
G01X1116780Y4207660D02*
X1185360D01*
G01X1116780Y4200040D02*
X1185360D01*
G01X1116780Y4192420D02*
X1185360D01*
G01X1116780Y4184800D02*
X1185360D01*
G01X1116780Y4177180D02*
X1185360D01*
G01X1116780Y4093360D02*
X1185360D01*
G01X1116780Y4085740D02*
X1185360D01*
G01X1116780Y4078120D02*
X1185360D01*
G01X1116780Y4070500D02*
X1185360D01*
G01X1116780Y4062880D02*
X1185360D01*
G01X1116780Y4055260D02*
X1185360D01*
G01X1116780Y4047640D02*
X1185360D01*
G01X1116780Y4040020D02*
X1185360D01*
G01X1116780Y4032400D02*
X1185360D01*
G01X1116780Y4024780D02*
X1185360D01*
G01X1116780Y4017160D02*
X1185360D01*
G01X1116780Y4009540D02*
X1185360D01*
G01X1116780Y4001920D02*
X1185360D01*
G01X1116780Y3994300D02*
X1185360D01*
G01X1116780Y3986680D02*
X1185360D01*
G01X1116780Y4398160D02*
X1185360D01*
G01X1116780Y4390540D02*
X1185360D01*
G01X1116780Y4382920D02*
X1185360D01*
G01X1116780Y4375300D02*
X1185360D01*
G01X1116780Y4367680D02*
X1185360D01*
G01X1116780Y4360060D02*
X1185360D01*
G01X1116780Y4352440D02*
X1185360D01*
G01X1116780Y4344820D02*
X1185360D01*
G01X1116780Y4337200D02*
X1185360D01*
G54D12*
G01X152000Y3588000D02*
X162500Y3594000D01*
X168500Y3602000D01*
X170000Y3611000D01*
X168500Y3619000D01*
X161000Y3627000D01*
X152000Y3632000D01*
X143000Y3633000D01*
X132500Y3631000D01*
X125000Y3624000D01*
X122000Y3617000D01*
Y3608000D01*
G01Y3617000D02*
X117500Y3623000D01*
X110000Y3628000D01*
X101000Y3630000D01*
X92000Y3628000D01*
X84500Y3623000D01*
X80000Y3614000D01*
X81500Y3605000D01*
X87500Y3596000D01*
G01X80000Y3655000D02*
X170000Y3680000D01*
X80000Y3705000D01*
G01X152000Y3728000D02*
X162500Y3734000D01*
X168500Y3742000D01*
X170000Y3751000D01*
X168500Y3759000D01*
X161000Y3767000D01*
X152000Y3772000D01*
X143000Y3773000D01*
X132500Y3771000D01*
X125000Y3764000D01*
X122000Y3757000D01*
Y3748000D01*
G01Y3757000D02*
X117500Y3763000D01*
X110000Y3768000D01*
X101000Y3770000D01*
X92000Y3768000D01*
X84500Y3763000D01*
X80000Y3754000D01*
X81500Y3745000D01*
X87500Y3736000D01*
G01X859000Y110000D02*
X901000Y200000D01*
G01X859000D02*
X901000Y110000D01*
G01X929000D02*
X971000Y200000D01*
G01X929000D02*
X971000Y110000D01*
G01X999000D02*
X1041000Y200000D01*
G01X999000D02*
X1041000Y110000D01*
G01X1070000Y200000D02*
Y110000D01*
X1110000D01*
G01X1141000Y200000D02*
X1179000D01*
X1141000Y110000D01*
X1179000D01*
G01X1210000Y128000D02*
X1215000Y119000D01*
X1221000Y113000D01*
X1228000Y110000D01*
X1236000Y113000D01*
X1242000Y119000D01*
X1248000Y128000D01*
X1250000Y140000D01*
Y200000D01*
G01X1279000Y110000D02*
X1321000Y200000D01*
G01X1279000D02*
X1321000Y110000D01*
G01X1349000D02*
X1391000Y200000D01*
G01X1349000D02*
X1391000Y110000D01*
G01X1419000D02*
X1461000Y200000D01*
G01X1419000D02*
X1461000Y110000D01*
G01X902000Y492500D02*
X896000Y497000D01*
X889000Y500000D01*
X881000D01*
X872000Y495500D01*
X865000Y488000D01*
X860000Y479000D01*
X856000Y464000D01*
X855000Y450500D01*
X857000Y437000D01*
X860000Y428000D01*
X866000Y419000D01*
X873000Y413000D01*
X880000Y410000D01*
X887000D01*
X894000Y413000D01*
X900000Y417500D01*
X905000Y423500D01*
G01X929000Y410000D02*
Y500000D01*
G01X971000D02*
Y410000D01*
G01Y455000D02*
X929000D01*
G01X998000Y428000D02*
X1004000Y417500D01*
X1012000Y411500D01*
X1021000Y410000D01*
X1029000Y411500D01*
X1037000Y419000D01*
X1042000Y428000D01*
X1043000Y437000D01*
X1041000Y447500D01*
X1034000Y455000D01*
X1027000Y458000D01*
X1018000D01*
G01X1027000D02*
X1033000Y462500D01*
X1038000Y470000D01*
X1040000Y479000D01*
X1038000Y488000D01*
X1033000Y495500D01*
X1024000Y500000D01*
X1015000Y498500D01*
X1006000Y492500D01*
G01X1102000Y410000D02*
Y500000D01*
X1065000Y435500D01*
X1115000D01*
G01X1160000Y410000D02*
X1167000Y411500D01*
X1175000Y416000D01*
X1180000Y423500D01*
X1182000Y434000D01*
X1180000Y444500D01*
X1174000Y453500D01*
X1165000Y458000D01*
X1155000D01*
X1149000Y461000D01*
X1144000Y468500D01*
X1142000Y479000D01*
X1145000Y489500D01*
X1152000Y497000D01*
X1160000Y500000D01*
X1168000Y497000D01*
X1175000Y489500D01*
X1178000Y479000D01*
X1176000Y468500D01*
X1171000Y461000D01*
X1165000Y458000D01*
X1155000D01*
X1146000Y453500D01*
X1140000Y444500D01*
X1138000Y434000D01*
X1140000Y423500D01*
X1145000Y416000D01*
X1153000Y411500D01*
X1160000Y410000D01*
G01X1230000D02*
X1222000Y411500D01*
X1215000Y417500D01*
X1209000Y426500D01*
X1205000Y437000D01*
X1203000Y449000D01*
Y461000D01*
X1205000Y473000D01*
X1209000Y483500D01*
X1215000Y492500D01*
X1222000Y498500D01*
X1230000Y500000D01*
X1238000Y498500D01*
X1245000Y492500D01*
X1251000Y483500D01*
X1255000Y473000D01*
X1257000Y461000D01*
Y449000D01*
X1255000Y437000D01*
X1251000Y426500D01*
X1245000Y417500D01*
X1238000Y411500D01*
X1230000Y410000D01*
G01X1238000Y434000D02*
X1250000Y410000D01*
G01X1270000Y380000D02*
X1330000D01*
G01X1345000Y500000D02*
X1370000Y410000D01*
X1395000Y500000D01*
G01X1440000Y410000D02*
Y500000D01*
X1428000Y482000D01*
G01Y410000D02*
X1452000D01*
G01X1510000Y500000D02*
X1502000Y497000D01*
X1496000Y489500D01*
X1492000Y480500D01*
X1489000Y468500D01*
X1488000Y455000D01*
X1489000Y441500D01*
X1492000Y429500D01*
X1496000Y420500D01*
X1502000Y413000D01*
X1510000Y410000D01*
X1518000Y413000D01*
X1524000Y420500D01*
X1528000Y429500D01*
X1531000Y441500D01*
X1532000Y455000D01*
X1531000Y468500D01*
X1528000Y480500D01*
X1524000Y489500D01*
X1518000Y497000D01*
X1510000Y500000D01*
G01X861000Y335000D02*
X867000Y344000D01*
X874000Y348500D01*
X882000Y350000D01*
X892000Y347000D01*
X899000Y339500D01*
X901000Y330500D01*
X900000Y321500D01*
X896000Y314000D01*
X876000Y299000D01*
X867000Y288500D01*
X861000Y273500D01*
X859000Y260000D01*
X901000D01*
G01X962000D02*
Y350000D01*
X925000Y285500D01*
X975000D01*
G01X1020000Y350000D02*
X1012000Y347000D01*
X1006000Y339500D01*
X1002000Y330500D01*
X999000Y318500D01*
X998000Y305000D01*
X999000Y291500D01*
X1002000Y279500D01*
X1006000Y270500D01*
X1012000Y263000D01*
X1020000Y260000D01*
X1028000Y263000D01*
X1034000Y270500D01*
X1038000Y279500D01*
X1041000Y291500D01*
X1042000Y305000D01*
X1041000Y318500D01*
X1038000Y330500D01*
X1034000Y339500D01*
X1028000Y347000D01*
X1020000Y350000D01*
G01X1090000Y260000D02*
X1097000Y261500D01*
X1105000Y266000D01*
X1110000Y273500D01*
X1112000Y284000D01*
X1110000Y294500D01*
X1104000Y303500D01*
X1095000Y308000D01*
X1085000D01*
X1079000Y311000D01*
X1074000Y318500D01*
X1072000Y329000D01*
X1075000Y339500D01*
X1082000Y347000D01*
X1090000Y350000D01*
X1098000Y347000D01*
X1105000Y339500D01*
X1108000Y329000D01*
X1106000Y318500D01*
X1101000Y311000D01*
X1095000Y308000D01*
X1085000D01*
X1076000Y303500D01*
X1070000Y294500D01*
X1068000Y284000D01*
X1070000Y273500D01*
X1075000Y266000D01*
X1083000Y261500D01*
X1090000Y260000D01*
G01X1160000D02*
Y350000D01*
X1148000Y332000D01*
G01Y260000D02*
X1172000D01*
G01X1208000Y273500D02*
X1214000Y266000D01*
X1221000Y261500D01*
X1230000Y260000D01*
X1239000Y263000D01*
X1246000Y269000D01*
X1251000Y279500D01*
X1252000Y291500D01*
X1250000Y303500D01*
X1245000Y311000D01*
X1238000Y317000D01*
X1231000Y318500D01*
X1224000Y317000D01*
X1215000Y311000D01*
X1218000Y350000D01*
X1245000D01*
G01X1713330Y430000D02*
Y540000D01*
X1745330D01*
X1756000Y534500D01*
X1764000Y521670D01*
X1766670Y507000D01*
X1764000Y492330D01*
X1757330Y481330D01*
X1745330Y475830D01*
X1713330D01*
G01X1830000Y430000D02*
X1819330Y431830D01*
X1810000Y439160D01*
X1802000Y450170D01*
X1796670Y463000D01*
X1794000Y477670D01*
Y492330D01*
X1796670Y507000D01*
X1802000Y519830D01*
X1810000Y530830D01*
X1819330Y538170D01*
X1830000Y540000D01*
X1840670Y538170D01*
X1850000Y530830D01*
X1858000Y519830D01*
X1863330Y507000D01*
X1866000Y492330D01*
Y477670D01*
X1863330Y463000D01*
X1858000Y450170D01*
X1850000Y439160D01*
X1840670Y431830D01*
X1830000Y430000D01*
G01X1893330D02*
Y540000D01*
X1926670D01*
X1937330Y534500D01*
X1944000Y527170D01*
X1946670Y512500D01*
X1944000Y497830D01*
X1936000Y488670D01*
X1926670Y483170D01*
X1893330D01*
G01X1926670D02*
X1946670Y430000D01*
G01X2010000Y540000D02*
Y430000D01*
G01X1979330Y540000D02*
X2040670D01*
G01X2074670Y430000D02*
Y540000D01*
X2125330D01*
G01X2106670Y486830D02*
X2074670D01*
G01X1851000Y955000D02*
X1871000D01*
Y928000D01*
X1865000Y919000D01*
X1858000Y913000D01*
X1848000Y910000D01*
X1838000Y913000D01*
X1831000Y919000D01*
X1825000Y928000D01*
X1821000Y938500D01*
X1819000Y950500D01*
Y961000D01*
X1821000Y970000D01*
X1825000Y980500D01*
X1831000Y989500D01*
X1837000Y995500D01*
X1845000Y1000000D01*
X1852000D01*
X1860000Y997000D01*
X1866000Y991000D01*
G01X1823330Y4230000D02*
Y4340000D01*
X1855330D01*
X1866000Y4334500D01*
X1874000Y4321670D01*
X1876670Y4307000D01*
X1874000Y4292330D01*
X1867330Y4281330D01*
X1855330Y4275830D01*
X1823330D01*
G01X1940000Y4230000D02*
X1929330Y4231830D01*
X1920000Y4239160D01*
X1912000Y4250170D01*
X1906670Y4263000D01*
X1904000Y4277670D01*
Y4292330D01*
X1906670Y4307000D01*
X1912000Y4319830D01*
X1920000Y4330830D01*
X1929330Y4338170D01*
X1940000Y4340000D01*
X1950670Y4338170D01*
X1960000Y4330830D01*
X1968000Y4319830D01*
X1973330Y4307000D01*
X1976000Y4292330D01*
Y4277670D01*
X1973330Y4263000D01*
X1968000Y4250170D01*
X1960000Y4239160D01*
X1950670Y4231830D01*
X1940000Y4230000D01*
G01X2003330D02*
Y4340000D01*
X2036670D01*
X2047330Y4334500D01*
X2054000Y4327170D01*
X2056670Y4312500D01*
X2054000Y4297830D01*
X2046000Y4288670D01*
X2036670Y4283170D01*
X2003330D01*
G01X2036670D02*
X2056670Y4230000D01*
G01X2120000Y4340000D02*
Y4230000D01*
G01X2089330Y4340000D02*
X2150670D01*
G01X2236670Y4230000D02*
X2183330D01*
Y4340000D01*
X2236670D01*
G01X2215330Y4286830D02*
X2183330D01*
G01X1845000Y4480000D02*
Y4390000D01*
G01X1822000Y4480000D02*
X1868000D01*
G01X2070000Y1000000D02*
X2095000Y910000D01*
X2120000Y1000000D01*
G01X2075000Y4390000D02*
Y4480000D01*
X2100000D01*
X2108000Y4475500D01*
X2113000Y4469500D01*
X2115000Y4457500D01*
X2113000Y4445500D01*
X2107000Y4438000D01*
X2100000Y4433500D01*
X2075000D01*
G01X2100000D02*
X2115000Y4390000D01*
G01X2325000Y910000D02*
Y1000000D01*
X2350000D01*
X2358000Y995500D01*
X2363000Y989500D01*
X2365000Y977500D01*
X2363000Y965500D01*
X2357000Y958000D01*
X2350000Y953500D01*
X2325000D01*
G01X2350000D02*
X2365000Y910000D01*
G01X2595000Y1000000D02*
Y910000D01*
G01X2572000Y1000000D02*
X2618000D01*
G01X2601000Y4435000D02*
X2621000D01*
Y4408000D01*
X2615000Y4399000D01*
X2608000Y4393000D01*
X2598000Y4390000D01*
X2588000Y4393000D01*
X2581000Y4399000D01*
X2575000Y4408000D01*
X2571000Y4418500D01*
X2569000Y4430500D01*
Y4441000D01*
X2571000Y4450000D01*
X2575000Y4460500D01*
X2581000Y4469500D01*
X2587000Y4475500D01*
X2595000Y4480000D01*
X2602000D01*
X2610000Y4477000D01*
X2616000Y4471000D01*
G01X2320000Y4480000D02*
X2345000Y4390000D01*
X2370000Y4480000D01*
G01X2780000Y2535000D02*
X2690000Y2560000D01*
X2780000Y2585000D01*
G01X2748500Y2576000D02*
Y2544000D01*
G01X2697500Y2652000D02*
X2693000Y2646000D01*
X2690000Y2639000D01*
Y2631000D01*
X2694500Y2622000D01*
X2702000Y2615000D01*
X2711000Y2610000D01*
X2726000Y2606000D01*
X2739500Y2605000D01*
X2753000Y2607000D01*
X2762000Y2610000D01*
X2771000Y2616000D01*
X2777000Y2623000D01*
X2780000Y2630000D01*
Y2637000D01*
X2777000Y2644000D01*
X2772500Y2650000D01*
X2766500Y2655000D01*
G01X2690000Y2700000D02*
X2780000D01*
G01X2690000Y2677000D02*
Y2723000D01*
G01X3013330Y430000D02*
Y540000D01*
X3045330D01*
X3056000Y534500D01*
X3064000Y521670D01*
X3066670Y507000D01*
X3064000Y492330D01*
X3057330Y481330D01*
X3045330Y475830D01*
X3013330D01*
G01X3130000Y430000D02*
X3119330Y431830D01*
X3110000Y439160D01*
X3102000Y450170D01*
X3096670Y463000D01*
X3094000Y477670D01*
Y492330D01*
X3096670Y507000D01*
X3102000Y519830D01*
X3110000Y530830D01*
X3119330Y538170D01*
X3130000Y540000D01*
X3140670Y538170D01*
X3150000Y530830D01*
X3158000Y519830D01*
X3163330Y507000D01*
X3166000Y492330D01*
Y477670D01*
X3163330Y463000D01*
X3158000Y450170D01*
X3150000Y439160D01*
X3140670Y431830D01*
X3130000Y430000D01*
G01X3193330D02*
Y540000D01*
X3226670D01*
X3237330Y534500D01*
X3244000Y527170D01*
X3246670Y512500D01*
X3244000Y497830D01*
X3236000Y488670D01*
X3226670Y483170D01*
X3193330D01*
G01X3226670D02*
X3246670Y430000D01*
G01X3310000Y540000D02*
Y430000D01*
G01X3279330Y540000D02*
X3340670D01*
G01X3410670Y488670D02*
X3416000Y494170D01*
X3420000Y503330D01*
X3422670Y516170D01*
X3420000Y527170D01*
X3414670Y534500D01*
X3405330Y540000D01*
X3369330D01*
Y430000D01*
X3413330D01*
X3422670Y437330D01*
X3428000Y448330D01*
X3430670Y461170D01*
X3428000Y474000D01*
X3420000Y485000D01*
X3410670Y488670D01*
X3369330D01*
G01X3151000Y955000D02*
X3171000D01*
Y928000D01*
X3165000Y919000D01*
X3158000Y913000D01*
X3148000Y910000D01*
X3138000Y913000D01*
X3131000Y919000D01*
X3125000Y928000D01*
X3121000Y938500D01*
X3119000Y950500D01*
Y961000D01*
X3121000Y970000D01*
X3125000Y980500D01*
X3131000Y989500D01*
X3137000Y995500D01*
X3145000Y1000000D01*
X3152000D01*
X3160000Y997000D01*
X3166000Y991000D01*
G01X3123330Y4230000D02*
Y4340000D01*
X3155330D01*
X3166000Y4334500D01*
X3174000Y4321670D01*
X3176670Y4307000D01*
X3174000Y4292330D01*
X3167330Y4281330D01*
X3155330Y4275830D01*
X3123330D01*
G01X3240000Y4230000D02*
X3229330Y4231830D01*
X3220000Y4239160D01*
X3212000Y4250170D01*
X3206670Y4263000D01*
X3204000Y4277670D01*
Y4292330D01*
X3206670Y4307000D01*
X3212000Y4319830D01*
X3220000Y4330830D01*
X3229330Y4338170D01*
X3240000Y4340000D01*
X3250670Y4338170D01*
X3260000Y4330830D01*
X3268000Y4319830D01*
X3273330Y4307000D01*
X3276000Y4292330D01*
Y4277670D01*
X3273330Y4263000D01*
X3268000Y4250170D01*
X3260000Y4239160D01*
X3250670Y4231830D01*
X3240000Y4230000D01*
G01X3303330D02*
Y4340000D01*
X3336670D01*
X3347330Y4334500D01*
X3354000Y4327170D01*
X3356670Y4312500D01*
X3354000Y4297830D01*
X3346000Y4288670D01*
X3336670Y4283170D01*
X3303330D01*
G01X3336670D02*
X3356670Y4230000D01*
G01X3420000Y4340000D02*
Y4230000D01*
G01X3389330Y4340000D02*
X3450670D01*
G01X3482000Y4230000D02*
Y4340000D01*
G01X3538000D02*
Y4230000D01*
G01Y4285000D02*
X3482000D01*
G01X3145000Y4480000D02*
Y4390000D01*
G01X3122000Y4480000D02*
X3168000D01*
G01X3370000Y1000000D02*
X3395000Y910000D01*
X3420000Y1000000D01*
G01X3625000Y910000D02*
Y1000000D01*
X3650000D01*
X3658000Y995500D01*
X3663000Y989500D01*
X3665000Y977500D01*
X3663000Y965500D01*
X3657000Y958000D01*
X3650000Y953500D01*
X3625000D01*
G01X3650000D02*
X3665000Y910000D01*
G01X3653330Y1890000D02*
Y2000000D01*
X3685330D01*
X3696000Y1994500D01*
X3704000Y1981670D01*
X3706670Y1967000D01*
X3704000Y1952330D01*
X3697330Y1941330D01*
X3685330Y1935830D01*
X3653330D01*
G01X3770000Y1890000D02*
X3759330Y1891830D01*
X3750000Y1899160D01*
X3742000Y1910170D01*
X3736670Y1923000D01*
X3734000Y1937670D01*
Y1952330D01*
X3736670Y1967000D01*
X3742000Y1979830D01*
X3750000Y1990830D01*
X3759330Y1998170D01*
X3770000Y2000000D01*
X3780670Y1998170D01*
X3790000Y1990830D01*
X3798000Y1979830D01*
X3803330Y1967000D01*
X3806000Y1952330D01*
Y1937670D01*
X3803330Y1923000D01*
X3798000Y1910170D01*
X3790000Y1899160D01*
X3780670Y1891830D01*
X3770000Y1890000D01*
G01X3833330D02*
Y2000000D01*
X3866670D01*
X3877330Y1994500D01*
X3884000Y1987170D01*
X3886670Y1972500D01*
X3884000Y1957830D01*
X3876000Y1948670D01*
X3866670Y1943170D01*
X3833330D01*
G01X3866670D02*
X3886670Y1890000D01*
G01X3950000Y2000000D02*
Y1890000D01*
G01X3919330Y2000000D02*
X3980670D01*
G01X4069330Y1990830D02*
X4061330Y1996330D01*
X4052000Y2000000D01*
X4041330D01*
X4029330Y1994500D01*
X4020000Y1985330D01*
X4013330Y1974330D01*
X4008000Y1956000D01*
X4006670Y1939500D01*
X4009330Y1923000D01*
X4013330Y1912000D01*
X4021330Y1901000D01*
X4030670Y1893670D01*
X4040000Y1890000D01*
X4049330D01*
X4058670Y1893670D01*
X4066670Y1899160D01*
X4073330Y1906500D01*
G01X3706000Y1750000D02*
Y1860000D01*
X3656670Y1781170D01*
X3723330D01*
G01X3780000Y1750000D02*
X3789330Y1751830D01*
X3800000Y1757330D01*
X3806670Y1766500D01*
X3809330Y1779330D01*
X3806670Y1792160D01*
X3798670Y1803170D01*
X3786670Y1808670D01*
X3773330D01*
X3765330Y1812330D01*
X3758670Y1821500D01*
X3756000Y1834330D01*
X3760000Y1847170D01*
X3769330Y1856330D01*
X3780000Y1860000D01*
X3790670Y1856330D01*
X3800000Y1847170D01*
X3804000Y1834330D01*
X3801330Y1821500D01*
X3794670Y1812330D01*
X3786670Y1808670D01*
X3773330D01*
X3761330Y1803170D01*
X3753330Y1792160D01*
X3750670Y1779330D01*
X3753330Y1766500D01*
X3760000Y1757330D01*
X3770670Y1751830D01*
X3780000Y1750000D01*
G01X3840670Y1766500D02*
X3848670Y1757330D01*
X3858000Y1751830D01*
X3870000Y1750000D01*
X3882000Y1753670D01*
X3891330Y1761000D01*
X3898000Y1773830D01*
X3899330Y1788500D01*
X3896670Y1803170D01*
X3890000Y1812330D01*
X3880670Y1819670D01*
X3871330Y1821500D01*
X3862000Y1819670D01*
X3850000Y1812330D01*
X3854000Y1860000D01*
X3890000D01*
G01X3653330Y2480000D02*
Y2590000D01*
X3685330D01*
X3696000Y2584500D01*
X3704000Y2571670D01*
X3706670Y2557000D01*
X3704000Y2542330D01*
X3697330Y2531330D01*
X3685330Y2525830D01*
X3653330D01*
G01X3770000Y2480000D02*
X3759330Y2481830D01*
X3750000Y2489160D01*
X3742000Y2500170D01*
X3736670Y2513000D01*
X3734000Y2527670D01*
Y2542330D01*
X3736670Y2557000D01*
X3742000Y2569830D01*
X3750000Y2580830D01*
X3759330Y2588170D01*
X3770000Y2590000D01*
X3780670Y2588170D01*
X3790000Y2580830D01*
X3798000Y2569830D01*
X3803330Y2557000D01*
X3806000Y2542330D01*
Y2527670D01*
X3803330Y2513000D01*
X3798000Y2500170D01*
X3790000Y2489160D01*
X3780670Y2481830D01*
X3770000Y2480000D01*
G01X3833330D02*
Y2590000D01*
X3866670D01*
X3877330Y2584500D01*
X3884000Y2577170D01*
X3886670Y2562500D01*
X3884000Y2547830D01*
X3876000Y2538670D01*
X3866670Y2533170D01*
X3833330D01*
G01X3866670D02*
X3886670Y2480000D01*
G01X3950000Y2590000D02*
Y2480000D01*
G01X3919330Y2590000D02*
X3980670D01*
G01X4010670Y2480000D02*
Y2590000D01*
X4037330D01*
X4048000Y2584500D01*
X4056000Y2577170D01*
X4062670Y2566170D01*
X4068000Y2553330D01*
X4069330Y2535000D01*
X4068000Y2516670D01*
X4062670Y2503830D01*
X4056000Y2492830D01*
X4048000Y2485500D01*
X4037330Y2480000D01*
X4010670D01*
G01X3706000Y2340000D02*
Y2450000D01*
X3656670Y2371170D01*
X3723330D01*
G01X3754670Y2431670D02*
X3762670Y2442660D01*
X3772000Y2448170D01*
X3782670Y2450000D01*
X3796000Y2446330D01*
X3805330Y2437170D01*
X3808000Y2426170D01*
X3806670Y2415160D01*
X3801330Y2406000D01*
X3774670Y2387670D01*
X3762670Y2374830D01*
X3754670Y2356500D01*
X3752000Y2340000D01*
X3808000D01*
G01X3844670Y2431670D02*
X3852670Y2442660D01*
X3862000Y2448170D01*
X3872670Y2450000D01*
X3886000Y2446330D01*
X3895330Y2437170D01*
X3898000Y2426170D01*
X3896670Y2415160D01*
X3891330Y2406000D01*
X3864670Y2387670D01*
X3852670Y2374830D01*
X3844670Y2356500D01*
X3842000Y2340000D01*
X3898000D01*
G01X3719330Y3020830D02*
X3711330Y3026330D01*
X3702000Y3030000D01*
X3691330D01*
X3679330Y3024500D01*
X3670000Y3015330D01*
X3663330Y3004330D01*
X3658000Y2986000D01*
X3656670Y2969500D01*
X3659330Y2953000D01*
X3663330Y2942000D01*
X3671330Y2931000D01*
X3680670Y2923670D01*
X3690000Y2920000D01*
X3699330D01*
X3708670Y2923670D01*
X3716670Y2929160D01*
X3723330Y2936500D01*
G01X3746670Y2920000D02*
X3780000Y3030000D01*
X3813330Y2920000D01*
G01X3801330Y2958500D02*
X3758670D01*
G01X3839330Y2920000D02*
Y3030000D01*
X3900670Y2920000D01*
Y3030000D01*
G01X3653330Y3060000D02*
Y3170000D01*
X3685330D01*
X3696000Y3164500D01*
X3704000Y3151670D01*
X3706670Y3137000D01*
X3704000Y3122330D01*
X3697330Y3111330D01*
X3685330Y3105830D01*
X3653330D01*
G01X3770000Y3060000D02*
X3759330Y3061830D01*
X3750000Y3069160D01*
X3742000Y3080170D01*
X3736670Y3093000D01*
X3734000Y3107670D01*
Y3122330D01*
X3736670Y3137000D01*
X3742000Y3149830D01*
X3750000Y3160830D01*
X3759330Y3168170D01*
X3770000Y3170000D01*
X3780670Y3168170D01*
X3790000Y3160830D01*
X3798000Y3149830D01*
X3803330Y3137000D01*
X3806000Y3122330D01*
Y3107670D01*
X3803330Y3093000D01*
X3798000Y3080170D01*
X3790000Y3069160D01*
X3780670Y3061830D01*
X3770000Y3060000D01*
G01X3833330D02*
Y3170000D01*
X3866670D01*
X3877330Y3164500D01*
X3884000Y3157170D01*
X3886670Y3142500D01*
X3884000Y3127830D01*
X3876000Y3118670D01*
X3866670Y3113170D01*
X3833330D01*
G01X3866670D02*
X3886670Y3060000D01*
G01X3950000Y3170000D02*
Y3060000D01*
G01X3919330Y3170000D02*
X3980670D01*
G01X4006670Y3060000D02*
X4040000Y3170000D01*
X4073330Y3060000D01*
G01X4061330Y3098500D02*
X4018670D01*
G01X3653330Y3650000D02*
Y3760000D01*
X3685330D01*
X3696000Y3754500D01*
X3704000Y3741670D01*
X3706670Y3727000D01*
X3704000Y3712330D01*
X3697330Y3701330D01*
X3685330Y3695830D01*
X3653330D01*
G01X3770000Y3650000D02*
X3759330Y3651830D01*
X3750000Y3659160D01*
X3742000Y3670170D01*
X3736670Y3683000D01*
X3734000Y3697670D01*
Y3712330D01*
X3736670Y3727000D01*
X3742000Y3739830D01*
X3750000Y3750830D01*
X3759330Y3758170D01*
X3770000Y3760000D01*
X3780670Y3758170D01*
X3790000Y3750830D01*
X3798000Y3739830D01*
X3803330Y3727000D01*
X3806000Y3712330D01*
Y3697670D01*
X3803330Y3683000D01*
X3798000Y3670170D01*
X3790000Y3659160D01*
X3780670Y3651830D01*
X3770000Y3650000D01*
G01X3833330D02*
Y3760000D01*
X3866670D01*
X3877330Y3754500D01*
X3884000Y3747170D01*
X3886670Y3732500D01*
X3884000Y3717830D01*
X3876000Y3708670D01*
X3866670Y3703170D01*
X3833330D01*
G01X3866670D02*
X3886670Y3650000D01*
G01X3950000Y3760000D02*
Y3650000D01*
G01X3919330Y3760000D02*
X3980670D01*
G01X4050670Y3708670D02*
X4056000Y3714170D01*
X4060000Y3723330D01*
X4062670Y3736170D01*
X4060000Y3747170D01*
X4054670Y3754500D01*
X4045330Y3760000D01*
X4009330D01*
Y3650000D01*
X4053330D01*
X4062670Y3657330D01*
X4068000Y3668330D01*
X4070670Y3681170D01*
X4068000Y3694000D01*
X4060000Y3705000D01*
X4050670Y3708670D01*
X4009330D01*
G01X3654670Y3601670D02*
X3662670Y3612660D01*
X3672000Y3618170D01*
X3682670Y3620000D01*
X3696000Y3616330D01*
X3705330Y3607170D01*
X3708000Y3596170D01*
X3706670Y3585160D01*
X3701330Y3576000D01*
X3674670Y3557670D01*
X3662670Y3544830D01*
X3654670Y3526500D01*
X3652000Y3510000D01*
X3708000D01*
G01X3740670Y3532000D02*
X3748670Y3519160D01*
X3759330Y3511830D01*
X3771330Y3510000D01*
X3782000Y3511830D01*
X3792670Y3521000D01*
X3799330Y3532000D01*
X3800670Y3543000D01*
X3798000Y3555830D01*
X3788670Y3565000D01*
X3779330Y3568670D01*
X3767330D01*
G01X3779330D02*
X3787330Y3574170D01*
X3794000Y3583330D01*
X3796670Y3594330D01*
X3794000Y3605330D01*
X3787330Y3614500D01*
X3775330Y3620000D01*
X3763330Y3618170D01*
X3751330Y3610830D01*
G01X3834670Y3601670D02*
X3842670Y3612660D01*
X3852000Y3618170D01*
X3862670Y3620000D01*
X3876000Y3616330D01*
X3885330Y3607170D01*
X3888000Y3596170D01*
X3886670Y3585160D01*
X3881330Y3576000D01*
X3854670Y3557670D01*
X3842670Y3544830D01*
X3834670Y3526500D01*
X3832000Y3510000D01*
X3888000D01*
G01X3620000Y4480000D02*
X3645000Y4390000D01*
X3670000Y4480000D01*
G01X3375000Y4390000D02*
Y4480000D01*
X3400000D01*
X3408000Y4475500D01*
X3413000Y4469500D01*
X3415000Y4457500D01*
X3413000Y4445500D01*
X3407000Y4438000D01*
X3400000Y4433500D01*
X3375000D01*
G01X3400000D02*
X3415000Y4390000D01*
G01X3895000Y1000000D02*
Y910000D01*
G01X3872000Y1000000D02*
X3918000D01*
G01X3901000Y4435000D02*
X3921000D01*
Y4408000D01*
X3915000Y4399000D01*
X3908000Y4393000D01*
X3898000Y4390000D01*
X3888000Y4393000D01*
X3881000Y4399000D01*
X3875000Y4408000D01*
X3871000Y4418500D01*
X3869000Y4430500D01*
Y4441000D01*
X3871000Y4450000D01*
X3875000Y4460500D01*
X3881000Y4469500D01*
X3887000Y4475500D01*
X3895000Y4480000D01*
X3902000D01*
X3910000Y4477000D01*
X3916000Y4471000D01*
G01X4313330Y430000D02*
Y540000D01*
X4345330D01*
X4356000Y534500D01*
X4364000Y521670D01*
X4366670Y507000D01*
X4364000Y492330D01*
X4357330Y481330D01*
X4345330Y475830D01*
X4313330D01*
G01X4430000Y430000D02*
X4419330Y431830D01*
X4410000Y439160D01*
X4402000Y450170D01*
X4396670Y463000D01*
X4394000Y477670D01*
Y492330D01*
X4396670Y507000D01*
X4402000Y519830D01*
X4410000Y530830D01*
X4419330Y538170D01*
X4430000Y540000D01*
X4440670Y538170D01*
X4450000Y530830D01*
X4458000Y519830D01*
X4463330Y507000D01*
X4466000Y492330D01*
Y477670D01*
X4463330Y463000D01*
X4458000Y450170D01*
X4450000Y439160D01*
X4440670Y431830D01*
X4430000Y430000D01*
G01X4493330D02*
Y540000D01*
X4526670D01*
X4537330Y534500D01*
X4544000Y527170D01*
X4546670Y512500D01*
X4544000Y497830D01*
X4536000Y488670D01*
X4526670Y483170D01*
X4493330D01*
G01X4526670D02*
X4546670Y430000D01*
G01X4610000Y540000D02*
Y430000D01*
G01X4579330Y540000D02*
X4640670D01*
G01X4708000Y485000D02*
X4734670D01*
Y452000D01*
X4726670Y441000D01*
X4717330Y433670D01*
X4704000Y430000D01*
X4690670Y433670D01*
X4681330Y441000D01*
X4673330Y452000D01*
X4668000Y464830D01*
X4665330Y479500D01*
Y492330D01*
X4668000Y503330D01*
X4673330Y516170D01*
X4681330Y527170D01*
X4689330Y534500D01*
X4700000Y540000D01*
X4709330D01*
X4720000Y536330D01*
X4728000Y529000D01*
G01X4451000Y955000D02*
X4471000D01*
Y928000D01*
X4465000Y919000D01*
X4458000Y913000D01*
X4448000Y910000D01*
X4438000Y913000D01*
X4431000Y919000D01*
X4425000Y928000D01*
X4421000Y938500D01*
X4419000Y950500D01*
Y961000D01*
X4421000Y970000D01*
X4425000Y980500D01*
X4431000Y989500D01*
X4437000Y995500D01*
X4445000Y1000000D01*
X4452000D01*
X4460000Y997000D01*
X4466000Y991000D01*
G01X4670000Y1000000D02*
X4695000Y910000D01*
X4720000Y1000000D01*
G01X4710000Y1730000D02*
Y1820000D01*
X4735000D01*
X4743000Y1815500D01*
X4748000Y1809500D01*
X4750000Y1797500D01*
X4748000Y1785500D01*
X4742000Y1778000D01*
X4735000Y1773500D01*
X4710000D01*
G01X4735000D02*
X4750000Y1730000D01*
G01X4730000Y2070000D02*
Y1980000D01*
G01X4707000Y2070000D02*
X4753000D01*
G01X4710000Y2310000D02*
Y2400000D01*
X4735000D01*
X4743000Y2395500D01*
X4748000Y2389500D01*
X4750000Y2377500D01*
X4748000Y2365500D01*
X4742000Y2358000D01*
X4735000Y2353500D01*
X4710000D01*
G01X4735000D02*
X4750000Y2310000D01*
G01X4730000Y2650000D02*
Y2560000D01*
G01X4707000Y2650000D02*
X4753000D01*
G01X4710000Y2890000D02*
Y2980000D01*
X4735000D01*
X4743000Y2975500D01*
X4748000Y2969500D01*
X4750000Y2957500D01*
X4748000Y2945500D01*
X4742000Y2938000D01*
X4735000Y2933500D01*
X4710000D01*
G01X4735000D02*
X4750000Y2890000D01*
G01X4730000Y3230000D02*
Y3140000D01*
G01X4707000Y3230000D02*
X4753000D01*
G01X4710000Y3460000D02*
Y3550000D01*
X4735000D01*
X4743000Y3545500D01*
X4748000Y3539500D01*
X4750000Y3527500D01*
X4748000Y3515500D01*
X4742000Y3508000D01*
X4735000Y3503500D01*
X4710000D01*
G01X4735000D02*
X4750000Y3460000D01*
G01X4730000Y3800000D02*
Y3710000D01*
G01X4707000Y3800000D02*
X4753000D01*
G01X4423330Y4230000D02*
Y4340000D01*
X4455330D01*
X4466000Y4334500D01*
X4474000Y4321670D01*
X4476670Y4307000D01*
X4474000Y4292330D01*
X4467330Y4281330D01*
X4455330Y4275830D01*
X4423330D01*
G01X4540000Y4230000D02*
X4529330Y4231830D01*
X4520000Y4239160D01*
X4512000Y4250170D01*
X4506670Y4263000D01*
X4504000Y4277670D01*
Y4292330D01*
X4506670Y4307000D01*
X4512000Y4319830D01*
X4520000Y4330830D01*
X4529330Y4338170D01*
X4540000Y4340000D01*
X4550670Y4338170D01*
X4560000Y4330830D01*
X4568000Y4319830D01*
X4573330Y4307000D01*
X4576000Y4292330D01*
Y4277670D01*
X4573330Y4263000D01*
X4568000Y4250170D01*
X4560000Y4239160D01*
X4550670Y4231830D01*
X4540000Y4230000D01*
G01X4603330D02*
Y4340000D01*
X4636670D01*
X4647330Y4334500D01*
X4654000Y4327170D01*
X4656670Y4312500D01*
X4654000Y4297830D01*
X4646000Y4288670D01*
X4636670Y4283170D01*
X4603330D01*
G01X4636670D02*
X4656670Y4230000D01*
G01X4720000Y4340000D02*
Y4230000D01*
G01X4689330Y4340000D02*
X4750670D01*
G01X4776670Y4230000D02*
X4810000Y4340000D01*
X4843330Y4230000D01*
G01X4831330Y4268500D02*
X4788670D01*
G01X4675000Y4390000D02*
Y4480000D01*
X4700000D01*
X4708000Y4475500D01*
X4713000Y4469500D01*
X4715000Y4457500D01*
X4713000Y4445500D01*
X4707000Y4438000D01*
X4700000Y4433500D01*
X4675000D01*
G01X4700000D02*
X4715000Y4390000D01*
G01X4445000Y4480000D02*
Y4390000D01*
G01X4422000Y4480000D02*
X4468000D01*
G01X4925000Y910000D02*
Y1000000D01*
X4950000D01*
X4958000Y995500D01*
X4963000Y989500D01*
X4965000Y977500D01*
X4963000Y965500D01*
X4957000Y958000D01*
X4950000Y953500D01*
X4925000D01*
G01X4950000D02*
X4965000Y910000D01*
G01X4920000Y4480000D02*
X4945000Y4390000D01*
X4970000Y4480000D01*
G01X5195000Y1000000D02*
Y910000D01*
G01X5172000Y1000000D02*
X5218000D01*
G01X5201000Y4435000D02*
X5221000D01*
Y4408000D01*
X5215000Y4399000D01*
X5208000Y4393000D01*
X5198000Y4390000D01*
X5188000Y4393000D01*
X5181000Y4399000D01*
X5175000Y4408000D01*
X5171000Y4418500D01*
X5169000Y4430500D01*
Y4441000D01*
X5171000Y4450000D01*
X5175000Y4460500D01*
X5181000Y4469500D01*
X5187000Y4475500D01*
X5195000Y4480000D01*
X5202000D01*
X5210000Y4477000D01*
X5216000Y4471000D01*
G01X5613330Y430000D02*
Y540000D01*
X5645330D01*
X5656000Y534500D01*
X5664000Y521670D01*
X5666670Y507000D01*
X5664000Y492330D01*
X5657330Y481330D01*
X5645330Y475830D01*
X5613330D01*
G01X5730000Y430000D02*
X5719330Y431830D01*
X5710000Y439160D01*
X5702000Y450170D01*
X5696670Y463000D01*
X5694000Y477670D01*
Y492330D01*
X5696670Y507000D01*
X5702000Y519830D01*
X5710000Y530830D01*
X5719330Y538170D01*
X5730000Y540000D01*
X5740670Y538170D01*
X5750000Y530830D01*
X5758000Y519830D01*
X5763330Y507000D01*
X5766000Y492330D01*
Y477670D01*
X5763330Y463000D01*
X5758000Y450170D01*
X5750000Y439160D01*
X5740670Y431830D01*
X5730000Y430000D01*
G01X5793330D02*
Y540000D01*
X5826670D01*
X5837330Y534500D01*
X5844000Y527170D01*
X5846670Y512500D01*
X5844000Y497830D01*
X5836000Y488670D01*
X5826670Y483170D01*
X5793330D01*
G01X5826670D02*
X5846670Y430000D01*
G01X5910000Y540000D02*
Y430000D01*
G01X5879330Y540000D02*
X5940670D01*
G01X5970670Y430000D02*
Y540000D01*
X5997330D01*
X6008000Y534500D01*
X6016000Y527170D01*
X6022670Y516170D01*
X6028000Y503330D01*
X6029330Y485000D01*
X6028000Y466670D01*
X6022670Y453830D01*
X6016000Y442830D01*
X6008000Y435500D01*
X5997330Y430000D01*
X5970670D01*
G01X5751000Y955000D02*
X5771000D01*
Y928000D01*
X5765000Y919000D01*
X5758000Y913000D01*
X5748000Y910000D01*
X5738000Y913000D01*
X5731000Y919000D01*
X5725000Y928000D01*
X5721000Y938500D01*
X5719000Y950500D01*
Y961000D01*
X5721000Y970000D01*
X5725000Y980500D01*
X5731000Y989500D01*
X5737000Y995500D01*
X5745000Y1000000D01*
X5752000D01*
X5760000Y997000D01*
X5766000Y991000D01*
G01X5723330Y4230000D02*
Y4340000D01*
X5755330D01*
X5766000Y4334500D01*
X5774000Y4321670D01*
X5776670Y4307000D01*
X5774000Y4292330D01*
X5767330Y4281330D01*
X5755330Y4275830D01*
X5723330D01*
G01X5840000Y4230000D02*
X5829330Y4231830D01*
X5820000Y4239160D01*
X5812000Y4250170D01*
X5806670Y4263000D01*
X5804000Y4277670D01*
Y4292330D01*
X5806670Y4307000D01*
X5812000Y4319830D01*
X5820000Y4330830D01*
X5829330Y4338170D01*
X5840000Y4340000D01*
X5850670Y4338170D01*
X5860000Y4330830D01*
X5868000Y4319830D01*
X5873330Y4307000D01*
X5876000Y4292330D01*
Y4277670D01*
X5873330Y4263000D01*
X5868000Y4250170D01*
X5860000Y4239160D01*
X5850670Y4231830D01*
X5840000Y4230000D01*
G01X5903330D02*
Y4340000D01*
X5936670D01*
X5947330Y4334500D01*
X5954000Y4327170D01*
X5956670Y4312500D01*
X5954000Y4297830D01*
X5946000Y4288670D01*
X5936670Y4283170D01*
X5903330D01*
G01X5936670D02*
X5956670Y4230000D01*
G01X6020000Y4340000D02*
Y4230000D01*
G01X5989330Y4340000D02*
X6050670D01*
G01X6139330Y4330830D02*
X6131330Y4336330D01*
X6122000Y4340000D01*
X6111330D01*
X6099330Y4334500D01*
X6090000Y4325330D01*
X6083330Y4314330D01*
X6078000Y4296000D01*
X6076670Y4279500D01*
X6079330Y4263000D01*
X6083330Y4252000D01*
X6091330Y4241000D01*
X6100670Y4233670D01*
X6110000Y4230000D01*
X6119330D01*
X6128670Y4233670D01*
X6136670Y4239160D01*
X6143330Y4246500D01*
G01X5745000Y4480000D02*
Y4390000D01*
G01X5722000Y4480000D02*
X5768000D01*
G01X5970000Y1000000D02*
X5995000Y910000D01*
X6020000Y1000000D01*
G01X5975000Y4390000D02*
Y4480000D01*
X6000000D01*
X6008000Y4475500D01*
X6013000Y4469500D01*
X6015000Y4457500D01*
X6013000Y4445500D01*
X6007000Y4438000D01*
X6000000Y4433500D01*
X5975000D01*
G01X6000000D02*
X6015000Y4390000D01*
G01X6495000Y1000000D02*
Y910000D01*
G01X6472000Y1000000D02*
X6518000D01*
G01X6225000Y910000D02*
Y1000000D01*
X6250000D01*
X6258000Y995500D01*
X6263000Y989500D01*
X6265000Y977500D01*
X6263000Y965500D01*
X6257000Y958000D01*
X6250000Y953500D01*
X6225000D01*
G01X6250000D02*
X6265000Y910000D01*
G01X6501000Y4435000D02*
X6521000D01*
Y4408000D01*
X6515000Y4399000D01*
X6508000Y4393000D01*
X6498000Y4390000D01*
X6488000Y4393000D01*
X6481000Y4399000D01*
X6475000Y4408000D01*
X6471000Y4418500D01*
X6469000Y4430500D01*
Y4441000D01*
X6471000Y4450000D01*
X6475000Y4460500D01*
X6481000Y4469500D01*
X6487000Y4475500D01*
X6495000Y4480000D01*
X6502000D01*
X6510000Y4477000D01*
X6516000Y4471000D01*
G01X6220000Y4480000D02*
X6245000Y4390000D01*
X6270000Y4480000D01*
G01X7192000Y1150000D02*
Y1240000D01*
X7155000Y1175500D01*
X7205000D01*
G01X7250000Y1150000D02*
X7257000Y1151500D01*
X7265000Y1156000D01*
X7270000Y1163500D01*
X7272000Y1174000D01*
X7270000Y1184500D01*
X7264000Y1193500D01*
X7255000Y1198000D01*
X7245000D01*
X7239000Y1201000D01*
X7234000Y1208500D01*
X7232000Y1219000D01*
X7235000Y1229500D01*
X7242000Y1237000D01*
X7250000Y1240000D01*
X7258000Y1237000D01*
X7265000Y1229500D01*
X7268000Y1219000D01*
X7266000Y1208500D01*
X7261000Y1201000D01*
X7255000Y1198000D01*
X7245000D01*
X7236000Y1193500D01*
X7230000Y1184500D01*
X7228000Y1174000D01*
X7230000Y1163500D01*
X7235000Y1156000D01*
X7243000Y1151500D01*
X7250000Y1150000D01*
G01X7298000Y1163500D02*
X7304000Y1156000D01*
X7311000Y1151500D01*
X7320000Y1150000D01*
X7329000Y1153000D01*
X7336000Y1159000D01*
X7341000Y1169500D01*
X7342000Y1181500D01*
X7340000Y1193500D01*
X7335000Y1201000D01*
X7328000Y1207000D01*
X7321000Y1208500D01*
X7314000Y1207000D01*
X7305000Y1201000D01*
X7308000Y1240000D01*
X7335000D01*
G01X7365000Y1150000D02*
X7390000Y1240000D01*
X7415000Y1150000D01*
G01X7406000Y1181500D02*
X7374000D01*
G01X7192000Y1390000D02*
Y1480000D01*
X7155000Y1415500D01*
X7205000D01*
G01X7250000Y1390000D02*
X7257000Y1391500D01*
X7265000Y1396000D01*
X7270000Y1403500D01*
X7272000Y1414000D01*
X7270000Y1424500D01*
X7264000Y1433500D01*
X7255000Y1438000D01*
X7245000D01*
X7239000Y1441000D01*
X7234000Y1448500D01*
X7232000Y1459000D01*
X7235000Y1469500D01*
X7242000Y1477000D01*
X7250000Y1480000D01*
X7258000Y1477000D01*
X7265000Y1469500D01*
X7268000Y1459000D01*
X7266000Y1448500D01*
X7261000Y1441000D01*
X7255000Y1438000D01*
X7245000D01*
X7236000Y1433500D01*
X7230000Y1424500D01*
X7228000Y1414000D01*
X7230000Y1403500D01*
X7235000Y1396000D01*
X7243000Y1391500D01*
X7250000Y1390000D01*
G01X7298000Y1403500D02*
X7304000Y1396000D01*
X7311000Y1391500D01*
X7320000Y1390000D01*
X7329000Y1393000D01*
X7336000Y1399000D01*
X7341000Y1409500D01*
X7342000Y1421500D01*
X7340000Y1433500D01*
X7335000Y1441000D01*
X7328000Y1447000D01*
X7321000Y1448500D01*
X7314000Y1447000D01*
X7305000Y1441000D01*
X7308000Y1480000D01*
X7335000D01*
G01X7398000Y1438000D02*
X7402000Y1442500D01*
X7405000Y1450000D01*
X7407000Y1460500D01*
X7405000Y1469500D01*
X7401000Y1475500D01*
X7394000Y1480000D01*
X7367000D01*
Y1390000D01*
X7400000D01*
X7407000Y1396000D01*
X7411000Y1405000D01*
X7413000Y1415500D01*
X7411000Y1426000D01*
X7405000Y1435000D01*
X7398000Y1438000D01*
X7367000D01*
G01X7192000Y1900000D02*
Y1990000D01*
X7155000Y1925500D01*
X7205000D01*
G01X7231000Y1975000D02*
X7237000Y1984000D01*
X7244000Y1988500D01*
X7252000Y1990000D01*
X7262000Y1987000D01*
X7269000Y1979500D01*
X7271000Y1970500D01*
X7270000Y1961500D01*
X7266000Y1954000D01*
X7246000Y1939000D01*
X7237000Y1928500D01*
X7231000Y1913500D01*
X7229000Y1900000D01*
X7271000D01*
G01X7301000Y1975000D02*
X7307000Y1984000D01*
X7314000Y1988500D01*
X7322000Y1990000D01*
X7332000Y1987000D01*
X7339000Y1979500D01*
X7341000Y1970500D01*
X7340000Y1961500D01*
X7336000Y1954000D01*
X7316000Y1939000D01*
X7307000Y1928500D01*
X7301000Y1913500D01*
X7299000Y1900000D01*
X7341000D01*
G01X7371000Y1990000D02*
X7409000D01*
X7371000Y1900000D01*
X7409000D01*
G01X7192000Y1650000D02*
Y1740000D01*
X7155000Y1675500D01*
X7205000D01*
G01X7231000Y1725000D02*
X7237000Y1734000D01*
X7244000Y1738500D01*
X7252000Y1740000D01*
X7262000Y1737000D01*
X7269000Y1729500D01*
X7271000Y1720500D01*
X7270000Y1711500D01*
X7266000Y1704000D01*
X7246000Y1689000D01*
X7237000Y1678500D01*
X7231000Y1663500D01*
X7229000Y1650000D01*
X7271000D01*
G01X7301000Y1725000D02*
X7307000Y1734000D01*
X7314000Y1738500D01*
X7322000Y1740000D01*
X7332000Y1737000D01*
X7339000Y1729500D01*
X7341000Y1720500D01*
X7340000Y1711500D01*
X7336000Y1704000D01*
X7316000Y1689000D01*
X7307000Y1678500D01*
X7301000Y1663500D01*
X7299000Y1650000D01*
X7341000D01*
G01X7390000D02*
Y1690500D01*
X7370000Y1740000D01*
G01X7410000D02*
X7390000Y1690500D01*
G01X7182000Y2150000D02*
Y2240000D01*
X7145000Y2175500D01*
X7195000D01*
G01X7221000Y2225000D02*
X7227000Y2234000D01*
X7234000Y2238500D01*
X7242000Y2240000D01*
X7252000Y2237000D01*
X7259000Y2229500D01*
X7261000Y2220500D01*
X7260000Y2211500D01*
X7256000Y2204000D01*
X7236000Y2189000D01*
X7227000Y2178500D01*
X7221000Y2163500D01*
X7219000Y2150000D01*
X7261000D01*
G01X7291000Y2225000D02*
X7297000Y2234000D01*
X7304000Y2238500D01*
X7312000Y2240000D01*
X7322000Y2237000D01*
X7329000Y2229500D01*
X7331000Y2220500D01*
X7330000Y2211500D01*
X7326000Y2204000D01*
X7306000Y2189000D01*
X7297000Y2178500D01*
X7291000Y2163500D01*
X7289000Y2150000D01*
X7331000D01*
G01X7388000Y2198000D02*
X7392000Y2202500D01*
X7395000Y2210000D01*
X7397000Y2220500D01*
X7395000Y2229500D01*
X7391000Y2235500D01*
X7384000Y2240000D01*
X7357000D01*
Y2150000D01*
X7390000D01*
X7397000Y2156000D01*
X7401000Y2165000D01*
X7403000Y2175500D01*
X7401000Y2186000D01*
X7395000Y2195000D01*
X7388000Y2198000D01*
X7357000D01*
G01X7182000Y2400000D02*
Y2490000D01*
X7145000Y2425500D01*
X7195000D01*
G01X7221000Y2475000D02*
X7227000Y2484000D01*
X7234000Y2488500D01*
X7242000Y2490000D01*
X7252000Y2487000D01*
X7259000Y2479500D01*
X7261000Y2470500D01*
X7260000Y2461500D01*
X7256000Y2454000D01*
X7236000Y2439000D01*
X7227000Y2428500D01*
X7221000Y2413500D01*
X7219000Y2400000D01*
X7261000D01*
G01X7291000Y2475000D02*
X7297000Y2484000D01*
X7304000Y2488500D01*
X7312000Y2490000D01*
X7322000Y2487000D01*
X7329000Y2479500D01*
X7331000Y2470500D01*
X7330000Y2461500D01*
X7326000Y2454000D01*
X7306000Y2439000D01*
X7297000Y2428500D01*
X7291000Y2413500D01*
X7289000Y2400000D01*
X7331000D01*
G01X7355000D02*
X7380000Y2490000D01*
X7405000Y2400000D01*
G01X7396000Y2431500D02*
X7364000D01*
G01X7202000Y2982500D02*
X7196000Y2987000D01*
X7189000Y2990000D01*
X7181000D01*
X7172000Y2985500D01*
X7165000Y2978000D01*
X7160000Y2969000D01*
X7156000Y2954000D01*
X7155000Y2940500D01*
X7157000Y2927000D01*
X7160000Y2918000D01*
X7166000Y2909000D01*
X7173000Y2903000D01*
X7180000Y2900000D01*
X7187000D01*
X7194000Y2903000D01*
X7200000Y2907500D01*
X7205000Y2913500D01*
G01X7225000Y2900000D02*
X7250000Y2990000D01*
X7275000Y2900000D01*
G01X7266000Y2931500D02*
X7234000D01*
G01X7297000Y2900000D02*
Y2990000D01*
X7343000Y2900000D01*
Y2990000D01*
G01X7370000D02*
Y2900000D01*
X7410000D01*
G01X7202000Y3222500D02*
X7196000Y3227000D01*
X7189000Y3230000D01*
X7181000D01*
X7172000Y3225500D01*
X7165000Y3218000D01*
X7160000Y3209000D01*
X7156000Y3194000D01*
X7155000Y3180500D01*
X7157000Y3167000D01*
X7160000Y3158000D01*
X7166000Y3149000D01*
X7173000Y3143000D01*
X7180000Y3140000D01*
X7187000D01*
X7194000Y3143000D01*
X7200000Y3147500D01*
X7205000Y3153500D01*
G01X7225000Y3140000D02*
X7250000Y3230000D01*
X7275000Y3140000D01*
G01X7266000Y3171500D02*
X7234000D01*
G01X7297000Y3140000D02*
Y3230000D01*
X7343000Y3140000D01*
Y3230000D01*
G01X7369000Y3140000D02*
Y3230000D01*
G01X7411000D02*
Y3140000D01*
G01Y3185000D02*
X7369000D01*
G01X7186000Y3695000D02*
X7206000D01*
Y3668000D01*
X7200000Y3659000D01*
X7193000Y3653000D01*
X7183000Y3650000D01*
X7173000Y3653000D01*
X7166000Y3659000D01*
X7160000Y3668000D01*
X7156000Y3678500D01*
X7154000Y3690500D01*
Y3701000D01*
X7156000Y3710000D01*
X7160000Y3720500D01*
X7166000Y3729500D01*
X7172000Y3735500D01*
X7180000Y3740000D01*
X7187000D01*
X7195000Y3737000D01*
X7201000Y3731000D01*
G01X7227000Y3650000D02*
Y3740000D01*
X7273000Y3650000D01*
Y3740000D01*
G01X7298000Y3650000D02*
Y3740000D01*
X7318000D01*
X7326000Y3735500D01*
X7332000Y3729500D01*
X7337000Y3720500D01*
X7341000Y3710000D01*
X7342000Y3695000D01*
X7341000Y3680000D01*
X7337000Y3669500D01*
X7332000Y3660500D01*
X7326000Y3654500D01*
X7318000Y3650000D01*
X7298000D01*
G01X7186000Y3445000D02*
X7206000D01*
Y3418000D01*
X7200000Y3409000D01*
X7193000Y3403000D01*
X7183000Y3400000D01*
X7173000Y3403000D01*
X7166000Y3409000D01*
X7160000Y3418000D01*
X7156000Y3428500D01*
X7154000Y3440500D01*
Y3451000D01*
X7156000Y3460000D01*
X7160000Y3470500D01*
X7166000Y3479500D01*
X7172000Y3485500D01*
X7180000Y3490000D01*
X7187000D01*
X7195000Y3487000D01*
X7201000Y3481000D01*
G01X7227000Y3400000D02*
Y3490000D01*
X7273000Y3400000D01*
Y3490000D01*
G01X7298000Y3400000D02*
Y3490000D01*
X7318000D01*
X7326000Y3485500D01*
X7332000Y3479500D01*
X7337000Y3470500D01*
X7341000Y3460000D01*
X7342000Y3445000D01*
X7341000Y3430000D01*
X7337000Y3419500D01*
X7332000Y3410500D01*
X7326000Y3404500D01*
X7318000Y3400000D01*
X7298000D01*
G01X7151000Y3975000D02*
X7157000Y3984000D01*
X7164000Y3988500D01*
X7172000Y3990000D01*
X7182000Y3987000D01*
X7189000Y3979500D01*
X7191000Y3970500D01*
X7190000Y3961500D01*
X7186000Y3954000D01*
X7166000Y3939000D01*
X7157000Y3928500D01*
X7151000Y3913500D01*
X7149000Y3900000D01*
X7191000D01*
G01X7218000Y3918000D02*
X7224000Y3907500D01*
X7232000Y3901500D01*
X7241000Y3900000D01*
X7249000Y3901500D01*
X7257000Y3909000D01*
X7262000Y3918000D01*
X7263000Y3927000D01*
X7261000Y3937500D01*
X7254000Y3945000D01*
X7247000Y3948000D01*
X7238000D01*
G01X7247000D02*
X7253000Y3952500D01*
X7258000Y3960000D01*
X7260000Y3969000D01*
X7258000Y3978000D01*
X7253000Y3985500D01*
X7244000Y3990000D01*
X7235000Y3988500D01*
X7226000Y3982500D01*
G01X7291000Y3975000D02*
X7297000Y3984000D01*
X7304000Y3988500D01*
X7312000Y3990000D01*
X7322000Y3987000D01*
X7329000Y3979500D01*
X7331000Y3970500D01*
X7330000Y3961500D01*
X7326000Y3954000D01*
X7306000Y3939000D01*
X7297000Y3928500D01*
X7291000Y3913500D01*
X7289000Y3900000D01*
X7331000D01*
G01X7380000Y3990000D02*
Y3900000D01*
G01X7357000Y3990000D02*
X7403000D01*
G01X7151000Y4225000D02*
X7157000Y4234000D01*
X7164000Y4238500D01*
X7172000Y4240000D01*
X7182000Y4237000D01*
X7189000Y4229500D01*
X7191000Y4220500D01*
X7190000Y4211500D01*
X7186000Y4204000D01*
X7166000Y4189000D01*
X7157000Y4178500D01*
X7151000Y4163500D01*
X7149000Y4150000D01*
X7191000D01*
G01X7218000Y4168000D02*
X7224000Y4157500D01*
X7232000Y4151500D01*
X7241000Y4150000D01*
X7249000Y4151500D01*
X7257000Y4159000D01*
X7262000Y4168000D01*
X7263000Y4177000D01*
X7261000Y4187500D01*
X7254000Y4195000D01*
X7247000Y4198000D01*
X7238000D01*
G01X7247000D02*
X7253000Y4202500D01*
X7258000Y4210000D01*
X7260000Y4219000D01*
X7258000Y4228000D01*
X7253000Y4235500D01*
X7244000Y4240000D01*
X7235000Y4238500D01*
X7226000Y4232500D01*
G01X7291000Y4225000D02*
X7297000Y4234000D01*
X7304000Y4238500D01*
X7312000Y4240000D01*
X7322000Y4237000D01*
X7329000Y4229500D01*
X7331000Y4220500D01*
X7330000Y4211500D01*
X7326000Y4204000D01*
X7306000Y4189000D01*
X7297000Y4178500D01*
X7291000Y4163500D01*
X7289000Y4150000D01*
X7331000D01*
G01X7360000D02*
Y4240000D01*
X7385000D01*
X7393000Y4235500D01*
X7398000Y4229500D01*
X7400000Y4217500D01*
X7398000Y4205500D01*
X7392000Y4198000D01*
X7385000Y4193500D01*
X7360000D01*
G01X7385000D02*
X7400000Y4150000D01*
M02*
