G04 ================== begin FILE IDENTIFICATION RECORD ==================*
G04 Layout Name:  v3minie_to_dc3-10p_v10_251101.brd*
G04 Film Name:    Drill_Legend*
G04 File Format:  Gerber RS274X*
G04 File Origin:  Cadence Allegro 24.1-S006*
G04 Origin Date:  Sat Nov  1 14:07:49 2025*
G04 *
G04 Layer:  MANUFACTURING/NCLEGEND-1-2*
G04 Layer:  MANUFACTURING/NCDRILL_LEGEND*
G04 Layer:  MANUFACTURING/NCDRILL_FIGURE*
G04 Layer:  BOARD GEOMETRY/DIMENSION*
G04 *
G04 Offset:    (0.0000 0.0000)*
G04 Mirror:    No*
G04 Mode:      Positive*
G04 Rotation:  0*
G04 FullContactRelief:  No*
G04 UndefLineWidth:     0.1524*
G04 ================== end FILE IDENTIFICATION RECORD ====================*
%FSLAX55Y55*MOMM*%
%IR0*IPPOS*OFA0.00000B0.00000*MIA0B0*SFA1.00000B1.00000*%
%AMMACRO11*
1,1,.1524,.3,.3*
20,1,.1524,.3,.3,.3,-.3,0.0*
1,1,.1524,.3,-.3*
20,1,.1524,.3,-.3,-.3,-.3,0.0*
1,1,.1524,-.3,-.3*
20,1,.1524,-.3,-.3,-.3,.3,0.0*
1,1,.1524,-.3,.3*
20,1,.1524,-.3,.3,.3,.3,0.0*
1,1,.1524,.3,.3*
%
%ADD11MACRO11*%
%AMMACRO10*
1,1,.1524,.1524,0.0*
20,1,.1524,.1524,0.0,-.1524,0.0,0.0*
1,1,.1524,-.1524,0.0*
1,1,.1524,0.0,.1524*
20,1,.1524,0.0,.1524,0.0,-.1524,0.0*
1,1,.1524,0.0,-.1524*
%
%ADD10MACRO10*%
%AMMACRO12*
1,1,.1524,.55,0.0*
20,1,.1524,.55,0.0,.275,.476314,0.0*
1,1,.1524,.275,.476314*
20,1,.1524,.275,.476314,-.275,.476314,0.0*
1,1,.1524,-.275,.476314*
20,1,.1524,-.275,.476314,-.55,0.0,0.0*
1,1,.1524,-.55,0.0*
20,1,.1524,-.55,0.0,-.275,-.476314,0.0*
1,1,.1524,-.275,-.476314*
20,1,.1524,-.275,-.476314,.275,-.476314,0.0*
1,1,.1524,.275,-.476314*
20,1,.1524,.275,-.476314,.55,0.0,0.0*
1,1,.1524,.55,0.0*
%
%ADD12MACRO12*%
%ADD13C,.1524*%
G75*
%LPD*%
G75*
G54D10*
X210000Y200000D03*
Y950000D03*
Y590000D03*
Y1330000D03*
X650000Y200000D03*
X920000Y870000D03*
X1050000Y200000D03*
X1030000Y870000D03*
X1850000Y200000D03*
X2230000D03*
X4481730Y1782500D03*
G54D11*
X723500Y516000D03*
X596500D03*
Y1024000D03*
X723500D03*
X596500Y897000D03*
X723500D03*
X596500Y770000D03*
X723500D03*
X596500Y643000D03*
X723500D03*
X4481730Y1147500D03*
G54D12*
X1286000Y504000D03*
X1540000D03*
X1286000Y250000D03*
X1540000D03*
X1286000Y1012000D03*
X1540000D03*
X1286000Y758000D03*
X1540000D03*
X1286000Y1266000D03*
X1540000D03*
X4481730Y512500D03*
G54D13*
G01X-1115750Y674750D02*
Y865250D01*
X-1144200Y827150D01*
G01Y674750D02*
X-1087310D01*
G01X-977400Y703320D02*
X-963180Y687450D01*
X-946590Y677920D01*
X-925250Y674750D01*
X-903910Y681100D01*
X-887320Y693800D01*
X-875470Y716020D01*
X-873100Y741420D01*
X-877840Y766820D01*
X-889690Y782700D01*
X-906290Y795400D01*
X-922880Y798570D01*
X-939470Y795400D01*
X-960810Y782700D01*
X-953700Y865250D01*
X-889690D01*
G01X-734750Y668400D02*
X-739490Y671580D01*
Y677920D01*
X-734750Y681100D01*
X-730010Y677920D01*
Y671580D01*
X-734750Y668400D01*
G01X-596400Y712850D02*
X-582180Y690620D01*
X-563220Y677920D01*
X-541880Y674750D01*
X-522910Y677920D01*
X-503950Y693800D01*
X-492100Y712850D01*
X-489730Y731900D01*
X-494470Y754120D01*
X-511060Y770000D01*
X-527660Y776350D01*
X-548990D01*
G01X-527660D02*
X-513430Y785870D01*
X-501580Y801750D01*
X-496840Y820800D01*
X-501580Y839850D01*
X-513430Y855720D01*
X-534770Y865250D01*
X-556100Y862080D01*
X-577440Y849370D01*
G01X1119710Y-206500D02*
X1133930Y-187450D01*
X1150530Y-177920D01*
X1169490Y-174750D01*
X1193200Y-181100D01*
X1209790Y-196980D01*
X1214530Y-216020D01*
X1212160Y-235080D01*
X1202680Y-250950D01*
X1155270Y-282700D01*
X1133930Y-304930D01*
X1119710Y-336680D01*
X1114970Y-365250D01*
X1214530D01*
G01X1383700D02*
Y-174750D01*
X1295980Y-311270D01*
X1414520D01*
G01X3619520Y2258750D02*
Y2576250D01*
X3769140D01*
G01X3714010Y2422800D02*
X3619520D01*
G01X3962050Y2576250D02*
X4056530D01*
G01X4009290D02*
Y2258750D01*
G01X3962050D02*
X4056530D01*
G01X4347870Y2417500D02*
X4426620D01*
Y2322250D01*
X4402990Y2290490D01*
X4375430Y2269330D01*
X4336060Y2258750D01*
X4296690Y2269330D01*
X4269130Y2290490D01*
X4245510Y2322250D01*
X4229760Y2359290D01*
X4221880Y2401620D01*
Y2438670D01*
X4229760Y2470410D01*
X4245510Y2507460D01*
X4269130Y2539210D01*
X4292750Y2560370D01*
X4324250Y2576250D01*
X4351810D01*
X4383300Y2565670D01*
X4406930Y2544500D01*
G01X4552600Y2576250D02*
Y2348710D01*
X4568340Y2301070D01*
X4599840Y2269330D01*
X4639210Y2258750D01*
X4678580Y2269330D01*
X4710080Y2301070D01*
X4725820Y2348710D01*
Y2576250D01*
G01X4875430Y2258750D02*
Y2576250D01*
X4973850D01*
X5005350Y2560370D01*
X5025040Y2539210D01*
X5032910Y2496870D01*
X5025040Y2454540D01*
X5001410Y2428090D01*
X4973850Y2412200D01*
X4875430D01*
G01X4973850D02*
X5032910Y2258750D01*
G01X5347870D02*
X5190390D01*
Y2576250D01*
X5347870D01*
G01X5284880Y2422800D02*
X5190390D01*
G01X6217940Y2258750D02*
Y2576250D01*
X6367560D01*
G01X6312430Y2422800D02*
X6217940D01*
G01X6560470Y2576250D02*
X6654950D01*
G01X6607710D02*
Y2258750D01*
G01X6560470D02*
X6654950D01*
G01X6832120D02*
Y2576250D01*
X7013220Y2258750D01*
Y2576250D01*
G01X7190390D02*
X7284870D01*
G01X7237630D02*
Y2258750D01*
G01X7190390D02*
X7284870D01*
G01X7469910Y2301070D02*
X7501410Y2274620D01*
X7536840Y2258750D01*
X7568340D01*
X7599830Y2274620D01*
X7623460Y2301070D01*
X7635270Y2338130D01*
X7627400Y2375160D01*
X7607710Y2406910D01*
X7572270Y2428090D01*
X7525030Y2438670D01*
X7497470Y2459830D01*
X7485660Y2496870D01*
X7493540Y2533920D01*
X7513220Y2560370D01*
X7540780Y2576250D01*
X7568340D01*
X7595900Y2565670D01*
X7619520Y2539210D01*
G01X7784870Y2258750D02*
Y2576250D01*
G01X7950230D02*
Y2258750D01*
G01Y2417500D02*
X7784870D01*
G01X8261250Y2258750D02*
X8103770D01*
Y2576250D01*
X8261250D01*
G01X8198260Y2422800D02*
X8103770D01*
G01X8410860Y2258750D02*
Y2576250D01*
X8489590D01*
X8521090Y2560370D01*
X8544710Y2539210D01*
X8564400Y2507460D01*
X8580150Y2470410D01*
X8584080Y2417500D01*
X8580150Y2364580D01*
X8564400Y2327540D01*
X8544710Y2295780D01*
X8521090Y2274620D01*
X8489590Y2258750D01*
X8410860D01*
G01X8694320Y2152920D02*
X8930540D01*
G01X9044710Y2301070D02*
X9076210Y2274620D01*
X9111640Y2258750D01*
X9143140D01*
X9174630Y2274620D01*
X9198260Y2301070D01*
X9210070Y2338130D01*
X9202200Y2375160D01*
X9182510Y2406910D01*
X9147070Y2428090D01*
X9099830Y2438670D01*
X9072270Y2459830D01*
X9060460Y2496870D01*
X9068340Y2533920D01*
X9088020Y2560370D01*
X9115580Y2576250D01*
X9143140D01*
X9170700Y2565670D01*
X9194320Y2539210D01*
G01X9395110Y2576250D02*
X9489590D01*
G01X9442350D02*
Y2258750D01*
G01X9395110D02*
X9489590D01*
G01X9682500Y2576250D02*
X9832120D01*
X9682500Y2258750D01*
X9832120D01*
G01X10151010D02*
X9993530D01*
Y2576250D01*
X10151010D01*
G01X10088020Y2422800D02*
X9993530D01*
G01X7395110Y1941250D02*
X7363610Y1930670D01*
X7339990Y1904210D01*
X7324240Y1872460D01*
X7312430Y1830120D01*
X7308500Y1782500D01*
X7312430Y1734870D01*
X7324240Y1692540D01*
X7339990Y1660780D01*
X7363610Y1634330D01*
X7395110Y1623750D01*
X7426600Y1634330D01*
X7450230Y1660780D01*
X7465980Y1692540D01*
X7477790Y1734870D01*
X7481720Y1782500D01*
X7477790Y1830120D01*
X7465980Y1872460D01*
X7450230Y1904210D01*
X7426600Y1930670D01*
X7395110Y1941250D01*
G01X7710070Y1613170D02*
X7702190Y1618460D01*
Y1629040D01*
X7710070Y1634330D01*
X7717950Y1629040D01*
Y1618460D01*
X7710070Y1613170D01*
G01X7938420Y1687250D02*
X7962030Y1650200D01*
X7993530Y1629040D01*
X8028970Y1623750D01*
X8060470Y1629040D01*
X8091960Y1655490D01*
X8111640Y1687250D01*
X8115580Y1719000D01*
X8107710Y1756030D01*
X8080150Y1782500D01*
X8052590Y1793090D01*
X8017150D01*
G01X8052590D02*
X8076210Y1808960D01*
X8095900Y1835410D01*
X8103770Y1867160D01*
X8095900Y1898920D01*
X8076210Y1925370D01*
X8040780Y1941250D01*
X8005350Y1935960D01*
X7969910Y1914790D01*
G01X8339990Y1941250D02*
X8308490Y1930670D01*
X8284870Y1904210D01*
X8269120Y1872460D01*
X8257310Y1830120D01*
X8253380Y1782500D01*
X8257310Y1734870D01*
X8269120Y1692540D01*
X8284870Y1660780D01*
X8308490Y1634330D01*
X8339990Y1623750D01*
X8371480Y1634330D01*
X8395110Y1660780D01*
X8410860Y1692540D01*
X8422670Y1734870D01*
X8426600Y1782500D01*
X8422670Y1830120D01*
X8410860Y1872460D01*
X8395110Y1904210D01*
X8371480Y1930670D01*
X8339990Y1941250D01*
G01X8702190Y1623750D02*
Y1941250D01*
X8556520Y1713710D01*
X8753380D01*
G01X8969910Y1623750D02*
X8997470Y1629040D01*
X9028960Y1644910D01*
X9048650Y1671360D01*
X9056520Y1708420D01*
X9048650Y1745450D01*
X9025030Y1777200D01*
X8989590Y1793090D01*
X8950230D01*
X8926600Y1803670D01*
X8906910Y1830120D01*
X8899040Y1867160D01*
X8910860Y1904210D01*
X8938410Y1930670D01*
X8969910Y1941250D01*
X9001400Y1930670D01*
X9028960Y1904210D01*
X9040780Y1867160D01*
X9032900Y1830120D01*
X9013220Y1803670D01*
X8989590Y1793090D01*
X8950230D01*
X8914790Y1777200D01*
X8891170Y1745450D01*
X8883300Y1708420D01*
X8891170Y1671360D01*
X8910860Y1644910D01*
X8942350Y1629040D01*
X8969910Y1623750D01*
G01X7867550Y353750D02*
Y671250D01*
X7820310Y607750D01*
G01Y353750D02*
X7914790D01*
G01X8182510Y343170D02*
X8174630Y348460D01*
Y359040D01*
X8182510Y364330D01*
X8190390Y359040D01*
Y348460D01*
X8182510Y343170D01*
G01X8497470Y353750D02*
Y671250D01*
X8450230Y607750D01*
G01Y353750D02*
X8544710D01*
G01X7867550Y1306250D02*
X7836050Y1295670D01*
X7812430Y1269210D01*
X7796680Y1237460D01*
X7784870Y1195120D01*
X7780940Y1147500D01*
X7784870Y1099870D01*
X7796680Y1057540D01*
X7812430Y1025780D01*
X7836050Y999330D01*
X7867550Y988750D01*
X7899040Y999330D01*
X7922670Y1025780D01*
X7938420Y1057540D01*
X7950230Y1099870D01*
X7954160Y1147500D01*
X7950230Y1195120D01*
X7938420Y1237460D01*
X7922670Y1269210D01*
X7899040Y1295670D01*
X7867550Y1306250D01*
G01X8182510Y978170D02*
X8174630Y983460D01*
Y994040D01*
X8182510Y999330D01*
X8190390Y994040D01*
Y983460D01*
X8182510Y978170D01*
G01X8422660Y1121030D02*
X8450230Y1158090D01*
X8473850Y1179250D01*
X8505350Y1189830D01*
X8532910Y1179250D01*
X8552590Y1158090D01*
X8568340Y1126330D01*
X8572280Y1089290D01*
X8568340Y1057540D01*
X8552590Y1025780D01*
X8528960Y999330D01*
X8501410Y988750D01*
X8469910Y999330D01*
X8442350Y1031070D01*
X8426600Y1078710D01*
X8422660Y1131620D01*
X8430540Y1200410D01*
X8442350Y1237460D01*
X8462030Y1274500D01*
X8489590Y1300960D01*
X8517150Y1306250D01*
X8544710Y1295670D01*
X8564400Y1269210D01*
G01X7847860Y2893750D02*
X7946290Y3211250D01*
X8044720Y2893750D01*
G01X8009280Y3004870D02*
X7883290D01*
G01X8182510Y3211250D02*
Y2893750D01*
X8339990D01*
G01X8497470Y3211250D02*
Y2893750D01*
X8654950D01*
G01X9119520Y3211250D02*
Y2983710D01*
X9135260Y2936070D01*
X9166760Y2904330D01*
X9206130Y2893750D01*
X9245500Y2904330D01*
X9277000Y2936070D01*
X9292740Y2983710D01*
Y3211250D01*
G01X9430540Y2893750D02*
Y3211250D01*
X9611640Y2893750D01*
Y3211250D01*
G01X9788810D02*
X9883290D01*
G01X9836050D02*
Y2893750D01*
G01X9788810D02*
X9883290D01*
G01X10151010Y3211250D02*
Y2893750D01*
G01X10060460Y3211250D02*
X10241560D01*
G01X10383290Y2936070D02*
X10414790Y2909620D01*
X10450220Y2893750D01*
X10481720D01*
X10513210Y2909620D01*
X10536840Y2936070D01*
X10548650Y2973130D01*
X10540780Y3010160D01*
X10521090Y3041910D01*
X10485650Y3063090D01*
X10438410Y3073670D01*
X10410850Y3094830D01*
X10399040Y3131870D01*
X10406920Y3168920D01*
X10426600Y3195370D01*
X10454160Y3211250D01*
X10481720D01*
X10509280Y3200670D01*
X10532900Y3174210D01*
G01X10997460Y2893750D02*
X11095890Y3211250D01*
X11194320Y2893750D01*
G01X11158880Y3004870D02*
X11032890D01*
G01X11332110Y2893750D02*
Y3211250D01*
X11430530D01*
X11462030Y3195370D01*
X11481720Y3174210D01*
X11489590Y3131870D01*
X11481720Y3089540D01*
X11458090Y3063090D01*
X11430530Y3047200D01*
X11332110D01*
G01X11430530D02*
X11489590Y2893750D01*
G01X11804550D02*
X11647070D01*
Y3211250D01*
X11804550D01*
G01X11741560Y3057800D02*
X11647070D01*
G01X12308490Y3211250D02*
X12402970D01*
G01X12355730D02*
Y2893750D01*
G01X12308490D02*
X12402970D01*
G01X12580140D02*
Y3211250D01*
X12761240Y2893750D01*
Y3211250D01*
G01X13198240Y2893750D02*
Y3211250D01*
X13300610Y2946670D01*
X13402980Y3211250D01*
Y2893750D01*
G01X13568330Y3211250D02*
X13662810D01*
G01X13615570D02*
Y2893750D01*
G01X13568330D02*
X13662810D01*
G01X13851790Y3211250D02*
Y2893750D01*
X14009270D01*
G01X14166750Y3211250D02*
Y2893750D01*
X14324230D01*
G01X14513210Y3211250D02*
X14607690D01*
G01X14560450D02*
Y2893750D01*
G01X14513210D02*
X14607690D01*
G01X14773040D02*
Y3211250D01*
X14875410Y2946670D01*
X14977780Y3211250D01*
Y2893750D01*
G01X15269110D02*
X15111630D01*
Y3211250D01*
X15269110D01*
G01X15206120Y3057800D02*
X15111630D01*
G01X15505330Y3211250D02*
Y2893750D01*
G01X15414780Y3211250D02*
X15595880D01*
G01X15899030Y2893750D02*
X15741550D01*
Y3211250D01*
X15899030D01*
G01X15836040Y3057800D02*
X15741550D01*
G01X16056510Y2893750D02*
Y3211250D01*
X16154930D01*
X16186430Y3195370D01*
X16206120Y3174210D01*
X16213990Y3131870D01*
X16206120Y3089540D01*
X16182490Y3063090D01*
X16154930Y3047200D01*
X16056510D01*
G01X16154930D02*
X16213990Y2893750D01*
G01X16367530Y2936070D02*
X16399030Y2909620D01*
X16434460Y2893750D01*
X16465960D01*
X16497450Y2909620D01*
X16521080Y2936070D01*
X16532890Y2973130D01*
X16525020Y3010160D01*
X16505330Y3041910D01*
X16469890Y3063090D01*
X16422650Y3073670D01*
X16395090Y3094830D01*
X16383280Y3131870D01*
X16391160Y3168920D01*
X16410840Y3195370D01*
X16438400Y3211250D01*
X16465960D01*
X16493520Y3200670D01*
X16517140Y3174210D01*
G01X8174640Y3543750D02*
Y3861250D01*
X8253370D01*
X8284870Y3845370D01*
X8308490Y3824210D01*
X8328180Y3792460D01*
X8343930Y3755410D01*
X8347860Y3702500D01*
X8343930Y3649580D01*
X8328180Y3612540D01*
X8308490Y3580780D01*
X8284870Y3559620D01*
X8253370Y3543750D01*
X8174640D01*
G01X8497470D02*
Y3861250D01*
X8595890D01*
X8627390Y3845370D01*
X8647080Y3824210D01*
X8654950Y3781870D01*
X8647080Y3739540D01*
X8623450Y3713090D01*
X8595890Y3697200D01*
X8497470D01*
G01X8595890D02*
X8654950Y3543750D01*
G01X8843930Y3861250D02*
X8938410D01*
G01X8891170D02*
Y3543750D01*
G01X8843930D02*
X8938410D01*
G01X9127390Y3861250D02*
Y3543750D01*
X9284870D01*
G01X9442350Y3861250D02*
Y3543750D01*
X9599830D01*
G01X10237620Y3834790D02*
X10214000Y3850670D01*
X10186450Y3861250D01*
X10154950D01*
X10119510Y3845370D01*
X10091960Y3818920D01*
X10072270Y3787160D01*
X10056520Y3734250D01*
X10052580Y3686620D01*
X10060460Y3639000D01*
X10072270Y3607250D01*
X10095890Y3575490D01*
X10123450Y3554330D01*
X10151010Y3543750D01*
X10178570D01*
X10206130Y3554330D01*
X10229750Y3570200D01*
X10249440Y3591360D01*
G01X10383290Y3543750D02*
Y3861250D01*
G01X10548650D02*
Y3543750D01*
G01Y3702500D02*
X10383290D01*
G01X10682500Y3543750D02*
X10780930Y3861250D01*
X10879360Y3543750D01*
G01X10843920Y3654870D02*
X10717930D01*
G01X11017150Y3543750D02*
Y3861250D01*
X11115570D01*
X11147070Y3845370D01*
X11166760Y3824210D01*
X11174630Y3781870D01*
X11166760Y3739540D01*
X11143130Y3713090D01*
X11115570Y3697200D01*
X11017150D01*
G01X11115570D02*
X11174630Y3543750D01*
G01X11410850Y3861250D02*
Y3543750D01*
G01X11320300Y3861250D02*
X11501400D01*
G01X11725810Y3533170D02*
X11717930Y3538460D01*
Y3549040D01*
X11725810Y3554330D01*
X11733690Y3549040D01*
Y3538460D01*
X11725810Y3533170D01*
G01Y3676030D02*
X11717930Y3681330D01*
Y3691910D01*
X11725810Y3697200D01*
X11733690Y3691910D01*
Y3681330D01*
X11725810Y3676030D01*
G01X12355730Y3861250D02*
Y3543750D01*
G01X12265180Y3861250D02*
X12446280D01*
G01X12670690Y3543750D02*
X12639190Y3549040D01*
X12611640Y3570200D01*
X12588010Y3601960D01*
X12572260Y3639000D01*
X12564390Y3681330D01*
Y3723670D01*
X12572260Y3766000D01*
X12588010Y3803040D01*
X12611640Y3834790D01*
X12639190Y3855960D01*
X12670690Y3861250D01*
X12702180Y3855960D01*
X12729740Y3834790D01*
X12753370Y3803040D01*
X12769120Y3766000D01*
X12776990Y3723670D01*
Y3681330D01*
X12769120Y3639000D01*
X12753370Y3601960D01*
X12729740Y3570200D01*
X12702180Y3549040D01*
X12670690Y3543750D01*
G01X12906910D02*
Y3861250D01*
X13001400D01*
X13032890Y3845370D01*
X13056520Y3808330D01*
X13064390Y3766000D01*
X13056520Y3723670D01*
X13036830Y3691910D01*
X13001400Y3676030D01*
X12906910D01*
G01X13615570Y3861250D02*
Y3543750D01*
G01X13560450Y3755410D02*
X13670690D01*
G01X13930530Y3543750D02*
X13906910Y3549040D01*
X13883290Y3570200D01*
X13867530Y3607250D01*
X13859660Y3649580D01*
X13867530Y3691910D01*
X13883290Y3728960D01*
X13906910Y3750120D01*
X13930530Y3755410D01*
X13954150Y3750120D01*
X13977770Y3728960D01*
X13993520Y3691910D01*
X13997460Y3649580D01*
X13993520Y3607250D01*
X13977770Y3570200D01*
X13954150Y3549040D01*
X13930530Y3543750D01*
G01X14591940Y3713090D02*
X14607690Y3728960D01*
X14619500Y3755410D01*
X14627380Y3792460D01*
X14619500Y3824210D01*
X14603760Y3845370D01*
X14576200Y3861250D01*
X14469900D01*
Y3543750D01*
X14599820D01*
X14627380Y3564910D01*
X14643130Y3596670D01*
X14651000Y3633710D01*
X14643130Y3670740D01*
X14619500Y3702500D01*
X14591940Y3713090D01*
X14469900D01*
G01X14875410Y3543750D02*
X14843910Y3549040D01*
X14816360Y3570200D01*
X14792730Y3601960D01*
X14776980Y3639000D01*
X14769110Y3681330D01*
Y3723670D01*
X14776980Y3766000D01*
X14792730Y3803040D01*
X14816360Y3834790D01*
X14843910Y3855960D01*
X14875410Y3861250D01*
X14906900Y3855960D01*
X14934460Y3834790D01*
X14958090Y3803040D01*
X14973840Y3766000D01*
X14981710Y3723670D01*
Y3681330D01*
X14973840Y3639000D01*
X14958090Y3601960D01*
X14934460Y3570200D01*
X14906900Y3549040D01*
X14875410Y3543750D01*
G01X15190370Y3861250D02*
Y3543750D01*
G01X15099820Y3861250D02*
X15280920D01*
G01X15505330D02*
Y3543750D01*
G01X15414780Y3861250D02*
X15595880D01*
G01X15820290Y3543750D02*
X15788790Y3549040D01*
X15761240Y3570200D01*
X15737610Y3601960D01*
X15721860Y3639000D01*
X15713990Y3681330D01*
Y3723670D01*
X15721860Y3766000D01*
X15737610Y3803040D01*
X15761240Y3834790D01*
X15788790Y3855960D01*
X15820290Y3861250D01*
X15851780Y3855960D01*
X15879340Y3834790D01*
X15902970Y3803040D01*
X15918720Y3766000D01*
X15926590Y3723670D01*
Y3681330D01*
X15918720Y3639000D01*
X15902970Y3601960D01*
X15879340Y3570200D01*
X15851780Y3549040D01*
X15820290Y3543750D01*
G01X16032880D02*
Y3861250D01*
X16135250Y3596670D01*
X16237620Y3861250D01*
Y3543750D01*
G01X11481720Y2258750D02*
Y2576250D01*
X11560450D01*
X11591950Y2560370D01*
X11615570Y2539210D01*
X11635260Y2507460D01*
X11651010Y2470410D01*
X11654940Y2417500D01*
X11651010Y2364580D01*
X11635260Y2327540D01*
X11615570Y2295780D01*
X11591950Y2274620D01*
X11560450Y2258750D01*
X11481720D01*
G01X11804550D02*
Y2576250D01*
X11902970D01*
X11934470Y2560370D01*
X11954160Y2539210D01*
X11962030Y2496870D01*
X11954160Y2454540D01*
X11930530Y2428090D01*
X11902970Y2412200D01*
X11804550D01*
G01X11902970D02*
X11962030Y2258750D01*
G01X12151010Y2576250D02*
X12245490D01*
G01X12198250D02*
Y2258750D01*
G01X12151010D02*
X12245490D01*
G01X12434470Y2576250D02*
Y2258750D01*
X12591950D01*
G01X12749430Y2576250D02*
Y2258750D01*
X12906910D01*
G01X13221870D02*
X13064390D01*
Y2576250D01*
X13221870D01*
G01X13158880Y2422800D02*
X13064390D01*
G01X13371480Y2258750D02*
Y2576250D01*
X13450210D01*
X13481710Y2560370D01*
X13505330Y2539210D01*
X13525020Y2507460D01*
X13540770Y2470410D01*
X13544700Y2417500D01*
X13540770Y2364580D01*
X13525020Y2327540D01*
X13505330Y2295780D01*
X13481710Y2274620D01*
X13450210Y2258750D01*
X13371480D01*
G01X13654940Y2152920D02*
X13891160D01*
G01X14005330Y2301070D02*
X14036830Y2274620D01*
X14072260Y2258750D01*
X14103760D01*
X14135250Y2274620D01*
X14158880Y2301070D01*
X14170690Y2338130D01*
X14162820Y2375160D01*
X14143130Y2406910D01*
X14107690Y2428090D01*
X14060450Y2438670D01*
X14032890Y2459830D01*
X14021080Y2496870D01*
X14028960Y2533920D01*
X14048640Y2560370D01*
X14076200Y2576250D01*
X14103760D01*
X14131320Y2565670D01*
X14154940Y2539210D01*
G01X14355730Y2576250D02*
X14450210D01*
G01X14402970D02*
Y2258750D01*
G01X14355730D02*
X14450210D01*
G01X14643120Y2576250D02*
X14792740D01*
X14643120Y2258750D01*
X14792740D01*
G01X15111630D02*
X14954150D01*
Y2576250D01*
X15111630D01*
G01X15048640Y2422800D02*
X14954150D01*
G01X13249430Y459580D02*
X13351790D01*
G01X13249430Y1094580D02*
X13351790D01*
G01X13249430Y1729580D02*
X13351790D01*
G01X15187830Y36250D02*
Y-281250D01*
G01X15097280Y36250D02*
X15278380D01*
G01X15502790Y-281250D02*
X15471290Y-275960D01*
X15443740Y-254800D01*
X15420110Y-223040D01*
X15404360Y-186000D01*
X15396490Y-143670D01*
Y-101330D01*
X15404360Y-59000D01*
X15420110Y-21960D01*
X15443740Y9790D01*
X15471290Y30960D01*
X15502790Y36250D01*
X15534280Y30960D01*
X15561840Y9790D01*
X15585470Y-21960D01*
X15601220Y-59000D01*
X15609090Y-101330D01*
Y-143670D01*
X15601220Y-186000D01*
X15585470Y-223040D01*
X15561840Y-254800D01*
X15534280Y-275960D01*
X15502790Y-281250D01*
G01X15817750Y36250D02*
Y-281250D01*
G01X15727200Y36250D02*
X15908300D01*
G01X16034280Y-281250D02*
X16132710Y36250D01*
X16231140Y-281250D01*
G01X16195700Y-170130D02*
X16069710D01*
G01X16368930Y36250D02*
Y-281250D01*
X16526410D01*
G01X16994910D02*
Y36250D01*
G01X17160270D02*
Y-281250D01*
G01Y-122500D02*
X16994910D01*
G01X17392550Y-281250D02*
X17361050Y-275960D01*
X17333500Y-254800D01*
X17309870Y-223040D01*
X17294120Y-186000D01*
X17286250Y-143670D01*
Y-101330D01*
X17294120Y-59000D01*
X17309870Y-21960D01*
X17333500Y9790D01*
X17361050Y30960D01*
X17392550Y36250D01*
X17424040Y30960D01*
X17451600Y9790D01*
X17475230Y-21960D01*
X17490980Y-59000D01*
X17498850Y-101330D01*
Y-143670D01*
X17490980Y-186000D01*
X17475230Y-223040D01*
X17451600Y-254800D01*
X17424040Y-275960D01*
X17392550Y-281250D01*
G01X17628770Y36250D02*
Y-281250D01*
X17786250D01*
G01X18101210D02*
X17943730D01*
Y36250D01*
X18101210D01*
G01X18038220Y-117200D02*
X17943730D01*
G01X18254750Y-238930D02*
X18286250Y-265380D01*
X18321680Y-281250D01*
X18353180D01*
X18384670Y-265380D01*
X18408300Y-238930D01*
X18420110Y-201870D01*
X18412240Y-164840D01*
X18392550Y-133090D01*
X18357110Y-111910D01*
X18309870Y-101330D01*
X18282310Y-80170D01*
X18270500Y-43130D01*
X18278380Y-6080D01*
X18298060Y20370D01*
X18325620Y36250D01*
X18353180D01*
X18380740Y25670D01*
X18404360Y-790D01*
G01X18652390Y-291830D02*
X18644510Y-286540D01*
Y-275960D01*
X18652390Y-270670D01*
X18660270Y-275960D01*
Y-286540D01*
X18652390Y-291830D01*
G01Y-148970D02*
X18644510Y-143670D01*
Y-133090D01*
X18652390Y-127800D01*
X18660270Y-133090D01*
Y-143670D01*
X18652390Y-148970D01*
G01X16607690Y353750D02*
Y671250D01*
X16702180D01*
X16733670Y655370D01*
X16757300Y618330D01*
X16765170Y576000D01*
X16757300Y533670D01*
X16737610Y501910D01*
X16702180Y486030D01*
X16607690D01*
G01X16922650Y671250D02*
Y353750D01*
X17080130D01*
G01X17217920D02*
X17316350Y671250D01*
X17414780Y353750D01*
G01X17379340Y464870D02*
X17253350D01*
G01X17631310Y671250D02*
Y353750D01*
G01X17540760Y671250D02*
X17721860D01*
G01X18025010Y353750D02*
X17867530D01*
Y671250D01*
X18025010D01*
G01X17962020Y517800D02*
X17867530D01*
G01X18174620Y353750D02*
Y671250D01*
X18253350D01*
X18284850Y655370D01*
X18308470Y634210D01*
X18328160Y602460D01*
X18343910Y565410D01*
X18347840Y512500D01*
X18343910Y459580D01*
X18328160Y422540D01*
X18308470Y390780D01*
X18284850Y369620D01*
X18253350Y353750D01*
X18174620D01*
G01X16607690Y988750D02*
Y1306250D01*
X16702180D01*
X16733670Y1290370D01*
X16757300Y1253330D01*
X16765170Y1211000D01*
X16757300Y1168670D01*
X16737610Y1136910D01*
X16702180Y1121030D01*
X16607690D01*
G01X16922650Y1306250D02*
Y988750D01*
X17080130D01*
G01X17217920D02*
X17316350Y1306250D01*
X17414780Y988750D01*
G01X17379340Y1099870D02*
X17253350D01*
G01X17631310Y1306250D02*
Y988750D01*
G01X17540760Y1306250D02*
X17721860D01*
G01X18025010Y988750D02*
X17867530D01*
Y1306250D01*
X18025010D01*
G01X17962020Y1152800D02*
X17867530D01*
G01X18174620Y988750D02*
Y1306250D01*
X18253350D01*
X18284850Y1290370D01*
X18308470Y1269210D01*
X18328160Y1237460D01*
X18343910Y1200410D01*
X18347840Y1147500D01*
X18343910Y1094580D01*
X18328160Y1057540D01*
X18308470Y1025780D01*
X18284850Y1004620D01*
X18253350Y988750D01*
X18174620D01*
G01X16607690Y1623750D02*
Y1941250D01*
X16702180D01*
X16733670Y1925370D01*
X16757300Y1888330D01*
X16765170Y1846000D01*
X16757300Y1803670D01*
X16737610Y1771910D01*
X16702180Y1756030D01*
X16607690D01*
G01X16922650Y1941250D02*
Y1623750D01*
X17080130D01*
G01X17217920D02*
X17316350Y1941250D01*
X17414780Y1623750D01*
G01X17379340Y1734870D02*
X17253350D01*
G01X17631310Y1941250D02*
Y1623750D01*
G01X17540760Y1941250D02*
X17721860D01*
G01X18025010Y1623750D02*
X17867530D01*
Y1941250D01*
X18025010D01*
G01X17962020Y1787800D02*
X17867530D01*
G01X18174620Y1623750D02*
Y1941250D01*
X18253350D01*
X18284850Y1925370D01*
X18308470Y1904210D01*
X18328160Y1872460D01*
X18343910Y1835410D01*
X18347840Y1782500D01*
X18343910Y1729580D01*
X18328160Y1692540D01*
X18308470Y1660780D01*
X18284850Y1639620D01*
X18253350Y1623750D01*
X18174620D01*
G01X16607690Y2258750D02*
Y2576250D01*
X16702180D01*
X16733670Y2560370D01*
X16757300Y2523330D01*
X16765170Y2481000D01*
X16757300Y2438670D01*
X16737610Y2406910D01*
X16702180Y2391030D01*
X16607690D01*
G01X16922650Y2576250D02*
Y2258750D01*
X17080130D01*
G01X17217920D02*
X17316350Y2576250D01*
X17414780Y2258750D01*
G01X17379340Y2369870D02*
X17253350D01*
G01X17631310Y2576250D02*
Y2258750D01*
G01X17540760Y2576250D02*
X17721860D01*
G01X18025010Y2258750D02*
X17867530D01*
Y2576250D01*
X18025010D01*
G01X17962020Y2422800D02*
X17867530D01*
G01X18174620Y2258750D02*
Y2576250D01*
X18253350D01*
X18284850Y2560370D01*
X18308470Y2539210D01*
X18328160Y2507460D01*
X18343910Y2470410D01*
X18347840Y2417500D01*
X18343910Y2364580D01*
X18328160Y2327540D01*
X18308470Y2295780D01*
X18284850Y2274620D01*
X18253350Y2258750D01*
X18174620D01*
G01X19828160Y-217750D02*
X19851770Y-254800D01*
X19883270Y-275960D01*
X19918710Y-281250D01*
X19950210Y-275960D01*
X19981700Y-249510D01*
X20001380Y-217750D01*
X20005320Y-186000D01*
X19997450Y-148970D01*
X19969890Y-122500D01*
X19942330Y-111910D01*
X19906890D01*
G01X19942330D02*
X19965950Y-96040D01*
X19985640Y-69590D01*
X19993510Y-37840D01*
X19985640Y-6080D01*
X19965950Y20370D01*
X19930520Y36250D01*
X19895090Y30960D01*
X19859650Y9790D01*
G01X20229730Y36250D02*
X20198230Y25670D01*
X20174610Y-790D01*
X20158860Y-32540D01*
X20147050Y-74880D01*
X20143120Y-122500D01*
X20147050Y-170130D01*
X20158860Y-212460D01*
X20174610Y-244220D01*
X20198230Y-270670D01*
X20229730Y-281250D01*
X20261220Y-270670D01*
X20284850Y-244220D01*
X20300600Y-212460D01*
X20312410Y-170130D01*
X20316340Y-122500D01*
X20312410Y-74880D01*
X20300600Y-32540D01*
X20284850Y-790D01*
X20261220Y25670D01*
X20229730Y36250D01*
G01X19914770Y353750D02*
Y671250D01*
X19867530Y607750D01*
G01Y353750D02*
X19962010D01*
G01X20229730Y671250D02*
X20198230Y660670D01*
X20174610Y634210D01*
X20158860Y602460D01*
X20147050Y560120D01*
X20143120Y512500D01*
X20147050Y464870D01*
X20158860Y422540D01*
X20174610Y390780D01*
X20198230Y364330D01*
X20229730Y353750D01*
X20261220Y364330D01*
X20284850Y390780D01*
X20300600Y422540D01*
X20312410Y464870D01*
X20316340Y512500D01*
X20312410Y560120D01*
X20300600Y602460D01*
X20284850Y634210D01*
X20261220Y660670D01*
X20229730Y671250D01*
G01X19914770Y988750D02*
Y1306250D01*
X19867530Y1242750D01*
G01Y988750D02*
X19962010D01*
G01X20229730Y1306250D02*
X20198230Y1295670D01*
X20174610Y1269210D01*
X20158860Y1237460D01*
X20147050Y1195120D01*
X20143120Y1147500D01*
X20147050Y1099870D01*
X20158860Y1057540D01*
X20174610Y1025780D01*
X20198230Y999330D01*
X20229730Y988750D01*
X20261220Y999330D01*
X20284850Y1025780D01*
X20300600Y1057540D01*
X20312410Y1099870D01*
X20316340Y1147500D01*
X20312410Y1195120D01*
X20300600Y1237460D01*
X20284850Y1269210D01*
X20261220Y1295670D01*
X20229730Y1306250D01*
G01X19914770Y1623750D02*
Y1941250D01*
X19867530Y1877750D01*
G01Y1623750D02*
X19962010D01*
G01X20229730Y1941250D02*
X20198230Y1930670D01*
X20174610Y1904210D01*
X20158860Y1872460D01*
X20147050Y1830120D01*
X20143120Y1782500D01*
X20147050Y1734870D01*
X20158860Y1692540D01*
X20174610Y1660780D01*
X20198230Y1634330D01*
X20229730Y1623750D01*
X20261220Y1634330D01*
X20284850Y1660780D01*
X20300600Y1692540D01*
X20312410Y1734870D01*
X20316340Y1782500D01*
X20312410Y1830120D01*
X20300600Y1872460D01*
X20284850Y1904210D01*
X20261220Y1930670D01*
X20229730Y1941250D01*
G01X19757290Y2258750D02*
X19725790Y2264040D01*
X19698240Y2285200D01*
X19674610Y2316960D01*
X19658860Y2354000D01*
X19650990Y2396330D01*
Y2438670D01*
X19658860Y2481000D01*
X19674610Y2518040D01*
X19698240Y2549790D01*
X19725790Y2570960D01*
X19757290Y2576250D01*
X19788780Y2570960D01*
X19816340Y2549790D01*
X19839970Y2518040D01*
X19855720Y2481000D01*
X19863590Y2438670D01*
Y2396330D01*
X19855720Y2354000D01*
X19839970Y2316960D01*
X19816340Y2285200D01*
X19788780Y2264040D01*
X19757290Y2258750D01*
G01X19788780Y2343420D02*
X19836030Y2258750D01*
G01X20072250Y2576250D02*
Y2258750D01*
G01X19981700Y2576250D02*
X20162800D01*
G01X20387210Y2258750D02*
Y2401620D01*
X20308470Y2576250D01*
G01X20465950D02*
X20387210Y2401620D01*
G01X-250000Y0D02*
X-1080000D01*
G01X-830000Y524260D02*
Y0D01*
G01X-892500Y400000D02*
X-830000Y0D01*
X-767500Y400000D01*
X-892500D01*
G01X-830000Y1015740D02*
Y1530000D01*
G01X910000D02*
X-1080000D01*
G01X-767500Y1130000D02*
X-830000Y1530000D01*
X-892500Y1130000D01*
X-767500D01*
G01X0Y-250000D02*
Y-520000D01*
G01X943140Y-270000D02*
X0D01*
G01X400000Y-207500D02*
X0Y-270000D01*
X400000Y-332500D01*
Y-207500D01*
G01X1576860Y-270000D02*
X2400000D01*
G01X2000000Y-332500D02*
X2400000Y-270000D01*
X2000000Y-207500D01*
Y-332500D01*
G01X2400000Y-20000D02*
Y-520000D01*
G01X3340000Y195000D02*
Y4020000D01*
X21056500D01*
Y195000D01*
X3340000D01*
G01Y830000D02*
X21056500D01*
G01X3340000Y1465000D02*
X21056500D01*
G01X3340000Y2100000D02*
X21056500D01*
G01X3340000Y2735000D02*
X21056500D01*
G01X3340000Y3370000D02*
X21056500D01*
G01X5623460Y2735000D02*
Y195000D01*
G01X10741560Y2735000D02*
Y195000D01*
G01X15859660Y2735000D02*
Y195000D01*
G01X19088000Y2735000D02*
Y195000D01*
M02*
