G04 ================== begin FILE IDENTIFICATION RECORD ==================*
G04 Layout Name:  v3minie_to_dc3-10p_v10_251101.brd*
G04 Film Name:    SilkScreen_Top*
G04 File Format:  Gerber RS274X*
G04 File Origin:  Cadence Allegro 24.1-S006*
G04 Origin Date:  Sat Nov  1 14:07:49 2025*
G04 *
G04 Layer:  PACKAGE GEOMETRY/SILKSCREEN_TOP*
G04 Layer:  BOARD GEOMETRY/SILKSCREEN_TOP*
G04 *
G04 Offset:    (0.0000 0.0000)*
G04 Mirror:    No*
G04 Mode:      Positive*
G04 Rotation:  0*
G04 FullContactRelief:  No*
G04 UndefLineWidth:     0.1524*
G04 ================== end FILE IDENTIFICATION RECORD ====================*
%FSLAX55Y55*MOMM*%
%IR0*IPPOS*OFA0.00000B0.00000*MIA0B0*SFA1.00000B1.00000*%
%ADD10C,.2*%
%ADD11C,.1524*%
G75*
%LPD*%
G75*
G36*
G01X790500Y516000D02*
X830500Y476000D01*
Y556000D01*
X790500Y516000D01*
G37*
G36*
G01X2060000Y365000D02*
G03I-30000J0D01*
G37*
G36*
G01X1750000Y250000D02*
G03I-30000J0D01*
G37*
G54D10*
G01X0Y140000D02*
Y1400000D01*
X500000D01*
Y140000D01*
X0D01*
G01Y900000D02*
X310000D01*
Y640000D01*
X0D01*
G01X1540000Y110000D02*
X1680000D01*
Y1410000D01*
X1150000D01*
Y110000D01*
X1540000D01*
G01X3000000Y390000D02*
Y340000D01*
X2600000D01*
Y390000D01*
G01X3000000Y590000D02*
Y540000D01*
X2600000D01*
Y590000D01*
G01X2400000Y265000D02*
X2600000D01*
Y1265000D01*
X2400000D01*
Y265000D01*
G01X2600000Y390000D02*
Y340000D01*
X3000000D01*
Y390000D01*
X2600000D01*
Y340000D01*
X3000000D01*
G01X2600000Y590000D02*
Y540000D01*
X3000000D01*
Y590000D01*
X2600000D01*
Y540000D01*
X3000000D01*
G01Y790000D02*
Y740000D01*
X2600000D01*
Y790000D01*
G01X3000000Y990000D02*
Y940000D01*
X2600000D01*
Y990000D01*
G01Y790000D02*
Y740000D01*
X3000000D01*
Y790000D01*
X2600000D01*
Y740000D01*
X3000000D01*
G01X2600000Y990000D02*
Y940000D01*
X3000000D01*
Y990000D01*
X2600000D01*
Y940000D01*
X3000000D01*
G01Y1190000D02*
Y1140000D01*
X2600000D01*
Y1190000D01*
G01D02*
Y1140000D01*
X3000000D01*
Y1190000D01*
X2600000D01*
Y1140000D01*
X3000000D01*
G01Y540000D02*
Y590000D01*
G01Y340000D02*
Y390000D01*
G01Y590000D02*
Y540000D01*
G01Y390000D02*
Y340000D01*
G01Y940000D02*
Y990000D01*
G01Y740000D02*
Y790000D01*
G01Y990000D02*
Y940000D01*
G01Y790000D02*
Y740000D01*
G01Y1140000D02*
Y1190000D01*
G01D02*
Y1140000D01*
G54D11*
G01X870000Y540000D02*
Y450000D01*
G01X847000Y540000D02*
X893000D01*
G01X927000Y480000D02*
X953000D01*
G01X990000Y450000D02*
Y540000D01*
X1015000D01*
X1023000Y535500D01*
X1028000Y529500D01*
X1030000Y517500D01*
X1028000Y505500D01*
X1022000Y498000D01*
X1015000Y493500D01*
X990000D01*
G01X1015000D02*
X1030000Y450000D01*
G01X1059000D02*
X1101000Y540000D01*
G01X1059000D02*
X1101000Y450000D01*
G01X916000Y245000D02*
X936000D01*
Y218000D01*
X930000Y209000D01*
X923000Y203000D01*
X913000Y200000D01*
X903000Y203000D01*
X896000Y209000D01*
X890000Y218000D01*
X886000Y228500D01*
X884000Y240500D01*
Y251000D01*
X886000Y260000D01*
X890000Y270500D01*
X896000Y279500D01*
X902000Y285500D01*
X910000Y290000D01*
X917000D01*
X925000Y287000D01*
X931000Y281000D01*
G01X957000Y200000D02*
Y290000D01*
X1003000Y200000D01*
Y290000D01*
G01X1028000Y200000D02*
Y290000D01*
X1048000D01*
X1056000Y285500D01*
X1062000Y279500D01*
X1067000Y270500D01*
X1071000Y260000D01*
X1072000Y245000D01*
X1071000Y230000D01*
X1067000Y219500D01*
X1062000Y210500D01*
X1056000Y204500D01*
X1048000Y200000D01*
X1028000D01*
G01X890000Y960000D02*
Y1050000D01*
X915000D01*
X923000Y1045500D01*
X928000Y1039500D01*
X930000Y1027500D01*
X928000Y1015500D01*
X922000Y1008000D01*
X915000Y1003500D01*
X890000D01*
G01X915000D02*
X930000Y960000D01*
G01X959000Y972000D02*
X967000Y964500D01*
X976000Y960000D01*
X984000D01*
X992000Y964500D01*
X998000Y972000D01*
X1001000Y982500D01*
X999000Y993000D01*
X994000Y1002000D01*
X985000Y1008000D01*
X973000Y1011000D01*
X966000Y1017000D01*
X963000Y1027500D01*
X965000Y1038000D01*
X970000Y1045500D01*
X977000Y1050000D01*
X984000D01*
X991000Y1047000D01*
X997000Y1039500D01*
G01X1050000Y1050000D02*
Y960000D01*
G01X1027000Y1050000D02*
X1073000D01*
G01X870000Y790000D02*
Y700000D01*
G01X847000Y790000D02*
X893000D01*
G01X927000Y730000D02*
X953000D01*
G01X1010000Y790000D02*
Y700000D01*
G01X987000Y790000D02*
X1033000D01*
G01X1059000Y700000D02*
X1101000Y790000D01*
G01X1059000D02*
X1101000Y700000D01*
G01X888000Y1228000D02*
X894000Y1217500D01*
X902000Y1211500D01*
X911000Y1210000D01*
X919000Y1211500D01*
X927000Y1219000D01*
X932000Y1228000D01*
X933000Y1237000D01*
X931000Y1247500D01*
X924000Y1255000D01*
X917000Y1258000D01*
X908000D01*
G01X917000D02*
X923000Y1262500D01*
X928000Y1270000D01*
X930000Y1279000D01*
X928000Y1288000D01*
X923000Y1295500D01*
X914000Y1300000D01*
X905000Y1298500D01*
X896000Y1292500D01*
G01X955000Y1300000D02*
X980000Y1210000D01*
X1005000Y1300000D01*
G01X1028000Y1228000D02*
X1034000Y1217500D01*
X1042000Y1211500D01*
X1051000Y1210000D01*
X1059000Y1211500D01*
X1067000Y1219000D01*
X1072000Y1228000D01*
X1073000Y1237000D01*
X1071000Y1247500D01*
X1064000Y1255000D01*
X1057000Y1258000D01*
X1048000D01*
G01X1057000D02*
X1063000Y1262500D01*
X1068000Y1270000D01*
X1070000Y1279000D01*
X1068000Y1288000D01*
X1063000Y1295500D01*
X1054000Y1300000D01*
X1045000Y1298500D01*
X1036000Y1292500D01*
G01X1800000Y540000D02*
Y450000D01*
G01X1777000Y540000D02*
X1823000D01*
G01X1848000Y450000D02*
Y540000D01*
X1868000D01*
X1876000Y535500D01*
X1882000Y529500D01*
X1887000Y520500D01*
X1891000Y510000D01*
X1892000Y495000D01*
X1891000Y480000D01*
X1887000Y469500D01*
X1882000Y460500D01*
X1876000Y454500D01*
X1868000Y450000D01*
X1848000D01*
G01X1928000Y540000D02*
X1952000D01*
G01X1940000D02*
Y450000D01*
G01X1928000D02*
X1952000D01*
G01X1822000Y1102500D02*
X1816000Y1107000D01*
X1809000Y1110000D01*
X1801000D01*
X1792000Y1105500D01*
X1785000Y1098000D01*
X1780000Y1089000D01*
X1776000Y1074000D01*
X1775000Y1060500D01*
X1777000Y1047000D01*
X1780000Y1038000D01*
X1786000Y1029000D01*
X1793000Y1023000D01*
X1800000Y1020000D01*
X1807000D01*
X1814000Y1023000D01*
X1820000Y1027500D01*
X1825000Y1033500D01*
G01X1850000Y1110000D02*
Y1020000D01*
X1890000D01*
G01X1918000D02*
Y1110000D01*
G01X1956000D02*
X1918000Y1054500D01*
G01X1962000Y1020000D02*
X1935000Y1080000D01*
G01X1800000Y850000D02*
Y760000D01*
G01X1777000Y850000D02*
X1823000D01*
G01X1844000Y760000D02*
Y850000D01*
X1870000Y775000D01*
X1896000Y850000D01*
Y760000D01*
G01X1919000Y772000D02*
X1927000Y764500D01*
X1936000Y760000D01*
X1944000D01*
X1952000Y764500D01*
X1958000Y772000D01*
X1961000Y782500D01*
X1959000Y793000D01*
X1954000Y802000D01*
X1945000Y808000D01*
X1933000Y811000D01*
X1926000Y817000D01*
X1923000Y827500D01*
X1925000Y838000D01*
X1930000Y845500D01*
X1937000Y850000D01*
X1944000D01*
X1951000Y847000D01*
X1957000Y839500D01*
G01X1719000Y912000D02*
X1727000Y904500D01*
X1736000Y900000D01*
X1744000D01*
X1752000Y904500D01*
X1758000Y912000D01*
X1761000Y922500D01*
X1759000Y933000D01*
X1754000Y942000D01*
X1745000Y948000D01*
X1733000Y951000D01*
X1726000Y957000D01*
X1723000Y967500D01*
X1725000Y978000D01*
X1730000Y985500D01*
X1737000Y990000D01*
X1744000D01*
X1751000Y987000D01*
X1757000Y979500D01*
G01X1780000Y990000D02*
X1794000Y900000D01*
X1810000Y990000D01*
X1826000Y900000D01*
X1840000Y990000D01*
G01X1902000Y982500D02*
X1896000Y987000D01*
X1889000Y990000D01*
X1881000D01*
X1872000Y985500D01*
X1865000Y978000D01*
X1860000Y969000D01*
X1856000Y954000D01*
X1855000Y940500D01*
X1857000Y927000D01*
X1860000Y918000D01*
X1866000Y909000D01*
X1873000Y903000D01*
X1880000Y900000D01*
X1887000D01*
X1894000Y903000D01*
X1900000Y907500D01*
X1905000Y913500D01*
G01X1930000Y990000D02*
Y900000D01*
X1970000D01*
G01X1998000D02*
Y990000D01*
G01X2036000D02*
X1998000Y934500D01*
G01X2042000Y900000D02*
X2015000Y960000D01*
G01X1719000Y652000D02*
X1727000Y644500D01*
X1736000Y640000D01*
X1744000D01*
X1752000Y644500D01*
X1758000Y652000D01*
X1761000Y662500D01*
X1759000Y673000D01*
X1754000Y682000D01*
X1745000Y688000D01*
X1733000Y691000D01*
X1726000Y697000D01*
X1723000Y707500D01*
X1725000Y718000D01*
X1730000Y725500D01*
X1737000Y730000D01*
X1744000D01*
X1751000Y727000D01*
X1757000Y719500D01*
G01X1780000Y730000D02*
X1794000Y640000D01*
X1810000Y730000D01*
X1826000Y640000D01*
X1840000Y730000D01*
G01X1858000Y640000D02*
Y730000D01*
X1878000D01*
X1886000Y725500D01*
X1892000Y719500D01*
X1897000Y710500D01*
X1901000Y700000D01*
X1902000Y685000D01*
X1901000Y670000D01*
X1897000Y659500D01*
X1892000Y650500D01*
X1886000Y644500D01*
X1878000Y640000D01*
X1858000D01*
G01X1938000Y730000D02*
X1962000D01*
G01X1950000D02*
Y640000D01*
G01X1938000D02*
X1962000D01*
G01X2020000D02*
X2012000Y641500D01*
X2005000Y647500D01*
X1999000Y656500D01*
X1995000Y667000D01*
X1993000Y679000D01*
Y691000D01*
X1995000Y703000D01*
X1999000Y713500D01*
X2005000Y722500D01*
X2012000Y728500D01*
X2020000Y730000D01*
X2028000Y728500D01*
X2035000Y722500D01*
X2041000Y713500D01*
X2045000Y703000D01*
X2047000Y691000D01*
Y679000D01*
X2045000Y667000D01*
X2041000Y656500D01*
X2035000Y647500D01*
X2028000Y641500D01*
X2020000Y640000D01*
G01X1800000Y1360000D02*
Y1270000D01*
G01X1777000Y1360000D02*
X1823000D01*
G01X1848000Y1270000D02*
Y1360000D01*
X1868000D01*
X1876000Y1355500D01*
X1882000Y1349500D01*
X1887000Y1340500D01*
X1891000Y1330000D01*
X1892000Y1315000D01*
X1891000Y1300000D01*
X1887000Y1289500D01*
X1882000Y1280500D01*
X1876000Y1274500D01*
X1868000Y1270000D01*
X1848000D01*
G01X1940000D02*
X1932000Y1271500D01*
X1925000Y1277500D01*
X1919000Y1286500D01*
X1915000Y1297000D01*
X1913000Y1309000D01*
Y1321000D01*
X1915000Y1333000D01*
X1919000Y1343500D01*
X1925000Y1352500D01*
X1932000Y1358500D01*
X1940000Y1360000D01*
X1948000Y1358500D01*
X1955000Y1352500D01*
X1961000Y1343500D01*
X1965000Y1333000D01*
X1967000Y1321000D01*
Y1309000D01*
X1965000Y1297000D01*
X1961000Y1286500D01*
X1955000Y1277500D01*
X1948000Y1271500D01*
X1940000Y1270000D01*
G01X1779000Y1162000D02*
X1787000Y1154500D01*
X1796000Y1150000D01*
X1804000D01*
X1812000Y1154500D01*
X1818000Y1162000D01*
X1821000Y1172500D01*
X1819000Y1183000D01*
X1814000Y1192000D01*
X1805000Y1198000D01*
X1793000Y1201000D01*
X1786000Y1207000D01*
X1783000Y1217500D01*
X1785000Y1228000D01*
X1790000Y1235500D01*
X1797000Y1240000D01*
X1804000D01*
X1811000Y1237000D01*
X1817000Y1229500D01*
G01X1840000Y1240000D02*
X1854000Y1150000D01*
X1870000Y1240000D01*
X1886000Y1150000D01*
X1900000Y1240000D01*
G01X1940000Y1150000D02*
X1932000Y1151500D01*
X1925000Y1157500D01*
X1919000Y1166500D01*
X1915000Y1177000D01*
X1913000Y1189000D01*
Y1201000D01*
X1915000Y1213000D01*
X1919000Y1223500D01*
X1925000Y1232500D01*
X1932000Y1238500D01*
X1940000Y1240000D01*
X1948000Y1238500D01*
X1955000Y1232500D01*
X1961000Y1223500D01*
X1965000Y1213000D01*
X1967000Y1201000D01*
Y1189000D01*
X1965000Y1177000D01*
X1961000Y1166500D01*
X1955000Y1157500D01*
X1948000Y1151500D01*
X1940000Y1150000D01*
M02*
