G04 ================== begin FILE IDENTIFICATION RECORD ==================*
G04 Layout Name:  H:/github/MBED-TOOLS/HARDWARE/HY_IP6538_V10/PCB/HY_IP6538_V10.brd*
G04 Film Name:    Drill_Legend*
G04 File Format:  Gerber RS274X*
G04 File Origin:  Cadence Allegro 17.2-S067*
G04 Origin Date:  Thu Jan 28 19:16:46 2021*
G04 *
G04 Layer:  MANUFACTURING/NCLEGEND-1-2*
G04 Layer:  MANUFACTURING/NCDRILL_LEGEND*
G04 Layer:  MANUFACTURING/NCDRILL_FIGURE*
G04 Layer:  BOARD GEOMETRY/DIMENSION*
G04 *
G04 Offset:    (0.0000 0.0000)*
G04 Mirror:    No*
G04 Mode:      Positive*
G04 Rotation:  0*
G04 FullContactRelief:  No*
G04 UndefLineWidth:     0.1524*
G04 ================== end FILE IDENTIFICATION RECORD ====================*
%FSLAX55Y55*MOMM*%
%IR0*IPPOS*OFA0.00000B0.00000*MIA0B0*SFA1.00000B1.00000*%
%AMMACRO17*
1,1,.1524,-.3,.3*
20,1,.1524,-.3,.3,.3,.3,0.0*
1,1,.1524,.3,.3*
20,1,.1524,.3,.3,.352094,.295442,0.0*
1,1,.1524,.352094,.295442*
20,1,.1524,.352094,.295442,.402606,.281908,0.0*
1,1,.1524,.402606,.281908*
20,1,.1524,.402606,.281908,.45,.259808,0.0*
1,1,.1524,.45,.259808*
20,1,.1524,.45,.259808,.492836,.229813,0.0*
1,1,.1524,.492836,.229813*
20,1,.1524,.492836,.229813,.529813,.192836,0.0*
1,1,.1524,.529813,.192836*
20,1,.1524,.529813,.192836,.559808,.15,0.0*
1,1,.1524,.559808,.15*
20,1,.1524,.559808,.15,.581908,.102606,0.0*
1,1,.1524,.581908,.102606*
20,1,.1524,.581908,.102606,.595442,.052094,0.0*
1,1,.1524,.595442,.052094*
20,1,.1524,.595442,.052094,.6,0.0,0.0*
1,1,.1524,.6,0.0*
20,1,.1524,.6,0.0,.595442,-.052094,0.0*
1,1,.1524,.595442,-.052094*
20,1,.1524,.595442,-.052094,.581908,-.102606,0.0*
1,1,.1524,.581908,-.102606*
20,1,.1524,.581908,-.102606,.559808,-.15,0.0*
1,1,.1524,.559808,-.15*
20,1,.1524,.559808,-.15,.529813,-.192836,0.0*
1,1,.1524,.529813,-.192836*
20,1,.1524,.529813,-.192836,.492836,-.229813,0.0*
1,1,.1524,.492836,-.229813*
20,1,.1524,.492836,-.229813,.45,-.259808,0.0*
1,1,.1524,.45,-.259808*
20,1,.1524,.45,-.259808,.402606,-.281908,0.0*
1,1,.1524,.402606,-.281908*
20,1,.1524,.402606,-.281908,.352094,-.295442,0.0*
1,1,.1524,.352094,-.295442*
20,1,.1524,.352094,-.295442,.3,-.3,0.0*
1,1,.1524,.3,-.3*
20,1,.1524,.3,-.3,-.3,-.3,0.0*
1,1,.1524,-.3,-.3*
20,1,.1524,-.3,-.3,-.352094,-.295442,0.0*
1,1,.1524,-.352094,-.295442*
20,1,.1524,-.352094,-.295442,-.402606,-.281908,0.0*
1,1,.1524,-.402606,-.281908*
20,1,.1524,-.402606,-.281908,-.45,-.259808,0.0*
1,1,.1524,-.45,-.259808*
20,1,.1524,-.45,-.259808,-.492836,-.229813,0.0*
1,1,.1524,-.492836,-.229813*
20,1,.1524,-.492836,-.229813,-.529813,-.192836,0.0*
1,1,.1524,-.529813,-.192836*
20,1,.1524,-.529813,-.192836,-.559808,-.15,0.0*
1,1,.1524,-.559808,-.15*
20,1,.1524,-.559808,-.15,-.581908,-.102606,0.0*
1,1,.1524,-.581908,-.102606*
20,1,.1524,-.581908,-.102606,-.595442,-.052094,0.0*
1,1,.1524,-.595442,-.052094*
20,1,.1524,-.595442,-.052094,-.6,0.0,0.0*
1,1,.1524,-.6,0.0*
20,1,.1524,-.6,0.0,-.595442,.052094,0.0*
1,1,.1524,-.595442,.052094*
20,1,.1524,-.595442,.052094,-.581908,.102606,0.0*
1,1,.1524,-.581908,.102606*
20,1,.1524,-.581908,.102606,-.559808,.15,0.0*
1,1,.1524,-.559808,.15*
20,1,.1524,-.559808,.15,-.529813,.192836,0.0*
1,1,.1524,-.529813,.192836*
20,1,.1524,-.529813,.192836,-.492836,.229813,0.0*
1,1,.1524,-.492836,.229813*
20,1,.1524,-.492836,.229813,-.45,.259808,0.0*
1,1,.1524,-.45,.259808*
20,1,.1524,-.45,.259808,-.402606,.281908,0.0*
1,1,.1524,-.402606,.281908*
20,1,.1524,-.402606,.281908,-.352094,.295442,0.0*
1,1,.1524,-.352094,.295442*
20,1,.1524,-.352094,.295442,-.3,.3,0.0*
1,1,.1524,-.3,.3*
1,1,.1524,-.15,-.15*
20,1,.1524,-.15,-.15,-.19,-.145,0.0*
1,1,.1524,-.19,-.145*
20,1,.1524,-.19,-.145,-.225,-.125,0.0*
1,1,.1524,-.225,-.125*
20,1,.1524,-.225,-.125,-.255,-.095,0.0*
1,1,.1524,-.255,-.095*
20,1,.1524,-.255,-.095,-.275,-.06,0.0*
1,1,.1524,-.275,-.06*
20,1,.1524,-.275,-.06,-.285,-.02,0.0*
1,1,.1524,-.285,-.02*
20,1,.1524,-.285,-.02,-.285,.02,0.0*
1,1,.1524,-.285,.02*
20,1,.1524,-.285,.02,-.275,.06,0.0*
1,1,.1524,-.275,.06*
20,1,.1524,-.275,.06,-.255,.095,0.0*
1,1,.1524,-.255,.095*
20,1,.1524,-.255,.095,-.225,.125,0.0*
1,1,.1524,-.225,.125*
20,1,.1524,-.225,.125,-.19,.145,0.0*
1,1,.1524,-.19,.145*
20,1,.1524,-.19,.145,-.15,.15,0.0*
1,1,.1524,-.15,.15*
20,1,.1524,-.15,.15,-.11,.145,0.0*
1,1,.1524,-.11,.145*
20,1,.1524,-.11,.145,-.075,.125,0.0*
1,1,.1524,-.075,.125*
20,1,.1524,-.075,.125,-.045,.095,0.0*
1,1,.1524,-.045,.095*
20,1,.1524,-.045,.095,-.025,.06,0.0*
1,1,.1524,-.025,.06*
20,1,.1524,-.025,.06,-.015,.02,0.0*
1,1,.1524,-.015,.02*
20,1,.1524,-.015,.02,-.015,-.02,0.0*
1,1,.1524,-.015,-.02*
20,1,.1524,-.015,-.02,-.025,-.06,0.0*
1,1,.1524,-.025,-.06*
20,1,.1524,-.025,-.06,-.045,-.095,0.0*
1,1,.1524,-.045,-.095*
20,1,.1524,-.045,-.095,-.075,-.125,0.0*
1,1,.1524,-.075,-.125*
20,1,.1524,-.075,-.125,-.11,-.145,0.0*
1,1,.1524,-.11,-.145*
20,1,.1524,-.11,-.145,-.15,-.15,0.0*
1,1,.1524,-.15,-.15*
1,1,.1524,.0251,-.15*
20,1,.1524,.0251,-.15,.1501,.15,0.0*
1,1,.1524,.1501,.15*
20,1,.1524,.1501,.15,.2751,-.15,0.0*
1,1,.1524,.2751,-.15*
1,1,.1524,.2301,-.045*
20,1,.1524,.2301,-.045,.0701,-.045,0.0*
1,1,.1524,.0701,-.045*
%
%ADD17MACRO17*%
%AMMACRO16*
1,1,.1524,-.55,.3*
20,1,.1524,-.55,.3,.55,.3,0.0*
1,1,.1524,.55,.3*
20,1,.1524,.55,.3,.602094,.295442,0.0*
1,1,.1524,.602094,.295442*
20,1,.1524,.602094,.295442,.652606,.281908,0.0*
1,1,.1524,.652606,.281908*
20,1,.1524,.652606,.281908,.7,.259808,0.0*
1,1,.1524,.7,.259808*
20,1,.1524,.7,.259808,.742836,.229813,0.0*
1,1,.1524,.742836,.229813*
20,1,.1524,.742836,.229813,.779813,.192836,0.0*
1,1,.1524,.779813,.192836*
20,1,.1524,.779813,.192836,.809808,.15,0.0*
1,1,.1524,.809808,.15*
20,1,.1524,.809808,.15,.831908,.102606,0.0*
1,1,.1524,.831908,.102606*
20,1,.1524,.831908,.102606,.845442,.052094,0.0*
1,1,.1524,.845442,.052094*
20,1,.1524,.845442,.052094,.85,0.0,0.0*
1,1,.1524,.85,0.0*
20,1,.1524,.85,0.0,.845442,-.052094,0.0*
1,1,.1524,.845442,-.052094*
20,1,.1524,.845442,-.052094,.831908,-.102606,0.0*
1,1,.1524,.831908,-.102606*
20,1,.1524,.831908,-.102606,.809808,-.15,0.0*
1,1,.1524,.809808,-.15*
20,1,.1524,.809808,-.15,.779813,-.192836,0.0*
1,1,.1524,.779813,-.192836*
20,1,.1524,.779813,-.192836,.742836,-.229813,0.0*
1,1,.1524,.742836,-.229813*
20,1,.1524,.742836,-.229813,.7,-.259808,0.0*
1,1,.1524,.7,-.259808*
20,1,.1524,.7,-.259808,.652606,-.281908,0.0*
1,1,.1524,.652606,-.281908*
20,1,.1524,.652606,-.281908,.602094,-.295442,0.0*
1,1,.1524,.602094,-.295442*
20,1,.1524,.602094,-.295442,.55,-.3,0.0*
1,1,.1524,.55,-.3*
20,1,.1524,.55,-.3,-.55,-.3,0.0*
1,1,.1524,-.55,-.3*
20,1,.1524,-.55,-.3,-.602094,-.295442,0.0*
1,1,.1524,-.602094,-.295442*
20,1,.1524,-.602094,-.295442,-.652606,-.281908,0.0*
1,1,.1524,-.652606,-.281908*
20,1,.1524,-.652606,-.281908,-.7,-.259808,0.0*
1,1,.1524,-.7,-.259808*
20,1,.1524,-.7,-.259808,-.742836,-.229813,0.0*
1,1,.1524,-.742836,-.229813*
20,1,.1524,-.742836,-.229813,-.779813,-.192836,0.0*
1,1,.1524,-.779813,-.192836*
20,1,.1524,-.779813,-.192836,-.809808,-.15,0.0*
1,1,.1524,-.809808,-.15*
20,1,.1524,-.809808,-.15,-.831908,-.102606,0.0*
1,1,.1524,-.831908,-.102606*
20,1,.1524,-.831908,-.102606,-.845442,-.052094,0.0*
1,1,.1524,-.845442,-.052094*
20,1,.1524,-.845442,-.052094,-.85,0.0,0.0*
1,1,.1524,-.85,0.0*
20,1,.1524,-.85,0.0,-.845442,.052094,0.0*
1,1,.1524,-.845442,.052094*
20,1,.1524,-.845442,.052094,-.831908,.102606,0.0*
1,1,.1524,-.831908,.102606*
20,1,.1524,-.831908,.102606,-.809808,.15,0.0*
1,1,.1524,-.809808,.15*
20,1,.1524,-.809808,.15,-.779813,.192836,0.0*
1,1,.1524,-.779813,.192836*
20,1,.1524,-.779813,.192836,-.742836,.229813,0.0*
1,1,.1524,-.742836,.229813*
20,1,.1524,-.742836,.229813,-.7,.259808,0.0*
1,1,.1524,-.7,.259808*
20,1,.1524,-.7,.259808,-.652606,.281908,0.0*
1,1,.1524,-.652606,.281908*
20,1,.1524,-.652606,.281908,-.602094,.295442,0.0*
1,1,.1524,-.602094,.295442*
20,1,.1524,-.602094,.295442,-.55,.3,0.0*
1,1,.1524,-.55,.3*
1,1,.1524,-.15,-.15*
20,1,.1524,-.15,-.15,-.19,-.145,0.0*
1,1,.1524,-.19,-.145*
20,1,.1524,-.19,-.145,-.225,-.125,0.0*
1,1,.1524,-.225,-.125*
20,1,.1524,-.225,-.125,-.255,-.095,0.0*
1,1,.1524,-.255,-.095*
20,1,.1524,-.255,-.095,-.275,-.06,0.0*
1,1,.1524,-.275,-.06*
20,1,.1524,-.275,-.06,-.285,-.02,0.0*
1,1,.1524,-.285,-.02*
20,1,.1524,-.285,-.02,-.285,.02,0.0*
1,1,.1524,-.285,.02*
20,1,.1524,-.285,.02,-.275,.06,0.0*
1,1,.1524,-.275,.06*
20,1,.1524,-.275,.06,-.255,.095,0.0*
1,1,.1524,-.255,.095*
20,1,.1524,-.255,.095,-.225,.125,0.0*
1,1,.1524,-.225,.125*
20,1,.1524,-.225,.125,-.19,.145,0.0*
1,1,.1524,-.19,.145*
20,1,.1524,-.19,.145,-.15,.15,0.0*
1,1,.1524,-.15,.15*
20,1,.1524,-.15,.15,-.11,.145,0.0*
1,1,.1524,-.11,.145*
20,1,.1524,-.11,.145,-.075,.125,0.0*
1,1,.1524,-.075,.125*
20,1,.1524,-.075,.125,-.045,.095,0.0*
1,1,.1524,-.045,.095*
20,1,.1524,-.045,.095,-.025,.06,0.0*
1,1,.1524,-.025,.06*
20,1,.1524,-.025,.06,-.015,.02,0.0*
1,1,.1524,-.015,.02*
20,1,.1524,-.015,.02,-.015,-.02,0.0*
1,1,.1524,-.015,-.02*
20,1,.1524,-.015,-.02,-.025,-.06,0.0*
1,1,.1524,-.025,-.06*
20,1,.1524,-.025,-.06,-.045,-.095,0.0*
1,1,.1524,-.045,-.095*
20,1,.1524,-.045,-.095,-.075,-.125,0.0*
1,1,.1524,-.075,-.125*
20,1,.1524,-.075,-.125,-.11,-.145,0.0*
1,1,.1524,-.11,-.145*
20,1,.1524,-.11,-.145,-.15,-.15,0.0*
1,1,.1524,-.15,-.15*
1,1,.1524,.1901,.01*
20,1,.1524,.1901,.01,.2101,.025,0.0*
1,1,.1524,.2101,.025*
20,1,.1524,.2101,.025,.2251,.05,0.0*
1,1,.1524,.2251,.05*
20,1,.1524,.2251,.05,.2351,.085,0.0*
1,1,.1524,.2351,.085*
20,1,.1524,.2351,.085,.2251,.115,0.0*
1,1,.1524,.2251,.115*
20,1,.1524,.2251,.115,.2051,.135,0.0*
1,1,.1524,.2051,.135*
20,1,.1524,.2051,.135,.1701,.15,0.0*
1,1,.1524,.1701,.15*
20,1,.1524,.1701,.15,.0351,.15,0.0*
1,1,.1524,.0351,.15*
20,1,.1524,.0351,.15,.0351,-.15,0.0*
1,1,.1524,.0351,-.15*
20,1,.1524,.0351,-.15,.2001,-.15,0.0*
1,1,.1524,.2001,-.15*
20,1,.1524,.2001,-.15,.2351,-.13,0.0*
1,1,.1524,.2351,-.13*
20,1,.1524,.2351,-.13,.2551,-.1,0.0*
1,1,.1524,.2551,-.1*
20,1,.1524,.2551,-.1,.2651,-.065,0.0*
1,1,.1524,.2651,-.065*
20,1,.1524,.2651,-.065,.2551,-.03,0.0*
1,1,.1524,.2551,-.03*
20,1,.1524,.2551,-.03,.2251,0.0,0.0*
1,1,.1524,.2251,0.0*
20,1,.1524,.2251,0.0,.1901,.01,0.0*
1,1,.1524,.1901,.01*
20,1,.1524,.1901,.01,.0351,.01,0.0*
1,1,.1524,.0351,.01*
%
%ADD16MACRO16*%
%AMMACRO14*
1,1,.1524,.127,0.0*
20,1,.1524,.127,0.0,-.127,0.0,0.0*
1,1,.1524,-.127,0.0*
1,1,.1524,0.0,.127*
20,1,.1524,0.0,.127,0.0,-.127,0.0*
1,1,.1524,0.0,-.127*
%
%ADD14MACRO14*%
%AMMACRO13*
1,1,.1524,.1524,.1524*
20,1,.1524,.1524,.1524,.1524,-.1524,0.0*
1,1,.1524,.1524,-.1524*
20,1,.1524,.1524,-.1524,-.1524,-.1524,0.0*
1,1,.1524,-.1524,-.1524*
20,1,.1524,-.1524,-.1524,-.1524,.1524,0.0*
1,1,.1524,-.1524,.1524*
20,1,.1524,-.1524,.1524,.1524,.1524,0.0*
1,1,.1524,.1524,.1524*
%
%ADD13MACRO13*%
%AMMACRO11*
1,1,.1524,-.5,-1.*
20,1,.1524,-.5,-1.,-.5,1.,0.0*
1,1,.1524,-.5,1.*
20,1,.1524,-.5,1.,-.492404,1.086824,0.0*
1,1,.1524,-.492404,1.086824*
20,1,.1524,-.492404,1.086824,-.469846,1.17101,0.0*
1,1,.1524,-.469846,1.17101*
20,1,.1524,-.469846,1.17101,-.433013,1.25,0.0*
1,1,.1524,-.433013,1.25*
20,1,.1524,-.433013,1.25,-.383022,1.321394,0.0*
1,1,.1524,-.383022,1.321394*
20,1,.1524,-.383022,1.321394,-.321394,1.383022,0.0*
1,1,.1524,-.321394,1.383022*
20,1,.1524,-.321394,1.383022,-.25,1.433013,0.0*
1,1,.1524,-.25,1.433013*
20,1,.1524,-.25,1.433013,-.17101,1.469846,0.0*
1,1,.1524,-.17101,1.469846*
20,1,.1524,-.17101,1.469846,-.086824,1.492404,0.0*
1,1,.1524,-.086824,1.492404*
20,1,.1524,-.086824,1.492404,0.0,1.5,0.0*
1,1,.1524,0.0,1.5*
20,1,.1524,0.0,1.5,.086824,1.492404,0.0*
1,1,.1524,.086824,1.492404*
20,1,.1524,.086824,1.492404,.17101,1.469846,0.0*
1,1,.1524,.17101,1.469846*
20,1,.1524,.17101,1.469846,.25,1.433013,0.0*
1,1,.1524,.25,1.433013*
20,1,.1524,.25,1.433013,.321394,1.383022,0.0*
1,1,.1524,.321394,1.383022*
20,1,.1524,.321394,1.383022,.383022,1.321394,0.0*
1,1,.1524,.383022,1.321394*
20,1,.1524,.383022,1.321394,.433013,1.25,0.0*
1,1,.1524,.433013,1.25*
20,1,.1524,.433013,1.25,.469846,1.17101,0.0*
1,1,.1524,.469846,1.17101*
20,1,.1524,.469846,1.17101,.492404,1.086824,0.0*
1,1,.1524,.492404,1.086824*
20,1,.1524,.492404,1.086824,.5,1.,0.0*
1,1,.1524,.5,1.*
20,1,.1524,.5,1.,.5,-1.,0.0*
1,1,.1524,.5,-1.*
20,1,.1524,.5,-1.,.492404,-1.086824,0.0*
1,1,.1524,.492404,-1.086824*
20,1,.1524,.492404,-1.086824,.469846,-1.17101,0.0*
1,1,.1524,.469846,-1.17101*
20,1,.1524,.469846,-1.17101,.433013,-1.25,0.0*
1,1,.1524,.433013,-1.25*
20,1,.1524,.433013,-1.25,.383022,-1.321394,0.0*
1,1,.1524,.383022,-1.321394*
20,1,.1524,.383022,-1.321394,.321394,-1.383022,0.0*
1,1,.1524,.321394,-1.383022*
20,1,.1524,.321394,-1.383022,.25,-1.433013,0.0*
1,1,.1524,.25,-1.433013*
20,1,.1524,.25,-1.433013,.17101,-1.469846,0.0*
1,1,.1524,.17101,-1.469846*
20,1,.1524,.17101,-1.469846,.086824,-1.492404,0.0*
1,1,.1524,.086824,-1.492404*
20,1,.1524,.086824,-1.492404,0.0,-1.5,0.0*
1,1,.1524,0.0,-1.5*
20,1,.1524,0.0,-1.5,-.086824,-1.492404,0.0*
1,1,.1524,-.086824,-1.492404*
20,1,.1524,-.086824,-1.492404,-.17101,-1.469846,0.0*
1,1,.1524,-.17101,-1.469846*
20,1,.1524,-.17101,-1.469846,-.25,-1.433013,0.0*
1,1,.1524,-.25,-1.433013*
20,1,.1524,-.25,-1.433013,-.321394,-1.383022,0.0*
1,1,.1524,-.321394,-1.383022*
20,1,.1524,-.321394,-1.383022,-.383022,-1.321394,0.0*
1,1,.1524,-.383022,-1.321394*
20,1,.1524,-.383022,-1.321394,-.433013,-1.25,0.0*
1,1,.1524,-.433013,-1.25*
20,1,.1524,-.433013,-1.25,-.469846,-1.17101,0.0*
1,1,.1524,-.469846,-1.17101*
20,1,.1524,-.469846,-1.17101,-.492404,-1.086824,0.0*
1,1,.1524,-.492404,-1.086824*
20,1,.1524,-.492404,-1.086824,-.5,-1.,0.0*
1,1,.1524,-.5,-1.*
1,1,.1524,-.25,-.25*
20,1,.1524,-.25,-.25,-.3167,-.2417,0.0*
1,1,.1524,-.3167,-.2417*
20,1,.1524,-.3167,-.2417,-.375,-.2083,0.0*
1,1,.1524,-.375,-.2083*
20,1,.1524,-.375,-.2083,-.425,-.1583,0.0*
1,1,.1524,-.425,-.1583*
20,1,.1524,-.425,-.1583,-.4583,-.1,0.0*
1,1,.1524,-.4583,-.1*
20,1,.1524,-.4583,-.1,-.475,-.0333,0.0*
1,1,.1524,-.475,-.0333*
20,1,.1524,-.475,-.0333,-.475,.0333,0.0*
1,1,.1524,-.475,.0333*
20,1,.1524,-.475,.0333,-.4583,.1,0.0*
1,1,.1524,-.4583,.1*
20,1,.1524,-.4583,.1,-.425,.1583,0.0*
1,1,.1524,-.425,.1583*
20,1,.1524,-.425,.1583,-.375,.2083,0.0*
1,1,.1524,-.375,.2083*
20,1,.1524,-.375,.2083,-.3167,.2417,0.0*
1,1,.1524,-.3167,.2417*
20,1,.1524,-.3167,.2417,-.25,.25,0.0*
1,1,.1524,-.25,.25*
20,1,.1524,-.25,.25,-.1833,.2417,0.0*
1,1,.1524,-.1833,.2417*
20,1,.1524,-.1833,.2417,-.125,.2083,0.0*
1,1,.1524,-.125,.2083*
20,1,.1524,-.125,.2083,-.075,.1583,0.0*
1,1,.1524,-.075,.1583*
20,1,.1524,-.075,.1583,-.0417,.1,0.0*
1,1,.1524,-.0417,.1*
20,1,.1524,-.0417,.1,-.025,.0333,0.0*
1,1,.1524,-.025,.0333*
20,1,.1524,-.025,.0333,-.025,-.0333,0.0*
1,1,.1524,-.025,-.0333*
20,1,.1524,-.025,-.0333,-.0417,-.1,0.0*
1,1,.1524,-.0417,-.1*
20,1,.1524,-.0417,-.1,-.075,-.1583,0.0*
1,1,.1524,-.075,-.1583*
20,1,.1524,-.075,-.1583,-.125,-.2083,0.0*
1,1,.1524,-.125,-.2083*
20,1,.1524,-.125,-.2083,-.1833,-.2417,0.0*
1,1,.1524,-.1833,-.2417*
20,1,.1524,-.1833,-.2417,-.25,-.25,0.0*
1,1,.1524,-.25,-.25*
1,1,.1524,.4334,.2083*
20,1,.1524,.4334,.2083,.3834,.2333,0.0*
1,1,.1524,.3834,.2333*
20,1,.1524,.3834,.2333,.3251,.25,0.0*
1,1,.1524,.3251,.25*
20,1,.1524,.3251,.25,.2584,.25,0.0*
1,1,.1524,.2584,.25*
20,1,.1524,.2584,.25,.1834,.225,0.0*
1,1,.1524,.1834,.225*
20,1,.1524,.1834,.225,.1251,.1833,0.0*
1,1,.1524,.1251,.1833*
20,1,.1524,.1251,.1833,.0834,.1333,0.0*
1,1,.1524,.0834,.1333*
20,1,.1524,.0834,.1333,.0501,.05,0.0*
1,1,.1524,.0501,.05*
20,1,.1524,.0501,.05,.0418,-.025,0.0*
1,1,.1524,.0418,-.025*
20,1,.1524,.0418,-.025,.0584,-.1,0.0*
1,1,.1524,.0584,-.1*
20,1,.1524,.0584,-.1,.0834,-.15,0.0*
1,1,.1524,.0834,-.15*
20,1,.1524,.0834,-.15,.1334,-.2,0.0*
1,1,.1524,.1334,-.2*
20,1,.1524,.1334,-.2,.1918,-.2333,0.0*
1,1,.1524,.1918,-.2333*
20,1,.1524,.1918,-.2333,.2501,-.25,0.0*
1,1,.1524,.2501,-.25*
20,1,.1524,.2501,-.25,.3084,-.25,0.0*
1,1,.1524,.3084,-.25*
20,1,.1524,.3084,-.25,.3668,-.2333,0.0*
1,1,.1524,.3668,-.2333*
20,1,.1524,.3668,-.2333,.4168,-.2083,0.0*
1,1,.1524,.4168,-.2083*
20,1,.1524,.4168,-.2083,.4584,-.175,0.0*
1,1,.1524,.4584,-.175*
%
%ADD11MACRO11*%
%AMMACRO12*
1,1,.1524,-1.,.5*
20,1,.1524,-1.,.5,1.,.5,0.0*
1,1,.1524,1.,.5*
20,1,.1524,1.,.5,1.086824,.492404,0.0*
1,1,.1524,1.086824,.492404*
20,1,.1524,1.086824,.492404,1.17101,.469846,0.0*
1,1,.1524,1.17101,.469846*
20,1,.1524,1.17101,.469846,1.25,.433013,0.0*
1,1,.1524,1.25,.433013*
20,1,.1524,1.25,.433013,1.321394,.383022,0.0*
1,1,.1524,1.321394,.383022*
20,1,.1524,1.321394,.383022,1.383022,.321394,0.0*
1,1,.1524,1.383022,.321394*
20,1,.1524,1.383022,.321394,1.433013,.25,0.0*
1,1,.1524,1.433013,.25*
20,1,.1524,1.433013,.25,1.469846,.17101,0.0*
1,1,.1524,1.469846,.17101*
20,1,.1524,1.469846,.17101,1.492404,.086824,0.0*
1,1,.1524,1.492404,.086824*
20,1,.1524,1.492404,.086824,1.5,0.0,0.0*
1,1,.1524,1.5,0.0*
20,1,.1524,1.5,0.0,1.492404,-.086824,0.0*
1,1,.1524,1.492404,-.086824*
20,1,.1524,1.492404,-.086824,1.469846,-.17101,0.0*
1,1,.1524,1.469846,-.17101*
20,1,.1524,1.469846,-.17101,1.433013,-.25,0.0*
1,1,.1524,1.433013,-.25*
20,1,.1524,1.433013,-.25,1.383022,-.321394,0.0*
1,1,.1524,1.383022,-.321394*
20,1,.1524,1.383022,-.321394,1.321394,-.383022,0.0*
1,1,.1524,1.321394,-.383022*
20,1,.1524,1.321394,-.383022,1.25,-.433013,0.0*
1,1,.1524,1.25,-.433013*
20,1,.1524,1.25,-.433013,1.17101,-.469846,0.0*
1,1,.1524,1.17101,-.469846*
20,1,.1524,1.17101,-.469846,1.086824,-.492404,0.0*
1,1,.1524,1.086824,-.492404*
20,1,.1524,1.086824,-.492404,1.,-.5,0.0*
1,1,.1524,1.,-.5*
20,1,.1524,1.,-.5,-1.,-.5,0.0*
1,1,.1524,-1.,-.5*
20,1,.1524,-1.,-.5,-1.086824,-.492404,0.0*
1,1,.1524,-1.086824,-.492404*
20,1,.1524,-1.086824,-.492404,-1.17101,-.469846,0.0*
1,1,.1524,-1.17101,-.469846*
20,1,.1524,-1.17101,-.469846,-1.25,-.433013,0.0*
1,1,.1524,-1.25,-.433013*
20,1,.1524,-1.25,-.433013,-1.321394,-.383022,0.0*
1,1,.1524,-1.321394,-.383022*
20,1,.1524,-1.321394,-.383022,-1.383022,-.321394,0.0*
1,1,.1524,-1.383022,-.321394*
20,1,.1524,-1.383022,-.321394,-1.433013,-.25,0.0*
1,1,.1524,-1.433013,-.25*
20,1,.1524,-1.433013,-.25,-1.469846,-.17101,0.0*
1,1,.1524,-1.469846,-.17101*
20,1,.1524,-1.469846,-.17101,-1.492404,-.086824,0.0*
1,1,.1524,-1.492404,-.086824*
20,1,.1524,-1.492404,-.086824,-1.5,0.0,0.0*
1,1,.1524,-1.5,0.0*
20,1,.1524,-1.5,0.0,-1.492404,.086824,0.0*
1,1,.1524,-1.492404,.086824*
20,1,.1524,-1.492404,.086824,-1.469846,.17101,0.0*
1,1,.1524,-1.469846,.17101*
20,1,.1524,-1.469846,.17101,-1.433013,.25,0.0*
1,1,.1524,-1.433013,.25*
20,1,.1524,-1.433013,.25,-1.383022,.321394,0.0*
1,1,.1524,-1.383022,.321394*
20,1,.1524,-1.383022,.321394,-1.321394,.383022,0.0*
1,1,.1524,-1.321394,.383022*
20,1,.1524,-1.321394,.383022,-1.25,.433013,0.0*
1,1,.1524,-1.25,.433013*
20,1,.1524,-1.25,.433013,-1.17101,.469846,0.0*
1,1,.1524,-1.17101,.469846*
20,1,.1524,-1.17101,.469846,-1.086824,.492404,0.0*
1,1,.1524,-1.086824,.492404*
20,1,.1524,-1.086824,.492404,-1.,.5,0.0*
1,1,.1524,-1.,.5*
1,1,.1524,-.25,-.25*
20,1,.1524,-.25,-.25,-.3167,-.2417,0.0*
1,1,.1524,-.3167,-.2417*
20,1,.1524,-.3167,-.2417,-.375,-.2083,0.0*
1,1,.1524,-.375,-.2083*
20,1,.1524,-.375,-.2083,-.425,-.1583,0.0*
1,1,.1524,-.425,-.1583*
20,1,.1524,-.425,-.1583,-.4583,-.1,0.0*
1,1,.1524,-.4583,-.1*
20,1,.1524,-.4583,-.1,-.475,-.0333,0.0*
1,1,.1524,-.475,-.0333*
20,1,.1524,-.475,-.0333,-.475,.0333,0.0*
1,1,.1524,-.475,.0333*
20,1,.1524,-.475,.0333,-.4583,.1,0.0*
1,1,.1524,-.4583,.1*
20,1,.1524,-.4583,.1,-.425,.1583,0.0*
1,1,.1524,-.425,.1583*
20,1,.1524,-.425,.1583,-.375,.2083,0.0*
1,1,.1524,-.375,.2083*
20,1,.1524,-.375,.2083,-.3167,.2417,0.0*
1,1,.1524,-.3167,.2417*
20,1,.1524,-.3167,.2417,-.25,.25,0.0*
1,1,.1524,-.25,.25*
20,1,.1524,-.25,.25,-.1833,.2417,0.0*
1,1,.1524,-.1833,.2417*
20,1,.1524,-.1833,.2417,-.125,.2083,0.0*
1,1,.1524,-.125,.2083*
20,1,.1524,-.125,.2083,-.075,.1583,0.0*
1,1,.1524,-.075,.1583*
20,1,.1524,-.075,.1583,-.0417,.1,0.0*
1,1,.1524,-.0417,.1*
20,1,.1524,-.0417,.1,-.025,.0333,0.0*
1,1,.1524,-.025,.0333*
20,1,.1524,-.025,.0333,-.025,-.0333,0.0*
1,1,.1524,-.025,-.0333*
20,1,.1524,-.025,-.0333,-.0417,-.1,0.0*
1,1,.1524,-.0417,-.1*
20,1,.1524,-.0417,-.1,-.075,-.1583,0.0*
1,1,.1524,-.075,-.1583*
20,1,.1524,-.075,-.1583,-.125,-.2083,0.0*
1,1,.1524,-.125,-.2083*
20,1,.1524,-.125,-.2083,-.1833,-.2417,0.0*
1,1,.1524,-.1833,-.2417*
20,1,.1524,-.1833,-.2417,-.25,-.25,0.0*
1,1,.1524,-.25,-.25*
1,1,.1524,.4334,.2083*
20,1,.1524,.4334,.2083,.3834,.2333,0.0*
1,1,.1524,.3834,.2333*
20,1,.1524,.3834,.2333,.3251,.25,0.0*
1,1,.1524,.3251,.25*
20,1,.1524,.3251,.25,.2584,.25,0.0*
1,1,.1524,.2584,.25*
20,1,.1524,.2584,.25,.1834,.225,0.0*
1,1,.1524,.1834,.225*
20,1,.1524,.1834,.225,.1251,.1833,0.0*
1,1,.1524,.1251,.1833*
20,1,.1524,.1251,.1833,.0834,.1333,0.0*
1,1,.1524,.0834,.1333*
20,1,.1524,.0834,.1333,.0501,.05,0.0*
1,1,.1524,.0501,.05*
20,1,.1524,.0501,.05,.0418,-.025,0.0*
1,1,.1524,.0418,-.025*
20,1,.1524,.0418,-.025,.0584,-.1,0.0*
1,1,.1524,.0584,-.1*
20,1,.1524,.0584,-.1,.0834,-.15,0.0*
1,1,.1524,.0834,-.15*
20,1,.1524,.0834,-.15,.1334,-.2,0.0*
1,1,.1524,.1334,-.2*
20,1,.1524,.1334,-.2,.1918,-.2333,0.0*
1,1,.1524,.1918,-.2333*
20,1,.1524,.1918,-.2333,.2501,-.25,0.0*
1,1,.1524,.2501,-.25*
20,1,.1524,.2501,-.25,.3084,-.25,0.0*
1,1,.1524,.3084,-.25*
20,1,.1524,.3084,-.25,.3668,-.2333,0.0*
1,1,.1524,.3668,-.2333*
20,1,.1524,.3668,-.2333,.4168,-.2083,0.0*
1,1,.1524,.4168,-.2083*
20,1,.1524,.4168,-.2083,.4584,-.175,0.0*
1,1,.1524,.4584,-.175*
%
%ADD12MACRO12*%
%AMMACRO10*
1,1,.1524,0.0,1.65*
20,1,.1524,0.0,1.65,-1.428942,.825,0.0*
1,1,.1524,-1.428942,.825*
20,1,.1524,-1.428942,.825,-1.428942,-.825,0.0*
1,1,.1524,-1.428942,-.825*
20,1,.1524,-1.428942,-.825,0.0,-1.65,0.0*
1,1,.1524,0.0,-1.65*
20,1,.1524,0.0,-1.65,1.428942,-.825,0.0*
1,1,.1524,1.428942,-.825*
20,1,.1524,1.428942,-.825,1.428942,.825,0.0*
1,1,.1524,1.428942,.825*
20,1,.1524,1.428942,.825,0.0,1.65,0.0*
1,1,.1524,0.0,1.65*
%
%ADD10MACRO10*%
%AMMACRO15*
1,1,.1524,.4,0.0*
20,1,.1524,.4,0.0,.2,.34641,0.0*
1,1,.1524,.2,.34641*
20,1,.1524,.2,.34641,-.2,.34641,0.0*
1,1,.1524,-.2,.34641*
20,1,.1524,-.2,.34641,-.4,0.0,0.0*
1,1,.1524,-.4,0.0*
20,1,.1524,-.4,0.0,-.2,-.34641,0.0*
1,1,.1524,-.2,-.34641*
20,1,.1524,-.2,-.34641,.2,-.34641,0.0*
1,1,.1524,.2,-.34641*
20,1,.1524,.2,-.34641,.4,0.0,0.0*
1,1,.1524,.4,0.0*
%
%ADD15MACRO15*%
%ADD18C,.1524*%
G75*
%LPD*%
G75*
G54D10*
X360000Y360000D03*
Y5040000D03*
X8140000Y360000D03*
Y5040000D03*
X10661730Y2657500D03*
G54D11*
X810000Y2700000D03*
X1410000D03*
X10661730Y117500D03*
G54D12*
X1130000Y2220000D03*
X10661730Y752500D03*
G54D13*
X2314130Y242020D03*
Y642020D03*
X2319810Y1114550D03*
Y1514550D03*
X2359810Y3874550D03*
Y4274550D03*
Y4734550D03*
Y5134550D03*
X2714130Y242020D03*
Y642020D03*
X2704130Y1112020D03*
X2589810Y2104550D03*
Y2504550D03*
Y2854550D03*
Y3254550D03*
X2759810Y4734550D03*
Y5134550D03*
X3114130Y242020D03*
Y642020D03*
X3104130Y1112020D03*
X3514130Y242020D03*
Y642020D03*
X3504130Y1112020D03*
X3159810Y3884550D03*
Y4284550D03*
Y4734550D03*
Y5134550D03*
X3559810Y3874550D03*
Y4274550D03*
Y4734550D03*
Y5134550D03*
X3914130Y242020D03*
Y642020D03*
X3959810Y4734550D03*
Y5134550D03*
X4314130Y242020D03*
Y642020D03*
X4454550Y3600190D03*
X4359810Y4734550D03*
Y5134550D03*
X4714130Y242020D03*
Y642020D03*
Y1002020D03*
X4674550Y2430190D03*
X4684550Y2780190D03*
X4854550Y3600190D03*
X4759810Y4734550D03*
Y5134550D03*
X5114130Y242020D03*
Y642020D03*
Y1002020D03*
X5060000Y2440000D03*
Y2780000D03*
X5234550Y3590190D03*
X5159810Y4734550D03*
Y5134550D03*
X5514130Y242020D03*
Y642020D03*
Y1002020D03*
X5634550Y3590190D03*
X5559810Y4734550D03*
Y5134550D03*
X5914130Y242020D03*
Y642020D03*
Y1002020D03*
X5990000Y3590000D03*
X5959810Y4734550D03*
Y5134550D03*
X6314130Y242020D03*
Y642020D03*
Y1002020D03*
X6364550Y3580190D03*
X6359810Y4734550D03*
Y5134550D03*
X6714130Y242020D03*
Y642020D03*
Y1002020D03*
X6754130Y2152020D03*
Y2422020D03*
X6764550Y3580190D03*
X6759810Y4734550D03*
Y5134550D03*
X7114130Y242020D03*
Y642020D03*
X7104130Y1012020D03*
X7154130Y2152020D03*
Y2422020D03*
X7159810Y4734550D03*
Y5134550D03*
X7514130Y242020D03*
Y642020D03*
X7504130Y1012020D03*
X7559810Y4734550D03*
Y5134550D03*
X7884130Y2362020D03*
X7984550Y3230190D03*
Y3630190D03*
Y4030190D03*
X8282020Y1535870D03*
Y1935870D03*
X8284130Y2362020D03*
X8384550Y3230190D03*
Y3630190D03*
Y4030190D03*
X10661730Y3927500D03*
G54D14*
X2160000Y3120000D03*
X2260000D03*
X2360000D03*
Y3020000D03*
X2260000D03*
Y2920000D03*
X2360000D03*
X2160000Y3220000D03*
X2260000D03*
X2360000D03*
X3090000Y1530000D03*
X2990000Y1800000D03*
Y2100000D03*
X3120000Y2700000D03*
Y2570000D03*
X2990000Y2380000D03*
X3120000Y2830000D03*
X2930000Y3160000D03*
X3070000D03*
X3210000Y1770000D03*
X3370000Y1650000D03*
X3400000Y1950000D03*
X3510000D03*
X3250000Y2700000D03*
X3380000D03*
X3250000Y2570000D03*
X3380000D03*
X3250000Y2830000D03*
X3380000D03*
X3225000Y3160000D03*
X3360000Y3450000D03*
X3470000D03*
X3580000Y1650000D03*
X3610000Y1950000D03*
X3840000Y2370000D03*
X3640000Y2540000D03*
X3840000D03*
X3580000Y3450000D03*
X4070000Y1200000D03*
X4140000D03*
X4210000D03*
X4070000Y1130000D03*
X4140000D03*
X4210000D03*
X4070000Y1060000D03*
X4140000D03*
X4210000D03*
X4070000Y2450000D03*
X4080000Y3850000D03*
X4140000D03*
X4200000D03*
X4210000Y4250000D03*
X4150000D03*
X4090000D03*
X4080000Y3920000D03*
X4140000D03*
X4200000D03*
X4310000Y1130000D03*
X4370000Y4280000D03*
X5660000Y2300000D03*
X5770000D03*
Y2210000D03*
X5660000D03*
X5770000Y2120000D03*
X5660000D03*
X5670000Y3130000D03*
X5780000D03*
Y3320000D03*
X5670000D03*
X5780000Y3230000D03*
X5670000D03*
X7500000Y1690000D03*
Y1900000D03*
X7680000Y2530000D03*
X10661730Y4562500D03*
G54D15*
X3730000Y1650000D03*
Y1950000D03*
Y3450000D03*
Y3750000D03*
X4890000Y1225000D03*
Y1475000D03*
Y4196100D03*
Y3946100D03*
X5945000Y2140000D03*
X6195000D03*
X5945000Y3270000D03*
X6195000D03*
X6340000Y1225000D03*
Y1475000D03*
Y4196100D03*
Y3946100D03*
X10661730Y3292500D03*
G54D16*
X7864000Y1292530D03*
Y2156530D03*
X10661730Y1387500D03*
G54D17*
X8282000Y1292530D03*
Y2156530D03*
X10661730Y2022500D03*
G54D18*
G01X-1387400Y2523320D02*
X-1373180Y2507450D01*
X-1356590Y2497920D01*
X-1335250Y2494750D01*
X-1313910Y2501100D01*
X-1297320Y2513800D01*
X-1285470Y2536020D01*
X-1283100Y2561420D01*
X-1287840Y2586820D01*
X-1299690Y2602700D01*
X-1316290Y2615400D01*
X-1332880Y2618570D01*
X-1349470Y2615400D01*
X-1370810Y2602700D01*
X-1363700Y2685250D01*
X-1299690D01*
G01X-1116300Y2494750D02*
Y2685250D01*
X-1204020Y2548730D01*
X-1085480D01*
G01X-777300Y2514420D02*
Y2704920D01*
X-865020Y2568400D01*
X-746480D01*
G01X-660290Y2593790D02*
X-643700Y2616020D01*
X-629470Y2628720D01*
X-610510Y2635070D01*
X-593910Y2628720D01*
X-582060Y2616020D01*
X-572580Y2596970D01*
X-570210Y2574740D01*
X-572580Y2555690D01*
X-582060Y2536640D01*
X-596290Y2520770D01*
X-612880Y2514420D01*
X-631840Y2520770D01*
X-648440Y2539810D01*
X-657920Y2568400D01*
X-660290Y2600140D01*
X-655550Y2641420D01*
X-648440Y2663650D01*
X-636590Y2685870D01*
X-619990Y2701750D01*
X-603400Y2704920D01*
X-586800Y2698570D01*
X-574950Y2682690D01*
G01X-424750Y2508070D02*
X-429490Y2511250D01*
Y2517590D01*
X-424750Y2520770D01*
X-420010Y2517590D01*
Y2511250D01*
X-424750Y2508070D01*
G01X-234250Y2514420D02*
X-217660Y2517590D01*
X-198690Y2527120D01*
X-186840Y2542990D01*
X-182100Y2565220D01*
X-186840Y2587440D01*
X-201060Y2606490D01*
X-222400Y2616020D01*
X-246100D01*
X-260330Y2622370D01*
X-272180Y2638240D01*
X-276920Y2660470D01*
X-269810Y2682690D01*
X-253220Y2698570D01*
X-234250Y2704920D01*
X-215290Y2698570D01*
X-198690Y2682690D01*
X-191580Y2660470D01*
X-196320Y2638240D01*
X-208170Y2622370D01*
X-222400Y2616020D01*
X-246100D01*
X-267440Y2606490D01*
X-281660Y2587440D01*
X-286400Y2565220D01*
X-281660Y2542990D01*
X-269810Y2527120D01*
X-250840Y2517590D01*
X-234250Y2514420D01*
G01X3904750Y-1125250D02*
X3921340Y-1122080D01*
X3940310Y-1112550D01*
X3952160Y-1096680D01*
X3956900Y-1074450D01*
X3952160Y-1052230D01*
X3937940Y-1033180D01*
X3916600Y-1023650D01*
X3892900D01*
X3878670Y-1017300D01*
X3866820Y-1001430D01*
X3862080Y-979200D01*
X3869190Y-956980D01*
X3885780Y-941100D01*
X3904750Y-934750D01*
X3923710Y-941100D01*
X3940310Y-956980D01*
X3947420Y-979200D01*
X3942680Y-1001430D01*
X3930830Y-1017300D01*
X3916600Y-1023650D01*
X3892900D01*
X3871560Y-1033180D01*
X3857340Y-1052230D01*
X3852600Y-1074450D01*
X3857340Y-1096680D01*
X3869190Y-1112550D01*
X3888160Y-1122080D01*
X3904750Y-1125250D01*
G01X4043100Y-1096680D02*
X4057320Y-1112550D01*
X4073910Y-1122080D01*
X4095250Y-1125250D01*
X4116590Y-1118900D01*
X4133180Y-1106200D01*
X4145030Y-1083980D01*
X4147400Y-1058580D01*
X4142660Y-1033180D01*
X4130810Y-1017300D01*
X4114210Y-1004600D01*
X4097620Y-1001430D01*
X4081030Y-1004600D01*
X4059690Y-1017300D01*
X4066800Y-934750D01*
X4130810D01*
G01X3719510Y-595250D02*
X3724250Y-553980D01*
X3731360Y-519050D01*
X3740840Y-487300D01*
X3752700Y-452380D01*
X3771660Y-404750D01*
X3676840D01*
G01X3910010Y-595250D02*
X3914750Y-553980D01*
X3921860Y-519050D01*
X3931340Y-487300D01*
X3943200Y-452380D01*
X3962160Y-404750D01*
X3867340D01*
G01X4105250Y-601600D02*
X4100510Y-598420D01*
Y-592080D01*
X4105250Y-588900D01*
X4109990Y-592080D01*
Y-598420D01*
X4105250Y-601600D01*
G01X4295750Y-595250D02*
X4312340Y-592080D01*
X4331310Y-582550D01*
X4343160Y-566680D01*
X4347900Y-544450D01*
X4343160Y-522230D01*
X4328940Y-503180D01*
X4307600Y-493650D01*
X4283900D01*
X4269670Y-487300D01*
X4257820Y-471430D01*
X4253080Y-449200D01*
X4260190Y-426980D01*
X4276780Y-411100D01*
X4295750Y-404750D01*
X4314710Y-411100D01*
X4331310Y-426980D01*
X4338420Y-449200D01*
X4333680Y-471430D01*
X4321830Y-487300D01*
X4307600Y-493650D01*
X4283900D01*
X4262560Y-503180D01*
X4248340Y-522230D01*
X4243600Y-544450D01*
X4248340Y-566680D01*
X4260190Y-582550D01*
X4279160Y-592080D01*
X4295750Y-595250D01*
G01X9799520Y5038750D02*
Y5356250D01*
X9949140D01*
G01X9894010Y5202800D02*
X9799520D01*
G01X10142050Y5356250D02*
X10236530D01*
G01X10189290D02*
Y5038750D01*
G01X10142050D02*
X10236530D01*
G01X10527870Y5197500D02*
X10606620D01*
Y5102250D01*
X10582990Y5070490D01*
X10555430Y5049330D01*
X10516060Y5038750D01*
X10476690Y5049330D01*
X10449130Y5070490D01*
X10425510Y5102250D01*
X10409760Y5139290D01*
X10401880Y5181620D01*
Y5218670D01*
X10409760Y5250410D01*
X10425510Y5287460D01*
X10449130Y5319210D01*
X10472750Y5340370D01*
X10504250Y5356250D01*
X10531810D01*
X10563300Y5345670D01*
X10586930Y5324500D01*
G01X10732600Y5356250D02*
Y5128710D01*
X10748340Y5081070D01*
X10779840Y5049330D01*
X10819210Y5038750D01*
X10858580Y5049330D01*
X10890080Y5081070D01*
X10905820Y5128710D01*
Y5356250D01*
G01X11055430Y5038750D02*
Y5356250D01*
X11153850D01*
X11185350Y5340370D01*
X11205040Y5319210D01*
X11212910Y5276870D01*
X11205040Y5234540D01*
X11181410Y5208090D01*
X11153850Y5192200D01*
X11055430D01*
G01X11153850D02*
X11212910Y5038750D01*
G01X11527870D02*
X11370390D01*
Y5356250D01*
X11527870D01*
G01X11464880Y5202800D02*
X11370390D01*
G01X12397940Y5038750D02*
Y5356250D01*
X12547560D01*
G01X12492430Y5202800D02*
X12397940D01*
G01X12740470Y5356250D02*
X12834950D01*
G01X12787710D02*
Y5038750D01*
G01X12740470D02*
X12834950D01*
G01X13012120D02*
Y5356250D01*
X13193220Y5038750D01*
Y5356250D01*
G01X13370390D02*
X13464870D01*
G01X13417630D02*
Y5038750D01*
G01X13370390D02*
X13464870D01*
G01X13649910Y5081070D02*
X13681410Y5054620D01*
X13716840Y5038750D01*
X13748340D01*
X13779830Y5054620D01*
X13803460Y5081070D01*
X13815270Y5118130D01*
X13807400Y5155160D01*
X13787710Y5186910D01*
X13752270Y5208090D01*
X13705030Y5218670D01*
X13677470Y5239830D01*
X13665660Y5276870D01*
X13673540Y5313920D01*
X13693220Y5340370D01*
X13720780Y5356250D01*
X13748340D01*
X13775900Y5345670D01*
X13799520Y5319210D01*
G01X13964870Y5038750D02*
Y5356250D01*
G01X14130230D02*
Y5038750D01*
G01Y5197500D02*
X13964870D01*
G01X14441250Y5038750D02*
X14283770D01*
Y5356250D01*
X14441250D01*
G01X14378260Y5202800D02*
X14283770D01*
G01X14590860Y5038750D02*
Y5356250D01*
X14669590D01*
X14701090Y5340370D01*
X14724710Y5319210D01*
X14744400Y5287460D01*
X14760150Y5250410D01*
X14764080Y5197500D01*
X14760150Y5144580D01*
X14744400Y5107540D01*
X14724710Y5075780D01*
X14701090Y5054620D01*
X14669590Y5038750D01*
X14590860D01*
G01X14874320Y4932920D02*
X15110540D01*
G01X15224710Y5081070D02*
X15256210Y5054620D01*
X15291640Y5038750D01*
X15323140D01*
X15354630Y5054620D01*
X15378260Y5081070D01*
X15390070Y5118130D01*
X15382200Y5155160D01*
X15362510Y5186910D01*
X15327070Y5208090D01*
X15279830Y5218670D01*
X15252270Y5239830D01*
X15240460Y5276870D01*
X15248340Y5313920D01*
X15268020Y5340370D01*
X15295580Y5356250D01*
X15323140D01*
X15350700Y5345670D01*
X15374320Y5319210D01*
G01X15575110Y5356250D02*
X15669590D01*
G01X15622350D02*
Y5038750D01*
G01X15575110D02*
X15669590D01*
G01X15862500Y5356250D02*
X16012120D01*
X15862500Y5038750D01*
X16012120D01*
G01X16331010D02*
X16173530D01*
Y5356250D01*
X16331010D01*
G01X16268020Y5202800D02*
X16173530D01*
G01X13331020Y22250D02*
X13354630Y-14800D01*
X13386130Y-35960D01*
X13421570Y-41250D01*
X13453070Y-35960D01*
X13484560Y-9510D01*
X13504240Y22250D01*
X13508180Y54000D01*
X13500310Y91030D01*
X13472750Y117500D01*
X13445190Y128090D01*
X13409750D01*
G01X13445190D02*
X13468810Y143960D01*
X13488500Y170410D01*
X13496370Y202160D01*
X13488500Y233920D01*
X13468810Y260370D01*
X13433380Y276250D01*
X13397950Y270960D01*
X13362510Y249790D01*
G01X13732590Y-51830D02*
X13724710Y-46540D01*
Y-35960D01*
X13732590Y-30670D01*
X13740470Y-35960D01*
Y-46540D01*
X13732590Y-51830D01*
G01X14047550Y276250D02*
X14016050Y265670D01*
X13992430Y239210D01*
X13976680Y207460D01*
X13964870Y165120D01*
X13960940Y117500D01*
X13964870Y69870D01*
X13976680Y27540D01*
X13992430Y-4220D01*
X14016050Y-30670D01*
X14047550Y-41250D01*
X14079040Y-30670D01*
X14102670Y-4220D01*
X14118420Y27540D01*
X14130230Y69870D01*
X14134160Y117500D01*
X14130230Y165120D01*
X14118420Y207460D01*
X14102670Y239210D01*
X14079040Y265670D01*
X14047550Y276250D01*
G01X14303460Y170410D02*
X14421560Y-41250D01*
G01Y170410D02*
X14303460Y-41250D01*
G01X14677470D02*
Y276250D01*
X14630230Y212750D01*
G01Y-41250D02*
X14724710D01*
G01X14992430Y-51830D02*
X14984550Y-46540D01*
Y-35960D01*
X14992430Y-30670D01*
X15000310Y-35960D01*
Y-46540D01*
X14992430Y-51830D01*
G01X15307390Y276250D02*
X15275890Y265670D01*
X15252270Y239210D01*
X15236520Y207460D01*
X15224710Y165120D01*
X15220780Y117500D01*
X15224710Y69870D01*
X15236520Y27540D01*
X15252270Y-4220D01*
X15275890Y-30670D01*
X15307390Y-41250D01*
X15338880Y-30670D01*
X15362510Y-4220D01*
X15378260Y27540D01*
X15390070Y69870D01*
X15394000Y117500D01*
X15390070Y165120D01*
X15378260Y207460D01*
X15362510Y239210D01*
X15338880Y265670D01*
X15307390Y276250D01*
G01X13331020Y657250D02*
X13354630Y620200D01*
X13386130Y599040D01*
X13421570Y593750D01*
X13453070Y599040D01*
X13484560Y625490D01*
X13504240Y657250D01*
X13508180Y689000D01*
X13500310Y726030D01*
X13472750Y752500D01*
X13445190Y763090D01*
X13409750D01*
G01X13445190D02*
X13468810Y778960D01*
X13488500Y805410D01*
X13496370Y837160D01*
X13488500Y868920D01*
X13468810Y895370D01*
X13433380Y911250D01*
X13397950Y905960D01*
X13362510Y884790D01*
G01X13732590Y583170D02*
X13724710Y588460D01*
Y599040D01*
X13732590Y604330D01*
X13740470Y599040D01*
Y588460D01*
X13732590Y583170D01*
G01X14047550Y911250D02*
X14016050Y900670D01*
X13992430Y874210D01*
X13976680Y842460D01*
X13964870Y800120D01*
X13960940Y752500D01*
X13964870Y704870D01*
X13976680Y662540D01*
X13992430Y630780D01*
X14016050Y604330D01*
X14047550Y593750D01*
X14079040Y604330D01*
X14102670Y630780D01*
X14118420Y662540D01*
X14130230Y704870D01*
X14134160Y752500D01*
X14130230Y800120D01*
X14118420Y842460D01*
X14102670Y874210D01*
X14079040Y900670D01*
X14047550Y911250D01*
G01X14303460Y805410D02*
X14421560Y593750D01*
G01Y805410D02*
X14303460Y593750D01*
G01X14677470D02*
Y911250D01*
X14630230Y847750D01*
G01Y593750D02*
X14724710D01*
G01X14992430Y583170D02*
X14984550Y588460D01*
Y599040D01*
X14992430Y604330D01*
X15000310Y599040D01*
Y588460D01*
X14992430Y583170D01*
G01X15307390Y911250D02*
X15275890Y900670D01*
X15252270Y874210D01*
X15236520Y842460D01*
X15224710Y800120D01*
X15220780Y752500D01*
X15224710Y704870D01*
X15236520Y662540D01*
X15252270Y630780D01*
X15275890Y604330D01*
X15307390Y593750D01*
X15338880Y604330D01*
X15362510Y630780D01*
X15378260Y662540D01*
X15390070Y704870D01*
X15394000Y752500D01*
X15390070Y800120D01*
X15378260Y842460D01*
X15362510Y874210D01*
X15338880Y900670D01*
X15307390Y911250D01*
G01X13417630Y1228750D02*
Y1546250D01*
X13370390Y1482750D01*
G01Y1228750D02*
X13464870D01*
G01X13732590Y1218170D02*
X13724710Y1223460D01*
Y1234040D01*
X13732590Y1239330D01*
X13740470Y1234040D01*
Y1223460D01*
X13732590Y1218170D01*
G01X14039670Y1228750D02*
X14047550Y1297540D01*
X14059360Y1355740D01*
X14075110Y1408670D01*
X14094790Y1466870D01*
X14126290Y1546250D01*
X13968810D01*
G01X14303460Y1440410D02*
X14421560Y1228750D01*
G01Y1440410D02*
X14303460Y1228750D01*
G01X14677470Y1546250D02*
X14645970Y1535670D01*
X14622350Y1509210D01*
X14606600Y1477460D01*
X14594790Y1435120D01*
X14590860Y1387500D01*
X14594790Y1339870D01*
X14606600Y1297540D01*
X14622350Y1265780D01*
X14645970Y1239330D01*
X14677470Y1228750D01*
X14708960Y1239330D01*
X14732590Y1265780D01*
X14748340Y1297540D01*
X14760150Y1339870D01*
X14764080Y1387500D01*
X14760150Y1435120D01*
X14748340Y1477460D01*
X14732590Y1509210D01*
X14708960Y1535670D01*
X14677470Y1546250D01*
G01X14992430Y1218170D02*
X14984550Y1223460D01*
Y1234040D01*
X14992430Y1239330D01*
X15000310Y1234040D01*
Y1223460D01*
X14992430Y1218170D01*
G01X15232580Y1361030D02*
X15260150Y1398090D01*
X15283770Y1419250D01*
X15315270Y1429830D01*
X15342830Y1419250D01*
X15362510Y1398090D01*
X15378260Y1366330D01*
X15382200Y1329290D01*
X15378260Y1297540D01*
X15362510Y1265780D01*
X15338880Y1239330D01*
X15311330Y1228750D01*
X15279830Y1239330D01*
X15252270Y1271070D01*
X15236520Y1318710D01*
X15232580Y1371620D01*
X15240460Y1440410D01*
X15252270Y1477460D01*
X15271950Y1514500D01*
X15299510Y1540960D01*
X15327070Y1546250D01*
X15354630Y1535670D01*
X15374320Y1509210D01*
G01X13417630Y1863750D02*
Y2181250D01*
X13370390Y2117750D01*
G01Y1863750D02*
X13464870D01*
G01X13732590Y1853170D02*
X13724710Y1858460D01*
Y1869040D01*
X13732590Y1874330D01*
X13740470Y1869040D01*
Y1858460D01*
X13732590Y1853170D01*
G01X13972740Y2128330D02*
X13996370Y2160080D01*
X14023930Y2175960D01*
X14055430Y2181250D01*
X14094790Y2170670D01*
X14122360Y2144210D01*
X14130230Y2112460D01*
X14126290Y2080700D01*
X14110540Y2054250D01*
X14031800Y2001330D01*
X13996370Y1964290D01*
X13972740Y1911360D01*
X13964870Y1863750D01*
X14130230D01*
G01X14303460Y2075410D02*
X14421560Y1863750D01*
G01Y2075410D02*
X14303460Y1863750D01*
G01X14677470Y2181250D02*
X14645970Y2170670D01*
X14622350Y2144210D01*
X14606600Y2112460D01*
X14594790Y2070120D01*
X14590860Y2022500D01*
X14594790Y1974870D01*
X14606600Y1932540D01*
X14622350Y1900780D01*
X14645970Y1874330D01*
X14677470Y1863750D01*
X14708960Y1874330D01*
X14732590Y1900780D01*
X14748340Y1932540D01*
X14760150Y1974870D01*
X14764080Y2022500D01*
X14760150Y2070120D01*
X14748340Y2112460D01*
X14732590Y2144210D01*
X14708960Y2170670D01*
X14677470Y2181250D01*
G01X14992430Y1853170D02*
X14984550Y1858460D01*
Y1869040D01*
X14992430Y1874330D01*
X15000310Y1869040D01*
Y1858460D01*
X14992430Y1853170D01*
G01X15232580Y1996030D02*
X15260150Y2033090D01*
X15283770Y2054250D01*
X15315270Y2064830D01*
X15342830Y2054250D01*
X15362510Y2033090D01*
X15378260Y2001330D01*
X15382200Y1964290D01*
X15378260Y1932540D01*
X15362510Y1900780D01*
X15338880Y1874330D01*
X15311330Y1863750D01*
X15279830Y1874330D01*
X15252270Y1906070D01*
X15236520Y1953710D01*
X15232580Y2006620D01*
X15240460Y2075410D01*
X15252270Y2112460D01*
X15271950Y2149500D01*
X15299510Y2175960D01*
X15327070Y2181250D01*
X15354630Y2170670D01*
X15374320Y2144210D01*
G01X13082980Y5673750D02*
X13181410Y5991250D01*
X13279840Y5673750D01*
G01X13244400Y5784870D02*
X13118410D01*
G01X13417630Y5991250D02*
Y5673750D01*
X13575110D01*
G01X13732590Y5991250D02*
Y5673750D01*
X13890070D01*
G01X14354640Y5991250D02*
Y5763710D01*
X14370380Y5716070D01*
X14401880Y5684330D01*
X14441250Y5673750D01*
X14480620Y5684330D01*
X14512120Y5716070D01*
X14527860Y5763710D01*
Y5991250D01*
G01X14665660Y5673750D02*
Y5991250D01*
X14846760Y5673750D01*
Y5991250D01*
G01X15023930D02*
X15118410D01*
G01X15071170D02*
Y5673750D01*
G01X15023930D02*
X15118410D01*
G01X15386130Y5991250D02*
Y5673750D01*
G01X15295580Y5991250D02*
X15476680D01*
G01X15618410Y5716070D02*
X15649910Y5689620D01*
X15685340Y5673750D01*
X15716840D01*
X15748330Y5689620D01*
X15771960Y5716070D01*
X15783770Y5753130D01*
X15775900Y5790160D01*
X15756210Y5821910D01*
X15720770Y5843090D01*
X15673530Y5853670D01*
X15645970Y5874830D01*
X15634160Y5911870D01*
X15642040Y5948920D01*
X15661720Y5975370D01*
X15689280Y5991250D01*
X15716840D01*
X15744400Y5980670D01*
X15768020Y5954210D01*
G01X16232580Y5673750D02*
X16331010Y5991250D01*
X16429440Y5673750D01*
G01X16394000Y5784870D02*
X16268010D01*
G01X16567230Y5673750D02*
Y5991250D01*
X16665650D01*
X16697150Y5975370D01*
X16716840Y5954210D01*
X16724710Y5911870D01*
X16716840Y5869540D01*
X16693210Y5843090D01*
X16665650Y5827200D01*
X16567230D01*
G01X16665650D02*
X16724710Y5673750D01*
G01X17039670D02*
X16882190D01*
Y5991250D01*
X17039670D01*
G01X16976680Y5837800D02*
X16882190D01*
G01X17543610Y5991250D02*
X17638090D01*
G01X17590850D02*
Y5673750D01*
G01X17543610D02*
X17638090D01*
G01X17815260D02*
Y5991250D01*
X17996360Y5673750D01*
Y5991250D01*
G01X18433360Y5673750D02*
Y5991250D01*
X18535730Y5726670D01*
X18638100Y5991250D01*
Y5673750D01*
G01X18803450Y5991250D02*
X18897930D01*
G01X18850690D02*
Y5673750D01*
G01X18803450D02*
X18897930D01*
G01X19086910Y5991250D02*
Y5673750D01*
X19244390D01*
G01X19401870Y5991250D02*
Y5673750D01*
X19559350D01*
G01X19748330Y5991250D02*
X19842810D01*
G01X19795570D02*
Y5673750D01*
G01X19748330D02*
X19842810D01*
G01X20008160D02*
Y5991250D01*
X20110530Y5726670D01*
X20212900Y5991250D01*
Y5673750D01*
G01X20504230D02*
X20346750D01*
Y5991250D01*
X20504230D01*
G01X20441240Y5837800D02*
X20346750D01*
G01X20740450Y5991250D02*
Y5673750D01*
G01X20649900Y5991250D02*
X20831000D01*
G01X21134150Y5673750D02*
X20976670D01*
Y5991250D01*
X21134150D01*
G01X21071160Y5837800D02*
X20976670D01*
G01X21291630Y5673750D02*
Y5991250D01*
X21390050D01*
X21421550Y5975370D01*
X21441240Y5954210D01*
X21449110Y5911870D01*
X21441240Y5869540D01*
X21417610Y5843090D01*
X21390050Y5827200D01*
X21291630D01*
G01X21390050D02*
X21449110Y5673750D01*
G01X21602650Y5716070D02*
X21634150Y5689620D01*
X21669580Y5673750D01*
X21701080D01*
X21732570Y5689620D01*
X21756200Y5716070D01*
X21768010Y5753130D01*
X21760140Y5790160D01*
X21740450Y5821910D01*
X21705010Y5843090D01*
X21657770Y5853670D01*
X21630210Y5874830D01*
X21618400Y5911870D01*
X21626280Y5948920D01*
X21645960Y5975370D01*
X21673520Y5991250D01*
X21701080D01*
X21728640Y5980670D01*
X21752260Y5954210D01*
G01X13409760Y6323750D02*
Y6641250D01*
X13488490D01*
X13519990Y6625370D01*
X13543610Y6604210D01*
X13563300Y6572460D01*
X13579050Y6535410D01*
X13582980Y6482500D01*
X13579050Y6429580D01*
X13563300Y6392540D01*
X13543610Y6360780D01*
X13519990Y6339620D01*
X13488490Y6323750D01*
X13409760D01*
G01X13732590D02*
Y6641250D01*
X13831010D01*
X13862510Y6625370D01*
X13882200Y6604210D01*
X13890070Y6561870D01*
X13882200Y6519540D01*
X13858570Y6493090D01*
X13831010Y6477200D01*
X13732590D01*
G01X13831010D02*
X13890070Y6323750D01*
G01X14079050Y6641250D02*
X14173530D01*
G01X14126290D02*
Y6323750D01*
G01X14079050D02*
X14173530D01*
G01X14362510Y6641250D02*
Y6323750D01*
X14519990D01*
G01X14677470Y6641250D02*
Y6323750D01*
X14834950D01*
G01X15472740Y6614790D02*
X15449120Y6630670D01*
X15421570Y6641250D01*
X15390070D01*
X15354630Y6625370D01*
X15327080Y6598920D01*
X15307390Y6567160D01*
X15291640Y6514250D01*
X15287700Y6466620D01*
X15295580Y6419000D01*
X15307390Y6387250D01*
X15331010Y6355490D01*
X15358570Y6334330D01*
X15386130Y6323750D01*
X15413690D01*
X15441250Y6334330D01*
X15464870Y6350200D01*
X15484560Y6371360D01*
G01X15618410Y6323750D02*
Y6641250D01*
G01X15783770D02*
Y6323750D01*
G01Y6482500D02*
X15618410D01*
G01X15917620Y6323750D02*
X16016050Y6641250D01*
X16114480Y6323750D01*
G01X16079040Y6434870D02*
X15953050D01*
G01X16252270Y6323750D02*
Y6641250D01*
X16350690D01*
X16382190Y6625370D01*
X16401880Y6604210D01*
X16409750Y6561870D01*
X16401880Y6519540D01*
X16378250Y6493090D01*
X16350690Y6477200D01*
X16252270D01*
G01X16350690D02*
X16409750Y6323750D01*
G01X16645970Y6641250D02*
Y6323750D01*
G01X16555420Y6641250D02*
X16736520D01*
G01X16960930Y6313170D02*
X16953050Y6318460D01*
Y6329040D01*
X16960930Y6334330D01*
X16968810Y6329040D01*
Y6318460D01*
X16960930Y6313170D01*
G01Y6456030D02*
X16953050Y6461330D01*
Y6471910D01*
X16960930Y6477200D01*
X16968810Y6471910D01*
Y6461330D01*
X16960930Y6456030D01*
G01X17590850Y6641250D02*
Y6323750D01*
G01X17500300Y6641250D02*
X17681400D01*
G01X17905810Y6323750D02*
X17874310Y6329040D01*
X17846760Y6350200D01*
X17823130Y6381960D01*
X17807380Y6419000D01*
X17799510Y6461330D01*
Y6503670D01*
X17807380Y6546000D01*
X17823130Y6583040D01*
X17846760Y6614790D01*
X17874310Y6635960D01*
X17905810Y6641250D01*
X17937300Y6635960D01*
X17964860Y6614790D01*
X17988490Y6583040D01*
X18004240Y6546000D01*
X18012110Y6503670D01*
Y6461330D01*
X18004240Y6419000D01*
X17988490Y6381960D01*
X17964860Y6350200D01*
X17937300Y6329040D01*
X17905810Y6323750D01*
G01X18142030D02*
Y6641250D01*
X18236520D01*
X18268010Y6625370D01*
X18291640Y6588330D01*
X18299510Y6546000D01*
X18291640Y6503670D01*
X18271950Y6471910D01*
X18236520Y6456030D01*
X18142030D01*
G01X18850690Y6641250D02*
Y6323750D01*
G01X18795570Y6535410D02*
X18905810D01*
G01X19165650Y6323750D02*
X19142030Y6329040D01*
X19118410Y6350200D01*
X19102650Y6387250D01*
X19094780Y6429580D01*
X19102650Y6471910D01*
X19118410Y6508960D01*
X19142030Y6530120D01*
X19165650Y6535410D01*
X19189270Y6530120D01*
X19212890Y6508960D01*
X19228640Y6471910D01*
X19232580Y6429580D01*
X19228640Y6387250D01*
X19212890Y6350200D01*
X19189270Y6329040D01*
X19165650Y6323750D01*
G01X19827060Y6493090D02*
X19842810Y6508960D01*
X19854620Y6535410D01*
X19862500Y6572460D01*
X19854620Y6604210D01*
X19838880Y6625370D01*
X19811320Y6641250D01*
X19705020D01*
Y6323750D01*
X19834940D01*
X19862500Y6344910D01*
X19878250Y6376670D01*
X19886120Y6413710D01*
X19878250Y6450740D01*
X19854620Y6482500D01*
X19827060Y6493090D01*
X19705020D01*
G01X20110530Y6323750D02*
X20079030Y6329040D01*
X20051480Y6350200D01*
X20027850Y6381960D01*
X20012100Y6419000D01*
X20004230Y6461330D01*
Y6503670D01*
X20012100Y6546000D01*
X20027850Y6583040D01*
X20051480Y6614790D01*
X20079030Y6635960D01*
X20110530Y6641250D01*
X20142020Y6635960D01*
X20169580Y6614790D01*
X20193210Y6583040D01*
X20208960Y6546000D01*
X20216830Y6503670D01*
Y6461330D01*
X20208960Y6419000D01*
X20193210Y6381960D01*
X20169580Y6350200D01*
X20142020Y6329040D01*
X20110530Y6323750D01*
G01X20425490Y6641250D02*
Y6323750D01*
G01X20334940Y6641250D02*
X20516040D01*
G01X20740450D02*
Y6323750D01*
G01X20649900Y6641250D02*
X20831000D01*
G01X21055410Y6323750D02*
X21023910Y6329040D01*
X20996360Y6350200D01*
X20972730Y6381960D01*
X20956980Y6419000D01*
X20949110Y6461330D01*
Y6503670D01*
X20956980Y6546000D01*
X20972730Y6583040D01*
X20996360Y6614790D01*
X21023910Y6635960D01*
X21055410Y6641250D01*
X21086900Y6635960D01*
X21114460Y6614790D01*
X21138090Y6583040D01*
X21153840Y6546000D01*
X21161710Y6503670D01*
Y6461330D01*
X21153840Y6419000D01*
X21138090Y6381960D01*
X21114460Y6350200D01*
X21086900Y6329040D01*
X21055410Y6323750D01*
G01X21268000D02*
Y6641250D01*
X21370370Y6376670D01*
X21472740Y6641250D01*
Y6323750D01*
G01X13575110Y4086250D02*
X13543610Y4075670D01*
X13519990Y4049210D01*
X13504240Y4017460D01*
X13492430Y3975120D01*
X13488500Y3927500D01*
X13492430Y3879870D01*
X13504240Y3837540D01*
X13519990Y3805780D01*
X13543610Y3779330D01*
X13575110Y3768750D01*
X13606600Y3779330D01*
X13630230Y3805780D01*
X13645980Y3837540D01*
X13657790Y3879870D01*
X13661720Y3927500D01*
X13657790Y3975120D01*
X13645980Y4017460D01*
X13630230Y4049210D01*
X13606600Y4075670D01*
X13575110Y4086250D01*
G01X13890070Y3758170D02*
X13882190Y3763460D01*
Y3774040D01*
X13890070Y3779330D01*
X13897950Y3774040D01*
Y3763460D01*
X13890070Y3758170D01*
G01X14118420Y3832250D02*
X14142030Y3795200D01*
X14173530Y3774040D01*
X14208970Y3768750D01*
X14240470Y3774040D01*
X14271960Y3800490D01*
X14291640Y3832250D01*
X14295580Y3864000D01*
X14287710Y3901030D01*
X14260150Y3927500D01*
X14232590Y3938090D01*
X14197150D01*
G01X14232590D02*
X14256210Y3953960D01*
X14275900Y3980410D01*
X14283770Y4012160D01*
X14275900Y4043920D01*
X14256210Y4070370D01*
X14220780Y4086250D01*
X14185350Y4080960D01*
X14149910Y4059790D01*
G01X14519990Y4086250D02*
X14488490Y4075670D01*
X14464870Y4049210D01*
X14449120Y4017460D01*
X14437310Y3975120D01*
X14433380Y3927500D01*
X14437310Y3879870D01*
X14449120Y3837540D01*
X14464870Y3805780D01*
X14488490Y3779330D01*
X14519990Y3768750D01*
X14551480Y3779330D01*
X14575110Y3805780D01*
X14590860Y3837540D01*
X14602670Y3879870D01*
X14606600Y3927500D01*
X14602670Y3975120D01*
X14590860Y4017460D01*
X14575110Y4049210D01*
X14551480Y4075670D01*
X14519990Y4086250D01*
G01X14882190Y3768750D02*
Y4086250D01*
X14736520Y3858710D01*
X14933380D01*
G01X15149910Y3768750D02*
X15177470Y3774040D01*
X15208960Y3789910D01*
X15228650Y3816360D01*
X15236520Y3853420D01*
X15228650Y3890450D01*
X15205030Y3922200D01*
X15169590Y3938090D01*
X15130230D01*
X15106600Y3948670D01*
X15086910Y3975120D01*
X15079040Y4012160D01*
X15090860Y4049210D01*
X15118410Y4075670D01*
X15149910Y4086250D01*
X15181400Y4075670D01*
X15208960Y4049210D01*
X15220780Y4012160D01*
X15212900Y3975120D01*
X15193220Y3948670D01*
X15169590Y3938090D01*
X15130230D01*
X15094790Y3922200D01*
X15071170Y3890450D01*
X15063300Y3853420D01*
X15071170Y3816360D01*
X15090860Y3789910D01*
X15122350Y3774040D01*
X15149910Y3768750D01*
G01X13732590Y4721250D02*
X13701090Y4710670D01*
X13677470Y4684210D01*
X13661720Y4652460D01*
X13649910Y4610120D01*
X13645980Y4562500D01*
X13649910Y4514870D01*
X13661720Y4472540D01*
X13677470Y4440780D01*
X13701090Y4414330D01*
X13732590Y4403750D01*
X13764080Y4414330D01*
X13787710Y4440780D01*
X13803460Y4472540D01*
X13815270Y4514870D01*
X13819200Y4562500D01*
X13815270Y4610120D01*
X13803460Y4652460D01*
X13787710Y4684210D01*
X13764080Y4710670D01*
X13732590Y4721250D01*
G01X14047550Y4393170D02*
X14039670Y4398460D01*
Y4409040D01*
X14047550Y4414330D01*
X14055430Y4409040D01*
Y4398460D01*
X14047550Y4393170D01*
G01X14287700Y4668330D02*
X14311330Y4700080D01*
X14338890Y4715960D01*
X14370390Y4721250D01*
X14409750Y4710670D01*
X14437320Y4684210D01*
X14445190Y4652460D01*
X14441250Y4620700D01*
X14425500Y4594250D01*
X14346760Y4541330D01*
X14311330Y4504290D01*
X14287700Y4451360D01*
X14279830Y4403750D01*
X14445190D01*
G01X14590860Y4451360D02*
X14614470Y4424910D01*
X14642030Y4409040D01*
X14677470Y4403750D01*
X14712910Y4414330D01*
X14740460Y4435490D01*
X14760150Y4472540D01*
X14764080Y4514870D01*
X14756210Y4557200D01*
X14736520Y4583670D01*
X14708960Y4604830D01*
X14681410Y4610120D01*
X14653850Y4604830D01*
X14618420Y4583670D01*
X14630230Y4721250D01*
X14736520D01*
G01X15039670Y4403750D02*
Y4721250D01*
X14894000Y4493710D01*
X15090860D01*
G01X13960940Y2562250D02*
X13984550Y2525200D01*
X14016050Y2504040D01*
X14051490Y2498750D01*
X14082990Y2504040D01*
X14114480Y2530490D01*
X14134160Y2562250D01*
X14138100Y2594000D01*
X14130230Y2631030D01*
X14102670Y2657500D01*
X14075110Y2668090D01*
X14039670D01*
G01X14075110D02*
X14098730Y2683960D01*
X14118420Y2710410D01*
X14126290Y2742160D01*
X14118420Y2773920D01*
X14098730Y2800370D01*
X14063300Y2816250D01*
X14027870Y2810960D01*
X13992430Y2789790D01*
G01X14362510Y2488170D02*
X14354630Y2493460D01*
Y2504040D01*
X14362510Y2509330D01*
X14370390Y2504040D01*
Y2493460D01*
X14362510Y2488170D01*
G01X14590860Y2562250D02*
X14614470Y2525200D01*
X14645970Y2504040D01*
X14681410Y2498750D01*
X14712910Y2504040D01*
X14744400Y2530490D01*
X14764080Y2562250D01*
X14768020Y2594000D01*
X14760150Y2631030D01*
X14732590Y2657500D01*
X14705030Y2668090D01*
X14669590D01*
G01X14705030D02*
X14728650Y2683960D01*
X14748340Y2710410D01*
X14756210Y2742160D01*
X14748340Y2773920D01*
X14728650Y2800370D01*
X14693220Y2816250D01*
X14657790Y2810960D01*
X14622350Y2789790D01*
G01X14047550Y3451250D02*
X14016050Y3440670D01*
X13992430Y3414210D01*
X13976680Y3382460D01*
X13964870Y3340120D01*
X13960940Y3292500D01*
X13964870Y3244870D01*
X13976680Y3202540D01*
X13992430Y3170780D01*
X14016050Y3144330D01*
X14047550Y3133750D01*
X14079040Y3144330D01*
X14102670Y3170780D01*
X14118420Y3202540D01*
X14130230Y3244870D01*
X14134160Y3292500D01*
X14130230Y3340120D01*
X14118420Y3382460D01*
X14102670Y3414210D01*
X14079040Y3440670D01*
X14047550Y3451250D01*
G01X14362510Y3123170D02*
X14354630Y3128460D01*
Y3139040D01*
X14362510Y3144330D01*
X14370390Y3139040D01*
Y3128460D01*
X14362510Y3123170D01*
G01X14677470Y3133750D02*
X14705030Y3139040D01*
X14736520Y3154910D01*
X14756210Y3181360D01*
X14764080Y3218420D01*
X14756210Y3255450D01*
X14732590Y3287200D01*
X14697150Y3303090D01*
X14657790D01*
X14634160Y3313670D01*
X14614470Y3340120D01*
X14606600Y3377160D01*
X14618420Y3414210D01*
X14645970Y3440670D01*
X14677470Y3451250D01*
X14708960Y3440670D01*
X14736520Y3414210D01*
X14748340Y3377160D01*
X14740460Y3340120D01*
X14720780Y3313670D01*
X14697150Y3303090D01*
X14657790D01*
X14622350Y3287200D01*
X14598730Y3255450D01*
X14590860Y3218420D01*
X14598730Y3181360D01*
X14618420Y3154910D01*
X14649910Y3139040D01*
X14677470Y3133750D01*
G01X17354630Y5038750D02*
Y5356250D01*
X17453050D01*
X17484550Y5340370D01*
X17504240Y5319210D01*
X17512110Y5276870D01*
X17504240Y5234540D01*
X17480610Y5208090D01*
X17453050Y5192200D01*
X17354630D01*
G01X17453050D02*
X17512110Y5038750D01*
G01X17748330D02*
X17716830Y5044040D01*
X17689280Y5065200D01*
X17665650Y5096960D01*
X17649900Y5134000D01*
X17642030Y5176330D01*
Y5218670D01*
X17649900Y5261000D01*
X17665650Y5298040D01*
X17689280Y5329790D01*
X17716830Y5350960D01*
X17748330Y5356250D01*
X17779820Y5350960D01*
X17807380Y5329790D01*
X17831010Y5298040D01*
X17846760Y5261000D01*
X17854630Y5218670D01*
Y5176330D01*
X17846760Y5134000D01*
X17831010Y5096960D01*
X17807380Y5065200D01*
X17779820Y5044040D01*
X17748330Y5038750D01*
G01X18063290Y5356250D02*
Y5038750D01*
G01X17972740Y5356250D02*
X18153840D01*
G01X18279820Y5038750D02*
X18378250Y5356250D01*
X18476680Y5038750D01*
G01X18441240Y5149870D02*
X18315250D01*
G01X18693210Y5356250D02*
Y5038750D01*
G01X18602660Y5356250D02*
X18783760D01*
G01X18960930D02*
X19055410D01*
G01X19008170D02*
Y5038750D01*
G01X18960930D02*
X19055410D01*
G01X19323130D02*
X19291630Y5044040D01*
X19264080Y5065200D01*
X19240450Y5096960D01*
X19224700Y5134000D01*
X19216830Y5176330D01*
Y5218670D01*
X19224700Y5261000D01*
X19240450Y5298040D01*
X19264080Y5329790D01*
X19291630Y5350960D01*
X19323130Y5356250D01*
X19354620Y5350960D01*
X19382180Y5329790D01*
X19405810Y5298040D01*
X19421560Y5261000D01*
X19429430Y5218670D01*
Y5176330D01*
X19421560Y5134000D01*
X19405810Y5096960D01*
X19382180Y5065200D01*
X19354620Y5044040D01*
X19323130Y5038750D01*
G01X19547540D02*
Y5356250D01*
X19728640Y5038750D01*
Y5356250D01*
G01X17681400Y-4220D02*
X17708960Y-30670D01*
X17740450Y-41250D01*
X17771950Y-30670D01*
X17799510Y1070D01*
X17819200Y48710D01*
X17827070Y96330D01*
Y154540D01*
X17819200Y202160D01*
X17799510Y244500D01*
X17775890Y265670D01*
X17748330Y276250D01*
X17716830Y265670D01*
X17693210Y244500D01*
X17677460Y212750D01*
X17669590Y170410D01*
X17677460Y133380D01*
X17697150Y96330D01*
X17720770Y75160D01*
X17748330Y69870D01*
X17779820Y80450D01*
X17803450Y106910D01*
X17827070Y154540D01*
G01X18063290Y276250D02*
X18031790Y265670D01*
X18008170Y239210D01*
X17992420Y207460D01*
X17980610Y165120D01*
X17976680Y117500D01*
X17980610Y69870D01*
X17992420Y27540D01*
X18008170Y-4220D01*
X18031790Y-30670D01*
X18063290Y-41250D01*
X18094780Y-30670D01*
X18118410Y-4220D01*
X18134160Y27540D01*
X18145970Y69870D01*
X18149900Y117500D01*
X18145970Y165120D01*
X18134160Y207460D01*
X18118410Y239210D01*
X18094780Y265670D01*
X18063290Y276250D01*
G01X18378250Y-51830D02*
X18370370Y-46540D01*
Y-35960D01*
X18378250Y-30670D01*
X18386130Y-35960D01*
Y-46540D01*
X18378250Y-51830D01*
G01X18693210Y276250D02*
X18661710Y265670D01*
X18638090Y239210D01*
X18622340Y207460D01*
X18610530Y165120D01*
X18606600Y117500D01*
X18610530Y69870D01*
X18622340Y27540D01*
X18638090Y-4220D01*
X18661710Y-30670D01*
X18693210Y-41250D01*
X18724700Y-30670D01*
X18748330Y-4220D01*
X18764080Y27540D01*
X18775890Y69870D01*
X18779820Y117500D01*
X18775890Y165120D01*
X18764080Y207460D01*
X18748330Y239210D01*
X18724700Y265670D01*
X18693210Y276250D01*
G01X19008170D02*
X18976670Y265670D01*
X18953050Y239210D01*
X18937300Y207460D01*
X18925490Y165120D01*
X18921560Y117500D01*
X18925490Y69870D01*
X18937300Y27540D01*
X18953050Y-4220D01*
X18976670Y-30670D01*
X19008170Y-41250D01*
X19039660Y-30670D01*
X19063290Y-4220D01*
X19079040Y27540D01*
X19090850Y69870D01*
X19094780Y117500D01*
X19090850Y165120D01*
X19079040Y207460D01*
X19063290Y239210D01*
X19039660Y265670D01*
X19008170Y276250D01*
G01X19323130D02*
X19291630Y265670D01*
X19268010Y239210D01*
X19252260Y207460D01*
X19240450Y165120D01*
X19236520Y117500D01*
X19240450Y69870D01*
X19252260Y27540D01*
X19268010Y-4220D01*
X19291630Y-30670D01*
X19323130Y-41250D01*
X19354620Y-30670D01*
X19378250Y-4220D01*
X19394000Y27540D01*
X19405810Y69870D01*
X19409740Y117500D01*
X19405810Y165120D01*
X19394000Y207460D01*
X19378250Y239210D01*
X19354620Y265670D01*
X19323130Y276250D01*
G01X17905810Y911250D02*
X17874310Y900670D01*
X17850690Y874210D01*
X17834940Y842460D01*
X17823130Y800120D01*
X17819200Y752500D01*
X17823130Y704870D01*
X17834940Y662540D01*
X17850690Y630780D01*
X17874310Y604330D01*
X17905810Y593750D01*
X17937300Y604330D01*
X17960930Y630780D01*
X17976680Y662540D01*
X17988490Y704870D01*
X17992420Y752500D01*
X17988490Y800120D01*
X17976680Y842460D01*
X17960930Y874210D01*
X17937300Y900670D01*
X17905810Y911250D01*
G01X18220770Y583170D02*
X18212890Y588460D01*
Y599040D01*
X18220770Y604330D01*
X18228650Y599040D01*
Y588460D01*
X18220770Y583170D01*
G01X18535730Y911250D02*
X18504230Y900670D01*
X18480610Y874210D01*
X18464860Y842460D01*
X18453050Y800120D01*
X18449120Y752500D01*
X18453050Y704870D01*
X18464860Y662540D01*
X18480610Y630780D01*
X18504230Y604330D01*
X18535730Y593750D01*
X18567220Y604330D01*
X18590850Y630780D01*
X18606600Y662540D01*
X18618410Y704870D01*
X18622340Y752500D01*
X18618410Y800120D01*
X18606600Y842460D01*
X18590850Y874210D01*
X18567220Y900670D01*
X18535730Y911250D01*
G01X18850690D02*
X18819190Y900670D01*
X18795570Y874210D01*
X18779820Y842460D01*
X18768010Y800120D01*
X18764080Y752500D01*
X18768010Y704870D01*
X18779820Y662540D01*
X18795570Y630780D01*
X18819190Y604330D01*
X18850690Y593750D01*
X18882180Y604330D01*
X18905810Y630780D01*
X18921560Y662540D01*
X18933370Y704870D01*
X18937300Y752500D01*
X18933370Y800120D01*
X18921560Y842460D01*
X18905810Y874210D01*
X18882180Y900670D01*
X18850690Y911250D01*
G01X19165650D02*
X19134150Y900670D01*
X19110530Y874210D01*
X19094780Y842460D01*
X19082970Y800120D01*
X19079040Y752500D01*
X19082970Y704870D01*
X19094780Y662540D01*
X19110530Y630780D01*
X19134150Y604330D01*
X19165650Y593750D01*
X19197140Y604330D01*
X19220770Y630780D01*
X19236520Y662540D01*
X19248330Y704870D01*
X19252260Y752500D01*
X19248330Y800120D01*
X19236520Y842460D01*
X19220770Y874210D01*
X19197140Y900670D01*
X19165650Y911250D01*
G01X17905810Y1546250D02*
X17874310Y1535670D01*
X17850690Y1509210D01*
X17834940Y1477460D01*
X17823130Y1435120D01*
X17819200Y1387500D01*
X17823130Y1339870D01*
X17834940Y1297540D01*
X17850690Y1265780D01*
X17874310Y1239330D01*
X17905810Y1228750D01*
X17937300Y1239330D01*
X17960930Y1265780D01*
X17976680Y1297540D01*
X17988490Y1339870D01*
X17992420Y1387500D01*
X17988490Y1435120D01*
X17976680Y1477460D01*
X17960930Y1509210D01*
X17937300Y1535670D01*
X17905810Y1546250D01*
G01X18220770Y1218170D02*
X18212890Y1223460D01*
Y1234040D01*
X18220770Y1239330D01*
X18228650Y1234040D01*
Y1223460D01*
X18220770Y1218170D01*
G01X18535730Y1546250D02*
X18504230Y1535670D01*
X18480610Y1509210D01*
X18464860Y1477460D01*
X18453050Y1435120D01*
X18449120Y1387500D01*
X18453050Y1339870D01*
X18464860Y1297540D01*
X18480610Y1265780D01*
X18504230Y1239330D01*
X18535730Y1228750D01*
X18567220Y1239330D01*
X18590850Y1265780D01*
X18606600Y1297540D01*
X18618410Y1339870D01*
X18622340Y1387500D01*
X18618410Y1435120D01*
X18606600Y1477460D01*
X18590850Y1509210D01*
X18567220Y1535670D01*
X18535730Y1546250D01*
G01X18850690D02*
X18819190Y1535670D01*
X18795570Y1509210D01*
X18779820Y1477460D01*
X18768010Y1435120D01*
X18764080Y1387500D01*
X18768010Y1339870D01*
X18779820Y1297540D01*
X18795570Y1265780D01*
X18819190Y1239330D01*
X18850690Y1228750D01*
X18882180Y1239330D01*
X18905810Y1265780D01*
X18921560Y1297540D01*
X18933370Y1339870D01*
X18937300Y1387500D01*
X18933370Y1435120D01*
X18921560Y1477460D01*
X18905810Y1509210D01*
X18882180Y1535670D01*
X18850690Y1546250D01*
G01X19165650D02*
X19134150Y1535670D01*
X19110530Y1509210D01*
X19094780Y1477460D01*
X19082970Y1435120D01*
X19079040Y1387500D01*
X19082970Y1339870D01*
X19094780Y1297540D01*
X19110530Y1265780D01*
X19134150Y1239330D01*
X19165650Y1228750D01*
X19197140Y1239330D01*
X19220770Y1265780D01*
X19236520Y1297540D01*
X19248330Y1339870D01*
X19252260Y1387500D01*
X19248330Y1435120D01*
X19236520Y1477460D01*
X19220770Y1509210D01*
X19197140Y1535670D01*
X19165650Y1546250D01*
G01X17905810Y2181250D02*
X17874310Y2170670D01*
X17850690Y2144210D01*
X17834940Y2112460D01*
X17823130Y2070120D01*
X17819200Y2022500D01*
X17823130Y1974870D01*
X17834940Y1932540D01*
X17850690Y1900780D01*
X17874310Y1874330D01*
X17905810Y1863750D01*
X17937300Y1874330D01*
X17960930Y1900780D01*
X17976680Y1932540D01*
X17988490Y1974870D01*
X17992420Y2022500D01*
X17988490Y2070120D01*
X17976680Y2112460D01*
X17960930Y2144210D01*
X17937300Y2170670D01*
X17905810Y2181250D01*
G01X18220770Y1853170D02*
X18212890Y1858460D01*
Y1869040D01*
X18220770Y1874330D01*
X18228650Y1869040D01*
Y1858460D01*
X18220770Y1853170D01*
G01X18535730Y2181250D02*
X18504230Y2170670D01*
X18480610Y2144210D01*
X18464860Y2112460D01*
X18453050Y2070120D01*
X18449120Y2022500D01*
X18453050Y1974870D01*
X18464860Y1932540D01*
X18480610Y1900780D01*
X18504230Y1874330D01*
X18535730Y1863750D01*
X18567220Y1874330D01*
X18590850Y1900780D01*
X18606600Y1932540D01*
X18618410Y1974870D01*
X18622340Y2022500D01*
X18618410Y2070120D01*
X18606600Y2112460D01*
X18590850Y2144210D01*
X18567220Y2170670D01*
X18535730Y2181250D01*
G01X18850690D02*
X18819190Y2170670D01*
X18795570Y2144210D01*
X18779820Y2112460D01*
X18768010Y2070120D01*
X18764080Y2022500D01*
X18768010Y1974870D01*
X18779820Y1932540D01*
X18795570Y1900780D01*
X18819190Y1874330D01*
X18850690Y1863750D01*
X18882180Y1874330D01*
X18905810Y1900780D01*
X18921560Y1932540D01*
X18933370Y1974870D01*
X18937300Y2022500D01*
X18933370Y2070120D01*
X18921560Y2112460D01*
X18905810Y2144210D01*
X18882180Y2170670D01*
X18850690Y2181250D01*
G01X19165650D02*
X19134150Y2170670D01*
X19110530Y2144210D01*
X19094780Y2112460D01*
X19082970Y2070120D01*
X19079040Y2022500D01*
X19082970Y1974870D01*
X19094780Y1932540D01*
X19110530Y1900780D01*
X19134150Y1874330D01*
X19165650Y1863750D01*
X19197140Y1874330D01*
X19220770Y1900780D01*
X19236520Y1932540D01*
X19248330Y1974870D01*
X19252260Y2022500D01*
X19248330Y2070120D01*
X19236520Y2112460D01*
X19220770Y2144210D01*
X19197140Y2170670D01*
X19165650Y2181250D01*
G01X18484550Y2604580D02*
X18586910D01*
G01X18484550Y3239580D02*
X18586910D01*
G01X18484550Y3874580D02*
X18586910D01*
G01X18484550Y4509580D02*
X18586910D01*
G01X19478070Y-358750D02*
Y-676250D01*
G01X19387520Y-358750D02*
X19568620D01*
G01X19793030Y-676250D02*
X19761530Y-670960D01*
X19733980Y-649800D01*
X19710350Y-618040D01*
X19694600Y-581000D01*
X19686730Y-538670D01*
Y-496330D01*
X19694600Y-454000D01*
X19710350Y-416960D01*
X19733980Y-385210D01*
X19761530Y-364040D01*
X19793030Y-358750D01*
X19824520Y-364040D01*
X19852080Y-385210D01*
X19875710Y-416960D01*
X19891460Y-454000D01*
X19899330Y-496330D01*
Y-538670D01*
X19891460Y-581000D01*
X19875710Y-618040D01*
X19852080Y-649800D01*
X19824520Y-670960D01*
X19793030Y-676250D01*
G01X20107990Y-358750D02*
Y-676250D01*
G01X20017440Y-358750D02*
X20198540D01*
G01X20324520Y-676250D02*
X20422950Y-358750D01*
X20521380Y-676250D01*
G01X20485940Y-565130D02*
X20359950D01*
G01X20659170Y-358750D02*
Y-676250D01*
X20816650D01*
G01X21285150D02*
Y-358750D01*
G01X21450510D02*
Y-676250D01*
G01Y-517500D02*
X21285150D01*
G01X21682790Y-676250D02*
X21651290Y-670960D01*
X21623740Y-649800D01*
X21600110Y-618040D01*
X21584360Y-581000D01*
X21576490Y-538670D01*
Y-496330D01*
X21584360Y-454000D01*
X21600110Y-416960D01*
X21623740Y-385210D01*
X21651290Y-364040D01*
X21682790Y-358750D01*
X21714280Y-364040D01*
X21741840Y-385210D01*
X21765470Y-416960D01*
X21781220Y-454000D01*
X21789090Y-496330D01*
Y-538670D01*
X21781220Y-581000D01*
X21765470Y-618040D01*
X21741840Y-649800D01*
X21714280Y-670960D01*
X21682790Y-676250D01*
G01X21919010Y-358750D02*
Y-676250D01*
X22076490D01*
G01X22391450D02*
X22233970D01*
Y-358750D01*
X22391450D01*
G01X22328460Y-512200D02*
X22233970D01*
G01X22544990Y-633930D02*
X22576490Y-660380D01*
X22611920Y-676250D01*
X22643420D01*
X22674910Y-660380D01*
X22698540Y-633930D01*
X22710350Y-596870D01*
X22702480Y-559840D01*
X22682790Y-528090D01*
X22647350Y-506910D01*
X22600110Y-496330D01*
X22572550Y-475170D01*
X22560740Y-438130D01*
X22568620Y-401080D01*
X22588300Y-374630D01*
X22615860Y-358750D01*
X22643420D01*
X22670980Y-369330D01*
X22694600Y-395790D01*
G01X22942630Y-686830D02*
X22934750Y-681540D01*
Y-670960D01*
X22942630Y-665670D01*
X22950510Y-670960D01*
Y-681540D01*
X22942630Y-686830D01*
G01Y-543970D02*
X22934750Y-538670D01*
Y-528090D01*
X22942630Y-522800D01*
X22950510Y-528090D01*
Y-538670D01*
X22942630Y-543970D01*
G01X20897930Y-41250D02*
Y276250D01*
X20992420D01*
X21023910Y260370D01*
X21047540Y223330D01*
X21055410Y181000D01*
X21047540Y138670D01*
X21027850Y106910D01*
X20992420Y91030D01*
X20897930D01*
G01X21212890Y276250D02*
Y-41250D01*
X21370370D01*
G01X21508160D02*
X21606590Y276250D01*
X21705020Y-41250D01*
G01X21669580Y69870D02*
X21543590D01*
G01X21921550Y276250D02*
Y-41250D01*
G01X21831000Y276250D02*
X22012100D01*
G01X22315250Y-41250D02*
X22157770D01*
Y276250D01*
X22315250D01*
G01X22252260Y122800D02*
X22157770D01*
G01X22464860Y-41250D02*
Y276250D01*
X22543590D01*
X22575090Y260370D01*
X22598710Y239210D01*
X22618400Y207460D01*
X22634150Y170410D01*
X22638080Y117500D01*
X22634150Y64580D01*
X22618400Y27540D01*
X22598710Y-4220D01*
X22575090Y-25380D01*
X22543590Y-41250D01*
X22464860D01*
G01X20897930Y593750D02*
Y911250D01*
X20992420D01*
X21023910Y895370D01*
X21047540Y858330D01*
X21055410Y816000D01*
X21047540Y773670D01*
X21027850Y741910D01*
X20992420Y726030D01*
X20897930D01*
G01X21212890Y911250D02*
Y593750D01*
X21370370D01*
G01X21508160D02*
X21606590Y911250D01*
X21705020Y593750D01*
G01X21669580Y704870D02*
X21543590D01*
G01X21921550Y911250D02*
Y593750D01*
G01X21831000Y911250D02*
X22012100D01*
G01X22315250Y593750D02*
X22157770D01*
Y911250D01*
X22315250D01*
G01X22252260Y757800D02*
X22157770D01*
G01X22464860Y593750D02*
Y911250D01*
X22543590D01*
X22575090Y895370D01*
X22598710Y874210D01*
X22618400Y842460D01*
X22634150Y805410D01*
X22638080Y752500D01*
X22634150Y699580D01*
X22618400Y662540D01*
X22598710Y630780D01*
X22575090Y609620D01*
X22543590Y593750D01*
X22464860D01*
G01X20897930Y1228750D02*
Y1546250D01*
X20992420D01*
X21023910Y1530370D01*
X21047540Y1493330D01*
X21055410Y1451000D01*
X21047540Y1408670D01*
X21027850Y1376910D01*
X20992420Y1361030D01*
X20897930D01*
G01X21212890Y1546250D02*
Y1228750D01*
X21370370D01*
G01X21508160D02*
X21606590Y1546250D01*
X21705020Y1228750D01*
G01X21669580Y1339870D02*
X21543590D01*
G01X21921550Y1546250D02*
Y1228750D01*
G01X21831000Y1546250D02*
X22012100D01*
G01X22315250Y1228750D02*
X22157770D01*
Y1546250D01*
X22315250D01*
G01X22252260Y1392800D02*
X22157770D01*
G01X22464860Y1228750D02*
Y1546250D01*
X22543590D01*
X22575090Y1530370D01*
X22598710Y1509210D01*
X22618400Y1477460D01*
X22634150Y1440410D01*
X22638080Y1387500D01*
X22634150Y1334580D01*
X22618400Y1297540D01*
X22598710Y1265780D01*
X22575090Y1244620D01*
X22543590Y1228750D01*
X22464860D01*
G01X20897930Y1863750D02*
Y2181250D01*
X20992420D01*
X21023910Y2165370D01*
X21047540Y2128330D01*
X21055410Y2086000D01*
X21047540Y2043670D01*
X21027850Y2011910D01*
X20992420Y1996030D01*
X20897930D01*
G01X21212890Y2181250D02*
Y1863750D01*
X21370370D01*
G01X21508160D02*
X21606590Y2181250D01*
X21705020Y1863750D01*
G01X21669580Y1974870D02*
X21543590D01*
G01X21921550Y2181250D02*
Y1863750D01*
G01X21831000Y2181250D02*
X22012100D01*
G01X22315250Y1863750D02*
X22157770D01*
Y2181250D01*
X22315250D01*
G01X22252260Y2027800D02*
X22157770D01*
G01X22464860Y1863750D02*
Y2181250D01*
X22543590D01*
X22575090Y2165370D01*
X22598710Y2144210D01*
X22618400Y2112460D01*
X22634150Y2075410D01*
X22638080Y2022500D01*
X22634150Y1969580D01*
X22618400Y1932540D01*
X22598710Y1900780D01*
X22575090Y1879620D01*
X22543590Y1863750D01*
X22464860D01*
G01X20897930Y2498750D02*
Y2816250D01*
X20992420D01*
X21023910Y2800370D01*
X21047540Y2763330D01*
X21055410Y2721000D01*
X21047540Y2678670D01*
X21027850Y2646910D01*
X20992420Y2631030D01*
X20897930D01*
G01X21212890Y2816250D02*
Y2498750D01*
X21370370D01*
G01X21508160D02*
X21606590Y2816250D01*
X21705020Y2498750D01*
G01X21669580Y2609870D02*
X21543590D01*
G01X21921550Y2816250D02*
Y2498750D01*
G01X21831000Y2816250D02*
X22012100D01*
G01X22315250Y2498750D02*
X22157770D01*
Y2816250D01*
X22315250D01*
G01X22252260Y2662800D02*
X22157770D01*
G01X22464860Y2498750D02*
Y2816250D01*
X22543590D01*
X22575090Y2800370D01*
X22598710Y2779210D01*
X22618400Y2747460D01*
X22634150Y2710410D01*
X22638080Y2657500D01*
X22634150Y2604580D01*
X22618400Y2567540D01*
X22598710Y2535780D01*
X22575090Y2514620D01*
X22543590Y2498750D01*
X22464860D01*
G01X20897930Y3133750D02*
Y3451250D01*
X20992420D01*
X21023910Y3435370D01*
X21047540Y3398330D01*
X21055410Y3356000D01*
X21047540Y3313670D01*
X21027850Y3281910D01*
X20992420Y3266030D01*
X20897930D01*
G01X21212890Y3451250D02*
Y3133750D01*
X21370370D01*
G01X21508160D02*
X21606590Y3451250D01*
X21705020Y3133750D01*
G01X21669580Y3244870D02*
X21543590D01*
G01X21921550Y3451250D02*
Y3133750D01*
G01X21831000Y3451250D02*
X22012100D01*
G01X22315250Y3133750D02*
X22157770D01*
Y3451250D01*
X22315250D01*
G01X22252260Y3297800D02*
X22157770D01*
G01X22464860Y3133750D02*
Y3451250D01*
X22543590D01*
X22575090Y3435370D01*
X22598710Y3414210D01*
X22618400Y3382460D01*
X22634150Y3345410D01*
X22638080Y3292500D01*
X22634150Y3239580D01*
X22618400Y3202540D01*
X22598710Y3170780D01*
X22575090Y3149620D01*
X22543590Y3133750D01*
X22464860D01*
G01X20897930Y3768750D02*
Y4086250D01*
X20992420D01*
X21023910Y4070370D01*
X21047540Y4033330D01*
X21055410Y3991000D01*
X21047540Y3948670D01*
X21027850Y3916910D01*
X20992420Y3901030D01*
X20897930D01*
G01X21212890Y4086250D02*
Y3768750D01*
X21370370D01*
G01X21508160D02*
X21606590Y4086250D01*
X21705020Y3768750D01*
G01X21669580Y3879870D02*
X21543590D01*
G01X21921550Y4086250D02*
Y3768750D01*
G01X21831000Y4086250D02*
X22012100D01*
G01X22315250Y3768750D02*
X22157770D01*
Y4086250D01*
X22315250D01*
G01X22252260Y3932800D02*
X22157770D01*
G01X22464860Y3768750D02*
Y4086250D01*
X22543590D01*
X22575090Y4070370D01*
X22598710Y4049210D01*
X22618400Y4017460D01*
X22634150Y3980410D01*
X22638080Y3927500D01*
X22634150Y3874580D01*
X22618400Y3837540D01*
X22598710Y3805780D01*
X22575090Y3784620D01*
X22543590Y3768750D01*
X22464860D01*
G01X20897930Y4403750D02*
Y4721250D01*
X20992420D01*
X21023910Y4705370D01*
X21047540Y4668330D01*
X21055410Y4626000D01*
X21047540Y4583670D01*
X21027850Y4551910D01*
X20992420Y4536030D01*
X20897930D01*
G01X21212890Y4721250D02*
Y4403750D01*
X21370370D01*
G01X21508160D02*
X21606590Y4721250D01*
X21705020Y4403750D01*
G01X21669580Y4514870D02*
X21543590D01*
G01X21921550Y4721250D02*
Y4403750D01*
G01X21831000Y4721250D02*
X22012100D01*
G01X22315250Y4403750D02*
X22157770D01*
Y4721250D01*
X22315250D01*
G01X22252260Y4567800D02*
X22157770D01*
G01X22464860Y4403750D02*
Y4721250D01*
X22543590D01*
X22575090Y4705370D01*
X22598710Y4684210D01*
X22618400Y4652460D01*
X22634150Y4615410D01*
X22638080Y4562500D01*
X22634150Y4509580D01*
X22618400Y4472540D01*
X22598710Y4440780D01*
X22575090Y4419620D01*
X22543590Y4403750D01*
X22464860D01*
G01X20897930Y5038750D02*
Y5356250D01*
X20992420D01*
X21023910Y5340370D01*
X21047540Y5303330D01*
X21055410Y5261000D01*
X21047540Y5218670D01*
X21027850Y5186910D01*
X20992420Y5171030D01*
X20897930D01*
G01X21212890Y5356250D02*
Y5038750D01*
X21370370D01*
G01X21508160D02*
X21606590Y5356250D01*
X21705020Y5038750D01*
G01X21669580Y5149870D02*
X21543590D01*
G01X21921550Y5356250D02*
Y5038750D01*
G01X21831000Y5356250D02*
X22012100D01*
G01X22315250Y5038750D02*
X22157770D01*
Y5356250D01*
X22315250D01*
G01X22252260Y5202800D02*
X22157770D01*
G01X22464860Y5038750D02*
Y5356250D01*
X22543590D01*
X22575090Y5340370D01*
X22598710Y5319210D01*
X22618400Y5287460D01*
X22634150Y5250410D01*
X22638080Y5197500D01*
X22634150Y5144580D01*
X22618400Y5107540D01*
X22598710Y5075780D01*
X22575090Y5054620D01*
X22543590Y5038750D01*
X22464860D01*
G01X23972720Y-411670D02*
X23996350Y-379920D01*
X24023910Y-364040D01*
X24055410Y-358750D01*
X24094770Y-369330D01*
X24122340Y-395790D01*
X24130210Y-427540D01*
X24126270Y-459300D01*
X24110520Y-485750D01*
X24031780Y-538670D01*
X23996350Y-575710D01*
X23972720Y-628640D01*
X23964850Y-676250D01*
X24130210D01*
G01X24362490Y-358750D02*
X24330990Y-369330D01*
X24307370Y-395790D01*
X24291620Y-427540D01*
X24279810Y-469880D01*
X24275880Y-517500D01*
X24279810Y-565130D01*
X24291620Y-607460D01*
X24307370Y-639220D01*
X24330990Y-665670D01*
X24362490Y-676250D01*
X24393980Y-665670D01*
X24417610Y-639220D01*
X24433360Y-607460D01*
X24445170Y-565130D01*
X24449100Y-517500D01*
X24445170Y-469880D01*
X24433360Y-427540D01*
X24417610Y-395790D01*
X24393980Y-369330D01*
X24362490Y-358750D01*
G01X24590840Y-628640D02*
X24614450Y-655090D01*
X24642010Y-670960D01*
X24677450Y-676250D01*
X24712890Y-665670D01*
X24740440Y-644510D01*
X24760130Y-607460D01*
X24764060Y-565130D01*
X24756190Y-522800D01*
X24736500Y-496330D01*
X24708940Y-475170D01*
X24681390Y-469880D01*
X24653830Y-475170D01*
X24618400Y-496330D01*
X24630210Y-358750D01*
X24736500D01*
G01X24047530Y3768750D02*
Y4086250D01*
X24000290Y4022750D01*
G01Y3768750D02*
X24094770D01*
G01X24362490Y4086250D02*
X24330990Y4075670D01*
X24307370Y4049210D01*
X24291620Y4017460D01*
X24279810Y3975120D01*
X24275880Y3927500D01*
X24279810Y3879870D01*
X24291620Y3837540D01*
X24307370Y3805780D01*
X24330990Y3779330D01*
X24362490Y3768750D01*
X24393980Y3779330D01*
X24417610Y3805780D01*
X24433360Y3837540D01*
X24445170Y3879870D01*
X24449100Y3927500D01*
X24445170Y3975120D01*
X24433360Y4017460D01*
X24417610Y4049210D01*
X24393980Y4075670D01*
X24362490Y4086250D01*
G01X24724690Y3768750D02*
Y4086250D01*
X24579020Y3858710D01*
X24775880D01*
G01X24047530Y5038750D02*
X24016030Y5044040D01*
X23988480Y5065200D01*
X23964850Y5096960D01*
X23949100Y5134000D01*
X23941230Y5176330D01*
Y5218670D01*
X23949100Y5261000D01*
X23964850Y5298040D01*
X23988480Y5329790D01*
X24016030Y5350960D01*
X24047530Y5356250D01*
X24079020Y5350960D01*
X24106580Y5329790D01*
X24130210Y5298040D01*
X24145960Y5261000D01*
X24153830Y5218670D01*
Y5176330D01*
X24145960Y5134000D01*
X24130210Y5096960D01*
X24106580Y5065200D01*
X24079020Y5044040D01*
X24047530Y5038750D01*
G01X24079020Y5123420D02*
X24126270Y5038750D01*
G01X24362490Y5356250D02*
Y5038750D01*
G01X24271940Y5356250D02*
X24453040D01*
G01X24677450Y5038750D02*
Y5181620D01*
X24598710Y5356250D01*
G01X24756190D02*
X24677450Y5181620D01*
G01X24287680Y223330D02*
X24311310Y255080D01*
X24338870Y270960D01*
X24370370Y276250D01*
X24409730Y265670D01*
X24437300Y239210D01*
X24445170Y207460D01*
X24441230Y175700D01*
X24425480Y149250D01*
X24346740Y96330D01*
X24311310Y59290D01*
X24287680Y6360D01*
X24279810Y-41250D01*
X24445170D01*
G01X24362490Y593750D02*
Y911250D01*
X24315250Y847750D01*
G01Y593750D02*
X24409730D01*
G01X24287680Y1493330D02*
X24311310Y1525080D01*
X24338870Y1540960D01*
X24370370Y1546250D01*
X24409730Y1535670D01*
X24437300Y1509210D01*
X24445170Y1477460D01*
X24441230Y1445700D01*
X24425480Y1419250D01*
X24346740Y1366330D01*
X24311310Y1329290D01*
X24287680Y1276360D01*
X24279810Y1228750D01*
X24445170D01*
G01X24287680Y2128330D02*
X24311310Y2160080D01*
X24338870Y2175960D01*
X24370370Y2181250D01*
X24409730Y2170670D01*
X24437300Y2144210D01*
X24445170Y2112460D01*
X24441230Y2080700D01*
X24425480Y2054250D01*
X24346740Y2001330D01*
X24311310Y1964290D01*
X24287680Y1911360D01*
X24279810Y1863750D01*
X24445170D01*
G01X24409730Y2498750D02*
Y2816250D01*
X24264060Y2588710D01*
X24460920D01*
G01X24205010Y3133750D02*
Y3451250D01*
X24157770Y3387750D01*
G01Y3133750D02*
X24252250D01*
G01X24445160Y3266030D02*
X24472730Y3303090D01*
X24496350Y3324250D01*
X24527850Y3334830D01*
X24555410Y3324250D01*
X24575090Y3303090D01*
X24590840Y3271330D01*
X24594780Y3234290D01*
X24590840Y3202540D01*
X24575090Y3170780D01*
X24551460Y3144330D01*
X24523910Y3133750D01*
X24492410Y3144330D01*
X24464850Y3176070D01*
X24449100Y3223710D01*
X24445160Y3276620D01*
X24453040Y3345410D01*
X24464850Y3382460D01*
X24484530Y3419500D01*
X24512090Y3445960D01*
X24539650Y3451250D01*
X24567210Y3440670D01*
X24586900Y3414210D01*
G01X24197130Y4403750D02*
X24205010Y4472540D01*
X24216820Y4530740D01*
X24232570Y4583670D01*
X24252250Y4641870D01*
X24283750Y4721250D01*
X24126270D01*
G01X24567210Y4403750D02*
Y4721250D01*
X24421540Y4493710D01*
X24618400D01*
G01X-250000Y0D02*
X-1490000D01*
G01X790000Y5400000D02*
X-1490000D01*
G01X-1240000Y2344260D02*
Y0D01*
G01X-1302500Y400000D02*
X-1240000Y0D01*
X-1177500Y400000D01*
X-1302500D01*
G01X-1240000Y2835740D02*
Y5400000D01*
G01X-1177500Y5000000D02*
X-1240000Y5400000D01*
X-1302500Y5000000D01*
X-1177500D01*
G01X110000Y360000D02*
X-770000D01*
G01X7890000Y5040000D02*
X-770000D01*
G01X-520000Y2363930D02*
Y360000D01*
G01X-582500Y760000D02*
X-520000Y360000D01*
X-457500Y760000D01*
X-582500D01*
G01X-520000Y2855410D02*
Y5040000D01*
G01X-457500Y4640000D02*
X-520000Y5040000D01*
X-582500Y4640000D01*
X-457500D01*
G01X0Y-250000D02*
Y-1280000D01*
G01X3683140Y-1030000D02*
X0D01*
G01X400000Y-967500D02*
X0Y-1030000D01*
X400000Y-1092500D01*
Y-967500D01*
G01X360000Y110000D02*
Y-750000D01*
G01X3502640Y-500000D02*
X360000D01*
G01X760000Y-437500D02*
X360000Y-500000D01*
X760000Y-562500D01*
Y-437500D01*
G01X4316860Y-1030000D02*
X8500000D01*
G01X4517360Y-500000D02*
X8140000D01*
G01X7740000Y-562500D02*
X8140000Y-500000D01*
X7740000Y-437500D01*
Y-562500D01*
G01X8100000Y-1092500D02*
X8500000Y-1030000D01*
X8100000Y-967500D01*
Y-1092500D01*
G01X8140000Y110000D02*
Y-750000D01*
G01X8500000Y420000D02*
Y-1280000D01*
G01X9520000Y-200000D02*
Y6800000D01*
X25346740D01*
Y-200000D01*
X9520000D01*
G01Y435000D02*
X25346740D01*
G01X9520000Y1070000D02*
X25346740D01*
G01X9520000Y1705000D02*
X25346740D01*
G01X9520000Y2340000D02*
X25346740D01*
G01X9520000Y2975000D02*
X25346740D01*
G01X9520000Y3610000D02*
X25346740D01*
G01X9520000Y4245000D02*
X25346740D01*
G01X9520000Y4880000D02*
X25346740D01*
G01X9520000Y5515000D02*
X25346740D01*
G01X9520000Y6150000D02*
X25346740D01*
G01X11803460Y5515000D02*
Y-200000D01*
G01X16921560Y5515000D02*
Y-200000D01*
G01X20149900Y5515000D02*
Y-200000D01*
G01X23378240Y5515000D02*
Y-200000D01*
M02*
