M48
METRIC,TZ
T01C.254
T02C.3048
T03C.8
T04C3.3
;LEADER: 12 
;HEADER: 
;CODE  : ASCII 
;FILE  : HY_IP6538_V10-1-2.drl for board H:/github/MBED-TOOLS/HARDWARE/HY_IP6538_V10/PCB/#Taaaafq10144.tmp ... layers TOP and BOTTOM
;T01 Holesize 1. = 0.254000 Tolerance = +0.000000/-0.000000 PLATED MM Quantity = 74
;T02 Holesize 2. = 0.304800 Tolerance = +0.000000/-0.000000 PLATED MM Quantity = 104
;T03 Holesize 3. = 0.800000 Tolerance = +0.000000/-0.000000 PLATED MM Quantity = 16
;T04 Holesize 4. = 3.300000 Tolerance = +0.000000/-0.000000 PLATED MM Quantity = 4
%
G90
T01
X2360000Y3220000
X2260000Y3220000
X2160000Y3220000
X2930000Y3160000
X2360000Y3120000
X2260000Y3120000
X2160000Y3120000
X2360000Y3020000
X2260000Y3020000
X2360000Y2920000
X2260000Y2920000
X2990000Y2380000
X2990000Y2100000
X2990000Y1800000
X4070000Y1060000
X4140000Y1060000
X4210000Y1060000
X4070000Y1130000
X4140000Y1130000
X4210000Y1130000
X4310000Y1130000
X4070000Y1200000
X4140000Y1200000
X4210000Y1200000
X3090000Y1530000
X3370000Y1650000
X3580000Y1650000
X3210000Y1770000
X3400000Y1950000
X3510000Y1950000
X3610000Y1950000
X3840000Y2370000
X4070000Y2450000
X3640000Y2540000
X3840000Y2540000
X3120000Y2570000
X3250000Y2570000
X3380000Y2570000
X3120000Y2700000
X3250000Y2700000
X3380000Y2700000
X3120000Y2830000
X3250000Y2830000
X3380000Y2830000
X3070000Y3160000
X3225000Y3160000
X3360000Y3450000
X3470000Y3450000
X3580000Y3450000
X4080000Y3850000
X4140000Y3850000
X4200000Y3850000
X4080000Y3920000
X4140000Y3920000
X4200000Y3920000
X4090000Y4250000
X4150000Y4250000
X4210000Y4250000
X4370000Y4280000
X5780000Y3320000
X5670000Y3320000
X5780000Y3230000
X5670000Y3230000
X5780000Y3130000
X5670000Y3130000
X5770000Y2300000
X5660000Y2300000
X5770000Y2210000
X5660000Y2210000
X5770000Y2120000
X5660000Y2120000
X7500000Y1900000
X7500000Y1690000
X7680000Y2530000
T02
X2314130Y242020
X2314130Y642020
X2714130Y242020
X2714130Y642020
X3114130Y242020
X3114130Y642020
X3514130Y242020
X3514130Y642020
X3914130Y242020
X3914130Y642020
X4314130Y242020
X4314130Y642020
X4714130Y242020
X4714130Y642020
X4714130Y1002020
X5114130Y242020
X5114130Y642020
X5114130Y1002020
X5514130Y242020
X5514130Y642020
X5514130Y1002020
X5914130Y242020
X5914130Y642020
X5914130Y1002020
X6314130Y242020
X6314130Y642020
X6314130Y1002020
X6714130Y242020
X6714130Y642020
X6714130Y1002020
X7104130Y1012020
X7114130Y242020
X7114130Y642020
X7504130Y1012020
X7514130Y242020
X7514130Y642020
X8282020Y1935870
X8282020Y1535870
X3504130Y1112020
X3104130Y1112020
X2704130Y1112020
X2319810Y1514550
X2319810Y1114550
X2589810Y2104550
X2589810Y2504550
X2589810Y2854550
X4674550Y2430190
X4684550Y2780190
X5060000Y2440000
X5060000Y2780000
X6754130Y2152020
X6754130Y2422020
X7154130Y2152020
X7154130Y2422020
X7884130Y2362020
X8284130Y2362020
X8384550Y4030190
X8384550Y3630190
X8384550Y3230190
X7984550Y4030190
X7984550Y3630190
X7984550Y3230190
X6764550Y3580190
X6364550Y3580190
X5990000Y3590000
X5634550Y3590190
X5234550Y3590190
X4854550Y3600190
X4454550Y3600190
X3559810Y3874550
X3159810Y3884550
X2589810Y3254550
X2359810Y3874550
X2359810Y4274550
X2359810Y4734550
X2759810Y4734550
X3159810Y4284550
X3159810Y4734550
X3559810Y4274550
X3559810Y4734550
X3959810Y4734550
X4359810Y4734550
X4759810Y4734550
X5159810Y4734550
X5559810Y4734550
X5959810Y4734550
X6359810Y4734550
X6759810Y4734550
X7159810Y4734550
X7559810Y4734550
X7559810Y5134550
X7159810Y5134550
X6759810Y5134550
X6359810Y5134550
X5959810Y5134550
X5559810Y5134550
X5159810Y5134550
X4759810Y5134550
X4359810Y5134550
X3959810Y5134550
X3559810Y5134550
X3159810Y5134550
X2759810Y5134550
X2359810Y5134550
T03
X4890000Y1225000
X4890000Y1475000
X3730000Y1650000
X3730000Y1950000
X3730000Y3450000
X3730000Y3750000
X4890000Y3946100
X4890000Y4196100
X6340000Y4196100
X6340000Y3946100
X6195000Y3270000
X5945000Y3270000
X6195000Y2140000
X5945000Y2140000
X6340000Y1475000
X6340000Y1225000
T04
X360000Y360000
X360000Y5040000
X8140000Y5040000
X8140000Y360000
M30
