G04 ================== begin FILE IDENTIFICATION RECORD ==================*
G04 Layout Name:  H:/github/MBED-TOOLS/HARDWARE/HY_IP6538_V10/PCB/HY_IP6538_V10.brd*
G04 Film Name:    PasteMask_Top*
G04 File Format:  Gerber RS274X*
G04 File Origin:  Cadence Allegro 17.2-S067*
G04 Origin Date:  Thu Jan 28 19:16:46 2021*
G04 *
G04 Layer:  PIN/PASTEMASK_TOP*
G04 Layer:  PACKAGE GEOMETRY/PASTEMASK_TOP*
G04 *
G04 Offset:    (0.0000 0.0000)*
G04 Mirror:    No*
G04 Mode:      Positive*
G04 Rotation:  0*
G04 FullContactRelief:  No*
G04 UndefLineWidth:     0.1524*
G04 ================== end FILE IDENTIFICATION RECORD ====================*
%FSLAX55Y55*MOMM*%
%IR0*IPPOS*OFA0.00000B0.00000*MIA0B0*SFA1.00000B1.00000*%
%ADD26R,1.2X.3*%
%ADD25R,1.2X.6*%
%ADD27R,.9X1.3*%
%ADD18R,.8X.8*%
%ADD23R,3.X1.2*%
%ADD12R,5.X5.*%
%ADD14R,1.4X1.5*%
%ADD21R,1.8X3.2*%
%ADD11C,1.*%
%ADD19R,2.5X3.5*%
%ADD13R,1.6X1.8*%
%ADD22R,.7X.6*%
%ADD17R,.8X.25*%
%ADD16R,.25X.8*%
%ADD24R,4.9X2.7*%
%AMMACRO20*
4,1,20,2.335,-2.3,
2.335,2.3,
-1.785,2.3,
-1.785,2.155,
-2.335,2.155,
-2.335,1.655,
-1.785,1.655,
-1.785,.885,
-2.335,.885,
-2.335,.385,
-1.785,.385,
-1.785,-.385,
-2.335,-.385,
-2.335,-.885,
-1.785,-.885,
-1.785,-1.655,
-2.335,-1.655,
-2.335,-2.155,
-1.785,-2.155,
-1.785,-2.3,
2.335,-2.3,
0.0*
%
%ADD20MACRO20*%
%ADD15R,3.4X3.4*%
%ADD10C,6.9*%
%LPD*%
G75*
G54D10*
X360000Y360000D03*
Y5040000D03*
X8140000Y360000D03*
Y5040000D03*
G54D20*
X5536500Y1350000D03*
Y4071100D03*
G54D11*
X360000Y980000D03*
Y4441100D03*
X8140000Y980000D03*
Y4441100D03*
G54D21*
X5750000Y2700000D03*
X6390000D03*
G54D12*
X2010000Y2505000D03*
G54D22*
X5902500Y1159500D03*
Y1540500D03*
Y1413500D03*
Y1286500D03*
Y3880600D03*
Y4261600D03*
Y4134600D03*
Y4007600D03*
G54D13*
X1840000Y2940000D03*
X2120000D03*
X4140000Y1350000D03*
Y4071100D03*
X4420000Y1350000D03*
Y4071100D03*
G54D14*
X2395000Y2396000D03*
Y2604000D03*
G54D23*
X7020000Y3227990D03*
Y3477990D03*
Y3677990D03*
Y3927990D03*
G54D15*
X3250000Y2700000D03*
G54D24*
X7370000Y2880490D03*
Y4275490D03*
G54D16*
X3125000Y2450000D03*
X3075000D03*
Y2950000D03*
X3125000D03*
X3425000Y2450000D03*
X3375000D03*
X3325000D03*
X3275000D03*
X3225000D03*
X3175000D03*
Y2950000D03*
X3225000D03*
X3275000D03*
X3325000D03*
X3375000D03*
X3425000D03*
G54D25*
X7760000Y1484530D03*
Y1404530D03*
Y1964530D03*
Y2044530D03*
G54D17*
X3000000Y2525000D03*
Y2575000D03*
Y2625000D03*
Y2675000D03*
Y2725000D03*
Y2775000D03*
Y2825000D03*
Y2875000D03*
X3500000Y2725000D03*
Y2675000D03*
Y2625000D03*
Y2575000D03*
Y2525000D03*
Y2875000D03*
Y2825000D03*
Y2775000D03*
G54D26*
X7760000Y1599530D03*
Y1549530D03*
Y1899530D03*
Y1849530D03*
Y1799530D03*
Y1749530D03*
Y1699530D03*
Y1649530D03*
G54D18*
X2930000Y3426200D03*
Y3273800D03*
X3070000D03*
Y3426200D03*
X3210000Y3273800D03*
Y3426200D03*
X3812700Y2911900D03*
X3965100D03*
X6776200Y2700000D03*
X6623800D03*
X7782700Y2531900D03*
X7935100D03*
G54D27*
X8090000D03*
X8290000D03*
G54D19*
X4370000Y2700000D03*
X5410000D03*
M02*
