G04 ================== begin FILE IDENTIFICATION RECORD ==================*
G04 Layout Name:  H:/github/MBED-TOOLS/HARDWARE/HY_IP6538_V10/PCB/HY_IP6538_V10.brd*
G04 Film Name:    SolderMask_Top*
G04 File Format:  Gerber RS274X*
G04 File Origin:  Cadence Allegro 17.2-S067*
G04 Origin Date:  Thu Jan 28 19:16:46 2021*
G04 *
G04 Layer:  PIN/SOLDERMASK_TOP*
G04 Layer:  PACKAGE GEOMETRY/SOLDERMASK_TOP*
G04 Layer:  BOARD GEOMETRY/SOLDERMASK_TOP*
G04 *
G04 Offset:    (0.0000 0.0000)*
G04 Mirror:    No*
G04 Mode:      Positive*
G04 Rotation:  0*
G04 FullContactRelief:  No*
G04 UndefLineWidth:     0.1524*
G04 ================== end FILE IDENTIFICATION RECORD ====================*
%FSLAX55Y55*MOMM*%
%IR0*IPPOS*OFA0.00000B0.00000*MIA0B0*SFA1.00000B1.00000*%
%ADD30R,1.3X.4*%
%ADD29R,1.3X.7*%
%AMMACRO23*
4,1,20,-1.885,-2.4,
-1.885,-2.255,
-2.435,-2.255,
-2.435,-1.555,
-1.885,-1.555,
-1.885,-.985,
-2.435,-.985,
-2.435,-.285,
-1.885,-.285,
-1.885,.285,
-2.435,.285,
-2.435,.985,
-1.885,.985,
-1.885,1.555,
-2.435,1.555,
-2.435,2.255,
-1.885,2.255,
-1.885,2.4,
2.435,2.4,
2.435,-2.4,
-1.885,-2.4,
0.0*
%
%ADD23MACRO23*%
%ADD20R,.9X.9*%
%ADD28O,2.2X1.1*%
%ADD32O,1.7X1.1*%
%ADD31R,1.X1.4*%
%ADD26R,3.1X1.3*%
%ADD14R,5.1X5.1*%
%ADD16R,1.5X1.6*%
%ADD13O,4.15X2.15*%
%ADD27R,5.X2.8*%
%ADD12O,2.15X4.15*%
%ADD11C,1.1*%
%ADD24R,1.9X3.3*%
%ADD21C,1.4*%
%ADD15R,1.7X1.9*%
%ADD25R,.8X.7*%
%ADD10C,7.*%
%ADD19R,.9X.35*%
%ADD18R,.35X.9*%
%ADD22R,2.65X3.65*%
%ADD17R,3.5X3.5*%
G75*
%LPD*%
G75*
G36*
G01X510000Y980000D02*
G03I-150000J0D01*
G37*
G36*
G01Y4441100D02*
G03I-150000J0D01*
G37*
G36*
G01X8290000Y980000D02*
G03I-150000J0D01*
G37*
G36*
G01Y4441100D02*
G03I-150000J0D01*
G37*
G54D10*
X360000Y360000D03*
Y5040000D03*
X8140000Y360000D03*
Y5040000D03*
G54D11*
X360000Y980000D03*
Y4441100D03*
X8140000Y980000D03*
Y4441100D03*
G54D20*
X2930000Y3426200D03*
Y3273800D03*
X3070000D03*
Y3426200D03*
X3210000Y3273800D03*
Y3426200D03*
X3812700Y2911900D03*
X3965100D03*
X6776200Y2700000D03*
X6623800D03*
X7782700Y2531900D03*
X7935100D03*
G54D21*
X3730000Y1650000D03*
Y1950000D03*
Y3450000D03*
Y3750000D03*
X4890000Y1225000D03*
Y1475000D03*
Y4196100D03*
Y3946100D03*
X5945000Y2140000D03*
X6195000D03*
X5945000Y3270000D03*
X6195000D03*
X6340000Y1225000D03*
Y1475000D03*
Y4196100D03*
Y3946100D03*
G54D12*
X810000Y2700000D03*
X1410000D03*
G54D30*
X7760000Y1599530D03*
Y1549530D03*
Y1899530D03*
Y1849530D03*
Y1799530D03*
Y1749530D03*
Y1699530D03*
Y1649530D03*
G54D22*
X4370000Y2700000D03*
X5410000D03*
G54D13*
X1130000Y2220000D03*
G54D31*
X8090000Y2531900D03*
X8290000D03*
G54D14*
X2010000Y2505000D03*
G54D32*
X8282000Y1292530D03*
Y2156530D03*
G54D23*
X5536500Y1350000D03*
Y4071100D03*
G54D15*
X1840000Y2940000D03*
X2120000D03*
X4140000Y1350000D03*
Y4071100D03*
X4420000Y1350000D03*
Y4071100D03*
G54D24*
X5750000Y2700000D03*
X6390000D03*
G54D25*
X5902500Y1159500D03*
Y1540500D03*
Y1413500D03*
Y1286500D03*
Y3880600D03*
Y4261600D03*
Y4134600D03*
Y4007600D03*
G54D16*
X2395000Y2396000D03*
Y2604000D03*
G54D17*
X3250000Y2700000D03*
G54D26*
X7020000Y3227990D03*
Y3477990D03*
Y3677990D03*
Y3927990D03*
G54D18*
X3125000Y2450000D03*
X3075000D03*
Y2950000D03*
X3125000D03*
X3425000Y2450000D03*
X3375000D03*
X3325000D03*
X3275000D03*
X3225000D03*
X3175000D03*
Y2950000D03*
X3225000D03*
X3275000D03*
X3325000D03*
X3375000D03*
X3425000D03*
G54D27*
X7370000Y2880490D03*
Y4275490D03*
G54D19*
X3000000Y2525000D03*
Y2575000D03*
Y2625000D03*
Y2675000D03*
Y2725000D03*
Y2775000D03*
Y2825000D03*
Y2875000D03*
X3500000Y2725000D03*
Y2675000D03*
Y2625000D03*
Y2575000D03*
Y2525000D03*
Y2875000D03*
Y2825000D03*
Y2775000D03*
G54D28*
X7864000Y1292530D03*
Y2156530D03*
G54D29*
X7760000Y1484530D03*
Y1404530D03*
Y1964530D03*
Y2044530D03*
M02*
