G04 ================== begin FILE IDENTIFICATION RECORD ==================*
G04 Layout Name:  CH344Q_V10_240413.brd*
G04 Film Name:    Drill_Legend*
G04 File Format:  Gerber RS274X*
G04 File Origin:  Cadence Allegro 23.1-S003*
G04 Origin Date:  Sat Apr 20 11:21:09 2024*
G04 *
G04 Layer:  MANUFACTURING/NCLEGEND-1-2*
G04 Layer:  MANUFACTURING/NCDRILL_LEGEND*
G04 Layer:  MANUFACTURING/NCDRILL_FIGURE*
G04 Layer:  BOARD GEOMETRY/DIMENSION*
G04 *
G04 Offset:    (0.0000 0.0000)*
G04 Mirror:    No*
G04 Mode:      Positive*
G04 Rotation:  0*
G04 FullContactRelief:  No*
G04 UndefLineWidth:     0.1524*
G04 ================== end FILE IDENTIFICATION RECORD ====================*
%FSLAX55Y55*MOMM*%
%IR0*IPPOS*OFA0.00000B0.00000*MIA0B0*SFA1.00000B1.00000*%
%AMMACRO13*
1,1,.1524,.476346,-1.15*
20,1,.1524,.476346,-1.15,-.476346,-1.15,0.0*
1,1,.1524,-.476346,-1.15*
20,1,.1524,-.476346,-1.15,-1.15,-.476346,0.0*
1,1,.1524,-1.15,-.476346*
20,1,.1524,-1.15,-.476346,-1.15,.476346,0.0*
1,1,.1524,-1.15,.476346*
20,1,.1524,-1.15,.476346,-.476346,1.15,0.0*
1,1,.1524,-.476346,1.15*
20,1,.1524,-.476346,1.15,.476346,1.15,0.0*
1,1,.1524,.476346,1.15*
20,1,.1524,.476346,1.15,1.15,.476346,0.0*
1,1,.1524,1.15,.476346*
20,1,.1524,1.15,.476346,1.15,-.476346,0.0*
1,1,.1524,1.15,-.476346*
20,1,.1524,1.15,-.476346,.476346,-1.15,0.0*
1,1,.1524,.476346,-1.15*
%
%ADD13MACRO13*%
%AMMACRO10*
1,1,.1524,1.65,0.0*
20,1,.1524,1.65,0.0,0.0,-1.65,0.0*
1,1,.1524,0.0,-1.65*
20,1,.1524,0.0,-1.65,-1.65,0.0,0.0*
1,1,.1524,-1.65,0.0*
20,1,.1524,-1.65,0.0,0.0,1.65,0.0*
1,1,.1524,0.0,1.65*
20,1,.1524,0.0,1.65,1.65,0.0,0.0*
1,1,.1524,1.65,0.0*
%
%ADD10MACRO10*%
%AMMACRO12*
1,1,.1524,-.3,.3*
20,1,.1524,-.3,.3,.3,.3,0.0*
1,1,.1524,.3,.3*
20,1,.1524,.3,.3,.352094,.295442,0.0*
1,1,.1524,.352094,.295442*
20,1,.1524,.352094,.295442,.402606,.281908,0.0*
1,1,.1524,.402606,.281908*
20,1,.1524,.402606,.281908,.45,.259808,0.0*
1,1,.1524,.45,.259808*
20,1,.1524,.45,.259808,.492836,.229813,0.0*
1,1,.1524,.492836,.229813*
20,1,.1524,.492836,.229813,.529813,.192836,0.0*
1,1,.1524,.529813,.192836*
20,1,.1524,.529813,.192836,.559808,.15,0.0*
1,1,.1524,.559808,.15*
20,1,.1524,.559808,.15,.581908,.102606,0.0*
1,1,.1524,.581908,.102606*
20,1,.1524,.581908,.102606,.595442,.052094,0.0*
1,1,.1524,.595442,.052094*
20,1,.1524,.595442,.052094,.6,0.0,0.0*
1,1,.1524,.6,0.0*
20,1,.1524,.6,0.0,.595442,-.052094,0.0*
1,1,.1524,.595442,-.052094*
20,1,.1524,.595442,-.052094,.581908,-.102606,0.0*
1,1,.1524,.581908,-.102606*
20,1,.1524,.581908,-.102606,.559808,-.15,0.0*
1,1,.1524,.559808,-.15*
20,1,.1524,.559808,-.15,.529813,-.192836,0.0*
1,1,.1524,.529813,-.192836*
20,1,.1524,.529813,-.192836,.492836,-.229813,0.0*
1,1,.1524,.492836,-.229813*
20,1,.1524,.492836,-.229813,.45,-.259808,0.0*
1,1,.1524,.45,-.259808*
20,1,.1524,.45,-.259808,.402606,-.281908,0.0*
1,1,.1524,.402606,-.281908*
20,1,.1524,.402606,-.281908,.352094,-.295442,0.0*
1,1,.1524,.352094,-.295442*
20,1,.1524,.352094,-.295442,.3,-.3,0.0*
1,1,.1524,.3,-.3*
20,1,.1524,.3,-.3,-.3,-.3,0.0*
1,1,.1524,-.3,-.3*
20,1,.1524,-.3,-.3,-.352094,-.295442,0.0*
1,1,.1524,-.352094,-.295442*
20,1,.1524,-.352094,-.295442,-.402606,-.281908,0.0*
1,1,.1524,-.402606,-.281908*
20,1,.1524,-.402606,-.281908,-.45,-.259808,0.0*
1,1,.1524,-.45,-.259808*
20,1,.1524,-.45,-.259808,-.492836,-.229813,0.0*
1,1,.1524,-.492836,-.229813*
20,1,.1524,-.492836,-.229813,-.529813,-.192836,0.0*
1,1,.1524,-.529813,-.192836*
20,1,.1524,-.529813,-.192836,-.559808,-.15,0.0*
1,1,.1524,-.559808,-.15*
20,1,.1524,-.559808,-.15,-.581908,-.102606,0.0*
1,1,.1524,-.581908,-.102606*
20,1,.1524,-.581908,-.102606,-.595442,-.052094,0.0*
1,1,.1524,-.595442,-.052094*
20,1,.1524,-.595442,-.052094,-.6,0.0,0.0*
1,1,.1524,-.6,0.0*
20,1,.1524,-.6,0.0,-.595442,.052094,0.0*
1,1,.1524,-.595442,.052094*
20,1,.1524,-.595442,.052094,-.581908,.102606,0.0*
1,1,.1524,-.581908,.102606*
20,1,.1524,-.581908,.102606,-.559808,.15,0.0*
1,1,.1524,-.559808,.15*
20,1,.1524,-.559808,.15,-.529813,.192836,0.0*
1,1,.1524,-.529813,.192836*
20,1,.1524,-.529813,.192836,-.492836,.229813,0.0*
1,1,.1524,-.492836,.229813*
20,1,.1524,-.492836,.229813,-.45,.259808,0.0*
1,1,.1524,-.45,.259808*
20,1,.1524,-.45,.259808,-.402606,.281908,0.0*
1,1,.1524,-.402606,.281908*
20,1,.1524,-.402606,.281908,-.352094,.295442,0.0*
1,1,.1524,-.352094,.295442*
20,1,.1524,-.352094,.295442,-.3,.3,0.0*
1,1,.1524,-.3,.3*
1,1,.1524,-.15,-.15*
20,1,.1524,-.15,-.15,-.19,-.145,0.0*
1,1,.1524,-.19,-.145*
20,1,.1524,-.19,-.145,-.225,-.125,0.0*
1,1,.1524,-.225,-.125*
20,1,.1524,-.225,-.125,-.255,-.095,0.0*
1,1,.1524,-.255,-.095*
20,1,.1524,-.255,-.095,-.275,-.06,0.0*
1,1,.1524,-.275,-.06*
20,1,.1524,-.275,-.06,-.285,-.02,0.0*
1,1,.1524,-.285,-.02*
20,1,.1524,-.285,-.02,-.285,.02,0.0*
1,1,.1524,-.285,.02*
20,1,.1524,-.285,.02,-.275,.06,0.0*
1,1,.1524,-.275,.06*
20,1,.1524,-.275,.06,-.255,.095,0.0*
1,1,.1524,-.255,.095*
20,1,.1524,-.255,.095,-.225,.125,0.0*
1,1,.1524,-.225,.125*
20,1,.1524,-.225,.125,-.19,.145,0.0*
1,1,.1524,-.19,.145*
20,1,.1524,-.19,.145,-.15,.15,0.0*
1,1,.1524,-.15,.15*
20,1,.1524,-.15,.15,-.11,.145,0.0*
1,1,.1524,-.11,.145*
20,1,.1524,-.11,.145,-.075,.125,0.0*
1,1,.1524,-.075,.125*
20,1,.1524,-.075,.125,-.045,.095,0.0*
1,1,.1524,-.045,.095*
20,1,.1524,-.045,.095,-.025,.06,0.0*
1,1,.1524,-.025,.06*
20,1,.1524,-.025,.06,-.015,.02,0.0*
1,1,.1524,-.015,.02*
20,1,.1524,-.015,.02,-.015,-.02,0.0*
1,1,.1524,-.015,-.02*
20,1,.1524,-.015,-.02,-.025,-.06,0.0*
1,1,.1524,-.025,-.06*
20,1,.1524,-.025,-.06,-.045,-.095,0.0*
1,1,.1524,-.045,-.095*
20,1,.1524,-.045,-.095,-.075,-.125,0.0*
1,1,.1524,-.075,-.125*
20,1,.1524,-.075,-.125,-.11,-.145,0.0*
1,1,.1524,-.11,-.145*
20,1,.1524,-.11,-.145,-.15,-.15,0.0*
1,1,.1524,-.15,-.15*
1,1,.1524,.0251,-.15*
20,1,.1524,.0251,-.15,.1501,.15,0.0*
1,1,.1524,.1501,.15*
20,1,.1524,.1501,.15,.2751,-.15,0.0*
1,1,.1524,.2751,-.15*
1,1,.1524,.2301,-.045*
20,1,.1524,.2301,-.045,.0701,-.045,0.0*
1,1,.1524,.0701,-.045*
%
%ADD12MACRO12*%
%AMMACRO15*
1,1,.1524,.4,.4*
20,1,.1524,.4,.4,.4,-.4,0.0*
1,1,.1524,.4,-.4*
20,1,.1524,.4,-.4,-.4,-.4,0.0*
1,1,.1524,-.4,-.4*
20,1,.1524,-.4,-.4,-.4,.4,0.0*
1,1,.1524,-.4,.4*
20,1,.1524,-.4,.4,.4,.4,0.0*
1,1,.1524,.4,.4*
%
%ADD15MACRO15*%
%AMMACRO14*
1,1,.1524,-.55,.3*
20,1,.1524,-.55,.3,.55,.3,0.0*
1,1,.1524,.55,.3*
20,1,.1524,.55,.3,.602094,.295442,0.0*
1,1,.1524,.602094,.295442*
20,1,.1524,.602094,.295442,.652606,.281908,0.0*
1,1,.1524,.652606,.281908*
20,1,.1524,.652606,.281908,.7,.259808,0.0*
1,1,.1524,.7,.259808*
20,1,.1524,.7,.259808,.742836,.229813,0.0*
1,1,.1524,.742836,.229813*
20,1,.1524,.742836,.229813,.779813,.192836,0.0*
1,1,.1524,.779813,.192836*
20,1,.1524,.779813,.192836,.809808,.15,0.0*
1,1,.1524,.809808,.15*
20,1,.1524,.809808,.15,.831908,.102606,0.0*
1,1,.1524,.831908,.102606*
20,1,.1524,.831908,.102606,.845442,.052094,0.0*
1,1,.1524,.845442,.052094*
20,1,.1524,.845442,.052094,.85,0.0,0.0*
1,1,.1524,.85,0.0*
20,1,.1524,.85,0.0,.845442,-.052094,0.0*
1,1,.1524,.845442,-.052094*
20,1,.1524,.845442,-.052094,.831908,-.102606,0.0*
1,1,.1524,.831908,-.102606*
20,1,.1524,.831908,-.102606,.809808,-.15,0.0*
1,1,.1524,.809808,-.15*
20,1,.1524,.809808,-.15,.779813,-.192836,0.0*
1,1,.1524,.779813,-.192836*
20,1,.1524,.779813,-.192836,.742836,-.229813,0.0*
1,1,.1524,.742836,-.229813*
20,1,.1524,.742836,-.229813,.7,-.259808,0.0*
1,1,.1524,.7,-.259808*
20,1,.1524,.7,-.259808,.652606,-.281908,0.0*
1,1,.1524,.652606,-.281908*
20,1,.1524,.652606,-.281908,.602094,-.295442,0.0*
1,1,.1524,.602094,-.295442*
20,1,.1524,.602094,-.295442,.55,-.3,0.0*
1,1,.1524,.55,-.3*
20,1,.1524,.55,-.3,-.55,-.3,0.0*
1,1,.1524,-.55,-.3*
20,1,.1524,-.55,-.3,-.602094,-.295442,0.0*
1,1,.1524,-.602094,-.295442*
20,1,.1524,-.602094,-.295442,-.652606,-.281908,0.0*
1,1,.1524,-.652606,-.281908*
20,1,.1524,-.652606,-.281908,-.7,-.259808,0.0*
1,1,.1524,-.7,-.259808*
20,1,.1524,-.7,-.259808,-.742836,-.229813,0.0*
1,1,.1524,-.742836,-.229813*
20,1,.1524,-.742836,-.229813,-.779813,-.192836,0.0*
1,1,.1524,-.779813,-.192836*
20,1,.1524,-.779813,-.192836,-.809808,-.15,0.0*
1,1,.1524,-.809808,-.15*
20,1,.1524,-.809808,-.15,-.831908,-.102606,0.0*
1,1,.1524,-.831908,-.102606*
20,1,.1524,-.831908,-.102606,-.845442,-.052094,0.0*
1,1,.1524,-.845442,-.052094*
20,1,.1524,-.845442,-.052094,-.85,0.0,0.0*
1,1,.1524,-.85,0.0*
20,1,.1524,-.85,0.0,-.845442,.052094,0.0*
1,1,.1524,-.845442,.052094*
20,1,.1524,-.845442,.052094,-.831908,.102606,0.0*
1,1,.1524,-.831908,.102606*
20,1,.1524,-.831908,.102606,-.809808,.15,0.0*
1,1,.1524,-.809808,.15*
20,1,.1524,-.809808,.15,-.779813,.192836,0.0*
1,1,.1524,-.779813,.192836*
20,1,.1524,-.779813,.192836,-.742836,.229813,0.0*
1,1,.1524,-.742836,.229813*
20,1,.1524,-.742836,.229813,-.7,.259808,0.0*
1,1,.1524,-.7,.259808*
20,1,.1524,-.7,.259808,-.652606,.281908,0.0*
1,1,.1524,-.652606,.281908*
20,1,.1524,-.652606,.281908,-.602094,.295442,0.0*
1,1,.1524,-.602094,.295442*
20,1,.1524,-.602094,.295442,-.55,.3,0.0*
1,1,.1524,-.55,.3*
1,1,.1524,-.15,-.15*
20,1,.1524,-.15,-.15,-.19,-.145,0.0*
1,1,.1524,-.19,-.145*
20,1,.1524,-.19,-.145,-.225,-.125,0.0*
1,1,.1524,-.225,-.125*
20,1,.1524,-.225,-.125,-.255,-.095,0.0*
1,1,.1524,-.255,-.095*
20,1,.1524,-.255,-.095,-.275,-.06,0.0*
1,1,.1524,-.275,-.06*
20,1,.1524,-.275,-.06,-.285,-.02,0.0*
1,1,.1524,-.285,-.02*
20,1,.1524,-.285,-.02,-.285,.02,0.0*
1,1,.1524,-.285,.02*
20,1,.1524,-.285,.02,-.275,.06,0.0*
1,1,.1524,-.275,.06*
20,1,.1524,-.275,.06,-.255,.095,0.0*
1,1,.1524,-.255,.095*
20,1,.1524,-.255,.095,-.225,.125,0.0*
1,1,.1524,-.225,.125*
20,1,.1524,-.225,.125,-.19,.145,0.0*
1,1,.1524,-.19,.145*
20,1,.1524,-.19,.145,-.15,.15,0.0*
1,1,.1524,-.15,.15*
20,1,.1524,-.15,.15,-.11,.145,0.0*
1,1,.1524,-.11,.145*
20,1,.1524,-.11,.145,-.075,.125,0.0*
1,1,.1524,-.075,.125*
20,1,.1524,-.075,.125,-.045,.095,0.0*
1,1,.1524,-.045,.095*
20,1,.1524,-.045,.095,-.025,.06,0.0*
1,1,.1524,-.025,.06*
20,1,.1524,-.025,.06,-.015,.02,0.0*
1,1,.1524,-.015,.02*
20,1,.1524,-.015,.02,-.015,-.02,0.0*
1,1,.1524,-.015,-.02*
20,1,.1524,-.015,-.02,-.025,-.06,0.0*
1,1,.1524,-.025,-.06*
20,1,.1524,-.025,-.06,-.045,-.095,0.0*
1,1,.1524,-.045,-.095*
20,1,.1524,-.045,-.095,-.075,-.125,0.0*
1,1,.1524,-.075,-.125*
20,1,.1524,-.075,-.125,-.11,-.145,0.0*
1,1,.1524,-.11,-.145*
20,1,.1524,-.11,-.145,-.15,-.15,0.0*
1,1,.1524,-.15,-.15*
1,1,.1524,.1901,.01*
20,1,.1524,.1901,.01,.2101,.025,0.0*
1,1,.1524,.2101,.025*
20,1,.1524,.2101,.025,.2251,.05,0.0*
1,1,.1524,.2251,.05*
20,1,.1524,.2251,.05,.2351,.085,0.0*
1,1,.1524,.2351,.085*
20,1,.1524,.2351,.085,.2251,.115,0.0*
1,1,.1524,.2251,.115*
20,1,.1524,.2251,.115,.2051,.135,0.0*
1,1,.1524,.2051,.135*
20,1,.1524,.2051,.135,.1701,.15,0.0*
1,1,.1524,.1701,.15*
20,1,.1524,.1701,.15,.0351,.15,0.0*
1,1,.1524,.0351,.15*
20,1,.1524,.0351,.15,.0351,-.15,0.0*
1,1,.1524,.0351,-.15*
20,1,.1524,.0351,-.15,.2001,-.15,0.0*
1,1,.1524,.2001,-.15*
20,1,.1524,.2001,-.15,.2351,-.13,0.0*
1,1,.1524,.2351,-.13*
20,1,.1524,.2351,-.13,.2551,-.1,0.0*
1,1,.1524,.2551,-.1*
20,1,.1524,.2551,-.1,.2651,-.065,0.0*
1,1,.1524,.2651,-.065*
20,1,.1524,.2651,-.065,.2551,-.03,0.0*
1,1,.1524,.2551,-.03*
20,1,.1524,.2551,-.03,.2251,0.0,0.0*
1,1,.1524,.2251,0.0*
20,1,.1524,.2251,0.0,.1901,.01,0.0*
1,1,.1524,.1901,.01*
20,1,.1524,.1901,.01,.0351,.01,0.0*
1,1,.1524,.0351,.01*
%
%ADD14MACRO14*%
%AMMACRO11*
1,1,.1524,.127,0.0*
20,1,.1524,.127,0.0,-.127,0.0,0.0*
1,1,.1524,-.127,0.0*
1,1,.1524,0.0,.127*
20,1,.1524,0.0,.127,0.0,-.127,0.0*
1,1,.1524,0.0,-.127*
%
%ADD11MACRO11*%
%AMMACRO16*
1,1,.1524,.55,0.0*
20,1,.1524,.55,0.0,.275,.476314,0.0*
1,1,.1524,.275,.476314*
20,1,.1524,.275,.476314,-.275,.476314,0.0*
1,1,.1524,-.275,.476314*
20,1,.1524,-.275,.476314,-.55,0.0,0.0*
1,1,.1524,-.55,0.0*
20,1,.1524,-.55,0.0,-.275,-.476314,0.0*
1,1,.1524,-.275,-.476314*
20,1,.1524,-.275,-.476314,.275,-.476314,0.0*
1,1,.1524,.275,-.476314*
20,1,.1524,.275,-.476314,.55,0.0,0.0*
1,1,.1524,.55,0.0*
%
%ADD16MACRO16*%
%AMMACRO17*
1,1,.1524,0.0,.7*
20,1,.1524,0.0,.7,-.606218,.35,0.0*
1,1,.1524,-.606218,.35*
20,1,.1524,-.606218,.35,-.606218,-.35,0.0*
1,1,.1524,-.606218,-.35*
20,1,.1524,-.606218,-.35,0.0,-.7,0.0*
1,1,.1524,0.0,-.7*
20,1,.1524,0.0,-.7,.606218,-.35,0.0*
1,1,.1524,.606218,-.35*
20,1,.1524,.606218,-.35,.606218,.35,0.0*
1,1,.1524,.606218,.35*
20,1,.1524,.606218,.35,0.0,.7,0.0*
1,1,.1524,0.0,.7*
%
%ADD17MACRO17*%
%ADD18C,.1524*%
G75*
%LPD*%
G75*
G54D10*
X360000Y360000D03*
Y5040000D03*
X1060000D03*
X7440000D03*
X8140000Y360000D03*
Y5040000D03*
X10551730Y1537500D03*
G54D11*
X110000Y810000D03*
Y1310000D03*
Y1810000D03*
X90000Y4180000D03*
X270000Y3460000D03*
X490000Y3770000D03*
X610000Y810000D03*
Y1310000D03*
Y1810000D03*
X590000Y4180000D03*
X1220000Y80000D03*
Y580000D03*
X1250000Y2560000D03*
X1070000D03*
X910000Y2430000D03*
Y2910000D03*
X1006690Y2665870D03*
Y2774130D03*
X1225000Y2960000D03*
X1120000Y3180000D03*
X1230000Y3384800D03*
X990000Y3770000D03*
X1090000Y4180000D03*
X1560000Y2950000D03*
Y2780000D03*
X1315000Y2960000D03*
X1600000Y4095000D03*
X1590000Y4180000D03*
X1600000Y4005000D03*
X1490000Y4700000D03*
Y5200000D03*
X1720000Y80000D03*
Y580000D03*
X1690000Y2120000D03*
X1860000Y2700000D03*
X1740000Y3120000D03*
Y3490000D03*
X2220000Y80000D03*
Y580000D03*
X1960000Y2120000D03*
X2280000Y2130000D03*
X1960000Y2510000D03*
Y2330000D03*
X2280000Y2450000D03*
X1980000Y3120000D03*
Y3490000D03*
X2160000Y3600000D03*
X2090000D03*
X1990000Y4700000D03*
Y5200000D03*
X2350000Y1530000D03*
X2605000Y3775000D03*
X2490000Y4700000D03*
Y5200000D03*
X2720000Y80000D03*
Y580000D03*
X2850000Y1530000D03*
X2780000Y2130000D03*
X2920000Y2060000D03*
X2780000Y2450000D03*
X2690000Y3430000D03*
X2695000Y3775000D03*
X2810000Y3880000D03*
X2990000Y4700000D03*
Y5200000D03*
X3220000Y80000D03*
Y580000D03*
X3050000Y2240000D03*
Y2060000D03*
X3180000D03*
Y1930000D03*
X3050000D03*
Y2740000D03*
X3310000Y2760000D03*
X3060000Y3210000D03*
X3310000Y3880000D03*
X3550000Y1230000D03*
Y1570000D03*
X3450000Y2170000D03*
Y2270000D03*
X3490000Y4700000D03*
Y5200000D03*
X3720000Y80000D03*
Y580000D03*
X4050000Y1230000D03*
Y1570000D03*
X3950000Y3920000D03*
X3990000Y4700000D03*
Y5200000D03*
X4220000Y80000D03*
Y580000D03*
X4720000Y80000D03*
Y580000D03*
X4450000Y3920000D03*
X4490000Y4700000D03*
Y5200000D03*
X4840000Y1480000D03*
X4950000Y1370000D03*
X4840000Y1870000D03*
X4820000Y2180000D03*
X4845000Y2560000D03*
X4935000D03*
X4985000Y3330000D03*
X5075000D03*
X4985000Y3770000D03*
X5075000D03*
X4990000Y4700000D03*
Y5200000D03*
X5220000Y80000D03*
Y580000D03*
X5340000Y1750000D03*
X5720000Y80000D03*
Y580000D03*
X5620000Y2830000D03*
X5490000Y4700000D03*
Y5200000D03*
X6155000Y995000D03*
X6050000Y1460000D03*
X5865000Y1550000D03*
X5840000Y1750000D03*
X6155000Y1895000D03*
X6120000Y2830000D03*
X6155000Y2645000D03*
X5990000Y4700000D03*
Y5200000D03*
X6220000Y80000D03*
Y580000D03*
X6400000Y1200000D03*
Y2090000D03*
X6230000Y2270000D03*
X6390000Y2460000D03*
X6170000Y3250000D03*
X6240000Y3800000D03*
X6440000Y4060000D03*
X6490000Y4700000D03*
Y5200000D03*
X6720000Y80000D03*
Y580000D03*
X6680000Y3020000D03*
X6700000Y3570000D03*
X7180000Y3020000D03*
X7200000Y3570000D03*
X6990000Y4700000D03*
Y5200000D03*
X7220000Y80000D03*
Y580000D03*
X7720000Y80000D03*
Y580000D03*
X7830000Y780000D03*
Y1280000D03*
Y1780000D03*
Y2280000D03*
Y2780000D03*
Y3280000D03*
Y3780000D03*
Y4280000D03*
X8330000Y780000D03*
Y1280000D03*
Y1780000D03*
Y2280000D03*
Y2780000D03*
Y3280000D03*
Y3780000D03*
Y4280000D03*
X10551730Y4712500D03*
G54D12*
X258000Y2238000D03*
Y3102000D03*
X10551730Y902500D03*
G54D13*
X1029000Y818000D03*
Y2022000D03*
X10551730Y2172500D03*
G54D14*
X676000Y2238000D03*
Y3102000D03*
X10551730Y267500D03*
G54D15*
X1300000Y1295000D03*
Y1545000D03*
X1500000D03*
Y1295000D03*
X10551730Y4077500D03*
G54D16*
X2430000Y1030000D03*
X2684000D03*
X2430000Y4370000D03*
X2684000D03*
X2938000Y1030000D03*
Y4370000D03*
X3192000Y1030000D03*
Y4370000D03*
X4040000Y1030000D03*
Y4370000D03*
X4294000Y1030000D03*
X4280000Y1760300D03*
Y2014300D03*
Y2346000D03*
Y2600000D03*
Y2926000D03*
Y3180000D03*
Y3506000D03*
Y3760000D03*
X4294000Y4370000D03*
X4802000Y1030000D03*
X4548000D03*
X4534000Y1760300D03*
Y2014300D03*
Y2346000D03*
Y2600000D03*
Y2926000D03*
Y3180000D03*
Y3506000D03*
Y3760000D03*
X4802000Y4370000D03*
X4548000D03*
X10551730Y3442500D03*
G54D17*
X7610000Y1174400D03*
Y1428400D03*
Y1936400D03*
Y1682400D03*
Y2190400D03*
Y2444400D03*
Y2940000D03*
Y3194000D03*
Y3702000D03*
Y3448000D03*
Y3956000D03*
Y4210000D03*
X10551730Y2807500D03*
G54D18*
G01X-1427400Y2503320D02*
X-1413180Y2487450D01*
X-1396590Y2477920D01*
X-1375250Y2474750D01*
X-1353910Y2481100D01*
X-1337320Y2493800D01*
X-1325470Y2516020D01*
X-1323100Y2541420D01*
X-1327840Y2566820D01*
X-1339690Y2582700D01*
X-1356290Y2595400D01*
X-1372880Y2598570D01*
X-1389470Y2595400D01*
X-1410810Y2582700D01*
X-1403700Y2665250D01*
X-1339690D01*
G01X-1156300Y2474750D02*
Y2665250D01*
X-1244020Y2528730D01*
X-1125480D01*
G01X-957900Y1913320D02*
X-943680Y1897450D01*
X-927090Y1887920D01*
X-905750Y1884750D01*
X-884410Y1891100D01*
X-867820Y1903800D01*
X-855970Y1926020D01*
X-853600Y1951420D01*
X-858340Y1976820D01*
X-870190Y1992700D01*
X-886790Y2005400D01*
X-903380Y2008570D01*
X-919970Y2005400D01*
X-941310Y1992700D01*
X-934200Y2075250D01*
X-870190D01*
G01X-715250D02*
X-734220Y2068900D01*
X-748440Y2053020D01*
X-757920Y2033980D01*
X-765030Y2008570D01*
X-767400Y1980000D01*
X-765030Y1951420D01*
X-757920Y1926020D01*
X-748440Y1906970D01*
X-734220Y1891100D01*
X-715250Y1884750D01*
X-696290Y1891100D01*
X-682060Y1906970D01*
X-672580Y1926020D01*
X-665470Y1951420D01*
X-663100Y1980000D01*
X-665470Y2008570D01*
X-672580Y2033980D01*
X-682060Y2053020D01*
X-696290Y2068900D01*
X-715250Y2075250D01*
G01X-524750Y1878400D02*
X-529490Y1881580D01*
Y1887920D01*
X-524750Y1891100D01*
X-520010Y1887920D01*
Y1881580D01*
X-524750Y1878400D01*
G01X-305800Y1884750D02*
Y2075250D01*
X-393520Y1938730D01*
X-274980D01*
G01X-512650Y972850D02*
X-498430Y950620D01*
X-479470Y937920D01*
X-458130Y934750D01*
X-439160Y937920D01*
X-420200Y953800D01*
X-408350Y972850D01*
X-405980Y991900D01*
X-410720Y1014120D01*
X-427310Y1030000D01*
X-443910Y1036350D01*
X-465240D01*
G01X-443910D02*
X-429680Y1045870D01*
X-417830Y1061750D01*
X-413090Y1080800D01*
X-417830Y1099850D01*
X-429680Y1115720D01*
X-451020Y1125250D01*
X-472350Y1122080D01*
X-493690Y1109370D01*
G01X-270000Y928400D02*
X-274740Y931580D01*
Y937920D01*
X-270000Y941100D01*
X-265260Y937920D01*
Y931580D01*
X-270000Y928400D01*
G01X-124540Y1014120D02*
X-107950Y1036350D01*
X-93720Y1049050D01*
X-74760Y1055400D01*
X-58160Y1049050D01*
X-46310Y1036350D01*
X-36830Y1017300D01*
X-34460Y995070D01*
X-36830Y976020D01*
X-46310Y956970D01*
X-60540Y941100D01*
X-77130Y934750D01*
X-96090Y941100D01*
X-112690Y960140D01*
X-122170Y988730D01*
X-124540Y1020470D01*
X-119800Y1061750D01*
X-112690Y1083980D01*
X-100840Y1106200D01*
X-84240Y1122080D01*
X-67650Y1125250D01*
X-51050Y1118900D01*
X-39200Y1103020D01*
G01X787350Y-247150D02*
X801570Y-269380D01*
X820530Y-282080D01*
X841870Y-285250D01*
X860840Y-282080D01*
X879800Y-266200D01*
X891650Y-247150D01*
X894020Y-228100D01*
X889280Y-205880D01*
X872690Y-190000D01*
X856090Y-183650D01*
X834760D01*
G01X856090D02*
X870320Y-174130D01*
X882170Y-158250D01*
X886910Y-139200D01*
X882170Y-120150D01*
X870320Y-104280D01*
X848980Y-94750D01*
X827650Y-97920D01*
X806310Y-110630D01*
G01X1030000Y-291600D02*
X1025260Y-288420D01*
Y-282080D01*
X1030000Y-278900D01*
X1034740Y-282080D01*
Y-288420D01*
X1030000Y-291600D01*
G01X1175460Y-205880D02*
X1192050Y-183650D01*
X1206280Y-170950D01*
X1225240Y-164600D01*
X1241840Y-170950D01*
X1253690Y-183650D01*
X1263170Y-202700D01*
X1265540Y-224930D01*
X1263170Y-243980D01*
X1253690Y-263030D01*
X1239460Y-278900D01*
X1222870Y-285250D01*
X1203910Y-278900D01*
X1187310Y-259860D01*
X1177830Y-231270D01*
X1175460Y-199530D01*
X1180200Y-158250D01*
X1187310Y-136020D01*
X1199160Y-113800D01*
X1215760Y-97920D01*
X1232350Y-94750D01*
X1248950Y-101100D01*
X1260800Y-116980D01*
G01X665260Y5754750D02*
X670000Y5796020D01*
X677110Y5830950D01*
X686590Y5862700D01*
X698450Y5897620D01*
X717410Y5945250D01*
X622590D01*
G01X2084250Y-515250D02*
X2100840Y-512080D01*
X2119810Y-502550D01*
X2131660Y-486680D01*
X2136400Y-464450D01*
X2131660Y-442230D01*
X2117440Y-423180D01*
X2096100Y-413650D01*
X2072400D01*
X2058170Y-407300D01*
X2046320Y-391430D01*
X2041580Y-369200D01*
X2048690Y-346980D01*
X2065280Y-331100D01*
X2084250Y-324750D01*
X2103210Y-331100D01*
X2119810Y-346980D01*
X2126920Y-369200D01*
X2122180Y-391430D01*
X2110330Y-407300D01*
X2096100Y-413650D01*
X2072400D01*
X2051060Y-423180D01*
X2036840Y-442230D01*
X2032100Y-464450D01*
X2036840Y-486680D01*
X2048690Y-502550D01*
X2067660Y-512080D01*
X2084250Y-515250D01*
G01X2274750D02*
Y-324750D01*
X2246300Y-362850D01*
G01Y-515250D02*
X2303190D01*
G01X2465250Y-521600D02*
X2460510Y-518420D01*
Y-512080D01*
X2465250Y-508900D01*
X2469990Y-512080D01*
Y-518420D01*
X2465250Y-521600D01*
G01X2684200Y-515250D02*
Y-324750D01*
X2596480Y-461270D01*
X2715020D01*
G01X3544750Y-765250D02*
X3561340Y-762080D01*
X3580310Y-752550D01*
X3592160Y-736680D01*
X3596900Y-714450D01*
X3592160Y-692230D01*
X3577940Y-673180D01*
X3556600Y-663650D01*
X3532900D01*
X3518670Y-657300D01*
X3506820Y-641430D01*
X3502080Y-619200D01*
X3509190Y-596980D01*
X3525780Y-581100D01*
X3544750Y-574750D01*
X3563710Y-581100D01*
X3580310Y-596980D01*
X3587420Y-619200D01*
X3582680Y-641430D01*
X3570830Y-657300D01*
X3556600Y-663650D01*
X3532900D01*
X3511560Y-673180D01*
X3497340Y-692230D01*
X3492600Y-714450D01*
X3497340Y-736680D01*
X3509190Y-752550D01*
X3528160Y-762080D01*
X3544750Y-765250D01*
G01X3683100Y-736680D02*
X3697320Y-752550D01*
X3713910Y-762080D01*
X3735250Y-765250D01*
X3756590Y-758900D01*
X3773180Y-746200D01*
X3785030Y-723980D01*
X3787400Y-698580D01*
X3782660Y-673180D01*
X3770810Y-657300D01*
X3754210Y-644600D01*
X3737620Y-641430D01*
X3721030Y-644600D01*
X3699690Y-657300D01*
X3706800Y-574750D01*
X3770810D01*
G01X9689520Y5188750D02*
Y5506250D01*
X9839140D01*
G01X9784010Y5352800D02*
X9689520D01*
G01X10032050Y5506250D02*
X10126530D01*
G01X10079290D02*
Y5188750D01*
G01X10032050D02*
X10126530D01*
G01X10417870Y5347500D02*
X10496620D01*
Y5252250D01*
X10472990Y5220490D01*
X10445430Y5199330D01*
X10406060Y5188750D01*
X10366690Y5199330D01*
X10339130Y5220490D01*
X10315510Y5252250D01*
X10299760Y5289290D01*
X10291880Y5331620D01*
Y5368670D01*
X10299760Y5400410D01*
X10315510Y5437460D01*
X10339130Y5469210D01*
X10362750Y5490370D01*
X10394250Y5506250D01*
X10421810D01*
X10453300Y5495670D01*
X10476930Y5474500D01*
G01X10622600Y5506250D02*
Y5278710D01*
X10638340Y5231070D01*
X10669840Y5199330D01*
X10709210Y5188750D01*
X10748580Y5199330D01*
X10780080Y5231070D01*
X10795820Y5278710D01*
Y5506250D01*
G01X10945430Y5188750D02*
Y5506250D01*
X11043850D01*
X11075350Y5490370D01*
X11095040Y5469210D01*
X11102910Y5426870D01*
X11095040Y5384540D01*
X11071410Y5358090D01*
X11043850Y5342200D01*
X10945430D01*
G01X11043850D02*
X11102910Y5188750D01*
G01X11417870D02*
X11260390D01*
Y5506250D01*
X11417870D01*
G01X11354880Y5352800D02*
X11260390D01*
G01X12287940Y5188750D02*
Y5506250D01*
X12437560D01*
G01X12382430Y5352800D02*
X12287940D01*
G01X12630470Y5506250D02*
X12724950D01*
G01X12677710D02*
Y5188750D01*
G01X12630470D02*
X12724950D01*
G01X12902120D02*
Y5506250D01*
X13083220Y5188750D01*
Y5506250D01*
G01X13260390D02*
X13354870D01*
G01X13307630D02*
Y5188750D01*
G01X13260390D02*
X13354870D01*
G01X13539910Y5231070D02*
X13571410Y5204620D01*
X13606840Y5188750D01*
X13638340D01*
X13669830Y5204620D01*
X13693460Y5231070D01*
X13705270Y5268130D01*
X13697400Y5305160D01*
X13677710Y5336910D01*
X13642270Y5358090D01*
X13595030Y5368670D01*
X13567470Y5389830D01*
X13555660Y5426870D01*
X13563540Y5463920D01*
X13583220Y5490370D01*
X13610780Y5506250D01*
X13638340D01*
X13665900Y5495670D01*
X13689520Y5469210D01*
G01X13854870Y5188750D02*
Y5506250D01*
G01X14020230D02*
Y5188750D01*
G01Y5347500D02*
X13854870D01*
G01X14331250Y5188750D02*
X14173770D01*
Y5506250D01*
X14331250D01*
G01X14268260Y5352800D02*
X14173770D01*
G01X14480860Y5188750D02*
Y5506250D01*
X14559590D01*
X14591090Y5490370D01*
X14614710Y5469210D01*
X14634400Y5437460D01*
X14650150Y5400410D01*
X14654080Y5347500D01*
X14650150Y5294580D01*
X14634400Y5257540D01*
X14614710Y5225780D01*
X14591090Y5204620D01*
X14559590Y5188750D01*
X14480860D01*
G01X14764320Y5082920D02*
X15000540D01*
G01X15114710Y5231070D02*
X15146210Y5204620D01*
X15181640Y5188750D01*
X15213140D01*
X15244630Y5204620D01*
X15268260Y5231070D01*
X15280070Y5268130D01*
X15272200Y5305160D01*
X15252510Y5336910D01*
X15217070Y5358090D01*
X15169830Y5368670D01*
X15142270Y5389830D01*
X15130460Y5426870D01*
X15138340Y5463920D01*
X15158020Y5490370D01*
X15185580Y5506250D01*
X15213140D01*
X15240700Y5495670D01*
X15264320Y5469210D01*
G01X15465110Y5506250D02*
X15559590D01*
G01X15512350D02*
Y5188750D01*
G01X15465110D02*
X15559590D01*
G01X15752500Y5506250D02*
X15902120D01*
X15752500Y5188750D01*
X15902120D01*
G01X16221010D02*
X16063530D01*
Y5506250D01*
X16221010D01*
G01X16158020Y5352800D02*
X16063530D01*
G01X13307630Y108750D02*
Y426250D01*
X13260390Y362750D01*
G01Y108750D02*
X13354870D01*
G01X13622590Y98170D02*
X13614710Y103460D01*
Y114040D01*
X13622590Y119330D01*
X13630470Y114040D01*
Y103460D01*
X13622590Y98170D01*
G01X13929670Y108750D02*
X13937550Y177540D01*
X13949360Y235740D01*
X13965110Y288670D01*
X13984790Y346870D01*
X14016290Y426250D01*
X13858810D01*
G01X14193460Y320410D02*
X14311560Y108750D01*
G01Y320410D02*
X14193460Y108750D01*
G01X14567470Y426250D02*
X14535970Y415670D01*
X14512350Y389210D01*
X14496600Y357460D01*
X14484790Y315120D01*
X14480860Y267500D01*
X14484790Y219870D01*
X14496600Y177540D01*
X14512350Y145780D01*
X14535970Y119330D01*
X14567470Y108750D01*
X14598960Y119330D01*
X14622590Y145780D01*
X14638340Y177540D01*
X14650150Y219870D01*
X14654080Y267500D01*
X14650150Y315120D01*
X14638340Y357460D01*
X14622590Y389210D01*
X14598960Y415670D01*
X14567470Y426250D01*
G01X14882430Y98170D02*
X14874550Y103460D01*
Y114040D01*
X14882430Y119330D01*
X14890310Y114040D01*
Y103460D01*
X14882430Y98170D01*
G01X15122580Y241030D02*
X15150150Y278090D01*
X15173770Y299250D01*
X15205270Y309830D01*
X15232830Y299250D01*
X15252510Y278090D01*
X15268260Y246330D01*
X15272200Y209290D01*
X15268260Y177540D01*
X15252510Y145780D01*
X15228880Y119330D01*
X15201330Y108750D01*
X15169830Y119330D01*
X15142270Y151070D01*
X15126520Y198710D01*
X15122580Y251620D01*
X15130460Y320410D01*
X15142270Y357460D01*
X15161950Y394500D01*
X15189510Y420960D01*
X15217070Y426250D01*
X15244630Y415670D01*
X15264320Y389210D01*
G01X13307630Y743750D02*
Y1061250D01*
X13260390Y997750D01*
G01Y743750D02*
X13354870D01*
G01X13622590Y733170D02*
X13614710Y738460D01*
Y749040D01*
X13622590Y754330D01*
X13630470Y749040D01*
Y738460D01*
X13622590Y733170D01*
G01X13862740Y1008330D02*
X13886370Y1040080D01*
X13913930Y1055960D01*
X13945430Y1061250D01*
X13984790Y1050670D01*
X14012360Y1024210D01*
X14020230Y992460D01*
X14016290Y960700D01*
X14000540Y934250D01*
X13921800Y881330D01*
X13886370Y844290D01*
X13862740Y791360D01*
X13854870Y743750D01*
X14020230D01*
G01X14193460Y955410D02*
X14311560Y743750D01*
G01Y955410D02*
X14193460Y743750D01*
G01X14567470Y1061250D02*
X14535970Y1050670D01*
X14512350Y1024210D01*
X14496600Y992460D01*
X14484790Y950120D01*
X14480860Y902500D01*
X14484790Y854870D01*
X14496600Y812540D01*
X14512350Y780780D01*
X14535970Y754330D01*
X14567470Y743750D01*
X14598960Y754330D01*
X14622590Y780780D01*
X14638340Y812540D01*
X14650150Y854870D01*
X14654080Y902500D01*
X14650150Y950120D01*
X14638340Y992460D01*
X14622590Y1024210D01*
X14598960Y1050670D01*
X14567470Y1061250D01*
G01X14882430Y733170D02*
X14874550Y738460D01*
Y749040D01*
X14882430Y754330D01*
X14890310Y749040D01*
Y738460D01*
X14882430Y733170D01*
G01X15122580Y876030D02*
X15150150Y913090D01*
X15173770Y934250D01*
X15205270Y944830D01*
X15232830Y934250D01*
X15252510Y913090D01*
X15268260Y881330D01*
X15272200Y844290D01*
X15268260Y812540D01*
X15252510Y780780D01*
X15228880Y754330D01*
X15201330Y743750D01*
X15169830Y754330D01*
X15142270Y786070D01*
X15126520Y833710D01*
X15122580Y886620D01*
X15130460Y955410D01*
X15142270Y992460D01*
X15161950Y1029500D01*
X15189510Y1055960D01*
X15217070Y1061250D01*
X15244630Y1050670D01*
X15264320Y1024210D01*
G01X13850940Y1442250D02*
X13874550Y1405200D01*
X13906050Y1384040D01*
X13941490Y1378750D01*
X13972990Y1384040D01*
X14004480Y1410490D01*
X14024160Y1442250D01*
X14028100Y1474000D01*
X14020230Y1511030D01*
X13992670Y1537500D01*
X13965110Y1548090D01*
X13929670D01*
G01X13965110D02*
X13988730Y1563960D01*
X14008420Y1590410D01*
X14016290Y1622160D01*
X14008420Y1653920D01*
X13988730Y1680370D01*
X13953300Y1696250D01*
X13917870Y1690960D01*
X13882430Y1669790D01*
G01X14252510Y1368170D02*
X14244630Y1373460D01*
Y1384040D01*
X14252510Y1389330D01*
X14260390Y1384040D01*
Y1373460D01*
X14252510Y1368170D01*
G01X14480860Y1442250D02*
X14504470Y1405200D01*
X14535970Y1384040D01*
X14571410Y1378750D01*
X14602910Y1384040D01*
X14634400Y1410490D01*
X14654080Y1442250D01*
X14658020Y1474000D01*
X14650150Y1511030D01*
X14622590Y1537500D01*
X14595030Y1548090D01*
X14559590D01*
G01X14595030D02*
X14618650Y1563960D01*
X14638340Y1590410D01*
X14646210Y1622160D01*
X14638340Y1653920D01*
X14618650Y1680370D01*
X14583220Y1696250D01*
X14547790Y1690960D01*
X14512350Y1669790D01*
G01X13862740Y2278330D02*
X13886370Y2310080D01*
X13913930Y2325960D01*
X13945430Y2331250D01*
X13984790Y2320670D01*
X14012360Y2294210D01*
X14020230Y2262460D01*
X14016290Y2230700D01*
X14000540Y2204250D01*
X13921800Y2151330D01*
X13886370Y2114290D01*
X13862740Y2061360D01*
X13854870Y2013750D01*
X14020230D01*
G01X14252510Y2003170D02*
X14244630Y2008460D01*
Y2019040D01*
X14252510Y2024330D01*
X14260390Y2019040D01*
Y2008460D01*
X14252510Y2003170D01*
G01X14480860Y2077250D02*
X14504470Y2040200D01*
X14535970Y2019040D01*
X14571410Y2013750D01*
X14602910Y2019040D01*
X14634400Y2045490D01*
X14654080Y2077250D01*
X14658020Y2109000D01*
X14650150Y2146030D01*
X14622590Y2172500D01*
X14595030Y2183090D01*
X14559590D01*
G01X14595030D02*
X14618650Y2198960D01*
X14638340Y2225410D01*
X14646210Y2257160D01*
X14638340Y2288920D01*
X14618650Y2315370D01*
X14583220Y2331250D01*
X14547790Y2325960D01*
X14512350Y2304790D01*
G01X13937550Y2648750D02*
Y2966250D01*
X13890310Y2902750D01*
G01Y2648750D02*
X13984790D01*
G01X14252510Y2638170D02*
X14244630Y2643460D01*
Y2654040D01*
X14252510Y2659330D01*
X14260390Y2654040D01*
Y2643460D01*
X14252510Y2638170D01*
G01X14614710Y2648750D02*
Y2966250D01*
X14469040Y2738710D01*
X14665900D01*
G01X13937550Y3283750D02*
Y3601250D01*
X13890310Y3537750D01*
G01Y3283750D02*
X13984790D01*
G01X14252510Y3273170D02*
X14244630Y3278460D01*
Y3289040D01*
X14252510Y3294330D01*
X14260390Y3289040D01*
Y3278460D01*
X14252510Y3273170D01*
G01X14567470Y3283750D02*
Y3601250D01*
X14520230Y3537750D01*
G01Y3283750D02*
X14614710D01*
G01X13937550Y4236250D02*
X13906050Y4225670D01*
X13882430Y4199210D01*
X13866680Y4167460D01*
X13854870Y4125120D01*
X13850940Y4077500D01*
X13854870Y4029870D01*
X13866680Y3987540D01*
X13882430Y3955780D01*
X13906050Y3929330D01*
X13937550Y3918750D01*
X13969040Y3929330D01*
X13992670Y3955780D01*
X14008420Y3987540D01*
X14020230Y4029870D01*
X14024160Y4077500D01*
X14020230Y4125120D01*
X14008420Y4167460D01*
X13992670Y4199210D01*
X13969040Y4225670D01*
X13937550Y4236250D01*
G01X14252510Y3908170D02*
X14244630Y3913460D01*
Y3924040D01*
X14252510Y3929330D01*
X14260390Y3924040D01*
Y3913460D01*
X14252510Y3908170D01*
G01X14567470Y3918750D02*
X14595030Y3924040D01*
X14626520Y3939910D01*
X14646210Y3966360D01*
X14654080Y4003420D01*
X14646210Y4040450D01*
X14622590Y4072200D01*
X14587150Y4088090D01*
X14547790D01*
X14524160Y4098670D01*
X14504470Y4125120D01*
X14496600Y4162160D01*
X14508420Y4199210D01*
X14535970Y4225670D01*
X14567470Y4236250D01*
X14598960Y4225670D01*
X14626520Y4199210D01*
X14638340Y4162160D01*
X14630460Y4125120D01*
X14610780Y4098670D01*
X14587150Y4088090D01*
X14547790D01*
X14512350Y4072200D01*
X14488730Y4040450D01*
X14480860Y4003420D01*
X14488730Y3966360D01*
X14508420Y3939910D01*
X14539910Y3924040D01*
X14567470Y3918750D01*
G01X13622590Y4871250D02*
X13591090Y4860670D01*
X13567470Y4834210D01*
X13551720Y4802460D01*
X13539910Y4760120D01*
X13535980Y4712500D01*
X13539910Y4664870D01*
X13551720Y4622540D01*
X13567470Y4590780D01*
X13591090Y4564330D01*
X13622590Y4553750D01*
X13654080Y4564330D01*
X13677710Y4590780D01*
X13693460Y4622540D01*
X13705270Y4664870D01*
X13709200Y4712500D01*
X13705270Y4760120D01*
X13693460Y4802460D01*
X13677710Y4834210D01*
X13654080Y4860670D01*
X13622590Y4871250D01*
G01X13937550Y4543170D02*
X13929670Y4548460D01*
Y4559040D01*
X13937550Y4564330D01*
X13945430Y4559040D01*
Y4548460D01*
X13937550Y4543170D01*
G01X14177700Y4818330D02*
X14201330Y4850080D01*
X14228890Y4865960D01*
X14260390Y4871250D01*
X14299750Y4860670D01*
X14327320Y4834210D01*
X14335190Y4802460D01*
X14331250Y4770700D01*
X14315500Y4744250D01*
X14236760Y4691330D01*
X14201330Y4654290D01*
X14177700Y4601360D01*
X14169830Y4553750D01*
X14335190D01*
G01X14480860Y4601360D02*
X14504470Y4574910D01*
X14532030Y4559040D01*
X14567470Y4553750D01*
X14602910Y4564330D01*
X14630460Y4585490D01*
X14650150Y4622540D01*
X14654080Y4664870D01*
X14646210Y4707200D01*
X14626520Y4733670D01*
X14598960Y4754830D01*
X14571410Y4760120D01*
X14543850Y4754830D01*
X14508420Y4733670D01*
X14520230Y4871250D01*
X14626520D01*
G01X14929670Y4553750D02*
Y4871250D01*
X14784000Y4643710D01*
X14980860D01*
G01X13917860Y5823750D02*
X14016290Y6141250D01*
X14114720Y5823750D01*
G01X14079280Y5934870D02*
X13953290D01*
G01X14252510Y6141250D02*
Y5823750D01*
X14409990D01*
G01X14567470Y6141250D02*
Y5823750D01*
X14724950D01*
G01X15189520Y6141250D02*
Y5913710D01*
X15205260Y5866070D01*
X15236760Y5834330D01*
X15276130Y5823750D01*
X15315500Y5834330D01*
X15347000Y5866070D01*
X15362740Y5913710D01*
Y6141250D01*
G01X15500540Y5823750D02*
Y6141250D01*
X15681640Y5823750D01*
Y6141250D01*
G01X15858810D02*
X15953290D01*
G01X15906050D02*
Y5823750D01*
G01X15858810D02*
X15953290D01*
G01X16221010Y6141250D02*
Y5823750D01*
G01X16130460Y6141250D02*
X16311560D01*
G01X16453290Y5866070D02*
X16484790Y5839620D01*
X16520220Y5823750D01*
X16551720D01*
X16583210Y5839620D01*
X16606840Y5866070D01*
X16618650Y5903130D01*
X16610780Y5940160D01*
X16591090Y5971910D01*
X16555650Y5993090D01*
X16508410Y6003670D01*
X16480850Y6024830D01*
X16469040Y6061870D01*
X16476920Y6098920D01*
X16496600Y6125370D01*
X16524160Y6141250D01*
X16551720D01*
X16579280Y6130670D01*
X16602900Y6104210D01*
G01X17067460Y5823750D02*
X17165890Y6141250D01*
X17264320Y5823750D01*
G01X17228880Y5934870D02*
X17102890D01*
G01X17402110Y5823750D02*
Y6141250D01*
X17500530D01*
X17532030Y6125370D01*
X17551720Y6104210D01*
X17559590Y6061870D01*
X17551720Y6019540D01*
X17528090Y5993090D01*
X17500530Y5977200D01*
X17402110D01*
G01X17500530D02*
X17559590Y5823750D01*
G01X17874550D02*
X17717070D01*
Y6141250D01*
X17874550D01*
G01X17811560Y5987800D02*
X17717070D01*
G01X18378490Y6141250D02*
X18472970D01*
G01X18425730D02*
Y5823750D01*
G01X18378490D02*
X18472970D01*
G01X18650140D02*
Y6141250D01*
X18831240Y5823750D01*
Y6141250D01*
G01X19268240Y5823750D02*
Y6141250D01*
X19370610Y5876670D01*
X19472980Y6141250D01*
Y5823750D01*
G01X19638330Y6141250D02*
X19732810D01*
G01X19685570D02*
Y5823750D01*
G01X19638330D02*
X19732810D01*
G01X19921790Y6141250D02*
Y5823750D01*
X20079270D01*
G01X20236750Y6141250D02*
Y5823750D01*
X20394230D01*
G01X20583210Y6141250D02*
X20677690D01*
G01X20630450D02*
Y5823750D01*
G01X20583210D02*
X20677690D01*
G01X20843040D02*
Y6141250D01*
X20945410Y5876670D01*
X21047780Y6141250D01*
Y5823750D01*
G01X21339110D02*
X21181630D01*
Y6141250D01*
X21339110D01*
G01X21276120Y5987800D02*
X21181630D01*
G01X21575330Y6141250D02*
Y5823750D01*
G01X21484780Y6141250D02*
X21665880D01*
G01X21969030Y5823750D02*
X21811550D01*
Y6141250D01*
X21969030D01*
G01X21906040Y5987800D02*
X21811550D01*
G01X22126510Y5823750D02*
Y6141250D01*
X22224930D01*
X22256430Y6125370D01*
X22276120Y6104210D01*
X22283990Y6061870D01*
X22276120Y6019540D01*
X22252490Y5993090D01*
X22224930Y5977200D01*
X22126510D01*
G01X22224930D02*
X22283990Y5823750D01*
G01X22437530Y5866070D02*
X22469030Y5839620D01*
X22504460Y5823750D01*
X22535960D01*
X22567450Y5839620D01*
X22591080Y5866070D01*
X22602890Y5903130D01*
X22595020Y5940160D01*
X22575330Y5971910D01*
X22539890Y5993090D01*
X22492650Y6003670D01*
X22465090Y6024830D01*
X22453280Y6061870D01*
X22461160Y6098920D01*
X22480840Y6125370D01*
X22508400Y6141250D01*
X22535960D01*
X22563520Y6130670D01*
X22587140Y6104210D01*
G01X14244640Y6473750D02*
Y6791250D01*
X14323370D01*
X14354870Y6775370D01*
X14378490Y6754210D01*
X14398180Y6722460D01*
X14413930Y6685410D01*
X14417860Y6632500D01*
X14413930Y6579580D01*
X14398180Y6542540D01*
X14378490Y6510780D01*
X14354870Y6489620D01*
X14323370Y6473750D01*
X14244640D01*
G01X14567470D02*
Y6791250D01*
X14665890D01*
X14697390Y6775370D01*
X14717080Y6754210D01*
X14724950Y6711870D01*
X14717080Y6669540D01*
X14693450Y6643090D01*
X14665890Y6627200D01*
X14567470D01*
G01X14665890D02*
X14724950Y6473750D01*
G01X14913930Y6791250D02*
X15008410D01*
G01X14961170D02*
Y6473750D01*
G01X14913930D02*
X15008410D01*
G01X15197390Y6791250D02*
Y6473750D01*
X15354870D01*
G01X15512350Y6791250D02*
Y6473750D01*
X15669830D01*
G01X16307620Y6764790D02*
X16284000Y6780670D01*
X16256450Y6791250D01*
X16224950D01*
X16189510Y6775370D01*
X16161960Y6748920D01*
X16142270Y6717160D01*
X16126520Y6664250D01*
X16122580Y6616620D01*
X16130460Y6569000D01*
X16142270Y6537250D01*
X16165890Y6505490D01*
X16193450Y6484330D01*
X16221010Y6473750D01*
X16248570D01*
X16276130Y6484330D01*
X16299750Y6500200D01*
X16319440Y6521360D01*
G01X16453290Y6473750D02*
Y6791250D01*
G01X16618650D02*
Y6473750D01*
G01Y6632500D02*
X16453290D01*
G01X16752500Y6473750D02*
X16850930Y6791250D01*
X16949360Y6473750D01*
G01X16913920Y6584870D02*
X16787930D01*
G01X17087150Y6473750D02*
Y6791250D01*
X17185570D01*
X17217070Y6775370D01*
X17236760Y6754210D01*
X17244630Y6711870D01*
X17236760Y6669540D01*
X17213130Y6643090D01*
X17185570Y6627200D01*
X17087150D01*
G01X17185570D02*
X17244630Y6473750D01*
G01X17480850Y6791250D02*
Y6473750D01*
G01X17390300Y6791250D02*
X17571400D01*
G01X17795810Y6463170D02*
X17787930Y6468460D01*
Y6479040D01*
X17795810Y6484330D01*
X17803690Y6479040D01*
Y6468460D01*
X17795810Y6463170D01*
G01Y6606030D02*
X17787930Y6611330D01*
Y6621910D01*
X17795810Y6627200D01*
X17803690Y6621910D01*
Y6611330D01*
X17795810Y6606030D01*
G01X18425730Y6791250D02*
Y6473750D01*
G01X18335180Y6791250D02*
X18516280D01*
G01X18740690Y6473750D02*
X18709190Y6479040D01*
X18681640Y6500200D01*
X18658010Y6531960D01*
X18642260Y6569000D01*
X18634390Y6611330D01*
Y6653670D01*
X18642260Y6696000D01*
X18658010Y6733040D01*
X18681640Y6764790D01*
X18709190Y6785960D01*
X18740690Y6791250D01*
X18772180Y6785960D01*
X18799740Y6764790D01*
X18823370Y6733040D01*
X18839120Y6696000D01*
X18846990Y6653670D01*
Y6611330D01*
X18839120Y6569000D01*
X18823370Y6531960D01*
X18799740Y6500200D01*
X18772180Y6479040D01*
X18740690Y6473750D01*
G01X18976910D02*
Y6791250D01*
X19071400D01*
X19102890Y6775370D01*
X19126520Y6738330D01*
X19134390Y6696000D01*
X19126520Y6653670D01*
X19106830Y6621910D01*
X19071400Y6606030D01*
X18976910D01*
G01X19685570Y6791250D02*
Y6473750D01*
G01X19630450Y6685410D02*
X19740690D01*
G01X20000530Y6473750D02*
X19976910Y6479040D01*
X19953290Y6500200D01*
X19937530Y6537250D01*
X19929660Y6579580D01*
X19937530Y6621910D01*
X19953290Y6658960D01*
X19976910Y6680120D01*
X20000530Y6685410D01*
X20024150Y6680120D01*
X20047770Y6658960D01*
X20063520Y6621910D01*
X20067460Y6579580D01*
X20063520Y6537250D01*
X20047770Y6500200D01*
X20024150Y6479040D01*
X20000530Y6473750D01*
G01X20661940Y6643090D02*
X20677690Y6658960D01*
X20689500Y6685410D01*
X20697380Y6722460D01*
X20689500Y6754210D01*
X20673760Y6775370D01*
X20646200Y6791250D01*
X20539900D01*
Y6473750D01*
X20669820D01*
X20697380Y6494910D01*
X20713130Y6526670D01*
X20721000Y6563710D01*
X20713130Y6600740D01*
X20689500Y6632500D01*
X20661940Y6643090D01*
X20539900D01*
G01X20945410Y6473750D02*
X20913910Y6479040D01*
X20886360Y6500200D01*
X20862730Y6531960D01*
X20846980Y6569000D01*
X20839110Y6611330D01*
Y6653670D01*
X20846980Y6696000D01*
X20862730Y6733040D01*
X20886360Y6764790D01*
X20913910Y6785960D01*
X20945410Y6791250D01*
X20976900Y6785960D01*
X21004460Y6764790D01*
X21028090Y6733040D01*
X21043840Y6696000D01*
X21051710Y6653670D01*
Y6611330D01*
X21043840Y6569000D01*
X21028090Y6531960D01*
X21004460Y6500200D01*
X20976900Y6479040D01*
X20945410Y6473750D01*
G01X21260370Y6791250D02*
Y6473750D01*
G01X21169820Y6791250D02*
X21350920D01*
G01X21575330D02*
Y6473750D01*
G01X21484780Y6791250D02*
X21665880D01*
G01X21890290Y6473750D02*
X21858790Y6479040D01*
X21831240Y6500200D01*
X21807610Y6531960D01*
X21791860Y6569000D01*
X21783990Y6611330D01*
Y6653670D01*
X21791860Y6696000D01*
X21807610Y6733040D01*
X21831240Y6764790D01*
X21858790Y6785960D01*
X21890290Y6791250D01*
X21921780Y6785960D01*
X21949340Y6764790D01*
X21972970Y6733040D01*
X21988720Y6696000D01*
X21996590Y6653670D01*
Y6611330D01*
X21988720Y6569000D01*
X21972970Y6531960D01*
X21949340Y6500200D01*
X21921780Y6479040D01*
X21890290Y6473750D01*
G01X22102880D02*
Y6791250D01*
X22205250Y6526670D01*
X22307620Y6791250D01*
Y6473750D01*
G01X17551720Y5188750D02*
Y5506250D01*
X17630450D01*
X17661950Y5490370D01*
X17685570Y5469210D01*
X17705260Y5437460D01*
X17721010Y5400410D01*
X17724940Y5347500D01*
X17721010Y5294580D01*
X17705260Y5257540D01*
X17685570Y5225780D01*
X17661950Y5204620D01*
X17630450Y5188750D01*
X17551720D01*
G01X17874550D02*
Y5506250D01*
X17972970D01*
X18004470Y5490370D01*
X18024160Y5469210D01*
X18032030Y5426870D01*
X18024160Y5384540D01*
X18000530Y5358090D01*
X17972970Y5342200D01*
X17874550D01*
G01X17972970D02*
X18032030Y5188750D01*
G01X18221010Y5506250D02*
X18315490D01*
G01X18268250D02*
Y5188750D01*
G01X18221010D02*
X18315490D01*
G01X18504470Y5506250D02*
Y5188750D01*
X18661950D01*
G01X18819430Y5506250D02*
Y5188750D01*
X18976910D01*
G01X19291870D02*
X19134390D01*
Y5506250D01*
X19291870D01*
G01X19228880Y5352800D02*
X19134390D01*
G01X19441480Y5188750D02*
Y5506250D01*
X19520210D01*
X19551710Y5490370D01*
X19575330Y5469210D01*
X19595020Y5437460D01*
X19610770Y5400410D01*
X19614700Y5347500D01*
X19610770Y5294580D01*
X19595020Y5257540D01*
X19575330Y5225780D01*
X19551710Y5204620D01*
X19520210Y5188750D01*
X19441480D01*
G01X19724940Y5082920D02*
X19961160D01*
G01X20075330Y5231070D02*
X20106830Y5204620D01*
X20142260Y5188750D01*
X20173760D01*
X20205250Y5204620D01*
X20228880Y5231070D01*
X20240690Y5268130D01*
X20232820Y5305160D01*
X20213130Y5336910D01*
X20177690Y5358090D01*
X20130450Y5368670D01*
X20102890Y5389830D01*
X20091080Y5426870D01*
X20098960Y5463920D01*
X20118640Y5490370D01*
X20146200Y5506250D01*
X20173760D01*
X20201320Y5495670D01*
X20224940Y5469210D01*
G01X20425730Y5506250D02*
X20520210D01*
G01X20472970D02*
Y5188750D01*
G01X20425730D02*
X20520210D01*
G01X20713120Y5506250D02*
X20862740D01*
X20713120Y5188750D01*
X20862740D01*
G01X21181630D02*
X21024150D01*
Y5506250D01*
X21181630D01*
G01X21118640Y5352800D02*
X21024150D01*
G01X19319430Y214580D02*
X19421790D01*
G01X19319430Y849580D02*
X19421790D01*
G01X19319430Y1484580D02*
X19421790D01*
G01X19319430Y2119580D02*
X19421790D01*
G01X19319430Y2754580D02*
X19421790D01*
G01X19319430Y3389580D02*
X19421790D01*
G01X19319430Y4024580D02*
X19421790D01*
G01X19319430Y4659580D02*
X19421790D01*
G01X21257830Y-208750D02*
Y-526250D01*
G01X21167280Y-208750D02*
X21348380D01*
G01X21572790Y-526250D02*
X21541290Y-520960D01*
X21513740Y-499800D01*
X21490110Y-468040D01*
X21474360Y-431000D01*
X21466490Y-388670D01*
Y-346330D01*
X21474360Y-304000D01*
X21490110Y-266960D01*
X21513740Y-235210D01*
X21541290Y-214040D01*
X21572790Y-208750D01*
X21604280Y-214040D01*
X21631840Y-235210D01*
X21655470Y-266960D01*
X21671220Y-304000D01*
X21679090Y-346330D01*
Y-388670D01*
X21671220Y-431000D01*
X21655470Y-468040D01*
X21631840Y-499800D01*
X21604280Y-520960D01*
X21572790Y-526250D01*
G01X21887750Y-208750D02*
Y-526250D01*
G01X21797200Y-208750D02*
X21978300D01*
G01X22104280Y-526250D02*
X22202710Y-208750D01*
X22301140Y-526250D01*
G01X22265700Y-415130D02*
X22139710D01*
G01X22438930Y-208750D02*
Y-526250D01*
X22596410D01*
G01X23064910D02*
Y-208750D01*
G01X23230270D02*
Y-526250D01*
G01Y-367500D02*
X23064910D01*
G01X23462550Y-526250D02*
X23431050Y-520960D01*
X23403500Y-499800D01*
X23379870Y-468040D01*
X23364120Y-431000D01*
X23356250Y-388670D01*
Y-346330D01*
X23364120Y-304000D01*
X23379870Y-266960D01*
X23403500Y-235210D01*
X23431050Y-214040D01*
X23462550Y-208750D01*
X23494040Y-214040D01*
X23521600Y-235210D01*
X23545230Y-266960D01*
X23560980Y-304000D01*
X23568850Y-346330D01*
Y-388670D01*
X23560980Y-431000D01*
X23545230Y-468040D01*
X23521600Y-499800D01*
X23494040Y-520960D01*
X23462550Y-526250D01*
G01X23698770Y-208750D02*
Y-526250D01*
X23856250D01*
G01X24171210D02*
X24013730D01*
Y-208750D01*
X24171210D01*
G01X24108220Y-362200D02*
X24013730D01*
G01X24324750Y-483930D02*
X24356250Y-510380D01*
X24391680Y-526250D01*
X24423180D01*
X24454670Y-510380D01*
X24478300Y-483930D01*
X24490110Y-446870D01*
X24482240Y-409840D01*
X24462550Y-378090D01*
X24427110Y-356910D01*
X24379870Y-346330D01*
X24352310Y-325170D01*
X24340500Y-288130D01*
X24348380Y-251080D01*
X24368060Y-224630D01*
X24395620Y-208750D01*
X24423180D01*
X24450740Y-219330D01*
X24474360Y-245790D01*
G01X24722390Y-536830D02*
X24714510Y-531540D01*
Y-520960D01*
X24722390Y-515670D01*
X24730270Y-520960D01*
Y-531540D01*
X24722390Y-536830D01*
G01Y-393970D02*
X24714510Y-388670D01*
Y-378090D01*
X24722390Y-372800D01*
X24730270Y-378090D01*
Y-388670D01*
X24722390Y-393970D01*
G01X22677690Y108750D02*
Y426250D01*
X22772180D01*
X22803670Y410370D01*
X22827300Y373330D01*
X22835170Y331000D01*
X22827300Y288670D01*
X22807610Y256910D01*
X22772180Y241030D01*
X22677690D01*
G01X22992650Y426250D02*
Y108750D01*
X23150130D01*
G01X23287920D02*
X23386350Y426250D01*
X23484780Y108750D01*
G01X23449340Y219870D02*
X23323350D01*
G01X23701310Y426250D02*
Y108750D01*
G01X23610760Y426250D02*
X23791860D01*
G01X24095010Y108750D02*
X23937530D01*
Y426250D01*
X24095010D01*
G01X24032020Y272800D02*
X23937530D01*
G01X24244620Y108750D02*
Y426250D01*
X24323350D01*
X24354850Y410370D01*
X24378470Y389210D01*
X24398160Y357460D01*
X24413910Y320410D01*
X24417840Y267500D01*
X24413910Y214580D01*
X24398160Y177540D01*
X24378470Y145780D01*
X24354850Y124620D01*
X24323350Y108750D01*
X24244620D01*
G01X22677690Y743750D02*
Y1061250D01*
X22772180D01*
X22803670Y1045370D01*
X22827300Y1008330D01*
X22835170Y966000D01*
X22827300Y923670D01*
X22807610Y891910D01*
X22772180Y876030D01*
X22677690D01*
G01X22992650Y1061250D02*
Y743750D01*
X23150130D01*
G01X23287920D02*
X23386350Y1061250D01*
X23484780Y743750D01*
G01X23449340Y854870D02*
X23323350D01*
G01X23701310Y1061250D02*
Y743750D01*
G01X23610760Y1061250D02*
X23791860D01*
G01X24095010Y743750D02*
X23937530D01*
Y1061250D01*
X24095010D01*
G01X24032020Y907800D02*
X23937530D01*
G01X24244620Y743750D02*
Y1061250D01*
X24323350D01*
X24354850Y1045370D01*
X24378470Y1024210D01*
X24398160Y992460D01*
X24413910Y955410D01*
X24417840Y902500D01*
X24413910Y849580D01*
X24398160Y812540D01*
X24378470Y780780D01*
X24354850Y759620D01*
X24323350Y743750D01*
X24244620D01*
G01X22677690Y1378750D02*
Y1696250D01*
X22772180D01*
X22803670Y1680370D01*
X22827300Y1643330D01*
X22835170Y1601000D01*
X22827300Y1558670D01*
X22807610Y1526910D01*
X22772180Y1511030D01*
X22677690D01*
G01X22992650Y1696250D02*
Y1378750D01*
X23150130D01*
G01X23287920D02*
X23386350Y1696250D01*
X23484780Y1378750D01*
G01X23449340Y1489870D02*
X23323350D01*
G01X23701310Y1696250D02*
Y1378750D01*
G01X23610760Y1696250D02*
X23791860D01*
G01X24095010Y1378750D02*
X23937530D01*
Y1696250D01*
X24095010D01*
G01X24032020Y1542800D02*
X23937530D01*
G01X24244620Y1378750D02*
Y1696250D01*
X24323350D01*
X24354850Y1680370D01*
X24378470Y1659210D01*
X24398160Y1627460D01*
X24413910Y1590410D01*
X24417840Y1537500D01*
X24413910Y1484580D01*
X24398160Y1447540D01*
X24378470Y1415780D01*
X24354850Y1394620D01*
X24323350Y1378750D01*
X24244620D01*
G01X22677690Y2013750D02*
Y2331250D01*
X22772180D01*
X22803670Y2315370D01*
X22827300Y2278330D01*
X22835170Y2236000D01*
X22827300Y2193670D01*
X22807610Y2161910D01*
X22772180Y2146030D01*
X22677690D01*
G01X22992650Y2331250D02*
Y2013750D01*
X23150130D01*
G01X23287920D02*
X23386350Y2331250D01*
X23484780Y2013750D01*
G01X23449340Y2124870D02*
X23323350D01*
G01X23701310Y2331250D02*
Y2013750D01*
G01X23610760Y2331250D02*
X23791860D01*
G01X24095010Y2013750D02*
X23937530D01*
Y2331250D01*
X24095010D01*
G01X24032020Y2177800D02*
X23937530D01*
G01X24244620Y2013750D02*
Y2331250D01*
X24323350D01*
X24354850Y2315370D01*
X24378470Y2294210D01*
X24398160Y2262460D01*
X24413910Y2225410D01*
X24417840Y2172500D01*
X24413910Y2119580D01*
X24398160Y2082540D01*
X24378470Y2050780D01*
X24354850Y2029620D01*
X24323350Y2013750D01*
X24244620D01*
G01X22677690Y2648750D02*
Y2966250D01*
X22772180D01*
X22803670Y2950370D01*
X22827300Y2913330D01*
X22835170Y2871000D01*
X22827300Y2828670D01*
X22807610Y2796910D01*
X22772180Y2781030D01*
X22677690D01*
G01X22992650Y2966250D02*
Y2648750D01*
X23150130D01*
G01X23287920D02*
X23386350Y2966250D01*
X23484780Y2648750D01*
G01X23449340Y2759870D02*
X23323350D01*
G01X23701310Y2966250D02*
Y2648750D01*
G01X23610760Y2966250D02*
X23791860D01*
G01X24095010Y2648750D02*
X23937530D01*
Y2966250D01*
X24095010D01*
G01X24032020Y2812800D02*
X23937530D01*
G01X24244620Y2648750D02*
Y2966250D01*
X24323350D01*
X24354850Y2950370D01*
X24378470Y2929210D01*
X24398160Y2897460D01*
X24413910Y2860410D01*
X24417840Y2807500D01*
X24413910Y2754580D01*
X24398160Y2717540D01*
X24378470Y2685780D01*
X24354850Y2664620D01*
X24323350Y2648750D01*
X24244620D01*
G01X22677690Y3283750D02*
Y3601250D01*
X22772180D01*
X22803670Y3585370D01*
X22827300Y3548330D01*
X22835170Y3506000D01*
X22827300Y3463670D01*
X22807610Y3431910D01*
X22772180Y3416030D01*
X22677690D01*
G01X22992650Y3601250D02*
Y3283750D01*
X23150130D01*
G01X23287920D02*
X23386350Y3601250D01*
X23484780Y3283750D01*
G01X23449340Y3394870D02*
X23323350D01*
G01X23701310Y3601250D02*
Y3283750D01*
G01X23610760Y3601250D02*
X23791860D01*
G01X24095010Y3283750D02*
X23937530D01*
Y3601250D01*
X24095010D01*
G01X24032020Y3447800D02*
X23937530D01*
G01X24244620Y3283750D02*
Y3601250D01*
X24323350D01*
X24354850Y3585370D01*
X24378470Y3564210D01*
X24398160Y3532460D01*
X24413910Y3495410D01*
X24417840Y3442500D01*
X24413910Y3389580D01*
X24398160Y3352540D01*
X24378470Y3320780D01*
X24354850Y3299620D01*
X24323350Y3283750D01*
X24244620D01*
G01X22677690Y3918750D02*
Y4236250D01*
X22772180D01*
X22803670Y4220370D01*
X22827300Y4183330D01*
X22835170Y4141000D01*
X22827300Y4098670D01*
X22807610Y4066910D01*
X22772180Y4051030D01*
X22677690D01*
G01X22992650Y4236250D02*
Y3918750D01*
X23150130D01*
G01X23287920D02*
X23386350Y4236250D01*
X23484780Y3918750D01*
G01X23449340Y4029870D02*
X23323350D01*
G01X23701310Y4236250D02*
Y3918750D01*
G01X23610760Y4236250D02*
X23791860D01*
G01X24095010Y3918750D02*
X23937530D01*
Y4236250D01*
X24095010D01*
G01X24032020Y4082800D02*
X23937530D01*
G01X24244620Y3918750D02*
Y4236250D01*
X24323350D01*
X24354850Y4220370D01*
X24378470Y4199210D01*
X24398160Y4167460D01*
X24413910Y4130410D01*
X24417840Y4077500D01*
X24413910Y4024580D01*
X24398160Y3987540D01*
X24378470Y3955780D01*
X24354850Y3934620D01*
X24323350Y3918750D01*
X24244620D01*
G01X22677690Y4553750D02*
Y4871250D01*
X22772180D01*
X22803670Y4855370D01*
X22827300Y4818330D01*
X22835170Y4776000D01*
X22827300Y4733670D01*
X22807610Y4701910D01*
X22772180Y4686030D01*
X22677690D01*
G01X22992650Y4871250D02*
Y4553750D01*
X23150130D01*
G01X23287920D02*
X23386350Y4871250D01*
X23484780Y4553750D01*
G01X23449340Y4664870D02*
X23323350D01*
G01X23701310Y4871250D02*
Y4553750D01*
G01X23610760Y4871250D02*
X23791860D01*
G01X24095010Y4553750D02*
X23937530D01*
Y4871250D01*
X24095010D01*
G01X24032020Y4717800D02*
X23937530D01*
G01X24244620Y4553750D02*
Y4871250D01*
X24323350D01*
X24354850Y4855370D01*
X24378470Y4834210D01*
X24398160Y4802460D01*
X24413910Y4765410D01*
X24417840Y4712500D01*
X24413910Y4659580D01*
X24398160Y4622540D01*
X24378470Y4590780D01*
X24354850Y4569620D01*
X24323350Y4553750D01*
X24244620D01*
G01X22677690Y5188750D02*
Y5506250D01*
X22772180D01*
X22803670Y5490370D01*
X22827300Y5453330D01*
X22835170Y5411000D01*
X22827300Y5368670D01*
X22807610Y5336910D01*
X22772180Y5321030D01*
X22677690D01*
G01X22992650Y5506250D02*
Y5188750D01*
X23150130D01*
G01X23287920D02*
X23386350Y5506250D01*
X23484780Y5188750D01*
G01X23449340Y5299870D02*
X23323350D01*
G01X23701310Y5506250D02*
Y5188750D01*
G01X23610760Y5506250D02*
X23791860D01*
G01X24095010Y5188750D02*
X23937530D01*
Y5506250D01*
X24095010D01*
G01X24032020Y5352800D02*
X23937530D01*
G01X24244620Y5188750D02*
Y5506250D01*
X24323350D01*
X24354850Y5490370D01*
X24378470Y5469210D01*
X24398160Y5437460D01*
X24413910Y5400410D01*
X24417840Y5347500D01*
X24413910Y5294580D01*
X24398160Y5257540D01*
X24378470Y5225780D01*
X24354850Y5204620D01*
X24323350Y5188750D01*
X24244620D01*
G01X25752480Y-261670D02*
X25776110Y-229920D01*
X25803670Y-214040D01*
X25835170Y-208750D01*
X25874530Y-219330D01*
X25902100Y-245790D01*
X25909970Y-277540D01*
X25906030Y-309300D01*
X25890280Y-335750D01*
X25811540Y-388670D01*
X25776110Y-425710D01*
X25752480Y-478640D01*
X25744610Y-526250D01*
X25909970D01*
G01X26067440Y-261670D02*
X26091070Y-229920D01*
X26118630Y-214040D01*
X26150130Y-208750D01*
X26189490Y-219330D01*
X26217060Y-245790D01*
X26224930Y-277540D01*
X26220990Y-309300D01*
X26205240Y-335750D01*
X26126500Y-388670D01*
X26091070Y-425710D01*
X26067440Y-478640D01*
X26059570Y-526250D01*
X26224930D01*
G01X26504450D02*
Y-208750D01*
X26358780Y-436290D01*
X26555640D01*
G01X25827290Y4553750D02*
Y4871250D01*
X25780050Y4807750D01*
G01Y4553750D02*
X25874530D01*
G01X26067440Y4686030D02*
X26095010Y4723090D01*
X26118630Y4744250D01*
X26150130Y4754830D01*
X26177690Y4744250D01*
X26197370Y4723090D01*
X26213120Y4691330D01*
X26217060Y4654290D01*
X26213120Y4622540D01*
X26197370Y4590780D01*
X26173740Y4564330D01*
X26146190Y4553750D01*
X26114690Y4564330D01*
X26087130Y4596070D01*
X26071380Y4643710D01*
X26067440Y4696620D01*
X26075320Y4765410D01*
X26087130Y4802460D01*
X26106810Y4839500D01*
X26134370Y4865960D01*
X26161930Y4871250D01*
X26189490Y4860670D01*
X26209180Y4834210D01*
G01X26504450Y4553750D02*
Y4871250D01*
X26358780Y4643710D01*
X26555640D01*
G01X25827290Y5188750D02*
X25795790Y5194040D01*
X25768240Y5215200D01*
X25744610Y5246960D01*
X25728860Y5284000D01*
X25720990Y5326330D01*
Y5368670D01*
X25728860Y5411000D01*
X25744610Y5448040D01*
X25768240Y5479790D01*
X25795790Y5500960D01*
X25827290Y5506250D01*
X25858780Y5500960D01*
X25886340Y5479790D01*
X25909970Y5448040D01*
X25925720Y5411000D01*
X25933590Y5368670D01*
Y5326330D01*
X25925720Y5284000D01*
X25909970Y5246960D01*
X25886340Y5215200D01*
X25858780Y5194040D01*
X25827290Y5188750D01*
G01X25858780Y5273420D02*
X25906030Y5188750D01*
G01X26142250Y5506250D02*
Y5188750D01*
G01X26051700Y5506250D02*
X26232800D01*
G01X26457210Y5188750D02*
Y5331620D01*
X26378470Y5506250D01*
G01X26535950D02*
X26457210Y5331620D01*
G01X26067440Y373330D02*
X26091070Y405080D01*
X26118630Y420960D01*
X26150130Y426250D01*
X26189490Y415670D01*
X26217060Y389210D01*
X26224930Y357460D01*
X26220990Y325700D01*
X26205240Y299250D01*
X26126500Y246330D01*
X26091070Y209290D01*
X26067440Y156360D01*
X26059570Y108750D01*
X26224930D01*
G01X26067440Y1008330D02*
X26091070Y1040080D01*
X26118630Y1055960D01*
X26150130Y1061250D01*
X26189490Y1050670D01*
X26217060Y1024210D01*
X26224930Y992460D01*
X26220990Y960700D01*
X26205240Y934250D01*
X26126500Y881330D01*
X26091070Y844290D01*
X26067440Y791360D01*
X26059570Y743750D01*
X26224930D01*
G01X26067440Y1511030D02*
X26095010Y1548090D01*
X26118630Y1569250D01*
X26150130Y1579830D01*
X26177690Y1569250D01*
X26197370Y1548090D01*
X26213120Y1516330D01*
X26217060Y1479290D01*
X26213120Y1447540D01*
X26197370Y1415780D01*
X26173740Y1389330D01*
X26146190Y1378750D01*
X26114690Y1389330D01*
X26087130Y1421070D01*
X26071380Y1468710D01*
X26067440Y1521620D01*
X26075320Y1590410D01*
X26087130Y1627460D01*
X26106810Y1664500D01*
X26134370Y1690960D01*
X26161930Y1696250D01*
X26189490Y1685670D01*
X26209180Y1659210D01*
G01X26067440Y2278330D02*
X26091070Y2310080D01*
X26118630Y2325960D01*
X26150130Y2331250D01*
X26189490Y2320670D01*
X26217060Y2294210D01*
X26224930Y2262460D01*
X26220990Y2230700D01*
X26205240Y2204250D01*
X26126500Y2151330D01*
X26091070Y2114290D01*
X26067440Y2061360D01*
X26059570Y2013750D01*
X26224930D01*
G01X25984770Y2648750D02*
Y2966250D01*
X25937530Y2902750D01*
G01Y2648750D02*
X26032010D01*
G01X26224920Y2913330D02*
X26248550Y2945080D01*
X26276110Y2960960D01*
X26307610Y2966250D01*
X26346970Y2955670D01*
X26374540Y2929210D01*
X26382410Y2897460D01*
X26378470Y2865700D01*
X26362720Y2839250D01*
X26283980Y2786330D01*
X26248550Y2749290D01*
X26224920Y2696360D01*
X26217050Y2648750D01*
X26382410D01*
G01X25898160Y3347250D02*
X25921770Y3310200D01*
X25953270Y3289040D01*
X25988710Y3283750D01*
X26020210Y3289040D01*
X26051700Y3315490D01*
X26071380Y3347250D01*
X26075320Y3379000D01*
X26067450Y3416030D01*
X26039890Y3442500D01*
X26012330Y3453090D01*
X25976890D01*
G01X26012330D02*
X26035950Y3468960D01*
X26055640Y3495410D01*
X26063510Y3527160D01*
X26055640Y3558920D01*
X26035950Y3585370D01*
X26000520Y3601250D01*
X25965090Y3595960D01*
X25929650Y3574790D01*
G01X26224920Y3548330D02*
X26248550Y3580080D01*
X26276110Y3595960D01*
X26307610Y3601250D01*
X26346970Y3590670D01*
X26374540Y3564210D01*
X26382410Y3532460D01*
X26378470Y3500700D01*
X26362720Y3474250D01*
X26283980Y3421330D01*
X26248550Y3384290D01*
X26224920Y3331360D01*
X26217050Y3283750D01*
X26382410D01*
G01X26189490Y3918750D02*
Y4236250D01*
X26043820Y4008710D01*
X26240680D01*
G01X-250000Y0D02*
X-1530000D01*
G01X-1280000Y2324260D02*
Y0D01*
G01X-1342500Y400000D02*
X-1280000Y0D01*
X-1217500Y400000D01*
X-1342500D01*
G01X-1280000Y2815740D02*
Y5400000D01*
G01X-1217500Y5000000D02*
X-1280000Y5400000D01*
X-1342500Y5000000D01*
X-1217500D01*
G01X510000Y5400000D02*
X-1530000D01*
G01X-250000Y0D02*
X-870000D01*
G01X110000Y5040000D02*
X-870000D01*
G01X-800000Y-190000D02*
X0D01*
G01X-250000Y0D02*
X-520000D01*
G01X-620000Y1734260D02*
Y0D01*
G01X-682500Y400000D02*
X-620000Y0D01*
X-557500Y400000D01*
X-682500D01*
G01X110000Y360000D02*
X-520000D01*
G01X-620000Y2225740D02*
Y5040000D01*
G01X-557500Y4640000D02*
X-620000Y5040000D01*
X-682500Y4640000D01*
X-557500D01*
G01X-270000Y-800000D02*
Y0D01*
G01X-400000Y-252500D02*
X0Y-190000D01*
X-400000Y-127500D01*
Y-252500D01*
G01X-207500Y-400000D02*
X-270000Y0D01*
X-332500Y-400000D01*
X-207500D01*
G01X-270000Y784260D02*
Y360000D01*
G01X-332500Y760000D02*
X-270000Y360000D01*
X-207500Y760000D01*
X-332500D01*
G01X0Y-250000D02*
Y-920000D01*
G01X3323140Y-670000D02*
X0D01*
G01X400000Y-607500D02*
X0Y-670000D01*
X400000Y-732500D01*
Y-607500D01*
G01X0Y-250000D02*
Y-670000D01*
G01Y-250000D02*
Y-440000D01*
G01X1862640Y-420000D02*
X0D01*
G01X400000Y-357500D02*
X0Y-420000D01*
X400000Y-482500D01*
Y-357500D01*
G01X-40000Y5787500D02*
X360000Y5850000D01*
X-40000Y5912500D01*
Y5787500D01*
G01X360000Y110000D02*
Y-440000D01*
G01X617890Y-190000D02*
X360000D01*
G01X760000Y-127500D02*
X360000Y-190000D01*
X760000Y-252500D01*
Y-127500D01*
G01X360000Y5290000D02*
Y6100000D01*
G01X448390Y5850000D02*
X360000D01*
G01X1060000Y5290000D02*
Y6100000D01*
G01X891610Y5850000D02*
X1060000D01*
G01X1460000Y5912500D02*
X1060000Y5850000D01*
X1460000Y5787500D01*
Y5912500D01*
G01X2877360Y-420000D02*
X8140000D01*
G01X3956860Y-670000D02*
X8500000D01*
G01X7740000Y-482500D02*
X8140000Y-420000D01*
X7740000Y-357500D01*
Y-482500D01*
G01X8100000Y-732500D02*
X8500000Y-670000D01*
X8100000Y-607500D01*
Y-732500D01*
G01X8140000Y110000D02*
Y-670000D01*
G01X8500000Y50000D02*
Y-920000D01*
G01X9410000Y-50000D02*
Y6950000D01*
X27126500D01*
Y-50000D01*
X9410000D01*
G01Y585000D02*
X27126500D01*
G01X9410000Y1220000D02*
X27126500D01*
G01X9410000Y1855000D02*
X27126500D01*
G01X9410000Y2490000D02*
X27126500D01*
G01X9410000Y3125000D02*
X27126500D01*
G01X9410000Y3760000D02*
X27126500D01*
G01X9410000Y4395000D02*
X27126500D01*
G01X9410000Y5030000D02*
X27126500D01*
G01X9410000Y5665000D02*
X27126500D01*
G01X9410000Y6300000D02*
X27126500D01*
G01X11693460Y5665000D02*
Y-50000D01*
G01X16811560Y5665000D02*
Y-50000D01*
G01X21929660Y5665000D02*
Y-50000D01*
G01X25158000Y5665000D02*
Y-50000D01*
M02*
