G04 ================== begin FILE IDENTIFICATION RECORD ==================*
G04 Layout Name:  CH344Q_V10_240413.brd*
G04 Film Name:    SilkScreen_Top*
G04 File Format:  Gerber RS274X*
G04 File Origin:  Cadence Allegro 23.1-S003*
G04 Origin Date:  Sat Apr 20 11:21:09 2024*
G04 *
G04 Layer:  PACKAGE GEOMETRY/SILKSCREEN_TOP*
G04 Layer:  BOARD GEOMETRY/SILKSCREEN_TOP*
G04 *
G04 Offset:    (0.0000 0.0000)*
G04 Mirror:    No*
G04 Mode:      Positive*
G04 Rotation:  0*
G04 FullContactRelief:  No*
G04 UndefLineWidth:     0.1524*
G04 ================== end FILE IDENTIFICATION RECORD ====================*
%FSLAX55Y55*MOMM*%
%IR0*IPPOS*OFA0.00000B0.00000*MIA0B0*SFA1.00000B1.00000*%
%ADD10C,.2*%
%ADD11C,.127*%
%ADD12C,.1524*%
G75*
%LPD*%
G75*
G36*
G01X90000Y3360000D02*
X170000D01*
X130000Y3400000D01*
X90000Y3360000D01*
G37*
G36*
G01X1077600Y3451000D02*
G03I-25400J0D01*
G37*
G36*
G01X1570000Y2140000D02*
G03I-30000J0D01*
G37*
G36*
G01X1755000Y2854800D02*
G03I-30000J0D01*
G37*
G36*
G01X2430000Y900000D02*
X2380000Y850000D01*
X2480000D01*
X2430000Y900000D01*
G37*
G36*
G01X2416800Y1955100D02*
G03I-38100J0D01*
G37*
G36*
G01X2540000Y2907520D02*
X2620000D01*
X2580000Y2947520D01*
X2540000Y2907520D01*
G37*
G36*
G01X2430000Y4240000D02*
X2380000Y4190000D01*
X2480000D01*
X2430000Y4240000D01*
G37*
G36*
G01X2690000Y2907520D02*
X2770000D01*
X2730000Y2947520D01*
X2690000Y2907520D01*
G37*
G36*
G01X2840000D02*
X2920000D01*
X2880000Y2947520D01*
X2840000Y2907520D01*
G37*
G36*
G01X4040000Y900000D02*
X3990000Y850000D01*
X4090000D01*
X4040000Y900000D01*
G37*
G36*
G01X3845900Y1800000D02*
Y1720000D01*
X3885900Y1760000D01*
X3845900Y1800000D01*
G37*
G36*
G01Y2050000D02*
Y1970000D01*
X3885900Y2010000D01*
X3845900Y2050000D01*
G37*
G36*
G01Y2390000D02*
Y2310000D01*
X3885900Y2350000D01*
X3845900Y2390000D01*
G37*
G36*
G01Y2640000D02*
Y2560000D01*
X3885900Y2600000D01*
X3845900Y2640000D01*
G37*
G36*
G01Y2970000D02*
Y2890000D01*
X3885900Y2930000D01*
X3845900Y2970000D01*
G37*
G36*
G01Y3220000D02*
Y3140000D01*
X3885900Y3180000D01*
X3845900Y3220000D01*
G37*
G36*
G01Y3550000D02*
Y3470000D01*
X3885900Y3510000D01*
X3845900Y3550000D01*
G37*
G36*
G01Y3800000D02*
Y3720000D01*
X3885900Y3760000D01*
X3845900Y3800000D01*
G37*
G36*
G01X4040000Y4240000D02*
X3990000Y4190000D01*
X4090000D01*
X4040000Y4240000D01*
G37*
G36*
G01X4150000Y2014300D02*
X4100000Y2064300D01*
Y1964300D01*
X4150000Y2014300D01*
G37*
G36*
G01Y2600000D02*
X4100000Y2650000D01*
Y2550000D01*
X4150000Y2600000D01*
G37*
G36*
G01Y3180000D02*
X4100000Y3230000D01*
Y3130000D01*
X4150000Y3180000D01*
G37*
G36*
G01Y3760000D02*
X4100000Y3810000D01*
Y3710000D01*
X4150000Y3760000D01*
G37*
G36*
G01X5070000Y1390000D02*
G03I-30000J0D01*
G37*
G36*
G01Y2470000D02*
G03I-30000J0D01*
G37*
G36*
G01X5200000Y3490000D02*
G03I-30000J0D01*
G37*
G36*
G01X6000000Y3675080D02*
G03I-30000J0D01*
G37*
G36*
G01X7480000Y1174400D02*
G03I-30000J0D01*
G37*
G36*
G01Y2940000D02*
G03I-30000J0D01*
G37*
G54D10*
G01X840000Y2020000D02*
X0D01*
Y820000D01*
X840000D01*
G01X160000Y3120000D02*
X0D01*
Y2220000D01*
X160000D01*
G01X70000Y3240000D02*
X190000D01*
Y3520000D01*
X70000D01*
Y3240000D01*
G01Y3520000D02*
Y3550000D01*
X190000D01*
Y3520000D01*
G01X360000Y2220000D02*
X550000D01*
G01Y3120000D02*
X360000D01*
G01X220000Y3240000D02*
Y3420000D01*
X320000D01*
Y3240000D01*
X220000D01*
G01X570000Y3420000D02*
Y3240000D01*
X470000D01*
Y3420000D01*
X570000D01*
G01X350000Y3240000D02*
Y3420000D01*
X450000D01*
Y3240000D01*
X350000D01*
G01X800000Y550000D02*
X1600000D01*
Y60000D01*
X800000D01*
Y550000D01*
G01Y2220000D02*
Y2290000D01*
G01Y3120000D02*
Y3050000D01*
G01X1220000Y2020000D02*
X1600000D01*
Y820000D01*
X1220000D01*
G01X1204600Y3499100D02*
X1179200D01*
Y3270500D01*
X1280800D01*
Y3499100D01*
X1255400D01*
G01X1190000Y3100000D02*
X1350000D01*
G01Y3000000D02*
X1190000D01*
G01Y3100000D02*
G03Y3000000I50000J-50000D01*
G01X1180000Y3230000D02*
X1360000D01*
Y3130000D01*
X1180000D01*
Y3230000D01*
G01X1255400Y3499100D02*
G02X1204600I-25400J0D01*
G01X1460000Y2530000D02*
Y2170000D01*
X1880000D01*
Y2530000D01*
X1460000D01*
G01X1520000Y2570000D02*
Y2730000D01*
G01Y2570000D02*
G03X1620000I50000J50000D01*
G01Y2730000D02*
G03X1520000I-50000J-50000D01*
G01X1350000Y3000000D02*
G03Y3100000I-50000J50000D01*
G01X1990000Y1860000D02*
G02X1930000I-30000J0D01*
G01X1870000D02*
G02X1930000I30000J0D01*
G01X1710000Y2010000D02*
X2150000D01*
Y1710000D01*
X1710000D01*
Y2010000D01*
G01X1850000Y1860000D02*
X1870000D01*
G01X1820000Y2730000D02*
Y2570000D01*
G01X1720000D02*
Y2730000D01*
G01Y2570000D02*
G03X1820000I50000J50000D01*
G01X1620000Y2730000D02*
Y2570000D01*
G01X1910000D02*
Y2730000D01*
G01Y2570000D02*
G03X2010000I50000J50000D01*
G01X1820000Y2730000D02*
G03X1720000I-50000J-50000D01*
G01X2010000D02*
G03X1910000I-50000J-50000D01*
G01X1660000Y3724800D02*
X2340000D01*
Y3044800D01*
X1660000D01*
Y3724800D01*
G01X1740000Y4130000D02*
Y3970000D01*
G01X1640000D02*
Y4130000D01*
G01Y3970000D02*
G03X1740000I50000J50000D01*
G01Y4130000D02*
G03X1640000I-50000J-50000D01*
G01X1990000Y1860000D02*
X2010000D01*
G01X2200000Y1730000D02*
G03X2320000I60000J77500D01*
G01X2200000Y1990000D02*
Y1730000D01*
G01X2320000Y1990000D02*
G03X2200000I-60000J-77500D01*
G01X2150000Y2570000D02*
Y2730000D01*
G01X2250000D02*
Y2570000D01*
G01X2150000D02*
G03X2250000I50000J50000D01*
G01X2010000Y2730000D02*
Y2570000D01*
G01X2030000Y2560000D02*
Y2740000D01*
X2130000D01*
Y2560000D01*
X2030000D01*
G01X2250000Y2730000D02*
G03X2150000I-50000J-50000D01*
G01X2390000Y560000D02*
Y50000D01*
X2480000D01*
Y560000D01*
G01X2640000D02*
Y50000D01*
X2730000D01*
Y560000D01*
G01X2300000Y810000D02*
X3320000D01*
Y560000D01*
X2300000D01*
Y810000D01*
G01X2297000Y1160000D02*
Y900000D01*
X3327000D01*
Y1160000D01*
X2297000D01*
G01X2670800Y1999700D02*
Y1707600D01*
X2569200D01*
Y2012400D01*
X2594600D01*
G01X2320000Y1730000D02*
Y1990000D01*
G01X2645400Y2012400D02*
G02X2594600I-25400J0D01*
G01X2630000Y2760000D02*
Y2580000D01*
X2530000D01*
Y2760000D01*
X2630000D01*
G01X2520000Y2787520D02*
X2640000D01*
Y3067520D01*
X2520000D01*
Y2787520D01*
G01Y3067520D02*
Y3097520D01*
X2640000D01*
Y3067520D01*
G01X2730000Y3640000D02*
X2570000D01*
G01Y3740000D02*
X2730000D01*
G01X2570000D02*
G03Y3640000I50000J-50000D01*
G01X2297000Y4500000D02*
Y4240000D01*
X3327000D01*
Y4500000D01*
X2297000D01*
G01X3320000Y4590000D02*
X2300000D01*
Y4840000D01*
X3320000D01*
Y4590000D01*
G01X2730000Y4840000D02*
Y5350000D01*
X2640000D01*
Y4840000D01*
G01X2480000D02*
Y5350000D01*
X2390000D01*
Y4840000D01*
G01X2890000Y560000D02*
Y50000D01*
X2980000D01*
Y560000D01*
G01X2860000Y1730000D02*
G03X2980000I60000J77500D01*
G01X2860000Y1990000D02*
Y1730000D01*
G01X2980000D02*
Y1990000D01*
G01X2670800Y1999700D02*
Y2012400D01*
X2645400D01*
G01X2980000Y1990000D02*
G03X2860000I-60000J-77500D01*
G01X2780000Y2760000D02*
Y2580000D01*
X2680000D01*
Y2760000D01*
X2780000D01*
G01X2930000D02*
Y2580000D01*
X2830000D01*
Y2760000D01*
X2930000D01*
G01X2670000Y2787520D02*
X2790000D01*
Y3067520D01*
X2670000D01*
Y2787520D01*
G01X2820000D02*
X2940000D01*
Y3067520D01*
X2820000D01*
Y2787520D01*
G01X2670000Y3067520D02*
Y3097520D01*
X2790000D01*
Y3067520D01*
G01X2820000D02*
Y3097520D01*
X2940000D01*
Y3067520D01*
G01X2730000Y3640000D02*
G03Y3740000I-50000J50000D01*
G01X2980000Y4840000D02*
Y5350000D01*
X2890000D01*
Y4840000D01*
G01X3140000Y560000D02*
Y50000D01*
X3230000D01*
Y560000D01*
G01X4150000Y2150000D02*
X3110000D01*
Y1630000D01*
X4150000D01*
G01Y2730000D02*
X3110000D01*
Y2210000D01*
X4150000D01*
G01Y3310000D02*
X3110000D01*
Y2790000D01*
X4150000D01*
G01Y3890000D02*
X3110000D01*
Y3370000D01*
X4150000D01*
G01X3230000Y4840000D02*
Y5350000D01*
X3140000D01*
Y4840000D01*
G01X3700000Y1710000D02*
X3520000D01*
Y1810000D01*
X3700000D01*
Y1710000D01*
G01Y1960000D02*
X3520000D01*
Y2060000D01*
X3700000D01*
Y1960000D01*
G01Y2550000D02*
X3520000D01*
Y2650000D01*
X3700000D01*
Y2550000D01*
G01Y2300000D02*
X3520000D01*
Y2400000D01*
X3700000D01*
Y2300000D01*
G01Y2880000D02*
X3520000D01*
Y2980000D01*
X3700000D01*
Y2880000D01*
G01Y3130000D02*
X3520000D01*
Y3230000D01*
X3700000D01*
Y3130000D01*
G01Y3460000D02*
X3520000D01*
Y3560000D01*
X3700000D01*
Y3460000D01*
G01Y3710000D02*
X3520000D01*
Y3810000D01*
X3700000D01*
Y3710000D01*
G01X4000000Y560000D02*
Y50000D01*
X4090000D01*
Y560000D01*
G01X3910000Y810000D02*
X4930000D01*
Y560000D01*
X3910000D01*
Y810000D01*
G01X3907000Y1160000D02*
Y900000D01*
X4937000D01*
Y1160000D01*
X3907000D01*
G01X4005900Y1820000D02*
X4035900D01*
Y1700000D01*
X4005900D01*
G01X3725900Y1820000D02*
Y1700000D01*
X4005900D01*
Y1820000D01*
X3725900D01*
G01X4005900Y2070000D02*
X4035900D01*
Y1950000D01*
X4005900D01*
G01X3725900Y2070000D02*
Y1950000D01*
X4005900D01*
Y2070000D01*
X3725900D01*
G01X4005900Y2410000D02*
X4035900D01*
Y2290000D01*
X4005900D01*
G01X3725900Y2410000D02*
Y2290000D01*
X4005900D01*
Y2410000D01*
X3725900D01*
G01X4005900Y2660000D02*
X4035900D01*
Y2540000D01*
X4005900D01*
G01X3725900Y2660000D02*
Y2540000D01*
X4005900D01*
Y2660000D01*
X3725900D01*
G01X4005900Y2990000D02*
X4035900D01*
Y2870000D01*
X4005900D01*
G01X3725900Y2990000D02*
Y2870000D01*
X4005900D01*
Y2990000D01*
X3725900D01*
G01X4005900Y3240000D02*
X4035900D01*
Y3120000D01*
X4005900D01*
G01X3725900Y3240000D02*
Y3120000D01*
X4005900D01*
Y3240000D01*
X3725900D01*
G01X4005900Y3570000D02*
X4035900D01*
Y3450000D01*
X4005900D01*
G01X3725900Y3570000D02*
Y3450000D01*
X4005900D01*
Y3570000D01*
X3725900D01*
G01X4005900Y3820000D02*
X4035900D01*
Y3700000D01*
X4005900D01*
G01X3725900Y3820000D02*
Y3700000D01*
X4005900D01*
Y3820000D01*
X3725900D01*
G01X3907000Y4500000D02*
Y4240000D01*
X4937000D01*
Y4500000D01*
X3907000D01*
G01X4930000Y4590000D02*
X3910000D01*
Y4840000D01*
X4930000D01*
Y4590000D01*
G01X4090000Y4840000D02*
Y5350000D01*
X4000000D01*
Y4840000D01*
G01X4250000Y560000D02*
Y50000D01*
X4340000D01*
Y560000D01*
G01X4150000Y1880000D02*
X4660000D01*
G01X4410000Y2147300D02*
X4150000D01*
Y1627300D01*
X4660000D01*
Y2147300D01*
X4410000D01*
G01Y2733000D02*
X4150000D01*
Y2213000D01*
X4660000D01*
Y2733000D01*
X4410000D01*
G01X4150000Y2470000D02*
X4660000D01*
G01X4410000Y3313000D02*
X4150000D01*
Y2793000D01*
X4660000D01*
Y3313000D01*
X4410000D01*
G01X4150000Y3050000D02*
X4660000D01*
G01X4150000Y3630000D02*
X4660000D01*
G01X4410000Y3893000D02*
X4150000D01*
Y3373000D01*
X4660000D01*
Y3893000D01*
X4410000D01*
G01X4340000Y4840000D02*
Y5350000D01*
X4250000D01*
Y4840000D01*
G01X4500000Y560000D02*
Y50000D01*
X4590000D01*
Y560000D01*
G01Y4840000D02*
Y5350000D01*
X4500000D01*
Y4840000D01*
G01X4750000Y560000D02*
Y50000D01*
X4840000D01*
Y560000D01*
G01X5000000Y1220000D02*
X4820000D01*
Y1320000D01*
X5000000D01*
Y1220000D01*
G01X4810000Y2520000D02*
X4970000D01*
G01Y2420000D02*
X4810000D01*
G01Y2520000D02*
G03Y2420000I50000J-50000D01*
G01X4970000D02*
G03Y2520000I-50000J50000D01*
G01X5110000Y3190000D02*
X4950000D01*
G01Y3290000D02*
G03Y3190000I50000J-50000D01*
G01Y3290000D02*
X5110000D01*
G01Y3630000D02*
X4950000D01*
G01Y3730000D02*
G03Y3630000I50000J-50000D01*
G01Y3730000D02*
X5110000D01*
G01X4840000Y4840000D02*
Y5350000D01*
X4750000D01*
Y4840000D01*
G01X5270000Y950000D02*
Y1450000D01*
X5390000D01*
G01X5470000D02*
X5590000D01*
Y950000D01*
X5270000D01*
G01X5390000Y1450000D02*
G03X5470000I40000J4108D01*
G01X5270000Y2030000D02*
Y2530000D01*
X5390000D01*
G01X5470000D02*
X5590000D01*
Y2030000D01*
X5270000D01*
G01X5390000Y2530000D02*
G03X5470000I40000J4108D01*
G01X5400000Y3050000D02*
Y3550000D01*
X5520000D01*
G01X5600000D02*
X5720000D01*
Y3050000D01*
X5400000D01*
G01X5110000Y3190000D02*
G03Y3290000I-50000J50000D01*
G01X5610000Y3620080D02*
X5740000D01*
Y4620080D01*
X5380000D01*
Y3620080D01*
X5510000D01*
G01X5110000Y3630000D02*
G03Y3730000I-50000J50000D01*
G01X5510000Y3620080D02*
G02X5610000I50000J1000D01*
G01X5520000Y3550000D02*
G03X5600000I40000J4108D01*
G01X5990000Y1370000D02*
Y1030000D01*
X5830000D01*
Y1370000D01*
X5990000D01*
G01X6020000Y1140000D02*
X6200000D01*
Y1040000D01*
X6020000D01*
Y1140000D01*
G01X5990000Y1410000D02*
X5830000D01*
G01Y1510000D02*
X5990000D01*
G01Y1410000D02*
G03Y1510000I-50000J50000D01*
G01X5830000D02*
G03Y1410000I50000J-50000D01*
G01X6200000Y1260000D02*
X6020000D01*
Y1360000D01*
X6200000D01*
Y1260000D01*
G01X5990000Y2260000D02*
Y1920000D01*
X5830000D01*
Y2260000D01*
X5990000D01*
G01X6200000Y2150000D02*
X6020000D01*
Y2250000D01*
X6200000D01*
Y2150000D01*
G01X6020000Y2030000D02*
X6200000D01*
Y1930000D01*
X6020000D01*
Y2030000D01*
G01X5830000Y2290000D02*
Y2630000D01*
X5990000D01*
Y2290000D01*
X5830000D01*
G01X6200000Y2300000D02*
X6020000D01*
Y2400000D01*
X6200000D01*
Y2300000D01*
G01X6020000Y2610000D02*
X6200000D01*
Y2510000D01*
X6020000D01*
Y2610000D01*
G01X6250000Y3200000D02*
Y3090000D01*
X6090000D01*
G01Y3300000D02*
Y3200000D01*
G01X6250000Y3300000D02*
Y3410000D01*
X6090000D01*
G01X6190000Y3630000D02*
X6030000D01*
G01Y3730000D02*
G03Y3630000I50000J-50000D01*
G01X6020000Y3540000D02*
X6200000D01*
Y3440000D01*
X6020000D01*
Y3540000D01*
G01X6030000Y3730000D02*
X6190000D01*
G01Y3750000D02*
X6030000D01*
G01Y3850000D02*
X6190000D01*
G01X6030000D02*
G03Y3750000I50000J-50000D01*
G01Y4110000D02*
X6190000D01*
G01Y4010000D02*
X6030000D01*
G01Y4110000D02*
G03Y4010000I50000J-50000D01*
G01X6190000Y4260000D02*
X6030000D01*
G01Y4360000D02*
G03Y4260000I50000J-50000D01*
G01Y4360000D02*
X6190000D01*
G01X6482000Y1150000D02*
Y1040000D01*
X6322000D01*
G01Y1250000D02*
Y1150000D01*
G01X6482000Y1250000D02*
Y1360000D01*
X6322000D01*
G01X6320000Y2140000D02*
Y2250000D01*
X6480000D01*
G01Y2040000D02*
Y2140000D01*
G01X6320000Y2040000D02*
Y1930000D01*
X6480000D01*
G01X6320000Y2510000D02*
Y2620000D01*
X6480000D01*
G01Y2410000D02*
Y2510000D01*
G01X6320000Y2410000D02*
Y2300000D01*
X6480000D01*
G01X6410000Y3080000D02*
Y3420000D01*
X6570000D01*
Y3080000D01*
X6410000D01*
G01X6190000Y3630000D02*
G03Y3730000I-50000J50000D01*
G01X6520000Y4010000D02*
Y3900000D01*
X6360000D01*
G01X6190000Y3750000D02*
G03Y3850000I-50000J50000D01*
G01X6360000Y4110000D02*
Y4010000D01*
G01X6520000Y4110000D02*
Y4220000D01*
X6360000D01*
G01X6190000Y4010000D02*
G03Y4110000I-50000J50000D01*
G01Y4260000D02*
G03Y4360000I-50000J50000D01*
G01X6800000Y1060000D02*
G02X6860000I30000J0D01*
G01X6640000Y1210000D02*
X7080000D01*
Y910000D01*
X6640000D01*
Y1210000D01*
G01X6780000Y1060000D02*
X6800000D01*
G01Y1400000D02*
G02X6860000I30000J0D01*
G01X6640000Y1550000D02*
X7080000D01*
Y1250000D01*
X6640000D01*
Y1550000D01*
G01X6780000Y1400000D02*
X6800000D01*
G01Y1780000D02*
G02X6860000I30000J0D01*
G01X6640000Y1930000D02*
X7080000D01*
Y1630000D01*
X6640000D01*
Y1930000D01*
G01X6780000Y1780000D02*
X6800000D01*
G01Y2110000D02*
G02X6860000I30000J0D01*
G01X6640000Y2260000D02*
X7080000D01*
Y1960000D01*
X6640000D01*
Y2260000D01*
G01X6780000Y2110000D02*
X6800000D01*
G01Y2440000D02*
G02X6860000I30000J0D01*
G01X6640000Y2590000D02*
X7080000D01*
Y2290000D01*
X6640000D01*
Y2590000D01*
G01X6780000Y2440000D02*
X6800000D01*
G01Y2770000D02*
G02X6860000I30000J0D01*
G01X6640000Y2920000D02*
X7080000D01*
Y2620000D01*
X6640000D01*
Y2920000D01*
G01X6780000Y2770000D02*
X6800000D01*
G01X6820000Y3950000D02*
G02X6880000I30000J0D01*
G01X6660000Y4100000D02*
X7100000D01*
Y3800000D01*
X6660000D01*
Y4100000D01*
G01X6800000Y3950000D02*
X6820000D01*
G01Y4280000D02*
G02X6880000I30000J0D01*
G01X6660000Y4430000D02*
X7100000D01*
Y4130000D01*
X6660000D01*
Y4430000D01*
G01X6800000Y4280000D02*
X6820000D01*
G01X6920000Y1060000D02*
G02X6860000I-30000J0D01*
G01X6920000D02*
X6940000D01*
G01X6920000Y1400000D02*
G02X6860000I-30000J0D01*
G01X6920000D02*
X6940000D01*
G01X6920000Y1780000D02*
G02X6860000I-30000J0D01*
G01X6920000D02*
X6940000D01*
G01X6920000Y2110000D02*
G02X6860000I-30000J0D01*
G01X6920000D02*
X6940000D01*
G01X6920000Y2440000D02*
G02X6860000I-30000J0D01*
G01X6920000D02*
X6940000D01*
G01X6920000Y2770000D02*
G02X6860000I-30000J0D01*
G01X6920000D02*
X6940000D01*
G01Y3950000D02*
G02X6880000I-30000J0D01*
G01X6940000D02*
X6960000D01*
G01X6940000Y4280000D02*
G02X6880000I-30000J0D01*
G01X6940000D02*
X6960000D01*
G01X7490000Y954400D02*
Y2664400D01*
X8500000D01*
Y954400D01*
X7490000D01*
G01Y2720000D02*
Y4430000D01*
X8500000D01*
Y2720000D01*
X7490000D01*
G54D11*
G01X210000Y3979060D02*
X331920D01*
G01X461460D02*
X728160D01*
G01X210000Y3971440D02*
X324300D01*
G01X461460D02*
X583380D01*
G01X210000Y3963820D02*
X324300D01*
G01X469080D02*
X583380D01*
G01X210000Y3956200D02*
X316680D01*
G01X469080D02*
X583380D01*
G01X210000Y3948580D02*
X316680D01*
G01X476700D02*
X583380D01*
G01X210000Y3940960D02*
X316680D01*
G01X476700D02*
X583380D01*
G01X210000Y3933340D02*
X309060D01*
G01X484320D02*
X583380D01*
G01X210000Y3925720D02*
X309060D01*
G01X484320D02*
X583380D01*
G01X210000Y3918100D02*
X301440D01*
G01X491940D02*
X583380D01*
G01X210000Y3910480D02*
X301440D01*
G01X491940D02*
X583380D01*
G01X210000Y3902860D02*
X293820D01*
G01X499560D02*
X583380D01*
G01X210000Y3895240D02*
X293820D01*
G01X499560D02*
X583380D01*
G01X210000Y3887620D02*
X286200D01*
G01X507180D02*
X583380D01*
G01X210000Y3880000D02*
X286200D01*
G01X507180D02*
X583380D01*
G01X210000Y4329580D02*
X278580D01*
G01X514800D02*
X583380D01*
G01X210000Y4321960D02*
X278580D01*
G01X514800D02*
X583380D01*
G01X210000Y4314340D02*
X278580D01*
G01X514800D02*
X583380D01*
G01X210000Y4306720D02*
X278580D01*
G01X514800D02*
X583380D01*
G01X210000Y4299100D02*
X278580D01*
G01X514800D02*
X583380D01*
G01X210000Y4291480D02*
X278580D01*
G01X514800D02*
X697680D01*
G01X210000Y4283860D02*
X278580D01*
G01X514800D02*
X690060D01*
G01X210000Y4276240D02*
X278580D01*
G01X514800D02*
X674820D01*
G01X210000Y4268620D02*
X278580D01*
G01X514800D02*
X667200D01*
G01X210000Y4261000D02*
X278580D01*
G01X514800D02*
X659580D01*
G01X210000Y4253380D02*
X278580D01*
G01X514800D02*
X651960D01*
G01X210000Y4245760D02*
X278580D01*
G01X514800D02*
X644340D01*
G01X210000Y4238140D02*
X278580D01*
G01X514800D02*
X636720D01*
G01X210000Y4230520D02*
X278580D01*
G01X514800D02*
X629100D01*
G01X210000Y4222900D02*
X278580D01*
G01X514800D02*
X629100D01*
G01X210000Y4215280D02*
X278580D01*
G01X514800D02*
X621480D01*
G01X210000Y4207660D02*
X278580D01*
G01X514800D02*
X621480D01*
G01X210000Y4200040D02*
X278580D01*
G01X514800D02*
X621480D01*
G01X210000Y4192420D02*
X278580D01*
G01X514800D02*
X613860D01*
G01X210000Y4184800D02*
X278580D01*
G01X514800D02*
X613860D01*
G01X210000Y4177180D02*
X278580D01*
G01X514800D02*
X613860D01*
G01X210000Y4169560D02*
X278580D01*
G01X354780D02*
X430980D01*
G01X514800D02*
X613860D01*
G01X210000Y4161940D02*
X278580D01*
G01X354780D02*
X438600D01*
G01X514800D02*
X613860D01*
G01X210000Y4154320D02*
X278580D01*
G01X347160D02*
X438600D01*
G01X514800D02*
X613860D01*
G01X210000Y4146700D02*
X278580D01*
G01X347160D02*
X446220D01*
G01X514800D02*
X613860D01*
G01X210000Y4139080D02*
X278580D01*
G01X339540D02*
X453840D01*
G01X514800D02*
X613860D01*
G01X210000Y4131460D02*
X278580D01*
G01X339540D02*
X453840D01*
G01X514800D02*
X613860D01*
G01X210000Y4123840D02*
X278580D01*
G01X331920D02*
X461460D01*
G01X514800D02*
X613860D01*
G01X210000Y4116220D02*
X278580D01*
G01X331920D02*
X461460D01*
G01X514800D02*
X613860D01*
G01X210000Y4108600D02*
X278580D01*
G01X324300D02*
X469080D01*
G01X514800D02*
X621480D01*
G01X210000Y4100980D02*
X278580D01*
G01X316680D02*
X469080D01*
G01X514800D02*
X621480D01*
G01X210000Y4093360D02*
X278580D01*
G01X316680D02*
X476700D01*
G01X514800D02*
X621480D01*
G01X210000Y4085740D02*
X278580D01*
G01X309060D02*
X385260D01*
G01X408120D02*
X476700D01*
G01X514800D02*
X621480D01*
G01X210000Y4078120D02*
X278580D01*
G01X309060D02*
X377640D01*
G01X415740D02*
X484320D01*
G01X514800D02*
X629100D01*
G01X210000Y4070500D02*
X278580D01*
G01X301440D02*
X377640D01*
G01X415740D02*
X491940D01*
G01X514800D02*
X629100D01*
G01X210000Y4062880D02*
X278580D01*
G01X301440D02*
X370020D01*
G01X423360D02*
X491940D01*
G01X514800D02*
X636720D01*
G01X210000Y4055260D02*
X278580D01*
G01X293820D02*
X370020D01*
G01X423360D02*
X499560D01*
G01X514800D02*
X636720D01*
G01X210000Y4047640D02*
X278580D01*
G01X286200D02*
X362400D01*
G01X423360D02*
X499560D01*
G01X507180D02*
X644340D01*
G01X210000Y4040020D02*
X362400D01*
G01X430980D02*
X651960D01*
G01X210000Y4032400D02*
X354780D01*
G01X430980D02*
X659580D01*
G01X210000Y4024780D02*
X354780D01*
G01X438600D02*
X667200D01*
G01X210000Y4017160D02*
X347160D01*
G01X438600D02*
X674820D01*
G01X210000Y4009540D02*
X347160D01*
G01X446220D02*
X682440D01*
G01X210000Y4001920D02*
X339540D01*
G01X446220D02*
X690060D01*
G01X210000Y3994300D02*
X339540D01*
G01X453840D02*
X705300D01*
G01X210000Y3986680D02*
X331920D01*
G01X453840D02*
X712920D01*
G01X210000Y4398160D02*
X278580D01*
G01X514800D02*
X583380D01*
G01X210000Y4390540D02*
X278580D01*
G01X514800D02*
X583380D01*
G01X210000Y4382920D02*
X278580D01*
G01X514800D02*
X583380D01*
G01X210000Y4375300D02*
X278580D01*
G01X514800D02*
X583380D01*
G01X210000Y4367680D02*
X278580D01*
G01X514800D02*
X583380D01*
G01X210000Y4360060D02*
X278580D01*
G01X514800D02*
X583380D01*
G01X210000Y4352440D02*
X278580D01*
G01X514800D02*
X583380D01*
G01X210000Y4344820D02*
X278580D01*
G01X514800D02*
X583380D01*
G01X210000Y4337200D02*
X278580D01*
G01X514800D02*
X583380D01*
G01X811980Y3979060D02*
X888180D01*
G01X598620Y3971440D02*
X743400D01*
G01X811980D02*
X888180D01*
G01X606240Y3963820D02*
X758640D01*
G01X811980D02*
X888180D01*
G01X613860Y3956200D02*
X781500D01*
G01X811980D02*
X888180D01*
G01X621480Y3948580D02*
X888180D01*
G01X629100Y3940960D02*
X888180D01*
G01X636720Y3933340D02*
X888180D01*
G01X644340Y3925720D02*
X888180D01*
G01X659580Y3918100D02*
X888180D01*
G01X674820Y3910480D02*
X888180D01*
G01X690060Y3902860D02*
X888180D01*
G01X712920Y3895240D02*
X888180D01*
G01X735780Y3887620D02*
X888180D01*
G01X773880Y3880000D02*
X888180D01*
G01X621480Y4329580D02*
X888180D01*
G01X613860Y4321960D02*
X781500D01*
G01X811980D02*
X888180D01*
G01X606240Y4314340D02*
X751020D01*
G01X811980D02*
X888180D01*
G01X598620Y4306720D02*
X735780D01*
G01X811980D02*
X888180D01*
G01X598620Y4299100D02*
X712920D01*
G01X811980D02*
X888180D01*
G01X811980Y4291480D02*
X888180D01*
G01X811980Y4283860D02*
X888180D01*
G01X811980Y4276240D02*
X888180D01*
G01X811980Y4268620D02*
X888180D01*
G01X811980Y4261000D02*
X888180D01*
G01X811980Y4253380D02*
X888180D01*
G01X811980Y4245760D02*
X888180D01*
G01X811980Y4238140D02*
X888180D01*
G01X811980Y4230520D02*
X888180D01*
G01X811980Y4222900D02*
X888180D01*
G01X811980Y4215280D02*
X888180D01*
G01X811980Y4207660D02*
X888180D01*
G01X811980Y4200040D02*
X888180D01*
G01X811980Y4192420D02*
X888180D01*
G01X811980Y4184800D02*
X880560D01*
G01X811980Y4177180D02*
X888180D01*
G01X811980Y4169560D02*
X1185360D01*
G01X811980Y4161940D02*
X1185360D01*
G01X811980Y4154320D02*
X1185360D01*
G01X811980Y4146700D02*
X1185360D01*
G01X811980Y4139080D02*
X1185360D01*
G01X811980Y4131460D02*
X1185360D01*
G01X811980Y4123840D02*
X1185360D01*
G01X811980Y4116220D02*
X1185360D01*
G01X811980Y4108600D02*
X1185360D01*
G01X811980Y4100980D02*
X1185360D01*
G01X811980Y4093360D02*
X888180D01*
G01X811980Y4085740D02*
X888180D01*
G01X811980Y4078120D02*
X888180D01*
G01X811980Y4070500D02*
X888180D01*
G01X811980Y4062880D02*
X888180D01*
G01X811980Y4055260D02*
X888180D01*
G01X811980Y4047640D02*
X888180D01*
G01X811980Y4040020D02*
X888180D01*
G01X811980Y4032400D02*
X888180D01*
G01X811980Y4024780D02*
X888180D01*
G01X811980Y4017160D02*
X888180D01*
G01X811980Y4009540D02*
X888180D01*
G01X811980Y4001920D02*
X888180D01*
G01X811980Y3994300D02*
X888180D01*
G01X811980Y3986680D02*
X888180D01*
G01X804360Y4398160D02*
X872940D01*
G01X751020Y4390540D02*
X888180D01*
G01X720540Y4382920D02*
X888180D01*
G01X697680Y4375300D02*
X888180D01*
G01X682440Y4367680D02*
X888180D01*
G01X667200Y4360060D02*
X888180D01*
G01X651960Y4352440D02*
X888180D01*
G01X644340Y4344820D02*
X888180D01*
G01X629100Y4337200D02*
X888180D01*
G01X1116780Y3979060D02*
X1185360D01*
G01X1116780Y3971440D02*
X1185360D01*
G01X1116780Y3963820D02*
X1185360D01*
G01X1116780Y3956200D02*
X1185360D01*
G01X1116780Y3948580D02*
X1185360D01*
G01X1116780Y3940960D02*
X1185360D01*
G01X1116780Y3933340D02*
X1185360D01*
G01X1116780Y3925720D02*
X1185360D01*
G01X1116780Y3918100D02*
X1185360D01*
G01X1116780Y3910480D02*
X1185360D01*
G01X1116780Y3902860D02*
X1185360D01*
G01X1116780Y3895240D02*
X1185360D01*
G01X1116780Y3887620D02*
X1185360D01*
G01X1116780Y3880000D02*
X1185360D01*
G01X1116780Y4329580D02*
X1185360D01*
G01X1116780Y4321960D02*
X1185360D01*
G01X1116780Y4314340D02*
X1185360D01*
G01X1116780Y4306720D02*
X1185360D01*
G01X1116780Y4299100D02*
X1185360D01*
G01X1116780Y4291480D02*
X1185360D01*
G01X1116780Y4283860D02*
X1185360D01*
G01X1116780Y4276240D02*
X1185360D01*
G01X1116780Y4268620D02*
X1185360D01*
G01X1116780Y4261000D02*
X1185360D01*
G01X1116780Y4253380D02*
X1185360D01*
G01X1116780Y4245760D02*
X1185360D01*
G01X1116780Y4238140D02*
X1185360D01*
G01X1116780Y4230520D02*
X1185360D01*
G01X1116780Y4222900D02*
X1185360D01*
G01X1116780Y4215280D02*
X1185360D01*
G01X1116780Y4207660D02*
X1185360D01*
G01X1116780Y4200040D02*
X1185360D01*
G01X1116780Y4192420D02*
X1185360D01*
G01X1116780Y4184800D02*
X1185360D01*
G01X1116780Y4177180D02*
X1185360D01*
G01X1116780Y4093360D02*
X1185360D01*
G01X1116780Y4085740D02*
X1185360D01*
G01X1116780Y4078120D02*
X1185360D01*
G01X1116780Y4070500D02*
X1185360D01*
G01X1116780Y4062880D02*
X1185360D01*
G01X1116780Y4055260D02*
X1185360D01*
G01X1116780Y4047640D02*
X1185360D01*
G01X1116780Y4040020D02*
X1185360D01*
G01X1116780Y4032400D02*
X1185360D01*
G01X1116780Y4024780D02*
X1185360D01*
G01X1116780Y4017160D02*
X1185360D01*
G01X1116780Y4009540D02*
X1185360D01*
G01X1116780Y4001920D02*
X1185360D01*
G01X1116780Y3994300D02*
X1185360D01*
G01X1116780Y3986680D02*
X1185360D01*
G01X1116780Y4398160D02*
X1185360D01*
G01X1116780Y4390540D02*
X1185360D01*
G01X1116780Y4382920D02*
X1185360D01*
G01X1116780Y4375300D02*
X1185360D01*
G01X1116780Y4367680D02*
X1185360D01*
G01X1116780Y4360060D02*
X1185360D01*
G01X1116780Y4352440D02*
X1185360D01*
G01X1116780Y4344820D02*
X1185360D01*
G01X1116780Y4337200D02*
X1185360D01*
G54D12*
G01X152000Y3588000D02*
X162500Y3594000D01*
X168500Y3602000D01*
X170000Y3611000D01*
X168500Y3619000D01*
X161000Y3627000D01*
X152000Y3632000D01*
X143000Y3633000D01*
X132500Y3631000D01*
X125000Y3624000D01*
X122000Y3617000D01*
Y3608000D01*
G01Y3617000D02*
X117500Y3623000D01*
X110000Y3628000D01*
X101000Y3630000D01*
X92000Y3628000D01*
X84500Y3623000D01*
X80000Y3614000D01*
X81500Y3605000D01*
X87500Y3596000D01*
G01X80000Y3655000D02*
X170000Y3680000D01*
X80000Y3705000D01*
G01X152000Y3728000D02*
X162500Y3734000D01*
X168500Y3742000D01*
X170000Y3751000D01*
X168500Y3759000D01*
X161000Y3767000D01*
X152000Y3772000D01*
X143000Y3773000D01*
X132500Y3771000D01*
X125000Y3764000D01*
X122000Y3757000D01*
Y3748000D01*
G01Y3757000D02*
X117500Y3763000D01*
X110000Y3768000D01*
X101000Y3770000D01*
X92000Y3768000D01*
X84500Y3763000D01*
X80000Y3754000D01*
X81500Y3745000D01*
X87500Y3736000D01*
G01X859000Y110000D02*
X901000Y200000D01*
G01X859000D02*
X901000Y110000D01*
G01X929000D02*
X971000Y200000D01*
G01X929000D02*
X971000Y110000D01*
G01X999000D02*
X1041000Y200000D01*
G01X999000D02*
X1041000Y110000D01*
G01X1070000Y200000D02*
Y110000D01*
X1110000D01*
G01X1141000Y200000D02*
X1179000D01*
X1141000Y110000D01*
X1179000D01*
G01X1210000Y128000D02*
X1215000Y119000D01*
X1221000Y113000D01*
X1228000Y110000D01*
X1236000Y113000D01*
X1242000Y119000D01*
X1248000Y128000D01*
X1250000Y140000D01*
Y200000D01*
G01X1279000Y110000D02*
X1321000Y200000D01*
G01X1279000D02*
X1321000Y110000D01*
G01X1349000D02*
X1391000Y200000D01*
G01X1349000D02*
X1391000Y110000D01*
G01X1419000D02*
X1461000Y200000D01*
G01X1419000D02*
X1461000Y110000D01*
G01X902000Y492500D02*
X896000Y497000D01*
X889000Y500000D01*
X881000D01*
X872000Y495500D01*
X865000Y488000D01*
X860000Y479000D01*
X856000Y464000D01*
X855000Y450500D01*
X857000Y437000D01*
X860000Y428000D01*
X866000Y419000D01*
X873000Y413000D01*
X880000Y410000D01*
X887000D01*
X894000Y413000D01*
X900000Y417500D01*
X905000Y423500D01*
G01X929000Y410000D02*
Y500000D01*
G01X971000D02*
Y410000D01*
G01Y455000D02*
X929000D01*
G01X998000Y428000D02*
X1004000Y417500D01*
X1012000Y411500D01*
X1021000Y410000D01*
X1029000Y411500D01*
X1037000Y419000D01*
X1042000Y428000D01*
X1043000Y437000D01*
X1041000Y447500D01*
X1034000Y455000D01*
X1027000Y458000D01*
X1018000D01*
G01X1027000D02*
X1033000Y462500D01*
X1038000Y470000D01*
X1040000Y479000D01*
X1038000Y488000D01*
X1033000Y495500D01*
X1024000Y500000D01*
X1015000Y498500D01*
X1006000Y492500D01*
G01X1102000Y410000D02*
Y500000D01*
X1065000Y435500D01*
X1115000D01*
G01X1172000Y410000D02*
Y500000D01*
X1135000Y435500D01*
X1185000D01*
G01X1230000Y410000D02*
X1222000Y411500D01*
X1215000Y417500D01*
X1209000Y426500D01*
X1205000Y437000D01*
X1203000Y449000D01*
Y461000D01*
X1205000Y473000D01*
X1209000Y483500D01*
X1215000Y492500D01*
X1222000Y498500D01*
X1230000Y500000D01*
X1238000Y498500D01*
X1245000Y492500D01*
X1251000Y483500D01*
X1255000Y473000D01*
X1257000Y461000D01*
Y449000D01*
X1255000Y437000D01*
X1251000Y426500D01*
X1245000Y417500D01*
X1238000Y411500D01*
X1230000Y410000D01*
G01X1238000Y434000D02*
X1250000Y410000D01*
G01X1270000Y380000D02*
X1330000D01*
G01X1345000Y500000D02*
X1370000Y410000D01*
X1395000Y500000D01*
G01X1440000Y410000D02*
Y500000D01*
X1428000Y482000D01*
G01Y410000D02*
X1452000D01*
G01X1510000Y500000D02*
X1502000Y497000D01*
X1496000Y489500D01*
X1492000Y480500D01*
X1489000Y468500D01*
X1488000Y455000D01*
X1489000Y441500D01*
X1492000Y429500D01*
X1496000Y420500D01*
X1502000Y413000D01*
X1510000Y410000D01*
X1518000Y413000D01*
X1524000Y420500D01*
X1528000Y429500D01*
X1531000Y441500D01*
X1532000Y455000D01*
X1531000Y468500D01*
X1528000Y480500D01*
X1524000Y489500D01*
X1518000Y497000D01*
X1510000Y500000D01*
G01X861000Y335000D02*
X867000Y344000D01*
X874000Y348500D01*
X882000Y350000D01*
X892000Y347000D01*
X899000Y339500D01*
X901000Y330500D01*
X900000Y321500D01*
X896000Y314000D01*
X876000Y299000D01*
X867000Y288500D01*
X861000Y273500D01*
X859000Y260000D01*
X901000D01*
G01X962000D02*
Y350000D01*
X925000Y285500D01*
X975000D01*
G01X1020000Y350000D02*
X1012000Y347000D01*
X1006000Y339500D01*
X1002000Y330500D01*
X999000Y318500D01*
X998000Y305000D01*
X999000Y291500D01*
X1002000Y279500D01*
X1006000Y270500D01*
X1012000Y263000D01*
X1020000Y260000D01*
X1028000Y263000D01*
X1034000Y270500D01*
X1038000Y279500D01*
X1041000Y291500D01*
X1042000Y305000D01*
X1041000Y318500D01*
X1038000Y330500D01*
X1034000Y339500D01*
X1028000Y347000D01*
X1020000Y350000D01*
G01X1102000Y260000D02*
Y350000D01*
X1065000Y285500D01*
X1115000D01*
G01X1160000Y260000D02*
Y350000D01*
X1148000Y332000D01*
G01Y260000D02*
X1172000D01*
G01X1208000Y278000D02*
X1214000Y267500D01*
X1222000Y261500D01*
X1231000Y260000D01*
X1239000Y261500D01*
X1247000Y269000D01*
X1252000Y278000D01*
X1253000Y287000D01*
X1251000Y297500D01*
X1244000Y305000D01*
X1237000Y308000D01*
X1228000D01*
G01X1237000D02*
X1243000Y312500D01*
X1248000Y320000D01*
X1250000Y329000D01*
X1248000Y338000D01*
X1243000Y345500D01*
X1234000Y350000D01*
X1225000Y348500D01*
X1216000Y342500D01*
G01X2168000Y650000D02*
Y740000D01*
X2188000D01*
X2196000Y735500D01*
X2202000Y729500D01*
X2207000Y720500D01*
X2211000Y710000D01*
X2212000Y695000D01*
X2211000Y680000D01*
X2207000Y669500D01*
X2202000Y660500D01*
X2196000Y654500D01*
X2188000Y650000D01*
X2168000D01*
G01X2165000Y4670000D02*
X2190000Y4760000D01*
X2215000Y4670000D01*
G01X2206000Y4701500D02*
X2174000D01*
G01X2436000Y695000D02*
X2456000D01*
Y668000D01*
X2450000Y659000D01*
X2443000Y653000D01*
X2433000Y650000D01*
X2423000Y653000D01*
X2416000Y659000D01*
X2410000Y668000D01*
X2406000Y678500D01*
X2404000Y690500D01*
Y701000D01*
X2406000Y710000D01*
X2410000Y720500D01*
X2416000Y729500D01*
X2422000Y735500D01*
X2430000Y740000D01*
X2437000D01*
X2445000Y737000D01*
X2451000Y731000D01*
G01X2630000Y3135000D02*
X2540000Y3160000D01*
X2630000Y3185000D01*
G01X2598500Y3176000D02*
Y3144000D01*
G01X2547500Y3252000D02*
X2543000Y3246000D01*
X2540000Y3239000D01*
Y3231000D01*
X2544500Y3222000D01*
X2552000Y3215000D01*
X2561000Y3210000D01*
X2576000Y3206000D01*
X2589500Y3205000D01*
X2603000Y3207000D01*
X2612000Y3210000D01*
X2621000Y3216000D01*
X2627000Y3223000D01*
X2630000Y3230000D01*
Y3237000D01*
X2627000Y3244000D01*
X2622500Y3250000D01*
X2616500Y3255000D01*
G01X2540000Y3300000D02*
X2630000D01*
G01X2540000Y3277000D02*
Y3323000D01*
G01X2436000Y4715000D02*
X2456000D01*
Y4688000D01*
X2450000Y4679000D01*
X2443000Y4673000D01*
X2433000Y4670000D01*
X2423000Y4673000D01*
X2416000Y4679000D01*
X2410000Y4688000D01*
X2406000Y4698500D01*
X2404000Y4710500D01*
Y4721000D01*
X2406000Y4730000D01*
X2410000Y4740500D01*
X2416000Y4749500D01*
X2422000Y4755500D01*
X2430000Y4760000D01*
X2437000D01*
X2445000Y4757000D01*
X2451000Y4751000D01*
G01X2655000Y740000D02*
X2680000Y650000D01*
X2705000Y740000D01*
G01X2920000Y650000D02*
Y740000D01*
X2945000D01*
X2953000Y735500D01*
X2958000Y729500D01*
X2960000Y717500D01*
X2958000Y705500D01*
X2952000Y698000D01*
X2945000Y693500D01*
X2920000D01*
G01X2945000D02*
X2960000Y650000D01*
G01X2680000Y3160000D02*
X2770000D01*
G01X2680000Y3137000D02*
Y3183000D01*
G01X2770000Y3209000D02*
X2680000Y3251000D01*
G01Y3209000D02*
X2770000Y3251000D01*
G01X2920000Y3140000D02*
X2830000D01*
Y3165000D01*
X2834500Y3173000D01*
X2840500Y3178000D01*
X2852500Y3180000D01*
X2864500Y3178000D01*
X2872000Y3172000D01*
X2876500Y3165000D01*
Y3140000D01*
G01Y3165000D02*
X2920000Y3180000D01*
G01Y3209000D02*
X2830000Y3251000D01*
G01Y3209000D02*
X2920000Y3251000D01*
G01X2655000Y4760000D02*
X2680000Y4670000D01*
X2705000Y4760000D01*
G01X2920000Y4670000D02*
Y4760000D01*
X2945000D01*
X2953000Y4755500D01*
X2958000Y4749500D01*
X2960000Y4737500D01*
X2958000Y4725500D01*
X2952000Y4718000D01*
X2945000Y4713500D01*
X2920000D01*
G01X2945000D02*
X2960000Y4670000D01*
G01X3190000Y740000D02*
Y650000D01*
G01X3167000Y740000D02*
X3213000D01*
G01X3160000Y1890000D02*
Y1980000D01*
X3184000D01*
X3192000Y1975500D01*
X3198000Y1965000D01*
X3200000Y1953000D01*
X3198000Y1941000D01*
X3193000Y1932000D01*
X3184000Y1927500D01*
X3160000D01*
G01X3250000Y1890000D02*
X3242000Y1891500D01*
X3235000Y1897500D01*
X3229000Y1906500D01*
X3225000Y1917000D01*
X3223000Y1929000D01*
Y1941000D01*
X3225000Y1953000D01*
X3229000Y1963500D01*
X3235000Y1972500D01*
X3242000Y1978500D01*
X3250000Y1980000D01*
X3258000Y1978500D01*
X3265000Y1972500D01*
X3271000Y1963500D01*
X3275000Y1953000D01*
X3277000Y1941000D01*
Y1929000D01*
X3275000Y1917000D01*
X3271000Y1906500D01*
X3265000Y1897500D01*
X3258000Y1891500D01*
X3250000Y1890000D01*
G01X3300000D02*
Y1980000D01*
X3325000D01*
X3333000Y1975500D01*
X3338000Y1969500D01*
X3340000Y1957500D01*
X3338000Y1945500D01*
X3332000Y1938000D01*
X3325000Y1933500D01*
X3300000D01*
G01X3325000D02*
X3340000Y1890000D01*
G01X3390000Y1980000D02*
Y1890000D01*
G01X3367000Y1980000D02*
X3413000D01*
G01X3438000Y1890000D02*
Y1980000D01*
X3458000D01*
X3466000Y1975500D01*
X3472000Y1969500D01*
X3477000Y1960500D01*
X3481000Y1950000D01*
X3482000Y1935000D01*
X3481000Y1920000D01*
X3477000Y1909500D01*
X3472000Y1900500D01*
X3466000Y1894500D01*
X3458000Y1890000D01*
X3438000D01*
G01X3192000Y1760000D02*
Y1850000D01*
X3155000Y1785500D01*
X3205000D01*
G01X3250000Y1760000D02*
X3257000Y1761500D01*
X3265000Y1766000D01*
X3270000Y1773500D01*
X3272000Y1784000D01*
X3270000Y1794500D01*
X3264000Y1803500D01*
X3255000Y1808000D01*
X3245000D01*
X3239000Y1811000D01*
X3234000Y1818500D01*
X3232000Y1829000D01*
X3235000Y1839500D01*
X3242000Y1847000D01*
X3250000Y1850000D01*
X3258000Y1847000D01*
X3265000Y1839500D01*
X3268000Y1829000D01*
X3266000Y1818500D01*
X3261000Y1811000D01*
X3255000Y1808000D01*
X3245000D01*
X3236000Y1803500D01*
X3230000Y1794500D01*
X3228000Y1784000D01*
X3230000Y1773500D01*
X3235000Y1766000D01*
X3243000Y1761500D01*
X3250000Y1760000D01*
G01X3298000Y1773500D02*
X3304000Y1766000D01*
X3311000Y1761500D01*
X3320000Y1760000D01*
X3329000Y1763000D01*
X3336000Y1769000D01*
X3341000Y1779500D01*
X3342000Y1791500D01*
X3340000Y1803500D01*
X3335000Y1811000D01*
X3328000Y1817000D01*
X3321000Y1818500D01*
X3314000Y1817000D01*
X3305000Y1811000D01*
X3308000Y1850000D01*
X3335000D01*
G01X3160000Y2480000D02*
Y2570000D01*
X3184000D01*
X3192000Y2565500D01*
X3198000Y2555000D01*
X3200000Y2543000D01*
X3198000Y2531000D01*
X3193000Y2522000D01*
X3184000Y2517500D01*
X3160000D01*
G01X3250000Y2480000D02*
X3242000Y2481500D01*
X3235000Y2487500D01*
X3229000Y2496500D01*
X3225000Y2507000D01*
X3223000Y2519000D01*
Y2531000D01*
X3225000Y2543000D01*
X3229000Y2553500D01*
X3235000Y2562500D01*
X3242000Y2568500D01*
X3250000Y2570000D01*
X3258000Y2568500D01*
X3265000Y2562500D01*
X3271000Y2553500D01*
X3275000Y2543000D01*
X3277000Y2531000D01*
Y2519000D01*
X3275000Y2507000D01*
X3271000Y2496500D01*
X3265000Y2487500D01*
X3258000Y2481500D01*
X3250000Y2480000D01*
G01X3300000D02*
Y2570000D01*
X3325000D01*
X3333000Y2565500D01*
X3338000Y2559500D01*
X3340000Y2547500D01*
X3338000Y2535500D01*
X3332000Y2528000D01*
X3325000Y2523500D01*
X3300000D01*
G01X3325000D02*
X3340000Y2480000D01*
G01X3390000Y2570000D02*
Y2480000D01*
G01X3367000Y2570000D02*
X3413000D01*
G01X3482000Y2562500D02*
X3476000Y2567000D01*
X3469000Y2570000D01*
X3461000D01*
X3452000Y2565500D01*
X3445000Y2558000D01*
X3440000Y2549000D01*
X3436000Y2534000D01*
X3435000Y2520500D01*
X3437000Y2507000D01*
X3440000Y2498000D01*
X3446000Y2489000D01*
X3453000Y2483000D01*
X3460000Y2480000D01*
X3467000D01*
X3474000Y2483000D01*
X3480000Y2487500D01*
X3485000Y2493500D01*
G01X3192000Y2350000D02*
Y2440000D01*
X3155000Y2375500D01*
X3205000D01*
G01X3231000Y2425000D02*
X3237000Y2434000D01*
X3244000Y2438500D01*
X3252000Y2440000D01*
X3262000Y2437000D01*
X3269000Y2429500D01*
X3271000Y2420500D01*
X3270000Y2411500D01*
X3266000Y2404000D01*
X3246000Y2389000D01*
X3237000Y2378500D01*
X3231000Y2363500D01*
X3229000Y2350000D01*
X3271000D01*
G01X3301000Y2425000D02*
X3307000Y2434000D01*
X3314000Y2438500D01*
X3322000Y2440000D01*
X3332000Y2437000D01*
X3339000Y2429500D01*
X3341000Y2420500D01*
X3340000Y2411500D01*
X3336000Y2404000D01*
X3316000Y2389000D01*
X3307000Y2378500D01*
X3301000Y2363500D01*
X3299000Y2350000D01*
X3341000D01*
G01X3202000Y3012500D02*
X3196000Y3017000D01*
X3189000Y3020000D01*
X3181000D01*
X3172000Y3015500D01*
X3165000Y3008000D01*
X3160000Y2999000D01*
X3156000Y2984000D01*
X3155000Y2970500D01*
X3157000Y2957000D01*
X3160000Y2948000D01*
X3166000Y2939000D01*
X3173000Y2933000D01*
X3180000Y2930000D01*
X3187000D01*
X3194000Y2933000D01*
X3200000Y2937500D01*
X3205000Y2943500D01*
G01X3225000Y2930000D02*
X3250000Y3020000D01*
X3275000Y2930000D01*
G01X3266000Y2961500D02*
X3234000D01*
G01X3297000Y2930000D02*
Y3020000D01*
X3343000Y2930000D01*
Y3020000D01*
G01X3160000Y3060000D02*
Y3150000D01*
X3184000D01*
X3192000Y3145500D01*
X3198000Y3135000D01*
X3200000Y3123000D01*
X3198000Y3111000D01*
X3193000Y3102000D01*
X3184000Y3097500D01*
X3160000D01*
G01X3250000Y3060000D02*
X3242000Y3061500D01*
X3235000Y3067500D01*
X3229000Y3076500D01*
X3225000Y3087000D01*
X3223000Y3099000D01*
Y3111000D01*
X3225000Y3123000D01*
X3229000Y3133500D01*
X3235000Y3142500D01*
X3242000Y3148500D01*
X3250000Y3150000D01*
X3258000Y3148500D01*
X3265000Y3142500D01*
X3271000Y3133500D01*
X3275000Y3123000D01*
X3277000Y3111000D01*
Y3099000D01*
X3275000Y3087000D01*
X3271000Y3076500D01*
X3265000Y3067500D01*
X3258000Y3061500D01*
X3250000Y3060000D01*
G01X3300000D02*
Y3150000D01*
X3325000D01*
X3333000Y3145500D01*
X3338000Y3139500D01*
X3340000Y3127500D01*
X3338000Y3115500D01*
X3332000Y3108000D01*
X3325000Y3103500D01*
X3300000D01*
G01X3325000D02*
X3340000Y3060000D01*
G01X3390000Y3150000D02*
Y3060000D01*
G01X3367000Y3150000D02*
X3413000D01*
G01X3435000Y3060000D02*
X3460000Y3150000D01*
X3485000Y3060000D01*
G01X3476000Y3091500D02*
X3444000D01*
G01X3160000Y3650000D02*
Y3740000D01*
X3184000D01*
X3192000Y3735500D01*
X3198000Y3725000D01*
X3200000Y3713000D01*
X3198000Y3701000D01*
X3193000Y3692000D01*
X3184000Y3687500D01*
X3160000D01*
G01X3250000Y3650000D02*
X3242000Y3651500D01*
X3235000Y3657500D01*
X3229000Y3666500D01*
X3225000Y3677000D01*
X3223000Y3689000D01*
Y3701000D01*
X3225000Y3713000D01*
X3229000Y3723500D01*
X3235000Y3732500D01*
X3242000Y3738500D01*
X3250000Y3740000D01*
X3258000Y3738500D01*
X3265000Y3732500D01*
X3271000Y3723500D01*
X3275000Y3713000D01*
X3277000Y3701000D01*
Y3689000D01*
X3275000Y3677000D01*
X3271000Y3666500D01*
X3265000Y3657500D01*
X3258000Y3651500D01*
X3250000Y3650000D01*
G01X3300000D02*
Y3740000D01*
X3325000D01*
X3333000Y3735500D01*
X3338000Y3729500D01*
X3340000Y3717500D01*
X3338000Y3705500D01*
X3332000Y3698000D01*
X3325000Y3693500D01*
X3300000D01*
G01X3325000D02*
X3340000Y3650000D01*
G01X3390000Y3740000D02*
Y3650000D01*
G01X3367000Y3740000D02*
X3413000D01*
G01X3468000Y3698000D02*
X3472000Y3702500D01*
X3475000Y3710000D01*
X3477000Y3720500D01*
X3475000Y3729500D01*
X3471000Y3735500D01*
X3464000Y3740000D01*
X3437000D01*
Y3650000D01*
X3470000D01*
X3477000Y3656000D01*
X3481000Y3665000D01*
X3483000Y3675500D01*
X3481000Y3686000D01*
X3475000Y3695000D01*
X3468000Y3698000D01*
X3437000D01*
G01X3161000Y3595000D02*
X3167000Y3604000D01*
X3174000Y3608500D01*
X3182000Y3610000D01*
X3192000Y3607000D01*
X3199000Y3599500D01*
X3201000Y3590500D01*
X3200000Y3581500D01*
X3196000Y3574000D01*
X3176000Y3559000D01*
X3167000Y3548500D01*
X3161000Y3533500D01*
X3159000Y3520000D01*
X3201000D01*
G01X3228000Y3538000D02*
X3234000Y3527500D01*
X3242000Y3521500D01*
X3251000Y3520000D01*
X3259000Y3521500D01*
X3267000Y3529000D01*
X3272000Y3538000D01*
X3273000Y3547000D01*
X3271000Y3557500D01*
X3264000Y3565000D01*
X3257000Y3568000D01*
X3248000D01*
G01X3257000D02*
X3263000Y3572500D01*
X3268000Y3580000D01*
X3270000Y3589000D01*
X3268000Y3598000D01*
X3263000Y3605500D01*
X3254000Y3610000D01*
X3245000Y3608500D01*
X3236000Y3602500D01*
G01X3301000Y3595000D02*
X3307000Y3604000D01*
X3314000Y3608500D01*
X3322000Y3610000D01*
X3332000Y3607000D01*
X3339000Y3599500D01*
X3341000Y3590500D01*
X3340000Y3581500D01*
X3336000Y3574000D01*
X3316000Y3559000D01*
X3307000Y3548500D01*
X3301000Y3533500D01*
X3299000Y3520000D01*
X3341000D01*
G01X3190000Y4760000D02*
Y4670000D01*
G01X3167000Y4760000D02*
X3213000D01*
G01X3822000Y732500D02*
X3816000Y737000D01*
X3809000Y740000D01*
X3801000D01*
X3792000Y735500D01*
X3785000Y728000D01*
X3780000Y719000D01*
X3776000Y704000D01*
X3775000Y690500D01*
X3777000Y677000D01*
X3780000Y668000D01*
X3786000Y659000D01*
X3793000Y653000D01*
X3800000Y650000D01*
X3807000D01*
X3814000Y653000D01*
X3820000Y657500D01*
X3825000Y663500D01*
G01X4046000Y695000D02*
X4066000D01*
Y668000D01*
X4060000Y659000D01*
X4053000Y653000D01*
X4043000Y650000D01*
X4033000Y653000D01*
X4026000Y659000D01*
X4020000Y668000D01*
X4016000Y678500D01*
X4014000Y690500D01*
Y701000D01*
X4016000Y710000D01*
X4020000Y720500D01*
X4026000Y729500D01*
X4032000Y735500D01*
X4040000Y740000D01*
X4047000D01*
X4055000Y737000D01*
X4061000Y731000D01*
G01X3808000Y4718000D02*
X3812000Y4722500D01*
X3815000Y4730000D01*
X3817000Y4740500D01*
X3815000Y4749500D01*
X3811000Y4755500D01*
X3804000Y4760000D01*
X3777000D01*
Y4670000D01*
X3810000D01*
X3817000Y4676000D01*
X3821000Y4685000D01*
X3823000Y4695500D01*
X3821000Y4706000D01*
X3815000Y4715000D01*
X3808000Y4718000D01*
X3777000D01*
G01X4046000Y4715000D02*
X4066000D01*
Y4688000D01*
X4060000Y4679000D01*
X4053000Y4673000D01*
X4043000Y4670000D01*
X4033000Y4673000D01*
X4026000Y4679000D01*
X4020000Y4688000D01*
X4016000Y4698500D01*
X4014000Y4710500D01*
Y4721000D01*
X4016000Y4730000D01*
X4020000Y4740500D01*
X4026000Y4749500D01*
X4032000Y4755500D01*
X4040000Y4760000D01*
X4047000D01*
X4055000Y4757000D01*
X4061000Y4751000D01*
G01X4265000Y740000D02*
X4290000Y650000D01*
X4315000Y740000D01*
G01X4265000Y4760000D02*
X4290000Y4670000D01*
X4315000Y4760000D01*
G01X4530000Y650000D02*
Y740000D01*
X4555000D01*
X4563000Y735500D01*
X4568000Y729500D01*
X4570000Y717500D01*
X4568000Y705500D01*
X4562000Y698000D01*
X4555000Y693500D01*
X4530000D01*
G01X4555000D02*
X4570000Y650000D01*
G01X4710000Y1730000D02*
Y1820000D01*
X4735000D01*
X4743000Y1815500D01*
X4748000Y1809500D01*
X4750000Y1797500D01*
X4748000Y1785500D01*
X4742000Y1778000D01*
X4735000Y1773500D01*
X4710000D01*
G01X4735000D02*
X4750000Y1730000D01*
G01X4730000Y2070000D02*
Y1980000D01*
G01X4707000Y2070000D02*
X4753000D01*
G01X4710000Y2310000D02*
Y2400000D01*
X4735000D01*
X4743000Y2395500D01*
X4748000Y2389500D01*
X4750000Y2377500D01*
X4748000Y2365500D01*
X4742000Y2358000D01*
X4735000Y2353500D01*
X4710000D01*
G01X4735000D02*
X4750000Y2310000D01*
G01X4730000Y2650000D02*
Y2560000D01*
G01X4707000Y2650000D02*
X4753000D01*
G01X4710000Y2890000D02*
Y2980000D01*
X4735000D01*
X4743000Y2975500D01*
X4748000Y2969500D01*
X4750000Y2957500D01*
X4748000Y2945500D01*
X4742000Y2938000D01*
X4735000Y2933500D01*
X4710000D01*
G01X4735000D02*
X4750000Y2890000D01*
G01X4730000Y3230000D02*
Y3140000D01*
G01X4707000Y3230000D02*
X4753000D01*
G01X4710000Y3460000D02*
Y3550000D01*
X4735000D01*
X4743000Y3545500D01*
X4748000Y3539500D01*
X4750000Y3527500D01*
X4748000Y3515500D01*
X4742000Y3508000D01*
X4735000Y3503500D01*
X4710000D01*
G01X4735000D02*
X4750000Y3460000D01*
G01X4730000Y3800000D02*
Y3710000D01*
G01X4707000Y3800000D02*
X4753000D01*
G01X4530000Y4670000D02*
Y4760000D01*
X4555000D01*
X4563000Y4755500D01*
X4568000Y4749500D01*
X4570000Y4737500D01*
X4568000Y4725500D01*
X4562000Y4718000D01*
X4555000Y4713500D01*
X4530000D01*
G01X4555000D02*
X4570000Y4670000D01*
G01X4800000Y740000D02*
Y650000D01*
G01X4777000Y740000D02*
X4823000D01*
G01X4800000Y4760000D02*
Y4670000D01*
G01X4777000Y4760000D02*
X4823000D01*
G01X7192000Y1150000D02*
Y1240000D01*
X7155000Y1175500D01*
X7205000D01*
G01X7250000Y1150000D02*
X7257000Y1151500D01*
X7265000Y1156000D01*
X7270000Y1163500D01*
X7272000Y1174000D01*
X7270000Y1184500D01*
X7264000Y1193500D01*
X7255000Y1198000D01*
X7245000D01*
X7239000Y1201000D01*
X7234000Y1208500D01*
X7232000Y1219000D01*
X7235000Y1229500D01*
X7242000Y1237000D01*
X7250000Y1240000D01*
X7258000Y1237000D01*
X7265000Y1229500D01*
X7268000Y1219000D01*
X7266000Y1208500D01*
X7261000Y1201000D01*
X7255000Y1198000D01*
X7245000D01*
X7236000Y1193500D01*
X7230000Y1184500D01*
X7228000Y1174000D01*
X7230000Y1163500D01*
X7235000Y1156000D01*
X7243000Y1151500D01*
X7250000Y1150000D01*
G01X7298000Y1163500D02*
X7304000Y1156000D01*
X7311000Y1151500D01*
X7320000Y1150000D01*
X7329000Y1153000D01*
X7336000Y1159000D01*
X7341000Y1169500D01*
X7342000Y1181500D01*
X7340000Y1193500D01*
X7335000Y1201000D01*
X7328000Y1207000D01*
X7321000Y1208500D01*
X7314000Y1207000D01*
X7305000Y1201000D01*
X7308000Y1240000D01*
X7335000D01*
G01X7365000Y1150000D02*
X7390000Y1240000D01*
X7415000Y1150000D01*
G01X7406000Y1181500D02*
X7374000D01*
G01X7192000Y1390000D02*
Y1480000D01*
X7155000Y1415500D01*
X7205000D01*
G01X7250000Y1390000D02*
X7257000Y1391500D01*
X7265000Y1396000D01*
X7270000Y1403500D01*
X7272000Y1414000D01*
X7270000Y1424500D01*
X7264000Y1433500D01*
X7255000Y1438000D01*
X7245000D01*
X7239000Y1441000D01*
X7234000Y1448500D01*
X7232000Y1459000D01*
X7235000Y1469500D01*
X7242000Y1477000D01*
X7250000Y1480000D01*
X7258000Y1477000D01*
X7265000Y1469500D01*
X7268000Y1459000D01*
X7266000Y1448500D01*
X7261000Y1441000D01*
X7255000Y1438000D01*
X7245000D01*
X7236000Y1433500D01*
X7230000Y1424500D01*
X7228000Y1414000D01*
X7230000Y1403500D01*
X7235000Y1396000D01*
X7243000Y1391500D01*
X7250000Y1390000D01*
G01X7298000Y1403500D02*
X7304000Y1396000D01*
X7311000Y1391500D01*
X7320000Y1390000D01*
X7329000Y1393000D01*
X7336000Y1399000D01*
X7341000Y1409500D01*
X7342000Y1421500D01*
X7340000Y1433500D01*
X7335000Y1441000D01*
X7328000Y1447000D01*
X7321000Y1448500D01*
X7314000Y1447000D01*
X7305000Y1441000D01*
X7308000Y1480000D01*
X7335000D01*
G01X7398000Y1438000D02*
X7402000Y1442500D01*
X7405000Y1450000D01*
X7407000Y1460500D01*
X7405000Y1469500D01*
X7401000Y1475500D01*
X7394000Y1480000D01*
X7367000D01*
Y1390000D01*
X7400000D01*
X7407000Y1396000D01*
X7411000Y1405000D01*
X7413000Y1415500D01*
X7411000Y1426000D01*
X7405000Y1435000D01*
X7398000Y1438000D01*
X7367000D01*
G01X7192000Y1900000D02*
Y1990000D01*
X7155000Y1925500D01*
X7205000D01*
G01X7231000Y1975000D02*
X7237000Y1984000D01*
X7244000Y1988500D01*
X7252000Y1990000D01*
X7262000Y1987000D01*
X7269000Y1979500D01*
X7271000Y1970500D01*
X7270000Y1961500D01*
X7266000Y1954000D01*
X7246000Y1939000D01*
X7237000Y1928500D01*
X7231000Y1913500D01*
X7229000Y1900000D01*
X7271000D01*
G01X7301000Y1975000D02*
X7307000Y1984000D01*
X7314000Y1988500D01*
X7322000Y1990000D01*
X7332000Y1987000D01*
X7339000Y1979500D01*
X7341000Y1970500D01*
X7340000Y1961500D01*
X7336000Y1954000D01*
X7316000Y1939000D01*
X7307000Y1928500D01*
X7301000Y1913500D01*
X7299000Y1900000D01*
X7341000D01*
G01X7371000Y1990000D02*
X7409000D01*
X7371000Y1900000D01*
X7409000D01*
G01X7192000Y1650000D02*
Y1740000D01*
X7155000Y1675500D01*
X7205000D01*
G01X7231000Y1725000D02*
X7237000Y1734000D01*
X7244000Y1738500D01*
X7252000Y1740000D01*
X7262000Y1737000D01*
X7269000Y1729500D01*
X7271000Y1720500D01*
X7270000Y1711500D01*
X7266000Y1704000D01*
X7246000Y1689000D01*
X7237000Y1678500D01*
X7231000Y1663500D01*
X7229000Y1650000D01*
X7271000D01*
G01X7301000Y1725000D02*
X7307000Y1734000D01*
X7314000Y1738500D01*
X7322000Y1740000D01*
X7332000Y1737000D01*
X7339000Y1729500D01*
X7341000Y1720500D01*
X7340000Y1711500D01*
X7336000Y1704000D01*
X7316000Y1689000D01*
X7307000Y1678500D01*
X7301000Y1663500D01*
X7299000Y1650000D01*
X7341000D01*
G01X7390000D02*
Y1690500D01*
X7370000Y1740000D01*
G01X7410000D02*
X7390000Y1690500D01*
G01X7182000Y2150000D02*
Y2240000D01*
X7145000Y2175500D01*
X7195000D01*
G01X7221000Y2225000D02*
X7227000Y2234000D01*
X7234000Y2238500D01*
X7242000Y2240000D01*
X7252000Y2237000D01*
X7259000Y2229500D01*
X7261000Y2220500D01*
X7260000Y2211500D01*
X7256000Y2204000D01*
X7236000Y2189000D01*
X7227000Y2178500D01*
X7221000Y2163500D01*
X7219000Y2150000D01*
X7261000D01*
G01X7291000Y2225000D02*
X7297000Y2234000D01*
X7304000Y2238500D01*
X7312000Y2240000D01*
X7322000Y2237000D01*
X7329000Y2229500D01*
X7331000Y2220500D01*
X7330000Y2211500D01*
X7326000Y2204000D01*
X7306000Y2189000D01*
X7297000Y2178500D01*
X7291000Y2163500D01*
X7289000Y2150000D01*
X7331000D01*
G01X7388000Y2198000D02*
X7392000Y2202500D01*
X7395000Y2210000D01*
X7397000Y2220500D01*
X7395000Y2229500D01*
X7391000Y2235500D01*
X7384000Y2240000D01*
X7357000D01*
Y2150000D01*
X7390000D01*
X7397000Y2156000D01*
X7401000Y2165000D01*
X7403000Y2175500D01*
X7401000Y2186000D01*
X7395000Y2195000D01*
X7388000Y2198000D01*
X7357000D01*
G01X7182000Y2400000D02*
Y2490000D01*
X7145000Y2425500D01*
X7195000D01*
G01X7221000Y2475000D02*
X7227000Y2484000D01*
X7234000Y2488500D01*
X7242000Y2490000D01*
X7252000Y2487000D01*
X7259000Y2479500D01*
X7261000Y2470500D01*
X7260000Y2461500D01*
X7256000Y2454000D01*
X7236000Y2439000D01*
X7227000Y2428500D01*
X7221000Y2413500D01*
X7219000Y2400000D01*
X7261000D01*
G01X7291000Y2475000D02*
X7297000Y2484000D01*
X7304000Y2488500D01*
X7312000Y2490000D01*
X7322000Y2487000D01*
X7329000Y2479500D01*
X7331000Y2470500D01*
X7330000Y2461500D01*
X7326000Y2454000D01*
X7306000Y2439000D01*
X7297000Y2428500D01*
X7291000Y2413500D01*
X7289000Y2400000D01*
X7331000D01*
G01X7355000D02*
X7380000Y2490000D01*
X7405000Y2400000D01*
G01X7396000Y2431500D02*
X7364000D01*
G01X7202000Y2982500D02*
X7196000Y2987000D01*
X7189000Y2990000D01*
X7181000D01*
X7172000Y2985500D01*
X7165000Y2978000D01*
X7160000Y2969000D01*
X7156000Y2954000D01*
X7155000Y2940500D01*
X7157000Y2927000D01*
X7160000Y2918000D01*
X7166000Y2909000D01*
X7173000Y2903000D01*
X7180000Y2900000D01*
X7187000D01*
X7194000Y2903000D01*
X7200000Y2907500D01*
X7205000Y2913500D01*
G01X7225000Y2900000D02*
X7250000Y2990000D01*
X7275000Y2900000D01*
G01X7266000Y2931500D02*
X7234000D01*
G01X7297000Y2900000D02*
Y2990000D01*
X7343000Y2900000D01*
Y2990000D01*
G01X7370000D02*
Y2900000D01*
X7410000D01*
G01X7202000Y3222500D02*
X7196000Y3227000D01*
X7189000Y3230000D01*
X7181000D01*
X7172000Y3225500D01*
X7165000Y3218000D01*
X7160000Y3209000D01*
X7156000Y3194000D01*
X7155000Y3180500D01*
X7157000Y3167000D01*
X7160000Y3158000D01*
X7166000Y3149000D01*
X7173000Y3143000D01*
X7180000Y3140000D01*
X7187000D01*
X7194000Y3143000D01*
X7200000Y3147500D01*
X7205000Y3153500D01*
G01X7225000Y3140000D02*
X7250000Y3230000D01*
X7275000Y3140000D01*
G01X7266000Y3171500D02*
X7234000D01*
G01X7297000Y3140000D02*
Y3230000D01*
X7343000Y3140000D01*
Y3230000D01*
G01X7369000Y3140000D02*
Y3230000D01*
G01X7411000D02*
Y3140000D01*
G01Y3185000D02*
X7369000D01*
G01X7186000Y3695000D02*
X7206000D01*
Y3668000D01*
X7200000Y3659000D01*
X7193000Y3653000D01*
X7183000Y3650000D01*
X7173000Y3653000D01*
X7166000Y3659000D01*
X7160000Y3668000D01*
X7156000Y3678500D01*
X7154000Y3690500D01*
Y3701000D01*
X7156000Y3710000D01*
X7160000Y3720500D01*
X7166000Y3729500D01*
X7172000Y3735500D01*
X7180000Y3740000D01*
X7187000D01*
X7195000Y3737000D01*
X7201000Y3731000D01*
G01X7227000Y3650000D02*
Y3740000D01*
X7273000Y3650000D01*
Y3740000D01*
G01X7298000Y3650000D02*
Y3740000D01*
X7318000D01*
X7326000Y3735500D01*
X7332000Y3729500D01*
X7337000Y3720500D01*
X7341000Y3710000D01*
X7342000Y3695000D01*
X7341000Y3680000D01*
X7337000Y3669500D01*
X7332000Y3660500D01*
X7326000Y3654500D01*
X7318000Y3650000D01*
X7298000D01*
G01X7186000Y3445000D02*
X7206000D01*
Y3418000D01*
X7200000Y3409000D01*
X7193000Y3403000D01*
X7183000Y3400000D01*
X7173000Y3403000D01*
X7166000Y3409000D01*
X7160000Y3418000D01*
X7156000Y3428500D01*
X7154000Y3440500D01*
Y3451000D01*
X7156000Y3460000D01*
X7160000Y3470500D01*
X7166000Y3479500D01*
X7172000Y3485500D01*
X7180000Y3490000D01*
X7187000D01*
X7195000Y3487000D01*
X7201000Y3481000D01*
G01X7227000Y3400000D02*
Y3490000D01*
X7273000Y3400000D01*
Y3490000D01*
G01X7298000Y3400000D02*
Y3490000D01*
X7318000D01*
X7326000Y3485500D01*
X7332000Y3479500D01*
X7337000Y3470500D01*
X7341000Y3460000D01*
X7342000Y3445000D01*
X7341000Y3430000D01*
X7337000Y3419500D01*
X7332000Y3410500D01*
X7326000Y3404500D01*
X7318000Y3400000D01*
X7298000D01*
G01X7151000Y3975000D02*
X7157000Y3984000D01*
X7164000Y3988500D01*
X7172000Y3990000D01*
X7182000Y3987000D01*
X7189000Y3979500D01*
X7191000Y3970500D01*
X7190000Y3961500D01*
X7186000Y3954000D01*
X7166000Y3939000D01*
X7157000Y3928500D01*
X7151000Y3913500D01*
X7149000Y3900000D01*
X7191000D01*
G01X7218000Y3918000D02*
X7224000Y3907500D01*
X7232000Y3901500D01*
X7241000Y3900000D01*
X7249000Y3901500D01*
X7257000Y3909000D01*
X7262000Y3918000D01*
X7263000Y3927000D01*
X7261000Y3937500D01*
X7254000Y3945000D01*
X7247000Y3948000D01*
X7238000D01*
G01X7247000D02*
X7253000Y3952500D01*
X7258000Y3960000D01*
X7260000Y3969000D01*
X7258000Y3978000D01*
X7253000Y3985500D01*
X7244000Y3990000D01*
X7235000Y3988500D01*
X7226000Y3982500D01*
G01X7291000Y3975000D02*
X7297000Y3984000D01*
X7304000Y3988500D01*
X7312000Y3990000D01*
X7322000Y3987000D01*
X7329000Y3979500D01*
X7331000Y3970500D01*
X7330000Y3961500D01*
X7326000Y3954000D01*
X7306000Y3939000D01*
X7297000Y3928500D01*
X7291000Y3913500D01*
X7289000Y3900000D01*
X7331000D01*
G01X7380000Y3990000D02*
Y3900000D01*
G01X7357000Y3990000D02*
X7403000D01*
G01X7151000Y4225000D02*
X7157000Y4234000D01*
X7164000Y4238500D01*
X7172000Y4240000D01*
X7182000Y4237000D01*
X7189000Y4229500D01*
X7191000Y4220500D01*
X7190000Y4211500D01*
X7186000Y4204000D01*
X7166000Y4189000D01*
X7157000Y4178500D01*
X7151000Y4163500D01*
X7149000Y4150000D01*
X7191000D01*
G01X7218000Y4168000D02*
X7224000Y4157500D01*
X7232000Y4151500D01*
X7241000Y4150000D01*
X7249000Y4151500D01*
X7257000Y4159000D01*
X7262000Y4168000D01*
X7263000Y4177000D01*
X7261000Y4187500D01*
X7254000Y4195000D01*
X7247000Y4198000D01*
X7238000D01*
G01X7247000D02*
X7253000Y4202500D01*
X7258000Y4210000D01*
X7260000Y4219000D01*
X7258000Y4228000D01*
X7253000Y4235500D01*
X7244000Y4240000D01*
X7235000Y4238500D01*
X7226000Y4232500D01*
G01X7291000Y4225000D02*
X7297000Y4234000D01*
X7304000Y4238500D01*
X7312000Y4240000D01*
X7322000Y4237000D01*
X7329000Y4229500D01*
X7331000Y4220500D01*
X7330000Y4211500D01*
X7326000Y4204000D01*
X7306000Y4189000D01*
X7297000Y4178500D01*
X7291000Y4163500D01*
X7289000Y4150000D01*
X7331000D01*
G01X7360000D02*
Y4240000D01*
X7385000D01*
X7393000Y4235500D01*
X7398000Y4229500D01*
X7400000Y4217500D01*
X7398000Y4205500D01*
X7392000Y4198000D01*
X7385000Y4193500D01*
X7360000D01*
G01X7385000D02*
X7400000Y4150000D01*
M02*
