G04 ================== begin FILE IDENTIFICATION RECORD ==================*
G04 Layout Name:  CH344Q_V10_240413.brd*
G04 Film Name:    SolderMask_Top*
G04 File Format:  Gerber RS274X*
G04 File Origin:  Cadence Allegro 23.1-S003*
G04 Origin Date:  Sat Apr 20 11:21:09 2024*
G04 *
G04 Layer:  PIN/SOLDERMASK_TOP*
G04 Layer:  PACKAGE GEOMETRY/SOLDERMASK_TOP*
G04 Layer:  BOARD GEOMETRY/SOLDERMASK_TOP*
G04 *
G04 Offset:    (0.0000 0.0000)*
G04 Mirror:    No*
G04 Mode:      Positive*
G04 Rotation:  0*
G04 FullContactRelief:  No*
G04 UndefLineWidth:     0.1524*
G04 ================== end FILE IDENTIFICATION RECORD ====================*
%FSLAX55Y55*MOMM*%
%IR0*IPPOS*OFA0.00000B0.00000*MIA0B0*SFA1.00000B1.00000*%
%ADD17R,1.3X.4*%
%ADD31R,1.1X.7*%
%ADD24R,.4X1.3*%
%ADD16R,1.3X.7*%
%ADD27R,1.3X.8*%
%ADD29R,1.6X.7*%
%ADD12R,.9X.9*%
%ADD15O,2.2X1.1*%
%ADD30R,1.3X1.1*%
%ADD11O,1.7X1.1*%
%ADD23R,1.1X2.6*%
%ADD22R,1.5X1.3*%
%ADD32C,2.*%
%ADD20R,.7X.5*%
%ADD19R,.6X.7*%
%ADD18C,1.4*%
%ADD13R,.7X.6*%
%ADD14C,3.4*%
%ADD10C,7.*%
%ADD28R,2.X2.*%
%ADD26C,1.9*%
%ADD21R,1.4X1.4*%
%ADD25R,1.9X1.9*%
%LPD*%
G75*
G54D10*
X360000Y360000D03*
Y5040000D03*
X1060000D03*
X7440000D03*
X8140000Y360000D03*
Y5040000D03*
G54D20*
X1120000Y3384800D03*
X1340000D03*
G54D11*
X258000Y2238000D03*
Y3102000D03*
G54D21*
X1500000Y1295000D03*
G54D30*
X5910000Y1098400D03*
Y1301600D03*
Y2191600D03*
Y1988400D03*
Y2358400D03*
Y2561600D03*
X6490000Y3148400D03*
Y3351600D03*
G54D12*
X130000Y3303800D03*
Y3456200D03*
X2260000Y1783800D03*
Y1936200D03*
X2580000Y2851320D03*
Y3003720D03*
X2920000Y1783800D03*
Y1936200D03*
X2730000Y2851320D03*
X2880000D03*
X2730000Y3003720D03*
X2880000D03*
X3789700Y1760000D03*
X3942100D03*
X3789700Y2010000D03*
X3942100D03*
X3789700Y2350000D03*
X3942100D03*
X3789700Y2600000D03*
X3942100D03*
X3789700Y2930000D03*
X3942100D03*
X3789700Y3180000D03*
X3942100D03*
X3789700Y3510000D03*
X3942100D03*
X3789700Y3760000D03*
X3942100D03*
G54D13*
X270000Y3285000D03*
X520000D03*
X400000D03*
X270000Y3375000D03*
X520000D03*
X400000D03*
X1120000Y3319800D03*
Y3449800D03*
X1570000Y2605000D03*
Y2695000D03*
X1340000Y3449800D03*
Y3319800D03*
X1770000Y2605000D03*
X1960000D03*
X1770000Y2695000D03*
X1960000D03*
X1690000Y4005000D03*
Y4095000D03*
X2200000Y2605000D03*
X2080000D03*
X2200000Y2695000D03*
X2080000D03*
X2580000Y2715000D03*
Y2625000D03*
X2730000Y2715000D03*
Y2625000D03*
X2880000Y2715000D03*
Y2625000D03*
G54D22*
X1550000Y2255000D03*
Y2445000D03*
X1790000Y2255000D03*
Y2445000D03*
G54D31*
X6050000Y3150000D03*
Y3350000D03*
X6282000Y1100000D03*
X6522000Y1200000D03*
X6282000Y1300000D03*
X6520000Y2190000D03*
Y1990000D03*
X6280000Y2090000D03*
X6520000Y2560000D03*
Y2360000D03*
X6280000Y2460000D03*
X6290000Y3250000D03*
X6320000Y3960000D03*
Y4160000D03*
X6560000Y4060000D03*
G54D14*
X1029000Y818000D03*
Y2022000D03*
G54D32*
X7610000Y1428400D03*
Y1936400D03*
Y1682400D03*
Y2190400D03*
Y2444400D03*
Y3194000D03*
Y3702000D03*
Y3448000D03*
Y3956000D03*
Y4210000D03*
G54D23*
X1780000Y1860000D03*
X2080000D03*
X6710000Y1060000D03*
Y1400000D03*
Y1780000D03*
Y2110000D03*
Y2440000D03*
Y2770000D03*
X6730000Y3950000D03*
Y4280000D03*
X7010000Y1060000D03*
Y1400000D03*
Y1780000D03*
Y2110000D03*
Y2440000D03*
Y2770000D03*
X7030000Y3950000D03*
Y4280000D03*
G54D15*
X676000Y2238000D03*
Y3102000D03*
G54D24*
X1924990Y2959800D03*
X1875010D03*
X1824990D03*
X1775010D03*
X1724990D03*
Y3809800D03*
X1775010D03*
X1824990D03*
X1875010D03*
X1924990D03*
X2275010Y2959800D03*
X2224990D03*
X2175010D03*
X2124990D03*
X2075010D03*
X2024990D03*
X1975010D03*
Y3809800D03*
X2024990D03*
X2075010D03*
X2124990D03*
X2175010D03*
X2224990D03*
X2275010D03*
G54D25*
X2430000Y1030000D03*
Y4370000D03*
X4040000Y1030000D03*
Y4370000D03*
X7610000Y1174400D03*
Y2940000D03*
G54D16*
X780000Y2350000D03*
Y2430000D03*
Y2910000D03*
Y2990000D03*
G54D26*
X2684000Y1030000D03*
Y4370000D03*
X2938000Y1030000D03*
Y4370000D03*
X3192000Y1030000D03*
Y4370000D03*
X4294000Y1030000D03*
X4280000Y1760300D03*
Y2346000D03*
Y2926000D03*
Y3506000D03*
X4294000Y4370000D03*
X4802000Y1030000D03*
X4548000D03*
X4534000Y1760300D03*
Y2014300D03*
Y2346000D03*
Y2600000D03*
Y2926000D03*
Y3180000D03*
Y3506000D03*
Y3760000D03*
X4802000Y4370000D03*
X4548000D03*
G54D17*
X780000Y2495000D03*
Y2545000D03*
Y2595000D03*
Y2645000D03*
Y2695000D03*
Y2745000D03*
Y2795000D03*
Y2845000D03*
X1575000Y3109790D03*
Y3159810D03*
Y3209790D03*
Y3259810D03*
Y3309790D03*
Y3359810D03*
Y3409790D03*
Y3459810D03*
Y3509790D03*
Y3559810D03*
Y3609790D03*
Y3659810D03*
X2425000Y3259810D03*
Y3209790D03*
Y3159810D03*
Y3109790D03*
Y3609790D03*
Y3559810D03*
Y3509790D03*
Y3459810D03*
Y3409790D03*
Y3359810D03*
Y3309790D03*
Y3659810D03*
G54D18*
X1300000Y1295000D03*
Y1545000D03*
X1500000D03*
G54D27*
X2490000Y1765000D03*
Y1860000D03*
Y1955000D03*
X2750000Y1765000D03*
Y1955000D03*
G54D28*
X4280000Y2014300D03*
Y2600000D03*
Y3180000D03*
Y3760000D03*
G54D19*
X1225000Y3050000D03*
Y3180000D03*
X1315000Y3050000D03*
Y3180000D03*
X2605000Y3690000D03*
X2695000D03*
X3655000Y1760000D03*
X3565000D03*
X3655000Y2010000D03*
X3565000D03*
X3655000Y2600000D03*
X3565000D03*
X3655000Y2350000D03*
X3565000D03*
X3655000Y2930000D03*
X3565000D03*
X3655000Y3180000D03*
X3565000D03*
X3655000Y3510000D03*
X3565000D03*
X3655000Y3760000D03*
X3565000D03*
X4955000Y1270000D03*
X4865000D03*
X4845000Y2470000D03*
X4935000D03*
X4985000Y3240000D03*
X5075000D03*
X4985000Y3680000D03*
X5075000D03*
X6065000Y1090000D03*
X6155000D03*
X5955000Y1460000D03*
X5865000D03*
X6155000Y1310000D03*
X6065000D03*
X6155000Y2200000D03*
X6065000D03*
Y1980000D03*
X6155000D03*
Y2350000D03*
X6065000D03*
Y2560000D03*
X6155000D03*
X6065000Y3490000D03*
X6155000D03*
X6065000Y3680000D03*
X6155000D03*
Y3800000D03*
X6065000D03*
Y4060000D03*
X6155000D03*
Y4310000D03*
X6065000D03*
G54D29*
X5160000Y1009000D03*
Y1136000D03*
Y1263000D03*
Y1390000D03*
Y2089000D03*
Y2216000D03*
Y2343000D03*
Y2470000D03*
X5290000Y3109000D03*
Y3236000D03*
Y3363000D03*
Y3490000D03*
X5270000Y3675580D03*
Y3802580D03*
Y3929580D03*
Y4056580D03*
Y4183580D03*
Y4310580D03*
Y4437580D03*
Y4564580D03*
X5700000Y1136000D03*
Y1009000D03*
Y1390000D03*
Y1263000D03*
Y2216000D03*
Y2089000D03*
Y2470000D03*
Y2343000D03*
X5830000Y3236000D03*
Y3109000D03*
Y3490000D03*
Y3363000D03*
X5850000Y3929580D03*
Y3802580D03*
Y3675580D03*
Y4310580D03*
Y4183580D03*
Y4056580D03*
Y4564580D03*
Y4437580D03*
M02*
