G04 ================== begin FILE IDENTIFICATION RECORD ==================*
G04 Layout Name:  HY_IP5389_V10_250411.brd*
G04 Film Name:    BOTTOM*
G04 File Format:  Gerber RS274X*
G04 File Origin:  Cadence Allegro 23.1-S006*
G04 Origin Date:  Tue Apr 15 11:16:34 2025*
G04 *
G04 Layer:  ETCH/BOTTOM*
G04 Layer:  PIN/BOTTOM*
G04 Layer:  VIA CLASS/BOTTOM*
G04 *
G04 Offset:    (0.0000 0.0000)*
G04 Mirror:    No*
G04 Mode:      Positive*
G04 Rotation:  0*
G04 FullContactRelief:  No*
G04 UndefLineWidth:     0.1524*
G04 ================== end FILE IDENTIFICATION RECORD ====================*
%FSLAX55Y55*MOMM*%
%IR0*IPPOS*OFA0.00000B0.00000*MIA0B0*SFA1.00000B1.00000*%
%ADD13C,.762*%
%ADD10C,.6096*%
%ADD11O,1.X2.1*%
%ADD12O,1.X1.6*%
%ADD18O,1.5X3.2*%
%ADD16C,2.2*%
%ADD14C,1.3*%
%ADD17C,2.3*%
%ADD19C,4.2*%
%ADD15C,1.65*%
%ADD20C,.2032*%
%ADD21C,.254*%
%ADD22C,.8004*%
%ADD25C,2.2148*%
%ADD24C,3.2148*%
%ADD23C,5.1148*%
G75*
%LPD*%
G75*
G36*
G01X6128780Y8740000D02*
X11900000D01*
Y7510000D01*
X13140000D01*
Y4460000D01*
X60000D01*
Y7540000D01*
X1290000D01*
Y8740000D01*
X5791220D01*
G02X5804820Y8704590I-6J-20319D01*
G03X5784980Y8660000I40188J-44590D01*
G03X5905020I60020J0D01*
G03X5885180Y8704590I-60028J0D01*
G02X5898780Y8740000I13606J15091D01*
G01X6021220D01*
G02X6034820Y8704590I-6J-20319D01*
G03X6014980Y8660000I40188J-44590D01*
G03X6135020I60020J0D01*
G03X6115180Y8704590I-60028J0D01*
G02X6128780Y8740000I13606J15091D01*
G37*
%LPC*%
G75*
G36*
G01X2480000Y5865900D02*
X3198190D01*
G02X3250000Y5886220I51810J-55890D01*
G02X3298530Y5868770I0J-76208D01*
G03X3311470I6470J7837D01*
G02X3360000Y5886220I48530J-58758D01*
G02X3411810Y5865900I0J-76210D01*
G01X4040000D01*
G02X4079530Y5849530I0J-55913D01*
G01X4119530Y5809530D01*
G02X4135900Y5770000I-39543J-39530D01*
G01Y5556340D01*
G03X4154910Y5536060I20320J-2D01*
G02X4201810Y5515900I-4912J-76060D01*
G01X4608190D01*
G02X4660000Y5536220I51810J-55890D01*
G02Y5383780I0J-76220D01*
G02X4608190Y5404100I0J76210D01*
G01X4201810D01*
G02X4154910Y5383940I-51812J55900D01*
G03X4135900Y5363660I1310J-20278D01*
G01Y4863150D01*
X4193150Y4805900D01*
X4588190D01*
G02X4640000Y4826220I51810J-55890D01*
G02Y4673780I0J-76220D01*
G02X4588190Y4694100I0J76210D01*
G01X4170000D01*
G02X4130470Y4710470I0J55913D01*
G01X4040470Y4800470D01*
G02X4024100Y4840000I39543J39530D01*
G01Y5746850D01*
X4016850Y5754100D01*
X3411810D01*
G02X3360000Y5733780I-51810J55890D01*
G02X3311470Y5751230I0J76208D01*
G03X3298530I-6470J-7837D01*
G02X3250000Y5733780I-48530J58758D01*
G02X3198190Y5754100I0J76210D01*
G01X2503150D01*
X2485900Y5736850D01*
Y4801810D01*
G02X2506220Y4750000I-55890J-51810D01*
G02X2353780I-76220J0D01*
G02X2374100Y4801810I76210J0D01*
G01Y5760000D01*
G02X2390470Y5799530I55913J0D01*
G01X2440470Y5849530D01*
G02X2480000Y5865900I39530J-39543D01*
G37*
G36*
G01X9465790Y6611560D02*
X8828930D01*
G02X8780000Y6593780I-48930J58437D01*
G02Y6746220I0J76220D01*
G02X8828930Y6728440I0J-76217D01*
G01X9490000D01*
G02X9531320Y6711320I-6J-58438D01*
G01X9601320Y6641320D01*
G02X9618440Y6600000I-41318J-41326D01*
G01Y6328930D01*
G02X9636220Y6280000I-58437J-48930D01*
G02X9483780I-76220J0D01*
G02X9501560Y6328930I76217J0D01*
G01Y6575790D01*
X9465790Y6611560D01*
G37*
G36*
G01X1604100Y6730000D02*
Y7308190D01*
G02X1583780Y7360000I55890J51810D01*
G02X1736220I76220J0D01*
G02X1715900Y7308190I-76210J0D01*
G01Y6753150D01*
X1756220Y6712830D01*
X2408190D01*
G02X2460000Y6733150I51810J-55890D01*
G02Y6580710I0J-76220D01*
G02X2408190Y6601030I0J76210D01*
G01X1733070D01*
G02X1693540Y6617400I0J55913D01*
G01X1620470Y6690470D01*
G02X1604100Y6730000I39543J39530D01*
G37*
G54D22*
X1801000Y8177000D03*
X2379000D03*
G54D25*
X4563000Y8480000D03*
G54D24*
X7600000Y7715000D03*
X8080000D03*
X8560000D03*
G54D23*
X10550000Y6040000D03*
Y7160000D03*
%LPD*%
G75*
G54D10*
X170000Y4620000D03*
Y4990000D03*
X100000Y5340000D03*
Y5840000D03*
Y6340000D03*
Y6840000D03*
Y7340000D03*
X670000Y4620000D03*
Y4990000D03*
X790000Y6140000D03*
Y6300000D03*
X600000Y7350000D03*
X1040000Y6140000D03*
Y6300000D03*
X1100000Y7350000D03*
X1260000Y4620000D03*
Y4990000D03*
X1280000Y6140000D03*
Y6300000D03*
X1510000D03*
X1410000Y7890000D03*
Y8390000D03*
X1760000Y4620000D03*
X1690000Y4990000D03*
X1750000Y6300000D03*
X1660000Y7360000D03*
X1830000Y8670000D03*
X2260000Y4620000D03*
Y6880000D03*
X2330000Y8670000D03*
X2430000Y4750000D03*
X2440000Y6880000D03*
X2460000Y6656930D03*
X2530000Y7270000D03*
Y7110000D03*
Y7610000D03*
Y7450000D03*
Y7800000D03*
X2820000Y4620000D03*
X2940000Y6080000D03*
Y5920000D03*
X3040000Y6080000D03*
Y5920000D03*
X2770000Y7270000D03*
Y7110000D03*
Y7610000D03*
Y7450000D03*
X2830000Y8670000D03*
X3320000Y4620000D03*
X3250000Y5810000D03*
X3360000D03*
X3480000Y7700000D03*
X3820000Y4620000D03*
X3660000Y6080000D03*
Y5920000D03*
X3800000Y6500000D03*
X3830000Y7690000D03*
Y7450000D03*
X3790000Y8020000D03*
X3780000Y8670000D03*
X4150000Y5460000D03*
X3910000Y6080000D03*
X4060000D03*
X3910000Y5920000D03*
X4060000D03*
X4030000Y7690000D03*
Y7450000D03*
X4210000Y8100000D03*
X4220000Y8640000D03*
X4640000Y4750000D03*
X4660000Y5460000D03*
Y6500000D03*
X4480000Y6800000D03*
X4320000Y7110000D03*
X4480000D03*
X4320000Y7610000D03*
Y7350000D03*
X4480000D03*
Y7610000D03*
X4320000Y7890000D03*
X4920000Y6290000D03*
X4900000Y6650000D03*
Y7150000D03*
Y7650000D03*
Y8150000D03*
X4720000Y8640000D03*
X5100000Y4580000D03*
Y5000000D03*
X5420000Y6130000D03*
Y6290000D03*
X5170000D03*
X5400000Y6650000D03*
Y7150000D03*
Y7650000D03*
Y8150000D03*
X5220000Y8640000D03*
X5600000Y5000000D03*
X5670000Y6130000D03*
Y6290000D03*
X6100000Y4580000D03*
Y5000000D03*
X5910000Y6130000D03*
Y6290000D03*
X5900000Y6650000D03*
Y7150000D03*
Y7650000D03*
Y8150000D03*
X6400000Y6150000D03*
Y6650000D03*
Y7150000D03*
Y7650000D03*
Y8150000D03*
X6600000Y4580000D03*
Y5000000D03*
X6900000Y6150000D03*
Y6650000D03*
Y7150000D03*
Y7650000D03*
Y8150000D03*
X7100000Y4580000D03*
Y5000000D03*
X7600000Y4580000D03*
Y5000000D03*
X7830000Y6230000D03*
Y6730000D03*
Y7230000D03*
X7870000Y8340000D03*
X8100000Y4580000D03*
Y5000000D03*
X8370000Y5890000D03*
X8310000Y6210000D03*
Y6710000D03*
Y7210000D03*
X8370000Y8340000D03*
X8600000Y4580000D03*
X8780000Y6670000D03*
X9100000Y4580000D03*
X8870000Y5890000D03*
X9050000Y8020000D03*
Y8520000D03*
X9600000Y4580000D03*
X9560000Y6280000D03*
X9550000Y8020000D03*
Y8520000D03*
X10100000Y4580000D03*
X10050000Y8020000D03*
Y8520000D03*
X10600000Y4580000D03*
X10550000Y8020000D03*
Y8520000D03*
X11050000Y8020000D03*
Y8520000D03*
X11590000Y4600000D03*
Y5100000D03*
Y6100000D03*
Y6600000D03*
Y7100000D03*
X11550000Y8020000D03*
Y8520000D03*
X12090000Y4600000D03*
Y5100000D03*
Y5600000D03*
Y6100000D03*
Y6600000D03*
Y7100000D03*
X12590000Y4600000D03*
Y5100000D03*
Y5600000D03*
Y6100000D03*
Y6600000D03*
Y7100000D03*
G54D20*
G01X1660000Y7360000D02*
Y6730000D01*
X1733070Y6656930D01*
X2460000D01*
G01X3250000Y5810000D02*
X2480000D01*
X2430000Y5760000D01*
Y4750000D01*
G01X3360000Y5810000D02*
X4040000D01*
X4080000Y5770000D01*
Y4840000D01*
X4170000Y4750000D01*
X4640000D01*
G01X4150000Y5460000D02*
X4660000D01*
G54D11*
X1658000Y8124000D03*
X2522000D03*
G54D21*
G01X9560000Y6280000D02*
Y6600000D01*
X9490000Y6670000D01*
X8780000D01*
G54D12*
X1658000Y8542000D03*
X2522000D03*
G54D13*
X3060000Y6630000D03*
Y6880000D03*
Y7120000D03*
X3310000Y6630000D03*
X3307320Y6876930D03*
X3310000Y7120000D03*
X3550000Y6630000D03*
Y6880000D03*
Y7120000D03*
G54D14*
X4563000Y8480000D03*
X4817000D03*
G54D15*
X5585000Y8690000D03*
X6335000D03*
G54D16*
X7415000Y8637000D03*
X8745000D03*
G54D17*
X7600000Y7715000D03*
X8080000D03*
X8560000D03*
G54D18*
X10235000Y5440000D03*
Y7760000D03*
X11585000Y5440000D03*
Y7760000D03*
G54D19*
X10550000Y6040000D03*
Y7160000D03*
X11270000Y6040000D03*
Y7160000D03*
M02*
