G04 ================== begin FILE IDENTIFICATION RECORD ==================*
G04 Layout Name:  HY_IP5389_V10_250411.brd*
G04 Film Name:    SolderMask_Top*
G04 File Format:  Gerber RS274X*
G04 File Origin:  Cadence Allegro 23.1-S006*
G04 Origin Date:  Tue Apr 15 11:16:34 2025*
G04 *
G04 Layer:  PIN/SOLDERMASK_TOP*
G04 Layer:  PACKAGE GEOMETRY/SOLDERMASK_TOP*
G04 Layer:  BOARD GEOMETRY/SOLDERMASK_TOP*
G04 *
G04 Offset:    (0.0000 0.0000)*
G04 Mirror:    No*
G04 Mode:      Positive*
G04 Rotation:  0*
G04 FullContactRelief:  No*
G04 UndefLineWidth:     0.1524*
G04 ================== end FILE IDENTIFICATION RECORD ====================*
%FSLAX55Y55*MOMM*%
%IR0*IPPOS*OFA0.00000B0.00000*MIA0B0*SFA1.00000B1.00000*%
%ADD18R,.4X1.3*%
%ADD34R,.7X1.2*%
%ADD17R,.7X1.3*%
%AMMACRO20*
4,1,28,-1.28,1.34,
-.67,1.34,
-.67,.84,
-.63,.84,
-.63,1.34,
-.02,1.34,
-.02,.84,
.02,.84,
.02,1.34,
.63,1.34,
.63,.84,
.67,.84,
.67,1.34,
1.28,1.34,
1.28,.84,
1.52,.84,
1.52,-.3,
1.82,-.3,
1.82,-.92,
1.52,-.92,
1.52,-1.34,
-1.52,-1.34,
-1.52,-.92,
-1.82,-.92,
-1.82,-.3,
-1.52,-.3,
-1.52,.84,
-1.28,.84,
-1.28,1.34,
0.0*
%
%ADD20MACRO20*%
%ADD24R,.9X1.5*%
%ADD22R,.9X.9*%
%ADD16O,1.1X2.2*%
%ADD28R,1.3X1.1*%
%ADD19O,1.1X1.7*%
%ADD30R,1.5X1.3*%
%ADD35O,1.6X3.3*%
%AMMACRO14*
4,1,28,1.28,-1.34,
.67,-1.34,
.67,-.84,
.63,-.84,
.63,-1.34,
.02,-1.34,
.02,-.84,
-.02,-.84,
-.02,-1.34,
-.63,-1.34,
-.63,-.84,
-.67,-.84,
-.67,-1.34,
-1.28,-1.34,
-1.28,-.84,
-1.52,-.84,
-1.52,.3,
-1.82,.3,
-1.82,.92,
-1.52,.92,
-1.52,1.34,
1.52,1.34,
1.52,.92,
1.82,.92,
1.82,.3,
1.52,.3,
1.52,-.84,
1.28,-.84,
1.28,-1.34,
0.0*
%
%ADD14MACRO14*%
%ADD11R,1.3X2.8*%
%ADD26R,.9X.3*%
%ADD25R,.3X.9*%
%ADD13R,.6X.7*%
%ADD10R,1.9X1.7*%
%ADD32C,2.3*%
%ADD29C,1.4*%
%ADD21R,.7X.6*%
%ADD12R,1.7X1.9*%
%ADD33C,2.4*%
%ADD36C,4.3*%
%ADD15R,.45X.9*%
%ADD31C,1.75*%
%ADD23R,2.65X3.65*%
%ADD27R,6.3X6.3*%
%LPD*%
G75*
G54D10*
X850000Y5660000D03*
Y5940000D03*
X1120000Y5660000D03*
Y5940000D03*
X1390000Y5660000D03*
Y5940000D03*
Y7070000D03*
Y7350000D03*
X2310000D03*
Y7070000D03*
X5340000Y5660000D03*
Y5940000D03*
X5610000Y5660000D03*
Y5940000D03*
X5880000Y5660000D03*
Y5940000D03*
G54D11*
X1120000Y4740000D03*
Y5260000D03*
X5610000Y4740000D03*
Y5260000D03*
G54D20*
X2240000Y4961000D03*
Y5671000D03*
X4441280Y4961000D03*
Y5671000D03*
X9350000Y6491000D03*
G54D12*
X1640000Y5648110D03*
X1920000D03*
X4770000D03*
X5050000D03*
X9220000Y7000000D03*
X8940000D03*
X9470000D03*
X9750000D03*
G54D21*
X2530000Y4535000D03*
Y4625000D03*
X3170000Y8005000D03*
X3470000D03*
X3320000D03*
X3170000Y8095000D03*
X3470000D03*
X3320000D03*
X3580000Y7635000D03*
Y7545000D03*
X3620000Y8005000D03*
Y8095000D03*
X4150000Y4535000D03*
Y4625000D03*
X3930000Y8005000D03*
Y8095000D03*
X8760000Y6115000D03*
Y6025000D03*
X8520000Y6305000D03*
Y6395000D03*
Y6525000D03*
Y6615000D03*
X8880000Y6025000D03*
Y6115000D03*
G54D30*
X5740000Y8490000D03*
X6180000D03*
G54D31*
X5585000Y8690000D03*
X6335000D03*
G54D13*
X1975000Y5940000D03*
X1885000D03*
Y6070000D03*
X1975000D03*
X2625000Y6860000D03*
X2535000D03*
X2625000Y6980000D03*
X2535000D03*
X3135000Y6190000D03*
X3485000D03*
X3395000D03*
X3225000D03*
X4216280Y6550000D03*
X4055000D03*
X3965000D03*
X4216280Y6760000D03*
Y6884960D03*
X4055000Y6690000D03*
X3965000D03*
Y7280000D03*
X4055000D03*
X4216280Y7003780D03*
X3965000Y6970000D03*
X4055000D03*
X4306280Y6550000D03*
Y6760000D03*
Y6884960D03*
Y7003780D03*
X4715000Y5940000D03*
X4805000D03*
X4715000Y6070000D03*
X4805000D03*
G54D22*
X2530000Y4773800D03*
Y4926200D03*
X3170000Y8513800D03*
Y8666200D03*
X3470000Y8513800D03*
Y8666200D03*
X3320000Y8513800D03*
Y8666200D03*
X3720000Y7563800D03*
Y7716200D03*
X3620000Y8513800D03*
Y8666200D03*
X4150000Y4773800D03*
Y4926200D03*
X3930000Y8513800D03*
Y8666200D03*
G54D23*
X2827320Y5258110D03*
X3867320D03*
G54D32*
X7415000Y8637000D03*
X8745000D03*
G54D14*
X1870000Y7149000D03*
G54D15*
X1772500Y7360000D03*
X1837500D03*
X1902500D03*
X1967500D03*
X2337500Y4750000D03*
X2272500D03*
X2207500D03*
X2142500D03*
X2337500Y5460000D03*
X2272500D03*
X2207500D03*
X2142500D03*
X4538780Y4750000D03*
X4473780D03*
X4408780D03*
X4343780D03*
X4538780Y5460000D03*
X4473780D03*
X4408780D03*
X4343780D03*
X9447500Y6280000D03*
X9382500D03*
X9317500D03*
X9252500D03*
G54D33*
X7600000Y7715000D03*
X8080000D03*
X8560000D03*
G54D24*
X2825000Y6020000D03*
X3175000D03*
X3445000D03*
X3795000D03*
G54D25*
X3007320Y6476930D03*
X3047320D03*
X3087320D03*
X3127320D03*
Y7276930D03*
X3087320D03*
X3047320D03*
X3007320D03*
X3167320Y6476930D03*
X3207320D03*
X3247320D03*
X3287320D03*
X3327320D03*
X3367320D03*
X3407320D03*
X3447320D03*
X3487320D03*
Y7276930D03*
X3447320D03*
X3407320D03*
X3367320D03*
X3327320D03*
X3287320D03*
X3247320D03*
X3207320D03*
X3167320D03*
X3527320Y6476930D03*
X3567320D03*
X3607320D03*
Y7276930D03*
X3567320D03*
X3527320D03*
G54D16*
X1658000Y8124000D03*
X2522000D03*
G54D34*
X8780000Y6560000D03*
X8685000D03*
X8780000Y6300000D03*
X8685000D03*
X8875000Y6560000D03*
Y6300000D03*
G54D26*
X2907320Y6896930D03*
Y6856930D03*
Y6816930D03*
Y6776930D03*
Y6736930D03*
Y6696930D03*
Y6656930D03*
Y6616930D03*
Y6576930D03*
Y7176930D03*
Y7136930D03*
Y7096930D03*
Y7056930D03*
Y7016930D03*
Y6976930D03*
Y6936930D03*
X3707320Y6576930D03*
Y6616930D03*
Y6656930D03*
Y6696930D03*
Y6736930D03*
Y6776930D03*
Y6816930D03*
Y6856930D03*
Y6896930D03*
Y6936930D03*
Y6976930D03*
Y7016930D03*
Y7056930D03*
Y7096930D03*
Y7136930D03*
Y7176930D03*
G54D35*
X10235000Y5440000D03*
Y7760000D03*
X11585000Y5440000D03*
Y7760000D03*
G54D17*
X1770000Y8020000D03*
X1850000D03*
X2330000D03*
X2410000D03*
G54D27*
X3307320Y6876930D03*
G54D36*
X10550000Y6040000D03*
Y7160000D03*
X11270000Y6040000D03*
Y7160000D03*
G54D18*
X1915000Y8020000D03*
X1965000D03*
X2015000D03*
X2065000D03*
X2115000D03*
X2165000D03*
X2215000D03*
X2265000D03*
G54D19*
X1658000Y8542000D03*
X2522000D03*
G54D28*
X4560000Y7848400D03*
Y8051600D03*
G54D29*
X4563000Y8480000D03*
X4817000D03*
M02*
