G04 ================== begin FILE IDENTIFICATION RECORD ==================*
G04 Layout Name:  HY_CH482X_V10_240923.brd*
G04 Film Name:    BOTTOM*
G04 File Format:  Gerber RS274X*
G04 File Origin:  Cadence Allegro 23.1-S006*
G04 Origin Date:  Fri Sep 27 10:14:52 2024*
G04 *
G04 Layer:  ETCH/BOTTOM*
G04 Layer:  PIN/BOTTOM*
G04 Layer:  VIA CLASS/BOTTOM*
G04 *
G04 Offset:    (0.0000 0.0000)*
G04 Mirror:    No*
G04 Mode:      Positive*
G04 Rotation:  0*
G04 FullContactRelief:  No*
G04 UndefLineWidth:     0.1524*
G04 ================== end FILE IDENTIFICATION RECORD ====================*
%FSLAX55Y55*MOMM*%
%IR0*IPPOS*OFA0.00000B0.00000*MIA0B0*SFA1.00000B1.00000*%
%ADD14O,.9X2.1*%
%ADD15C,.7*%
%ADD10C,.508*%
%ADD16C,.6096*%
%ADD19C,1.2*%
%ADD11O,3.8X1.8*%
%ADD18C,3.3*%
%ADD12C,1.8*%
%ADD17R,1.8X1.8*%
%ADD13R,1.9X1.9*%
%ADD20C,.1*%
%ADD21C,.2032*%
%ADD22C,.142*%
%ADD23C,.254*%
%ADD24C,.608*%
%ADD25C,.762*%
%ADD26C,1.4228*%
G75*
%LPD*%
G75*
G36*
G01X3980000Y3760000D02*
X4800000D01*
G02X4960000Y3600000I0J-160000D01*
G01Y3146260D01*
G02X4922120Y3136040I-20319J1D01*
G03X4740000Y3240740I-182120J-106044D01*
G03Y2819260I0J-210740D01*
G03X4922120Y2923960I0J210744D01*
G02X4960000Y2913740I17561J-10221D01*
G01Y1836260D01*
G02X4922120Y1826040I-20319J1D01*
G03X4740000Y1930740I-182120J-106044D01*
G03Y1509260I0J-210740D01*
G03X4922120Y1613960I0J210744D01*
G02X4960000Y1603740I17561J-10221D01*
G01Y200000D01*
G02X4800000Y40000I-160000J0D01*
G01X200000D01*
G02X40000Y200000I0J160000D01*
G01Y1663980D01*
G02X74600Y1678440I20320J3D01*
G03X170000Y1639260I95400J96555D01*
G01X370000D01*
G03X422100Y1649660I-8J135738D01*
G02X436160Y1640280I3899J-9383D01*
G01Y1624730D01*
X380720Y1569280D01*
G03X356160Y1510000I59277J-59287D01*
G01Y1410000D01*
G03X400440Y1336080I83840J0D01*
G02X405230Y1303790I-9580J-17921D01*
G01X390720Y1289280D01*
G03X366160Y1230000I59277J-59287D01*
G01Y1130000D01*
G03X533840I83840J0D01*
G01Y1195270D01*
X679280Y1340720D01*
G03X703840Y1400000I-59277J59287D01*
G01Y3020000D01*
G03X679280Y3079280I-83837J-7D01*
G01X543840Y3214730D01*
Y3310000D01*
G03X505520Y3380410I-83846J0D01*
G02X503120Y3412720I11033J17064D01*
G03X527250Y3466110I-47000J53390D01*
G03X506050Y3516770I-71129J0D01*
G02X506910Y3546520I14263J14475D01*
G03X531140Y3600000I-46905J53480D01*
G03X388860I-71140J0D01*
G03X410060Y3549340I71129J0D01*
G02X409200Y3519590I-14263J-14475D01*
G03X384970Y3466110I46905J-53480D01*
G03X411810Y3410440I71154J0D01*
G02X411030Y3378050I-12651J-15900D01*
G03X376160Y3310000I48966J-68050D01*
G01Y3176110D01*
G03X416690Y3104320I83845J0D01*
G01X417750Y3103680D01*
X442700Y3078730D01*
X430620Y3066650D01*
X424270Y3069420D01*
G03X370000Y3080740I-54270J-124430D01*
G01X170000D01*
G03X74600Y3041560I0J-135735D01*
G02X40000Y3056020I-14280J14457D01*
G01Y3600000D01*
G02X200000Y3760000I160000J0D01*
G01X960000D01*
G02X1020000Y3700000I0J-60000D01*
G01Y3410000D01*
G03X1033320Y3372310I59998J5D01*
G02X1024370Y3340410I-15809J-12770D01*
G03X964260Y3255000I30624J-85410D01*
G01Y3135000D01*
G03X979630Y3084470I90746J0D01*
G02X962750Y3052840I-16880J-11311D01*
G01X870000D01*
G03X832640Y3037360I6J-52838D01*
G01X767520Y2972240D01*
G03X752040Y2934880I37358J-37366D01*
G01Y2677160D01*
G03X767520Y2639800I52838J6D01*
G01X801940Y2605380D01*
G03X839300Y2589900I37366J37358D01*
G01X873120D01*
G03X996880I61880J35103D01*
G01X1042740D01*
G03X1080100Y2605380I-6J52838D01*
G01X1181890Y2707160D01*
X1413100D01*
X1415870Y2701400D01*
G03X1477540Y2661090I64133J30788D01*
G02X1497160Y2640780I-699J-20307D01*
G01Y1350000D01*
G03X1512640Y1312640I52823J0D01*
G01X1610900Y1214380D01*
G03X1648260Y1198900I37366J37358D01*
G01X2173070D01*
G02X2192860Y1173970I-1J-20321D01*
G03X2189180Y1142000I137139J-31983D01*
G03X2330000Y1001180I140820J0D01*
G03X2440990Y1055330I0J140822D01*
G02X2473010I16010J-12512D01*
G03X2584000Y1001180I110990J86672D01*
G03X2724820Y1142000I0J140820D01*
G03X2721140Y1173970I-140819J-13D01*
G02X2740930Y1198900I19791J4609D01*
G01X3160560D01*
G03X3197920Y1214380I-6J52838D01*
G01X3327360Y1343820D01*
G03X3342840Y1381180I-37358J37366D01*
G01Y1659260D01*
G02X3370230Y1678310I20319J1D01*
G03X3395000Y1673860I24766J66691D01*
G03Y1816140I0J71140D01*
G03X3370230Y1811690I-4J-71141D01*
G02X3342840Y1830740I-7071J19049D01*
G01Y2583100D01*
X3348600Y2585870D01*
G03X3385440Y2627930I-30789J64132D01*
G02X3415740Y2638710I19313J-6311D01*
G03X3454220Y2627410I38472J59842D01*
G03X3505970Y2649730I0J71152D01*
G02X3535120Y2650160I14784J-13941D01*
G01X3564900Y2620380D01*
G03X3602260Y2604900I37366J37358D01*
G01X3868120D01*
G03X3930000Y2568860I61880J35103D01*
G03X4001140Y2640000I0J71140D01*
G03X3991930Y2675000I-71138J-8D01*
G03X4001140Y2710000I-61928J35008D01*
G03X3930000Y2781140I-71140J0D01*
G03X3868120Y2745100I0J-71143D01*
G01X3638450D01*
X3615590Y2767950D01*
G02X3629960Y2802640I14370J14369D01*
G01X3884300D01*
G03X3919960Y2816480I7J52843D01*
G02X3933840Y2816320I6855J-7495D01*
G03X3983080Y2796530I49240J51363D01*
G03X4054220Y2867670I0J71140D01*
G03X4038120Y2912740I-71134J0D01*
G03X4054220Y2957810I-55034J45070D01*
G03X3983080Y3028950I-71140J0D01*
G03X3916350Y2982460I0J-71136D01*
G03X3910000Y2982840I-6326J-52461D01*
G03X3893000Y2980030I0J-52828D01*
G02X3880330Y2985790I-3271J9620D01*
G03X3845310Y3022910I-65812J-27009D01*
G01X3839550Y3025680D01*
Y3050630D01*
X3851540D01*
X3853260Y3049990D01*
G03X3885000Y3044260I31734J85011D01*
G03X3975740Y3135000I0J90740D01*
G01Y3255000D01*
G03X3915630Y3340410I-90734J0D01*
G02X3906680Y3372310I6859J19130D01*
G03X3920000Y3410000I-46678J37695D01*
G01Y3700000D01*
G02X3980000Y3760000I60000J0D01*
G37*
G36*
G01X370000Y2809260D02*
G03X505740Y2945000I0J135740D01*
G03X494420Y2999270I-135750J0D01*
G01X491650Y3005620D01*
X503730Y3017700D01*
X536160Y2985270D01*
Y2147930D01*
G02X504950Y2130770I-20320J-4D01*
G03X460000Y2143840I-44950J-70760D01*
G01X210000D01*
G03Y1976160I0J-83840D01*
G01X425270D01*
X436160Y1965270D01*
Y1924180D01*
G02X409870Y1904750I-20321J-6D01*
G03X370000Y1910740I-39878J-129749D01*
G01X170000D01*
G03X74600Y1871560I0J-135735D01*
G02X40000Y1886020I-14280J14457D01*
G01Y2833980D01*
G02X74600Y2848440I20320J3D01*
G03X170000Y2809260I95400J96555D01*
G01X370000D01*
G37*
G36*
G01X1252840Y2928120D02*
X1319460Y2994730D01*
X1326360Y2990270D01*
G03X1365000Y2978860I38640J59722D01*
G03X1371050Y2979120I-27J71139D01*
G01X1375750Y2979520D01*
X1408860Y2946410D01*
X1409220Y2942820D01*
G03X1429050Y2900350I70778J7183D01*
G02Y2871980I-14548J-14185D01*
G03X1415870Y2853120I50954J-49644D01*
G01X1413100Y2847360D01*
X1145700D01*
G03X1108340Y2831880I6J-52838D01*
G01X1017780Y2741330D01*
G02X988220Y2742210I-14365J14369D01*
G03X935000Y2766140I-53220J-47215D01*
G03X917550Y2763970I-13J-71142D01*
G02X892240Y2783660I-4991J19696D01*
G01Y2898690D01*
X906190Y2912640D01*
X1215480D01*
G03X1252840Y2928120I-6J52838D01*
G37*
G36*
G01X1637360Y1386190D02*
Y2303950D01*
G02X1672010Y2318350I20319J-4D01*
G03X1691400Y2304650I50171J50436D01*
G01X1697160Y2301880D01*
Y1841180D01*
G03X1712640Y1803820I52823J0D01*
G01X1794080Y1722380D01*
G03X1831440Y1706900I37360J37343D01*
G01X2173070D01*
G02X2192860Y1681970I-1J-20321D01*
G03X2189180Y1650000I137139J-31983D01*
G03X2243330Y1539010I140822J0D01*
G02Y1506990I-12512J-16010D01*
G03X2189180Y1396000I86672J-110990D01*
G03X2192860Y1364030I140819J13D01*
G02X2173070Y1339100I-19791J-4609D01*
G01X1684450D01*
X1637360Y1386190D01*
G37*
G36*
G01Y2760100D02*
G03X1630020Y2786970I-52852J0D01*
G01X1626010Y2793760D01*
X1638760Y2806510D01*
X1672840Y2772430D01*
Y2420020D01*
G03X1656850Y2396920I49347J-51243D01*
G01X1654210Y2390780D01*
X1637360D01*
Y2760100D01*
G37*
G36*
G01X1664850Y3004700D02*
G03X1666320Y3006540I-54837J45317D01*
G02X1696780Y3008500I16092J-12411D01*
G01X1742640Y2962640D01*
G03X1780000Y2947160I37366J37358D01*
G01X1902640D01*
Y2926840D01*
X1896880Y2924070D01*
G03Y2795810I30787J-64130D01*
G01X1902640Y2793040D01*
Y2438750D01*
X1896190Y2436220D01*
G03X1873540Y2421910I25993J-66223D01*
G02X1859810Y2421750I-6952J7409D01*
G03X1843120Y2432910I-47491J-52964D01*
G01X1837360Y2435680D01*
Y2784300D01*
G03X1821880Y2821660I-52838J-6D01*
G01X1666150Y2977390D01*
G02X1664850Y3004700I14370J14370D01*
G37*
G36*
G01X2020000Y3760000D02*
X2920000D01*
G02X2980000Y3700000I0J-60000D01*
G01Y3410000D01*
G03X2993320Y3372310I59998J5D01*
G02X2984370Y3340410I-15809J-12770D01*
G03X2924260Y3255000I30624J-85410D01*
G01Y3135000D01*
G03X3105740I90740J0D01*
G01Y3168580D01*
G02X3135900Y3186360I20320J2D01*
G03X3163880Y3177030I39101J70640D01*
G01X3172640Y3175810D01*
Y2901240D01*
G02X3137790Y2887030I-20320J-5D01*
G03X3137360Y2887460I-37575J-37145D01*
G01X3102940Y2921880D01*
G03X3066660Y2937350I-37368J-37357D01*
G03X3000060Y2983470I-66600J-25027D01*
G03X2928920Y2912330I0J-71140D01*
G03X2945020Y2867260I71134J0D01*
G03X2928920Y2822190I55034J-45070D01*
G03X3000060Y2751050I71140J0D01*
G03X3002180Y2751080I54J71141D01*
G02X3012640Y2740930I301J-10155D01*
G01Y2727370D01*
X2894370Y2609100D01*
X2740930D01*
G02X2721140Y2634030I1J20321D01*
G03X2724820Y2666000I-137139J31983D01*
G03X2690130Y2758550I-140818J-6D01*
G02X2695780Y2789780I15317J13355D01*
G03X2719740Y2830000I-21777J40220D01*
G01Y3010000D01*
G03X2674000Y3055740I-45740J0D01*
G01X2494000D01*
G03X2463720Y3044290I-8J-45743D01*
G02X2450280I-6720J7612D01*
G03X2420000Y3055740I-30272J-34293D01*
G01X2240000D01*
G03X2194260Y3010000I0J-45740D01*
G01Y2830000D01*
G03X2218220Y2789780I45737J0D01*
G02X2223870Y2758550I-9667J-17875D01*
G03X2189180Y2666000I106128J-92556D01*
G03X2243330Y2555010I140822J0D01*
G02Y2522990I-12512J-16010D01*
G03Y2301010I86672J-110990D01*
G02Y2268990I-12512J-16010D01*
G03Y2047010I86672J-110990D01*
G02Y2014990I-12512J-16010D01*
G03X2189180Y1904000I86672J-110990D01*
G03X2192860Y1872030I140819J13D01*
G02X2173070Y1847100I-19791J-4609D01*
G01X1867630D01*
X1837360Y1877370D01*
Y2301880D01*
X1843120Y2304650D01*
G03X1860980Y2316870I-30775J64140D01*
G02X1874710Y2317030I6952J-7409D01*
G03X1922190Y2298860I47487J52967D01*
G03X1967260Y2314960I0J71134D01*
G03X2012330Y2298860I45070J55034D01*
G03X2083470Y2370000I0J71140D01*
G03X2042840Y2434270I-71147J0D01*
G01Y2793040D01*
X2048600Y2795810D01*
G03Y2924070I-30787J64130D01*
G01X2042840Y2926840D01*
Y2989980D01*
G03X2027360Y3027340I-52838J-6D01*
G01X1986820Y3067890D01*
X1993110Y3075050D01*
G03X2015740Y3135000I-68108J59956D01*
G01Y3255000D01*
G03X1955630Y3340410I-90734J0D01*
G02X1946680Y3372310I6859J19130D01*
G03X1960000Y3410000I-46678J37695D01*
G01Y3700000D01*
G02X2020000Y3760000I60000J0D01*
G37*
G36*
G01X1800820Y3257640D02*
G03X1817490Y3268650I-35820J72360D01*
G02X1834260Y3260940I6610J-7715D01*
G01Y3135000D01*
G03X1840750Y3101290I90742J-10D01*
G01X1841480Y3099480D01*
Y3087360D01*
X1816190D01*
X1752360Y3151190D01*
Y3179740D01*
G03X1800820Y3257000I-37358J77260D01*
G01Y3257640D01*
G37*
G36*
G01X3162840Y2325240D02*
G02X3202640Y2319460I19480J-5779D01*
G01Y1417370D01*
X3124370Y1339100D01*
X2740930D01*
G02X2721140Y1364030I1J20321D01*
G03X2724820Y1396000I-137139J31983D01*
G03X2670670Y1506990I-140822J0D01*
G02Y1539010I12512J16010D01*
G03X2724820Y1650000I-86672J110990D01*
G03X2721140Y1681970I-140819J-13D01*
G02X2740930Y1706900I19791J4609D01*
G01X3049740D01*
G03X3087100Y1722380I-6J52838D01*
G01X3147360Y1782640D01*
G03X3162840Y1820000I-37358J37366D01*
G01Y2325240D01*
G37*
G36*
G01X3158840Y2632030D02*
G03X3171750Y2606020I68836J17958D01*
G02X3171580Y2580680I-15968J-12563D01*
G03X3167140Y2569730I15799J-12781D01*
G02X3151880Y2537160I-52620J4794D01*
G01X3119840Y2505120D01*
G03X3114590Y2485460I14370J-14368D01*
G02X3104490Y2462210I-19621J-5295D01*
G03X3092740Y2454400I33310J-62858D01*
G03X3047670Y2470500I-45070J-55034D01*
G03X2976530Y2399360I0J-71140D01*
G03X3016880Y2335230I71137J0D01*
G01X3022640Y2332460D01*
Y1856190D01*
X3013550Y1847100D01*
X2740930D01*
G02X2721140Y1872030I1J20321D01*
G03X2724820Y1904000I-137139J31983D01*
G03X2670670Y2014990I-140822J0D01*
G02Y2047010I12512J16010D01*
G03Y2268990I-86672J110990D01*
G02Y2301010I12512J16010D01*
G03X2724820Y2412000I-86672J110990D01*
G03X2721140Y2443970I-140819J-13D01*
G02X2740930Y2468900I19791J4609D01*
G01X2930560D01*
G03X2967920Y2484380I-6J52838D01*
G01X3124810Y2641260D01*
G02X3158840Y2632030I14370J-14367D01*
G37*
G36*
G01X3760820Y3257640D02*
G03X3777490Y3268650I-35820J72360D01*
G02X3794260Y3260940I6610J-7715D01*
G01Y3158340D01*
G02X3759570Y3143970I-20321J0D01*
G01X3735830Y3167720D01*
G02X3735800Y3196430I14365J14370D01*
G03X3760820Y3257000I-60806J60570D01*
G01Y3257640D01*
G37*
%LPC*%
G75*
G36*
G01X1371050Y404260D02*
X1324260Y451050D01*
Y608950D01*
X1371050Y655740D01*
X1688950D01*
X1735740Y608950D01*
Y451050D01*
X1688950Y404260D01*
X1371050D01*
G37*
G36*
G01X739260Y1585000D02*
Y1775000D01*
G02X785000Y1820740I45740J0D01*
G01X975000D01*
G02X1020740Y1775000I0J-45740D01*
G01Y1585000D01*
G02X996380Y1544560I-45747J0D01*
G03X990010Y1513920I9501J-17957D01*
G02X1020820Y1426000I-110013J-87911D01*
G02X966670Y1315010I-140822J0D01*
G03Y1282990I12512J-16010D01*
G02X1020820Y1172000I-86672J-110990D01*
G02X739180I-140820J0D01*
G02X793330Y1282990I140822J0D01*
G03Y1315010I-12512J16010D01*
G02X739180Y1426000I86672J110990D01*
G02X769990Y1513920I140823J9D01*
G03X763620Y1544560I-15871J12683D01*
G02X739260Y1585000I21387J40440D01*
G37*
G36*
G01X3709260D02*
Y1775000D01*
G02X3755000Y1820740I45740J0D01*
G01X3945000D01*
G02X3990740Y1775000I0J-45740D01*
G01Y1585000D01*
G02X3966380Y1544560I-45747J0D01*
G03X3960010Y1513920I9501J-17957D01*
G02X3990820Y1426000I-110013J-87911D01*
G02X3936670Y1315010I-140822J0D01*
G03Y1282990I12512J-16010D01*
G02X3990820Y1172000I-86672J-110990D01*
G02X3709180I-140820J0D01*
G02X3763330Y1282990I140822J0D01*
G03Y1315010I-12512J16010D01*
G02X3709180Y1426000I86672J110990D01*
G02X3739990Y1513920I140823J9D01*
G03X3733620Y1544560I-15871J12683D01*
G02X3709260Y1585000I21387J40440D01*
G37*
G36*
G01X3548680Y2301320D02*
X3619920Y2372560D01*
X3620560Y2375450D01*
G02X3690000Y2431140I69440J-15447D01*
G02X3735000Y2415100I0J-71143D01*
G02X3780000Y2431140I45000J-55103D01*
G02Y2288860I0J-71140D01*
G02X3735000Y2304900I0J71143D01*
G02X3705450Y2290560I-44995J55103D01*
G01X3702560Y2289920D01*
X3648440Y2235790D01*
Y1640570D01*
G02X3661140Y1600000I-58450J-40570D01*
G02X3518860I-71140J0D01*
G02X3531560Y1640570I71150J0D01*
G01Y2260000D01*
G02X3548680Y2301320I58438J-6D01*
G37*
G36*
G01X4149390Y3520000D02*
G02X4128860Y3570000I50622J50000D01*
G02X4271140I71140J0D01*
G02X4250610Y3520000I-71152J0D01*
G02X4271140Y3470000I-50622J-50000D01*
G02X4243630Y3413810I-71140J0D01*
G03X4245150Y3380640I12465J-16049D01*
G02X4283840Y3310000I-45142J-70640D01*
G01Y2876990D01*
G03X4315910Y2860410I20319J-4D01*
G02X4380000Y2880820I64090J-90420D01*
G02X4477540Y2822600I0J-110818D01*
G03X4490300Y2818000I8946J4819D01*
G02X4530000Y2825740I39710J-97998D01*
G02Y2614260I0J-105740D01*
G02X4512030Y2615800I11J105739D01*
G03X4500940Y2576940I-3458J-20025D01*
G02X4530000Y2580820I29067J-106939D01*
G02X4640820Y2470000I0J-110820D01*
G02X4601690Y2385490I-110824J0D01*
G03Y2354510I13149J-15490D01*
G02X4640820Y2270000I-71694J-84510D01*
G02X4530000Y2159180I-110820J0D01*
G02X4511270Y2160770I-25J110822D01*
G03X4494870Y2125100I-3434J-20026D01*
G02X4530000Y2130820I35143J-105098D01*
G02Y1909180I0J-110820D01*
G02X4487830Y1917520I7J110819D01*
G03X4475230Y1913320I-3868J-9395D01*
G02X4380000Y1859180I-95230J56683D01*
G02X4315910Y1879590I0J110830D01*
G03X4283840Y1863010I-11751J-16576D01*
G01Y1120000D01*
G02X4116160I-83840J0D01*
G01Y3310000D01*
G02X4154850Y3380640I83832J0D01*
G03X4156370Y3413810I-10945J17121D01*
G02X4128860Y3470000I43630J56190D01*
G02X4149390Y3520000I71152J0D01*
G37*
G54D26*
X1405000Y1745000D03*
X1185000Y2535000D03*
%LPD*%
G75*
G36*
G01X1370000Y590000D02*
X1390000Y610000D01*
X1670000D01*
X1690000Y590000D01*
Y470000D01*
X1670000Y450000D01*
X1390000D01*
X1370000Y470000D01*
Y590000D01*
G37*
G54D10*
X120000Y180000D03*
Y610000D03*
X210000Y2060000D03*
X300000D03*
X160000Y2230000D03*
X150000Y2670000D03*
X100000Y3140000D03*
X270000Y3710000D03*
X100000Y3450000D03*
X450000Y190000D03*
X740000Y300000D03*
X440000Y610000D03*
X740000D03*
X600000D03*
X650000Y1130000D03*
X450000Y1230000D03*
Y1130000D03*
X440000Y1410000D03*
Y1510000D03*
X750000Y2460000D03*
X730000Y2850000D03*
X830000Y3190000D03*
Y3440000D03*
X460000Y3310000D03*
Y3176110D03*
X830000Y3700000D03*
X460000Y3600000D03*
X456110Y3466110D03*
X960000Y2460000D03*
X1100000D03*
X1185000Y2535000D03*
X990000Y2840000D03*
X1190000Y2880000D03*
Y2640000D03*
X935000Y2695000D03*
Y2625000D03*
X980000Y3440000D03*
Y3720000D03*
Y3630000D03*
Y3530000D03*
X1490000Y160000D03*
Y550000D03*
Y480000D03*
X1570000D03*
Y550000D03*
X1650000Y480000D03*
Y550000D03*
X1410000Y480000D03*
Y550000D03*
X1310000Y1010000D03*
X1640000Y920000D03*
Y1120000D03*
X1400000Y1640000D03*
X1405000Y1745000D03*
X1390000Y2450000D03*
X1722190Y2368780D03*
X1480000Y2822330D03*
Y2732190D03*
Y2950000D03*
X1610000Y3050000D03*
X1365000D03*
X1480000Y3030000D03*
X2140000Y160000D03*
X1740000Y800000D03*
X2130000Y790000D03*
X1800000Y1630000D03*
Y1430000D03*
X2110000Y1630000D03*
Y1430000D03*
X2100000Y1980000D03*
X2110000Y2370000D03*
X1870000Y2450000D03*
Y2530000D03*
X1922190Y2370000D03*
X2012330D03*
X1812330Y2368780D03*
X2110000Y2860000D03*
X1790000Y2910000D03*
X1870000Y2720000D03*
X2070000Y2640000D03*
X1927670Y2859940D03*
X2017810D03*
X2000000Y3440000D03*
X2050000Y3050000D03*
X2000000Y3530000D03*
Y3630000D03*
Y3720000D03*
X2570000Y160000D03*
X2560000Y790000D03*
X2330000Y3290000D03*
Y3690000D03*
X2800000Y1380000D03*
Y1670000D03*
Y1890000D03*
X2990000Y2080000D03*
Y1890000D03*
X3000000Y2480000D03*
X3000060Y2822190D03*
Y2912330D03*
X2860000Y3290000D03*
X2940000Y3440000D03*
Y3720000D03*
Y3630000D03*
Y3530000D03*
X3270000Y160000D03*
X3170000Y1000000D03*
X3400000Y1640000D03*
X3170000Y1430000D03*
X3160000Y1750000D03*
X3180000Y2080000D03*
X3395000Y1745000D03*
X3047670Y2399360D03*
X3137810D03*
X3450000Y2950100D03*
X3454220Y2788690D03*
X3227670Y2650000D03*
X3454220Y2698550D03*
X3317810Y2650000D03*
X3325000Y3040000D03*
X3450440Y3022640D03*
X3700000Y160000D03*
X3590000Y1600000D03*
X3880000Y1970000D03*
X3890000Y2550000D03*
Y2390000D03*
X3740000Y2550000D03*
X3690000Y2360000D03*
X3780000D03*
X3724380Y2958780D03*
X3814520D03*
X3575000Y3040000D03*
X4030000Y650000D03*
Y1080000D03*
X4200000Y1250000D03*
Y1120000D03*
X4040000Y1530000D03*
Y1850000D03*
X4080000Y2470000D03*
X3983080Y2957810D03*
Y2867670D03*
X3930000Y2710000D03*
Y2640000D03*
X3960000Y3440000D03*
X4200000Y3310000D03*
Y3180000D03*
X3960000Y3530000D03*
Y3630000D03*
Y3720000D03*
X4200000Y3570000D03*
Y3470000D03*
X4410000Y160000D03*
X4420000Y650000D03*
X4390000Y2980000D03*
Y3680000D03*
X4840000Y160000D03*
X4850000Y650000D03*
X4840000Y1020000D03*
Y1450000D03*
X4830000Y2180000D03*
Y2610000D03*
X4820000Y3360000D03*
Y3680000D03*
G54D20*
G01X1265480Y3180000D02*
X1265000Y3180480D01*
Y3277720D01*
X1265480Y3278200D01*
Y3329520D01*
X1265000Y3330000D01*
G01X1665000Y3215000D02*
Y3330000D01*
G01X1565000Y3215000D02*
Y3330000D01*
G01X3525000Y3205000D02*
Y3330000D01*
G01X3225000D02*
Y3195000D01*
G01X3625000Y3205000D02*
Y3330000D01*
G54D11*
X270000Y1775000D03*
Y2945000D03*
G54D21*
G01X3090000Y2480000D02*
X3160000D01*
X3210000Y2430000D01*
Y2360000D01*
X3190000Y2340000D01*
Y2310000D01*
G54D12*
X880000Y1172000D03*
Y1426000D03*
X2584000Y1142000D03*
X2330000D03*
X2584000Y1396000D03*
Y1650000D03*
X2330000Y1396000D03*
Y1650000D03*
X2584000Y1904000D03*
Y2158000D03*
X2330000Y1904000D03*
Y2158000D03*
X2584000Y2412000D03*
X2330000D03*
X2584000Y2666000D03*
X2330000D03*
X3850000Y1172000D03*
Y1426000D03*
G54D22*
G01X935000Y2695000D02*
X917260Y2677260D01*
X853600D01*
X839400Y2691460D01*
Y2920580D01*
X884300Y2965480D01*
X1215480D01*
X1300000Y3050000D01*
Y3242000D01*
X1315000Y3257000D01*
G01X935000Y2625000D02*
X917260Y2642740D01*
X839300D01*
X804880Y2677160D01*
Y2934880D01*
X870000Y3000000D01*
X1201180D01*
X1265480Y3064300D01*
Y3180000D01*
G01X1480000Y2822330D02*
X1452190Y2794520D01*
X1145700D01*
X1028440Y2677260D01*
X952740D01*
X935000Y2695000D01*
G01X1480000Y2732190D02*
X1452190Y2760000D01*
X1160000D01*
X1042740Y2642740D01*
X952740D01*
X935000Y2625000D01*
G01X2330000Y1142000D02*
Y1237540D01*
X2315800Y1251740D01*
X1648260D01*
X1550000Y1350000D01*
Y2745800D01*
X1535800Y2760000D01*
X1507810D01*
X1480000Y2732190D01*
G01Y2822330D02*
X1507810Y2794520D01*
X1550100D01*
X1584520Y2760100D01*
Y1364300D01*
X1662560Y1286260D01*
X2315800D01*
X2330000Y1300460D01*
Y1396000D01*
G01X1812330Y2368780D02*
X1784520Y2396590D01*
Y2784300D01*
X1558820Y3010000D01*
X1500000D01*
X1480000Y3030000D01*
G01X1722190Y2368780D02*
X1750000Y2396590D01*
Y2770000D01*
X1540000Y2980000D01*
X1510000D01*
X1480000Y2950000D01*
G01D02*
X1415000Y3015000D01*
Y3257000D01*
G01X1927670Y2859940D02*
X1929940D01*
X1955480Y2885480D01*
Y2975680D01*
X1931160Y3000000D01*
X1780000D01*
X1665000Y3115000D01*
Y3215000D01*
G01X2017810Y2859940D02*
Y2862190D01*
X1990000Y2890000D01*
Y2989980D01*
X1945460Y3034520D01*
X1794300D01*
X1699520Y3129300D01*
Y3241520D01*
X1715000Y3257000D01*
G01X1480000Y3030000D02*
X1565000Y3115000D01*
Y3215000D01*
G01X1812330Y2368780D02*
X1784520Y2340970D01*
Y1855480D01*
X1845740Y1794260D01*
X2315800D01*
X2330000Y1808460D01*
Y1904000D01*
G01Y1650000D02*
Y1745540D01*
X2315800Y1759740D01*
X1831440D01*
X1750000Y1841180D01*
Y2340970D01*
X1722190Y2368780D01*
G01X1922190Y2370000D02*
X1955480Y2403290D01*
Y2832130D01*
X1927670Y2859940D01*
G01X2017810D02*
X1990000Y2832130D01*
Y2392330D01*
X2012330Y2370000D01*
G01X3317810Y2650000D02*
X3290000Y2622190D01*
Y1381180D01*
X3160560Y1251740D01*
X2598200D01*
X2584000Y1237540D01*
Y1142000D01*
G01X3137810Y2399360D02*
X3110000Y2371550D01*
Y1820000D01*
X3049740Y1759740D01*
X2598200D01*
X2584000Y1745540D01*
Y1650000D01*
G01X3227670Y2650000D02*
X3255480Y2622190D01*
Y1395480D01*
X3146260Y1286260D01*
X2598200D01*
X2584000Y1300460D01*
Y1396000D01*
G01X3047670Y2399360D02*
X3057650Y2389380D01*
Y2389280D01*
X3075480Y2371450D01*
Y1834300D01*
X3035440Y1794260D01*
X2598200D01*
X2584000Y1808460D01*
Y1904000D01*
G01X3000060Y2822190D02*
X3027870Y2850000D01*
X3051280D01*
X3065480Y2835800D01*
Y2705480D01*
X2916260Y2556260D01*
X2598200D01*
X2584000Y2570460D01*
Y2666000D01*
G01Y2412000D02*
Y2507540D01*
X2598200Y2521740D01*
X2930560D01*
X3100000Y2691180D01*
Y2850100D01*
X3065580Y2884520D01*
X3027870D01*
X3000060Y2912330D01*
G01X3450000Y2950100D02*
X3525000Y3025100D01*
Y3205000D01*
G01X3450000Y2950100D02*
X3430170Y2970170D01*
X3394250Y2970390D01*
X3380000Y2956230D01*
Y2904200D01*
X3394200Y2890000D01*
X3870000D01*
X3910000Y2930000D01*
X3955270D01*
X3983080Y2957810D01*
G01Y2867670D02*
X3955270Y2895480D01*
X3924300D01*
X3884300Y2855480D01*
X3379900D01*
X3345480Y2889900D01*
Y2970600D01*
X3380100Y3005000D01*
X3432270Y3004690D01*
X3450440Y3022640D01*
G01X3454220Y2788690D02*
X3426410Y2760880D01*
X3317940D01*
X3260000Y2818820D01*
Y3242000D01*
X3275000Y3257000D01*
G01X3225000Y3195000D02*
X3225480Y3194520D01*
Y2804520D01*
X3303640Y2726360D01*
X3426410D01*
X3454220Y2698550D01*
G01X3375000Y3257000D02*
Y3098080D01*
X3450440Y3022640D01*
G01X3724380Y2958780D02*
X3752190Y2986590D01*
Y3027810D01*
X3625480Y3154520D01*
Y3205010D01*
X3625000Y3205000D01*
G01X3814520Y2958780D02*
X3786710Y2986590D01*
Y3042110D01*
X3660000Y3168820D01*
Y3242000D01*
X3675000Y3257000D01*
G01X3454220Y2788690D02*
X3482030Y2760880D01*
X3547940D01*
X3616560Y2692260D01*
X3912260D01*
X3930000Y2710000D01*
G01Y2640000D02*
X3912260Y2657740D01*
X3602260D01*
X3533640Y2726360D01*
X3482030D01*
X3454220Y2698550D01*
G54D13*
X880000Y1680000D03*
X3850000D03*
G54D23*
G01X1215000Y3257000D02*
X1117000D01*
X1055000Y3195000D01*
G01X940000Y3190000D02*
X945000Y3195000D01*
G01D02*
X1055000D01*
G01X1650000Y2310000D02*
Y2410000D01*
G01X1400000Y2890000D02*
X1540000D01*
X1640000Y2790000D01*
G01X1765000Y3330000D02*
X1920000D01*
G01D02*
X1980000D01*
G01X1925000Y3195000D02*
Y3325000D01*
X1920000Y3330000D01*
G01X3175000Y3257000D02*
X3040400D01*
X3015000Y3231600D01*
Y3195000D01*
G01X3160000Y2900000D02*
Y2660000D01*
X3130000Y2630000D01*
G01X3160000Y3150000D02*
X3175000Y3165000D01*
Y3257000D01*
G01X3690000Y2360000D02*
X3590000Y2260000D01*
Y1600000D01*
G01X3725000Y3330000D02*
X3890000D01*
G01X3885000Y3195000D02*
Y3325000D01*
X3890000Y3330000D01*
G01X3784100Y3195000D02*
Y3270900D01*
G01D02*
X3725000Y3330000D01*
G01X3990000Y3340000D02*
X3980000Y3330000D01*
G01D02*
X3890000D01*
G01X4380000Y2370000D02*
X4630000D01*
G54D14*
X1055000Y3195000D03*
X1925000D03*
X3015000D03*
X3885000D03*
G54D24*
G01X270000Y1629100D02*
Y1775000D01*
G01D02*
Y1920900D01*
G01Y2799100D02*
Y2945000D01*
G01D02*
Y3090900D01*
G01Y2945000D02*
X515900D01*
G01X880000Y1680000D02*
Y1830900D01*
G01Y1680000D02*
X1030900D01*
G01X1824100Y3195000D02*
X1925000D01*
G01D02*
X2025900D01*
G01X2330000Y2920000D02*
Y3065900D01*
G01X2184100Y2920000D02*
X2330000D01*
G01X2584000D02*
Y3065900D01*
G01Y2920000D02*
X2729900D01*
G01X3015000Y3034100D02*
Y3195000D01*
G01X2914100D02*
X3015000D01*
G01X3850000Y1680000D02*
Y1830900D01*
G01X3699100Y1680000D02*
X3850000D01*
G01D02*
X4000900D01*
G01X3885000Y3034100D02*
Y3195000D01*
G01X3784100D02*
X3885000D01*
G01D02*
X3985900D01*
G01X4740000Y1499100D02*
Y1720000D01*
G01D02*
Y1940900D01*
G01X4519100Y1720000D02*
X4740000D01*
G01Y2809100D02*
Y3030000D01*
G01X4530000Y2604100D02*
Y2720000D01*
G01D02*
Y2835900D01*
G01Y2720000D02*
X4645900D01*
G01X4740000Y3030000D02*
Y3250900D01*
G01X4519100Y3030000D02*
X4740000D01*
G54D15*
X1215000Y3257000D03*
X1265000Y3330000D03*
X1315000Y3257000D03*
X1415000D03*
X1515000D03*
X1615000D03*
X1715000D03*
X1365000Y3330000D03*
X1465000D03*
X1565000D03*
X1665000D03*
X1765000D03*
X3175000Y3257000D03*
X3275000D03*
X3375000D03*
X3475000D03*
X3225000Y3330000D03*
X3325000D03*
X3425000D03*
X3575000Y3257000D03*
X3675000D03*
X3525000Y3330000D03*
X3625000D03*
X3725000D03*
G54D25*
G01X450000Y1230000D02*
X620000Y1400000D01*
Y3020000D01*
X463890Y3176110D01*
X460000D01*
G01X440000Y1510000D02*
X520000Y1590000D01*
Y2000000D01*
X460000Y2060000D01*
X300000D01*
G01X210000D02*
X300000D01*
G01X450000Y1130000D02*
Y1230000D01*
G01X440000Y1410000D02*
Y1510000D01*
G01X460000Y3310000D02*
Y3176110D01*
G01X4200000Y3180000D02*
Y1250000D01*
G01D02*
Y1120000D01*
G01Y3180000D02*
Y3310000D01*
G54D16*
X1310000Y2050000D03*
Y2160000D03*
Y2270000D03*
X3450000Y2060000D03*
Y2280000D03*
Y2170000D03*
G54D17*
X2584000Y2920000D03*
X2330000D03*
G54D18*
X4740000Y1720000D03*
Y3030000D03*
G54D19*
X4380000Y1970000D03*
Y2170000D03*
X4530000Y2020000D03*
X4380000Y2370000D03*
Y2570000D03*
X4530000Y2470000D03*
Y2270000D03*
X4380000Y2770000D03*
X4530000Y2720000D03*
M02*
