M48
METRIC,TZ
T01C.254
T02C.3048
T03C.45
T04C.7
T05C1.1
T06C2.3
;LEADER: 12 
;HEADER: 
;CODE  : ASCII 
;FILE  : HY_CH482X_V10_240923-1-4.drl for board G:/github/DebugTool/HARDWARE/HY_CH482X_V10_240923/PCB/#Taaaboz08680.tmp ... layers TOP and BOTTOM
;T01 Holesize 1. = 0.254000 Tolerance = +0.000000/-0.000000 PLATED MM Quantity = 162
;T02 Holesize 2. = 0.304800 Tolerance = +0.000000/-0.000000 PLATED MM Quantity = 6
;T03 Holesize 3. = 0.450000 Tolerance = +0.000000/-0.000000 PLATED MM Quantity = 24
;T04 Holesize 4. = 0.700000 Tolerance = +0.000000/-0.000000 PLATED MM Quantity = 9
;T05 Holesize 5. = 1.100000 Tolerance = +0.000000/-0.000000 PLATED MM Quantity = 22
;T06 Holesize 6. = 2.300000 Tolerance = +0.000000/-0.000000 PLATED MM Quantity = 2
%
G90
T01
X120000Y180000
X450000Y190000
X120000Y610000
X440000Y610000
X450000Y1130000
X450000Y1230000
X440000Y1410000
X440000Y1510000
X210000Y2060000
X300000Y2060000
X160000Y2230000
X150000Y2670000
X100000Y3140000
X460000Y3176110
X460000Y3310000
X100000Y3450000
X456110Y3466110
X460000Y3600000
X270000Y3710000
X980000Y3720000
X830000Y3700000
X980000Y3630000
X980000Y3530000
X980000Y3440000
X830000Y3440000
X830000Y3190000
X730000Y2850000
X990000Y2840000
X935000Y2695000
X935000Y2625000
X960000Y2460000
X750000Y2460000
X650000Y1130000
X740000Y610000
X600000Y610000
X740000Y300000
X1490000Y160000
X1410000Y480000
X1490000Y480000
X1410000Y550000
X1490000Y550000
X1310000Y1010000
X1400000Y1640000
X1405000Y1745000
X1390000Y2450000
X1100000Y2460000
X1185000Y2535000
X1190000Y2640000
X1480000Y2732190
X1480000Y2822330
X1190000Y2880000
X1480000Y2950000
X1480000Y3030000
X1365000Y3050000
X2000000Y3720000
X2000000Y3630000
X2000000Y3530000
X2000000Y3440000
X1610000Y3050000
X1790000Y2910000
X2017810Y2859940
X1927670Y2859940
X1870000Y2720000
X1870000Y2530000
X1870000Y2450000
X2012330Y2370000
X1922190Y2370000
X1812330Y2368780
X1722190Y2368780
X1800000Y1630000
X1800000Y1430000
X1640000Y1120000
X1640000Y920000
X1740000Y800000
X1650000Y550000
X1570000Y550000
X1650000Y480000
X1570000Y480000
X2140000Y160000
X2130000Y790000
X2110000Y1430000
X2110000Y1630000
X2100000Y1980000
X2110000Y2370000
X2070000Y2640000
X2110000Y2860000
X2050000Y3050000
X2330000Y3290000
X2330000Y3690000
X2940000Y3720000
X2940000Y3630000
X2940000Y3530000
X2940000Y3440000
X2860000Y3290000
X3000060Y2912330
X3000060Y2822190
X3000000Y2480000
X2990000Y2080000
X2990000Y1890000
X2800000Y1890000
X2800000Y1670000
X2800000Y1380000
X2560000Y790000
X2570000Y160000
X3270000Y160000
X3170000Y1000000
X3170000Y1430000
X3400000Y1640000
X3395000Y1745000
X3160000Y1750000
X3180000Y2080000
X3047670Y2399360
X3137810Y2399360
X3227670Y2650000
X3317810Y2650000
X3454220Y2698550
X3454220Y2788690
X3450000Y2950100
X3450440Y3022640
X3325000Y3040000
X3960000Y3720000
X3960000Y3630000
X3960000Y3530000
X3960000Y3440000
X3575000Y3040000
X3814520Y2958780
X3724380Y2958780
X3983080Y2957810
X3983080Y2867670
X3930000Y2710000
X3930000Y2640000
X3890000Y2550000
X3740000Y2550000
X3890000Y2390000
X3780000Y2360000
X3690000Y2360000
X3880000Y1970000
X4040000Y1850000
X3590000Y1600000
X4040000Y1530000
X4030000Y1080000
X4030000Y650000
X3700000Y160000
X4410000Y160000
X4420000Y650000
X4200000Y1120000
X4200000Y1250000
X4080000Y2470000
X4390000Y2980000
X4200000Y3180000
X4200000Y3310000
X4200000Y3470000
X4200000Y3570000
X4390000Y3680000
X4820000Y3680000
X4820000Y3360000
X4830000Y2610000
X4830000Y2180000
X4840000Y1450000
X4840000Y1020000
X4850000Y650000
X4840000Y160000
T02
X1310000Y2050000
X1310000Y2160000
X1310000Y2270000
X3450000Y2280000
X3450000Y2170000
X3450000Y2060000
T03
X1215000Y3257000
X1265000Y3330000
X1315000Y3257000
X1365000Y3330000
X1415000Y3257000
X1465000Y3330000
X1515000Y3257000
X1565000Y3330000
X1615000Y3257000
X1665000Y3330000
X1715000Y3257000
X1765000Y3330000
X3175000Y3257000
X3225000Y3330000
X3275000Y3257000
X3325000Y3330000
X3375000Y3257000
X3425000Y3330000
X3475000Y3257000
X3525000Y3330000
X3575000Y3257000
X3625000Y3330000
X3675000Y3257000
X3725000Y3330000
T04
X4380000Y1970000
X4530000Y2020000
X4380000Y2170000
X4530000Y2270000
X4380000Y2370000
X4530000Y2470000
X4380000Y2570000
X4380000Y2770000
X4530000Y2720000
T05
X880000Y1172000
X880000Y1426000
X880000Y1680000
X2330000Y1142000
X2330000Y1396000
X2330000Y1650000
X2330000Y1904000
X2330000Y2158000
X2330000Y2412000
X2330000Y2666000
X2330000Y2920000
X2584000Y2920000
X2584000Y2666000
X2584000Y2412000
X2584000Y2158000
X2584000Y1904000
X2584000Y1650000
X2584000Y1396000
X2584000Y1142000
X3850000Y1172000
X3850000Y1426000
X3850000Y1680000
T06
X4740000Y1720000
X4740000Y3030000
M30
