G04 ================== begin FILE IDENTIFICATION RECORD ==================*
G04 Layout Name:  STLINKV3_PINOUT_V11_211202.brd*
G04 Film Name:    PasteMask_Top*
G04 File Format:  Gerber RS274X*
G04 File Origin:  Cadence Allegro 17.2-S071*
G04 Origin Date:  Thu Dec 02 19:58:54 2021*
G04 *
G04 Layer:  PIN/PASTEMASK_TOP*
G04 Layer:  PACKAGE GEOMETRY/PASTEMASK_TOP*
G04 *
G04 Offset:    (0.0000 0.0000)*
G04 Mirror:    No*
G04 Mode:      Positive*
G04 Rotation:  0*
G04 FullContactRelief:  No*
G04 UndefLineWidth:     0.1524*
G04 ================== end FILE IDENTIFICATION RECORD ====================*
%FSLAX55Y55*MOMM*%
%IR0*IPPOS*OFA0.00000B0.00000*MIA0B0*SFA1.00000B1.00000*%
%ADD10R,.8X1.4*%
%ADD12R,1.52X.25*%
%ADD11R,.5X.6*%
%LPD*%
G75*
G54D10*
X1389000Y731000D03*
X1262000D03*
X1135000D03*
Y2261000D03*
X1262000D03*
X1389000D03*
X1897000Y731000D03*
X1770000D03*
X1643000D03*
X1516000D03*
Y2261000D03*
X1643000D03*
X1770000D03*
X1897000D03*
X2532000Y731000D03*
X2405000D03*
X2278000D03*
X2151000D03*
X2024000D03*
Y2261000D03*
X2151000D03*
X2278000D03*
X2405000D03*
X2532000D03*
X3040000Y731000D03*
X2913000D03*
X2786000D03*
X2659000D03*
Y2261000D03*
X2786000D03*
X2913000D03*
X3040000D03*
G54D11*
X3255000Y1100000D03*
X3345000D03*
Y980000D03*
X3255000D03*
X3565000Y1920000D03*
X3445000D03*
X3355000D03*
X3655000D03*
X3775000D03*
X3865000D03*
G54D12*
X3300000Y1607500D03*
Y1542500D03*
Y1477500D03*
Y1412500D03*
Y1347500D03*
Y1282500D03*
Y1217500D03*
Y1802500D03*
Y1737500D03*
Y1672500D03*
X3920000Y1217500D03*
Y1282500D03*
Y1347500D03*
Y1412500D03*
Y1477500D03*
Y1542500D03*
Y1607500D03*
Y1672500D03*
Y1737500D03*
Y1802500D03*
M02*
