M48
METRIC,TZ
T01C.3048
T02C.6
T03C.9
T04C1.1
;LEADER: 12 
;HEADER: 
;CODE  : ASCII 
;FILE  : STLINKV3_PINOUT_V11_211202-1-2.drl for board G:/github/MBED-TOOLS/HARDWARE/STLINKV3_PINOUT_V11_211202/PCB/#Taaaafg13776.tmp ... layers TOP and BOTTOM
;T01 Holesize 1. = 0.304800 Tolerance = +0.000000/-0.000000 PLATED MM Quantity = 41
;T02 Holesize 2. = 0.600000 Tolerance = +0.000000/-0.000000 PLATED MM Quantity = 10
;T03 Holesize 3. = 0.900000 Tolerance = +0.000000/-0.000000 PLATED MM Quantity = 10
;T04 Holesize 4. = 1.100000 Tolerance = +0.000000/-0.000000 PLATED MM Quantity = 4
%
G90
T01
X191680Y1118930
X191680Y1518930
X191680Y1918930
X591680Y1118930
X991680Y1118930
X591680Y1518930
X991680Y1518930
X591680Y1918930
X991680Y1918930
X1389000Y2101000
X1260000Y2100000
X1391680Y1918930
X1391680Y1518930
X1391680Y1118930
X1791680Y1118930
X1791680Y1518930
X1791680Y1918930
X2810000Y230000
X2870000Y2660000
X3300000Y2660000
X3410000Y2070000
X3445000Y1840000
X3445000Y1095000
X3350000Y870000
X3190000Y720000
X3280000Y220000
X3760000Y750000
X3770000Y1220000
X3762500Y1347500
X3762500Y1542500
X3580000Y1607500
X3840000Y2070000
X4300000Y2880000
X4730000Y2880000
X4750000Y2580000
X4700000Y2140000
X4700000Y1960000
X4980000Y1390000
X4970000Y740000
X4680000Y740000
X4680000Y230000
T02
X4686500Y1242000
X4813500Y1242000
X4686500Y1369000
X4686500Y1496000
X4813500Y1369000
X4813500Y1496000
X4686500Y1623000
X4686500Y1750000
X4813500Y1623000
X4813500Y1750000
T03
X4350000Y371000
X4350000Y621000
X4350000Y871000
X4350000Y1121000
X4350000Y1371000
X4350000Y1621000
X4350000Y1871000
X4350000Y2121000
X4350000Y2371000
X4350000Y2621000
T04
X4960000Y240000
X4960000Y494000
X4960000Y2500000
X4960000Y2754000
M30
