G04 ================== begin FILE IDENTIFICATION RECORD ==================*
G04 Layout Name:  STLINKV3_PINOUT_V11_211202.brd*
G04 Film Name:    TOP*
G04 File Format:  Gerber RS274X*
G04 File Origin:  Cadence Allegro 17.2-S071*
G04 Origin Date:  Thu Dec 02 19:58:54 2021*
G04 *
G04 Layer:  VIA CLASS/TOP*
G04 Layer:  PIN/TOP*
G04 Layer:  ETCH/TOP*
G04 *
G04 Offset:    (0.0000 0.0000)*
G04 Mirror:    No*
G04 Mode:      Positive*
G04 Rotation:  0*
G04 FullContactRelief:  No*
G04 UndefLineWidth:     0.1524*
G04 ================== end FILE IDENTIFICATION RECORD ====================*
%FSLAX55Y55*MOMM*%
%IR0*IPPOS*OFA0.00000B0.00000*MIA0B0*SFA1.00000B1.00000*%
%ADD11R,.8X1.4*%
%ADD13R,1.52X.25*%
%ADD10C,.6096*%
%ADD16C,1.*%
%ADD12R,.5X.6*%
%ADD14C,1.6*%
%ADD15R,1.X1.*%
%ADD19C,1.8*%
%ADD17R,1.6X1.6*%
%ADD18R,1.8X1.8*%
%ADD20C,.2032*%
%ADD21C,.254*%
%ADD22C,3.6004*%
G75*
%LPD*%
G75*
G36*
G01X2840000Y2970000D02*
X5000000D01*
G02X5070000Y2900000I0J-70000D01*
G01Y2881720D01*
G02X5038000Y2865090I-20320J-2D01*
G03X4960000Y2889740I-78000J-111083D01*
G03X4824260Y2754000I0J-135740D01*
G03X4858470Y2663900I135742J-5D01*
G02X4851500Y2631830I-15195J-13490D01*
G03X4824260Y2590000I18497J-41830D01*
G01Y2410000D01*
G03X4870000Y2364260I45740J0D01*
G01X4901560D01*
Y1844240D01*
G02X4869380Y1827740I-20320J-1D01*
G03X4813500Y1845740I-55880J-77738D01*
G03X4802890Y1845150I2J-95740D01*
G01X4798040Y1844610D01*
X4761320Y1881320D01*
G03X4720000Y1898440I-41326J-41318D01*
G01X4577730D01*
G03X4536410Y1881320I6J-58438D01*
G01X4510420Y1855340D01*
G02X4475740Y1869890I-14364J14369D01*
G01Y1871000D01*
G03X4415040Y1978610I-125736J0D01*
G02Y2013390I10514J17390D01*
G03Y2228610I-65036J107610D01*
G02Y2263390I10514J17390D01*
G03X4475740Y2371000I-65036J107610D01*
G03X4224260I-125740J0D01*
G03X4284960Y2263390I125736J0D01*
G02Y2228610I-10514J-17390D01*
G03Y2013390I65036J-107610D01*
G02Y1978610I-10514J-17390D01*
G03X4224260Y1871000I65036J-107610D01*
G03X4233420Y1823880I125741J-7D01*
G02X4214590Y1795940I-18835J-7621D01*
G01X4041740D01*
Y1815000D01*
G03X3996000Y1860740I-45740J0D01*
G01X3865450D01*
G02X3845320Y1883810I2J20319D01*
G03X3845740Y1890000I-45320J6184D01*
G01Y1950000D01*
G03X3800000Y1995740I-45740J0D01*
G01X3750000D01*
G03X3721360Y1985660I0J-45727D01*
G02X3708640I-6360J7927D01*
G03X3680000Y1995740I-28640J-35647D01*
G01X3540000D01*
G03X3511360Y1985660I0J-45727D01*
G02X3498640I-6360J7927D01*
G03X3470000Y1995740I-28640J-35647D01*
G01X3420000D01*
G03X3374260Y1950000I0J-45740D01*
G01Y1890000D01*
G03X3376990Y1874420I45742J-14D01*
G03X3373820Y1867270I68005J-34428D01*
G01X3371320Y1860740D01*
X3224000D01*
G03X3178260Y1815000I0J-45740D01*
G01Y1790000D01*
G03X3182860Y1770000I45742J-8D01*
G03X3178260Y1750000I41142J-19992D01*
G01Y1725000D01*
G03X3182860Y1705000I45742J-8D01*
G03X3178260Y1685000I41142J-19992D01*
G01Y1660000D01*
G03X3182860Y1640000I45742J-8D01*
G03X3178260Y1620000I41142J-19992D01*
G01Y1595000D01*
G03X3182860Y1575000I45742J-8D01*
G03X3178260Y1555000I41142J-19992D01*
G01Y1530000D01*
G03X3182860Y1510000I45742J-8D01*
G03X3178260Y1490000I41142J-19992D01*
G01Y1465000D01*
G03X3182860Y1445000I45742J-8D01*
G03X3178260Y1425000I41142J-19992D01*
G01Y1400000D01*
G03X3182860Y1380000I45742J-8D01*
G03X3178260Y1360000I41142J-19992D01*
G01Y1335000D01*
G03X3182860Y1315000I45742J-8D01*
G03X3178260Y1295000I41142J-19992D01*
G01Y1205000D01*
G03X3192730Y1171620I45736J0D01*
G02X3193820Y1157990I-6946J-7414D01*
G03X3184260Y1130000I36182J-27985D01*
G01Y1070000D01*
G03X3195470Y1040000I45748J0D01*
G03X3184260Y1010000I34538J-30000D01*
G01Y950000D01*
G03X3230000Y904260I45740J0D01*
G01X3280000D01*
G03X3325740Y950000I0J45740D01*
G01Y1010000D01*
G03X3325620Y1013350I-45741J39D01*
G01X3325590Y1013730D01*
Y1024260D01*
X3370000D01*
G03X3398740Y1034420I0J45729D01*
G03X3444040Y1018790I46250J60584D01*
G02X3464100Y998470I-261J-20319D01*
G01Y823150D01*
X3306850Y665900D01*
X3125740D01*
Y801000D01*
G03X3124640Y810980I-45741J9D01*
G03X3150020Y860000I-34650J49020D01*
G01Y2130000D01*
G03X3124220Y2179310I-60022J0D01*
G03X3125740Y2191000I-44220J11693D01*
G01Y2331000D01*
G03X3080000Y2376740I-45740J0D01*
G01X2238000D01*
G03X2192260Y2331000I0J-45740D01*
G01Y2190020D01*
X2109740D01*
Y2331000D01*
G03X2064000Y2376740I-45740J0D01*
G01X1984000D01*
G03X1938260Y2331000I0J-45740D01*
G01Y2191000D01*
G03X1955530Y2155200I45741J0D01*
G03X1949980Y2130000I54468J-25207D01*
G01Y860000D01*
G03X1950040Y857280I60021J-37D01*
G02X1939370Y846680I-10149J-455D01*
G03X1937000Y846740I-2342J-45681D01*
G01X1730000D01*
G03X1684260Y801000I0J-45740D01*
G01Y661000D01*
G03X1684380Y657690I45740J1D01*
G02X1664110Y635900I-20266J-1470D01*
G01X1653150D01*
X1601740Y687310D01*
Y801000D01*
G03X1556000Y846740I-45740J0D01*
G01X1095000D01*
G03X1049260Y801000I0J-45740D01*
G01Y661000D01*
G03X1095000Y615260I45740J0D01*
G01X1515690D01*
X1546260Y584690D01*
G02X1531890Y550000I-14369J-14369D01*
G01X740000D01*
G03X610000Y420000I0J-130000D01*
G01Y320000D01*
G02X30000I-290000J0D01*
G01Y2680000D01*
G02X610000I290000J0D01*
G01Y2580000D01*
G03X740000Y2450000I130000J0D01*
G01X2420000D01*
G03X2550000Y2580000I0J130000D01*
G01Y2680000D01*
G02X2840000Y2970000I290000J0D01*
G37*
G36*
G01X2004820Y800200D02*
G03X2010000Y799980I5135J59802D01*
G01X2065260D01*
Y661000D01*
G03X2065380Y657690I45740J1D01*
G02X2045110Y635900I-20266J-1470D01*
G01X2002890D01*
G02X1982620Y657690I-4J20320D01*
G03X1982740Y661000I-45620J3311D01*
G01Y779960D01*
G02X2004820Y800200I20318J-2D01*
G37*
G36*
G01X5050000Y2364260D02*
G03X5058050Y2364970I22J45742D01*
G01X5058940Y2365130D01*
X5070000D01*
Y374870D01*
X5058940D01*
X5058050Y375030D01*
G03X5050000Y375740I-8028J-45032D01*
G01X4870000D01*
G03X4824260Y330000I0J-45740D01*
G01Y150000D01*
G03X4870000Y104260I45740J0D01*
G01X5050000D01*
G03X5057880Y104940I22J45742D01*
G02X5069750Y94080I1747J-10007D01*
G02X5000000Y30000I-69750J5921D01*
G01X2840000D01*
G02X2550000Y320000I0J290000D01*
G01Y420000D01*
G03X2527940Y492460I-130003J9D01*
G02X2544810Y524100I16871J11322D01*
G01X2576850D01*
X2637150Y463790D01*
G03X2676680Y447420I39530J39543D01*
G01X3374190D01*
G03X3413720Y463790I0J55913D01*
G01X3666210Y716280D01*
G03X3682580Y755810I-39543J39530D01*
G01Y1271550D01*
G02X3715440Y1287540I20319J3D01*
G03X3762500Y1271280I47060J59971D01*
G03X3776530Y1272580I13J76221D01*
G02X3799870Y1257960I3739J-19971D01*
G03X3844000Y1224260I44130J12044D01*
G01X3996000D01*
G03X4012190Y1227220I3J45741D01*
G01X4018330Y1229540D01*
X4041560Y1206310D01*
Y621000D01*
G03X4058680Y579680I58438J6D01*
G01X4229840Y408510D01*
X4228370Y402870D01*
G03X4224260Y371000I121628J-31885D01*
G03X4475740I125740J0D01*
G03X4468070Y414250I-125741J6D01*
G02X4487150Y441560I19078J6991D01*
G01X4500000D01*
G03X4541320Y458680I-6J58438D01*
G01X4611320Y528680D01*
G03X4628440Y570000I-41318J41326D01*
G01Y1146260D01*
X4736500D01*
G03X4767270Y1158160I0J45731D01*
G03X4813500Y1146260I46230J83849D01*
G03X4909240Y1242000I0J95740D01*
G03X4885150Y1305500I-95736J0D01*
G03X4909240Y1369000I-71646J63500D01*
G03X4898150Y1413730I-95751J0D01*
G02X4908340Y1442000I17964J9496D01*
G03X4927320Y1454680I-22348J53996D01*
G01X5001320Y1528680D01*
G03X5018440Y1570000I-41318J41326D01*
G01Y2364260D01*
X5050000D01*
G37*
G36*
G01X4249080Y992810D02*
Y1249190D01*
G02X4280610Y1266140I20320J3D01*
G03X4350000Y1245260I69390J104861D01*
G03X4391960Y1252470I-6J125739D01*
G02X4419060Y1233310I6780J-19156D01*
G01Y1022710D01*
X4387510Y991160D01*
X4381870Y992630D01*
G03X4350000Y996740I-31885J-121628D01*
G03X4280610Y975860I0J-125741D01*
G02X4249080Y992810I-11210J16947D01*
G37*
G36*
G01X4601940Y1781560D02*
X4695790D01*
X4718100Y1759250D01*
X4717880Y1754750D01*
G03X4717760Y1750000I95619J-4792D01*
G03X4718230Y1740500I95741J-25D01*
G02X4696000Y1718270I-20217J-2013D01*
G03X4686500Y1718740I-9475J-95271D01*
G03X4590760Y1623000I0J-95740D01*
G03X4614850Y1559500I95736J0D01*
G03X4590760Y1496000I71646J-63500D01*
G03X4591070Y1488280I95741J-22D01*
G01X4591450Y1483600D01*
X4570630Y1462770D01*
G02X4535940Y1477140I-14369J14370D01*
G01Y1715560D01*
X4601940Y1781560D01*
G37*
G36*
G01X4133930Y1679060D02*
X4419060D01*
Y1508690D01*
G02X4391960Y1489530I-20320J-4D01*
G03X4350000Y1496740I-41966J-118529D01*
G03X4318130Y1492630I15J-125738D01*
G01X4312490Y1491160D01*
X4154820Y1648820D01*
G03X4139560Y1659810I-41337J-41308D01*
G01X4133930Y1662610D01*
Y1679060D01*
G37*
%LPC*%
G75*
G36*
G01X1557260Y2191000D02*
Y2331000D01*
G02X1603000Y2376740I45740J0D01*
G01X1683000D01*
G02X1728740Y2331000I0J-45740D01*
G01Y2191000D01*
G02X1683000Y2145260I-45740J0D01*
G01X1603000D01*
G02X1557260Y2191000I0J45740D01*
G37*
G36*
G01X1049260D02*
Y2331000D01*
G02X1095000Y2376740I45740J0D01*
G01X1429000D01*
G02X1474740Y2331000I0J-45740D01*
G01Y2191000D01*
G02X1456460Y2154420I-45740J0D01*
G03X1453900Y2140960I6093J-8132D01*
G02X1465220Y2101000I-64898J-39968D01*
G02X1389000Y2024780I-76220J0D01*
G02X1338520Y2043900I7J76217D01*
G03X1311360Y2043690I-13463J-15224D01*
G02X1260000Y2023780I-51367J56307D01*
G02X1183780Y2100000I0J76220D01*
G02X1186370Y2119690I76219J-10D01*
G03X1166740Y2145260I-19631J5249D01*
G01X1095000D01*
G02X1049260Y2191000I0J45740D01*
G37*
G54D22*
X320000Y2680000D03*
X3640000D03*
X320000Y320000D03*
X3640000D03*
%LPD*%
G75*
G54D10*
X191680Y1118930D03*
Y1518930D03*
Y1918930D03*
X591680Y1118930D03*
Y1518930D03*
Y1918930D03*
X991680Y1118930D03*
X1391680D03*
X991680Y1518930D03*
X1391680D03*
X991680Y1918930D03*
X1391680D03*
X1389000Y2101000D03*
X1260000Y2100000D03*
X1791680Y1118930D03*
Y1518930D03*
Y1918930D03*
X2810000Y230000D03*
X2870000Y2660000D03*
X3280000Y220000D03*
X3350000Y870000D03*
X3190000Y720000D03*
X3445000Y1095000D03*
X3580000Y1607500D03*
X3410000Y2070000D03*
X3445000Y1840000D03*
X3300000Y2660000D03*
X3760000Y750000D03*
X3770000Y1220000D03*
X3762500Y1542500D03*
Y1347500D03*
X3840000Y2070000D03*
X4680000Y230000D03*
Y740000D03*
X4700000Y1960000D03*
Y2140000D03*
X4300000Y2880000D03*
X4970000Y740000D03*
X4980000Y1390000D03*
X4750000Y2580000D03*
X4730000Y2880000D03*
G54D20*
G01X1260000Y2100000D02*
Y2259000D01*
X1262000Y2261000D01*
G01X1516000Y731000D02*
Y694000D01*
X1630000Y580000D01*
X2600000D01*
X2676680Y503320D01*
X3374190D01*
X3626680Y755810D01*
Y1383310D01*
X3467490Y1542500D01*
X3300000D01*
G01X2532000Y731000D02*
Y712070D01*
X2705190Y538880D01*
X3359460D01*
X3591120Y770540D01*
Y1328880D01*
X3442500Y1477500D01*
X3300000D01*
G01X2659000Y731000D02*
Y712070D01*
X2796630Y574440D01*
X3344730D01*
X3555560Y785270D01*
Y1284450D01*
X3427510Y1412500D01*
X3300000D01*
G01X2913000Y731000D02*
Y687000D01*
X2990000Y610000D01*
X3330000D01*
X3520000Y800000D01*
Y1240000D01*
X3412500Y1347500D01*
X3300000D01*
G01X3255000Y980000D02*
Y1100000D01*
G01X3300000Y1217500D02*
X3255000D01*
Y1100000D01*
G01X3300000Y1607500D02*
X3580000D01*
G54D11*
X1389000Y731000D03*
X1262000D03*
X1135000D03*
Y2261000D03*
X1262000D03*
X1389000D03*
X1897000Y731000D03*
X1770000D03*
X1643000D03*
X1516000D03*
Y2261000D03*
X1643000D03*
X1770000D03*
X1897000D03*
X2532000Y731000D03*
X2405000D03*
X2278000D03*
X2151000D03*
X2024000D03*
Y2261000D03*
X2151000D03*
X2278000D03*
X2405000D03*
X2532000D03*
X3040000Y731000D03*
X2913000D03*
X2786000D03*
X2659000D03*
Y2261000D03*
X2786000D03*
X2913000D03*
X3040000D03*
G54D21*
G01X1389000D02*
Y2101000D01*
G01X1643000Y731000D02*
Y687000D01*
G01D02*
X1700000Y630000D01*
X1970000D01*
X2024000Y684000D01*
G01D02*
Y731000D01*
G01X3445000Y1095000D02*
X3350000D01*
X3345000Y1100000D01*
G01X3445000Y1920000D02*
X3565000D01*
G01X3445000D02*
Y1840000D01*
G01D02*
Y1765000D01*
X3417500Y1737500D01*
X3300000D01*
G01X4350000Y371000D02*
X4100000Y621000D01*
Y1230520D01*
X3983020Y1347500D01*
X3920000D01*
G01Y1217500D02*
Y1180000D01*
G01Y1542500D02*
X3762500D01*
G01X4350000Y621000D02*
X4190640Y780360D01*
Y1326840D01*
X4039980Y1477500D01*
X3920000D01*
G01Y1412500D02*
X4017500D01*
X4150000Y1280000D01*
Y650000D01*
X4300000Y500000D01*
X4500000D01*
X4570000Y570000D01*
Y1272200D01*
X4666800Y1369000D01*
X4686500D01*
G01X3920000Y1347500D02*
X3762500D01*
G01X3920000Y1607500D02*
X4113500D01*
X4350000Y1371000D01*
G01X3920000Y1737500D02*
X3821100D01*
X3775000Y1783600D01*
Y1920000D01*
G01D02*
X3655000D01*
G01X4477500Y1739770D02*
X4475230Y1737500D01*
X3920000D01*
G01X4350000Y621000D02*
X4520000Y791000D01*
Y1329500D01*
X4686500Y1496000D01*
G01X4477500Y1739770D02*
Y998500D01*
X4350000Y871000D01*
G01X4813500Y1750000D02*
X4810000D01*
X4720000Y1840000D01*
X4577730D01*
X4477500Y1739770D01*
G01X4960000Y2500000D02*
Y1570000D01*
X4886000Y1496000D01*
X4813500D01*
G54D12*
X3255000Y1100000D03*
X3345000D03*
Y980000D03*
X3255000D03*
X3565000Y1920000D03*
X3445000D03*
X3355000D03*
X3655000D03*
X3775000D03*
X3865000D03*
G54D13*
X3300000Y1607500D03*
Y1542500D03*
Y1477500D03*
Y1412500D03*
Y1347500D03*
Y1282500D03*
Y1217500D03*
Y1802500D03*
Y1737500D03*
Y1672500D03*
X3920000Y1217500D03*
Y1282500D03*
Y1347500D03*
Y1412500D03*
Y1477500D03*
Y1542500D03*
Y1607500D03*
Y1672500D03*
Y1737500D03*
Y1802500D03*
G54D14*
X4350000Y371000D03*
Y621000D03*
Y871000D03*
Y1121000D03*
Y1371000D03*
Y1621000D03*
Y1871000D03*
Y2121000D03*
Y2371000D03*
G54D15*
X4686500Y1242000D03*
G54D16*
Y1623000D03*
Y1496000D03*
Y1369000D03*
Y1750000D03*
X4813500Y1623000D03*
Y1496000D03*
Y1369000D03*
Y1242000D03*
Y1750000D03*
G54D17*
X4350000Y2621000D03*
G54D18*
X4960000Y240000D03*
Y2500000D03*
G54D19*
Y494000D03*
Y2754000D03*
M02*
