G04 ================== begin FILE IDENTIFICATION RECORD ==================*
G04 Layout Name:  HY_5328_V10_250909.brd*
G04 Film Name:    BOTTOM*
G04 File Format:  Gerber RS274X*
G04 File Origin:  Cadence Allegro 24.1-S006*
G04 Origin Date:  Mon Sep 15 15:44:22 2025*
G04 *
G04 Layer:  ETCH/BOTTOM*
G04 Layer:  PIN/BOTTOM*
G04 Layer:  VIA CLASS/BOTTOM*
G04 *
G04 Offset:    (0.0000 0.0000)*
G04 Mirror:    No*
G04 Mode:      Positive*
G04 Rotation:  0*
G04 FullContactRelief:  No*
G04 UndefLineWidth:     0.1524*
G04 ================== end FILE IDENTIFICATION RECORD ====================*
%FSLAX55Y55*MOMM*%
%IR0*IPPOS*OFA0.00000B0.00000*MIA0B0*SFA1.00000B1.00000*%
%ADD15R,.3X1.2*%
%ADD13R,.6X1.2*%
%ADD12C,.508*%
%ADD11O,1.X2.1*%
%ADD22R,1.X3.*%
%ADD21R,2.X3.*%
%ADD10O,1.X1.6*%
%ADD23R,1.2X3.*%
%ADD19O,1.2X2.4*%
%ADD20R,2.3X3.7*%
%ADD17C,5.4*%
%ADD16C,1.8*%
%ADD14C,1.65*%
%ADD18R,1.8X1.8*%
%ADD24C,.2032*%
%ADD25C,.254*%
%ADD26C,1.2004*%
G75*
%LPD*%
G75*
G36*
G01X1326110Y2070000D02*
X2659660D01*
Y1970340D01*
X1949660D01*
Y1509660D01*
X2260340D01*
Y1709660D01*
X2293660D01*
X2294800Y1700800D01*
G03X2351590Y1644000I65201J8399D01*
G01X2355030Y1643560D01*
X2404290Y1594290D01*
G03X2440000Y1579500I35710J35715D01*
G01X2779080D01*
X2849500Y1509080D01*
Y1180340D01*
X2660000D01*
G03X2635900Y1172350I0J-40341D01*
G01X2633200Y1170340D01*
X2586800D01*
X2584100Y1172350D01*
G03X2560000Y1180340I-24100J-32351D01*
G01X2260000D01*
G03X2219660Y1140000I0J-40340D01*
G01Y840000D01*
G03X2260000Y799660I40340J0D01*
G01X2328910D01*
X2340890Y787680D01*
G02X2333700Y770340I-7187J-7181D01*
G01X1750510D01*
G02X1733860Y802310I0J20320D01*
G03X1745740Y840000I-53847J37690D01*
G03X1680000Y905740I-65740J0D01*
G03X1617410Y860090I0J-65733D01*
G01X1615140Y853040D01*
X1010340D01*
Y896710D01*
X906710Y1000340D01*
X423290D01*
X379660Y956710D01*
Y926170D01*
X378940Y924350D01*
G03X374260Y900000I61058J-24360D01*
G03X378940Y875650I65738J10D01*
G01X379660Y873830D01*
Y866170D01*
X378940Y864350D01*
G03X374260Y840000I61058J-24360D01*
G03X378940Y815650I65738J10D01*
G01X379660Y813830D01*
Y549660D01*
X402300D01*
Y532660D01*
X395960Y530090D01*
G03X370980Y493000I15045J-37090D01*
G03X411000Y452980I40020J0D01*
G03X430380Y457990I-8J40018D01*
G02X460240Y443700I9840J-17780D01*
G03X525000Y389260I64760J11298D01*
G03X590740Y455000I0J65740D01*
G03X577540Y494510I-65730J0D01*
G01X575500Y497230D01*
Y508550D01*
G02X592840Y515740I10159J3D01*
G01X614290Y494290D01*
G03X650000Y479500I35710J35715D01*
G01X679180D01*
Y453970D01*
X672610Y451490D01*
G03X630130Y390000I23264J-61490D01*
G03X695870Y324260I65740J0D01*
G03X742750Y343920I-6J65738D01*
G02X757250I7250J-7125D01*
G03X804130Y324260I46886J46078D01*
G03X869380Y381990I0J65740D01*
G02X896740Y398510I20167J-2483D01*
G03X920000Y394260I23254J61491D01*
G03X985380Y453140I0J65739D01*
G03X989000Y452980I3575J39862D01*
G03X1029020Y493000I0J40020D01*
G03X1010340Y526860I-40028J0D01*
G01Y746960D01*
X1189660D01*
Y573290D01*
X1223290Y539660D01*
X1949100D01*
G02X1968200Y512410I-2J-20320D01*
G03X1964260Y490000I61799J-22416D01*
G03X2030000Y424260I65740J0D01*
G03X2093260Y472110I0J65741D01*
G01X2095350Y479500D01*
X2463380D01*
G02X2481470Y449930I-3J-20320D01*
G03X2474260Y420000I58517J-29930D01*
G03X2540000Y354260I65740J0D01*
G03X2581710Y369180I7J65742D01*
G02X2607490I12890J-15701D01*
G03X2649200Y354260I41703J50822D01*
G03X2691290Y369500I0J65742D01*
G01X2870980D01*
G02X2890790Y344650I3J-20319D01*
G03X2889140Y330000I64092J-14636D01*
G03X2954880Y264260I65740J0D01*
G03X2996970Y279500I0J65742D01*
G01X3060000D01*
G03X3095710Y294290I0J50505D01*
G01X3195710Y394290D01*
G03X3210500Y430000I-35715J35710D01*
G01Y680000D01*
G03X3195710Y715710I-50505J0D01*
G01X3120500Y790920D01*
Y1020000D01*
X3260000D01*
G02X3270000Y1010000I0J-10000D01*
G01Y40000D01*
G02X3260000Y30000I-10000J0D01*
G01X40000D01*
G02X30000Y40000I0J10000D01*
G01Y1010000D01*
G02X40000Y1020000I10000J0D01*
G01X160000D01*
G03X230000Y1090000I0J70000D01*
G01Y1160000D01*
G03X160000Y1230000I-70000J0D01*
G01X40000D01*
G02X30000Y1240000I0J10000D01*
G01Y2060000D01*
G02X40000Y2070000I10000J0D01*
G01X1039660D01*
Y1553040D01*
X611970D01*
X588040Y1576970D01*
Y1736160D01*
G03X600740Y1775000I-53042J38840D01*
G03X469260I-65740J0D01*
G03X481960Y1736160I65742J0D01*
G01Y1555000D01*
G03X497500Y1517500I53037J8D01*
G01X552500Y1462500D01*
G03X590000Y1446960I37508J37497D01*
G01X1568030D01*
X1706960Y1308030D01*
Y1198840D01*
G03X1694260Y1160000I53042J-38840D01*
G03X1755580Y1094410I65739J0D01*
G01X1759380Y1094150D01*
X1769260Y1084270D01*
X1750040Y1065050D01*
X1747030Y1064450D01*
G03X1694260Y1000000I12973J-64450D01*
G03X1760000Y934260I65740J0D01*
G03X1824450Y987030I0J65743D01*
G01X1825050Y990040D01*
X1867500Y1032500D01*
G03X1883040Y1070000I-37497J37508D01*
G01Y1360000D01*
G03X1867500Y1397500I-53037J-8D01*
G01X1670340Y1594670D01*
Y1970340D01*
X1376710D01*
X1311740Y2035310D01*
G02X1326110Y2070000I14366J14370D01*
G37*
G36*
G01X440000Y960000D02*
X890000D01*
X970000Y880000D01*
Y745400D01*
X965910Y742360D01*
G03X956750Y732840I24097J-32353D01*
G02X923250I-16750J11505D01*
G03X903350Y748070I-33255J-22836D01*
G01X901170Y748830D01*
X880000Y770000D01*
X816100D01*
X790390Y795710D01*
G03X754680Y810500I-35710J-35715D01*
G01X695320D01*
G03X659610Y795710I0J-50505D01*
G01X633900Y770000D01*
X510000D01*
X480000Y740000D01*
Y737190D01*
X477920Y734460D01*
G03X476750Y732840I32108J-24421D01*
G02X443250I-16750J11505D01*
G03X426100Y746990I-33254J-22836D01*
G01X420000Y749640D01*
Y940000D01*
X440000Y960000D01*
G37*
G36*
G01X2825260Y1130000D02*
X2849500D01*
Y609500D01*
X2820500Y580500D01*
X2070000D01*
G03X2063530Y580080I29J-50498D01*
G01X2062880Y580000D01*
X1240000D01*
X1230000Y590000D01*
Y710000D01*
X1250000Y730000D01*
X2491330D01*
X2493300Y729120D01*
G03X2520000Y723460I26687J60083D01*
G03X2546700Y729120I13J65743D01*
G01X2548670Y730000D01*
X2573060D01*
X2574920Y729230D01*
G03X2600000Y724260I25075J60771D01*
G03X2625080Y729230I5J65741D01*
G01X2626940Y730000D01*
X2630000D01*
X2633310Y733310D01*
X2634340Y733940D01*
G03X2656060Y755660I-34340J56060D01*
G01X2656690Y756690D01*
X2660000Y760000D01*
Y763060D01*
X2660770Y764920D01*
G03X2665740Y790000I-60771J25075D01*
G03X2660770Y815080I-65741J5D01*
G01X2660000Y816940D01*
Y1130000D01*
X2694740D01*
X2695330Y1129930D01*
G03X2700000Y1129660I4660J40071D01*
G01X2820000D01*
G03X2824670Y1129930I10J40341D01*
G01X2825260Y1130000D01*
G37*
G36*
G01X1080000Y2006960D02*
X1283040D01*
X1360000Y1930000D01*
X1630000D01*
Y1550000D01*
X1607770D01*
X1606250Y1550490D01*
G03X1590000Y1553040I-16250J-50502D01*
G01X1106960D01*
X1080000Y1580000D01*
Y2006960D01*
G37*
G36*
G01X1990000Y1930000D02*
X2650000D01*
X2659660Y1920340D01*
Y1700000D01*
X2480000D01*
X2430000Y1750000D01*
X2411550D01*
G03X2360000Y1774940I-51550J-40806D01*
G03X2320520Y1761770I-6J-65742D01*
G03X2280000Y1775740I-40520J-51779D01*
G03X2214260Y1710000I0J-65740D01*
G01Y1660000D01*
G03X2219230Y1634920I65741J-5D01*
G01X2220000Y1633060D01*
Y1550000D01*
X1990000D01*
Y1930000D01*
G37*
G36*
G01X2700000Y2006960D02*
X3013040D01*
X3020000Y2000000D01*
Y1843240D01*
X2977500D01*
G03X2927350Y1820000I0J-65730D01*
G01X2926870D01*
G03X2900000Y1825740I-26866J-60001D01*
G03X2874920Y1820770I-5J-65741D01*
G01X2873060Y1820000D01*
X2850000D01*
X2820000Y1790000D01*
Y1730000D01*
X2710340D01*
Y1926710D01*
X2700000Y1937050D01*
Y2006960D01*
G37*
G36*
G01X3056110Y2070000D02*
X3260000D01*
G02X3270000Y2060000I0J-10000D01*
G01Y1240000D01*
G02X3260000Y1230000I-10000J0D01*
G01X3120500D01*
Y1670000D01*
G03X3105710Y1705710I-50505J0D01*
G01X3054090Y1757330D01*
G03X3041290Y1766620I-35696J-35720D01*
G02X3036150Y1799100I9224J18106D01*
G01X3060340Y1823290D01*
Y2016710D01*
X3041740Y2035310D01*
G02X3056110Y2070000I14366J14370D01*
G37*
%LPC*%
G75*
G54D26*
X140000Y1765000D03*
Y1535000D03*
%LPD*%
G75*
G54D10*
X268000Y128000D03*
X1132000D03*
G54D20*
X1515000Y1740000D03*
X2105000D03*
G54D11*
X268000Y546000D03*
X1132000D03*
G54D21*
X2060000Y990000D03*
X2760000D03*
G54D12*
G01X268000Y546000D02*
X372000Y650000D01*
G01D02*
X380000D01*
G01X460000D02*
Y790000D01*
G01X1020000Y650000D02*
X1028000D01*
X1132000Y546000D01*
G01X940000Y650000D02*
Y770000D01*
G01X2330000Y1610000D02*
X2280000Y1660000D01*
G01D02*
Y1710000D01*
G01X2760000Y990000D02*
Y920800D01*
X2709200Y870000D01*
X2680000D01*
G01X3070000Y1780000D02*
X3067500Y1777500D01*
G01D02*
X2977500D01*
X120000Y440000D03*
Y120000D03*
Y980000D03*
Y660000D03*
X440000Y900000D03*
Y840000D03*
X90000Y1650000D03*
X410000D03*
X550000Y120000D03*
X870000D03*
X920000Y460000D03*
X525000Y455000D03*
X695870Y390000D03*
X804130D03*
X503500Y900000D03*
Y840000D03*
X566500Y900000D03*
Y840000D03*
X630000Y900000D03*
Y840000D03*
X700000Y1670000D03*
X535000Y1775000D03*
X700000Y1990000D03*
X1290000Y110000D03*
X1220000Y500000D03*
X1260000Y690000D03*
Y610000D03*
X1360000Y690000D03*
Y610000D03*
X1610000Y110000D03*
X1540000Y500000D03*
X1760000Y910000D03*
X1660000Y950000D03*
X1680000Y840000D03*
X1460000Y690000D03*
Y610000D03*
X1760000Y1160000D03*
Y1000000D03*
X1830000Y1820000D03*
Y1920000D03*
Y2020000D03*
X2180000Y110000D03*
Y430000D03*
X2030000Y490000D03*
X1920000Y1820000D03*
Y1920000D03*
X2280000Y1710000D03*
X1920000Y2020000D03*
X2649200Y420000D03*
X2540000D03*
X2680000Y870000D03*
X2600000Y790000D03*
X2520000Y789200D03*
X2450000Y1220000D03*
X2550000D03*
X2650000D03*
X2750000D03*
X2450000Y1320000D03*
X2550000D03*
X2650000D03*
X2750000D03*
X2450000Y1420000D03*
X2550000D03*
X2650000D03*
X2750000D03*
X2450000Y1520000D03*
X2550000D03*
X2650000D03*
X2750000D03*
X2500000Y1730000D03*
X2563500D03*
X2630000D03*
X2500000Y1800000D03*
X2563500D03*
X2630000D03*
X2500000Y1870000D03*
X2563500D03*
X2630000D03*
X2360000Y1709200D03*
X3190000Y210000D03*
Y80000D03*
X2954880Y330000D03*
X3220000Y980000D03*
X3140000Y800000D03*
X3050000Y640000D03*
X3200000Y1400000D03*
Y1910000D03*
X2977500Y1777500D03*
X2980000Y1920000D03*
X2920000D03*
X2860000D03*
X2980000Y1860000D03*
X2920000D03*
X2860000D03*
X2900020Y1682170D03*
X2899630Y1618670D03*
X2900000Y1760000D03*
X2970000Y1620000D03*
X2980000Y1980000D03*
X2920000D03*
X2860000D03*
G54D22*
X2310000Y990000D03*
X2510000D03*
G54D13*
X380000Y650000D03*
X460000D03*
X940000D03*
X1020000D03*
G54D14*
X110000Y1275000D03*
Y2025000D03*
G54D23*
X2760000Y1320000D03*
Y1860000D03*
G54D24*
G01X920000Y460000D02*
X825000Y555000D01*
Y650000D01*
G01X525000D02*
Y455000D01*
G01X695870Y390000D02*
X729680Y423810D01*
Y530000D01*
G01X804130Y390000D02*
X770320Y423810D01*
Y645320D01*
X775000Y650000D01*
G01X729680Y530000D02*
Y645320D01*
X725000Y650000D01*
G01X729680Y530000D02*
X650000D01*
X625000Y555000D01*
Y650000D01*
G01X775000D02*
Y739680D01*
X754680Y760000D01*
X695320D01*
X675000Y739680D01*
Y650000D01*
G01X2360000Y1709200D02*
X2360800D01*
X2440000Y1630000D01*
X2800000D01*
X2900000Y1530000D01*
Y580000D01*
X2850000Y530000D01*
X2070000D01*
X2030000Y490000D01*
G01X2520000Y789200D02*
X2410790D01*
X2310000Y889990D01*
Y990000D01*
G01X2900020Y1682170D02*
X2902190Y1680000D01*
X2989030D01*
X3030000Y1639030D01*
Y740000D01*
X3114440Y655560D01*
Y504440D01*
X3030000Y420000D01*
X2649200D01*
G01X2899630Y1618670D02*
Y1610370D01*
X2950000Y1560000D01*
Y530000D01*
X2900000Y480000D01*
X2600000D01*
X2540000Y420000D01*
G01X2600000Y790000D02*
X2510000Y880000D01*
Y990000D01*
G01X2900000Y1760000D02*
X2901220D01*
X2939600Y1721620D01*
X3018380D01*
X3070000Y1670000D01*
Y770000D01*
X3160000Y680000D01*
Y430000D01*
X3060000Y330000D01*
X2954880D01*
G01X3050000Y640000D02*
X2990000Y700000D01*
Y1600000D01*
X2970000Y1620000D01*
G54D15*
X525000Y650000D03*
X575000D03*
X625000D03*
X675000D03*
X725000D03*
X775000D03*
X825000D03*
X875000D03*
G54D25*
G01X1760000Y1160000D02*
Y1330000D01*
X1590000Y1500000D01*
X590000D01*
X535000Y1555000D01*
Y1775000D01*
G01X930000Y800000D02*
X1640000D01*
X1680000Y840000D01*
G01X1320000Y2050000D02*
X1310000Y2060000D01*
X1030000D01*
X1020000Y2050000D01*
X1000000D01*
G01X1515000Y1675000D02*
X1830000Y1360000D01*
Y1070000D01*
X1760000Y1000000D01*
G01X1515000Y1740000D02*
Y1675000D01*
G01X3060000Y2060000D02*
X2650000D01*
G01D02*
X2630000Y2040000D01*
G54D16*
X926000Y1930000D03*
G54D17*
X1370000Y1120000D03*
G54D18*
X1180000Y1930000D03*
G54D19*
X1765000Y125000D03*
X3055000D03*
M02*
