M48
METRIC,TZ
T01C.254
T02C1.
T03C1.1
T04C3.4
;LEADER: 12 
;HEADER: 
;CODE  : ASCII 
;FILE  : HY_5328_V10_250909-1-2.drl for board G:/github/DebugTool/HARDWARE/HY_5328_V10_250909/PCB/#Taaaeun10864.tmp ... layers TOP and BOTTOM
;T01 Holesize 1. = 0.254000 Tolerance = +0.000000/-0.000000 PLATED MM Quantity = 101
;T02 Holesize 2. = 1.000000 Tolerance = +0.000000/-0.000000 PLATED MM Quantity = 2
;T03 Holesize 3. = 1.100000 Tolerance = +0.000000/-0.000000 PLATED MM Quantity = 2
;T04 Holesize 4. = 3.400000 Tolerance = +0.000000/-0.000000 PLATED MM Quantity = 1
%
G90
T01
X120000Y120000
X120000Y440000
X120000Y660000
X440000Y840000
X503500Y840000
X440000Y900000
X503500Y900000
X120000Y980000
X90000Y1650000
X410000Y1650000
X700000Y1990000
X535000Y1775000
X700000Y1670000
X630000Y900000
X566500Y900000
X630000Y840000
X566500Y840000
X920000Y460000
X525000Y455000
X804130Y390000
X695870Y390000
X870000Y120000
X550000Y120000
X1290000Y110000
X1220000Y500000
X1260000Y610000
X1360000Y610000
X1460000Y610000
X1260000Y690000
X1360000Y690000
X1460000Y690000
X1610000Y110000
X2030000Y490000
X1540000Y500000
X1680000Y840000
X1760000Y910000
X1660000Y950000
X1760000Y1000000
X1760000Y1160000
X1830000Y1820000
X1920000Y1820000
X1830000Y1920000
X1920000Y1920000
X1830000Y2020000
X1920000Y2020000
X2500000Y1870000
X2500000Y1800000
X2500000Y1730000
X2360000Y1709200
X2280000Y1710000
X2450000Y1520000
X2450000Y1420000
X2450000Y1320000
X2450000Y1220000
X2520000Y789200
X2180000Y430000
X2180000Y110000
X2954880Y330000
X2540000Y420000
X2649200Y420000
X2600000Y790000
X2680000Y870000
X2550000Y1220000
X2650000Y1220000
X2750000Y1220000
X2550000Y1320000
X2650000Y1320000
X2750000Y1320000
X2550000Y1420000
X2650000Y1420000
X2750000Y1420000
X2550000Y1520000
X2650000Y1520000
X2750000Y1520000
X2899630Y1618670
X2970000Y1620000
X2900020Y1682170
X2563500Y1730000
X2630000Y1730000
X2900000Y1760000
X2977500Y1777500
X2563500Y1800000
X2630000Y1800000
X2860000Y1860000
X2920000Y1860000
X2980000Y1860000
X2563500Y1870000
X2630000Y1870000
X2860000Y1920000
X2920000Y1920000
X2980000Y1920000
X2860000Y1980000
X2920000Y1980000
X2980000Y1980000
X3200000Y1910000
X3200000Y1400000
X3220000Y980000
X3140000Y800000
X3050000Y640000
X3190000Y210000
X3190000Y80000
T02
X110000Y1275000
X110000Y2025000
T03
X926000Y1930000
X1180000Y1930000
T04
X1370000Y1120000
M30
