G04 ================== begin FILE IDENTIFICATION RECORD ==================*
G04 Layout Name:  HY_TYPEC_ADAPTER_V10_240925.brd*
G04 Film Name:    BOTTOM*
G04 File Format:  Gerber RS274X*
G04 File Origin:  Cadence Allegro 23.1-S006*
G04 Origin Date:  Wed Sep 25 14:33:36 2024*
G04 *
G04 Layer:  ETCH/BOTTOM*
G04 Layer:  PIN/BOTTOM*
G04 Layer:  VIA CLASS/BOTTOM*
G04 *
G04 Offset:    (0.0000 0.0000)*
G04 Mirror:    No*
G04 Mode:      Positive*
G04 Rotation:  0*
G04 FullContactRelief:  No*
G04 UndefLineWidth:     0.1524*
G04 ================== end FILE IDENTIFICATION RECORD ====================*
%FSLAX55Y55*MOMM*%
%IR0*IPPOS*OFA0.00000B0.00000*MIA0B0*SFA1.00000B1.00000*%
%ADD11R,.6X1.6*%
%ADD12C,.508*%
%ADD10O,1.2X2.4*%
%ADD13C,.2032*%
%ADD14C,.254*%
G75*
%LPD*%
G75*
G36*
G01X90000Y340000D02*
X250000D01*
Y310760D01*
X247360Y307850D01*
G03X228860Y260000I52632J-47850D01*
G01Y190100D01*
X228020Y188170D01*
G03X224260Y170000I41982J-18162D01*
G01Y10000D01*
X90000D01*
X20000Y80000D01*
Y270000D01*
X90000Y340000D01*
G37*
G36*
G01X80000Y900000D02*
X250000D01*
Y870760D01*
X247360Y867850D01*
G03X228860Y820000I52632J-47850D01*
G01Y750100D01*
X228020Y748170D01*
G03X224260Y730000I41982J-18162D01*
G01Y570000D01*
X90000D01*
X20000Y640000D01*
Y840000D01*
X80000Y900000D01*
G37*
G36*
G01X880950Y340000D02*
X920000D01*
X980000Y280000D01*
Y80000D01*
X910000Y10000D01*
X775740D01*
Y170000D01*
G03X771980Y188170I-45742J8D01*
G01X771140Y190100D01*
Y218550D01*
G02X791140Y238870I20320J3D01*
G03X861140Y310000I-1139J71130D01*
G03X860740Y317530I-71140J-3D01*
G02X880950Y340000I20206J2150D01*
G37*
G36*
G01Y900000D02*
X930000D01*
X980000Y850000D01*
Y650000D01*
X900000Y570000D01*
X775740D01*
Y730000D01*
G03X771980Y748170I-45742J8D01*
G01X771140Y750100D01*
Y778550D01*
G02X791140Y798870I20320J3D01*
G03X861140Y870000I-1139J71130D01*
G03X860740Y877530I-71140J-3D01*
G02X880950Y900000I20206J2150D01*
G37*
G36*
G01X1290000Y340000D02*
X1450000D01*
Y310760D01*
X1447360Y307850D01*
G03X1428860Y260000I52632J-47850D01*
G01Y190100D01*
X1428020Y188170D01*
G03X1424260Y170000I41982J-18162D01*
G01Y10000D01*
X1290000D01*
X1220000Y80000D01*
Y270000D01*
X1290000Y340000D01*
G37*
G36*
G01X1280000Y900000D02*
X1450000D01*
Y870760D01*
X1447360Y867850D01*
G03X1428860Y820000I52632J-47850D01*
G01Y750100D01*
X1428020Y748170D01*
G03X1424260Y730000I41982J-18162D01*
G01Y570000D01*
X1290000D01*
X1220000Y640000D01*
Y840000D01*
X1280000Y900000D01*
G37*
G36*
G01X2080950Y340000D02*
X2120000D01*
X2180000Y280000D01*
Y80000D01*
X2110000Y10000D01*
X1975740D01*
Y170000D01*
G03X1971980Y188170I-45742J8D01*
G01X1971140Y190100D01*
Y218550D01*
G02X1991140Y238870I20320J3D01*
G03X2061140Y310000I-1139J71130D01*
G03X2060740Y317530I-71140J-3D01*
G02X2080950Y340000I20206J2150D01*
G37*
G36*
G01Y900000D02*
X2130000D01*
X2180000Y850000D01*
Y650000D01*
X2100000Y570000D01*
X1975740D01*
Y730000D01*
G03X1971980Y748170I-45742J8D01*
G01X1971140Y750100D01*
Y778550D01*
G02X1991140Y798870I20320J3D01*
G03X2061140Y870000I-1139J71130D01*
G03X2060740Y877530I-71140J-3D01*
G02X2080950Y900000I20206J2150D01*
G37*
G54D10*
X68000Y178000D03*
Y738000D03*
X932000Y178000D03*
Y738000D03*
X1268000Y178000D03*
Y738000D03*
X2132000Y178000D03*
Y738000D03*
G54D11*
X220000Y90000D03*
X300000D03*
X380000D03*
X460000D03*
X540000D03*
X220000Y650000D03*
X300000D03*
X380000D03*
X460000D03*
X540000D03*
X620000Y90000D03*
X700000D03*
X780000D03*
X620000Y650000D03*
X700000D03*
X780000D03*
X1420000Y90000D03*
X1500000D03*
X1580000D03*
X1420000Y650000D03*
X1500000D03*
X1580000D03*
X1660000Y90000D03*
X1740000D03*
X1820000D03*
X1900000D03*
X1660000Y650000D03*
X1740000D03*
X1820000D03*
X1900000D03*
X1980000Y90000D03*
Y650000D03*
G54D12*
G01X190000Y260000D02*
X220000Y230000D01*
Y90000D01*
G01X300000Y260000D02*
Y90000D01*
G01Y650000D02*
Y820000D01*
G01X220000Y650000D02*
Y850000D01*
G01X700000Y90000D02*
Y250000D01*
G01X820000Y220000D02*
X780000Y180000D01*
Y90000D01*
G01X700000Y650000D02*
Y820000D01*
G01X1500000Y260000D02*
Y90000D01*
G01X1390000Y260000D02*
X1420000Y230000D01*
Y90000D01*
G01X1500000Y650000D02*
Y820000D01*
G01X1420000Y650000D02*
Y850000D01*
G01X1900000Y90000D02*
Y250000D01*
G01Y650000D02*
Y820000D01*
G01X2020000Y220000D02*
X1980000Y180000D01*
Y90000D01*
X500000Y260000D03*
X300000D03*
Y820000D03*
X500000D03*
X790000Y310000D03*
X580000Y260000D03*
X700000Y250000D03*
Y820000D03*
X570000D03*
X790000Y870000D03*
X1500000Y260000D03*
Y820000D03*
X1700000Y260000D03*
X1900000Y250000D03*
X1780000Y260000D03*
X1900000Y820000D03*
X1700000D03*
X1770000D03*
X1990000Y310000D03*
Y870000D03*
G54D13*
G01X620000Y90000D02*
Y210970D01*
X644120Y235090D01*
Y273150D01*
X680970Y310000D01*
X790000D01*
G01X1820000Y90000D02*
Y210970D01*
X1844120Y235090D01*
Y273150D01*
X1880970Y310000D01*
X1990000D01*
G54D14*
G01X540000Y90000D02*
Y217370D01*
X580000Y257370D01*
Y260000D01*
G01X460000Y90000D02*
Y210000D01*
X500000Y250000D01*
Y260000D01*
G01X460000Y650000D02*
Y780000D01*
X500000Y820000D01*
G01X540000Y650000D02*
Y770010D01*
X570000Y800010D01*
Y820000D01*
G01X620000Y650000D02*
X628420Y658420D01*
Y831050D01*
X675790Y878420D01*
X781580D01*
X790000Y870000D01*
G01X1660000Y90000D02*
Y210000D01*
X1700000Y250000D01*
Y260000D01*
G01X1740000Y90000D02*
Y217370D01*
X1780000Y257370D01*
Y260000D01*
G01X1820000Y650000D02*
X1828420Y658420D01*
Y831050D01*
X1875790Y878420D01*
X1981580D01*
X1990000Y870000D01*
G01X1660000Y650000D02*
Y780000D01*
X1700000Y820000D01*
G01X1740000Y650000D02*
Y770010D01*
X1770000Y800010D01*
Y820000D01*
M02*
