G04 ================== begin FILE IDENTIFICATION RECORD ==================*
G04 Layout Name:  HY_TYPEC_ADAPTER_V10_240925.brd*
G04 Film Name:    Drill_Legend*
G04 File Format:  Gerber RS274X*
G04 File Origin:  Cadence Allegro 23.1-S006*
G04 Origin Date:  Wed Sep 25 14:33:36 2024*
G04 *
G04 Layer:  MANUFACTURING/NCLEGEND-1-2*
G04 Layer:  MANUFACTURING/NCDRILL_LEGEND*
G04 Layer:  MANUFACTURING/NCDRILL_FIGURE*
G04 Layer:  BOARD GEOMETRY/DIMENSION*
G04 *
G04 Offset:    (0.0000 0.0000)*
G04 Mirror:    No*
G04 Mode:      Positive*
G04 Rotation:  0*
G04 FullContactRelief:  No*
G04 UndefLineWidth:     0.1524*
G04 ================== end FILE IDENTIFICATION RECORD ====================*
%FSLAX55Y55*MOMM*%
%IR0*IPPOS*OFA0.00000B0.00000*MIA0B0*SFA1.00000B1.00000*%
%AMMACRO10*
1,1,.1524,-.3,-.6*
20,1,.1524,-.3,-.6,-.3,.6,0.0*
1,1,.1524,-.3,.6*
20,1,.1524,-.3,.6,-.295442,.652094,0.0*
1,1,.1524,-.295442,.652094*
20,1,.1524,-.295442,.652094,-.281908,.702606,0.0*
1,1,.1524,-.281908,.702606*
20,1,.1524,-.281908,.702606,-.259808,.75,0.0*
1,1,.1524,-.259808,.75*
20,1,.1524,-.259808,.75,-.229813,.792836,0.0*
1,1,.1524,-.229813,.792836*
20,1,.1524,-.229813,.792836,-.192836,.829813,0.0*
1,1,.1524,-.192836,.829813*
20,1,.1524,-.192836,.829813,-.15,.859808,0.0*
1,1,.1524,-.15,.859808*
20,1,.1524,-.15,.859808,-.102606,.881908,0.0*
1,1,.1524,-.102606,.881908*
20,1,.1524,-.102606,.881908,-.052094,.895442,0.0*
1,1,.1524,-.052094,.895442*
20,1,.1524,-.052094,.895442,0.0,.9,0.0*
1,1,.1524,0.0,.9*
20,1,.1524,0.0,.9,.052094,.895442,0.0*
1,1,.1524,.052094,.895442*
20,1,.1524,.052094,.895442,.102606,.881908,0.0*
1,1,.1524,.102606,.881908*
20,1,.1524,.102606,.881908,.15,.859808,0.0*
1,1,.1524,.15,.859808*
20,1,.1524,.15,.859808,.192836,.829813,0.0*
1,1,.1524,.192836,.829813*
20,1,.1524,.192836,.829813,.229813,.792836,0.0*
1,1,.1524,.229813,.792836*
20,1,.1524,.229813,.792836,.259808,.75,0.0*
1,1,.1524,.259808,.75*
20,1,.1524,.259808,.75,.281908,.702606,0.0*
1,1,.1524,.281908,.702606*
20,1,.1524,.281908,.702606,.295442,.652094,0.0*
1,1,.1524,.295442,.652094*
20,1,.1524,.295442,.652094,.3,.6,0.0*
1,1,.1524,.3,.6*
20,1,.1524,.3,.6,.3,-.6,0.0*
1,1,.1524,.3,-.6*
20,1,.1524,.3,-.6,.295442,-.652094,0.0*
1,1,.1524,.295442,-.652094*
20,1,.1524,.295442,-.652094,.281908,-.702606,0.0*
1,1,.1524,.281908,-.702606*
20,1,.1524,.281908,-.702606,.259808,-.75,0.0*
1,1,.1524,.259808,-.75*
20,1,.1524,.259808,-.75,.229813,-.792836,0.0*
1,1,.1524,.229813,-.792836*
20,1,.1524,.229813,-.792836,.192836,-.829813,0.0*
1,1,.1524,.192836,-.829813*
20,1,.1524,.192836,-.829813,.15,-.859808,0.0*
1,1,.1524,.15,-.859808*
20,1,.1524,.15,-.859808,.102606,-.881908,0.0*
1,1,.1524,.102606,-.881908*
20,1,.1524,.102606,-.881908,.052094,-.895442,0.0*
1,1,.1524,.052094,-.895442*
20,1,.1524,.052094,-.895442,0.0,-.9,0.0*
1,1,.1524,0.0,-.9*
20,1,.1524,0.0,-.9,-.052094,-.895442,0.0*
1,1,.1524,-.052094,-.895442*
20,1,.1524,-.052094,-.895442,-.102606,-.881908,0.0*
1,1,.1524,-.102606,-.881908*
20,1,.1524,-.102606,-.881908,-.15,-.859808,0.0*
1,1,.1524,-.15,-.859808*
20,1,.1524,-.15,-.859808,-.192836,-.829813,0.0*
1,1,.1524,-.192836,-.829813*
20,1,.1524,-.192836,-.829813,-.229813,-.792836,0.0*
1,1,.1524,-.229813,-.792836*
20,1,.1524,-.229813,-.792836,-.259808,-.75,0.0*
1,1,.1524,-.259808,-.75*
20,1,.1524,-.259808,-.75,-.281908,-.702606,0.0*
1,1,.1524,-.281908,-.702606*
20,1,.1524,-.281908,-.702606,-.295442,-.652094,0.0*
1,1,.1524,-.295442,-.652094*
20,1,.1524,-.295442,-.652094,-.3,-.6,0.0*
1,1,.1524,-.3,-.6*
1,1,.1524,-.15,-.15*
20,1,.1524,-.15,-.15,-.19,-.145,0.0*
1,1,.1524,-.19,-.145*
20,1,.1524,-.19,-.145,-.225,-.125,0.0*
1,1,.1524,-.225,-.125*
20,1,.1524,-.225,-.125,-.255,-.095,0.0*
1,1,.1524,-.255,-.095*
20,1,.1524,-.255,-.095,-.275,-.06,0.0*
1,1,.1524,-.275,-.06*
20,1,.1524,-.275,-.06,-.285,-.02,0.0*
1,1,.1524,-.285,-.02*
20,1,.1524,-.285,-.02,-.285,.02,0.0*
1,1,.1524,-.285,.02*
20,1,.1524,-.285,.02,-.275,.06,0.0*
1,1,.1524,-.275,.06*
20,1,.1524,-.275,.06,-.255,.095,0.0*
1,1,.1524,-.255,.095*
20,1,.1524,-.255,.095,-.225,.125,0.0*
1,1,.1524,-.225,.125*
20,1,.1524,-.225,.125,-.19,.145,0.0*
1,1,.1524,-.19,.145*
20,1,.1524,-.19,.145,-.15,.15,0.0*
1,1,.1524,-.15,.15*
20,1,.1524,-.15,.15,-.11,.145,0.0*
1,1,.1524,-.11,.145*
20,1,.1524,-.11,.145,-.075,.125,0.0*
1,1,.1524,-.075,.125*
20,1,.1524,-.075,.125,-.045,.095,0.0*
1,1,.1524,-.045,.095*
20,1,.1524,-.045,.095,-.025,.06,0.0*
1,1,.1524,-.025,.06*
20,1,.1524,-.025,.06,-.015,.02,0.0*
1,1,.1524,-.015,.02*
20,1,.1524,-.015,.02,-.015,-.02,0.0*
1,1,.1524,-.015,-.02*
20,1,.1524,-.015,-.02,-.025,-.06,0.0*
1,1,.1524,-.025,-.06*
20,1,.1524,-.025,-.06,-.045,-.095,0.0*
1,1,.1524,-.045,-.095*
20,1,.1524,-.045,-.095,-.075,-.125,0.0*
1,1,.1524,-.075,-.125*
20,1,.1524,-.075,-.125,-.11,-.145,0.0*
1,1,.1524,-.11,-.145*
20,1,.1524,-.11,-.145,-.15,-.15,0.0*
1,1,.1524,-.15,-.15*
1,1,.1524,.0251,-.15*
20,1,.1524,.0251,-.15,.1501,.15,0.0*
1,1,.1524,.1501,.15*
20,1,.1524,.1501,.15,.2751,-.15,0.0*
1,1,.1524,.2751,-.15*
1,1,.1524,.2301,-.045*
20,1,.1524,.2301,-.045,.0701,-.045,0.0*
1,1,.1524,.0701,-.045*
%
%ADD10MACRO10*%
%AMMACRO11*
1,1,.1524,.127,0.0*
20,1,.1524,.127,0.0,-.127,0.0,0.0*
1,1,.1524,-.127,0.0*
1,1,.1524,0.0,.127*
20,1,.1524,0.0,.127,0.0,-.127,0.0*
1,1,.1524,0.0,-.127*
%
%ADD11MACRO11*%
%ADD12C,.1524*%
G75*
%LPD*%
G75*
G54D10*
X68000Y178000D03*
Y738000D03*
X932000Y178000D03*
Y738000D03*
X1268000Y178000D03*
Y738000D03*
X2132000Y178000D03*
Y738000D03*
X3971730Y237500D03*
G54D11*
X500000Y260000D03*
X300000D03*
Y820000D03*
X500000D03*
X790000Y310000D03*
X580000Y260000D03*
X700000Y250000D03*
Y820000D03*
X570000D03*
X790000Y870000D03*
X1500000Y260000D03*
Y820000D03*
X1700000Y260000D03*
X1900000Y250000D03*
X1780000Y260000D03*
X1900000Y820000D03*
X1700000D03*
X1770000D03*
X1990000Y310000D03*
Y870000D03*
X3971730Y872500D03*
G54D12*
G01X-730800Y396970D02*
X-714210Y381100D01*
X-695240Y374750D01*
X-676280Y381100D01*
X-659680Y400140D01*
X-647830Y428730D01*
X-643090Y457300D01*
Y492220D01*
X-647830Y520800D01*
X-659680Y546200D01*
X-673910Y558900D01*
X-690500Y565250D01*
X-709470Y558900D01*
X-723690Y546200D01*
X-733170Y527150D01*
X-737910Y501750D01*
X-733170Y479530D01*
X-721320Y457300D01*
X-707090Y444600D01*
X-690500Y441420D01*
X-671540Y447770D01*
X-657310Y463650D01*
X-643090Y492220D01*
G01X-500000Y368400D02*
X-504740Y371580D01*
Y377920D01*
X-500000Y381100D01*
X-495260Y377920D01*
Y371580D01*
X-500000Y368400D01*
G01X-354540Y533500D02*
X-340320Y552550D01*
X-323720Y562080D01*
X-304760Y565250D01*
X-281050Y558900D01*
X-264460Y543020D01*
X-259720Y523980D01*
X-262090Y504920D01*
X-271570Y489050D01*
X-318980Y457300D01*
X-340320Y435070D01*
X-354540Y403320D01*
X-359280Y374750D01*
X-259720D01*
G01X909710Y-366500D02*
X923930Y-347450D01*
X940530Y-337920D01*
X959490Y-334750D01*
X983200Y-341100D01*
X999790Y-356980D01*
X1004530Y-376020D01*
X1002160Y-395080D01*
X992680Y-410950D01*
X945270Y-442700D01*
X923930Y-464930D01*
X909710Y-496680D01*
X904970Y-525250D01*
X1004530D01*
G01X1100210Y-366500D02*
X1114430Y-347450D01*
X1131030Y-337920D01*
X1149990Y-334750D01*
X1173700Y-341100D01*
X1190290Y-356980D01*
X1195030Y-376020D01*
X1192660Y-395080D01*
X1183180Y-410950D01*
X1135770Y-442700D01*
X1114430Y-464930D01*
X1100210Y-496680D01*
X1095470Y-525250D01*
X1195030D01*
G01X3109520Y1348750D02*
Y1666250D01*
X3259140D01*
G01X3204010Y1512800D02*
X3109520D01*
G01X3452050Y1666250D02*
X3546530D01*
G01X3499290D02*
Y1348750D01*
G01X3452050D02*
X3546530D01*
G01X3837870Y1507500D02*
X3916620D01*
Y1412250D01*
X3892990Y1380490D01*
X3865430Y1359330D01*
X3826060Y1348750D01*
X3786690Y1359330D01*
X3759130Y1380490D01*
X3735510Y1412250D01*
X3719760Y1449290D01*
X3711880Y1491620D01*
Y1528670D01*
X3719760Y1560410D01*
X3735510Y1597460D01*
X3759130Y1629210D01*
X3782750Y1650370D01*
X3814250Y1666250D01*
X3841810D01*
X3873300Y1655670D01*
X3896930Y1634500D01*
G01X4042600Y1666250D02*
Y1438710D01*
X4058340Y1391070D01*
X4089840Y1359330D01*
X4129210Y1348750D01*
X4168580Y1359330D01*
X4200080Y1391070D01*
X4215820Y1438710D01*
Y1666250D01*
G01X4365430Y1348750D02*
Y1666250D01*
X4463850D01*
X4495350Y1650370D01*
X4515040Y1629210D01*
X4522910Y1586870D01*
X4515040Y1544540D01*
X4491410Y1518090D01*
X4463850Y1502200D01*
X4365430D01*
G01X4463850D02*
X4522910Y1348750D01*
G01X4837870D02*
X4680390D01*
Y1666250D01*
X4837870D01*
G01X4774880Y1512800D02*
X4680390D01*
G01X5707940Y1348750D02*
Y1666250D01*
X5857560D01*
G01X5802430Y1512800D02*
X5707940D01*
G01X6050470Y1666250D02*
X6144950D01*
G01X6097710D02*
Y1348750D01*
G01X6050470D02*
X6144950D01*
G01X6322120D02*
Y1666250D01*
X6503220Y1348750D01*
Y1666250D01*
G01X6680390D02*
X6774870D01*
G01X6727630D02*
Y1348750D01*
G01X6680390D02*
X6774870D01*
G01X6959910Y1391070D02*
X6991410Y1364620D01*
X7026840Y1348750D01*
X7058340D01*
X7089830Y1364620D01*
X7113460Y1391070D01*
X7125270Y1428130D01*
X7117400Y1465160D01*
X7097710Y1496910D01*
X7062270Y1518090D01*
X7015030Y1528670D01*
X6987470Y1549830D01*
X6975660Y1586870D01*
X6983540Y1623920D01*
X7003220Y1650370D01*
X7030780Y1666250D01*
X7058340D01*
X7085900Y1655670D01*
X7109520Y1629210D01*
G01X7274870Y1348750D02*
Y1666250D01*
G01X7440230D02*
Y1348750D01*
G01Y1507500D02*
X7274870D01*
G01X7751250Y1348750D02*
X7593770D01*
Y1666250D01*
X7751250D01*
G01X7688260Y1512800D02*
X7593770D01*
G01X7900860Y1348750D02*
Y1666250D01*
X7979590D01*
X8011090Y1650370D01*
X8034710Y1629210D01*
X8054400Y1597460D01*
X8070150Y1560410D01*
X8074080Y1507500D01*
X8070150Y1454580D01*
X8054400Y1417540D01*
X8034710Y1385780D01*
X8011090Y1364620D01*
X7979590Y1348750D01*
X7900860D01*
G01X8184320Y1242920D02*
X8420540D01*
G01X8534710Y1391070D02*
X8566210Y1364620D01*
X8601640Y1348750D01*
X8633140D01*
X8664630Y1364620D01*
X8688260Y1391070D01*
X8700070Y1428130D01*
X8692200Y1465160D01*
X8672510Y1496910D01*
X8637070Y1518090D01*
X8589830Y1528670D01*
X8562270Y1549830D01*
X8550460Y1586870D01*
X8558340Y1623920D01*
X8578020Y1650370D01*
X8605580Y1666250D01*
X8633140D01*
X8660700Y1655670D01*
X8684320Y1629210D01*
G01X8885110Y1666250D02*
X8979590D01*
G01X8932350D02*
Y1348750D01*
G01X8885110D02*
X8979590D01*
G01X9172500Y1666250D02*
X9322120D01*
X9172500Y1348750D01*
X9322120D01*
G01X9641010D02*
X9483530D01*
Y1666250D01*
X9641010D01*
G01X9578020Y1512800D02*
X9483530D01*
G01X6727630Y78750D02*
Y396250D01*
X6680390Y332750D01*
G01Y78750D02*
X6774870D01*
G01X7042590Y68170D02*
X7034710Y73460D01*
Y84040D01*
X7042590Y89330D01*
X7050470Y84040D01*
Y73460D01*
X7042590Y68170D01*
G01X7357550Y78750D02*
X7385110Y84040D01*
X7416600Y99910D01*
X7436290Y126360D01*
X7444160Y163420D01*
X7436290Y200450D01*
X7412670Y232200D01*
X7377230Y248090D01*
X7337870D01*
X7314240Y258670D01*
X7294550Y285120D01*
X7286680Y322160D01*
X7298500Y359210D01*
X7326050Y385670D01*
X7357550Y396250D01*
X7389040Y385670D01*
X7416600Y359210D01*
X7428420Y322160D01*
X7420540Y285120D01*
X7400860Y258670D01*
X7377230Y248090D01*
X7337870D01*
X7302430Y232200D01*
X7278810Y200450D01*
X7270940Y163420D01*
X7278810Y126360D01*
X7298500Y99910D01*
X7329990Y84040D01*
X7357550Y78750D01*
G01X7613460Y290410D02*
X7731560Y78750D01*
G01Y290410D02*
X7613460Y78750D01*
G01X7987470Y396250D02*
X7955970Y385670D01*
X7932350Y359210D01*
X7916600Y327460D01*
X7904790Y285120D01*
X7900860Y237500D01*
X7904790Y189870D01*
X7916600Y147540D01*
X7932350Y115780D01*
X7955970Y89330D01*
X7987470Y78750D01*
X8018960Y89330D01*
X8042590Y115780D01*
X8058340Y147540D01*
X8070150Y189870D01*
X8074080Y237500D01*
X8070150Y285120D01*
X8058340Y327460D01*
X8042590Y359210D01*
X8018960Y385670D01*
X7987470Y396250D01*
G01X8302430Y68170D02*
X8294550Y73460D01*
Y84040D01*
X8302430Y89330D01*
X8310310Y84040D01*
Y73460D01*
X8302430Y68170D01*
G01X8542580Y211030D02*
X8570150Y248090D01*
X8593770Y269250D01*
X8625270Y279830D01*
X8652830Y269250D01*
X8672510Y248090D01*
X8688260Y216330D01*
X8692200Y179290D01*
X8688260Y147540D01*
X8672510Y115780D01*
X8648880Y89330D01*
X8621330Y78750D01*
X8589830Y89330D01*
X8562270Y121070D01*
X8546520Y168710D01*
X8542580Y221620D01*
X8550460Y290410D01*
X8562270Y327460D01*
X8581950Y364500D01*
X8609510Y390960D01*
X8637070Y396250D01*
X8664630Y385670D01*
X8684320Y359210D01*
G01X7042590Y1031250D02*
X7011090Y1020670D01*
X6987470Y994210D01*
X6971720Y962460D01*
X6959910Y920120D01*
X6955980Y872500D01*
X6959910Y824870D01*
X6971720Y782540D01*
X6987470Y750780D01*
X7011090Y724330D01*
X7042590Y713750D01*
X7074080Y724330D01*
X7097710Y750780D01*
X7113460Y782540D01*
X7125270Y824870D01*
X7129200Y872500D01*
X7125270Y920120D01*
X7113460Y962460D01*
X7097710Y994210D01*
X7074080Y1020670D01*
X7042590Y1031250D01*
G01X7357550Y703170D02*
X7349670Y708460D01*
Y719040D01*
X7357550Y724330D01*
X7365430Y719040D01*
Y708460D01*
X7357550Y703170D01*
G01X7597700Y978330D02*
X7621330Y1010080D01*
X7648890Y1025960D01*
X7680390Y1031250D01*
X7719750Y1020670D01*
X7747320Y994210D01*
X7755190Y962460D01*
X7751250Y930700D01*
X7735500Y904250D01*
X7656760Y851330D01*
X7621330Y814290D01*
X7597700Y761360D01*
X7589830Y713750D01*
X7755190D01*
G01X7900860Y761360D02*
X7924470Y734910D01*
X7952030Y719040D01*
X7987470Y713750D01*
X8022910Y724330D01*
X8050460Y745490D01*
X8070150Y782540D01*
X8074080Y824870D01*
X8066210Y867200D01*
X8046520Y893670D01*
X8018960Y914830D01*
X7991410Y920120D01*
X7963850Y914830D01*
X7928420Y893670D01*
X7940230Y1031250D01*
X8046520D01*
G01X8349670Y713750D02*
Y1031250D01*
X8204000Y803710D01*
X8400860D01*
G01X8952030Y1983750D02*
X9050460Y2301250D01*
X9148890Y1983750D01*
G01X9113450Y2094870D02*
X8987460D01*
G01X9286680Y2301250D02*
Y1983750D01*
X9444160D01*
G01X9601640Y2301250D02*
Y1983750D01*
X9759120D01*
G01X10223690Y2301250D02*
Y2073710D01*
X10239430Y2026070D01*
X10270930Y1994330D01*
X10310300Y1983750D01*
X10349670Y1994330D01*
X10381170Y2026070D01*
X10396910Y2073710D01*
Y2301250D01*
G01X10534710Y1983750D02*
Y2301250D01*
X10715810Y1983750D01*
Y2301250D01*
G01X10892980D02*
X10987460D01*
G01X10940220D02*
Y1983750D01*
G01X10892980D02*
X10987460D01*
G01X11255180Y2301250D02*
Y1983750D01*
G01X11164630Y2301250D02*
X11345730D01*
G01X11487460Y2026070D02*
X11518960Y1999620D01*
X11554390Y1983750D01*
X11585890D01*
X11617380Y1999620D01*
X11641010Y2026070D01*
X11652820Y2063130D01*
X11644950Y2100160D01*
X11625260Y2131910D01*
X11589820Y2153090D01*
X11542580Y2163670D01*
X11515020Y2184830D01*
X11503210Y2221870D01*
X11511090Y2258920D01*
X11530770Y2285370D01*
X11558330Y2301250D01*
X11585890D01*
X11613450Y2290670D01*
X11637070Y2264210D01*
G01X12101630Y1983750D02*
X12200060Y2301250D01*
X12298490Y1983750D01*
G01X12263050Y2094870D02*
X12137060D01*
G01X12436280Y1983750D02*
Y2301250D01*
X12534700D01*
X12566200Y2285370D01*
X12585890Y2264210D01*
X12593760Y2221870D01*
X12585890Y2179540D01*
X12562260Y2153090D01*
X12534700Y2137200D01*
X12436280D01*
G01X12534700D02*
X12593760Y1983750D01*
G01X12908720D02*
X12751240D01*
Y2301250D01*
X12908720D01*
G01X12845730Y2147800D02*
X12751240D01*
G01X13412660Y2301250D02*
X13507140D01*
G01X13459900D02*
Y1983750D01*
G01X13412660D02*
X13507140D01*
G01X13684310D02*
Y2301250D01*
X13865410Y1983750D01*
Y2301250D01*
G01X14302410Y1983750D02*
Y2301250D01*
X14404780Y2036670D01*
X14507150Y2301250D01*
Y1983750D01*
G01X14672500Y2301250D02*
X14766980D01*
G01X14719740D02*
Y1983750D01*
G01X14672500D02*
X14766980D01*
G01X14955960Y2301250D02*
Y1983750D01*
X15113440D01*
G01X15270920Y2301250D02*
Y1983750D01*
X15428400D01*
G01X15617380Y2301250D02*
X15711860D01*
G01X15664620D02*
Y1983750D01*
G01X15617380D02*
X15711860D01*
G01X15877210D02*
Y2301250D01*
X15979580Y2036670D01*
X16081950Y2301250D01*
Y1983750D01*
G01X16373280D02*
X16215800D01*
Y2301250D01*
X16373280D01*
G01X16310290Y2147800D02*
X16215800D01*
G01X16609500Y2301250D02*
Y1983750D01*
G01X16518950Y2301250D02*
X16700050D01*
G01X17003200Y1983750D02*
X16845720D01*
Y2301250D01*
X17003200D01*
G01X16940210Y2147800D02*
X16845720D01*
G01X17160680Y1983750D02*
Y2301250D01*
X17259100D01*
X17290600Y2285370D01*
X17310290Y2264210D01*
X17318160Y2221870D01*
X17310290Y2179540D01*
X17286660Y2153090D01*
X17259100Y2137200D01*
X17160680D01*
G01X17259100D02*
X17318160Y1983750D01*
G01X17471700Y2026070D02*
X17503200Y1999620D01*
X17538630Y1983750D01*
X17570130D01*
X17601620Y1999620D01*
X17625250Y2026070D01*
X17637060Y2063130D01*
X17629190Y2100160D01*
X17609500Y2131910D01*
X17574060Y2153090D01*
X17526820Y2163670D01*
X17499260Y2184830D01*
X17487450Y2221870D01*
X17495330Y2258920D01*
X17515010Y2285370D01*
X17542570Y2301250D01*
X17570130D01*
X17597690Y2290670D01*
X17621310Y2264210D01*
G01X9278810Y2633750D02*
Y2951250D01*
X9357540D01*
X9389040Y2935370D01*
X9412660Y2914210D01*
X9432350Y2882460D01*
X9448100Y2845410D01*
X9452030Y2792500D01*
X9448100Y2739580D01*
X9432350Y2702540D01*
X9412660Y2670780D01*
X9389040Y2649620D01*
X9357540Y2633750D01*
X9278810D01*
G01X9601640D02*
Y2951250D01*
X9700060D01*
X9731560Y2935370D01*
X9751250Y2914210D01*
X9759120Y2871870D01*
X9751250Y2829540D01*
X9727620Y2803090D01*
X9700060Y2787200D01*
X9601640D01*
G01X9700060D02*
X9759120Y2633750D01*
G01X9948100Y2951250D02*
X10042580D01*
G01X9995340D02*
Y2633750D01*
G01X9948100D02*
X10042580D01*
G01X10231560Y2951250D02*
Y2633750D01*
X10389040D01*
G01X10546520Y2951250D02*
Y2633750D01*
X10704000D01*
G01X11341790Y2924790D02*
X11318170Y2940670D01*
X11290620Y2951250D01*
X11259120D01*
X11223680Y2935370D01*
X11196130Y2908920D01*
X11176440Y2877160D01*
X11160690Y2824250D01*
X11156750Y2776620D01*
X11164630Y2729000D01*
X11176440Y2697250D01*
X11200060Y2665490D01*
X11227620Y2644330D01*
X11255180Y2633750D01*
X11282740D01*
X11310300Y2644330D01*
X11333920Y2660200D01*
X11353610Y2681360D01*
G01X11487460Y2633750D02*
Y2951250D01*
G01X11652820D02*
Y2633750D01*
G01Y2792500D02*
X11487460D01*
G01X11786670Y2633750D02*
X11885100Y2951250D01*
X11983530Y2633750D01*
G01X11948090Y2744870D02*
X11822100D01*
G01X12121320Y2633750D02*
Y2951250D01*
X12219740D01*
X12251240Y2935370D01*
X12270930Y2914210D01*
X12278800Y2871870D01*
X12270930Y2829540D01*
X12247300Y2803090D01*
X12219740Y2787200D01*
X12121320D01*
G01X12219740D02*
X12278800Y2633750D01*
G01X12515020Y2951250D02*
Y2633750D01*
G01X12424470Y2951250D02*
X12605570D01*
G01X12829980Y2623170D02*
X12822100Y2628460D01*
Y2639040D01*
X12829980Y2644330D01*
X12837860Y2639040D01*
Y2628460D01*
X12829980Y2623170D01*
G01Y2766030D02*
X12822100Y2771330D01*
Y2781910D01*
X12829980Y2787200D01*
X12837860Y2781910D01*
Y2771330D01*
X12829980Y2766030D01*
G01X13459900Y2951250D02*
Y2633750D01*
G01X13369350Y2951250D02*
X13550450D01*
G01X13774860Y2633750D02*
X13743360Y2639040D01*
X13715810Y2660200D01*
X13692180Y2691960D01*
X13676430Y2729000D01*
X13668560Y2771330D01*
Y2813670D01*
X13676430Y2856000D01*
X13692180Y2893040D01*
X13715810Y2924790D01*
X13743360Y2945960D01*
X13774860Y2951250D01*
X13806350Y2945960D01*
X13833910Y2924790D01*
X13857540Y2893040D01*
X13873290Y2856000D01*
X13881160Y2813670D01*
Y2771330D01*
X13873290Y2729000D01*
X13857540Y2691960D01*
X13833910Y2660200D01*
X13806350Y2639040D01*
X13774860Y2633750D01*
G01X14011080D02*
Y2951250D01*
X14105570D01*
X14137060Y2935370D01*
X14160690Y2898330D01*
X14168560Y2856000D01*
X14160690Y2813670D01*
X14141000Y2781910D01*
X14105570Y2766030D01*
X14011080D01*
G01X14719740Y2951250D02*
Y2633750D01*
G01X14664620Y2845410D02*
X14774860D01*
G01X15034700Y2633750D02*
X15011080Y2639040D01*
X14987460Y2660200D01*
X14971700Y2697250D01*
X14963830Y2739580D01*
X14971700Y2781910D01*
X14987460Y2818960D01*
X15011080Y2840120D01*
X15034700Y2845410D01*
X15058320Y2840120D01*
X15081940Y2818960D01*
X15097690Y2781910D01*
X15101630Y2739580D01*
X15097690Y2697250D01*
X15081940Y2660200D01*
X15058320Y2639040D01*
X15034700Y2633750D01*
G01X15696110Y2803090D02*
X15711860Y2818960D01*
X15723670Y2845410D01*
X15731550Y2882460D01*
X15723670Y2914210D01*
X15707930Y2935370D01*
X15680370Y2951250D01*
X15574070D01*
Y2633750D01*
X15703990D01*
X15731550Y2654910D01*
X15747300Y2686670D01*
X15755170Y2723710D01*
X15747300Y2760740D01*
X15723670Y2792500D01*
X15696110Y2803090D01*
X15574070D01*
G01X15979580Y2633750D02*
X15948080Y2639040D01*
X15920530Y2660200D01*
X15896900Y2691960D01*
X15881150Y2729000D01*
X15873280Y2771330D01*
Y2813670D01*
X15881150Y2856000D01*
X15896900Y2893040D01*
X15920530Y2924790D01*
X15948080Y2945960D01*
X15979580Y2951250D01*
X16011070Y2945960D01*
X16038630Y2924790D01*
X16062260Y2893040D01*
X16078010Y2856000D01*
X16085880Y2813670D01*
Y2771330D01*
X16078010Y2729000D01*
X16062260Y2691960D01*
X16038630Y2660200D01*
X16011070Y2639040D01*
X15979580Y2633750D01*
G01X16294540Y2951250D02*
Y2633750D01*
G01X16203990Y2951250D02*
X16385090D01*
G01X16609500D02*
Y2633750D01*
G01X16518950Y2951250D02*
X16700050D01*
G01X16924460Y2633750D02*
X16892960Y2639040D01*
X16865410Y2660200D01*
X16841780Y2691960D01*
X16826030Y2729000D01*
X16818160Y2771330D01*
Y2813670D01*
X16826030Y2856000D01*
X16841780Y2893040D01*
X16865410Y2924790D01*
X16892960Y2945960D01*
X16924460Y2951250D01*
X16955950Y2945960D01*
X16983510Y2924790D01*
X17007140Y2893040D01*
X17022890Y2856000D01*
X17030760Y2813670D01*
Y2771330D01*
X17022890Y2729000D01*
X17007140Y2691960D01*
X16983510Y2660200D01*
X16955950Y2639040D01*
X16924460Y2633750D01*
G01X17137050D02*
Y2951250D01*
X17239420Y2686670D01*
X17341790Y2951250D01*
Y2633750D01*
G01X10971720Y1348750D02*
Y1666250D01*
X11050450D01*
X11081950Y1650370D01*
X11105570Y1629210D01*
X11125260Y1597460D01*
X11141010Y1560410D01*
X11144940Y1507500D01*
X11141010Y1454580D01*
X11125260Y1417540D01*
X11105570Y1385780D01*
X11081950Y1364620D01*
X11050450Y1348750D01*
X10971720D01*
G01X11294550D02*
Y1666250D01*
X11392970D01*
X11424470Y1650370D01*
X11444160Y1629210D01*
X11452030Y1586870D01*
X11444160Y1544540D01*
X11420530Y1518090D01*
X11392970Y1502200D01*
X11294550D01*
G01X11392970D02*
X11452030Y1348750D01*
G01X11641010Y1666250D02*
X11735490D01*
G01X11688250D02*
Y1348750D01*
G01X11641010D02*
X11735490D01*
G01X11924470Y1666250D02*
Y1348750D01*
X12081950D01*
G01X12239430Y1666250D02*
Y1348750D01*
X12396910D01*
G01X12711870D02*
X12554390D01*
Y1666250D01*
X12711870D01*
G01X12648880Y1512800D02*
X12554390D01*
G01X12861480Y1348750D02*
Y1666250D01*
X12940210D01*
X12971710Y1650370D01*
X12995330Y1629210D01*
X13015020Y1597460D01*
X13030770Y1560410D01*
X13034700Y1507500D01*
X13030770Y1454580D01*
X13015020Y1417540D01*
X12995330Y1385780D01*
X12971710Y1364620D01*
X12940210Y1348750D01*
X12861480D01*
G01X13144940Y1242920D02*
X13381160D01*
G01X13495330Y1391070D02*
X13526830Y1364620D01*
X13562260Y1348750D01*
X13593760D01*
X13625250Y1364620D01*
X13648880Y1391070D01*
X13660690Y1428130D01*
X13652820Y1465160D01*
X13633130Y1496910D01*
X13597690Y1518090D01*
X13550450Y1528670D01*
X13522890Y1549830D01*
X13511080Y1586870D01*
X13518960Y1623920D01*
X13538640Y1650370D01*
X13566200Y1666250D01*
X13593760D01*
X13621320Y1655670D01*
X13644940Y1629210D01*
G01X13845730Y1666250D02*
X13940210D01*
G01X13892970D02*
Y1348750D01*
G01X13845730D02*
X13940210D01*
G01X14133120Y1666250D02*
X14282740D01*
X14133120Y1348750D01*
X14282740D01*
G01X14601630D02*
X14444150D01*
Y1666250D01*
X14601630D01*
G01X14538640Y1512800D02*
X14444150D01*
G01X12739430Y184580D02*
X12841790D01*
G01X12739430Y819580D02*
X12841790D01*
G01X15782730Y1348750D02*
Y1666250D01*
X15881150D01*
X15912650Y1650370D01*
X15932340Y1629210D01*
X15940210Y1586870D01*
X15932340Y1544540D01*
X15908710Y1518090D01*
X15881150Y1502200D01*
X15782730D01*
G01X15881150D02*
X15940210Y1348750D01*
G01X16176430D02*
X16144930Y1354040D01*
X16117380Y1375200D01*
X16093750Y1406960D01*
X16078000Y1444000D01*
X16070130Y1486330D01*
Y1528670D01*
X16078000Y1571000D01*
X16093750Y1608040D01*
X16117380Y1639790D01*
X16144930Y1660960D01*
X16176430Y1666250D01*
X16207920Y1660960D01*
X16235480Y1639790D01*
X16259110Y1608040D01*
X16274860Y1571000D01*
X16282730Y1528670D01*
Y1486330D01*
X16274860Y1444000D01*
X16259110Y1406960D01*
X16235480Y1375200D01*
X16207920Y1354040D01*
X16176430Y1348750D01*
G01X16491390Y1666250D02*
Y1348750D01*
G01X16400840Y1666250D02*
X16581940D01*
G01X16707920Y1348750D02*
X16806350Y1666250D01*
X16904780Y1348750D01*
G01X16869340Y1459870D02*
X16743350D01*
G01X17121310Y1666250D02*
Y1348750D01*
G01X17030760Y1666250D02*
X17211860D01*
G01X17389030D02*
X17483510D01*
G01X17436270D02*
Y1348750D01*
G01X17389030D02*
X17483510D01*
G01X17751230D02*
X17719730Y1354040D01*
X17692180Y1375200D01*
X17668550Y1406960D01*
X17652800Y1444000D01*
X17644930Y1486330D01*
Y1528670D01*
X17652800Y1571000D01*
X17668550Y1608040D01*
X17692180Y1639790D01*
X17719730Y1660960D01*
X17751230Y1666250D01*
X17782720Y1660960D01*
X17810280Y1639790D01*
X17833910Y1608040D01*
X17849660Y1571000D01*
X17857530Y1528670D01*
Y1486330D01*
X17849660Y1444000D01*
X17833910Y1406960D01*
X17810280Y1375200D01*
X17782720Y1354040D01*
X17751230Y1348750D01*
G01X17975640D02*
Y1666250D01*
X18156740Y1348750D01*
Y1666250D01*
G01X16109500Y115780D02*
X16137060Y89330D01*
X16168550Y78750D01*
X16200050Y89330D01*
X16227610Y121070D01*
X16247300Y168710D01*
X16255170Y216330D01*
Y274540D01*
X16247300Y322160D01*
X16227610Y364500D01*
X16203990Y385670D01*
X16176430Y396250D01*
X16144930Y385670D01*
X16121310Y364500D01*
X16105560Y332750D01*
X16097690Y290410D01*
X16105560Y253380D01*
X16125250Y216330D01*
X16148870Y195160D01*
X16176430Y189870D01*
X16207920Y200450D01*
X16231550Y226910D01*
X16255170Y274540D01*
G01X16491390Y396250D02*
X16459890Y385670D01*
X16436270Y359210D01*
X16420520Y327460D01*
X16408710Y285120D01*
X16404780Y237500D01*
X16408710Y189870D01*
X16420520Y147540D01*
X16436270Y115780D01*
X16459890Y89330D01*
X16491390Y78750D01*
X16522880Y89330D01*
X16546510Y115780D01*
X16562260Y147540D01*
X16574070Y189870D01*
X16578000Y237500D01*
X16574070Y285120D01*
X16562260Y327460D01*
X16546510Y359210D01*
X16522880Y385670D01*
X16491390Y396250D01*
G01X16806350Y68170D02*
X16798470Y73460D01*
Y84040D01*
X16806350Y89330D01*
X16814230Y84040D01*
Y73460D01*
X16806350Y68170D01*
G01X17121310Y396250D02*
X17089810Y385670D01*
X17066190Y359210D01*
X17050440Y327460D01*
X17038630Y285120D01*
X17034700Y237500D01*
X17038630Y189870D01*
X17050440Y147540D01*
X17066190Y115780D01*
X17089810Y89330D01*
X17121310Y78750D01*
X17152800Y89330D01*
X17176430Y115780D01*
X17192180Y147540D01*
X17203990Y189870D01*
X17207920Y237500D01*
X17203990Y285120D01*
X17192180Y327460D01*
X17176430Y359210D01*
X17152800Y385670D01*
X17121310Y396250D01*
G01X17436270D02*
X17404770Y385670D01*
X17381150Y359210D01*
X17365400Y327460D01*
X17353590Y285120D01*
X17349660Y237500D01*
X17353590Y189870D01*
X17365400Y147540D01*
X17381150Y115780D01*
X17404770Y89330D01*
X17436270Y78750D01*
X17467760Y89330D01*
X17491390Y115780D01*
X17507140Y147540D01*
X17518950Y189870D01*
X17522880Y237500D01*
X17518950Y285120D01*
X17507140Y327460D01*
X17491390Y359210D01*
X17467760Y385670D01*
X17436270Y396250D01*
G01X17751230D02*
X17719730Y385670D01*
X17696110Y359210D01*
X17680360Y327460D01*
X17668550Y285120D01*
X17664620Y237500D01*
X17668550Y189870D01*
X17680360Y147540D01*
X17696110Y115780D01*
X17719730Y89330D01*
X17751230Y78750D01*
X17782720Y89330D01*
X17806350Y115780D01*
X17822100Y147540D01*
X17833910Y189870D01*
X17837840Y237500D01*
X17833910Y285120D01*
X17822100Y327460D01*
X17806350Y359210D01*
X17782720Y385670D01*
X17751230Y396250D01*
G01X16912650Y819580D02*
X17015010D01*
G01X17906170Y-238750D02*
Y-556250D01*
G01X17815620Y-238750D02*
X17996720D01*
G01X18221130Y-556250D02*
X18189630Y-550960D01*
X18162080Y-529800D01*
X18138450Y-498040D01*
X18122700Y-461000D01*
X18114830Y-418670D01*
Y-376330D01*
X18122700Y-334000D01*
X18138450Y-296960D01*
X18162080Y-265210D01*
X18189630Y-244040D01*
X18221130Y-238750D01*
X18252620Y-244040D01*
X18280180Y-265210D01*
X18303810Y-296960D01*
X18319560Y-334000D01*
X18327430Y-376330D01*
Y-418670D01*
X18319560Y-461000D01*
X18303810Y-498040D01*
X18280180Y-529800D01*
X18252620Y-550960D01*
X18221130Y-556250D01*
G01X18536090Y-238750D02*
Y-556250D01*
G01X18445540Y-238750D02*
X18626640D01*
G01X18752620Y-556250D02*
X18851050Y-238750D01*
X18949480Y-556250D01*
G01X18914040Y-445130D02*
X18788050D01*
G01X19087270Y-238750D02*
Y-556250D01*
X19244750D01*
G01X19713250D02*
Y-238750D01*
G01X19878610D02*
Y-556250D01*
G01Y-397500D02*
X19713250D01*
G01X20110890Y-556250D02*
X20079390Y-550960D01*
X20051840Y-529800D01*
X20028210Y-498040D01*
X20012460Y-461000D01*
X20004590Y-418670D01*
Y-376330D01*
X20012460Y-334000D01*
X20028210Y-296960D01*
X20051840Y-265210D01*
X20079390Y-244040D01*
X20110890Y-238750D01*
X20142380Y-244040D01*
X20169940Y-265210D01*
X20193570Y-296960D01*
X20209320Y-334000D01*
X20217190Y-376330D01*
Y-418670D01*
X20209320Y-461000D01*
X20193570Y-498040D01*
X20169940Y-529800D01*
X20142380Y-550960D01*
X20110890Y-556250D01*
G01X20347110Y-238750D02*
Y-556250D01*
X20504590D01*
G01X20819550D02*
X20662070D01*
Y-238750D01*
X20819550D01*
G01X20756560Y-392200D02*
X20662070D01*
G01X20973090Y-513930D02*
X21004590Y-540380D01*
X21040020Y-556250D01*
X21071520D01*
X21103010Y-540380D01*
X21126640Y-513930D01*
X21138450Y-476870D01*
X21130580Y-439840D01*
X21110890Y-408090D01*
X21075450Y-386910D01*
X21028210Y-376330D01*
X21000650Y-355170D01*
X20988840Y-318130D01*
X20996720Y-281080D01*
X21016400Y-254630D01*
X21043960Y-238750D01*
X21071520D01*
X21099080Y-249330D01*
X21122700Y-275790D01*
G01X21370730Y-566830D02*
X21362850Y-561540D01*
Y-550960D01*
X21370730Y-545670D01*
X21378610Y-550960D01*
Y-561540D01*
X21370730Y-566830D01*
G01Y-423970D02*
X21362850Y-418670D01*
Y-408090D01*
X21370730Y-402800D01*
X21378610Y-408090D01*
Y-418670D01*
X21370730Y-423970D01*
G01X19326030Y78750D02*
Y396250D01*
X19420520D01*
X19452010Y380370D01*
X19475640Y343330D01*
X19483510Y301000D01*
X19475640Y258670D01*
X19455950Y226910D01*
X19420520Y211030D01*
X19326030D01*
G01X19640990Y396250D02*
Y78750D01*
X19798470D01*
G01X19936260D02*
X20034690Y396250D01*
X20133120Y78750D01*
G01X20097680Y189870D02*
X19971690D01*
G01X20349650Y396250D02*
Y78750D01*
G01X20259100Y396250D02*
X20440200D01*
G01X20743350Y78750D02*
X20585870D01*
Y396250D01*
X20743350D01*
G01X20680360Y242800D02*
X20585870D01*
G01X20892960Y78750D02*
Y396250D01*
X20971690D01*
X21003190Y380370D01*
X21026810Y359210D01*
X21046500Y327460D01*
X21062250Y290410D01*
X21066180Y237500D01*
X21062250Y184580D01*
X21046500Y147540D01*
X21026810Y115780D01*
X21003190Y94620D01*
X20971690Y78750D01*
X20892960D01*
G01X19326030Y713750D02*
Y1031250D01*
X19420520D01*
X19452010Y1015370D01*
X19475640Y978330D01*
X19483510Y936000D01*
X19475640Y893670D01*
X19455950Y861910D01*
X19420520Y846030D01*
X19326030D01*
G01X19640990Y1031250D02*
Y713750D01*
X19798470D01*
G01X19936260D02*
X20034690Y1031250D01*
X20133120Y713750D01*
G01X20097680Y824870D02*
X19971690D01*
G01X20349650Y1031250D02*
Y713750D01*
G01X20259100Y1031250D02*
X20440200D01*
G01X20743350Y713750D02*
X20585870D01*
Y1031250D01*
X20743350D01*
G01X20680360Y877800D02*
X20585870D01*
G01X20892960Y713750D02*
Y1031250D01*
X20971690D01*
X21003190Y1015370D01*
X21026810Y994210D01*
X21046500Y962460D01*
X21062250Y925410D01*
X21066180Y872500D01*
X21062250Y819580D01*
X21046500Y782540D01*
X21026810Y750780D01*
X21003190Y729620D01*
X20971690Y713750D01*
X20892960D01*
G01X19326030Y1348750D02*
Y1666250D01*
X19420520D01*
X19452010Y1650370D01*
X19475640Y1613330D01*
X19483510Y1571000D01*
X19475640Y1528670D01*
X19455950Y1496910D01*
X19420520Y1481030D01*
X19326030D01*
G01X19640990Y1666250D02*
Y1348750D01*
X19798470D01*
G01X19936260D02*
X20034690Y1666250D01*
X20133120Y1348750D01*
G01X20097680Y1459870D02*
X19971690D01*
G01X20349650Y1666250D02*
Y1348750D01*
G01X20259100Y1666250D02*
X20440200D01*
G01X20743350Y1348750D02*
X20585870D01*
Y1666250D01*
X20743350D01*
G01X20680360Y1512800D02*
X20585870D01*
G01X20892960Y1348750D02*
Y1666250D01*
X20971690D01*
X21003190Y1650370D01*
X21026810Y1629210D01*
X21046500Y1597460D01*
X21062250Y1560410D01*
X21066180Y1507500D01*
X21062250Y1454580D01*
X21046500Y1417540D01*
X21026810Y1385780D01*
X21003190Y1364620D01*
X20971690Y1348750D01*
X20892960D01*
G01X22558300Y-291670D02*
X22581930Y-259920D01*
X22609490Y-244040D01*
X22640990Y-238750D01*
X22680350Y-249330D01*
X22707920Y-275790D01*
X22715790Y-307540D01*
X22711850Y-339300D01*
X22696100Y-365750D01*
X22617360Y-418670D01*
X22581930Y-455710D01*
X22558300Y-508640D01*
X22550430Y-556250D01*
X22715790D01*
G01X22948070D02*
X22975630Y-550960D01*
X23007120Y-535090D01*
X23026810Y-508640D01*
X23034680Y-471580D01*
X23026810Y-434550D01*
X23003190Y-402800D01*
X22967750Y-386910D01*
X22928390D01*
X22904760Y-376330D01*
X22885070Y-349880D01*
X22877200Y-312840D01*
X22889020Y-275790D01*
X22916570Y-249330D01*
X22948070Y-238750D01*
X22979560Y-249330D01*
X23007120Y-275790D01*
X23018940Y-312840D01*
X23011060Y-349880D01*
X22991380Y-376330D01*
X22967750Y-386910D01*
X22928390D01*
X22892950Y-402800D01*
X22869330Y-434550D01*
X22861460Y-471580D01*
X22869330Y-508640D01*
X22889020Y-535090D01*
X22920510Y-550960D01*
X22948070Y-556250D01*
G01X22558300Y978330D02*
X22581930Y1010080D01*
X22609490Y1025960D01*
X22640990Y1031250D01*
X22680350Y1020670D01*
X22707920Y994210D01*
X22715790Y962460D01*
X22711850Y930700D01*
X22696100Y904250D01*
X22617360Y851330D01*
X22581930Y814290D01*
X22558300Y761360D01*
X22550430Y713750D01*
X22715790D01*
G01X22948070Y1031250D02*
X22916570Y1020670D01*
X22892950Y994210D01*
X22877200Y962460D01*
X22865390Y920120D01*
X22861460Y872500D01*
X22865390Y824870D01*
X22877200Y782540D01*
X22892950Y750780D01*
X22916570Y724330D01*
X22948070Y713750D01*
X22979560Y724330D01*
X23003190Y750780D01*
X23018940Y782540D01*
X23030750Y824870D01*
X23034680Y872500D01*
X23030750Y920120D01*
X23018940Y962460D01*
X23003190Y994210D01*
X22979560Y1020670D01*
X22948070Y1031250D01*
G01X22475630Y1348750D02*
X22444130Y1354040D01*
X22416580Y1375200D01*
X22392950Y1406960D01*
X22377200Y1444000D01*
X22369330Y1486330D01*
Y1528670D01*
X22377200Y1571000D01*
X22392950Y1608040D01*
X22416580Y1639790D01*
X22444130Y1660960D01*
X22475630Y1666250D01*
X22507120Y1660960D01*
X22534680Y1639790D01*
X22558310Y1608040D01*
X22574060Y1571000D01*
X22581930Y1528670D01*
Y1486330D01*
X22574060Y1444000D01*
X22558310Y1406960D01*
X22534680Y1375200D01*
X22507120Y1354040D01*
X22475630Y1348750D01*
G01X22507120Y1433420D02*
X22554370Y1348750D01*
G01X22790590Y1666250D02*
Y1348750D01*
G01X22700040Y1666250D02*
X22881140D01*
G01X23105550Y1348750D02*
Y1491620D01*
X23026810Y1666250D01*
G01X23184290D02*
X23105550Y1491620D01*
G01X22790590Y78750D02*
X22818150Y84040D01*
X22849640Y99910D01*
X22869330Y126360D01*
X22877200Y163420D01*
X22869330Y200450D01*
X22845710Y232200D01*
X22810270Y248090D01*
X22770910D01*
X22747280Y258670D01*
X22727590Y285120D01*
X22719720Y322160D01*
X22731540Y359210D01*
X22759090Y385670D01*
X22790590Y396250D01*
X22822080Y385670D01*
X22849640Y359210D01*
X22861460Y322160D01*
X22853580Y285120D01*
X22833900Y258670D01*
X22810270Y248090D01*
X22770910D01*
X22735470Y232200D01*
X22711850Y200450D01*
X22703980Y163420D01*
X22711850Y126360D01*
X22731540Y99910D01*
X22763030Y84040D01*
X22790590Y78750D01*
G01X-250000Y0D02*
X-750000D01*
G01X-562500Y400000D02*
X-500000Y0D01*
X-437500Y400000D01*
X-562500D01*
G01X-437500Y520000D02*
X-500000Y920000D01*
X-562500Y520000D01*
X-437500D01*
G01X0Y920000D02*
X-750000D01*
G01X-500000Y224260D02*
Y0D01*
G01Y715740D02*
Y920000D01*
G01X0Y-250000D02*
Y-680000D01*
G01X733140Y-430000D02*
X0D01*
G01X400000Y-367500D02*
X0Y-430000D01*
X400000Y-492500D01*
Y-367500D01*
G01X1366860Y-430000D02*
X2200000D01*
G01X1800000Y-492500D02*
X2200000Y-430000D01*
X1800000Y-367500D01*
Y-492500D01*
G01X2200000Y-130000D02*
Y-680000D01*
G01X2830000Y-80000D02*
Y3110000D01*
X23774840D01*
Y-80000D01*
X2830000D01*
G01Y555000D02*
X23774840D01*
G01X2830000Y1190000D02*
X23774840D01*
G01X2830000Y1825000D02*
X23774840D01*
G01X2830000Y2460000D02*
X23774840D01*
G01X5113460Y1825000D02*
Y-80000D01*
G01X10231560Y1825000D02*
Y-80000D01*
G01X15349660Y1825000D02*
Y-80000D01*
G01X18578000Y1825000D02*
Y-80000D01*
G01X21806340Y1825000D02*
Y-80000D01*
M02*
