M48
METRIC,TZ
T01C.254
;LEADER: 12 
;HEADER: 
;CODE  : ASCII 
;FILE  : HY_TYPEC_ADAPTER_V10_240925-1-2.drl for board G:/github/DebugTool/HARDWARE/HY_TYPEC_ADAPTER_V10_240925/PCB/#Taaabbt11980.tmp ... layers TOP and BOTTOM
;T01 Holesize 1. = 0.254000 Tolerance = +0.000000/-0.000000 PLATED MM Quantity = 20
%
G90
T01
X300000Y260000
X500000Y260000
X580000Y260000
X700000Y250000
X790000Y310000
X1500000Y260000
X1700000Y260000
X1780000Y260000
X1900000Y250000
X1990000Y310000
X1990000Y870000
X1900000Y820000
X1770000Y820000
X1700000Y820000
X1500000Y820000
X790000Y870000
X700000Y820000
X570000Y820000
X500000Y820000
X300000Y820000
M30
