G04 ================== begin FILE IDENTIFICATION RECORD ==================*
G04 Layout Name:  HY_TYPEC_ADAPTER_V10_240925.brd*
G04 Film Name:    OUTLINE*
G04 File Format:  Gerber RS274X*
G04 File Origin:  Cadence Allegro 23.1-S006*
G04 Origin Date:  Wed Sep 25 14:33:36 2024*
G04 *
G04 Layer:  BOARD GEOMETRY/DESIGN_OUTLINE*
G04 Layer:  BOARD GEOMETRY/CUTOUT*
G04 *
G04 Offset:    (0.0000 0.0000)*
G04 Mirror:    No*
G04 Mode:      Positive*
G04 Rotation:  0*
G04 FullContactRelief:  No*
G04 UndefLineWidth:     0.1524*
G04 ================== end FILE IDENTIFICATION RECORD ====================*
%FSLAX55Y55*MOMM*%
%IR0*IPPOS*OFA0.00000B0.00000*MIA0B0*SFA1.00000B1.00000*%
%ADD10C,.1524*%
G75*
%LPD*%
G75*
G54D10*
G01X2200000Y260000D02*
G03X2100000Y360000I-100000J0D01*
G01X2080000D01*
G02X2060000Y380000I0J20000D01*
G01Y540000D01*
G02X2080000Y560000I20000J0D01*
G01X2100000D01*
G03X2200000Y660000I0J100000D01*
G01Y820000D01*
G03X2100000Y920000I-100000J0D01*
G01X1300000D01*
G03X1200000Y820000I0J-100000D01*
G01Y810000D01*
G02X1180000Y790000I-20000J0D01*
G01X1020000D01*
G02X1000000Y810000I0J20000D01*
G01Y820000D01*
G03X900000Y920000I-100000J0D01*
G01X100000D01*
G03X0Y820000I0J-100000D01*
G01Y660000D01*
G03X100000Y560000I100000J0D01*
G01X120000D01*
G02X140000Y540000I0J-20000D01*
G01Y380000D01*
G02X120000Y360000I-20000J0D01*
G01X100000D01*
G03X0Y260000I0J-100000D01*
G01Y100000D01*
G03X100000Y0I100000J0D01*
G01X900000D01*
G03X1000000Y100000I0J100000D01*
G01Y110000D01*
G02X1020000Y130000I20000J0D01*
G01X1180000D01*
G02X1200000Y110000I0J-20000D01*
G01Y100000D01*
G03X1300000Y0I100000J0D01*
G01X2100000D01*
G03X2200000Y100000I0J100000D01*
G01Y260000D01*
G01X900000Y560000D02*
X260000D01*
G03X240000Y540000I0J-20000D01*
G01Y380000D01*
G03X260000Y360000I20000J0D01*
G01X900000D01*
G02X1000000Y260000I0J-100000D01*
G01Y250000D01*
G03X1020000Y230000I20000J0D01*
G01X1180000D01*
G03X1200000Y250000I0J20000D01*
G01Y260000D01*
G02X1300000Y360000I100000J0D01*
G01X1940000D01*
G03X1960000Y380000I0J20000D01*
G01Y540000D01*
G03X1940000Y560000I-20000J0D01*
G01X1300000D01*
G02X1200000Y660000I0J100000D01*
G01Y670000D01*
G03X1180000Y690000I-20000J0D01*
G01X1020000D01*
G03X1000000Y670000I0J-20000D01*
G01Y660000D01*
G02X900000Y560000I-100000J0D01*
M02*
