G04 ================== begin FILE IDENTIFICATION RECORD ==================*
G04 Layout Name:  HY_TYPEC_ADAPTER_V10_240925.brd*
G04 Film Name:    SolderMask_Top*
G04 File Format:  Gerber RS274X*
G04 File Origin:  Cadence Allegro 23.1-S006*
G04 Origin Date:  Wed Sep 25 14:33:36 2024*
G04 *
G04 Layer:  PIN/SOLDERMASK_TOP*
G04 Layer:  PACKAGE GEOMETRY/SOLDERMASK_TOP*
G04 Layer:  BOARD GEOMETRY/SOLDERMASK_TOP*
G04 *
G04 Offset:    (0.0000 0.0000)*
G04 Mirror:    No*
G04 Mode:      Positive*
G04 Rotation:  0*
G04 FullContactRelief:  No*
G04 UndefLineWidth:     0.1524*
G04 ================== end FILE IDENTIFICATION RECORD ====================*
%FSLAX55Y55*MOMM*%
%IR0*IPPOS*OFA0.00000B0.00000*MIA0B0*SFA1.00000B1.00000*%
%ADD12R,.4X2.1*%
%ADD11R,.6X2.1*%
%ADD10O,1.3X2.5*%
%ADD13R,.7X.6*%
G75*
%LPD*%
G75*
G36*
G01X280000Y10000D02*
Y100000D01*
X130000D01*
Y10000D01*
X280000D01*
G37*
G36*
G01X330000Y570000D02*
Y660000D01*
X180000D01*
Y570000D01*
X330000D01*
G37*
G36*
G01X900000Y10000D02*
Y100000D01*
X750000D01*
Y10000D01*
X900000D01*
G37*
G36*
G01X840000Y570000D02*
Y660000D01*
X690000D01*
Y570000D01*
X840000D01*
G37*
G36*
G01X1480000Y10000D02*
Y100000D01*
X1330000D01*
Y10000D01*
X1480000D01*
G37*
G36*
G01X1530000Y570000D02*
Y660000D01*
X1380000D01*
Y570000D01*
X1530000D01*
G37*
G36*
G01X2040000D02*
Y660000D01*
X1890000D01*
Y570000D01*
X2040000D01*
G37*
G36*
G01X2100000Y10000D02*
Y100000D01*
X1950000D01*
Y10000D01*
X2100000D01*
G37*
G54D10*
X68000Y178000D03*
Y738000D03*
X932000Y178000D03*
Y738000D03*
X1268000Y178000D03*
Y738000D03*
X2132000Y178000D03*
Y738000D03*
G54D11*
X420000Y110000D03*
X340000D03*
X500000D03*
X580000D03*
X660000D03*
X1540000D03*
X1620000D03*
X1700000D03*
X1780000D03*
X1860000D03*
G54D12*
X435000Y670000D03*
X370000D03*
X500000D03*
X630000D03*
X565000D03*
X1570000D03*
X1635000D03*
X1830000D03*
X1765000D03*
X1700000D03*
G54D13*
X790000Y145000D03*
Y235000D03*
Y695000D03*
Y785000D03*
X1990000Y145000D03*
Y235000D03*
Y695000D03*
Y785000D03*
M02*
