M48
METRIC,TZ
T01C.254
T02C.8
T03C.9
T04C1.1
T05C2.3
;LEADER: 12 
;HEADER: 
;CODE  : ASCII 
;FILE  : CH340E_TEST_V10-1-2.drl for board H:/github/MBED-TOOLS/HARDWARE/CH340E_TEST_V10/PCB/#Taaaaap02612.tmp ... layers TOP and BOTTOM
;T01 Holesize 1. = 0.254000 Tolerance = +0.000000/-0.000000 PLATED MM Quantity = 36
;T02 Holesize 2. = 0.800000 Tolerance = +0.000000/-0.000000 PLATED MM Quantity = 4
;T03 Holesize 3. = 0.900000 Tolerance = +0.000000/-0.000000 PLATED MM Quantity = 4
;T04 Holesize 4. = 1.100000 Tolerance = +0.000000/-0.000000 PLATED MM Quantity = 4
;T05 Holesize 5. = 2.300000 Tolerance = +0.000000/-0.000000 PLATED MM Quantity = 4
%
G90
T01
X1120000Y120000
X1620000Y120000
X2120000Y120000
X2750000Y490000
X2840000Y490000
X3250000Y160000
X2840000Y553500
X2770000Y790000
X2750000Y553500
X2670000Y900000
X2490000Y790000
X2240000Y870000
X1990000Y900000
X1990000Y660000
X1820000Y900000
X1500000Y740000
X1490000Y900000
X1490000Y570000
X1330000Y890000
X1310000Y580000
X100000Y570000
X90000Y1030000
X1120000Y1500000
X1370000Y1440000
X1460000Y1440000
X1550000Y1440000
X1640000Y1440000
X1900000Y1440000
X2100000Y1440000
X2240000Y1510000
X2270000Y1180000
X2360000Y1090000
X2550000Y1040000
X2740000Y1510000
X3074550Y1274550
X3140000Y1510000
T02
X980000Y675000
X1180000Y675000
X1180000Y925000
X980000Y925000
T03
X460000Y450000
X460000Y700000
X460000Y900000
X460000Y1150000
T04
X3250000Y440000
X3250000Y694000
X3250000Y948000
X3250000Y1202000
T05
X709000Y198000
X260000Y200000
X260000Y1400000
X709000Y1402000
M30
