G04 ================== begin FILE IDENTIFICATION RECORD ==================*
G04 Layout Name:  H:/github/MBED-TOOLS/HARDWARE/CH340E_TEST_V10/PCB/CH340E_TEST_V10.brd*
G04 Film Name:    Drill_Legend*
G04 File Format:  Gerber RS274X*
G04 File Origin:  Cadence Allegro 17.2-S067*
G04 Origin Date:  Sat Sep 19 10:12:25 2020*
G04 *
G04 Layer:  MANUFACTURING/NCLEGEND-1-2*
G04 Layer:  MANUFACTURING/NCDRILL_LEGEND*
G04 Layer:  MANUFACTURING/NCDRILL_FIGURE*
G04 Layer:  BOARD GEOMETRY/DIMENSION*
G04 *
G04 Offset:    (0.0000 0.0000)*
G04 Mirror:    No*
G04 Mode:      Positive*
G04 Rotation:  0*
G04 FullContactRelief:  No*
G04 UndefLineWidth:     0.1524*
G04 ================== end FILE IDENTIFICATION RECORD ====================*
%FSLAX55Y55*MOMM*%
%IR0*IPPOS*OFA0.00000B0.00000*MIA0B0*SFA1.00000B1.00000*%
%AMMACRO10*
1,1,.1524,1.15,0.0*
20,1,.1524,1.15,0.0,0.0,-1.15,0.0*
1,1,.1524,0.0,-1.15*
20,1,.1524,0.0,-1.15,-1.15,0.0,0.0*
1,1,.1524,-1.15,0.0*
20,1,.1524,-1.15,0.0,0.0,1.15,0.0*
1,1,.1524,0.0,1.15*
20,1,.1524,0.0,1.15,1.15,0.0,0.0*
1,1,.1524,1.15,0.0*
%
%ADD10MACRO10*%
%AMMACRO13*
1,1,.1524,.4,.4*
20,1,.1524,.4,.4,.4,-.4,0.0*
1,1,.1524,.4,-.4*
20,1,.1524,.4,-.4,-.4,-.4,0.0*
1,1,.1524,-.4,-.4*
20,1,.1524,-.4,-.4,-.4,.4,0.0*
1,1,.1524,-.4,.4*
20,1,.1524,-.4,.4,.4,.4,0.0*
1,1,.1524,.4,.4*
%
%ADD13MACRO13*%
%AMMACRO12*
1,1,.1524,.127,0.0*
20,1,.1524,.127,0.0,-.127,0.0,0.0*
1,1,.1524,-.127,0.0*
1,1,.1524,0.0,.127*
20,1,.1524,0.0,.127,0.0,-.127,0.0*
1,1,.1524,0.0,-.127*
%
%ADD12MACRO12*%
%AMMACRO14*
1,1,.1524,.55,0.0*
20,1,.1524,.55,0.0,.275,.476314,0.0*
1,1,.1524,.275,.476314*
20,1,.1524,.275,.476314,-.275,.476314,0.0*
1,1,.1524,-.275,.476314*
20,1,.1524,-.275,.476314,-.55,0.0,0.0*
1,1,.1524,-.55,0.0*
20,1,.1524,-.55,0.0,-.275,-.476314,0.0*
1,1,.1524,-.275,-.476314*
20,1,.1524,-.275,-.476314,.275,-.476314,0.0*
1,1,.1524,.275,-.476314*
20,1,.1524,.275,-.476314,.55,0.0,0.0*
1,1,.1524,.55,0.0*
%
%ADD14MACRO14*%
%AMMACRO11*
1,1,.1524,.45,0.0*
20,1,.1524,.45,0.0,.225,.389711,0.0*
1,1,.1524,.225,.389711*
20,1,.1524,.225,.389711,-.225,.389711,0.0*
1,1,.1524,-.225,.389711*
20,1,.1524,-.225,.389711,-.45,0.0,0.0*
1,1,.1524,-.45,0.0*
20,1,.1524,-.45,0.0,-.225,-.389711,0.0*
1,1,.1524,-.225,-.389711*
20,1,.1524,-.225,-.389711,.225,-.389711,0.0*
1,1,.1524,.225,-.389711*
20,1,.1524,.225,-.389711,.45,0.0,0.0*
1,1,.1524,.45,0.0*
%
%ADD11MACRO11*%
%AMMACRO15*
1,1,.1524,.227817,-.55*
20,1,.1524,.227817,-.55,-.227817,-.55,0.0*
1,1,.1524,-.227817,-.55*
20,1,.1524,-.227817,-.55,-.55,-.227817,0.0*
1,1,.1524,-.55,-.227817*
20,1,.1524,-.55,-.227817,-.55,.227817,0.0*
1,1,.1524,-.55,.227817*
20,1,.1524,-.55,.227817,-.227817,.55,0.0*
1,1,.1524,-.227817,.55*
20,1,.1524,-.227817,.55,.227817,.55,0.0*
1,1,.1524,.227817,.55*
20,1,.1524,.227817,.55,.55,.227817,0.0*
1,1,.1524,.55,.227817*
20,1,.1524,.55,.227817,.55,-.227817,0.0*
1,1,.1524,.55,-.227817*
20,1,.1524,.55,-.227817,.227817,-.55,0.0*
1,1,.1524,.227817,-.55*
%
%ADD15MACRO15*%
%ADD16C,.1524*%
G75*
%LPD*%
G75*
G54D10*
X709000Y198000D03*
X260000Y200000D03*
X709000Y1402000D03*
X260000Y1400000D03*
X5431730Y-422500D03*
G54D11*
X460000Y450000D03*
Y700000D03*
Y900000D03*
Y1150000D03*
X5431730Y1482500D03*
G54D12*
X100000Y570000D03*
X90000Y1030000D03*
X1500000Y740000D03*
X1310000Y580000D03*
X1490000Y570000D03*
X1120000Y120000D03*
X1620000D03*
X1820000Y900000D03*
X1490000D03*
X1330000Y890000D03*
X1120000Y1500000D03*
X1370000Y1440000D03*
X1460000D03*
X1550000D03*
X1640000D03*
X1900000D03*
X2490000Y790000D03*
X2770000D03*
X1990000Y660000D03*
X2120000Y120000D03*
X2750000Y553500D03*
Y490000D03*
X2840000D03*
Y553500D03*
X2270000Y1180000D03*
X2670000Y900000D03*
X2240000Y870000D03*
X1990000Y900000D03*
X2240000Y1510000D03*
X2740000D03*
X3140000D03*
X3074550Y1274550D03*
X2550000Y1040000D03*
X2360000Y1090000D03*
X2100000Y1440000D03*
X3250000Y160000D03*
X5431730Y2752500D03*
G54D13*
X1180000Y675000D03*
X980000D03*
Y925000D03*
X1180000D03*
X5431730Y2117500D03*
G54D14*
X3250000Y440000D03*
X5431730Y212500D03*
G54D15*
X3250000Y694000D03*
Y1202000D03*
Y948000D03*
X5431730Y847500D03*
G54D16*
G01X-1825250Y734750D02*
Y925250D01*
X-1853700Y887150D01*
G01Y734750D02*
X-1796810D01*
G01X-1679790Y814120D02*
X-1663200Y836350D01*
X-1648970Y849050D01*
X-1630010Y855400D01*
X-1613410Y849050D01*
X-1601560Y836350D01*
X-1592080Y817300D01*
X-1589710Y795070D01*
X-1592080Y776020D01*
X-1601560Y756970D01*
X-1615790Y741100D01*
X-1632380Y734750D01*
X-1651340Y741100D01*
X-1667940Y760140D01*
X-1677420Y788730D01*
X-1679790Y820470D01*
X-1675050Y861750D01*
X-1667940Y883980D01*
X-1656090Y906200D01*
X-1639490Y922080D01*
X-1622900Y925250D01*
X-1606300Y918900D01*
X-1594450Y903020D01*
G01X1592600Y-517150D02*
X1606820Y-539380D01*
X1625780Y-552080D01*
X1647120Y-555250D01*
X1666090Y-552080D01*
X1685050Y-536200D01*
X1696900Y-517150D01*
X1699270Y-498100D01*
X1694530Y-475880D01*
X1677940Y-460000D01*
X1661340Y-453650D01*
X1640010D01*
G01X1661340D02*
X1675570Y-444130D01*
X1687420Y-428250D01*
X1692160Y-409200D01*
X1687420Y-390150D01*
X1675570Y-374280D01*
X1654230Y-364750D01*
X1632900Y-367920D01*
X1611560Y-380630D01*
G01X1863700Y-555250D02*
Y-364750D01*
X1775980Y-501270D01*
X1894520D01*
G01X4569520Y3228750D02*
Y3546250D01*
X4719140D01*
G01X4664010Y3392800D02*
X4569520D01*
G01X4912050Y3546250D02*
X5006530D01*
G01X4959290D02*
Y3228750D01*
G01X4912050D02*
X5006530D01*
G01X5297870Y3387500D02*
X5376620D01*
Y3292250D01*
X5352990Y3260490D01*
X5325430Y3239330D01*
X5286060Y3228750D01*
X5246690Y3239330D01*
X5219130Y3260490D01*
X5195510Y3292250D01*
X5179760Y3329290D01*
X5171880Y3371620D01*
Y3408670D01*
X5179760Y3440410D01*
X5195510Y3477460D01*
X5219130Y3509210D01*
X5242750Y3530370D01*
X5274250Y3546250D01*
X5301810D01*
X5333300Y3535670D01*
X5356930Y3514500D01*
G01X5502600Y3546250D02*
Y3318710D01*
X5518340Y3271070D01*
X5549840Y3239330D01*
X5589210Y3228750D01*
X5628580Y3239330D01*
X5660080Y3271070D01*
X5675820Y3318710D01*
Y3546250D01*
G01X5825430Y3228750D02*
Y3546250D01*
X5923850D01*
X5955350Y3530370D01*
X5975040Y3509210D01*
X5982910Y3466870D01*
X5975040Y3424540D01*
X5951410Y3398090D01*
X5923850Y3382200D01*
X5825430D01*
G01X5923850D02*
X5982910Y3228750D01*
G01X6297870D02*
X6140390D01*
Y3546250D01*
X6297870D01*
G01X6234880Y3392800D02*
X6140390D01*
G01X6238810Y3863750D02*
X6337240Y4181250D01*
X6435670Y3863750D01*
G01X6400230Y3974870D02*
X6274240D01*
G01X6573460Y4181250D02*
Y3863750D01*
X6730940D01*
G01X6888420Y4181250D02*
Y3863750D01*
X7045900D01*
G01X7510470Y4181250D02*
Y3953710D01*
X7526210Y3906070D01*
X7557710Y3874330D01*
X7597080Y3863750D01*
X7636450Y3874330D01*
X7667950Y3906070D01*
X7683690Y3953710D01*
Y4181250D01*
G01X7821490Y3863750D02*
Y4181250D01*
X8002590Y3863750D01*
Y4181250D01*
G01X8179760D02*
X8274240D01*
G01X8227000D02*
Y3863750D01*
G01X8179760D02*
X8274240D01*
G01X8541960Y4181250D02*
Y3863750D01*
G01X8451410Y4181250D02*
X8632510D01*
G01X8774240Y3906070D02*
X8805740Y3879620D01*
X8841170Y3863750D01*
X8872670D01*
X8904160Y3879620D01*
X8927790Y3906070D01*
X8939600Y3943130D01*
X8931730Y3980160D01*
X8912040Y4011910D01*
X8876600Y4033090D01*
X8829360Y4043670D01*
X8801800Y4064830D01*
X8789990Y4101870D01*
X8797870Y4138920D01*
X8817550Y4165370D01*
X8845110Y4181250D01*
X8872670D01*
X8900230Y4170670D01*
X8923850Y4144210D01*
G01X9388410Y3863750D02*
X9486840Y4181250D01*
X9585270Y3863750D01*
G01X9549830Y3974870D02*
X9423840D01*
G01X9723060Y3863750D02*
Y4181250D01*
X9821480D01*
X9852980Y4165370D01*
X9872670Y4144210D01*
X9880540Y4101870D01*
X9872670Y4059540D01*
X9849040Y4033090D01*
X9821480Y4017200D01*
X9723060D01*
G01X9821480D02*
X9880540Y3863750D01*
G01X10195500D02*
X10038020D01*
Y4181250D01*
X10195500D01*
G01X10132510Y4027800D02*
X10038020D01*
G01X10699440Y4181250D02*
X10793920D01*
G01X10746680D02*
Y3863750D01*
G01X10699440D02*
X10793920D01*
G01X10971090D02*
Y4181250D01*
X11152190Y3863750D01*
Y4181250D01*
G01X11589190Y3863750D02*
Y4181250D01*
X11691560Y3916670D01*
X11793930Y4181250D01*
Y3863750D01*
G01X11959280Y4181250D02*
X12053760D01*
G01X12006520D02*
Y3863750D01*
G01X11959280D02*
X12053760D01*
G01X12242740Y4181250D02*
Y3863750D01*
X12400220D01*
G01X12557700Y4181250D02*
Y3863750D01*
X12715180D01*
G01X12904160Y4181250D02*
X12998640D01*
G01X12951400D02*
Y3863750D01*
G01X12904160D02*
X12998640D01*
G01X13163990D02*
Y4181250D01*
X13266360Y3916670D01*
X13368730Y4181250D01*
Y3863750D01*
G01X13660060D02*
X13502580D01*
Y4181250D01*
X13660060D01*
G01X13597070Y4027800D02*
X13502580D01*
G01X13896280Y4181250D02*
Y3863750D01*
G01X13805730Y4181250D02*
X13986830D01*
G01X14289980Y3863750D02*
X14132500D01*
Y4181250D01*
X14289980D01*
G01X14226990Y4027800D02*
X14132500D01*
G01X14447460Y3863750D02*
Y4181250D01*
X14545880D01*
X14577380Y4165370D01*
X14597070Y4144210D01*
X14604940Y4101870D01*
X14597070Y4059540D01*
X14573440Y4033090D01*
X14545880Y4017200D01*
X14447460D01*
G01X14545880D02*
X14604940Y3863750D01*
G01X14758480Y3906070D02*
X14789980Y3879620D01*
X14825410Y3863750D01*
X14856910D01*
X14888400Y3879620D01*
X14912030Y3906070D01*
X14923840Y3943130D01*
X14915970Y3980160D01*
X14896280Y4011910D01*
X14860840Y4033090D01*
X14813600Y4043670D01*
X14786040Y4064830D01*
X14774230Y4101870D01*
X14782110Y4138920D01*
X14801790Y4165370D01*
X14829350Y4181250D01*
X14856910D01*
X14884470Y4170670D01*
X14908090Y4144210D01*
G01X6565590Y4513750D02*
Y4831250D01*
X6644320D01*
X6675820Y4815370D01*
X6699440Y4794210D01*
X6719130Y4762460D01*
X6734880Y4725410D01*
X6738810Y4672500D01*
X6734880Y4619580D01*
X6719130Y4582540D01*
X6699440Y4550780D01*
X6675820Y4529620D01*
X6644320Y4513750D01*
X6565590D01*
G01X6888420D02*
Y4831250D01*
X6986840D01*
X7018340Y4815370D01*
X7038030Y4794210D01*
X7045900Y4751870D01*
X7038030Y4709540D01*
X7014400Y4683090D01*
X6986840Y4667200D01*
X6888420D01*
G01X6986840D02*
X7045900Y4513750D01*
G01X7234880Y4831250D02*
X7329360D01*
G01X7282120D02*
Y4513750D01*
G01X7234880D02*
X7329360D01*
G01X7518340Y4831250D02*
Y4513750D01*
X7675820D01*
G01X7833300Y4831250D02*
Y4513750D01*
X7990780D01*
G01X8628570Y4804790D02*
X8604950Y4820670D01*
X8577400Y4831250D01*
X8545900D01*
X8510460Y4815370D01*
X8482910Y4788920D01*
X8463220Y4757160D01*
X8447470Y4704250D01*
X8443530Y4656620D01*
X8451410Y4609000D01*
X8463220Y4577250D01*
X8486840Y4545490D01*
X8514400Y4524330D01*
X8541960Y4513750D01*
X8569520D01*
X8597080Y4524330D01*
X8620700Y4540200D01*
X8640390Y4561360D01*
G01X8774240Y4513750D02*
Y4831250D01*
G01X8939600D02*
Y4513750D01*
G01Y4672500D02*
X8774240D01*
G01X9073450Y4513750D02*
X9171880Y4831250D01*
X9270310Y4513750D01*
G01X9234870Y4624870D02*
X9108880D01*
G01X9408100Y4513750D02*
Y4831250D01*
X9506520D01*
X9538020Y4815370D01*
X9557710Y4794210D01*
X9565580Y4751870D01*
X9557710Y4709540D01*
X9534080Y4683090D01*
X9506520Y4667200D01*
X9408100D01*
G01X9506520D02*
X9565580Y4513750D01*
G01X9801800Y4831250D02*
Y4513750D01*
G01X9711250Y4831250D02*
X9892350D01*
G01X10116760Y4503170D02*
X10108880Y4508460D01*
Y4519040D01*
X10116760Y4524330D01*
X10124640Y4519040D01*
Y4508460D01*
X10116760Y4503170D01*
G01Y4646030D02*
X10108880Y4651330D01*
Y4661910D01*
X10116760Y4667200D01*
X10124640Y4661910D01*
Y4651330D01*
X10116760Y4646030D01*
G01X10746680Y4831250D02*
Y4513750D01*
G01X10656130Y4831250D02*
X10837230D01*
G01X11061640Y4513750D02*
X11030140Y4519040D01*
X11002590Y4540200D01*
X10978960Y4571960D01*
X10963210Y4609000D01*
X10955340Y4651330D01*
Y4693670D01*
X10963210Y4736000D01*
X10978960Y4773040D01*
X11002590Y4804790D01*
X11030140Y4825960D01*
X11061640Y4831250D01*
X11093130Y4825960D01*
X11120690Y4804790D01*
X11144320Y4773040D01*
X11160070Y4736000D01*
X11167940Y4693670D01*
Y4651330D01*
X11160070Y4609000D01*
X11144320Y4571960D01*
X11120690Y4540200D01*
X11093130Y4519040D01*
X11061640Y4513750D01*
G01X11297860D02*
Y4831250D01*
X11392350D01*
X11423840Y4815370D01*
X11447470Y4778330D01*
X11455340Y4736000D01*
X11447470Y4693670D01*
X11427780Y4661910D01*
X11392350Y4646030D01*
X11297860D01*
G01X12006520Y4831250D02*
Y4513750D01*
G01X11951400Y4725410D02*
X12061640D01*
G01X12321480Y4513750D02*
X12297860Y4519040D01*
X12274240Y4540200D01*
X12258480Y4577250D01*
X12250610Y4619580D01*
X12258480Y4661910D01*
X12274240Y4698960D01*
X12297860Y4720120D01*
X12321480Y4725410D01*
X12345100Y4720120D01*
X12368720Y4698960D01*
X12384470Y4661910D01*
X12388410Y4619580D01*
X12384470Y4577250D01*
X12368720Y4540200D01*
X12345100Y4519040D01*
X12321480Y4513750D01*
G01X12982890Y4683090D02*
X12998640Y4698960D01*
X13010450Y4725410D01*
X13018330Y4762460D01*
X13010450Y4794210D01*
X12994710Y4815370D01*
X12967150Y4831250D01*
X12860850D01*
Y4513750D01*
X12990770D01*
X13018330Y4534910D01*
X13034080Y4566670D01*
X13041950Y4603710D01*
X13034080Y4640740D01*
X13010450Y4672500D01*
X12982890Y4683090D01*
X12860850D01*
G01X13266360Y4513750D02*
X13234860Y4519040D01*
X13207310Y4540200D01*
X13183680Y4571960D01*
X13167930Y4609000D01*
X13160060Y4651330D01*
Y4693670D01*
X13167930Y4736000D01*
X13183680Y4773040D01*
X13207310Y4804790D01*
X13234860Y4825960D01*
X13266360Y4831250D01*
X13297850Y4825960D01*
X13325410Y4804790D01*
X13349040Y4773040D01*
X13364790Y4736000D01*
X13372660Y4693670D01*
Y4651330D01*
X13364790Y4609000D01*
X13349040Y4571960D01*
X13325410Y4540200D01*
X13297850Y4519040D01*
X13266360Y4513750D01*
G01X13581320Y4831250D02*
Y4513750D01*
G01X13490770Y4831250D02*
X13671870D01*
G01X13896280D02*
Y4513750D01*
G01X13805730Y4831250D02*
X13986830D01*
G01X14211240Y4513750D02*
X14179740Y4519040D01*
X14152190Y4540200D01*
X14128560Y4571960D01*
X14112810Y4609000D01*
X14104940Y4651330D01*
Y4693670D01*
X14112810Y4736000D01*
X14128560Y4773040D01*
X14152190Y4804790D01*
X14179740Y4825960D01*
X14211240Y4831250D01*
X14242730Y4825960D01*
X14270290Y4804790D01*
X14293920Y4773040D01*
X14309670Y4736000D01*
X14317540Y4693670D01*
Y4651330D01*
X14309670Y4609000D01*
X14293920Y4571960D01*
X14270290Y4540200D01*
X14242730Y4519040D01*
X14211240Y4513750D01*
G01X14423830D02*
Y4831250D01*
X14526200Y4566670D01*
X14628570Y4831250D01*
Y4513750D01*
G01X7167940Y3228750D02*
Y3546250D01*
X7317560D01*
G01X7262430Y3392800D02*
X7167940D01*
G01X7510470Y3546250D02*
X7604950D01*
G01X7557710D02*
Y3228750D01*
G01X7510470D02*
X7604950D01*
G01X7782120D02*
Y3546250D01*
X7963220Y3228750D01*
Y3546250D01*
G01X8140390D02*
X8234870D01*
G01X8187630D02*
Y3228750D01*
G01X8140390D02*
X8234870D01*
G01X8419910Y3271070D02*
X8451410Y3244620D01*
X8486840Y3228750D01*
X8518340D01*
X8549830Y3244620D01*
X8573460Y3271070D01*
X8585270Y3308130D01*
X8577400Y3345160D01*
X8557710Y3376910D01*
X8522270Y3398090D01*
X8475030Y3408670D01*
X8447470Y3429830D01*
X8435660Y3466870D01*
X8443540Y3503920D01*
X8463220Y3530370D01*
X8490780Y3546250D01*
X8518340D01*
X8545900Y3535670D01*
X8569520Y3509210D01*
G01X8734870Y3228750D02*
Y3546250D01*
G01X8900230D02*
Y3228750D01*
G01Y3387500D02*
X8734870D01*
G01X9211250Y3228750D02*
X9053770D01*
Y3546250D01*
X9211250D01*
G01X9148260Y3392800D02*
X9053770D01*
G01X9360860Y3228750D02*
Y3546250D01*
X9439590D01*
X9471090Y3530370D01*
X9494710Y3509210D01*
X9514400Y3477460D01*
X9530150Y3440410D01*
X9534080Y3387500D01*
X9530150Y3334580D01*
X9514400Y3297540D01*
X9494710Y3265780D01*
X9471090Y3244620D01*
X9439590Y3228750D01*
X9360860D01*
G01X9644320Y3122920D02*
X9880540D01*
G01X9994710Y3271070D02*
X10026210Y3244620D01*
X10061640Y3228750D01*
X10093140D01*
X10124630Y3244620D01*
X10148260Y3271070D01*
X10160070Y3308130D01*
X10152200Y3345160D01*
X10132510Y3376910D01*
X10097070Y3398090D01*
X10049830Y3408670D01*
X10022270Y3429830D01*
X10010460Y3466870D01*
X10018340Y3503920D01*
X10038020Y3530370D01*
X10065580Y3546250D01*
X10093140D01*
X10120700Y3535670D01*
X10144320Y3509210D01*
G01X10345110Y3546250D02*
X10439590D01*
G01X10392350D02*
Y3228750D01*
G01X10345110D02*
X10439590D01*
G01X10632500Y3546250D02*
X10782120D01*
X10632500Y3228750D01*
X10782120D01*
G01X11101010D02*
X10943530D01*
Y3546250D01*
X11101010D01*
G01X11038020Y3392800D02*
X10943530D01*
G01X8742740Y-316670D02*
X8766370Y-284920D01*
X8793930Y-269040D01*
X8825430Y-263750D01*
X8864790Y-274330D01*
X8892360Y-300790D01*
X8900230Y-332540D01*
X8896290Y-364300D01*
X8880540Y-390750D01*
X8801800Y-443670D01*
X8766370Y-480710D01*
X8742740Y-533640D01*
X8734870Y-581250D01*
X8900230D01*
G01X9132510Y-591830D02*
X9124630Y-586540D01*
Y-575960D01*
X9132510Y-570670D01*
X9140390Y-575960D01*
Y-586540D01*
X9132510Y-591830D01*
G01X9360860Y-517750D02*
X9384470Y-554800D01*
X9415970Y-575960D01*
X9451410Y-581250D01*
X9482910Y-575960D01*
X9514400Y-549510D01*
X9534080Y-517750D01*
X9538020Y-486000D01*
X9530150Y-448970D01*
X9502590Y-422500D01*
X9475030Y-411910D01*
X9439590D01*
G01X9475030D02*
X9498650Y-396040D01*
X9518340Y-369590D01*
X9526210Y-337840D01*
X9518340Y-306080D01*
X9498650Y-279630D01*
X9463220Y-263750D01*
X9427790Y-269040D01*
X9392350Y-290210D01*
G01X8817550Y688750D02*
Y1006250D01*
X8770310Y942750D01*
G01Y688750D02*
X8864790D01*
G01X9132510Y678170D02*
X9124630Y683460D01*
Y694040D01*
X9132510Y699330D01*
X9140390Y694040D01*
Y683460D01*
X9132510Y678170D01*
G01X9447470Y688750D02*
Y1006250D01*
X9400230Y942750D01*
G01Y688750D02*
X9494710D01*
G01X8817550Y53750D02*
Y371250D01*
X8770310Y307750D01*
G01Y53750D02*
X8864790D01*
G01X9132510Y43170D02*
X9124630Y48460D01*
Y59040D01*
X9132510Y64330D01*
X9140390Y59040D01*
Y48460D01*
X9132510Y43170D01*
G01X9447470Y53750D02*
Y371250D01*
X9400230Y307750D01*
G01Y53750D02*
X9494710D01*
G01X8817550Y2276250D02*
X8786050Y2265670D01*
X8762430Y2239210D01*
X8746680Y2207460D01*
X8734870Y2165120D01*
X8730940Y2117500D01*
X8734870Y2069870D01*
X8746680Y2027540D01*
X8762430Y1995780D01*
X8786050Y1969330D01*
X8817550Y1958750D01*
X8849040Y1969330D01*
X8872670Y1995780D01*
X8888420Y2027540D01*
X8900230Y2069870D01*
X8904160Y2117500D01*
X8900230Y2165120D01*
X8888420Y2207460D01*
X8872670Y2239210D01*
X8849040Y2265670D01*
X8817550Y2276250D01*
G01X9132510Y1948170D02*
X9124630Y1953460D01*
Y1964040D01*
X9132510Y1969330D01*
X9140390Y1964040D01*
Y1953460D01*
X9132510Y1948170D01*
G01X9447470Y1958750D02*
X9475030Y1964040D01*
X9506520Y1979910D01*
X9526210Y2006360D01*
X9534080Y2043420D01*
X9526210Y2080450D01*
X9502590Y2112200D01*
X9467150Y2128090D01*
X9427790D01*
X9404160Y2138670D01*
X9384470Y2165120D01*
X9376600Y2202160D01*
X9388420Y2239210D01*
X9415970Y2265670D01*
X9447470Y2276250D01*
X9478960Y2265670D01*
X9506520Y2239210D01*
X9518340Y2202160D01*
X9510460Y2165120D01*
X9490780Y2138670D01*
X9467150Y2128090D01*
X9427790D01*
X9392350Y2112200D01*
X9368730Y2080450D01*
X9360860Y2043420D01*
X9368730Y2006360D01*
X9388420Y1979910D01*
X9419910Y1964040D01*
X9447470Y1958750D01*
G01X8817550Y1641250D02*
X8786050Y1630670D01*
X8762430Y1604210D01*
X8746680Y1572460D01*
X8734870Y1530120D01*
X8730940Y1482500D01*
X8734870Y1434870D01*
X8746680Y1392540D01*
X8762430Y1360780D01*
X8786050Y1334330D01*
X8817550Y1323750D01*
X8849040Y1334330D01*
X8872670Y1360780D01*
X8888420Y1392540D01*
X8900230Y1434870D01*
X8904160Y1482500D01*
X8900230Y1530120D01*
X8888420Y1572460D01*
X8872670Y1604210D01*
X8849040Y1630670D01*
X8817550Y1641250D01*
G01X9132510Y1313170D02*
X9124630Y1318460D01*
Y1329040D01*
X9132510Y1334330D01*
X9140390Y1329040D01*
Y1318460D01*
X9132510Y1313170D01*
G01X9380540Y1360780D02*
X9408100Y1334330D01*
X9439590Y1323750D01*
X9471090Y1334330D01*
X9498650Y1366070D01*
X9518340Y1413710D01*
X9526210Y1461330D01*
Y1519540D01*
X9518340Y1567160D01*
X9498650Y1609500D01*
X9475030Y1630670D01*
X9447470Y1641250D01*
X9415970Y1630670D01*
X9392350Y1609500D01*
X9376600Y1577750D01*
X9368730Y1535410D01*
X9376600Y1498380D01*
X9396290Y1461330D01*
X9419910Y1440160D01*
X9447470Y1434870D01*
X9478960Y1445450D01*
X9502590Y1471910D01*
X9526210Y1519540D01*
G01X8502590Y2911250D02*
X8471090Y2900670D01*
X8447470Y2874210D01*
X8431720Y2842460D01*
X8419910Y2800120D01*
X8415980Y2752500D01*
X8419910Y2704870D01*
X8431720Y2662540D01*
X8447470Y2630780D01*
X8471090Y2604330D01*
X8502590Y2593750D01*
X8534080Y2604330D01*
X8557710Y2630780D01*
X8573460Y2662540D01*
X8585270Y2704870D01*
X8589200Y2752500D01*
X8585270Y2800120D01*
X8573460Y2842460D01*
X8557710Y2874210D01*
X8534080Y2900670D01*
X8502590Y2911250D01*
G01X8817550Y2583170D02*
X8809670Y2588460D01*
Y2599040D01*
X8817550Y2604330D01*
X8825430Y2599040D01*
Y2588460D01*
X8817550Y2583170D01*
G01X9057700Y2858330D02*
X9081330Y2890080D01*
X9108890Y2905960D01*
X9140390Y2911250D01*
X9179750Y2900670D01*
X9207320Y2874210D01*
X9215190Y2842460D01*
X9211250Y2810700D01*
X9195500Y2784250D01*
X9116760Y2731330D01*
X9081330Y2694290D01*
X9057700Y2641360D01*
X9049830Y2593750D01*
X9215190D01*
G01X9360860Y2641360D02*
X9384470Y2614910D01*
X9412030Y2599040D01*
X9447470Y2593750D01*
X9482910Y2604330D01*
X9510460Y2625490D01*
X9530150Y2662540D01*
X9534080Y2704870D01*
X9526210Y2747200D01*
X9506520Y2773670D01*
X9478960Y2794830D01*
X9451410Y2800120D01*
X9423850Y2794830D01*
X9388420Y2773670D01*
X9400230Y2911250D01*
X9506520D01*
G01X9809670Y2593750D02*
Y2911250D01*
X9664000Y2683710D01*
X9860860D01*
G01X11019730Y-898750D02*
Y-1216250D01*
G01X10929180Y-898750D02*
X11110280D01*
G01X11334690Y-1216250D02*
X11303190Y-1210960D01*
X11275640Y-1189800D01*
X11252010Y-1158040D01*
X11236260Y-1121000D01*
X11228390Y-1078670D01*
Y-1036330D01*
X11236260Y-994000D01*
X11252010Y-956960D01*
X11275640Y-925210D01*
X11303190Y-904040D01*
X11334690Y-898750D01*
X11366180Y-904040D01*
X11393740Y-925210D01*
X11417370Y-956960D01*
X11433120Y-994000D01*
X11440990Y-1036330D01*
Y-1078670D01*
X11433120Y-1121000D01*
X11417370Y-1158040D01*
X11393740Y-1189800D01*
X11366180Y-1210960D01*
X11334690Y-1216250D01*
G01X11649650Y-898750D02*
Y-1216250D01*
G01X11559100Y-898750D02*
X11740200D01*
G01X11866180Y-1216250D02*
X11964610Y-898750D01*
X12063040Y-1216250D01*
G01X12027600Y-1105130D02*
X11901610D01*
G01X12200830Y-898750D02*
Y-1216250D01*
X12358310D01*
G01X12826810D02*
Y-898750D01*
G01X12992170D02*
Y-1216250D01*
G01Y-1057500D02*
X12826810D01*
G01X13224450Y-1216250D02*
X13192950Y-1210960D01*
X13165400Y-1189800D01*
X13141770Y-1158040D01*
X13126020Y-1121000D01*
X13118150Y-1078670D01*
Y-1036330D01*
X13126020Y-994000D01*
X13141770Y-956960D01*
X13165400Y-925210D01*
X13192950Y-904040D01*
X13224450Y-898750D01*
X13255940Y-904040D01*
X13283500Y-925210D01*
X13307130Y-956960D01*
X13322880Y-994000D01*
X13330750Y-1036330D01*
Y-1078670D01*
X13322880Y-1121000D01*
X13307130Y-1158040D01*
X13283500Y-1189800D01*
X13255940Y-1210960D01*
X13224450Y-1216250D01*
G01X13460670Y-898750D02*
Y-1216250D01*
X13618150D01*
G01X13933110D02*
X13775630D01*
Y-898750D01*
X13933110D01*
G01X13870120Y-1052200D02*
X13775630D01*
G01X14086650Y-1173930D02*
X14118150Y-1200380D01*
X14153580Y-1216250D01*
X14185080D01*
X14216570Y-1200380D01*
X14240200Y-1173930D01*
X14252010Y-1136870D01*
X14244140Y-1099840D01*
X14224450Y-1068090D01*
X14189010Y-1046910D01*
X14141770Y-1036330D01*
X14114210Y-1015170D01*
X14102400Y-978130D01*
X14110280Y-941080D01*
X14129960Y-914630D01*
X14157520Y-898750D01*
X14185080D01*
X14212640Y-909330D01*
X14236260Y-935790D01*
G01X14484290Y-1226830D02*
X14476410Y-1221540D01*
Y-1210960D01*
X14484290Y-1205670D01*
X14492170Y-1210960D01*
Y-1221540D01*
X14484290Y-1226830D01*
G01Y-1083970D02*
X14476410Y-1078670D01*
Y-1068090D01*
X14484290Y-1062800D01*
X14492170Y-1068090D01*
Y-1078670D01*
X14484290Y-1083970D01*
G01X12439590Y-581250D02*
Y-263750D01*
X12534080D01*
X12565570Y-279630D01*
X12589200Y-316670D01*
X12597070Y-359000D01*
X12589200Y-401330D01*
X12569510Y-433090D01*
X12534080Y-448970D01*
X12439590D01*
G01X12754550Y-263750D02*
Y-581250D01*
X12912030D01*
G01X13049820D02*
X13148250Y-263750D01*
X13246680Y-581250D01*
G01X13211240Y-470130D02*
X13085250D01*
G01X13463210Y-263750D02*
Y-581250D01*
G01X13372660Y-263750D02*
X13553760D01*
G01X13856910Y-581250D02*
X13699430D01*
Y-263750D01*
X13856910D01*
G01X13793920Y-417200D02*
X13699430D01*
G01X14006520Y-581250D02*
Y-263750D01*
X14085250D01*
X14116750Y-279630D01*
X14140370Y-300790D01*
X14160060Y-332540D01*
X14175810Y-369590D01*
X14179740Y-422500D01*
X14175810Y-475420D01*
X14160060Y-512460D01*
X14140370Y-544220D01*
X14116750Y-565380D01*
X14085250Y-581250D01*
X14006520D01*
G01X12439590Y688750D02*
Y1006250D01*
X12534080D01*
X12565570Y990370D01*
X12589200Y953330D01*
X12597070Y911000D01*
X12589200Y868670D01*
X12569510Y836910D01*
X12534080Y821030D01*
X12439590D01*
G01X12754550Y1006250D02*
Y688750D01*
X12912030D01*
G01X13049820D02*
X13148250Y1006250D01*
X13246680Y688750D01*
G01X13211240Y799870D02*
X13085250D01*
G01X13463210Y1006250D02*
Y688750D01*
G01X13372660Y1006250D02*
X13553760D01*
G01X13856910Y688750D02*
X13699430D01*
Y1006250D01*
X13856910D01*
G01X13793920Y852800D02*
X13699430D01*
G01X14006520Y688750D02*
Y1006250D01*
X14085250D01*
X14116750Y990370D01*
X14140370Y969210D01*
X14160060Y937460D01*
X14175810Y900410D01*
X14179740Y847500D01*
X14175810Y794580D01*
X14160060Y757540D01*
X14140370Y725780D01*
X14116750Y704620D01*
X14085250Y688750D01*
X14006520D01*
G01X12439590Y53750D02*
Y371250D01*
X12534080D01*
X12565570Y355370D01*
X12589200Y318330D01*
X12597070Y276000D01*
X12589200Y233670D01*
X12569510Y201910D01*
X12534080Y186030D01*
X12439590D01*
G01X12754550Y371250D02*
Y53750D01*
X12912030D01*
G01X13049820D02*
X13148250Y371250D01*
X13246680Y53750D01*
G01X13211240Y164870D02*
X13085250D01*
G01X13463210Y371250D02*
Y53750D01*
G01X13372660Y371250D02*
X13553760D01*
G01X13856910Y53750D02*
X13699430D01*
Y371250D01*
X13856910D01*
G01X13793920Y217800D02*
X13699430D01*
G01X14006520Y53750D02*
Y371250D01*
X14085250D01*
X14116750Y355370D01*
X14140370Y334210D01*
X14160060Y302460D01*
X14175810Y265410D01*
X14179740Y212500D01*
X14175810Y159580D01*
X14160060Y122540D01*
X14140370Y90780D01*
X14116750Y69620D01*
X14085250Y53750D01*
X14006520D01*
G01X12439590Y1958750D02*
Y2276250D01*
X12534080D01*
X12565570Y2260370D01*
X12589200Y2223330D01*
X12597070Y2181000D01*
X12589200Y2138670D01*
X12569510Y2106910D01*
X12534080Y2091030D01*
X12439590D01*
G01X12754550Y2276250D02*
Y1958750D01*
X12912030D01*
G01X13049820D02*
X13148250Y2276250D01*
X13246680Y1958750D01*
G01X13211240Y2069870D02*
X13085250D01*
G01X13463210Y2276250D02*
Y1958750D01*
G01X13372660Y2276250D02*
X13553760D01*
G01X13856910Y1958750D02*
X13699430D01*
Y2276250D01*
X13856910D01*
G01X13793920Y2122800D02*
X13699430D01*
G01X14006520Y1958750D02*
Y2276250D01*
X14085250D01*
X14116750Y2260370D01*
X14140370Y2239210D01*
X14160060Y2207460D01*
X14175810Y2170410D01*
X14179740Y2117500D01*
X14175810Y2064580D01*
X14160060Y2027540D01*
X14140370Y1995780D01*
X14116750Y1974620D01*
X14085250Y1958750D01*
X14006520D01*
G01X12439590Y1323750D02*
Y1641250D01*
X12534080D01*
X12565570Y1625370D01*
X12589200Y1588330D01*
X12597070Y1546000D01*
X12589200Y1503670D01*
X12569510Y1471910D01*
X12534080Y1456030D01*
X12439590D01*
G01X12754550Y1641250D02*
Y1323750D01*
X12912030D01*
G01X13049820D02*
X13148250Y1641250D01*
X13246680Y1323750D01*
G01X13211240Y1434870D02*
X13085250D01*
G01X13463210Y1641250D02*
Y1323750D01*
G01X13372660Y1641250D02*
X13553760D01*
G01X13856910Y1323750D02*
X13699430D01*
Y1641250D01*
X13856910D01*
G01X13793920Y1487800D02*
X13699430D01*
G01X14006520Y1323750D02*
Y1641250D01*
X14085250D01*
X14116750Y1625370D01*
X14140370Y1604210D01*
X14160060Y1572460D01*
X14175810Y1535410D01*
X14179740Y1482500D01*
X14175810Y1429580D01*
X14160060Y1392540D01*
X14140370Y1360780D01*
X14116750Y1339620D01*
X14085250Y1323750D01*
X14006520D01*
G01X12439590Y3228750D02*
Y3546250D01*
X12534080D01*
X12565570Y3530370D01*
X12589200Y3493330D01*
X12597070Y3451000D01*
X12589200Y3408670D01*
X12569510Y3376910D01*
X12534080Y3361030D01*
X12439590D01*
G01X12754550Y3546250D02*
Y3228750D01*
X12912030D01*
G01X13049820D02*
X13148250Y3546250D01*
X13246680Y3228750D01*
G01X13211240Y3339870D02*
X13085250D01*
G01X13463210Y3546250D02*
Y3228750D01*
G01X13372660Y3546250D02*
X13553760D01*
G01X13856910Y3228750D02*
X13699430D01*
Y3546250D01*
X13856910D01*
G01X13793920Y3392800D02*
X13699430D01*
G01X14006520Y3228750D02*
Y3546250D01*
X14085250D01*
X14116750Y3530370D01*
X14140370Y3509210D01*
X14160060Y3477460D01*
X14175810Y3440410D01*
X14179740Y3387500D01*
X14175810Y3334580D01*
X14160060Y3297540D01*
X14140370Y3265780D01*
X14116750Y3244620D01*
X14085250Y3228750D01*
X14006520D01*
G01X12439590Y2593750D02*
Y2911250D01*
X12534080D01*
X12565570Y2895370D01*
X12589200Y2858330D01*
X12597070Y2816000D01*
X12589200Y2773670D01*
X12569510Y2741910D01*
X12534080Y2726030D01*
X12439590D01*
G01X12754550Y2911250D02*
Y2593750D01*
X12912030D01*
G01X13049820D02*
X13148250Y2911250D01*
X13246680Y2593750D01*
G01X13211240Y2704870D02*
X13085250D01*
G01X13463210Y2911250D02*
Y2593750D01*
G01X13372660Y2911250D02*
X13553760D01*
G01X13856910Y2593750D02*
X13699430D01*
Y2911250D01*
X13856910D01*
G01X13793920Y2757800D02*
X13699430D01*
G01X14006520Y2593750D02*
Y2911250D01*
X14085250D01*
X14116750Y2895370D01*
X14140370Y2874210D01*
X14160060Y2842460D01*
X14175810Y2805410D01*
X14179740Y2752500D01*
X14175810Y2699580D01*
X14160060Y2662540D01*
X14140370Y2630780D01*
X14116750Y2609620D01*
X14085250Y2593750D01*
X14006520D01*
G01X15951390Y-581250D02*
Y-263750D01*
X15805720Y-491290D01*
X16002580D01*
G01X15660060Y-1168640D02*
X15683670Y-1195090D01*
X15711230Y-1210960D01*
X15746670Y-1216250D01*
X15782110Y-1205670D01*
X15809660Y-1184510D01*
X15829350Y-1147460D01*
X15833280Y-1105130D01*
X15825410Y-1062800D01*
X15805720Y-1036330D01*
X15778160Y-1015170D01*
X15750610Y-1009880D01*
X15723050Y-1015170D01*
X15687620Y-1036330D01*
X15699430Y-898750D01*
X15805720D01*
G01X15986820Y-951670D02*
X16010450Y-919920D01*
X16038010Y-904040D01*
X16069510Y-898750D01*
X16108870Y-909330D01*
X16136440Y-935790D01*
X16144310Y-967540D01*
X16140370Y-999300D01*
X16124620Y-1025750D01*
X16045880Y-1078670D01*
X16010450Y-1115710D01*
X15986820Y-1168640D01*
X15978950Y-1216250D01*
X16144310D01*
G01X15817540Y752250D02*
X15841150Y715200D01*
X15872650Y694040D01*
X15908090Y688750D01*
X15939590Y694040D01*
X15971080Y720490D01*
X15990760Y752250D01*
X15994700Y784000D01*
X15986830Y821030D01*
X15959270Y847500D01*
X15931710Y858090D01*
X15896270D01*
G01X15931710D02*
X15955330Y873960D01*
X15975020Y900410D01*
X15982890Y932160D01*
X15975020Y963920D01*
X15955330Y990370D01*
X15919900Y1006250D01*
X15884470Y1000960D01*
X15849030Y979790D01*
G01X15904150Y53750D02*
Y371250D01*
X15856910Y307750D01*
G01Y53750D02*
X15951390D01*
G01Y1958750D02*
Y2276250D01*
X15805720Y2048710D01*
X16002580D01*
G01X15951390Y1323750D02*
Y1641250D01*
X15805720Y1413710D01*
X16002580D01*
G01X15589190Y3228750D02*
X15557690Y3234040D01*
X15530140Y3255200D01*
X15506510Y3286960D01*
X15490760Y3324000D01*
X15482890Y3366330D01*
Y3408670D01*
X15490760Y3451000D01*
X15506510Y3488040D01*
X15530140Y3519790D01*
X15557690Y3540960D01*
X15589190Y3546250D01*
X15620680Y3540960D01*
X15648240Y3519790D01*
X15671870Y3488040D01*
X15687620Y3451000D01*
X15695490Y3408670D01*
Y3366330D01*
X15687620Y3324000D01*
X15671870Y3286960D01*
X15648240Y3255200D01*
X15620680Y3234040D01*
X15589190Y3228750D01*
G01X15620680Y3313420D02*
X15667930Y3228750D01*
G01X15904150Y3546250D02*
Y3228750D01*
G01X15813600Y3546250D02*
X15994700D01*
G01X16219110Y3228750D02*
Y3371620D01*
X16140370Y3546250D01*
G01X16297850D02*
X16219110Y3371620D01*
G01X15660060Y2657250D02*
X15683670Y2620200D01*
X15715170Y2599040D01*
X15750610Y2593750D01*
X15782110Y2599040D01*
X15813600Y2625490D01*
X15833280Y2657250D01*
X15837220Y2689000D01*
X15829350Y2726030D01*
X15801790Y2752500D01*
X15774230Y2763090D01*
X15738790D01*
G01X15774230D02*
X15797850Y2778960D01*
X15817540Y2805410D01*
X15825410Y2837160D01*
X15817540Y2868920D01*
X15797850Y2895370D01*
X15762420Y2911250D01*
X15726990Y2905960D01*
X15691550Y2884790D01*
G01X15986820Y2726030D02*
X16014390Y2763090D01*
X16038010Y2784250D01*
X16069510Y2794830D01*
X16097070Y2784250D01*
X16116750Y2763090D01*
X16132500Y2731330D01*
X16136440Y2694290D01*
X16132500Y2662540D01*
X16116750Y2630780D01*
X16093120Y2604330D01*
X16065570Y2593750D01*
X16034070Y2604330D01*
X16006510Y2636070D01*
X15990760Y2683710D01*
X15986820Y2736620D01*
X15994700Y2805410D01*
X16006510Y2842460D01*
X16026190Y2879500D01*
X16053750Y2905960D01*
X16081310Y2911250D01*
X16108870Y2900670D01*
X16128560Y2874210D01*
G01X-250000Y0D02*
X-1980000D01*
G01X-1730000Y584260D02*
Y0D01*
G01X-1792500Y400000D02*
X-1730000Y0D01*
X-1667500Y400000D01*
X-1792500D01*
G01X-80000Y1600000D02*
X-1980000D01*
G01X-1730000Y1075740D02*
Y1600000D01*
G01X-1667500Y1200000D02*
X-1730000Y1600000D01*
X-1792500Y1200000D01*
X-1667500D01*
G01X0Y-250000D02*
Y-710000D01*
G01X1423140Y-460000D02*
X0D01*
G01X400000Y-397500D02*
X0Y-460000D01*
X400000Y-522500D01*
Y-397500D01*
G01X2056860Y-460000D02*
X3400000D01*
G01X3000000Y-522500D02*
X3400000Y-460000D01*
X3000000Y-397500D01*
Y-522500D01*
G01X4290000Y-740000D02*
Y4990000D01*
X16888400D01*
Y-740000D01*
X4290000D01*
G01X3400000Y-30000D02*
Y-710000D01*
G01X4290000Y530000D02*
X16888400D01*
G01X4290000Y-105000D02*
X16888400D01*
G01X4290000Y1800000D02*
X16888400D01*
G01X4290000Y1165000D02*
X16888400D01*
G01X4290000Y3070000D02*
X16888400D01*
G01X4290000Y2435000D02*
X16888400D01*
G01X4290000Y4340000D02*
X16888400D01*
G01X4290000Y3705000D02*
X16888400D01*
G01X6573460D02*
Y-740000D01*
G01X11691560Y3705000D02*
Y-740000D01*
G01X14919900Y3705000D02*
Y-740000D01*
M02*
