G04 ================== begin FILE IDENTIFICATION RECORD ==================*
G04 Layout Name:  H:/github/MBED-TOOLS/HARDWARE/CH340E_TEST_V10/PCB/CH340E_TEST_V10.brd*
G04 Film Name:    PasteMask_Top*
G04 File Format:  Gerber RS274X*
G04 File Origin:  Cadence Allegro 17.2-S067*
G04 Origin Date:  Sat Sep 19 10:12:25 2020*
G04 *
G04 Layer:  PIN/PASTEMASK_TOP*
G04 Layer:  PACKAGE GEOMETRY/PASTEMASK_TOP*
G04 *
G04 Offset:    (0.0000 0.0000)*
G04 Mirror:    No*
G04 Mode:      Positive*
G04 Rotation:  0*
G04 FullContactRelief:  No*
G04 UndefLineWidth:     0.1524*
G04 ================== end FILE IDENTIFICATION RECORD ====================*
%FSLAX55Y55*MOMM*%
%IR0*IPPOS*OFA0.00000B0.00000*MIA0B0*SFA1.00000B1.00000*%
%ADD10R,1.2X.3*%
%ADD16R,.6X1.1*%
%ADD15R,.7X1.1*%
%ADD14R,1.3X.9*%
%ADD17R,.8X.8*%
%ADD13R,2.5X1.*%
%ADD19R,.5X.6*%
%ADD11R,.6X.4*%
%ADD12R,.6X.5*%
%ADD18R,.8X.25*%
%LPD*%
G75*
G54D10*
X1830000Y560000D03*
Y610000D03*
Y660000D03*
Y710000D03*
Y760000D03*
X2320000D03*
Y710000D03*
Y660000D03*
Y610000D03*
Y560000D03*
G54D11*
X1390000Y740000D03*
X1610000D03*
G54D12*
X1390000Y675000D03*
Y805000D03*
X1610000D03*
Y675000D03*
X2510000Y610000D03*
Y700000D03*
X2980000Y1274550D03*
Y1184550D03*
X2360000D03*
Y1274550D03*
G54D13*
X1500000Y1330000D03*
Y1030000D03*
G54D14*
X1900000Y1329550D03*
Y1129550D03*
X2100000Y1329550D03*
Y1129550D03*
G54D15*
X3003800Y160000D03*
X2803800D03*
X2903800Y400000D03*
G54D16*
X2675000Y150000D03*
X2485000D03*
Y410000D03*
X2580000D03*
X2675000D03*
G54D17*
Y786200D03*
Y633800D03*
X3003800D03*
Y786200D03*
G54D18*
X2835000Y1304550D03*
Y1254550D03*
Y1204550D03*
Y1154550D03*
X2525000D03*
Y1204550D03*
Y1254550D03*
Y1304550D03*
G54D19*
X2635000Y1040000D03*
X2725000D03*
M02*
