G04 ================== begin FILE IDENTIFICATION RECORD ==================*
G04 Layout Name:  F103_ADS1220_V10_240810.brd*
G04 Film Name:    L02-GND*
G04 File Format:  Gerber RS274X*
G04 File Origin:  Cadence Allegro 23.1-S004*
G04 Origin Date:  Tue Aug 13 09:41:06 2024*
G04 *
G04 Layer:  VIA CLASS/L02-GND*
G04 Layer:  PIN/L02-GND*
G04 Layer:  ETCH/L02-GND*
G04 *
G04 Offset:    (0.0000 0.0000)*
G04 Mirror:    No*
G04 Mode:      Positive*
G04 Rotation:  0*
G04 FullContactRelief:  No*
G04 UndefLineWidth:     0.1000*
G04 ================== end FILE IDENTIFICATION RECORD ====================*
%FSLAX55Y55*MOMM*%
%IR0*IPPOS*OFA0.00000B0.00000*MIA0B0*SFA1.00000B1.00000*%
%ADD11C,.508*%
%ADD15O,2.1X1.*%
%ADD19O,1.6X1.*%
%ADD16C,1.*%
%ADD10C,4.2*%
%ADD14C,1.6*%
%ADD17R,1.X1.*%
%ADD12C,1.8*%
%ADD20C,1.65*%
%ADD13R,1.6X1.6*%
%ADD18R,1.8X1.8*%
%ADD21R,1.65X1.65*%
%ADD23C,.8004*%
%ADD22C,1.0004*%
%ADD24C,1.4228*%
G75*
%LPD*%
G75*
G36*
G01X2365350Y3660000D02*
X2420000D01*
G02X2610000Y3470000I0J-190000D01*
G01Y2007710D01*
G02X2581320Y1989190I-20319J0D01*
G03X2562500Y1993240I-18820J-41702D01*
G01X2397500D01*
G03X2351760Y1947500I0J-45740D01*
G01Y1782500D01*
G03X2397500Y1736760I45740J0D01*
G01X2562500D01*
G03X2581320Y1740810I0J45752D01*
G02X2610000Y1722290I8361J-18520D01*
G01Y220000D01*
G02X2420000Y30000I-190000J0D01*
G01X220000D01*
G02X30000Y220000I0J190000D01*
G01Y3470000D01*
G02X220000Y3660000I190000J0D01*
G01X311920D01*
G02X327560Y3626700I5J-20321D01*
G03X296260Y3540000I104428J-86700D01*
G03X432000Y3404260I135740J0D01*
G03X542460Y3461110I0J135737D01*
G02X575540I16540J-11805D01*
G03X796460I110460J78887D01*
G02X829540I16540J-11805D01*
G03X1050460I110460J78887D01*
G02X1083540I16540J-11805D01*
G03X1304460I110460J78887D01*
G02X1337540I16540J-11805D01*
G03X1448000Y3404260I110460J78887D01*
G03X1466020Y3405460I11J135741D01*
G02X1487880Y3378580I2692J-20140D01*
G03X1483860Y3355000I67121J-23576D01*
G03X1626140I71140J0D01*
G03X1568030Y3424940I-71144J0D01*
G02X1555630Y3457290I3716J19976D01*
G03X1558460Y3461110I-107638J82700D01*
G02X1591540I16540J-11805D01*
G03X1702000Y3404260I110460J78887D01*
G03X1837740Y3540000I0J135740D01*
G03X1806440Y3626700I-135728J0D01*
G02X1822080Y3660000I15635J12979D01*
G01X2054650D01*
G02X2074750Y3636700I1J-20319D01*
G03X2074260Y3630000I45252J-6677D01*
G01Y3450000D01*
G03X2120000Y3404260I45740J0D01*
G01X2300000D01*
G03X2345740Y3450000I0J45740D01*
G01Y3630000D01*
G03X2345250Y3636700I-45742J23D01*
G02X2365350Y3660000I20099J2981D01*
G37*
%LPC*%
G75*
G36*
G01X2260000Y704510D02*
G02X2290000Y711140I29990J-64512D01*
G02X2320000Y704510I10J-71142D01*
G02X2350000Y711140I29990J-64512D01*
G02X2380000Y704510I10J-71142D01*
G02X2410000Y711140I29990J-64512D01*
G02Y568860I0J-71140D01*
G02X2380000Y575490I-10J71142D01*
G02X2350000Y568860I-29990J64512D01*
G02X2320000Y575490I-10J71142D01*
G02X2290000Y568860I-29990J64512D01*
G02X2260000Y575490I-10J71142D01*
G02X2230000Y568860I-29990J64512D01*
G02Y711140I0J71140D01*
G02X2260000Y704510I10J-71142D01*
G37*
G36*
G01X1123690Y833530D02*
G03X1157980Y825690I19414J6003D01*
G02X1250000Y865740I92020J-85689D01*
G02X1357610Y805040I0J-125736D01*
G03X1392390I17390J10514D01*
G02X1500000Y865740I107610J-65036D01*
G02Y614260I0J-125740D01*
G02X1392390Y674960I0J125736D01*
G03X1357610I-17390J-10514D01*
G02X1250000Y614260I-107610J65036D01*
G02X1157980Y654310I0J125739D01*
G03X1123690Y646470I-14876J-13843D01*
G02X1080000Y614260I-43690J13526D01*
G01X920000D01*
G02X874260Y660000I0J45740D01*
G01Y820000D01*
G02X920000Y865740I45740J0D01*
G01X1080000D01*
G02X1123690Y833530I0J-45736D01*
G37*
G36*
G01X265490Y1010000D02*
G02X258860Y1040000I64512J29990D01*
G02X265490Y1070000I71142J10D01*
G02X258860Y1100000I64512J29990D01*
G02X330000Y1171140I71140J0D01*
G02X365000Y1161930I-8J-71138D01*
G02X400000Y1171140I35008J-61928D01*
G02X471140Y1100000I0J-71140D01*
G02X464510Y1070000I-71142J-10D01*
G02X471140Y1040000I-64512J-29990D01*
G02X464510Y1010000I-71142J-10D01*
G02X471140Y980000I-64512J-29990D01*
G02X400000Y908860I-71140J0D01*
G02X365000Y918070I8J71138D01*
G02X330000Y908860I-35008J61928D01*
G02X258860Y980000I0J71140D01*
G02X265490Y1010000I71142J10D01*
G37*
G36*
G01X913140Y1296610D02*
G03X926470Y1325490I-4820J19741D01*
G02X918860Y1357500I63517J32010D01*
G02X990000Y1428640I71140J0D01*
G02X1061080Y1360450I0J-71141D01*
G02X1111140Y1292500I-21087J-67950D01*
G02X1040000Y1221360I-71140J0D01*
G02X1023120Y1223390I-7J71141D01*
G03X998680Y1208950I-4824J-19738D01*
G02X930000Y1156360I-68680J18551D01*
G02X858860Y1227500I0J71140D01*
G02X913140Y1296610I71136J0D01*
G37*
G36*
G01X166680Y1338220D02*
G03X180990Y1362730I-5403J19587D01*
G02X178860Y1380000I69009J17278D01*
G02X321140I71140J0D01*
G02X250250Y1308860I-71140J0D01*
G03X230010Y1288960I75J-20319D01*
G02X180000Y1239980I-50010J1041D01*
G02X129980Y1290000I0J50020D01*
G02X166680Y1338220I50028J0D01*
G37*
G36*
G01X440000Y1451990D02*
G02X410000Y1445360I-29990J64512D01*
G02X338860Y1516500I0J71140D01*
G02X346340Y1548250I71139J-4D01*
G02X338860Y1580000I63659J31754D01*
G02X410000Y1651140I71140J0D01*
G02X440000Y1644510I10J-71142D01*
G02X470000Y1651140I29990J-64512D01*
G02X540380Y1590380I0J-71142D01*
G02X560000Y1584510I-10369J-70382D01*
G02X590000Y1591140I29990J-64512D01*
G02Y1448860I0J-71140D01*
G02X560000Y1455490I-10J71142D01*
G02X530000Y1448860I-29990J64512D01*
G02X503760Y1453880I9J71138D01*
G02X470000Y1445360I-33760J62626D01*
G02X440000Y1451990I-10J71142D01*
G37*
G36*
G01X1455000Y1641930D02*
G02X1490000Y1651140I35008J-61928D01*
G02X1523340Y1642840I-7J-71138D01*
G02X1556680Y1651140I33347J-62838D01*
G02X1593340Y1640970I5J-71141D01*
G02X1630000Y1651140I36655J-60971D01*
G02Y1508860I0J-71140D01*
G02X1593340Y1519030I-5J71141D01*
G02X1556680Y1508860I-36655J60971D01*
G02X1523340Y1517160I7J71138D01*
G02X1490000Y1508860I-33347J62838D01*
G02X1455000Y1518070I8J71138D01*
G02X1420000Y1508860I-35008J61928D01*
G02X1385000Y1518070I8J71138D01*
G02X1350000Y1508860I-35008J61928D01*
G02Y1651140I0J71140D01*
G02X1385000Y1641930I-8J-71138D01*
G02X1420000Y1651140I35008J-61928D01*
G02X1455000Y1641930I-8J-71138D01*
G37*
G36*
G01X1046200Y2926550D02*
G03X1045090Y2954320I-15365J13293D01*
G02X1023870Y3005010I49934J50690D01*
G02X1166150I71140J0D01*
G02X1148810Y2958460I-71153J0D01*
G03X1149920Y2930690I15365J-13293D01*
G02X1171140Y2880000I-49934J-50690D01*
G02X1028860I-71140J0D01*
G02X1046200Y2926550I71153J0D01*
G37*
G36*
G01X1876500Y3099740D02*
X1976500D01*
G02X2007270Y3087840I0J-45731D01*
G02X2053500Y3099740I46230J-83849D01*
G02X2149240Y3004000I0J-95740D01*
G02X2125150Y2940500I-95736J0D01*
G02Y2813500I-71646J-63500D01*
G02Y2686500I-71646J-63500D01*
G02X2144180Y2653710I-71650J-63500D01*
G03X2157080Y2647350I9623J3256D01*
G02X2180000Y2651140I22910J-67352D01*
G02X2215000Y2641930I-8J-71138D01*
G02X2250000Y2651140I35008J-61928D01*
G02X2321140Y2580000I0J-71140D01*
G02X2251130Y2508870I-71139J0D01*
G02X2241930Y2475000I-71129J1136D01*
G02X2251140Y2440000I-61928J-35008D01*
G02X2180000Y2368860I-71140J0D01*
G02X2119960Y2401840I0J71141D01*
G03X2094180Y2409330I-17146J-10903D01*
G02X2053500Y2400260I-40675J86671D01*
G02X1957760Y2496000I0J95740D01*
G02X1958230Y2505500I95741J25D01*
G03X1936000Y2527730I-20217J2013D01*
G02X1926500Y2527260I-9475J95271D01*
G02X1830760Y2623000I0J95740D01*
G02X1854850Y2686500I95736J0D01*
G02Y2813500I71646J63500D01*
G02X1830760Y2877000I71646J63500D01*
G02X1842660Y2923230I95749J0D01*
G02X1830760Y2954000I33831J30770D01*
G01Y3054000D01*
G02X1876500Y3099740I45740J0D01*
G37*
G36*
G01X1983810Y1196640D02*
G02X1976980Y1219000I33186J22360D01*
G02X2057020I40020J0D01*
G02X2042600Y1188240I-40018J0D01*
G03X2043250Y1156490I12999J-15616D01*
G02X2071140Y1100000I-43264J-56490D01*
G02X1928860I-71140J0D01*
G02X1974300Y1166340I71146J0D01*
G03X1983810Y1196640I-7340J18946D01*
G37*
G36*
G01X1203820Y1296250D02*
G02X1168860Y1357500I36175J61250D01*
G02X1311140I71140J0D01*
G02X1276180Y1296250I-71135J0D01*
G03Y1261250I10331J-17500D01*
G02X1311140Y1200000I-36175J-61250D01*
G02X1168860I-71140J0D01*
G02X1203820Y1261250I71135J0D01*
G03Y1296250I-10331J17500D01*
G37*
G36*
G01X904690Y2679520D02*
G02X895010Y2678860I-9668J70481D01*
G02X966150Y2750000I0J71140D01*
G02X959210Y2719360I-71138J7D01*
G03X980320Y2690480I18340J-8749D01*
G02X990000Y2691140I9668J-70481D01*
G02X918860Y2620000I0J-71140D01*
G02X925800Y2650640I71138J-7D01*
G03X904690Y2679520I-18340J8749D01*
G37*
G54D23*
X2017000Y641000D03*
G54D22*
X180000Y790000D03*
G54D24*
X530000Y770000D03*
X2005000Y805000D03*
X1242500Y1032500D03*
X525000Y1275000D03*
X1500000Y1292500D03*
X2260000Y1440000D03*
X180000Y1950000D03*
X1440000Y2200000D03*
X2443800Y2246200D03*
X1555000Y2325000D03*
X2440000Y2586200D03*
X245000Y3150000D03*
%LPD*%
G75*
G54D10*
X220000Y220000D03*
X2420000D03*
G54D20*
X2480000Y1615000D03*
G54D11*
X250000Y1380000D03*
X180000Y1575000D03*
Y1950000D03*
X155000Y2565000D03*
Y3150000D03*
X245000D03*
X460000Y480000D03*
X530000Y770000D03*
X525000Y980000D03*
X330000Y1040000D03*
X400000D03*
X330000Y980000D03*
X400000D03*
X525000Y1275000D03*
X330000Y1100000D03*
X400000D03*
X410000Y1516500D03*
X530000Y1520000D03*
X470000Y1516500D03*
X410000Y1580000D03*
X470000D03*
X420000Y1940000D03*
X730000Y1550000D03*
X590000Y1520000D03*
X730000Y1770000D03*
Y1950000D03*
X1000000Y280000D03*
X820000Y470000D03*
X1040000Y1292500D03*
X930000Y1227500D03*
X990000Y1550000D03*
Y1357500D03*
X895010Y2750000D03*
X990000Y2620000D03*
X1200000Y550000D03*
X1242500Y1032500D03*
X1240000Y1200000D03*
Y1357500D03*
X1260000Y1570000D03*
Y1770000D03*
Y1950000D03*
X1095010Y3005010D03*
X1100000Y2880000D03*
X1144990Y3265010D03*
X1560000Y550000D03*
X1500000Y1097500D03*
Y1292500D03*
X1420000Y1580000D03*
X1490000D03*
X1350000D03*
X1556680D03*
X1440000Y2200000D03*
X1470000Y2480000D03*
X1555000Y2325000D03*
Y3355000D03*
X1630000Y1580000D03*
X1645000Y3360000D03*
X2005000Y805000D03*
X2000000Y1100000D03*
X2020000Y1720000D03*
X2230000Y640000D03*
X2290000D03*
X2260000Y1440000D03*
X2170000Y1720000D03*
Y2026200D03*
X2180000Y2510000D03*
Y2440000D03*
Y2580000D03*
X2250000D03*
X2290000Y2920000D03*
X2200000Y3390000D03*
X2350000Y640000D03*
X2410000D03*
X2443800Y2246200D03*
X2340000Y2320000D03*
X2550000Y2710000D03*
X2440000Y2586200D03*
X2390000Y3490000D03*
G54D21*
X2480000Y1865000D03*
G54D12*
X432000Y3540000D03*
X686000D03*
X940000D03*
X1194000D03*
X1448000D03*
X1702000D03*
X1956000D03*
G54D13*
X1000000Y740000D03*
G54D14*
X1250000D03*
X1500000D03*
G54D15*
X1964000Y498000D03*
Y1362000D03*
G54D16*
X2053500Y2496000D03*
X1926500D03*
X2053500Y2623000D03*
X1926500D03*
X2053500Y2750000D03*
X1926500D03*
X2053500Y2877000D03*
X1926500D03*
X2053500Y3004000D03*
G54D17*
X1926500D03*
G54D18*
X2210000Y3540000D03*
G54D19*
X2382000Y498000D03*
Y1362000D03*
M02*
