G04 ================== begin FILE IDENTIFICATION RECORD ==================*
G04 Layout Name:  F103_ADS1220_V10_240810.brd*
G04 Film Name:    PasteMask_Bottom*
G04 File Format:  Gerber RS274X*
G04 File Origin:  Cadence Allegro 23.1-S004*
G04 Origin Date:  Tue Aug 13 09:41:06 2024*
G04 *
G04 Layer:  PIN/PASTEMASK_BOTTOM*
G04 Layer:  PACKAGE GEOMETRY/PASTEMASK_BOTTOM*
G04 *
G04 Offset:    (0.0000 0.0000)*
G04 Mirror:    No*
G04 Mode:      Positive*
G04 Rotation:  0*
G04 FullContactRelief:  No*
G04 UndefLineWidth:     0.1524*
G04 ================== end FILE IDENTIFICATION RECORD ====================*
%FSLAX55Y55*MOMM*%
%IR0*IPPOS*OFA0.00000B0.00000*MIA0B0*SFA1.00000B1.00000*%
%ADD14R,1.2X.3*%
%ADD16R,.3X1.2*%
%ADD18R,.6X1.1*%
%ADD15R,1.5X.4*%
%ADD20R,.8X.8*%
%ADD13R,1.2X1.*%
%ADD12R,1.X1.2*%
%ADD17R,1.4X1.2*%
%ADD19R,1.8X1.6*%
%ADD11R,.5X.6*%
%ADD10R,.6X.5*%
%LPD*%
G75*
G54D10*
X180000Y2035000D03*
X300000D03*
X180000Y2125000D03*
X300000D03*
X460000Y675000D03*
Y585000D03*
X420000Y2035000D03*
Y2125000D03*
X700000Y475000D03*
Y565000D03*
X580000Y475000D03*
Y565000D03*
X820000Y585000D03*
Y675000D03*
X590000Y2035000D03*
X710000D03*
X590000Y2125000D03*
X710000D03*
X1000000Y455000D03*
Y365000D03*
X830000Y2035000D03*
X950000D03*
X830000Y2125000D03*
X950000D03*
X1200000Y455000D03*
Y365000D03*
X1320000Y485000D03*
Y575000D03*
X1140000Y2035000D03*
Y2125000D03*
X1560000Y365000D03*
Y455000D03*
X1440000Y485000D03*
Y575000D03*
X1360000Y2035000D03*
Y2125000D03*
X1790000Y1675000D03*
Y1585000D03*
X1670000Y1835000D03*
Y1925000D03*
X1790000Y1835000D03*
Y1925000D03*
X1910000Y805000D03*
Y895000D03*
Y1005000D03*
Y1095000D03*
X2200000Y3205000D03*
Y3295000D03*
X2550000Y3205000D03*
Y3295000D03*
G54D11*
X245000Y2240000D03*
X155000D03*
X245000Y2480000D03*
X155000D03*
Y2360000D03*
X245000D03*
Y3060000D03*
X155000D03*
X525000Y1070000D03*
Y1190000D03*
X685000Y680000D03*
X595000D03*
X615000Y1070000D03*
Y1190000D03*
X1335000Y370000D03*
X1425000D03*
X1555000Y2410000D03*
Y2550000D03*
Y2670000D03*
Y2790000D03*
Y2910000D03*
Y3030000D03*
Y3270000D03*
Y3150000D03*
X1645000Y2410000D03*
Y2550000D03*
Y2670000D03*
Y2790000D03*
Y2910000D03*
Y3030000D03*
Y3270000D03*
Y3150000D03*
G54D20*
X2110000Y853800D03*
Y1006200D03*
X2260000Y1553800D03*
Y1706200D03*
Y1873800D03*
Y2026200D03*
X2550000Y2246200D03*
Y2093800D03*
X2340000Y2433800D03*
X2550000D03*
X2340000Y2586200D03*
X2550000D03*
Y2996200D03*
Y2843800D03*
X2390000Y3213800D03*
Y3366200D03*
G54D12*
X418400Y1380000D03*
X621600D03*
G54D13*
X590000Y1658400D03*
Y1861600D03*
G54D14*
X495000Y2515010D03*
Y2464990D03*
Y2764990D03*
Y2715010D03*
Y2664990D03*
Y2615010D03*
Y2564990D03*
Y3015010D03*
Y2964990D03*
Y2915010D03*
Y2864990D03*
Y2815010D03*
X1345000Y2464990D03*
Y2515010D03*
Y2564990D03*
Y2615010D03*
Y2664990D03*
Y2715010D03*
Y2764990D03*
Y2815010D03*
Y2864990D03*
Y2915010D03*
Y2964990D03*
Y3015010D03*
G54D15*
X790000Y1032500D03*
Y967500D03*
Y902500D03*
Y1292500D03*
Y1227500D03*
Y1162500D03*
Y1097500D03*
Y1357500D03*
X1370000Y902500D03*
Y967500D03*
Y1032500D03*
Y1097500D03*
Y1162500D03*
Y1227500D03*
Y1292500D03*
Y1357500D03*
G54D16*
X644990Y2315000D03*
X695010D03*
X744990D03*
X795010D03*
Y3165000D03*
X744990D03*
X695010D03*
X644990D03*
X844990Y2315000D03*
X895010D03*
X944990D03*
X995010D03*
X1044990D03*
Y3165000D03*
X995010D03*
X944990D03*
X895010D03*
X844990D03*
X1095010Y2315000D03*
X1144990D03*
X1195010D03*
Y3165000D03*
X1144990D03*
X1095010D03*
G54D17*
X890000Y1665000D03*
Y1855000D03*
X1130000Y1665000D03*
Y1855000D03*
G54D18*
X2020000Y1590000D03*
X1925000D03*
X2020000Y1850000D03*
X1925000D03*
X2115000Y1590000D03*
Y1850000D03*
X2195000Y2790000D03*
X2290000D03*
X2195000Y3050000D03*
X2385000Y2790000D03*
Y3050000D03*
G54D19*
X2310000Y790000D03*
Y1070000D03*
M02*
