G04 ================== begin FILE IDENTIFICATION RECORD ==================*
G04 Layout Name:  RTL8152B_TEST_V10A.brd*
G04 Film Name:    BOTTOM*
G04 File Format:  Gerber RS274X*
G04 File Origin:  Cadence Allegro 17.2-S071*
G04 Origin Date:  Wed Jun 02 11:07:21 2021*
G04 *
G04 Layer:  ETCH/BOTTOM*
G04 Layer:  PIN/BOTTOM*
G04 Layer:  VIA CLASS/BOTTOM*
G04 *
G04 Offset:    (0.0000 0.0000)*
G04 Mirror:    No*
G04 Mode:      Positive*
G04 Rotation:  0*
G04 FullContactRelief:  No*
G04 UndefLineWidth:     0.1524*
G04 ================== end FILE IDENTIFICATION RECORD ====================*
%FSLAX55Y55*MOMM*%
%IR0*IPPOS*OFA0.00000B0.00000*MIA0B0*SFA1.00000B1.00000*%
%ADD23R,.6X1.6*%
%ADD11C,.508*%
%ADD14R,.8X.8*%
%ADD21R,1.4X1.2*%
%ADD20R,2.4X2.4*%
%ADD16R,.5X.6*%
%ADD13R,1.6X1.8*%
%ADD12R,.6X.5*%
%ADD18R,.8X.25*%
%ADD10C,3.3*%
%ADD22C,2.5*%
%ADD19R,.25X.8*%
%ADD17C,1.6*%
%ADD15R,1.6X1.6*%
%ADD24C,.2032*%
%ADD25C,.254*%
%ADD27C,3.6004*%
%ADD26C,1.8004*%
G75*
%LPD*%
G75*
G36*
G01X1330160Y1840000D02*
X3400000D01*
G02X3580000Y1660000I0J-180000D01*
G01Y668540D01*
G02X3549960Y650700I-20320J4D01*
G03X3530500Y655660I-19460J-35695D01*
G01X3424320D01*
Y676500D01*
G03X3409440Y712440I-50823J8D01*
G01X3375940Y745940D01*
G03X3340000Y760820I-35932J-35943D01*
G01X3020660D01*
Y810000D01*
G03X3015400Y830000I-40653J0D01*
G03X3020660Y850000I-35393J20000D01*
G01Y900000D01*
G03X3019180Y910880I-40661J10D01*
G02X3038760Y936640I19577J5441D01*
G01X3211060D01*
G03X3288940I38940J53348D01*
G01X3330000D01*
G03X3367730Y952270I0J53354D01*
G01X3411230Y995770D01*
G03X3426860Y1033500I-37724J37730D01*
G01Y1211720D01*
G03X3444160Y1245000I-23360J33280D01*
G01Y1405000D01*
G03X3403500Y1445660I-40660J0D01*
G01X3170320D01*
Y1550500D01*
G03X3155440Y1586440I-50823J8D01*
G01X3115940Y1625940D01*
G03X3092130Y1639350I-35927J-35947D01*
G03X2969990Y1723320I-122140J-46845D01*
G03X2839170Y1592500I0J-130820D01*
G03X2899070Y1482570I130823J0D01*
G02Y1448430I-11020J-17070D01*
G03X2839170Y1338500I70923J-109930D01*
G03X2899180Y1228500I130822J0D01*
G01Y1134930D01*
G03X2879340Y1100000I20829J-34930D01*
G01Y1050000D01*
G03X2884600Y1030000I40653J0D01*
G03X2879340Y1010000I35393J-20000D01*
G01Y960000D01*
G03X2887180Y936000I40655J0D01*
G02Y924000I-8200J-6000D01*
G03X2879340Y900000I32815J-24000D01*
G01Y850000D01*
G03X2884600Y830000I40653J0D01*
G03X2879340Y810000I35393J-20000D01*
G01Y791210D01*
X2814060Y725940D01*
G03X2799180Y690000I35943J-35932D01*
G01Y387500D01*
G03X2814060Y351560I50823J-8D01*
G01X2848700Y316930D01*
X2846580Y310900D01*
G03X2839170Y267510I123408J-43403D01*
G03X3100810I130820J0D01*
G03X3100430Y277470I-130820J-4D01*
G02X3120690Y299340I20261J1550D01*
G01X3150000D01*
G03X3179140Y311640I0J40668D01*
G01X3209590D01*
X3212030Y310150D01*
G03X3233390Y301750I34489J56343D01*
G01X3236390Y301150D01*
X3300270Y237270D01*
G03X3338000Y221640I37730J37724D01*
G01X3420860D01*
G03X3450000Y209340I29140J28368D01*
G01X3510000D01*
G03X3550660Y250000I0J40660D01*
G01Y300000D01*
G03X3545400Y320000I-40653J0D01*
G03X3550660Y340000I-35393J20000D01*
G01Y382300D01*
X3550770Y383040D01*
G03X3551320Y390500I-50270J7457D01*
G01Y420070D01*
G03X3561980Y429260I-20820J34928D01*
G01X3580000Y422830D01*
Y200000D01*
G02X3400000Y20000I-180000J0D01*
G01X300000D01*
G02X20000Y300000I0J280000D01*
G01Y811730D01*
G02X50210Y829480I20319J0D01*
G03X70000Y824340I19790J35528D01*
G01X130000D01*
G03X170660Y865000I0J40660D01*
G01Y893780D01*
G02X180820Y903940I10160J0D01*
G03X187560Y904290I-51J66059D01*
G01X188080Y904340D01*
X290000D01*
G03X330660Y945000I0J40660D01*
G01Y983700D01*
X347470D01*
X350130Y977610D01*
G03X377790Y937210I119866J52398D01*
G02Y922790I-7165J-7210D01*
G03X339180Y830000I92208J-92796D01*
G03X387760Y728270I130817J6D01*
G02X382810Y710310I-6389J-7901D01*
G03X369690Y706590I7178J-50312D01*
G01X367750Y705740D01*
X344260D01*
Y682250D01*
X343410Y680310D01*
G03X339180Y660000I46592J-20299D01*
G01Y500000D01*
G03X343410Y479690I50822J-11D01*
G01X344260Y477750D01*
Y454260D01*
X367750D01*
X369690Y453410D01*
G03X390000Y449180I20299J46592D01*
G01X434260D01*
Y54260D01*
X685740D01*
Y55050D01*
G02X703080Y62230I10159J-6D01*
G01X711050Y54260D01*
X965740D01*
Y325740D01*
X828950D01*
X815740Y338950D01*
Y798950D01*
X813490Y801200D01*
G02X820670Y818540I7186J7181D01*
G01X833400D01*
G03X867680Y831840I0J50827D01*
G01X920000D01*
G03X927680Y832570I10J40661D01*
G02X951840Y812620I3841J-19953D01*
G01Y780000D01*
X930000D01*
Y760000D01*
X954180D01*
Y731500D01*
G03X958080Y711980I50819J4D01*
G01X958860Y710100D01*
Y392840D01*
G03X973740Y356900I50823J-8D01*
G01X1267220Y63420D01*
G03X1303160Y48540I35932J35943D01*
G01X1866840D01*
G03X1902780Y63420I8J50823D01*
G01X2156580Y317220D01*
G03X2171460Y353160I-35943J35932D01*
G01Y576840D01*
G03X2156580Y612780I-50823J8D01*
G01X2090820Y678530D01*
Y878490D01*
G03X2075940Y914430I-50823J8D01*
G01X2046290Y944070D01*
X2048410Y950100D01*
G03X2055820Y993490I-123408J43403D01*
G03X1995920Y1103420I-130823J0D01*
G02Y1137560I11020J17070D01*
G03X2055820Y1247490I-70923J109930D01*
G03X1794180I-130820J0D01*
G03X1854080Y1137560I130823J0D01*
G02Y1103420I-11020J-17070D01*
G03Y883560I70923J-109930D01*
G02Y849420I-11020J-17070D01*
G03X1794180Y739490I70923J-109930D01*
G03X1810670Y675920I130817J10D01*
G01X1811950Y673610D01*
Y660820D01*
X1792740D01*
X1790030Y666760D01*
G03X1741920Y722420I-119034J-54266D01*
G02Y756560I11020J17070D01*
G03Y976420I-70923J109930D01*
G02Y1010560I11020J17070D01*
G03Y1230420I-70923J109930D01*
G02Y1264560I11020J17070D01*
G03X1801820Y1374490I-70923J109930D01*
G03X1671000Y1505310I-130820J0D01*
G03X1578020Y1466520I0J-130832D01*
G02X1560650Y1473930I-7216J7148D01*
G03X1560660Y1475000I-40651J915D01*
G01Y1595000D01*
G03X1520000Y1635660I-40660J0D01*
G01X1380000D01*
G03X1371240Y1634700I23J-40657D01*
G03X1365940Y1640940I-41261J-29675D01*
G01X1320660Y1686210D01*
Y1785000D01*
G03X1313440Y1808120I-40657J-9D01*
G02X1330160Y1840000I16714J11558D01*
G37*
G36*
G01X621210Y1619340D02*
X633930D01*
X635810Y1611580D01*
G03X700000Y1561140I64190J15624D01*
G03X737370Y1572720I8J66063D01*
G02X769180Y1555970I11492J-16756D01*
G01Y1440660D01*
X730000D01*
G03X720680Y1439580I-11J-40661D01*
G02X708680Y1446330I-2337J9887D01*
G03X670000Y1474460I-38680J-12528D01*
G01X590000D01*
G03X550720Y1444290I0J-40655D01*
G02X548290Y1439940I-9815J2629D01*
G02X549360Y1435080I-9084J-4548D01*
G03X549340Y1433800I40640J-1275D01*
G01Y1353800D01*
G03X571180Y1317760I40656J0D01*
G01X576640Y1314910D01*
Y1240000D01*
G03X592270Y1202270I53354J0D01*
G01X644190Y1150340D01*
X641910Y1144220D01*
G03X639340Y1130000I38089J-14226D01*
G01Y1070000D01*
G03X647180Y1046000I40655J0D01*
G02Y1034000I-8200J-6000D01*
G03X639340Y1010000I32815J-24000D01*
G01Y960820D01*
X613020D01*
G02X593800Y987710I6J20318D01*
G03X600820Y1030000I-123802J42278D01*
G03X470000Y1160820I-130820J0D01*
G03X340120Y1045680I0J-130823D01*
G02X309970Y1030420I-20171J2439D01*
G03X290000Y1035660I-19970J-35434D01*
G01X188080D01*
X187560Y1035710D01*
G03X180800Y1036060I-6791J-65708D01*
G03X174040Y1035710I31J-66058D01*
G01X173520Y1035660D01*
X150820D01*
Y1061670D01*
G02X181980Y1078860I20320J2D01*
G03X230000Y1064980I48020J76126D01*
G03X320020Y1155000I0J90020D01*
G03X288500Y1223420I-90019J0D01*
G02X301710Y1259180I13210J15440D01*
G01X340000D01*
G03X375940Y1274060I8J50823D01*
G01X515940Y1414060D01*
G03X529340Y1437830I-35947J35927D01*
G02X531820Y1442370I9862J-2440D01*
G02X530750Y1447430I9078J4563D01*
G03X530820Y1450000I-50747J2668D01*
G01Y1528950D01*
X621210Y1619340D01*
G37*
G36*
G01X190170Y1688300D02*
X419820D01*
X439340Y1668780D01*
Y1660000D01*
G03X454550Y1628290I40660J0D01*
G02X456200Y1598070I-12716J-15849D01*
G01X444060Y1585940D01*
G03X429180Y1550000I35943J-35932D01*
G01Y1471050D01*
X318950Y1360820D01*
X150000D01*
G03X114060Y1345940I-8J-50823D01*
G01X108160Y1340030D01*
G02X90820Y1347220I-7180J7188D01*
G01Y1588950D01*
X190170Y1688300D01*
G37*
G36*
G01X620000Y820000D02*
X730000D01*
X770000Y780000D01*
Y320000D01*
X810000Y280000D01*
X920000D01*
Y100000D01*
X730000D01*
X690000Y140000D01*
Y580000D01*
X685740Y584260D01*
Y588950D01*
X600000Y674690D01*
Y800000D01*
X620000Y820000D01*
G37*
G36*
G01X390000Y660000D02*
X550000D01*
X640000Y570000D01*
Y100000D01*
X480000D01*
Y280200D01*
X480260Y281330D01*
G03X485820Y330000I-210260J48672D01*
G03X480260Y378670I-215820J-2D01*
G01X480000Y379800D01*
Y470000D01*
X450000Y500000D01*
X403000D01*
X400280Y502060D01*
G03X390000Y509380I-130270J-172068D01*
G01Y660000D01*
G37*
G36*
G01X1520000Y1434340D02*
G03X1523450Y1434490I-39J40658D01*
G02X1544790Y1408900I1733J-20248D01*
G03X1540180Y1374490I126208J-34422D01*
G03X1600080Y1264560I130823J0D01*
G02Y1230420I-11020J-17070D01*
G03Y1010560I70923J-109930D01*
G02Y976420I-11020J-17070D01*
G03Y756560I70923J-109930D01*
G02Y722420I-11020J-17070D01*
G03Y502560I70923J-109930D01*
G02Y468420I-11020J-17070D01*
G03X1540180Y358490I70923J-109930D01*
G03X1546770Y317510I130817J17D01*
G02X1527470Y290820I-19298J-6369D01*
G01X1391050D01*
X1201140Y480730D01*
Y710100D01*
X1201920Y711980D01*
G03X1204770Y721230I-46920J19521D01*
G01X1206440Y729340D01*
X1217500D01*
G03X1253540Y751180I0J40656D01*
G01X1256390Y756640D01*
X1282900D01*
X1359340Y680200D01*
Y660000D01*
G03X1359510Y656330I40658J44D01*
G01X1359930Y651600D01*
X1349000Y640660D01*
X1303800D01*
G03X1263140Y600000I0J-40660D01*
G01Y520000D01*
G03X1280900Y486400I40664J0D01*
G03X1277740Y466200I62902J-20187D01*
G03X1409860I66060J0D01*
G03X1406700Y486400I-66062J13D01*
G03X1424460Y520000I-22904J33600D01*
G01Y565200D01*
X1462730Y603470D01*
G03X1477100Y629690I-37733J37727D01*
G03X1490660Y660000I-27095J30310D01*
G01Y720000D01*
G03X1482820Y744000I-40655J0D01*
G02Y756000I8200J6000D01*
G03X1490660Y780000I-32815J24000D01*
G01Y840000D01*
G03X1482820Y864000I-40655J0D01*
G02Y876000I8200J6000D01*
G03X1490660Y900000I-32815J24000D01*
G01Y939510D01*
G03X1500770Y967730I-40660J30488D01*
G03X1516060Y1010000I-50784J42270D01*
G03X1499340Y1053930I-66071J0D01*
G01X1492960Y1061090D01*
X1501270Y1069390D01*
G03X1516150Y1105330I-35943J35932D01*
G01Y1298740D01*
G03X1501270Y1334680I-50823J8D01*
G01X1475860Y1360080D01*
X1475410Y1360680D01*
G03X1470540Y1366340I-40855J-30228D01*
G01X1460660Y1376210D01*
Y1400000D01*
G03X1459570Y1409350I-40647J0D01*
G02X1479350Y1434340I19776J4670D01*
G01X1520000D01*
G37*
G36*
G01X961190Y1129340D02*
X1198810D01*
X1199430Y1119840D01*
G03X1201310Y1110000I40572J2652D01*
G03X1199340Y1097500I38690J-12503D01*
G01Y1072500D01*
G03X1201310Y1060000I40660J3D01*
G03X1199340Y1047500I38690J-12503D01*
G01Y1022500D01*
G03X1201310Y1010000I40660J3D01*
G03X1199340Y997500I38690J-12503D01*
G01Y972500D01*
G03X1201310Y960000I40660J3D01*
G03X1199340Y947500I38690J-12503D01*
G01Y922500D01*
G03X1201310Y910000I40660J3D01*
G03X1199430Y900160I38692J-12492D01*
G01X1198810Y890660D01*
X992500D01*
G03X975150Y886770I5J-40659D01*
G01X973100Y885800D01*
X960660D01*
Y897500D01*
G03X958690Y910000I-40660J-3D01*
G03X960660Y922500I-38690J12503D01*
G01Y947500D01*
G03X958690Y960000I-40660J-3D01*
G03X960660Y972500I-38690J12503D01*
G01Y997500D01*
G03X958690Y1010000I-40660J-3D01*
G03X960660Y1022500I-38690J12503D01*
G01Y1047500D01*
G03X958690Y1060000I-40660J-3D01*
G03X960660Y1072500I-38690J12503D01*
G01Y1097500D01*
G03X958690Y1110000I-40660J-3D01*
G03X960570Y1119840I-38692J12492D01*
G01X961190Y1129340D01*
G37*
G36*
G01X977720Y1840000D02*
X1089840D01*
G02X1106560Y1808120I6J-20322D01*
G03X1099340Y1785000I33437J-23129D01*
G01Y1665000D01*
G03X1140000Y1624340I40660J0D01*
G01X1238790D01*
X1279180Y1583950D01*
Y1461050D01*
X1258790Y1440660D01*
X1240000D01*
G03X1199340Y1400000I0J-40660D01*
G01Y1371900D01*
G02X1174090Y1352180I-20321J-6D01*
G03X1164320Y1353860I-16048J-64079D01*
G02X1155120Y1363980I960J10115D01*
G01Y1380940D01*
X1156810Y1383490D01*
G03X1167820Y1420000I-55048J36516D01*
G03X1101760Y1486060I-66060J0D01*
G03X1064070Y1474260I-9J-66063D01*
G03X1060000Y1474460I-4028J-40462D01*
G01X980000D01*
G03X941320Y1446330I0J-40658D01*
G02X929320Y1439580I-9663J3137D01*
G03X920000Y1440660I-9309J-39581D01*
G01X870820D01*
Y1463630D01*
G02X890870Y1483950I20321J1D01*
G03X956060Y1550000I-866J66050D01*
G03X940820Y1592200I-66047J0D01*
G01Y1625070D01*
G03X960660Y1660000I-20829J34930D01*
G01Y1710000D01*
G03X955400Y1730000I-40653J0D01*
G03X960660Y1750000I-35393J20000D01*
G01Y1800000D01*
G03X958480Y1813120I-40658J-14D01*
G02X977720Y1840000I19234J6559D01*
G37*
%LPC*%
G75*
G54D27*
X2560000Y1504000D03*
Y356000D03*
G54D26*
X230000Y705000D03*
%LPD*%
G75*
G54D10*
X270000Y330000D03*
Y1530000D03*
G54D20*
X1080000Y1010000D03*
G54D11*
X90000Y530000D03*
Y760000D03*
X180800Y970000D03*
X350000Y70000D03*
X630000Y700000D03*
Y780000D03*
X550000Y1480000D03*
X700000Y1627200D03*
X425000Y1795000D03*
X1000000Y80000D03*
X1200000D03*
X890000Y690000D03*
Y620000D03*
X1000000Y260000D03*
X1230000Y560000D03*
Y680000D03*
X1080000Y1010000D03*
X1000000Y1090000D03*
X1160000D03*
X1080000D03*
X1000000Y1010000D03*
X1160000D03*
X1080000Y930000D03*
X1000000D03*
X1160000D03*
X790000Y970000D03*
X789260Y1120000D03*
X790000Y1040000D03*
X1020000Y1700000D03*
X890000Y1550000D03*
X1101760Y1420000D03*
X760000Y1290000D03*
X1240000Y1289200D03*
X1158050Y1288100D03*
X1040000Y1300000D03*
X1020000Y1800000D03*
X1460000Y320000D03*
Y460000D03*
X1343800Y466200D03*
X1350000Y1190000D03*
X1280000D03*
X1450000Y1010000D03*
X1670000Y1540000D03*
X1580000Y1800000D03*
X1770000D03*
X1990000D03*
X2610000Y100000D03*
X3030000D03*
X3246500Y366500D03*
X3385000Y365000D03*
X3120000Y850000D03*
X3246300Y1053400D03*
X3250000Y990000D03*
X3320000Y1780000D03*
X3000000D03*
X3440000Y100000D03*
X3530000Y850000D03*
Y1100000D03*
Y1560000D03*
G54D12*
X100000Y890000D03*
Y970000D03*
X260000Y890000D03*
Y970000D03*
X510000Y1685000D03*
Y1775000D03*
X630000Y1685000D03*
Y1775000D03*
X890000Y1375000D03*
Y1465000D03*
X760000Y1375000D03*
Y1465000D03*
X890000Y1685000D03*
Y1775000D03*
X760000Y1685000D03*
Y1775000D03*
X3120000Y365000D03*
Y275000D03*
X2950000Y875000D03*
Y785000D03*
Y985000D03*
Y1075000D03*
X3480000Y365000D03*
Y275000D03*
G54D21*
X1210000Y1535000D03*
Y1725000D03*
X1450000Y1535000D03*
Y1725000D03*
G54D22*
X2255000Y155010D03*
Y1704990D03*
G54D13*
X560000Y190000D03*
X840000D03*
G54D14*
X733800Y530000D03*
Y390000D03*
X630000Y1546200D03*
Y1393800D03*
X886200Y530000D03*
Y390000D03*
X1020000Y1546200D03*
Y1393800D03*
X1496200Y560000D03*
X1343800D03*
G54D23*
X3119500Y535000D03*
X3246500D03*
X3373500D03*
Y1325000D03*
X3246500D03*
X3119500D03*
X3500500Y535000D03*
Y1325000D03*
G54D24*
G01X630000Y1685000D02*
X615000D01*
X480000Y1550000D01*
Y1450000D01*
X340000Y1310000D01*
X150000D01*
X100000Y1260000D01*
Y970000D01*
G01X510000Y1685000D02*
X494990D01*
X440870Y1739120D01*
X169120D01*
X40000Y1610000D01*
Y930000D01*
X80000Y890000D01*
X100000D01*
G01X320000Y1050000D02*
X330000Y1040000D01*
G01D02*
Y900000D01*
G01X880000Y885000D02*
X865000D01*
X863130Y886870D01*
X850910D01*
X833400Y869360D01*
X509360D01*
X470000Y830000D01*
G01X880000Y935000D02*
X879980D01*
X872490Y927510D01*
X834070D01*
X816560Y910000D01*
X562350D01*
X470000Y1002350D01*
Y1030000D01*
G01X260000Y970000D02*
X180800D01*
G01X760000Y1685000D02*
X702200Y1627200D01*
X700000D01*
G01X630000Y1775000D02*
X760000D01*
G01X510000D02*
X630000D01*
G01X425000Y1795000D02*
X490000D01*
X510000Y1775000D01*
G01X1925000Y993490D02*
X2040000Y878490D01*
Y657480D01*
X2120640Y576840D01*
Y353160D01*
X1866840Y99360D01*
X1303160D01*
X1009680Y392840D01*
Y726820D01*
X1005000Y731500D01*
Y810000D01*
G01X1671000Y358490D02*
X1761660Y403830D01*
X1788920Y394730D01*
X1819360Y333870D01*
Y279360D01*
X1780000Y240000D01*
X1370000D01*
X1150320Y459680D01*
Y726820D01*
X1155000Y731500D01*
Y810000D01*
G01X1925000Y485490D02*
X1834350Y440160D01*
X1825280Y412910D01*
X1860000Y343470D01*
Y262520D01*
X1796840Y199360D01*
X1353160D01*
X1109680Y442840D01*
Y726820D01*
X1105000Y731500D01*
Y810000D01*
G01X1671000Y612490D02*
X1673490Y610000D01*
X2030000D01*
X2080000Y560000D01*
Y370000D01*
X1850000Y140000D01*
X1320000D01*
X1050320Y409680D01*
Y726820D01*
X1055000Y731500D01*
Y810000D01*
G01X1000000Y930000D02*
X1080000Y1010000D01*
G01X955000Y810000D02*
Y885000D01*
X1000000Y930000D01*
G01X940000Y750000D02*
X955000Y765000D01*
Y810000D01*
G01X1005000Y1210000D02*
Y1255000D01*
X970000Y1290000D01*
X860000D01*
X820000Y1330000D01*
Y1625000D01*
X760000Y1685000D01*
G01X1205000Y1210000D02*
Y1235000D01*
X1240000Y1270000D01*
Y1289200D01*
G01X1158050Y1288100D02*
Y1272730D01*
X1155000Y1269680D01*
Y1210000D01*
G01X1040000Y1300000D02*
Y1290000D01*
X1055000Y1275000D01*
Y1210000D01*
G01X1210000Y1725000D02*
X1330000Y1605000D01*
Y1440000D01*
X1265000Y1375000D01*
Y1370000D01*
G01X890000Y1685000D02*
Y1550000D01*
G01X760000Y1775000D02*
X890000D01*
G01X1340000Y1830000D02*
X1080000D01*
G01X1280000Y985000D02*
X1345000D01*
X1465330Y1105330D01*
Y1298740D01*
X1434600Y1329470D01*
Y1330400D01*
X1395000Y1370000D01*
G01X1280000Y1035000D02*
X1335000D01*
X1415330Y1115330D01*
Y1219670D01*
X1265000Y1370000D01*
G01X1350000Y1190000D02*
Y1105320D01*
X1329680Y1085000D01*
X1280000D01*
G01Y1135000D02*
Y1190000D01*
G01Y935000D02*
X1420000D01*
X1425000Y930000D01*
G01X1450000Y1010000D02*
Y970000D01*
X1425000Y945000D01*
Y930000D01*
G01X1280000Y885000D02*
X1350000D01*
X1425000Y810000D01*
G01X1395000Y1370000D02*
Y1480000D01*
X1450000Y1535000D01*
G01X2969990Y267510D02*
X2850000Y387500D01*
Y690000D01*
X2945000Y785000D01*
X2950000D01*
G01X3475000Y365000D02*
X3385000D01*
G01X2969990Y521510D02*
X2970000Y521520D01*
Y680000D01*
X3000000Y710000D01*
X3340000D01*
X3373500Y676500D01*
Y535000D01*
G01X3246500Y1325000D02*
Y1053600D01*
X3246300Y1053400D01*
G01X2950000Y1075000D02*
Y1318510D01*
X2969990Y1338500D01*
G01Y1592500D02*
X2972490Y1590000D01*
X3080000D01*
X3119500Y1550500D01*
Y1325000D01*
G01X3570000Y410000D02*
Y670000D01*
G01X3480000Y365000D02*
X3475000D01*
G01D02*
X3500500Y390500D01*
Y535000D01*
G54D15*
X470000Y580000D03*
G54D25*
G01X705000Y980000D02*
X715000Y970000D01*
X790000D01*
G01X630000Y1393800D02*
Y1240000D01*
X690000Y1180000D01*
X820000D01*
X865000Y1135000D01*
X880000D01*
G01X705000Y1100000D02*
X765000Y1040000D01*
X790000D01*
G01Y970000D02*
X801580Y981580D01*
X814210D01*
X817630Y985000D01*
X880000D01*
G01X1101760Y1420000D02*
Y1314440D01*
X1099630Y1312310D01*
Y1263890D01*
X1105000Y1258520D01*
Y1210000D01*
G01X789260Y1120000D02*
X792630D01*
X827630Y1085000D01*
X880000D01*
G01X790000Y1040000D02*
X795000Y1035000D01*
X880000D01*
G01X760000Y1290000D02*
X790000D01*
X870000Y1210000D01*
X955000D01*
G01X1205000Y810000D02*
X1305000D01*
X1425000Y690000D01*
G01X1020000Y1393800D02*
X1001200Y1375000D01*
X890000D01*
G01X1020000Y1393800D02*
X1046200Y1420000D01*
X1101760D01*
G01X760000Y1375000D02*
Y1290000D01*
G01X1425000Y690000D02*
Y641200D01*
X1343800Y560000D01*
G01D02*
Y466200D01*
G01X1580000Y1000000D02*
Y1012630D01*
X1540000Y1052630D01*
Y1080000D01*
G01X1527970Y1417970D02*
X1570000Y1460000D01*
Y1490000D01*
G01X3119500Y535000D02*
Y365500D01*
X3120000Y365000D01*
G01X3246500Y535000D02*
Y366500D01*
G01X3120000Y365000D02*
X3245000D01*
X3246500Y366500D01*
G01X3480000Y275000D02*
X3338000D01*
X3246500Y366500D01*
G01X3250000Y990000D02*
X3330000D01*
X3373500Y1033500D01*
Y1325000D01*
G01X2950000Y985000D02*
Y875000D01*
G01X3250000Y990000D02*
X2955000D01*
X2950000Y985000D01*
G54D16*
X705000Y980000D03*
X615000D03*
X705000Y1100000D03*
X615000D03*
X1265000Y1370000D03*
X1175000D03*
X1425000Y690000D03*
X1515000D03*
X1425000Y930000D03*
X1515000D03*
X1425000Y810000D03*
X1515000D03*
X1395000Y1370000D03*
X1485000D03*
G54D17*
X470000Y830000D03*
Y1030000D03*
Y1280000D03*
X1671000Y612490D03*
Y358490D03*
Y1120490D03*
Y866490D03*
Y1374490D03*
X1925000Y739490D03*
Y485490D03*
Y1247490D03*
Y993490D03*
Y1501490D03*
X2969990Y521510D03*
Y267510D03*
Y1592500D03*
Y1338500D03*
G54D18*
X1280000Y885000D03*
Y935000D03*
Y985000D03*
Y1035000D03*
Y1085000D03*
Y1135000D03*
X880000D03*
Y1085000D03*
Y1035000D03*
Y985000D03*
Y935000D03*
Y885000D03*
G54D19*
X1205000Y1210000D03*
X1155000D03*
X1105000D03*
X1055000D03*
X1005000D03*
X955000D03*
Y810000D03*
X1005000D03*
X1055000D03*
X1105000D03*
X1155000D03*
X1205000D03*
M02*
