G04 ================== begin FILE IDENTIFICATION RECORD ==================*
G04 Layout Name:  RTL8152B_TEST_V10A.brd*
G04 Film Name:    Drill_Legend*
G04 File Format:  Gerber RS274X*
G04 File Origin:  Cadence Allegro 17.2-S071*
G04 Origin Date:  Wed Jun 02 11:07:21 2021*
G04 *
G04 Layer:  MANUFACTURING/NCDRILL_LEGEND*
G04 Layer:  MANUFACTURING/NCDRILL_FIGURE*
G04 Layer:  BOARD GEOMETRY/DIMENSION*
G04 Layer:  MANUFACTURING/NCLEGEND-1-2*
G04 *
G04 Offset:    (0.0000 0.0000)*
G04 Mirror:    No*
G04 Mode:      Positive*
G04 Rotation:  0*
G04 FullContactRelief:  No*
G04 UndefLineWidth:     0.1524*
G04 ================== end FILE IDENTIFICATION RECORD ====================*
%FSLAX55Y55*MOMM*%
%IR0*IPPOS*OFA0.00000B0.00000*MIA0B0*SFA1.00000B1.00000*%
%AMMACRO12*
1,1,.1524,.45,.45*
20,1,.1524,.45,.45,.45,-.45,0.0*
1,1,.1524,.45,-.45*
20,1,.1524,.45,-.45,-.45,-.45,0.0*
1,1,.1524,-.45,-.45*
20,1,.1524,-.45,-.45,-.45,.45,0.0*
1,1,.1524,-.45,.45*
20,1,.1524,-.45,.45,.45,.45,0.0*
1,1,.1524,.45,.45*
%
%ADD12MACRO12*%
%AMMACRO11*
1,1,.1524,.127,0.0*
20,1,.1524,.127,0.0,-.127,0.0,0.0*
1,1,.1524,-.127,0.0*
1,1,.1524,0.0,.127*
20,1,.1524,0.0,.127,0.0,-.127,0.0*
1,1,.1524,0.0,-.127*
%
%ADD11MACRO11*%
%AMMACRO10*
1,1,.1524,0.0,1.15*
20,1,.1524,0.0,1.15,-.995929,.575,0.0*
1,1,.1524,-.995929,.575*
20,1,.1524,-.995929,.575,-.995929,-.575,0.0*
1,1,.1524,-.995929,-.575*
20,1,.1524,-.995929,-.575,0.0,-1.15,0.0*
1,1,.1524,0.0,-1.15*
20,1,.1524,0.0,-1.15,.995929,-.575,0.0*
1,1,.1524,.995929,-.575*
20,1,.1524,.995929,-.575,.995929,.575,0.0*
1,1,.1524,.995929,.575*
20,1,.1524,.995929,.575,0.0,1.15,0.0*
1,1,.1524,0.0,1.15*
%
%ADD10MACRO10*%
%AMMACRO13*
1,1,.1524,.9,0.0*
20,1,.1524,.9,0.0,.45,.779423,0.0*
1,1,.1524,.45,.779423*
20,1,.1524,.45,.779423,-.45,.779423,0.0*
1,1,.1524,-.45,.779423*
20,1,.1524,-.45,.779423,-.9,0.0,0.0*
1,1,.1524,-.9,0.0*
20,1,.1524,-.9,0.0,-.45,-.779423,0.0*
1,1,.1524,-.45,-.779423*
20,1,.1524,-.45,-.779423,.45,-.779423,0.0*
1,1,.1524,.45,-.779423*
20,1,.1524,.45,-.779423,.9,0.0,0.0*
1,1,.1524,.9,0.0*
%
%ADD13MACRO13*%
%ADD14C,.1524*%
G75*
%LPD*%
G75*
G54D10*
X270000Y330000D03*
Y1530000D03*
X5211730Y-112500D03*
G54D11*
X90000Y530000D03*
Y760000D03*
X180800Y970000D03*
X350000Y70000D03*
X630000Y700000D03*
Y780000D03*
X550000Y1480000D03*
X700000Y1627200D03*
X425000Y1795000D03*
X1000000Y80000D03*
X1200000D03*
X890000Y690000D03*
Y620000D03*
X1000000Y260000D03*
X1230000Y560000D03*
Y680000D03*
X1080000Y1010000D03*
X1000000Y1090000D03*
X1160000D03*
X1080000D03*
X1000000Y1010000D03*
X1160000D03*
X1080000Y930000D03*
X1000000D03*
X1160000D03*
X790000Y970000D03*
X789260Y1120000D03*
X790000Y1040000D03*
X1020000Y1700000D03*
X890000Y1550000D03*
X1101760Y1420000D03*
X760000Y1290000D03*
X1240000Y1289200D03*
X1158050Y1288100D03*
X1040000Y1300000D03*
X1020000Y1800000D03*
X1460000Y320000D03*
Y460000D03*
X1343800Y466200D03*
X1350000Y1190000D03*
X1280000D03*
X1450000Y1010000D03*
X1670000Y1540000D03*
X1580000Y1800000D03*
X1770000D03*
X1990000D03*
X2610000Y100000D03*
X3030000D03*
X3246500Y366500D03*
X3385000Y365000D03*
X3120000Y850000D03*
X3246300Y1053400D03*
X3250000Y990000D03*
X3320000Y1780000D03*
X3000000D03*
X3440000Y100000D03*
X3530000Y850000D03*
Y1100000D03*
Y1560000D03*
X5211730Y1792500D03*
G54D12*
X470000Y580000D03*
Y830000D03*
Y1030000D03*
Y1280000D03*
X1671000Y612490D03*
Y358490D03*
Y1120490D03*
Y866490D03*
Y1374490D03*
X1925000Y739490D03*
Y485490D03*
Y1247490D03*
Y993490D03*
Y1501490D03*
X2969990Y521510D03*
Y267510D03*
Y1592500D03*
Y1338500D03*
X5211730Y1157500D03*
G54D13*
X2255000Y155010D03*
Y1704990D03*
X5211730Y522500D03*
G54D14*
G01X-2275750Y774750D02*
Y965250D01*
X-2304200Y927150D01*
G01Y774750D02*
X-2247310D01*
G01X-2085250D02*
X-2068660Y777920D01*
X-2049690Y787450D01*
X-2037840Y803320D01*
X-2033100Y825550D01*
X-2037840Y847770D01*
X-2052060Y866820D01*
X-2073400Y876350D01*
X-2097100D01*
X-2111330Y882700D01*
X-2123180Y898570D01*
X-2127920Y920800D01*
X-2120810Y943020D01*
X-2104220Y958900D01*
X-2085250Y965250D01*
X-2066290Y958900D01*
X-2049690Y943020D01*
X-2042580Y920800D01*
X-2047320Y898570D01*
X-2059170Y882700D01*
X-2073400Y876350D01*
X-2097100D01*
X-2118440Y866820D01*
X-2132660Y847770D01*
X-2137400Y825550D01*
X-2132660Y803320D01*
X-2120810Y787450D01*
X-2101840Y777920D01*
X-2085250Y774750D01*
G01X-1894750Y768400D02*
X-1899490Y771580D01*
Y777920D01*
X-1894750Y781100D01*
X-1890010Y777920D01*
Y771580D01*
X-1894750Y768400D01*
G01X-1749290Y854120D02*
X-1732700Y876350D01*
X-1718470Y889050D01*
X-1699510Y895400D01*
X-1682910Y889050D01*
X-1671060Y876350D01*
X-1661580Y857300D01*
X-1659210Y835070D01*
X-1661580Y816020D01*
X-1671060Y796970D01*
X-1685290Y781100D01*
X-1701880Y774750D01*
X-1720840Y781100D01*
X-1737440Y800140D01*
X-1746920Y828730D01*
X-1749290Y860470D01*
X-1744550Y901750D01*
X-1737440Y923980D01*
X-1725590Y946200D01*
X-1708990Y962080D01*
X-1692400Y965250D01*
X-1675800Y958900D01*
X-1663950Y943020D01*
G01X1572600Y-667150D02*
X1586820Y-689380D01*
X1605780Y-702080D01*
X1627120Y-705250D01*
X1646090Y-702080D01*
X1665050Y-686200D01*
X1676900Y-667150D01*
X1679270Y-648100D01*
X1674530Y-625880D01*
X1657940Y-610000D01*
X1641340Y-603650D01*
X1620010D01*
G01X1641340D02*
X1655570Y-594130D01*
X1667420Y-578250D01*
X1672160Y-559200D01*
X1667420Y-540150D01*
X1655570Y-524280D01*
X1634230Y-514750D01*
X1612900Y-517920D01*
X1591560Y-530630D01*
G01X1770210Y-625880D02*
X1786800Y-603650D01*
X1801030Y-590950D01*
X1819990Y-584600D01*
X1836590Y-590950D01*
X1848440Y-603650D01*
X1857920Y-622700D01*
X1860290Y-644930D01*
X1857920Y-663980D01*
X1848440Y-683030D01*
X1834210Y-698900D01*
X1817620Y-705250D01*
X1798660Y-698900D01*
X1782060Y-679860D01*
X1772580Y-651270D01*
X1770210Y-619530D01*
X1774950Y-578250D01*
X1782060Y-556020D01*
X1793910Y-533800D01*
X1810510Y-517920D01*
X1827100Y-514750D01*
X1843700Y-521100D01*
X1855550Y-536980D01*
G01X-250000Y0D02*
X-2240000D01*
G01X-2052500Y400000D02*
X-1990000Y0D01*
X-1927500Y400000D01*
X-2052500D01*
G01X-1927500Y1460000D02*
X-1990000Y1860000D01*
X-2052500Y1460000D01*
X-1927500D01*
G01X180000Y1860000D02*
X-2240000D01*
G01X-1990000Y624260D02*
Y0D01*
G01Y1115740D02*
Y1860000D01*
G01X0Y-250000D02*
Y-860000D01*
G01X1403140Y-610000D02*
X0D01*
G01X400000Y-547500D02*
X0Y-610000D01*
X400000Y-672500D01*
Y-547500D01*
G01X2036860Y-610000D02*
X3600000D01*
G01X3200000Y-672500D02*
X3600000Y-610000D01*
X3200000Y-547500D01*
Y-672500D01*
G01X3600000Y0D02*
Y-860000D01*
G01X4070000Y-430000D02*
Y4030000D01*
X16668400D01*
Y-430000D01*
X4070000D01*
G01Y205000D02*
X16668400D01*
G01X4070000Y840000D02*
X16668400D01*
G01X4070000Y1475000D02*
X16668400D01*
G01X4349520Y2268750D02*
Y2586250D01*
X4499140D01*
G01X4444010Y2432800D02*
X4349520D01*
G01X4692050Y2586250D02*
X4786530D01*
G01X4739290D02*
Y2268750D01*
G01X4692050D02*
X4786530D01*
G01X5077870Y2427500D02*
X5156620D01*
Y2332250D01*
X5132990Y2300490D01*
X5105430Y2279330D01*
X5066060Y2268750D01*
X5026690Y2279330D01*
X4999130Y2300490D01*
X4975510Y2332250D01*
X4959760Y2369290D01*
X4951880Y2411620D01*
Y2448670D01*
X4959760Y2480410D01*
X4975510Y2517460D01*
X4999130Y2549210D01*
X5022750Y2570370D01*
X5054250Y2586250D01*
X5081810D01*
X5113300Y2575670D01*
X5136930Y2554500D01*
G01X5282600Y2586250D02*
Y2358710D01*
X5298340Y2311070D01*
X5329840Y2279330D01*
X5369210Y2268750D01*
X5408580Y2279330D01*
X5440080Y2311070D01*
X5455820Y2358710D01*
Y2586250D01*
G01X5605430Y2268750D02*
Y2586250D01*
X5703850D01*
X5735350Y2570370D01*
X5755040Y2549210D01*
X5762910Y2506870D01*
X5755040Y2464540D01*
X5731410Y2438090D01*
X5703850Y2422200D01*
X5605430D01*
G01X5703850D02*
X5762910Y2268750D01*
G01X6077870D02*
X5920390D01*
Y2586250D01*
X6077870D01*
G01X6014880Y2432800D02*
X5920390D01*
G01X4070000Y2110000D02*
X16668400D01*
G01X4070000Y2745000D02*
X16668400D01*
G01X4070000Y3380000D02*
X16668400D01*
G01X6018810Y2903750D02*
X6117240Y3221250D01*
X6215670Y2903750D01*
G01X6180230Y3014870D02*
X6054240D01*
G01X6353460Y3221250D02*
Y2903750D01*
X6510940D01*
G01X6668420Y3221250D02*
Y2903750D01*
X6825900D01*
G01X7290470Y3221250D02*
Y2993710D01*
X7306210Y2946070D01*
X7337710Y2914330D01*
X7377080Y2903750D01*
X7416450Y2914330D01*
X7447950Y2946070D01*
X7463690Y2993710D01*
Y3221250D01*
G01X7601490Y2903750D02*
Y3221250D01*
X7782590Y2903750D01*
Y3221250D01*
G01X7959760D02*
X8054240D01*
G01X8007000D02*
Y2903750D01*
G01X7959760D02*
X8054240D01*
G01X8321960Y3221250D02*
Y2903750D01*
G01X8231410Y3221250D02*
X8412510D01*
G01X8554240Y2946070D02*
X8585740Y2919620D01*
X8621170Y2903750D01*
X8652670D01*
X8684160Y2919620D01*
X8707790Y2946070D01*
X8719600Y2983130D01*
X8711730Y3020160D01*
X8692040Y3051910D01*
X8656600Y3073090D01*
X8609360Y3083670D01*
X8581800Y3104830D01*
X8569990Y3141870D01*
X8577870Y3178920D01*
X8597550Y3205370D01*
X8625110Y3221250D01*
X8652670D01*
X8680230Y3210670D01*
X8703850Y3184210D01*
G01X9168410Y2903750D02*
X9266840Y3221250D01*
X9365270Y2903750D01*
G01X9329830Y3014870D02*
X9203840D01*
G01X9503060Y2903750D02*
Y3221250D01*
X9601480D01*
X9632980Y3205370D01*
X9652670Y3184210D01*
X9660540Y3141870D01*
X9652670Y3099540D01*
X9629040Y3073090D01*
X9601480Y3057200D01*
X9503060D01*
G01X9601480D02*
X9660540Y2903750D01*
G01X9975500D02*
X9818020D01*
Y3221250D01*
X9975500D01*
G01X9912510Y3067800D02*
X9818020D01*
G01X10479440Y3221250D02*
X10573920D01*
G01X10526680D02*
Y2903750D01*
G01X10479440D02*
X10573920D01*
G01X10751090D02*
Y3221250D01*
X10932190Y2903750D01*
Y3221250D01*
G01X11369190Y2903750D02*
Y3221250D01*
X11471560Y2956670D01*
X11573930Y3221250D01*
Y2903750D01*
G01X11739280Y3221250D02*
X11833760D01*
G01X11786520D02*
Y2903750D01*
G01X11739280D02*
X11833760D01*
G01X12022740Y3221250D02*
Y2903750D01*
X12180220D01*
G01X12337700Y3221250D02*
Y2903750D01*
X12495180D01*
G01X12684160Y3221250D02*
X12778640D01*
G01X12731400D02*
Y2903750D01*
G01X12684160D02*
X12778640D01*
G01X12943990D02*
Y3221250D01*
X13046360Y2956670D01*
X13148730Y3221250D01*
Y2903750D01*
G01X13440060D02*
X13282580D01*
Y3221250D01*
X13440060D01*
G01X13377070Y3067800D02*
X13282580D01*
G01X13676280Y3221250D02*
Y2903750D01*
G01X13585730Y3221250D02*
X13766830D01*
G01X14069980Y2903750D02*
X13912500D01*
Y3221250D01*
X14069980D01*
G01X14006990Y3067800D02*
X13912500D01*
G01X14227460Y2903750D02*
Y3221250D01*
X14325880D01*
X14357380Y3205370D01*
X14377070Y3184210D01*
X14384940Y3141870D01*
X14377070Y3099540D01*
X14353440Y3073090D01*
X14325880Y3057200D01*
X14227460D01*
G01X14325880D02*
X14384940Y2903750D01*
G01X14538480Y2946070D02*
X14569980Y2919620D01*
X14605410Y2903750D01*
X14636910D01*
X14668400Y2919620D01*
X14692030Y2946070D01*
X14703840Y2983130D01*
X14695970Y3020160D01*
X14676280Y3051910D01*
X14640840Y3073090D01*
X14593600Y3083670D01*
X14566040Y3104830D01*
X14554230Y3141870D01*
X14562110Y3178920D01*
X14581790Y3205370D01*
X14609350Y3221250D01*
X14636910D01*
X14664470Y3210670D01*
X14688090Y3184210D01*
G01X6353460Y2745000D02*
Y-430000D01*
G01X6345590Y3553750D02*
Y3871250D01*
X6424320D01*
X6455820Y3855370D01*
X6479440Y3834210D01*
X6499130Y3802460D01*
X6514880Y3765410D01*
X6518810Y3712500D01*
X6514880Y3659580D01*
X6499130Y3622540D01*
X6479440Y3590780D01*
X6455820Y3569620D01*
X6424320Y3553750D01*
X6345590D01*
G01X6668420D02*
Y3871250D01*
X6766840D01*
X6798340Y3855370D01*
X6818030Y3834210D01*
X6825900Y3791870D01*
X6818030Y3749540D01*
X6794400Y3723090D01*
X6766840Y3707200D01*
X6668420D01*
G01X6766840D02*
X6825900Y3553750D01*
G01X7014880Y3871250D02*
X7109360D01*
G01X7062120D02*
Y3553750D01*
G01X7014880D02*
X7109360D01*
G01X7298340Y3871250D02*
Y3553750D01*
X7455820D01*
G01X7613300Y3871250D02*
Y3553750D01*
X7770780D01*
G01X8408570Y3844790D02*
X8384950Y3860670D01*
X8357400Y3871250D01*
X8325900D01*
X8290460Y3855370D01*
X8262910Y3828920D01*
X8243220Y3797160D01*
X8227470Y3744250D01*
X8223530Y3696620D01*
X8231410Y3649000D01*
X8243220Y3617250D01*
X8266840Y3585490D01*
X8294400Y3564330D01*
X8321960Y3553750D01*
X8349520D01*
X8377080Y3564330D01*
X8400700Y3580200D01*
X8420390Y3601360D01*
G01X8554240Y3553750D02*
Y3871250D01*
G01X8719600D02*
Y3553750D01*
G01Y3712500D02*
X8554240D01*
G01X8853450Y3553750D02*
X8951880Y3871250D01*
X9050310Y3553750D01*
G01X9014870Y3664870D02*
X8888880D01*
G01X9188100Y3553750D02*
Y3871250D01*
X9286520D01*
X9318020Y3855370D01*
X9337710Y3834210D01*
X9345580Y3791870D01*
X9337710Y3749540D01*
X9314080Y3723090D01*
X9286520Y3707200D01*
X9188100D01*
G01X9286520D02*
X9345580Y3553750D01*
G01X9581800Y3871250D02*
Y3553750D01*
G01X9491250Y3871250D02*
X9672350D01*
G01X9896760Y3543170D02*
X9888880Y3548460D01*
Y3559040D01*
X9896760Y3564330D01*
X9904640Y3559040D01*
Y3548460D01*
X9896760Y3543170D01*
G01Y3686030D02*
X9888880Y3691330D01*
Y3701910D01*
X9896760Y3707200D01*
X9904640Y3701910D01*
Y3691330D01*
X9896760Y3686030D01*
G01X10526680Y3871250D02*
Y3553750D01*
G01X10436130Y3871250D02*
X10617230D01*
G01X10841640Y3553750D02*
X10810140Y3559040D01*
X10782590Y3580200D01*
X10758960Y3611960D01*
X10743210Y3649000D01*
X10735340Y3691330D01*
Y3733670D01*
X10743210Y3776000D01*
X10758960Y3813040D01*
X10782590Y3844790D01*
X10810140Y3865960D01*
X10841640Y3871250D01*
X10873130Y3865960D01*
X10900690Y3844790D01*
X10924320Y3813040D01*
X10940070Y3776000D01*
X10947940Y3733670D01*
Y3691330D01*
X10940070Y3649000D01*
X10924320Y3611960D01*
X10900690Y3580200D01*
X10873130Y3559040D01*
X10841640Y3553750D01*
G01X11077860D02*
Y3871250D01*
X11172350D01*
X11203840Y3855370D01*
X11227470Y3818330D01*
X11235340Y3776000D01*
X11227470Y3733670D01*
X11207780Y3701910D01*
X11172350Y3686030D01*
X11077860D01*
G01X11786520Y3871250D02*
Y3553750D01*
G01X11731400Y3765410D02*
X11841640D01*
G01X12101480Y3553750D02*
X12077860Y3559040D01*
X12054240Y3580200D01*
X12038480Y3617250D01*
X12030610Y3659580D01*
X12038480Y3701910D01*
X12054240Y3738960D01*
X12077860Y3760120D01*
X12101480Y3765410D01*
X12125100Y3760120D01*
X12148720Y3738960D01*
X12164470Y3701910D01*
X12168410Y3659580D01*
X12164470Y3617250D01*
X12148720Y3580200D01*
X12125100Y3559040D01*
X12101480Y3553750D01*
G01X12762890Y3723090D02*
X12778640Y3738960D01*
X12790450Y3765410D01*
X12798330Y3802460D01*
X12790450Y3834210D01*
X12774710Y3855370D01*
X12747150Y3871250D01*
X12640850D01*
Y3553750D01*
X12770770D01*
X12798330Y3574910D01*
X12814080Y3606670D01*
X12821950Y3643710D01*
X12814080Y3680740D01*
X12790450Y3712500D01*
X12762890Y3723090D01*
X12640850D01*
G01X13046360Y3553750D02*
X13014860Y3559040D01*
X12987310Y3580200D01*
X12963680Y3611960D01*
X12947930Y3649000D01*
X12940060Y3691330D01*
Y3733670D01*
X12947930Y3776000D01*
X12963680Y3813040D01*
X12987310Y3844790D01*
X13014860Y3865960D01*
X13046360Y3871250D01*
X13077850Y3865960D01*
X13105410Y3844790D01*
X13129040Y3813040D01*
X13144790Y3776000D01*
X13152660Y3733670D01*
Y3691330D01*
X13144790Y3649000D01*
X13129040Y3611960D01*
X13105410Y3580200D01*
X13077850Y3559040D01*
X13046360Y3553750D01*
G01X13361320Y3871250D02*
Y3553750D01*
G01X13270770Y3871250D02*
X13451870D01*
G01X13676280D02*
Y3553750D01*
G01X13585730Y3871250D02*
X13766830D01*
G01X13991240Y3553750D02*
X13959740Y3559040D01*
X13932190Y3580200D01*
X13908560Y3611960D01*
X13892810Y3649000D01*
X13884940Y3691330D01*
Y3733670D01*
X13892810Y3776000D01*
X13908560Y3813040D01*
X13932190Y3844790D01*
X13959740Y3865960D01*
X13991240Y3871250D01*
X14022730Y3865960D01*
X14050290Y3844790D01*
X14073920Y3813040D01*
X14089670Y3776000D01*
X14097540Y3733670D01*
Y3691330D01*
X14089670Y3649000D01*
X14073920Y3611960D01*
X14050290Y3580200D01*
X14022730Y3559040D01*
X13991240Y3553750D01*
G01X14203830D02*
Y3871250D01*
X14306200Y3606670D01*
X14408570Y3871250D01*
Y3553750D01*
G01X6947940Y2268750D02*
Y2586250D01*
X7097560D01*
G01X7042430Y2432800D02*
X6947940D01*
G01X7290470Y2586250D02*
X7384950D01*
G01X7337710D02*
Y2268750D01*
G01X7290470D02*
X7384950D01*
G01X7562120D02*
Y2586250D01*
X7743220Y2268750D01*
Y2586250D01*
G01X7920390D02*
X8014870D01*
G01X7967630D02*
Y2268750D01*
G01X7920390D02*
X8014870D01*
G01X8199910Y2311070D02*
X8231410Y2284620D01*
X8266840Y2268750D01*
X8298340D01*
X8329830Y2284620D01*
X8353460Y2311070D01*
X8365270Y2348130D01*
X8357400Y2385160D01*
X8337710Y2416910D01*
X8302270Y2438090D01*
X8255030Y2448670D01*
X8227470Y2469830D01*
X8215660Y2506870D01*
X8223540Y2543920D01*
X8243220Y2570370D01*
X8270780Y2586250D01*
X8298340D01*
X8325900Y2575670D01*
X8349520Y2549210D01*
G01X8514870Y2268750D02*
Y2586250D01*
G01X8680230D02*
Y2268750D01*
G01Y2427500D02*
X8514870D01*
G01X8991250Y2268750D02*
X8833770D01*
Y2586250D01*
X8991250D01*
G01X8928260Y2432800D02*
X8833770D01*
G01X9140860Y2268750D02*
Y2586250D01*
X9219590D01*
X9251090Y2570370D01*
X9274710Y2549210D01*
X9294400Y2517460D01*
X9310150Y2480410D01*
X9314080Y2427500D01*
X9310150Y2374580D01*
X9294400Y2337540D01*
X9274710Y2305780D01*
X9251090Y2284620D01*
X9219590Y2268750D01*
X9140860D01*
G01X9424320Y2162920D02*
X9660540D01*
G01X9774710Y2311070D02*
X9806210Y2284620D01*
X9841640Y2268750D01*
X9873140D01*
X9904630Y2284620D01*
X9928260Y2311070D01*
X9940070Y2348130D01*
X9932200Y2385160D01*
X9912510Y2416910D01*
X9877070Y2438090D01*
X9829830Y2448670D01*
X9802270Y2469830D01*
X9790460Y2506870D01*
X9798340Y2543920D01*
X9818020Y2570370D01*
X9845580Y2586250D01*
X9873140D01*
X9900700Y2575670D01*
X9924320Y2549210D01*
G01X10125110Y2586250D02*
X10219590D01*
G01X10172350D02*
Y2268750D01*
G01X10125110D02*
X10219590D01*
G01X10412500Y2586250D02*
X10562120D01*
X10412500Y2268750D01*
X10562120D01*
G01X10881010D02*
X10723530D01*
Y2586250D01*
X10881010D01*
G01X10818020Y2432800D02*
X10723530D01*
G01X8282590Y1951250D02*
X8251090Y1940670D01*
X8227470Y1914210D01*
X8211720Y1882460D01*
X8199910Y1840120D01*
X8195980Y1792500D01*
X8199910Y1744870D01*
X8211720Y1702540D01*
X8227470Y1670780D01*
X8251090Y1644330D01*
X8282590Y1633750D01*
X8314080Y1644330D01*
X8337710Y1670780D01*
X8353460Y1702540D01*
X8365270Y1744870D01*
X8369200Y1792500D01*
X8365270Y1840120D01*
X8353460Y1882460D01*
X8337710Y1914210D01*
X8314080Y1940670D01*
X8282590Y1951250D01*
G01X8597550Y1623170D02*
X8589670Y1628460D01*
Y1639040D01*
X8597550Y1644330D01*
X8605430Y1639040D01*
Y1628460D01*
X8597550Y1623170D01*
G01X8837700Y1898330D02*
X8861330Y1930080D01*
X8888890Y1945960D01*
X8920390Y1951250D01*
X8959750Y1940670D01*
X8987320Y1914210D01*
X8995190Y1882460D01*
X8991250Y1850700D01*
X8975500Y1824250D01*
X8896760Y1771330D01*
X8861330Y1734290D01*
X8837700Y1681360D01*
X8829830Y1633750D01*
X8995190D01*
G01X9140860Y1681360D02*
X9164470Y1654910D01*
X9192030Y1639040D01*
X9227470Y1633750D01*
X9262910Y1644330D01*
X9290460Y1665490D01*
X9310150Y1702540D01*
X9314080Y1744870D01*
X9306210Y1787200D01*
X9286520Y1813670D01*
X9258960Y1834830D01*
X9231410Y1840120D01*
X9203850Y1834830D01*
X9168420Y1813670D01*
X9180230Y1951250D01*
X9286520D01*
G01X9589670Y1633750D02*
Y1951250D01*
X9444000Y1723710D01*
X9640860D01*
G01X8522740Y-6670D02*
X8546370Y25080D01*
X8573930Y40960D01*
X8605430Y46250D01*
X8644790Y35670D01*
X8672360Y9210D01*
X8680230Y-22540D01*
X8676290Y-54300D01*
X8660540Y-80750D01*
X8581800Y-133670D01*
X8546370Y-170710D01*
X8522740Y-223640D01*
X8514870Y-271250D01*
X8680230D01*
G01X8912510Y-281830D02*
X8904630Y-276540D01*
Y-265960D01*
X8912510Y-260670D01*
X8920390Y-265960D01*
Y-276540D01*
X8912510Y-281830D01*
G01X9140860Y-207750D02*
X9164470Y-244800D01*
X9195970Y-265960D01*
X9231410Y-271250D01*
X9262910Y-265960D01*
X9294400Y-239510D01*
X9314080Y-207750D01*
X9318020Y-176000D01*
X9310150Y-138970D01*
X9282590Y-112500D01*
X9255030Y-101910D01*
X9219590D01*
G01X9255030D02*
X9278650Y-86040D01*
X9298340Y-59590D01*
X9306210Y-27840D01*
X9298340Y3920D01*
X9278650Y30370D01*
X9243220Y46250D01*
X9207790Y40960D01*
X9172350Y19790D01*
G01X8597550Y363750D02*
Y681250D01*
X8550310Y617750D01*
G01Y363750D02*
X8644790D01*
G01X8912510Y353170D02*
X8904630Y358460D01*
Y369040D01*
X8912510Y374330D01*
X8920390Y369040D01*
Y358460D01*
X8912510Y353170D01*
G01X9227470Y363750D02*
X9255030Y369040D01*
X9286520Y384910D01*
X9306210Y411360D01*
X9314080Y448420D01*
X9306210Y485450D01*
X9282590Y517200D01*
X9247150Y533090D01*
X9207790D01*
X9184160Y543670D01*
X9164470Y570120D01*
X9156600Y607160D01*
X9168420Y644210D01*
X9195970Y670670D01*
X9227470Y681250D01*
X9258960Y670670D01*
X9286520Y644210D01*
X9298340Y607160D01*
X9290460Y570120D01*
X9270780Y543670D01*
X9247150Y533090D01*
X9207790D01*
X9172350Y517200D01*
X9148730Y485450D01*
X9140860Y448420D01*
X9148730Y411360D01*
X9168420Y384910D01*
X9199910Y369040D01*
X9227470Y363750D01*
G01X8597550Y1316250D02*
X8566050Y1305670D01*
X8542430Y1279210D01*
X8526680Y1247460D01*
X8514870Y1205120D01*
X8510940Y1157500D01*
X8514870Y1109870D01*
X8526680Y1067540D01*
X8542430Y1035780D01*
X8566050Y1009330D01*
X8597550Y998750D01*
X8629040Y1009330D01*
X8652670Y1035780D01*
X8668420Y1067540D01*
X8680230Y1109870D01*
X8684160Y1157500D01*
X8680230Y1205120D01*
X8668420Y1247460D01*
X8652670Y1279210D01*
X8629040Y1305670D01*
X8597550Y1316250D01*
G01X8912510Y988170D02*
X8904630Y993460D01*
Y1004040D01*
X8912510Y1009330D01*
X8920390Y1004040D01*
Y993460D01*
X8912510Y988170D01*
G01X9160540Y1035780D02*
X9188100Y1009330D01*
X9219590Y998750D01*
X9251090Y1009330D01*
X9278650Y1041070D01*
X9298340Y1088710D01*
X9306210Y1136330D01*
Y1194540D01*
X9298340Y1242160D01*
X9278650Y1284500D01*
X9255030Y1305670D01*
X9227470Y1316250D01*
X9195970Y1305670D01*
X9172350Y1284500D01*
X9156600Y1252750D01*
X9148730Y1210410D01*
X9156600Y1173380D01*
X9176290Y1136330D01*
X9199910Y1115160D01*
X9227470Y1109870D01*
X9258960Y1120450D01*
X9282590Y1146910D01*
X9306210Y1194540D01*
G01X10799730Y-588750D02*
Y-906250D01*
G01X10709180Y-588750D02*
X10890280D01*
G01X11114690Y-906250D02*
X11083190Y-900960D01*
X11055640Y-879800D01*
X11032010Y-848040D01*
X11016260Y-811000D01*
X11008390Y-768670D01*
Y-726330D01*
X11016260Y-684000D01*
X11032010Y-646960D01*
X11055640Y-615210D01*
X11083190Y-594040D01*
X11114690Y-588750D01*
X11146180Y-594040D01*
X11173740Y-615210D01*
X11197370Y-646960D01*
X11213120Y-684000D01*
X11220990Y-726330D01*
Y-768670D01*
X11213120Y-811000D01*
X11197370Y-848040D01*
X11173740Y-879800D01*
X11146180Y-900960D01*
X11114690Y-906250D01*
G01X11429650Y-588750D02*
Y-906250D01*
G01X11339100Y-588750D02*
X11520200D01*
G01X11646180Y-906250D02*
X11744610Y-588750D01*
X11843040Y-906250D01*
G01X11807600Y-795130D02*
X11681610D01*
G01X11980830Y-588750D02*
Y-906250D01*
X12138310D01*
G01X12606810D02*
Y-588750D01*
G01X12772170D02*
Y-906250D01*
G01Y-747500D02*
X12606810D01*
G01X13004450Y-906250D02*
X12972950Y-900960D01*
X12945400Y-879800D01*
X12921770Y-848040D01*
X12906020Y-811000D01*
X12898150Y-768670D01*
Y-726330D01*
X12906020Y-684000D01*
X12921770Y-646960D01*
X12945400Y-615210D01*
X12972950Y-594040D01*
X13004450Y-588750D01*
X13035940Y-594040D01*
X13063500Y-615210D01*
X13087130Y-646960D01*
X13102880Y-684000D01*
X13110750Y-726330D01*
Y-768670D01*
X13102880Y-811000D01*
X13087130Y-848040D01*
X13063500Y-879800D01*
X13035940Y-900960D01*
X13004450Y-906250D01*
G01X13240670Y-588750D02*
Y-906250D01*
X13398150D01*
G01X13713110D02*
X13555630D01*
Y-588750D01*
X13713110D01*
G01X13650120Y-742200D02*
X13555630D01*
G01X13866650Y-863930D02*
X13898150Y-890380D01*
X13933580Y-906250D01*
X13965080D01*
X13996570Y-890380D01*
X14020200Y-863930D01*
X14032010Y-826870D01*
X14024140Y-789840D01*
X14004450Y-758090D01*
X13969010Y-736910D01*
X13921770Y-726330D01*
X13894210Y-705170D01*
X13882400Y-668130D01*
X13890280Y-631080D01*
X13909960Y-604630D01*
X13937520Y-588750D01*
X13965080D01*
X13992640Y-599330D01*
X14016260Y-625790D01*
G01X14264290Y-916830D02*
X14256410Y-911540D01*
Y-900960D01*
X14264290Y-895670D01*
X14272170Y-900960D01*
Y-911540D01*
X14264290Y-916830D01*
G01Y-773970D02*
X14256410Y-768670D01*
Y-758090D01*
X14264290Y-752800D01*
X14272170Y-758090D01*
Y-768670D01*
X14264290Y-773970D01*
G01X11471560Y2745000D02*
Y-430000D01*
G01X12219590Y-271250D02*
Y46250D01*
X12314080D01*
X12345570Y30370D01*
X12369200Y-6670D01*
X12377070Y-49000D01*
X12369200Y-91330D01*
X12349510Y-123090D01*
X12314080Y-138970D01*
X12219590D01*
G01X12534550Y46250D02*
Y-271250D01*
X12692030D01*
G01X12829820D02*
X12928250Y46250D01*
X13026680Y-271250D01*
G01X12991240Y-160130D02*
X12865250D01*
G01X13243210Y46250D02*
Y-271250D01*
G01X13152660Y46250D02*
X13333760D01*
G01X13636910Y-271250D02*
X13479430D01*
Y46250D01*
X13636910D01*
G01X13573920Y-107200D02*
X13479430D01*
G01X13786520Y-271250D02*
Y46250D01*
X13865250D01*
X13896750Y30370D01*
X13920370Y9210D01*
X13940060Y-22540D01*
X13955810Y-59590D01*
X13959740Y-112500D01*
X13955810Y-165420D01*
X13940060Y-202460D01*
X13920370Y-234220D01*
X13896750Y-255380D01*
X13865250Y-271250D01*
X13786520D01*
G01X12219590Y363750D02*
Y681250D01*
X12314080D01*
X12345570Y665370D01*
X12369200Y628330D01*
X12377070Y586000D01*
X12369200Y543670D01*
X12349510Y511910D01*
X12314080Y496030D01*
X12219590D01*
G01X12534550Y681250D02*
Y363750D01*
X12692030D01*
G01X12829820D02*
X12928250Y681250D01*
X13026680Y363750D01*
G01X12991240Y474870D02*
X12865250D01*
G01X13243210Y681250D02*
Y363750D01*
G01X13152660Y681250D02*
X13333760D01*
G01X13636910Y363750D02*
X13479430D01*
Y681250D01*
X13636910D01*
G01X13573920Y527800D02*
X13479430D01*
G01X13786520Y363750D02*
Y681250D01*
X13865250D01*
X13896750Y665370D01*
X13920370Y644210D01*
X13940060Y612460D01*
X13955810Y575410D01*
X13959740Y522500D01*
X13955810Y469580D01*
X13940060Y432540D01*
X13920370Y400780D01*
X13896750Y379620D01*
X13865250Y363750D01*
X13786520D01*
G01X12219590Y998750D02*
Y1316250D01*
X12314080D01*
X12345570Y1300370D01*
X12369200Y1263330D01*
X12377070Y1221000D01*
X12369200Y1178670D01*
X12349510Y1146910D01*
X12314080Y1131030D01*
X12219590D01*
G01X12534550Y1316250D02*
Y998750D01*
X12692030D01*
G01X12829820D02*
X12928250Y1316250D01*
X13026680Y998750D01*
G01X12991240Y1109870D02*
X12865250D01*
G01X13243210Y1316250D02*
Y998750D01*
G01X13152660Y1316250D02*
X13333760D01*
G01X13636910Y998750D02*
X13479430D01*
Y1316250D01*
X13636910D01*
G01X13573920Y1162800D02*
X13479430D01*
G01X13786520Y998750D02*
Y1316250D01*
X13865250D01*
X13896750Y1300370D01*
X13920370Y1279210D01*
X13940060Y1247460D01*
X13955810Y1210410D01*
X13959740Y1157500D01*
X13955810Y1104580D01*
X13940060Y1067540D01*
X13920370Y1035780D01*
X13896750Y1014620D01*
X13865250Y998750D01*
X13786520D01*
G01X12219590Y1633750D02*
Y1951250D01*
X12314080D01*
X12345570Y1935370D01*
X12369200Y1898330D01*
X12377070Y1856000D01*
X12369200Y1813670D01*
X12349510Y1781910D01*
X12314080Y1766030D01*
X12219590D01*
G01X12534550Y1951250D02*
Y1633750D01*
X12692030D01*
G01X12829820D02*
X12928250Y1951250D01*
X13026680Y1633750D01*
G01X12991240Y1744870D02*
X12865250D01*
G01X13243210Y1951250D02*
Y1633750D01*
G01X13152660Y1951250D02*
X13333760D01*
G01X13636910Y1633750D02*
X13479430D01*
Y1951250D01*
X13636910D01*
G01X13573920Y1797800D02*
X13479430D01*
G01X13786520Y1633750D02*
Y1951250D01*
X13865250D01*
X13896750Y1935370D01*
X13920370Y1914210D01*
X13940060Y1882460D01*
X13955810Y1845410D01*
X13959740Y1792500D01*
X13955810Y1739580D01*
X13940060Y1702540D01*
X13920370Y1670780D01*
X13896750Y1649620D01*
X13865250Y1633750D01*
X13786520D01*
G01X12219590Y2268750D02*
Y2586250D01*
X12314080D01*
X12345570Y2570370D01*
X12369200Y2533330D01*
X12377070Y2491000D01*
X12369200Y2448670D01*
X12349510Y2416910D01*
X12314080Y2401030D01*
X12219590D01*
G01X12534550Y2586250D02*
Y2268750D01*
X12692030D01*
G01X12829820D02*
X12928250Y2586250D01*
X13026680Y2268750D01*
G01X12991240Y2379870D02*
X12865250D01*
G01X13243210Y2586250D02*
Y2268750D01*
G01X13152660Y2586250D02*
X13333760D01*
G01X13636910Y2268750D02*
X13479430D01*
Y2586250D01*
X13636910D01*
G01X13573920Y2432800D02*
X13479430D01*
G01X13786520Y2268750D02*
Y2586250D01*
X13865250D01*
X13896750Y2570370D01*
X13920370Y2549210D01*
X13940060Y2517460D01*
X13955810Y2480410D01*
X13959740Y2427500D01*
X13955810Y2374580D01*
X13940060Y2337540D01*
X13920370Y2305780D01*
X13896750Y2284620D01*
X13865250Y2268750D01*
X13786520D01*
G01X14699900Y2745000D02*
Y-430000D01*
G01X15526670Y-906250D02*
X15554230Y-900960D01*
X15585720Y-885090D01*
X15605410Y-858640D01*
X15613280Y-821580D01*
X15605410Y-784550D01*
X15581790Y-752800D01*
X15546350Y-736910D01*
X15506990D01*
X15483360Y-726330D01*
X15463670Y-699880D01*
X15455800Y-662840D01*
X15467620Y-625790D01*
X15495170Y-599330D01*
X15526670Y-588750D01*
X15558160Y-599330D01*
X15585720Y-625790D01*
X15597540Y-662840D01*
X15589660Y-699880D01*
X15569980Y-726330D01*
X15546350Y-736910D01*
X15506990D01*
X15471550Y-752800D01*
X15447930Y-784550D01*
X15440060Y-821580D01*
X15447930Y-858640D01*
X15467620Y-885090D01*
X15499110Y-900960D01*
X15526670Y-906250D01*
G01X15841630D02*
Y-588750D01*
X15794390Y-652250D01*
G01Y-906250D02*
X15888870D01*
G01X15609340Y-6670D02*
X15632970Y25080D01*
X15660530Y40960D01*
X15692030Y46250D01*
X15731390Y35670D01*
X15758960Y9210D01*
X15766830Y-22540D01*
X15762890Y-54300D01*
X15747140Y-80750D01*
X15668400Y-133670D01*
X15632970Y-170710D01*
X15609340Y-223640D01*
X15601470Y-271250D01*
X15766830D01*
G01X15609340Y628330D02*
X15632970Y660080D01*
X15660530Y675960D01*
X15692030Y681250D01*
X15731390Y670670D01*
X15758960Y644210D01*
X15766830Y612460D01*
X15762890Y580700D01*
X15747140Y554250D01*
X15668400Y501330D01*
X15632970Y464290D01*
X15609340Y411360D01*
X15601470Y363750D01*
X15766830D01*
G01X15526670Y998750D02*
Y1316250D01*
X15479430Y1252750D01*
G01Y998750D02*
X15573910D01*
G01X15841630D02*
X15869190Y1004040D01*
X15900680Y1019910D01*
X15920370Y1046360D01*
X15928240Y1083420D01*
X15920370Y1120450D01*
X15896750Y1152200D01*
X15861310Y1168090D01*
X15821950D01*
X15798320Y1178670D01*
X15778630Y1205120D01*
X15770760Y1242160D01*
X15782580Y1279210D01*
X15810130Y1305670D01*
X15841630Y1316250D01*
X15873120Y1305670D01*
X15900680Y1279210D01*
X15912500Y1242160D01*
X15904620Y1205120D01*
X15884940Y1178670D01*
X15861310Y1168090D01*
X15821950D01*
X15786510Y1152200D01*
X15762890Y1120450D01*
X15755020Y1083420D01*
X15762890Y1046360D01*
X15782580Y1019910D01*
X15814070Y1004040D01*
X15841630Y998750D01*
G01X15440060Y1681360D02*
X15463670Y1654910D01*
X15491230Y1639040D01*
X15526670Y1633750D01*
X15562110Y1644330D01*
X15589660Y1665490D01*
X15609350Y1702540D01*
X15613280Y1744870D01*
X15605410Y1787200D01*
X15585720Y1813670D01*
X15558160Y1834830D01*
X15530610Y1840120D01*
X15503050Y1834830D01*
X15467620Y1813670D01*
X15479430Y1951250D01*
X15585720D01*
G01X15774700Y1670780D02*
X15802260Y1644330D01*
X15833750Y1633750D01*
X15865250Y1644330D01*
X15892810Y1676070D01*
X15912500Y1723710D01*
X15920370Y1771330D01*
Y1829540D01*
X15912500Y1877160D01*
X15892810Y1919500D01*
X15869190Y1940670D01*
X15841630Y1951250D01*
X15810130Y1940670D01*
X15786510Y1919500D01*
X15770760Y1887750D01*
X15762890Y1845410D01*
X15770760Y1808380D01*
X15790450Y1771330D01*
X15814070Y1750160D01*
X15841630Y1744870D01*
X15873120Y1755450D01*
X15896750Y1781910D01*
X15920370Y1829540D01*
G01X15369190Y2268750D02*
X15337690Y2274040D01*
X15310140Y2295200D01*
X15286510Y2326960D01*
X15270760Y2364000D01*
X15262890Y2406330D01*
Y2448670D01*
X15270760Y2491000D01*
X15286510Y2528040D01*
X15310140Y2559790D01*
X15337690Y2580960D01*
X15369190Y2586250D01*
X15400680Y2580960D01*
X15428240Y2559790D01*
X15451870Y2528040D01*
X15467620Y2491000D01*
X15475490Y2448670D01*
Y2406330D01*
X15467620Y2364000D01*
X15451870Y2326960D01*
X15428240Y2295200D01*
X15400680Y2274040D01*
X15369190Y2268750D01*
G01X15400680Y2353420D02*
X15447930Y2268750D01*
G01X15684150Y2586250D02*
Y2268750D01*
G01X15593600Y2586250D02*
X15774700D01*
G01X15999110Y2268750D02*
Y2411620D01*
X15920370Y2586250D01*
G01X16077850D02*
X15999110Y2411620D01*
M02*
