M48
METRIC,TZ
T01C.254
T02C.9
T03C1.8
T04C2.3
;LEADER: 12 
;HEADER: 
;CODE  : ASCII 
;FILE  : RTL8152B_TEST_V10A-1-2.drl for board G:/github/MBED-TOOLS/HARDWARE/RTL8152B_TEST_V10A/PCB/#Taaaaeh11152.tmp ... layers TOP and BOTTOM
;T01 Holesize 1. = 0.254000 Tolerance = +0.000000/-0.000000 PLATED MM Quantity = 59
;T02 Holesize 2. = 0.900000 Tolerance = +0.000000/-0.000000 PLATED MM Quantity = 18
;T03 Holesize 3. = 1.800000 Tolerance = +0.000000/-0.000000 PLATED MM Quantity = 2
;T04 Holesize 4. = 2.300000 Tolerance = +0.000000/-0.000000 PLATED MM Quantity = 2
%
G90
T01
X350000Y70000
X90000Y530000
X90000Y760000
X180800Y970000
X425000Y1795000
X700000Y1627200
X890000Y1550000
X550000Y1480000
X760000Y1290000
X789260Y1120000
X1000000Y1090000
X790000Y1040000
X1000000Y1010000
X790000Y970000
X1000000Y930000
X630000Y780000
X630000Y700000
X890000Y690000
X890000Y620000
X1000000Y260000
X1000000Y80000
X1200000Y80000
X1460000Y320000
X1460000Y460000
X1343800Y466200
X1230000Y560000
X1230000Y680000
X1080000Y930000
X1160000Y930000
X1080000Y1010000
X1160000Y1010000
X1450000Y1010000
X1080000Y1090000
X1160000Y1090000
X1280000Y1190000
X1350000Y1190000
X1158050Y1288100
X1240000Y1289200
X1040000Y1300000
X1101760Y1420000
X1020000Y1700000
X1020000Y1800000
X1670000Y1540000
X1580000Y1800000
X1770000Y1800000
X1990000Y1800000
X3000000Y1780000
X3030000Y100000
X2610000Y100000
X3440000Y100000
X3246500Y366500
X3385000Y365000
X3120000Y850000
X3530000Y850000
X3250000Y990000
X3246300Y1053400
X3530000Y1100000
X3530000Y1560000
X3320000Y1780000
T02
X470000Y580000
X470000Y830000
X470000Y1030000
X470000Y1280000
X1671000Y1374490
X1671000Y1120490
X1671000Y866490
X1671000Y612490
X1671000Y358490
X1925000Y485490
X1925000Y739490
X1925000Y993490
X1925000Y1247490
X1925000Y1501490
X2969990Y1592500
X2969990Y1338500
X2969990Y521510
X2969990Y267510
T03
X2255000Y155010
X2255000Y1704990
T04
X270000Y330000
X270000Y1530000
M30
