G04 ================== begin FILE IDENTIFICATION RECORD ==================*
G04 Layout Name:  RTL8152B_TEST_V10A.brd*
G04 Film Name:    SolderMask_Bottom*
G04 File Format:  Gerber RS274X*
G04 File Origin:  Cadence Allegro 17.2-S071*
G04 Origin Date:  Wed Jun 02 11:07:21 2021*
G04 *
G04 Layer:  PIN/SOLDERMASK_BOTTOM*
G04 Layer:  PACKAGE GEOMETRY/SOLDERMASK_BOTTOM*
G04 Layer:  BOARD GEOMETRY/SOLDERMASK_BOTTOM*
G04 *
G04 Offset:    (0.0000 0.0000)*
G04 Mirror:    No*
G04 Mode:      Positive*
G04 Rotation:  0*
G04 FullContactRelief:  No*
G04 UndefLineWidth:     0.1524*
G04 ================== end FILE IDENTIFICATION RECORD ====================*
%FSLAX55Y55*MOMM*%
%IR0*IPPOS*OFA0.00000B0.00000*MIA0B0*SFA1.00000B1.00000*%
%ADD22R,.7X1.7*%
%ADD13R,.9X.9*%
%ADD20R,1.5X1.3*%
%ADD19R,2.5X2.5*%
%ADD15R,.6X.7*%
%ADD12R,1.7X1.9*%
%ADD11R,.7X.6*%
%ADD21C,2.6*%
%ADD17R,.9X.35*%
%ADD16C,1.7*%
%ADD10C,3.5*%
%ADD18R,.35X.9*%
%ADD14R,1.7X1.7*%
%LPD*%
G75*
G54D10*
X270000Y330000D03*
Y1530000D03*
G54D11*
X100000Y890000D03*
Y970000D03*
X260000Y890000D03*
Y970000D03*
X510000Y1685000D03*
Y1775000D03*
X630000Y1685000D03*
Y1775000D03*
X890000Y1375000D03*
Y1465000D03*
X760000Y1375000D03*
Y1465000D03*
X890000Y1685000D03*
Y1775000D03*
X760000Y1685000D03*
Y1775000D03*
X3120000Y365000D03*
Y275000D03*
X2950000Y875000D03*
Y785000D03*
Y985000D03*
Y1075000D03*
X3480000Y365000D03*
Y275000D03*
G54D20*
X1210000Y1535000D03*
Y1725000D03*
X1450000Y1535000D03*
Y1725000D03*
G54D21*
X2255000Y155010D03*
Y1704990D03*
G54D12*
X560000Y190000D03*
X840000D03*
G54D13*
X733800Y530000D03*
Y390000D03*
X630000Y1546200D03*
Y1393800D03*
X886200Y530000D03*
Y390000D03*
X1020000Y1546200D03*
Y1393800D03*
X1496200Y560000D03*
X1343800D03*
G54D22*
X3119500Y535000D03*
X3246500D03*
X3373500D03*
Y1325000D03*
X3246500D03*
X3119500D03*
X3500500Y535000D03*
Y1325000D03*
G54D14*
X470000Y580000D03*
G54D15*
X705000Y980000D03*
X615000D03*
X705000Y1100000D03*
X615000D03*
X1265000Y1370000D03*
X1175000D03*
X1425000Y690000D03*
X1515000D03*
X1425000Y930000D03*
X1515000D03*
X1425000Y810000D03*
X1515000D03*
X1395000Y1370000D03*
X1485000D03*
G54D16*
X470000Y830000D03*
Y1030000D03*
Y1280000D03*
X1671000Y612490D03*
Y358490D03*
Y1120490D03*
Y866490D03*
Y1374490D03*
X1925000Y739490D03*
Y485490D03*
Y1247490D03*
Y993490D03*
Y1501490D03*
X2969990Y521510D03*
Y267510D03*
Y1592500D03*
Y1338500D03*
G54D17*
X1280000Y885000D03*
Y935000D03*
Y985000D03*
Y1035000D03*
Y1085000D03*
Y1135000D03*
X880000D03*
Y1085000D03*
Y1035000D03*
Y985000D03*
Y935000D03*
Y885000D03*
G54D18*
X1205000Y1210000D03*
X1155000D03*
X1105000D03*
X1055000D03*
X1005000D03*
X955000D03*
Y810000D03*
X1005000D03*
X1055000D03*
X1105000D03*
X1155000D03*
X1205000D03*
G54D19*
X1080000Y1010000D03*
M02*
