G04 ================== begin FILE IDENTIFICATION RECORD ==================*
G04 Layout Name:  RTL8152B_TEST_V10A.brd*
G04 Film Name:    TOP*
G04 File Format:  Gerber RS274X*
G04 File Origin:  Cadence Allegro 17.2-S071*
G04 Origin Date:  Wed Jun 02 11:07:21 2021*
G04 *
G04 Layer:  VIA CLASS/TOP*
G04 Layer:  PIN/TOP*
G04 Layer:  ETCH/TOP*
G04 *
G04 Offset:    (0.0000 0.0000)*
G04 Mirror:    No*
G04 Mode:      Positive*
G04 Rotation:  0*
G04 FullContactRelief:  No*
G04 UndefLineWidth:     0.1524*
G04 ================== end FILE IDENTIFICATION RECORD ====================*
%FSLAX55Y55*MOMM*%
%IR0*IPPOS*OFA0.00000B0.00000*MIA0B0*SFA1.00000B1.00000*%
%ADD11C,.508*%
%ADD10C,3.3*%
%ADD14C,2.5*%
%ADD13C,1.6*%
%ADD12R,1.6X1.6*%
%ADD15C,.2032*%
%ADD16C,.254*%
%ADD18C,3.6004*%
%ADD17C,1.8004*%
G75*
%LPD*%
G75*
G36*
G01X784520Y1840000D02*
X3400000D01*
G02X3580000Y1660000I0J-180000D01*
G01Y200000D01*
G02X3400000Y20000I-180000J0D01*
G01X300000D01*
G02X20000Y300000I0J280000D01*
G01Y929070D01*
G02X54690Y943440I20320J4D01*
G01X64060Y934060D01*
G03X100000Y919180I35932J35943D01*
G01X138600D01*
G03X180800Y903940I42200J50807D01*
G03Y1036060I0J66060D01*
G03X141170Y1022850I0J-66050D01*
G01X138460Y1020820D01*
X121050D01*
X90820Y1051050D01*
Y1588950D01*
X190170Y1688300D01*
X567030D01*
X634130Y1621200D01*
X634600Y1617850D01*
G03X696950Y1561210I65397J9352D01*
G02X706640Y1551060I-470J-10149D01*
G01Y1328940D01*
G03X693940Y1290000I53348J-38940D01*
G03X704950Y1253490I66058J6D01*
G01X706640Y1250940D01*
Y1240000D01*
G03X707600Y1229900I53362J-24D01*
G02X687650Y1205740I-19952J-3842D01*
G01X591050D01*
X531170Y1145850D01*
X524740Y1148820D01*
G03X470000Y1160820I-54733J-118822D01*
G03X339180Y1030000I0J-130820D01*
G03X377790Y937210I130818J6D01*
G02Y922790I-7165J-7210D01*
G03X339180Y830000I92208J-92796D01*
G03X375850Y739170I130826J0D01*
G02X369450Y706480I-14622J-14109D01*
G03X339180Y660000I20550J-46480D01*
G01Y500000D01*
G03X390000Y449180I50820J0D01*
G01X550000D01*
G03X600820Y500000I0J50820D01*
G01Y594260D01*
X666640D01*
Y530000D01*
G03X682270Y492270I53354J0D01*
G01X742270Y432270D01*
G03X780000Y416640I37730J37724D01*
G01X1290440D01*
Y206200D01*
G03X1306070Y168470I53354J0D01*
G01X1372270Y102270D01*
G03X1410000Y86640I37730J37724D01*
G01X1980000D01*
G03X2017730Y102270I0J53354D01*
G01X2197730Y282270D01*
G03X2213360Y320000I-37724J37730D01*
G01Y867900D01*
X2278600Y933140D01*
X3193140D01*
Y554450D01*
G02X3175800Y547260I-10160J-2D01*
G01X3165620Y557450D01*
G03X3129680Y572330I-35932J-35943D01*
G01X3090540D01*
G03X2969990Y652330I-120550J-50827D01*
G03X2839170Y521510I0J-130820D01*
G03X2899070Y411580I130823J0D01*
G02Y377440I-11020J-17070D01*
G03X2839170Y267510I70923J-109930D01*
G03X3100810I130820J0D01*
G03X3094950Y306220I-130819J-5D01*
G02X3112210Y316020I9705J3006D01*
G03X3114060Y314060I37872J33893D01*
G01X3154940Y273180D01*
G03X3190880Y258300I35932J35943D01*
G01X3408150D01*
G03X3444090Y273180I8J50823D01*
G01X3476820Y305910D01*
G03X3491700Y341850I-35943J35932D01*
G01Y1079120D01*
G03X3476820Y1115060I-50823J8D01*
G01X3395940Y1195940D01*
G03X3360000Y1210820I-35932J-35943D01*
G01X3076370D01*
G02X3062070Y1245570I3J20319D01*
G03X3100810Y1338500I-92091J92930D01*
G03X3040910Y1448430I-130823J0D01*
G02Y1482570I11020J17070D01*
G03X3100810Y1592500I-70923J109930D01*
G03X2839170I-130820J0D01*
G03X2846580Y1549110I130818J13D01*
G01X2848700Y1543080D01*
X2792810Y1487200D01*
G03X2777930Y1451260I35943J-35932D01*
G01Y1319800D01*
X2718950Y1260820D01*
X2391050D01*
X2190820Y1461050D01*
Y1590010D01*
G03X2175940Y1625950I-50823J8D01*
G01X2065950Y1735940D01*
G03X2030010Y1750820I-35932J-35943D01*
G01X1560000D01*
G03X1524060Y1735940I-8J-50823D01*
G01X1414060Y1625940D01*
G03X1399180Y1590000I35943J-35932D01*
G01Y1451050D01*
X1388950Y1440820D01*
X1180000D01*
G03X1165150Y1438600I6J-50819D01*
G03X1155120Y1458940I-63384J-18613D01*
G01Y1548240D01*
G03X1139490Y1585970I-53354J0D01*
G01X1079310Y1646150D01*
G03X1041580Y1661780I-37730J-37724D01*
G01X858420D01*
G03X840500Y1658680I3J-53360D01*
G02X813360Y1677820I-6820J19141D01*
G01Y1740000D01*
G03X797730Y1777730I-53354J0D01*
G01X770150Y1805310D01*
G02X784520Y1840000I14367J14370D01*
G37*
G36*
G01X610000Y1160000D02*
X764540D01*
X796640Y1127900D01*
Y1112100D01*
X790710Y1106170D01*
X786790Y1105980D01*
G03X751040Y1093350I3205J-65982D01*
G03X750000Y1093360I-1033J-53350D01*
G03X732880Y1090540I-3J-53360D01*
G01X731290Y1090000D01*
X710000D01*
X670000Y1050000D01*
Y1028710D01*
X669460Y1027120D01*
G03X666640Y1010000I50540J-17117D01*
G01Y646640D01*
X660000Y640000D01*
X610000D01*
X600820Y649180D01*
Y660000D01*
G03X580000Y701020I-50819J0D01*
G01Y759130D01*
X581500Y761580D01*
G03Y898420I-111492J68420D01*
G01X580000Y900870D01*
Y959130D01*
X581500Y961580D01*
G03Y1098420I-111492J68420D01*
G01X580000Y1100870D01*
Y1130000D01*
X610000Y1160000D01*
G37*
G36*
G01X1775940Y1214060D02*
X1788490Y1226620D01*
X1797640Y1217480D01*
X1798330Y1214790D01*
G03X1854080Y1137560I126668J32701D01*
G02Y1103420I-11020J-17070D01*
G03Y883560I70923J-109930D01*
G02Y849420I-11020J-17070D01*
G03Y629560I70923J-109930D01*
G02Y595420I-11020J-17070D01*
G03X1794180Y485490I70923J-109930D01*
G03X2055820I130820J0D01*
G03X1995920Y595420I-130823J0D01*
G02Y629560I11020J17070D01*
G03Y849420I-70923J109930D01*
G02Y883560I11020J17070D01*
G03Y1103420I-70923J109930D01*
G02Y1137560I11020J17070D01*
G03X2049330Y1206790I-70919J109930D01*
G02X2083010Y1214830I19310J-6325D01*
G01X2233480Y1064360D01*
G02X2229420Y1032480I-14367J-14369D01*
G03X2218770Y1024230I27091J-45971D01*
G01X2122270Y927730D01*
G03X2106640Y890000I37724J-37730D01*
G01Y342100D01*
X1957900Y193360D01*
X1432100D01*
X1397160Y228300D01*
Y427260D01*
G03X1409860Y466200I-53348J38940D01*
G03X1343800Y532260I-66060J0D01*
G03X1312820Y524550I-9J-66062D01*
G01X1310590Y523360D01*
X802100D01*
X773360Y552100D01*
Y714260D01*
X1458950D01*
X1525740Y781050D01*
Y781440D01*
G02X1562860Y792880I20321J5D01*
G03X1600080Y756560I108151J73600D01*
G02Y722420I-11020J-17070D01*
G03Y502560I70923J-109930D01*
G02Y468420I-11020J-17070D01*
G03X1540180Y358490I70923J-109930D01*
G03X1801820I130820J0D01*
G03X1741920Y468420I-130823J0D01*
G02Y502560I11020J17070D01*
G03Y722420I-70923J109930D01*
G02Y756560I11020J17070D01*
G03Y976420I-70923J109930D01*
G02Y1010560I11020J17070D01*
G03X1801820Y1120490I-70923J109930D01*
G03X1774670Y1200290I-130823J9D01*
G02X1775600Y1213730I8049J6195D01*
G03X1775940Y1214060I-35227J36634D01*
G37*
G36*
G01X1514190Y1141200D02*
G02X1540180Y1121530I5673J-19510D01*
G01Y1120490D01*
G03X1600080Y1010560I130823J0D01*
G02Y976420I-11020J-17070D01*
G03X1562860Y940100I70931J-109920D01*
G02X1525740Y951540I-16799J11435D01*
G01Y1048950D01*
X1488950Y1085740D01*
X1411050D01*
X1374260Y1048950D01*
Y885740D01*
X885740D01*
Y940280D01*
X937730Y992270D01*
G03X953360Y1030000I-37724J37730D01*
G01Y1139530D01*
X964060D01*
X964600Y1139470D01*
G03X970000Y1139180I5421J50529D01*
G01X1237800D01*
G03X1280000Y1123940I42200J50807D01*
G03X1315000Y1133970I6J66062D01*
G03X1350000Y1123940I34994J56032D01*
G03X1392200Y1139180I0J66047D01*
G01X1500000D01*
G03X1514190Y1141200I4J50821D01*
G37*
G36*
G01X1430000Y1040000D02*
X1470000D01*
X1480000Y1030000D01*
Y800000D01*
X1440000Y760000D01*
X780000D01*
X773360Y766640D01*
Y953700D01*
G02X792810Y974000I20320J-1D01*
G03X819380Y980830I-2803J66001D01*
G01X825920Y984080D01*
X840000Y970000D01*
Y860000D01*
X860000Y840000D01*
X1400000D01*
X1420000Y860000D01*
Y1030000D01*
X1430000Y1040000D01*
G37*
G36*
G01X1621050Y1569180D02*
X1958950D01*
X1999180Y1528950D01*
Y1420530D01*
X1859710D01*
G03X1823770Y1405650I-8J-50823D01*
G01X1808660Y1390530D01*
X1799380Y1399810D01*
X1798740Y1402710D01*
G03X1671000Y1505310I-127740J-28220D01*
G03X1610530Y1490500I-8J-130822D01*
G02X1580820Y1508520I-9392J18018D01*
G01Y1528950D01*
X1621050Y1569180D01*
G37*
%LPC*%
G75*
G54D18*
X2560000Y1504000D03*
Y356000D03*
G54D17*
X230000Y705000D03*
Y1155000D03*
%LPD*%
G75*
G54D10*
X270000Y330000D03*
Y1530000D03*
G54D11*
X90000Y530000D03*
Y760000D03*
X180800Y970000D03*
X350000Y70000D03*
X630000Y700000D03*
Y780000D03*
X550000Y1480000D03*
X700000Y1627200D03*
X425000Y1795000D03*
X1000000Y80000D03*
X1200000D03*
X890000Y690000D03*
Y620000D03*
X1000000Y260000D03*
X1230000Y560000D03*
Y680000D03*
X1080000Y1010000D03*
X1000000Y1090000D03*
X1160000D03*
X1080000D03*
X1000000Y1010000D03*
X1160000D03*
X1080000Y930000D03*
X1000000D03*
X1160000D03*
X790000Y970000D03*
X789260Y1120000D03*
X790000Y1040000D03*
X1020000Y1700000D03*
X890000Y1550000D03*
X1101760Y1420000D03*
X760000Y1290000D03*
X1240000Y1289200D03*
X1158050Y1288100D03*
X1040000Y1300000D03*
X1020000Y1800000D03*
X1460000Y320000D03*
Y460000D03*
X1343800Y466200D03*
X1350000Y1190000D03*
X1280000D03*
X1450000Y1010000D03*
X1670000Y1540000D03*
X1580000Y1800000D03*
X1770000D03*
X1990000D03*
X2610000Y100000D03*
X3030000D03*
X3246500Y366500D03*
X3385000Y365000D03*
X3120000Y850000D03*
X3246300Y1053400D03*
X3250000Y990000D03*
X3320000Y1780000D03*
X3000000D03*
X3440000Y100000D03*
X3530000Y850000D03*
Y1100000D03*
Y1560000D03*
G54D12*
X470000Y580000D03*
G54D13*
Y830000D03*
Y1030000D03*
Y1280000D03*
X1671000Y612490D03*
Y358490D03*
Y1120490D03*
Y866490D03*
Y1374490D03*
X1925000Y739490D03*
Y485490D03*
Y1247490D03*
Y993490D03*
Y1501490D03*
X2969990Y521510D03*
Y267510D03*
Y1592500D03*
Y1338500D03*
G54D14*
X2255000Y155010D03*
Y1704990D03*
G54D15*
G01X700000Y1627200D02*
X588080Y1739120D01*
X169120D01*
X40000Y1610000D01*
Y1030000D01*
X100000Y970000D01*
X180800D01*
G01X890000Y1550000D02*
Y1270000D01*
X970000Y1190000D01*
X1280000D01*
G01X3385000Y365000D02*
X3390000Y370000D01*
Y1070000D01*
X3350000Y1110000D01*
X2330000D01*
X2050000Y1390000D01*
Y1550000D01*
X1980000Y1620000D01*
X1600000D01*
X1530000Y1550000D01*
Y1330000D01*
X1489200Y1289200D01*
X1240000D01*
G01X1158050Y1288100D02*
Y1298050D01*
X1210000Y1350000D01*
X1440000D01*
X1490000Y1400000D01*
Y1570000D01*
X1580000Y1660000D01*
X2010000D01*
X2095000Y1575000D01*
Y1415000D01*
X2350000Y1160000D01*
X3360000D01*
X3440880Y1079120D01*
Y341850D01*
X3408150Y309120D01*
X3190880D01*
X3150000Y350000D01*
Y501190D01*
X3129680Y521510D01*
X2969990D01*
G01X1040000Y1300000D02*
X1090000D01*
X1180000Y1390000D01*
X1410000D01*
X1450000Y1430000D01*
Y1590000D01*
X1560000Y1700000D01*
X2030010D01*
X2140000Y1590010D01*
Y1440000D01*
X2370000Y1210000D01*
X2740000D01*
X2828750Y1298750D01*
Y1451260D01*
X2969990Y1592500D01*
G01X3246300Y1053400D02*
X2316310D01*
X2000000Y1369710D01*
X1859710D01*
X1740000Y1250000D01*
X1560000D01*
X1500000Y1190000D01*
X1350000D01*
G54D16*
G01X425000Y1795000D02*
X705000D01*
X760000Y1740000D01*
Y1290000D01*
G01X790000Y1040000D02*
X750000D01*
X720000Y1010000D01*
Y530000D01*
X780000Y470000D01*
X1340000D01*
X1343800Y466200D01*
G01X1101760Y1420000D02*
Y1548240D01*
X1041580Y1608420D01*
X858420D01*
X820000Y1570000D01*
Y1250000D01*
X900000Y1170000D01*
Y1030000D01*
X840000Y970000D01*
G01D02*
X790000D01*
G01X760000Y1290000D02*
Y1240000D01*
X850000Y1150000D01*
Y1090000D01*
X800000Y1040000D01*
X790000D01*
G01X3246500Y986500D02*
X2256500D01*
X2160000Y890000D01*
Y320000D01*
X1980000Y140000D01*
X1410000D01*
X1343800Y206200D01*
Y466200D01*
G01X1560000Y720000D02*
X1540000Y740000D01*
G01Y1090000D02*
X1530000Y1100000D01*
G01X1540000Y740000D02*
Y1090000D01*
G01X3246500Y366500D02*
Y986500D01*
G01D02*
X3250000Y990000D01*
M02*
