M48
METRIC,TZ
T01C.3048
;LEADER: 12 
;HEADER: 
;CODE  : ASCII 
;FILE  : HY_CM13X1_V10_250816-1-2.drl for board G:/github/DebugTool/HARDWARE/HY_CM13X1_V10_250816/PCB/#Taaabtt11768.tmp ... layers TOP and BOTTOM
;T01 Holesize 1. = 0.304800 Tolerance = +0.000000/-0.000000 PLATED MM Quantity = 153
%
G90
T01
X180000Y230000
X480000Y230000
X780000Y230000
X180000Y530000
X480000Y530000
X180000Y830000
X480000Y830000
X180000Y1130000
X480000Y1130000
X180000Y1430000
X480000Y1430000
X780000Y1430000
X180000Y1730000
X480000Y1730000
X780000Y1730000
X180000Y2140000
X480000Y2140000
X780000Y2140000
X180000Y2440000
X480000Y2440000
X780000Y2440000
X180000Y2740000
X480000Y2740000
X780000Y2740000
X180000Y3040000
X480000Y3040000
X780000Y3040000
X180000Y3340000
X480000Y3340000
X950000Y3350000
X950000Y3650000
X130000Y4180000
X130000Y4590000
X150000Y5440000
X450000Y5440000
X150000Y5740000
X450000Y5740000
X150000Y6040000
X450000Y6040000
X150000Y6340000
X450000Y6340000
X150000Y6640000
X450000Y6640000
X1850000Y6750000
X1440000Y6750000
X1870000Y3740000
X1440000Y3710000
X1870000Y3440000
X1440000Y3410000
X1380000Y3040000
X1080000Y3040000
X1810000Y2810000
X1380000Y2740000
X1080000Y2740000
X1380000Y2440000
X1080000Y2440000
X1380000Y2140000
X1080000Y2140000
X1960000Y1440000
X1760000Y1440000
X1560000Y1440000
X1360000Y1440000
X1960000Y1270000
X1760000Y1270000
X1560000Y1270000
X1360000Y1270000
X1960000Y1100000
X1760000Y1100000
X1560000Y1100000
X1670000Y900000
X1970000Y770000
X1770000Y770000
X1570000Y770000
X1970000Y610000
X1770000Y610000
X1570000Y610000
X1670000Y460000
X2320000Y140000
X2520000Y140000
X2720000Y140000
X2320000Y300000
X2520000Y300000
X2720000Y300000
X2520000Y470000
X2520000Y640000
X3040000Y760000
X2520000Y800000
X2520000Y950000
X2520000Y1110000
X3040000Y1180000
X2320000Y1270000
X2520000Y1270000
X2720000Y1270000
X2320000Y1430000
X2520000Y1430000
X2720000Y1430000
X3040000Y1880000
X2860000Y2113800
X2070000Y2362080
X2420000Y2570000
X2720000Y2570000
X2110000Y2810000
X2420000Y2810000
X2720000Y2810000
X2880000Y3160000
X2340000Y3530000
X2640000Y3530000
X2870000Y3530000
X2280000Y6750000
X2690000Y6750000
X3860000Y6740000
X3860000Y6330000
X3880000Y5710000
X3880000Y5300000
X3870000Y4680000
X3870000Y4270000
X3670000Y3540000
X3370000Y3540000
X3170000Y3530000
X3360000Y3040000
X3890000Y3030000
X3360000Y2800000
X3060000Y2800000
X3890000Y2790000
X3880000Y2490000
X3580000Y2490000
X3280000Y2490000
X3880000Y2220000
X3580000Y2220000
X3280000Y2220000
X3840000Y1390000
X3540000Y1390000
X3260000Y1390000
X3840000Y1090000
X3540000Y1090000
X3300000Y1070000
X3170000Y1070000
X3300000Y970000
X3170000Y970000
X3300000Y870000
X3170000Y870000
X3840000Y790000
X3540000Y790000
X3050000Y650000
X3840000Y490000
X3540000Y490000
X3260000Y490000
X3050000Y490000
X3050000Y340000
X3840000Y190000
X3540000Y190000
X3260000Y190000
X3050000Y190000
M30
