G04 ================== begin FILE IDENTIFICATION RECORD ==================*
G04 Layout Name:  HY_CM13X1_V10_250816.brd*
G04 Film Name:    SilkScreen_Top*
G04 File Format:  Gerber RS274X*
G04 File Origin:  Cadence Allegro 24.1-S006*
G04 Origin Date:  Fri Aug 22 17:41:43 2025*
G04 *
G04 Layer:  PACKAGE GEOMETRY/SILKSCREEN_TOP*
G04 Layer:  BOARD GEOMETRY/SILKSCREEN_TOP*
G04 *
G04 Offset:    (0.0000 0.0000)*
G04 Mirror:    No*
G04 Mode:      Positive*
G04 Rotation:  0*
G04 FullContactRelief:  No*
G04 UndefLineWidth:     0.1524*
G04 ================== end FILE IDENTIFICATION RECORD ====================*
%FSLAX55Y55*MOMM*%
%IR0*IPPOS*OFA0.00000B0.00000*MIA0B0*SFA1.00000B1.00000*%
%ADD10C,.2*%
%ADD11C,.254*%
%ADD12C,.1524*%
G75*
%LPD*%
G75*
G36*
G01X2060000Y717500D02*
G03I-30000J0D01*
G37*
G36*
G01Y1137500D02*
G03I-30000J0D01*
G37*
G36*
G01X2227500Y3240000D02*
G03I-30000J0D01*
G37*
G36*
G01X3050000Y522500D02*
G03I-30000J0D01*
G37*
G36*
G01Y942500D02*
G03I-30000J0D01*
G37*
G36*
G01X2850000Y3020000D02*
X2930000Y3100000D01*
Y2940000D01*
X2850000Y3020000D01*
G37*
G36*
G01X2910000Y5780000D02*
G03I-30000J0D01*
G37*
G54D10*
G01X110000Y1320000D02*
X610000D01*
Y320000D01*
X110000D01*
Y1320000D01*
G01X360000Y1410000D02*
X450000D01*
G01X240000Y3840000D02*
Y4180000D01*
X400000D01*
Y3840000D01*
X240000D01*
G01X340000Y4650000D02*
X230000D01*
Y4370000D01*
X250000D01*
G01X390000Y4780000D02*
Y5120000D01*
X550000D01*
Y4780000D01*
X390000D01*
G01X840000Y3030000D02*
X1620000D01*
Y2620000D01*
X840000D01*
Y3030000D01*
G01X680000Y3860000D02*
G03X560000I-60000J-77500D01*
G01Y3600000D02*
G03X680000I60000J77500D01*
G01X560000Y3860000D02*
Y3600000D01*
G01X680000D02*
Y3860000D01*
G01X750000Y3840000D02*
Y4180000D01*
X910000D01*
Y3840000D01*
X750000D01*
G01X560000Y3905000D02*
X680000D01*
Y4175000D01*
X560000D01*
Y3905000D01*
G01X850000Y4650000D02*
X740000D01*
Y4370000D01*
X760000D01*
G01X690000D02*
X710000D01*
Y4650000D01*
X600000D01*
G01X1190000Y3860000D02*
G03X1070000I-60000J-77500D01*
G01Y3600000D02*
G03X1190000I60000J77500D01*
G01X1070000Y3860000D02*
Y3600000D01*
G01X1190000D02*
Y3860000D01*
G01X1070000Y3905000D02*
X1190000D01*
Y4175000D01*
X1070000D01*
Y3905000D01*
G01X1200000Y4370000D02*
X1220000D01*
Y4650000D01*
X1110000D01*
G01X900000Y4780000D02*
Y5120000D01*
X1060000D01*
Y4780000D01*
X900000D01*
G01X1290000Y6130000D02*
X980000D01*
Y6510000D01*
G01X1180000Y6930000D02*
X3080000D01*
G01X1700000Y2320000D02*
G03X1580000I-60000J-77500D01*
G01Y2060000D02*
G03X1700000I60000J77500D01*
G01X1580000Y2320000D02*
Y2060000D01*
G01X1700000Y3860000D02*
G03X1580000I-60000J-77500D01*
G01Y3600000D02*
G03X1700000I60000J77500D01*
G01X1580000Y3860000D02*
Y3600000D01*
G01X1260000Y3840000D02*
Y4180000D01*
X1420000D01*
Y3840000D01*
X1260000D01*
G01X1580000Y3905000D02*
X1700000D01*
Y4175000D01*
X1580000D01*
Y3905000D01*
G01X1360000Y4650000D02*
X1250000D01*
Y4370000D01*
X1270000D01*
G01X1410000Y4780000D02*
Y5120000D01*
X1570000D01*
Y4780000D01*
X1410000D01*
G01X1715000Y520000D02*
Y400000D01*
X1985000D01*
Y520000D01*
X1715000D01*
G01X1985000Y260000D02*
Y380000D01*
X1715000D01*
Y260000D01*
X1985000D01*
G01X1715000Y960000D02*
Y840000D01*
X1985000D01*
Y960000D01*
X1715000D01*
G01X1700000Y2060000D02*
Y2320000D01*
G01X2020000D02*
G03X1900000I-60000J-77500D01*
G01Y2060000D02*
G03X2020000I60000J77500D01*
G01X1900000Y2320000D02*
Y2060000D01*
G01X1720000Y2055000D02*
X1840000D01*
Y2325000D01*
X1720000D01*
Y2055000D01*
G01X2220000Y2900000D02*
Y3020000D01*
X1720000D01*
Y2640000D01*
X2220000D01*
Y2760000D01*
G01X1700000Y3600000D02*
Y3860000D01*
G01X1770000Y3840000D02*
Y4180000D01*
X1930000D01*
Y3840000D01*
X1770000D01*
G01X1870000Y4650000D02*
X1760000D01*
Y4370000D01*
X1780000D01*
G01X1710000D02*
X1730000D01*
Y4650000D01*
X1620000D01*
G01X1920000Y4780000D02*
Y5120000D01*
X2080000D01*
Y4780000D01*
X1920000D01*
G01X2310000Y460000D02*
X2420000D01*
Y480000D01*
G01X2100000Y490000D02*
Y460000D01*
X2210000D01*
G01Y780000D02*
X2100000D01*
Y760000D01*
G01X2420000D02*
Y780000D01*
X2310000D01*
G01Y880000D02*
X2420000D01*
Y900000D01*
G01X2100000Y910000D02*
Y880000D01*
X2210000D01*
G01Y1200000D02*
X2100000D01*
Y1180000D01*
G01X2420000D02*
Y1200000D01*
X2310000D01*
G01X2210000Y2210000D02*
X2190000D01*
Y1930000D01*
X2300000D01*
G01X2020000Y2060000D02*
Y2320000D01*
G01X2160000Y2325000D02*
X2040000D01*
Y2055000D01*
X2160000D01*
Y2325000D01*
G01X2220000Y2760000D02*
G02Y2900000I0J70000D01*
G01X2280000Y2850000D02*
G03X2440000I80000J147500D01*
G01X2280000D02*
Y3190000D01*
G01X2440000D02*
G03X2280000I-80000J-147500D01*
G01X2210000Y3860000D02*
G03X2090000I-60000J-77500D01*
G01Y3600000D02*
G03X2210000I60000J77500D01*
G01X2090000Y3860000D02*
Y3600000D01*
G01X2210000D02*
Y3860000D01*
G01X2280000Y3840000D02*
Y4180000D01*
X2440000D01*
Y3840000D01*
X2280000D01*
G01X2090000Y3905000D02*
X2210000D01*
Y4175000D01*
X2090000D01*
Y3905000D01*
G01X2220000Y4370000D02*
X2240000D01*
Y4650000D01*
X2130000D01*
G01X2380000D02*
X2270000D01*
Y4370000D01*
X2290000D01*
G01X2740000Y780000D02*
X2630000D01*
Y760000D01*
G01Y480000D02*
Y460000D01*
X2740000D01*
G01Y1200000D02*
X2630000D01*
Y1180000D01*
G01Y900000D02*
Y880000D01*
X2740000D01*
G01X2560000Y1930000D02*
X2670000D01*
Y2210000D01*
X2650000D01*
G01X2700000Y2055000D02*
X2820000D01*
Y2325000D01*
X2700000D01*
Y2055000D01*
G01X2656300Y2931100D02*
X2650000Y2930000D01*
X2620000D01*
Y3110000D01*
X2650000D01*
G01X3130000Y2930000D02*
X2650000D01*
Y3110000D01*
X2656300Y3108900D01*
G01D02*
X2650000Y3110000D01*
X3130000D01*
X3126200Y3108900D01*
G01X2440000Y3190000D02*
Y2850000D01*
G01X2590000Y3155000D02*
X2470000D01*
Y2885000D01*
X2590000D01*
Y3155000D01*
G01X2720000Y3860000D02*
G03X2600000I-60000J-77500D01*
G01Y3600000D02*
G03X2720000I60000J77500D01*
G01X2600000Y3860000D02*
Y3600000D01*
G01X2720000D02*
Y3860000D01*
G01X2600000Y3905000D02*
X2720000D01*
Y4175000D01*
X2600000D01*
Y3905000D01*
G01X2730000Y4370000D02*
X2750000D01*
Y4650000D01*
X2640000D01*
G01X2430000Y4780000D02*
Y5120000D01*
X2590000D01*
Y4780000D01*
X2430000D01*
G01X2950000Y750000D02*
Y780000D01*
X2840000D01*
G01Y460000D02*
X2950000D01*
Y480000D01*
G01X3085000Y820000D02*
Y700000D01*
X3355000D01*
Y820000D01*
X3085000D01*
G01X2950000Y1170000D02*
Y1200000D01*
X2840000D01*
G01Y880000D02*
X2950000D01*
Y900000D01*
G01X3085000Y1240000D02*
Y1120000D01*
X3355000D01*
Y1240000D01*
X3085000D01*
G01X3100000Y2325000D02*
X2980000D01*
Y2055000D01*
X3100000D01*
Y2325000D01*
G01X2846800Y2931100D02*
Y3108900D01*
G01X3126200D02*
X3130000Y3110000D01*
Y2930000D01*
G01X3240000Y3860000D02*
G03X3120000I-60000J-77500D01*
G01Y3600000D02*
G03X3240000I60000J77500D01*
G01X3120000Y3860000D02*
Y3600000D01*
G01X2800000Y3840000D02*
Y4180000D01*
X2960000D01*
Y3840000D01*
X2800000D01*
G01X3120000Y3905000D02*
X3240000D01*
Y4175000D01*
X3120000D01*
Y3905000D01*
G01X2890000Y4650000D02*
X2780000D01*
Y4370000D01*
X2800000D01*
G01X2940000Y4780000D02*
Y5120000D01*
X3100000D01*
Y4780000D01*
X2940000D01*
G01X3280000Y6510000D02*
Y6130000D01*
X2970000D01*
G01X3410000Y1320000D02*
X3910000D01*
Y320000D01*
X3410000D01*
Y1320000D01*
G01X3240000Y3600000D02*
Y3860000D01*
G01X3300000Y3840000D02*
Y4180000D01*
X3460000D01*
Y3840000D01*
X3300000D01*
G01X3240000Y4370000D02*
X3260000D01*
Y4650000D01*
X3150000D01*
G01X3400000D02*
X3290000D01*
Y4370000D01*
X3310000D01*
G01X3450000Y4780000D02*
Y5120000D01*
X3610000D01*
Y4780000D01*
X3450000D01*
G01X3670000Y1410000D02*
X3760000D01*
G01X3790000Y3070000D02*
Y2590000D01*
X3570000D01*
Y3070000D01*
X3790000D01*
G01X3740000Y3860000D02*
G03X3620000I-60000J-77500D01*
G01Y3600000D02*
G03X3740000I60000J77500D01*
G01X3620000Y3860000D02*
Y3600000D01*
G01X3740000D02*
Y3860000D01*
G01X3620000Y3905000D02*
X3740000D01*
Y4175000D01*
X3620000D01*
Y3905000D01*
G01X3750000Y4370000D02*
X3770000D01*
Y4650000D01*
X3660000D01*
G54D11*
G01X1520000Y430000D02*
X640000D01*
Y810000D01*
X1520000D01*
Y430000D01*
G01Y850000D02*
X640000D01*
Y1230000D01*
X1520000D01*
Y850000D01*
G54D12*
G01X308000Y1408000D02*
X312000Y1412500D01*
X315000Y1420000D01*
X317000Y1430500D01*
X315000Y1439500D01*
X311000Y1445500D01*
X304000Y1450000D01*
X277000D01*
Y1360000D01*
X310000D01*
X317000Y1366000D01*
X321000Y1375000D01*
X323000Y1385500D01*
X321000Y1396000D01*
X315000Y1405000D01*
X308000Y1408000D01*
X277000D01*
G01X901000Y2765000D02*
X907000Y2774000D01*
X914000Y2778500D01*
X922000Y2780000D01*
X932000Y2777000D01*
X939000Y2769500D01*
X941000Y2760500D01*
X940000Y2751500D01*
X936000Y2744000D01*
X916000Y2729000D01*
X907000Y2718500D01*
X901000Y2703500D01*
X899000Y2690000D01*
X941000D01*
G01X968000Y2703500D02*
X974000Y2696000D01*
X981000Y2691500D01*
X990000Y2690000D01*
X999000Y2693000D01*
X1006000Y2699000D01*
X1011000Y2709500D01*
X1012000Y2721500D01*
X1010000Y2733500D01*
X1005000Y2741000D01*
X998000Y2747000D01*
X991000Y2748500D01*
X984000Y2747000D01*
X975000Y2741000D01*
X978000Y2780000D01*
X1005000D01*
G01X1060000D02*
X1052000Y2777000D01*
X1046000Y2769500D01*
X1042000Y2760500D01*
X1039000Y2748500D01*
X1038000Y2735000D01*
X1039000Y2721500D01*
X1042000Y2709500D01*
X1046000Y2700500D01*
X1052000Y2693000D01*
X1060000Y2690000D01*
X1068000Y2693000D01*
X1074000Y2700500D01*
X1078000Y2709500D01*
X1081000Y2721500D01*
X1082000Y2735000D01*
X1081000Y2748500D01*
X1078000Y2760500D01*
X1074000Y2769500D01*
X1068000Y2777000D01*
X1060000Y2780000D01*
G01X1130000Y2690000D02*
X1137000Y2691500D01*
X1145000Y2696000D01*
X1150000Y2703500D01*
X1152000Y2714000D01*
X1150000Y2724500D01*
X1144000Y2733500D01*
X1135000Y2738000D01*
X1125000D01*
X1119000Y2741000D01*
X1114000Y2748500D01*
X1112000Y2759000D01*
X1115000Y2769500D01*
X1122000Y2777000D01*
X1130000Y2780000D01*
X1138000Y2777000D01*
X1145000Y2769500D01*
X1148000Y2759000D01*
X1146000Y2748500D01*
X1141000Y2741000D01*
X1135000Y2738000D01*
X1125000D01*
X1116000Y2733500D01*
X1110000Y2724500D01*
X1108000Y2714000D01*
X1110000Y2703500D01*
X1115000Y2696000D01*
X1123000Y2691500D01*
X1130000Y2690000D01*
G01X1200000D02*
Y2780000D01*
X1188000Y2762000D01*
G01Y2690000D02*
X1212000D01*
G01X1251000Y2727500D02*
X1258000Y2738000D01*
X1264000Y2744000D01*
X1272000Y2747000D01*
X1279000Y2744000D01*
X1284000Y2738000D01*
X1288000Y2729000D01*
X1289000Y2718500D01*
X1288000Y2709500D01*
X1284000Y2700500D01*
X1278000Y2693000D01*
X1271000Y2690000D01*
X1263000Y2693000D01*
X1256000Y2702000D01*
X1252000Y2715500D01*
X1251000Y2730500D01*
X1253000Y2750000D01*
X1256000Y2760500D01*
X1261000Y2771000D01*
X1268000Y2778500D01*
X1275000Y2780000D01*
X1282000Y2777000D01*
X1287000Y2769500D01*
G01X932000Y2962500D02*
X926000Y2967000D01*
X919000Y2970000D01*
X911000D01*
X902000Y2965500D01*
X895000Y2958000D01*
X890000Y2949000D01*
X886000Y2934000D01*
X885000Y2920500D01*
X887000Y2907000D01*
X890000Y2898000D01*
X896000Y2889000D01*
X903000Y2883000D01*
X910000Y2880000D01*
X917000D01*
X924000Y2883000D01*
X930000Y2887500D01*
X935000Y2893500D01*
G01X954000Y2880000D02*
Y2970000D01*
X980000Y2895000D01*
X1006000Y2970000D01*
Y2880000D01*
G01X1050000D02*
Y2970000D01*
X1038000Y2952000D01*
G01Y2880000D02*
X1062000D01*
G01X1098000Y2898000D02*
X1104000Y2887500D01*
X1112000Y2881500D01*
X1121000Y2880000D01*
X1129000Y2881500D01*
X1137000Y2889000D01*
X1142000Y2898000D01*
X1143000Y2907000D01*
X1141000Y2917500D01*
X1134000Y2925000D01*
X1127000Y2928000D01*
X1118000D01*
G01X1127000D02*
X1133000Y2932500D01*
X1138000Y2940000D01*
X1140000Y2949000D01*
X1138000Y2958000D01*
X1133000Y2965500D01*
X1124000Y2970000D01*
X1115000Y2968500D01*
X1106000Y2962500D01*
G01X1175000Y2940000D02*
X1205000Y2880000D01*
G01Y2940000D02*
X1175000Y2880000D01*
G01X1260000D02*
Y2970000D01*
X1248000Y2952000D01*
G01Y2880000D02*
X1272000D01*
G01X1300000Y2850000D02*
X1360000D01*
G01X1375000Y2970000D02*
X1400000Y2880000D01*
X1425000Y2970000D01*
G01X1470000Y2880000D02*
Y2970000D01*
X1458000Y2952000D01*
G01Y2880000D02*
X1482000D01*
G01X1540000Y2970000D02*
X1532000Y2967000D01*
X1526000Y2959500D01*
X1522000Y2950500D01*
X1519000Y2938500D01*
X1518000Y2925000D01*
X1519000Y2911500D01*
X1522000Y2899500D01*
X1526000Y2890500D01*
X1532000Y2883000D01*
X1540000Y2880000D01*
X1548000Y2883000D01*
X1554000Y2890500D01*
X1558000Y2899500D01*
X1561000Y2911500D01*
X1562000Y2925000D01*
X1561000Y2938500D01*
X1558000Y2950500D01*
X1554000Y2959500D01*
X1548000Y2967000D01*
X1540000Y2970000D01*
G01X1378000Y5702000D02*
X1382500Y5698000D01*
X1390000Y5695000D01*
X1400500Y5693000D01*
X1409500Y5695000D01*
X1415500Y5699000D01*
X1420000Y5706000D01*
Y5733000D01*
X1330000D01*
Y5700000D01*
X1336000Y5693000D01*
X1345000Y5689000D01*
X1355500Y5687000D01*
X1366000Y5689000D01*
X1375000Y5695000D01*
X1378000Y5702000D01*
Y5733000D01*
G01X1330000Y5665000D02*
X1420000Y5640000D01*
X1330000Y5615000D01*
G01X1361500Y5624000D02*
Y5656000D01*
G01X1420000Y5570000D02*
X1330000D01*
G01X1420000Y5593000D02*
Y5547000D01*
G01X1330000Y5500000D02*
X1420000D01*
X1402000Y5512000D01*
G01X1330000D02*
Y5488000D01*
G01X1638000Y5702000D02*
X1642500Y5698000D01*
X1650000Y5695000D01*
X1660500Y5693000D01*
X1669500Y5695000D01*
X1675500Y5699000D01*
X1680000Y5706000D01*
Y5733000D01*
X1590000D01*
Y5700000D01*
X1596000Y5693000D01*
X1605000Y5689000D01*
X1615500Y5687000D01*
X1626000Y5689000D01*
X1635000Y5695000D01*
X1638000Y5702000D01*
Y5733000D01*
G01X1590000Y5665000D02*
X1680000Y5640000D01*
X1590000Y5615000D01*
G01X1621500Y5624000D02*
Y5656000D01*
G01X1680000Y5570000D02*
X1590000D01*
G01X1680000Y5593000D02*
Y5547000D01*
G01X1665000Y5519000D02*
X1674000Y5513000D01*
X1678500Y5506000D01*
X1680000Y5498000D01*
X1677000Y5488000D01*
X1669500Y5481000D01*
X1660500Y5479000D01*
X1651500Y5480000D01*
X1644000Y5484000D01*
X1629000Y5504000D01*
X1618500Y5513000D01*
X1603500Y5519000D01*
X1590000Y5521000D01*
Y5479000D01*
G01X1878000Y5702000D02*
X1882500Y5698000D01*
X1890000Y5695000D01*
X1900500Y5693000D01*
X1909500Y5695000D01*
X1915500Y5699000D01*
X1920000Y5706000D01*
Y5733000D01*
X1830000D01*
Y5700000D01*
X1836000Y5693000D01*
X1845000Y5689000D01*
X1855500Y5687000D01*
X1866000Y5689000D01*
X1875000Y5695000D01*
X1878000Y5702000D01*
Y5733000D01*
G01X1830000Y5665000D02*
X1920000Y5640000D01*
X1830000Y5615000D01*
G01X1861500Y5624000D02*
Y5656000D01*
G01X1920000Y5570000D02*
X1830000D01*
G01X1920000Y5593000D02*
Y5547000D01*
G01X1848000Y5522000D02*
X1837500Y5516000D01*
X1831500Y5508000D01*
X1830000Y5499000D01*
X1831500Y5491000D01*
X1839000Y5483000D01*
X1848000Y5478000D01*
X1857000Y5477000D01*
X1867500Y5479000D01*
X1875000Y5486000D01*
X1878000Y5493000D01*
Y5502000D01*
G01Y5493000D02*
X1882500Y5487000D01*
X1890000Y5482000D01*
X1899000Y5480000D01*
X1908000Y5482000D01*
X1915500Y5487000D01*
X1920000Y5496000D01*
X1918500Y5505000D01*
X1912500Y5514000D01*
G01X2138000Y5702000D02*
X2142500Y5698000D01*
X2150000Y5695000D01*
X2160500Y5693000D01*
X2169500Y5695000D01*
X2175500Y5699000D01*
X2180000Y5706000D01*
Y5733000D01*
X2090000D01*
Y5700000D01*
X2096000Y5693000D01*
X2105000Y5689000D01*
X2115500Y5687000D01*
X2126000Y5689000D01*
X2135000Y5695000D01*
X2138000Y5702000D01*
Y5733000D01*
G01X2090000Y5665000D02*
X2180000Y5640000D01*
X2090000Y5615000D01*
G01X2121500Y5624000D02*
Y5656000D01*
G01X2180000Y5570000D02*
X2090000D01*
G01X2180000Y5593000D02*
Y5547000D01*
G01X2090000Y5488000D02*
X2180000D01*
X2115500Y5525000D01*
Y5475000D01*
G01X2378000Y5702000D02*
X2382500Y5698000D01*
X2390000Y5695000D01*
X2400500Y5693000D01*
X2409500Y5695000D01*
X2415500Y5699000D01*
X2420000Y5706000D01*
Y5733000D01*
X2330000D01*
Y5700000D01*
X2336000Y5693000D01*
X2345000Y5689000D01*
X2355500Y5687000D01*
X2366000Y5689000D01*
X2375000Y5695000D01*
X2378000Y5702000D01*
Y5733000D01*
G01X2330000Y5665000D02*
X2420000Y5640000D01*
X2330000Y5615000D01*
G01X2361500Y5624000D02*
Y5656000D01*
G01X2420000Y5570000D02*
X2330000D01*
G01X2420000Y5593000D02*
Y5547000D01*
G01X2343500Y5522000D02*
X2336000Y5516000D01*
X2331500Y5509000D01*
X2330000Y5500000D01*
X2333000Y5491000D01*
X2339000Y5484000D01*
X2349500Y5479000D01*
X2361500Y5478000D01*
X2373500Y5480000D01*
X2381000Y5485000D01*
X2387000Y5492000D01*
X2388500Y5499000D01*
X2387000Y5506000D01*
X2381000Y5515000D01*
X2420000Y5512000D01*
Y5485000D01*
G01X2628000Y5702000D02*
X2632500Y5698000D01*
X2640000Y5695000D01*
X2650500Y5693000D01*
X2659500Y5695000D01*
X2665500Y5699000D01*
X2670000Y5706000D01*
Y5733000D01*
X2580000D01*
Y5700000D01*
X2586000Y5693000D01*
X2595000Y5689000D01*
X2605500Y5687000D01*
X2616000Y5689000D01*
X2625000Y5695000D01*
X2628000Y5702000D01*
Y5733000D01*
G01X2580000Y5665000D02*
X2670000Y5640000D01*
X2580000Y5615000D01*
G01X2611500Y5624000D02*
Y5656000D01*
G01X2670000Y5570000D02*
X2580000D01*
G01X2670000Y5593000D02*
Y5547000D01*
G01X2617500Y5519000D02*
X2628000Y5512000D01*
X2634000Y5506000D01*
X2637000Y5498000D01*
X2634000Y5491000D01*
X2628000Y5486000D01*
X2619000Y5482000D01*
X2608500Y5481000D01*
X2599500Y5482000D01*
X2590500Y5486000D01*
X2583000Y5492000D01*
X2580000Y5499000D01*
X2583000Y5507000D01*
X2592000Y5514000D01*
X2605500Y5518000D01*
X2620500Y5519000D01*
X2640000Y5517000D01*
X2650500Y5514000D01*
X2661000Y5509000D01*
X2668500Y5502000D01*
X2670000Y5495000D01*
X2667000Y5488000D01*
X2659500Y5483000D01*
G01X2888000Y5702000D02*
X2892500Y5698000D01*
X2900000Y5695000D01*
X2910500Y5693000D01*
X2919500Y5695000D01*
X2925500Y5699000D01*
X2930000Y5706000D01*
Y5733000D01*
X2840000D01*
Y5700000D01*
X2846000Y5693000D01*
X2855000Y5689000D01*
X2865500Y5687000D01*
X2876000Y5689000D01*
X2885000Y5695000D01*
X2888000Y5702000D01*
Y5733000D01*
G01X2840000Y5665000D02*
X2930000Y5640000D01*
X2840000Y5615000D01*
G01X2871500Y5624000D02*
Y5656000D01*
G01X2930000Y5570000D02*
X2840000D01*
G01X2930000Y5593000D02*
Y5547000D01*
G01X2840000Y5502000D02*
X2859500Y5500000D01*
X2876000Y5497000D01*
X2891000Y5493000D01*
X2907500Y5488000D01*
X2930000Y5480000D01*
Y5520000D01*
G01X3580000Y1360000D02*
Y1450000D01*
X3604000D01*
X3612000Y1445500D01*
X3618000Y1435000D01*
X3620000Y1423000D01*
X3618000Y1411000D01*
X3613000Y1402000D01*
X3604000Y1397500D01*
X3580000D01*
M02*
