G04 ================== begin FILE IDENTIFICATION RECORD ==================*
G04 Layout Name:  HY_CM13X1_V10_250816.brd*
G04 Film Name:    TOP*
G04 File Format:  Gerber RS274X*
G04 File Origin:  Cadence Allegro 24.1-S006*
G04 Origin Date:  Fri Aug 22 17:41:43 2025*
G04 *
G04 Layer:  VIA CLASS/TOP*
G04 Layer:  PIN/TOP*
G04 Layer:  ETCH/TOP*
G04 *
G04 Offset:    (0.0000 0.0000)*
G04 Mirror:    No*
G04 Mode:      Positive*
G04 Rotation:  0*
G04 FullContactRelief:  No*
G04 UndefLineWidth:     0.1524*
G04 ================== end FILE IDENTIFICATION RECORD ====================*
%FSLAX55Y55*MOMM*%
%IR0*IPPOS*OFA0.00000B0.00000*MIA0B0*SFA1.00000B1.00000*%
%ADD20R,.4X1.5*%
%ADD24R,.8X1.4*%
%ADD15R,.8X.8*%
%ADD10C,.6096*%
%ADD11R,1.2X1.*%
%ADD12R,1.X1.4*%
%ADD13R,2.25X3.*%
%ADD18R,1.3X4.5*%
%ADD14R,1.8X3.2*%
%ADD25R,1.8X1.6*%
%ADD22R,.8X.35*%
%ADD17R,1.8X3.9*%
%ADD16R,.85X.8*%
%ADD19R,.8X.85*%
%ADD26C,.4*%
%ADD27C,.254*%
%ADD28C,.508*%
G75*
%LPD*%
G75*
G36*
G01X200000Y6950000D02*
X3800000D01*
G02X3950000Y6800000I0J-150000D01*
G01Y2060000D01*
X3454510D01*
G03X3440300Y2080300I-64494J-30022D01*
G01X3356500Y2164100D01*
G03X3306200Y2184940I-50306J-50297D01*
G01X3128240D01*
Y2306200D01*
G03X3105740Y2345600I-45747J0D01*
G01Y2370000D01*
G03X3086490Y2416490I-65743J8D01*
G01X2996490Y2506490D01*
G03X2950000Y2525740I-46482J-46493D01*
G01X2263240D01*
Y2624260D01*
X3544260D01*
Y2610000D01*
G03X3590000Y2564260I45740J0D01*
G01X3770000D01*
G03X3815740Y2610000I0J45740D01*
G01Y2770000D01*
G03X3770000Y2815740I-45740J0D01*
G01X3590000D01*
G03X3544260Y2770000I0J-45740D01*
G01Y2755740D01*
X1909400D01*
G03X1862910Y2736490I-8J-65743D01*
G01X1826010Y2699590D01*
G03X1808590Y2668520I46491J-46484D01*
G01X1806720Y2660740D01*
X1787500D01*
G03X1741760Y2615000I0J-45740D01*
G01Y2474730D01*
X1618970Y2351940D01*
X1600000D01*
G03X1554260Y2306200I0J-45740D01*
G01Y2226200D01*
G03X1600000Y2180460I45740J0D01*
G01X1691760D01*
Y2060000D01*
X850000D01*
Y50000D01*
X200000D01*
G02X50000Y200000I0J150000D01*
G01Y6800000D01*
G02X200000Y6950000I150000J0D01*
G37*
G36*
G01X1350000Y1490000D02*
X2100000D01*
X2134260Y1455740D01*
Y1005740D01*
X2070000D01*
G03X2051460Y1001810I9J-45738D01*
G01X2049490Y1000940D01*
X1968700D01*
G03X1932330Y988240I0J-58428D01*
G01X1733800D01*
G03X1697950Y970910I0J-45746D01*
G03X1670000Y976220I-27950J-70905D01*
G03Y823780I0J-76220D01*
G03X1697950Y829090I0J76215D01*
G03X1733800Y811760I35850J28416D01*
G01X1966200D01*
G03X2011940Y857500I0J45740D01*
G01Y884060D01*
X2047350D01*
X2051420Y883200D01*
X2052310Y882820D01*
G03X2070000Y879260I17691J42179D01*
G01X2134260D01*
Y585740D01*
X2070000D01*
G03X2051460Y581810I9J-45738D01*
G01X2049490Y580940D01*
X1988700D01*
G03X1947380Y563820I6J-58438D01*
G01X1937030Y553470D01*
X1931790Y548240D01*
X1733800D01*
G03X1697950Y530910I0J-45746D01*
G03X1670000Y536220I-27950J-70905D01*
G03X1593780Y460140I0J-76220D01*
G01X1593760Y450000D01*
X1300000D01*
Y1440000D01*
X1350000Y1490000D01*
G37*
G36*
G01X2195740Y1155000D02*
G03X2180000Y1189530I-45746J0D01*
G01Y1440000D01*
X2230000Y1490000D01*
X2810000D01*
X2860000Y1440000D01*
Y1177240D01*
X2858960Y1175120D01*
G03X2854260Y1155000I41028J-20193D01*
G01Y925000D01*
G03X2858960Y904880I45728J73D01*
G01X2860000Y902760D01*
Y757240D01*
X2858960Y755120D01*
G03X2854260Y735000I41028J-20193D01*
G01Y505000D01*
G03X2858960Y484880I45728J73D01*
G01X2860000Y482760D01*
Y110000D01*
X2810000Y60000D01*
X2240000D01*
X2180000Y120000D01*
Y470470D01*
G03X2195740Y505000I-30006J34530D01*
G01Y735000D01*
G03X2180000Y769530I-45746J0D01*
G01Y890470D01*
G03X2195740Y925000I-30006J34530D01*
G01Y1155000D01*
G37*
G36*
G01X2679330Y2394260D02*
X2922770D01*
X2964640Y2352390D01*
G02X2964730Y2338120I-7185J-7181D01*
G03X2951760Y2306200I32773J-31912D01*
G01Y2060000D01*
X2588240D01*
Y2144260D01*
X2630000D01*
G03X2672490Y2173060I0J45744D01*
G02X2699400Y2184190I18871J-7530D01*
G03X2717500Y2180460I18092J42012D01*
G01X2802500D01*
G03X2848240Y2226200I0J45740D01*
G01Y2306200D01*
G03X2802500Y2351940I-45740J0D01*
G01X2717500D01*
G03X2695940Y2346540I0J-45740D01*
G02X2669020Y2353860I-9583J17919D01*
G03X2664150Y2360420I-39012J-23874D01*
G02X2679330Y2394260I15173J13518D01*
G37*
G36*
G01X2950000Y1490000D02*
X3930000D01*
X3970000Y1450000D01*
Y200000D01*
X3830000Y60000D01*
X2950000D01*
X2905740Y104260D01*
Y654260D01*
X2980000D01*
G03X3000560Y659140I0J45751D01*
G03X3038820Y676180I-3067J58358D01*
G01X3046640Y683990D01*
X3050050Y684450D01*
G03X3067950Y689090I-10034J75554D01*
G03X3103800Y671760I35850J28416D01*
G01X3183800D01*
G03X3229540Y717500I0J45740D01*
G01Y802500D01*
G03X3183800Y848240I-45740J0D01*
G01X3103800D01*
G03X3067950Y830910I0J-45746D01*
G03X3040000Y836220I-27950J-70905D01*
G03X2968820Y787270I0J-76228D01*
G01X2966320Y780740D01*
X2905740D01*
Y1074260D01*
X2980000D01*
G03X3000560Y1079140I0J45751D01*
G03X3038820Y1096180I-3067J58358D01*
G01X3046640Y1103990D01*
X3050050Y1104450D01*
G03X3067950Y1109090I-10034J75554D01*
G03X3103800Y1091760I35850J28416D01*
G01X3183800D01*
G03X3229540Y1137500I0J45740D01*
G01Y1222500D01*
G03X3183800Y1268240I-45740J0D01*
G01X3103800D01*
G03X3067950Y1250910I0J-45746D01*
G03X3040000Y1256220I-27950J-70905D01*
G03X2968820Y1207270I0J-76228D01*
G01X2966320Y1200740D01*
X2905740D01*
Y1445740D01*
X2950000Y1490000D01*
G37*
%LPC*%
G75*
G36*
G01X560000Y5120000D02*
Y6530000D01*
X3780000D01*
Y5482710D01*
X3780140Y5481870D01*
G02X3781140Y5470000I-70139J-11886D01*
G01Y4350000D01*
G02X3776410Y4324510I-71137J17D01*
G01X3775740Y4322750D01*
Y4250000D01*
G02X3755610Y4212100I-45743J0D01*
G01X3751140Y4209080D01*
Y4191860D01*
G02X3768240Y4156200I-28632J-35660D01*
G01Y4120930D01*
X3896490Y3992690D01*
G02X3915740Y3946200I-46493J-46482D01*
G01Y3370000D01*
G02X3896490Y3323510I-65743J-8D01*
G01X3706490Y3133510D01*
G02X3660000Y3114260I-46482J46493D01*
G01X3197230D01*
X3150740Y3067770D01*
Y2950000D01*
G02X3105000Y2904260I-45740J0D01*
G01X3025000D01*
G02X2979260Y2950000I0J45740D01*
G01Y3090000D01*
G02X3025000Y3135740I45740J0D01*
G01X3032770D01*
X3066600Y3169570D01*
G03X3052230Y3204260I-14366J14370D01*
G01X2516900D01*
Y3186610D01*
X2524050Y3184400D01*
G02X2528950Y3182660I-19531J-62771D01*
G01X2530770Y3181940D01*
X2572500D01*
G02X2618240Y3136200I0J-45740D01*
G01Y3110710D01*
X2633860D01*
X2636870Y3115260D01*
G02X2675000Y3135740I38130J-25256D01*
G01X2755000D01*
G02X2800740Y3090000I0J-45740D01*
G01Y2950000D01*
G02X2755000Y2904260I-45740J0D01*
G01X2727230D01*
X2720290Y2897310D01*
G02X2673800Y2878060I-46482J46493D01*
G01X2610310D01*
G02X2572500Y2858060I-37810J25740D01*
G01X2487500D01*
G02X2441760Y2903800I0J45740D01*
G01Y3025860D01*
X2300000D01*
G02X2282030Y3029540I5J45739D01*
G03X2256650Y3021360I-7985J-18688D01*
G02X2217500Y2999260I-39150J23627D01*
G01X1722500D01*
G02X1676760Y3045000I0J45740D01*
G01Y3140270D01*
X1662770Y3154260D01*
X780000D01*
G02X733510Y3173510I-8J65743D01*
G01X673510Y3233510D01*
G02X654260Y3280000I46493J46482D01*
G01Y3678970D01*
X612770Y3720460D01*
X580000D01*
G02X546500Y3735060I0J45733D01*
G01X422200D01*
G02X371900Y3755900I0J71123D01*
G01X315130Y3812660D01*
X260000D01*
G02X214260Y3858400I0J45740D01*
G01Y4161600D01*
G02X229860Y4196010I45750J0D01*
G03X232940Y4223200I-13388J15286D01*
G02X224260Y4250000I37057J26808D01*
G01Y4390000D01*
G02X270000Y4435740I45740J0D01*
G01X311760D01*
Y4730000D01*
G02X354720Y4775660I45745J0D01*
G03X364260Y4785800I-618J10139D01*
G01Y4898400D01*
G02X410000Y4944140I45740J0D01*
G01X530000D01*
G02X542840Y4942300I-3J-45740D01*
G03X568860Y4961800I5700J19504D01*
G01Y4970000D01*
G02X589700Y5020300I71137J-6D01*
G01X654700Y5085310D01*
G03X640340Y5120000I-14364J14371D01*
G01X560000D01*
G37*
%LPD*%
G75*
G36*
G01X705740Y3813430D02*
Y3854490D01*
X723760D01*
X725730Y3846890D01*
G03X770000Y3812660I44270J11512D01*
G01X825130D01*
X881900Y3755900D01*
G03X932200Y3735060I50300J50283D01*
G01X1056500D01*
G03X1090000Y3720460I33500J31133D01*
G01X1122770D01*
X1164260Y3678970D01*
Y3400000D01*
G03X1183510Y3353510I65743J-8D01*
G01X1216600Y3320430D01*
G02X1202230Y3285740I-14366J-14370D01*
G01X807230D01*
X785740Y3307230D01*
Y3706200D01*
G03X766490Y3752690I-65743J8D01*
G01X705740Y3813430D01*
G37*
G36*
G01X1215740D02*
Y3854490D01*
X1233760D01*
X1235730Y3846890D01*
G03X1280000Y3812660I44270J11512D01*
G01X1335130D01*
X1391900Y3755900D01*
G03X1442200Y3735060I50300J50283D01*
G01X1566500D01*
G03X1600000Y3720460I33500J31133D01*
G01X1632770D01*
X1674260Y3678970D01*
Y3440000D01*
G03X1679590Y3414070I65739J0D01*
G02X1660920Y3385740I-18674J-8010D01*
G01X1337230D01*
X1295740Y3427230D01*
Y3706200D01*
G03X1276490Y3752690I-65743J8D01*
G01X1215740Y3813430D01*
G37*
G36*
G01X1725740D02*
Y3854490D01*
X1743760D01*
X1745730Y3846890D01*
G03X1790000Y3812660I44270J11512D01*
G01X1845130D01*
X1901900Y3755900D01*
G03X1952200Y3735060I50300J50283D01*
G01X2076500D01*
G03X2110000Y3720460I33500J31133D01*
G01X2142770D01*
X2174260Y3688970D01*
Y3567230D01*
X2162770Y3555740D01*
X2070000D01*
G03X2023510Y3536490I-8J-65743D01*
G01X1880000Y3392970D01*
X1805740Y3467230D01*
Y3706200D01*
G03X1786490Y3752690I-65743J8D01*
G01X1725740Y3813430D01*
G37*
G36*
G01X2235740D02*
Y3854490D01*
X2253760D01*
X2255730Y3846890D01*
G03X2300000Y3812660I44270J11512D01*
G01X2355130D01*
X2411900Y3755900D01*
G03X2462200Y3735060I50300J50283D01*
G01X2586500D01*
G03X2620000Y3720460I33500J31133D01*
G01X2652770D01*
X2684260Y3688970D01*
Y3527230D01*
X2642770Y3485740D01*
X2319080D01*
G02X2300410Y3514070I4J20320D01*
G03X2305740Y3540000I-60409J25930D01*
G01Y3716200D01*
G03X2286490Y3762690I-65743J8D01*
G01X2235740Y3813430D01*
G37*
G36*
G01X2731140Y4209080D02*
X2735610Y4212100D01*
G03X2748080Y4224660I-25611J37898D01*
G02X2781920I16920J-11251D01*
G03X2786010Y4219400I38056J25371D01*
G02Y4192200I-15104J-13600D01*
G03X2774260Y4161600I33987J-30607D01*
G01Y3858400D01*
G03X2820000Y3812660I45740J0D01*
G01X2875130D01*
X2931900Y3755900D01*
G03X2982200Y3735060I50306J50297D01*
G01X3106500D01*
G03X3140000Y3720460I33500J31133D01*
G01X3172770D01*
X3204260Y3688970D01*
Y3477230D01*
X3142770Y3415740D01*
X2807770D01*
G02X2793400Y3450430I-4J20320D01*
G01X2796490Y3453510D01*
G03X2815740Y3500000I-46493J46482D01*
G01Y3716200D01*
G03X2796490Y3762690I-65743J8D01*
G01X2745740Y3813430D01*
Y3846200D01*
G03X2733920Y3876890I-45752J0D01*
G02X2734370Y3890990I7532J6817D01*
G03X2748240Y3923800I-31872J32810D01*
G01Y4156200D01*
G03X2731140Y4191860I-45732J0D01*
G01Y4209080D01*
G37*
G36*
G01X3265740Y3813430D02*
Y3834210D01*
X3280860D01*
X3283920Y3830290D01*
G03X3320000Y3812660I36080J28104D01*
G01X3375130D01*
X3431900Y3755900D01*
G03X3482200Y3735060I50306J50297D01*
G01X3606500D01*
G03X3640000Y3720460I33500J31133D01*
G01X3672770D01*
X3704260Y3688970D01*
Y3447230D01*
X3592770Y3335740D01*
X3297770D01*
G02X3283400Y3370430I-4J20320D01*
G01X3316490Y3403510D01*
G03X3335740Y3450000I-46493J46482D01*
G01Y3716200D01*
G03X3316490Y3762690I-65743J8D01*
G01X3265740Y3813430D01*
G37*
G54D10*
X180000Y230000D03*
X480000D03*
X180000Y530000D03*
X480000D03*
X180000Y830000D03*
X480000D03*
X180000Y1130000D03*
X480000D03*
X180000Y1430000D03*
X480000D03*
X180000Y1730000D03*
X480000D03*
X180000Y2140000D03*
X480000D03*
X180000Y2440000D03*
X480000D03*
X180000Y2740000D03*
X480000D03*
X180000Y3040000D03*
X480000D03*
Y3340000D03*
X180000D03*
X130000Y4180000D03*
Y4590000D03*
X450000Y5740000D03*
X150000D03*
X450000Y5440000D03*
X150000D03*
X450000Y6040000D03*
X150000D03*
X450000Y6340000D03*
X150000D03*
Y6640000D03*
X450000D03*
X780000Y230000D03*
Y1430000D03*
Y1730000D03*
Y2140000D03*
Y2440000D03*
Y2740000D03*
Y3040000D03*
X1080000Y2140000D03*
Y2440000D03*
Y2740000D03*
Y3040000D03*
X950000Y3350000D03*
Y3650000D03*
X1570000Y770000D03*
Y610000D03*
X1560000Y1100000D03*
X1360000Y1440000D03*
X1560000D03*
Y1270000D03*
X1360000D03*
X1380000Y2140000D03*
Y2440000D03*
Y2740000D03*
Y3040000D03*
X1440000Y3410000D03*
Y3710000D03*
Y6750000D03*
X1670000Y460000D03*
X1770000Y770000D03*
X1970000D03*
X1770000Y610000D03*
X1970000D03*
X1760000Y1100000D03*
X1960000D03*
X1670000Y900000D03*
X1760000Y1440000D03*
X1960000D03*
Y1270000D03*
X1760000D03*
X1810000Y2810000D03*
X1870000Y3440000D03*
Y3740000D03*
X1850000Y6750000D03*
X2320000Y300000D03*
Y140000D03*
Y1430000D03*
Y1270000D03*
X2070000Y2362080D03*
X2110000Y2810000D03*
X2340000Y3530000D03*
X2280000Y6750000D03*
X2520000Y470000D03*
X2720000Y300000D03*
X2520000D03*
Y140000D03*
X2720000D03*
X2520000Y800000D03*
Y640000D03*
Y1110000D03*
Y950000D03*
Y1430000D03*
X2720000D03*
Y1270000D03*
X2520000D03*
X2720000Y2570000D03*
X2420000D03*
X2720000Y2810000D03*
X2420000D03*
X2640000Y3530000D03*
X2690000Y6750000D03*
X3050000Y190000D03*
Y340000D03*
Y490000D03*
Y650000D03*
X3040000Y760000D03*
Y1180000D03*
Y1880000D03*
X2860000Y2113800D03*
X3060000Y2800000D03*
X2880000Y3160000D03*
X2870000Y3530000D03*
X3260000Y190000D03*
Y490000D03*
X3170000Y870000D03*
Y1070000D03*
Y970000D03*
X3300000Y870000D03*
Y1070000D03*
Y970000D03*
X3260000Y1390000D03*
X3280000Y2220000D03*
Y2490000D03*
X3360000Y2800000D03*
Y3040000D03*
X3170000Y3530000D03*
X3370000Y3540000D03*
X3540000Y190000D03*
X3840000D03*
X3540000Y490000D03*
X3840000D03*
X3540000Y790000D03*
X3840000D03*
X3540000Y1090000D03*
X3840000D03*
X3540000Y1390000D03*
X3840000D03*
X3880000Y2220000D03*
X3580000D03*
X3880000Y2490000D03*
X3580000D03*
X3890000Y2790000D03*
Y3030000D03*
X3670000Y3540000D03*
X3870000Y4270000D03*
Y4680000D03*
X3880000Y5300000D03*
Y5710000D03*
X3860000Y6330000D03*
Y6740000D03*
G54D11*
X320000Y3908400D03*
Y4111600D03*
X470000Y4848400D03*
Y5051600D03*
X830000Y3908400D03*
Y4111600D03*
X980000Y4848400D03*
Y5051600D03*
X1340000Y3908400D03*
Y4111600D03*
X1490000Y4848400D03*
Y5051600D03*
X1850000Y3908400D03*
Y4111600D03*
X2000000Y4848400D03*
Y5051600D03*
X2360000Y2918400D03*
Y3121600D03*
Y3908400D03*
Y4111600D03*
X2510000Y4848400D03*
Y5051600D03*
X2880000Y3908400D03*
Y4111600D03*
X3020000Y4848400D03*
Y5051600D03*
X3380000Y3908400D03*
Y4111600D03*
X3530000Y4848400D03*
Y5051600D03*
G54D20*
X1937500Y2540000D03*
X1872500D03*
X1807500D03*
X1742500D03*
Y3120000D03*
X1807500D03*
X1872500D03*
X1937500D03*
X2197500Y2540000D03*
X2132500D03*
X2067500D03*
X2002500D03*
Y3120000D03*
X2067500D03*
X2132500D03*
X2197500D03*
G54D12*
X470000Y4320000D03*
X320000D03*
X830000D03*
X620000D03*
X1130000D03*
X980000D03*
X1640000D03*
X1490000D03*
X1340000D03*
X2000000D03*
X1850000D03*
X2280000Y2260000D03*
X2150000Y4320000D03*
X2360000D03*
X2430000Y2260000D03*
X2580000D03*
X2660000Y4320000D03*
X2510000D03*
X3020000D03*
X2870000D03*
X3170000D03*
X3530000D03*
X3380000D03*
X3680000D03*
G36*
G01X2395000Y742000D02*
Y738000D01*
X2425000D01*
X2435000D01*
X2445000D01*
Y697000D01*
X2435000D01*
X2425000D01*
X2395000D01*
Y673000D01*
X2425000D01*
X2445000D01*
Y632000D01*
X2425000D01*
X2395000D01*
Y608000D01*
X2425000D01*
X2445000D01*
Y567000D01*
X2425000D01*
X2395000D01*
Y543000D01*
X2425000D01*
X2445000D01*
Y502000D01*
X2425000D01*
X2395000D01*
Y498000D01*
Y478000D01*
X2281000D01*
Y468000D01*
Y458000D01*
Y448000D01*
X2239000D01*
Y458000D01*
Y468000D01*
Y478000D01*
X2197000D01*
Y498000D01*
Y742000D01*
Y762000D01*
X2239000D01*
Y772000D01*
Y782000D01*
Y792000D01*
X2281000D01*
Y782000D01*
Y772000D01*
Y762000D01*
X2395000D01*
Y742000D01*
G37*
G36*
G01Y1162000D02*
Y1158000D01*
X2425000D01*
X2435000D01*
X2445000D01*
Y1117000D01*
X2435000D01*
X2425000D01*
X2395000D01*
Y1093000D01*
X2425000D01*
X2445000D01*
Y1052000D01*
X2425000D01*
X2395000D01*
Y1028000D01*
X2425000D01*
X2445000D01*
Y987000D01*
X2425000D01*
X2395000D01*
Y963000D01*
X2425000D01*
X2445000D01*
Y922000D01*
X2425000D01*
X2395000D01*
Y918000D01*
Y898000D01*
X2281000D01*
Y888000D01*
Y878000D01*
Y868000D01*
X2239000D01*
Y878000D01*
Y888000D01*
Y898000D01*
X2197000D01*
Y918000D01*
Y1162000D01*
Y1182000D01*
X2239000D01*
Y1192000D01*
Y1202000D01*
Y1212000D01*
X2281000D01*
Y1202000D01*
Y1192000D01*
Y1182000D01*
X2395000D01*
Y1162000D01*
G37*
G54D22*
X2110000Y522500D03*
Y587500D03*
Y652500D03*
Y717500D03*
Y942500D03*
Y1007500D03*
Y1072500D03*
Y1137500D03*
X2940000Y717500D03*
Y652500D03*
Y587500D03*
Y522500D03*
Y1137500D03*
Y1072500D03*
Y1007500D03*
Y942500D03*
G54D13*
X470000Y4580000D03*
X980000D03*
X1490000D03*
X2000000D03*
X2430000Y2000000D03*
X2510000Y4580000D03*
X3020000D03*
X3530000D03*
G36*
G01X2655000Y498000D02*
Y502000D01*
X2625000D01*
X2615000D01*
X2605000D01*
Y543000D01*
X2615000D01*
X2625000D01*
X2655000D01*
Y567000D01*
X2625000D01*
X2605000D01*
Y608000D01*
X2625000D01*
X2655000D01*
Y632000D01*
X2625000D01*
X2605000D01*
Y673000D01*
X2625000D01*
X2655000D01*
Y697000D01*
X2625000D01*
X2605000D01*
Y738000D01*
X2625000D01*
X2655000D01*
Y742000D01*
Y762000D01*
X2769000D01*
Y772000D01*
Y782000D01*
Y792000D01*
X2811000D01*
Y782000D01*
Y772000D01*
Y762000D01*
X2853000D01*
Y742000D01*
Y498000D01*
Y478000D01*
X2811000D01*
Y468000D01*
Y458000D01*
Y448000D01*
X2769000D01*
Y458000D01*
Y468000D01*
Y478000D01*
X2655000D01*
Y498000D01*
G37*
G36*
G01Y918000D02*
Y922000D01*
X2625000D01*
X2615000D01*
X2605000D01*
Y963000D01*
X2615000D01*
X2625000D01*
X2655000D01*
Y987000D01*
X2625000D01*
X2605000D01*
Y1028000D01*
X2625000D01*
X2655000D01*
Y1052000D01*
X2625000D01*
X2605000D01*
Y1093000D01*
X2625000D01*
X2655000D01*
Y1117000D01*
X2625000D01*
X2605000D01*
Y1158000D01*
X2625000D01*
X2655000D01*
Y1162000D01*
Y1182000D01*
X2769000D01*
Y1192000D01*
Y1202000D01*
Y1212000D01*
X2811000D01*
Y1202000D01*
Y1192000D01*
Y1182000D01*
X2853000D01*
Y1162000D01*
Y918000D01*
Y898000D01*
X2811000D01*
Y888000D01*
Y878000D01*
Y868000D01*
X2769000D01*
Y878000D01*
Y888000D01*
Y898000D01*
X2655000D01*
Y918000D01*
G37*
G54D14*
X760000Y620000D03*
Y1040000D03*
X1400000Y620000D03*
Y1040000D03*
G54D15*
X620000Y3653800D03*
Y3806200D03*
X1130000Y3653800D03*
Y3806200D03*
X1640000Y2113800D03*
Y2266200D03*
X1960000Y2113800D03*
Y2266200D03*
X1640000Y3653800D03*
Y3806200D03*
X2150000Y3653800D03*
Y3806200D03*
X2660000Y3653800D03*
Y3806200D03*
X3180000Y3653800D03*
Y3806200D03*
X3680000Y3653800D03*
Y3806200D03*
G54D24*
X2715000Y3020000D03*
X3065000D03*
G54D16*
X620000Y3963800D03*
Y4116200D03*
X1130000Y3963800D03*
Y4116200D03*
X1780000Y2113800D03*
Y2266200D03*
X1640000Y3963800D03*
Y4116200D03*
X2100000Y2266200D03*
Y2113800D03*
X2150000Y3963800D03*
Y4116200D03*
X2760000Y2113800D03*
Y2266200D03*
X2530000Y3096200D03*
Y2943800D03*
X2660000Y3963800D03*
Y4116200D03*
X3040000Y2266200D03*
Y2113800D03*
X3180000Y3963800D03*
Y4116200D03*
X3680000Y3963800D03*
Y4116200D03*
G54D25*
Y2690000D03*
Y2970000D03*
G54D26*
G01X620000Y3806200D02*
X720000Y3706200D01*
Y3280000D01*
X780000Y3220000D01*
X1690000D01*
X1742500Y3167500D01*
Y3120000D01*
G01X1130000Y3806200D02*
X1230000Y3706200D01*
Y3400000D01*
X1310000Y3320000D01*
X1740000D01*
X1807500Y3252500D01*
Y3120000D01*
G01X1640000Y2266200D02*
Y2280000D01*
X1807500Y2447500D01*
Y2540000D01*
G01X2100000Y2266200D02*
X1960000D01*
G01D02*
Y2350000D01*
X2002500Y2392500D01*
Y2540000D01*
G01X1872500D02*
Y2431400D01*
X1780000Y2338900D01*
Y2266200D01*
G01Y2113800D02*
X1870000Y2203800D01*
Y2350000D01*
X1937500Y2417500D01*
Y2540000D01*
G01X1872500D02*
Y2653100D01*
X1909400Y2690000D01*
X3680000D01*
G01X1640000Y3806200D02*
X1740000Y3706200D01*
Y3440000D01*
X1872500Y3307500D01*
Y3120000D01*
G01X1937500D02*
Y3357500D01*
X2070000Y3490000D01*
X2190000D01*
X2240000Y3540000D01*
Y3716200D01*
X2150000Y3806200D01*
G01X2280000Y2260000D02*
Y2300000D01*
X2132500Y2447500D01*
Y2540000D01*
G01X2070000Y2362080D02*
Y2537500D01*
X2067500Y2540000D01*
G01X3040000Y2266200D02*
Y2370000D01*
X2950000Y2460000D01*
X2230000D01*
X2197500Y2492500D01*
Y2540000D01*
G01X2132500Y3120000D02*
Y3232500D01*
X2170000Y3270000D01*
X3620000D01*
X3770000Y3420000D01*
Y3716200D01*
X3680000Y3806200D01*
G01X2197500Y3120000D02*
X2265700D01*
X2267300Y3121600D01*
X2360000D01*
G01D02*
X2504600D01*
X2530000Y3096200D01*
G01X3180000Y3806200D02*
X3270000Y3716200D01*
Y3450000D01*
X3170000Y3350000D01*
X2140000D01*
X2067500Y3277500D01*
Y3120000D01*
G01X2002500D02*
Y3312500D01*
X2110000Y3420000D01*
X2670000D01*
X2750000Y3500000D01*
Y3716200D01*
X2660000Y3806200D01*
G01X2760000Y2266200D02*
X2586200D01*
X2580000Y2260000D01*
G01X2530000Y2943800D02*
X2673800D01*
X2715000Y2985000D01*
Y3020000D01*
G01X2760000Y2113800D02*
X2860000D01*
G01X3680000Y4116200D02*
X3850000Y3946200D01*
Y3370000D01*
X3660000Y3180000D01*
X3170000D01*
X3065000Y3075000D01*
Y3020000D01*
G54D17*
X1060000Y6730000D03*
X3200000D03*
G54D27*
G01X1960000Y2113800D02*
X2000000Y2073800D01*
Y1840000D01*
X1940000Y1780000D01*
X1200000D01*
X1040000Y1620000D01*
Y1100000D01*
X980000Y1040000D01*
X760000D01*
G01X1400000D02*
X1150000D01*
X1090000Y1100000D01*
Y1599280D01*
X1220720Y1730000D01*
X1960720D01*
X2050000Y1819280D01*
Y2063800D01*
X2100000Y2113800D01*
G01X1773800Y460000D02*
X1670000D01*
G01X2110000Y522500D02*
X1988700D01*
X1926200Y460000D01*
G01X1773800Y900000D02*
X1670000D01*
G01X2110000Y942500D02*
X1968700D01*
X1926200Y900000D01*
G01X1742500Y2662500D02*
X1750000Y2670000D01*
G01X1742500Y2540000D02*
Y2662500D01*
G01X2940000Y717500D02*
X2997500D01*
X3040000Y760000D01*
G01D02*
X3143800D01*
G01X2940000Y1137500D02*
X2997500D01*
X3040000Y1180000D01*
G01D02*
X3143800D01*
G54D18*
X1380000Y6050000D03*
X1630000D03*
X1880000D03*
X2130000D03*
X2380000D03*
X2630000D03*
X2880000D03*
G54D28*
G01X620000Y3806200D02*
X422200D01*
X320000Y3908400D01*
G01Y4111600D02*
Y4320000D01*
G01X470000Y4848400D02*
Y4580000D01*
G01D02*
Y4320000D01*
G01X1773800Y320000D02*
X820000D01*
G01D02*
X760000Y380000D01*
Y620000D01*
G01X1130000Y3806200D02*
X932200D01*
X830000Y3908400D01*
G01X620000Y3963800D02*
Y3806200D01*
G01Y4116200D02*
Y4320000D01*
G01X830000Y4111600D02*
Y4320000D01*
G01X980000Y5051600D02*
X978400Y5050000D01*
X720000D01*
X640000Y4970000D01*
Y4340000D01*
X620000Y4320000D01*
G01X1130000Y3963800D02*
Y3806200D01*
G01Y4116200D02*
Y4320000D01*
G01X980000Y4848400D02*
Y4580000D01*
G01D02*
Y4320000D01*
G01X1490000Y5051600D02*
X1488400Y5050000D01*
X1220000D01*
X1150000Y4980000D01*
Y4340000D01*
X1130000Y4320000D01*
G01X1380000Y6050000D02*
Y5451600D01*
X980000Y5051600D01*
G01X1640000Y3806200D02*
X1442200D01*
X1340000Y3908400D01*
G01Y4111600D02*
Y4320000D01*
G01X1490000Y4848400D02*
Y4580000D01*
G01D02*
Y4320000D01*
G01X1630000Y6050000D02*
Y5191600D01*
X1490000Y5051600D01*
G01X2200000Y320000D02*
X1926200D01*
G01X1640000Y3963800D02*
Y3806200D01*
G01X2150000D02*
X1952200D01*
X1850000Y3908400D01*
G01X1640000Y4116200D02*
Y4320000D01*
G01X1850000Y4111600D02*
Y4320000D01*
G01X2000000Y5051600D02*
X1998400Y5050000D01*
X1750000D01*
X1670000Y4970000D01*
Y4350000D01*
X1640000Y4320000D01*
G01X1880000Y6050000D02*
Y5670000D01*
X2000000Y5550000D01*
Y5051600D01*
G01X2260000Y620000D02*
Y380000D01*
X2200000Y320000D01*
G01X2150000Y3963800D02*
Y3806200D01*
G01Y4116200D02*
Y4320000D01*
G01X2360000Y4111600D02*
Y4320000D01*
G01X2660000Y3806200D02*
X2462200D01*
X2360000Y3908400D01*
G01X2000000Y4848400D02*
Y4580000D01*
G01D02*
Y4320000D01*
G01X2510000Y5051600D02*
X2508400Y5050000D01*
X2260000D01*
X2180000Y4970000D01*
Y4350000D01*
X2150000Y4320000D01*
G01X2130000Y6050000D02*
Y5730000D01*
X2510000Y5350000D01*
Y5051600D01*
G01X3020000D02*
Y5290000D01*
X2910000Y5400000D01*
X2671600D01*
X2380000Y5691600D01*
Y6050000D01*
G01X2430000Y2000000D02*
Y1930800D01*
X2480800Y1880000D01*
X3040000D01*
G01X2430000Y2260000D02*
Y2000000D01*
G01X2660000Y3963800D02*
Y3806200D01*
G01Y4116200D02*
Y4320000D01*
G01X2510000Y4848400D02*
Y4580000D01*
G01D02*
Y4320000D01*
G01X2660000D02*
X2690000Y4350000D01*
Y5000000D01*
X2750000Y5060000D01*
X3011600D01*
X3020000Y5051600D01*
G01X3530000D02*
Y5340000D01*
X3350000Y5520000D01*
X2830000D01*
X2630000Y5720000D01*
Y6050000D01*
G01X3390000Y1440000D02*
Y2030000D01*
X3306200Y2113800D01*
X3040000D01*
G01X3180000Y3806200D02*
X2982200D01*
X2880000Y3908400D01*
G01Y4111600D02*
X2870000Y4121600D01*
Y4320000D01*
G01X3020000Y4848400D02*
Y4580000D01*
G01D02*
Y4320000D01*
G01X3680000D02*
X3710000Y4350000D01*
Y5470000D01*
X3540000Y5640000D01*
X2990000D01*
X2880000Y5750000D01*
Y6050000D01*
G01X3400000Y1430000D02*
X3390000Y1440000D01*
G01X3680000Y3806200D02*
X3482200D01*
X3380000Y3908400D01*
G01X3180000Y3963800D02*
Y3806200D01*
G01X3380000Y4111600D02*
Y4320000D01*
G01X3180000Y4116200D02*
X3170000Y4126200D01*
Y4320000D01*
G01X3530000Y5051600D02*
X3528400Y5050000D01*
X3290000D01*
X3200000Y4960000D01*
Y4350000D01*
X3170000Y4320000D01*
G01X3680000Y3963800D02*
Y3806200D01*
G01Y4116200D02*
Y4320000D01*
G01X3530000Y4848400D02*
Y4580000D01*
G01D02*
Y4320000D01*
G54D19*
X1773800Y460000D03*
X1926200D03*
Y320000D03*
X1773800D03*
Y900000D03*
X1926200D03*
X3143800Y760000D03*
Y1180000D03*
X3296200Y760000D03*
Y1180000D03*
M02*
