G04 ================== begin FILE IDENTIFICATION RECORD ==================*
G04 Layout Name:  hy_4057_v10_251120.brd*
G04 Film Name:    BOTTOM*
G04 File Format:  Gerber RS274X*
G04 File Origin:  Cadence Allegro 24.1-S006*
G04 Origin Date:  Thu Nov 20 19:42:08 2025*
G04 *
G04 Layer:  ETCH/BOTTOM*
G04 Layer:  PIN/BOTTOM*
G04 Layer:  VIA CLASS/BOTTOM*
G04 *
G04 Offset:    (0.0000 0.0000)*
G04 Mirror:    No*
G04 Mode:      Positive*
G04 Rotation:  0*
G04 FullContactRelief:  No*
G04 UndefLineWidth:     0.1524*
G04 ================== end FILE IDENTIFICATION RECORD ====================*
%FSLAX55Y55*MOMM*%
%IR0*IPPOS*OFA0.00000B0.00000*MIA0B0*SFA1.00000B1.00000*%
%ADD14R,1.2X.3*%
%ADD13R,1.2X.6*%
%ADD15C,.75*%
%ADD11C,.508*%
%ADD12O,2.1X1.*%
%ADD10O,1.6X1.*%
%ADD16C,.254*%
%ADD17C,.7112*%
G75*
%LPD*%
G75*
G36*
G01X302710Y970000D02*
X406290D01*
G02X426380Y946580I7J-20321D01*
G03X425260Y932000I94618J-14601D01*
G03X483000Y844130I95731J0D01*
G02X491120Y813190I-8066J-18652D01*
G03X482980Y789000I31873J-24190D01*
G03X495110Y760300I40018J0D01*
G01X495170Y760240D01*
X502400Y753010D01*
X249700Y500300D01*
G03X228860Y450000I50297J-50306D01*
G01Y190000D01*
G03X229120Y183910I71141J-13D01*
G02X205220Y162180I-20244J-1743D01*
G03X188000Y163740I-17213J-94181D01*
G01X128000D01*
G03X63920Y139130I0J-95731D01*
G02X30000Y154230I-13600J15099D01*
G01Y845770D01*
G02X63920Y860870I20320J1D01*
G03X128000Y836260I64080J71121D01*
G01X188000D01*
G03X283740Y932000I0J95740D01*
G03X282620Y946580I-95738J-21D01*
G02X302710Y970000I20083J3099D01*
G37*
G36*
G01X299970Y118860D02*
X300000D01*
G03X371140Y190000I0J71140D01*
G01Y218860D01*
X482580D01*
X483020Y209170D01*
G03X491120Y186810I39978J1835D01*
G02X483000Y155870I-16186J-12288D01*
G03X425260Y68000I37991J-87870D01*
G03X426380Y53420I95738J21D01*
G02X406290Y30000I-20083J-3099D01*
G01X302710D01*
G02X282620Y53420I-7J20321D01*
G03X283740Y68000I-94618J14601D01*
G03X280370Y93190I-95742J12D01*
G02X299970Y118860I19601J5351D01*
G37*
G36*
G01X745700Y970000D02*
X2290000D01*
G02X2360000Y900000I0J-70000D01*
G01Y100000D01*
G02X2290000Y30000I-70000J0D01*
G01X1965740D01*
Y428950D01*
X1918950Y475740D01*
X1721050D01*
X1664260Y418950D01*
Y30000D01*
X1505740D01*
Y608950D01*
X1448950Y665740D01*
X1261680D01*
G02X1254490Y683080I-2J10160D01*
G01X1270270Y698860D01*
X2029730D01*
X2048860Y679730D01*
Y610000D01*
G03X2191140I71140J0D01*
G01Y709200D01*
G03X2170300Y759500I-71137J-6D01*
G01X2109500Y820300D01*
G03X2059200Y841140I-50300J-50283D01*
G01X1240800D01*
G03X1190500Y820300I0J-71123D01*
G01X1129700Y759500D01*
G03X1109100Y715060I50296J-50309D01*
G01X1108330Y705740D01*
X901050D01*
X854260Y658950D01*
Y30000D01*
X745700D01*
G02X725620Y53420I3J20321D01*
G03X726740Y68000I-94618J14601D01*
G03X631000Y163740I-95740J0D01*
G01X556790D01*
X550120Y180990D01*
X553900Y185580D01*
G03X558350Y192240I-30880J25450D01*
G03X580000Y188860I21667J67757D01*
G01X597780D01*
X601790Y188030D01*
X602660Y187670D01*
G03X619980Y184260I17330J42332D01*
G01X740000D01*
G03X785740Y230000I0J45740D01*
G01Y290000D01*
G03X784630Y300000I-45738J-15D01*
G03X785740Y310000I-44628J10015D01*
G01Y690000D01*
G03X784630Y700000I-45738J-15D01*
G03X785740Y710000I-44628J10015D01*
G01Y770000D01*
G03X740000Y815740I-45740J0D01*
G01X619980D01*
G03X601830Y811980I12J-45742D01*
G01X599900Y811140D01*
X590000D01*
G03X567690Y807550I4J-71139D01*
G02X556100Y811490I-3185J9649D01*
G03X553890Y814440I-33099J-22494D01*
G01X550120Y819030D01*
X556790Y836260D01*
X631000D01*
G03X726740Y932000I0J95740D01*
G03X725620Y946580I-95738J-21D01*
G02X745700Y970000I20083J3099D01*
G37*
G36*
G01X920000Y660000D02*
X1190000D01*
X1210000Y640000D01*
Y614690D01*
X1204260Y608950D01*
Y594260D01*
X1180000Y570000D01*
X1150000D01*
X1120000Y540000D01*
Y70000D01*
X1090000Y40000D01*
X930000D01*
X900000Y70000D01*
Y640000D01*
X920000Y660000D01*
G37*
G36*
G01X1250000Y590000D02*
X1280000Y620000D01*
X1430000D01*
X1460000Y590000D01*
Y70000D01*
X1430000Y40000D01*
X1280000D01*
X1250000Y70000D01*
Y590000D01*
G37*
G36*
G01X1740000Y430000D02*
X1900000D01*
X1920000Y410000D01*
Y70000D01*
X1890000Y40000D01*
X1740000D01*
X1710520Y69480D01*
X1710900Y74170D01*
G03X1711140Y80000I-70900J5839D01*
G03X1710140Y91870I-71139J-16D01*
G01X1710000Y92710D01*
Y187290D01*
X1710140Y188130D01*
G03X1711140Y200000I-70139J11886D01*
G03X1710140Y211870I-71139J-16D01*
G01X1710000Y212710D01*
Y400000D01*
X1740000Y430000D01*
G37*
G54D10*
X158000Y68000D03*
Y932000D03*
G54D11*
G01X680000Y740000D02*
X590000D01*
X300000Y450000D01*
Y290000D01*
G01D02*
Y190000D01*
G01Y290000D02*
X550000D01*
X580000Y260000D01*
X680000D01*
G01X2120000Y610000D02*
Y709200D01*
X2059200Y770000D01*
X1240800D01*
X1180000Y709200D01*
Y620000D01*
G01X1420000Y520000D02*
Y583500D01*
X60000Y780000D03*
X150000Y380000D03*
X300000Y290000D03*
Y190000D03*
X310000Y620000D03*
X280000Y840000D03*
X480000Y375000D03*
Y485000D03*
X820000Y70000D03*
Y240000D03*
X1050000Y620000D03*
X1180000D03*
X1300000Y940000D03*
X1640000Y80000D03*
X1540000D03*
X1640000Y200000D03*
X1540000D03*
X1640000Y630000D03*
Y480000D03*
X1420000Y583500D03*
Y520000D03*
X1640000Y940000D03*
X1750000Y100000D03*
X2000000Y380000D03*
Y200000D03*
X1910000Y630000D03*
X1990000Y940000D03*
X2330000Y540000D03*
X2120000Y610000D03*
X2210000Y940000D03*
X2330000Y880000D03*
G54D12*
X576000Y68000D03*
Y932000D03*
G54D13*
X680000Y260000D03*
Y180000D03*
Y740000D03*
Y820000D03*
G54D14*
Y425000D03*
Y375000D03*
Y325000D03*
Y675000D03*
Y625000D03*
Y575000D03*
Y525000D03*
Y475000D03*
G54D15*
X1050000Y100000D03*
X1300000D03*
X1860000D03*
X2110000D03*
G54D16*
G01X576000Y176000D02*
Y68000D01*
G01X680000Y180000D02*
X580000D01*
X576000Y176000D01*
G01X680000Y375000D02*
X480000D01*
G01Y485000D02*
Y540000D01*
X615000Y675000D01*
X680000D01*
G01X570000Y820000D02*
Y926000D01*
X576000Y932000D01*
G54D17*
G01X158000Y68000D02*
Y173900D01*
G01Y68000D02*
X293900D01*
G01X415100D02*
X576000D01*
G01X158000Y826100D02*
Y932000D01*
G01D02*
X293900D01*
G01X415100D02*
X576000D01*
G01Y68000D02*
X736900D01*
G01X576000Y932000D02*
X736900D01*
M02*
