G04 ================== begin FILE IDENTIFICATION RECORD ==================*
G04 Layout Name:  hy_4057_v10_251120.brd*
G04 Film Name:    SilkScreen_Top*
G04 File Format:  Gerber RS274X*
G04 File Origin:  Cadence Allegro 24.1-S006*
G04 Origin Date:  Thu Nov 20 19:53:35 2025*
G04 *
G04 Layer:  PACKAGE GEOMETRY/SILKSCREEN_TOP*
G04 Layer:  BOARD GEOMETRY/SILKSCREEN_TOP*
G04 *
G04 Offset:    (0.0000 0.0000)*
G04 Mirror:    No*
G04 Mode:      Positive*
G04 Rotation:  0*
G04 FullContactRelief:  No*
G04 UndefLineWidth:     0.1524*
G04 ================== end FILE IDENTIFICATION RECORD ====================*
%FSLAX55Y55*MOMM*%
%IR0*IPPOS*OFA0.00000B0.00000*MIA0B0*SFA1.00000B1.00000*%
%ADD10C,.2*%
%ADD11C,.18*%
%ADD12C,.127*%
%ADD13C,.1524*%
G75*
%LPD*%
G75*
G36*
G01X100000Y790000D02*
X150000Y740000D01*
X200000Y790000D01*
X100000D01*
G37*
G36*
G01X994000Y343400D02*
G03I-25400J0D01*
G37*
G36*
G01X830000Y850000D02*
X750000D01*
X790000Y810000D01*
X830000Y850000D01*
G37*
G36*
G01X1230000Y420000D02*
X1180000Y470000D01*
X1130000Y420000D01*
X1230000D01*
G37*
G36*
G01X1210000Y850000D02*
X1130000D01*
X1170000Y810000D01*
X1210000Y850000D01*
G37*
G36*
G01X1436800Y476600D02*
G03I-25400J0D01*
G37*
G36*
G01X1894000Y633400D02*
G03I-25400J0D01*
G37*
G54D10*
G01X40000Y140000D02*
Y620000D01*
X260000D01*
Y140000D01*
X40000D01*
G01X340000Y40000D02*
Y220000D01*
X440000D01*
Y40000D01*
X340000D01*
G01Y440000D02*
Y620000D01*
X440000D01*
Y440000D01*
X340000D01*
G01X440000Y420000D02*
Y240000D01*
X340000D01*
Y420000D01*
X440000D01*
G01X320000Y670000D02*
G03X440000I60000J77500D01*
G01X320000Y930000D02*
Y670000D01*
G01X440000Y930000D02*
G03X320000I-60000J-77500D01*
G01X714600Y287600D02*
G02X765400I25400J0D01*
G01X689200Y300300D02*
Y287600D01*
X714600D01*
G01X689200Y300300D02*
Y592400D01*
X790800D01*
Y287600D01*
X765400D01*
G01X850000Y690000D02*
Y660000D01*
X730000D01*
Y690000D01*
G01X850000Y970000D02*
X730000D01*
Y690000D01*
X850000D01*
Y970000D01*
G01X440000Y670000D02*
Y930000D01*
G01X990000Y310000D02*
G03X1110000I60000J77500D01*
G01X990000Y570000D02*
Y310000D01*
G01Y660000D02*
Y840000D01*
X1090000D01*
Y660000D01*
X990000D01*
G01X870000D02*
Y840000D01*
X970000D01*
Y660000D01*
X870000D01*
G01X1110000Y570000D02*
G03X990000I-60000J-77500D01*
G01X1280000Y440000D02*
Y620000D01*
X1380000D01*
Y440000D01*
X1280000D01*
G01X1380000Y420000D02*
Y240000D01*
X1280000D01*
Y420000D01*
X1380000D01*
G01X1110000Y310000D02*
Y570000D01*
G01X1230000Y690000D02*
Y660000D01*
X1110000D01*
Y690000D01*
G01X1230000Y970000D02*
X1110000D01*
Y690000D01*
X1230000D01*
Y970000D01*
G01X1280000Y670000D02*
Y830000D01*
G01X1380000D02*
Y670000D01*
G01X1280000D02*
G03X1380000I50000J50000D01*
G01Y830000D02*
G03X1280000I-50000J-50000D01*
G01X1690800Y519700D02*
Y227600D01*
X1589200D01*
Y532400D01*
X1614600D01*
G01Y577600D02*
G02X1665400I25400J0D01*
G01X1589200Y590300D02*
Y577600D01*
X1614600D01*
G01X1589200Y590300D02*
Y882400D01*
X1690800D01*
Y577600D01*
X1665400D01*
G01Y532400D02*
G02X1614600I-25400J0D01*
G01X1690800Y519700D02*
Y532400D01*
X1665400D01*
G01X1980000Y300000D02*
X2080000D01*
G01X1980000Y460000D02*
X1870000D01*
Y300000D01*
G01X1890000Y660000D02*
Y840000D01*
X1990000D01*
Y660000D01*
X1890000D01*
G01X2080000Y460000D02*
X2190000D01*
Y300000D01*
G01X2220000Y240000D02*
G03X2340000I60000J77500D01*
G01X2220000Y500000D02*
Y240000D01*
G01X2210000Y660000D02*
Y840000D01*
X2310000D01*
Y660000D01*
X2210000D01*
G01X2060000Y670000D02*
G03X2180000I60000J77500D01*
G01X2060000Y930000D02*
Y670000D01*
G01X2180000D02*
Y930000D01*
G01X2340000Y500000D02*
G03X2220000I-60000J-77500D01*
G01X2180000Y930000D02*
G03X2060000I-60000J-77500D01*
G01X2340000Y240000D02*
Y500000D01*
G54D11*
G01X100000Y650000D02*
Y620000D01*
X200000D01*
Y650000D01*
G01X100000D02*
Y890000D01*
X200000D01*
Y650000D01*
X100000D01*
G01X1230000Y560000D02*
Y320000D01*
X1130000D01*
Y560000D01*
X1230000D01*
G01D02*
Y590000D01*
X1130000D01*
Y560000D01*
G54D12*
G01X2427480Y-2887120D02*
X2447800D01*
G54D13*
G01X751000Y105000D02*
X757000Y114000D01*
X764000Y118500D01*
X772000Y120000D01*
X782000Y117000D01*
X789000Y109500D01*
X791000Y100500D01*
X790000Y91500D01*
X786000Y84000D01*
X766000Y69000D01*
X757000Y58500D01*
X751000Y43500D01*
X749000Y30000D01*
X791000D01*
G01X818000Y43500D02*
X824000Y36000D01*
X831000Y31500D01*
X840000Y30000D01*
X849000Y33000D01*
X856000Y39000D01*
X861000Y49500D01*
X862000Y61500D01*
X860000Y73500D01*
X855000Y81000D01*
X848000Y87000D01*
X841000Y88500D01*
X834000Y87000D01*
X825000Y81000D01*
X828000Y120000D01*
X855000D01*
G01X910000Y30000D02*
Y120000D01*
X898000Y102000D01*
G01Y30000D02*
X922000D01*
G01X980000D02*
Y120000D01*
X968000Y102000D01*
G01Y30000D02*
X992000D01*
G01X1031000Y105000D02*
X1037000Y114000D01*
X1044000Y118500D01*
X1052000Y120000D01*
X1062000Y117000D01*
X1069000Y109500D01*
X1071000Y100500D01*
X1070000Y91500D01*
X1066000Y84000D01*
X1046000Y69000D01*
X1037000Y58500D01*
X1031000Y43500D01*
X1029000Y30000D01*
X1071000D01*
G01X1120000Y120000D02*
X1112000Y117000D01*
X1106000Y109500D01*
X1102000Y100500D01*
X1099000Y88500D01*
X1098000Y75000D01*
X1099000Y61500D01*
X1102000Y49500D01*
X1106000Y40500D01*
X1112000Y33000D01*
X1120000Y30000D01*
X1128000Y33000D01*
X1134000Y40500D01*
X1138000Y49500D01*
X1141000Y61500D01*
X1142000Y75000D01*
X1141000Y88500D01*
X1138000Y100500D01*
X1134000Y109500D01*
X1128000Y117000D01*
X1120000Y120000D01*
G01X712000Y170000D02*
Y260000D01*
X675000Y195500D01*
X725000D01*
G01X770000Y260000D02*
X762000Y257000D01*
X756000Y249500D01*
X752000Y240500D01*
X749000Y228500D01*
X748000Y215000D01*
X749000Y201500D01*
X752000Y189500D01*
X756000Y180500D01*
X762000Y173000D01*
X770000Y170000D01*
X778000Y173000D01*
X784000Y180500D01*
X788000Y189500D01*
X791000Y201500D01*
X792000Y215000D01*
X791000Y228500D01*
X788000Y240500D01*
X784000Y249500D01*
X778000Y257000D01*
X770000Y260000D01*
G01X818000Y183500D02*
X824000Y176000D01*
X831000Y171500D01*
X840000Y170000D01*
X849000Y173000D01*
X856000Y179000D01*
X861000Y189500D01*
X862000Y201500D01*
X860000Y213500D01*
X855000Y221000D01*
X848000Y227000D01*
X841000Y228500D01*
X834000Y227000D01*
X825000Y221000D01*
X828000Y260000D01*
X855000D01*
G01X908000Y170000D02*
X910000Y189500D01*
X913000Y206000D01*
X917000Y221000D01*
X922000Y237500D01*
X930000Y260000D01*
X890000D01*
G01X950000Y140000D02*
X1010000D01*
G01X1025000Y260000D02*
X1050000Y170000D01*
X1075000Y260000D01*
G01X1120000Y170000D02*
Y260000D01*
X1108000Y242000D01*
G01Y170000D02*
X1132000D01*
G01X1190000Y260000D02*
X1182000Y257000D01*
X1176000Y249500D01*
X1172000Y240500D01*
X1169000Y228500D01*
X1168000Y215000D01*
X1169000Y201500D01*
X1172000Y189500D01*
X1176000Y180500D01*
X1182000Y173000D01*
X1190000Y170000D01*
X1198000Y173000D01*
X1204000Y180500D01*
X1208000Y189500D01*
X1211000Y201500D01*
X1212000Y215000D01*
X1211000Y228500D01*
X1208000Y240500D01*
X1204000Y249500D01*
X1198000Y257000D01*
X1190000Y260000D01*
G01X1749000Y60000D02*
X1791000Y150000D01*
G01X1749000D02*
X1791000Y60000D01*
G01X1819000D02*
X1861000Y150000D01*
G01X1819000D02*
X1861000Y60000D01*
G01X1889000D02*
X1931000Y150000D01*
G01X1889000D02*
X1931000Y60000D01*
G01X1960000Y150000D02*
Y60000D01*
X2000000D01*
G01X2031000Y150000D02*
X2069000D01*
X2031000Y60000D01*
X2069000D01*
G01X2100000Y78000D02*
X2105000Y69000D01*
X2111000Y63000D01*
X2118000Y60000D01*
X2126000Y63000D01*
X2132000Y69000D01*
X2138000Y78000D01*
X2140000Y90000D01*
Y150000D01*
G01X2169000Y60000D02*
X2211000Y150000D01*
G01X2169000D02*
X2211000Y60000D01*
G01X2239000D02*
X2281000Y150000D01*
G01X2239000D02*
X2281000Y60000D01*
G01X2309000D02*
X2351000Y150000D01*
G01X2309000D02*
X2351000Y60000D01*
M02*
