G04 ================== begin FILE IDENTIFICATION RECORD ==================*
G04 Layout Name:  hy_4057_v10_251120.brd*
G04 Film Name:    SolderMask_Bottom*
G04 File Format:  Gerber RS274X*
G04 File Origin:  Cadence Allegro 24.1-S006*
G04 Origin Date:  Thu Nov 20 19:42:08 2025*
G04 *
G04 Layer:  PIN/SOLDERMASK_BOTTOM*
G04 Layer:  PACKAGE GEOMETRY/SOLDERMASK_BOTTOM*
G04 Layer:  BOARD GEOMETRY/SOLDERMASK_BOTTOM*
G04 *
G04 Offset:    (0.0000 0.0000)*
G04 Mirror:    No*
G04 Mode:      Positive*
G04 Rotation:  0*
G04 FullContactRelief:  No*
G04 UndefLineWidth:     0.1524*
G04 ================== end FILE IDENTIFICATION RECORD ====================*
%FSLAX55Y55*MOMM*%
%IR0*IPPOS*OFA0.00000B0.00000*MIA0B0*SFA1.00000B1.00000*%
%ADD13R,1.3X.4*%
%ADD12R,1.3X.7*%
%ADD14C,.85*%
%ADD11O,2.2X1.1*%
%ADD10O,1.7X1.1*%
G75*
%LPD*%
G75*
G36*
G01X930000Y40000D02*
X1090000D01*
X1120000Y70000D01*
Y400000D01*
X1090000Y430000D01*
X930000D01*
X900000Y400000D01*
Y70000D01*
X930000Y40000D01*
G37*
G36*
G01X1270000D02*
X1430000D01*
X1460000Y70000D01*
Y400000D01*
X1430000Y430000D01*
X1270000D01*
X1240000Y400000D01*
Y70000D01*
X1270000Y40000D01*
G37*
G36*
G01X1740000D02*
X1900000D01*
X1930000Y70000D01*
Y400000D01*
X1900000Y430000D01*
X1740000D01*
X1710000Y400000D01*
Y70000D01*
X1740000Y40000D01*
G37*
G36*
G01X2070000D02*
X2230000D01*
X2260000Y70000D01*
Y400000D01*
X2230000Y430000D01*
X2070000D01*
X2040000Y400000D01*
Y70000D01*
X2070000Y40000D01*
G37*
G54D10*
X158000Y68000D03*
Y932000D03*
G54D11*
X576000Y68000D03*
Y932000D03*
G54D12*
X680000Y260000D03*
Y180000D03*
Y740000D03*
Y820000D03*
G54D13*
Y425000D03*
Y375000D03*
Y325000D03*
Y675000D03*
Y625000D03*
Y575000D03*
Y525000D03*
Y475000D03*
G54D14*
X1050000Y100000D03*
X1300000D03*
X1860000D03*
X2110000D03*
M02*
