M48
METRIC,TZ
T01C.254
T02C.9
T03C1.8
T04C2.3
;LEADER: 12 
;HEADER: 
;CODE  : ASCII 
;FILE  : LAN9500_TEST_V10A-1-4.drl for board H:/MBED-TOOLS/HARDWARE/LAN9500_TEST_V10A/PCB/#Taaaabj11480.tmp ... layers TOP and BOTTOM
;T01 Holesize 1. = 0.254000 Tolerance = +0.000000/-0.000000 PLATED MM Quantity = 58
;T02 Holesize 2. = 0.900000 Tolerance = +0.000000/-0.000000 PLATED MM Quantity = 16
;T03 Holesize 3. = 1.800000 Tolerance = +0.000000/-0.000000 PLATED MM Quantity = 2
;T04 Holesize 4. = 2.300000 Tolerance = +0.000000/-0.000000 PLATED MM Quantity = 2
%
G90
T01
X396960Y80000
X490000Y240000
X630000Y230000
X785800Y80000
X1006500Y230000
X1070000Y230000
X1180000Y90000
X1230000Y170000
X1270000Y40000
X1339120Y40000
X1406500Y40000
X1470000Y40000
X1620000Y70000
X1795000Y75000
X2034680Y170000
X2280000Y240000
X2340000Y120000
X2400000Y180000
X1820000Y420000
X1620000Y420000
X1410000Y420000
X1110000Y410000
X1070000Y350000
X1050000Y520000
X1110000Y620000
X1410000Y540000
X1620000Y540000
X1820000Y540000
X2180000Y541800
X2179170Y620000
X2180000Y710000
X2470000Y640000
X2330000Y1010000
X2310000Y840000
X1820000Y780000
X1620000Y780000
X1410000Y780000
X1195000Y1000000
X1060000Y785000
X1050000Y870000
X1480000Y1070000
X1520000Y1130000
X1645000Y1060000
X1795000Y1060000
X1890000Y1240000
X2050000Y1230000
X2450000Y1210000
X2330000Y1448590
X2330000Y1300000
X1500000Y1470000
X1500000Y1410000
X930000Y1280000
X510000Y1570000
X920000Y1570000
X1100000Y1570000
X1500000Y1530000
X1800000Y1580000
X2060000Y1580000
T02
X450000Y580000
X450000Y830000
X450000Y1030000
X450000Y1280000
X2651600Y1374000
X2651600Y1120000
X2651600Y866000
X2651600Y612000
X2905600Y485000
X2905600Y739000
X2905600Y993000
X2905600Y1247000
X4030600Y1592500
X4030600Y1338500
X4030600Y521500
X4030600Y267500
T03
X3235600Y155500
X3235600Y1704500
T04
X250000Y330000
X250000Y1530000
M30
