G04 ================== begin FILE IDENTIFICATION RECORD ==================*
G04 Layout Name:  HY_UART_DBUG_V10B.brd*
G04 Film Name:    BOTTOM*
G04 File Format:  Gerber RS274X*
G04 File Origin:  Cadence Allegro 17.2-S071*
G04 Origin Date:  Tue Aug 17 09:36:50 2021*
G04 *
G04 Layer:  ETCH/BOTTOM*
G04 Layer:  PIN/BOTTOM*
G04 Layer:  VIA CLASS/BOTTOM*
G04 *
G04 Offset:    (0.0000 0.0000)*
G04 Mirror:    No*
G04 Mode:      Positive*
G04 Rotation:  0*
G04 FullContactRelief:  No*
G04 UndefLineWidth:     0.1524*
G04 ================== end FILE IDENTIFICATION RECORD ====================*
%FSLAX55Y55*MOMM*%
%IR0*IPPOS*OFA0.00000B0.00000*MIA0B0*SFA1.00000B1.00000*%
%ADD29R,.6X1.*%
%ADD23R,.6X1.1*%
%ADD10C,.508*%
%ADD35C,.762*%
%ADD12R,.8X.8*%
%ADD33C,.6096*%
%ADD22O,4.X2.*%
%ADD14O,2.X4.*%
%ADD27R,1.X1.2*%
%ADD13R,5.X5.*%
%ADD11R,1.4X1.5*%
%ADD26R,1.6X4.3*%
%ADD17R,2.8X1.4*%
%ADD38R,1.8X1.6*%
%ADD36C,2.*%
%ADD25R,2.5X1.8*%
%ADD24R,1.8X2.5*%
%ADD21C,1.3*%
%ADD16C,1.4*%
%ADD20C,3.3*%
%ADD37C,2.5*%
%ADD32C,1.6*%
%ADD31C,6.3*%
%ADD18C,1.8*%
%ADD28R,1.3X1.3*%
%ADD15R,1.4X1.4*%
%ADD34R,1.6X1.6*%
%ADD19R,1.9X1.9*%
%ADD30R,.9144X.9144*%
%ADD39C,.2032*%
%ADD40C,.254*%
%ADD41C,.7112*%
%ADD42C,1.27*%
%ADD44C,3.4004*%
%ADD43C,2.7148*%
%ADD45O,2.9148X4.9148*%
G75*
%LPD*%
G75*
G36*
G01X100000Y3040000D02*
X3090000D01*
X3160000Y2970000D01*
Y2859100D01*
G02X3128260Y2842290I-20321J-2D01*
G03X3052000Y2865740I-76264J-112289D01*
G03Y2594260I0J-135740D01*
G03X3128260Y2617710I-4J135739D01*
G02X3160000Y2600900I11419J-16808D01*
G01Y1941140D01*
X3050000D01*
G03X2999700Y1920300I6J-71137D01*
G01X2879700Y1800300D01*
G03X2858860Y1750000I50283J-50300D01*
G01Y1210000D01*
G03X2879700Y1159700I71123J0D01*
G01X2959700Y1079700D01*
G03X3010000Y1058860I50306J50297D01*
G01X3080410D01*
X3109070Y1034910D01*
G03X3138400Y1024260I29339J35087D01*
G01X3238400D01*
G03X3274130Y1041440I0J45745D01*
G02X3305870I15870J-12687D01*
G03X3306210Y1041020I35721J28570D01*
G01X3320570Y1023490D01*
X3320900Y1020500D01*
G03X3341300Y978100I70697J7907D01*
G01X3464700Y854700D01*
G03X3485600Y840220I50311J50294D01*
G03X3478860Y810000I64399J-30225D01*
G03X3504210Y755550I71152J0D01*
G02Y724450I-13073J-15550D01*
G03X3478860Y670000I45802J-54450D01*
G03X3550000Y598860I71140J0D01*
G01X3579600D01*
X3584920Y594530D01*
G03X3613800Y584260I28880J35471D01*
G01X3693800D01*
G03X3739540Y630000I0J45740D01*
G01Y710000D01*
G03X3732500Y734380I-45735J0D01*
G03X3749540Y770000I-28710J35620D01*
G01Y850000D01*
G03X3732500Y885620I-45750J0D01*
G03X3739540Y910000I-38695J24380D01*
G01Y990000D01*
G03X3723690Y1024620I-45734J0D01*
G02Y1055380I13283J15380D01*
G03X3739540Y1090000I-29884J34620D01*
G01Y1170000D01*
G03X3728330Y1200000I-45748J0D01*
G03X3739540Y1230000I-34538J30000D01*
G01Y1310000D01*
G03X3728330Y1340000I-45748J0D01*
G03X3739540Y1370000I-34538J30000D01*
G01Y1450000D01*
G03X3736260Y1467000I-45738J-8D01*
G01X3734620Y1471100D01*
X3737460Y1477150D01*
X3739200Y1478600D01*
G03X3755740Y1513800I-29200J35207D01*
G01Y1593820D01*
G03X3753580Y1607700I-45741J-10D01*
G01X3753350Y1608410D01*
X3753110Y1609890D01*
G02X3764230Y1621630I10026J1639D01*
G01X3765150Y1621530D01*
X3765630Y1621430D01*
G03X3775000Y1620460I9370J44770D01*
G01X3855000D01*
G03X3887500Y1634010I0J45751D01*
G03X3920000Y1620460I32500J32201D01*
G01X4000000D01*
G03X4002950Y1620560I-74J45738D01*
G02X4024480Y1598290I1307J-20279D01*
G03X4024260Y1593820I45520J-4481D01*
G01Y1513800D01*
G03X4070000Y1468060I45740J0D01*
G01X4150000D01*
G03X4195310Y1507570I0J45736D01*
G01X4205080Y1578630D01*
X4246910Y1620460D01*
X4290000D01*
G03X4320000Y1631670I0J45748D01*
G03X4350000Y1620460I30000J34538D01*
G01X4430000D01*
G03X4475740Y1666200I0J45740D01*
G01Y1746200D01*
G03X4465470Y1775080I-45741J0D01*
G01X4461140Y1780400D01*
Y1800010D01*
G03X4457290Y1823090I-71141J-6D01*
G02X4476510Y1850000I19221J6591D01*
G01X4800000D01*
X4890000Y1760000D01*
Y1111780D01*
X4775360D01*
X4773140Y1112950D01*
G03X4740000Y1121140I-33140J-62954D01*
G03X4668860Y1050000I0J-71140D01*
G03X4704100Y988580I71145J0D01*
G01X4706360Y987260D01*
X4713680Y975000D01*
X4702310Y968210D01*
X4699230Y968360D01*
G03X4696260Y968440I-3058J-58361D01*
G01X4443800D01*
G03X4402480Y951320I6J-58438D01*
G01X4363090Y911940D01*
X4320000D01*
G03X4274260Y866200I0J-45740D01*
G01Y769560D01*
G02X4263720Y759410I-10159J1D01*
G01X4263360Y759420D01*
X4263200Y759430D01*
G03X4260040Y759540I-3170J-45631D01*
G01X4180000D01*
G03X4134260Y713800I0J-45740D01*
G01Y633800D01*
G03X4180000Y588060I45740J0D01*
G01X4205130D01*
X4208860Y584330D01*
Y559990D01*
G03X4212710Y536910I71141J6D01*
G02X4193490Y510000I-19221J-6591D01*
G01X4101510D01*
G02X4082290Y536910I1J20319D01*
G03X4086140Y559990I-67291J23086D01*
G01Y604480D01*
X4090230Y612030D01*
G03X4095740Y633790I-40231J21765D01*
G01Y713800D01*
G03X4050000Y759540I-45740J0D01*
G01X3970000D01*
G03X3924260Y713800I0J-45740D01*
G01Y633800D01*
G03X3934510Y604950I45726J0D01*
G01X3943860Y593440D01*
Y559990D01*
G03X3947710Y536910I71141J6D01*
G02X3928490Y510000I-19221J-6591D01*
G01X2570000D01*
X2510000Y570000D01*
Y1230000D01*
X2190000Y1550000D01*
X110000D01*
X30000Y1630000D01*
Y2970000D01*
X100000Y3040000D01*
G37*
G36*
G01X1822400Y3675120D02*
G02X1852360Y3657230I9640J-17888D01*
G01Y3392970D01*
X1818030Y3358640D01*
X1602260D01*
X1579150Y3377750D01*
G03X1550000Y3388240I-29150J-35257D01*
G01X1390000D01*
G03X1377660Y3386540I14J-45738D01*
G02X1353120Y3399050I-5483J19569D01*
G03X1310000Y3429540I-43120J-15246D01*
G01X1230000D01*
G03X1200520Y3418770I5J-45744D01*
G01X1200060Y3418380D01*
X1162780Y3386670D01*
X1159530Y3386390D01*
G03X1094360Y3315500I5971J-70890D01*
G03X1165500Y3244360I71140J0D01*
G01X1241700D01*
G03X1276280Y3253330I0J71139D01*
G01X1278080Y3254330D01*
X1314670Y3258300D01*
X1314700Y3258310D01*
G03X1319760Y3259110I-4601J45507D01*
G02X1344260Y3239230I4181J-19884D01*
G01Y3232490D01*
G03X1353340Y3205140I45742J4D01*
G03X1359900Y3191940I66643J24889D01*
G03X1369700Y3179700I60093J38071D01*
G01X1419700Y3129700D01*
G03X1427850Y3122690I50331J50273D01*
G01X1433490Y3118550D01*
X1428380Y3100000D01*
X890000D01*
X830000Y3160000D01*
Y3800000D01*
X780000Y3850000D01*
X703690D01*
G02X685220Y3878780I3J20319D01*
G03X695740Y3926990I-105221J48213D01*
G01Y3927000D01*
G03X464260I-115740J0D01*
G01Y3926990D01*
G03X474780Y3878780I115741J3D01*
G02X456310Y3850000I-18473J-8461D01*
G01X20000D01*
Y5200000D01*
G02X200000Y5380000I187857J-7857D01*
G01X839310D01*
Y4958070D01*
G03X826260Y4900000I122689J-58073D01*
G03X836080Y4849310I135739J0D01*
G01X838590Y4843080D01*
X811250Y4815740D01*
X710000D01*
G03X664260Y4770000I0J-45740D01*
G01Y4630000D01*
G03X710000Y4584260I45740J0D01*
G01X990000D01*
G03X1035740Y4630000I0J45740D01*
G01Y4731250D01*
X1039240Y4734760D01*
X1039250Y4734770D01*
G03X1071240Y4812000I-77247J77237D01*
G01Y4819360D01*
X1073090Y4821990D01*
G03X1097740Y4900000I-111092J78003D01*
G01Y4900010D01*
G03X1090750Y4943010I-135742J2D01*
G03X1090790Y4944970I-45702J1913D01*
G01Y5380000D01*
X1852260D01*
Y4951200D01*
X1851560Y4949420D01*
G03X1842260Y4900030I126446J-49380D01*
G01Y4900000D01*
G03X1866020Y4823270I135743J-10D01*
G01X1866880Y4822030D01*
X1868710Y4816220D01*
X1864330Y4807930D01*
X1862510Y4806560D01*
G03X1844260Y4770000I27495J-36560D01*
G01Y4630000D01*
G03X1890000Y4584260I45740J0D01*
G01X2170000D01*
G03X2215740Y4630000I0J45740D01*
G01Y4770000D01*
G03X2170000Y4815740I-45740J0D01*
G01X2108720D01*
G03X2107240Y4817240I-78495J-75968D01*
G01X2094520Y4829970D01*
X2098020Y4836600D01*
G03X2113740Y4900000I-120018J63407D01*
G01Y4900030D01*
G03X2104440Y4949420I-135746J10D01*
G01X2103740Y4951200D01*
Y5380000D01*
X2250000D01*
Y3160000D01*
X2190000Y3100000D01*
X1931620D01*
X1926510Y3118550D01*
X1932150Y3122690D01*
G03X1940300Y3129700I-42181J57283D01*
G01X2070300Y3259700D01*
G03X2091140Y3310000I-50297J50306D01*
G01Y3696500D01*
G03X2020000Y3767640I-71140J0D01*
G01X2019960D01*
G03X2015830Y3767520I0J-71141D01*
G02X1994640Y3787820I-870J20301D01*
G01Y3823500D01*
G03X1923500Y3894640I-71140J0D01*
G03X1878820Y3878860I0J-71144D01*
G02X1845740Y3894670I-12761J15813D01*
G01Y3965000D01*
G03X1824060Y4003900I-45739J0D01*
G01X1819240Y4006880D01*
Y4070760D01*
X1866360D01*
X1868590Y4069580D01*
G03X1890000Y4064260I21410J40422D01*
G01X2170000D01*
G03X2215740Y4110000I0J45740D01*
G01Y4250000D01*
G03X2170000Y4295740I-45740J0D01*
G01X1890000D01*
G03X1868590Y4290420I0J-45742D01*
G01X1866360Y4289240D01*
X1821530D01*
X1820090Y4297690D01*
G03X1775000Y4335740I-45090J-7691D01*
G01X1525000D01*
G03X1479260Y4290000I0J-45740D01*
G01Y4110000D01*
G03X1525000Y4064260I45740J0D01*
G01X1600760D01*
Y4006880D01*
X1595940Y4003900D01*
G03X1574260Y3965000I24059J-38900D01*
G01Y3954720D01*
X1516450Y3896260D01*
X1515960Y3895870D01*
G03X1509700Y3890300I44076J-55838D01*
G01X1477730Y3858330D01*
X1465000Y3845610D01*
X1445310Y3865300D01*
X1420300Y3890300D01*
G03X1413260Y3896470I-50305J-50297D01*
G01X1412700Y3896910D01*
X1365740Y3944650D01*
Y3965000D01*
G03X1344060Y4003900I-45739J0D01*
G01X1339240Y4006880D01*
Y4064260D01*
X1355000D01*
G03X1400740Y4110000I0J45740D01*
G01Y4290000D01*
G03X1355000Y4335740I-45740J0D01*
G01X1105000D01*
G03X1059910Y4297690I0J-45741D01*
G01X1058470Y4289240D01*
X1013640D01*
X1011410Y4290420D01*
G03X990000Y4295740I-21410J-40422D01*
G01X710000D01*
G03X674610Y4278980I0J-45744D01*
G02X647110Y4275300I-15719J12874D01*
G03X580000Y4296740I-67110J-94312D01*
G03X488700Y4252140I0J-115749D01*
G01X449700D01*
G03X416200Y4266740I-33500J-31133D01*
G01X336200D01*
G03X290460Y4221000I0J-45740D01*
G01Y4141000D01*
G03X336200Y4095260I45740J0D01*
G01X416200D01*
G03X449700Y4109860I0J45733D01*
G01X488700D01*
G03X580000Y4065260I91300J71149D01*
G03X646240Y4086090I0J115738D01*
G02X673900Y4081910I11628J-16664D01*
G03X710000Y4064260I36100J28093D01*
G01X990000D01*
G03X1011410Y4069580I0J45742D01*
G01X1013640Y4070760D01*
X1081360D01*
X1083590Y4069580D01*
G03X1105000Y4064260I21410J40422D01*
G01X1120760D01*
Y4006880D01*
X1115940Y4003900D01*
G03X1094260Y3965000I24059J-38900D01*
G01Y3715000D01*
G03X1140000Y3669260I45740J0D01*
G01X1320050D01*
G03X1325910Y3669640I-24J45742D01*
G02X1348860Y3649500I2631J-20147D01*
G01Y3629720D01*
X1348030Y3625710D01*
X1347670Y3624840D01*
G03X1344260Y3607520I42332J-17330D01*
G01Y3497500D01*
G03X1390000Y3451760I45740J0D01*
G01X1550000D01*
G03X1595740Y3497500I0J45740D01*
G01Y3607520D01*
G03X1591980Y3625670I-45742J-12D01*
G01X1591140Y3627600D01*
Y3649500D01*
G02X1614090Y3669640I20319J-7D01*
G03X1619950Y3669260I5884J45362D01*
G01X1800000D01*
G03X1822400Y3675120I0J45742D01*
G37*
G36*
G01X454650Y3678700D02*
X416200Y3710000D01*
X369850Y3670000D01*
X416200Y3630000D01*
X454650Y3661300D01*
G03Y3678700I-23860J8700D01*
G37*
G36*
G01X497750Y3650420D02*
X532280Y3621890D01*
X586340Y3673290D01*
X530500Y3722490D01*
X495970Y3687960D01*
G03X497750Y3650420I17960J-17961D01*
G37*
G36*
G01X454650Y4189700D02*
X416200Y4221000D01*
X369850Y4181000D01*
X416200Y4141000D01*
X454650Y4172300D01*
G03Y4189700I-23860J8700D01*
G37*
G36*
G01X498970Y4163040D02*
X530500Y4131510D01*
X586350Y4181000D01*
X530500Y4230490D01*
X498970Y4198960D01*
G03Y4163040I17960J-17960D01*
G37*
G36*
G01X1294000Y186160D02*
Y280000D01*
X1202350Y281930D01*
X1202250Y190160D01*
X1282090Y176150D01*
G03X1294000Y186160I1748J10010D01*
G37*
G36*
G01X1275830Y513930D02*
X1313800Y480000D01*
X1356340Y520000D01*
X1313800Y560000D01*
X1275830Y526070D01*
G03Y513930I8140J-6070D01*
G37*
G36*
G01X1184700Y3290210D02*
X1310000Y3303800D01*
X1276010Y3345850D01*
X1230000Y3383800D01*
X1165600Y3329010D01*
G03X1184700Y3290210I21509J-13513D01*
G37*
G36*
G01X1391950Y3852770D02*
X1320000Y3925930D01*
X1223650Y3840000D01*
X1320000Y3754070D01*
X1391950Y3827230D01*
G03Y3852770I-21950J12770D01*
G37*
G36*
G01X1578090Y287180D02*
X1521640Y343630D01*
X1455460Y280000D01*
X1521640Y216370D01*
X1578090Y272820D01*
G03Y287180I-7180J7180D01*
G37*
G36*
G01X1994650Y528700D02*
X1956200Y560000D01*
X1909850Y520000D01*
X1956200Y480000D01*
X1994650Y511300D01*
G03Y528700I-23860J8700D01*
G37*
G36*
G01Y668700D02*
X1956200Y700000D01*
X1909850Y660000D01*
X1956200Y620000D01*
X1994650Y651300D01*
G03Y668700I-23860J8700D01*
G37*
G36*
G01X1584650Y528700D02*
X1546200Y560000D01*
X1499850Y520000D01*
X1546200Y480000D01*
X1584650Y511300D01*
G03Y528700I-23860J8700D01*
G37*
G36*
G01X1769870Y722030D02*
X1803800Y760000D01*
X1763800Y802540D01*
X1723800Y760000D01*
X1757730Y722030D01*
G03X1769870I6070J8140D01*
G37*
G36*
G01X1757730Y737970D02*
X1723800Y700000D01*
X1763800Y657460D01*
X1803800Y700000D01*
X1769870Y737970D01*
G03X1757730I-6070J-8140D01*
G37*
G36*
G01X1769870Y582030D02*
X1803800Y620000D01*
X1763800Y662540D01*
X1723800Y620000D01*
X1757730Y582030D01*
G03X1769870I6070J8140D01*
G37*
G36*
G01Y442030D02*
X1803800Y480000D01*
X1763800Y522540D01*
X1723800Y480000D01*
X1757730Y442030D01*
G03X1769870I6070J8140D01*
G37*
G36*
G01X1757730Y597970D02*
X1723800Y560000D01*
X1763800Y517460D01*
X1803800Y560000D01*
X1769870Y597970D01*
G03X1757730I-6070J-8140D01*
G37*
G36*
G01X1930000Y1030000D02*
X2250000D01*
X2270000Y1010000D01*
Y770000D01*
X2250000Y750000D01*
X2020000D01*
X2001940Y768060D01*
Y840000D01*
G03X1983350Y876810I-45739J0D01*
G01X1982740Y877260D01*
X1960000Y900000D01*
X1930000D01*
Y1030000D01*
G37*
G36*
G01X1828560Y897800D02*
X1818400Y1020000D01*
X1766810Y961980D01*
X1718400Y900000D01*
X1818180Y887640D01*
G03X1828560Y897800I218J10160D01*
G37*
G36*
G01X1422110Y3204690D02*
X1450000Y3232500D01*
X1420000Y3293850D01*
X1390000Y3232500D01*
X1417890Y3204690D01*
G03X1422110I2110J25310D01*
G37*
G36*
G01X1538470Y3826530D02*
X1620000Y3744070D01*
X1716350Y3840000D01*
X1620000Y3935930D01*
X1538470Y3853470D01*
G03Y3826530I21530J-13470D01*
G37*
G36*
G01X1516160Y3637200D02*
X1490000Y3607500D01*
X1520000Y3546150D01*
X1550000Y3607500D01*
X1523840Y3637200D01*
G03X1516160I-3840J-25110D01*
G37*
G36*
G01X1416160D02*
X1390000Y3607500D01*
X1420000Y3546150D01*
X1450000Y3607500D01*
X1423840Y3637200D01*
G03X1416160I-3840J-25110D01*
G37*
G36*
G01X1601960Y3299530D02*
X1550000Y3342500D01*
X1513650Y3287500D01*
X1550000Y3232500D01*
X1601960Y3275470D01*
G03Y3299530I-22370J12030D01*
G37*
G36*
G01X2396070Y4945830D02*
X2430000Y4983800D01*
X2390000Y5026340D01*
X2350000Y4983800D01*
X2383930Y4945830D01*
G03X2396070I6070J8140D01*
G37*
G36*
G01X2382820Y4928740D02*
X2372050Y4917960D01*
X2390000Y4897460D01*
X2407950Y4917960D01*
X2397180Y4928740D01*
G03X2382820I-7180J-7190D01*
G37*
G36*
G01X2468450Y5184900D02*
X2430000Y5216200D01*
X2383650Y5176200D01*
X2430000Y5136200D01*
X2468450Y5167500D01*
G03Y5184900I-23860J8700D01*
G37*
G36*
G01X2517830Y5167500D02*
X2556280Y5136200D01*
X2602630Y5176200D01*
X2556280Y5216200D01*
X2517830Y5184900D01*
G03Y5167500I23860J-8700D01*
G37*
G36*
G01X3001140Y1660440D02*
G02X3025580Y1680340I20321J1D01*
G03X3040000Y1678860I14435J69658D01*
G01X3048710D01*
X3107910Y1625910D01*
G03X3138400Y1614260I30495J34088D01*
G01X3238400D01*
G03X3253490Y1616820I2J45740D01*
G02X3280500Y1596830I6706J-19182D01*
G03X3280460Y1595000I45698J-1914D01*
G01Y1515000D01*
G03X3326200Y1469260I45740J0D01*
G01X3406200D01*
G03X3451940Y1515000I0J45740D01*
G01Y1595000D01*
G03X3451870Y1597520I-45740J-10D01*
G01X3451650Y1601610D01*
X3473800Y1627300D01*
X3489210Y1640180D01*
X3513800Y1615590D01*
X3509330Y1608690D01*
G03X3497890Y1570000I59705J-38690D01*
G03X3510690Y1529290I71138J0D01*
G03X3498860Y1490000I59312J-39284D01*
G03X3534180Y1428530I71150J0D01*
G01X3535320Y1427870D01*
X3547360Y1415830D01*
G02X3533000Y1381140I-14364J-14371D01*
G01X3500000D01*
G03X3428860Y1310000I0J-71140D01*
G03X3457160Y1253210I71131J0D01*
G02X3449320Y1235080I-6118J-8115D01*
G03X3441600Y1235740I-7742J-45078D01*
G01X3341600D01*
G03X3305870Y1218560I0J-45745D01*
G02X3274130I-15870J12687D01*
G03X3238400Y1235740I-35730J-28565D01*
G01X3138400D01*
G03X3109070Y1225090I9J-45737D01*
G01X3080410Y1201140D01*
X3039470D01*
X3001140Y1239470D01*
Y1660440D01*
G37*
G36*
G01X3081800Y1117310D02*
X3138400Y1070000D01*
X3194750Y1130000D01*
X3138400Y1190000D01*
X3081800Y1142690D01*
G03Y1117310I22010J-12690D01*
G37*
G36*
G01X3054150Y1735360D02*
X3138400Y1660000D01*
X3194540Y1718380D01*
X3138400Y1780000D01*
X3064050Y1772970D01*
G03X3054150Y1735360I10852J-22964D01*
G37*
G36*
G01X3025320Y3221240D02*
X3014550Y3210460D01*
X3032500Y3189960D01*
X3050450Y3210460D01*
X3039680Y3221240D01*
G03X3025320I-7180J-7190D01*
G37*
G36*
G01X2898320Y3224240D02*
X2887550Y3213460D01*
X2905500Y3192960D01*
X2923450Y3213460D01*
X2912680Y3224240D01*
G03X2898320I-7180J-7190D01*
G37*
G36*
G01X2678240Y3417340D02*
X2800000Y3426200D01*
X2766080Y3468040D01*
X2720000Y3506200D01*
X2659940Y3455590D01*
G03X2678240Y3417340I21769J-13088D01*
G37*
G36*
G01X2978450Y3762500D02*
X2940000Y3793800D01*
X2893650Y3753800D01*
X2940000Y3713800D01*
X2978450Y3745100D01*
G03Y3762500I-23860J8700D01*
G37*
G36*
G01X3120950Y3474900D02*
X3082500Y3506200D01*
X3036150Y3466200D01*
X3082500Y3426200D01*
X3120950Y3457500D01*
G03Y3474900I-23860J8700D01*
G37*
G36*
G01X2768700Y3235350D02*
X2800000Y3273800D01*
X2760000Y3320150D01*
X2720000Y3273800D01*
X2751300Y3235350D01*
G03X2768700I8700J23860D01*
G37*
G36*
G01X3038830Y3226020D02*
X3082500Y3273800D01*
X3042820Y3316320D01*
X3002500Y3273800D01*
X3024380Y3227860D01*
G03X3038830Y3226020I8120J6109D01*
G37*
G36*
G01X2912770Y3231370D02*
X2940000Y3273800D01*
X2899820Y3316330D01*
X2860000Y3273800D01*
X2899270Y3230450D01*
G03X2912770Y3231370I6235J8021D01*
G37*
G36*
G01X2895240Y3989530D02*
X2860000Y3946200D01*
X2899420Y3899880D01*
X2940000Y3946200D01*
X2918280Y3988240D01*
G03X2895240Y3989530I-12785J-21949D01*
G37*
G36*
G01X2589100Y4928740D02*
X2578330Y4917960D01*
X2596280Y4897460D01*
X2614230Y4917960D01*
X2603460Y4928740D01*
G03X2589100I-7180J-7190D01*
G37*
G36*
G01X2602350Y4945830D02*
X2636280Y4983800D01*
X2596280Y5026340D01*
X2556280Y4983800D01*
X2590210Y4945830D01*
G03X2602350I6070J8140D01*
G37*
G36*
G01X2646200Y5241600D02*
X2556280Y5216200D01*
X2591320Y5172230D01*
X2636280Y5136200D01*
X2671410Y5213070D01*
G03X2646200Y5241600I-25210J3127D01*
G37*
G36*
G01X3575350Y661300D02*
X3613800Y630000D01*
X3660150Y670000D01*
X3613800Y710000D01*
X3575350Y678700D01*
G03Y661300I23860J-8700D01*
G37*
G36*
G01X3585830Y803930D02*
X3623800Y770000D01*
X3666340Y810000D01*
X3623800Y850000D01*
X3585830Y816070D01*
G03Y803930I8140J-6070D01*
G37*
G36*
G01X3578740Y817180D02*
X3567960Y827950D01*
X3547460Y810000D01*
X3567960Y792050D01*
X3578740Y802820D01*
G03Y817180I-7190J7180D01*
G37*
G36*
G01X3552520Y1141790D02*
X3613800Y1090000D01*
X3659860Y1128100D01*
X3693800Y1170000D01*
X3571050Y1180200D01*
G03X3552520Y1141790I3162J-25200D01*
G37*
G36*
G01X3402810Y1022620D02*
X3441600Y1070000D01*
X3391600Y1136350D01*
X3341600Y1070000D01*
X3380390Y1022620D01*
G03X3402810I11210J22790D01*
G37*
G36*
G01X3692010Y1799980D02*
X3714410D01*
X3738970Y1775420D01*
X3735180Y1768700D01*
G03X3729260Y1746200I39819J-22506D01*
G01Y1666200D01*
G03X3731640Y1651630I45741J-8D01*
G02X3719830Y1638470I-9630J-3237D01*
G03X3710000Y1639540I-9836J-44669D01*
G01X3661460D01*
G02X3641140Y1659890I0J20320D01*
G01Y1660000D01*
G03X3620300Y1710300I-71123J0D01*
G01X3560300Y1770300D01*
G03X3548040Y1780110I-50303J-50300D01*
G01X3553470Y1798860D01*
X3679410D01*
G03X3691180Y1799840I2J71140D01*
G01X3692010Y1799980D01*
G37*
G36*
G01X3357500Y1633450D02*
X3326200Y1595000D01*
X3366200Y1548650D01*
X3406200Y1595000D01*
X3374900Y1633450D01*
G03X3357500I-8700J-23860D01*
G37*
G36*
G01X3498200Y1732690D02*
X3441600Y1780000D01*
X3385250Y1720000D01*
X3441600Y1660000D01*
X3498200Y1707310D01*
G03Y1732690I-22010J12690D01*
G37*
G36*
G01X3380240Y1588840D02*
X3441600Y1660000D01*
X3393030Y1726190D01*
X3341600Y1780000D01*
X3341060Y1606370D01*
G03X3380240Y1588840I25140J3639D01*
G37*
G36*
G01X3576110Y1563560D02*
X3630000Y1513800D01*
X3672500Y1553330D01*
X3630000Y1593800D01*
X3579300Y1579020D01*
G03X3576110Y1563560I4670J-9023D01*
G37*
G36*
G01X3597770Y1577180D02*
X3586990Y1587950D01*
X3566490Y1570000D01*
X3586990Y1552050D01*
X3597770Y1562820D01*
G03Y1577180I-7190J7180D01*
G37*
G36*
G01X3406320Y3222240D02*
X3395550Y3211460D01*
X3413500Y3190960D01*
X3431450Y3211460D01*
X3420680Y3222240D01*
G03X3406320I-7180J-7190D01*
G37*
G36*
G01X3533320Y3218740D02*
X3522550Y3207960D01*
X3540500Y3187460D01*
X3558450Y3207960D01*
X3547680Y3218740D01*
G03X3533320I-7180J-7190D01*
G37*
G36*
G01X3212820Y3498740D02*
X3202050Y3487960D01*
X3220000Y3467460D01*
X3237950Y3487960D01*
X3227180Y3498740D01*
G03X3212820I-7180J-7190D01*
G37*
G36*
G01X3419760Y3229460D02*
X3460000Y3273800D01*
X3420220Y3316330D01*
X3380000Y3273800D01*
X3406030Y3230580D01*
G03X3419760Y3229460I7473J6888D01*
G37*
G36*
G01X3341730Y3460420D02*
X3380000Y3426200D01*
X3422540Y3466190D01*
X3380000Y3506200D01*
X3341780Y3472640D01*
G03X3341730Y3460420I8091J-6143D01*
G37*
G36*
G01X3315240Y3473680D02*
X3304460Y3484450D01*
X3283960Y3466500D01*
X3304460Y3448550D01*
X3315240Y3459320D01*
G03Y3473680I-7190J7180D01*
G37*
G36*
G01X3546980Y3216650D02*
X3600000Y3273800D01*
X3560540Y3316280D01*
X3520000Y3273800D01*
X3531120Y3220570D01*
G03X3546980Y3216650I9379J3902D01*
G37*
G36*
G01X3428740Y4041900D02*
X3413500D01*
X3411700Y4014700D01*
X3438900Y4016500D01*
Y4031740D01*
G03X3428740Y4041900I-10160J0D01*
G37*
G36*
G01X3569400Y4027510D02*
X3558120Y4037780D01*
X3537960Y4019440D01*
X3558460Y4001550D01*
X3569740Y4012820D01*
G03X3569400Y4027510I-7189J7183D01*
G37*
G36*
G01X4027410Y592050D02*
X4050000Y633800D01*
X4009470Y680130D01*
X3970000Y633800D01*
X4004860Y590920D01*
G03X4027410Y592050I10136J23290D01*
G37*
G36*
G01X4148050Y1618750D02*
X4070000Y1593800D01*
X4108070Y1551280D01*
X4150000Y1513800D01*
X4162700Y1606200D01*
G03X4148050Y1618750I-12701J0D01*
G37*
G36*
G01X4223900Y1790430D02*
X4210000Y1746200D01*
X4250970Y1699920D01*
X4290000Y1746200D01*
X4251210Y1793580D01*
G03X4223900Y1790430I-11208J-22791D01*
G37*
G36*
G01X4172180Y1771260D02*
X4182950Y1782040D01*
X4165000Y1802540D01*
X4147050Y1782040D01*
X4157820Y1771260D01*
G03X4172180I7180J7190D01*
G37*
G36*
G01X3806300Y1784650D02*
X3775000Y1746200D01*
X3815000Y1699850D01*
X3855000Y1746200D01*
X3823700Y1784650D01*
G03X3806300I-8700J-23860D01*
G37*
G36*
G01X4055240Y1880950D02*
X4040000D01*
X4038200Y1853750D01*
X4065400Y1855550D01*
Y1870790D01*
G03X4055240Y1880950I-10160J0D01*
G37*
G36*
G01X4065400Y1948570D02*
Y1963810D01*
X4038200Y1965610D01*
X4040000Y1938410D01*
X4055240D01*
G03X4065400Y1948570I0J10160D01*
G37*
G36*
G01X4223210Y3120000D02*
X4830000D01*
X4890000Y3060000D01*
Y2420000D01*
X4790000Y2320000D01*
X4050000D01*
X4000000Y2370000D01*
Y3080000D01*
X4040000Y3120000D01*
X4056790D01*
X4059660Y3114630D01*
G03X4100000Y3090460I40340J21579D01*
G01X4180000D01*
G03X4220340Y3114630I0J45749D01*
G01X4223210Y3120000D01*
G37*
G36*
G01X4133930Y3254170D02*
X4100000Y3216200D01*
X4140000Y3173660D01*
X4180000Y3216200D01*
X4146070Y3254170D01*
G03X4133930I-6070J-8140D01*
G37*
G36*
G01X4147180Y3251260D02*
X4157950Y3262040D01*
X4140000Y3282540D01*
X4122050Y3262040D01*
X4132820Y3251260D01*
G03X4147180I7180J7190D01*
G37*
G36*
G01X4725740Y713800D02*
G03X4723600Y727630I-45740J3D01*
G02X4734500Y740790I9683J3074D01*
G03X4740000Y740460I5485J45411D01*
G01X4765130D01*
X4777700Y727900D01*
G03X4828000Y707060I50306J50297D01*
G01X4890000D01*
Y560000D01*
X4840000Y510000D01*
X4611620D01*
X4606420Y528890D01*
G03X4620300Y539700I-36435J61098D01*
G01X4645080Y564480D01*
X4700880Y593100D01*
G03X4725740Y633800I-20886J40700D01*
G01Y713800D01*
G37*
G36*
G01X4468010Y851560D02*
X4671990D01*
X4694260Y829290D01*
Y786200D01*
G03X4696400Y772370I45740J-3D01*
G02X4685500Y759210I-9683J-3074D01*
G03X4680000Y759540I-5485J-45411D01*
G01X4600000D01*
G03X4570000Y748330I0J-45748D01*
G03X4540000Y759540I-30000J-34538D01*
G01X4460000D01*
G03X4456650Y759420I-39J-45741D01*
G02X4445740Y769550I-751J10131D01*
G01Y829290D01*
X4468010Y851560D01*
G37*
G36*
G01X4346080Y535910D02*
X4361320D01*
X4363120Y563110D01*
X4335920Y561310D01*
Y546070D01*
G03X4346080Y535910I10160J0D01*
G37*
G36*
G01X4604320Y594970D02*
X4680000Y633800D01*
X4643790Y678900D01*
X4600000Y713800D01*
X4574600Y620000D01*
G03X4604320Y594970I25400J0D01*
G37*
G36*
G01X4565400Y620000D02*
X4540000Y713800D01*
X4496210Y678900D01*
X4460000Y633800D01*
X4535680Y594970D01*
G03X4565400Y620000I4320J25030D01*
G37*
G36*
G01X4770300Y1065630D02*
X4753650Y1070520D01*
X4737520Y1049470D01*
X4757960Y1032050D01*
X4774620Y1048700D01*
G03X4770300Y1065630I-7189J7182D01*
G37*
G36*
G01X4818740Y1007180D02*
X4807960Y1017950D01*
X4787460Y1000000D01*
X4807960Y982050D01*
X4818740Y992820D01*
G03Y1007180I-7190J7180D01*
G37*
G36*
G01X4828740Y937180D02*
X4817960Y947950D01*
X4797460Y930000D01*
X4817960Y912050D01*
X4828740Y922820D01*
G03Y937180I-7190J7180D01*
G37*
G36*
G01X4381300Y1784650D02*
X4350000Y1746200D01*
X4390000Y1699850D01*
X4430000Y1746200D01*
X4398700Y1784650D01*
G03X4381300I-8700J-23860D01*
G37*
G36*
G01X4355240Y2040950D02*
X4340000D01*
X4338200Y2013750D01*
X4365400Y2015550D01*
Y2030790D01*
G03X4355240Y2040950I-10160J0D01*
G37*
G36*
G01X4365400Y2108570D02*
Y2123810D01*
X4338200Y2125610D01*
X4340000Y2098410D01*
X4355240D01*
G03X4365400Y2108570I0J10160D01*
G37*
G36*
G01X4760000Y4000000D02*
X5660000D01*
X5690000Y3970000D01*
Y3370000D01*
X5640000Y3320000D01*
X4770000D01*
X4700000Y3390000D01*
Y3940000D01*
X4760000Y4000000D01*
G37*
G36*
G01X5514680Y1278040D02*
X5546200Y1200000D01*
X5591000Y1235840D01*
X5626200Y1280000D01*
X5540000Y1305400D01*
G03X5514680Y1278040I0J-25396D01*
G37*
G36*
G01X5446680Y1342410D02*
X5393800Y1280000D01*
X5431840Y1233960D01*
X5473800Y1200000D01*
X5485240Y1323670D01*
G03X5446680Y1342410I-25235J-2883D01*
G37*
G36*
G01X5082820Y887740D02*
X5072050Y876960D01*
X5090000Y856460D01*
X5107950Y876960D01*
X5097180Y887740D01*
G03X5082820I-7180J-7190D01*
G37*
G36*
G01X5100150Y1285650D02*
X5100920Y1306420D01*
X5079230Y1320000D01*
X5062050Y1299620D01*
X5082820Y1278850D01*
G03X5100150Y1285650I7180J7184D01*
G37*
G36*
G01X5336860Y1821460D02*
X5335300Y1834160D01*
X5307630Y1834730D01*
X5310000Y1807220D01*
X5324250D01*
G03X5336860Y1821460I0J12703D01*
G37*
G36*
G01X5368400Y1886200D02*
X5393800Y1800000D01*
X5437960Y1835200D01*
X5473800Y1880000D01*
X5395760Y1911520D01*
G03X5368400Y1886200I-1964J-25320D01*
G37*
G36*
G01X5132820Y2378740D02*
X5122050Y2367960D01*
X5140000Y2347460D01*
X5157950Y2367960D01*
X5147180Y2378740D01*
G03X5132820I-7180J-7190D01*
G37*
G36*
G01X5052740D02*
X5041970Y2367960D01*
X5059920Y2347460D01*
X5077870Y2367960D01*
X5067100Y2378740D01*
G03X5052740I-7180J-7190D01*
G37*
G36*
G01X5147180Y2871260D02*
X5157950Y2882040D01*
X5140000Y2902540D01*
X5122050Y2882040D01*
X5132820Y2871260D01*
G03X5147180I7180J7190D01*
G37*
G36*
G01X5067100Y2621340D02*
X5077870Y2632120D01*
X5059920Y2652620D01*
X5041970Y2632120D01*
X5052740Y2621340D01*
G03X5067100I7180J7190D01*
G37*
G36*
G01X5351740Y2894170D02*
X5393800Y2860000D01*
X5440130Y2899560D01*
X5393800Y2940000D01*
X5352590Y2915790D01*
G03X5351740Y2894170I22539J-11713D01*
G37*
G36*
G01X5606620Y2817300D02*
X5626200Y2860000D01*
X5585510Y2906310D01*
X5546200Y2860000D01*
X5582380Y2815580D01*
G03X5606620Y2817300I10541J23110D01*
G37*
G36*
G01X6006070Y4945830D02*
X6040000Y4983800D01*
X6000000Y5026340D01*
X5960000Y4983800D01*
X5993930Y4945830D01*
G03X6006070I6070J8140D01*
G37*
G36*
G01X5992820Y4918740D02*
X5982050Y4907960D01*
X6000000Y4887460D01*
X6017950Y4907960D01*
X6007180Y4918740D01*
G03X5992820I-7180J-7190D01*
G37*
G36*
G01X5946200Y5110800D02*
X6040000Y5136200D01*
X6005100Y5179990D01*
X5960000Y5216200D01*
X5921170Y5140520D01*
G03X5946200Y5110800I25030J-4320D01*
G37*
G36*
G01X6078450Y5184900D02*
X6040000Y5216200D01*
X5993650Y5176200D01*
X6040000Y5136200D01*
X6078450Y5167500D01*
G03Y5184900I-23860J8700D01*
G37*
G36*
G01X6156620Y3202540D02*
X6145850Y3191760D01*
X6163800Y3171260D01*
X6181750Y3191760D01*
X6170980Y3202540D01*
G03X6156620I-7180J-7190D01*
G37*
G36*
G01X6169870Y3192030D02*
X6203800Y3230000D01*
X6163800Y3272540D01*
X6123800Y3230000D01*
X6157730Y3192030D01*
G03X6169870I6070J8140D01*
G37*
G36*
G01X7590610Y4850000D02*
X7644100D01*
Y4580000D01*
G03X7660470Y4540470I55913J0D01*
G01X7740470Y4460470D01*
G03X7780000Y4444100I39530J39543D01*
G01X7791050D01*
Y4431330D01*
X7789800Y4429050D01*
G03X7774260Y4368500I110193J-60550D01*
G03X7811860Y4278830I125738J6D01*
G01X7811890Y4278800D01*
X7824540Y4266140D01*
X7820560Y4259370D01*
G03X7814260Y4236200I39441J-23166D01*
G01Y4156200D01*
G03X7825150Y4126580I45727J0D01*
G02Y4113420I-7745J-6580D01*
G03X7814260Y4083800I34837J-29620D01*
G01Y4037110D01*
X7640470Y3863330D01*
G03X7624100Y3823800I39543J-39530D01*
G01Y3110000D01*
X7287920D01*
G02X7268460Y3136190I-5J20321D01*
G03X7275740Y3185500I-163458J49325D01*
G03X6934260I-170740J0D01*
G03X6941540Y3136190I170738J15D01*
G02X6922080Y3110000I-19455J-5869D01*
G01X6430000D01*
Y3298280D01*
X6504180D01*
G03X6543710Y3314650I0J55913D01*
G01X6652530Y3423470D01*
G03X6655170Y3426300I-39533J39525D01*
G02X6685030Y3427160I15327J-13340D01*
G03X6775000Y3389260I89970J87839D01*
G03X6900740Y3515000I0J125740D01*
G03X6837110Y3624330I-125741J0D01*
G02Y3659670I10032J17670D01*
G03Y3878330I-62111J109330D01*
G02Y3913670I10032J17670D01*
G03X6900740Y4023000I-62111J109330D01*
G03X6822200Y4139540I-125733J0D01*
G01X6820290Y4140320D01*
X6810160Y4150450D01*
X6818850Y4159130D01*
X6820830Y4159910D01*
G03X6900740Y4277000I-45829J117090D01*
G03X6775000Y4402740I-125740J0D01*
G03X6657910Y4322830I0J-125739D01*
G01X6657130Y4320850D01*
X6648450Y4312160D01*
X6634580Y4326020D01*
G03X6625330Y4333820I-50317J-50286D01*
G03X6646740Y4404000I-104317J70180D01*
G03X6521000Y4529740I-125740J0D01*
G03X6460150Y4514040I-8J-125742D01*
G02X6430000Y4531820I-9832J17781D01*
G01Y4850000D01*
X6939340D01*
G02X6956950Y4819560I-7J-20318D01*
G03X6934260Y4734500I148053J-85050D01*
G03X7275740I170740J0D01*
G03X7253050Y4819560I-170743J10D01*
G02X7270660Y4850000I17617J10122D01*
G01X7489390D01*
G03X7590610I50610J50011D01*
G37*
G36*
G01X6170980Y3611260D02*
X6181750Y3622040D01*
X6163800Y3642540D01*
X6145850Y3622040D01*
X6156620Y3611260D01*
G03X6170980I7180J7190D01*
G37*
G36*
G01X6156620Y3668740D02*
X6145850Y3657960D01*
X6163800Y3637460D01*
X6181750Y3657960D01*
X6170980Y3668740D01*
G03X6156620I-7180J-7190D01*
G37*
G36*
G01X6157730Y3556970D02*
X6123800Y3519000D01*
X6163800Y3476460D01*
X6203800Y3519000D01*
X6169870Y3556970D01*
G03X6157730I-6070J-8140D01*
G37*
G36*
G01X6169870Y3692030D02*
X6203800Y3730000D01*
X6163800Y3772540D01*
X6123800Y3730000D01*
X6157730Y3692030D01*
G03X6169870I6070J8140D01*
G37*
G36*
G01X6677020Y3555960D02*
X6699110Y3489710D01*
X6777270Y3513860D01*
X6749710Y3590890D01*
X6683450Y3568810D01*
G03X6677020Y3555960I3210J-9640D01*
G37*
G36*
G01X6618980Y3601030D02*
X6596890Y3667290D01*
X6518730Y3643140D01*
X6546290Y3566110D01*
X6612550Y3588180D01*
G03X6618980Y3601030I-3210J9640D01*
G37*
G36*
G01X6395150Y3775110D02*
X6356200Y3810000D01*
X6313660Y3770040D01*
X6356200Y3730000D01*
X6395000Y3762700D01*
G03X6395150Y3775110I-7970J6302D01*
G37*
G36*
G01X6669050Y3761810D02*
X6718440Y3712450D01*
X6777540Y3769000D01*
X6718430Y3825560D01*
X6669050Y3776180D01*
G03Y3761810I7181J-7185D01*
G37*
G36*
G01X6172500Y4191550D02*
X6203800Y4230000D01*
X6163800Y4276350D01*
X6123800Y4230000D01*
X6155100Y4191550D01*
G03X6172500I8700J23860D01*
G37*
G36*
G01X6170980Y4047460D02*
X6181750Y4058240D01*
X6163800Y4078740D01*
X6145850Y4058240D01*
X6156620Y4047460D01*
G03X6170980I7180J7190D01*
G37*
G36*
G01X6157730Y4057970D02*
X6123800Y4020000D01*
X6163800Y3977460D01*
X6203800Y4020000D01*
X6169870Y4057970D01*
G03X6157730I-6070J-8140D01*
G37*
G36*
G01X6324900Y4331550D02*
X6356200Y4370000D01*
X6316200Y4416350D01*
X6276200Y4370000D01*
X6307500Y4331550D01*
G03X6324900I8700J23860D01*
G37*
G36*
G01X6398360Y4288670D02*
X6356200Y4310000D01*
X6309880Y4269400D01*
X6356200Y4230000D01*
X6399720Y4265410D01*
G03X6398360Y4288670I-23211J10313D01*
G37*
G36*
G01X6307500Y4348450D02*
X6276200Y4310000D01*
X6316200Y4263650D01*
X6356200Y4310000D01*
X6324900Y4348450D01*
G03X6307500I-8700J-23860D01*
G37*
G36*
G01X6575600Y3976000D02*
X6521000D01*
X6516510Y3891510D01*
X6601000Y3896000D01*
Y3950600D01*
G03X6575600Y3976000I-25400J0D01*
G37*
G36*
G01X6695000Y4139600D02*
Y4023000D01*
X6777690Y4017250D01*
X6775000Y4085000D01*
X6720400Y4139600D01*
X6695000D01*
G37*
G36*
G01X6679820Y4005040D02*
X6718440Y3966440D01*
X6781350Y4023000D01*
X6718440Y4079560D01*
X6679820Y4040960D01*
G03Y4005040I17960J-17960D01*
G37*
G36*
G01X6528180Y4053830D02*
X6567780Y4093430D01*
X6521000Y4152540D01*
X6474220Y4093430D01*
X6513820Y4053830D01*
G03X6528180I7180J7180D01*
G37*
G36*
G01X6394170Y3986070D02*
X6356200Y4020000D01*
X6313660Y3980000D01*
X6356200Y3940000D01*
X6394170Y3973930D01*
G03Y3986070I-8140J6070D01*
G37*
G36*
G01X6155100Y4488450D02*
X6123800Y4450000D01*
X6163800Y4403650D01*
X6203800Y4450000D01*
X6172500Y4488450D01*
G03X6155100I-8700J-23860D01*
G37*
G36*
G01X6202820Y4918740D02*
X6192050Y4907960D01*
X6210000Y4887460D01*
X6227950Y4907960D01*
X6217180Y4918740D01*
G03X6202820I-7180J-7190D01*
G37*
G36*
G01X6216070Y4945830D02*
X6250000Y4983800D01*
X6210000Y5026340D01*
X6170000Y4983800D01*
X6203930Y4945830D01*
G03X6216070I6070J8140D01*
G37*
G36*
G01X6131550Y5167500D02*
X6170000Y5136200D01*
X6216350Y5176200D01*
X6170000Y5216200D01*
X6131550Y5184900D01*
G03Y5167500I23860J-8700D01*
G37*
G36*
G01X7810000Y2990000D02*
X7840000Y3020000D01*
X8480000D01*
Y980000D01*
X8450000Y950000D01*
X7860000D01*
X7810000Y1000000D01*
Y2990000D01*
G37*
G36*
G01X7815900Y3166100D02*
G02X7845090Y3184380I20319J0D01*
G03X7899990Y3171760I54904J113121D01*
G01X7900000D01*
G03X8025740Y3297500I0J125740D01*
G01Y3297510D01*
G03X8014680Y3349070I-125741J-6D01*
G02X8027020Y3376760I18533J8336D01*
G03X8049530Y3390470I-17003J53250D01*
G01X8089530Y3430470D01*
G03X8105900Y3470000I-39543J39530D01*
G01Y4460000D01*
G03X8089530Y4499530I-55913J0D01*
G01X8049530Y4539530D01*
G03X8029660Y4552330I-39524J-39533D01*
G02X8017780Y4578460I7152J19017D01*
G03X8025740Y4622480I-117782J44028D01*
G01Y4622500D01*
G03X7900000Y4748240I-125740J0D01*
G03X7793440Y4689250I0J-125740D01*
G02X7755900Y4700030I-17220J10786D01*
G01Y4850000D01*
X8480000D01*
Y3110000D01*
X7815900D01*
Y3166100D01*
G37*
G36*
G01X7892820Y3657450D02*
X7843440Y3608070D01*
X7900000Y3548960D01*
X7956560Y3608070D01*
X7907180Y3657450D01*
G03X7892820I-7180J-7180D01*
G37*
G36*
G01X7906070Y3665830D02*
X7940000Y3703800D01*
X7900000Y3746340D01*
X7860000Y3703800D01*
X7893930Y3665830D01*
G03X7906070I6070J8140D01*
G37*
G36*
G01X7907180Y4262550D02*
X7956560Y4311930D01*
X7900000Y4371040D01*
X7843440Y4311930D01*
X7892820Y4262550D01*
G03X7907180I7180J7180D01*
G37*
G36*
G01X7893930Y4274170D02*
X7860000Y4236200D01*
X7900000Y4193660D01*
X7940000Y4236200D01*
X7906070Y4274170D01*
G03X7893930I-6070J-8140D01*
G37*
G36*
G01X7532820Y4928740D02*
X7522050Y4917960D01*
X7540000Y4897460D01*
X7557950Y4917960D01*
X7547180Y4928740D01*
G03X7532820I-7180J-7190D01*
G37*
G36*
G01X7546070Y4945830D02*
X7580000Y4983800D01*
X7540000Y5026340D01*
X7500000Y4983800D01*
X7533930Y4945830D01*
G03X7546070I6070J8140D01*
G37*
G36*
G01X7707180Y5171260D02*
X7717950Y5182040D01*
X7700000Y5202540D01*
X7682050Y5182040D01*
X7692820Y5171260D01*
G03X7707180I7180J7190D01*
G37*
%LPC*%
G75*
G36*
G01X1134260Y2818950D02*
Y2928950D01*
X1211050Y3005740D01*
X1618950D01*
X1665740Y2958950D01*
Y2371050D01*
X1558950Y2264260D01*
X1373260D01*
G03X1354500Y2236120I-5J-20320D01*
G02X1365740Y2180000I-134499J-56124D01*
G02X1220000Y2034260I-145740J0D01*
G01X1203080D01*
G03X1187770Y2000580I-2J-20319D01*
G02X1239740Y1862000I-158779J-138580D01*
G02X1029000Y1651260I-210740J0D01*
G02X821380Y1825840I0J210746D01*
G01X819920Y1834260D01*
X244260D01*
Y2445740D01*
X663070D01*
G03X679820Y2477550I-7J20318D01*
G02X654260Y2560000I120182J82444D01*
G01Y2760000D01*
G02X945740I145740J0D01*
G01Y2679480D01*
G03X980430Y2665110I20321J0D01*
G01X1134260Y2818950D01*
G37*
G36*
G01X4625010Y1589890D02*
X4628860Y1597860D01*
Y1700000D01*
G02X4771140I71140J0D01*
G01Y1611810D01*
X4781670Y1598880D01*
G02X4791450Y1576690I-35468J-28883D01*
G01X4797060Y1538750D01*
X4798420Y1536800D01*
G02X4811140Y1496200I-58434J-40600D01*
G01Y1338800D01*
G02X4791940Y1290190I-71135J0D01*
G01Y1265000D01*
G02X4746200Y1219260I-45740J0D01*
G01X4666200D01*
G02X4620460Y1265000I0J45740D01*
G01Y1345000D01*
G02X4660060Y1390330I45745J0D01*
G01X4668860Y1391520D01*
Y1416750D01*
X4631520Y1460180D01*
G02X4620460Y1490000I34670J29820D01*
G01Y1570000D01*
G02X4625010Y1589890I45749J0D01*
G37*
G36*
G01X4675060Y2976290D02*
Y2996200D01*
G02X4817340I71140J0D01*
G01Y2974200D01*
X4821670Y2968880D01*
G02X4831940Y2940000I-35471J-28880D01*
G01Y2860000D01*
G02X4786200Y2814260I-45740J0D01*
G01X4706200D01*
G02X4700690Y2814590I-25J45742D01*
G03X4678420Y2789950I-2450J-20170D01*
G02X4679540Y2779880I-44621J-10060D01*
G01Y2699880D01*
G02X4668380Y2669940I-45741J0D01*
G02X4679540Y2640000I-34581J-29940D01*
G01Y2560000D01*
G02X4668330Y2530000I-45748J0D01*
G02X4679540Y2500000I-34538J-30000D01*
G01Y2420000D01*
G02X4633800Y2374260I-45740J0D01*
G01X4553800D01*
G02X4533480Y2379020I0J45752D01*
G01X4526950Y2382260D01*
X4518950Y2374260D01*
X4204260D01*
Y2401650D01*
X4203570Y2403420D01*
G02X4200460Y2420000I42641J16580D01*
G01Y2500000D01*
G02X4203570Y2516580I45751J0D01*
G01X4204260Y2518350D01*
Y2541650D01*
X4203570Y2543420D01*
G02X4200460Y2560000I42641J16580D01*
G01Y2640000D01*
G02X4225320Y2680700I45746J0D01*
G01X4226740Y2681420D01*
X4251050Y2705740D01*
X4399610D01*
G03X4419690Y2729160I-1J20319D01*
G02X4418860Y2740000I70310J10835D01*
G02X4455520Y2802230I71147J0D01*
G03Y2837770I-9847J17770D01*
G02X4418860Y2900000I34487J62230D01*
G02X4490000Y2971140I71140J0D01*
G02X4509740Y2968350I12J-71142D01*
G01X4515130Y2966790D01*
X4523320Y2974110D01*
G02X4553800Y2985740I30475J-34112D01*
G01X4633800D01*
G02X4659250Y2978010I6J-45742D01*
G01X4661810Y2976290D01*
X4675060D01*
G37*
G36*
G01X5174260Y3729480D02*
Y3778950D01*
X5221050Y3825740D01*
X5478950D01*
X5525740Y3778950D01*
Y3384260D01*
X5231050D01*
X5180000Y3435310D01*
X5128950Y3384260D01*
X4874260D01*
Y3715740D01*
X5138950D01*
X5139570Y3715110D01*
G03X5174260Y3729480I14369J14370D01*
G37*
G54D44*
X360000Y5040000D03*
X7410000Y4530000D03*
Y3390000D03*
G54D43*
X1470000Y4900000D03*
%LPD*%
G75*
G36*
G01X1230000Y2960000D02*
X1600000D01*
X1620000Y2940000D01*
Y2390000D01*
X1540000Y2310000D01*
X1285880D01*
G03X1220000Y2325740I-65880J-130001D01*
G01X1020000D01*
G03X875430Y2198440I0J-145741D01*
G01X874990Y2194990D01*
X790000Y2110000D01*
Y1880000D01*
X290000D01*
Y2400000D01*
X780000D01*
X794310Y2414310D01*
X798580Y2414270D01*
G03X800000Y2414260I1736J145728D01*
G03X945740Y2560000I0J145740D01*
G01Y2565740D01*
X1180000Y2800000D01*
Y2910000D01*
X1230000Y2960000D01*
G37*
G36*
G01X4270000Y2660000D02*
X4500000D01*
X4509100Y2650900D01*
X4508450Y2645940D01*
G03X4508060Y2640000I45349J-5960D01*
G01Y2560000D01*
G03X4519270Y2530000I45748J0D01*
G03X4508060Y2500000I34538J-30000D01*
G01Y2428060D01*
X4500000Y2420000D01*
X4250000D01*
Y2640000D01*
X4270000Y2660000D01*
G37*
G36*
G01X4765370Y1440380D02*
X4746200Y1570000D01*
X4703930Y1535930D01*
X4666200Y1490000D01*
X4726070Y1420370D01*
G03X4765370Y1440380I13930J21240D01*
G37*
G36*
G01X4686690Y1612420D02*
X4666200Y1570000D01*
X4706840Y1523680D01*
X4746200Y1570000D01*
X4710420Y1613950D01*
G03X4686690Y1612420I-10421J-23161D01*
G37*
G36*
G01X4585100Y2538450D02*
X4553800Y2500000D01*
X4593800Y2453650D01*
X4633800Y2500000D01*
X4602500Y2538450D01*
G03X4585100I-8700J-23860D01*
G37*
G36*
G01X4602500Y2521550D02*
X4633800Y2560000D01*
X4593800Y2606350D01*
X4553800Y2560000D01*
X4585100Y2521550D01*
G03X4602500I8700J23860D01*
G37*
G36*
G01X4585100Y2678450D02*
X4553800Y2640000D01*
X4593800Y2593650D01*
X4633800Y2640000D01*
X4602500Y2678450D01*
G03X4585100I-8700J-23860D01*
G37*
G36*
G01X4737500Y2978450D02*
X4706200Y2940000D01*
X4746200Y2893650D01*
X4786200Y2940000D01*
X4754900Y2978450D01*
G03X4737500I-8700J-23860D01*
G37*
G36*
G01X4515830Y2893930D02*
X4553800Y2860000D01*
X4596340Y2900000D01*
X4553800Y2940000D01*
X4515830Y2906070D01*
G03Y2893930I8140J-6070D01*
G37*
G36*
G01X4518740Y2907180D02*
X4507960Y2917950D01*
X4487460Y2900000D01*
X4507960Y2882050D01*
X4518740Y2892820D01*
G03Y2907180I-7190J7180D01*
G37*
G36*
G01X4515240Y2731260D02*
X4553800Y2699880D01*
X4600150Y2739870D01*
X4553800Y2779880D01*
X4515260Y2748790D01*
G03X4515240Y2731260I23830J-8792D01*
G37*
G36*
G01X4602500Y2661430D02*
X4633800Y2699880D01*
X4593800Y2746230D01*
X4553800Y2699880D01*
X4585100Y2661430D01*
G03X4602500I8700J23860D01*
G37*
G36*
G01X4920000Y3430000D02*
Y3670000D01*
X5120000D01*
X5140000Y3650000D01*
Y3460000D01*
X5110000Y3430000D01*
X4920000D01*
G37*
G36*
G01X5250000D02*
X5220000Y3460000D01*
Y3760000D01*
X5240000Y3780000D01*
X5460000D01*
X5480000Y3760000D01*
Y3430000D01*
X5250000D01*
G37*
%LPC*%
G75*
G54D45*
X1400000Y2660000D03*
%LPD*%
G75*
G54D10*
G01X223800Y3670000D02*
X116900Y3563100D01*
G01X376200Y3670000D02*
X577000D01*
X580000Y3673000D01*
G01X376200Y4181000D02*
X580000D01*
G01X1165500Y3315500D02*
X1241700D01*
X1270000Y3343800D01*
G01X1230000Y3840000D02*
X1370000D01*
X1420000Y3790000D01*
Y3552500D01*
G01X1916200Y660000D02*
X2040000D01*
X2100000Y600000D01*
G01X1916200Y520000D02*
X2020000D01*
X2100000Y600000D01*
G01X1506200Y520000D02*
X1630000D01*
G01X2020000Y3696500D02*
Y3310000D01*
X1890000Y3180000D01*
X1470000D01*
X1420000Y3230000D01*
Y3287500D01*
G01X1710000Y3840000D02*
X1560000D01*
X1520000Y3800000D01*
Y3552500D01*
G01X1923500Y3823500D02*
Y3363500D01*
X1847500Y3287500D01*
X1520000D01*
G01X2760000Y3466200D02*
X2736300Y3442500D01*
X2460000D01*
G01X2390000Y5176200D02*
X2596280D01*
G01X3188400Y1130000D02*
X3010000D01*
X2930000Y1210000D01*
Y1750000D01*
X3050000Y1870000D01*
X3679410D01*
X3680530Y1871120D01*
X3739470D01*
X3740590Y1870000D01*
X3745000D01*
X3815000Y1800000D01*
G01X3040000Y1750000D02*
X3170000D01*
X3188400Y1731600D01*
Y1720000D01*
G01X2760000Y3200000D02*
Y3313800D01*
G01X3042500Y3466200D02*
X3146200D01*
G01X2900000Y3753800D02*
X3031200D01*
X3032500Y3752500D01*
G01X2730000Y3950000D02*
Y3923800D01*
X2900000Y3753800D01*
G01Y3906200D02*
X2905500Y3911700D01*
Y4014500D01*
G01X2706200Y4120000D02*
X2800000D01*
X2905500Y4014500D01*
G01X2710000Y5280000D02*
X2606200Y5176200D01*
X2596280D01*
G01X3550000Y670000D02*
X3653800D01*
G01X3570000Y1490000D02*
X3573800D01*
X3653800Y1410000D01*
G01X3500000Y1310000D02*
X3613800D01*
X3653800Y1270000D01*
G01Y1130000D02*
X3628800Y1155000D01*
X3505000D01*
G01X3555000Y905000D02*
X3608800D01*
X3653800Y950000D01*
G01X3391600Y1130000D02*
Y1028400D01*
X3515000Y905000D01*
X3555000D01*
G01X3366200Y1555000D02*
Y1694600D01*
X3391600Y1720000D01*
G01D02*
X3510000D01*
X3570000Y1660000D01*
G01X3560000Y3466200D02*
Y3550000D01*
G01X4280000Y560000D02*
Y613800D01*
X4220000Y673800D01*
G01X4015000Y560000D02*
Y668800D01*
X4010000Y673800D01*
G01X4440000Y560000D02*
Y593800D01*
X4360000Y673800D01*
G01X4240000Y1800000D02*
Y1716200D01*
X4250000Y1706200D01*
G01X3915000Y1800000D02*
Y1751200D01*
X3960000Y1706200D01*
G01X3815000Y1800000D02*
Y1706200D01*
G01X4880000Y778200D02*
X4828000D01*
X4780000Y826200D01*
G01X4640000Y673800D02*
Y660000D01*
X4570000Y590000D01*
G01D02*
X4500000Y660000D01*
Y673800D01*
G01X4720000Y1318800D02*
X4706200Y1305000D01*
G01X4740000Y1340000D02*
Y1338800D01*
X4720000Y1318800D01*
G01X4740000Y1430000D02*
Y1340000D01*
G01Y1430000D02*
Y1496200D01*
X4706200Y1530000D01*
G01X4700000Y1700000D02*
Y1536200D01*
X4706200Y1530000D01*
G01X4390000Y1800000D02*
Y1706200D01*
G01X4593800Y2600000D02*
Y2739880D01*
G01Y2460000D02*
Y2600000D01*
G01X4746200Y2900000D02*
Y2996200D01*
G01X4490000Y2740000D02*
X4593680D01*
X4593800Y2739880D01*
G01X5540000Y1350000D02*
Y1280000D01*
X5580000Y1240000D01*
X5586200D01*
G01X5433800D02*
X5460000Y1266200D01*
Y1350000D01*
G01X5320380Y1959620D02*
X5433800Y1846200D01*
Y1840000D01*
G01X5324080Y2904080D02*
X5429720D01*
X5433800Y2900000D01*
G01X5586200D02*
X5592920Y2893280D01*
Y2777080D01*
G01X6210000Y5176200D02*
X6000000D01*
G01X5870000Y5120000D02*
X5930000D01*
X5986200Y5176200D01*
X6000000D01*
G01X6163800Y4270000D02*
Y4180000D01*
G01X6775000Y4023000D02*
X6648000D01*
X6521000Y3896000D01*
G01X6316200Y4410000D02*
Y4270000D01*
G01D02*
X6321920Y4275720D01*
X6584280D01*
X6775000Y4085000D01*
Y4023000D01*
G01X6163800Y4410000D02*
Y4516200D01*
G01X7540000Y5176200D02*
X7428100Y5288100D01*
X170000Y730000D03*
X180000Y1350000D03*
X130000Y1720000D03*
X140000Y2450000D03*
Y2740000D03*
X116900Y3563100D03*
X420000Y1720000D03*
X720000D03*
X1320000D03*
X1165500Y3315500D03*
X1630000Y520000D03*
X1870000Y1260000D03*
X1560000Y1850000D03*
X1750000D03*
X1950000D03*
X1560000Y2060000D03*
X1740000Y2600000D03*
Y2860000D03*
X1923500Y3823500D03*
X2130000Y140000D03*
X2570000Y550000D03*
Y800000D03*
X2100000Y600000D03*
Y800000D03*
X2210000D03*
X2570000Y1100000D03*
X2100000Y990000D03*
X2210000D03*
X2100000Y890000D03*
X2210000D03*
X2500000Y1950000D03*
X2464030Y1580000D03*
X2290000Y2590000D03*
Y2860000D03*
X2460000Y3442500D03*
X2020000Y3696500D03*
X2390000Y4900000D03*
X2500000D03*
X2900000Y550000D03*
X2890000Y1100000D03*
X3040000Y1560000D03*
X2720000Y1950000D03*
X2890000D03*
X3080000D03*
X2890000Y1830000D03*
X2640000Y1580000D03*
X3040000Y1750000D03*
X2760000Y3200000D03*
X3032500Y3192500D03*
X2905500Y3195500D03*
X3146200Y3466200D03*
X3032500Y3752500D03*
X2820000Y3630000D03*
X2740000D03*
X2905500Y4014500D03*
X2596280Y4900000D03*
X2710000Y5280000D03*
X3420000Y130000D03*
X3400000Y580000D03*
X3230000D03*
X3550000Y670000D03*
Y810000D03*
X3320000Y990000D03*
X3500000Y1310000D03*
X3505000Y1155000D03*
X3555000Y905000D03*
X3210000Y1450000D03*
X3710000Y1800000D03*
X3570000Y1490000D03*
Y1660000D03*
X3569030Y1570000D03*
X3710000Y3120000D03*
X3413500Y3193500D03*
X3540500Y3190000D03*
X3560000Y3550000D03*
X3220000Y3470000D03*
X3286500Y3466500D03*
X3413500Y4016500D03*
X3540500Y4019500D03*
X4280000Y560000D03*
X4015000D03*
X4240000Y1800000D03*
X3915000D03*
X4165000D03*
X3815000D03*
X4340000Y2015550D03*
X4040000Y1855550D03*
Y1963810D03*
X4290000Y2350000D03*
X4340000Y2123810D03*
X3770000Y3120000D03*
Y3180000D03*
X4140000Y3280000D03*
X3910000Y3550000D03*
X3830000D03*
X4780000Y540000D03*
X4880000Y778200D03*
X4440000Y560000D03*
X4361320Y561310D03*
X4570000Y590000D03*
X4740000Y1430000D03*
Y1050000D03*
X4790000Y1000000D03*
X4800000Y930000D03*
X4700000Y1700000D03*
X4390000Y1800000D03*
X4740000Y2350000D03*
X4400000Y2580000D03*
X4480000D03*
X4590000Y3060000D03*
X4746200Y2996200D03*
X4490000Y2900000D03*
Y2740000D03*
X4730000Y3550000D03*
X4440000Y3770000D03*
X4770000Y3940000D03*
X5460000Y780000D03*
X5540000Y1350000D03*
X5460000D03*
X5080000Y1317580D03*
X5090000Y859000D03*
X5310000Y1832620D03*
X5320380Y1959620D03*
X5140000Y2350000D03*
X5059920D03*
X5140000Y2900000D03*
X5059920Y2650080D03*
X5324080Y2904080D03*
X5320080Y2650080D03*
X5190000Y3350000D03*
X5290000Y3730000D03*
Y3650000D03*
Y3570000D03*
Y3490000D03*
X5080000Y3620000D03*
Y3550000D03*
Y3470000D03*
X4990000Y3940000D03*
X5210000D03*
X5592920Y2777080D03*
X5630000Y3730000D03*
X5620000Y3380000D03*
X5630000Y3930000D03*
X6000000Y4890000D03*
X5870000Y5120000D03*
X6310000Y1410000D03*
Y1640000D03*
Y2550000D03*
X6163800Y3173800D03*
X6480000Y3190000D03*
X6163800Y3640000D03*
Y4180000D03*
Y4076200D03*
Y4516200D03*
X6480000Y4660000D03*
X6210000Y4890000D03*
X6880000Y3190000D03*
X7100000Y3560000D03*
X7090000Y4360000D03*
X6880000Y4660000D03*
X7910000Y2900000D03*
X7440000Y3830000D03*
Y4230000D03*
X7540000Y4900000D03*
X7428100Y5288100D03*
X7700000Y5200000D03*
X7940000Y120000D03*
X8340000Y1130000D03*
X8350000Y1730000D03*
X8360000Y2270000D03*
X8100000Y2710000D03*
X8360000D03*
X8290000Y3540000D03*
Y4370000D03*
Y3970000D03*
Y4740000D03*
G54D20*
X1029000Y658000D03*
Y1862000D03*
X6870000Y675000D03*
Y2005000D03*
X7450000Y675000D03*
Y2005000D03*
G54D11*
X155000Y2026000D03*
Y2234000D03*
G54D30*
X2553800Y4120000D03*
X2706200D03*
G54D21*
X1300000Y1135000D03*
Y1385000D03*
X1500000D03*
X6435000Y320000D03*
X6185000D03*
X6435000Y960000D03*
X6185000D03*
X6650000Y2590000D03*
X6435000Y2090000D03*
X6185000D03*
X6920000Y1445000D03*
Y1245000D03*
X7180000Y1445000D03*
Y1245000D03*
Y1695000D03*
X6920000D03*
X6850000Y2590000D03*
X7050000D03*
G54D12*
X223800Y3670000D03*
Y4181000D03*
X376200Y3670000D03*
Y4181000D03*
X1353800Y520000D03*
X1270000Y3343800D03*
Y3496200D03*
X1916200Y800000D03*
X1763800D03*
Y660000D03*
X1916200D03*
X1506200Y520000D03*
X1763800D03*
X1916200D03*
X2390000Y5023800D03*
Y5176200D03*
X2596280Y5023800D03*
Y5176200D03*
X3042500Y3466200D03*
Y3313800D03*
X2900000Y3753800D03*
Y3313800D03*
Y3466200D03*
X2760000Y3313800D03*
Y3466200D03*
X2900000Y3906200D03*
X3663800Y810000D03*
X3653800Y670000D03*
Y1270000D03*
Y1410000D03*
Y1130000D03*
Y950000D03*
X3670000Y1706200D03*
Y1553800D03*
X3213800Y1555000D03*
X3366200D03*
X3560000Y3466200D03*
Y3313800D03*
X3420000Y3466200D03*
Y3313800D03*
X3816200Y810000D03*
X4360000Y673800D03*
Y826200D03*
X4220000D03*
Y673800D03*
X4010000Y826200D03*
Y673800D03*
X3806200Y670000D03*
Y1270000D03*
Y1410000D03*
Y1130000D03*
Y950000D03*
X4110000Y1553800D03*
Y1706200D03*
X3815000Y1553800D03*
Y1706200D03*
X4250000Y1553800D03*
Y1706200D03*
X3960000Y1553800D03*
Y1706200D03*
X4133800Y2460000D03*
X4286200D03*
X4133800Y2600000D03*
X4286200D03*
X4140000Y3176200D03*
Y3023800D03*
X4640000Y826200D03*
Y673800D03*
X4780000D03*
Y826200D03*
X4500000D03*
Y673800D03*
X4553800Y1305000D03*
X4706200D03*
X4390000Y1553800D03*
Y1706200D03*
X4553800Y1530000D03*
X4706200D03*
X4746200Y2600000D03*
X4593800D03*
X4746200Y2460000D03*
X4593800D03*
X4746200Y2900000D03*
X4593800D03*
X4746200Y2739880D03*
X4593800D03*
X4813800Y3620000D03*
X4966200D03*
X4813800Y3479000D03*
X4966200D03*
X5433800Y1240000D03*
Y1840000D03*
Y2900000D03*
Y3620000D03*
Y3479000D03*
X5586200Y1240000D03*
Y1840000D03*
Y2900000D03*
Y3620000D03*
Y3479000D03*
X6000000Y5023800D03*
Y5176200D03*
X6316200Y3479000D03*
X6163800D03*
X6316200Y3770000D03*
X6163800D03*
X6316200Y3270000D03*
X6163800D03*
X6316200Y3980000D03*
X6163800D03*
Y4410000D03*
X6316200D03*
Y4270000D03*
X6163800D03*
X6210000Y5023800D03*
Y5176200D03*
X7900000Y3743800D03*
Y3896200D03*
Y4043800D03*
Y4196200D03*
X7540000Y5023800D03*
Y5176200D03*
G54D40*
G01X1400000Y3120000D02*
X1950000D01*
G01X3815000Y1553800D02*
X3670000Y1698800D01*
G01D02*
Y1706200D01*
G01X4110000Y1553800D02*
Y1566200D01*
X4250000Y1706200D01*
G01X4640000Y826200D02*
Y813800D01*
G01D02*
X4780000Y673800D01*
G01X4360000Y826200D02*
X4443800Y910000D01*
X4696200D01*
X4780000Y826200D01*
G01X4720000Y1318800D02*
Y1320000D01*
X4740000Y1340000D01*
G01X5586200Y1840000D02*
X5496200Y1750000D01*
X5394170D01*
X5311550Y1832620D01*
X5310000D01*
G54D31*
X3050000Y4470000D03*
X5550000D03*
G54D13*
X540000Y2135000D03*
G54D22*
X1120000Y2180000D03*
G54D41*
G01X800000Y2660000D02*
Y2915900D01*
G01X644100Y2660000D02*
X800000D01*
G01X580000Y3927000D02*
Y4052900D01*
G01X454100Y3927000D02*
X580000D01*
G01D02*
X705900D01*
G01X1029000Y1641100D02*
Y1862000D01*
G01D02*
X1249900D01*
G01X1400000Y2404100D02*
Y2660000D01*
G01D02*
Y2915900D01*
G01X1244100Y2660000D02*
X1400000D01*
G01D02*
X1555900D01*
G01X1324100Y4900000D02*
X1470000D01*
G01Y4754100D02*
Y4900000D01*
G01D02*
Y5045900D01*
G01Y4900000D02*
X1615900D01*
G01X6521000Y4404000D02*
Y4539900D01*
G01Y4404000D02*
X6656900D01*
G01X7105000Y3185500D02*
Y3366400D01*
G01X6924100Y3185500D02*
X7105000D01*
G01D02*
X7285900D01*
G01X7105000Y4553600D02*
Y4734500D01*
G01X6924100D02*
X7105000D01*
G01D02*
X7285900D01*
G54D32*
X3746000Y4328000D03*
X4300000D03*
X4023000D03*
X4161500Y4612000D03*
X3884500D03*
X4577000Y4328000D03*
X4715500Y4612000D03*
X4438500D03*
X6521000Y3642000D03*
X6775000Y3769000D03*
Y3515000D03*
X6521000Y4404000D03*
Y4150000D03*
Y3896000D03*
X6775000Y4277000D03*
Y4023000D03*
X7900000Y3551500D03*
Y3297500D03*
Y4368500D03*
Y4622500D03*
G54D14*
X800000Y2660000D03*
X1400000D03*
G54D23*
X1420000Y3287500D03*
Y3552500D03*
X1520000Y3287500D03*
Y3552500D03*
G54D42*
G01X962000Y4900000D02*
Y4812000D01*
X850000Y4700000D01*
G01X1250000Y4180000D02*
X1230000Y4160000D01*
Y3840000D01*
G01X850000Y4180000D02*
X1250000D01*
G01D02*
X1230000Y4200000D01*
G01X962000Y4900000D02*
Y5156950D01*
X965050Y5160000D01*
G01X1710000Y4180000D02*
Y3840000D01*
G01X2030000Y4180000D02*
X1710000D01*
G01D02*
X1690000Y4200000D01*
X1650000D01*
G01X1978000Y4900000D02*
Y5160000D01*
G01Y4900000D02*
Y4792000D01*
X2030000Y4740000D01*
Y4700000D01*
G54D15*
X580000Y3419000D03*
G54D24*
X1230000Y3840000D03*
X1710000D03*
G54D33*
X4190000Y1180000D03*
X3970000Y1410000D03*
Y960000D03*
X4190000D03*
Y1410000D03*
X3970000Y1180000D03*
X4190000Y2841080D03*
X4110000Y2920000D03*
X4270000D03*
X4110000Y2770000D03*
X4410000Y1410000D03*
X4400000Y960000D03*
X4410000Y1180000D03*
G54D34*
X4854000Y4328000D03*
G54D16*
X580000Y3673000D03*
Y4181000D03*
Y3927000D03*
G54D25*
X1230000Y4200000D03*
Y4680000D03*
X1650000Y4200000D03*
Y4680000D03*
G54D17*
X850000Y4180000D03*
Y4700000D03*
X2030000Y4180000D03*
Y4700000D03*
G54D26*
X1434950Y5160000D03*
X965050D03*
X1978000D03*
X1508100D03*
G54D35*
G01X1768400Y960000D02*
X1675000D01*
X1500000Y1135000D01*
G01X6435000Y320000D02*
X6245000Y510000D01*
X5410000D01*
X5200000Y720000D01*
Y1810000D01*
X5150000Y1860000D01*
G01X6435000Y960000D02*
X6295000Y1100000D01*
X5396200D01*
X5320000Y1176200D01*
Y1705620D01*
G01X6435000Y320000D02*
X7020000D01*
X7180000Y480000D01*
Y995000D01*
G01X6435000Y960000D02*
X6470000Y995000D01*
X6920000D01*
G01X7250000Y2590000D02*
Y2570000D01*
X7000000Y2320000D01*
X6849050D01*
X6619050Y2090000D01*
X6435000D01*
G01D02*
Y2205800D01*
X6431080Y2209720D01*
Y2770000D01*
X6170000Y3031080D01*
X5150000Y1860000D03*
X5320000Y1705620D03*
X6170000Y3031080D03*
G54D18*
X1458000Y280000D03*
X1204000D03*
X962000Y4900000D03*
X1978000D03*
X1470000D03*
X3052000Y2730000D03*
X3306000D03*
X6744000Y5130000D03*
X7252000D03*
X6998000D03*
G54D36*
X6623000Y2318000D03*
Y2862000D03*
X7323000Y2318000D03*
Y2862000D03*
G54D27*
X1971600Y960000D03*
X1768400D03*
X3188400Y1130000D03*
Y1720000D03*
X3391600Y1130000D03*
Y1720000D03*
G54D19*
X950000Y280000D03*
X3560000Y2730000D03*
X6490000Y5130000D03*
G54D28*
X1500000Y1135000D03*
X6920000Y995000D03*
X7180000D03*
X7250000Y2590000D03*
G54D37*
X7105000Y3185500D03*
Y4734500D03*
G54D38*
X8100000Y2900000D03*
Y3180000D03*
X8350000D03*
Y2900000D03*
G54D29*
X2530000Y3950000D03*
X2630000Y3710000D03*
X2730000Y3950000D03*
G54D39*
G01X4361320Y561310D02*
X4250010Y450000D01*
X2050000D01*
X1750000Y150000D01*
X1320000D01*
X1204000Y266000D01*
Y280000D01*
G01X1353800Y520000D02*
X1190000D01*
X950000Y280000D01*
G01X1763800Y660000D02*
Y520000D01*
G01Y800000D02*
Y660000D01*
G01Y520000D02*
Y393800D01*
X1650000Y280000D01*
X1458000D01*
G01X1768400Y960000D02*
Y947800D01*
X1916200Y800000D01*
G01X2500000Y4900000D02*
X2424440Y4824440D01*
Y3655560D01*
X2505880Y3574120D01*
X2764120D01*
X2820000Y3630000D01*
G01X2553800Y4120000D02*
X2460000Y4026200D01*
Y3890000D01*
X2630000Y3720000D01*
Y3710000D01*
G01X2820000Y3630000D02*
Y3730000D01*
X2730000Y3820000D01*
X2650000D01*
X2530000Y3940000D01*
Y3950000D01*
G01X2390000Y4900000D02*
Y5023800D01*
G01X3032500Y3192500D02*
Y3303800D01*
X3042500Y3313800D01*
G01X2905500Y3195500D02*
Y3308300D01*
X2900000Y3313800D01*
G01X3220000Y3470000D02*
Y3520000D01*
X3180000Y3560000D01*
X2993800D01*
X2900000Y3466200D01*
G01X2630000Y3710000D02*
Y3690000D01*
X2690000Y3630000D01*
X2740000D01*
G01X2596280Y5023800D02*
Y4900000D01*
G01X3550000Y810000D02*
X3663800D01*
G01X3569030Y1570000D02*
X3653800D01*
X3670000Y1553800D01*
G01X3413500Y3193500D02*
Y3307300D01*
X3420000Y3313800D01*
G01X3560000D02*
X3540500Y3294300D01*
Y3190000D01*
G01X3286500Y3466500D02*
X3419700D01*
X3420000Y3466200D01*
G01X3910000Y3550000D02*
Y3980000D01*
X3814620Y4075380D01*
X3472380D01*
X3413500Y4016500D01*
G01X3830000Y3550000D02*
Y3970000D01*
X3780000Y4020000D01*
X3541000D01*
X3540500Y4019500D01*
G01X4165000Y1800000D02*
Y1761200D01*
X4110000Y1706200D01*
G01X4340000Y2015550D02*
X4373810Y2049360D01*
X5676840D01*
X6030640Y2403160D01*
Y3320000D01*
X6064820Y3354180D01*
X6232020D01*
X6316200Y3270000D01*
G01X4040000Y1855550D02*
X4073810Y1889360D01*
X4126520D01*
X4170640Y1933480D01*
Y2133160D01*
X4247480Y2210000D01*
X5597480D01*
X5840640Y2453160D01*
Y3743160D01*
X5957480Y3860000D01*
X6226200D01*
X6316200Y3770000D01*
G01X4040000Y1963810D02*
X4073810Y1930000D01*
X4109680D01*
X4130000Y1950320D01*
Y2150000D01*
X4230640Y2250640D01*
X5580640D01*
X5800000Y2470000D01*
Y3760000D01*
X5940640Y3900640D01*
X6236840D01*
X6316200Y3980000D01*
G01X4340000Y2123810D02*
X4373810Y2090000D01*
X5660000D01*
X5990000Y2420000D01*
Y3336840D01*
X6047980Y3394820D01*
X6232020D01*
X6316200Y3479000D01*
G01X4140000Y3280000D02*
Y3176200D01*
G01X4740000Y1050000D02*
X4745880Y1055880D01*
X4887580D01*
X5030000Y913460D01*
Y433430D01*
X5303430Y160000D01*
X7526570D01*
X7680000Y313430D01*
Y3823800D01*
X7900000Y4043800D01*
G01X4790000Y1000000D02*
X4880000D01*
X4990000Y890000D01*
Y416860D01*
X5286860Y120000D01*
X7543140D01*
X7720000Y296860D01*
Y3716200D01*
X7900000Y3896200D01*
G01X4800000Y930000D02*
X4890000D01*
X4950000Y870000D01*
Y400000D01*
X5270000Y80000D01*
X7560000D01*
X7760000Y280000D01*
Y3350000D01*
X7840000Y3430000D01*
X8010000D01*
X8050000Y3470000D01*
Y4460000D01*
X8010000Y4500000D01*
X7780000D01*
X7700000Y4580000D01*
Y5200000D01*
G01X4490000Y2900000D02*
X4593800D01*
G01X5080000Y1317580D02*
X5090000Y1307580D01*
Y859000D01*
G01X5140000Y2350000D02*
Y2900000D01*
G01X5059920Y2650080D02*
Y2350000D01*
G01X6000000Y4890000D02*
Y5023800D01*
G01X6163800Y3270000D02*
Y3173800D01*
G01Y3479000D02*
Y3640000D01*
G01D02*
Y3770000D01*
G01X6316200Y3270000D02*
X6400380Y3354180D01*
X6504180D01*
X6613000Y3463000D01*
X6657100Y3551230D01*
X6684350Y3560330D01*
X6775000Y3515000D01*
G01X6316200Y3479000D02*
X6400380Y3394820D01*
X6487340D01*
X6579590Y3487080D01*
X6620740Y3569400D01*
X6611660Y3596660D01*
X6521000Y3642000D01*
G01X6775000Y3769000D02*
X6317200D01*
X6316200Y3770000D01*
G01X6163800Y3980000D02*
Y4076200D01*
G01X6521000Y4150000D02*
Y4061010D01*
X6439990Y3980000D01*
X6316200D01*
G01X6210000Y5023800D02*
Y4890000D01*
G01X7540000Y5023800D02*
Y4900000D01*
G01X7900000Y3551500D02*
Y3743800D01*
G01Y4368500D02*
Y4196200D01*
M02*
