G04 ================== begin FILE IDENTIFICATION RECORD ==================*
G04 Layout Name:  HY_UART_DBUG_V10B.brd*
G04 Film Name:    Drill_Legend*
G04 File Format:  Gerber RS274X*
G04 File Origin:  Cadence Allegro 17.2-S071*
G04 Origin Date:  Tue Aug 17 09:36:50 2021*
G04 *
G04 Layer:  MANUFACTURING/NCLEGEND-1-4*
G04 Layer:  MANUFACTURING/NCDRILL_LEGEND*
G04 Layer:  MANUFACTURING/NCDRILL_FIGURE*
G04 Layer:  BOARD GEOMETRY/DIMENSION*
G04 *
G04 Offset:    (0.0000 0.0000)*
G04 Mirror:    No*
G04 Mode:      Positive*
G04 Rotation:  0*
G04 FullContactRelief:  No*
G04 UndefLineWidth:     0.1524*
G04 ================== end FILE IDENTIFICATION RECORD ====================*
%FSLAX55Y55*MOMM*%
%IR0*IPPOS*OFA0.00000B0.00000*MIA0B0*SFA1.00000B1.00000*%
%AMMACRO18*
1,1,.1524,1.65,0.0*
20,1,.1524,1.65,0.0,1.624933,-.286519,0.0*
1,1,.1524,1.624933,-.286519*
20,1,.1524,1.624933,-.286519,1.550493,-.564333,0.0*
1,1,.1524,1.550493,-.564333*
20,1,.1524,1.550493,-.564333,1.428942,-.825,0.0*
1,1,.1524,1.428942,-.825*
20,1,.1524,1.428942,-.825,1.263973,-1.0606,0.0*
1,1,.1524,1.263973,-1.0606*
20,1,.1524,1.263973,-1.0606,1.0606,-1.263973,0.0*
1,1,.1524,1.0606,-1.263973*
20,1,.1524,1.0606,-1.263973,.825,-1.428942,0.0*
1,1,.1524,.825,-1.428942*
20,1,.1524,.825,-1.428942,.564333,-1.550493,0.0*
1,1,.1524,.564333,-1.550493*
20,1,.1524,.564333,-1.550493,.286519,-1.624933,0.0*
1,1,.1524,.286519,-1.624933*
20,1,.1524,.286519,-1.624933,0.0,-1.65,0.0*
1,1,.1524,0.0,-1.65*
20,1,.1524,0.0,-1.65,-.286519,-1.624933,0.0*
1,1,.1524,-.286519,-1.624933*
20,1,.1524,-.286519,-1.624933,-.564333,-1.550493,0.0*
1,1,.1524,-.564333,-1.550493*
20,1,.1524,-.564333,-1.550493,-.825,-1.428942,0.0*
1,1,.1524,-.825,-1.428942*
20,1,.1524,-.825,-1.428942,-1.0606,-1.263973,0.0*
1,1,.1524,-1.0606,-1.263973*
20,1,.1524,-1.0606,-1.263973,-1.263973,-1.0606,0.0*
1,1,.1524,-1.263973,-1.0606*
20,1,.1524,-1.263973,-1.0606,-1.428942,-.825,0.0*
1,1,.1524,-1.428942,-.825*
20,1,.1524,-1.428942,-.825,-1.550493,-.564333,0.0*
1,1,.1524,-1.550493,-.564333*
20,1,.1524,-1.550493,-.564333,-1.624933,-.286519,0.0*
1,1,.1524,-1.624933,-.286519*
20,1,.1524,-1.624933,-.286519,-1.65,0.0,0.0*
1,1,.1524,-1.65,0.0*
20,1,.1524,-1.65,0.0,-1.624933,.286519,0.0*
1,1,.1524,-1.624933,.286519*
20,1,.1524,-1.624933,.286519,-1.550493,.564333,0.0*
1,1,.1524,-1.550493,.564333*
20,1,.1524,-1.550493,.564333,-1.428942,.825,0.0*
1,1,.1524,-1.428942,.825*
20,1,.1524,-1.428942,.825,-1.263973,1.0606,0.0*
1,1,.1524,-1.263973,1.0606*
20,1,.1524,-1.263973,1.0606,-1.0606,1.263973,0.0*
1,1,.1524,-1.0606,1.263973*
20,1,.1524,-1.0606,1.263973,-.825,1.428942,0.0*
1,1,.1524,-.825,1.428942*
20,1,.1524,-.825,1.428942,-.564333,1.550493,0.0*
1,1,.1524,-.564333,1.550493*
20,1,.1524,-.564333,1.550493,-.286519,1.624933,0.0*
1,1,.1524,-.286519,1.624933*
20,1,.1524,-.286519,1.624933,0.0,1.65,0.0*
1,1,.1524,0.0,1.65*
20,1,.1524,0.0,1.65,.286519,1.624933,0.0*
1,1,.1524,.286519,1.624933*
20,1,.1524,.286519,1.624933,.564333,1.550493,0.0*
1,1,.1524,.564333,1.550493*
20,1,.1524,.564333,1.550493,.825,1.428942,0.0*
1,1,.1524,.825,1.428942*
20,1,.1524,.825,1.428942,1.0606,1.263973,0.0*
1,1,.1524,1.0606,1.263973*
20,1,.1524,1.0606,1.263973,1.263973,1.0606,0.0*
1,1,.1524,1.263973,1.0606*
20,1,.1524,1.263973,1.0606,1.428942,.825,0.0*
1,1,.1524,1.428942,.825*
20,1,.1524,1.428942,.825,1.550493,.564333,0.0*
1,1,.1524,1.550493,.564333*
20,1,.1524,1.550493,.564333,1.624933,.286519,0.0*
1,1,.1524,1.624933,.286519*
20,1,.1524,1.624933,.286519,1.65,0.0,0.0*
1,1,.1524,1.65,0.0*
%
%ADD18MACRO18*%
%AMMACRO19*
1,1,.1524,.186396,-.45*
20,1,.1524,.186396,-.45,-.186396,-.45,0.0*
1,1,.1524,-.186396,-.45*
20,1,.1524,-.186396,-.45,-.45,-.186396,0.0*
1,1,.1524,-.45,-.186396*
20,1,.1524,-.45,-.186396,-.45,.186396,0.0*
1,1,.1524,-.45,.186396*
20,1,.1524,-.45,.186396,-.186396,.45,0.0*
1,1,.1524,-.186396,.45*
20,1,.1524,-.186396,.45,.186396,.45,0.0*
1,1,.1524,.186396,.45*
20,1,.1524,.186396,.45,.45,.186396,0.0*
1,1,.1524,.45,.186396*
20,1,.1524,.45,.186396,.45,-.186396,0.0*
1,1,.1524,.45,-.186396*
20,1,.1524,.45,-.186396,.186396,-.45,0.0*
1,1,.1524,.186396,-.45*
%
%ADD19MACRO19*%
%AMMACRO14*
1,1,.1524,1.15,.8625*
20,1,.1524,1.15,.8625,1.15,-.8625,0.0*
1,1,.1524,1.15,-.8625*
20,1,.1524,1.15,-.8625,-1.15,-.8625,0.0*
1,1,.1524,-1.15,-.8625*
20,1,.1524,-1.15,-.8625,-1.15,.8625,0.0*
1,1,.1524,-1.15,.8625*
20,1,.1524,-1.15,.8625,1.15,.8625,0.0*
1,1,.1524,1.15,.8625*
%
%ADD14MACRO14*%
%AMMACRO17*
1,1,.1524,-.1625,.4875*
20,1,.1524,-.1625,.4875,.1625,.4875,0.0*
1,1,.1524,.1625,.4875*
20,1,.1524,.1625,.4875,.247153,.480094,0.0*
1,1,.1524,.247153,.480094*
20,1,.1524,.247153,.480094,.329235,.4581,0.0*
1,1,.1524,.329235,.4581*
20,1,.1524,.329235,.4581,.40625,.422187,0.0*
1,1,.1524,.40625,.422187*
20,1,.1524,.40625,.422187,.475859,.373447,0.0*
1,1,.1524,.475859,.373447*
20,1,.1524,.475859,.373447,.535947,.313359,0.0*
1,1,.1524,.535947,.313359*
20,1,.1524,.535947,.313359,.584687,.24375,0.0*
1,1,.1524,.584687,.24375*
20,1,.1524,.584687,.24375,.6206,.166735,0.0*
1,1,.1524,.6206,.166735*
20,1,.1524,.6206,.166735,.642594,.084653,0.0*
1,1,.1524,.642594,.084653*
20,1,.1524,.642594,.084653,.65,0.0,0.0*
1,1,.1524,.65,0.0*
20,1,.1524,.65,0.0,.642594,-.084653,0.0*
1,1,.1524,.642594,-.084653*
20,1,.1524,.642594,-.084653,.6206,-.166735,0.0*
1,1,.1524,.6206,-.166735*
20,1,.1524,.6206,-.166735,.584687,-.24375,0.0*
1,1,.1524,.584687,-.24375*
20,1,.1524,.584687,-.24375,.535947,-.313359,0.0*
1,1,.1524,.535947,-.313359*
20,1,.1524,.535947,-.313359,.475859,-.373447,0.0*
1,1,.1524,.475859,-.373447*
20,1,.1524,.475859,-.373447,.40625,-.422187,0.0*
1,1,.1524,.40625,-.422187*
20,1,.1524,.40625,-.422187,.329235,-.4581,0.0*
1,1,.1524,.329235,-.4581*
20,1,.1524,.329235,-.4581,.247153,-.480094,0.0*
1,1,.1524,.247153,-.480094*
20,1,.1524,.247153,-.480094,.1625,-.4875,0.0*
1,1,.1524,.1625,-.4875*
20,1,.1524,.1625,-.4875,-.1625,-.4875,0.0*
1,1,.1524,-.1625,-.4875*
20,1,.1524,-.1625,-.4875,-.247153,-.480094,0.0*
1,1,.1524,-.247153,-.480094*
20,1,.1524,-.247153,-.480094,-.329235,-.4581,0.0*
1,1,.1524,-.329235,-.4581*
20,1,.1524,-.329235,-.4581,-.40625,-.422187,0.0*
1,1,.1524,-.40625,-.422187*
20,1,.1524,-.40625,-.422187,-.475859,-.373447,0.0*
1,1,.1524,-.475859,-.373447*
20,1,.1524,-.475859,-.373447,-.535947,-.313359,0.0*
1,1,.1524,-.535947,-.313359*
20,1,.1524,-.535947,-.313359,-.584687,-.24375,0.0*
1,1,.1524,-.584687,-.24375*
20,1,.1524,-.584687,-.24375,-.6206,-.166735,0.0*
1,1,.1524,-.6206,-.166735*
20,1,.1524,-.6206,-.166735,-.642594,-.084653,0.0*
1,1,.1524,-.642594,-.084653*
20,1,.1524,-.642594,-.084653,-.65,0.0,0.0*
1,1,.1524,-.65,0.0*
20,1,.1524,-.65,0.0,-.642594,.084653,0.0*
1,1,.1524,-.642594,.084653*
20,1,.1524,-.642594,.084653,-.6206,.166735,0.0*
1,1,.1524,-.6206,.166735*
20,1,.1524,-.6206,.166735,-.584687,.24375,0.0*
1,1,.1524,-.584687,.24375*
20,1,.1524,-.584687,.24375,-.535947,.313359,0.0*
1,1,.1524,-.535947,.313359*
20,1,.1524,-.535947,.313359,-.475859,.373447,0.0*
1,1,.1524,-.475859,.373447*
20,1,.1524,-.475859,.373447,-.40625,.422187,0.0*
1,1,.1524,-.40625,.422187*
20,1,.1524,-.40625,.422187,-.329235,.4581,0.0*
1,1,.1524,-.329235,.4581*
20,1,.1524,-.329235,.4581,-.247153,.480094,0.0*
1,1,.1524,-.247153,.480094*
20,1,.1524,-.247153,.480094,-.1625,.4875,0.0*
1,1,.1524,-.1625,.4875*
%
%ADD17MACRO17*%
%AMMACRO10*
1,1,.1524,.127,0.0*
20,1,.1524,.127,0.0,-.127,0.0,0.0*
1,1,.1524,-.127,0.0*
1,1,.1524,0.0,.127*
20,1,.1524,0.0,.127,0.0,-.127,0.0*
1,1,.1524,0.0,-.127*
%
%ADD10MACRO10*%
%AMMACRO20*
1,1,.1524,.1524,.1524*
20,1,.1524,.1524,.1524,.1524,-.1524,0.0*
1,1,.1524,.1524,-.1524*
20,1,.1524,.1524,-.1524,-.1524,-.1524,0.0*
1,1,.1524,-.1524,-.1524*
20,1,.1524,-.1524,-.1524,-.1524,.1524,0.0*
1,1,.1524,-.1524,.1524*
20,1,.1524,-.1524,.1524,.1524,.1524,0.0*
1,1,.1524,.1524,.1524*
%
%ADD20MACRO20*%
%AMMACRO13*
1,1,.1524,0.0,.55*
20,1,.1524,0.0,.55,.476314,-.275,0.0*
1,1,.1524,.476314,-.275*
20,1,.1524,.476314,-.275,-.476314,-.275,0.0*
1,1,.1524,-.476314,-.275*
20,1,.1524,-.476314,-.275,0.0,.55,0.0*
1,1,.1524,0.0,.55*
%
%ADD13MACRO13*%
%AMMACRO11*
1,1,.1524,-.5,-1.*
20,1,.1524,-.5,-1.,-.5,1.,0.0*
1,1,.1524,-.5,1.*
20,1,.1524,-.5,1.,-.492404,1.086824,0.0*
1,1,.1524,-.492404,1.086824*
20,1,.1524,-.492404,1.086824,-.469846,1.17101,0.0*
1,1,.1524,-.469846,1.17101*
20,1,.1524,-.469846,1.17101,-.433013,1.25,0.0*
1,1,.1524,-.433013,1.25*
20,1,.1524,-.433013,1.25,-.383022,1.321394,0.0*
1,1,.1524,-.383022,1.321394*
20,1,.1524,-.383022,1.321394,-.321394,1.383022,0.0*
1,1,.1524,-.321394,1.383022*
20,1,.1524,-.321394,1.383022,-.25,1.433013,0.0*
1,1,.1524,-.25,1.433013*
20,1,.1524,-.25,1.433013,-.17101,1.469846,0.0*
1,1,.1524,-.17101,1.469846*
20,1,.1524,-.17101,1.469846,-.086824,1.492404,0.0*
1,1,.1524,-.086824,1.492404*
20,1,.1524,-.086824,1.492404,0.0,1.5,0.0*
1,1,.1524,0.0,1.5*
20,1,.1524,0.0,1.5,.086824,1.492404,0.0*
1,1,.1524,.086824,1.492404*
20,1,.1524,.086824,1.492404,.17101,1.469846,0.0*
1,1,.1524,.17101,1.469846*
20,1,.1524,.17101,1.469846,.25,1.433013,0.0*
1,1,.1524,.25,1.433013*
20,1,.1524,.25,1.433013,.321394,1.383022,0.0*
1,1,.1524,.321394,1.383022*
20,1,.1524,.321394,1.383022,.383022,1.321394,0.0*
1,1,.1524,.383022,1.321394*
20,1,.1524,.383022,1.321394,.433013,1.25,0.0*
1,1,.1524,.433013,1.25*
20,1,.1524,.433013,1.25,.469846,1.17101,0.0*
1,1,.1524,.469846,1.17101*
20,1,.1524,.469846,1.17101,.492404,1.086824,0.0*
1,1,.1524,.492404,1.086824*
20,1,.1524,.492404,1.086824,.5,1.,0.0*
1,1,.1524,.5,1.*
20,1,.1524,.5,1.,.5,-1.,0.0*
1,1,.1524,.5,-1.*
20,1,.1524,.5,-1.,.492404,-1.086824,0.0*
1,1,.1524,.492404,-1.086824*
20,1,.1524,.492404,-1.086824,.469846,-1.17101,0.0*
1,1,.1524,.469846,-1.17101*
20,1,.1524,.469846,-1.17101,.433013,-1.25,0.0*
1,1,.1524,.433013,-1.25*
20,1,.1524,.433013,-1.25,.383022,-1.321394,0.0*
1,1,.1524,.383022,-1.321394*
20,1,.1524,.383022,-1.321394,.321394,-1.383022,0.0*
1,1,.1524,.321394,-1.383022*
20,1,.1524,.321394,-1.383022,.25,-1.433013,0.0*
1,1,.1524,.25,-1.433013*
20,1,.1524,.25,-1.433013,.17101,-1.469846,0.0*
1,1,.1524,.17101,-1.469846*
20,1,.1524,.17101,-1.469846,.086824,-1.492404,0.0*
1,1,.1524,.086824,-1.492404*
20,1,.1524,.086824,-1.492404,0.0,-1.5,0.0*
1,1,.1524,0.0,-1.5*
20,1,.1524,0.0,-1.5,-.086824,-1.492404,0.0*
1,1,.1524,-.086824,-1.492404*
20,1,.1524,-.086824,-1.492404,-.17101,-1.469846,0.0*
1,1,.1524,-.17101,-1.469846*
20,1,.1524,-.17101,-1.469846,-.25,-1.433013,0.0*
1,1,.1524,-.25,-1.433013*
20,1,.1524,-.25,-1.433013,-.321394,-1.383022,0.0*
1,1,.1524,-.321394,-1.383022*
20,1,.1524,-.321394,-1.383022,-.383022,-1.321394,0.0*
1,1,.1524,-.383022,-1.321394*
20,1,.1524,-.383022,-1.321394,-.433013,-1.25,0.0*
1,1,.1524,-.433013,-1.25*
20,1,.1524,-.433013,-1.25,-.469846,-1.17101,0.0*
1,1,.1524,-.469846,-1.17101*
20,1,.1524,-.469846,-1.17101,-.492404,-1.086824,0.0*
1,1,.1524,-.492404,-1.086824*
20,1,.1524,-.492404,-1.086824,-.5,-1.,0.0*
1,1,.1524,-.5,-1.*
1,1,.1524,-.25,-.25*
20,1,.1524,-.25,-.25,-.3167,-.2417,0.0*
1,1,.1524,-.3167,-.2417*
20,1,.1524,-.3167,-.2417,-.375,-.2083,0.0*
1,1,.1524,-.375,-.2083*
20,1,.1524,-.375,-.2083,-.425,-.1583,0.0*
1,1,.1524,-.425,-.1583*
20,1,.1524,-.425,-.1583,-.4583,-.1,0.0*
1,1,.1524,-.4583,-.1*
20,1,.1524,-.4583,-.1,-.475,-.0333,0.0*
1,1,.1524,-.475,-.0333*
20,1,.1524,-.475,-.0333,-.475,.0333,0.0*
1,1,.1524,-.475,.0333*
20,1,.1524,-.475,.0333,-.4583,.1,0.0*
1,1,.1524,-.4583,.1*
20,1,.1524,-.4583,.1,-.425,.1583,0.0*
1,1,.1524,-.425,.1583*
20,1,.1524,-.425,.1583,-.375,.2083,0.0*
1,1,.1524,-.375,.2083*
20,1,.1524,-.375,.2083,-.3167,.2417,0.0*
1,1,.1524,-.3167,.2417*
20,1,.1524,-.3167,.2417,-.25,.25,0.0*
1,1,.1524,-.25,.25*
20,1,.1524,-.25,.25,-.1833,.2417,0.0*
1,1,.1524,-.1833,.2417*
20,1,.1524,-.1833,.2417,-.125,.2083,0.0*
1,1,.1524,-.125,.2083*
20,1,.1524,-.125,.2083,-.075,.1583,0.0*
1,1,.1524,-.075,.1583*
20,1,.1524,-.075,.1583,-.0417,.1,0.0*
1,1,.1524,-.0417,.1*
20,1,.1524,-.0417,.1,-.025,.0333,0.0*
1,1,.1524,-.025,.0333*
20,1,.1524,-.025,.0333,-.025,-.0333,0.0*
1,1,.1524,-.025,-.0333*
20,1,.1524,-.025,-.0333,-.0417,-.1,0.0*
1,1,.1524,-.0417,-.1*
20,1,.1524,-.0417,-.1,-.075,-.1583,0.0*
1,1,.1524,-.075,-.1583*
20,1,.1524,-.075,-.1583,-.125,-.2083,0.0*
1,1,.1524,-.125,-.2083*
20,1,.1524,-.125,-.2083,-.1833,-.2417,0.0*
1,1,.1524,-.1833,-.2417*
20,1,.1524,-.1833,-.2417,-.25,-.25,0.0*
1,1,.1524,-.25,-.25*
1,1,.1524,.0418,-.25*
20,1,.1524,.0418,-.25,.2501,.25,0.0*
1,1,.1524,.2501,.25*
20,1,.1524,.2501,.25,.4584,-.25,0.0*
1,1,.1524,.4584,-.25*
1,1,.1524,.3834,-.075*
20,1,.1524,.3834,-.075,.1168,-.075,0.0*
1,1,.1524,.1168,-.075*
%
%ADD11MACRO11*%
%AMMACRO16*
1,1,.1524,-1.,.5*
20,1,.1524,-1.,.5,1.,.5,0.0*
1,1,.1524,1.,.5*
20,1,.1524,1.,.5,1.086824,.492404,0.0*
1,1,.1524,1.086824,.492404*
20,1,.1524,1.086824,.492404,1.17101,.469846,0.0*
1,1,.1524,1.17101,.469846*
20,1,.1524,1.17101,.469846,1.25,.433013,0.0*
1,1,.1524,1.25,.433013*
20,1,.1524,1.25,.433013,1.321394,.383022,0.0*
1,1,.1524,1.321394,.383022*
20,1,.1524,1.321394,.383022,1.383022,.321394,0.0*
1,1,.1524,1.383022,.321394*
20,1,.1524,1.383022,.321394,1.433013,.25,0.0*
1,1,.1524,1.433013,.25*
20,1,.1524,1.433013,.25,1.469846,.17101,0.0*
1,1,.1524,1.469846,.17101*
20,1,.1524,1.469846,.17101,1.492404,.086824,0.0*
1,1,.1524,1.492404,.086824*
20,1,.1524,1.492404,.086824,1.5,0.0,0.0*
1,1,.1524,1.5,0.0*
20,1,.1524,1.5,0.0,1.492404,-.086824,0.0*
1,1,.1524,1.492404,-.086824*
20,1,.1524,1.492404,-.086824,1.469846,-.17101,0.0*
1,1,.1524,1.469846,-.17101*
20,1,.1524,1.469846,-.17101,1.433013,-.25,0.0*
1,1,.1524,1.433013,-.25*
20,1,.1524,1.433013,-.25,1.383022,-.321394,0.0*
1,1,.1524,1.383022,-.321394*
20,1,.1524,1.383022,-.321394,1.321394,-.383022,0.0*
1,1,.1524,1.321394,-.383022*
20,1,.1524,1.321394,-.383022,1.25,-.433013,0.0*
1,1,.1524,1.25,-.433013*
20,1,.1524,1.25,-.433013,1.17101,-.469846,0.0*
1,1,.1524,1.17101,-.469846*
20,1,.1524,1.17101,-.469846,1.086824,-.492404,0.0*
1,1,.1524,1.086824,-.492404*
20,1,.1524,1.086824,-.492404,1.,-.5,0.0*
1,1,.1524,1.,-.5*
20,1,.1524,1.,-.5,-1.,-.5,0.0*
1,1,.1524,-1.,-.5*
20,1,.1524,-1.,-.5,-1.086824,-.492404,0.0*
1,1,.1524,-1.086824,-.492404*
20,1,.1524,-1.086824,-.492404,-1.17101,-.469846,0.0*
1,1,.1524,-1.17101,-.469846*
20,1,.1524,-1.17101,-.469846,-1.25,-.433013,0.0*
1,1,.1524,-1.25,-.433013*
20,1,.1524,-1.25,-.433013,-1.321394,-.383022,0.0*
1,1,.1524,-1.321394,-.383022*
20,1,.1524,-1.321394,-.383022,-1.383022,-.321394,0.0*
1,1,.1524,-1.383022,-.321394*
20,1,.1524,-1.383022,-.321394,-1.433013,-.25,0.0*
1,1,.1524,-1.433013,-.25*
20,1,.1524,-1.433013,-.25,-1.469846,-.17101,0.0*
1,1,.1524,-1.469846,-.17101*
20,1,.1524,-1.469846,-.17101,-1.492404,-.086824,0.0*
1,1,.1524,-1.492404,-.086824*
20,1,.1524,-1.492404,-.086824,-1.5,0.0,0.0*
1,1,.1524,-1.5,0.0*
20,1,.1524,-1.5,0.0,-1.492404,.086824,0.0*
1,1,.1524,-1.492404,.086824*
20,1,.1524,-1.492404,.086824,-1.469846,.17101,0.0*
1,1,.1524,-1.469846,.17101*
20,1,.1524,-1.469846,.17101,-1.433013,.25,0.0*
1,1,.1524,-1.433013,.25*
20,1,.1524,-1.433013,.25,-1.383022,.321394,0.0*
1,1,.1524,-1.383022,.321394*
20,1,.1524,-1.383022,.321394,-1.321394,.383022,0.0*
1,1,.1524,-1.321394,.383022*
20,1,.1524,-1.321394,.383022,-1.25,.433013,0.0*
1,1,.1524,-1.25,.433013*
20,1,.1524,-1.25,.433013,-1.17101,.469846,0.0*
1,1,.1524,-1.17101,.469846*
20,1,.1524,-1.17101,.469846,-1.086824,.492404,0.0*
1,1,.1524,-1.086824,.492404*
20,1,.1524,-1.086824,.492404,-1.,.5,0.0*
1,1,.1524,-1.,.5*
1,1,.1524,-.25,-.25*
20,1,.1524,-.25,-.25,-.3167,-.2417,0.0*
1,1,.1524,-.3167,-.2417*
20,1,.1524,-.3167,-.2417,-.375,-.2083,0.0*
1,1,.1524,-.375,-.2083*
20,1,.1524,-.375,-.2083,-.425,-.1583,0.0*
1,1,.1524,-.425,-.1583*
20,1,.1524,-.425,-.1583,-.4583,-.1,0.0*
1,1,.1524,-.4583,-.1*
20,1,.1524,-.4583,-.1,-.475,-.0333,0.0*
1,1,.1524,-.475,-.0333*
20,1,.1524,-.475,-.0333,-.475,.0333,0.0*
1,1,.1524,-.475,.0333*
20,1,.1524,-.475,.0333,-.4583,.1,0.0*
1,1,.1524,-.4583,.1*
20,1,.1524,-.4583,.1,-.425,.1583,0.0*
1,1,.1524,-.425,.1583*
20,1,.1524,-.425,.1583,-.375,.2083,0.0*
1,1,.1524,-.375,.2083*
20,1,.1524,-.375,.2083,-.3167,.2417,0.0*
1,1,.1524,-.3167,.2417*
20,1,.1524,-.3167,.2417,-.25,.25,0.0*
1,1,.1524,-.25,.25*
20,1,.1524,-.25,.25,-.1833,.2417,0.0*
1,1,.1524,-.1833,.2417*
20,1,.1524,-.1833,.2417,-.125,.2083,0.0*
1,1,.1524,-.125,.2083*
20,1,.1524,-.125,.2083,-.075,.1583,0.0*
1,1,.1524,-.075,.1583*
20,1,.1524,-.075,.1583,-.0417,.1,0.0*
1,1,.1524,-.0417,.1*
20,1,.1524,-.0417,.1,-.025,.0333,0.0*
1,1,.1524,-.025,.0333*
20,1,.1524,-.025,.0333,-.025,-.0333,0.0*
1,1,.1524,-.025,-.0333*
20,1,.1524,-.025,-.0333,-.0417,-.1,0.0*
1,1,.1524,-.0417,-.1*
20,1,.1524,-.0417,-.1,-.075,-.1583,0.0*
1,1,.1524,-.075,-.1583*
20,1,.1524,-.075,-.1583,-.125,-.2083,0.0*
1,1,.1524,-.125,-.2083*
20,1,.1524,-.125,-.2083,-.1833,-.2417,0.0*
1,1,.1524,-.1833,-.2417*
20,1,.1524,-.1833,-.2417,-.25,-.25,0.0*
1,1,.1524,-.25,-.25*
1,1,.1524,.0418,-.25*
20,1,.1524,.0418,-.25,.2501,.25,0.0*
1,1,.1524,.2501,.25*
20,1,.1524,.2501,.25,.4584,-.25,0.0*
1,1,.1524,.4584,-.25*
1,1,.1524,.3834,-.075*
20,1,.1524,.3834,-.075,.1168,-.075,0.0*
1,1,.1524,.1168,-.075*
%
%ADD16MACRO16*%
%AMMACRO22*
1,1,.1524,-.675,.225*
20,1,.1524,-.675,.225,-.664745,.342213,0.0*
1,1,.1524,-.664745,.342213*
20,1,.1524,-.664745,.342213,-.634293,.455864,0.0*
1,1,.1524,-.634293,.455864*
20,1,.1524,-.634293,.455864,-.584567,.5625,0.0*
1,1,.1524,-.584567,.5625*
20,1,.1524,-.584567,.5625,-.51708,.658882,0.0*
1,1,.1524,-.51708,.658882*
20,1,.1524,-.51708,.658882,-.433882,.74208,0.0*
1,1,.1524,-.433882,.74208*
20,1,.1524,-.433882,.74208,-.3375,.809567,0.0*
1,1,.1524,-.3375,.809567*
20,1,.1524,-.3375,.809567,-.230864,.859293,0.0*
1,1,.1524,-.230864,.859293*
20,1,.1524,-.230864,.859293,-.117213,.889745,0.0*
1,1,.1524,-.117213,.889745*
20,1,.1524,-.117213,.889745,0.0,.9,0.0*
1,1,.1524,0.0,.9*
20,1,.1524,0.0,.9,.117213,.889745,0.0*
1,1,.1524,.117213,.889745*
20,1,.1524,.117213,.889745,.230864,.859293,0.0*
1,1,.1524,.230864,.859293*
20,1,.1524,.230864,.859293,.3375,.809567,0.0*
1,1,.1524,.3375,.809567*
20,1,.1524,.3375,.809567,.433882,.74208,0.0*
1,1,.1524,.433882,.74208*
20,1,.1524,.433882,.74208,.51708,.658882,0.0*
1,1,.1524,.51708,.658882*
20,1,.1524,.51708,.658882,.584567,.5625,0.0*
1,1,.1524,.584567,.5625*
20,1,.1524,.584567,.5625,.634293,.455864,0.0*
1,1,.1524,.634293,.455864*
20,1,.1524,.634293,.455864,.664745,.342213,0.0*
1,1,.1524,.664745,.342213*
20,1,.1524,.664745,.342213,.675,.225,0.0*
1,1,.1524,.675,.225*
20,1,.1524,.675,.225,.675,-.225,0.0*
1,1,.1524,.675,-.225*
20,1,.1524,.675,-.225,.664745,-.342213,0.0*
1,1,.1524,.664745,-.342213*
20,1,.1524,.664745,-.342213,.634293,-.455864,0.0*
1,1,.1524,.634293,-.455864*
20,1,.1524,.634293,-.455864,.584567,-.5625,0.0*
1,1,.1524,.584567,-.5625*
20,1,.1524,.584567,-.5625,.51708,-.658882,0.0*
1,1,.1524,.51708,-.658882*
20,1,.1524,.51708,-.658882,.433882,-.74208,0.0*
1,1,.1524,.433882,-.74208*
20,1,.1524,.433882,-.74208,.3375,-.809567,0.0*
1,1,.1524,.3375,-.809567*
20,1,.1524,.3375,-.809567,.230864,-.859293,0.0*
1,1,.1524,.230864,-.859293*
20,1,.1524,.230864,-.859293,.117213,-.889745,0.0*
1,1,.1524,.117213,-.889745*
20,1,.1524,.117213,-.889745,0.0,-.9,0.0*
1,1,.1524,0.0,-.9*
20,1,.1524,0.0,-.9,-.117213,-.889745,0.0*
1,1,.1524,-.117213,-.889745*
20,1,.1524,-.117213,-.889745,-.230864,-.859293,0.0*
1,1,.1524,-.230864,-.859293*
20,1,.1524,-.230864,-.859293,-.3375,-.809567,0.0*
1,1,.1524,-.3375,-.809567*
20,1,.1524,-.3375,-.809567,-.433882,-.74208,0.0*
1,1,.1524,-.433882,-.74208*
20,1,.1524,-.433882,-.74208,-.51708,-.658882,0.0*
1,1,.1524,-.51708,-.658882*
20,1,.1524,-.51708,-.658882,-.584567,-.5625,0.0*
1,1,.1524,-.584567,-.5625*
20,1,.1524,-.584567,-.5625,-.634293,-.455864,0.0*
1,1,.1524,-.634293,-.455864*
20,1,.1524,-.634293,-.455864,-.664745,-.342213,0.0*
1,1,.1524,-.664745,-.342213*
20,1,.1524,-.664745,-.342213,-.675,-.225,0.0*
1,1,.1524,-.675,-.225*
20,1,.1524,-.675,-.225,-.675,.225,0.0*
1,1,.1524,-.675,.225*
%
%ADD22MACRO22*%
%AMMACRO15*
1,1,.1524,0.0,.4*
20,1,.1524,0.0,.4,-.34641,.2,0.0*
1,1,.1524,-.34641,.2*
20,1,.1524,-.34641,.2,-.34641,-.2,0.0*
1,1,.1524,-.34641,-.2*
20,1,.1524,-.34641,-.2,0.0,-.4,0.0*
1,1,.1524,0.0,-.4*
20,1,.1524,0.0,-.4,.34641,-.2,0.0*
1,1,.1524,.34641,-.2*
20,1,.1524,.34641,-.2,.34641,.2,0.0*
1,1,.1524,.34641,.2*
20,1,.1524,.34641,.2,0.0,.4,0.0*
1,1,.1524,0.0,.4*
%
%ADD15MACRO15*%
%AMMACRO21*
1,1,.1524,.2286,0.0*
20,1,.1524,.2286,0.0,.1143,.197973,0.0*
1,1,.1524,.1143,.197973*
20,1,.1524,.1143,.197973,-.1143,.197973,0.0*
1,1,.1524,-.1143,.197973*
20,1,.1524,-.1143,.197973,-.2286,0.0,0.0*
1,1,.1524,-.2286,0.0*
20,1,.1524,-.2286,0.0,-.1143,-.197973,0.0*
1,1,.1524,-.1143,-.197973*
20,1,.1524,-.1143,-.197973,.1143,-.197973,0.0*
1,1,.1524,.1143,-.197973*
20,1,.1524,.1143,-.197973,.2286,0.0,0.0*
1,1,.1524,.2286,0.0*
%
%ADD21MACRO21*%
%AMMACRO12*
1,1,.1524,.5,0.0*
20,1,.1524,.5,0.0,0.0,-.5,0.0*
1,1,.1524,0.0,-.5*
20,1,.1524,0.0,-.5,-.5,0.0,0.0*
1,1,.1524,-.5,0.0*
20,1,.1524,-.5,0.0,0.0,.5,0.0*
1,1,.1524,0.0,.5*
20,1,.1524,0.0,.5,.5,0.0,0.0*
1,1,.1524,.5,0.0*
%
%ADD12MACRO12*%
%ADD23C,.1524*%
G75*
%LPD*%
G75*
G54D10*
X170000Y730000D03*
X180000Y1350000D03*
X130000Y1720000D03*
X140000Y2450000D03*
Y2740000D03*
X116900Y3563100D03*
X420000Y1720000D03*
X720000D03*
X1320000D03*
X1165500Y3315500D03*
X1630000Y520000D03*
X1870000Y1260000D03*
X1560000Y1850000D03*
X1750000D03*
X1950000D03*
X1560000Y2060000D03*
X1740000Y2600000D03*
Y2860000D03*
X1923500Y3823500D03*
X2130000Y140000D03*
X2570000Y550000D03*
Y800000D03*
X2100000Y600000D03*
Y800000D03*
X2210000D03*
X2570000Y1100000D03*
X2100000Y990000D03*
X2210000D03*
X2100000Y890000D03*
X2210000D03*
X2500000Y1950000D03*
X2464030Y1580000D03*
X2290000Y2590000D03*
Y2860000D03*
X2460000Y3442500D03*
X2020000Y3696500D03*
X2390000Y4900000D03*
X2500000D03*
X2900000Y550000D03*
X2890000Y1100000D03*
X3040000Y1560000D03*
X2720000Y1950000D03*
X2890000D03*
X3080000D03*
X2890000Y1830000D03*
X2640000Y1580000D03*
X3040000Y1750000D03*
X2760000Y3200000D03*
X3032500Y3192500D03*
X2905500Y3195500D03*
X3146200Y3466200D03*
X3032500Y3752500D03*
X2820000Y3630000D03*
X2740000D03*
X2905500Y4014500D03*
X2596280Y4900000D03*
X2710000Y5280000D03*
X3420000Y130000D03*
X3400000Y580000D03*
X3230000D03*
X3550000Y670000D03*
Y810000D03*
X3320000Y990000D03*
X3500000Y1310000D03*
X3505000Y1155000D03*
X3555000Y905000D03*
X3210000Y1450000D03*
X3710000Y1800000D03*
X3570000Y1490000D03*
Y1660000D03*
X3569030Y1570000D03*
X3710000Y3120000D03*
X3413500Y3193500D03*
X3540500Y3190000D03*
X3560000Y3550000D03*
X3220000Y3470000D03*
X3286500Y3466500D03*
X3413500Y4016500D03*
X3540500Y4019500D03*
X4280000Y560000D03*
X4015000D03*
X4240000Y1800000D03*
X3915000D03*
X4165000D03*
X3815000D03*
X4340000Y2015550D03*
X4040000Y1855550D03*
Y1963810D03*
X4290000Y2350000D03*
X4340000Y2123810D03*
X3770000Y3120000D03*
Y3180000D03*
X4140000Y3280000D03*
X3910000Y3550000D03*
X3830000D03*
X4780000Y540000D03*
X4880000Y778200D03*
X4440000Y560000D03*
X4361320Y561310D03*
X4570000Y590000D03*
X4740000Y1430000D03*
Y1050000D03*
X4790000Y1000000D03*
X4800000Y930000D03*
X4700000Y1700000D03*
X4390000Y1800000D03*
X4740000Y2350000D03*
X4400000Y2580000D03*
X4480000D03*
X4590000Y3060000D03*
X4746200Y2996200D03*
X4490000Y2900000D03*
Y2740000D03*
X4730000Y3550000D03*
X4440000Y3770000D03*
X4770000Y3940000D03*
X5460000Y780000D03*
X5540000Y1350000D03*
X5460000D03*
X5080000Y1317580D03*
X5090000Y859000D03*
X5310000Y1832620D03*
X5320380Y1959620D03*
X5140000Y2350000D03*
X5059920D03*
X5140000Y2900000D03*
X5059920Y2650080D03*
X5324080Y2904080D03*
X5320080Y2650080D03*
X5190000Y3350000D03*
X5290000Y3730000D03*
Y3650000D03*
Y3570000D03*
Y3490000D03*
X5080000Y3620000D03*
Y3550000D03*
Y3470000D03*
X4990000Y3940000D03*
X5210000D03*
X5592920Y2777080D03*
X5630000Y3730000D03*
X5620000Y3380000D03*
X5630000Y3930000D03*
X6000000Y4890000D03*
X5870000Y5120000D03*
X6310000Y1410000D03*
Y1640000D03*
Y2550000D03*
X6163800Y3173800D03*
X6480000Y3190000D03*
X6163800Y3640000D03*
Y4180000D03*
Y4076200D03*
Y4516200D03*
X6480000Y4660000D03*
X6210000Y4890000D03*
X6880000Y3190000D03*
X7100000Y3560000D03*
X7090000Y4360000D03*
X6880000Y4660000D03*
X7910000Y2900000D03*
X7440000Y3830000D03*
Y4230000D03*
X7540000Y4900000D03*
X7428100Y5288100D03*
X7700000Y5200000D03*
X7940000Y120000D03*
X8340000Y1130000D03*
X8350000Y1730000D03*
X8360000Y2270000D03*
X8100000Y2710000D03*
X8360000D03*
X8290000Y3540000D03*
Y4370000D03*
Y3970000D03*
Y4740000D03*
X11431730Y8082500D03*
G54D11*
X800000Y2660000D03*
X1400000D03*
X11431730Y1097500D03*
G54D20*
X4190000Y1180000D03*
X3970000Y1410000D03*
Y960000D03*
X4190000D03*
Y1410000D03*
X3970000Y1180000D03*
X4190000Y2841080D03*
X4110000Y2920000D03*
X4270000D03*
X4110000Y2770000D03*
X4410000Y1410000D03*
X4400000Y960000D03*
X4410000Y1180000D03*
X11431730Y7447500D03*
G54D12*
X580000Y3419000D03*
Y3673000D03*
Y4181000D03*
Y3927000D03*
X11431730Y4907500D03*
G54D21*
X5150000Y1860000D03*
X5320000Y1705620D03*
X6170000Y3031080D03*
X11431730Y6812500D03*
G54D22*
X7105000Y3185500D03*
Y4734500D03*
X11431730Y3002500D03*
G54D13*
X1458000Y280000D03*
X950000D03*
X1204000D03*
X3052000Y2730000D03*
X3560000D03*
X3306000D03*
X6490000Y5130000D03*
X6744000D03*
X7252000D03*
X6998000D03*
X11431730Y4272500D03*
G54D23*
G01X-1037400Y2603320D02*
X-1023180Y2587450D01*
X-1006590Y2577920D01*
X-985250Y2574750D01*
X-963910Y2581100D01*
X-947320Y2593800D01*
X-935470Y2616020D01*
X-933100Y2641420D01*
X-937840Y2666820D01*
X-949690Y2682700D01*
X-966290Y2695400D01*
X-982880Y2698570D01*
X-999470Y2695400D01*
X-1020810Y2682700D01*
X-1013700Y2765250D01*
X-949690D01*
G01X-766300Y2574750D02*
Y2765250D01*
X-854020Y2628730D01*
X-735480D01*
G01X3544750Y-765250D02*
X3561340Y-762080D01*
X3580310Y-752550D01*
X3592160Y-736680D01*
X3596900Y-714450D01*
X3592160Y-692230D01*
X3577940Y-673180D01*
X3556600Y-663650D01*
X3532900D01*
X3518670Y-657300D01*
X3506820Y-641430D01*
X3502080Y-619200D01*
X3509190Y-596980D01*
X3525780Y-581100D01*
X3544750Y-574750D01*
X3563710Y-581100D01*
X3580310Y-596980D01*
X3587420Y-619200D01*
X3582680Y-641430D01*
X3570830Y-657300D01*
X3556600Y-663650D01*
X3532900D01*
X3511560Y-673180D01*
X3497340Y-692230D01*
X3492600Y-714450D01*
X3497340Y-736680D01*
X3509190Y-752550D01*
X3528160Y-762080D01*
X3544750Y-765250D01*
G01X3683100Y-736680D02*
X3697320Y-752550D01*
X3713910Y-762080D01*
X3735250Y-765250D01*
X3756590Y-758900D01*
X3773180Y-746200D01*
X3785030Y-723980D01*
X3787400Y-698580D01*
X3782660Y-673180D01*
X3770810Y-657300D01*
X3754210Y-644600D01*
X3737620Y-641430D01*
X3721030Y-644600D01*
X3699690Y-657300D01*
X3706800Y-574750D01*
X3770810D01*
G01X10569520Y8558750D02*
Y8876250D01*
X10719140D01*
G01X10664010Y8722800D02*
X10569520D01*
G01X10912050Y8876250D02*
X11006530D01*
G01X10959290D02*
Y8558750D01*
G01X10912050D02*
X11006530D01*
G01X11297870Y8717500D02*
X11376620D01*
Y8622250D01*
X11352990Y8590490D01*
X11325430Y8569330D01*
X11286060Y8558750D01*
X11246690Y8569330D01*
X11219130Y8590490D01*
X11195510Y8622250D01*
X11179760Y8659290D01*
X11171880Y8701620D01*
Y8738670D01*
X11179760Y8770410D01*
X11195510Y8807460D01*
X11219130Y8839210D01*
X11242750Y8860370D01*
X11274250Y8876250D01*
X11301810D01*
X11333300Y8865670D01*
X11356930Y8844500D01*
G01X11502600Y8876250D02*
Y8648710D01*
X11518340Y8601070D01*
X11549840Y8569330D01*
X11589210Y8558750D01*
X11628580Y8569330D01*
X11660080Y8601070D01*
X11675820Y8648710D01*
Y8876250D01*
G01X11825430Y8558750D02*
Y8876250D01*
X11923850D01*
X11955350Y8860370D01*
X11975040Y8839210D01*
X11982910Y8796870D01*
X11975040Y8754540D01*
X11951410Y8728090D01*
X11923850Y8712200D01*
X11825430D01*
G01X11923850D02*
X11982910Y8558750D01*
G01X12297870D02*
X12140390D01*
Y8876250D01*
X12297870D01*
G01X12234880Y8722800D02*
X12140390D01*
G01X13167940Y8558750D02*
Y8876250D01*
X13317560D01*
G01X13262430Y8722800D02*
X13167940D01*
G01X13510470Y8876250D02*
X13604950D01*
G01X13557710D02*
Y8558750D01*
G01X13510470D02*
X13604950D01*
G01X13782120D02*
Y8876250D01*
X13963220Y8558750D01*
Y8876250D01*
G01X14140390D02*
X14234870D01*
G01X14187630D02*
Y8558750D01*
G01X14140390D02*
X14234870D01*
G01X14419910Y8601070D02*
X14451410Y8574620D01*
X14486840Y8558750D01*
X14518340D01*
X14549830Y8574620D01*
X14573460Y8601070D01*
X14585270Y8638130D01*
X14577400Y8675160D01*
X14557710Y8706910D01*
X14522270Y8728090D01*
X14475030Y8738670D01*
X14447470Y8759830D01*
X14435660Y8796870D01*
X14443540Y8833920D01*
X14463220Y8860370D01*
X14490780Y8876250D01*
X14518340D01*
X14545900Y8865670D01*
X14569520Y8839210D01*
G01X14734870Y8558750D02*
Y8876250D01*
G01X14900230D02*
Y8558750D01*
G01Y8717500D02*
X14734870D01*
G01X15211250Y8558750D02*
X15053770D01*
Y8876250D01*
X15211250D01*
G01X15148260Y8722800D02*
X15053770D01*
G01X15360860Y8558750D02*
Y8876250D01*
X15439590D01*
X15471090Y8860370D01*
X15494710Y8839210D01*
X15514400Y8807460D01*
X15530150Y8770410D01*
X15534080Y8717500D01*
X15530150Y8664580D01*
X15514400Y8627540D01*
X15494710Y8595780D01*
X15471090Y8574620D01*
X15439590Y8558750D01*
X15360860D01*
G01X15644320Y8452920D02*
X15880540D01*
G01X15994710Y8601070D02*
X16026210Y8574620D01*
X16061640Y8558750D01*
X16093140D01*
X16124630Y8574620D01*
X16148260Y8601070D01*
X16160070Y8638130D01*
X16152200Y8675160D01*
X16132510Y8706910D01*
X16097070Y8728090D01*
X16049830Y8738670D01*
X16022270Y8759830D01*
X16010460Y8796870D01*
X16018340Y8833920D01*
X16038020Y8860370D01*
X16065580Y8876250D01*
X16093140D01*
X16120700Y8865670D01*
X16144320Y8839210D01*
G01X16345110Y8876250D02*
X16439590D01*
G01X16392350D02*
Y8558750D01*
G01X16345110D02*
X16439590D01*
G01X16632500Y8876250D02*
X16782120D01*
X16632500Y8558750D01*
X16782120D01*
G01X17101010D02*
X16943530D01*
Y8876250D01*
X17101010D01*
G01X17038020Y8722800D02*
X16943530D01*
G01X14101020Y367250D02*
X14124630Y330200D01*
X14156130Y309040D01*
X14191570Y303750D01*
X14223070Y309040D01*
X14254560Y335490D01*
X14274240Y367250D01*
X14278180Y399000D01*
X14270310Y436030D01*
X14242750Y462500D01*
X14215190Y473090D01*
X14179750D01*
G01X14215190D02*
X14238810Y488960D01*
X14258500Y515410D01*
X14266370Y547160D01*
X14258500Y578920D01*
X14238810Y605370D01*
X14203380Y621250D01*
X14167950Y615960D01*
X14132510Y594790D01*
G01X14502590Y293170D02*
X14494710Y298460D01*
Y309040D01*
X14502590Y314330D01*
X14510470Y309040D01*
Y298460D01*
X14502590Y293170D01*
G01X14817550Y621250D02*
X14786050Y610670D01*
X14762430Y584210D01*
X14746680Y552460D01*
X14734870Y510120D01*
X14730940Y462500D01*
X14734870Y414870D01*
X14746680Y372540D01*
X14762430Y340780D01*
X14786050Y314330D01*
X14817550Y303750D01*
X14849040Y314330D01*
X14872670Y340780D01*
X14888420Y372540D01*
X14900230Y414870D01*
X14904160Y462500D01*
X14900230Y510120D01*
X14888420Y552460D01*
X14872670Y584210D01*
X14849040Y610670D01*
X14817550Y621250D01*
G01X15073460Y515410D02*
X15191560Y303750D01*
G01Y515410D02*
X15073460Y303750D01*
G01X15447470D02*
Y621250D01*
X15400230Y557750D01*
G01Y303750D02*
X15494710D01*
G01X15762430Y293170D02*
X15754550Y298460D01*
Y309040D01*
X15762430Y314330D01*
X15770310Y309040D01*
Y298460D01*
X15762430Y293170D01*
G01X16077390Y621250D02*
X16045890Y610670D01*
X16022270Y584210D01*
X16006520Y552460D01*
X15994710Y510120D01*
X15990780Y462500D01*
X15994710Y414870D01*
X16006520Y372540D01*
X16022270Y340780D01*
X16045890Y314330D01*
X16077390Y303750D01*
X16108880Y314330D01*
X16132510Y340780D01*
X16148260Y372540D01*
X16160070Y414870D01*
X16164000Y462500D01*
X16160070Y510120D01*
X16148260Y552460D01*
X16132510Y584210D01*
X16108880Y610670D01*
X16077390Y621250D01*
G01X14101020Y1002250D02*
X14124630Y965200D01*
X14156130Y944040D01*
X14191570Y938750D01*
X14223070Y944040D01*
X14254560Y970490D01*
X14274240Y1002250D01*
X14278180Y1034000D01*
X14270310Y1071030D01*
X14242750Y1097500D01*
X14215190Y1108090D01*
X14179750D01*
G01X14215190D02*
X14238810Y1123960D01*
X14258500Y1150410D01*
X14266370Y1182160D01*
X14258500Y1213920D01*
X14238810Y1240370D01*
X14203380Y1256250D01*
X14167950Y1250960D01*
X14132510Y1229790D01*
G01X14502590Y928170D02*
X14494710Y933460D01*
Y944040D01*
X14502590Y949330D01*
X14510470Y944040D01*
Y933460D01*
X14502590Y928170D01*
G01X14817550Y1256250D02*
X14786050Y1245670D01*
X14762430Y1219210D01*
X14746680Y1187460D01*
X14734870Y1145120D01*
X14730940Y1097500D01*
X14734870Y1049870D01*
X14746680Y1007540D01*
X14762430Y975780D01*
X14786050Y949330D01*
X14817550Y938750D01*
X14849040Y949330D01*
X14872670Y975780D01*
X14888420Y1007540D01*
X14900230Y1049870D01*
X14904160Y1097500D01*
X14900230Y1145120D01*
X14888420Y1187460D01*
X14872670Y1219210D01*
X14849040Y1245670D01*
X14817550Y1256250D01*
G01X15073460Y1150410D02*
X15191560Y938750D01*
G01Y1150410D02*
X15073460Y938750D01*
G01X15447470D02*
Y1256250D01*
X15400230Y1192750D01*
G01Y938750D02*
X15494710D01*
G01X15762430Y928170D02*
X15754550Y933460D01*
Y944040D01*
X15762430Y949330D01*
X15770310Y944040D01*
Y933460D01*
X15762430Y928170D01*
G01X16077390Y1256250D02*
X16045890Y1245670D01*
X16022270Y1219210D01*
X16006520Y1187460D01*
X15994710Y1145120D01*
X15990780Y1097500D01*
X15994710Y1049870D01*
X16006520Y1007540D01*
X16022270Y975780D01*
X16045890Y949330D01*
X16077390Y938750D01*
X16108880Y949330D01*
X16132510Y975780D01*
X16148260Y1007540D01*
X16160070Y1049870D01*
X16164000Y1097500D01*
X16160070Y1145120D01*
X16148260Y1187460D01*
X16132510Y1219210D01*
X16108880Y1245670D01*
X16077390Y1256250D01*
G01X14345110Y6971250D02*
X14313610Y6960670D01*
X14289990Y6934210D01*
X14274240Y6902460D01*
X14262430Y6860120D01*
X14258500Y6812500D01*
X14262430Y6764870D01*
X14274240Y6722540D01*
X14289990Y6690780D01*
X14313610Y6664330D01*
X14345110Y6653750D01*
X14376600Y6664330D01*
X14400230Y6690780D01*
X14415980Y6722540D01*
X14427790Y6764870D01*
X14431720Y6812500D01*
X14427790Y6860120D01*
X14415980Y6902460D01*
X14400230Y6934210D01*
X14376600Y6960670D01*
X14345110Y6971250D01*
G01X14660070Y6643170D02*
X14652190Y6648460D01*
Y6659040D01*
X14660070Y6664330D01*
X14667950Y6659040D01*
Y6648460D01*
X14660070Y6643170D01*
G01X15022270Y6653750D02*
Y6971250D01*
X14876600Y6743710D01*
X15073460D01*
G01X15203380Y6701360D02*
X15226990Y6674910D01*
X15254550Y6659040D01*
X15289990Y6653750D01*
X15325430Y6664330D01*
X15352980Y6685490D01*
X15372670Y6722540D01*
X15376600Y6764870D01*
X15368730Y6807200D01*
X15349040Y6833670D01*
X15321480Y6854830D01*
X15293930Y6860120D01*
X15266370Y6854830D01*
X15230940Y6833670D01*
X15242750Y6971250D01*
X15349040D01*
G01X15597070Y6653750D02*
X15604950Y6722540D01*
X15616760Y6780740D01*
X15632510Y6833670D01*
X15652190Y6891870D01*
X15683690Y6971250D01*
X15526210D01*
G01X15845100Y6918330D02*
X15868730Y6950080D01*
X15896290Y6965960D01*
X15927790Y6971250D01*
X15967150Y6960670D01*
X15994720Y6934210D01*
X16002590Y6902460D01*
X15998650Y6870700D01*
X15982900Y6844250D01*
X15904160Y6791330D01*
X15868730Y6754290D01*
X15845100Y6701360D01*
X15837230Y6653750D01*
X16002590D01*
G01X14345110Y7606250D02*
X14313610Y7595670D01*
X14289990Y7569210D01*
X14274240Y7537460D01*
X14262430Y7495120D01*
X14258500Y7447500D01*
X14262430Y7399870D01*
X14274240Y7357540D01*
X14289990Y7325780D01*
X14313610Y7299330D01*
X14345110Y7288750D01*
X14376600Y7299330D01*
X14400230Y7325780D01*
X14415980Y7357540D01*
X14427790Y7399870D01*
X14431720Y7447500D01*
X14427790Y7495120D01*
X14415980Y7537460D01*
X14400230Y7569210D01*
X14376600Y7595670D01*
X14345110Y7606250D01*
G01X14660070Y7278170D02*
X14652190Y7283460D01*
Y7294040D01*
X14660070Y7299330D01*
X14667950Y7294040D01*
Y7283460D01*
X14660070Y7278170D01*
G01X14888420Y7352250D02*
X14912030Y7315200D01*
X14943530Y7294040D01*
X14978970Y7288750D01*
X15010470Y7294040D01*
X15041960Y7320490D01*
X15061640Y7352250D01*
X15065580Y7384000D01*
X15057710Y7421030D01*
X15030150Y7447500D01*
X15002590Y7458090D01*
X14967150D01*
G01X15002590D02*
X15026210Y7473960D01*
X15045900Y7500410D01*
X15053770Y7532160D01*
X15045900Y7563920D01*
X15026210Y7590370D01*
X14990780Y7606250D01*
X14955350Y7600960D01*
X14919910Y7579790D01*
G01X15289990Y7606250D02*
X15258490Y7595670D01*
X15234870Y7569210D01*
X15219120Y7537460D01*
X15207310Y7495120D01*
X15203380Y7447500D01*
X15207310Y7399870D01*
X15219120Y7357540D01*
X15234870Y7325780D01*
X15258490Y7299330D01*
X15289990Y7288750D01*
X15321480Y7299330D01*
X15345110Y7325780D01*
X15360860Y7357540D01*
X15372670Y7399870D01*
X15376600Y7447500D01*
X15372670Y7495120D01*
X15360860Y7537460D01*
X15345110Y7569210D01*
X15321480Y7595670D01*
X15289990Y7606250D01*
G01X15652190Y7288750D02*
Y7606250D01*
X15506520Y7378710D01*
X15703380D01*
G01X15919910Y7288750D02*
X15947470Y7294040D01*
X15978960Y7309910D01*
X15998650Y7336360D01*
X16006520Y7373420D01*
X15998650Y7410450D01*
X15975030Y7442200D01*
X15939590Y7458090D01*
X15900230D01*
X15876600Y7468670D01*
X15856910Y7495120D01*
X15849040Y7532160D01*
X15860860Y7569210D01*
X15888410Y7595670D01*
X15919910Y7606250D01*
X15951400Y7595670D01*
X15978960Y7569210D01*
X15990780Y7532160D01*
X15982900Y7495120D01*
X15963220Y7468670D01*
X15939590Y7458090D01*
X15900230D01*
X15864790Y7442200D01*
X15841170Y7410450D01*
X15833300Y7373420D01*
X15841170Y7336360D01*
X15860860Y7309910D01*
X15892350Y7294040D01*
X15919910Y7288750D01*
G01X14502590Y8241250D02*
X14471090Y8230670D01*
X14447470Y8204210D01*
X14431720Y8172460D01*
X14419910Y8130120D01*
X14415980Y8082500D01*
X14419910Y8034870D01*
X14431720Y7992540D01*
X14447470Y7960780D01*
X14471090Y7934330D01*
X14502590Y7923750D01*
X14534080Y7934330D01*
X14557710Y7960780D01*
X14573460Y7992540D01*
X14585270Y8034870D01*
X14589200Y8082500D01*
X14585270Y8130120D01*
X14573460Y8172460D01*
X14557710Y8204210D01*
X14534080Y8230670D01*
X14502590Y8241250D01*
G01X14817550Y7913170D02*
X14809670Y7918460D01*
Y7929040D01*
X14817550Y7934330D01*
X14825430Y7929040D01*
Y7918460D01*
X14817550Y7913170D01*
G01X15057700Y8188330D02*
X15081330Y8220080D01*
X15108890Y8235960D01*
X15140390Y8241250D01*
X15179750Y8230670D01*
X15207320Y8204210D01*
X15215190Y8172460D01*
X15211250Y8140700D01*
X15195500Y8114250D01*
X15116760Y8061330D01*
X15081330Y8024290D01*
X15057700Y7971360D01*
X15049830Y7923750D01*
X15215190D01*
G01X15360860Y7971360D02*
X15384470Y7944910D01*
X15412030Y7929040D01*
X15447470Y7923750D01*
X15482910Y7934330D01*
X15510460Y7955490D01*
X15530150Y7992540D01*
X15534080Y8034870D01*
X15526210Y8077200D01*
X15506520Y8103670D01*
X15478960Y8124830D01*
X15451410Y8130120D01*
X15423850Y8124830D01*
X15388420Y8103670D01*
X15400230Y8241250D01*
X15506520D01*
G01X15809670Y7923750D02*
Y8241250D01*
X15664000Y8013710D01*
X15860860D01*
G01X13852980Y9193750D02*
X13951410Y9511250D01*
X14049840Y9193750D01*
G01X14014400Y9304870D02*
X13888410D01*
G01X14187630Y9511250D02*
Y9193750D01*
X14345110D01*
G01X14502590Y9511250D02*
Y9193750D01*
X14660070D01*
G01X15124640Y9511250D02*
Y9283710D01*
X15140380Y9236070D01*
X15171880Y9204330D01*
X15211250Y9193750D01*
X15250620Y9204330D01*
X15282120Y9236070D01*
X15297860Y9283710D01*
Y9511250D01*
G01X15435660Y9193750D02*
Y9511250D01*
X15616760Y9193750D01*
Y9511250D01*
G01X15793930D02*
X15888410D01*
G01X15841170D02*
Y9193750D01*
G01X15793930D02*
X15888410D01*
G01X16156130Y9511250D02*
Y9193750D01*
G01X16065580Y9511250D02*
X16246680D01*
G01X16388410Y9236070D02*
X16419910Y9209620D01*
X16455340Y9193750D01*
X16486840D01*
X16518330Y9209620D01*
X16541960Y9236070D01*
X16553770Y9273130D01*
X16545900Y9310160D01*
X16526210Y9341910D01*
X16490770Y9363090D01*
X16443530Y9373670D01*
X16415970Y9394830D01*
X16404160Y9431870D01*
X16412040Y9468920D01*
X16431720Y9495370D01*
X16459280Y9511250D01*
X16486840D01*
X16514400Y9500670D01*
X16538020Y9474210D01*
G01X17002580Y9193750D02*
X17101010Y9511250D01*
X17199440Y9193750D01*
G01X17164000Y9304870D02*
X17038010D01*
G01X17337230Y9193750D02*
Y9511250D01*
X17435650D01*
X17467150Y9495370D01*
X17486840Y9474210D01*
X17494710Y9431870D01*
X17486840Y9389540D01*
X17463210Y9363090D01*
X17435650Y9347200D01*
X17337230D01*
G01X17435650D02*
X17494710Y9193750D01*
G01X17809670D02*
X17652190D01*
Y9511250D01*
X17809670D01*
G01X17746680Y9357800D02*
X17652190D01*
G01X18313610Y9511250D02*
X18408090D01*
G01X18360850D02*
Y9193750D01*
G01X18313610D02*
X18408090D01*
G01X18585260D02*
Y9511250D01*
X18766360Y9193750D01*
Y9511250D01*
G01X19203360Y9193750D02*
Y9511250D01*
X19305730Y9246670D01*
X19408100Y9511250D01*
Y9193750D01*
G01X19573450Y9511250D02*
X19667930D01*
G01X19620690D02*
Y9193750D01*
G01X19573450D02*
X19667930D01*
G01X19856910Y9511250D02*
Y9193750D01*
X20014390D01*
G01X20171870Y9511250D02*
Y9193750D01*
X20329350D01*
G01X20518330Y9511250D02*
X20612810D01*
G01X20565570D02*
Y9193750D01*
G01X20518330D02*
X20612810D01*
G01X20778160D02*
Y9511250D01*
X20880530Y9246670D01*
X20982900Y9511250D01*
Y9193750D01*
G01X21274230D02*
X21116750D01*
Y9511250D01*
X21274230D01*
G01X21211240Y9357800D02*
X21116750D01*
G01X21510450Y9511250D02*
Y9193750D01*
G01X21419900Y9511250D02*
X21601000D01*
G01X21904150Y9193750D02*
X21746670D01*
Y9511250D01*
X21904150D01*
G01X21841160Y9357800D02*
X21746670D01*
G01X22061630Y9193750D02*
Y9511250D01*
X22160050D01*
X22191550Y9495370D01*
X22211240Y9474210D01*
X22219110Y9431870D01*
X22211240Y9389540D01*
X22187610Y9363090D01*
X22160050Y9347200D01*
X22061630D01*
G01X22160050D02*
X22219110Y9193750D01*
G01X22372650Y9236070D02*
X22404150Y9209620D01*
X22439580Y9193750D01*
X22471080D01*
X22502570Y9209620D01*
X22526200Y9236070D01*
X22538010Y9273130D01*
X22530140Y9310160D01*
X22510450Y9341910D01*
X22475010Y9363090D01*
X22427770Y9373670D01*
X22400210Y9394830D01*
X22388400Y9431870D01*
X22396280Y9468920D01*
X22415960Y9495370D01*
X22443520Y9511250D01*
X22471080D01*
X22498640Y9500670D01*
X22522260Y9474210D01*
G01X14179760Y9843750D02*
Y10161250D01*
X14258490D01*
X14289990Y10145370D01*
X14313610Y10124210D01*
X14333300Y10092460D01*
X14349050Y10055410D01*
X14352980Y10002500D01*
X14349050Y9949580D01*
X14333300Y9912540D01*
X14313610Y9880780D01*
X14289990Y9859620D01*
X14258490Y9843750D01*
X14179760D01*
G01X14502590D02*
Y10161250D01*
X14601010D01*
X14632510Y10145370D01*
X14652200Y10124210D01*
X14660070Y10081870D01*
X14652200Y10039540D01*
X14628570Y10013090D01*
X14601010Y9997200D01*
X14502590D01*
G01X14601010D02*
X14660070Y9843750D01*
G01X14849050Y10161250D02*
X14943530D01*
G01X14896290D02*
Y9843750D01*
G01X14849050D02*
X14943530D01*
G01X15132510Y10161250D02*
Y9843750D01*
X15289990D01*
G01X15447470Y10161250D02*
Y9843750D01*
X15604950D01*
G01X16242740Y10134790D02*
X16219120Y10150670D01*
X16191570Y10161250D01*
X16160070D01*
X16124630Y10145370D01*
X16097080Y10118920D01*
X16077390Y10087160D01*
X16061640Y10034250D01*
X16057700Y9986620D01*
X16065580Y9939000D01*
X16077390Y9907250D01*
X16101010Y9875490D01*
X16128570Y9854330D01*
X16156130Y9843750D01*
X16183690D01*
X16211250Y9854330D01*
X16234870Y9870200D01*
X16254560Y9891360D01*
G01X16388410Y9843750D02*
Y10161250D01*
G01X16553770D02*
Y9843750D01*
G01Y10002500D02*
X16388410D01*
G01X16687620Y9843750D02*
X16786050Y10161250D01*
X16884480Y9843750D01*
G01X16849040Y9954870D02*
X16723050D01*
G01X17022270Y9843750D02*
Y10161250D01*
X17120690D01*
X17152190Y10145370D01*
X17171880Y10124210D01*
X17179750Y10081870D01*
X17171880Y10039540D01*
X17148250Y10013090D01*
X17120690Y9997200D01*
X17022270D01*
G01X17120690D02*
X17179750Y9843750D01*
G01X17415970Y10161250D02*
Y9843750D01*
G01X17325420Y10161250D02*
X17506520D01*
G01X17730930Y9833170D02*
X17723050Y9838460D01*
Y9849040D01*
X17730930Y9854330D01*
X17738810Y9849040D01*
Y9838460D01*
X17730930Y9833170D01*
G01Y9976030D02*
X17723050Y9981330D01*
Y9991910D01*
X17730930Y9997200D01*
X17738810Y9991910D01*
Y9981330D01*
X17730930Y9976030D01*
G01X18360850Y10161250D02*
Y9843750D01*
G01X18270300Y10161250D02*
X18451400D01*
G01X18675810Y9843750D02*
X18644310Y9849040D01*
X18616760Y9870200D01*
X18593130Y9901960D01*
X18577380Y9939000D01*
X18569510Y9981330D01*
Y10023670D01*
X18577380Y10066000D01*
X18593130Y10103040D01*
X18616760Y10134790D01*
X18644310Y10155960D01*
X18675810Y10161250D01*
X18707300Y10155960D01*
X18734860Y10134790D01*
X18758490Y10103040D01*
X18774240Y10066000D01*
X18782110Y10023670D01*
Y9981330D01*
X18774240Y9939000D01*
X18758490Y9901960D01*
X18734860Y9870200D01*
X18707300Y9849040D01*
X18675810Y9843750D01*
G01X18912030D02*
Y10161250D01*
X19006520D01*
X19038010Y10145370D01*
X19061640Y10108330D01*
X19069510Y10066000D01*
X19061640Y10023670D01*
X19041950Y9991910D01*
X19006520Y9976030D01*
X18912030D01*
G01X19620690Y10161250D02*
Y9843750D01*
G01X19565570Y10055410D02*
X19675810D01*
G01X19935650Y9843750D02*
X19912030Y9849040D01*
X19888410Y9870200D01*
X19872650Y9907250D01*
X19864780Y9949580D01*
X19872650Y9991910D01*
X19888410Y10028960D01*
X19912030Y10050120D01*
X19935650Y10055410D01*
X19959270Y10050120D01*
X19982890Y10028960D01*
X19998640Y9991910D01*
X20002580Y9949580D01*
X19998640Y9907250D01*
X19982890Y9870200D01*
X19959270Y9849040D01*
X19935650Y9843750D01*
G01X20597060Y10013090D02*
X20612810Y10028960D01*
X20624620Y10055410D01*
X20632500Y10092460D01*
X20624620Y10124210D01*
X20608880Y10145370D01*
X20581320Y10161250D01*
X20475020D01*
Y9843750D01*
X20604940D01*
X20632500Y9864910D01*
X20648250Y9896670D01*
X20656120Y9933710D01*
X20648250Y9970740D01*
X20624620Y10002500D01*
X20597060Y10013090D01*
X20475020D01*
G01X20880530Y9843750D02*
X20849030Y9849040D01*
X20821480Y9870200D01*
X20797850Y9901960D01*
X20782100Y9939000D01*
X20774230Y9981330D01*
Y10023670D01*
X20782100Y10066000D01*
X20797850Y10103040D01*
X20821480Y10134790D01*
X20849030Y10155960D01*
X20880530Y10161250D01*
X20912020Y10155960D01*
X20939580Y10134790D01*
X20963210Y10103040D01*
X20978960Y10066000D01*
X20986830Y10023670D01*
Y9981330D01*
X20978960Y9939000D01*
X20963210Y9901960D01*
X20939580Y9870200D01*
X20912020Y9849040D01*
X20880530Y9843750D01*
G01X21195490Y10161250D02*
Y9843750D01*
G01X21104940Y10161250D02*
X21286040D01*
G01X21510450D02*
Y9843750D01*
G01X21419900Y10161250D02*
X21601000D01*
G01X21825410Y9843750D02*
X21793910Y9849040D01*
X21766360Y9870200D01*
X21742730Y9901960D01*
X21726980Y9939000D01*
X21719110Y9981330D01*
Y10023670D01*
X21726980Y10066000D01*
X21742730Y10103040D01*
X21766360Y10134790D01*
X21793910Y10155960D01*
X21825410Y10161250D01*
X21856900Y10155960D01*
X21884460Y10134790D01*
X21908090Y10103040D01*
X21923840Y10066000D01*
X21931710Y10023670D01*
Y9981330D01*
X21923840Y9939000D01*
X21908090Y9901960D01*
X21884460Y9870200D01*
X21856900Y9849040D01*
X21825410Y9843750D01*
G01X22038000D02*
Y10161250D01*
X22140370Y9896670D01*
X22242740Y10161250D01*
Y9843750D01*
G01X14730940Y1637250D02*
X14754550Y1600200D01*
X14786050Y1579040D01*
X14821490Y1573750D01*
X14852990Y1579040D01*
X14884480Y1605490D01*
X14904160Y1637250D01*
X14908100Y1669000D01*
X14900230Y1706030D01*
X14872670Y1732500D01*
X14845110Y1743090D01*
X14809670D01*
G01X14845110D02*
X14868730Y1758960D01*
X14888420Y1785410D01*
X14896290Y1817160D01*
X14888420Y1848920D01*
X14868730Y1875370D01*
X14833300Y1891250D01*
X14797870Y1885960D01*
X14762430Y1864790D01*
G01X15132510Y1563170D02*
X15124630Y1568460D01*
Y1579040D01*
X15132510Y1584330D01*
X15140390Y1579040D01*
Y1568460D01*
X15132510Y1563170D01*
G01X15360860Y1637250D02*
X15384470Y1600200D01*
X15415970Y1579040D01*
X15451410Y1573750D01*
X15482910Y1579040D01*
X15514400Y1605490D01*
X15534080Y1637250D01*
X15538020Y1669000D01*
X15530150Y1706030D01*
X15502590Y1732500D01*
X15475030Y1743090D01*
X15439590D01*
G01X15475030D02*
X15498650Y1758960D01*
X15518340Y1785410D01*
X15526210Y1817160D01*
X15518340Y1848920D01*
X15498650Y1875370D01*
X15463220Y1891250D01*
X15427790Y1885960D01*
X15392350Y1864790D01*
G01X14742740Y2473330D02*
X14766370Y2505080D01*
X14793930Y2520960D01*
X14825430Y2526250D01*
X14864790Y2515670D01*
X14892360Y2489210D01*
X14900230Y2457460D01*
X14896290Y2425700D01*
X14880540Y2399250D01*
X14801800Y2346330D01*
X14766370Y2309290D01*
X14742740Y2256360D01*
X14734870Y2208750D01*
X14900230D01*
G01X15132510Y2198170D02*
X15124630Y2203460D01*
Y2214040D01*
X15132510Y2219330D01*
X15140390Y2214040D01*
Y2203460D01*
X15132510Y2198170D01*
G01X15360860Y2272250D02*
X15384470Y2235200D01*
X15415970Y2214040D01*
X15451410Y2208750D01*
X15482910Y2214040D01*
X15514400Y2240490D01*
X15534080Y2272250D01*
X15538020Y2304000D01*
X15530150Y2341030D01*
X15502590Y2367500D01*
X15475030Y2378090D01*
X15439590D01*
G01X15475030D02*
X15498650Y2393960D01*
X15518340Y2420410D01*
X15526210Y2452160D01*
X15518340Y2483920D01*
X15498650Y2510370D01*
X15463220Y2526250D01*
X15427790Y2520960D01*
X15392350Y2499790D01*
G01X14817550Y2843750D02*
Y3161250D01*
X14770310Y3097750D01*
G01Y2843750D02*
X14864790D01*
G01X15132510Y2833170D02*
X15124630Y2838460D01*
Y2849040D01*
X15132510Y2854330D01*
X15140390Y2849040D01*
Y2838460D01*
X15132510Y2833170D01*
G01X15447470Y2843750D02*
X15475030Y2849040D01*
X15506520Y2864910D01*
X15526210Y2891360D01*
X15534080Y2928420D01*
X15526210Y2965450D01*
X15502590Y2997200D01*
X15467150Y3013090D01*
X15427790D01*
X15404160Y3023670D01*
X15384470Y3050120D01*
X15376600Y3087160D01*
X15388420Y3124210D01*
X15415970Y3150670D01*
X15447470Y3161250D01*
X15478960Y3150670D01*
X15506520Y3124210D01*
X15518340Y3087160D01*
X15510460Y3050120D01*
X15490780Y3023670D01*
X15467150Y3013090D01*
X15427790D01*
X15392350Y2997200D01*
X15368730Y2965450D01*
X15360860Y2928420D01*
X15368730Y2891360D01*
X15388420Y2864910D01*
X15419910Y2849040D01*
X15447470Y2843750D01*
G01X14817550Y3478750D02*
Y3796250D01*
X14770310Y3732750D01*
G01Y3478750D02*
X14864790D01*
G01X15132510Y3468170D02*
X15124630Y3473460D01*
Y3484040D01*
X15132510Y3489330D01*
X15140390Y3484040D01*
Y3473460D01*
X15132510Y3468170D01*
G01X15360860Y3542250D02*
X15384470Y3505200D01*
X15415970Y3484040D01*
X15451410Y3478750D01*
X15482910Y3484040D01*
X15514400Y3510490D01*
X15534080Y3542250D01*
X15538020Y3574000D01*
X15530150Y3611030D01*
X15502590Y3637500D01*
X15475030Y3648090D01*
X15439590D01*
G01X15475030D02*
X15498650Y3663960D01*
X15518340Y3690410D01*
X15526210Y3722160D01*
X15518340Y3753920D01*
X15498650Y3780370D01*
X15463220Y3796250D01*
X15427790Y3790960D01*
X15392350Y3769790D01*
G01X14817550Y4113750D02*
Y4431250D01*
X14770310Y4367750D01*
G01Y4113750D02*
X14864790D01*
G01X15132510Y4103170D02*
X15124630Y4108460D01*
Y4119040D01*
X15132510Y4124330D01*
X15140390Y4119040D01*
Y4108460D01*
X15132510Y4103170D01*
G01X15447470Y4113750D02*
Y4431250D01*
X15400230Y4367750D01*
G01Y4113750D02*
X15494710D01*
G01X14817550Y4748750D02*
Y5066250D01*
X14770310Y5002750D01*
G01Y4748750D02*
X14864790D01*
G01X15132510Y4738170D02*
X15124630Y4743460D01*
Y4754040D01*
X15132510Y4759330D01*
X15140390Y4754040D01*
Y4743460D01*
X15132510Y4738170D01*
G01X15447470Y5066250D02*
X15415970Y5055670D01*
X15392350Y5029210D01*
X15376600Y4997460D01*
X15364790Y4955120D01*
X15360860Y4907500D01*
X15364790Y4859870D01*
X15376600Y4817540D01*
X15392350Y4785780D01*
X15415970Y4759330D01*
X15447470Y4748750D01*
X15478960Y4759330D01*
X15502590Y4785780D01*
X15518340Y4817540D01*
X15530150Y4859870D01*
X15534080Y4907500D01*
X15530150Y4955120D01*
X15518340Y4997460D01*
X15502590Y5029210D01*
X15478960Y5055670D01*
X15447470Y5066250D01*
G01X14817550Y5701250D02*
X14786050Y5690670D01*
X14762430Y5664210D01*
X14746680Y5632460D01*
X14734870Y5590120D01*
X14730940Y5542500D01*
X14734870Y5494870D01*
X14746680Y5452540D01*
X14762430Y5420780D01*
X14786050Y5394330D01*
X14817550Y5383750D01*
X14849040Y5394330D01*
X14872670Y5420780D01*
X14888420Y5452540D01*
X14900230Y5494870D01*
X14904160Y5542500D01*
X14900230Y5590120D01*
X14888420Y5632460D01*
X14872670Y5664210D01*
X14849040Y5690670D01*
X14817550Y5701250D01*
G01X15132510Y5373170D02*
X15124630Y5378460D01*
Y5389040D01*
X15132510Y5394330D01*
X15140390Y5389040D01*
Y5378460D01*
X15132510Y5373170D01*
G01X15380540Y5420780D02*
X15408100Y5394330D01*
X15439590Y5383750D01*
X15471090Y5394330D01*
X15498650Y5426070D01*
X15518340Y5473710D01*
X15526210Y5521330D01*
Y5579540D01*
X15518340Y5627160D01*
X15498650Y5669500D01*
X15475030Y5690670D01*
X15447470Y5701250D01*
X15415970Y5690670D01*
X15392350Y5669500D01*
X15376600Y5637750D01*
X15368730Y5595410D01*
X15376600Y5558380D01*
X15396290Y5521330D01*
X15419910Y5500160D01*
X15447470Y5494870D01*
X15478960Y5505450D01*
X15502590Y5531910D01*
X15526210Y5579540D01*
G01X14817550Y6336250D02*
X14786050Y6325670D01*
X14762430Y6299210D01*
X14746680Y6267460D01*
X14734870Y6225120D01*
X14730940Y6177500D01*
X14734870Y6129870D01*
X14746680Y6087540D01*
X14762430Y6055780D01*
X14786050Y6029330D01*
X14817550Y6018750D01*
X14849040Y6029330D01*
X14872670Y6055780D01*
X14888420Y6087540D01*
X14900230Y6129870D01*
X14904160Y6177500D01*
X14900230Y6225120D01*
X14888420Y6267460D01*
X14872670Y6299210D01*
X14849040Y6325670D01*
X14817550Y6336250D01*
G01X15132510Y6008170D02*
X15124630Y6013460D01*
Y6024040D01*
X15132510Y6029330D01*
X15140390Y6024040D01*
Y6013460D01*
X15132510Y6008170D01*
G01X15447470Y6018750D02*
X15475030Y6024040D01*
X15506520Y6039910D01*
X15526210Y6066360D01*
X15534080Y6103420D01*
X15526210Y6140450D01*
X15502590Y6172200D01*
X15467150Y6188090D01*
X15427790D01*
X15404160Y6198670D01*
X15384470Y6225120D01*
X15376600Y6262160D01*
X15388420Y6299210D01*
X15415970Y6325670D01*
X15447470Y6336250D01*
X15478960Y6325670D01*
X15506520Y6299210D01*
X15518340Y6262160D01*
X15510460Y6225120D01*
X15490780Y6198670D01*
X15467150Y6188090D01*
X15427790D01*
X15392350Y6172200D01*
X15368730Y6140450D01*
X15360860Y6103420D01*
X15368730Y6066360D01*
X15388420Y6039910D01*
X15419910Y6024040D01*
X15447470Y6018750D01*
G01X18675810Y621250D02*
X18644310Y610670D01*
X18620690Y584210D01*
X18604940Y552460D01*
X18593130Y510120D01*
X18589200Y462500D01*
X18593130Y414870D01*
X18604940Y372540D01*
X18620690Y340780D01*
X18644310Y314330D01*
X18675810Y303750D01*
X18707300Y314330D01*
X18730930Y340780D01*
X18746680Y372540D01*
X18758490Y414870D01*
X18762420Y462500D01*
X18758490Y510120D01*
X18746680Y552460D01*
X18730930Y584210D01*
X18707300Y610670D01*
X18675810Y621250D01*
G01X18990770Y293170D02*
X18982890Y298460D01*
Y309040D01*
X18990770Y314330D01*
X18998650Y309040D01*
Y298460D01*
X18990770Y293170D01*
G01X19305730Y621250D02*
X19274230Y610670D01*
X19250610Y584210D01*
X19234860Y552460D01*
X19223050Y510120D01*
X19219120Y462500D01*
X19223050Y414870D01*
X19234860Y372540D01*
X19250610Y340780D01*
X19274230Y314330D01*
X19305730Y303750D01*
X19337220Y314330D01*
X19360850Y340780D01*
X19376600Y372540D01*
X19388410Y414870D01*
X19392340Y462500D01*
X19388410Y510120D01*
X19376600Y552460D01*
X19360850Y584210D01*
X19337220Y610670D01*
X19305730Y621250D01*
G01X19620690D02*
X19589190Y610670D01*
X19565570Y584210D01*
X19549820Y552460D01*
X19538010Y510120D01*
X19534080Y462500D01*
X19538010Y414870D01*
X19549820Y372540D01*
X19565570Y340780D01*
X19589190Y314330D01*
X19620690Y303750D01*
X19652180Y314330D01*
X19675810Y340780D01*
X19691560Y372540D01*
X19703370Y414870D01*
X19707300Y462500D01*
X19703370Y510120D01*
X19691560Y552460D01*
X19675810Y584210D01*
X19652180Y610670D01*
X19620690Y621250D01*
G01X19935650D02*
X19904150Y610670D01*
X19880530Y584210D01*
X19864780Y552460D01*
X19852970Y510120D01*
X19849040Y462500D01*
X19852970Y414870D01*
X19864780Y372540D01*
X19880530Y340780D01*
X19904150Y314330D01*
X19935650Y303750D01*
X19967140Y314330D01*
X19990770Y340780D01*
X20006520Y372540D01*
X20018330Y414870D01*
X20022260Y462500D01*
X20018330Y510120D01*
X20006520Y552460D01*
X19990770Y584210D01*
X19967140Y610670D01*
X19935650Y621250D01*
G01X18451400Y975780D02*
X18478960Y949330D01*
X18510450Y938750D01*
X18541950Y949330D01*
X18569510Y981070D01*
X18589200Y1028710D01*
X18597070Y1076330D01*
Y1134540D01*
X18589200Y1182160D01*
X18569510Y1224500D01*
X18545890Y1245670D01*
X18518330Y1256250D01*
X18486830Y1245670D01*
X18463210Y1224500D01*
X18447460Y1192750D01*
X18439590Y1150410D01*
X18447460Y1113380D01*
X18467150Y1076330D01*
X18490770Y1055160D01*
X18518330Y1049870D01*
X18549820Y1060450D01*
X18573450Y1086910D01*
X18597070Y1134540D01*
G01X18833290Y1256250D02*
X18801790Y1245670D01*
X18778170Y1219210D01*
X18762420Y1187460D01*
X18750610Y1145120D01*
X18746680Y1097500D01*
X18750610Y1049870D01*
X18762420Y1007540D01*
X18778170Y975780D01*
X18801790Y949330D01*
X18833290Y938750D01*
X18864780Y949330D01*
X18888410Y975780D01*
X18904160Y1007540D01*
X18915970Y1049870D01*
X18919900Y1097500D01*
X18915970Y1145120D01*
X18904160Y1187460D01*
X18888410Y1219210D01*
X18864780Y1245670D01*
X18833290Y1256250D01*
G01X19148250Y928170D02*
X19140370Y933460D01*
Y944040D01*
X19148250Y949330D01*
X19156130Y944040D01*
Y933460D01*
X19148250Y928170D01*
G01X19463210Y1256250D02*
X19431710Y1245670D01*
X19408090Y1219210D01*
X19392340Y1187460D01*
X19380530Y1145120D01*
X19376600Y1097500D01*
X19380530Y1049870D01*
X19392340Y1007540D01*
X19408090Y975780D01*
X19431710Y949330D01*
X19463210Y938750D01*
X19494700Y949330D01*
X19518330Y975780D01*
X19534080Y1007540D01*
X19545890Y1049870D01*
X19549820Y1097500D01*
X19545890Y1145120D01*
X19534080Y1187460D01*
X19518330Y1219210D01*
X19494700Y1245670D01*
X19463210Y1256250D01*
G01X19778170D02*
X19746670Y1245670D01*
X19723050Y1219210D01*
X19707300Y1187460D01*
X19695490Y1145120D01*
X19691560Y1097500D01*
X19695490Y1049870D01*
X19707300Y1007540D01*
X19723050Y975780D01*
X19746670Y949330D01*
X19778170Y938750D01*
X19809660Y949330D01*
X19833290Y975780D01*
X19849040Y1007540D01*
X19860850Y1049870D01*
X19864780Y1097500D01*
X19860850Y1145120D01*
X19849040Y1187460D01*
X19833290Y1219210D01*
X19809660Y1245670D01*
X19778170Y1256250D01*
G01X20093130D02*
X20061630Y1245670D01*
X20038010Y1219210D01*
X20022260Y1187460D01*
X20010450Y1145120D01*
X20006520Y1097500D01*
X20010450Y1049870D01*
X20022260Y1007540D01*
X20038010Y975780D01*
X20061630Y949330D01*
X20093130Y938750D01*
X20124620Y949330D01*
X20148250Y975780D01*
X20164000Y1007540D01*
X20175810Y1049870D01*
X20179740Y1097500D01*
X20175810Y1145120D01*
X20164000Y1187460D01*
X20148250Y1219210D01*
X20124620Y1245670D01*
X20093130Y1256250D01*
G01X18124630Y8558750D02*
Y8876250D01*
X18223050D01*
X18254550Y8860370D01*
X18274240Y8839210D01*
X18282110Y8796870D01*
X18274240Y8754540D01*
X18250610Y8728090D01*
X18223050Y8712200D01*
X18124630D01*
G01X18223050D02*
X18282110Y8558750D01*
G01X18518330D02*
X18486830Y8564040D01*
X18459280Y8585200D01*
X18435650Y8616960D01*
X18419900Y8654000D01*
X18412030Y8696330D01*
Y8738670D01*
X18419900Y8781000D01*
X18435650Y8818040D01*
X18459280Y8849790D01*
X18486830Y8870960D01*
X18518330Y8876250D01*
X18549820Y8870960D01*
X18577380Y8849790D01*
X18601010Y8818040D01*
X18616760Y8781000D01*
X18624630Y8738670D01*
Y8696330D01*
X18616760Y8654000D01*
X18601010Y8616960D01*
X18577380Y8585200D01*
X18549820Y8564040D01*
X18518330Y8558750D01*
G01X18833290Y8876250D02*
Y8558750D01*
G01X18742740Y8876250D02*
X18923840D01*
G01X19049820Y8558750D02*
X19148250Y8876250D01*
X19246680Y8558750D01*
G01X19211240Y8669870D02*
X19085250D01*
G01X19463210Y8876250D02*
Y8558750D01*
G01X19372660Y8876250D02*
X19553760D01*
G01X19730930D02*
X19825410D01*
G01X19778170D02*
Y8558750D01*
G01X19730930D02*
X19825410D01*
G01X20093130D02*
X20061630Y8564040D01*
X20034080Y8585200D01*
X20010450Y8616960D01*
X19994700Y8654000D01*
X19986830Y8696330D01*
Y8738670D01*
X19994700Y8781000D01*
X20010450Y8818040D01*
X20034080Y8849790D01*
X20061630Y8870960D01*
X20093130Y8876250D01*
X20124620Y8870960D01*
X20152180Y8849790D01*
X20175810Y8818040D01*
X20191560Y8781000D01*
X20199430Y8738670D01*
Y8696330D01*
X20191560Y8654000D01*
X20175810Y8616960D01*
X20152180Y8585200D01*
X20124620Y8564040D01*
X20093130Y8558750D01*
G01X20317540D02*
Y8876250D01*
X20498640Y8558750D01*
Y8876250D01*
G01X19254550Y1679580D02*
X19356910D01*
G01X19254550Y2314580D02*
X19356910D01*
G01X19254550Y2949580D02*
X19356910D01*
G01X19254550Y3584580D02*
X19356910D01*
G01X19254550Y4219580D02*
X19356910D01*
G01X19254550Y4854580D02*
X19356910D01*
G01X19254550Y5489580D02*
X19356910D01*
G01X19254550Y6124580D02*
X19356910D01*
G01X19254550Y6759580D02*
X19356910D01*
G01X19254550Y7394580D02*
X19356910D01*
G01X19254550Y8029580D02*
X19356910D01*
G01X20248070Y-13750D02*
Y-331250D01*
G01X20157520Y-13750D02*
X20338620D01*
G01X20563030Y-331250D02*
X20531530Y-325960D01*
X20503980Y-304800D01*
X20480350Y-273040D01*
X20464600Y-236000D01*
X20456730Y-193670D01*
Y-151330D01*
X20464600Y-109000D01*
X20480350Y-71960D01*
X20503980Y-40210D01*
X20531530Y-19040D01*
X20563030Y-13750D01*
X20594520Y-19040D01*
X20622080Y-40210D01*
X20645710Y-71960D01*
X20661460Y-109000D01*
X20669330Y-151330D01*
Y-193670D01*
X20661460Y-236000D01*
X20645710Y-273040D01*
X20622080Y-304800D01*
X20594520Y-325960D01*
X20563030Y-331250D01*
G01X20877990Y-13750D02*
Y-331250D01*
G01X20787440Y-13750D02*
X20968540D01*
G01X21094520Y-331250D02*
X21192950Y-13750D01*
X21291380Y-331250D01*
G01X21255940Y-220130D02*
X21129950D01*
G01X21429170Y-13750D02*
Y-331250D01*
X21586650D01*
G01X22055150D02*
Y-13750D01*
G01X22220510D02*
Y-331250D01*
G01Y-172500D02*
X22055150D01*
G01X22452790Y-331250D02*
X22421290Y-325960D01*
X22393740Y-304800D01*
X22370110Y-273040D01*
X22354360Y-236000D01*
X22346490Y-193670D01*
Y-151330D01*
X22354360Y-109000D01*
X22370110Y-71960D01*
X22393740Y-40210D01*
X22421290Y-19040D01*
X22452790Y-13750D01*
X22484280Y-19040D01*
X22511840Y-40210D01*
X22535470Y-71960D01*
X22551220Y-109000D01*
X22559090Y-151330D01*
Y-193670D01*
X22551220Y-236000D01*
X22535470Y-273040D01*
X22511840Y-304800D01*
X22484280Y-325960D01*
X22452790Y-331250D01*
G01X22689010Y-13750D02*
Y-331250D01*
X22846490D01*
G01X23161450D02*
X23003970D01*
Y-13750D01*
X23161450D01*
G01X23098460Y-167200D02*
X23003970D01*
G01X23314990Y-288930D02*
X23346490Y-315380D01*
X23381920Y-331250D01*
X23413420D01*
X23444910Y-315380D01*
X23468540Y-288930D01*
X23480350Y-251870D01*
X23472480Y-214840D01*
X23452790Y-183090D01*
X23417350Y-161910D01*
X23370110Y-151330D01*
X23342550Y-130170D01*
X23330740Y-93130D01*
X23338620Y-56080D01*
X23358300Y-29630D01*
X23385860Y-13750D01*
X23413420D01*
X23440980Y-24330D01*
X23464600Y-50790D01*
G01X23712630Y-341830D02*
X23704750Y-336540D01*
Y-325960D01*
X23712630Y-320670D01*
X23720510Y-325960D01*
Y-336540D01*
X23712630Y-341830D01*
G01Y-198970D02*
X23704750Y-193670D01*
Y-183090D01*
X23712630Y-177800D01*
X23720510Y-183090D01*
Y-193670D01*
X23712630Y-198970D01*
G01X21667930Y303750D02*
Y621250D01*
X21762420D01*
X21793910Y605370D01*
X21817540Y568330D01*
X21825410Y526000D01*
X21817540Y483670D01*
X21797850Y451910D01*
X21762420Y436030D01*
X21667930D01*
G01X21982890Y621250D02*
Y303750D01*
X22140370D01*
G01X22278160D02*
X22376590Y621250D01*
X22475020Y303750D01*
G01X22439580Y414870D02*
X22313590D01*
G01X22691550Y621250D02*
Y303750D01*
G01X22601000Y621250D02*
X22782100D01*
G01X23085250Y303750D02*
X22927770D01*
Y621250D01*
X23085250D01*
G01X23022260Y467800D02*
X22927770D01*
G01X23234860Y303750D02*
Y621250D01*
X23313590D01*
X23345090Y605370D01*
X23368710Y584210D01*
X23388400Y552460D01*
X23404150Y515410D01*
X23408080Y462500D01*
X23404150Y409580D01*
X23388400Y372540D01*
X23368710Y340780D01*
X23345090Y319620D01*
X23313590Y303750D01*
X23234860D01*
G01X21667930Y938750D02*
Y1256250D01*
X21762420D01*
X21793910Y1240370D01*
X21817540Y1203330D01*
X21825410Y1161000D01*
X21817540Y1118670D01*
X21797850Y1086910D01*
X21762420Y1071030D01*
X21667930D01*
G01X21982890Y1256250D02*
Y938750D01*
X22140370D01*
G01X22278160D02*
X22376590Y1256250D01*
X22475020Y938750D01*
G01X22439580Y1049870D02*
X22313590D01*
G01X22691550Y1256250D02*
Y938750D01*
G01X22601000Y1256250D02*
X22782100D01*
G01X23085250Y938750D02*
X22927770D01*
Y1256250D01*
X23085250D01*
G01X23022260Y1102800D02*
X22927770D01*
G01X23234860Y938750D02*
Y1256250D01*
X23313590D01*
X23345090Y1240370D01*
X23368710Y1219210D01*
X23388400Y1187460D01*
X23404150Y1150410D01*
X23408080Y1097500D01*
X23404150Y1044580D01*
X23388400Y1007540D01*
X23368710Y975780D01*
X23345090Y954620D01*
X23313590Y938750D01*
X23234860D01*
G01X21667930Y1573750D02*
Y1891250D01*
X21762420D01*
X21793910Y1875370D01*
X21817540Y1838330D01*
X21825410Y1796000D01*
X21817540Y1753670D01*
X21797850Y1721910D01*
X21762420Y1706030D01*
X21667930D01*
G01X21982890Y1891250D02*
Y1573750D01*
X22140370D01*
G01X22278160D02*
X22376590Y1891250D01*
X22475020Y1573750D01*
G01X22439580Y1684870D02*
X22313590D01*
G01X22691550Y1891250D02*
Y1573750D01*
G01X22601000Y1891250D02*
X22782100D01*
G01X23085250Y1573750D02*
X22927770D01*
Y1891250D01*
X23085250D01*
G01X23022260Y1737800D02*
X22927770D01*
G01X23234860Y1573750D02*
Y1891250D01*
X23313590D01*
X23345090Y1875370D01*
X23368710Y1854210D01*
X23388400Y1822460D01*
X23404150Y1785410D01*
X23408080Y1732500D01*
X23404150Y1679580D01*
X23388400Y1642540D01*
X23368710Y1610780D01*
X23345090Y1589620D01*
X23313590Y1573750D01*
X23234860D01*
G01X21667930Y2208750D02*
Y2526250D01*
X21762420D01*
X21793910Y2510370D01*
X21817540Y2473330D01*
X21825410Y2431000D01*
X21817540Y2388670D01*
X21797850Y2356910D01*
X21762420Y2341030D01*
X21667930D01*
G01X21982890Y2526250D02*
Y2208750D01*
X22140370D01*
G01X22278160D02*
X22376590Y2526250D01*
X22475020Y2208750D01*
G01X22439580Y2319870D02*
X22313590D01*
G01X22691550Y2526250D02*
Y2208750D01*
G01X22601000Y2526250D02*
X22782100D01*
G01X23085250Y2208750D02*
X22927770D01*
Y2526250D01*
X23085250D01*
G01X23022260Y2372800D02*
X22927770D01*
G01X23234860Y2208750D02*
Y2526250D01*
X23313590D01*
X23345090Y2510370D01*
X23368710Y2489210D01*
X23388400Y2457460D01*
X23404150Y2420410D01*
X23408080Y2367500D01*
X23404150Y2314580D01*
X23388400Y2277540D01*
X23368710Y2245780D01*
X23345090Y2224620D01*
X23313590Y2208750D01*
X23234860D01*
G01X21667930Y2843750D02*
Y3161250D01*
X21762420D01*
X21793910Y3145370D01*
X21817540Y3108330D01*
X21825410Y3066000D01*
X21817540Y3023670D01*
X21797850Y2991910D01*
X21762420Y2976030D01*
X21667930D01*
G01X21982890Y3161250D02*
Y2843750D01*
X22140370D01*
G01X22278160D02*
X22376590Y3161250D01*
X22475020Y2843750D01*
G01X22439580Y2954870D02*
X22313590D01*
G01X22691550Y3161250D02*
Y2843750D01*
G01X22601000Y3161250D02*
X22782100D01*
G01X23085250Y2843750D02*
X22927770D01*
Y3161250D01*
X23085250D01*
G01X23022260Y3007800D02*
X22927770D01*
G01X23234860Y2843750D02*
Y3161250D01*
X23313590D01*
X23345090Y3145370D01*
X23368710Y3124210D01*
X23388400Y3092460D01*
X23404150Y3055410D01*
X23408080Y3002500D01*
X23404150Y2949580D01*
X23388400Y2912540D01*
X23368710Y2880780D01*
X23345090Y2859620D01*
X23313590Y2843750D01*
X23234860D01*
G01X21667930Y3478750D02*
Y3796250D01*
X21762420D01*
X21793910Y3780370D01*
X21817540Y3743330D01*
X21825410Y3701000D01*
X21817540Y3658670D01*
X21797850Y3626910D01*
X21762420Y3611030D01*
X21667930D01*
G01X21982890Y3796250D02*
Y3478750D01*
X22140370D01*
G01X22278160D02*
X22376590Y3796250D01*
X22475020Y3478750D01*
G01X22439580Y3589870D02*
X22313590D01*
G01X22691550Y3796250D02*
Y3478750D01*
G01X22601000Y3796250D02*
X22782100D01*
G01X23085250Y3478750D02*
X22927770D01*
Y3796250D01*
X23085250D01*
G01X23022260Y3642800D02*
X22927770D01*
G01X23234860Y3478750D02*
Y3796250D01*
X23313590D01*
X23345090Y3780370D01*
X23368710Y3759210D01*
X23388400Y3727460D01*
X23404150Y3690410D01*
X23408080Y3637500D01*
X23404150Y3584580D01*
X23388400Y3547540D01*
X23368710Y3515780D01*
X23345090Y3494620D01*
X23313590Y3478750D01*
X23234860D01*
G01X21667930Y4113750D02*
Y4431250D01*
X21762420D01*
X21793910Y4415370D01*
X21817540Y4378330D01*
X21825410Y4336000D01*
X21817540Y4293670D01*
X21797850Y4261910D01*
X21762420Y4246030D01*
X21667930D01*
G01X21982890Y4431250D02*
Y4113750D01*
X22140370D01*
G01X22278160D02*
X22376590Y4431250D01*
X22475020Y4113750D01*
G01X22439580Y4224870D02*
X22313590D01*
G01X22691550Y4431250D02*
Y4113750D01*
G01X22601000Y4431250D02*
X22782100D01*
G01X23085250Y4113750D02*
X22927770D01*
Y4431250D01*
X23085250D01*
G01X23022260Y4277800D02*
X22927770D01*
G01X23234860Y4113750D02*
Y4431250D01*
X23313590D01*
X23345090Y4415370D01*
X23368710Y4394210D01*
X23388400Y4362460D01*
X23404150Y4325410D01*
X23408080Y4272500D01*
X23404150Y4219580D01*
X23388400Y4182540D01*
X23368710Y4150780D01*
X23345090Y4129620D01*
X23313590Y4113750D01*
X23234860D01*
G01X21667930Y4748750D02*
Y5066250D01*
X21762420D01*
X21793910Y5050370D01*
X21817540Y5013330D01*
X21825410Y4971000D01*
X21817540Y4928670D01*
X21797850Y4896910D01*
X21762420Y4881030D01*
X21667930D01*
G01X21982890Y5066250D02*
Y4748750D01*
X22140370D01*
G01X22278160D02*
X22376590Y5066250D01*
X22475020Y4748750D01*
G01X22439580Y4859870D02*
X22313590D01*
G01X22691550Y5066250D02*
Y4748750D01*
G01X22601000Y5066250D02*
X22782100D01*
G01X23085250Y4748750D02*
X22927770D01*
Y5066250D01*
X23085250D01*
G01X23022260Y4912800D02*
X22927770D01*
G01X23234860Y4748750D02*
Y5066250D01*
X23313590D01*
X23345090Y5050370D01*
X23368710Y5029210D01*
X23388400Y4997460D01*
X23404150Y4960410D01*
X23408080Y4907500D01*
X23404150Y4854580D01*
X23388400Y4817540D01*
X23368710Y4785780D01*
X23345090Y4764620D01*
X23313590Y4748750D01*
X23234860D01*
G01X21667930Y5383750D02*
Y5701250D01*
X21762420D01*
X21793910Y5685370D01*
X21817540Y5648330D01*
X21825410Y5606000D01*
X21817540Y5563670D01*
X21797850Y5531910D01*
X21762420Y5516030D01*
X21667930D01*
G01X21982890Y5701250D02*
Y5383750D01*
X22140370D01*
G01X22278160D02*
X22376590Y5701250D01*
X22475020Y5383750D01*
G01X22439580Y5494870D02*
X22313590D01*
G01X22691550Y5701250D02*
Y5383750D01*
G01X22601000Y5701250D02*
X22782100D01*
G01X23085250Y5383750D02*
X22927770D01*
Y5701250D01*
X23085250D01*
G01X23022260Y5547800D02*
X22927770D01*
G01X23234860Y5383750D02*
Y5701250D01*
X23313590D01*
X23345090Y5685370D01*
X23368710Y5664210D01*
X23388400Y5632460D01*
X23404150Y5595410D01*
X23408080Y5542500D01*
X23404150Y5489580D01*
X23388400Y5452540D01*
X23368710Y5420780D01*
X23345090Y5399620D01*
X23313590Y5383750D01*
X23234860D01*
G01X21667930Y6018750D02*
Y6336250D01*
X21762420D01*
X21793910Y6320370D01*
X21817540Y6283330D01*
X21825410Y6241000D01*
X21817540Y6198670D01*
X21797850Y6166910D01*
X21762420Y6151030D01*
X21667930D01*
G01X21982890Y6336250D02*
Y6018750D01*
X22140370D01*
G01X22278160D02*
X22376590Y6336250D01*
X22475020Y6018750D01*
G01X22439580Y6129870D02*
X22313590D01*
G01X22691550Y6336250D02*
Y6018750D01*
G01X22601000Y6336250D02*
X22782100D01*
G01X23085250Y6018750D02*
X22927770D01*
Y6336250D01*
X23085250D01*
G01X23022260Y6182800D02*
X22927770D01*
G01X23234860Y6018750D02*
Y6336250D01*
X23313590D01*
X23345090Y6320370D01*
X23368710Y6299210D01*
X23388400Y6267460D01*
X23404150Y6230410D01*
X23408080Y6177500D01*
X23404150Y6124580D01*
X23388400Y6087540D01*
X23368710Y6055780D01*
X23345090Y6034620D01*
X23313590Y6018750D01*
X23234860D01*
G01X21667930Y6653750D02*
Y6971250D01*
X21762420D01*
X21793910Y6955370D01*
X21817540Y6918330D01*
X21825410Y6876000D01*
X21817540Y6833670D01*
X21797850Y6801910D01*
X21762420Y6786030D01*
X21667930D01*
G01X21982890Y6971250D02*
Y6653750D01*
X22140370D01*
G01X22278160D02*
X22376590Y6971250D01*
X22475020Y6653750D01*
G01X22439580Y6764870D02*
X22313590D01*
G01X22691550Y6971250D02*
Y6653750D01*
G01X22601000Y6971250D02*
X22782100D01*
G01X23085250Y6653750D02*
X22927770D01*
Y6971250D01*
X23085250D01*
G01X23022260Y6817800D02*
X22927770D01*
G01X23234860Y6653750D02*
Y6971250D01*
X23313590D01*
X23345090Y6955370D01*
X23368710Y6934210D01*
X23388400Y6902460D01*
X23404150Y6865410D01*
X23408080Y6812500D01*
X23404150Y6759580D01*
X23388400Y6722540D01*
X23368710Y6690780D01*
X23345090Y6669620D01*
X23313590Y6653750D01*
X23234860D01*
G01X21667930Y7288750D02*
Y7606250D01*
X21762420D01*
X21793910Y7590370D01*
X21817540Y7553330D01*
X21825410Y7511000D01*
X21817540Y7468670D01*
X21797850Y7436910D01*
X21762420Y7421030D01*
X21667930D01*
G01X21982890Y7606250D02*
Y7288750D01*
X22140370D01*
G01X22278160D02*
X22376590Y7606250D01*
X22475020Y7288750D01*
G01X22439580Y7399870D02*
X22313590D01*
G01X22691550Y7606250D02*
Y7288750D01*
G01X22601000Y7606250D02*
X22782100D01*
G01X23085250Y7288750D02*
X22927770D01*
Y7606250D01*
X23085250D01*
G01X23022260Y7452800D02*
X22927770D01*
G01X23234860Y7288750D02*
Y7606250D01*
X23313590D01*
X23345090Y7590370D01*
X23368710Y7569210D01*
X23388400Y7537460D01*
X23404150Y7500410D01*
X23408080Y7447500D01*
X23404150Y7394580D01*
X23388400Y7357540D01*
X23368710Y7325780D01*
X23345090Y7304620D01*
X23313590Y7288750D01*
X23234860D01*
G01X21667930Y7923750D02*
Y8241250D01*
X21762420D01*
X21793910Y8225370D01*
X21817540Y8188330D01*
X21825410Y8146000D01*
X21817540Y8103670D01*
X21797850Y8071910D01*
X21762420Y8056030D01*
X21667930D01*
G01X21982890Y8241250D02*
Y7923750D01*
X22140370D01*
G01X22278160D02*
X22376590Y8241250D01*
X22475020Y7923750D01*
G01X22439580Y8034870D02*
X22313590D01*
G01X22691550Y8241250D02*
Y7923750D01*
G01X22601000Y8241250D02*
X22782100D01*
G01X23085250Y7923750D02*
X22927770D01*
Y8241250D01*
X23085250D01*
G01X23022260Y8087800D02*
X22927770D01*
G01X23234860Y7923750D02*
Y8241250D01*
X23313590D01*
X23345090Y8225370D01*
X23368710Y8204210D01*
X23388400Y8172460D01*
X23404150Y8135410D01*
X23408080Y8082500D01*
X23404150Y8029580D01*
X23388400Y7992540D01*
X23368710Y7960780D01*
X23345090Y7939620D01*
X23313590Y7923750D01*
X23234860D01*
G01X21667930Y8558750D02*
Y8876250D01*
X21762420D01*
X21793910Y8860370D01*
X21817540Y8823330D01*
X21825410Y8781000D01*
X21817540Y8738670D01*
X21797850Y8706910D01*
X21762420Y8691030D01*
X21667930D01*
G01X21982890Y8876250D02*
Y8558750D01*
X22140370D01*
G01X22278160D02*
X22376590Y8876250D01*
X22475020Y8558750D01*
G01X22439580Y8669870D02*
X22313590D01*
G01X22691550Y8876250D02*
Y8558750D01*
G01X22601000Y8876250D02*
X22782100D01*
G01X23085250Y8558750D02*
X22927770D01*
Y8876250D01*
X23085250D01*
G01X23022260Y8722800D02*
X22927770D01*
G01X23234860Y8558750D02*
Y8876250D01*
X23313590D01*
X23345090Y8860370D01*
X23368710Y8839210D01*
X23388400Y8807460D01*
X23404150Y8770410D01*
X23408080Y8717500D01*
X23404150Y8664580D01*
X23388400Y8627540D01*
X23368710Y8595780D01*
X23345090Y8574620D01*
X23313590Y8558750D01*
X23234860D01*
G01X24742720Y-66670D02*
X24766350Y-34920D01*
X24793910Y-19040D01*
X24825410Y-13750D01*
X24864770Y-24330D01*
X24892340Y-50790D01*
X24900210Y-82540D01*
X24896270Y-114300D01*
X24880520Y-140750D01*
X24801780Y-193670D01*
X24766350Y-230710D01*
X24742720Y-283640D01*
X24734850Y-331250D01*
X24900210D01*
G01X25057680Y-198970D02*
X25085250Y-161910D01*
X25108870Y-140750D01*
X25140370Y-130170D01*
X25167930Y-140750D01*
X25187610Y-161910D01*
X25203360Y-193670D01*
X25207300Y-230710D01*
X25203360Y-262460D01*
X25187610Y-294220D01*
X25163980Y-320670D01*
X25136430Y-331250D01*
X25104930Y-320670D01*
X25077370Y-288930D01*
X25061620Y-241290D01*
X25057680Y-188380D01*
X25065560Y-119590D01*
X25077370Y-82540D01*
X25097050Y-45500D01*
X25124610Y-19040D01*
X25152170Y-13750D01*
X25179730Y-24330D01*
X25199420Y-50790D01*
G01X25380520Y-294220D02*
X25408080Y-320670D01*
X25439570Y-331250D01*
X25471070Y-320670D01*
X25498630Y-288930D01*
X25518320Y-241290D01*
X25526190Y-193670D01*
Y-135460D01*
X25518320Y-87840D01*
X25498630Y-45500D01*
X25475010Y-24330D01*
X25447450Y-13750D01*
X25415950Y-24330D01*
X25392330Y-45500D01*
X25376580Y-77250D01*
X25368710Y-119590D01*
X25376580Y-156620D01*
X25396270Y-193670D01*
X25419890Y-214840D01*
X25447450Y-220130D01*
X25478940Y-209550D01*
X25502570Y-183090D01*
X25526190Y-135460D01*
G01X25132490Y303750D02*
Y621250D01*
X25085250Y557750D01*
G01Y303750D02*
X25179730D01*
G01X25057680Y1203330D02*
X25081310Y1235080D01*
X25108870Y1250960D01*
X25140370Y1256250D01*
X25179730Y1245670D01*
X25207300Y1219210D01*
X25215170Y1187460D01*
X25211230Y1155700D01*
X25195480Y1129250D01*
X25116740Y1076330D01*
X25081310Y1039290D01*
X25057680Y986360D01*
X25049810Y938750D01*
X25215170D01*
G01X25057680Y1838330D02*
X25081310Y1870080D01*
X25108870Y1885960D01*
X25140370Y1891250D01*
X25179730Y1880670D01*
X25207300Y1854210D01*
X25215170Y1822460D01*
X25211230Y1790700D01*
X25195480Y1764250D01*
X25116740Y1711330D01*
X25081310Y1674290D01*
X25057680Y1621360D01*
X25049810Y1573750D01*
X25215170D01*
G01X25057680Y2341030D02*
X25085250Y2378090D01*
X25108870Y2399250D01*
X25140370Y2409830D01*
X25167930Y2399250D01*
X25187610Y2378090D01*
X25203360Y2346330D01*
X25207300Y2309290D01*
X25203360Y2277540D01*
X25187610Y2245780D01*
X25163980Y2219330D01*
X25136430Y2208750D01*
X25104930Y2219330D01*
X25077370Y2251070D01*
X25061620Y2298710D01*
X25057680Y2351620D01*
X25065560Y2420410D01*
X25077370Y2457460D01*
X25097050Y2494500D01*
X25124610Y2520960D01*
X25152170Y2526250D01*
X25179730Y2515670D01*
X25199420Y2489210D01*
G01X25057680Y3108330D02*
X25081310Y3140080D01*
X25108870Y3155960D01*
X25140370Y3161250D01*
X25179730Y3150670D01*
X25207300Y3124210D01*
X25215170Y3092460D01*
X25211230Y3060700D01*
X25195480Y3034250D01*
X25116740Y2981330D01*
X25081310Y2944290D01*
X25057680Y2891360D01*
X25049810Y2843750D01*
X25215170D01*
G01X25124610Y3478750D02*
X25132490Y3547540D01*
X25144300Y3605740D01*
X25160050Y3658670D01*
X25179730Y3716870D01*
X25211230Y3796250D01*
X25053750D01*
G01X24975010Y4113750D02*
Y4431250D01*
X24927770Y4367750D01*
G01Y4113750D02*
X25022250D01*
G01X25289970Y4431250D02*
X25258470Y4420670D01*
X25234850Y4394210D01*
X25219100Y4362460D01*
X25207290Y4320120D01*
X25203360Y4272500D01*
X25207290Y4224870D01*
X25219100Y4182540D01*
X25234850Y4150780D01*
X25258470Y4124330D01*
X25289970Y4113750D01*
X25321460Y4124330D01*
X25345090Y4150780D01*
X25360840Y4182540D01*
X25372650Y4224870D01*
X25376580Y4272500D01*
X25372650Y4320120D01*
X25360840Y4362460D01*
X25345090Y4394210D01*
X25321460Y4420670D01*
X25289970Y4431250D01*
G01X25179730Y4748750D02*
Y5066250D01*
X25034060Y4838710D01*
X25230920D01*
G01X24900200Y5648330D02*
X24923830Y5680080D01*
X24951390Y5695960D01*
X24982890Y5701250D01*
X25022250Y5690670D01*
X25049820Y5664210D01*
X25057690Y5632460D01*
X25053750Y5600700D01*
X25038000Y5574250D01*
X24959260Y5521330D01*
X24923830Y5484290D01*
X24900200Y5431360D01*
X24892330Y5383750D01*
X25057690D01*
G01X25203360Y5431360D02*
X25226970Y5404910D01*
X25254530Y5389040D01*
X25289970Y5383750D01*
X25325410Y5394330D01*
X25352960Y5415490D01*
X25372650Y5452540D01*
X25376580Y5494870D01*
X25368710Y5537200D01*
X25349020Y5563670D01*
X25321460Y5584830D01*
X25293910Y5590120D01*
X25266350Y5584830D01*
X25230920Y5563670D01*
X25242730Y5701250D01*
X25349020D01*
G01X24975010Y6018750D02*
Y6336250D01*
X24927770Y6272750D01*
G01Y6018750D02*
X25022250D01*
G01X25289970D02*
X25317530Y6024040D01*
X25349020Y6039910D01*
X25368710Y6066360D01*
X25376580Y6103420D01*
X25368710Y6140450D01*
X25345090Y6172200D01*
X25309650Y6188090D01*
X25270290D01*
X25246660Y6198670D01*
X25226970Y6225120D01*
X25219100Y6262160D01*
X25230920Y6299210D01*
X25258470Y6325670D01*
X25289970Y6336250D01*
X25321460Y6325670D01*
X25349020Y6299210D01*
X25360840Y6262160D01*
X25352960Y6225120D01*
X25333280Y6198670D01*
X25309650Y6188090D01*
X25270290D01*
X25234850Y6172200D01*
X25211230Y6140450D01*
X25203360Y6103420D01*
X25211230Y6066360D01*
X25230920Y6039910D01*
X25262410Y6024040D01*
X25289970Y6018750D01*
G01X25045880Y6717250D02*
X25069490Y6680200D01*
X25100990Y6659040D01*
X25136430Y6653750D01*
X25167930Y6659040D01*
X25199420Y6685490D01*
X25219100Y6717250D01*
X25223040Y6749000D01*
X25215170Y6786030D01*
X25187610Y6812500D01*
X25160050Y6823090D01*
X25124610D01*
G01X25160050D02*
X25183670Y6838960D01*
X25203360Y6865410D01*
X25211230Y6897160D01*
X25203360Y6928920D01*
X25183670Y6955370D01*
X25148240Y6971250D01*
X25112810Y6965960D01*
X25077370Y6944790D01*
G01X24975010Y7288750D02*
Y7606250D01*
X24927770Y7542750D01*
G01Y7288750D02*
X25022250D01*
G01X25203360Y7352250D02*
X25226970Y7315200D01*
X25258470Y7294040D01*
X25293910Y7288750D01*
X25325410Y7294040D01*
X25356900Y7320490D01*
X25376580Y7352250D01*
X25380520Y7384000D01*
X25372650Y7421030D01*
X25345090Y7447500D01*
X25317530Y7458090D01*
X25282090D01*
G01X25317530D02*
X25341150Y7473960D01*
X25360840Y7500410D01*
X25368710Y7532160D01*
X25360840Y7563920D01*
X25341150Y7590370D01*
X25305720Y7606250D01*
X25270290Y7600960D01*
X25234850Y7579790D01*
G01X24817530Y7923750D02*
Y8241250D01*
X24770290Y8177750D01*
G01Y7923750D02*
X24864770D01*
G01X25124610D02*
X25132490Y7992540D01*
X25144300Y8050740D01*
X25160050Y8103670D01*
X25179730Y8161870D01*
X25211230Y8241250D01*
X25053750D01*
G01X25372640Y8056030D02*
X25400210Y8093090D01*
X25423830Y8114250D01*
X25455330Y8124830D01*
X25482890Y8114250D01*
X25502570Y8093090D01*
X25518320Y8061330D01*
X25522260Y8024290D01*
X25518320Y7992540D01*
X25502570Y7960780D01*
X25478940Y7934330D01*
X25451390Y7923750D01*
X25419890Y7934330D01*
X25392330Y7966070D01*
X25376580Y8013710D01*
X25372640Y8066620D01*
X25380520Y8135410D01*
X25392330Y8172460D01*
X25412010Y8209500D01*
X25439570Y8235960D01*
X25467130Y8241250D01*
X25494690Y8230670D01*
X25514380Y8204210D01*
G01X24817530Y8558750D02*
X24786030Y8564040D01*
X24758480Y8585200D01*
X24734850Y8616960D01*
X24719100Y8654000D01*
X24711230Y8696330D01*
Y8738670D01*
X24719100Y8781000D01*
X24734850Y8818040D01*
X24758480Y8849790D01*
X24786030Y8870960D01*
X24817530Y8876250D01*
X24849020Y8870960D01*
X24876580Y8849790D01*
X24900210Y8818040D01*
X24915960Y8781000D01*
X24923830Y8738670D01*
Y8696330D01*
X24915960Y8654000D01*
X24900210Y8616960D01*
X24876580Y8585200D01*
X24849020Y8564040D01*
X24817530Y8558750D01*
G01X24849020Y8643420D02*
X24896270Y8558750D01*
G01X25132490Y8876250D02*
Y8558750D01*
G01X25041940Y8876250D02*
X25223040D01*
G01X25447450Y8558750D02*
Y8701620D01*
X25368710Y8876250D01*
G01X25526190D02*
X25447450Y8701620D01*
G01X-250000Y0D02*
X-1140000D01*
G01X510000Y5400000D02*
X-1140000D01*
G01X-890000Y2424260D02*
Y0D01*
G01X-952500Y400000D02*
X-890000Y0D01*
X-827500Y400000D01*
X-952500D01*
G01X-890000Y2915740D02*
Y5400000D01*
G01X-827500Y5000000D02*
X-890000Y5400000D01*
X-952500Y5000000D01*
X-827500D01*
G01X0Y-250000D02*
Y-920000D01*
G01X3323140Y-670000D02*
X0D01*
G01X400000Y-607500D02*
X0Y-670000D01*
X400000Y-732500D01*
Y-607500D01*
G01X3956860Y-670000D02*
X8500000D01*
G01X8100000Y-732500D02*
X8500000Y-670000D01*
X8100000Y-607500D01*
Y-732500D01*
G01X8500000Y50000D02*
Y-920000D01*
G01X10290000Y145000D02*
Y10320000D01*
X26116740D01*
Y145000D01*
X10290000D01*
G01Y780000D02*
X26116740D01*
G01X10290000Y1415000D02*
X26116740D01*
G01X10290000Y2050000D02*
X26116740D01*
G01X10290000Y2685000D02*
X26116740D01*
G01X10290000Y3320000D02*
X26116740D01*
G01X10290000Y3955000D02*
X26116740D01*
G01X10290000Y4590000D02*
X26116740D01*
G01X10290000Y5225000D02*
X26116740D01*
G01X10290000Y5860000D02*
X26116740D01*
G01X10290000Y6495000D02*
X26116740D01*
G01X10290000Y7130000D02*
X26116740D01*
G01X10290000Y7765000D02*
X26116740D01*
G01X10290000Y8400000D02*
X26116740D01*
G01X10290000Y9035000D02*
X26116740D01*
G01X10290000Y9670000D02*
X26116740D01*
G01X12573460Y9035000D02*
Y145000D01*
G01X17691560Y9035000D02*
Y145000D01*
G01X20919900Y9035000D02*
Y145000D01*
G01X24148240Y9035000D02*
Y145000D01*
G54D14*
X1029000Y658000D03*
Y1862000D03*
X6870000Y675000D03*
Y2005000D03*
X7450000Y675000D03*
Y2005000D03*
X11431730Y2367500D03*
G54D15*
X1300000Y1135000D03*
Y1385000D03*
X1500000D03*
Y1135000D03*
X6435000Y320000D03*
X6185000D03*
X6435000Y960000D03*
X6185000D03*
X6435000Y2090000D03*
X6185000D03*
X6920000Y995000D03*
X7180000D03*
X6920000Y1445000D03*
Y1245000D03*
X7180000Y1445000D03*
Y1245000D03*
Y1695000D03*
X6920000D03*
X11431730Y6177500D03*
G54D16*
X1120000Y2180000D03*
X11431730Y462500D03*
G54D17*
X962000Y4900000D03*
X1978000D03*
X1470000D03*
X6623000Y2318000D03*
Y2862000D03*
X7323000Y2318000D03*
Y2862000D03*
X11431730Y3637500D03*
G54D18*
X3050000Y4470000D03*
X5550000D03*
X11431730Y1732500D03*
G54D19*
X3746000Y4328000D03*
X4300000D03*
X4023000D03*
X4161500Y4612000D03*
X3884500D03*
X4577000Y4328000D03*
X4854000D03*
X4715500Y4612000D03*
X4438500D03*
X6650000Y2590000D03*
X6521000Y3642000D03*
X6775000Y3769000D03*
Y3515000D03*
X6521000Y4404000D03*
Y4150000D03*
Y3896000D03*
X6775000Y4277000D03*
Y4023000D03*
X6850000Y2590000D03*
X7050000D03*
X7250000D03*
X7900000Y3551500D03*
Y3297500D03*
Y4368500D03*
Y4622500D03*
X11431730Y5542500D03*
M02*
