M48
METRIC,TZ
T01C.254
T02C.3048
T03C.4572
T04C.8
T05C.9
T06C1.
T07C1.1
T08C1.3
T09C1.8
T10C2.3
T11C3.3
;LEADER: 12 
;HEADER: 
;CODE  : ASCII 
;FILE  : HY_UART_DBUG_V10B-1-4.drl for board H:/MBED-TOOLS/HARDWARE/HY_UART_DBUG_V10B/PCB/#Taaaaea09684.tmp ... layers TOP and BOTTOM
;T01 Holesize 1. = 0.254000 Tolerance = +0.000000/-0.000000 PLATED MM Quantity = 176
;T02 Holesize 2. = 0.304800 Tolerance = +0.000000/-0.000000 PLATED MM Quantity = 13
;T03 Holesize 3. = 0.457200 Tolerance = +0.000000/-0.000000 PLATED MM Quantity = 3
;T04 Holesize 4. = 0.800000 Tolerance = +0.000000/-0.000000 PLATED MM Quantity = 18
;T05 Holesize 5. = 0.900000 Tolerance = +0.000000/-0.000000 PLATED MM Quantity = 25
;T06 Holesize 6. = 1.000000 Tolerance = +0.000000/-0.000000 PLATED MM Quantity = 4
;T07 Holesize 7. = 1.100000 Tolerance = +0.000000/-0.000000 PLATED MM Quantity = 10
;T08 Holesize 8. = 1.300000 Tolerance = +0.000000/-0.000000 PLATED MM Quantity = 7
;T09 Holesize 9. = 1.800000 Tolerance = +0.000000/-0.000000 PLATED MM Quantity = 2
;T10 Holesize 10. = 2.300000 Tolerance = +0.000000/-0.000000 PLATED MM Quantity = 6
;T11 Holesize 11. = 3.300000 Tolerance = +0.000000/-0.000000 PLATED MM Quantity = 2
%
G90
T01
X170000Y730000
X180000Y1350000
X130000Y1720000
X420000Y1720000
X720000Y1720000
X140000Y2450000
X140000Y2740000
X116900Y3563100
X1320000Y1720000
X1165500Y3315500
X1923500Y3823500
X2020000Y3696500
X1740000Y2860000
X1740000Y2600000
X1560000Y2060000
X1950000Y1850000
X1750000Y1850000
X1560000Y1850000
X1870000Y1260000
X2210000Y990000
X2100000Y990000
X2210000Y890000
X2100000Y890000
X2210000Y800000
X2100000Y800000
X2100000Y600000
X1630000Y520000
X2130000Y140000
X2570000Y550000
X2900000Y550000
X2570000Y800000
X2570000Y1100000
X2890000Y1100000
X3040000Y1560000
X2464030Y1580000
X2640000Y1580000
X3040000Y1750000
X2890000Y1830000
X2500000Y1950000
X2720000Y1950000
X2890000Y1950000
X2290000Y2590000
X2290000Y2860000
X3032500Y3192500
X2905500Y3195500
X2760000Y3200000
X2460000Y3442500
X2740000Y3630000
X2820000Y3630000
X3032500Y3752500
X2905500Y4014500
X2390000Y4900000
X2500000Y4900000
X2596280Y4900000
X2710000Y5280000
X3540500Y4019500
X3413500Y4016500
X3560000Y3550000
X3220000Y3470000
X3286500Y3466500
X3146200Y3466200
X3413500Y3193500
X3540500Y3190000
X3770000Y3180000
X3770000Y3120000
X3710000Y3120000
X3080000Y1950000
X3710000Y1800000
X3570000Y1660000
X3569030Y1570000
X3570000Y1490000
X3210000Y1450000
X3500000Y1310000
X3505000Y1155000
X3320000Y990000
X3555000Y905000
X3550000Y810000
X3550000Y670000
X3400000Y580000
X3230000Y580000
X3420000Y130000
X4015000Y560000
X4280000Y560000
X4440000Y560000
X4361320Y561310
X4570000Y590000
X3815000Y1800000
X3915000Y1800000
X4165000Y1800000
X4240000Y1800000
X4390000Y1800000
X4040000Y1855550
X4040000Y1963810
X4340000Y2015550
X4340000Y2123810
X4290000Y2350000
X4400000Y2580000
X4480000Y2580000
X4490000Y2740000
X4490000Y2900000
X4140000Y3280000
X3830000Y3550000
X3910000Y3550000
X4440000Y3770000
X5210000Y3940000
X4990000Y3940000
X4770000Y3940000
X5290000Y3730000
X5290000Y3650000
X5080000Y3620000
X5290000Y3570000
X5080000Y3550000
X4730000Y3550000
X5290000Y3490000
X5080000Y3470000
X5190000Y3350000
X4590000Y3060000
X4746200Y2996200
X5324080Y2904080
X5140000Y2900000
X5320080Y2650080
X5059920Y2650080
X5140000Y2350000
X5059920Y2350000
X4740000Y2350000
X5320380Y1959620
X5310000Y1832620
X4700000Y1700000
X4740000Y1430000
X5080000Y1317580
X4740000Y1050000
X4790000Y1000000
X4800000Y930000
X5090000Y859000
X4880000Y778200
X4780000Y540000
X5460000Y780000
X5460000Y1350000
X5540000Y1350000
X5592920Y2777080
X5620000Y3380000
X5630000Y3730000
X5630000Y3930000
X6000000Y4890000
X5870000Y5120000
X6210000Y4890000
X6480000Y4660000
X6163800Y4516200
X6163800Y4180000
X6163800Y4076200
X6163800Y3640000
X6480000Y3190000
X6163800Y3173800
X6310000Y2550000
X6310000Y1640000
X6310000Y1410000
X6880000Y3190000
X7100000Y3560000
X7440000Y3830000
X7440000Y4230000
X7090000Y4360000
X6880000Y4660000
X7540000Y4900000
X7428100Y5288100
X7700000Y5200000
X8290000Y4740000
X8290000Y4370000
X8290000Y3970000
X8290000Y3540000
X7910000Y2900000
X8360000Y2710000
X8100000Y2710000
X8360000Y2270000
X8350000Y1730000
X8340000Y1130000
X7940000Y120000
T02
X3970000Y960000
X4190000Y960000
X4400000Y960000
X4410000Y1180000
X4190000Y1180000
X3970000Y1180000
X3970000Y1410000
X4190000Y1410000
X4410000Y1410000
X4110000Y2770000
X4110000Y2920000
X4190000Y2841080
X4270000Y2920000
T03
X5320000Y1705620
X5150000Y1860000
X6170000Y3031080
T04
X1300000Y1135000
X1500000Y1135000
X1300000Y1385000
X1500000Y1385000
X6185000Y320000
X6435000Y320000
X6185000Y960000
X6435000Y960000
X6185000Y2090000
X6435000Y2090000
X6920000Y1695000
X6920000Y1445000
X6920000Y1245000
X6920000Y995000
X7180000Y995000
X7180000Y1245000
X7180000Y1445000
X7180000Y1695000
T05
X3746000Y4328000
X3884500Y4612000
X4023000Y4328000
X4300000Y4328000
X4161500Y4612000
X4438500Y4612000
X4715500Y4612000
X4577000Y4328000
X4854000Y4328000
X6521000Y3642000
X6521000Y3896000
X6521000Y4150000
X6521000Y4404000
X6775000Y4277000
X6775000Y4023000
X6775000Y3769000
X6775000Y3515000
X6850000Y2590000
X6650000Y2590000
X7050000Y2590000
X7250000Y2590000
X7900000Y3297500
X7900000Y3551500
X7900000Y4368500
X7900000Y4622500
T06
X580000Y3419000
X580000Y3673000
X580000Y3927000
X580000Y4181000
T07
X950000Y280000
X1204000Y280000
X1458000Y280000
X3052000Y2730000
X3306000Y2730000
X3560000Y2730000
X6490000Y5130000
X6744000Y5130000
X6998000Y5130000
X7252000Y5130000
T08
X962000Y4900000
X1470000Y4900000
X1978000Y4900000
X6623000Y2862000
X6623000Y2318000
X7323000Y2318000
X7323000Y2862000
T09
X7105000Y3185500
X7105000Y4734500
T10
X1029000Y658000
X1029000Y1862000
X6870000Y675000
X7450000Y675000
X6870000Y2005000
X7450000Y2005000
T11
X3050000Y4470000
X5550000Y4470000
M30
