G04 ================== begin FILE IDENTIFICATION RECORD ==================*
G04 Layout Name:  HY_UART_DBUG_V10B.brd*
G04 Film Name:    L03_VCC*
G04 File Format:  Gerber RS274X*
G04 File Origin:  Cadence Allegro 17.2-S071*
G04 Origin Date:  Tue Aug 17 09:36:50 2021*
G04 *
G04 Layer:  VIA CLASS/L03_VCC*
G04 Layer:  PIN/L03_VCC*
G04 Layer:  ETCH/L03_VCC*
G04 *
G04 Offset:    (0.0000 0.0000)*
G04 Mirror:    No*
G04 Mode:      Positive*
G04 Rotation:  0*
G04 FullContactRelief:  No*
G04 UndefLineWidth:     0.1524*
G04 ================== end FILE IDENTIFICATION RECORD ====================*
%FSLAX55Y55*MOMM*%
%IR0*IPPOS*OFA0.00000B0.00000*MIA0B0*SFA1.00000B1.00000*%
%ADD10C,.508*%
%ADD24C,.762*%
%ADD22C,.6096*%
%ADD18O,4.X2.*%
%ADD11O,2.X4.*%
%ADD25C,2.*%
%ADD17C,1.3*%
%ADD13C,1.4*%
%ADD16C,3.3*%
%ADD26C,2.5*%
%ADD21C,1.6*%
%ADD20C,6.3*%
%ADD14C,1.8*%
%ADD19R,1.3X1.3*%
%ADD12R,1.4X1.4*%
%ADD23R,1.6X1.6*%
%ADD15R,1.9X1.9*%
%ADD27C,.7112*%
%ADD28C,1.27*%
%ADD36C,3.4004*%
%ADD30C,1.5244*%
%ADD31C,2.2148*%
%ADD29C,1.4228*%
%ADD34C,4.2148*%
%ADD33C,2.5148*%
%ADD32C,7.2148*%
%ADD35C,1.6768*%
G75*
%LPD*%
G75*
G36*
G01X6965500Y2518420D02*
G03X7050000Y2479260I84500J71588D01*
G03X7118430Y2502940I-8J110737D01*
G02X7147600Y2498660I12555J-15978D01*
G03X7185000Y2479260I37400J26351D01*
G01X7235190D01*
G02X7245930Y2441690I-3J-20321D01*
G03X7177260Y2318000I77062J-123690D01*
G03X7282800Y2177910I145745J0D01*
G02X7292390Y2144890I-5606J-19531D01*
G03X7239260Y2005000I157598J-139890D01*
G03X7660740I210740J0D01*
G03X7465570Y2215160I-210736J0D01*
G02X7449450Y2245530I1508J20263D01*
G03X7468740Y2317980I-126452J72461D01*
G01Y2318000D01*
G03X7357810Y2459520I-145738J0D01*
G02X7348000Y2493330I4847J19734D01*
G03X7360740Y2525000I-32994J31670D01*
G01Y2655000D01*
G03X7348000Y2686670I-45734J0D01*
G02X7357810Y2720480I14657J14076D01*
G03X7468740Y2862000I-34808J141520D01*
G03X7404480Y2982830I-145730J0D01*
G02X7415840Y3020000I11361J16849D01*
G01X8480000D01*
Y200000D01*
G02X8300000Y20000I-187857J7857D01*
G01X200000D01*
G02X20000Y200000I7857J187857D01*
G01Y3740000D01*
X214260D01*
Y2911050D01*
X331050Y2794260D01*
X634530D01*
G02X654770Y2772230I-6J-20318D01*
G03X654260Y2760100I145232J-12182D01*
G01Y2560000D01*
G03X945740I145740J0D01*
G01Y2760100D01*
G03X945230Y2772230I-145742J-52D01*
G02X965470Y2794260I20246J1712D01*
G01X1234530D01*
G02X1254770Y2772230I-6J-20318D01*
G03X1254260Y2760100I145232J-12182D01*
G01Y2560000D01*
G03X1545740I145740J0D01*
G01Y2760100D01*
G03X1545230Y2772230I-145742J-52D01*
G02X1565470Y2794260I20246J1712D01*
G01X1712830D01*
G03X1740000Y2788860I27187J65737D01*
G03X1767170Y2794260I-17J71137D01*
G01X2262830D01*
G03X2290000Y2788860I27187J65737D01*
G03X2317170Y2794260I-17J71137D01*
G01X2902260D01*
G02X2921750Y2768220I-7J-20319D01*
G03X2916260Y2730010I130251J-38214D01*
G01Y2730000D01*
G03X2932460Y2665690I135747J0D01*
G02X2914570Y2635740I-17892J-9631D01*
G01X2344490D01*
G03X2235510I-54490J-45748D01*
G01X2221050D01*
X2004260Y2418950D01*
Y1934930D01*
G02X1976400Y1916060I-20320J-1D01*
G03X1950000Y1921140I-26400J-66058D01*
G03Y1778860I0J-71140D01*
G03X1976400Y1783940I0J71138D01*
G02X2004260Y1765070I7540J-18869D01*
G01Y741050D01*
X2051050Y694260D01*
X2248950D01*
X2295740Y741050D01*
Y2331050D01*
X2368950Y2404260D01*
X3648950D01*
X3705740Y2461050D01*
Y2730000D01*
G03X3704980Y2744810I-145737J-54D01*
G01X3704490Y2749620D01*
X3715090Y2760220D01*
X3971050Y2504260D01*
X4298950D01*
X4408950Y2614260D01*
X4511050D01*
X4693070Y2432250D01*
G02X4692320Y2402800I-14369J-14369D01*
G03X4668860Y2350000I47687J-52800D01*
G03X4811140I71140J0D01*
G03X4802390Y2384180I-71133J0D01*
G02X4820210Y2414260I17823J9760D01*
G01X4979710D01*
G02X4997530Y2384180I-3J-20320D01*
G03X4988780Y2350000I62383J-34180D01*
G03X5059920Y2278860I71140J0D01*
G03X5099960Y2291200I0J71130D01*
G03X5140000Y2278860I40040J58790D01*
G03X5211140Y2350000I0J71140D01*
G03X5202390Y2384180I-71133J0D01*
G02X5220210Y2414260I17823J9760D01*
G01X5328950D01*
X5405740Y2491050D01*
Y2698950D01*
X5358950Y2745740D01*
X4738950D01*
X4628950Y2855740D01*
X4578270D01*
G02X4558660Y2881380I1J20320D01*
G03X4561140Y2900000I-68660J18620D01*
G03X4418860I-71140J0D01*
G03X4421340Y2881380I71140J0D01*
G02X4401730Y2855740I-19611J-5320D01*
G01X4355960D01*
G02X4337870Y2885310I1J20319D01*
G03X4346220Y2919990I-67871J34687D01*
G01Y2920000D01*
G03X4270000Y2996220I-76220J0D01*
G03X4206840Y2962660I0J-76214D01*
G02X4173160I-16840J11376D01*
G03X4110000Y2996220I-63160J-42654D01*
G03X4033780Y2920000I0J-76220D01*
G03X4062010Y2860790I76209J0D01*
G02Y2829210I-12796J-15790D01*
G03X4040950Y2802280I47981J-59222D01*
G02X4008170Y2796510I-18411J8598D01*
G01X3795110Y3009570D01*
G02X3809480Y3044260I14370J14369D01*
G01X3888950D01*
X4082040Y3237360D01*
X4089250Y3230140D01*
X4089280Y3230110D01*
G03X4139990Y3208860I50715J49892D01*
G01X4140000D01*
G03X4211140Y3280000I0J71140D01*
G01Y3280010D01*
G03X4189890Y3330720I-71142J-5D01*
G01X4189860Y3330750D01*
X4182650Y3337970D01*
X4198950Y3354260D01*
X4951050D01*
X5174260Y3131050D01*
Y2990390D01*
G02X5150840Y2970310I-20319J1D01*
G03X5140010Y2971140I-10835J-70310D01*
G01X5140000D01*
G03Y2828860I0J-71140D01*
G03X5192800Y2852320I0J71147D01*
G02X5222250Y2853070I15081J-13619D01*
G01X5241050Y2834260D01*
X5310430D01*
X5311340Y2834100D01*
G03X5324080Y2832940I12794J69976D01*
G03X5336820Y2834100I-54J71136D01*
G01X5337730Y2834260D01*
X5509220D01*
G02X5527810Y2805750I-5J-20319D01*
G03X5521780Y2777090I65111J-28664D01*
G01Y2777080D01*
G03X5592920Y2705940I71140J0D01*
G01X5593710D01*
G02X5614260Y2685630I232J-20317D01*
G01Y2168950D01*
X5561050Y2115740D01*
X5291050D01*
X5234260Y2058950D01*
Y1942220D01*
G02X5201470Y1926180I-20320J4D01*
G03X5150000Y1943840I-51470J-66175D01*
G03Y1776160I0J-83840D01*
G03X5213080Y1804770I0J83845D01*
G02X5246500Y1800540I15283J-13388D01*
G03X5256020Y1786280I63497J32083D01*
G02X5256090Y1759890I-15415J-13236D01*
G03X5236160Y1705630I63912J-54265D01*
G01Y1705620D01*
G03X5403840I83840J0D01*
G03X5374620Y1769220I-83837J-5D01*
G02X5370560Y1795300I13241J15417D01*
G03X5381140Y1832620I-60558J37327D01*
G03X5381130Y1833650I-71138J-176D01*
G02X5401450Y1854260I20318J289D01*
G01X5778950D01*
X5945740Y2021050D01*
Y3018950D01*
X5666930Y3297750D01*
G02X5667680Y3327200I14369J14369D01*
G03X5691140Y3380000I-47687J52800D01*
G03X5620000Y3451140I-71140J0D01*
G03X5567200Y3427680I0J-71147D01*
G02X5537750Y3426930I-15081J13619D01*
G01X5248950Y3715740D01*
X4524930D01*
G02X4506060Y3743600I-1J20320D01*
G03X4511140Y3770000I-66058J26400D01*
G03X4368860I-71140J0D01*
G03X4373940Y3743600I71138J0D01*
G02X4355070Y3715740I-18869J-7540D01*
G01X4134260D01*
Y3668950D01*
X4014780Y3549460D01*
G02X3980320Y3560760I-14371J14368D01*
G03X3910000Y3621140I-70320J-10758D01*
G03X3870000Y3608830I0J-71143D01*
G03X3830000Y3621140I-40000J-58833D01*
G03Y3478860I0J-71140D01*
G03X3870000Y3491170I0J71143D01*
G03X3899240Y3479680I39996J58832D01*
G02X3910540Y3445220I-3068J-20089D01*
G01X3646180Y3180860D01*
G02X3611520Y3194070I-14371J14369D01*
G03X3540500Y3261140I-71020J-4066D01*
G03X3492520Y3242520I0J-71127D01*
G02X3464300Y3243300I-13706J15003D01*
G03X3413500Y3264640I-50800J-49795D01*
G03Y3122360I0J-71140D01*
G03X3461480Y3140980I0J71127D01*
G02X3489700Y3140200I13706J-15003D01*
G03X3540500Y3118860I50800J49795D01*
G03X3582070Y3132270I0J71137D01*
G02X3614260Y3115780I11870J-16492D01*
G01Y3085740D01*
X2360000D01*
Y4809060D01*
G02X2382470Y4829260I20320J-6D01*
G03X2390000Y4828860I7533J70740D01*
G03X2436850Y4846460I0J71156D01*
G01X2438190Y4847630D01*
X2445000Y4850290D01*
X2451810Y4847630D01*
X2453150Y4846460D01*
G03X2500000Y4828860I46850J53556D01*
G03X2548140Y4847620I0J71146D01*
G03X2596280Y4828860I48140J52386D01*
G03Y4971140I0J71140D01*
G03X2548140Y4952380I0J-71146D01*
G03X2500000Y4971140I-48140J-52386D01*
G03X2453150Y4953540I0J-71156D01*
G01X2451810Y4952370D01*
X2445000Y4949710D01*
X2438190Y4952370D01*
X2436850Y4953540D01*
G03X2390000Y4971140I-46850J-53556D01*
G03X2382470Y4970740I3J-71140D01*
G02X2360000Y4990940I-2150J20206D01*
G01Y5380000D01*
X8300000D01*
G02X8480000Y5200000I-23333J-203333D01*
G01Y4910000D01*
X8295560D01*
G02X8278950Y4942030I-1J20321D01*
G03X8310020Y5040000I-138948J97977D01*
G03X7969980I-170020J0D01*
G03X8001050Y4942030I170018J7D01*
G02X7984440Y4910000I-16609J-11709D01*
G01X7610880D01*
X7608920Y4917640D01*
G03X7471080I-68920J-17642D01*
G01X7469120Y4910000D01*
X6350000D01*
Y3020000D01*
X6530160D01*
G02X6541520Y2982830I-1J-20321D01*
G03X6477260Y2862000I81470J-120830D01*
G03X6586050Y2721020I145742J0D01*
G02X6591620Y2684100I-5148J-19657D01*
G03Y2495900I58377J-94100D01*
G02X6586050Y2458980I-10718J-17263D01*
G03X6477260Y2318000I36952J-140980D01*
G03X6768740I145740J0D01*
G03X6686940Y2448960I-145732J0D01*
G02X6688750Y2486260I8914J18261D01*
G03X6734500Y2518420I-38747J103742D01*
G02X6765500I15500J-13135D01*
G03X6934500I84500J71588D01*
G02X6965500I15500J-13135D01*
G37*
G36*
G01X290000Y3740000D02*
X452200D01*
G02X471280Y3712710I-4J-20318D01*
G03X464260Y3673000I108723J-39696D01*
G03X495760Y3593640I115737J7D01*
G02X495330Y3565330I-14793J-13934D01*
G01X460000Y3530000D01*
Y3140000D01*
X560000Y3040000D01*
X3700000D01*
X4040000Y2700000D01*
X4079780D01*
X4081600Y2699270D01*
G03X4110000Y2693780I28403J70729D01*
G03X4138400Y2699270I-3J76219D01*
G01X4140220Y2700000D01*
X4150000D01*
X4221780Y2771780D01*
X4223320Y2772530D01*
G03X4259260Y2809260I-33319J68551D01*
G01X4260000Y2810000D01*
X4610000D01*
X4720000Y2700000D01*
X4973380D01*
G02X4992610Y2673100I4J-20320D01*
G03X4988780Y2650080I67309J-23027D01*
G03X5131060I71140J0D01*
G03X5127230Y2673100I-71139J-7D01*
G02X5146460Y2700000I19226J6580D01*
G01X5340000D01*
X5360000Y2680000D01*
Y2510000D01*
X5310000Y2460000D01*
X4730000D01*
X4530000Y2660000D01*
X4390000D01*
X4377540Y2647540D01*
X4375440Y2646770D01*
G03X4333230Y2604560I24560J-66770D01*
G01X4332460Y2602460D01*
X4280000Y2550000D01*
X3990000D01*
X3697150Y2842850D01*
X3696400Y2844460D01*
G03X3655000Y2870740I-41400J-19470D01*
G01X3597870D01*
X3596610Y2871070D01*
G03X3560000Y2875740I-36598J-141072D01*
G03X3523390Y2871070I-12J-145742D01*
G01X3522130Y2870740D01*
X3465000D01*
G03X3424150Y2845590I0J-45750D01*
G01X3421340Y2840000D01*
X3385590D01*
X3382990Y2841790D01*
G03X3306000Y2865740I-76995J-111788D01*
G03X3226470Y2840000I0J-135734D01*
G01X3131530D01*
G03X2972470I-79530J-109994D01*
G01X2381460D01*
G02X2361140Y2860250I-1J20320D01*
G03X2218860I-71140J-250D01*
G02X2198540Y2840000I-20319J70D01*
G01X1831460D01*
G02X1811140Y2860250I-1J20320D01*
G03X1668860I-71140J-250D01*
G02X1648540Y2840000I-20319J70D01*
G01X1521820D01*
G03X1278180I-121820J-80000D01*
G01X921820D01*
G03X678180I-121820J-80000D01*
G01X350000D01*
X260000Y2930000D01*
Y3710000D01*
X290000Y3740000D01*
G37*
G36*
G01X2361700Y2590000D02*
X3660000D01*
Y2480000D01*
X3630000Y2450000D01*
X2350000D01*
X2250000Y2350000D01*
Y760000D01*
X2230000Y740000D01*
X2070000D01*
X2050000Y760000D01*
Y2400000D01*
X2201210Y2551210D01*
G02X2232110Y2548650I14365J-14370D01*
G03X2290000Y2518860I57890J41353D01*
G03X2360580Y2581110I0J71137D01*
G01X2361700Y2590000D01*
G37*
G36*
G01X4180000Y3670000D02*
X5198540D01*
G02X5218860Y3649750I1J-20320D01*
G03X5231170Y3610000I71140J250D01*
G03Y3530000I58833J-40000D01*
G03X5218860Y3490000I58833J-40000D01*
G03X5290000Y3418860I71140J0D01*
G03X5361140Y3489850I0J71140D01*
G02X5395830Y3504170I20320J-46D01*
G01X5564480Y3335520D01*
G03X5575120Y3324800I55527J44472D01*
G01X5575530Y3324470D01*
X5900000Y3000000D01*
Y2040000D01*
X5760000Y1900000D01*
X5310000D01*
X5280000Y1930000D01*
Y2040000D01*
X5310000Y2070000D01*
X5580000D01*
X5660000Y2150000D01*
Y2753340D01*
X5660510Y2754880D01*
G03X5664060Y2777080I-67591J22192D01*
G03X5660510Y2799280I-71141J8D01*
G01X5660000Y2800820D01*
Y2840000D01*
X5620000Y2880000D01*
X5260000D01*
X5220000Y2920000D01*
Y3150000D01*
X4970000Y3400000D01*
X4180000D01*
X4130590Y3350590D01*
X4127450Y3350020D01*
G03X4069980Y3292550I12550J-70020D01*
G01X4069410Y3289410D01*
X3870000Y3090000D01*
X3680000D01*
X3660000Y3110000D01*
Y3130000D01*
X4180000Y3650000D01*
Y3670000D01*
G37*
G36*
G01X7917960Y3202320D02*
X7956560Y3240940D01*
X7900000Y3303850D01*
X7843440Y3240940D01*
X7882040Y3202320D01*
G03X7917960I17960J17960D01*
G37*
G36*
G01X7882040Y4717680D02*
X7843440Y4679060D01*
X7900000Y4616150D01*
X7956560Y4679060D01*
X7917960Y4717680D01*
G03X7882040I-17960J-17960D01*
G37*
%LPC*%
G75*
G36*
G01X4284260Y1858950D02*
X4331050Y1905740D01*
X4638950D01*
X4705740Y1838950D01*
Y1140390D01*
G03X4729160Y1120310I20319J1D01*
G02X4740000Y1121140I10835J-70310D01*
G02X4808650Y1068650I0J-71138D01*
G02X4861140Y1000000I-18648J-68650D01*
G02X4856110Y973730I-71139J5D01*
G02X4871140Y930000I-56102J-43730D01*
G02X4728860I-71140J0D01*
G02X4733890Y956270I71139J-5D01*
G02X4725160Y970730I56105J43738D01*
G01X4722460Y976710D01*
X4705740D01*
Y613860D01*
G03X4738040Y597450I20319J1D01*
G02X4780000Y611140I41960J-57459D01*
G02Y468860I0J-71140D01*
G02X4714960Y511190I0J71132D01*
G03X4682010Y517320I-18577J-8234D01*
G01X4658950Y494260D01*
X4531050D01*
X4517310Y508010D01*
G03X4488950Y508380I-14370J-14369D01*
G02X4440000Y488860I-48950J51616D01*
G02X4399670Y501390I-8J71143D01*
G02X4379110Y492430I-38346J59921D01*
G01X4376420Y491740D01*
X4318950Y434260D01*
X3521050D01*
X3436680Y518630D01*
X3430230Y515600D01*
G02X3400000Y508860I-30225J64401D01*
G02X3328860Y580000I0J71140D01*
G02X3395290Y650980I71136J0D01*
G03X3414260Y671260I-1351J20276D01*
G01Y1678950D01*
X3471050Y1735740D01*
X3618950D01*
X3805740Y1548950D01*
Y778950D01*
X3898950Y685740D01*
X4318950D01*
X4373160Y631520D01*
X4376110Y630900D01*
G02X4401650Y619920I-14787J-69589D01*
G02X4440000Y631140I38350J-59930D01*
G02X4458620Y628660I0J-71140D01*
G03X4484260Y648270I5320J19611D01*
G01Y887670D01*
G03X4450480Y902890I-20319J-1D01*
G02X4400000Y883780I-50480J57118D01*
G02Y1036220I0J76220D01*
G02X4450480Y1017110I0J-76228D01*
G03X4484260Y1032330I13461J15221D01*
G01Y1099940D01*
G03X4452590Y1116790I-20320J-4D01*
G02X4410000Y1103780I-42590J63207D01*
G02Y1256220I0J76220D01*
G02X4452590Y1243210I0J-76217D01*
G03X4484260Y1260060I11350J16854D01*
G01Y1329940D01*
G03X4452590Y1346790I-20320J-4D01*
G02X4410000Y1333780I-42590J63207D01*
G02Y1486220I0J76220D01*
G02X4452590Y1473210I0J-76217D01*
G03X4484260Y1490060I11350J16854D01*
G01Y1691050D01*
X4481050Y1694260D01*
X4341050D01*
X4284260Y1751050D01*
Y1858950D01*
G37*
G36*
G01X6349260Y5035000D02*
Y5225000D01*
G02X6395000Y5270740I45740J0D01*
G01X6585000D01*
G02X6627000Y5243120I0J-45743D01*
G03X6658460Y5235390I18658J8051D01*
G02X6744000Y5265740I85546J-105388D01*
G02X6854460Y5208890I0J-135737D01*
G03X6887540I16540J11805D01*
G02X7108460I110460J-78887D01*
G03X7141540I16540J11805D01*
G02X7252000Y5265740I110460J-78887D01*
G02Y4994260I0J-135740D01*
G02X7141540Y5051110I0J135737D01*
G03X7108460I-16540J-11805D01*
G02X6887540I-110460J78887D01*
G03X6854460I-16540J-11805D01*
G02X6744000Y4994260I-110460J78887D01*
G02X6658460Y5024610I6J135738D01*
G03X6627000Y5016880I-12802J-15781D01*
G02X6585000Y4989260I-42000J18123D01*
G01X6395000D01*
G02X6349260Y5035000I0J45740D01*
G37*
G36*
G01X3492320Y3967160D02*
G03X3464100Y3966500I-13768J-14946D01*
G02X3413500Y3945360I-50600J49987D01*
G02Y4087640I0J71140D01*
G02X3461680Y4068840I0J-71137D01*
G03X3489900Y4069500I13768J14946D01*
G02X3540500Y4090640I50600J-49987D01*
G02Y3948360I0J-71140D01*
G02X3492320Y3967160I0J71137D01*
G37*
G36*
G01X2780000Y3688830D02*
G02X2820000Y3701140I40000J-58833D01*
G02Y3558860I0J-71140D01*
G02X2780000Y3571170I0J71143D01*
G02X2740000Y3558860I-40000J58833D01*
G02Y3701140I0J71140D01*
G02X2780000Y3688830I0J-71143D01*
G37*
G36*
G01X3249950Y3405470D02*
G02X3220000Y3398860I-29946J64531D01*
G02X3186230Y3407390I7J71138D01*
G02X3146200Y3395060I-40030J58815D01*
G02Y3537340I0J71140D01*
G02X3179970Y3528810I-7J-71138D01*
G02X3220000Y3541140I40030J-58815D01*
G02X3256550Y3531030I-4J-71139D01*
G02X3286500Y3537640I29946J-64531D01*
G02Y3395360I0J-71140D01*
G02X3249950Y3405470I4J71139D01*
G37*
G36*
G01X2981900Y3142500D02*
G03X2953680Y3143160I-14452J-14286D01*
G02X2905500Y3124360I-48180J52337D01*
G02Y3266640I0J71140D01*
G02X2956100Y3245500I0J-71127D01*
G03X2984320Y3244840I14452J14286D01*
G02X3032500Y3263640I48180J-52337D01*
G02Y3121360I0J-71140D01*
G02X2981900Y3142500I0J71127D01*
G37*
G36*
G01X917780Y2041000D02*
G03X920880Y2073160I-10720J17263D01*
G02X874260Y2180000I99114J106840D01*
G02X1020000Y2325740I145740J0D01*
G01X1220000D01*
G02Y2034260I0J-145740D01*
G01X1203080D01*
G03X1187770Y2000580I-2J-20319D01*
G02X1239740Y1862000I-158779J-138580D01*
G02X818260I-210740J0D01*
G02X917780Y2041000I210738J0D01*
G37*
G36*
G01X6835320Y1766370D02*
G03X6824200Y1799300I-15535J13096D01*
G02X6659260Y2005000I45796J205700D01*
G02X7080740I210740J0D01*
G02X6978150Y1824130I-210735J0D01*
G03X6977940Y1789370I10425J-17444D01*
G02X7030740Y1695000I-57934J-94370D01*
G02X6809260I-110740J0D01*
G02X6835320Y1766370I110742J6D01*
G37*
G36*
G01X4286920Y2062920D02*
G03Y2076440I-7580J6760D01*
G02X4268860Y2123810I53094J47370D01*
G02X4411140I71140J0D01*
G02X4393080Y2076440I-71154J0D01*
G03Y2062920I7580J-6760D01*
G02X4411140Y2015550I-53094J-47370D01*
G02X4268860I-71140J0D01*
G02X4286920Y2062920I71154J0D01*
G37*
G36*
G01X3986920Y1902920D02*
G03Y1916440I-7580J6760D01*
G02X3968860Y1963810I53094J47370D01*
G02X4111140I71140J0D01*
G02X4093080Y1916440I-71154J0D01*
G03Y1902920I7580J-6760D01*
G02X4107800Y1877110I-53076J-47373D01*
G03X4135570Y1864770I19362J6156D01*
G02X4165000Y1871140I29424J-64771D01*
G02Y1728860I0J-71140D01*
G02X4097200Y1778440I0J71148D01*
G03X4069430Y1790780I-19362J-6156D01*
G02X4040000Y1784410I-29424J64771D01*
G02X3968860Y1855550I0J71140D01*
G02X3986920Y1902920I71154J0D01*
G37*
G36*
G01X2836310Y1876670D02*
G03Y1903330I-15338J13330D01*
G02X2818860Y1950000I53684J46670D01*
G02X2961140I71140J0D01*
G02X2943690Y1903330I-71134J0D01*
G03Y1876670I15338J-13330D01*
G02X2961140Y1830000I-53684J-46670D01*
G02X2818860I-71140J0D01*
G02X2836310Y1876670I71134J0D01*
G37*
G36*
G01X3769060Y1745680D02*
G03X3755940I-6560J-7756D01*
G02X3710000Y1728860I-45940J54327D01*
G02Y1871140I0J71140D01*
G02X3755940Y1854320I0J-71147D01*
G03X3769060I6560J7756D01*
G02X3815000Y1871140I45940J-54327D01*
G02Y1728860I0J-71140D01*
G02X3769060Y1745680I0J71147D01*
G37*
G36*
G01X7108420Y1329500D02*
G03Y1360500I-13135J15500D01*
G02X7069260Y1445000I71588J84500D01*
G02X7290740I110740J0D01*
G02X7251580Y1360500I-110748J0D01*
G03Y1329500I13135J-15500D01*
G02X7290740Y1245000I-71588J-84500D01*
G02X7069260I-110740J0D01*
G02X7108420Y1329500I110748J0D01*
G37*
G36*
G01X6848420D02*
G03Y1360500I-13135J15500D01*
G02X6809260Y1445000I71588J84500D01*
G02X7030740I110740J0D01*
G02X6991580Y1360500I-110748J0D01*
G03Y1329500I13135J-15500D01*
G02X7030740Y1245000I-71588J-84500D01*
G02X6809260I-110740J0D01*
G02X6848420Y1329500I110748J0D01*
G37*
G36*
G01X1415500Y1313420D02*
G03X1384500I-15500J-13135D01*
G02X1300000Y1274260I-84500J71588D01*
G02Y1495740I0J110740D01*
G02X1384500Y1456580I0J-110748D01*
G03X1415500I15500J13135D01*
G02X1500000Y1495740I84500J-71588D01*
G02Y1274260I0J-110740D01*
G02X1415500Y1313420I0J110748D01*
G37*
G36*
G01X1368430Y1222060D02*
G03X1397600Y1226340I12555J15978D01*
G02X1435000Y1245740I37400J-26351D01*
G01X1565000D01*
G02X1610740Y1200000I0J-45740D01*
G01Y1070000D01*
G02X1565000Y1024260I-45740J0D01*
G01X1435000D01*
G02X1397600Y1043660I0J45751D01*
G03X1368430Y1047940I-16615J-11698D01*
G02X1300000Y1024260I-68438J87057D01*
G02Y1245740I0J110740D01*
G02X1368430Y1222060I-8J-110737D01*
G37*
G36*
G01X6809260Y930000D02*
Y1060000D01*
G02X6855000Y1105740I45740J0D01*
G01X6985000D01*
G02X7030740Y1060000I0J-45740D01*
G01Y930000D01*
G02X6985000Y884260I-45740J0D01*
G01X6955530D01*
Y867710D01*
X6961290Y864940D01*
G02X7080740Y675000I-91289J-189940D01*
G02X6659260I-210740J0D01*
G02X6805280Y875560I210746J0D01*
G03X6816250Y905690I-6242J19334D01*
G02X6809260Y930000I38752J24303D01*
G37*
G36*
G01X809260Y185000D02*
Y375000D01*
G02X855000Y420740I45740J0D01*
G01X1045000D01*
G02X1087000Y393120I0J-45743D01*
G03X1118460Y385390I18658J8051D01*
G02X1204000Y415740I85546J-105388D01*
G02X1314460Y358890I0J-135737D01*
G03X1347540I16540J11805D01*
G02X1458000Y415740I110460J-78887D01*
G02Y144260I0J-135740D01*
G02X1347540Y201110I0J135737D01*
G03X1314460I-16540J-11805D01*
G02X1204000Y144260I-110460J78887D01*
G02X1118460Y174610I6J135738D01*
G03X1087000Y166880I-12802J-15781D01*
G02X1045000Y139260I-42000J18123D01*
G01X855000D01*
G02X809260Y185000I0J45740D01*
G37*
G36*
G01X7069260Y930000D02*
Y1060000D01*
G02X7115000Y1105740I45740J0D01*
G01X7245000D01*
G02X7290740Y1060000I0J-45740D01*
G01Y930000D01*
G02X7245000Y884260I-45740J0D01*
G01X7115000D01*
G02X7069260Y930000I0J45740D01*
G37*
G36*
G01X4728260Y4248000D02*
Y4408000D01*
G02X4774000Y4453740I45740J0D01*
G01X4934000D01*
G02X4979740Y4408000I0J-45740D01*
G01Y4248000D01*
G02X4934000Y4202260I-45740J0D01*
G01X4774000D01*
G02X4728260Y4248000I0J45740D01*
G37*
G54D36*
X360000Y360000D03*
X8140000D03*
G54D30*
X3970000Y960000D03*
Y1410000D03*
Y1180000D03*
X4190000Y1410000D03*
Y1180000D03*
Y960000D03*
G54D31*
X6435000Y2090000D03*
X6185000D03*
X6435000Y320000D03*
X6185000D03*
Y960000D03*
X6435000D03*
X7180000Y1695000D03*
G54D29*
X6310000Y2550000D03*
X3032500Y3752500D03*
X3420000Y130000D03*
X720000Y1720000D03*
X180000Y1350000D03*
X8360000Y2710000D03*
X5210000Y3940000D03*
X8360000Y2270000D03*
X8350000Y1730000D03*
X7940000Y120000D03*
X2100000Y600000D03*
X6310000Y1410000D03*
X3560000Y3550000D03*
X2460000Y3442500D03*
X1320000Y1720000D03*
X4590000Y3060000D03*
X140000Y2740000D03*
X1560000Y1850000D03*
X8340000Y1130000D03*
X5540000Y1350000D03*
X3080000Y1950000D03*
X130000Y1720000D03*
X2130000Y140000D03*
X6310000Y1640000D03*
X4990000Y3940000D03*
X4770000D03*
X2890000Y1100000D03*
X140000Y2450000D03*
X1750000Y1850000D03*
X2500000Y1950000D03*
X3210000Y1450000D03*
X2640000Y1580000D03*
X2720000Y1950000D03*
X2570000Y1100000D03*
X1870000Y1260000D03*
X7910000Y2900000D03*
X6210000Y4890000D03*
X2570000Y550000D03*
X6163800Y4180000D03*
X2900000Y550000D03*
X116900Y3563100D03*
X5630000Y3930000D03*
Y3730000D03*
X5080000Y1317580D03*
X7700000Y5200000D03*
X3320000Y990000D03*
X1560000Y2060000D03*
X5090000Y859000D03*
X1740000Y2600000D03*
X3040000Y1560000D03*
X5460000Y780000D03*
X2464030Y1580000D03*
X3230000Y580000D03*
X6000000Y4890000D03*
X170000Y730000D03*
X4290000Y2350000D03*
X2570000Y800000D03*
X420000Y1720000D03*
X8100000Y2710000D03*
X5190000Y3350000D03*
X4730000Y3550000D03*
G54D34*
X1029000Y658000D03*
X7450000Y675000D03*
G54D33*
X4577000Y4328000D03*
X4300000D03*
X4023000D03*
X3746000D03*
X4715500Y4612000D03*
X4438500D03*
X4161500D03*
X3884500D03*
G54D32*
X5550000Y4470000D03*
X3050000D03*
G54D35*
X6170000Y3031080D03*
%LPD*%
G75*
G36*
G01X3490000Y1690000D02*
X3600000D01*
X3760000Y1530000D01*
Y760000D01*
X3880000Y640000D01*
X4300000D01*
X4305580Y634420D01*
G02X4306790Y607000I-14365J-14371D01*
G03X4290180Y561310I54536J-45690D01*
G03X4307730Y514520I71148J0D01*
G02X4306790Y486790I-15307J-13362D01*
G01X4300000Y480000D01*
X3540000D01*
X3460000Y560000D01*
Y750760D01*
G02X3495800Y763920I20319J-2D01*
G03X3550000Y738860I54200J46082D01*
G03X3621140Y810000I0J71140D01*
G03X3605330Y854720I-71152J0D01*
G03X3626140Y905000I-50337J50280D01*
G03X3483860I-71140J0D01*
G03X3499670Y860280I71152J0D01*
G03X3480140Y823420I50334J-50273D01*
G01X3478550Y815180D01*
X3460000D01*
Y1660000D01*
X3490000Y1690000D01*
G37*
G36*
G01X4350000Y1860000D02*
X4620000D01*
X4660000Y1820000D01*
Y1758830D01*
G03Y1641170I40001J-58830D01*
G01Y560000D01*
X4640000Y540000D01*
X4550000D01*
X4530000Y560000D01*
Y1710000D01*
X4500000Y1740000D01*
X4360000D01*
X4330000Y1770000D01*
Y1840000D01*
X4350000Y1860000D01*
G37*
%LPC*%
G75*
G54D29*
X3569030Y1570000D03*
%LPD*%
G75*
G54D10*
G01X7900000Y3297500D02*
Y2990000D01*
G01Y4622500D02*
Y4950000D01*
X170000Y730000D03*
X180000Y1350000D03*
X130000Y1720000D03*
X140000Y2450000D03*
Y2740000D03*
X116900Y3563100D03*
X420000Y1720000D03*
X720000D03*
X1320000D03*
X1165500Y3315500D03*
X1630000Y520000D03*
X1870000Y1260000D03*
X1560000Y1850000D03*
X1750000D03*
X1950000D03*
X1560000Y2060000D03*
X1740000Y2600000D03*
Y2860000D03*
X1923500Y3823500D03*
X2130000Y140000D03*
X2570000Y550000D03*
Y800000D03*
X2100000Y600000D03*
Y800000D03*
X2210000D03*
X2570000Y1100000D03*
X2100000Y990000D03*
X2210000D03*
X2100000Y890000D03*
X2210000D03*
X2500000Y1950000D03*
X2464030Y1580000D03*
X2290000Y2590000D03*
Y2860000D03*
X2460000Y3442500D03*
X2020000Y3696500D03*
X2390000Y4900000D03*
X2500000D03*
X2900000Y550000D03*
X2890000Y1100000D03*
X3040000Y1560000D03*
X2720000Y1950000D03*
X2890000D03*
X3080000D03*
X2890000Y1830000D03*
X2640000Y1580000D03*
X3040000Y1750000D03*
X2760000Y3200000D03*
X3032500Y3192500D03*
X2905500Y3195500D03*
X3146200Y3466200D03*
X3032500Y3752500D03*
X2820000Y3630000D03*
X2740000D03*
X2905500Y4014500D03*
X2596280Y4900000D03*
X2710000Y5280000D03*
X3420000Y130000D03*
X3400000Y580000D03*
X3230000D03*
X3550000Y670000D03*
Y810000D03*
X3320000Y990000D03*
X3500000Y1310000D03*
X3505000Y1155000D03*
X3555000Y905000D03*
X3210000Y1450000D03*
X3710000Y1800000D03*
X3570000Y1490000D03*
Y1660000D03*
X3569030Y1570000D03*
X3710000Y3120000D03*
X3413500Y3193500D03*
X3540500Y3190000D03*
X3560000Y3550000D03*
X3220000Y3470000D03*
X3286500Y3466500D03*
X3413500Y4016500D03*
X3540500Y4019500D03*
X4280000Y560000D03*
X4015000D03*
X4240000Y1800000D03*
X3915000D03*
X4165000D03*
X3815000D03*
X4340000Y2015550D03*
X4040000Y1855550D03*
Y1963810D03*
X4290000Y2350000D03*
X4340000Y2123810D03*
X3770000Y3120000D03*
Y3180000D03*
X4140000Y3280000D03*
X3910000Y3550000D03*
X3830000D03*
X4780000Y540000D03*
X4880000Y778200D03*
X4440000Y560000D03*
X4361320Y561310D03*
X4570000Y590000D03*
X4740000Y1430000D03*
Y1050000D03*
X4790000Y1000000D03*
X4800000Y930000D03*
X4700000Y1700000D03*
X4390000Y1800000D03*
X4740000Y2350000D03*
X4400000Y2580000D03*
X4480000D03*
X4590000Y3060000D03*
X4746200Y2996200D03*
X4490000Y2900000D03*
Y2740000D03*
X4730000Y3550000D03*
X4440000Y3770000D03*
X4770000Y3940000D03*
X5460000Y780000D03*
X5540000Y1350000D03*
X5460000D03*
X5080000Y1317580D03*
X5090000Y859000D03*
X5310000Y1832620D03*
X5320380Y1959620D03*
X5140000Y2350000D03*
X5059920D03*
X5140000Y2900000D03*
X5059920Y2650080D03*
X5324080Y2904080D03*
X5320080Y2650080D03*
X5190000Y3350000D03*
X5290000Y3730000D03*
Y3650000D03*
Y3570000D03*
Y3490000D03*
X5080000Y3620000D03*
Y3550000D03*
Y3470000D03*
X4990000Y3940000D03*
X5210000D03*
X5592920Y2777080D03*
X5630000Y3730000D03*
X5620000Y3380000D03*
X5630000Y3930000D03*
X6000000Y4890000D03*
X5870000Y5120000D03*
X6310000Y1410000D03*
Y1640000D03*
Y2550000D03*
X6163800Y3173800D03*
X6480000Y3190000D03*
X6163800Y3640000D03*
Y4180000D03*
Y4076200D03*
Y4516200D03*
X6480000Y4660000D03*
X6210000Y4890000D03*
X6880000Y3190000D03*
X7100000Y3560000D03*
X7090000Y4360000D03*
X6880000Y4660000D03*
X7910000Y2900000D03*
X7440000Y3830000D03*
Y4230000D03*
X7540000Y4900000D03*
X7428100Y5288100D03*
X7700000Y5200000D03*
X7940000Y120000D03*
X8340000Y1130000D03*
X8350000Y1730000D03*
X8360000Y2270000D03*
X8100000Y2710000D03*
X8360000D03*
X8290000Y3540000D03*
Y4370000D03*
Y3970000D03*
Y4740000D03*
G54D20*
X3050000Y4470000D03*
X5550000D03*
G54D11*
X800000Y2660000D03*
X1400000D03*
G54D12*
X580000Y3419000D03*
G54D21*
X3746000Y4328000D03*
X4300000D03*
X4023000D03*
X4161500Y4612000D03*
X3884500D03*
X4577000Y4328000D03*
X4715500Y4612000D03*
X4438500D03*
X6521000Y3642000D03*
X6775000Y3769000D03*
Y3515000D03*
X6521000Y4404000D03*
Y4150000D03*
Y3896000D03*
X6775000Y4277000D03*
Y4023000D03*
X7900000Y3551500D03*
Y3297500D03*
Y4368500D03*
Y4622500D03*
G54D13*
X580000Y3673000D03*
Y4181000D03*
Y3927000D03*
G54D22*
X4190000Y1180000D03*
X3970000Y1410000D03*
Y960000D03*
X4190000D03*
Y1410000D03*
X3970000Y1180000D03*
X4190000Y2841080D03*
X4110000Y2920000D03*
X4270000D03*
X4110000Y2770000D03*
X4410000Y1410000D03*
X4400000Y960000D03*
X4410000Y1180000D03*
G54D23*
X4854000Y4328000D03*
G54D14*
X1458000Y280000D03*
X1204000D03*
X962000Y4900000D03*
X1978000D03*
X1470000D03*
X3052000Y2730000D03*
X3306000D03*
X6744000Y5130000D03*
X7252000D03*
X6998000D03*
G54D15*
X950000Y280000D03*
X3560000Y2730000D03*
X6490000Y5130000D03*
G54D24*
X5150000Y1860000D03*
X5320000Y1705620D03*
X6170000Y3031080D03*
G54D16*
X1029000Y658000D03*
Y1862000D03*
X6870000Y675000D03*
Y2005000D03*
X7450000Y675000D03*
Y2005000D03*
G54D25*
G01X3560000Y2730000D02*
Y2550000D01*
X6623000Y2318000D03*
Y2862000D03*
X7323000Y2318000D03*
Y2862000D03*
G54D26*
X7105000Y3185500D03*
Y4734500D03*
G54D17*
X1300000Y1135000D03*
Y1385000D03*
X1500000D03*
X6435000Y320000D03*
X6185000D03*
X6435000Y960000D03*
X6185000D03*
X6650000Y2590000D03*
X6435000Y2090000D03*
X6185000D03*
X6920000Y1445000D03*
Y1245000D03*
X7180000Y1445000D03*
Y1245000D03*
Y1695000D03*
X6920000D03*
X6850000Y2590000D03*
X7050000D03*
G54D27*
G01X6744000Y4984100D02*
Y5130000D01*
G01D02*
Y5275900D01*
G54D18*
X1120000Y2180000D03*
G54D28*
G01X513000Y3673000D02*
X580000D01*
G01X430000Y3590000D02*
X513000Y3673000D01*
G01X400000Y3670000D02*
X403000Y3673000D01*
G01D02*
X513000D01*
G54D19*
X1500000Y1135000D03*
X6920000Y995000D03*
X7180000D03*
X7250000Y2590000D03*
M02*
