G04 ================== begin FILE IDENTIFICATION RECORD ==================*
G04 Layout Name:  HY_UART_DBUG_V10B.brd*
G04 Film Name:    PasteMask_Top*
G04 File Format:  Gerber RS274X*
G04 File Origin:  Cadence Allegro 17.2-S071*
G04 Origin Date:  Tue Aug 17 09:36:50 2021*
G04 *
G04 Layer:  PIN/PASTEMASK_TOP*
G04 Layer:  PACKAGE GEOMETRY/PASTEMASK_TOP*
G04 *
G04 Offset:    (0.0000 0.0000)*
G04 Mirror:    No*
G04 Mode:      Positive*
G04 Rotation:  0*
G04 FullContactRelief:  No*
G04 UndefLineWidth:     0.1524*
G04 ================== end FILE IDENTIFICATION RECORD ====================*
%FSLAX55Y55*MOMM*%
%IR0*IPPOS*OFA0.00000B0.00000*MIA0B0*SFA1.00000B1.00000*%
%ADD28R,.7X1.1*%
%ADD29R,1.5X.6*%
%ADD22R,.6X1.5*%
%ADD20R,1.3X.9*%
%ADD18R,.25X1.4*%
%ADD17R,.25X1.7*%
%ADD15R,1.8X.6*%
%ADD10R,.8X.8*%
%ADD13R,1.2X1.*%
%ADD21R,1.2X1.4*%
%ADD14R,2.3X3.7*%
%ADD11R,.6X.4*%
%ADD12R,.6X.5*%
%ADD27R,2.7X2.7*%
%ADD19R,.7X.25*%
%ADD24R,.8X.25*%
%ADD16R,.25X.7*%
%ADD25R,.25X.8*%
%ADD23C,6.3*%
%ADD26R,7.3X7.3*%
%LPD*%
G75*
G54D10*
X1073800Y3683800D03*
X1226200D03*
X1370000D03*
X1226200Y3840000D03*
X1073800D03*
X1370000Y3836200D03*
X2340000Y1836200D03*
Y1683800D03*
X2200000Y1836200D03*
Y1683800D03*
X2480000D03*
Y1836200D03*
X3073800Y680000D03*
Y930000D03*
X2760000Y1836200D03*
Y1683800D03*
X2620000D03*
Y1836200D03*
X2720000Y2083800D03*
Y2236200D03*
X3380000Y733800D03*
X3226200Y680000D03*
X3380000Y886200D03*
X3226200Y930000D03*
G54D11*
X1980000Y1260000D03*
X1760000D03*
X6420000Y1410000D03*
X6200000D03*
Y1640000D03*
X6420000D03*
X6200000Y2550000D03*
X6420000D03*
G54D20*
X2596280Y5000000D03*
X2390000D03*
X2596280Y5200000D03*
X2390000D03*
X6000000Y5000000D03*
Y5200000D03*
X6210000Y5000000D03*
Y5200000D03*
X7540000Y5000000D03*
Y5200000D03*
G54D12*
X1980000Y1325000D03*
Y1195000D03*
X1760000D03*
Y1325000D03*
X6420000Y1345000D03*
X6200000D03*
Y1575000D03*
Y1705000D03*
X6420000D03*
Y1575000D03*
Y1475000D03*
X6200000D03*
Y2485000D03*
Y2615000D03*
X6420000D03*
Y2485000D03*
G54D21*
X2705000Y690000D03*
X2895000D03*
X2705000Y930000D03*
X2895000D03*
G54D13*
X1680000Y2058400D03*
X1870000D03*
X1680000Y2261600D03*
X1870000D03*
X2060000Y2058400D03*
Y2261600D03*
X2890000Y2058400D03*
X3080000D03*
X2890000Y2261600D03*
X3080000D03*
X3270000Y2058400D03*
Y2261600D03*
G54D22*
X3159500Y3310000D03*
X3032500D03*
X2905500D03*
Y3890000D03*
X3032500D03*
X3159500D03*
X3667500Y3310000D03*
X3540500D03*
X3413500D03*
X3286500D03*
Y3890000D03*
X3413500D03*
X3540500D03*
X3667500D03*
X3794500Y3310000D03*
Y3890000D03*
G54D23*
X3050000Y4470000D03*
X5550000D03*
G54D14*
X1943320Y2730000D03*
X2533320D03*
G54D24*
X3740000Y805000D03*
Y855000D03*
Y905000D03*
Y955000D03*
Y1005000D03*
Y1055000D03*
Y1105000D03*
Y1155000D03*
Y1205000D03*
Y1255000D03*
Y1305000D03*
Y1355000D03*
Y1405000D03*
Y1455000D03*
Y1505000D03*
Y1555000D03*
X3990000Y2716080D03*
Y2766080D03*
Y2816080D03*
Y2866080D03*
Y2916080D03*
Y2966080D03*
X4640000Y805000D03*
Y1405000D03*
Y1355000D03*
Y1305000D03*
Y1255000D03*
Y1205000D03*
Y1155000D03*
Y1105000D03*
Y1055000D03*
Y1005000D03*
Y955000D03*
Y905000D03*
Y855000D03*
Y1555000D03*
Y1505000D03*
Y1455000D03*
X4390000Y2966080D03*
Y2916080D03*
Y2866080D03*
Y2816080D03*
Y2766080D03*
Y2716080D03*
G54D15*
X1608320Y3315500D03*
Y3569500D03*
Y3442500D03*
Y3823500D03*
Y3696500D03*
Y4077500D03*
Y3950500D03*
Y4204500D03*
X2608320Y3315500D03*
Y3442500D03*
Y3569500D03*
Y3823500D03*
Y3696500D03*
Y4077500D03*
Y3950500D03*
Y4204500D03*
G54D25*
X4315000Y730000D03*
X4265000D03*
X4215000D03*
X4165000D03*
X4115000D03*
X4065000D03*
X4015000D03*
X3965000D03*
X3915000D03*
X3865000D03*
X3815000D03*
Y1630000D03*
X3865000D03*
X3915000D03*
X3965000D03*
X4015000D03*
X4065000D03*
X4115000D03*
X4165000D03*
X4215000D03*
X4265000D03*
X4315000D03*
Y2641080D03*
X4265000D03*
X4215000D03*
X4165000D03*
X4115000D03*
X4065000D03*
Y3041080D03*
X4115000D03*
X4165000D03*
X4215000D03*
X4265000D03*
X4315000D03*
X4565000Y730000D03*
X4515000D03*
X4465000D03*
X4415000D03*
X4365000D03*
Y1630000D03*
X4415000D03*
X4465000D03*
X4515000D03*
X4565000D03*
G54D16*
X2485000Y2035000D03*
X2435000D03*
X2385000D03*
X2335000D03*
G54D26*
X4190000Y1180000D03*
G54D17*
X2410000Y2235000D03*
G54D27*
X4190000Y2841080D03*
G54D18*
X2360000Y2250000D03*
X2460000D03*
G54D19*
X2265000Y2085000D03*
Y2135000D03*
Y2185000D03*
Y2235000D03*
X2555000D03*
Y2185000D03*
Y2135000D03*
Y2085000D03*
G54D28*
X4340000Y3910000D03*
X4440000Y3670000D03*
X4540000Y3910000D03*
G54D29*
X4920000Y859000D03*
Y986000D03*
Y1113000D03*
Y1240000D03*
Y1705620D03*
Y1832620D03*
Y1959620D03*
Y2086620D03*
Y2650080D03*
Y2777080D03*
Y2904080D03*
Y3031080D03*
Y3479000D03*
Y3606000D03*
Y3733000D03*
Y3860000D03*
X5460000Y859000D03*
Y1240000D03*
Y1113000D03*
Y986000D03*
Y1959620D03*
Y1832620D03*
Y1705620D03*
Y2086620D03*
Y3031080D03*
Y2904080D03*
Y2777080D03*
Y2650080D03*
Y3733000D03*
Y3606000D03*
Y3479000D03*
Y3860000D03*
M02*
