G04 ================== begin FILE IDENTIFICATION RECORD ==================*
G04 Layout Name:  HY_UART_DBUG_V10B.brd*
G04 Film Name:    SolderMask_Bottom*
G04 File Format:  Gerber RS274X*
G04 File Origin:  Cadence Allegro 17.2-S071*
G04 Origin Date:  Tue Aug 17 09:36:50 2021*
G04 *
G04 Layer:  PIN/SOLDERMASK_BOTTOM*
G04 Layer:  PACKAGE GEOMETRY/SOLDERMASK_BOTTOM*
G04 Layer:  BOARD GEOMETRY/SOLDERMASK_BOTTOM*
G04 *
G04 Offset:    (0.0000 0.0000)*
G04 Mirror:    No*
G04 Mode:      Positive*
G04 Rotation:  0*
G04 FullContactRelief:  No*
G04 UndefLineWidth:     0.1524*
G04 ================== end FILE IDENTIFICATION RECORD ====================*
%FSLAX55Y55*MOMM*%
%IR0*IPPOS*OFA0.00000B0.00000*MIA0B0*SFA1.00000B1.00000*%
%ADD28R,.7X1.1*%
%ADD22R,.8X1.3*%
%ADD11R,.9X.9*%
%ADD26R,1.1X1.3*%
%ADD12R,5.1X5.1*%
%ADD10R,1.5X1.6*%
%ADD21O,4.15X2.15*%
%ADD25R,1.7X4.4*%
%ADD13O,2.15X4.15*%
%ADD33C,2.1*%
%ADD16R,2.9X1.5*%
%ADD35R,1.9X1.7*%
%ADD24R,2.6X1.9*%
%ADD23R,1.9X2.6*%
%ADD20C,1.4*%
%ADD15C,1.5*%
%ADD19C,3.4*%
%ADD34C,2.6*%
%ADD31C,1.7*%
%ADD18R,2.X2.*%
%ADD30C,6.4*%
%ADD17C,1.9*%
%ADD27R,1.4X1.4*%
%ADD14R,1.5X1.5*%
%ADD32R,1.7X1.7*%
%ADD29R,1.016X1.016*%
%LPD*%
G75*
G54D10*
X155000Y2026000D03*
Y2234000D03*
G54D20*
X1300000Y1135000D03*
Y1385000D03*
X1500000D03*
X6435000Y320000D03*
X6185000D03*
X6435000Y960000D03*
X6185000D03*
X6650000Y2590000D03*
X6435000Y2090000D03*
X6185000D03*
X6920000Y1445000D03*
Y1245000D03*
X7180000Y1445000D03*
Y1245000D03*
Y1695000D03*
X6920000D03*
X6850000Y2590000D03*
X7050000D03*
G54D11*
X223800Y3670000D03*
Y4181000D03*
X376200Y3670000D03*
Y4181000D03*
X1353800Y520000D03*
X1270000Y3343800D03*
Y3496200D03*
X1916200Y800000D03*
X1763800D03*
Y660000D03*
X1916200D03*
X1506200Y520000D03*
X1763800D03*
X1916200D03*
X2390000Y5023800D03*
Y5176200D03*
X2596280Y5023800D03*
Y5176200D03*
X3042500Y3466200D03*
Y3313800D03*
X2900000Y3753800D03*
Y3313800D03*
Y3466200D03*
X2760000Y3313800D03*
Y3466200D03*
X2900000Y3906200D03*
X3663800Y810000D03*
X3653800Y670000D03*
Y1270000D03*
Y1410000D03*
Y1130000D03*
Y950000D03*
X3670000Y1706200D03*
Y1553800D03*
X3213800Y1555000D03*
X3366200D03*
X3560000Y3466200D03*
Y3313800D03*
X3420000Y3466200D03*
Y3313800D03*
X3816200Y810000D03*
X4360000Y673800D03*
Y826200D03*
X4220000D03*
Y673800D03*
X4010000Y826200D03*
Y673800D03*
X3806200Y670000D03*
Y1270000D03*
Y1410000D03*
Y1130000D03*
Y950000D03*
X4110000Y1553800D03*
Y1706200D03*
X3815000Y1553800D03*
Y1706200D03*
X4250000Y1553800D03*
Y1706200D03*
X3960000Y1553800D03*
Y1706200D03*
X4133800Y2460000D03*
X4286200D03*
X4133800Y2600000D03*
X4286200D03*
X4140000Y3176200D03*
Y3023800D03*
X4640000Y826200D03*
Y673800D03*
X4780000D03*
Y826200D03*
X4500000D03*
Y673800D03*
X4553800Y1305000D03*
X4706200D03*
X4390000Y1553800D03*
Y1706200D03*
X4553800Y1530000D03*
X4706200D03*
X4746200Y2600000D03*
X4593800D03*
X4746200Y2460000D03*
X4593800D03*
X4746200Y2900000D03*
X4593800D03*
X4746200Y2739880D03*
X4593800D03*
X4813800Y3620000D03*
X4966200D03*
X4813800Y3479000D03*
X4966200D03*
X5433800Y1240000D03*
Y1840000D03*
Y2900000D03*
Y3620000D03*
Y3479000D03*
X5586200Y1240000D03*
Y1840000D03*
Y2900000D03*
Y3620000D03*
Y3479000D03*
X6000000Y5023800D03*
Y5176200D03*
X6316200Y3479000D03*
X6163800D03*
X6316200Y3770000D03*
X6163800D03*
X6316200Y3270000D03*
X6163800D03*
X6316200Y3980000D03*
X6163800D03*
Y4410000D03*
X6316200D03*
Y4270000D03*
X6163800D03*
X6210000Y5023800D03*
Y5176200D03*
X7900000Y3743800D03*
Y3896200D03*
Y4043800D03*
Y4196200D03*
X7540000Y5023800D03*
Y5176200D03*
G54D30*
X3050000Y4470000D03*
X5550000D03*
G54D21*
X1120000Y2180000D03*
G54D12*
X540000Y2135000D03*
G54D31*
X3746000Y4328000D03*
X4300000D03*
X4023000D03*
X4161500Y4612000D03*
X3884500D03*
X4577000Y4328000D03*
X4715500Y4612000D03*
X4438500D03*
X6521000Y3642000D03*
X6775000Y3769000D03*
Y3515000D03*
X6521000Y4404000D03*
Y4150000D03*
Y3896000D03*
X6775000Y4277000D03*
Y4023000D03*
X7900000Y3551500D03*
Y3297500D03*
Y4368500D03*
Y4622500D03*
G54D13*
X800000Y2660000D03*
X1400000D03*
G54D22*
X1420000Y3287500D03*
Y3552500D03*
X1520000Y3287500D03*
Y3552500D03*
G54D32*
X4854000Y4328000D03*
G54D14*
X580000Y3419000D03*
G54D23*
X1230000Y3840000D03*
X1710000D03*
G54D15*
X580000Y3673000D03*
Y4181000D03*
Y3927000D03*
G54D24*
X1230000Y4200000D03*
Y4680000D03*
X1650000Y4200000D03*
Y4680000D03*
G54D33*
X6623000Y2318000D03*
Y2862000D03*
X7323000Y2318000D03*
Y2862000D03*
G54D34*
X7105000Y3185500D03*
Y4734500D03*
G54D16*
X850000Y4180000D03*
Y4700000D03*
X2030000Y4180000D03*
Y4700000D03*
G54D25*
X1434950Y5160000D03*
X965050D03*
X1978000D03*
X1508100D03*
G54D17*
X1458000Y280000D03*
X1204000D03*
X962000Y4900000D03*
X1978000D03*
X1470000D03*
X3052000Y2730000D03*
X3306000D03*
X6744000Y5130000D03*
X7252000D03*
X6998000D03*
G54D35*
X8100000Y2900000D03*
Y3180000D03*
X8350000D03*
Y2900000D03*
G54D26*
X1971600Y960000D03*
X1768400D03*
X3188400Y1130000D03*
Y1720000D03*
X3391600Y1130000D03*
Y1720000D03*
G54D27*
X1500000Y1135000D03*
X6920000Y995000D03*
X7180000D03*
X7250000Y2590000D03*
G54D18*
X950000Y280000D03*
X3560000Y2730000D03*
X6490000Y5130000D03*
G54D19*
X1029000Y658000D03*
Y1862000D03*
X6870000Y675000D03*
Y2005000D03*
X7450000Y675000D03*
Y2005000D03*
G54D28*
X2530000Y3950000D03*
X2630000Y3710000D03*
X2730000Y3950000D03*
G54D29*
X2553800Y4120000D03*
X2706200D03*
M02*
