G04 ================== begin FILE IDENTIFICATION RECORD ==================*
G04 Layout Name:  IEM608_V10_211216.brd*
G04 Film Name:    BOTTOM*
G04 File Format:  Gerber RS274X*
G04 File Origin:  Cadence Allegro 17.2-S071*
G04 Origin Date:  Fri Dec 17 14:36:10 2021*
G04 *
G04 Layer:  ETCH/BOTTOM*
G04 Layer:  PIN/BOTTOM*
G04 Layer:  VIA CLASS/BOTTOM*
G04 *
G04 Offset:    (0.0000 0.0000)*
G04 Mirror:    No*
G04 Mode:      Positive*
G04 Rotation:  0*
G04 FullContactRelief:  No*
G04 UndefLineWidth:     0.1524*
G04 ================== end FILE IDENTIFICATION RECORD ====================*
%FSLAX55Y55*MOMM*%
%IR0*IPPOS*OFA0.00000B0.00000*MIA0B0*SFA1.00000B1.00000*%
%ADD11C,.6096*%
%ADD15O,4.X2.*%
%ADD14O,2.X4.*%
%ADD17C,1.3*%
%ADD19C,3.3*%
%ADD13C,2.5*%
%ADD12C,1.6*%
%ADD16C,6.4*%
%ADD20R,1.3X1.3*%
%ADD18C,1.65*%
%ADD10C,6.35*%
%ADD21C,.2032*%
%ADD22C,.254*%
%ADD23C,.508*%
%ADD24C,.762*%
%ADD25C,1.27*%
%ADD27C,1.2004*%
%ADD26O,2.9148X4.9148*%
G75*
%LPD*%
G75*
G36*
G01X850000Y9950000D02*
X12080000D01*
X12160000Y9870000D01*
Y8820000D01*
X12250000Y8730000D01*
X13024300D01*
G02X13044560Y8708180I-3J-20319D01*
G03X13044260Y8700000I110441J-8146D01*
G03X13083420Y8615500I110748J0D01*
G02Y8584500I-13135J-15500D01*
G03X13044260Y8500000I71588J-84500D01*
G03X13265740I110740J0D01*
G03X13226580Y8584500I-110748J0D01*
G02Y8615500I13135J15500D01*
G03X13265740Y8700000I-71588J84500D01*
G03X13265440Y8708180I-110741J34D01*
G02X13285700Y8730000I20263J1501D01*
G01X13960000D01*
X14130000Y8560000D01*
Y2230000D01*
X14070000Y2170000D01*
X12380360D01*
Y2248620D01*
G02X12390460Y2258780I10159J1D01*
G03X12466220Y2335000I-461J76220D01*
G03X12461740Y2360750I-76221J4D01*
G01X12461140Y2362420D01*
Y8330000D01*
G03X12440300Y8380300I-71137J-6D01*
G01X12025300Y8795300D01*
G03X11975000Y8816140I-50306J-50297D01*
G01X11154470D01*
X10926140Y9044470D01*
Y9427580D01*
X10926740Y9429250D01*
G03X10931220Y9455000I-71741J25746D01*
G03X10887520Y9523940I-76229J0D01*
G01X10885920Y9524690D01*
X10875300Y9535300D01*
G03X10825000Y9556140I-50306J-50297D01*
G01X9402420D01*
X9400750Y9556740D01*
G03X9375000Y9561220I-25746J-71741D01*
G03X9349250Y9556740I-4J-76221D01*
G01X9347580Y9556140D01*
X7245000D01*
G03X7194700Y9535300I6J-71137D01*
G01X7040530Y9381140D01*
X6117420D01*
X6115750Y9381740D01*
G03X6090000Y9386220I-25746J-71741D01*
G03X6064250Y9381740I-4J-76221D01*
G01X6062580Y9381140D01*
X5277420D01*
X5275750Y9381740D01*
G03X5250000Y9386220I-25746J-71741D01*
G03X5201070Y9368440I0J-76217D01*
G01X4938930D01*
G03X4890000Y9386220I-48930J-58437D01*
G03Y9233780I0J-76220D01*
G03X4938930Y9251560I0J76217D01*
G01X5188860D01*
Y8886320D01*
G03X5158360Y8810000I80238J-76320D01*
G03X5197520Y8725500I110748J0D01*
G02Y8694500I-13135J-15500D01*
G03X5158360Y8610000I71588J-84500D01*
G03X5269100Y8499260I110740J0D01*
G03X5353600Y8538420I0J110748D01*
G02X5384600I15500J-13135D01*
G03X5553600I84500J71588D01*
G02X5584600I15500J-13135D01*
G03X5753600I84500J71588D01*
G02X5784600I15500J-13135D01*
G03X5953600I84500J71588D01*
G02X5984600I15500J-13135D01*
G03X6153600I84500J71588D01*
G02X6184600I15500J-13135D01*
G03X6269100Y8499260I84500J71588D01*
G03X6379840Y8610000I0J110740D01*
G03X6340680Y8694500I-110748J0D01*
G02Y8725500I13135J15500D01*
G03X6353600Y8738420I-71580J84500D01*
G02X6384600I15500J-13135D01*
G03X6469100Y8699260I84500J71588D01*
G03Y8920740I0J110740D01*
G03X6384600Y8881580I0J-110748D01*
G02X6353600I-15500J13135D01*
G03X6184600I-84500J-71588D01*
G02X6153600I-15500J13135D01*
G03X5984600I-84500J-71588D01*
G02X5953600I-15500J13135D01*
G03X5784600I-84500J-71588D01*
G02X5753600I-15500J13135D01*
G03X5584600I-84500J-71588D01*
G02X5553600I-15500J13135D01*
G03X5384600I-84500J-71588D01*
G02X5353600I-15500J13135D01*
G03X5331140Y8901730I-84492J-71586D01*
G01Y9238860D01*
X6062580D01*
X6064250Y9238260D01*
G03X6090000Y9233780I25746J71741D01*
G03X6115750Y9238260I4J76221D01*
G01X6117420Y9238860D01*
X7042580D01*
X7044250Y9238260D01*
G03X7070000Y9233780I25746J71741D01*
G03X7138940Y9277480I0J76229D01*
G01X7139690Y9279080D01*
X7274470Y9413860D01*
X9347580D01*
X9349250Y9413260D01*
G03X9375000Y9408780I25746J71741D01*
G03X9400750Y9413260I4J76221D01*
G01X9402420Y9413860D01*
X10783860D01*
Y9015000D01*
G03X10804700Y8964700I71137J6D01*
G01X11055310Y8714080D01*
X11056060Y8712480D01*
G03X11125000Y8668780I68940J32529D01*
G03X11150750Y8673260I4J76221D01*
G01X11152420Y8673860D01*
X11945530D01*
X12318860Y8300530D01*
Y7929250D01*
G02X12284170Y7914880I-20321J-1D01*
G01X12195070Y8003990D01*
G03X12155540Y8020360I-39530J-39543D01*
G01X9449580D01*
X9425900Y8044040D01*
Y8680950D01*
G02X9449770Y8700960I20320J3D01*
G03X9469100Y8699260I19330J109047D01*
G03Y8920740I0J110740D01*
G03X9384600Y8881580I0J-110748D01*
G02X9353600I-15500J13135D01*
G03X9184600I-84500J-71588D01*
G02X9153600I-15500J13135D01*
G03X8984600I-84500J-71588D01*
G02X8953600I-15500J13135D01*
G03X8784600I-84500J-71588D01*
G02X8753600I-15500J13135D01*
G03X8584600I-84500J-71588D01*
G02X8553600I-15500J13135D01*
G03X8384600I-84500J-71588D01*
G02X8353600I-15500J13135D01*
G03X8184600I-84500J-71588D01*
G02X8153600I-15500J13135D01*
G03X7984600I-84500J-71588D01*
G02X7953600I-15500J13135D01*
G03X7869100Y8920740I-84500J-71588D01*
G03X7758360Y8810000I0J-110740D01*
G03X7797520Y8725500I110748J0D01*
G02Y8694500I-13135J-15500D01*
G03X7758360Y8610000I71588J-84500D01*
G03X7813200Y8514400I110747J0D01*
G01Y8183150D01*
X7675950Y8045900D01*
X4640000D01*
G03X4600470Y8029530I0J-55913D01*
G01X4330470Y7759530D01*
G03X4314100Y7720000I39543J-39530D01*
G01Y7701550D01*
G02X4279240Y7687360I-20319J3D01*
G03X4271580Y7694500I-79254J-77347D01*
G02Y7725500I13135J15500D01*
G03Y7894500I-71588J84500D01*
G02Y7925500I13135J15500D01*
G03X4310740Y8010000I-71588J84500D01*
G03X4200000Y8120740I-110740J0D01*
G03X4115500Y8081580I0J-110748D01*
G02X4084500I-15500J13135D01*
G03X4000000Y8120740I-84500J-71588D01*
G03X3889260Y8010000I0J-110740D01*
G03X3928420Y7925500I110748J0D01*
G02Y7894500I-13135J-15500D01*
G03Y7725500I71588J-84500D01*
G02Y7694500I-13135J-15500D01*
G03Y7525500I71588J-84500D01*
G02Y7494500I-13135J-15500D01*
G03Y7325500I71588J-84500D01*
G02Y7294500I-13135J-15500D01*
G03Y7125500I71588J-84500D01*
G02Y7094500I-13135J-15500D01*
G03Y6925500I71588J-84500D01*
G02Y6894500I-13135J-15500D01*
G03Y6725500I71588J-84500D01*
G02Y6694500I-13135J-15500D01*
G03Y6525500I71588J-84500D01*
G02Y6494500I-13135J-15500D01*
G03Y6325500I71588J-84500D01*
G02Y6294500I-13135J-15500D01*
G03Y6125500I71588J-84500D01*
G02Y6094500I-13135J-15500D01*
G03Y5925500I71588J-84500D01*
G02Y5894500I-13135J-15500D01*
G03Y5725500I71588J-84500D01*
G02Y5694500I-13135J-15500D01*
G03Y5525500I71588J-84500D01*
G02Y5494500I-13135J-15500D01*
G03Y5325500I71588J-84500D01*
G02Y5294500I-13135J-15500D01*
G03Y5125500I71588J-84500D01*
G02Y5094500I-13135J-15500D01*
G03X3889260Y5010000I71588J-84500D01*
G03X4000000Y4899260I110740J0D01*
G03X4084500Y4938420I0J110748D01*
G02X4115500I15500J-13135D01*
G03X4200000Y4899260I84500J71588D01*
G03X4279240Y4932640I0J110743D01*
G02X4314100Y4918450I14541J-14193D01*
G01Y2413150D01*
X4070950Y2170000D01*
X2945610D01*
G03X2895000Y2191140I-50610J-50011D01*
G01X1530000D01*
G03X1479390Y2170000I0J-71151D01*
G01X340000D01*
X210000Y2300000D01*
Y9180000D01*
X290000Y9260000D01*
X660000D01*
X760000Y9360000D01*
Y9860000D01*
X850000Y9950000D01*
G37*
G36*
G01X2390000Y1480000D02*
Y1320000D01*
X2180000D01*
Y1480000D01*
X2390000D01*
G37*
G36*
G01X4020000Y1470000D02*
Y1310000D01*
X3810000D01*
Y1470000D01*
X4020000D01*
G37*
G36*
G01X8604110Y7852370D02*
G03X8608480Y7857290I-39538J39519D01*
G02X8624550Y7857130I7973J-6294D01*
G03X8629570Y7851370I44555J33763D01*
G01X8832880Y7648060D01*
G03X8872410Y7631690I39530J39543D01*
G01X9869280D01*
X9931690Y7569280D01*
Y3000720D01*
X9739280Y2808310D01*
X8762430D01*
G03X8722900Y2791940I0J-55913D01*
G01X8589280Y2658310D01*
X7512430D01*
G03X7472900Y2641940I0J-55913D01*
G01X7338060Y2507100D01*
G03X7321690Y2467570I39543J-39530D01*
G01Y2170000D01*
X6203220D01*
G03X6165000Y2181140I-38220J-59994D01*
G01X5829470D01*
X5781440Y2229170D01*
G02X5795800Y2263860I14364J14371D01*
G01X7107580D01*
X7109250Y2263260D01*
G03X7135000Y2258780I25746J71741D01*
G03Y2411220I0J76220D01*
G03X7109250Y2406740I-4J-76221D01*
G01X7107580Y2406140D01*
X6946470D01*
G02X6926170Y2427200I6J20319D01*
G03X6926220Y2430000I-76171J2761D01*
G03X6850000Y2506220I-76220J0D01*
G03X6801070Y2488440I0J-76217D01*
G01X6718930D01*
G03X6670000Y2506220I-48930J-58437D01*
G03X6617060Y2484830I0J-76208D01*
G02X6602940I-7060J7311D01*
G03X6550000Y2506220I-52940J-54818D01*
G03X6501070Y2488440I0J-76217D01*
G01X6418930D01*
G03X6370000Y2506220I-48930J-58437D01*
G03X6293780Y2430000I0J-76220D01*
G03X6293830Y2427200I76221J-39D01*
G02X6273530Y2406140I-20306J-741D01*
G01X5734470D01*
X5679690Y2460920D01*
X5678940Y2462520D01*
G03X5610000Y2506220I-68940J-32529D01*
G03X5555850Y2483640I0J-76220D01*
G02X5527040Y2483570I-14440J14295D01*
G01X5114840Y2895770D01*
Y4125130D01*
G03X5154440Y4210000I-71146J84870D01*
G03X5118170Y4291960I-110738J0D01*
G01X5114840Y4294990D01*
Y4325010D01*
X5118170Y4328040D01*
G03X5154440Y4410000I-74468J81960D01*
G03X4932960I-110740J0D01*
G03X4969230Y4328040I110738J0D01*
G01X4972560Y4325010D01*
Y4294990D01*
X4969230Y4291960D01*
G03X4932960Y4210000I74468J-81960D01*
G03X4972560Y4125130I110746J0D01*
G01Y2866300D01*
G03X4993400Y2816000I71137J6D01*
G01X5604700Y2204690D01*
G02X5590340Y2170000I-14364J-14371D01*
G01X5535620D01*
X5496100Y2209530D01*
G03X5456570Y2225900I-39530J-39543D01*
G01X4769720D01*
X4705900Y2289720D01*
Y2334450D01*
G02X4729120Y2354560I20320J-1D01*
G03X4740000Y2353780I10876J75440D01*
G03X4788930Y2371560I0J76217D01*
G01X4871070D01*
G03X4920000Y2353780I48930J58437D01*
G03X4972940Y2375170I0J76208D01*
G02X4987060I7060J-7311D01*
G03X5040000Y2353780I52940J54818D01*
G03X5088930Y2371560I0J76217D01*
G01X5171070D01*
G03X5220000Y2353780I48930J58437D01*
G03Y2506220I0J76220D01*
G03X5171070Y2488440I0J-76217D01*
G01X5088930D01*
G03X5040000Y2506220I-48930J-58437D01*
G03X4987060Y2484830I0J-76208D01*
G02X4972940I-7060J7311D01*
G03X4920000Y2506220I-52940J-54818D01*
G03X4871070Y2488440I0J-76217D01*
G01X4788930D01*
G03X4740000Y2506220I-48930J-58437D01*
G03X4729120Y2505440I-4J-76220D01*
G02X4705900Y2525550I-2900J20111D01*
G01Y7566210D01*
X4793790Y7654100D01*
X8382680D01*
G03X8422210Y7670470I0J55913D01*
G01X8604110Y7852370D01*
G37*
G36*
G01X5650000Y1480000D02*
Y1320000D01*
X5440000D01*
Y1480000D01*
X5650000D01*
G37*
G36*
G01X7290000D02*
Y1320000D01*
X7080000D01*
Y1480000D01*
X7290000D01*
G37*
G36*
G01X10206160Y2458860D02*
X10380530D01*
X10440310Y2399080D01*
X10441060Y2397480D01*
G03X10477480Y2361060I68940J32520D01*
G01X10479080Y2360310D01*
X10554700Y2284700D01*
G03X10605000Y2263860I50306J50297D01*
G01X12007580D01*
X12009250Y2263260D01*
G03X12035000Y2258780I25746J71741D01*
G03X12057720Y2262250I-16J76218D01*
G02X12084100Y2242850I6059J-19397D01*
G01Y2170000D01*
X7475900D01*
Y2248630D01*
G02X7485940Y2258790I10161J-1D01*
G03X7510750Y2263260I-924J76213D01*
G01X7512420Y2263860D01*
X8785000D01*
G03X8835300Y2284700I-6J71137D01*
G01X8910920Y2360310D01*
X8912520Y2361060D01*
G03X8948940Y2397480I-32520J68940D01*
G01X8949690Y2399080D01*
X9009470Y2458860D01*
X9533840D01*
G02X9554080Y2436740I0J-20320D01*
G03X9553780Y2430000I75919J-6756D01*
G03X9630000Y2353780I76220J0D01*
G03X9678930Y2371560I0J76217D01*
G01X9761070D01*
G03X9810000Y2353780I48930J58437D01*
G03X9862940Y2375170I0J76208D01*
G02X9877060I7060J-7311D01*
G03X9930000Y2353780I52940J54818D01*
G03X9978930Y2371560I0J76217D01*
G01X10061070D01*
G03X10110000Y2353780I48930J58437D01*
G03X10186220Y2430000I0J76220D01*
G03X10185920Y2436740I-76219J-16D01*
G02X10206160Y2458860I20240J1800D01*
G37*
G36*
G01X7553150Y2504100D02*
X7919830D01*
G02X7936700Y2472460I-3J-20319D01*
G03X7923780Y2430000I63310J-42460D01*
G03X7923830Y2427200I76221J-39D01*
G02X7903530Y2406140I-20306J-741D01*
G01X7512420D01*
X7510750Y2406740D01*
G03X7485940Y2411210I-25734J-71743D01*
G02X7475900Y2421370I121J10161D01*
G01Y2426850D01*
X7553150Y2504100D01*
G37*
G36*
G01X10044010Y7724100D02*
X12065400D01*
X12084100Y7705400D01*
Y2427150D01*
G02X12057720Y2407750I-20321J-3D01*
G03X12035000Y2411220I-22736J-72748D01*
G03X12009250Y2406740I-4J-76221D01*
G01X12007580Y2406140D01*
X11836470D01*
G02X11816170Y2427200I6J20319D01*
G03X11816220Y2430000I-76171J2761D01*
G03X11740000Y2506220I-76220J0D01*
G03X11691070Y2488440I0J-76217D01*
G01X11608930D01*
G03X11560000Y2506220I-48930J-58437D01*
G03X11507060Y2484830I0J-76208D01*
G02X11492940I-7060J7311D01*
G03X11440000Y2506220I-52940J-54818D01*
G03X11391070Y2488440I0J-76217D01*
G01X11308930D01*
G03X11260000Y2506220I-48930J-58437D01*
G03X11183780Y2430000I0J-76220D01*
G03X11183830Y2427200I76221J-39D01*
G02X11163530Y2406140I-20306J-741D01*
G01X10634470D01*
X10579690Y2460920D01*
X10578940Y2462520D01*
G03X10542520Y2498940I-68940J-32520D01*
G01X10540920Y2499690D01*
X10460300Y2580300D01*
G03X10410000Y2601140I-50306J-50297D01*
G01X8980000D01*
G03X8929700Y2580300I6J-71137D01*
G01X8849080Y2499690D01*
X8847480Y2498940D01*
G03X8811060Y2462520I32520J-68940D01*
G01X8810310Y2460920D01*
X8755530Y2406140D01*
X8576470D01*
G02X8556170Y2427200I6J20319D01*
G03X8556220Y2430000I-76171J2761D01*
G03X8543300Y2472460I-76230J0D01*
G02X8560170Y2504100I16873J11321D01*
G01X8630000D01*
G03X8669530Y2520470I0J55913D01*
G01X8803150Y2654100D01*
X9780000D01*
G03X9819530Y2670470I0J55913D01*
G01X10069530Y2920470D01*
G03X10085900Y2960000I-39543J39530D01*
G01Y7610000D01*
G03X10069530Y7649530I-55913J0D01*
G01X10029640Y7689410D01*
G02X10044010Y7724100I14369J14369D01*
G37*
G36*
G01X8910000Y1470000D02*
Y1310000D01*
X8700000D01*
Y1470000D01*
X8910000D01*
G37*
G36*
G01X10550000Y1460000D02*
Y1300000D01*
X10340000D01*
Y1460000D01*
X10550000D01*
G37*
G36*
G01X12170000Y1470000D02*
Y1310000D01*
X11960000D01*
Y1470000D01*
X12170000D01*
G37*
%LPC*%
G75*
G36*
G01X1140000Y8745740D02*
X1340000D01*
G02Y8454260I0J-145740D01*
G01X1140000D01*
G02Y8745740I0J145740D01*
G37*
G36*
G01X12794260Y8435000D02*
Y8565000D01*
G02X12840000Y8610740I45740J0D01*
G01X12970000D01*
G02X13015740Y8565000I0J-45740D01*
G01Y8435000D01*
G02X12970000Y8389260I-45740J0D01*
G01X12840000D01*
G02X12794260Y8435000I0J45740D01*
G37*
G36*
G01X13137060Y2484830D02*
G02X13190000Y2506220I52940J-54818D01*
G02X13238930Y2488440I0J-76217D01*
G01X13321070D01*
G02X13370000Y2506220I48930J-58437D01*
G02Y2353780I0J-76220D01*
G02X13321070Y2371560I0J76217D01*
G01X13238930D01*
G02X13190000Y2353780I-48930J58437D01*
G02X13137060Y2375170I0J76208D01*
G03X13122940I-7060J-7311D01*
G02X13070000Y2353780I-52940J54818D01*
G02X13021070Y2371560I0J76217D01*
G01X12938930D01*
G02X12890000Y2353780I-48930J58437D01*
G02Y2506220I0J76220D01*
G02X12938930Y2488440I0J-76217D01*
G01X13021070D01*
G02X13070000Y2506220I48930J-58437D01*
G02X13122940Y2484830I0J-76208D01*
G03X13137060I7060J7311D01*
G37*
G36*
G01X2350000Y2530610D02*
X2419700Y2600300D01*
G02X2470000Y2621140I50306J-50297D01*
G01X3860000D01*
G02X3910300Y2600300I-6J-71137D01*
G01X4010920Y2499690D01*
X4012520Y2498940D01*
G02X4056220Y2430000I-32529J-68940D01*
G02X3980000Y2353780I-76220J0D01*
G02X3911060Y2397480I0J76229D01*
G01X3910310Y2399080D01*
X3830530Y2478860D01*
X3682220D01*
G03X3662810Y2452530I2J-20321D01*
G02X3666220Y2430000I-72808J-22543D01*
G02X3590000Y2353780I-76220J0D01*
G02X3541070Y2371560I0J76217D01*
G01X3458930D01*
G02X3410000Y2353780I-48930J58437D01*
G02X3357060Y2375170I0J76208D01*
G03X3342940I-7060J-7311D01*
G02X3290000Y2353780I-52940J54818D01*
G02X3241070Y2371560I0J76217D01*
G01X3158930D01*
G02X3110000Y2353780I-48930J58437D01*
G02X3033780Y2430000I0J76220D01*
G02X3037190Y2452530I76218J-13D01*
G03X3017780Y2478860I-19412J6009D01*
G01X2499470D01*
X2419690Y2399080D01*
X2418940Y2397480D01*
G02X2281060I-68940J32529D01*
G01X2280310Y2399080D01*
X2200530Y2478860D01*
X2052220D01*
G03X2032810Y2452530I2J-20321D01*
G02X2036220Y2430000I-72808J-22543D01*
G02X1960000Y2353780I-76220J0D01*
G02X1911070Y2371560I0J76217D01*
G01X1828930D01*
G02X1780000Y2353780I-48930J58437D01*
G02X1727060Y2375170I0J76208D01*
G03X1712940I-7060J-7311D01*
G02X1660000Y2353780I-52940J54818D01*
G02X1611070Y2371560I0J76217D01*
G01X1528930D01*
G02X1480000Y2353780I-48930J58437D01*
G02X1403780Y2430000I0J76220D01*
G02X1407190Y2452530I76218J-13D01*
G03X1387780Y2478860I-19412J6009D01*
G01X879470D01*
X799690Y2399080D01*
X798940Y2397480D01*
G02X730000Y2353780I-68940J32529D01*
G02X653780Y2430000I0J76220D01*
G02X697480Y2498940I76229J0D01*
G01X699080Y2499690D01*
X799700Y2600300D01*
G02X850000Y2621140I50306J-50297D01*
G01X2230000D01*
G02X2280300Y2600300I-6J-71137D01*
G01X2350000Y2530610D01*
G37*
G36*
G01X1026810Y6889100D02*
G02X975000Y6868780I-51810J55890D01*
G02Y7021220I0J76220D01*
G02X1026810Y7000900I0J-76210D01*
G01X1553190D01*
G02X1605000Y7021220I51810J-55890D01*
G02Y6868780I0J-76220D01*
G02X1553190Y6889100I0J76210D01*
G01X1026810D01*
G37*
G36*
G01X7397520Y8694500D02*
G03Y8725500I-13135J15500D01*
G02X7358360Y8810000I71588J84500D01*
G02X7579840I110740J0D01*
G02X7540680Y8725500I-110748J0D01*
G03Y8694500I13135J-15500D01*
G02X7579840Y8610000I-71588J-84500D01*
G02X7358360I-110740J0D01*
G02X7397520Y8694500I110748J0D01*
G37*
G36*
G01X6528200Y4481580D02*
G03X6559200I15500J13135D01*
G02X6643700Y4520740I84500J-71588D01*
G02X6754440Y4410000I0J-110740D01*
G02X6715280Y4325500I-110748J0D01*
G03Y4294500I13135J-15500D01*
G02X6754440Y4210000I-71588J-84500D01*
G02X6643700Y4099260I-110740J0D01*
G02X6559200Y4138420I0J110748D01*
G03X6528200I-15500J-13135D01*
G02X6359200I-84500J71588D01*
G03X6328200I-15500J-13135D01*
G02X6159200I-84500J71588D01*
G03X6128200I-15500J-13135D01*
G02X5959200I-84500J71588D01*
G03X5928200I-15500J-13135D01*
G02X5759200I-84500J71588D01*
G03X5728200I-15500J-13135D01*
G02X5643700Y4099260I-84500J71588D01*
G02X5532960Y4210000I0J110740D01*
G02X5572120Y4294500I110748J0D01*
G03Y4325500I-13135J15500D01*
G02X5532960Y4410000I71588J84500D01*
G02X5643700Y4520740I110740J0D01*
G02X5728200Y4481580I0J-110748D01*
G03X5759200I15500J13135D01*
G02X5928200I84500J-71588D01*
G03X5959200I15500J13135D01*
G02X6128200I84500J-71588D01*
G03X6159200I15500J13135D01*
G02X6328200I84500J-71588D01*
G03X6359200I15500J13135D01*
G02X6528200I84500J-71588D01*
G37*
G36*
G01X8728200D02*
G03X8759200I15500J13135D01*
G02X8843700Y4520740I84500J-71588D01*
G02X8954440Y4410000I0J-110740D01*
G02X8915280Y4325500I-110748J0D01*
G03Y4294500I13135J-15500D01*
G02X8954440Y4210000I-71588J-84500D01*
G02X8843700Y4099260I-110740J0D01*
G02X8759200Y4138420I0J110748D01*
G03X8728200I-15500J-13135D01*
G02X8559200I-84500J71588D01*
G03X8528200I-15500J-13135D01*
G02X8359200I-84500J71588D01*
G03X8328200I-15500J-13135D01*
G02X8159200I-84500J71588D01*
G03X8128200I-15500J-13135D01*
G02X7959200I-84500J71588D01*
G03X7928200I-15500J-13135D01*
G02X7759200I-84500J71588D01*
G03X7728200I-15500J-13135D01*
G02X7559200I-84500J71588D01*
G03X7528200I-15500J-13135D01*
G02X7359200I-84500J71588D01*
G03X7328200I-15500J-13135D01*
G02X7159200I-84500J71588D01*
G03X7128200I-15500J-13135D01*
G02X7043700Y4099260I-84500J71588D01*
G02X6932960Y4210000I0J110740D01*
G02X6972120Y4294500I110748J0D01*
G03Y4325500I-13135J15500D01*
G02X6932960Y4410000I71588J84500D01*
G02X7043700Y4520740I110740J0D01*
G02X7128200Y4481580I0J-110748D01*
G03X7159200I15500J13135D01*
G02X7328200I84500J-71588D01*
G03X7359200I15500J13135D01*
G02X7528200I84500J-71588D01*
G03X7559200I15500J13135D01*
G02X7728200I84500J-71588D01*
G03X7759200I15500J13135D01*
G02X7928200I84500J-71588D01*
G03X7959200I15500J13135D01*
G02X8128200I84500J-71588D01*
G03X8159200I15500J13135D01*
G02X8328200I84500J-71588D01*
G03X8359200I15500J13135D01*
G02X8528200I84500J-71588D01*
G03X8559200I15500J13135D01*
G02X8728200I84500J-71588D01*
G37*
G54D27*
X6965000Y9822170D03*
X6735000D03*
X5990960D03*
X5760960D03*
G54D26*
X760000Y8880000D03*
%LPD*%
G75*
G54D10*
X330000Y330000D03*
Y9670000D03*
X14020000Y330000D03*
Y9670000D03*
G54D20*
X12905000Y8500000D03*
G54D11*
X386550Y5544170D03*
Y5844170D03*
Y6144170D03*
X390710Y8409610D03*
Y8109610D03*
Y9009610D03*
Y8709610D03*
X730000Y2430000D03*
X562020Y2868330D03*
Y3368330D03*
X594520Y4309160D03*
Y5309160D03*
Y4809160D03*
X975000Y6945000D03*
X880000Y7070000D03*
Y7150000D03*
Y7230000D03*
X1300000Y2200000D03*
Y2430000D03*
X1480000D03*
X1460000Y2710000D03*
Y3090000D03*
Y3480000D03*
X1204520Y4339160D03*
Y5339160D03*
Y4839160D03*
X1180000Y6390000D03*
X1260000D03*
X1340000D03*
X1180000Y6290000D03*
X1260000D03*
X1340000D03*
X1180000Y6180000D03*
X1260000D03*
X1340000D03*
X1180000Y6070000D03*
X1260000D03*
X1340000D03*
X1260000Y6500080D03*
X1180000Y6610000D03*
X1260000D03*
X1333660D03*
X1180000Y6500000D03*
X1340000D03*
Y6720000D03*
X1260000D03*
X1180000D03*
X1270000Y6850000D03*
X1190000D03*
X1110000D03*
X1376550Y7884170D03*
Y7584170D03*
Y8184170D03*
X1870000Y2220000D03*
X1960000Y2430000D03*
X1780000D03*
X1660000D03*
X1720000Y2710000D03*
X1980000D03*
Y3090000D03*
X1720000D03*
X1980000Y3480000D03*
X1720000D03*
X1980000Y3680000D03*
X1750000Y3890000D03*
X1980000D03*
X1704520Y4339160D03*
Y5339160D03*
Y4839160D03*
X1880000Y6000000D03*
X1605000Y6945000D03*
X1676550Y7884170D03*
Y7584170D03*
Y8184170D03*
X1907030Y8872900D03*
Y9372900D03*
X2170000Y2430000D03*
Y2220000D03*
X2350000Y2430000D03*
X2360000Y3480000D03*
Y3680000D03*
Y3890000D03*
X2204520Y4339160D03*
Y5339160D03*
Y4839160D03*
Y5839160D03*
X2291970Y6800840D03*
Y6500840D03*
Y7400840D03*
Y7100840D03*
Y8000840D03*
Y7700840D03*
X2407030Y8872900D03*
Y9372900D03*
X2640000Y2220000D03*
X3170000Y2210000D03*
X3110000Y2430000D03*
X3090000Y3090000D03*
Y2710000D03*
X2730000Y3480000D03*
X3140000D03*
X2730000Y3680000D03*
X3140000D03*
X2730000Y3890000D03*
X3140000D03*
X2704520Y4339160D03*
Y5339160D03*
Y4839160D03*
Y5839160D03*
X2907030Y8872900D03*
Y9372900D03*
X3590000Y2430000D03*
X3410000D03*
X3290000D03*
X3350000Y3090000D03*
X3630000Y3050000D03*
X3610000Y2710000D03*
X3350000D03*
X3580000Y3480000D03*
Y3680000D03*
X3204520Y4339160D03*
Y5339160D03*
Y4839160D03*
X3406550Y6224170D03*
X3706550D03*
X3406550Y6524170D03*
Y6824170D03*
X3706550Y6524170D03*
Y6824170D03*
X3406550Y7134170D03*
Y7434170D03*
X3706550Y7134170D03*
Y7434170D03*
X3406550Y7734170D03*
X3706550D03*
X3407030Y8872900D03*
Y9372900D03*
X3830000Y2210000D03*
X3980000Y2430000D03*
X3960000Y3090000D03*
Y3480000D03*
Y3680000D03*
Y3290000D03*
X4740000Y2430000D03*
X4720000Y2710000D03*
X5130000Y2250000D03*
X4920000Y2430000D03*
X5040000D03*
X5220000D03*
X5160000Y3090000D03*
X4990000Y2710000D03*
X4920000Y3090000D03*
X5160000Y3290000D03*
Y3490000D03*
Y3680000D03*
X4920000Y3290000D03*
Y3490000D03*
Y3680000D03*
X5330000Y3890000D03*
X4920000Y3880000D03*
X5180360Y4956650D03*
Y5456650D03*
Y5956650D03*
Y6956650D03*
Y6456650D03*
Y7456650D03*
X4890000Y9310000D03*
X5250000D03*
X5470000Y2260000D03*
X5610000Y2430000D03*
X5530000Y3090000D03*
X5540000Y2680000D03*
X5530000Y2890000D03*
X5790000Y3560000D03*
X5530000Y3290000D03*
X5460000Y4050000D03*
X5670000D03*
X5860000D03*
X5630000Y3730000D03*
X5860000Y3810000D03*
X5680360Y4956650D03*
Y5456650D03*
Y5956650D03*
Y6956650D03*
Y6456650D03*
Y7456650D03*
Y8236650D03*
X6370000Y2200000D03*
X5960000D03*
Y2470000D03*
X6260000Y2540000D03*
X6370000Y2430000D03*
X6280000Y3080000D03*
X5960000Y2670000D03*
X5970000Y2890000D03*
X5940000Y3410000D03*
X6110000Y3240000D03*
X6260000Y3510000D03*
X6060000Y4050000D03*
X6260000D03*
X6060000Y3810000D03*
X6260000D03*
X6180360Y4956650D03*
Y5456650D03*
Y5956650D03*
Y6956650D03*
Y6456650D03*
Y7456650D03*
Y8236650D03*
X6090000Y9310000D03*
X6960000Y2430000D03*
X6850000D03*
X6670000D03*
X6550000D03*
X6460000Y2900000D03*
X6630000Y2730000D03*
X6910000D03*
X6660000Y3130000D03*
X6880000Y3010000D03*
X6460000Y3510000D03*
X6660000Y3520000D03*
X6870000D03*
X6460000Y4050000D03*
X6660000D03*
X6870000D03*
X6460000Y3810000D03*
X6660000D03*
X6870000D03*
X6680360Y4956650D03*
Y5456650D03*
Y5956650D03*
Y6956650D03*
Y6456650D03*
Y7456650D03*
Y8236650D03*
X7000000Y2200000D03*
X7135000Y2335000D03*
X7485000D03*
X7070000Y2900000D03*
X7260000Y3170000D03*
X7460000D03*
X7070000Y3520000D03*
X7260000D03*
X7460000D03*
X7070000Y4050000D03*
X7260000D03*
X7460000D03*
X7070000Y3810000D03*
X7260000D03*
X7460000D03*
X7180360Y4956650D03*
Y5456650D03*
Y5956650D03*
Y6956650D03*
Y6456650D03*
Y7456650D03*
Y8236650D03*
X7070000Y9310000D03*
X7880000Y2430000D03*
X8000000D03*
X7730000Y2900000D03*
X7930000Y2700000D03*
X7760000Y3170000D03*
X8030000Y2900000D03*
X7710000Y3520000D03*
X8000000D03*
X8050000Y3180000D03*
X7660000Y4050000D03*
X7860000D03*
X7660000Y3810000D03*
X7860000D03*
X7680360Y4956650D03*
Y5456650D03*
Y5956650D03*
Y6956650D03*
Y6456650D03*
Y7456650D03*
Y8236650D03*
X7681130Y9252080D03*
X7773260Y9723320D03*
X8390000Y2200000D03*
X8300000Y2430000D03*
X8480000D03*
X8180000D03*
X8220000Y2700000D03*
X8330000Y2900000D03*
X8520000Y2700000D03*
X8300000Y3520000D03*
X8590000D03*
X8350000Y3180000D03*
X8070000Y4050000D03*
X8270000D03*
X8460000D03*
X8070000Y3810000D03*
X8300000D03*
X8580000D03*
X8180360Y4956650D03*
Y5456650D03*
Y5956650D03*
Y6956650D03*
Y6456650D03*
Y7456650D03*
X8181130Y9252080D03*
X8273260Y9723320D03*
X8680000Y2200000D03*
X8670000Y2430000D03*
X8880000D03*
X8910000Y3060000D03*
X8620000Y2900000D03*
X8910000Y2850000D03*
Y2630000D03*
Y3490000D03*
Y3280000D03*
X8630000Y3190000D03*
X8660000Y4050000D03*
X8900000D03*
X8850000Y3810000D03*
X8680360Y4956650D03*
Y5456650D03*
Y5956650D03*
Y6956650D03*
Y6456650D03*
Y7456650D03*
X8681130Y9252080D03*
X8773260Y9723320D03*
X9210000Y2200000D03*
X9200000Y2430000D03*
X9640000Y2230000D03*
X9630000Y2430000D03*
X9280000Y2630000D03*
Y2850000D03*
Y3060000D03*
X9520000Y2630000D03*
X9280000Y3680000D03*
Y3490000D03*
Y3280000D03*
X9160000Y3890000D03*
X9530000D03*
X9680360Y4956650D03*
X9180360D03*
X9680360Y5456650D03*
X9180360D03*
X9680360Y5956650D03*
X9180360D03*
X9680360Y6956650D03*
X9180360D03*
X9680360Y6456650D03*
X9180360D03*
Y7456650D03*
X9555310Y8050400D03*
X9181130Y9252080D03*
X9375000Y9485000D03*
X9273260Y9723320D03*
X9810000Y2430000D03*
X10110000D03*
X9930000D03*
X9760000Y2850000D03*
Y3060000D03*
X10130000D03*
Y2850000D03*
X9870000Y2700000D03*
X10220000Y2630000D03*
X9760000Y3280000D03*
Y3490000D03*
X10130000Y3280000D03*
Y3490000D03*
Y3690000D03*
X9760000D03*
X9900000Y3890000D03*
X10180360Y4956650D03*
Y5456650D03*
Y5956650D03*
Y6956650D03*
Y6456650D03*
Y7456650D03*
X10055310Y8050400D03*
X9773260Y9723320D03*
X10310000Y2200000D03*
X10510000Y2430000D03*
X10520000Y3070000D03*
Y3280000D03*
Y3690000D03*
Y3490000D03*
X10680360Y4956650D03*
Y5456650D03*
Y5956650D03*
Y6956650D03*
Y6456650D03*
Y7456650D03*
X10555310Y8050400D03*
X10773260Y9723320D03*
X10273260D03*
X11060000Y2200000D03*
Y2430000D03*
X11260000D03*
X10890000Y3070000D03*
X11240000D03*
Y2710000D03*
X10890000Y3280000D03*
Y3690000D03*
Y3490000D03*
X11240000Y3690000D03*
Y3490000D03*
Y3280000D03*
Y3890000D03*
X10890000D03*
X11180360Y4956650D03*
Y5456650D03*
Y5956650D03*
Y6956650D03*
Y6456650D03*
Y7456650D03*
X11115310Y8060400D03*
X11125000Y8745000D03*
X10855000Y9455000D03*
X11273260Y9723320D03*
X11660000Y2200000D03*
X11440000Y2430000D03*
X11560000D03*
X11740000D03*
X11500000Y2710000D03*
X11760000D03*
X11490000Y3070000D03*
X11760000Y3060000D03*
X11640000Y3490000D03*
X11650000Y3690000D03*
Y3890000D03*
X11680360Y4956650D03*
Y5456650D03*
Y5956650D03*
Y6956650D03*
Y6456650D03*
Y7456650D03*
X11615310Y8060400D03*
X11773260Y9723320D03*
X11910000Y2430000D03*
X12030000Y2200000D03*
X12035000Y2335000D03*
X12390000D03*
X12040000Y3690000D03*
Y3480000D03*
Y3890000D03*
X12115310Y8060400D03*
X11940000Y9300000D03*
X12470000Y2200000D03*
Y2430000D03*
X12780000Y2540000D03*
X12890000Y2430000D03*
X12870000Y2730000D03*
Y3120000D03*
X12510000Y3480000D03*
Y3690000D03*
X12780000Y3480000D03*
Y3690000D03*
X12512010Y4087500D03*
X12510000Y3890000D03*
X12780000D03*
X12680360Y4956650D03*
Y5456650D03*
Y5956650D03*
Y6956650D03*
Y6456650D03*
Y7456650D03*
X12615310Y8060400D03*
X12970000Y2210000D03*
X13370000Y2430000D03*
X13190000D03*
X13070000D03*
X13130000Y2730000D03*
X13390000D03*
Y3120000D03*
X13130000D03*
Y3480000D03*
Y3690000D03*
X13390000Y3480000D03*
X13130000Y3900000D03*
X13180360Y4956650D03*
Y5456650D03*
Y5956650D03*
Y6956650D03*
Y6456650D03*
Y7456650D03*
X13115310Y8060400D03*
X13982010Y2627500D03*
X13980000Y2210000D03*
X13982010Y3127500D03*
Y3627500D03*
X14000360Y4966650D03*
Y5466650D03*
Y5966650D03*
Y6966650D03*
Y6466650D03*
Y7466650D03*
X13615310Y8060400D03*
G54D21*
G01X975000Y6945000D02*
X1605000D01*
G01X7869100Y8610000D02*
Y8160000D01*
X7699100Y7990000D01*
X4640000D01*
X4370000Y7720000D01*
Y2390000D01*
X3980000Y2000000D01*
Y1600000D01*
X4370000Y1210000D01*
Y890870D01*
X4329130Y850000D01*
X1311500D01*
X1061500Y600000D01*
G01X7869100Y8810000D02*
Y8745040D01*
X7964580Y8649560D01*
Y8120450D01*
X7794130Y7950000D01*
X4656570D01*
X4410000Y7703430D01*
Y2373430D01*
X4023320Y1986750D01*
Y1606970D01*
X4405560Y1224730D01*
Y1223570D01*
X4410000Y1219130D01*
Y880580D01*
X4339420Y810000D01*
X2088500D01*
X1878500Y600000D01*
G01X2691500D02*
X2861500Y770000D01*
X4349710D01*
X4450000Y870290D01*
Y1229420D01*
X4441120Y1238300D01*
Y1239460D01*
X4058880Y1621700D01*
Y1965740D01*
X4450000Y2356860D01*
Y7686860D01*
X4673140Y7910000D01*
X7901950D01*
X8069100Y8077150D01*
Y8610000D01*
G01Y8810000D02*
Y8745040D01*
X8164580Y8649560D01*
Y8057600D01*
X7976980Y7870000D01*
X4689710D01*
X4490000Y7670290D01*
Y2340290D01*
X4094860Y1945150D01*
Y1636010D01*
X4476680Y1254190D01*
Y1253030D01*
X4490000Y1239710D01*
Y860000D01*
X4360000Y730000D01*
X3638500D01*
X3508500Y600000D01*
G01X5138500D02*
X4890000D01*
X4770000Y720000D01*
Y1070010D01*
X4170000Y1670010D01*
Y1907150D01*
X4570000Y2307150D01*
Y7637150D01*
X4722850Y7790000D01*
X8179830D01*
X8364580Y7974750D01*
Y8649560D01*
X8269100Y8745040D01*
Y8810000D01*
G01Y8610000D02*
Y8014300D01*
X8084800Y7830000D01*
X4706280D01*
X4530000Y7653720D01*
Y2323720D01*
X4130420Y1924140D01*
Y1650740D01*
X4512240Y1268920D01*
Y1267760D01*
X4730000Y1050000D01*
Y720000D01*
X4610000Y600000D01*
X4321500D01*
G01X6768500D02*
X6470000D01*
X6340000Y730000D01*
Y956570D01*
X5690000Y1606570D01*
Y1936570D01*
X5456570Y2170000D01*
X4746570D01*
X4650000Y2266570D01*
Y7589360D01*
X4770640Y7710000D01*
X8382680D01*
X8564580Y7891900D01*
Y8649560D01*
X8469100Y8745040D01*
Y8810000D01*
G01X5951500Y600000D02*
X6170000D01*
X6300000Y730000D01*
Y940000D01*
X5650000Y1590000D01*
Y1920000D01*
X5440000Y2130000D01*
X4730000D01*
X4610000Y2250000D01*
Y7620580D01*
X4739420Y7750000D01*
X8287650D01*
X8469100Y7931450D01*
Y8610000D01*
G01X7581500Y600000D02*
X7926950D01*
X7967590Y640640D01*
Y932430D01*
X7377590Y1522430D01*
Y2467570D01*
X7512430Y2602410D01*
X8612430D01*
X8762430Y2752410D01*
X9762430D01*
X9987590Y2977570D01*
Y7592430D01*
X9892430Y7687590D01*
X8872410D01*
X8669100Y7890900D01*
Y8610000D01*
G01X8398500Y600000D02*
X8050640D01*
X8010000Y640640D01*
Y950000D01*
X7420000Y1540000D01*
Y2450000D01*
X7530000Y2560000D01*
X8630000D01*
X8780000Y2710000D01*
X9780000D01*
X10030000Y2960000D01*
Y7610000D01*
X9910000Y7730000D01*
X8959990D01*
X8764580Y7925410D01*
Y8649560D01*
X8669100Y8745040D01*
Y8810000D01*
G01X8869100Y8610000D02*
Y7930900D01*
X9020000Y7780000D01*
X12088550D01*
X12140000Y7728550D01*
Y1599420D01*
X12510000Y1229420D01*
Y870000D01*
X12480000Y840000D01*
X9451500D01*
X9211500Y600000D01*
G01X10028500D02*
X10232940Y804440D01*
X12494730D01*
X12545560Y855270D01*
Y1244150D01*
X12178910Y1610800D01*
Y7739930D01*
X12099930Y7818910D01*
X9091080D01*
X8964580Y7945410D01*
Y8649560D01*
X8869100Y8745040D01*
Y8810000D01*
G01X9069100Y8610000D02*
Y7940910D01*
X9152230Y7857780D01*
X12111350D01*
X12217780Y7751350D01*
Y1622220D01*
X12581120Y1258880D01*
Y821120D01*
X12520000Y760000D01*
X11001500D01*
X10841500Y600000D01*
G01X11658500D02*
X11782940Y724440D01*
X12554450D01*
X12616680Y786670D01*
Y1273610D01*
X12253340Y1636950D01*
Y7766080D01*
X12126080Y7893340D01*
X9225220D01*
X9164580Y7953980D01*
Y8649560D01*
X9069100Y8745040D01*
Y8810000D01*
G01X9269100D02*
X9370000Y8709100D01*
Y8020890D01*
X9426430Y7964460D01*
X12155540D01*
X12324460Y7795540D01*
Y1666410D01*
X12900000Y1090870D01*
Y690000D01*
X12990000Y600000D01*
X13288500D01*
G01X9269100Y8610000D02*
Y7989540D01*
X9329740Y7928900D01*
X12140810D01*
X12288900Y7780810D01*
Y1651680D01*
X12864440Y1076140D01*
Y690000D01*
X12774440Y600000D01*
X12471500D01*
G54D12*
X807500D03*
X1025000Y1725000D03*
X1061500Y600000D03*
X1406000Y1979000D03*
X1152000D03*
X1533000Y1725000D03*
X1279000D03*
X2132500Y600000D03*
X1878500D03*
X1914000Y1979000D03*
X1660000D03*
X1787000Y1725000D03*
X2437500Y600000D03*
X2655000Y1725000D03*
X2691500Y600000D03*
X3036000Y1979000D03*
X2782000D03*
X3163000Y1725000D03*
X2909000D03*
X3762500Y600000D03*
X3508500D03*
X3544000Y1979000D03*
X3290000D03*
X3417000Y1725000D03*
X4067500Y600000D03*
X4285000Y1725000D03*
X4321500Y600000D03*
X4666000Y1979000D03*
X4412000D03*
X4793000Y1725000D03*
X4539000D03*
X5392500Y600000D03*
X5138500D03*
X5174000Y1979000D03*
X4920000D03*
X5047000Y1725000D03*
X5697500Y600000D03*
X5915000Y1725000D03*
X5951500Y600000D03*
X6296000Y1979000D03*
X6042000D03*
X6423000Y1725000D03*
X6169000D03*
X7022500Y600000D03*
X6768500D03*
X6804000Y1979000D03*
X6550000D03*
X6677000Y1725000D03*
X7327500Y600000D03*
X7545000Y1725000D03*
X7581500Y600000D03*
X7926000Y1979000D03*
X7672000D03*
X8053000Y1725000D03*
X7799000D03*
X8652500Y600000D03*
X8398500D03*
X8434000Y1979000D03*
X8180000D03*
X8307000Y1725000D03*
X8957500Y600000D03*
X9175000Y1725000D03*
X9211500Y600000D03*
X9556000Y1979000D03*
X9302000D03*
X9683000Y1725000D03*
X9429000D03*
X10282500Y600000D03*
X10028500D03*
X10064000Y1979000D03*
X9810000D03*
X9937000Y1725000D03*
X10587500Y600000D03*
X10805000Y1725000D03*
X10841500Y600000D03*
X11186000Y1979000D03*
X10932000D03*
X11313000Y1725000D03*
X11059000D03*
X11912500Y600000D03*
X11658500D03*
X11694000Y1979000D03*
X11440000D03*
X11567000Y1725000D03*
X12217500Y600000D03*
X12435000Y1725000D03*
X12471500Y600000D03*
X12816000Y1979000D03*
X12562000D03*
X12943000Y1725000D03*
X12689000D03*
X13542500Y600000D03*
X13288500D03*
X13324000Y1979000D03*
X13070000D03*
X13197000Y1725000D03*
G54D22*
G01X1480000Y2430000D02*
X1660000D01*
G01X1960000D02*
X1780000D01*
G01X3290000D02*
X3110000D01*
G01X3410000D02*
X3590000D01*
G01X4740000D02*
X4920000D01*
G01X5220000D02*
X5040000D01*
G01X5250000Y9310000D02*
X4890000D01*
G01X6550000Y2430000D02*
X6370000D01*
G01X6670000D02*
X6850000D01*
G01X8000000D02*
X8180000D01*
G01X8480000D02*
X8300000D01*
G01X9810000D02*
X9630000D01*
G01X9930000D02*
X10110000D01*
G01X11260000D02*
X11440000D01*
G01X11740000D02*
X11560000D01*
G01X13070000D02*
X12890000D01*
G01X13190000D02*
X13370000D01*
G54D13*
X695500Y1395000D03*
X2244500D03*
X2325500D03*
X3955500D03*
X3874500D03*
X5504500D03*
X5585500D03*
X7215500D03*
X7134500D03*
X8764500D03*
X8845500D03*
X10475500D03*
X10394500D03*
X12024500D03*
X12105500D03*
X13654500D03*
G54D23*
G01X5540000Y470000D02*
X5420000Y350000D01*
X830000D01*
X670000Y510000D01*
Y710000D01*
X740000Y780000D01*
X1130000D01*
X1533000Y1183000D01*
Y1725000D01*
G01X2350000Y2430000D02*
X2230000Y2550000D01*
X850000D01*
X730000Y2430000D01*
G01X1406000Y1979000D02*
Y1852000D01*
X1533000Y1725000D01*
G01X3036000Y1979000D02*
X2895000Y2120000D01*
X1530000D01*
X1406000Y1996000D01*
Y1979000D01*
G01X3980000Y2430000D02*
X3860000Y2550000D01*
X2470000D01*
X2350000Y2430000D01*
G01X5540000Y470000D02*
Y660000D01*
X5440000Y760000D01*
X4990000D01*
X4900000Y850000D01*
Y1100000D01*
X4793000Y1207000D01*
Y1725000D01*
G01X4666000Y1979000D02*
Y1852000D01*
X4793000Y1725000D01*
G01X6296000Y1979000D02*
X6165000Y2110000D01*
X5800000D01*
X5043700Y2866300D01*
Y4210000D01*
G01Y4410000D02*
Y4210000D01*
G01X5269100Y8810000D02*
X5260000Y8819100D01*
Y9300000D01*
X5250000Y9310000D01*
G01D02*
X6090000D01*
G01X7170000Y420000D02*
X7100000Y350000D01*
X5660000D01*
X5540000Y470000D01*
G01X7135000Y2335000D02*
X5705000D01*
X5610000Y2430000D01*
G01X6423000Y1725000D02*
Y877000D01*
X6550000Y750000D01*
X7090000D01*
X7170000Y670000D01*
Y420000D01*
G01X6296000Y1979000D02*
Y1852000D01*
X6423000Y1725000D01*
G01X6090000Y9310000D02*
X7070000D01*
G01X7170000Y420000D02*
X7240000Y350000D01*
X8730000D01*
X8800000Y420000D01*
G01X7485000Y2335000D02*
X8785000D01*
X8880000Y2430000D01*
G01X7070000Y9310000D02*
X7245000Y9485000D01*
X9375000D01*
G01X8800000Y420000D02*
Y680000D01*
X8720000Y760000D01*
X8200000D01*
X8140000Y820000D01*
Y980000D01*
X8053000Y1067000D01*
Y1725000D01*
G01X7926000Y1979000D02*
Y1852000D01*
X8053000Y1725000D01*
G01X9556000Y1979000D02*
X9425000Y2110000D01*
X8057000D01*
X7926000Y1979000D01*
G01X8800000Y420000D02*
X8870000Y350000D01*
X13490000D01*
X13690000Y550000D01*
Y670000D01*
X13610000Y750000D01*
X13140000D01*
X13050000Y840000D01*
Y1090000D01*
X12943000Y1197000D01*
Y1725000D01*
G01X8880000Y2430000D02*
X8980000Y2530000D01*
X10410000D01*
X10510000Y2430000D01*
G01X9556000Y1979000D02*
Y1852000D01*
X9683000Y1725000D01*
G01X9556000Y1979000D02*
X9681720Y2104720D01*
X11055280D01*
X11181000Y1979000D01*
X11186000D01*
G01X9375000Y9485000D02*
X10825000D01*
X10855000Y9455000D01*
G01X12035000Y2335000D02*
X10605000D01*
X10510000Y2430000D01*
G01X11186000Y1979000D02*
Y1852000D01*
X11313000Y1725000D01*
G01X10855000Y9455000D02*
Y9015000D01*
X11125000Y8745000D01*
G01D02*
X11975000D01*
X12390000Y8330000D01*
Y2335000D01*
G01X12816000Y1979000D02*
Y1852000D01*
X12943000Y1725000D01*
G54D14*
X760000Y8880000D03*
G54D24*
G01X10394500Y1476000D02*
X10475500Y1395000D01*
G01X12024500Y1476000D02*
X12105500Y1395000D01*
G54D15*
X1240000Y8600000D03*
Y9200000D03*
G54D25*
G01X330000Y330000D02*
X90000Y570000D01*
Y1390000D01*
G01X14020000Y330000D02*
X13780000Y90000D01*
X570000D01*
X330000Y330000D01*
G01X90000Y1390000D02*
Y9430000D01*
X330000Y9670000D01*
G01X695500Y1395000D02*
X95000D01*
X90000Y1390000D01*
G01X2244500Y1395000D02*
Y1648500D01*
X1914000Y1979000D01*
G01X2325500Y1395000D02*
X2244500D01*
G01X3874500D02*
Y1648500D01*
X3544000Y1979000D01*
G01X3955500Y1395000D02*
X3874500D01*
G01X5504500D02*
Y1648500D01*
X5174000Y1979000D01*
G01X5585500Y1395000D02*
X5504500D01*
G01X7134500D02*
Y1648500D01*
X6804000Y1979000D01*
G01X7215500Y1395000D02*
X7134500D01*
G01X8764500D02*
Y1648500D01*
X8434000Y1979000D01*
G01X8845500Y1395000D02*
X8764500D01*
G01X10394500Y1476000D02*
Y1648500D01*
X10064000Y1979000D01*
G01X10394500Y1395000D02*
Y1476000D01*
G01X10475500Y1395000D02*
X10394500D01*
G01X12024500Y1476000D02*
Y1648500D01*
X11694000Y1979000D01*
G01X12024500Y1395000D02*
Y1476000D01*
G01X12105500Y1395000D02*
X12024500D01*
G01X12428000Y8971000D02*
X13632000D01*
G01X13654500Y1395000D02*
Y1648500D01*
X13324000Y1979000D01*
G01X14020000Y330000D02*
X14260000Y570000D01*
Y1400000D01*
G01X13654500Y1395000D02*
X14255000D01*
X14260000Y1400000D01*
G01X13632000Y8971000D02*
X14259000D01*
X14260000Y8970000D01*
G01D02*
Y9430000D01*
X14020000Y9670000D01*
G01X14260000Y1400000D02*
Y8970000D01*
G54D16*
X4000000Y4210000D03*
Y8810000D03*
X10400000Y4210000D03*
Y8810000D03*
G54D17*
X4000000Y5010000D03*
X4200000D03*
X4000000Y5210000D03*
X4200000D03*
X4000000Y5410000D03*
Y5610000D03*
Y5810000D03*
X4200000Y5410000D03*
Y5610000D03*
Y5810000D03*
X4000000Y6010000D03*
Y6210000D03*
Y6410000D03*
X4200000Y6010000D03*
Y6210000D03*
Y6410000D03*
X4000000Y6610000D03*
Y6810000D03*
Y7010000D03*
X4200000Y6610000D03*
Y6810000D03*
Y7010000D03*
X4000000Y7210000D03*
Y7410000D03*
X4200000Y7210000D03*
Y7410000D03*
X4000000Y7610000D03*
Y7810000D03*
Y8010000D03*
X4200000Y7610000D03*
Y7810000D03*
Y8010000D03*
X5243700Y4210000D03*
X5043700D03*
X4843700D03*
X5243700Y4410000D03*
X5043700D03*
X4843700D03*
X4869100Y8610000D03*
X5069100D03*
X5269100D03*
X4869100Y8810000D03*
X5069100D03*
X5269100D03*
X5843700Y4210000D03*
X5643700D03*
X5443700D03*
X5843700Y4410000D03*
X5643700D03*
X5443700D03*
X5469100Y8610000D03*
X5669100D03*
X5869100D03*
X5469100Y8810000D03*
X5669100D03*
X5869100D03*
X6443700Y4210000D03*
X6243700D03*
X6043700D03*
X6443700Y4410000D03*
X6243700D03*
X6043700D03*
X6069100Y8610000D03*
X6269100D03*
X6469100D03*
X6069100Y8810000D03*
X6269100D03*
X6469100D03*
X6843700Y4210000D03*
X6643700D03*
X6843700Y4410000D03*
X6643700D03*
X6669100Y8610000D03*
X6869100D03*
X6669100Y8810000D03*
X6869100D03*
X7443700Y4210000D03*
X7243700D03*
X7043700D03*
X7443700Y4410000D03*
X7243700D03*
X7043700D03*
X7069100Y8610000D03*
X7269100D03*
X7469100D03*
X7069100Y8810000D03*
X7269100D03*
X7469100D03*
X8043700Y4210000D03*
X7843700D03*
X7643700D03*
X8043700Y4410000D03*
X7843700D03*
X7643700D03*
X7669100Y8610000D03*
X7869100D03*
X8069100D03*
X7669100Y8810000D03*
X7869100D03*
X8069100D03*
X8643700Y4210000D03*
X8443700D03*
X8243700D03*
X8643700Y4410000D03*
X8443700D03*
X8243700D03*
X8269100Y8610000D03*
X8469100D03*
X8269100Y8810000D03*
X8469100D03*
X9043700Y4210000D03*
X8843700D03*
X9043700Y4410000D03*
X8843700D03*
X8669100Y8610000D03*
X8869100D03*
X9069100D03*
X8669100Y8810000D03*
X8869100D03*
X9069100D03*
X9643700Y4210000D03*
X9443700D03*
X9243700D03*
X9643700Y4410000D03*
X9443700D03*
X9243700D03*
X9269100Y8610000D03*
X9469100D03*
X9669100D03*
X9269100Y8810000D03*
X9469100D03*
X9669100D03*
X12905000Y8700000D03*
X13155000Y8500000D03*
Y8700000D03*
G54D18*
X5500960Y9852170D03*
X6475000D03*
X6250960D03*
X7225000D03*
G54D19*
X12428000Y8971000D03*
X13632000D03*
M02*
