G04 ================== begin FILE IDENTIFICATION RECORD ==================*
G04 Layout Name:  IEM608_V10_211216.brd*
G04 Film Name:    Drill_Legend*
G04 File Format:  Gerber RS274X*
G04 File Origin:  Cadence Allegro 17.2-S071*
G04 Origin Date:  Fri Dec 17 14:36:10 2021*
G04 *
G04 Layer:  MANUFACTURING/NCLEGEND-1-2*
G04 Layer:  MANUFACTURING/NCDRILL_LEGEND*
G04 Layer:  MANUFACTURING/NCDRILL_FIGURE*
G04 Layer:  BOARD GEOMETRY/DIMENSION*
G04 *
G04 Offset:    (0.0000 0.0000)*
G04 Mirror:    No*
G04 Mode:      Positive*
G04 Rotation:  0*
G04 FullContactRelief:  No*
G04 UndefLineWidth:     0.1524*
G04 ================== end FILE IDENTIFICATION RECORD ====================*
%FSLAX55Y55*MOMM*%
%IR0*IPPOS*OFA0.00000B0.00000*MIA0B0*SFA1.00000B1.00000*%
%AMMACRO19*
1,1,.1524,1.15,0.0*
20,1,.1524,1.15,0.0,0.0,-1.15,0.0*
1,1,.1524,0.0,-1.15*
20,1,.1524,0.0,-1.15,-1.15,0.0,0.0*
1,1,.1524,-1.15,0.0*
20,1,.1524,-1.15,0.0,0.0,1.15,0.0*
1,1,.1524,0.0,1.15*
20,1,.1524,0.0,1.15,1.15,0.0,0.0*
1,1,.1524,1.15,0.0*
%
%ADD19MACRO19*%
%AMMACRO13*
1,1,.1524,.372792,-.9*
20,1,.1524,.372792,-.9,-.372792,-.9,0.0*
1,1,.1524,-.372792,-.9*
20,1,.1524,-.372792,-.9,-.9,-.372792,0.0*
1,1,.1524,-.9,-.372792*
20,1,.1524,-.9,-.372792,-.9,.372792,0.0*
1,1,.1524,-.9,.372792*
20,1,.1524,-.9,.372792,-.372792,.9,0.0*
1,1,.1524,-.372792,.9*
20,1,.1524,-.372792,.9,.372792,.9,0.0*
1,1,.1524,.372792,.9*
20,1,.1524,.372792,.9,.9,.372792,0.0*
1,1,.1524,.9,.372792*
20,1,.1524,.9,.372792,.9,-.372792,0.0*
1,1,.1524,.9,-.372792*
20,1,.1524,.9,-.372792,.372792,-.9,0.0*
1,1,.1524,.372792,-.9*
%
%ADD13MACRO13*%
%AMMACRO17*
1,1,.1524,.4,.4*
20,1,.1524,.4,.4,.4,-.4,0.0*
1,1,.1524,.4,-.4*
20,1,.1524,.4,-.4,-.4,-.4,0.0*
1,1,.1524,-.4,-.4*
20,1,.1524,-.4,-.4,-.4,.4,0.0*
1,1,.1524,-.4,.4*
20,1,.1524,-.4,.4,.4,.4,0.0*
1,1,.1524,.4,.4*
%
%ADD17MACRO17*%
%AMMACRO11*
1,1,.1524,.1524,0.0*
20,1,.1524,.1524,0.0,-.1524,0.0,0.0*
1,1,.1524,-.1524,0.0*
1,1,.1524,0.0,.1524*
20,1,.1524,0.0,.1524,0.0,-.1524,0.0*
1,1,.1524,0.0,-.1524*
%
%ADD11MACRO11*%
%AMMACRO18*
1,1,.1524,0.0,.5*
20,1,.1524,0.0,.5,-.433013,.25,0.0*
1,1,.1524,-.433013,.25*
20,1,.1524,-.433013,.25,-.433013,-.25,0.0*
1,1,.1524,-.433013,-.25*
20,1,.1524,-.433013,-.25,0.0,-.5,0.0*
1,1,.1524,0.0,-.5*
20,1,.1524,0.0,-.5,.433013,-.25,0.0*
1,1,.1524,.433013,-.25*
20,1,.1524,.433013,-.25,.433013,.25,0.0*
1,1,.1524,.433013,.25*
20,1,.1524,.433013,.25,0.0,.5,0.0*
1,1,.1524,0.0,.5*
%
%ADD18MACRO18*%
%AMMACRO14*
1,1,.1524,-.5,-1.*
20,1,.1524,-.5,-1.,-.5,1.,0.0*
1,1,.1524,-.5,1.*
20,1,.1524,-.5,1.,-.492404,1.086824,0.0*
1,1,.1524,-.492404,1.086824*
20,1,.1524,-.492404,1.086824,-.469846,1.17101,0.0*
1,1,.1524,-.469846,1.17101*
20,1,.1524,-.469846,1.17101,-.433013,1.25,0.0*
1,1,.1524,-.433013,1.25*
20,1,.1524,-.433013,1.25,-.383022,1.321394,0.0*
1,1,.1524,-.383022,1.321394*
20,1,.1524,-.383022,1.321394,-.321394,1.383022,0.0*
1,1,.1524,-.321394,1.383022*
20,1,.1524,-.321394,1.383022,-.25,1.433013,0.0*
1,1,.1524,-.25,1.433013*
20,1,.1524,-.25,1.433013,-.17101,1.469846,0.0*
1,1,.1524,-.17101,1.469846*
20,1,.1524,-.17101,1.469846,-.086824,1.492404,0.0*
1,1,.1524,-.086824,1.492404*
20,1,.1524,-.086824,1.492404,0.0,1.5,0.0*
1,1,.1524,0.0,1.5*
20,1,.1524,0.0,1.5,.086824,1.492404,0.0*
1,1,.1524,.086824,1.492404*
20,1,.1524,.086824,1.492404,.17101,1.469846,0.0*
1,1,.1524,.17101,1.469846*
20,1,.1524,.17101,1.469846,.25,1.433013,0.0*
1,1,.1524,.25,1.433013*
20,1,.1524,.25,1.433013,.321394,1.383022,0.0*
1,1,.1524,.321394,1.383022*
20,1,.1524,.321394,1.383022,.383022,1.321394,0.0*
1,1,.1524,.383022,1.321394*
20,1,.1524,.383022,1.321394,.433013,1.25,0.0*
1,1,.1524,.433013,1.25*
20,1,.1524,.433013,1.25,.469846,1.17101,0.0*
1,1,.1524,.469846,1.17101*
20,1,.1524,.469846,1.17101,.492404,1.086824,0.0*
1,1,.1524,.492404,1.086824*
20,1,.1524,.492404,1.086824,.5,1.,0.0*
1,1,.1524,.5,1.*
20,1,.1524,.5,1.,.5,-1.,0.0*
1,1,.1524,.5,-1.*
20,1,.1524,.5,-1.,.492404,-1.086824,0.0*
1,1,.1524,.492404,-1.086824*
20,1,.1524,.492404,-1.086824,.469846,-1.17101,0.0*
1,1,.1524,.469846,-1.17101*
20,1,.1524,.469846,-1.17101,.433013,-1.25,0.0*
1,1,.1524,.433013,-1.25*
20,1,.1524,.433013,-1.25,.383022,-1.321394,0.0*
1,1,.1524,.383022,-1.321394*
20,1,.1524,.383022,-1.321394,.321394,-1.383022,0.0*
1,1,.1524,.321394,-1.383022*
20,1,.1524,.321394,-1.383022,.25,-1.433013,0.0*
1,1,.1524,.25,-1.433013*
20,1,.1524,.25,-1.433013,.17101,-1.469846,0.0*
1,1,.1524,.17101,-1.469846*
20,1,.1524,.17101,-1.469846,.086824,-1.492404,0.0*
1,1,.1524,.086824,-1.492404*
20,1,.1524,.086824,-1.492404,0.0,-1.5,0.0*
1,1,.1524,0.0,-1.5*
20,1,.1524,0.0,-1.5,-.086824,-1.492404,0.0*
1,1,.1524,-.086824,-1.492404*
20,1,.1524,-.086824,-1.492404,-.17101,-1.469846,0.0*
1,1,.1524,-.17101,-1.469846*
20,1,.1524,-.17101,-1.469846,-.25,-1.433013,0.0*
1,1,.1524,-.25,-1.433013*
20,1,.1524,-.25,-1.433013,-.321394,-1.383022,0.0*
1,1,.1524,-.321394,-1.383022*
20,1,.1524,-.321394,-1.383022,-.383022,-1.321394,0.0*
1,1,.1524,-.383022,-1.321394*
20,1,.1524,-.383022,-1.321394,-.433013,-1.25,0.0*
1,1,.1524,-.433013,-1.25*
20,1,.1524,-.433013,-1.25,-.469846,-1.17101,0.0*
1,1,.1524,-.469846,-1.17101*
20,1,.1524,-.469846,-1.17101,-.492404,-1.086824,0.0*
1,1,.1524,-.492404,-1.086824*
20,1,.1524,-.492404,-1.086824,-.5,-1.,0.0*
1,1,.1524,-.5,-1.*
1,1,.1524,-.25,-.25*
20,1,.1524,-.25,-.25,-.3167,-.2417,0.0*
1,1,.1524,-.3167,-.2417*
20,1,.1524,-.3167,-.2417,-.375,-.2083,0.0*
1,1,.1524,-.375,-.2083*
20,1,.1524,-.375,-.2083,-.425,-.1583,0.0*
1,1,.1524,-.425,-.1583*
20,1,.1524,-.425,-.1583,-.4583,-.1,0.0*
1,1,.1524,-.4583,-.1*
20,1,.1524,-.4583,-.1,-.475,-.0333,0.0*
1,1,.1524,-.475,-.0333*
20,1,.1524,-.475,-.0333,-.475,.0333,0.0*
1,1,.1524,-.475,.0333*
20,1,.1524,-.475,.0333,-.4583,.1,0.0*
1,1,.1524,-.4583,.1*
20,1,.1524,-.4583,.1,-.425,.1583,0.0*
1,1,.1524,-.425,.1583*
20,1,.1524,-.425,.1583,-.375,.2083,0.0*
1,1,.1524,-.375,.2083*
20,1,.1524,-.375,.2083,-.3167,.2417,0.0*
1,1,.1524,-.3167,.2417*
20,1,.1524,-.3167,.2417,-.25,.25,0.0*
1,1,.1524,-.25,.25*
20,1,.1524,-.25,.25,-.1833,.2417,0.0*
1,1,.1524,-.1833,.2417*
20,1,.1524,-.1833,.2417,-.125,.2083,0.0*
1,1,.1524,-.125,.2083*
20,1,.1524,-.125,.2083,-.075,.1583,0.0*
1,1,.1524,-.075,.1583*
20,1,.1524,-.075,.1583,-.0417,.1,0.0*
1,1,.1524,-.0417,.1*
20,1,.1524,-.0417,.1,-.025,.0333,0.0*
1,1,.1524,-.025,.0333*
20,1,.1524,-.025,.0333,-.025,-.0333,0.0*
1,1,.1524,-.025,-.0333*
20,1,.1524,-.025,-.0333,-.0417,-.1,0.0*
1,1,.1524,-.0417,-.1*
20,1,.1524,-.0417,-.1,-.075,-.1583,0.0*
1,1,.1524,-.075,-.1583*
20,1,.1524,-.075,-.1583,-.125,-.2083,0.0*
1,1,.1524,-.125,-.2083*
20,1,.1524,-.125,-.2083,-.1833,-.2417,0.0*
1,1,.1524,-.1833,-.2417*
20,1,.1524,-.1833,-.2417,-.25,-.25,0.0*
1,1,.1524,-.25,-.25*
1,1,.1524,.0418,-.25*
20,1,.1524,.0418,-.25,.2501,.25,0.0*
1,1,.1524,.2501,.25*
20,1,.1524,.2501,.25,.4584,-.25,0.0*
1,1,.1524,.4584,-.25*
1,1,.1524,.3834,-.075*
20,1,.1524,.3834,-.075,.1168,-.075,0.0*
1,1,.1524,.1168,-.075*
%
%ADD14MACRO14*%
%AMMACRO15*
1,1,.1524,-1.,.5*
20,1,.1524,-1.,.5,1.,.5,0.0*
1,1,.1524,1.,.5*
20,1,.1524,1.,.5,1.086824,.492404,0.0*
1,1,.1524,1.086824,.492404*
20,1,.1524,1.086824,.492404,1.17101,.469846,0.0*
1,1,.1524,1.17101,.469846*
20,1,.1524,1.17101,.469846,1.25,.433013,0.0*
1,1,.1524,1.25,.433013*
20,1,.1524,1.25,.433013,1.321394,.383022,0.0*
1,1,.1524,1.321394,.383022*
20,1,.1524,1.321394,.383022,1.383022,.321394,0.0*
1,1,.1524,1.383022,.321394*
20,1,.1524,1.383022,.321394,1.433013,.25,0.0*
1,1,.1524,1.433013,.25*
20,1,.1524,1.433013,.25,1.469846,.17101,0.0*
1,1,.1524,1.469846,.17101*
20,1,.1524,1.469846,.17101,1.492404,.086824,0.0*
1,1,.1524,1.492404,.086824*
20,1,.1524,1.492404,.086824,1.5,0.0,0.0*
1,1,.1524,1.5,0.0*
20,1,.1524,1.5,0.0,1.492404,-.086824,0.0*
1,1,.1524,1.492404,-.086824*
20,1,.1524,1.492404,-.086824,1.469846,-.17101,0.0*
1,1,.1524,1.469846,-.17101*
20,1,.1524,1.469846,-.17101,1.433013,-.25,0.0*
1,1,.1524,1.433013,-.25*
20,1,.1524,1.433013,-.25,1.383022,-.321394,0.0*
1,1,.1524,1.383022,-.321394*
20,1,.1524,1.383022,-.321394,1.321394,-.383022,0.0*
1,1,.1524,1.321394,-.383022*
20,1,.1524,1.321394,-.383022,1.25,-.433013,0.0*
1,1,.1524,1.25,-.433013*
20,1,.1524,1.25,-.433013,1.17101,-.469846,0.0*
1,1,.1524,1.17101,-.469846*
20,1,.1524,1.17101,-.469846,1.086824,-.492404,0.0*
1,1,.1524,1.086824,-.492404*
20,1,.1524,1.086824,-.492404,1.,-.5,0.0*
1,1,.1524,1.,-.5*
20,1,.1524,1.,-.5,-1.,-.5,0.0*
1,1,.1524,-1.,-.5*
20,1,.1524,-1.,-.5,-1.086824,-.492404,0.0*
1,1,.1524,-1.086824,-.492404*
20,1,.1524,-1.086824,-.492404,-1.17101,-.469846,0.0*
1,1,.1524,-1.17101,-.469846*
20,1,.1524,-1.17101,-.469846,-1.25,-.433013,0.0*
1,1,.1524,-1.25,-.433013*
20,1,.1524,-1.25,-.433013,-1.321394,-.383022,0.0*
1,1,.1524,-1.321394,-.383022*
20,1,.1524,-1.321394,-.383022,-1.383022,-.321394,0.0*
1,1,.1524,-1.383022,-.321394*
20,1,.1524,-1.383022,-.321394,-1.433013,-.25,0.0*
1,1,.1524,-1.433013,-.25*
20,1,.1524,-1.433013,-.25,-1.469846,-.17101,0.0*
1,1,.1524,-1.469846,-.17101*
20,1,.1524,-1.469846,-.17101,-1.492404,-.086824,0.0*
1,1,.1524,-1.492404,-.086824*
20,1,.1524,-1.492404,-.086824,-1.5,0.0,0.0*
1,1,.1524,-1.5,0.0*
20,1,.1524,-1.5,0.0,-1.492404,.086824,0.0*
1,1,.1524,-1.492404,.086824*
20,1,.1524,-1.492404,.086824,-1.469846,.17101,0.0*
1,1,.1524,-1.469846,.17101*
20,1,.1524,-1.469846,.17101,-1.433013,.25,0.0*
1,1,.1524,-1.433013,.25*
20,1,.1524,-1.433013,.25,-1.383022,.321394,0.0*
1,1,.1524,-1.383022,.321394*
20,1,.1524,-1.383022,.321394,-1.321394,.383022,0.0*
1,1,.1524,-1.321394,.383022*
20,1,.1524,-1.321394,.383022,-1.25,.433013,0.0*
1,1,.1524,-1.25,.433013*
20,1,.1524,-1.25,.433013,-1.17101,.469846,0.0*
1,1,.1524,-1.17101,.469846*
20,1,.1524,-1.17101,.469846,-1.086824,.492404,0.0*
1,1,.1524,-1.086824,.492404*
20,1,.1524,-1.086824,.492404,-1.,.5,0.0*
1,1,.1524,-1.,.5*
1,1,.1524,-.25,-.25*
20,1,.1524,-.25,-.25,-.3167,-.2417,0.0*
1,1,.1524,-.3167,-.2417*
20,1,.1524,-.3167,-.2417,-.375,-.2083,0.0*
1,1,.1524,-.375,-.2083*
20,1,.1524,-.375,-.2083,-.425,-.1583,0.0*
1,1,.1524,-.425,-.1583*
20,1,.1524,-.425,-.1583,-.4583,-.1,0.0*
1,1,.1524,-.4583,-.1*
20,1,.1524,-.4583,-.1,-.475,-.0333,0.0*
1,1,.1524,-.475,-.0333*
20,1,.1524,-.475,-.0333,-.475,.0333,0.0*
1,1,.1524,-.475,.0333*
20,1,.1524,-.475,.0333,-.4583,.1,0.0*
1,1,.1524,-.4583,.1*
20,1,.1524,-.4583,.1,-.425,.1583,0.0*
1,1,.1524,-.425,.1583*
20,1,.1524,-.425,.1583,-.375,.2083,0.0*
1,1,.1524,-.375,.2083*
20,1,.1524,-.375,.2083,-.3167,.2417,0.0*
1,1,.1524,-.3167,.2417*
20,1,.1524,-.3167,.2417,-.25,.25,0.0*
1,1,.1524,-.25,.25*
20,1,.1524,-.25,.25,-.1833,.2417,0.0*
1,1,.1524,-.1833,.2417*
20,1,.1524,-.1833,.2417,-.125,.2083,0.0*
1,1,.1524,-.125,.2083*
20,1,.1524,-.125,.2083,-.075,.1583,0.0*
1,1,.1524,-.075,.1583*
20,1,.1524,-.075,.1583,-.0417,.1,0.0*
1,1,.1524,-.0417,.1*
20,1,.1524,-.0417,.1,-.025,.0333,0.0*
1,1,.1524,-.025,.0333*
20,1,.1524,-.025,.0333,-.025,-.0333,0.0*
1,1,.1524,-.025,-.0333*
20,1,.1524,-.025,-.0333,-.0417,-.1,0.0*
1,1,.1524,-.0417,-.1*
20,1,.1524,-.0417,-.1,-.075,-.1583,0.0*
1,1,.1524,-.075,-.1583*
20,1,.1524,-.075,-.1583,-.125,-.2083,0.0*
1,1,.1524,-.125,-.2083*
20,1,.1524,-.125,-.2083,-.1833,-.2417,0.0*
1,1,.1524,-.1833,-.2417*
20,1,.1524,-.1833,-.2417,-.25,-.25,0.0*
1,1,.1524,-.25,-.25*
1,1,.1524,.0418,-.25*
20,1,.1524,.0418,-.25,.2501,.25,0.0*
1,1,.1524,.2501,.25*
20,1,.1524,.2501,.25,.4584,-.25,0.0*
1,1,.1524,.4584,-.25*
1,1,.1524,.3834,-.075*
20,1,.1524,.3834,-.075,.1168,-.075,0.0*
1,1,.1524,.1168,-.075*
%
%ADD15MACRO15*%
%AMMACRO10*
1,1,.1524,0.0,1.55*
20,1,.1524,0.0,1.55,1.342339,-.775,0.0*
1,1,.1524,1.342339,-.775*
20,1,.1524,1.342339,-.775,-1.342339,-.775,0.0*
1,1,.1524,-1.342339,-.775*
20,1,.1524,-1.342339,-.775,0.0,1.55,0.0*
1,1,.1524,0.0,1.55*
%
%ADD10MACRO10*%
%AMMACRO16*
1,1,.1524,-.425,1.275*
20,1,.1524,-.425,1.275,.425,1.275,0.0*
1,1,.1524,.425,1.275*
20,1,.1524,.425,1.275,.646401,1.25563,0.0*
1,1,.1524,.646401,1.25563*
20,1,.1524,.646401,1.25563,.861076,1.198108,0.0*
1,1,.1524,.861076,1.198108*
20,1,.1524,.861076,1.198108,1.0625,1.104182,0.0*
1,1,.1524,1.0625,1.104182*
20,1,.1524,1.0625,1.104182,1.244554,.976707,0.0*
1,1,.1524,1.244554,.976707*
20,1,.1524,1.244554,.976707,1.401707,.819554,0.0*
1,1,.1524,1.401707,.819554*
20,1,.1524,1.401707,.819554,1.529182,.6375,0.0*
1,1,.1524,1.529182,.6375*
20,1,.1524,1.529182,.6375,1.623108,.436076,0.0*
1,1,.1524,1.623108,.436076*
20,1,.1524,1.623108,.436076,1.68063,.221401,0.0*
1,1,.1524,1.68063,.221401*
20,1,.1524,1.68063,.221401,1.7,0.0,0.0*
1,1,.1524,1.7,0.0*
20,1,.1524,1.7,0.0,1.68063,-.221401,0.0*
1,1,.1524,1.68063,-.221401*
20,1,.1524,1.68063,-.221401,1.623108,-.436076,0.0*
1,1,.1524,1.623108,-.436076*
20,1,.1524,1.623108,-.436076,1.529182,-.6375,0.0*
1,1,.1524,1.529182,-.6375*
20,1,.1524,1.529182,-.6375,1.401707,-.819554,0.0*
1,1,.1524,1.401707,-.819554*
20,1,.1524,1.401707,-.819554,1.244554,-.976707,0.0*
1,1,.1524,1.244554,-.976707*
20,1,.1524,1.244554,-.976707,1.0625,-1.104182,0.0*
1,1,.1524,1.0625,-1.104182*
20,1,.1524,1.0625,-1.104182,.861076,-1.198108,0.0*
1,1,.1524,.861076,-1.198108*
20,1,.1524,.861076,-1.198108,.646401,-1.25563,0.0*
1,1,.1524,.646401,-1.25563*
20,1,.1524,.646401,-1.25563,.425,-1.275,0.0*
1,1,.1524,.425,-1.275*
20,1,.1524,.425,-1.275,-.425,-1.275,0.0*
1,1,.1524,-.425,-1.275*
20,1,.1524,-.425,-1.275,-.646401,-1.25563,0.0*
1,1,.1524,-.646401,-1.25563*
20,1,.1524,-.646401,-1.25563,-.861076,-1.198108,0.0*
1,1,.1524,-.861076,-1.198108*
20,1,.1524,-.861076,-1.198108,-1.0625,-1.104182,0.0*
1,1,.1524,-1.0625,-1.104182*
20,1,.1524,-1.0625,-1.104182,-1.244554,-.976707,0.0*
1,1,.1524,-1.244554,-.976707*
20,1,.1524,-1.244554,-.976707,-1.401707,-.819554,0.0*
1,1,.1524,-1.401707,-.819554*
20,1,.1524,-1.401707,-.819554,-1.529182,-.6375,0.0*
1,1,.1524,-1.529182,-.6375*
20,1,.1524,-1.529182,-.6375,-1.623108,-.436076,0.0*
1,1,.1524,-1.623108,-.436076*
20,1,.1524,-1.623108,-.436076,-1.68063,-.221401,0.0*
1,1,.1524,-1.68063,-.221401*
20,1,.1524,-1.68063,-.221401,-1.7,0.0,0.0*
1,1,.1524,-1.7,0.0*
20,1,.1524,-1.7,0.0,-1.68063,.221401,0.0*
1,1,.1524,-1.68063,.221401*
20,1,.1524,-1.68063,.221401,-1.623108,.436076,0.0*
1,1,.1524,-1.623108,.436076*
20,1,.1524,-1.623108,.436076,-1.529182,.6375,0.0*
1,1,.1524,-1.529182,.6375*
20,1,.1524,-1.529182,.6375,-1.401707,.819554,0.0*
1,1,.1524,-1.401707,.819554*
20,1,.1524,-1.401707,.819554,-1.244554,.976707,0.0*
1,1,.1524,-1.244554,.976707*
20,1,.1524,-1.244554,.976707,-1.0625,1.104182,0.0*
1,1,.1524,-1.0625,1.104182*
20,1,.1524,-1.0625,1.104182,-.861076,1.198108,0.0*
1,1,.1524,-.861076,1.198108*
20,1,.1524,-.861076,1.198108,-.646401,1.25563,0.0*
1,1,.1524,-.646401,1.25563*
20,1,.1524,-.646401,1.25563,-.425,1.275,0.0*
1,1,.1524,-.425,1.275*
%
%ADD16MACRO16*%
%AMMACRO12*
1,1,.1524,.45,0.0*
20,1,.1524,.45,0.0,.225,.389711,0.0*
1,1,.1524,.225,.389711*
20,1,.1524,.225,.389711,-.225,.389711,0.0*
1,1,.1524,-.225,.389711*
20,1,.1524,-.225,.389711,-.45,0.0,0.0*
1,1,.1524,-.45,0.0*
20,1,.1524,-.45,0.0,-.225,-.389711,0.0*
1,1,.1524,-.225,-.389711*
20,1,.1524,-.225,-.389711,.225,-.389711,0.0*
1,1,.1524,.225,-.389711*
20,1,.1524,.225,-.389711,.45,0.0,0.0*
1,1,.1524,.45,0.0*
%
%ADD12MACRO12*%
%ADD20C,.1524*%
G75*
%LPD*%
G75*
G54D10*
X330000Y330000D03*
Y9670000D03*
X14020000Y330000D03*
Y9670000D03*
X16341730Y2462500D03*
G54D20*
G01X-1400500Y5044750D02*
Y5235250D01*
X-1428950Y5197150D01*
G01Y5044750D02*
X-1372060D01*
G01X-1210000Y5235250D02*
X-1228970Y5228900D01*
X-1243190Y5213020D01*
X-1252670Y5193980D01*
X-1259780Y5168570D01*
X-1262150Y5140000D01*
X-1259780Y5111420D01*
X-1252670Y5086020D01*
X-1243190Y5066970D01*
X-1228970Y5051100D01*
X-1210000Y5044750D01*
X-1191040Y5051100D01*
X-1176810Y5066970D01*
X-1167330Y5086020D01*
X-1160220Y5111420D01*
X-1157850Y5140000D01*
X-1160220Y5168570D01*
X-1167330Y5193980D01*
X-1176810Y5213020D01*
X-1191040Y5228900D01*
X-1210000Y5235250D01*
G01X-1019500D02*
X-1038470Y5228900D01*
X-1052690Y5213020D01*
X-1062170Y5193980D01*
X-1069280Y5168570D01*
X-1071650Y5140000D01*
X-1069280Y5111420D01*
X-1062170Y5086020D01*
X-1052690Y5066970D01*
X-1038470Y5051100D01*
X-1019500Y5044750D01*
X-1000540Y5051100D01*
X-986310Y5066970D01*
X-976830Y5086020D01*
X-969720Y5111420D01*
X-967350Y5140000D01*
X-969720Y5168570D01*
X-976830Y5193980D01*
X-986310Y5213020D01*
X-1000540Y5228900D01*
X-1019500Y5235250D01*
G01X-1026050Y4436970D02*
X-1009460Y4421100D01*
X-990490Y4414750D01*
X-971530Y4421100D01*
X-954930Y4440140D01*
X-943080Y4468730D01*
X-938340Y4497300D01*
Y4532220D01*
X-943080Y4560800D01*
X-954930Y4586200D01*
X-969160Y4598900D01*
X-985750Y4605250D01*
X-1004720Y4598900D01*
X-1018940Y4586200D01*
X-1028420Y4567150D01*
X-1033160Y4541750D01*
X-1028420Y4519530D01*
X-1016570Y4497300D01*
X-1002340Y4484600D01*
X-985750Y4481420D01*
X-966790Y4487770D01*
X-952560Y4503650D01*
X-938340Y4532220D01*
G01X-840290Y4494120D02*
X-823700Y4516350D01*
X-809470Y4529050D01*
X-790510Y4535400D01*
X-773910Y4529050D01*
X-762060Y4516350D01*
X-752580Y4497300D01*
X-750210Y4475070D01*
X-752580Y4456020D01*
X-762060Y4436970D01*
X-776290Y4421100D01*
X-792880Y4414750D01*
X-811840Y4421100D01*
X-828440Y4440140D01*
X-837920Y4468730D01*
X-840290Y4500470D01*
X-835550Y4541750D01*
X-828440Y4563980D01*
X-816590Y4586200D01*
X-799990Y4602080D01*
X-783400Y4605250D01*
X-766800Y4598900D01*
X-754950Y4583020D01*
G01X-604750Y4408400D02*
X-609490Y4411580D01*
Y4417920D01*
X-604750Y4421100D01*
X-600010Y4417920D01*
Y4411580D01*
X-604750Y4408400D01*
G01X-418990Y4414750D02*
X-414250Y4456020D01*
X-407140Y4490950D01*
X-397660Y4522700D01*
X-385800Y4557620D01*
X-366840Y4605250D01*
X-461660D01*
G01X-592650Y1322850D02*
X-578430Y1300620D01*
X-559470Y1287920D01*
X-538130Y1284750D01*
X-519160Y1287920D01*
X-500200Y1303800D01*
X-488350Y1322850D01*
X-485980Y1341900D01*
X-490720Y1364120D01*
X-507310Y1380000D01*
X-523910Y1386350D01*
X-545240D01*
G01X-523910D02*
X-509680Y1395870D01*
X-497830Y1411750D01*
X-493090Y1430800D01*
X-497830Y1449850D01*
X-509680Y1465720D01*
X-531020Y1475250D01*
X-552350Y1472080D01*
X-573690Y1459370D01*
G01X-350000Y1278400D02*
X-354740Y1281580D01*
Y1287920D01*
X-350000Y1291100D01*
X-345260Y1287920D01*
Y1281580D01*
X-350000Y1278400D01*
G01X-211650Y1322850D02*
X-197430Y1300620D01*
X-178470Y1287920D01*
X-157130Y1284750D01*
X-138160Y1287920D01*
X-119200Y1303800D01*
X-107350Y1322850D01*
X-104980Y1341900D01*
X-109720Y1364120D01*
X-126310Y1380000D01*
X-142910Y1386350D01*
X-164240D01*
G01X-142910D02*
X-128680Y1395870D01*
X-116830Y1411750D01*
X-112090Y1430800D01*
X-116830Y1449850D01*
X-128680Y1465720D01*
X-150020Y1475250D01*
X-171350Y1472080D01*
X-192690Y1459370D01*
G01X1027350Y-407150D02*
X1041570Y-429380D01*
X1060530Y-442080D01*
X1081870Y-445250D01*
X1100840Y-442080D01*
X1119800Y-426200D01*
X1131650Y-407150D01*
X1134020Y-388100D01*
X1129280Y-365880D01*
X1112690Y-350000D01*
X1096090Y-343650D01*
X1074760D01*
G01X1096090D02*
X1110320Y-334130D01*
X1122170Y-318250D01*
X1126910Y-299200D01*
X1122170Y-280150D01*
X1110320Y-264280D01*
X1088980Y-254750D01*
X1067650Y-257920D01*
X1046310Y-270630D01*
G01X1270000Y-451600D02*
X1265260Y-448420D01*
Y-442080D01*
X1270000Y-438900D01*
X1274740Y-442080D01*
Y-448420D01*
X1270000Y-451600D01*
G01X1408350Y-407150D02*
X1422570Y-429380D01*
X1441530Y-442080D01*
X1462870Y-445250D01*
X1481840Y-442080D01*
X1500800Y-426200D01*
X1512650Y-407150D01*
X1515020Y-388100D01*
X1510280Y-365880D01*
X1493690Y-350000D01*
X1477090Y-343650D01*
X1455760D01*
G01X1477090D02*
X1491320Y-334130D01*
X1503170Y-318250D01*
X1507910Y-299200D01*
X1503170Y-280150D01*
X1491320Y-264280D01*
X1469980Y-254750D01*
X1448650Y-257920D01*
X1427310Y-270630D01*
G01X6339000Y-785250D02*
Y-594750D01*
X6310550Y-632850D01*
G01Y-785250D02*
X6367440D01*
G01X6557950D02*
Y-594750D01*
X6470230Y-731270D01*
X6588770D01*
G01X6720000Y-594750D02*
X6701030Y-601100D01*
X6686810Y-616980D01*
X6677330Y-636020D01*
X6670220Y-661430D01*
X6667850Y-690000D01*
X6670220Y-718580D01*
X6677330Y-743980D01*
X6686810Y-763030D01*
X6701030Y-778900D01*
X6720000Y-785250D01*
X6738960Y-778900D01*
X6753190Y-763030D01*
X6762670Y-743980D01*
X6769780Y-718580D01*
X6772150Y-690000D01*
X6769780Y-661430D01*
X6762670Y-636020D01*
X6753190Y-616980D01*
X6738960Y-601100D01*
X6720000Y-594750D01*
G01X6910500Y-791600D02*
X6905760Y-788420D01*
Y-782080D01*
X6910500Y-778900D01*
X6915240Y-782080D01*
Y-788420D01*
X6910500Y-791600D01*
G01X7055960Y-626500D02*
X7070180Y-607450D01*
X7086780Y-597920D01*
X7105740Y-594750D01*
X7129450Y-601100D01*
X7146040Y-616980D01*
X7150780Y-636020D01*
X7148410Y-655080D01*
X7138930Y-670950D01*
X7091520Y-702700D01*
X7070180Y-724930D01*
X7055960Y-756680D01*
X7051220Y-785250D01*
X7150780D01*
G01X6749000Y-1225250D02*
Y-1034750D01*
X6720550Y-1072850D01*
G01Y-1225250D02*
X6777440D01*
G01X6967950D02*
Y-1034750D01*
X6880230Y-1171270D01*
X6998770D01*
G01X7077850Y-1187150D02*
X7092070Y-1209380D01*
X7111030Y-1222080D01*
X7132370Y-1225250D01*
X7151340Y-1222080D01*
X7170300Y-1206200D01*
X7182150Y-1187150D01*
X7184520Y-1168100D01*
X7179780Y-1145880D01*
X7163190Y-1130000D01*
X7146590Y-1123650D01*
X7125260D01*
G01X7146590D02*
X7160820Y-1114130D01*
X7172670Y-1098250D01*
X7177410Y-1079200D01*
X7172670Y-1060150D01*
X7160820Y-1044280D01*
X7139480Y-1034750D01*
X7118150Y-1037920D01*
X7096810Y-1050630D01*
G01X7320500Y-1231600D02*
X7315760Y-1228420D01*
Y-1222080D01*
X7320500Y-1218900D01*
X7325240Y-1222080D01*
Y-1228420D01*
X7320500Y-1231600D01*
G01X7458850Y-1196680D02*
X7473070Y-1212550D01*
X7489660Y-1222080D01*
X7511000Y-1225250D01*
X7532340Y-1218900D01*
X7548930Y-1206200D01*
X7560780Y-1183980D01*
X7563150Y-1158580D01*
X7558410Y-1133180D01*
X7546560Y-1117300D01*
X7529960Y-1104600D01*
X7513370Y-1101430D01*
X7496780Y-1104600D01*
X7475440Y-1117300D01*
X7482550Y-1034750D01*
X7546560D01*
G01X15479520Y6748750D02*
Y7066250D01*
X15629140D01*
G01X15574010Y6912800D02*
X15479520D01*
G01X15822050Y7066250D02*
X15916530D01*
G01X15869290D02*
Y6748750D01*
G01X15822050D02*
X15916530D01*
G01X16207870Y6907500D02*
X16286620D01*
Y6812250D01*
X16262990Y6780490D01*
X16235430Y6759330D01*
X16196060Y6748750D01*
X16156690Y6759330D01*
X16129130Y6780490D01*
X16105510Y6812250D01*
X16089760Y6849290D01*
X16081880Y6891620D01*
Y6928670D01*
X16089760Y6960410D01*
X16105510Y6997460D01*
X16129130Y7029210D01*
X16152750Y7050370D01*
X16184250Y7066250D01*
X16211810D01*
X16243300Y7055670D01*
X16266930Y7034500D01*
G01X16412600Y7066250D02*
Y6838710D01*
X16428340Y6791070D01*
X16459840Y6759330D01*
X16499210Y6748750D01*
X16538580Y6759330D01*
X16570080Y6791070D01*
X16585820Y6838710D01*
Y7066250D01*
G01X16735430Y6748750D02*
Y7066250D01*
X16833850D01*
X16865350Y7050370D01*
X16885040Y7029210D01*
X16892910Y6986870D01*
X16885040Y6944540D01*
X16861410Y6918090D01*
X16833850Y6902200D01*
X16735430D01*
G01X16833850D02*
X16892910Y6748750D01*
G01X17207870D02*
X17050390D01*
Y7066250D01*
X17207870D01*
G01X17144880Y6912800D02*
X17050390D01*
G01X18077940Y6748750D02*
Y7066250D01*
X18227560D01*
G01X18172430Y6912800D02*
X18077940D01*
G01X18420470Y7066250D02*
X18514950D01*
G01X18467710D02*
Y6748750D01*
G01X18420470D02*
X18514950D01*
G01X18692120D02*
Y7066250D01*
X18873220Y6748750D01*
Y7066250D01*
G01X19050390D02*
X19144870D01*
G01X19097630D02*
Y6748750D01*
G01X19050390D02*
X19144870D01*
G01X19329910Y6791070D02*
X19361410Y6764620D01*
X19396840Y6748750D01*
X19428340D01*
X19459830Y6764620D01*
X19483460Y6791070D01*
X19495270Y6828130D01*
X19487400Y6865160D01*
X19467710Y6896910D01*
X19432270Y6918090D01*
X19385030Y6928670D01*
X19357470Y6949830D01*
X19345660Y6986870D01*
X19353540Y7023920D01*
X19373220Y7050370D01*
X19400780Y7066250D01*
X19428340D01*
X19455900Y7055670D01*
X19479520Y7029210D01*
G01X19644870Y6748750D02*
Y7066250D01*
G01X19810230D02*
Y6748750D01*
G01Y6907500D02*
X19644870D01*
G01X20121250Y6748750D02*
X19963770D01*
Y7066250D01*
X20121250D01*
G01X20058260Y6912800D02*
X19963770D01*
G01X20270860Y6748750D02*
Y7066250D01*
X20349590D01*
X20381090Y7050370D01*
X20404710Y7029210D01*
X20424400Y6997460D01*
X20440150Y6960410D01*
X20444080Y6907500D01*
X20440150Y6854580D01*
X20424400Y6817540D01*
X20404710Y6785780D01*
X20381090Y6764620D01*
X20349590Y6748750D01*
X20270860D01*
G01X20554320Y6642920D02*
X20790540D01*
G01X20904710Y6791070D02*
X20936210Y6764620D01*
X20971640Y6748750D01*
X21003140D01*
X21034630Y6764620D01*
X21058260Y6791070D01*
X21070070Y6828130D01*
X21062200Y6865160D01*
X21042510Y6896910D01*
X21007070Y6918090D01*
X20959830Y6928670D01*
X20932270Y6949830D01*
X20920460Y6986870D01*
X20928340Y7023920D01*
X20948020Y7050370D01*
X20975580Y7066250D01*
X21003140D01*
X21030700Y7055670D01*
X21054320Y7029210D01*
G01X21255110Y7066250D02*
X21349590D01*
G01X21302350D02*
Y6748750D01*
G01X21255110D02*
X21349590D01*
G01X21542500Y7066250D02*
X21692120D01*
X21542500Y6748750D01*
X21692120D01*
G01X22011010D02*
X21853530D01*
Y7066250D01*
X22011010D01*
G01X21948020Y6912800D02*
X21853530D01*
G01X18762980Y7383750D02*
X18861410Y7701250D01*
X18959840Y7383750D01*
G01X18924400Y7494870D02*
X18798410D01*
G01X19097630Y7701250D02*
Y7383750D01*
X19255110D01*
G01X19412590Y7701250D02*
Y7383750D01*
X19570070D01*
G01X20034640Y7701250D02*
Y7473710D01*
X20050380Y7426070D01*
X20081880Y7394330D01*
X20121250Y7383750D01*
X20160620Y7394330D01*
X20192120Y7426070D01*
X20207860Y7473710D01*
Y7701250D01*
G01X20345660Y7383750D02*
Y7701250D01*
X20526760Y7383750D01*
Y7701250D01*
G01X20703930D02*
X20798410D01*
G01X20751170D02*
Y7383750D01*
G01X20703930D02*
X20798410D01*
G01X21066130Y7701250D02*
Y7383750D01*
G01X20975580Y7701250D02*
X21156680D01*
G01X21298410Y7426070D02*
X21329910Y7399620D01*
X21365340Y7383750D01*
X21396840D01*
X21428330Y7399620D01*
X21451960Y7426070D01*
X21463770Y7463130D01*
X21455900Y7500160D01*
X21436210Y7531910D01*
X21400770Y7553090D01*
X21353530Y7563670D01*
X21325970Y7584830D01*
X21314160Y7621870D01*
X21322040Y7658920D01*
X21341720Y7685370D01*
X21369280Y7701250D01*
X21396840D01*
X21424400Y7690670D01*
X21448020Y7664210D01*
G01X21912580Y7383750D02*
X22011010Y7701250D01*
X22109440Y7383750D01*
G01X22074000Y7494870D02*
X21948010D01*
G01X22247230Y7383750D02*
Y7701250D01*
X22345650D01*
X22377150Y7685370D01*
X22396840Y7664210D01*
X22404710Y7621870D01*
X22396840Y7579540D01*
X22373210Y7553090D01*
X22345650Y7537200D01*
X22247230D01*
G01X22345650D02*
X22404710Y7383750D01*
G01X22719670D02*
X22562190D01*
Y7701250D01*
X22719670D01*
G01X22656680Y7547800D02*
X22562190D01*
G01X23223610Y7701250D02*
X23318090D01*
G01X23270850D02*
Y7383750D01*
G01X23223610D02*
X23318090D01*
G01X23495260D02*
Y7701250D01*
X23676360Y7383750D01*
Y7701250D01*
G01X24113360Y7383750D02*
Y7701250D01*
X24215730Y7436670D01*
X24318100Y7701250D01*
Y7383750D01*
G01X24483450Y7701250D02*
X24577930D01*
G01X24530690D02*
Y7383750D01*
G01X24483450D02*
X24577930D01*
G01X24766910Y7701250D02*
Y7383750D01*
X24924390D01*
G01X25081870Y7701250D02*
Y7383750D01*
X25239350D01*
G01X25428330Y7701250D02*
X25522810D01*
G01X25475570D02*
Y7383750D01*
G01X25428330D02*
X25522810D01*
G01X25688160D02*
Y7701250D01*
X25790530Y7436670D01*
X25892900Y7701250D01*
Y7383750D01*
G01X26184230D02*
X26026750D01*
Y7701250D01*
X26184230D01*
G01X26121240Y7547800D02*
X26026750D01*
G01X26420450Y7701250D02*
Y7383750D01*
G01X26329900Y7701250D02*
X26511000D01*
G01X26814150Y7383750D02*
X26656670D01*
Y7701250D01*
X26814150D01*
G01X26751160Y7547800D02*
X26656670D01*
G01X26971630Y7383750D02*
Y7701250D01*
X27070050D01*
X27101550Y7685370D01*
X27121240Y7664210D01*
X27129110Y7621870D01*
X27121240Y7579540D01*
X27097610Y7553090D01*
X27070050Y7537200D01*
X26971630D01*
G01X27070050D02*
X27129110Y7383750D01*
G01X27282650Y7426070D02*
X27314150Y7399620D01*
X27349580Y7383750D01*
X27381080D01*
X27412570Y7399620D01*
X27436200Y7426070D01*
X27448010Y7463130D01*
X27440140Y7500160D01*
X27420450Y7531910D01*
X27385010Y7553090D01*
X27337770Y7563670D01*
X27310210Y7584830D01*
X27298400Y7621870D01*
X27306280Y7658920D01*
X27325960Y7685370D01*
X27353520Y7701250D01*
X27381080D01*
X27408640Y7690670D01*
X27432260Y7664210D01*
G01X19011020Y462250D02*
X19034630Y425200D01*
X19066130Y404040D01*
X19101570Y398750D01*
X19133070Y404040D01*
X19164560Y430490D01*
X19184240Y462250D01*
X19188180Y494000D01*
X19180310Y531030D01*
X19152750Y557500D01*
X19125190Y568090D01*
X19089750D01*
G01X19125190D02*
X19148810Y583960D01*
X19168500Y610410D01*
X19176370Y642160D01*
X19168500Y673920D01*
X19148810Y700370D01*
X19113380Y716250D01*
X19077950Y710960D01*
X19042510Y689790D01*
G01X19412590Y388170D02*
X19404710Y393460D01*
Y404040D01*
X19412590Y409330D01*
X19420470Y404040D01*
Y393460D01*
X19412590Y388170D01*
G01X19727550Y716250D02*
X19696050Y705670D01*
X19672430Y679210D01*
X19656680Y647460D01*
X19644870Y605120D01*
X19640940Y557500D01*
X19644870Y509870D01*
X19656680Y467540D01*
X19672430Y435780D01*
X19696050Y409330D01*
X19727550Y398750D01*
X19759040Y409330D01*
X19782670Y435780D01*
X19798420Y467540D01*
X19810230Y509870D01*
X19814160Y557500D01*
X19810230Y605120D01*
X19798420Y647460D01*
X19782670Y679210D01*
X19759040Y705670D01*
X19727550Y716250D01*
G01X19983460Y610410D02*
X20101560Y398750D01*
G01Y610410D02*
X19983460Y398750D01*
G01X20357470D02*
Y716250D01*
X20310230Y652750D01*
G01Y398750D02*
X20404710D01*
G01X20672430Y388170D02*
X20664550Y393460D01*
Y404040D01*
X20672430Y409330D01*
X20680310Y404040D01*
Y393460D01*
X20672430Y388170D01*
G01X20987390Y716250D02*
X20955890Y705670D01*
X20932270Y679210D01*
X20916520Y647460D01*
X20904710Y605120D01*
X20900780Y557500D01*
X20904710Y509870D01*
X20916520Y467540D01*
X20932270Y435780D01*
X20955890Y409330D01*
X20987390Y398750D01*
X21018880Y409330D01*
X21042510Y435780D01*
X21058260Y467540D01*
X21070070Y509870D01*
X21074000Y557500D01*
X21070070Y605120D01*
X21058260Y647460D01*
X21042510Y679210D01*
X21018880Y705670D01*
X20987390Y716250D01*
G01X19011020Y1097250D02*
X19034630Y1060200D01*
X19066130Y1039040D01*
X19101570Y1033750D01*
X19133070Y1039040D01*
X19164560Y1065490D01*
X19184240Y1097250D01*
X19188180Y1129000D01*
X19180310Y1166030D01*
X19152750Y1192500D01*
X19125190Y1203090D01*
X19089750D01*
G01X19125190D02*
X19148810Y1218960D01*
X19168500Y1245410D01*
X19176370Y1277160D01*
X19168500Y1308920D01*
X19148810Y1335370D01*
X19113380Y1351250D01*
X19077950Y1345960D01*
X19042510Y1324790D01*
G01X19412590Y1023170D02*
X19404710Y1028460D01*
Y1039040D01*
X19412590Y1044330D01*
X19420470Y1039040D01*
Y1028460D01*
X19412590Y1023170D01*
G01X19727550Y1351250D02*
X19696050Y1340670D01*
X19672430Y1314210D01*
X19656680Y1282460D01*
X19644870Y1240120D01*
X19640940Y1192500D01*
X19644870Y1144870D01*
X19656680Y1102540D01*
X19672430Y1070780D01*
X19696050Y1044330D01*
X19727550Y1033750D01*
X19759040Y1044330D01*
X19782670Y1070780D01*
X19798420Y1102540D01*
X19810230Y1144870D01*
X19814160Y1192500D01*
X19810230Y1240120D01*
X19798420Y1282460D01*
X19782670Y1314210D01*
X19759040Y1340670D01*
X19727550Y1351250D01*
G01X19983460Y1245410D02*
X20101560Y1033750D01*
G01Y1245410D02*
X19983460Y1033750D01*
G01X20357470D02*
Y1351250D01*
X20310230Y1287750D01*
G01Y1033750D02*
X20404710D01*
G01X20672430Y1023170D02*
X20664550Y1028460D01*
Y1039040D01*
X20672430Y1044330D01*
X20680310Y1039040D01*
Y1028460D01*
X20672430Y1023170D01*
G01X20987390Y1351250D02*
X20955890Y1340670D01*
X20932270Y1314210D01*
X20916520Y1282460D01*
X20904710Y1240120D01*
X20900780Y1192500D01*
X20904710Y1144870D01*
X20916520Y1102540D01*
X20932270Y1070780D01*
X20955890Y1044330D01*
X20987390Y1033750D01*
X21018880Y1044330D01*
X21042510Y1070780D01*
X21058260Y1102540D01*
X21070070Y1144870D01*
X21074000Y1192500D01*
X21070070Y1240120D01*
X21058260Y1282460D01*
X21042510Y1314210D01*
X21018880Y1340670D01*
X20987390Y1351250D01*
G01X19255110Y6431250D02*
X19223610Y6420670D01*
X19199990Y6394210D01*
X19184240Y6362460D01*
X19172430Y6320120D01*
X19168500Y6272500D01*
X19172430Y6224870D01*
X19184240Y6182540D01*
X19199990Y6150780D01*
X19223610Y6124330D01*
X19255110Y6113750D01*
X19286600Y6124330D01*
X19310230Y6150780D01*
X19325980Y6182540D01*
X19337790Y6224870D01*
X19341720Y6272500D01*
X19337790Y6320120D01*
X19325980Y6362460D01*
X19310230Y6394210D01*
X19286600Y6420670D01*
X19255110Y6431250D01*
G01X19570070Y6103170D02*
X19562190Y6108460D01*
Y6119040D01*
X19570070Y6124330D01*
X19577950Y6119040D01*
Y6108460D01*
X19570070Y6103170D01*
G01X19798420Y6177250D02*
X19822030Y6140200D01*
X19853530Y6119040D01*
X19888970Y6113750D01*
X19920470Y6119040D01*
X19951960Y6145490D01*
X19971640Y6177250D01*
X19975580Y6209000D01*
X19967710Y6246030D01*
X19940150Y6272500D01*
X19912590Y6283090D01*
X19877150D01*
G01X19912590D02*
X19936210Y6298960D01*
X19955900Y6325410D01*
X19963770Y6357160D01*
X19955900Y6388920D01*
X19936210Y6415370D01*
X19900780Y6431250D01*
X19865350Y6425960D01*
X19829910Y6404790D01*
G01X20199990Y6431250D02*
X20168490Y6420670D01*
X20144870Y6394210D01*
X20129120Y6362460D01*
X20117310Y6320120D01*
X20113380Y6272500D01*
X20117310Y6224870D01*
X20129120Y6182540D01*
X20144870Y6150780D01*
X20168490Y6124330D01*
X20199990Y6113750D01*
X20231480Y6124330D01*
X20255110Y6150780D01*
X20270860Y6182540D01*
X20282670Y6224870D01*
X20286600Y6272500D01*
X20282670Y6320120D01*
X20270860Y6362460D01*
X20255110Y6394210D01*
X20231480Y6420670D01*
X20199990Y6431250D01*
G01X20562190Y6113750D02*
Y6431250D01*
X20416520Y6203710D01*
X20613380D01*
G01X20829910Y6113750D02*
X20857470Y6119040D01*
X20888960Y6134910D01*
X20908650Y6161360D01*
X20916520Y6198420D01*
X20908650Y6235450D01*
X20885030Y6267200D01*
X20849590Y6283090D01*
X20810230D01*
X20786600Y6293670D01*
X20766910Y6320120D01*
X20759040Y6357160D01*
X20770860Y6394210D01*
X20798410Y6420670D01*
X20829910Y6431250D01*
X20861400Y6420670D01*
X20888960Y6394210D01*
X20900780Y6357160D01*
X20892900Y6320120D01*
X20873220Y6293670D01*
X20849590Y6283090D01*
X20810230D01*
X20774790Y6267200D01*
X20751170Y6235450D01*
X20743300Y6198420D01*
X20751170Y6161360D01*
X20770860Y6134910D01*
X20802350Y6119040D01*
X20829910Y6113750D01*
G01X19089760Y8033750D02*
Y8351250D01*
X19168490D01*
X19199990Y8335370D01*
X19223610Y8314210D01*
X19243300Y8282460D01*
X19259050Y8245410D01*
X19262980Y8192500D01*
X19259050Y8139580D01*
X19243300Y8102540D01*
X19223610Y8070780D01*
X19199990Y8049620D01*
X19168490Y8033750D01*
X19089760D01*
G01X19412590D02*
Y8351250D01*
X19511010D01*
X19542510Y8335370D01*
X19562200Y8314210D01*
X19570070Y8271870D01*
X19562200Y8229540D01*
X19538570Y8203090D01*
X19511010Y8187200D01*
X19412590D01*
G01X19511010D02*
X19570070Y8033750D01*
G01X19759050Y8351250D02*
X19853530D01*
G01X19806290D02*
Y8033750D01*
G01X19759050D02*
X19853530D01*
G01X20042510Y8351250D02*
Y8033750D01*
X20199990D01*
G01X20357470Y8351250D02*
Y8033750D01*
X20514950D01*
G01X21152740Y8324790D02*
X21129120Y8340670D01*
X21101570Y8351250D01*
X21070070D01*
X21034630Y8335370D01*
X21007080Y8308920D01*
X20987390Y8277160D01*
X20971640Y8224250D01*
X20967700Y8176620D01*
X20975580Y8129000D01*
X20987390Y8097250D01*
X21011010Y8065490D01*
X21038570Y8044330D01*
X21066130Y8033750D01*
X21093690D01*
X21121250Y8044330D01*
X21144870Y8060200D01*
X21164560Y8081360D01*
G01X21298410Y8033750D02*
Y8351250D01*
G01X21463770D02*
Y8033750D01*
G01Y8192500D02*
X21298410D01*
G01X21597620Y8033750D02*
X21696050Y8351250D01*
X21794480Y8033750D01*
G01X21759040Y8144870D02*
X21633050D01*
G01X21932270Y8033750D02*
Y8351250D01*
X22030690D01*
X22062190Y8335370D01*
X22081880Y8314210D01*
X22089750Y8271870D01*
X22081880Y8229540D01*
X22058250Y8203090D01*
X22030690Y8187200D01*
X21932270D01*
G01X22030690D02*
X22089750Y8033750D01*
G01X22325970Y8351250D02*
Y8033750D01*
G01X22235420Y8351250D02*
X22416520D01*
G01X22640930Y8023170D02*
X22633050Y8028460D01*
Y8039040D01*
X22640930Y8044330D01*
X22648810Y8039040D01*
Y8028460D01*
X22640930Y8023170D01*
G01Y8166030D02*
X22633050Y8171330D01*
Y8181910D01*
X22640930Y8187200D01*
X22648810Y8181910D01*
Y8171330D01*
X22640930Y8166030D01*
G01X23270850Y8351250D02*
Y8033750D01*
G01X23180300Y8351250D02*
X23361400D01*
G01X23585810Y8033750D02*
X23554310Y8039040D01*
X23526760Y8060200D01*
X23503130Y8091960D01*
X23487380Y8129000D01*
X23479510Y8171330D01*
Y8213670D01*
X23487380Y8256000D01*
X23503130Y8293040D01*
X23526760Y8324790D01*
X23554310Y8345960D01*
X23585810Y8351250D01*
X23617300Y8345960D01*
X23644860Y8324790D01*
X23668490Y8293040D01*
X23684240Y8256000D01*
X23692110Y8213670D01*
Y8171330D01*
X23684240Y8129000D01*
X23668490Y8091960D01*
X23644860Y8060200D01*
X23617300Y8039040D01*
X23585810Y8033750D01*
G01X23822030D02*
Y8351250D01*
X23916520D01*
X23948010Y8335370D01*
X23971640Y8298330D01*
X23979510Y8256000D01*
X23971640Y8213670D01*
X23951950Y8181910D01*
X23916520Y8166030D01*
X23822030D01*
G01X24530690Y8351250D02*
Y8033750D01*
G01X24475570Y8245410D02*
X24585810D01*
G01X24845650Y8033750D02*
X24822030Y8039040D01*
X24798410Y8060200D01*
X24782650Y8097250D01*
X24774780Y8139580D01*
X24782650Y8181910D01*
X24798410Y8218960D01*
X24822030Y8240120D01*
X24845650Y8245410D01*
X24869270Y8240120D01*
X24892890Y8218960D01*
X24908640Y8181910D01*
X24912580Y8139580D01*
X24908640Y8097250D01*
X24892890Y8060200D01*
X24869270Y8039040D01*
X24845650Y8033750D01*
G01X25507060Y8203090D02*
X25522810Y8218960D01*
X25534620Y8245410D01*
X25542500Y8282460D01*
X25534620Y8314210D01*
X25518880Y8335370D01*
X25491320Y8351250D01*
X25385020D01*
Y8033750D01*
X25514940D01*
X25542500Y8054910D01*
X25558250Y8086670D01*
X25566120Y8123710D01*
X25558250Y8160740D01*
X25534620Y8192500D01*
X25507060Y8203090D01*
X25385020D01*
G01X25790530Y8033750D02*
X25759030Y8039040D01*
X25731480Y8060200D01*
X25707850Y8091960D01*
X25692100Y8129000D01*
X25684230Y8171330D01*
Y8213670D01*
X25692100Y8256000D01*
X25707850Y8293040D01*
X25731480Y8324790D01*
X25759030Y8345960D01*
X25790530Y8351250D01*
X25822020Y8345960D01*
X25849580Y8324790D01*
X25873210Y8293040D01*
X25888960Y8256000D01*
X25896830Y8213670D01*
Y8171330D01*
X25888960Y8129000D01*
X25873210Y8091960D01*
X25849580Y8060200D01*
X25822020Y8039040D01*
X25790530Y8033750D01*
G01X26105490Y8351250D02*
Y8033750D01*
G01X26014940Y8351250D02*
X26196040D01*
G01X26420450D02*
Y8033750D01*
G01X26329900Y8351250D02*
X26511000D01*
G01X26735410Y8033750D02*
X26703910Y8039040D01*
X26676360Y8060200D01*
X26652730Y8091960D01*
X26636980Y8129000D01*
X26629110Y8171330D01*
Y8213670D01*
X26636980Y8256000D01*
X26652730Y8293040D01*
X26676360Y8324790D01*
X26703910Y8345960D01*
X26735410Y8351250D01*
X26766900Y8345960D01*
X26794460Y8324790D01*
X26818090Y8293040D01*
X26833840Y8256000D01*
X26841710Y8213670D01*
Y8171330D01*
X26833840Y8129000D01*
X26818090Y8091960D01*
X26794460Y8060200D01*
X26766900Y8039040D01*
X26735410Y8033750D01*
G01X26948000D02*
Y8351250D01*
X27050370Y8086670D01*
X27152740Y8351250D01*
Y8033750D01*
G01X19640940Y1732250D02*
X19664550Y1695200D01*
X19696050Y1674040D01*
X19731490Y1668750D01*
X19762990Y1674040D01*
X19794480Y1700490D01*
X19814160Y1732250D01*
X19818100Y1764000D01*
X19810230Y1801030D01*
X19782670Y1827500D01*
X19755110Y1838090D01*
X19719670D01*
G01X19755110D02*
X19778730Y1853960D01*
X19798420Y1880410D01*
X19806290Y1912160D01*
X19798420Y1943920D01*
X19778730Y1970370D01*
X19743300Y1986250D01*
X19707870Y1980960D01*
X19672430Y1959790D01*
G01X20042510Y1658170D02*
X20034630Y1663460D01*
Y1674040D01*
X20042510Y1679330D01*
X20050390Y1674040D01*
Y1663460D01*
X20042510Y1658170D01*
G01X20404710Y1668750D02*
Y1986250D01*
X20259040Y1758710D01*
X20455900D01*
G01X19640940Y2367250D02*
X19664550Y2330200D01*
X19696050Y2309040D01*
X19731490Y2303750D01*
X19762990Y2309040D01*
X19794480Y2335490D01*
X19814160Y2367250D01*
X19818100Y2399000D01*
X19810230Y2436030D01*
X19782670Y2462500D01*
X19755110Y2473090D01*
X19719670D01*
G01X19755110D02*
X19778730Y2488960D01*
X19798420Y2515410D01*
X19806290Y2547160D01*
X19798420Y2578920D01*
X19778730Y2605370D01*
X19743300Y2621250D01*
X19707870Y2615960D01*
X19672430Y2594790D01*
G01X20042510Y2293170D02*
X20034630Y2298460D01*
Y2309040D01*
X20042510Y2314330D01*
X20050390Y2309040D01*
Y2298460D01*
X20042510Y2293170D01*
G01X20357470Y2303750D02*
Y2621250D01*
X20310230Y2557750D01*
G01Y2303750D02*
X20404710D01*
G01X19652740Y3203330D02*
X19676370Y3235080D01*
X19703930Y3250960D01*
X19735430Y3256250D01*
X19774790Y3245670D01*
X19802360Y3219210D01*
X19810230Y3187460D01*
X19806290Y3155700D01*
X19790540Y3129250D01*
X19711800Y3076330D01*
X19676370Y3039290D01*
X19652740Y2986360D01*
X19644870Y2938750D01*
X19810230D01*
G01X20042510Y2928170D02*
X20034630Y2933460D01*
Y2944040D01*
X20042510Y2949330D01*
X20050390Y2944040D01*
Y2933460D01*
X20042510Y2928170D01*
G01X20270860Y3002250D02*
X20294470Y2965200D01*
X20325970Y2944040D01*
X20361410Y2938750D01*
X20392910Y2944040D01*
X20424400Y2970490D01*
X20444080Y3002250D01*
X20448020Y3034000D01*
X20440150Y3071030D01*
X20412590Y3097500D01*
X20385030Y3108090D01*
X20349590D01*
G01X20385030D02*
X20408650Y3123960D01*
X20428340Y3150410D01*
X20436210Y3182160D01*
X20428340Y3213920D01*
X20408650Y3240370D01*
X20373220Y3256250D01*
X20337790Y3250960D01*
X20302350Y3229790D01*
G01X19727550Y3573750D02*
Y3891250D01*
X19680310Y3827750D01*
G01Y3573750D02*
X19774790D01*
G01X20042510Y3563170D02*
X20034630Y3568460D01*
Y3579040D01*
X20042510Y3584330D01*
X20050390Y3579040D01*
Y3568460D01*
X20042510Y3563170D01*
G01X20357470Y3573750D02*
X20385030Y3579040D01*
X20416520Y3594910D01*
X20436210Y3621360D01*
X20444080Y3658420D01*
X20436210Y3695450D01*
X20412590Y3727200D01*
X20377150Y3743090D01*
X20337790D01*
X20314160Y3753670D01*
X20294470Y3780120D01*
X20286600Y3817160D01*
X20298420Y3854210D01*
X20325970Y3880670D01*
X20357470Y3891250D01*
X20388960Y3880670D01*
X20416520Y3854210D01*
X20428340Y3817160D01*
X20420460Y3780120D01*
X20400780Y3753670D01*
X20377150Y3743090D01*
X20337790D01*
X20302350Y3727200D01*
X20278730Y3695450D01*
X20270860Y3658420D01*
X20278730Y3621360D01*
X20298420Y3594910D01*
X20329910Y3579040D01*
X20357470Y3573750D01*
G01X19727550Y4208750D02*
Y4526250D01*
X19680310Y4462750D01*
G01Y4208750D02*
X19774790D01*
G01X20042510Y4198170D02*
X20034630Y4203460D01*
Y4214040D01*
X20042510Y4219330D01*
X20050390Y4214040D01*
Y4203460D01*
X20042510Y4198170D01*
G01X20357470Y4526250D02*
X20325970Y4515670D01*
X20302350Y4489210D01*
X20286600Y4457460D01*
X20274790Y4415120D01*
X20270860Y4367500D01*
X20274790Y4319870D01*
X20286600Y4277540D01*
X20302350Y4245780D01*
X20325970Y4219330D01*
X20357470Y4208750D01*
X20388960Y4219330D01*
X20412590Y4245780D01*
X20428340Y4277540D01*
X20440150Y4319870D01*
X20444080Y4367500D01*
X20440150Y4415120D01*
X20428340Y4457460D01*
X20412590Y4489210D01*
X20388960Y4515670D01*
X20357470Y4526250D01*
G01X19727550Y5161250D02*
X19696050Y5150670D01*
X19672430Y5124210D01*
X19656680Y5092460D01*
X19644870Y5050120D01*
X19640940Y5002500D01*
X19644870Y4954870D01*
X19656680Y4912540D01*
X19672430Y4880780D01*
X19696050Y4854330D01*
X19727550Y4843750D01*
X19759040Y4854330D01*
X19782670Y4880780D01*
X19798420Y4912540D01*
X19810230Y4954870D01*
X19814160Y5002500D01*
X19810230Y5050120D01*
X19798420Y5092460D01*
X19782670Y5124210D01*
X19759040Y5150670D01*
X19727550Y5161250D01*
G01X20042510Y4833170D02*
X20034630Y4838460D01*
Y4849040D01*
X20042510Y4854330D01*
X20050390Y4849040D01*
Y4838460D01*
X20042510Y4833170D01*
G01X20290540Y4880780D02*
X20318100Y4854330D01*
X20349590Y4843750D01*
X20381090Y4854330D01*
X20408650Y4886070D01*
X20428340Y4933710D01*
X20436210Y4981330D01*
Y5039540D01*
X20428340Y5087160D01*
X20408650Y5129500D01*
X20385030Y5150670D01*
X20357470Y5161250D01*
X20325970Y5150670D01*
X20302350Y5129500D01*
X20286600Y5097750D01*
X20278730Y5055410D01*
X20286600Y5018380D01*
X20306290Y4981330D01*
X20329910Y4960160D01*
X20357470Y4954870D01*
X20388960Y4965450D01*
X20412590Y4991910D01*
X20436210Y5039540D01*
G01X19727550Y5796250D02*
X19696050Y5785670D01*
X19672430Y5759210D01*
X19656680Y5727460D01*
X19644870Y5685120D01*
X19640940Y5637500D01*
X19644870Y5589870D01*
X19656680Y5547540D01*
X19672430Y5515780D01*
X19696050Y5489330D01*
X19727550Y5478750D01*
X19759040Y5489330D01*
X19782670Y5515780D01*
X19798420Y5547540D01*
X19810230Y5589870D01*
X19814160Y5637500D01*
X19810230Y5685120D01*
X19798420Y5727460D01*
X19782670Y5759210D01*
X19759040Y5785670D01*
X19727550Y5796250D01*
G01X20042510Y5468170D02*
X20034630Y5473460D01*
Y5484040D01*
X20042510Y5489330D01*
X20050390Y5484040D01*
Y5473460D01*
X20042510Y5468170D01*
G01X20357470Y5478750D02*
X20385030Y5484040D01*
X20416520Y5499910D01*
X20436210Y5526360D01*
X20444080Y5563420D01*
X20436210Y5600450D01*
X20412590Y5632200D01*
X20377150Y5648090D01*
X20337790D01*
X20314160Y5658670D01*
X20294470Y5685120D01*
X20286600Y5722160D01*
X20298420Y5759210D01*
X20325970Y5785670D01*
X20357470Y5796250D01*
X20388960Y5785670D01*
X20416520Y5759210D01*
X20428340Y5722160D01*
X20420460Y5685120D01*
X20400780Y5658670D01*
X20377150Y5648090D01*
X20337790D01*
X20302350Y5632200D01*
X20278730Y5600450D01*
X20270860Y5563420D01*
X20278730Y5526360D01*
X20298420Y5499910D01*
X20329910Y5484040D01*
X20357470Y5478750D01*
G01X23034630Y6748750D02*
Y7066250D01*
X23133050D01*
X23164550Y7050370D01*
X23184240Y7029210D01*
X23192110Y6986870D01*
X23184240Y6944540D01*
X23160610Y6918090D01*
X23133050Y6902200D01*
X23034630D01*
G01X23133050D02*
X23192110Y6748750D01*
G01X23428330D02*
X23396830Y6754040D01*
X23369280Y6775200D01*
X23345650Y6806960D01*
X23329900Y6844000D01*
X23322030Y6886330D01*
Y6928670D01*
X23329900Y6971000D01*
X23345650Y7008040D01*
X23369280Y7039790D01*
X23396830Y7060960D01*
X23428330Y7066250D01*
X23459820Y7060960D01*
X23487380Y7039790D01*
X23511010Y7008040D01*
X23526760Y6971000D01*
X23534630Y6928670D01*
Y6886330D01*
X23526760Y6844000D01*
X23511010Y6806960D01*
X23487380Y6775200D01*
X23459820Y6754040D01*
X23428330Y6748750D01*
G01X23743290Y7066250D02*
Y6748750D01*
G01X23652740Y7066250D02*
X23833840D01*
G01X23959820Y6748750D02*
X24058250Y7066250D01*
X24156680Y6748750D01*
G01X24121240Y6859870D02*
X23995250D01*
G01X24373210Y7066250D02*
Y6748750D01*
G01X24282660Y7066250D02*
X24463760D01*
G01X24640930D02*
X24735410D01*
G01X24688170D02*
Y6748750D01*
G01X24640930D02*
X24735410D01*
G01X25003130D02*
X24971630Y6754040D01*
X24944080Y6775200D01*
X24920450Y6806960D01*
X24904700Y6844000D01*
X24896830Y6886330D01*
Y6928670D01*
X24904700Y6971000D01*
X24920450Y7008040D01*
X24944080Y7039790D01*
X24971630Y7060960D01*
X25003130Y7066250D01*
X25034620Y7060960D01*
X25062180Y7039790D01*
X25085810Y7008040D01*
X25101560Y6971000D01*
X25109430Y6928670D01*
Y6886330D01*
X25101560Y6844000D01*
X25085810Y6806960D01*
X25062180Y6775200D01*
X25034620Y6754040D01*
X25003130Y6748750D01*
G01X25227540D02*
Y7066250D01*
X25408640Y6748750D01*
Y7066250D01*
G01X23585810Y716250D02*
X23554310Y705670D01*
X23530690Y679210D01*
X23514940Y647460D01*
X23503130Y605120D01*
X23499200Y557500D01*
X23503130Y509870D01*
X23514940Y467540D01*
X23530690Y435780D01*
X23554310Y409330D01*
X23585810Y398750D01*
X23617300Y409330D01*
X23640930Y435780D01*
X23656680Y467540D01*
X23668490Y509870D01*
X23672420Y557500D01*
X23668490Y605120D01*
X23656680Y647460D01*
X23640930Y679210D01*
X23617300Y705670D01*
X23585810Y716250D01*
G01X23900770Y388170D02*
X23892890Y393460D01*
Y404040D01*
X23900770Y409330D01*
X23908650Y404040D01*
Y393460D01*
X23900770Y388170D01*
G01X24215730Y716250D02*
X24184230Y705670D01*
X24160610Y679210D01*
X24144860Y647460D01*
X24133050Y605120D01*
X24129120Y557500D01*
X24133050Y509870D01*
X24144860Y467540D01*
X24160610Y435780D01*
X24184230Y409330D01*
X24215730Y398750D01*
X24247220Y409330D01*
X24270850Y435780D01*
X24286600Y467540D01*
X24298410Y509870D01*
X24302340Y557500D01*
X24298410Y605120D01*
X24286600Y647460D01*
X24270850Y679210D01*
X24247220Y705670D01*
X24215730Y716250D01*
G01X24530690D02*
X24499190Y705670D01*
X24475570Y679210D01*
X24459820Y647460D01*
X24448010Y605120D01*
X24444080Y557500D01*
X24448010Y509870D01*
X24459820Y467540D01*
X24475570Y435780D01*
X24499190Y409330D01*
X24530690Y398750D01*
X24562180Y409330D01*
X24585810Y435780D01*
X24601560Y467540D01*
X24613370Y509870D01*
X24617300Y557500D01*
X24613370Y605120D01*
X24601560Y647460D01*
X24585810Y679210D01*
X24562180Y705670D01*
X24530690Y716250D01*
G01X24845650D02*
X24814150Y705670D01*
X24790530Y679210D01*
X24774780Y647460D01*
X24762970Y605120D01*
X24759040Y557500D01*
X24762970Y509870D01*
X24774780Y467540D01*
X24790530Y435780D01*
X24814150Y409330D01*
X24845650Y398750D01*
X24877140Y409330D01*
X24900770Y435780D01*
X24916520Y467540D01*
X24928330Y509870D01*
X24932260Y557500D01*
X24928330Y605120D01*
X24916520Y647460D01*
X24900770Y679210D01*
X24877140Y705670D01*
X24845650Y716250D01*
G01X23361400Y1070780D02*
X23388960Y1044330D01*
X23420450Y1033750D01*
X23451950Y1044330D01*
X23479510Y1076070D01*
X23499200Y1123710D01*
X23507070Y1171330D01*
Y1229540D01*
X23499200Y1277160D01*
X23479510Y1319500D01*
X23455890Y1340670D01*
X23428330Y1351250D01*
X23396830Y1340670D01*
X23373210Y1319500D01*
X23357460Y1287750D01*
X23349590Y1245410D01*
X23357460Y1208380D01*
X23377150Y1171330D01*
X23400770Y1150160D01*
X23428330Y1144870D01*
X23459820Y1155450D01*
X23483450Y1181910D01*
X23507070Y1229540D01*
G01X23743290Y1351250D02*
X23711790Y1340670D01*
X23688170Y1314210D01*
X23672420Y1282460D01*
X23660610Y1240120D01*
X23656680Y1192500D01*
X23660610Y1144870D01*
X23672420Y1102540D01*
X23688170Y1070780D01*
X23711790Y1044330D01*
X23743290Y1033750D01*
X23774780Y1044330D01*
X23798410Y1070780D01*
X23814160Y1102540D01*
X23825970Y1144870D01*
X23829900Y1192500D01*
X23825970Y1240120D01*
X23814160Y1282460D01*
X23798410Y1314210D01*
X23774780Y1340670D01*
X23743290Y1351250D01*
G01X24058250Y1023170D02*
X24050370Y1028460D01*
Y1039040D01*
X24058250Y1044330D01*
X24066130Y1039040D01*
Y1028460D01*
X24058250Y1023170D01*
G01X24373210Y1351250D02*
X24341710Y1340670D01*
X24318090Y1314210D01*
X24302340Y1282460D01*
X24290530Y1240120D01*
X24286600Y1192500D01*
X24290530Y1144870D01*
X24302340Y1102540D01*
X24318090Y1070780D01*
X24341710Y1044330D01*
X24373210Y1033750D01*
X24404700Y1044330D01*
X24428330Y1070780D01*
X24444080Y1102540D01*
X24455890Y1144870D01*
X24459820Y1192500D01*
X24455890Y1240120D01*
X24444080Y1282460D01*
X24428330Y1314210D01*
X24404700Y1340670D01*
X24373210Y1351250D01*
G01X24688170D02*
X24656670Y1340670D01*
X24633050Y1314210D01*
X24617300Y1282460D01*
X24605490Y1240120D01*
X24601560Y1192500D01*
X24605490Y1144870D01*
X24617300Y1102540D01*
X24633050Y1070780D01*
X24656670Y1044330D01*
X24688170Y1033750D01*
X24719660Y1044330D01*
X24743290Y1070780D01*
X24759040Y1102540D01*
X24770850Y1144870D01*
X24774780Y1192500D01*
X24770850Y1240120D01*
X24759040Y1282460D01*
X24743290Y1314210D01*
X24719660Y1340670D01*
X24688170Y1351250D01*
G01X25003130D02*
X24971630Y1340670D01*
X24948010Y1314210D01*
X24932260Y1282460D01*
X24920450Y1240120D01*
X24916520Y1192500D01*
X24920450Y1144870D01*
X24932260Y1102540D01*
X24948010Y1070780D01*
X24971630Y1044330D01*
X25003130Y1033750D01*
X25034620Y1044330D01*
X25058250Y1070780D01*
X25074000Y1102540D01*
X25085810Y1144870D01*
X25089740Y1192500D01*
X25085810Y1240120D01*
X25074000Y1282460D01*
X25058250Y1314210D01*
X25034620Y1340670D01*
X25003130Y1351250D01*
G01X24164550Y1774580D02*
X24266910D01*
G01X24164550Y2409580D02*
X24266910D01*
G01X24164550Y3044580D02*
X24266910D01*
G01X24164550Y3679580D02*
X24266910D01*
G01X24164550Y4314580D02*
X24266910D01*
G01X24164550Y4949580D02*
X24266910D01*
G01X24164550Y5584580D02*
X24266910D01*
G01X24164550Y6219580D02*
X24266910D01*
G01X25158070Y81250D02*
Y-236250D01*
G01X25067520Y81250D02*
X25248620D01*
G01X25473030Y-236250D02*
X25441530Y-230960D01*
X25413980Y-209800D01*
X25390350Y-178040D01*
X25374600Y-141000D01*
X25366730Y-98670D01*
Y-56330D01*
X25374600Y-14000D01*
X25390350Y23040D01*
X25413980Y54790D01*
X25441530Y75960D01*
X25473030Y81250D01*
X25504520Y75960D01*
X25532080Y54790D01*
X25555710Y23040D01*
X25571460Y-14000D01*
X25579330Y-56330D01*
Y-98670D01*
X25571460Y-141000D01*
X25555710Y-178040D01*
X25532080Y-209800D01*
X25504520Y-230960D01*
X25473030Y-236250D01*
G01X25787990Y81250D02*
Y-236250D01*
G01X25697440Y81250D02*
X25878540D01*
G01X26004520Y-236250D02*
X26102950Y81250D01*
X26201380Y-236250D01*
G01X26165940Y-125130D02*
X26039950D01*
G01X26339170Y81250D02*
Y-236250D01*
X26496650D01*
G01X26965150D02*
Y81250D01*
G01X27130510D02*
Y-236250D01*
G01Y-77500D02*
X26965150D01*
G01X27362790Y-236250D02*
X27331290Y-230960D01*
X27303740Y-209800D01*
X27280110Y-178040D01*
X27264360Y-141000D01*
X27256490Y-98670D01*
Y-56330D01*
X27264360Y-14000D01*
X27280110Y23040D01*
X27303740Y54790D01*
X27331290Y75960D01*
X27362790Y81250D01*
X27394280Y75960D01*
X27421840Y54790D01*
X27445470Y23040D01*
X27461220Y-14000D01*
X27469090Y-56330D01*
Y-98670D01*
X27461220Y-141000D01*
X27445470Y-178040D01*
X27421840Y-209800D01*
X27394280Y-230960D01*
X27362790Y-236250D01*
G01X27599010Y81250D02*
Y-236250D01*
X27756490D01*
G01X28071450D02*
X27913970D01*
Y81250D01*
X28071450D01*
G01X28008460Y-72200D02*
X27913970D01*
G01X28224990Y-193930D02*
X28256490Y-220380D01*
X28291920Y-236250D01*
X28323420D01*
X28354910Y-220380D01*
X28378540Y-193930D01*
X28390350Y-156870D01*
X28382480Y-119840D01*
X28362790Y-88090D01*
X28327350Y-66910D01*
X28280110Y-56330D01*
X28252550Y-35170D01*
X28240740Y1870D01*
X28248620Y38920D01*
X28268300Y65370D01*
X28295860Y81250D01*
X28323420D01*
X28350980Y70670D01*
X28374600Y44210D01*
G01X28622630Y-246830D02*
X28614750Y-241540D01*
Y-230960D01*
X28622630Y-225670D01*
X28630510Y-230960D01*
Y-241540D01*
X28622630Y-246830D01*
G01Y-103970D02*
X28614750Y-98670D01*
Y-88090D01*
X28622630Y-82800D01*
X28630510Y-88090D01*
Y-98670D01*
X28622630Y-103970D01*
G01X26577930Y398750D02*
Y716250D01*
X26672420D01*
X26703910Y700370D01*
X26727540Y663330D01*
X26735410Y621000D01*
X26727540Y578670D01*
X26707850Y546910D01*
X26672420Y531030D01*
X26577930D01*
G01X26892890Y716250D02*
Y398750D01*
X27050370D01*
G01X27188160D02*
X27286590Y716250D01*
X27385020Y398750D01*
G01X27349580Y509870D02*
X27223590D01*
G01X27601550Y716250D02*
Y398750D01*
G01X27511000Y716250D02*
X27692100D01*
G01X27995250Y398750D02*
X27837770D01*
Y716250D01*
X27995250D01*
G01X27932260Y562800D02*
X27837770D01*
G01X28144860Y398750D02*
Y716250D01*
X28223590D01*
X28255090Y700370D01*
X28278710Y679210D01*
X28298400Y647460D01*
X28314150Y610410D01*
X28318080Y557500D01*
X28314150Y504580D01*
X28298400Y467540D01*
X28278710Y435780D01*
X28255090Y414620D01*
X28223590Y398750D01*
X28144860D01*
G01X26577930Y1033750D02*
Y1351250D01*
X26672420D01*
X26703910Y1335370D01*
X26727540Y1298330D01*
X26735410Y1256000D01*
X26727540Y1213670D01*
X26707850Y1181910D01*
X26672420Y1166030D01*
X26577930D01*
G01X26892890Y1351250D02*
Y1033750D01*
X27050370D01*
G01X27188160D02*
X27286590Y1351250D01*
X27385020Y1033750D01*
G01X27349580Y1144870D02*
X27223590D01*
G01X27601550Y1351250D02*
Y1033750D01*
G01X27511000Y1351250D02*
X27692100D01*
G01X27995250Y1033750D02*
X27837770D01*
Y1351250D01*
X27995250D01*
G01X27932260Y1197800D02*
X27837770D01*
G01X28144860Y1033750D02*
Y1351250D01*
X28223590D01*
X28255090Y1335370D01*
X28278710Y1314210D01*
X28298400Y1282460D01*
X28314150Y1245410D01*
X28318080Y1192500D01*
X28314150Y1139580D01*
X28298400Y1102540D01*
X28278710Y1070780D01*
X28255090Y1049620D01*
X28223590Y1033750D01*
X28144860D01*
G01X26577930Y1668750D02*
Y1986250D01*
X26672420D01*
X26703910Y1970370D01*
X26727540Y1933330D01*
X26735410Y1891000D01*
X26727540Y1848670D01*
X26707850Y1816910D01*
X26672420Y1801030D01*
X26577930D01*
G01X26892890Y1986250D02*
Y1668750D01*
X27050370D01*
G01X27188160D02*
X27286590Y1986250D01*
X27385020Y1668750D01*
G01X27349580Y1779870D02*
X27223590D01*
G01X27601550Y1986250D02*
Y1668750D01*
G01X27511000Y1986250D02*
X27692100D01*
G01X27995250Y1668750D02*
X27837770D01*
Y1986250D01*
X27995250D01*
G01X27932260Y1832800D02*
X27837770D01*
G01X28144860Y1668750D02*
Y1986250D01*
X28223590D01*
X28255090Y1970370D01*
X28278710Y1949210D01*
X28298400Y1917460D01*
X28314150Y1880410D01*
X28318080Y1827500D01*
X28314150Y1774580D01*
X28298400Y1737540D01*
X28278710Y1705780D01*
X28255090Y1684620D01*
X28223590Y1668750D01*
X28144860D01*
G01X26577930Y2303750D02*
Y2621250D01*
X26672420D01*
X26703910Y2605370D01*
X26727540Y2568330D01*
X26735410Y2526000D01*
X26727540Y2483670D01*
X26707850Y2451910D01*
X26672420Y2436030D01*
X26577930D01*
G01X26892890Y2621250D02*
Y2303750D01*
X27050370D01*
G01X27188160D02*
X27286590Y2621250D01*
X27385020Y2303750D01*
G01X27349580Y2414870D02*
X27223590D01*
G01X27601550Y2621250D02*
Y2303750D01*
G01X27511000Y2621250D02*
X27692100D01*
G01X27995250Y2303750D02*
X27837770D01*
Y2621250D01*
X27995250D01*
G01X27932260Y2467800D02*
X27837770D01*
G01X28144860Y2303750D02*
Y2621250D01*
X28223590D01*
X28255090Y2605370D01*
X28278710Y2584210D01*
X28298400Y2552460D01*
X28314150Y2515410D01*
X28318080Y2462500D01*
X28314150Y2409580D01*
X28298400Y2372540D01*
X28278710Y2340780D01*
X28255090Y2319620D01*
X28223590Y2303750D01*
X28144860D01*
G01X26577930Y2938750D02*
Y3256250D01*
X26672420D01*
X26703910Y3240370D01*
X26727540Y3203330D01*
X26735410Y3161000D01*
X26727540Y3118670D01*
X26707850Y3086910D01*
X26672420Y3071030D01*
X26577930D01*
G01X26892890Y3256250D02*
Y2938750D01*
X27050370D01*
G01X27188160D02*
X27286590Y3256250D01*
X27385020Y2938750D01*
G01X27349580Y3049870D02*
X27223590D01*
G01X27601550Y3256250D02*
Y2938750D01*
G01X27511000Y3256250D02*
X27692100D01*
G01X27995250Y2938750D02*
X27837770D01*
Y3256250D01*
X27995250D01*
G01X27932260Y3102800D02*
X27837770D01*
G01X28144860Y2938750D02*
Y3256250D01*
X28223590D01*
X28255090Y3240370D01*
X28278710Y3219210D01*
X28298400Y3187460D01*
X28314150Y3150410D01*
X28318080Y3097500D01*
X28314150Y3044580D01*
X28298400Y3007540D01*
X28278710Y2975780D01*
X28255090Y2954620D01*
X28223590Y2938750D01*
X28144860D01*
G01X26577930Y3573750D02*
Y3891250D01*
X26672420D01*
X26703910Y3875370D01*
X26727540Y3838330D01*
X26735410Y3796000D01*
X26727540Y3753670D01*
X26707850Y3721910D01*
X26672420Y3706030D01*
X26577930D01*
G01X26892890Y3891250D02*
Y3573750D01*
X27050370D01*
G01X27188160D02*
X27286590Y3891250D01*
X27385020Y3573750D01*
G01X27349580Y3684870D02*
X27223590D01*
G01X27601550Y3891250D02*
Y3573750D01*
G01X27511000Y3891250D02*
X27692100D01*
G01X27995250Y3573750D02*
X27837770D01*
Y3891250D01*
X27995250D01*
G01X27932260Y3737800D02*
X27837770D01*
G01X28144860Y3573750D02*
Y3891250D01*
X28223590D01*
X28255090Y3875370D01*
X28278710Y3854210D01*
X28298400Y3822460D01*
X28314150Y3785410D01*
X28318080Y3732500D01*
X28314150Y3679580D01*
X28298400Y3642540D01*
X28278710Y3610780D01*
X28255090Y3589620D01*
X28223590Y3573750D01*
X28144860D01*
G01X26577930Y4208750D02*
Y4526250D01*
X26672420D01*
X26703910Y4510370D01*
X26727540Y4473330D01*
X26735410Y4431000D01*
X26727540Y4388670D01*
X26707850Y4356910D01*
X26672420Y4341030D01*
X26577930D01*
G01X26892890Y4526250D02*
Y4208750D01*
X27050370D01*
G01X27188160D02*
X27286590Y4526250D01*
X27385020Y4208750D01*
G01X27349580Y4319870D02*
X27223590D01*
G01X27601550Y4526250D02*
Y4208750D01*
G01X27511000Y4526250D02*
X27692100D01*
G01X27995250Y4208750D02*
X27837770D01*
Y4526250D01*
X27995250D01*
G01X27932260Y4372800D02*
X27837770D01*
G01X28144860Y4208750D02*
Y4526250D01*
X28223590D01*
X28255090Y4510370D01*
X28278710Y4489210D01*
X28298400Y4457460D01*
X28314150Y4420410D01*
X28318080Y4367500D01*
X28314150Y4314580D01*
X28298400Y4277540D01*
X28278710Y4245780D01*
X28255090Y4224620D01*
X28223590Y4208750D01*
X28144860D01*
G01X26577930Y4843750D02*
Y5161250D01*
X26672420D01*
X26703910Y5145370D01*
X26727540Y5108330D01*
X26735410Y5066000D01*
X26727540Y5023670D01*
X26707850Y4991910D01*
X26672420Y4976030D01*
X26577930D01*
G01X26892890Y5161250D02*
Y4843750D01*
X27050370D01*
G01X27188160D02*
X27286590Y5161250D01*
X27385020Y4843750D01*
G01X27349580Y4954870D02*
X27223590D01*
G01X27601550Y5161250D02*
Y4843750D01*
G01X27511000Y5161250D02*
X27692100D01*
G01X27995250Y4843750D02*
X27837770D01*
Y5161250D01*
X27995250D01*
G01X27932260Y5007800D02*
X27837770D01*
G01X28144860Y4843750D02*
Y5161250D01*
X28223590D01*
X28255090Y5145370D01*
X28278710Y5124210D01*
X28298400Y5092460D01*
X28314150Y5055410D01*
X28318080Y5002500D01*
X28314150Y4949580D01*
X28298400Y4912540D01*
X28278710Y4880780D01*
X28255090Y4859620D01*
X28223590Y4843750D01*
X28144860D01*
G01X26577930Y5478750D02*
Y5796250D01*
X26672420D01*
X26703910Y5780370D01*
X26727540Y5743330D01*
X26735410Y5701000D01*
X26727540Y5658670D01*
X26707850Y5626910D01*
X26672420Y5611030D01*
X26577930D01*
G01X26892890Y5796250D02*
Y5478750D01*
X27050370D01*
G01X27188160D02*
X27286590Y5796250D01*
X27385020Y5478750D01*
G01X27349580Y5589870D02*
X27223590D01*
G01X27601550Y5796250D02*
Y5478750D01*
G01X27511000Y5796250D02*
X27692100D01*
G01X27995250Y5478750D02*
X27837770D01*
Y5796250D01*
X27995250D01*
G01X27932260Y5642800D02*
X27837770D01*
G01X28144860Y5478750D02*
Y5796250D01*
X28223590D01*
X28255090Y5780370D01*
X28278710Y5759210D01*
X28298400Y5727460D01*
X28314150Y5690410D01*
X28318080Y5637500D01*
X28314150Y5584580D01*
X28298400Y5547540D01*
X28278710Y5515780D01*
X28255090Y5494620D01*
X28223590Y5478750D01*
X28144860D01*
G01X26577930Y6113750D02*
Y6431250D01*
X26672420D01*
X26703910Y6415370D01*
X26727540Y6378330D01*
X26735410Y6336000D01*
X26727540Y6293670D01*
X26707850Y6261910D01*
X26672420Y6246030D01*
X26577930D01*
G01X26892890Y6431250D02*
Y6113750D01*
X27050370D01*
G01X27188160D02*
X27286590Y6431250D01*
X27385020Y6113750D01*
G01X27349580Y6224870D02*
X27223590D01*
G01X27601550Y6431250D02*
Y6113750D01*
G01X27511000Y6431250D02*
X27692100D01*
G01X27995250Y6113750D02*
X27837770D01*
Y6431250D01*
X27995250D01*
G01X27932260Y6277800D02*
X27837770D01*
G01X28144860Y6113750D02*
Y6431250D01*
X28223590D01*
X28255090Y6415370D01*
X28278710Y6394210D01*
X28298400Y6362460D01*
X28314150Y6325410D01*
X28318080Y6272500D01*
X28314150Y6219580D01*
X28298400Y6182540D01*
X28278710Y6150780D01*
X28255090Y6129620D01*
X28223590Y6113750D01*
X28144860D01*
G01X26577930Y6748750D02*
Y7066250D01*
X26672420D01*
X26703910Y7050370D01*
X26727540Y7013330D01*
X26735410Y6971000D01*
X26727540Y6928670D01*
X26707850Y6896910D01*
X26672420Y6881030D01*
X26577930D01*
G01X26892890Y7066250D02*
Y6748750D01*
X27050370D01*
G01X27188160D02*
X27286590Y7066250D01*
X27385020Y6748750D01*
G01X27349580Y6859870D02*
X27223590D01*
G01X27601550Y7066250D02*
Y6748750D01*
G01X27511000Y7066250D02*
X27692100D01*
G01X27995250Y6748750D02*
X27837770D01*
Y7066250D01*
X27995250D01*
G01X27932260Y6912800D02*
X27837770D01*
G01X28144860Y6748750D02*
Y7066250D01*
X28223590D01*
X28255090Y7050370D01*
X28278710Y7029210D01*
X28298400Y6997460D01*
X28314150Y6960410D01*
X28318080Y6907500D01*
X28314150Y6854580D01*
X28298400Y6817540D01*
X28278710Y6785780D01*
X28255090Y6764620D01*
X28223590Y6748750D01*
X28144860D01*
G01X29719650Y-236250D02*
X29727530Y-167460D01*
X29739340Y-109260D01*
X29755090Y-56330D01*
X29774770Y1870D01*
X29806270Y81250D01*
X29648790D01*
G01X29955880Y-188640D02*
X29979490Y-215090D01*
X30007050Y-230960D01*
X30042490Y-236250D01*
X30077930Y-225670D01*
X30105480Y-204510D01*
X30125170Y-167460D01*
X30129100Y-125130D01*
X30121230Y-82800D01*
X30101540Y-56330D01*
X30073980Y-35170D01*
X30046430Y-29880D01*
X30018870Y-35170D01*
X29983440Y-56330D01*
X29995250Y81250D01*
X30101540D01*
G01X30290520Y-199220D02*
X30318080Y-225670D01*
X30349570Y-236250D01*
X30381070Y-225670D01*
X30408630Y-193930D01*
X30428320Y-146290D01*
X30436190Y-98670D01*
Y-40460D01*
X30428320Y7160D01*
X30408630Y49500D01*
X30385010Y70670D01*
X30357450Y81250D01*
X30325950Y70670D01*
X30302330Y49500D01*
X30286580Y17750D01*
X30278710Y-24590D01*
X30286580Y-61620D01*
X30306270Y-98670D01*
X30329890Y-119840D01*
X30357450Y-125130D01*
X30388940Y-114550D01*
X30412570Y-88090D01*
X30436190Y-40460D01*
G01X29885010Y3573750D02*
Y3891250D01*
X29837770Y3827750D01*
G01Y3573750D02*
X29932250D01*
G01X30125160Y3706030D02*
X30152730Y3743090D01*
X30176350Y3764250D01*
X30207850Y3774830D01*
X30235410Y3764250D01*
X30255090Y3743090D01*
X30270840Y3711330D01*
X30274780Y3674290D01*
X30270840Y3642540D01*
X30255090Y3610780D01*
X30231460Y3584330D01*
X30203910Y3573750D01*
X30172410Y3584330D01*
X30144850Y3616070D01*
X30129100Y3663710D01*
X30125160Y3716620D01*
X30133040Y3785410D01*
X30144850Y3822460D01*
X30164530Y3859500D01*
X30192090Y3885960D01*
X30219650Y3891250D01*
X30247210Y3880670D01*
X30266900Y3854210D01*
G01X29818080Y4880780D02*
X29845640Y4854330D01*
X29877130Y4843750D01*
X29908630Y4854330D01*
X29936190Y4886070D01*
X29955880Y4933710D01*
X29963750Y4981330D01*
Y5039540D01*
X29955880Y5087160D01*
X29936190Y5129500D01*
X29912570Y5150670D01*
X29885010Y5161250D01*
X29853510Y5150670D01*
X29829890Y5129500D01*
X29814140Y5097750D01*
X29806270Y5055410D01*
X29814140Y5018380D01*
X29833830Y4981330D01*
X29857450Y4960160D01*
X29885010Y4954870D01*
X29916500Y4965450D01*
X29940130Y4991910D01*
X29963750Y5039540D01*
G01X30125160Y4976030D02*
X30152730Y5013090D01*
X30176350Y5034250D01*
X30207850Y5044830D01*
X30235410Y5034250D01*
X30255090Y5013090D01*
X30270840Y4981330D01*
X30274780Y4944290D01*
X30270840Y4912540D01*
X30255090Y4880780D01*
X30231460Y4854330D01*
X30203910Y4843750D01*
X30172410Y4854330D01*
X30144850Y4886070D01*
X30129100Y4933710D01*
X30125160Y4986620D01*
X30133040Y5055410D01*
X30144850Y5092460D01*
X30164530Y5129500D01*
X30192090Y5155960D01*
X30219650Y5161250D01*
X30247210Y5150670D01*
X30266900Y5124210D01*
G01X29727530Y5478750D02*
Y5796250D01*
X29680290Y5732750D01*
G01Y5478750D02*
X29774770D01*
G01X29955880Y5542250D02*
X29979490Y5505200D01*
X30010990Y5484040D01*
X30046430Y5478750D01*
X30077930Y5484040D01*
X30109420Y5510490D01*
X30129100Y5542250D01*
X30133040Y5574000D01*
X30125170Y5611030D01*
X30097610Y5637500D01*
X30070050Y5648090D01*
X30034610D01*
G01X30070050D02*
X30093670Y5663960D01*
X30113360Y5690410D01*
X30121230Y5722160D01*
X30113360Y5753920D01*
X30093670Y5780370D01*
X30058240Y5796250D01*
X30022810Y5790960D01*
X29987370Y5769790D01*
G01X30282640Y5611030D02*
X30310210Y5648090D01*
X30333830Y5669250D01*
X30365330Y5679830D01*
X30392890Y5669250D01*
X30412570Y5648090D01*
X30428320Y5616330D01*
X30432260Y5579290D01*
X30428320Y5547540D01*
X30412570Y5515780D01*
X30388940Y5489330D01*
X30361390Y5478750D01*
X30329890Y5489330D01*
X30302330Y5521070D01*
X30286580Y5568710D01*
X30282640Y5621620D01*
X30290520Y5690410D01*
X30302330Y5727460D01*
X30322010Y5764500D01*
X30349570Y5790960D01*
X30377130Y5796250D01*
X30404690Y5785670D01*
X30424380Y5759210D01*
G01X29774770Y6113750D02*
Y6431250D01*
X29629100Y6203710D01*
X29825960D01*
G01X29975560Y6150780D02*
X30003120Y6124330D01*
X30034610Y6113750D01*
X30066110Y6124330D01*
X30093670Y6156070D01*
X30113360Y6203710D01*
X30121230Y6251330D01*
Y6309540D01*
X30113360Y6357160D01*
X30093670Y6399500D01*
X30070050Y6420670D01*
X30042490Y6431250D01*
X30010990Y6420670D01*
X29987370Y6399500D01*
X29971620Y6367750D01*
X29963750Y6325410D01*
X29971620Y6288380D01*
X29991310Y6251330D01*
X30014930Y6230160D01*
X30042490Y6224870D01*
X30073980Y6235450D01*
X30097610Y6261910D01*
X30121230Y6309540D01*
G01X30404690Y6113750D02*
Y6431250D01*
X30259020Y6203710D01*
X30455880D01*
G01X29727530Y6748750D02*
X29696030Y6754040D01*
X29668480Y6775200D01*
X29644850Y6806960D01*
X29629100Y6844000D01*
X29621230Y6886330D01*
Y6928670D01*
X29629100Y6971000D01*
X29644850Y7008040D01*
X29668480Y7039790D01*
X29696030Y7060960D01*
X29727530Y7066250D01*
X29759020Y7060960D01*
X29786580Y7039790D01*
X29810210Y7008040D01*
X29825960Y6971000D01*
X29833830Y6928670D01*
Y6886330D01*
X29825960Y6844000D01*
X29810210Y6806960D01*
X29786580Y6775200D01*
X29759020Y6754040D01*
X29727530Y6748750D01*
G01X29759020Y6833420D02*
X29806270Y6748750D01*
G01X30042490Y7066250D02*
Y6748750D01*
G01X29951940Y7066250D02*
X30133040D01*
G01X30357450Y6748750D02*
Y6891620D01*
X30278710Y7066250D01*
G01X30436190D02*
X30357450Y6891620D01*
G01X29967680Y663330D02*
X29991310Y695080D01*
X30018870Y710960D01*
X30050370Y716250D01*
X30089730Y705670D01*
X30117300Y679210D01*
X30125170Y647460D01*
X30121230Y615700D01*
X30105480Y589250D01*
X30026740Y536330D01*
X29991310Y499290D01*
X29967680Y446360D01*
X29959810Y398750D01*
X30125170D01*
G01X30042490Y1033750D02*
Y1351250D01*
X29995250Y1287750D01*
G01Y1033750D02*
X30089730D01*
G01Y1668750D02*
Y1986250D01*
X29944060Y1758710D01*
X30140920D01*
G01X30089730Y2303750D02*
Y2621250D01*
X29944060Y2393710D01*
X30140920D01*
G01X29967680Y3203330D02*
X29991310Y3235080D01*
X30018870Y3250960D01*
X30050370Y3256250D01*
X30089730Y3245670D01*
X30117300Y3219210D01*
X30125170Y3187460D01*
X30121230Y3155700D01*
X30105480Y3129250D01*
X30026740Y3076330D01*
X29991310Y3039290D01*
X29967680Y2986360D01*
X29959810Y2938750D01*
X30125170D01*
G01X30089730Y4208750D02*
Y4526250D01*
X29944060Y4298710D01*
X30140920D01*
G01X-250000Y0D02*
X-1460000D01*
G01X-1210000Y4894260D02*
Y0D01*
G01X-1272500Y400000D02*
X-1210000Y0D01*
X-1147500Y400000D01*
X-1272500D01*
G01X-1210000Y5385740D02*
Y10000000D01*
G01X-1147500Y9600000D02*
X-1210000Y10000000D01*
X-1272500Y9600000D01*
X-1147500D01*
G01X470000Y10000000D02*
X-1460000D01*
G01X-800000Y-350000D02*
X0D01*
G01X-250000Y0D02*
X-950000D01*
G01X-700000Y4264260D02*
Y0D01*
G01X-762500Y400000D02*
X-700000Y0D01*
X-637500Y400000D01*
X-762500D01*
G01X-700000Y4755740D02*
Y9670000D01*
G01X-637500Y9270000D02*
X-700000Y9670000D01*
X-762500Y9270000D01*
X-637500D01*
G01X80000Y9670000D02*
X-950000D01*
G01X-350000Y-800000D02*
Y0D01*
G01X-287500Y-400000D02*
X-350000Y0D01*
X-412500Y-400000D01*
X-287500D01*
G01X-400000Y-412500D02*
X0Y-350000D01*
X-400000Y-287500D01*
Y-412500D01*
G01X80000Y330000D02*
X-600000D01*
G01X-250000Y0D02*
X-600000D01*
G01X-350000Y1134260D02*
Y330000D01*
G01X-412500Y730000D02*
X-350000Y330000D01*
X-287500Y730000D01*
X-412500D01*
G01X0Y-250000D02*
Y-1380000D01*
G01Y-250000D02*
Y-940000D01*
G01X6117390Y-690000D02*
X0D01*
G01X400000Y-627500D02*
X0Y-690000D01*
X400000Y-752500D01*
Y-627500D01*
G01X6527390Y-1130000D02*
X0D01*
G01X400000Y-1067500D02*
X0Y-1130000D01*
X400000Y-1192500D01*
Y-1067500D01*
G01X0Y-250000D02*
Y-600000D01*
G01X330000Y80000D02*
Y-600000D01*
G01X857890Y-350000D02*
X330000D01*
G01X730000Y-287500D02*
X330000Y-350000D01*
X730000Y-412500D01*
Y-287500D01*
G01X7322610Y-690000D02*
X14020000D01*
G01X7732610Y-1130000D02*
X14350000D01*
G01X13620000Y-752500D02*
X14020000Y-690000D01*
X13620000Y-627500D01*
Y-752500D01*
G01X13950000Y-1192500D02*
X14350000Y-1130000D01*
X13950000Y-1067500D01*
Y-1192500D01*
G01X14350000Y470000D02*
Y-1380000D01*
G01X14020000Y80000D02*
Y-940000D01*
G01X15200000Y240000D02*
Y8510000D01*
X31026740D01*
Y240000D01*
X15200000D01*
G01Y875000D02*
X31026740D01*
G01X15200000Y1510000D02*
X31026740D01*
G01X15200000Y2145000D02*
X31026740D01*
G01X15200000Y2780000D02*
X31026740D01*
G01X15200000Y3415000D02*
X31026740D01*
G01X15200000Y4050000D02*
X31026740D01*
G01X15200000Y4685000D02*
X31026740D01*
G01X15200000Y5320000D02*
X31026740D01*
G01X15200000Y5955000D02*
X31026740D01*
G01X15200000Y6590000D02*
X31026740D01*
G01X15200000Y7225000D02*
X31026740D01*
G01X15200000Y7860000D02*
X31026740D01*
G01X17483460Y7225000D02*
Y240000D01*
G01X22601560Y7225000D02*
Y240000D01*
G01X25829900Y7225000D02*
Y240000D01*
G01X29058240Y7225000D02*
Y240000D01*
G54D11*
X386550Y5544170D03*
Y5844170D03*
Y6144170D03*
X390710Y8409610D03*
Y8109610D03*
Y9009610D03*
Y8709610D03*
X730000Y2430000D03*
X562020Y2868330D03*
Y3368330D03*
X594520Y4309160D03*
Y5309160D03*
Y4809160D03*
X975000Y6945000D03*
X880000Y7070000D03*
Y7150000D03*
Y7230000D03*
X1300000Y2200000D03*
Y2430000D03*
X1480000D03*
X1460000Y2710000D03*
Y3090000D03*
Y3480000D03*
X1204520Y4339160D03*
Y5339160D03*
Y4839160D03*
X1180000Y6390000D03*
X1260000D03*
X1340000D03*
X1180000Y6290000D03*
X1260000D03*
X1340000D03*
X1180000Y6180000D03*
X1260000D03*
X1340000D03*
X1180000Y6070000D03*
X1260000D03*
X1340000D03*
X1260000Y6500080D03*
X1180000Y6610000D03*
X1260000D03*
X1333660D03*
X1180000Y6500000D03*
X1340000D03*
Y6720000D03*
X1260000D03*
X1180000D03*
X1270000Y6850000D03*
X1190000D03*
X1110000D03*
X1376550Y7884170D03*
Y7584170D03*
Y8184170D03*
X1870000Y2220000D03*
X1960000Y2430000D03*
X1780000D03*
X1660000D03*
X1720000Y2710000D03*
X1980000D03*
Y3090000D03*
X1720000D03*
X1980000Y3480000D03*
X1720000D03*
X1980000Y3680000D03*
X1750000Y3890000D03*
X1980000D03*
X1704520Y4339160D03*
Y5339160D03*
Y4839160D03*
X1880000Y6000000D03*
X1605000Y6945000D03*
X1676550Y7884170D03*
Y7584170D03*
Y8184170D03*
X1907030Y8872900D03*
Y9372900D03*
X2170000Y2430000D03*
Y2220000D03*
X2350000Y2430000D03*
X2360000Y3480000D03*
Y3680000D03*
Y3890000D03*
X2204520Y4339160D03*
Y5339160D03*
Y4839160D03*
Y5839160D03*
X2291970Y6800840D03*
Y6500840D03*
Y7400840D03*
Y7100840D03*
Y8000840D03*
Y7700840D03*
X2407030Y8872900D03*
Y9372900D03*
X2640000Y2220000D03*
X3170000Y2210000D03*
X3110000Y2430000D03*
X3090000Y3090000D03*
Y2710000D03*
X2730000Y3480000D03*
X3140000D03*
X2730000Y3680000D03*
X3140000D03*
X2730000Y3890000D03*
X3140000D03*
X2704520Y4339160D03*
Y5339160D03*
Y4839160D03*
Y5839160D03*
X2907030Y8872900D03*
Y9372900D03*
X3590000Y2430000D03*
X3410000D03*
X3290000D03*
X3350000Y3090000D03*
X3630000Y3050000D03*
X3610000Y2710000D03*
X3350000D03*
X3580000Y3480000D03*
Y3680000D03*
X3204520Y4339160D03*
Y5339160D03*
Y4839160D03*
X3406550Y6224170D03*
X3706550D03*
X3406550Y6524170D03*
Y6824170D03*
X3706550Y6524170D03*
Y6824170D03*
X3406550Y7134170D03*
Y7434170D03*
X3706550Y7134170D03*
Y7434170D03*
X3406550Y7734170D03*
X3706550D03*
X3407030Y8872900D03*
Y9372900D03*
X3830000Y2210000D03*
X3980000Y2430000D03*
X3960000Y3090000D03*
Y3480000D03*
Y3680000D03*
Y3290000D03*
X4740000Y2430000D03*
X4720000Y2710000D03*
X5130000Y2250000D03*
X4920000Y2430000D03*
X5040000D03*
X5220000D03*
X5160000Y3090000D03*
X4990000Y2710000D03*
X4920000Y3090000D03*
X5160000Y3290000D03*
Y3490000D03*
Y3680000D03*
X4920000Y3290000D03*
Y3490000D03*
Y3680000D03*
X5330000Y3890000D03*
X4920000Y3880000D03*
X5180360Y4956650D03*
Y5456650D03*
Y5956650D03*
Y6956650D03*
Y6456650D03*
Y7456650D03*
X4890000Y9310000D03*
X5250000D03*
X5470000Y2260000D03*
X5610000Y2430000D03*
X5530000Y3090000D03*
X5540000Y2680000D03*
X5530000Y2890000D03*
X5790000Y3560000D03*
X5530000Y3290000D03*
X5460000Y4050000D03*
X5670000D03*
X5860000D03*
X5630000Y3730000D03*
X5860000Y3810000D03*
X5680360Y4956650D03*
Y5456650D03*
Y5956650D03*
Y6956650D03*
Y6456650D03*
Y7456650D03*
Y8236650D03*
X6370000Y2200000D03*
X5960000D03*
Y2470000D03*
X6260000Y2540000D03*
X6370000Y2430000D03*
X6280000Y3080000D03*
X5960000Y2670000D03*
X5970000Y2890000D03*
X5940000Y3410000D03*
X6110000Y3240000D03*
X6260000Y3510000D03*
X6060000Y4050000D03*
X6260000D03*
X6060000Y3810000D03*
X6260000D03*
X6180360Y4956650D03*
Y5456650D03*
Y5956650D03*
Y6956650D03*
Y6456650D03*
Y7456650D03*
Y8236650D03*
X6090000Y9310000D03*
X6960000Y2430000D03*
X6850000D03*
X6670000D03*
X6550000D03*
X6460000Y2900000D03*
X6630000Y2730000D03*
X6910000D03*
X6660000Y3130000D03*
X6880000Y3010000D03*
X6460000Y3510000D03*
X6660000Y3520000D03*
X6870000D03*
X6460000Y4050000D03*
X6660000D03*
X6870000D03*
X6460000Y3810000D03*
X6660000D03*
X6870000D03*
X6680360Y4956650D03*
Y5456650D03*
Y5956650D03*
Y6956650D03*
Y6456650D03*
Y7456650D03*
Y8236650D03*
X7000000Y2200000D03*
X7135000Y2335000D03*
X7485000D03*
X7070000Y2900000D03*
X7260000Y3170000D03*
X7460000D03*
X7070000Y3520000D03*
X7260000D03*
X7460000D03*
X7070000Y4050000D03*
X7260000D03*
X7460000D03*
X7070000Y3810000D03*
X7260000D03*
X7460000D03*
X7180360Y4956650D03*
Y5456650D03*
Y5956650D03*
Y6956650D03*
Y6456650D03*
Y7456650D03*
Y8236650D03*
X7070000Y9310000D03*
X7880000Y2430000D03*
X8000000D03*
X7730000Y2900000D03*
X7930000Y2700000D03*
X7760000Y3170000D03*
X8030000Y2900000D03*
X7710000Y3520000D03*
X8000000D03*
X8050000Y3180000D03*
X7660000Y4050000D03*
X7860000D03*
X7660000Y3810000D03*
X7860000D03*
X7680360Y4956650D03*
Y5456650D03*
Y5956650D03*
Y6956650D03*
Y6456650D03*
Y7456650D03*
Y8236650D03*
X7681130Y9252080D03*
X7773260Y9723320D03*
X8390000Y2200000D03*
X8300000Y2430000D03*
X8480000D03*
X8180000D03*
X8220000Y2700000D03*
X8330000Y2900000D03*
X8520000Y2700000D03*
X8300000Y3520000D03*
X8590000D03*
X8350000Y3180000D03*
X8070000Y4050000D03*
X8270000D03*
X8460000D03*
X8070000Y3810000D03*
X8300000D03*
X8580000D03*
X8180360Y4956650D03*
Y5456650D03*
Y5956650D03*
Y6956650D03*
Y6456650D03*
Y7456650D03*
X8181130Y9252080D03*
X8273260Y9723320D03*
X8680000Y2200000D03*
X8670000Y2430000D03*
X8880000D03*
X8910000Y3060000D03*
X8620000Y2900000D03*
X8910000Y2850000D03*
Y2630000D03*
Y3490000D03*
Y3280000D03*
X8630000Y3190000D03*
X8660000Y4050000D03*
X8900000D03*
X8850000Y3810000D03*
X8680360Y4956650D03*
Y5456650D03*
Y5956650D03*
Y6956650D03*
Y6456650D03*
Y7456650D03*
X8681130Y9252080D03*
X8773260Y9723320D03*
X9210000Y2200000D03*
X9200000Y2430000D03*
X9640000Y2230000D03*
X9630000Y2430000D03*
X9280000Y2630000D03*
Y2850000D03*
Y3060000D03*
X9520000Y2630000D03*
X9280000Y3680000D03*
Y3490000D03*
Y3280000D03*
X9160000Y3890000D03*
X9530000D03*
X9680360Y4956650D03*
X9180360D03*
X9680360Y5456650D03*
X9180360D03*
X9680360Y5956650D03*
X9180360D03*
X9680360Y6956650D03*
X9180360D03*
X9680360Y6456650D03*
X9180360D03*
Y7456650D03*
X9555310Y8050400D03*
X9181130Y9252080D03*
X9375000Y9485000D03*
X9273260Y9723320D03*
X9810000Y2430000D03*
X10110000D03*
X9930000D03*
X9760000Y2850000D03*
Y3060000D03*
X10130000D03*
Y2850000D03*
X9870000Y2700000D03*
X10220000Y2630000D03*
X9760000Y3280000D03*
Y3490000D03*
X10130000Y3280000D03*
Y3490000D03*
Y3690000D03*
X9760000D03*
X9900000Y3890000D03*
X10180360Y4956650D03*
Y5456650D03*
Y5956650D03*
Y6956650D03*
Y6456650D03*
Y7456650D03*
X10055310Y8050400D03*
X9773260Y9723320D03*
X10310000Y2200000D03*
X10510000Y2430000D03*
X10520000Y3070000D03*
Y3280000D03*
Y3690000D03*
Y3490000D03*
X10680360Y4956650D03*
Y5456650D03*
Y5956650D03*
Y6956650D03*
Y6456650D03*
Y7456650D03*
X10555310Y8050400D03*
X10773260Y9723320D03*
X10273260D03*
X11060000Y2200000D03*
Y2430000D03*
X11260000D03*
X10890000Y3070000D03*
X11240000D03*
Y2710000D03*
X10890000Y3280000D03*
Y3690000D03*
Y3490000D03*
X11240000Y3690000D03*
Y3490000D03*
Y3280000D03*
Y3890000D03*
X10890000D03*
X11180360Y4956650D03*
Y5456650D03*
Y5956650D03*
Y6956650D03*
Y6456650D03*
Y7456650D03*
X11115310Y8060400D03*
X11125000Y8745000D03*
X10855000Y9455000D03*
X11273260Y9723320D03*
X11660000Y2200000D03*
X11440000Y2430000D03*
X11560000D03*
X11740000D03*
X11500000Y2710000D03*
X11760000D03*
X11490000Y3070000D03*
X11760000Y3060000D03*
X11640000Y3490000D03*
X11650000Y3690000D03*
Y3890000D03*
X11680360Y4956650D03*
Y5456650D03*
Y5956650D03*
Y6956650D03*
Y6456650D03*
Y7456650D03*
X11615310Y8060400D03*
X11773260Y9723320D03*
X11910000Y2430000D03*
X12030000Y2200000D03*
X12035000Y2335000D03*
X12390000D03*
X12040000Y3690000D03*
Y3480000D03*
Y3890000D03*
X12115310Y8060400D03*
X11940000Y9300000D03*
X12470000Y2200000D03*
Y2430000D03*
X12780000Y2540000D03*
X12890000Y2430000D03*
X12870000Y2730000D03*
Y3120000D03*
X12510000Y3480000D03*
Y3690000D03*
X12780000Y3480000D03*
Y3690000D03*
X12512010Y4087500D03*
X12510000Y3890000D03*
X12780000D03*
X12680360Y4956650D03*
Y5456650D03*
Y5956650D03*
Y6956650D03*
Y6456650D03*
Y7456650D03*
X12615310Y8060400D03*
X12970000Y2210000D03*
X13370000Y2430000D03*
X13190000D03*
X13070000D03*
X13130000Y2730000D03*
X13390000D03*
Y3120000D03*
X13130000D03*
Y3480000D03*
Y3690000D03*
X13390000Y3480000D03*
X13130000Y3900000D03*
X13180360Y4956650D03*
Y5456650D03*
Y5956650D03*
Y6956650D03*
Y6456650D03*
Y7456650D03*
X13115310Y8060400D03*
X13982010Y2627500D03*
X13980000Y2210000D03*
X13982010Y3127500D03*
Y3627500D03*
X14000360Y4966650D03*
Y5466650D03*
Y5966650D03*
Y6966650D03*
Y6466650D03*
Y7466650D03*
X13615310Y8060400D03*
X16341730Y6272500D03*
G54D12*
X807500Y600000D03*
X1025000Y1725000D03*
X1061500Y600000D03*
X1406000Y1979000D03*
X1152000D03*
X1533000Y1725000D03*
X1279000D03*
X2132500Y600000D03*
X1878500D03*
X1914000Y1979000D03*
X1660000D03*
X1787000Y1725000D03*
X2437500Y600000D03*
X2655000Y1725000D03*
X2691500Y600000D03*
X3036000Y1979000D03*
X2782000D03*
X3163000Y1725000D03*
X2909000D03*
X3762500Y600000D03*
X3508500D03*
X3544000Y1979000D03*
X3290000D03*
X3417000Y1725000D03*
X4067500Y600000D03*
X4285000Y1725000D03*
X4321500Y600000D03*
X4666000Y1979000D03*
X4412000D03*
X4793000Y1725000D03*
X4539000D03*
X5392500Y600000D03*
X5138500D03*
X5174000Y1979000D03*
X4920000D03*
X5047000Y1725000D03*
X5697500Y600000D03*
X5915000Y1725000D03*
X5951500Y600000D03*
X6296000Y1979000D03*
X6042000D03*
X6423000Y1725000D03*
X6169000D03*
X7022500Y600000D03*
X6768500D03*
X6804000Y1979000D03*
X6550000D03*
X6677000Y1725000D03*
X7327500Y600000D03*
X7545000Y1725000D03*
X7581500Y600000D03*
X7926000Y1979000D03*
X7672000D03*
X8053000Y1725000D03*
X7799000D03*
X8652500Y600000D03*
X8398500D03*
X8434000Y1979000D03*
X8180000D03*
X8307000Y1725000D03*
X8957500Y600000D03*
X9175000Y1725000D03*
X9211500Y600000D03*
X9556000Y1979000D03*
X9302000D03*
X9683000Y1725000D03*
X9429000D03*
X10282500Y600000D03*
X10028500D03*
X10064000Y1979000D03*
X9810000D03*
X9937000Y1725000D03*
X10587500Y600000D03*
X10805000Y1725000D03*
X10841500Y600000D03*
X11186000Y1979000D03*
X10932000D03*
X11313000Y1725000D03*
X11059000D03*
X11912500Y600000D03*
X11658500D03*
X11694000Y1979000D03*
X11440000D03*
X11567000Y1725000D03*
X12217500Y600000D03*
X12435000Y1725000D03*
X12471500Y600000D03*
X12816000Y1979000D03*
X12562000D03*
X12943000Y1725000D03*
X12689000D03*
X13542500Y600000D03*
X13288500D03*
X13324000Y1979000D03*
X13070000D03*
X13197000Y1725000D03*
X16341730Y5002500D03*
G54D13*
X695500Y1395000D03*
X2244500D03*
X2325500D03*
X3955500D03*
X3874500D03*
X5504500D03*
X5585500D03*
X7215500D03*
X7134500D03*
X8764500D03*
X8845500D03*
X10475500D03*
X10394500D03*
X12024500D03*
X12105500D03*
X13654500D03*
X16341730Y3732500D03*
G54D14*
X760000Y8880000D03*
X16341730Y1192500D03*
G54D15*
X1240000Y8600000D03*
Y9200000D03*
X16341730Y557500D03*
G54D16*
X4000000Y4210000D03*
Y8810000D03*
X10400000Y4210000D03*
Y8810000D03*
X16341730Y1827500D03*
G54D17*
X4000000Y5010000D03*
X4200000D03*
X4000000Y5210000D03*
X4200000D03*
X4000000Y5410000D03*
Y5610000D03*
Y5810000D03*
X4200000Y5410000D03*
Y5610000D03*
Y5810000D03*
X4000000Y6010000D03*
Y6210000D03*
Y6410000D03*
X4200000Y6010000D03*
Y6210000D03*
Y6410000D03*
X4000000Y6610000D03*
Y6810000D03*
Y7010000D03*
X4200000Y6610000D03*
Y6810000D03*
Y7010000D03*
X4000000Y7210000D03*
Y7410000D03*
X4200000Y7210000D03*
Y7410000D03*
X4000000Y7610000D03*
Y7810000D03*
Y8010000D03*
X4200000Y7610000D03*
Y7810000D03*
Y8010000D03*
X5243700Y4210000D03*
X5043700D03*
X4843700D03*
X5243700Y4410000D03*
X5043700D03*
X4843700D03*
X4869100Y8610000D03*
X5069100D03*
X5269100D03*
X4869100Y8810000D03*
X5069100D03*
X5269100D03*
X5843700Y4210000D03*
X5643700D03*
X5443700D03*
X5843700Y4410000D03*
X5643700D03*
X5443700D03*
X5469100Y8610000D03*
X5669100D03*
X5869100D03*
X5469100Y8810000D03*
X5669100D03*
X5869100D03*
X6443700Y4210000D03*
X6243700D03*
X6043700D03*
X6443700Y4410000D03*
X6243700D03*
X6043700D03*
X6069100Y8610000D03*
X6269100D03*
X6469100D03*
X6069100Y8810000D03*
X6269100D03*
X6469100D03*
X6843700Y4210000D03*
X6643700D03*
X6843700Y4410000D03*
X6643700D03*
X6669100Y8610000D03*
X6869100D03*
X6669100Y8810000D03*
X6869100D03*
X7443700Y4210000D03*
X7243700D03*
X7043700D03*
X7443700Y4410000D03*
X7243700D03*
X7043700D03*
X7069100Y8610000D03*
X7269100D03*
X7469100D03*
X7069100Y8810000D03*
X7269100D03*
X7469100D03*
X8043700Y4210000D03*
X7843700D03*
X7643700D03*
X8043700Y4410000D03*
X7843700D03*
X7643700D03*
X7669100Y8610000D03*
X7869100D03*
X8069100D03*
X7669100Y8810000D03*
X7869100D03*
X8069100D03*
X8643700Y4210000D03*
X8443700D03*
X8243700D03*
X8643700Y4410000D03*
X8443700D03*
X8243700D03*
X8269100Y8610000D03*
X8469100D03*
X8269100Y8810000D03*
X8469100D03*
X9043700Y4210000D03*
X8843700D03*
X9043700Y4410000D03*
X8843700D03*
X8669100Y8610000D03*
X8869100D03*
X9069100D03*
X8669100Y8810000D03*
X8869100D03*
X9069100D03*
X9643700Y4210000D03*
X9443700D03*
X9243700D03*
X9643700Y4410000D03*
X9443700D03*
X9243700D03*
X9269100Y8610000D03*
X9469100D03*
X9669100D03*
X9269100Y8810000D03*
X9469100D03*
X9669100D03*
X12905000Y8500000D03*
Y8700000D03*
X13155000Y8500000D03*
Y8700000D03*
X16341730Y5637500D03*
G54D18*
X5500960Y9852170D03*
X6475000D03*
X6250960D03*
X7225000D03*
X16341730Y4367500D03*
G54D19*
X12428000Y8971000D03*
X13632000D03*
X16341730Y3097500D03*
M02*
