G04 ================== begin FILE IDENTIFICATION RECORD ==================*
G04 Layout Name:  IEM608_V10_211216.brd*
G04 Film Name:    PasteMask_Top*
G04 File Format:  Gerber RS274X*
G04 File Origin:  Cadence Allegro 17.2-S071*
G04 Origin Date:  Fri Dec 17 14:36:10 2021*
G04 *
G04 Layer:  PIN/PASTEMASK_TOP*
G04 Layer:  PACKAGE GEOMETRY/PASTEMASK_TOP*
G04 *
G04 Offset:    (0.0000 0.0000)*
G04 Mirror:    No*
G04 Mode:      Positive*
G04 Rotation:  0*
G04 FullContactRelief:  No*
G04 UndefLineWidth:     0.1524*
G04 ================== end FILE IDENTIFICATION RECORD ====================*
%FSLAX55Y55*MOMM*%
%IR0*IPPOS*OFA0.00000B0.00000*MIA0B0*SFA1.00000B1.00000*%
%ADD24R,1.2X.3*%
%ADD15R,1.5X.6*%
%ADD21C,.75*%
%ADD20R,.8X.8*%
%ADD23R,1.4X1.2*%
%ADD26R,2.5X1.*%
%ADD17R,2.4X3.1*%
%ADD16R,5.X5.*%
%ADD13R,1.4X1.5*%
%ADD27R,.6X.4*%
%ADD22R,.5X.6*%
%ADD19R,2.7X3.3*%
%ADD18R,2.5X3.5*%
%ADD11R,1.8X1.6*%
%ADD25R,.5X.7*%
%ADD14R,.6X.5*%
%ADD12R,1.6X1.8*%
%ADD10C,6.35*%
%LPD*%
G75*
G54D10*
X330000Y330000D03*
Y9670000D03*
X14020000Y330000D03*
Y9670000D03*
G54D11*
X410000Y6370000D03*
Y6650000D03*
X670000Y6370000D03*
Y6650000D03*
G54D20*
X3213800Y6350000D03*
X3366200D03*
X3213800Y6670000D03*
X3366200D03*
X3213800Y6950000D03*
X3366200D03*
X3213800Y7260000D03*
X3366200D03*
X5070000Y9613800D03*
X4890000D03*
X5250000D03*
X5070000Y9766200D03*
X4890000D03*
X5250000D03*
G54D12*
X410000Y7170000D03*
X690000D03*
X1450000D03*
X1070000D03*
G54D21*
X3210000Y6200000D03*
G54D22*
X3285000Y7540000D03*
X3195000D03*
G54D13*
X415000Y7736000D03*
Y7944000D03*
G54D14*
X730000Y2245000D03*
Y2335000D03*
X850000Y2245000D03*
Y2335000D03*
X610000Y5885000D03*
X730000D03*
X610000Y6175000D03*
Y6085000D03*
Y5975000D03*
X730000D03*
X880000Y6945000D03*
Y6855000D03*
X1410000Y2335000D03*
Y2245000D03*
X1480000Y2515000D03*
Y2605000D03*
X1780000Y2245000D03*
Y2335000D03*
X1660000Y2245000D03*
Y2335000D03*
X1780000Y2515000D03*
Y2605000D03*
X1960000Y2515000D03*
Y2605000D03*
X1660000Y2515000D03*
Y2605000D03*
X1760000Y5885000D03*
X2020000D03*
X1760000Y5975000D03*
X1880000Y6095000D03*
Y6185000D03*
X2020000Y6095000D03*
Y6185000D03*
X1760000D03*
Y6095000D03*
X2020000Y5975000D03*
X2350000Y2245000D03*
Y2335000D03*
X2470000Y2245000D03*
Y2335000D03*
X2940000D03*
Y2245000D03*
X3110000Y2515000D03*
Y2605000D03*
X3290000Y2245000D03*
Y2335000D03*
X3410000Y2245000D03*
Y2335000D03*
X3290000Y2515000D03*
Y2605000D03*
X3590000Y2515000D03*
Y2605000D03*
X3410000Y2515000D03*
Y2605000D03*
X4100000Y2245000D03*
Y2335000D03*
X3980000Y2245000D03*
Y2335000D03*
X4660000D03*
Y2245000D03*
X4740000Y2515000D03*
Y2605000D03*
X5040000Y2245000D03*
Y2335000D03*
X4920000Y2245000D03*
Y2335000D03*
Y2515000D03*
Y2605000D03*
X5040000Y2515000D03*
Y2605000D03*
X5220000Y2515000D03*
Y2605000D03*
X4890000Y9395000D03*
Y9485000D03*
X5250000Y9395000D03*
Y9485000D03*
X5070000Y9395000D03*
Y9485000D03*
X5610000Y2245000D03*
Y2335000D03*
X5730000Y2245000D03*
Y2335000D03*
X6180000D03*
Y2245000D03*
X6370000Y2515000D03*
Y2605000D03*
X6210000Y9395000D03*
Y9485000D03*
X6090000Y9395000D03*
Y9485000D03*
X6550000Y2245000D03*
Y2335000D03*
X6670000Y2245000D03*
Y2335000D03*
X6550000Y2515000D03*
Y2605000D03*
X6850000Y2515000D03*
Y2605000D03*
X6670000Y2515000D03*
Y2605000D03*
X7240000Y2245000D03*
Y2335000D03*
X7360000Y2245000D03*
Y2335000D03*
X7190000Y9395000D03*
Y9485000D03*
X7380000Y9395000D03*
Y9485000D03*
X7500000Y9395000D03*
Y9485000D03*
X7070000Y9395000D03*
Y9485000D03*
X7930000Y2335000D03*
Y2245000D03*
X8000000Y2515000D03*
Y2605000D03*
X8300000Y2245000D03*
Y2335000D03*
X8180000Y2245000D03*
Y2335000D03*
X8300000Y2515000D03*
Y2605000D03*
X8480000Y2515000D03*
Y2605000D03*
X8180000Y2515000D03*
Y2605000D03*
X8880000Y2245000D03*
Y2335000D03*
X9000000Y2245000D03*
Y2335000D03*
X9430000D03*
Y2245000D03*
X9630000Y2515000D03*
Y2605000D03*
X9470000Y9485000D03*
Y9395000D03*
X9810000Y2245000D03*
Y2335000D03*
X9930000Y2245000D03*
Y2335000D03*
X9810000Y2515000D03*
Y2605000D03*
X10110000Y2515000D03*
Y2605000D03*
X9930000Y2515000D03*
Y2605000D03*
X10510000Y2245000D03*
Y2335000D03*
X10630000Y2245000D03*
Y2335000D03*
X11180000D03*
Y2245000D03*
X11260000Y2515000D03*
Y2605000D03*
X11310000Y8835000D03*
Y8745000D03*
X10950000Y9455000D03*
Y9545000D03*
X11560000Y2245000D03*
Y2335000D03*
X11440000Y2245000D03*
Y2335000D03*
X11560000Y2515000D03*
Y2605000D03*
X11740000Y2515000D03*
Y2605000D03*
X11440000Y2515000D03*
Y2605000D03*
X11430000Y8835000D03*
Y8745000D03*
X11830000Y9235000D03*
Y9365000D03*
X12130000Y2245000D03*
Y2335000D03*
X12250000Y2245000D03*
Y2335000D03*
X12050000Y9365000D03*
Y9235000D03*
X12690000Y2335000D03*
Y2245000D03*
X12890000Y2515000D03*
Y2605000D03*
X13070000Y2245000D03*
Y2335000D03*
X13190000Y2245000D03*
Y2335000D03*
X13070000Y2515000D03*
Y2605000D03*
X13370000Y2515000D03*
Y2605000D03*
X13190000Y2515000D03*
Y2605000D03*
G54D23*
X5655960Y9652170D03*
X6095960D03*
X6630000D03*
X7070000D03*
G54D15*
X990000Y6309080D03*
Y6436080D03*
Y6563080D03*
Y6690080D03*
X1530000Y6436080D03*
Y6309080D03*
Y6690080D03*
Y6563080D03*
G54D24*
X11125000Y9280000D03*
Y9330000D03*
Y9380000D03*
Y9430000D03*
Y9480000D03*
X11615000D03*
Y9430000D03*
Y9380000D03*
Y9330000D03*
Y9280000D03*
G54D25*
X11330000Y8950000D03*
Y9110000D03*
X11410000Y8950000D03*
Y9110000D03*
G54D16*
X800000Y7835000D03*
G54D17*
X1260000Y6500080D03*
G54D26*
X11940000Y9070000D03*
Y8770000D03*
G54D18*
X1800000Y6800000D03*
X2840000D03*
G54D27*
X11830000Y9300000D03*
X12050000D03*
G54D19*
X2058780Y8150000D03*
Y7670000D03*
X2738780Y8150000D03*
Y7670000D03*
M02*
