G04 ================== begin FILE IDENTIFICATION RECORD ==================*
G04 Layout Name:  IEM608_V10_211216.brd*
G04 Film Name:    TOP*
G04 File Format:  Gerber RS274X*
G04 File Origin:  Cadence Allegro 17.2-S071*
G04 Origin Date:  Fri Dec 17 14:36:10 2021*
G04 *
G04 Layer:  VIA CLASS/TOP*
G04 Layer:  PIN/TOP*
G04 Layer:  ETCH/TOP*
G04 *
G04 Offset:    (0.0000 0.0000)*
G04 Mirror:    No*
G04 Mode:      Positive*
G04 Rotation:  0*
G04 FullContactRelief:  No*
G04 UndefLineWidth:     0.1524*
G04 ================== end FILE IDENTIFICATION RECORD ====================*
%FSLAX55Y55*MOMM*%
%IR0*IPPOS*OFA0.00000B0.00000*MIA0B0*SFA1.00000B1.00000*%
%ADD32R,1.2X.3*%
%ADD18R,1.5X.6*%
%ADD27C,.75*%
%ADD26R,.8X.8*%
%ADD11C,.6096*%
%ADD22O,4.X2.*%
%ADD20O,2.X4.*%
%ADD30R,1.4X1.2*%
%ADD34R,2.5X1.*%
%ADD21R,2.4X3.1*%
%ADD19R,5.X5.*%
%ADD14R,1.4X1.5*%
%ADD24R,2.6X3.2*%
%ADD35R,.6X.4*%
%ADD28R,.5X.6*%
%ADD23R,2.5X3.5*%
%ADD12R,1.8X1.6*%
%ADD33R,.5X.7*%
%ADD17R,.6X.5*%
%ADD13R,1.6X1.8*%
%ADD29C,1.3*%
%ADD36C,3.3*%
%ADD16C,2.5*%
%ADD15C,1.6*%
%ADD25C,6.4*%
%ADD37R,1.3X1.3*%
%ADD31C,1.65*%
%ADD10C,6.35*%
%ADD38C,.2032*%
%ADD39C,.254*%
%ADD40C,.508*%
%ADD41C,.762*%
%ADD42C,1.27*%
%ADD43C,1.2004*%
G75*
%LPD*%
G75*
G36*
G01X850000Y9950000D02*
X12080000D01*
X12160000Y9870000D01*
Y9411440D01*
G02X12142660Y9404260I-10159J5D01*
G01X12142390Y9404530D01*
G03X12114880Y9419590I-39520J-39535D01*
G03X12080000Y9435740I-34880J-29591D01*
G01X12020000D01*
G03X11986280Y9420900I0J-45730D01*
G01X11893720D01*
G03X11860000Y9435740I-33720J-30890D01*
G01X11800000D01*
G03X11766260Y9420890I-5J-45742D01*
G03X11765000Y9420900I-1074J-55891D01*
G03X11747440Y9418070I0J-55894D01*
G02X11720740Y9437360I-6380J19292D01*
G01Y9445000D01*
G03X11719630Y9455000I-45738J-15D01*
G03X11720740Y9465000I-44628J10015D01*
G01Y9495000D01*
G03X11675000Y9540740I-45740J0D01*
G01X11555000D01*
G03X11509260Y9495000I0J-45740D01*
G01Y9465000D01*
G03X11510370Y9455000I45738J15D01*
G03X11509260Y9445000I44628J-10015D01*
G01Y9415000D01*
G03X11519340Y9386360I45727J0D01*
G02Y9373640I-7927J-6360D01*
G03X11509260Y9345000I35647J-28640D01*
G01Y9315000D01*
G03X11510370Y9305000I45738J15D01*
G03X11509260Y9295000I44628J-10015D01*
G01Y9265000D01*
G03X11555000Y9219260I45740J0D01*
G01X11675000D01*
G03X11693620Y9223220I3J45741D01*
G01X11695590Y9224100D01*
X11706840D01*
X11735460Y9195470D01*
G03X11765560Y9179900I39526J39531D01*
G03X11772560Y9173400I34455J30086D01*
G02X11777180Y9145720I-12186J-16260D01*
G03X11769260Y9120000I37818J-25725D01*
G01Y9020000D01*
G03X11815000Y8974260I45740J0D01*
G01X12065000D01*
G03X12110740Y9020000I0J45740D01*
G01Y9120000D01*
G03X12102820Y9145720I-45738J-5D01*
G02X12107440Y9173400I16806J11420D01*
G03X12114880Y9180410I-27451J36588D01*
G03X12142390Y9195470I-12010J54595D01*
G01X12142660Y9195740D01*
G02X12160000Y9188560I7181J-7185D01*
G01Y8820000D01*
X12250000Y8730000D01*
X13024300D01*
G02X13044560Y8708180I-3J-20319D01*
G03X13044260Y8700000I110441J-8146D01*
G03X13083420Y8615500I110748J0D01*
G02Y8584500I-13135J-15500D01*
G03X13044260Y8500000I71588J-84500D01*
G03X13265740I110740J0D01*
G03X13265040Y8512480I-110743J48D01*
G01X13264970Y8513050D01*
Y8523780D01*
X13280260D01*
G03X13319790Y8540150I0J55913D01*
G01X13363910Y8584270D01*
G03X13380280Y8623800I-39543J39530D01*
G01Y8730000D01*
X13960000D01*
X14130000Y8560000D01*
Y2230000D01*
X14070000Y2170000D01*
X13556530D01*
X13397760Y2328770D01*
G02X13403260Y2361420I14371J14367D01*
G03X13446220Y2430000I-33259J68580D01*
G03X13437970Y2464490I-76220J0D01*
G03X13445740Y2490000I-37972J25504D01*
G01Y2630000D01*
G03X13400000Y2675740I-45740J0D01*
G01X13356220D01*
Y3735560D01*
G03X13339850Y3775090I-55913J0D01*
G01X13275410Y3839530D01*
G03X13235880Y3855900I-39530J-39543D01*
G01X9053150D01*
X8844760Y4064290D01*
Y4099270D01*
G03X8954440Y4210000I-1055J110730D01*
G03X8915280Y4294500I-110748J0D01*
G02Y4325500I13135J15500D01*
G03X8954440Y4410000I-71588J84500D01*
G03X8843700Y4520740I-110740J0D01*
G03X8759200Y4481580I0J-110748D01*
G02X8728200I-15500J13135D01*
G03X8559200I-84500J-71588D01*
G02X8528200I-15500J13135D01*
G03X8359200I-84500J-71588D01*
G02X8328200I-15500J13135D01*
G03X8159200I-84500J-71588D01*
G02X8128200I-15500J13135D01*
G03X7959200I-84500J-71588D01*
G02X7928200I-15500J13135D01*
G03X7759200I-84500J-71588D01*
G02X7728200I-15500J13135D01*
G03X7559200I-84500J-71588D01*
G02X7528200I-15500J13135D01*
G03X7359200I-84500J-71588D01*
G02X7328200I-15500J13135D01*
G03X7159200I-84500J-71588D01*
G02X7128200I-15500J13135D01*
G03X7043700Y4520740I-84500J-71588D01*
G03X6932960Y4410000I0J-110740D01*
G03X6935330Y4387200I110741J-12D01*
G01X6936460Y4381820D01*
X6908690Y4354050D01*
G03X6892320Y4314520I39543J-39530D01*
G01Y4010250D01*
G03X6893280Y3999910I55902J-24D01*
G01X6893460Y3998980D01*
Y3259990D01*
X6400150Y2766690D01*
G03X6383780Y2727160I39543J-39530D01*
G01Y2675740D01*
X6340000D01*
G03X6294260Y2630000I0J-45740D01*
G01Y2526830D01*
G02X6268470Y2507260I-20318J-2D01*
G03X6253420Y2509320I-15036J-53842D01*
G01X6093420D01*
G03X6053890Y2492950I0J-55913D01*
G01X6009750Y2448810D01*
G03X5993380Y2409280I39543J-39530D01*
G01Y2170000D01*
X5819020D01*
G02X5800860Y2199450I-5J20321D01*
G03X5805740Y2220000I-40858J20557D01*
G01Y2360000D01*
G03X5760000Y2405740I-45740J0D01*
G01X5700000D01*
G03X5696060Y2405570I0J-45743D01*
G02X5685170Y2417380I-872J10122D01*
G03X5686220Y2430000I-75171J12608D01*
G03X5533780I-76220J0D01*
G03X5538260Y2404250I76221J-4D01*
G01X5538860Y2402580D01*
Y2380100D01*
X5538020Y2378170D01*
G03X5534260Y2360000I41982J-18162D01*
G01Y2220000D01*
G03X5539140Y2199450I45738J7D01*
G02X5520980Y2170000I-18155J-9129D01*
G01X5426660D01*
X5426540Y2180040D01*
G03X5410170Y2218890I-55899J-680D01*
G01X5277680Y2351370D01*
G02X5276880Y2379270I14366J14373D01*
G03X5296220Y2430000I-56878J50735D01*
G03X5287970Y2464490I-76220J0D01*
G03X5295740Y2490000I-37972J25504D01*
G01Y2630000D01*
G03X5250000Y2675740I-45740J0D01*
G01X5206220D01*
Y2696210D01*
X5214110Y2704100D01*
X6180000D01*
G03X6219530Y2720470I0J55913D01*
G01X6620170Y3121110D01*
G03X6636540Y3160640I-39543J39530D01*
G01Y4089140D01*
G02X6646450Y4099290I10158J-5D01*
G03X6754440Y4210000I-2754J110710D01*
G03X6715280Y4294500I-110748J0D01*
G02Y4325500I13135J15500D01*
G03X6754440Y4410000I-71588J84500D01*
G03X6643700Y4520740I-110740J0D01*
G03X6559200Y4481580I0J-110748D01*
G02X6528200I-15500J13135D01*
G03X6359200I-84500J-71588D01*
G02X6328200I-15500J13135D01*
G03X6159200I-84500J-71588D01*
G02X6128200I-15500J13135D01*
G03X5959200I-84500J-71588D01*
G02X5928200I-15500J13135D01*
G03X5759200I-84500J-71588D01*
G02X5728200I-15500J13135D01*
G03X5643700Y4520740I-84500J-71588D01*
G03X5532960Y4410000I0J-110740D01*
G03X5535330Y4387200I110741J-12D01*
G01X5536460Y4381820D01*
X5508690Y4354050D01*
G03X5492320Y4314520I39543J-39530D01*
G01Y3863790D01*
X5484430Y3855900D01*
X1633800D01*
G03X1594270Y3839530I0J-55913D01*
G01X1509830Y3755090D01*
G03X1493460Y3715560I39543J-39530D01*
G01Y2692510D01*
X1476690Y2675740D01*
X1450000D01*
G03X1404260Y2630000I0J-45740D01*
G01Y2490000D01*
G03X1412030Y2464490I45742J-6D01*
G03X1403780Y2430000I67970J-34490D01*
G03X1474710Y2353960I76224J0D01*
G02X1493620Y2333690I-1408J-20270D01*
G01Y2327050D01*
G02X1463060Y2309500I-20320J2D01*
G03X1440000Y2315740I-23060J-39489D01*
G01X1417550D01*
X1417050Y2315790D01*
G03X1410000Y2316140I-7048J-70790D01*
G03X1402950Y2315790I-2J-71140D01*
G01X1402450Y2315740D01*
X1380000D01*
G03X1334260Y2270000I0J-45740D01*
G01Y2220000D01*
G03X1334750Y2213320I45740J-3D01*
G01X1334860Y2212580D01*
Y2170000D01*
X939020D01*
G02X920860Y2199450I-5J20321D01*
G03X925740Y2220000I-40858J20557D01*
G01Y2360000D01*
G03X880000Y2405740I-45740J0D01*
G01X820000D01*
G03X816060Y2405570I0J-45743D01*
G02X805170Y2417380I-872J10122D01*
G03X806220Y2430000I-75171J12608D01*
G03X801740Y2455750I-76221J4D01*
G01X801140Y2457420D01*
Y5400530D01*
X869470Y5468860D01*
X3120000D01*
G03X3170300Y5489700I-6J71137D01*
G01X3270300Y5589700D01*
G03X3291140Y5640000I-50297J50306D01*
G01Y6116450D01*
X3315740Y6141050D01*
Y7348950D01*
X3265740Y7398950D01*
Y8061050D01*
X3288950Y8084260D01*
X3880560D01*
G02X3899070Y8055580I-8J-20318D01*
G03X3889260Y8010000I100932J-45569D01*
G03X3928420Y7925500I110748J0D01*
G02Y7894500I-13135J-15500D01*
G03Y7725500I71588J-84500D01*
G02Y7694500I-13135J-15500D01*
G03Y7525500I71588J-84500D01*
G02Y7494500I-13135J-15500D01*
G03Y7325500I71588J-84500D01*
G02Y7294500I-13135J-15500D01*
G03Y7125500I71588J-84500D01*
G02Y7094500I-13135J-15500D01*
G03Y6925500I71588J-84500D01*
G02Y6894500I-13135J-15500D01*
G03Y6725500I71588J-84500D01*
G02Y6694500I-13135J-15500D01*
G03Y6525500I71588J-84500D01*
G02Y6494500I-13135J-15500D01*
G03Y6325500I71588J-84500D01*
G02Y6294500I-13135J-15500D01*
G03Y6125500I71588J-84500D01*
G02Y6094500I-13135J-15500D01*
G03Y5925500I71588J-84500D01*
G02Y5894500I-13135J-15500D01*
G03Y5725500I71588J-84500D01*
G02Y5694500I-13135J-15500D01*
G03Y5525500I71588J-84500D01*
G02Y5494500I-13135J-15500D01*
G03Y5325500I71588J-84500D01*
G02Y5294500I-13135J-15500D01*
G03Y5125500I71588J-84500D01*
G02Y5094500I-13135J-15500D01*
G03X3889260Y5010000I71588J-84500D01*
G03X4000000Y4899260I110740J0D01*
G03X4084500Y4938420I0J110748D01*
G02X4115500I15500J-13135D01*
G03X4200000Y4899260I84500J71588D01*
G03X4310740Y5010000I0J110740D01*
G03X4271580Y5094500I-110748J0D01*
G02Y5125500I13135J15500D01*
G03Y5294500I-71588J84500D01*
G02Y5325500I13135J15500D01*
G03Y5494500I-71588J84500D01*
G02Y5525500I13135J15500D01*
G03Y5694500I-71588J84500D01*
G02Y5725500I13135J15500D01*
G03Y5894500I-71588J84500D01*
G02Y5925500I13135J15500D01*
G03Y6094500I-71588J84500D01*
G02Y6125500I13135J15500D01*
G03Y6294500I-71588J84500D01*
G02Y6325500I13135J15500D01*
G03Y6494500I-71588J84500D01*
G02Y6525500I13135J15500D01*
G03Y6694500I-71588J84500D01*
G02Y6725500I13135J15500D01*
G03Y6894500I-71588J84500D01*
G02Y6925500I13135J15500D01*
G03Y7094500I-71588J84500D01*
G02Y7125500I13135J15500D01*
G03Y7294500I-71588J84500D01*
G02Y7325500I13135J15500D01*
G03Y7494500I-71588J84500D01*
G02Y7525500I13135J15500D01*
G03Y7694500I-71588J84500D01*
G02Y7725500I13135J15500D01*
G03Y7894500I-71588J84500D01*
G02Y7925500I13135J15500D01*
G03X4310740Y8010000I-71588J84500D01*
G03X4300930Y8055580I-110742J11D01*
G02X4319440Y8084260I18518J8362D01*
G01X5298950D01*
X5385740Y8171050D01*
Y8495100D01*
G02X5415830Y8512910I20318J-5D01*
G03X5469100Y8499260I53263J97092D01*
G03X5553600Y8538420I0J110748D01*
G02X5584600I15500J-13135D01*
G03X5753600I84500J71588D01*
G02X5784600I15500J-13135D01*
G03X5953600I84500J71588D01*
G02X5984600I15500J-13135D01*
G03X6153600I84500J71588D01*
G02X6184600I15500J-13135D01*
G03X6269100Y8499260I84500J71588D01*
G03X6379840Y8610000I0J110740D01*
G03X6340680Y8694500I-110748J0D01*
G02Y8725500I13135J15500D01*
G03X6353600Y8738420I-71580J84500D01*
G02X6384600I15500J-13135D01*
G03X6469100Y8699260I84500J71588D01*
G03Y8920740I0J110740D01*
G03X6384600Y8881580I0J-110748D01*
G02X6353600I-15500J13135D01*
G03X6184600I-84500J-71588D01*
G02X6153600I-15500J13135D01*
G03X6125000Y8905600I-84502J-71577D01*
G01Y9145950D01*
X6153150Y9174100D01*
X6930000D01*
G03X6969530Y9190470I0J55913D01*
G01X7026200Y9247150D01*
X7032910Y9243410D01*
G03X7070000Y9233780I37085J66591D01*
G03X7146220Y9310000I0J76220D01*
G03X7137970Y9344490I-76220J0D01*
G03X7145740Y9370000I-37972J25504D01*
G01Y9404250D01*
G02X7156650Y9414380I10159J-1D01*
G03X7160000Y9414260I3311J45621D01*
G01X7220000D01*
G03X7265740Y9460000I0J45740D01*
G01Y9510000D01*
G03X7220000Y9555740I-45740J0D01*
G01X7204070D01*
G02X7184360Y9581020I-5J20320D01*
G03X7185740Y9592170I-44354J11150D01*
G01Y9712170D01*
G03X7140000Y9757910I-45740J0D01*
G01X7032260D01*
G02X7015250Y9789340I1J20318D01*
G03X7025020Y9822170I-50252J32823D01*
G03X6904980I-60020J0D01*
G03X6948320Y9764510I60026J0D01*
G02X6960310Y9734900I-5646J-19519D01*
G03X6954260Y9712170I39689J-22734D01*
G01Y9592170D01*
G03X6984150Y9549260I45746J0D01*
G02X6996450Y9523990I-7045J-19057D01*
G03X6994260Y9510000I43551J-13984D01*
G01Y9489240D01*
X6950470Y9445460D01*
G03X6934100Y9405930I39543J-39530D01*
G01Y9313150D01*
X6906850Y9285900D01*
X6186470D01*
G02X6166160Y9307020I-5J20320D01*
G03X6166220Y9310000I-76159J3024D01*
G03X6157970Y9344490I-76220J0D01*
G03X6165740Y9370000I-37972J25504D01*
G01Y9404250D01*
G02X6176650Y9414380I10159J-1D01*
G03X6180000Y9414260I3311J45621D01*
G01X6240000D01*
G03X6285740Y9460000I0J45740D01*
G01Y9510000D01*
G03X6240000Y9555740I-45740J0D01*
G01X6230030D01*
G02X6210320Y9581020I-5J20320D01*
G03X6211700Y9592170I-44354J11150D01*
G01Y9712170D01*
G03X6165960Y9757910I-45740J0D01*
G01X6058220D01*
G02X6041210Y9789340I1J20318D01*
G03X6050980Y9822170I-50252J32823D01*
G03X5930940I-60020J0D01*
G03X5974280Y9764510I60026J0D01*
G02X5986270Y9734900I-5646J-19519D01*
G03X5980220Y9712170I39689J-22734D01*
G01Y9592170D01*
G03X6006500Y9550780I45734J0D01*
G02X6016970Y9525500I-8648J-18390D01*
G03X6014260Y9510000I43028J-15510D01*
G01Y9503320D01*
X5930470Y9419540D01*
G03X5914100Y9380010I39543J-39530D01*
G01Y8938710D01*
G02X5889950Y8918760I-20320J5D01*
G03X5869100Y8920740I-20847J-108760D01*
G03X5784600Y8881580I0J-110748D01*
G02X5753600I-15500J13135D01*
G03X5725000Y8905600I-84502J-71577D01*
G01Y9000900D01*
G03X5708630Y9040430I-55913J0D01*
G01X5385900Y9363150D01*
Y9686200D01*
G03X5369530Y9725730I-55913J0D01*
G01X5335740Y9759510D01*
Y9806200D01*
G03X5290000Y9851940I-45740J0D01*
G01X5210000D01*
G03X5175380Y9836090I0J-45734D01*
G02X5144620I-15380J13283D01*
G03X5110000Y9851940I-34620J-29884D01*
G01X5030000D01*
G03X4984260Y9806200I0J-45740D01*
G01Y9710470D01*
G02X4953500Y9693040I-20320J3D01*
G03X4930000Y9699540I-23500J-39231D01*
G01X4850000D01*
G03X4804260Y9653800I0J-45740D01*
G01Y9573800D01*
G03X4822990Y9536880I45753J0D01*
G03X4814260Y9510000I37017J-26880D01*
G01Y9370000D01*
G03X4822030Y9344490I45742J-6D01*
G03X4813780Y9310000I67970J-34490D01*
G03X4966220I76220J0D01*
G03X4966060Y9314930I-76220J-6D01*
G02X4986340Y9336560I20278J1310D01*
G01X5008790D01*
G03X5040000Y9324260I31210J33446D01*
G01X5104100D01*
Y9270000D01*
G03X5120470Y9230470I55913J0D01*
G01X5414890Y8936050D01*
G02X5411160Y8904370I-14368J-14368D01*
G03X5388430Y8885870I57925J-94383D01*
G02X5359260Y8885420I-14803J13920D01*
G01X5318950Y8925740D01*
X5221050D01*
X5154260Y8858950D01*
Y8518950D01*
X5121050Y8485740D01*
X2661050D01*
X2564260Y8388950D01*
Y8320550D01*
X2564040Y8319500D01*
G03X2563040Y8310000I44739J-9512D01*
G01Y7990000D01*
G03X2564040Y7980500I45739J12D01*
G01X2564260Y7979450D01*
Y7840550D01*
X2564040Y7839500D01*
G03X2563040Y7830000I44739J-9512D01*
G01Y7510000D01*
G03X2564040Y7500500I45739J12D01*
G01X2564260Y7499450D01*
Y6240900D01*
X2083720D01*
G03X2050000Y6255740I-33720J-30890D01*
G01X1990000D01*
G03X1962300Y6246400I0J-45745D01*
G02X1937700I-12300J16173D01*
G03X1910000Y6255740I-27700J-36405D01*
G01X1850000D01*
G03X1840460Y6254730I19J-45738D01*
G02X1815900Y6274610I-4239J19874D01*
G01Y6370000D01*
G03X1799530Y6409530I-55913J0D01*
G01X1733450Y6475610D01*
G03X1693920Y6491980I-39530J-39543D01*
G01X1642700D01*
G03X1605000Y6511820I-37700J-25899D01*
G01X1455000D01*
G03X1409260Y6466080I0J-45740D01*
G01Y6406080D01*
G03X1418380Y6378670I45750J0D01*
G02Y6366490I-8130J-6090D01*
G03X1409260Y6339080I36630J-27410D01*
G01Y6279080D01*
G03X1455000Y6233340I45740J0D01*
G01X1554100D01*
Y5830000D01*
G03X1570470Y5790470I55913J0D01*
G01X1610470Y5750470D01*
G03X1650000Y5734100I39530J39543D01*
G01X1910000D01*
G03X1949530Y5750470I0J55913D01*
G01X1979530Y5780470D01*
G03X1995900Y5820000I-39543J39530D01*
G01Y5876850D01*
X2023310Y5904260D01*
X2050000D01*
G03X2095740Y5950000I0J45740D01*
G01Y6000000D01*
G03X2085660Y6028640I-45727J0D01*
G02Y6041360I7927J6360D01*
G03X2095740Y6070000I-35647J28640D01*
G01Y6129100D01*
X2586210D01*
X2621050Y6094260D01*
X3148860D01*
Y5669470D01*
X3090530Y5611140D01*
X840000D01*
G03X789700Y5590300I0J-71123D01*
G01X679700Y5480300D01*
G03X658860Y5430000I50297J-50306D01*
G01Y2457420D01*
X658260Y2455750D01*
G03X653780Y2430000I71741J-25746D01*
G03X658260Y2404250I76221J-4D01*
G01X658860Y2402580D01*
Y2380100D01*
X658020Y2378170D01*
G03X654260Y2360000I41982J-18162D01*
G01Y2220000D01*
G03X659140Y2199450I45738J7D01*
G02X640980Y2170000I-18155J-9129D01*
G01X340000D01*
X210000Y2300000D01*
Y9180000D01*
X290000Y9260000D01*
X660000D01*
X760000Y9360000D01*
Y9860000D01*
X850000Y9950000D01*
G37*
G36*
G01X1690000Y2264260D02*
G03X1720000Y2275470I0J45748D01*
G03X1750000Y2264260I30000J34538D01*
G01X1810000D01*
G03X1832640Y2270260I-6J45738D01*
G01X1839370Y2274090D01*
X1908780Y2204690D01*
G02X1894410Y2170000I-14369J-14369D01*
G01X1646060D01*
Y2264260D01*
X1690000D01*
G37*
G36*
G01X5844760Y4099270D02*
G03X5860670Y4100570I-1040J110733D01*
G02X5884100Y4080490I3110J-20081D01*
G01Y3610630D01*
X5739370Y3465900D01*
X3244120D01*
G03X3204590Y3449530I0J-55913D01*
G01X3140150Y3385090D01*
G03X3123780Y3345560I39543J-39530D01*
G01Y2675740D01*
X3080000D01*
G03X3034260Y2630000I0J-45740D01*
G01Y2516220D01*
G02X3013900Y2495900I-20320J0D01*
G01X2850000D01*
G03X2810470Y2479530I0J-55913D01*
G01X2750470Y2419530D01*
G03X2734100Y2380000I39543J-39530D01*
G01Y2170000D01*
X2559020D01*
G02X2540860Y2199450I-5J20321D01*
G03X2545740Y2220000I-40858J20557D01*
G01Y2360000D01*
G03X2500000Y2405740I-45740J0D01*
G01X2440000D01*
G03X2436060Y2405570I0J-45743D01*
G02X2425170Y2417380I-872J10122D01*
G03X2426220Y2430000I-75171J12608D01*
G03X2273780I-76220J0D01*
G03X2278260Y2404250I76221J-4D01*
G01X2278860Y2402580D01*
Y2380100D01*
X2278020Y2378170D01*
G03X2274260Y2360000I41982J-18162D01*
G01Y2220000D01*
G03X2279140Y2199450I45738J7D01*
G02X2260980Y2170000I-18155J-9129D01*
G01X2159050D01*
X1995860Y2333190D01*
G02X1999660Y2364910I14372J14366D01*
G03X2036220Y2430000I-39662J65090D01*
G03X2027970Y2464490I-76220J0D01*
G03X2035740Y2490000I-37972J25504D01*
G01Y2630000D01*
G03X1990000Y2675740I-45740J0D01*
G01X1953310D01*
X1945900Y2683150D01*
Y3505570D01*
X1953790Y3513460D01*
X5689360D01*
G03X5728890Y3529830I0J55913D01*
G01X5828390Y3629330D01*
G03X5844760Y3668860I-39543J39530D01*
G01Y4099270D01*
G37*
G36*
G01X5644760D02*
G03X5667610Y4101870I-1027J110734D01*
G02X5692320Y4082030I4391J-19839D01*
G01Y3708850D01*
X5649370Y3665900D01*
X1913800D01*
G03X1874270Y3649530I0J-55913D01*
G01X1809830Y3585090D01*
G03X1793460Y3545560I39543J-39530D01*
G01Y2697510D01*
X1771690Y2675740D01*
X1750000D01*
G03X1720000Y2664530I0J-45748D01*
G03X1690000Y2675740I-30000J-34538D01*
G01X1668310D01*
X1645900Y2698150D01*
Y3675570D01*
X1673790Y3703460D01*
X5524420D01*
G03X5563950Y3719830I0J55913D01*
G01X5628390Y3784270D01*
G03X5644760Y3823800I-39543J39530D01*
G01Y4099270D01*
G37*
G36*
G01X1919650Y6115290D02*
G02X1944260Y6095430I4290J-19862D01*
G01Y6070000D01*
G03X1954340Y6041360I45727J0D01*
G02Y6028640I-7927J-6360D01*
G03X1944260Y6000000I35647J-28640D01*
G01Y5983310D01*
X1900470Y5939530D01*
G03X1884100Y5900000I39543J-39530D01*
G01Y5845900D01*
X1673150D01*
X1665900Y5853150D01*
Y5900530D01*
G02X1699690Y5915750I20321J4D01*
G03X1730000Y5904260I30316J34248D01*
G01X1790000D01*
G03X1835740Y5950000I0J45740D01*
G01Y6000000D01*
G03X1825660Y6028640I-45727J0D01*
G02Y6041360I7927J6360D01*
G03X1835740Y6070000I-35647J28640D01*
G01Y6104250D01*
G02X1846650Y6114380I10159J-1D01*
G03X1850000Y6114260I3311J45621D01*
G01X1910000D01*
G03X1919650Y6115290I-2J45740D01*
G37*
G36*
G01X3191630Y2288870D02*
X3207610Y2304860D01*
X3216360Y2296110D01*
X3217140Y2294040D01*
G03X3260000Y2264260I42860J15953D01*
G01X3320000D01*
G03X3350000Y2275470I0J45748D01*
G03X3380000Y2264260I30000J34538D01*
G01X3440000D01*
G03X3461310Y2269530I-5J45739D01*
G01X3467930Y2273010D01*
X3536260Y2204690D01*
G02X3521890Y2170000I-14369J-14369D01*
G01X3104310D01*
X3101710Y2176270D01*
G03X3086300Y2199300I-65697J-27289D01*
G01X3015890Y2269710D01*
X3015610Y2273470D01*
G03X3015280Y2276440I-45600J-3563D01*
G02X3031890Y2285650I10060J1439D01*
G03X3067900Y2272500I36016J42748D01*
G01X3152100D01*
G03X3191630Y2288870I0J55913D01*
G37*
G36*
G01X3214260Y7510000D02*
G03X3218960Y7489810I45739J5D01*
G01X3220000Y7487690D01*
Y7380000D01*
X3270000Y7330000D01*
Y6160000D01*
X3250000Y6140000D01*
X2640000D01*
X2610000Y6170000D01*
Y8370000D01*
X2680000Y8440000D01*
X5140000D01*
X5200000Y8500000D01*
Y8840000D01*
X5240000Y8880000D01*
X5300000D01*
X5340000Y8840000D01*
Y8190000D01*
X5280000Y8130000D01*
X3270000D01*
X3220000Y8080000D01*
Y7592310D01*
X3218960Y7590190D01*
G03X3214260Y7570000I41039J-20195D01*
G01Y7510000D01*
G37*
G36*
G01X6260670Y4100570D02*
G02X6284100Y4080490I3110J-20081D01*
G01Y3350630D01*
X5999370Y3065900D01*
X4903480D01*
G03X4863950Y3049530I0J-55913D01*
G01X4770150Y2955730D01*
G03X4753780Y2916200I39543J-39530D01*
G01Y2675740D01*
X4710000D01*
G03X4664260Y2630000I0J-45740D01*
G01Y2490000D01*
G03X4672030Y2464490I45742J-6D01*
G03X4663780Y2430000I67970J-34490D01*
G03X4734840Y2353960I76215J0D01*
G02X4753780Y2333680I-1381J-20274D01*
G01Y2319750D01*
G02X4720090Y2304450I-20319J1D01*
G03X4690000Y2315740I-30090J-34453D01*
G01X4667550D01*
X4667050Y2315790D01*
G03X4660000Y2316140I-7048J-70790D01*
G03X4652950Y2315790I-2J-71140D01*
G01X4652450Y2315740D01*
X4630000D01*
G03X4584260Y2270000I0J-45740D01*
G01Y2220000D01*
G03X4592930Y2193200I45742J-5D01*
G01X4594860Y2190540D01*
Y2170000D01*
X4189020D01*
G02X4170860Y2199450I-5J20321D01*
G03X4175740Y2220000I-40858J20557D01*
G01Y2360000D01*
G03X4130000Y2405740I-45740J0D01*
G01X4070000D01*
G03X4066060Y2405570I0J-45743D01*
G02X4055170Y2417380I-872J10122D01*
G03X4056220Y2430000I-75171J12608D01*
G03X3903780I-76220J0D01*
G03X3908260Y2404250I76221J-4D01*
G01X3908860Y2402580D01*
Y2380100D01*
X3908020Y2378170D01*
G03X3904260Y2360000I41982J-18162D01*
G01Y2220000D01*
G03X3909140Y2199450I45738J7D01*
G02X3890980Y2170000I-18155J-9129D01*
G01X3785640D01*
G03X3780170Y2176370I-45025J-33130D01*
G01X3624290Y2332250D01*
G02X3628410Y2364170I14364J14372D01*
G03X3666220Y2430000I-38402J65830D01*
G03X3657970Y2464490I-76220J0D01*
G03X3665740Y2490000I-37972J25504D01*
G01Y2630000D01*
G03X3620000Y2675740I-45740J0D01*
G01X3576220D01*
Y3056200D01*
X3633480Y3113460D01*
X5899360D01*
G03X5938890Y3129830I0J55913D01*
G01X6220170Y3411110D01*
G03X6236540Y3450640I-39543J39530D01*
G01Y4089140D01*
G02X6246450Y4099290I10158J-5D01*
G03X6260670Y4100570I-2797J110705D01*
G37*
G36*
G01X6046450Y4099290D02*
G03X6060670Y4100570I-2797J110705D01*
G02X6084100Y4080490I3110J-20081D01*
G01Y3490630D01*
X5859370Y3265900D01*
X3593490D01*
G03X3553960Y3249530I0J-55913D01*
G01X3440150Y3135720D01*
G03X3423780Y3096190I39543J-39530D01*
G01Y2675740D01*
X3380000D01*
G03X3350000Y2664530I0J-45748D01*
G03X3320000Y2675740I-30000J-34538D01*
G01X3276220D01*
Y3305570D01*
X3284110Y3313460D01*
X5779360D01*
G03X5818890Y3329830I0J55913D01*
G01X6020170Y3531110D01*
G03X6036540Y3570640I-39543J39530D01*
G01Y4089140D01*
G02X6046450Y4099290I10158J-5D01*
G37*
G36*
G01X5070000Y2264260D02*
G03X5103940Y2279340I0J45734D01*
G02X5133380Y2280080I15072J-13627D01*
G01X5208780Y2204690D01*
G02X5194410Y2170000I-14369J-14369D01*
G01X4906220D01*
Y2264260D01*
X4950000D01*
G03X4980000Y2275470I0J45748D01*
G03X5010000Y2264260I30000J34538D01*
G01X5070000D01*
G37*
G36*
G01X6446450Y4099290D02*
G03X6460670Y4100570I-2797J110705D01*
G02X6484100Y4080490I3110J-20081D01*
G01Y3200630D01*
X6140010Y2856540D01*
X5174120D01*
G03X5134590Y2840170I0J-55913D01*
G01X5070150Y2775730D01*
G03X5053780Y2736200I39543J-39530D01*
G01Y2675740D01*
X5010000D01*
G03X4980000Y2664530I0J-45748D01*
G03X4950000Y2675740I-30000J-34538D01*
G01X4906220D01*
Y2876210D01*
X4943470Y2913460D01*
X6039360D01*
G03X6078890Y2929830I0J55913D01*
G01X6420170Y3271110D01*
G03X6436540Y3310640I-39543J39530D01*
G01Y4089140D01*
G02X6446450Y4099290I10158J-5D01*
G37*
G36*
G01X6255890Y2269710D02*
X6255610Y2273470D01*
G03X6250060Y2292080I-45610J-3469D01*
G01X6246370Y2298760D01*
X6258960Y2311350D01*
X6281430Y2288870D01*
G03X6320960Y2272500I39530J39543D01*
G01X6412100D01*
G03X6451630Y2288870I0J55913D01*
G01X6467610Y2304860D01*
X6476360Y2296110D01*
X6477140Y2294040D01*
G03X6520000Y2264260I42860J15953D01*
G01X6580000D01*
G03X6610000Y2275470I0J45748D01*
G03X6640000Y2264260I30000J34538D01*
G01X6685720D01*
X6688370Y2258130D01*
G03X6700150Y2240790I51311J22187D01*
G01X6736260Y2204690D01*
G02X6721890Y2170000I-14369J-14369D01*
G01X6354140D01*
G03X6346300Y2179300I-58112J-41034D01*
G01X6255890Y2269710D01*
G37*
G36*
G01X7260670Y4100570D02*
G02X7284100Y4080490I3110J-20081D01*
G01Y3410010D01*
G03X7300470Y3370480I55913J0D01*
G01X7977870Y2693080D01*
G02X7970690Y2675740I-7185J-7181D01*
G01X7970000D01*
G03X7924260Y2630000I0J-45740D01*
G01Y2490000D01*
G03X7932030Y2464490I45742J-6D01*
G03X7923780Y2430000I67970J-34490D01*
G03X7994840Y2353960I76215J0D01*
G02X8013780Y2333680I-1381J-20274D01*
G01Y2326960D01*
G02X7983170Y2309440I-20319J0D01*
G03X7960000Y2315740I-23166J-39441D01*
G01X7937550D01*
X7937050Y2315790D01*
G03X7930000Y2316140I-7048J-70790D01*
G03X7922950Y2315790I-2J-71140D01*
G01X7922450Y2315740D01*
X7900000D01*
G03X7854260Y2270000I0J-45740D01*
G01Y2220000D01*
G03X7854750Y2213320I45740J-3D01*
G01X7854860Y2212580D01*
Y2170000D01*
X7449020D01*
G02X7430860Y2199450I-5J20321D01*
G03X7435740Y2220000I-40858J20557D01*
G01Y2263860D01*
X7457580D01*
X7459250Y2263260D01*
G03X7485000Y2258780I25746J71741D01*
G03Y2411220I0J76220D01*
G03X7459250Y2406740I-4J-76221D01*
G01X7457580Y2406140D01*
X7162420D01*
X7160750Y2406740D01*
G03X7135000Y2411220I-25746J-71741D01*
G03Y2258780I0J-76220D01*
G03X7142060Y2259110I-25J76219D01*
G02X7164260Y2238880I1880J-20233D01*
G01Y2220000D01*
G03X7169140Y2199450I45738J7D01*
G02X7150980Y2170000I-18155J-9129D01*
G01X6986530D01*
X6836220Y2320310D01*
Y2333680D01*
G02X6855160Y2353960I20321J6D01*
G03X6926220Y2430000I-5155J76040D01*
G03X6917970Y2464490I-76220J0D01*
G03X6925740Y2490000I-37972J25504D01*
G01Y2630000D01*
G03X6880000Y2675740I-45740J0D01*
G01X6836220D01*
Y2719690D01*
X7228390Y3111850D01*
G03X7244760Y3151380I-39543J39530D01*
G01Y4099270D01*
G03X7260670Y4100570I-1040J110733D01*
G37*
G36*
G01X7045900Y4098900D02*
X7055020Y4099840D01*
G03X7067610Y4101870I-11304J110163D01*
G02X7092320Y4082030I4391J-19839D01*
G01Y3191370D01*
X6700150Y2799210D01*
G03X6683780Y2759680I39543J-39530D01*
G01Y2675740D01*
X6640000D01*
G03X6610000Y2664530I0J-45748D01*
G03X6580000Y2675740I-30000J-34538D01*
G01X6573850D01*
G02X6559480Y2710430I-1J20321D01*
G01X7029530Y3180470D01*
G03X7045900Y3220000I-39543J39530D01*
G01Y4098900D01*
G37*
G36*
G01X7446450Y4099290D02*
G03X7459970Y4100460I-2770J110708D01*
G02X7483280Y4080360I2991J-20098D01*
G01Y3510810D01*
G03X7499650Y3471280I55913J0D01*
G01X8277850Y2693080D01*
G02X8270670Y2675740I-7185J-7181D01*
G01X8270000D01*
G03X8240000Y2664530I0J-45748D01*
G03X8210000Y2675740I-30000J-34538D01*
G01X8164980D01*
Y2698410D01*
G03X8148610Y2737940I-55913J0D01*
G01X7436540Y3450000D01*
Y4089140D01*
G02X7446450Y4099290I10158J-5D01*
G37*
G36*
G01X7645700Y4099280D02*
G03X7660670Y4100570I-2000J110721D01*
G02X7684100Y4080490I3110J-20081D01*
G01Y3610000D01*
G03X7700470Y3570470I55913J0D01*
G01X8590470Y2680470D01*
G03X8630000Y2664100I39530J39543D01*
G01X9535390D01*
G02X9555270Y2639540I6J-20321D01*
G03X9554260Y2630000I44728J-9559D01*
G01Y2532360D01*
G02X9527560Y2513070I-20320J2D01*
G03X9510000Y2515900I-17560J-53064D01*
G01X9350000D01*
G03X9310470Y2499530I0J-55913D01*
G01X9266330Y2455390D01*
G03X9249960Y2415860I39543J-39530D01*
G01Y2170000D01*
X9089020D01*
G02X9070860Y2199450I-5J20321D01*
G03X9075740Y2220000I-40858J20557D01*
G01Y2360000D01*
G03X9030000Y2405740I-45740J0D01*
G01X8970000D01*
G03X8966060Y2405570I0J-45743D01*
G02X8955170Y2417380I-872J10122D01*
G03X8956220Y2430000I-75171J12608D01*
G03X8803780I-76220J0D01*
G03X8808260Y2404250I76221J-4D01*
G01X8808860Y2402580D01*
Y2380100D01*
X8808020Y2378170D01*
G03X8804260Y2360000I41982J-18162D01*
G01Y2220000D01*
G03X8809140Y2199450I45738J7D01*
G02X8790980Y2170000I-18155J-9129D01*
G01X8676660D01*
X8676540Y2180040D01*
G03X8660170Y2218890I-55899J-680D01*
G01X8532780Y2346270D01*
G02X8533020Y2375240I14370J14367D01*
G03X8556220Y2430000I-53026J54760D01*
G03X8547970Y2464490I-76220J0D01*
G03X8555740Y2490000I-37972J25504D01*
G01Y2630000D01*
G03X8510000Y2675740I-45740J0D01*
G01X8464970D01*
Y2698400D01*
G03X8448600Y2737930I-55913J0D01*
G01X7635720Y3550800D01*
Y4089120D01*
G02X7645700Y4099280I10160J1D01*
G37*
G36*
G01X7846450Y4099290D02*
G03X7867610Y4101870I-2761J110708D01*
G02X7892320Y4082030I4391J-19839D01*
G01Y3691780D01*
G03X7908690Y3652250I55913J0D01*
G01X8670470Y2890470D01*
G03X8710000Y2874100I39530J39543D01*
G01X9935890D01*
X9943780Y2866210D01*
Y2675740D01*
X9900000D01*
G03X9870000Y2664530I0J-45748D01*
G03X9840000Y2675740I-30000J-34538D01*
G01X9792780D01*
Y2696200D01*
G03X9776410Y2735730I-55913J0D01*
G01X9711970Y2800170D01*
G03X9672440Y2816540I-39530J-39543D01*
G01X8669990D01*
X7836540Y3649990D01*
Y4089140D01*
G02X7846450Y4099290I10158J-5D01*
G37*
G36*
G01X8330000Y2264260D02*
G03X8360470Y2275880I6J45742D01*
G02X8388370Y2275100I13537J-15153D01*
G01X8458780Y2204690D01*
G02X8444410Y2170000I-14369J-14369D01*
G01X8166220D01*
Y2264260D01*
X8210000D01*
G03X8240000Y2275470I0J45748D01*
G03X8270000Y2264260I30000J34538D01*
G01X8330000D01*
G37*
G36*
G01X8244760Y4099270D02*
G03X8267610Y4101870I-1027J110734D01*
G02X8292320Y4082030I4391J-19839D01*
G01Y3871780D01*
G03X8308690Y3832250I55913J0D01*
G01X8821110Y3319830D01*
G03X8860640Y3303460I39530J39543D01*
G01X11565890D01*
X11573780Y3295570D01*
Y2675740D01*
X11530000D01*
G03X11500000Y2664530I0J-45748D01*
G03X11470000Y2675740I-30000J-34538D01*
G01X11426220D01*
Y3126200D01*
G03X11409850Y3165730I-55913J0D01*
G01X11345410Y3230170D01*
G03X11305880Y3246540I-39530J-39543D01*
G01X8829990D01*
X8244760Y3831770D01*
Y4099270D01*
G37*
G36*
G01X8067610Y4101870D02*
G02X8092320Y4082030I4391J-19839D01*
G01Y3791780D01*
G03X8108690Y3752250I55913J0D01*
G01X8750470Y3110470D01*
G03X8790000Y3094100I39530J39543D01*
G01X11265890D01*
X11273780Y3086210D01*
Y2675740D01*
X11230000D01*
G03X11184260Y2630000I0J-45740D01*
G01Y2490000D01*
G03X11192030Y2464490I45742J-6D01*
G03X11183780Y2430000I67970J-34490D01*
G03X11254710Y2353960I76224J0D01*
G02X11273620Y2333690I-1408J-20270D01*
G01Y2319890D01*
G02X11239980Y2304540I-20321J-3D01*
G03X11210000Y2315740I-29985J-34538D01*
G01X11187550D01*
X11187050Y2315790D01*
G03X11180000Y2316140I-7048J-70790D01*
G03X11172950Y2315790I-2J-71140D01*
G01X11172450Y2315740D01*
X11150000D01*
G03X11104260Y2270000I0J-45740D01*
G01Y2220000D01*
G03X11112930Y2193200I45742J-5D01*
G01X11114860Y2190540D01*
Y2170000D01*
X10719020D01*
G02X10700860Y2199450I-5J20321D01*
G03X10705740Y2220000I-40858J20557D01*
G01Y2360000D01*
G03X10660000Y2405740I-45740J0D01*
G01X10600000D01*
G03X10596060Y2405570I0J-45743D01*
G02X10585170Y2417380I-872J10122D01*
G03X10586220Y2430000I-75171J12608D01*
G03X10433780I-76220J0D01*
G03X10438260Y2404250I76221J-4D01*
G01X10438860Y2402580D01*
Y2380100D01*
X10438020Y2378170D01*
G03X10434260Y2360000I41982J-18162D01*
G01Y2220000D01*
G03X10439140Y2199450I45738J7D01*
G02X10420980Y2170000I-18155J-9129D01*
G01X10286530D01*
X10130810Y2325730D01*
G02X10137770Y2359020I14366J14369D01*
G03X10186220Y2430000I-27768J70980D01*
G03X10177970Y2464490I-76220J0D01*
G03X10185740Y2490000I-37972J25504D01*
G01Y2630000D01*
G03X10140000Y2675740I-45740J0D01*
G01X10096220D01*
Y2906200D01*
G03X10079850Y2945730I-55913J0D01*
G01X10015410Y3010170D01*
G03X9975880Y3026540I-39530J-39543D01*
G01X8749990D01*
X8044760Y3731770D01*
Y4099270D01*
G03X8067610Y4101870I-1027J110734D01*
G37*
G36*
G01X8444760Y4099270D02*
G03X8460670Y4100570I-1040J110733D01*
G02X8484100Y4080490I3110J-20081D01*
G01Y3950010D01*
G03X8500470Y3910480I55913J0D01*
G01X8881120Y3529830D01*
G03X8920650Y3513460I39530J39543D01*
G01X12895890D01*
X12903780Y3505570D01*
Y2675740D01*
X12860000D01*
G03X12814260Y2630000I0J-45740D01*
G01Y2516830D01*
G02X12788470Y2497260I-20318J-2D01*
G03X12773420Y2499320I-15036J-53842D01*
G01X12614120D01*
G03X12574590Y2482950I0J-55913D01*
G01X12530470Y2438830D01*
G03X12514100Y2399300I39543J-39530D01*
G01Y2170000D01*
X12339020D01*
G02X12320860Y2199450I-5J20321D01*
G03X12325740Y2220000I-40858J20557D01*
G01Y2263860D01*
X12362580D01*
X12364250Y2263260D01*
G03X12390000Y2258780I25746J71741D01*
G03Y2411220I0J76220D01*
G03X12364250Y2406740I-4J-76221D01*
G01X12362580Y2406140D01*
X12250000D01*
G03X12242950Y2405790I-2J-71140D01*
G01X12242450Y2405740D01*
X12220000D01*
G03X12190000Y2394530I0J-45748D01*
G03X12160000Y2405740I-30000J-34538D01*
G01X12137550D01*
X12137050Y2405790D01*
G03X12130000Y2406140I-7048J-70790D01*
G01X12062420D01*
X12060750Y2406740D01*
G03X12035000Y2411220I-25746J-71741D01*
G03X11958780Y2335000I0J-76220D01*
G03X12034160Y2258780I76225J0D01*
G02X12054260Y2238470I-218J-20317D01*
G01Y2220000D01*
G03X12059140Y2199450I45738J7D01*
G02X12040980Y2170000I-18155J-9129D01*
G01X11936540D01*
Y2186840D01*
G03X11920170Y2226370I-55913J0D01*
G01X11796480Y2350050D01*
G02X11795940Y2378230I14368J14370D01*
G03X11816220Y2430000I-55938J51770D01*
G03X11807970Y2464490I-76220J0D01*
G03X11815740Y2490000I-37972J25504D01*
G01Y2630000D01*
G03X11770000Y2675740I-45740J0D01*
G01X11726220D01*
Y3335560D01*
G03X11709850Y3375090I-55913J0D01*
G01X11645410Y3439530D01*
G03X11605880Y3455900I-39530J-39543D01*
G01X8900630D01*
X8444760Y3911770D01*
Y4099270D01*
G37*
G36*
G01X8646450Y4099290D02*
G03X8667610Y4101870I-2761J110708D01*
G02X8692320Y4082030I4391J-19839D01*
G01Y4024300D01*
G03X8708690Y3984770I55913J0D01*
G01X8973630Y3719830D01*
G03X9013160Y3703460I39530J39543D01*
G01X13195890D01*
X13203780Y3695570D01*
Y2675740D01*
X13160000D01*
G03X13130000Y2664530I0J-45748D01*
G03X13100000Y2675740I-30000J-34538D01*
G01X13056220D01*
Y3545560D01*
G03X13039850Y3585090I-55913J0D01*
G01X12975410Y3649530D01*
G03X12935880Y3665900I-39530J-39543D01*
G01X8960640D01*
X8636540Y3990000D01*
Y4089140D01*
G02X8646450Y4099290I10158J-5D01*
G37*
G36*
G01X9402400Y2363460D02*
X9470010D01*
X9544590Y2288870D01*
G03X9584120Y2272500I39530J39543D01*
G01X9695240D01*
G03X9729370Y2284130I0J55895D01*
G02X9743640Y2282240I6194J-8052D01*
G03X9780000Y2264260I36354J27763D01*
G01X9840000D01*
G03X9870000Y2275470I0J45748D01*
G03X9900000Y2264260I30000J34538D01*
G01X9960000D01*
G03X9969260Y2265210I-14J45739D01*
G01X9974630Y2266320D01*
X10036260Y2204690D01*
G02X10021890Y2170000I-14369J-14369D01*
G01X9605610D01*
X9505890Y2269710D01*
X9505610Y2273470D01*
G03X9460000Y2315740I-45610J-3472D01*
G01X9437550D01*
X9437050Y2315790D01*
G03X9430000Y2316140I-7048J-70790D01*
G03X9422950Y2315790I-2J-71140D01*
G01X9422450Y2315740D01*
X9402400D01*
Y2363460D01*
G37*
G36*
G01X11590000Y2264260D02*
G03X11623100Y2278430I0J45744D01*
G02X11652170Y2278770I14701J-14025D01*
G01X11726260Y2204690D01*
G02X11711890Y2170000I-14369J-14369D01*
G01X11426060D01*
Y2264260D01*
X11470000D01*
G03X11500000Y2275470I0J45748D01*
G03X11530000Y2264260I30000J34538D01*
G01X11590000D01*
G37*
G36*
G01X12765890Y2269710D02*
X12765610Y2273470D01*
G03X12760060Y2292080I-45610J-3469D01*
G01X12756370Y2298760D01*
X12768960Y2311350D01*
X12791430Y2288870D01*
G03X12830960Y2272500I39530J39543D01*
G01X12935240D01*
G03X12974770Y2288870I0J55913D01*
G01X12988510Y2302610D01*
X12997090Y2294030D01*
X12997870Y2292200D01*
G03X13040000Y2264260I42130J17793D01*
G01X13100000D01*
G03X13130000Y2275470I0J45748D01*
G03X13160000Y2264260I30000J34538D01*
G01X13220000D01*
G03X13235640Y2267020I-8J45739D01*
G01X13241720Y2269230D01*
X13306260Y2204690D01*
G02X13291890Y2170000I-14369J-14369D01*
G01X12865610D01*
X12765890Y2269710D01*
G37*
%LPC*%
G75*
G36*
G01X1611050Y6614260D02*
X1394260D01*
Y6711050D01*
X1314260Y6791050D01*
Y7315740D01*
X1938950D01*
X1975740Y7278950D01*
Y6574260D01*
X1651050D01*
X1611050Y6614260D01*
G37*
G36*
G01X4972120Y4294500D02*
G03Y4325500I-13135J15500D01*
G02X4932960Y4410000I71588J84500D01*
G02X5154440I110740J0D01*
G02X5115280Y4325500I-110748J0D01*
G03Y4294500I13135J-15500D01*
G02X5154440Y4210000I-71588J-84500D01*
G02X4932960I-110740J0D01*
G02X4972120Y4294500I110748J0D01*
G37*
G36*
G01X11769260Y8720000D02*
Y8820000D01*
G02X11815000Y8865740I45740J0D01*
G01X12065000D01*
G02X12110740Y8820000I0J-45740D01*
G01Y8787830D01*
X12314730Y8583840D01*
X12797930D01*
X12800900Y8588730D01*
G02X12840000Y8610740I39100J-23725D01*
G01X12970000D01*
G02X13015740Y8565000I0J-45740D01*
G01Y8435000D01*
G02X12970000Y8389260I-45740J0D01*
G01X12840000D01*
G02X12800900Y8411270I0J45735D01*
G01X12797930Y8416160D01*
X12280000D01*
G02X12220720Y8440720I7J83837D01*
G01X11987170Y8674260D01*
X11815000D01*
G02X11769260Y8720000I0J45740D01*
G37*
G36*
G01X616120Y8756770D02*
G02X614260Y8780000I143882J23210D01*
G01Y8980000D01*
G02X905740I145740J0D01*
G01Y8780000D01*
G02X905230Y8767770I-145742J-48D01*
G03X925470Y8745740I20246J-1712D01*
G01X1418950D01*
X1495740Y8668950D01*
Y8461050D01*
X1115740Y8081050D01*
Y7531050D01*
X825740Y7241050D01*
Y7034260D01*
X571050D01*
X563080Y7042230D01*
G03X545740Y7035050I-7181J-7186D01*
G01Y6818950D01*
X588950Y6775740D01*
X798950D01*
X806760Y6767930D01*
G03X824100Y6775110I7181J7186D01*
G01Y6792300D01*
G02X804260Y6830000I25899J37700D01*
G01Y6970000D01*
G02X850000Y7015740I45740J0D01*
G01X910000D01*
G02X933750Y7009090I0J-45736D01*
G02X975000Y7021220I41254J-64089D01*
G02X1051220Y6945000I0J-76220D01*
G02X975840Y6868780I-76225J0D01*
G03X955740Y6848470I218J-20317D01*
G01Y6830000D01*
G02X935900Y6792300I-45739J0D01*
G01Y6773150D01*
X943230Y6765820D01*
X1065000D01*
G02X1110740Y6720080I0J-45740D01*
G01Y6660080D01*
G02X1110610Y6656660I-45739J26D01*
G01X1110580Y6656280D01*
Y6645740D01*
X1115740D01*
Y6484260D01*
X1110160D01*
Y6473370D01*
X1110270Y6472640D01*
G02X1110740Y6466080I-45271J-6540D01*
G01Y6406080D01*
G02X1101620Y6378670I-45750J0D01*
G03Y6366490I8130J-6090D01*
G02X1110740Y6339080I-36630J-27410D01*
G01Y6279080D01*
G02X1065000Y6233340I-45740J0D01*
G01X975900D01*
Y6165000D01*
G02X959530Y6125470I-55913J0D01*
G01X805740Y5971690D01*
Y5950000D01*
G02X760000Y5904260I-45740J0D01*
G01X700000D01*
G02X670000Y5915470I0J45748D01*
G02X640000Y5904260I-30000J34538D01*
G01X580000D01*
G02X534260Y5950000I0J45740D01*
G01Y6000000D01*
G02X545470Y6030000I45748J0D01*
G02X534260Y6060000I34538J30000D01*
G01Y6200000D01*
G02X580000Y6245740I45740J0D01*
G01X640000D01*
G02X673720Y6230900I0J-45730D01*
G01X741850D01*
X774100Y6263150D01*
Y6484260D01*
X311050D01*
X254260Y6541050D01*
Y7305740D01*
X504260D01*
Y8638950D01*
X616950Y8751640D01*
X616120Y8756770D01*
G37*
G36*
G01X7465470Y9649530D02*
G02X7505000Y9665900I39530J-39543D01*
G01X10610000D01*
G02X10649530Y9649530I0J-55913D01*
G01X10795460Y9503600D01*
X10802640Y9510380D01*
G02X10855000Y9531220I52368J-55377D01*
G02X10896250Y9519090I-4J-76219D01*
G02X10920000Y9525740I23750J-39086D01*
G01X10980000D01*
G02X11003410Y9519300I7J-45742D01*
G03X11029550Y9523910I10398J17455D01*
G02X11065000Y9540740I35450J-28920D01*
G01X11185000D01*
G02X11230740Y9495000I0J-45740D01*
G01Y9465000D01*
G02X11229630Y9455000I-45738J15D01*
G02X11230730Y9445870I-44630J-10008D01*
G01X11230920Y9435900D01*
X11300000D01*
G02X11339530Y9419530I0J-55913D01*
G01X11449530Y9309530D01*
G02X11465900Y9270000I-39543J-39530D01*
G01Y9178720D01*
G02X11480740Y9145000I-30890J-33720D01*
G01Y9075000D01*
G02X11468490Y9043840I-45742J-5D01*
G03Y9016160I14872J-13840D01*
G02X11480740Y8985000I-33492J-31155D01*
G01Y8915000D01*
G02X11478770Y8901710I-45742J-11D01*
G02X11505740Y8860000I-18768J-41710D01*
G01Y8720000D01*
G02X11460000Y8674260I-45740J0D01*
G01X11400000D01*
G02X11370000Y8685470I0J45748D01*
G02X11340000Y8674260I-30000J34538D01*
G01X11280000D01*
G02X11248790Y8686560I0J45746D01*
G01X11173930D01*
G02X11125000Y8668780I-48930J58437D01*
G02X11048780Y8745000I0J76220D01*
G02X11066560Y8793930I76217J0D01*
G01Y9218470D01*
X11057960Y9219800D01*
G02X11019270Y9264130I7043J45196D01*
G01X11019080Y9274100D01*
X10819280D01*
G02X10779750Y9290470I0J55913D01*
G01X10566130Y9504100D01*
X9545740D01*
Y9370000D01*
G02X9525900Y9332300I-45739J0D01*
G01Y8905060D01*
G02X9579840Y8810000I-56793J-95060D01*
G02X9469100Y8699260I-110740J0D01*
G02X9384600Y8738420I0J110748D01*
G03X9353600I-15500J-13135D01*
G02X9340680Y8725500I-84500J71580D01*
G03Y8694500I13135J-15500D01*
G02X9379840Y8610000I-71588J-84500D01*
G02X9269100Y8499260I-110740J0D01*
G02X9184600Y8538420I0J110748D01*
G03X9153600I-15500J-13135D01*
G02X8984600I-84500J71588D01*
G03X8953600I-15500J-13135D01*
G02X8784600I-84500J71588D01*
G03X8753600I-15500J-13135D01*
G02X8584600I-84500J71588D01*
G03X8553600I-15500J-13135D01*
G02X8384600I-84500J71588D01*
G03X8353600I-15500J-13135D01*
G02X8184600I-84500J71588D01*
G03X8153600I-15500J-13135D01*
G02X7984600I-84500J71588D01*
G03X7953600I-15500J-13135D01*
G02X7869100Y8499260I-84500J71588D01*
G02X7758360Y8610000I0J110740D01*
G02X7797520Y8694500I110748J0D01*
G03Y8725500I-13135J15500D01*
G02X7758360Y8810000I71588J84500D01*
G02X7869100Y8920740I110740J0D01*
G02X7953600Y8881580I0J-110748D01*
G03X7984600I15500J13135D01*
G02X8153600I84500J-71588D01*
G03X8184600I15500J13135D01*
G02X8353600I84500J-71588D01*
G03X8384600I15500J13135D01*
G02X8553600I84500J-71588D01*
G03X8584600I15500J13135D01*
G02X8753600I84500J-71588D01*
G03X8784600I15500J13135D01*
G02X8953600I84500J-71588D01*
G03X8984600I15500J13135D01*
G02X9153600I84500J-71588D01*
G03X9184600I15500J13135D01*
G02X9353600I84500J-71588D01*
G03X9384600I15500J13135D01*
G02X9414100Y8906120I84500J-71578D01*
G01Y9332300D01*
G02X9394260Y9370000I25899J37700D01*
G01Y9388470D01*
G03X9374160Y9408780I-20318J-7D01*
G02X9298790Y9484040I844J76216D01*
G03X9278470Y9504100I-20319J-261D01*
G01X7598150D01*
X7575740Y9481690D01*
Y9370000D01*
G02X7555900Y9332300I-45739J0D01*
G01Y8878770D01*
G02X7579840Y8810000I-86804J-68770D01*
G02X7540680Y8725500I-110748J0D01*
G03Y8694500I13135J-15500D01*
G02X7579840Y8610000I-71588J-84500D01*
G02X7358360I-110740J0D01*
G02X7360730Y8632800I110741J12D01*
G01X7361860Y8638180D01*
X7334090Y8665950D01*
G02X7317720Y8705480I39543J39530D01*
G01Y9337590D01*
G02X7304260Y9370000I32290J32410D01*
G01Y9510000D01*
G02X7350000Y9555740I45740J0D01*
G01X7371690D01*
X7465470Y9649530D01*
G37*
G54D43*
X6735000Y9822170D03*
X5760960D03*
%LPD*%
G75*
G36*
G01X910000Y6600000D02*
X1070000D01*
Y6530000D01*
X330000D01*
X300000Y6560000D01*
Y7260000D01*
X490000D01*
X500000Y7250000D01*
Y6800000D01*
X570000Y6730000D01*
X780000D01*
X910000Y6600000D01*
G37*
G36*
G01X881820Y8700000D02*
X1400000D01*
X1450000Y8650000D01*
Y8480000D01*
X1070000Y8100000D01*
Y7550000D01*
X780000Y7260000D01*
Y7080000D01*
X590000D01*
X550000Y7120000D01*
Y8620000D01*
X618060Y8688060D01*
G02X648040Y8686700I14369J-14368D01*
G03X760000Y8634260I111960J93298D01*
G03X881820Y8700000I0J145740D01*
G37*
G36*
G01X1440000Y6730000D02*
X1360000Y6810000D01*
Y7270000D01*
X1920000D01*
X1930000Y7260000D01*
Y6620000D01*
X1670000D01*
X1630000Y6660000D01*
X1440000D01*
Y6730000D01*
G37*
G54D10*
X330000Y330000D03*
Y9670000D03*
X14020000Y330000D03*
Y9670000D03*
G54D20*
X760000Y8880000D03*
G54D11*
X386550Y5544170D03*
Y5844170D03*
Y6144170D03*
X390710Y8409610D03*
Y8109610D03*
Y9009610D03*
Y8709610D03*
X730000Y2430000D03*
X562020Y2868330D03*
Y3368330D03*
X594520Y4309160D03*
Y5309160D03*
Y4809160D03*
X975000Y6945000D03*
X880000Y7070000D03*
Y7150000D03*
Y7230000D03*
X1300000Y2200000D03*
Y2430000D03*
X1480000D03*
X1460000Y2710000D03*
Y3090000D03*
Y3480000D03*
X1204520Y4339160D03*
Y5339160D03*
Y4839160D03*
X1180000Y6390000D03*
X1260000D03*
X1340000D03*
X1180000Y6290000D03*
X1260000D03*
X1340000D03*
X1180000Y6180000D03*
X1260000D03*
X1340000D03*
X1180000Y6070000D03*
X1260000D03*
X1340000D03*
X1260000Y6500080D03*
X1180000Y6610000D03*
X1260000D03*
X1333660D03*
X1180000Y6500000D03*
X1340000D03*
Y6720000D03*
X1260000D03*
X1180000D03*
X1270000Y6850000D03*
X1190000D03*
X1110000D03*
X1376550Y7884170D03*
Y7584170D03*
Y8184170D03*
X1870000Y2220000D03*
X1960000Y2430000D03*
X1780000D03*
X1660000D03*
X1720000Y2710000D03*
X1980000D03*
Y3090000D03*
X1720000D03*
X1980000Y3480000D03*
X1720000D03*
X1980000Y3680000D03*
X1750000Y3890000D03*
X1980000D03*
X1704520Y4339160D03*
Y5339160D03*
Y4839160D03*
X1880000Y6000000D03*
X1605000Y6945000D03*
X1676550Y7884170D03*
Y7584170D03*
Y8184170D03*
X1907030Y8872900D03*
Y9372900D03*
X2170000Y2430000D03*
Y2220000D03*
X2350000Y2430000D03*
X2360000Y3480000D03*
Y3680000D03*
Y3890000D03*
X2204520Y4339160D03*
Y5339160D03*
Y4839160D03*
Y5839160D03*
X2291970Y6800840D03*
Y6500840D03*
Y7400840D03*
Y7100840D03*
Y8000840D03*
Y7700840D03*
X2407030Y8872900D03*
Y9372900D03*
X2640000Y2220000D03*
X3170000Y2210000D03*
X3110000Y2430000D03*
X3090000Y3090000D03*
Y2710000D03*
X2730000Y3480000D03*
X3140000D03*
X2730000Y3680000D03*
X3140000D03*
X2730000Y3890000D03*
X3140000D03*
X2704520Y4339160D03*
Y5339160D03*
Y4839160D03*
Y5839160D03*
X2907030Y8872900D03*
Y9372900D03*
X3590000Y2430000D03*
X3410000D03*
X3290000D03*
X3350000Y3090000D03*
X3630000Y3050000D03*
X3610000Y2710000D03*
X3350000D03*
X3580000Y3480000D03*
Y3680000D03*
X3204520Y4339160D03*
Y5339160D03*
Y4839160D03*
X3406550Y6224170D03*
X3706550D03*
X3406550Y6524170D03*
Y6824170D03*
X3706550Y6524170D03*
Y6824170D03*
X3406550Y7134170D03*
Y7434170D03*
X3706550Y7134170D03*
Y7434170D03*
X3406550Y7734170D03*
X3706550D03*
X3407030Y8872900D03*
Y9372900D03*
X3830000Y2210000D03*
X3980000Y2430000D03*
X3960000Y3090000D03*
Y3480000D03*
Y3680000D03*
Y3290000D03*
X4740000Y2430000D03*
X4720000Y2710000D03*
X5130000Y2250000D03*
X4920000Y2430000D03*
X5040000D03*
X5220000D03*
X5160000Y3090000D03*
X4990000Y2710000D03*
X4920000Y3090000D03*
X5160000Y3290000D03*
Y3490000D03*
Y3680000D03*
X4920000Y3290000D03*
Y3490000D03*
Y3680000D03*
X5330000Y3890000D03*
X4920000Y3880000D03*
X5180360Y4956650D03*
Y5456650D03*
Y5956650D03*
Y6956650D03*
Y6456650D03*
Y7456650D03*
X4890000Y9310000D03*
X5250000D03*
X5470000Y2260000D03*
X5610000Y2430000D03*
X5530000Y3090000D03*
X5540000Y2680000D03*
X5530000Y2890000D03*
X5790000Y3560000D03*
X5530000Y3290000D03*
X5460000Y4050000D03*
X5670000D03*
X5860000D03*
X5630000Y3730000D03*
X5860000Y3810000D03*
X5680360Y4956650D03*
Y5456650D03*
Y5956650D03*
Y6956650D03*
Y6456650D03*
Y7456650D03*
Y8236650D03*
X6370000Y2200000D03*
X5960000D03*
Y2470000D03*
X6260000Y2540000D03*
X6370000Y2430000D03*
X6280000Y3080000D03*
X5960000Y2670000D03*
X5970000Y2890000D03*
X5940000Y3410000D03*
X6110000Y3240000D03*
X6260000Y3510000D03*
X6060000Y4050000D03*
X6260000D03*
X6060000Y3810000D03*
X6260000D03*
X6180360Y4956650D03*
Y5456650D03*
Y5956650D03*
Y6956650D03*
Y6456650D03*
Y7456650D03*
Y8236650D03*
X6090000Y9310000D03*
X6960000Y2430000D03*
X6850000D03*
X6670000D03*
X6550000D03*
X6460000Y2900000D03*
X6630000Y2730000D03*
X6910000D03*
X6660000Y3130000D03*
X6880000Y3010000D03*
X6460000Y3510000D03*
X6660000Y3520000D03*
X6870000D03*
X6460000Y4050000D03*
X6660000D03*
X6870000D03*
X6460000Y3810000D03*
X6660000D03*
X6870000D03*
X6680360Y4956650D03*
Y5456650D03*
Y5956650D03*
Y6956650D03*
Y6456650D03*
Y7456650D03*
Y8236650D03*
X7000000Y2200000D03*
X7135000Y2335000D03*
X7485000D03*
X7070000Y2900000D03*
X7260000Y3170000D03*
X7460000D03*
X7070000Y3520000D03*
X7260000D03*
X7460000D03*
X7070000Y4050000D03*
X7260000D03*
X7460000D03*
X7070000Y3810000D03*
X7260000D03*
X7460000D03*
X7180360Y4956650D03*
Y5456650D03*
Y5956650D03*
Y6956650D03*
Y6456650D03*
Y7456650D03*
Y8236650D03*
X7070000Y9310000D03*
X7880000Y2430000D03*
X8000000D03*
X7730000Y2900000D03*
X7930000Y2700000D03*
X7760000Y3170000D03*
X8030000Y2900000D03*
X7710000Y3520000D03*
X8000000D03*
X8050000Y3180000D03*
X7660000Y4050000D03*
X7860000D03*
X7660000Y3810000D03*
X7860000D03*
X7680360Y4956650D03*
Y5456650D03*
Y5956650D03*
Y6956650D03*
Y6456650D03*
Y7456650D03*
Y8236650D03*
X7681130Y9252080D03*
X7773260Y9723320D03*
X8390000Y2200000D03*
X8300000Y2430000D03*
X8480000D03*
X8180000D03*
X8220000Y2700000D03*
X8330000Y2900000D03*
X8520000Y2700000D03*
X8300000Y3520000D03*
X8590000D03*
X8350000Y3180000D03*
X8070000Y4050000D03*
X8270000D03*
X8460000D03*
X8070000Y3810000D03*
X8300000D03*
X8580000D03*
X8180360Y4956650D03*
Y5456650D03*
Y5956650D03*
Y6956650D03*
Y6456650D03*
Y7456650D03*
X8181130Y9252080D03*
X8273260Y9723320D03*
X8680000Y2200000D03*
X8670000Y2430000D03*
X8880000D03*
X8910000Y3060000D03*
X8620000Y2900000D03*
X8910000Y2850000D03*
Y2630000D03*
Y3490000D03*
Y3280000D03*
X8630000Y3190000D03*
X8660000Y4050000D03*
X8900000D03*
X8850000Y3810000D03*
X8680360Y4956650D03*
Y5456650D03*
Y5956650D03*
Y6956650D03*
Y6456650D03*
Y7456650D03*
X8681130Y9252080D03*
X8773260Y9723320D03*
X9210000Y2200000D03*
X9200000Y2430000D03*
X9640000Y2230000D03*
X9630000Y2430000D03*
X9280000Y2630000D03*
Y2850000D03*
Y3060000D03*
X9520000Y2630000D03*
X9280000Y3680000D03*
Y3490000D03*
Y3280000D03*
X9160000Y3890000D03*
X9530000D03*
X9680360Y4956650D03*
X9180360D03*
X9680360Y5456650D03*
X9180360D03*
X9680360Y5956650D03*
X9180360D03*
X9680360Y6956650D03*
X9180360D03*
X9680360Y6456650D03*
X9180360D03*
Y7456650D03*
X9555310Y8050400D03*
X9181130Y9252080D03*
X9375000Y9485000D03*
X9273260Y9723320D03*
X9810000Y2430000D03*
X10110000D03*
X9930000D03*
X9760000Y2850000D03*
Y3060000D03*
X10130000D03*
Y2850000D03*
X9870000Y2700000D03*
X10220000Y2630000D03*
X9760000Y3280000D03*
Y3490000D03*
X10130000Y3280000D03*
Y3490000D03*
Y3690000D03*
X9760000D03*
X9900000Y3890000D03*
X10180360Y4956650D03*
Y5456650D03*
Y5956650D03*
Y6956650D03*
Y6456650D03*
Y7456650D03*
X10055310Y8050400D03*
X9773260Y9723320D03*
X10310000Y2200000D03*
X10510000Y2430000D03*
X10520000Y3070000D03*
Y3280000D03*
Y3690000D03*
Y3490000D03*
X10680360Y4956650D03*
Y5456650D03*
Y5956650D03*
Y6956650D03*
Y6456650D03*
Y7456650D03*
X10555310Y8050400D03*
X10773260Y9723320D03*
X10273260D03*
X11060000Y2200000D03*
Y2430000D03*
X11260000D03*
X10890000Y3070000D03*
X11240000D03*
Y2710000D03*
X10890000Y3280000D03*
Y3690000D03*
Y3490000D03*
X11240000Y3690000D03*
Y3490000D03*
Y3280000D03*
Y3890000D03*
X10890000D03*
X11180360Y4956650D03*
Y5456650D03*
Y5956650D03*
Y6956650D03*
Y6456650D03*
Y7456650D03*
X11115310Y8060400D03*
X11125000Y8745000D03*
X10855000Y9455000D03*
X11273260Y9723320D03*
X11660000Y2200000D03*
X11440000Y2430000D03*
X11560000D03*
X11740000D03*
X11500000Y2710000D03*
X11760000D03*
X11490000Y3070000D03*
X11760000Y3060000D03*
X11640000Y3490000D03*
X11650000Y3690000D03*
Y3890000D03*
X11680360Y4956650D03*
Y5456650D03*
Y5956650D03*
Y6956650D03*
Y6456650D03*
Y7456650D03*
X11615310Y8060400D03*
X11773260Y9723320D03*
X11910000Y2430000D03*
X12030000Y2200000D03*
X12035000Y2335000D03*
X12390000D03*
X12040000Y3690000D03*
Y3480000D03*
Y3890000D03*
X12115310Y8060400D03*
X11940000Y9300000D03*
X12470000Y2200000D03*
Y2430000D03*
X12780000Y2540000D03*
X12890000Y2430000D03*
X12870000Y2730000D03*
Y3120000D03*
X12510000Y3480000D03*
Y3690000D03*
X12780000Y3480000D03*
Y3690000D03*
X12512010Y4087500D03*
X12510000Y3890000D03*
X12780000D03*
X12680360Y4956650D03*
Y5456650D03*
Y5956650D03*
Y6956650D03*
Y6456650D03*
Y7456650D03*
X12615310Y8060400D03*
X12970000Y2210000D03*
X13370000Y2430000D03*
X13190000D03*
X13070000D03*
X13130000Y2730000D03*
X13390000D03*
Y3120000D03*
X13130000D03*
Y3480000D03*
Y3690000D03*
X13390000Y3480000D03*
X13130000Y3900000D03*
X13180360Y4956650D03*
Y5456650D03*
Y5956650D03*
Y6956650D03*
Y6456650D03*
Y7456650D03*
X13115310Y8060400D03*
X13982010Y2627500D03*
X13980000Y2210000D03*
X13982010Y3127500D03*
Y3627500D03*
X14000360Y4966650D03*
Y5466650D03*
Y5966650D03*
Y6966650D03*
Y6466650D03*
Y7466650D03*
X13615310Y8060400D03*
G54D12*
X410000Y6370000D03*
Y6650000D03*
X670000Y6370000D03*
Y6650000D03*
G54D21*
X1260000Y6500080D03*
G54D30*
X5655960Y9652170D03*
X6095960D03*
X6630000D03*
X7070000D03*
G54D40*
G01X730000Y2335000D02*
Y2430000D01*
G01X3220000Y6190000D02*
Y5640000D01*
X3120000Y5540000D01*
X840000D01*
X730000Y5430000D01*
Y2430000D01*
G01X1406000Y1979000D02*
Y2241000D01*
X1410000Y2245000D01*
G01X2290000Y90000D02*
Y1349500D01*
X2244500Y1395000D01*
G01X2350000Y2335000D02*
Y2430000D01*
G01X3036000Y1979000D02*
Y2149000D01*
X2940000Y2245000D01*
G01X3036000Y1979000D02*
Y1852000D01*
X3163000Y1725000D01*
G01X3220000Y6190000D02*
X3210000Y6200000D01*
G01X3920000Y90000D02*
Y1349500D01*
X3874500Y1395000D01*
G01X3980000Y2335000D02*
Y2430000D01*
G01X4666000Y1979000D02*
Y2239000D01*
X4660000Y2245000D01*
G01X5540000Y90000D02*
Y1359500D01*
X5504500Y1395000D01*
G01X5610000Y2335000D02*
Y2430000D01*
G01X6296000Y1979000D02*
Y2129000D01*
X6180000Y2245000D01*
G01X6290000Y2270000D02*
X6225000Y2335000D01*
X6180000D01*
G01X7170000Y90000D02*
Y1359500D01*
X7134500Y1395000D01*
G01X7240000Y2335000D02*
X7135000D01*
G01X7240000D02*
X7360000D01*
G01D02*
X7485000D01*
G01X7926000Y1979000D02*
Y2241000D01*
X7930000Y2245000D01*
G01X8764500Y1395000D02*
X8800000Y1359500D01*
Y140000D01*
X8850000Y90000D01*
G01X8880000Y2335000D02*
Y2430000D01*
G01X9556000Y1979000D02*
Y2119000D01*
X9430000Y2245000D01*
G01X10394500Y1395000D02*
X10430000Y1359500D01*
Y100000D01*
X10440000Y90000D01*
G01X10510000Y2335000D02*
Y2430000D01*
G01X11186000Y1979000D02*
Y2239000D01*
X11180000Y2245000D01*
G01X12060000Y90000D02*
X12070000Y100000D01*
Y1359500D01*
X12105500Y1395000D01*
G01X12130000Y2335000D02*
X12035000D01*
G01X12250000D02*
X12390000D01*
G01X12816000Y1979000D02*
Y2119000D01*
X12690000Y2245000D01*
G01X12790000Y2280000D02*
X12735000Y2335000D01*
X12690000D01*
G54D31*
X5500960Y9852170D03*
X6475000D03*
X6250960D03*
X7225000D03*
G54D13*
X410000Y7170000D03*
X690000D03*
X1450000D03*
X1070000D03*
G54D22*
X1240000Y8600000D03*
Y9200000D03*
G54D41*
G01X12905000Y8500000D02*
X12280000D01*
X12010000Y8770000D01*
X11940000D01*
G54D23*
X1800000Y6800000D03*
X2840000D03*
G54D14*
X415000Y7736000D03*
Y7944000D03*
G54D32*
X11125000Y9280000D03*
Y9330000D03*
Y9380000D03*
Y9430000D03*
Y9480000D03*
X11615000D03*
Y9430000D03*
Y9380000D03*
Y9330000D03*
Y9280000D03*
G54D42*
G01X2290000Y90000D02*
X570000D01*
X330000Y330000D01*
G01X3920000Y90000D02*
X2290000D01*
G01X5540000D02*
X3920000D01*
G01X7170000D02*
X5540000D01*
G01X8850000D02*
X7170000D01*
G01X10440000D02*
X8850000D01*
G01X12060000D02*
X10440000D01*
G01X14020000Y330000D02*
X13780000Y90000D01*
X12060000D01*
G54D15*
X807500Y600000D03*
X1025000Y1725000D03*
X1061500Y600000D03*
X1406000Y1979000D03*
X1152000D03*
X1533000Y1725000D03*
X1279000D03*
X2132500Y600000D03*
X1878500D03*
X1914000Y1979000D03*
X1660000D03*
X1787000Y1725000D03*
X2437500Y600000D03*
X2655000Y1725000D03*
X2691500Y600000D03*
X3036000Y1979000D03*
X2782000D03*
X3163000Y1725000D03*
X2909000D03*
X3762500Y600000D03*
X3508500D03*
X3544000Y1979000D03*
X3290000D03*
X3417000Y1725000D03*
X4067500Y600000D03*
X4285000Y1725000D03*
X4321500Y600000D03*
X4666000Y1979000D03*
X4412000D03*
X4793000Y1725000D03*
X4539000D03*
X5392500Y600000D03*
X5138500D03*
X5174000Y1979000D03*
X4920000D03*
X5047000Y1725000D03*
X5697500Y600000D03*
X5915000Y1725000D03*
X5951500Y600000D03*
X6296000Y1979000D03*
X6042000D03*
X6423000Y1725000D03*
X6169000D03*
X7022500Y600000D03*
X6768500D03*
X6804000Y1979000D03*
X6550000D03*
X6677000Y1725000D03*
X7327500Y600000D03*
X7545000Y1725000D03*
X7581500Y600000D03*
X7926000Y1979000D03*
X7672000D03*
X8053000Y1725000D03*
X7799000D03*
X8652500Y600000D03*
X8398500D03*
X8434000Y1979000D03*
X8180000D03*
X8307000Y1725000D03*
X8957500Y600000D03*
X9175000Y1725000D03*
X9211500Y600000D03*
X9556000Y1979000D03*
X9302000D03*
X9683000Y1725000D03*
X9429000D03*
X10282500Y600000D03*
X10028500D03*
X10064000Y1979000D03*
X9810000D03*
X9937000Y1725000D03*
X10587500Y600000D03*
X10805000Y1725000D03*
X10841500Y600000D03*
X11186000Y1979000D03*
X10932000D03*
X11313000Y1725000D03*
X11059000D03*
X11912500Y600000D03*
X11658500D03*
X11694000Y1979000D03*
X11440000D03*
X11567000Y1725000D03*
X12217500Y600000D03*
X12435000Y1725000D03*
X12471500Y600000D03*
X12816000Y1979000D03*
X12562000D03*
X12943000Y1725000D03*
X12689000D03*
X13542500Y600000D03*
X13288500D03*
X13324000Y1979000D03*
X13070000D03*
X13197000Y1725000D03*
G54D33*
X11330000Y8950000D03*
Y9110000D03*
X11410000Y8950000D03*
Y9110000D03*
G54D24*
X2058780Y8150000D03*
Y7670000D03*
X2738780Y8150000D03*
Y7670000D03*
G54D25*
X4000000Y4210000D03*
Y8810000D03*
X10400000Y4210000D03*
Y8810000D03*
G54D16*
X695500Y1395000D03*
X2244500D03*
X2325500D03*
X3955500D03*
X3874500D03*
X5504500D03*
X5585500D03*
X7215500D03*
X7134500D03*
X8764500D03*
X8845500D03*
X10475500D03*
X10394500D03*
X12024500D03*
X12105500D03*
X13654500D03*
G54D34*
X11940000Y9070000D03*
Y8770000D03*
G54D17*
X730000Y2245000D03*
Y2335000D03*
X850000Y2245000D03*
Y2335000D03*
X610000Y5885000D03*
X730000D03*
X610000Y6175000D03*
Y6085000D03*
Y5975000D03*
X730000D03*
X880000Y6945000D03*
Y6855000D03*
X1410000Y2335000D03*
Y2245000D03*
X1480000Y2515000D03*
Y2605000D03*
X1780000Y2245000D03*
Y2335000D03*
X1660000Y2245000D03*
Y2335000D03*
X1780000Y2515000D03*
Y2605000D03*
X1960000Y2515000D03*
Y2605000D03*
X1660000Y2515000D03*
Y2605000D03*
X1760000Y5885000D03*
X2020000D03*
X1760000Y5975000D03*
X1880000Y6095000D03*
Y6185000D03*
X2020000Y6095000D03*
Y6185000D03*
X1760000D03*
Y6095000D03*
X2020000Y5975000D03*
X2350000Y2245000D03*
Y2335000D03*
X2470000Y2245000D03*
Y2335000D03*
X2940000D03*
Y2245000D03*
X3110000Y2515000D03*
Y2605000D03*
X3290000Y2245000D03*
Y2335000D03*
X3410000Y2245000D03*
Y2335000D03*
X3290000Y2515000D03*
Y2605000D03*
X3590000Y2515000D03*
Y2605000D03*
X3410000Y2515000D03*
Y2605000D03*
X4100000Y2245000D03*
Y2335000D03*
X3980000Y2245000D03*
Y2335000D03*
X4660000D03*
Y2245000D03*
X4740000Y2515000D03*
Y2605000D03*
X5040000Y2245000D03*
Y2335000D03*
X4920000Y2245000D03*
Y2335000D03*
Y2515000D03*
Y2605000D03*
X5040000Y2515000D03*
Y2605000D03*
X5220000Y2515000D03*
Y2605000D03*
X4890000Y9395000D03*
Y9485000D03*
X5250000Y9395000D03*
Y9485000D03*
X5070000Y9395000D03*
Y9485000D03*
X5610000Y2245000D03*
Y2335000D03*
X5730000Y2245000D03*
Y2335000D03*
X6180000D03*
Y2245000D03*
X6370000Y2515000D03*
Y2605000D03*
X6210000Y9395000D03*
Y9485000D03*
X6090000Y9395000D03*
Y9485000D03*
X6550000Y2245000D03*
Y2335000D03*
X6670000Y2245000D03*
Y2335000D03*
X6550000Y2515000D03*
Y2605000D03*
X6850000Y2515000D03*
Y2605000D03*
X6670000Y2515000D03*
Y2605000D03*
X7240000Y2245000D03*
Y2335000D03*
X7360000Y2245000D03*
Y2335000D03*
X7190000Y9395000D03*
Y9485000D03*
X7380000Y9395000D03*
Y9485000D03*
X7500000Y9395000D03*
Y9485000D03*
X7070000Y9395000D03*
Y9485000D03*
X7930000Y2335000D03*
Y2245000D03*
X8000000Y2515000D03*
Y2605000D03*
X8300000Y2245000D03*
Y2335000D03*
X8180000Y2245000D03*
Y2335000D03*
X8300000Y2515000D03*
Y2605000D03*
X8480000Y2515000D03*
Y2605000D03*
X8180000Y2515000D03*
Y2605000D03*
X8880000Y2245000D03*
Y2335000D03*
X9000000Y2245000D03*
Y2335000D03*
X9430000D03*
Y2245000D03*
X9630000Y2515000D03*
Y2605000D03*
X9470000Y9485000D03*
Y9395000D03*
X9810000Y2245000D03*
Y2335000D03*
X9930000Y2245000D03*
Y2335000D03*
X9810000Y2515000D03*
Y2605000D03*
X10110000Y2515000D03*
Y2605000D03*
X9930000Y2515000D03*
Y2605000D03*
X10510000Y2245000D03*
Y2335000D03*
X10630000Y2245000D03*
Y2335000D03*
X11180000D03*
Y2245000D03*
X11260000Y2515000D03*
Y2605000D03*
X11310000Y8835000D03*
Y8745000D03*
X10950000Y9455000D03*
Y9545000D03*
X11560000Y2245000D03*
Y2335000D03*
X11440000Y2245000D03*
Y2335000D03*
X11560000Y2515000D03*
Y2605000D03*
X11740000Y2515000D03*
Y2605000D03*
X11440000Y2515000D03*
Y2605000D03*
X11430000Y8835000D03*
Y8745000D03*
X11830000Y9235000D03*
Y9365000D03*
X12130000Y2245000D03*
Y2335000D03*
X12250000Y2245000D03*
Y2335000D03*
X12050000Y9365000D03*
Y9235000D03*
X12690000Y2335000D03*
Y2245000D03*
X12890000Y2515000D03*
Y2605000D03*
X13070000Y2245000D03*
Y2335000D03*
X13190000Y2245000D03*
Y2335000D03*
X13070000Y2515000D03*
Y2605000D03*
X13370000Y2515000D03*
Y2605000D03*
X13190000Y2515000D03*
Y2605000D03*
G54D35*
X11830000Y9300000D03*
X12050000D03*
G54D26*
X3213800Y6350000D03*
X3366200D03*
X3213800Y6670000D03*
X3366200D03*
X3213800Y6950000D03*
X3366200D03*
X3213800Y7260000D03*
X3366200D03*
X5070000Y9613800D03*
X4890000D03*
X5250000D03*
X5070000Y9766200D03*
X4890000D03*
X5250000D03*
G54D36*
X12428000Y8971000D03*
X13632000D03*
G54D27*
X3210000Y6200000D03*
G54D18*
X990000Y6309080D03*
Y6436080D03*
Y6563080D03*
Y6690080D03*
X1530000Y6436080D03*
Y6309080D03*
Y6690080D03*
Y6563080D03*
G54D37*
X12905000Y8500000D03*
G54D28*
X3285000Y7540000D03*
X3195000D03*
G54D19*
X800000Y7835000D03*
G54D38*
G01X807500Y600000D02*
X937500Y730000D01*
X1020000D01*
X1110000Y820000D01*
Y1210000D01*
X730000Y1590000D01*
Y2245000D01*
G01X2132500Y600000D02*
X2002500Y730000D01*
X1240000D01*
X1150000Y820000D01*
Y1220290D01*
X770000Y1600290D01*
Y2160000D01*
X850000Y2240000D01*
Y2245000D01*
G01X1152000Y1979000D02*
X1106670Y1888350D01*
X1079430Y1879280D01*
X1079420D01*
X1045140Y1896430D01*
X923480D01*
X869360Y1842310D01*
Y1640640D01*
X980000Y1530000D01*
X1970000D01*
X2130000Y1690000D01*
Y2120000D01*
X1890640Y2359360D01*
Y2536570D01*
X1959070Y2605000D01*
G01X1025000Y1725000D02*
X1070340Y1815660D01*
X1061240Y1842920D01*
X1035530Y1855790D01*
X940320D01*
X910000Y1825470D01*
Y1657480D01*
X996840Y1570640D01*
X1953160D01*
X2089360Y1706840D01*
Y2103160D01*
X1850000Y2342520D01*
Y2535930D01*
X1780930Y2605000D01*
X1780000D01*
G01X830000Y6550000D02*
Y6240000D01*
X765000Y6175000D01*
X610000D01*
G01Y5975000D02*
Y6085000D01*
G01X990000Y6436080D02*
X936070D01*
X880000Y6380010D01*
Y6200000D01*
X765000Y6085000D01*
X610000D01*
G01X730000Y5975000D02*
X920000Y6165000D01*
Y6268440D01*
X960640Y6309080D01*
X990000D01*
G01X880000Y6945000D02*
X975000D01*
G01X880000Y6855000D02*
Y6750000D01*
X939920Y6690080D01*
X990000D01*
G01X1279000Y1725000D02*
X1394000Y1840000D01*
X1480000D01*
X1549520Y1909520D01*
Y2550480D01*
X1495000Y2605000D01*
X1485000D01*
G01D02*
X1549360Y2669360D01*
Y3715560D01*
X1633800Y3800000D01*
X5507580D01*
X5548220Y3840640D01*
Y4314520D01*
X5643700Y4410000D01*
G01X1485000Y2605000D02*
X1480000D01*
G01X1660000Y1979000D02*
X1590160Y2048840D01*
Y2550160D01*
X1645000Y2605000D01*
X1660000D01*
G01X1960000D02*
X1959070D01*
G01D02*
X1945000D01*
X1890000Y2660000D01*
Y3528720D01*
X1930640Y3569360D01*
X5689360D01*
X5788860Y3668860D01*
Y4155160D01*
X5843700Y4210000D01*
G01X1780000Y2605000D02*
X1849360Y2674360D01*
Y3545560D01*
X1913800Y3610000D01*
X5672520D01*
X5748220Y3685700D01*
Y4314520D01*
X5843700Y4410000D01*
G01X5643700Y4210000D02*
X5588860Y4155160D01*
Y3823800D01*
X5524420Y3759360D01*
X1650640D01*
X1590000Y3698720D01*
Y2675000D01*
X1660000Y2605000D01*
G01X1530000Y6309080D02*
X1580920D01*
X1610000Y6280000D01*
Y5830000D01*
X1650000Y5790000D01*
X1910000D01*
X1940000Y5820000D01*
Y5900000D01*
X2015000Y5975000D01*
X2020000D01*
G01Y6185000D02*
X3195000D01*
G01X2020000Y5975000D02*
Y6095000D01*
G01X1760000Y6185000D02*
Y6370000D01*
X1693920Y6436080D01*
X1530000D01*
G01X1760000Y6185000D02*
X1880000D01*
G01X1760000Y5975000D02*
Y6095000D01*
G01X2350000Y2245000D02*
Y1660000D01*
X2750000Y1260000D01*
Y810000D01*
X2670000Y730000D01*
X2567500D01*
X2437500Y600000D01*
G01X2470000Y2245000D02*
Y1590290D01*
X2785560Y1274730D01*
Y814440D01*
X2860000Y740000D01*
X3622500D01*
X3762500Y600000D01*
G01X2655000Y1725000D02*
X2780000Y1850000D01*
X2850000D01*
X2900000Y1900000D01*
Y2050000D01*
X2830640Y2119360D01*
Y2363160D01*
X2866840Y2399360D01*
X2996940D01*
X3067900Y2328400D01*
X3152100D01*
X3220320Y2396620D01*
Y2584680D01*
X3240640Y2605000D01*
G01X2782000Y1979000D02*
X2790000Y1987000D01*
Y2380000D01*
X2850000Y2440000D01*
X3013780D01*
X3084740Y2369040D01*
X3135260D01*
X3179680Y2413460D01*
Y2584680D01*
X3159360Y2605000D01*
G01X2909000Y1725000D02*
X3074640Y1559360D01*
X3646840D01*
X3740640Y1653160D01*
Y2136840D01*
X3520320Y2357160D01*
Y2584680D01*
X3540640Y2605000D01*
G01X3159360D02*
X3110000D01*
G01X3459360D02*
X3479680Y2584680D01*
Y2340320D01*
X3700000Y2120000D01*
Y1670000D01*
X3630000Y1600000D01*
X3310320D01*
X3290000Y1620320D01*
Y1979000D01*
G01X3240640Y2605000D02*
X3290000D01*
G01X6043700Y4210000D02*
X5980640Y4146940D01*
Y3570640D01*
X5779360Y3369360D01*
X3260960D01*
X3220320Y3328720D01*
Y2625320D01*
X3240640Y2605000D01*
G01X3159360D02*
X3179680Y2625320D01*
Y3345560D01*
X3244120Y3410000D01*
X5762520D01*
X5940000Y3587480D01*
Y4306300D01*
X6043700Y4410000D01*
G01X3540640Y2605000D02*
X3520320Y2625320D01*
Y3079350D01*
X3610330Y3169360D01*
X5899360D01*
X6180640Y3450640D01*
Y4146940D01*
X6243700Y4210000D01*
G01X3540640Y2605000D02*
X3590000D01*
G01X3410000D02*
X3459360D01*
G01X6243700Y4410000D02*
X6140000Y4306300D01*
Y3467480D01*
X5882520Y3210000D01*
X3593490D01*
X3479680Y3096190D01*
Y2625320D01*
X3459360Y2605000D01*
G01X3195000Y6185000D02*
X3210000Y6200000D01*
G01X3980000Y2245000D02*
Y1630000D01*
X4360000Y1250000D01*
Y810000D01*
X4290000Y740000D01*
X4207500D01*
X4067500Y600000D01*
G01X5392500D02*
X5242500Y750000D01*
X4470000D01*
X4410000Y810000D01*
Y1259990D01*
X4020000Y1649990D01*
Y2165000D01*
X4100000Y2245000D01*
G01X4412000Y1979000D02*
X4366670Y1888350D01*
X4339430Y1879280D01*
X4339420D01*
Y1879290D01*
X4319620Y1889190D01*
X4312370Y1896430D01*
X4208950D01*
X4139360Y1826840D01*
Y1643160D01*
X4233160Y1549360D01*
X5186840D01*
X5370640Y1733160D01*
Y2179360D01*
X5150320Y2399680D01*
Y2584680D01*
X5170640Y2605000D01*
G01X5089360D02*
X5109680Y2584680D01*
Y2382840D01*
X5330000Y2162520D01*
Y1750000D01*
X5170000Y1590000D01*
X4250000D01*
X4180000Y1660000D01*
Y1810000D01*
X4225790Y1855790D01*
X4295530D01*
X4295540Y1855780D01*
X4321240Y1842930D01*
Y1842920D01*
X4330340Y1815660D01*
X4285000Y1725000D01*
G01X4539000D02*
X4654000Y1840000D01*
X4730000D01*
X4809520Y1919520D01*
Y2024770D01*
X4809680Y2024930D01*
Y2584680D01*
X4789360Y2605000D01*
G01D02*
X4740000D01*
G01X4920000Y1979000D02*
X4850320Y2048680D01*
Y2584680D01*
X4870640Y2605000D01*
G01D02*
X4920000D01*
G01X6443700Y4210000D02*
X6380640Y4146940D01*
Y3310640D01*
X6039360Y2969360D01*
X4920320D01*
X4850320Y2899360D01*
Y2625320D01*
X4870640Y2605000D01*
G01X6443700Y4410000D02*
X6340000Y4306300D01*
Y3327480D01*
X6022520Y3010000D01*
X4903480D01*
X4809680Y2916200D01*
Y2625320D01*
X4789360Y2605000D01*
G01X5220000D02*
X5170640D01*
G01D02*
X5150320Y2625320D01*
Y2719360D01*
X5190960Y2760000D01*
X6180000D01*
X6580640Y3160640D01*
Y4146940D01*
X6643700Y4210000D01*
G01Y4410000D02*
X6540000Y4306300D01*
Y3177480D01*
X6163160Y2800640D01*
X5174120D01*
X5109680Y2736200D01*
Y2625320D01*
X5089360Y2605000D01*
G01D02*
X5040000D01*
G01X5070000Y9766200D02*
X5073800D01*
X5160000Y9680000D01*
Y9270000D01*
X5570000Y8860000D01*
Y8709100D01*
X5669100Y8610000D01*
G01Y8810000D02*
Y9000900D01*
X5330000Y9340000D01*
Y9686200D01*
X5250000Y9766200D01*
G01X4890000Y9485000D02*
Y9613800D01*
G01X5250000Y9485000D02*
Y9613800D01*
G01X5070000Y9485000D02*
Y9613800D01*
G01X5610000Y2245000D02*
Y1630000D01*
X6010000Y1230000D01*
Y820000D01*
X5930000Y740000D01*
X5837500D01*
X5697500Y600000D01*
G01X5730000Y2245000D02*
Y1579990D01*
X6060000Y1249990D01*
Y810000D01*
X6130000Y740000D01*
X6882500D01*
X7022500Y600000D01*
G01X6090000Y9485000D02*
X6074990D01*
X5970000Y9380010D01*
Y8720000D01*
X5869100Y8619100D01*
Y8610000D01*
G01X5915000Y1725000D02*
X6030000Y1840000D01*
X6108360D01*
X6160000Y1891640D01*
Y2130640D01*
X6089920Y2200720D01*
Y2392440D01*
X6110260Y2412780D01*
X6236580D01*
X6320960Y2328400D01*
X6412100D01*
X6480320Y2396620D01*
Y2584680D01*
X6500640Y2605000D01*
G01X6042000Y1979000D02*
X6049280Y1986280D01*
Y2409280D01*
X6093420Y2453420D01*
X6253420D01*
X6337800Y2369040D01*
X6395260D01*
X6439680Y2413460D01*
Y2584680D01*
X6419360Y2605000D01*
G01X6169000Y1725000D02*
X6334640Y1559360D01*
X6856840D01*
X6980640Y1683160D01*
Y2096840D01*
X6780320Y2297160D01*
Y2584680D01*
X6800640Y2605000D01*
G01X6419360D02*
X6370000D01*
G01X7070000Y9485000D02*
X7069070D01*
X6990000Y9405930D01*
Y9290000D01*
X6930000Y9230000D01*
X6130000D01*
X6069100Y9169100D01*
Y8810000D01*
G01X6210000Y9485000D02*
X6090000D01*
G01D02*
Y9646210D01*
X6095960Y9652170D01*
G01X6550000Y1979000D02*
Y1640000D01*
X6590000Y1600000D01*
X6840000D01*
X6940000Y1700000D01*
Y2080000D01*
X6739680Y2280320D01*
Y2584680D01*
X6719360Y2605000D01*
G01X6500640D02*
X6480320Y2625320D01*
Y2710320D01*
X6990000Y3220000D01*
Y4156300D01*
X7043700Y4210000D01*
G01X6500640Y2605000D02*
X6550000D01*
G01X7043700Y4410000D02*
X6948220Y4314520D01*
Y4010250D01*
X6949360Y4009110D01*
Y3236840D01*
X6439680Y2727160D01*
Y2625320D01*
X6419360Y2605000D01*
G01X6800640D02*
X6780320Y2625320D01*
Y2742840D01*
X7188860Y3151380D01*
Y4155160D01*
X7243700Y4210000D01*
G01X6800640Y2605000D02*
X6850000D01*
G01X6719360D02*
X6670000D01*
G01X7243700Y4410000D02*
X7150000Y4316300D01*
Y4251340D01*
X7148220Y4249560D01*
Y3168220D01*
X6739680Y2759680D01*
Y2625320D01*
X6719360Y2605000D01*
G01X7240000Y2245000D02*
Y1610000D01*
X7630000Y1220000D01*
Y780000D01*
X7590000Y740000D01*
X7467500D01*
X7327500Y600000D01*
G01X8652500D02*
X8522500Y730000D01*
X7720000D01*
X7665560Y784440D01*
Y1244450D01*
X7280000Y1630010D01*
Y2165000D01*
X7360000Y2245000D01*
G01X7672000Y1979000D02*
X7626670Y1888350D01*
X7599430Y1879280D01*
X7599420D01*
X7579620Y1889180D01*
X7568160Y1900640D01*
X7463160D01*
X7399360Y1836840D01*
Y1633160D01*
X7493160Y1539360D01*
X8476840D01*
X8620640Y1683160D01*
Y2179360D01*
X8410320Y2389680D01*
Y2584680D01*
X8430640Y2605000D01*
G01X8349360D02*
X8369680Y2584680D01*
Y2372840D01*
X8580000Y2162520D01*
Y1700000D01*
X8460000Y1580000D01*
X7510000D01*
X7440000Y1650000D01*
Y1820000D01*
X7480000Y1860000D01*
X7551320D01*
X7555540Y1855780D01*
X7581240Y1842920D01*
X7590340Y1815660D01*
X7545000Y1725000D01*
G01X8130640Y2605000D02*
X8109080Y2626560D01*
Y2698410D01*
X7380640Y3426850D01*
Y4146940D01*
X7443700Y4210000D01*
G01X8049360Y2605000D02*
X8068440Y2624080D01*
Y2681570D01*
X7340000Y3410010D01*
Y4306300D01*
X7443700Y4410000D01*
G01X7500000Y9395000D02*
Y8840900D01*
X7469100Y8810000D01*
G01X7380000Y9395000D02*
X7373620Y9388620D01*
Y8705480D01*
X7469100Y8610000D01*
G01X7380000Y9485000D02*
X7505000Y9610000D01*
X10610000D01*
X10840000Y9380000D01*
X11125000D01*
G01X7500000Y9485000D02*
X7575000Y9560000D01*
X10589280D01*
X10819280Y9330000D01*
X11125000D01*
G01X7070000Y9485000D02*
X7190000D01*
G01X7070000D02*
Y9652170D01*
G01X7799000Y1725000D02*
X7914000Y1840000D01*
X7990000D01*
X8069520Y1919520D01*
Y2024770D01*
X8069680Y2024930D01*
Y2584680D01*
X8049360Y2605000D01*
G01D02*
X8000000D01*
G01X8430640D02*
X8409070Y2626570D01*
Y2698400D01*
X7579820Y3527650D01*
Y4146120D01*
X7643700Y4210000D01*
G01Y4410000D02*
X7539180Y4305480D01*
Y3510810D01*
X8368430Y2681560D01*
Y2624070D01*
X8349360Y2605000D01*
G01X7843700Y4210000D02*
X7780640Y4146940D01*
Y3626840D01*
X8646840Y2760640D01*
X9672440D01*
X9736880Y2696200D01*
Y2628760D01*
X9760640Y2605000D01*
G01X7843700Y4410000D02*
X7740000Y4306300D01*
Y3610000D01*
X8630000Y2720000D01*
X9655600D01*
X9696240Y2679360D01*
Y2621880D01*
X9679360Y2605000D01*
G01X8043700Y4210000D02*
X7988860Y4155160D01*
Y3708620D01*
X8726840Y2970640D01*
X9975880D01*
X10040320Y2906200D01*
Y2625320D01*
X10060640Y2605000D01*
G01X8043700Y4410000D02*
X7948220Y4314520D01*
Y3691780D01*
X8710000Y2930000D01*
X9959040D01*
X9999680Y2889360D01*
Y2625320D01*
X9979360Y2605000D01*
G01X8180000Y1979000D02*
X8110320Y2048680D01*
Y2584680D01*
X8130640Y2605000D01*
G01D02*
X8180000D01*
G01X8430640D02*
X8480000D01*
G01X8349360D02*
X8300000D01*
G01X8243700Y4210000D02*
X8188860Y4155160D01*
Y3808620D01*
X8806840Y3190640D01*
X11305880D01*
X11370320Y3126200D01*
Y2625320D01*
X11390640Y2605000D01*
G01X8243700Y4410000D02*
X8148220Y4314520D01*
Y3791780D01*
X8790000Y3150000D01*
X11289040D01*
X11329680Y3109360D01*
Y2625320D01*
X11309360Y2605000D01*
G01X8443700Y4410000D02*
X8348220Y4314520D01*
Y3871780D01*
X8860640Y3359360D01*
X11589040D01*
X11629680Y3318720D01*
Y2625320D01*
X11609360Y2605000D01*
G01X11690640D02*
X11670320Y2625320D01*
Y3335560D01*
X11605880Y3400000D01*
X8877480D01*
X8388860Y3888620D01*
Y4155160D01*
X8443700Y4210000D01*
G01X8643700D02*
X8580640Y4146940D01*
Y3966850D01*
X8937490Y3610000D01*
X12935880D01*
X13000320Y3545560D01*
Y2625320D01*
X13020640Y2605000D01*
G01X12939360D02*
X12959680Y2625320D01*
Y3528720D01*
X12919040Y3569360D01*
X8920650D01*
X8540000Y3950010D01*
Y4306300D01*
X8643700Y4410000D01*
G01X8957500Y600000D02*
X9107500Y750000D01*
X9220000D01*
X9290000Y820000D01*
Y1240000D01*
X8880000Y1650000D01*
Y2245000D01*
G01X9000000D02*
X8930000Y2175000D01*
Y1669990D01*
X9340000Y1259990D01*
Y820000D01*
X9420000Y740000D01*
X10140000D01*
X10280000Y600000D01*
X10282500D01*
G01X13320640Y2605000D02*
X13300320Y2625320D01*
Y3735560D01*
X13235880Y3800000D01*
X9030000D01*
X8788860Y4041140D01*
Y4155160D01*
X8843700Y4210000D01*
G01Y4410000D02*
X8748220Y4314520D01*
Y4024300D01*
X9013160Y3759360D01*
X13219040D01*
X13259680Y3718720D01*
Y2625320D01*
X13239360Y2605000D01*
G01X9175000Y1725000D02*
X9290000Y1840000D01*
X9368360D01*
X9420000Y1891640D01*
Y2030640D01*
X9346500Y2104140D01*
Y2399020D01*
X9366840Y2419360D01*
X9493160D01*
X9584120Y2328400D01*
X9695240D01*
X9740320Y2373480D01*
Y2584680D01*
X9760640Y2605000D01*
G01X9302000Y1979000D02*
X9305860Y1982860D01*
Y2415860D01*
X9350000Y2460000D01*
X9510000D01*
X9600960Y2369040D01*
X9678400D01*
X9699680Y2390320D01*
Y2584680D01*
X9679360Y2605000D01*
G01X9429000Y1725000D02*
X9584640Y1569360D01*
X10166840D01*
X10270640Y1673160D01*
Y2106840D01*
X10040320Y2337160D01*
Y2584680D01*
X10060640Y2605000D01*
G01X9679360D02*
X9630000D01*
G01X9470000Y9395000D02*
Y8810900D01*
X9469100Y8810000D01*
G01X9810000Y1979000D02*
Y1650000D01*
X9850000Y1610000D01*
X10150000D01*
X10230000Y1690000D01*
Y2090000D01*
X9999680Y2320320D01*
Y2584680D01*
X9979360Y2605000D01*
G01X9760640D02*
X9810000D01*
G01X10110000D02*
X10060640D01*
G01X9930000D02*
X9979360D01*
G01X10587500Y600000D02*
X10737500Y750000D01*
X10840000D01*
X10890000Y800000D01*
Y1220000D01*
X10510000Y1600000D01*
Y2245000D01*
G01X11912500Y600000D02*
X11762500Y750000D01*
X10980000D01*
X10940000Y790000D01*
Y1229990D01*
X10550000Y1619990D01*
Y2165000D01*
X10630000Y2245000D01*
G01X10932000Y1979000D02*
X10886670Y1888350D01*
X10859430Y1879280D01*
X10859420D01*
Y1879290D01*
X10839620Y1889190D01*
X10828160Y1900640D01*
X10733160D01*
X10659360Y1826840D01*
Y1633160D01*
X10753160Y1539360D01*
X11776840D01*
X11880640Y1643160D01*
Y2186840D01*
X11670320Y2397160D01*
Y2584680D01*
X11690640Y2605000D01*
G01X11609360D02*
X11629680Y2584680D01*
Y2380320D01*
X11840000Y2170000D01*
Y1660000D01*
X11760000Y1580000D01*
X10770000D01*
X10700000Y1650000D01*
Y1810000D01*
X10750000Y1860000D01*
X10811320D01*
X10815540Y1855780D01*
X10841240Y1842930D01*
Y1842920D01*
X10850340Y1815660D01*
X10805000Y1725000D01*
G01X11059000D02*
X11177000Y1843000D01*
X11253000D01*
X11329520Y1919520D01*
Y2584840D01*
X11309360Y2605000D01*
G01D02*
X11260000D01*
G01X11125000Y9380000D02*
X11300000D01*
X11410000Y9270000D01*
Y9110000D01*
G01X11125000Y9330000D02*
X11270000D01*
X11330000Y9270000D01*
Y9110000D01*
G01X11440000Y1979000D02*
X11370160Y2048840D01*
Y2584520D01*
X11390640Y2605000D01*
G01D02*
X11440000D01*
G01X11740000D02*
X11690640D01*
G01X11609360D02*
X11560000D01*
G01X11330000Y8950000D02*
Y8855000D01*
X11310000Y8835000D01*
G01X11410000Y8950000D02*
Y8855000D01*
X11430000Y8835000D01*
G01X11615000Y9280000D02*
X11729990D01*
X11774990Y9235000D01*
X11830000D01*
G01D02*
X12050000D01*
G01X11615000Y9330000D02*
X11730000D01*
X11765000Y9365000D01*
X11830000D01*
G01D02*
X12050000D01*
G01X12217500Y600000D02*
X12357500Y740000D01*
X12470000D01*
X12540000Y810000D01*
Y1260000D01*
X12130000Y1670000D01*
Y2245000D01*
G01X12250000D02*
X12170000Y2165000D01*
Y1690000D01*
X12590000Y1270000D01*
Y799990D01*
X12649990Y740000D01*
X13402500D01*
X13542500Y600000D01*
G01X12050000Y9235000D02*
X12102860D01*
X12147540Y9279680D01*
X12193120D01*
X12193440Y9280000D01*
X13260000D01*
X13283740Y9256260D01*
Y8640640D01*
X13263420Y8620320D01*
X13234680D01*
X13155000Y8700000D01*
G01X12050000Y9365000D02*
X12102860D01*
X12147540Y9320320D01*
X12176280D01*
X12176600Y9320640D01*
X13276840D01*
X13324380Y9273100D01*
Y8623800D01*
X13280260Y8579680D01*
X13234680D01*
X13155000Y8500000D01*
G01X13020640Y2605000D02*
X13000320Y2584680D01*
Y2393480D01*
X12935240Y2328400D01*
X12830960D01*
X12756580Y2402780D01*
X12630960D01*
X12610640Y2382460D01*
Y2109360D01*
X12680000Y2040000D01*
Y1901640D01*
X12628360Y1850000D01*
X12560000D01*
X12435000Y1725000D01*
G01X12562000Y1979000D02*
X12570000Y1987000D01*
Y2399300D01*
X12614120Y2443420D01*
X12773420D01*
X12847800Y2369040D01*
X12918400D01*
X12959680Y2410320D01*
Y2584680D01*
X12939360Y2605000D01*
G01X12689000Y1725000D02*
X12804000Y1610000D01*
X13030000D01*
X13080640Y1559360D01*
X13456840D01*
X13530640Y1633160D01*
Y2116840D01*
X13300320Y2347160D01*
Y2584680D01*
X13320640Y2605000D01*
G01X12939360D02*
X12890000D01*
G01X13070000Y1979000D02*
Y1630000D01*
X13100000Y1600000D01*
X13440000D01*
X13490000Y1650000D01*
Y2100000D01*
X13259680Y2330320D01*
Y2584680D01*
X13239360Y2605000D01*
G01X13070000D02*
X13020640D01*
G01X13320640D02*
X13370000D01*
G01X13239360D02*
X13190000D01*
G54D29*
X4000000Y5010000D03*
X4200000D03*
X4000000Y5210000D03*
X4200000D03*
X4000000Y5410000D03*
Y5610000D03*
Y5810000D03*
X4200000Y5410000D03*
Y5610000D03*
Y5810000D03*
X4000000Y6010000D03*
Y6210000D03*
Y6410000D03*
X4200000Y6010000D03*
Y6210000D03*
Y6410000D03*
X4000000Y6610000D03*
Y6810000D03*
Y7010000D03*
X4200000Y6610000D03*
Y6810000D03*
Y7010000D03*
X4000000Y7210000D03*
Y7410000D03*
X4200000Y7210000D03*
Y7410000D03*
X4000000Y7610000D03*
Y7810000D03*
Y8010000D03*
X4200000Y7610000D03*
Y7810000D03*
Y8010000D03*
X5243700Y4210000D03*
X5043700D03*
X4843700D03*
X5243700Y4410000D03*
X5043700D03*
X4843700D03*
X4869100Y8610000D03*
X5069100D03*
X5269100D03*
X4869100Y8810000D03*
X5069100D03*
X5269100D03*
X5843700Y4210000D03*
X5643700D03*
X5443700D03*
X5843700Y4410000D03*
X5643700D03*
X5443700D03*
X5469100Y8610000D03*
X5669100D03*
X5869100D03*
X5469100Y8810000D03*
X5669100D03*
X5869100D03*
X6443700Y4210000D03*
X6243700D03*
X6043700D03*
X6443700Y4410000D03*
X6243700D03*
X6043700D03*
X6069100Y8610000D03*
X6269100D03*
X6469100D03*
X6069100Y8810000D03*
X6269100D03*
X6469100D03*
X6843700Y4210000D03*
X6643700D03*
X6843700Y4410000D03*
X6643700D03*
X6669100Y8610000D03*
X6869100D03*
X6669100Y8810000D03*
X6869100D03*
X7443700Y4210000D03*
X7243700D03*
X7043700D03*
X7443700Y4410000D03*
X7243700D03*
X7043700D03*
X7069100Y8610000D03*
X7269100D03*
X7469100D03*
X7069100Y8810000D03*
X7269100D03*
X7469100D03*
X8043700Y4210000D03*
X7843700D03*
X7643700D03*
X8043700Y4410000D03*
X7843700D03*
X7643700D03*
X7669100Y8610000D03*
X7869100D03*
X8069100D03*
X7669100Y8810000D03*
X7869100D03*
X8069100D03*
X8643700Y4210000D03*
X8443700D03*
X8243700D03*
X8643700Y4410000D03*
X8443700D03*
X8243700D03*
X8269100Y8610000D03*
X8469100D03*
X8269100Y8810000D03*
X8469100D03*
X9043700Y4210000D03*
X8843700D03*
X9043700Y4410000D03*
X8843700D03*
X8669100Y8610000D03*
X8869100D03*
X9069100D03*
X8669100Y8810000D03*
X8869100D03*
X9069100D03*
X9643700Y4210000D03*
X9443700D03*
X9243700D03*
X9643700Y4410000D03*
X9443700D03*
X9243700D03*
X9269100Y8610000D03*
X9469100D03*
X9669100D03*
X9269100Y8810000D03*
X9469100D03*
X9669100D03*
X12905000Y8700000D03*
X13155000Y8500000D03*
Y8700000D03*
G54D39*
G01X850000Y2335000D02*
X730000D01*
G01X1480000Y2430000D02*
Y2515000D01*
G01X1780000Y2335000D02*
Y2430000D01*
G01D02*
Y2515000D01*
G01X1960000Y2430000D02*
Y2515000D01*
G01X1660000D02*
Y2430000D01*
G01D02*
Y2335000D01*
G01X2470000D02*
X2350000D01*
G01X3030000Y2270000D02*
X2965000Y2335000D01*
X2940000D01*
G01X3110000Y2515000D02*
Y2430000D01*
G01X3410000D02*
Y2515000D01*
G01X3590000Y2430000D02*
Y2515000D01*
G01X3410000Y2335000D02*
Y2430000D01*
G01X3290000D02*
Y2515000D01*
G01Y2335000D02*
Y2430000D01*
G01X4100000Y2335000D02*
X3980000D01*
G01X4740000Y2430000D02*
Y2515000D01*
G01X4920000Y2335000D02*
Y2430000D01*
G01D02*
Y2515000D01*
G01X5040000Y2430000D02*
Y2335000D01*
G01X5220000Y2430000D02*
Y2515000D01*
G01X5040000D02*
Y2430000D01*
G01X4890000Y9395000D02*
X5070000D01*
G01X4890000Y9310000D02*
Y9395000D01*
G01X5250000D02*
Y9310000D01*
G01X5730000Y2335000D02*
X5610000D01*
G01X6370000Y2515000D02*
Y2430000D01*
G01X6090000Y9395000D02*
Y9310000D01*
G01X6850000Y2430000D02*
Y2515000D01*
G01X6670000Y2430000D02*
Y2335000D01*
G01Y2515000D02*
Y2430000D01*
G01X6550000D02*
Y2515000D01*
G01Y2335000D02*
Y2430000D01*
G01X7070000Y9395000D02*
Y9310000D01*
G01X8000000Y2430000D02*
Y2515000D01*
G01X8300000Y2430000D02*
Y2335000D01*
G01X8480000Y2430000D02*
Y2515000D01*
G01X8300000D02*
Y2430000D01*
G01X8180000Y2335000D02*
Y2430000D01*
G01D02*
Y2515000D01*
G01X9000000Y2335000D02*
X8880000D01*
G01X9630000Y2515000D02*
Y2430000D01*
G01X9470000Y9485000D02*
X9375000D01*
G01X9810000Y2430000D02*
Y2515000D01*
G01Y2430000D02*
Y2335000D01*
G01X9930000D02*
Y2430000D01*
G01D02*
Y2515000D01*
G01X10110000Y2430000D02*
Y2515000D01*
G01X10630000Y2335000D02*
X10510000D01*
G01X11260000Y2430000D02*
Y2515000D01*
G01X11125000Y9280000D02*
Y8745000D01*
G01X11310000D02*
X11125000D01*
G01Y9430000D02*
X10975000D01*
X10950000Y9455000D01*
G01D02*
X10855000D01*
G01X11440000Y2335000D02*
Y2430000D01*
G01D02*
Y2515000D01*
G01X11560000Y2430000D02*
Y2335000D01*
G01X11740000Y2430000D02*
Y2515000D01*
G01X11560000D02*
Y2430000D01*
G01X11430000Y8745000D02*
X11310000D01*
G01X11830000Y9300000D02*
X11940000D01*
G01X11490000Y9390000D02*
X11500000Y9380000D01*
G01X11740000Y9430000D02*
X11690000Y9380000D01*
X11615000D01*
G01X11500000D02*
X11615000D01*
G01X12130000Y2335000D02*
X12250000D01*
G01X11940000Y9300000D02*
X12050000D01*
G01X12890000Y2515000D02*
Y2430000D01*
G01X13190000Y2335000D02*
Y2430000D01*
G01D02*
Y2515000D01*
G01X13370000Y2430000D02*
Y2515000D01*
G01X13070000Y2430000D02*
Y2515000D01*
G01Y2430000D02*
Y2335000D01*
M02*
