G04 ================== begin FILE IDENTIFICATION RECORD ==================*
G04 Layout Name:  JTAG_TO_DC3-10P_V10_220511.brd*
G04 Film Name:    SilkScreen_Top*
G04 File Format:  Gerber RS274X*
G04 File Origin:  Cadence Allegro 17.2-S071*
G04 Origin Date:  Wed May 11 15:37:07 2022*
G04 *
G04 Layer:  REF DES/SILKSCREEN_TOP*
G04 Layer:  PACKAGE GEOMETRY/SILKSCREEN_TOP*
G04 Layer:  BOARD GEOMETRY/SILKSCREEN_TOP*
G04 *
G04 Offset:    (0.0000 0.0000)*
G04 Mirror:    No*
G04 Mode:      Positive*
G04 Rotation:  0*
G04 FullContactRelief:  No*
G04 UndefLineWidth:     0.1524*
G04 ================== end FILE IDENTIFICATION RECORD ====================*
%FSLAX55Y55*MOMM*%
%IR0*IPPOS*OFA0.00000B0.00000*MIA0B0*SFA1.00000B1.00000*%
%ADD10C,.2*%
%ADD11C,.1524*%
G75*
%LPD*%
G75*
G36*
G01X170000Y2640000D02*
X120000Y2690000D01*
Y2590000D01*
X170000Y2640000D01*
G37*
G36*
G01X1809500Y2374000D02*
X1769500Y2414000D01*
Y2334000D01*
X1809500Y2374000D01*
G37*
G36*
G01X2070000Y360000D02*
X2120000Y310000D01*
Y410000D01*
X2070000Y360000D01*
G37*
G54D10*
G01X170000Y2770000D02*
Y220000D01*
X680000D01*
Y2770000D01*
X170000D01*
G01X1810000Y227000D02*
X2070000D01*
Y1257000D01*
X1810000D01*
Y227000D01*
G01X2600000Y2750000D02*
Y1490000D01*
X2100000D01*
Y2750000D01*
X2600000D01*
G01Y1990000D02*
X2290000D01*
Y2250000D01*
X2600000D01*
G54D11*
G01X180000Y2828000D02*
X185000Y2819000D01*
X191000Y2813000D01*
X198000Y2810000D01*
X206000Y2813000D01*
X212000Y2819000D01*
X218000Y2828000D01*
X220000Y2840000D01*
Y2900000D01*
G01X270000Y2810000D02*
Y2900000D01*
X258000Y2882000D01*
G01Y2810000D02*
X282000D01*
G01X717000Y820000D02*
Y910000D01*
X763000Y820000D01*
Y910000D01*
G01X790000Y820000D02*
Y910000D01*
X815000D01*
X823000Y905500D01*
X828000Y899500D01*
X830000Y887500D01*
X828000Y875500D01*
X822000Y868000D01*
X815000Y863500D01*
X790000D01*
G01X815000D02*
X830000Y820000D01*
G01X859000Y832000D02*
X867000Y824500D01*
X876000Y820000D01*
X884000D01*
X892000Y824500D01*
X898000Y832000D01*
X901000Y842500D01*
X899000Y853000D01*
X894000Y862000D01*
X885000Y868000D01*
X873000Y871000D01*
X866000Y877000D01*
X863000Y887500D01*
X865000Y898000D01*
X870000Y905500D01*
X877000Y910000D01*
X884000D01*
X891000Y907000D01*
X897000Y899500D01*
G01X950000Y910000D02*
Y820000D01*
G01X927000Y910000D02*
X973000D01*
G01X719000Y1592000D02*
X727000Y1584500D01*
X736000Y1580000D01*
X744000D01*
X752000Y1584500D01*
X758000Y1592000D01*
X761000Y1602500D01*
X759000Y1613000D01*
X754000Y1622000D01*
X745000Y1628000D01*
X733000Y1631000D01*
X726000Y1637000D01*
X723000Y1647500D01*
X725000Y1658000D01*
X730000Y1665500D01*
X737000Y1670000D01*
X744000D01*
X751000Y1667000D01*
X757000Y1659500D01*
G01X780000Y1670000D02*
X794000Y1580000D01*
X810000Y1670000D01*
X826000Y1580000D01*
X840000Y1670000D01*
G01X902000Y1662500D02*
X896000Y1667000D01*
X889000Y1670000D01*
X881000D01*
X872000Y1665500D01*
X865000Y1658000D01*
X860000Y1649000D01*
X856000Y1634000D01*
X855000Y1620500D01*
X857000Y1607000D01*
X860000Y1598000D01*
X866000Y1589000D01*
X873000Y1583000D01*
X880000Y1580000D01*
X887000D01*
X894000Y1583000D01*
X900000Y1587500D01*
X905000Y1593500D01*
G01X930000Y1670000D02*
Y1580000D01*
X970000D01*
G01X998000D02*
Y1670000D01*
G01X1036000D02*
X998000Y1614500D01*
G01X1042000Y1580000D02*
X1015000Y1640000D01*
G01X719000Y1852000D02*
X727000Y1844500D01*
X736000Y1840000D01*
X744000D01*
X752000Y1844500D01*
X758000Y1852000D01*
X761000Y1862500D01*
X759000Y1873000D01*
X754000Y1882000D01*
X745000Y1888000D01*
X733000Y1891000D01*
X726000Y1897000D01*
X723000Y1907500D01*
X725000Y1918000D01*
X730000Y1925500D01*
X737000Y1930000D01*
X744000D01*
X751000Y1927000D01*
X757000Y1919500D01*
G01X780000Y1930000D02*
X794000Y1840000D01*
X810000Y1930000D01*
X826000Y1840000D01*
X840000Y1930000D01*
G01X858000Y1840000D02*
Y1930000D01*
X878000D01*
X886000Y1925500D01*
X892000Y1919500D01*
X897000Y1910500D01*
X901000Y1900000D01*
X902000Y1885000D01*
X901000Y1870000D01*
X897000Y1859500D01*
X892000Y1850500D01*
X886000Y1844500D01*
X878000Y1840000D01*
X858000D01*
G01X938000Y1930000D02*
X962000D01*
G01X950000D02*
Y1840000D01*
G01X938000D02*
X962000D01*
G01X1020000D02*
X1012000Y1841500D01*
X1005000Y1847500D01*
X999000Y1856500D01*
X995000Y1867000D01*
X993000Y1879000D01*
Y1891000D01*
X995000Y1903000D01*
X999000Y1913500D01*
X1005000Y1922500D01*
X1012000Y1928500D01*
X1020000Y1930000D01*
X1028000Y1928500D01*
X1035000Y1922500D01*
X1041000Y1913500D01*
X1045000Y1903000D01*
X1047000Y1891000D01*
Y1879000D01*
X1045000Y1867000D01*
X1041000Y1856500D01*
X1035000Y1847500D01*
X1028000Y1841500D01*
X1020000Y1840000D01*
G01X1606000Y365000D02*
X1626000D01*
Y338000D01*
X1620000Y329000D01*
X1613000Y323000D01*
X1603000Y320000D01*
X1593000Y323000D01*
X1586000Y329000D01*
X1580000Y338000D01*
X1576000Y348500D01*
X1574000Y360500D01*
Y371000D01*
X1576000Y380000D01*
X1580000Y390500D01*
X1586000Y399500D01*
X1592000Y405500D01*
X1600000Y410000D01*
X1607000D01*
X1615000Y407000D01*
X1621000Y401000D01*
G01X1647000Y320000D02*
Y410000D01*
X1693000Y320000D01*
Y410000D01*
G01X1718000Y320000D02*
Y410000D01*
X1738000D01*
X1746000Y405500D01*
X1752000Y399500D01*
X1757000Y390500D01*
X1761000Y380000D01*
X1762000Y365000D01*
X1761000Y350000D01*
X1757000Y339500D01*
X1752000Y330500D01*
X1746000Y324500D01*
X1738000Y320000D01*
X1718000D01*
G01X1578000Y588000D02*
X1584000Y577500D01*
X1592000Y571500D01*
X1601000Y570000D01*
X1609000Y571500D01*
X1617000Y579000D01*
X1622000Y588000D01*
X1623000Y597000D01*
X1621000Y607500D01*
X1614000Y615000D01*
X1607000Y618000D01*
X1598000D01*
G01X1607000D02*
X1613000Y622500D01*
X1618000Y630000D01*
X1620000Y639000D01*
X1618000Y648000D01*
X1613000Y655500D01*
X1604000Y660000D01*
X1595000Y658500D01*
X1586000Y652500D01*
G01X1645000Y660000D02*
X1670000Y570000D01*
X1695000Y660000D01*
G01X1718000Y588000D02*
X1724000Y577500D01*
X1732000Y571500D01*
X1741000Y570000D01*
X1749000Y571500D01*
X1757000Y579000D01*
X1762000Y588000D01*
X1763000Y597000D01*
X1761000Y607500D01*
X1754000Y615000D01*
X1747000Y618000D01*
X1738000D01*
G01X1747000D02*
X1753000Y622500D01*
X1758000Y630000D01*
X1760000Y639000D01*
X1758000Y648000D01*
X1753000Y655500D01*
X1744000Y660000D01*
X1735000Y658500D01*
X1726000Y652500D01*
G01X1580000Y1080000D02*
Y1170000D01*
X1605000D01*
X1613000Y1165500D01*
X1618000Y1159500D01*
X1620000Y1147500D01*
X1618000Y1135500D01*
X1612000Y1128000D01*
X1605000Y1123500D01*
X1580000D01*
G01X1605000D02*
X1620000Y1080000D01*
G01X1649000D02*
X1691000Y1170000D01*
G01X1649000D02*
X1691000Y1080000D01*
G01X1600000Y910000D02*
Y820000D01*
G01X1577000Y910000D02*
X1623000D01*
G01X1649000Y820000D02*
X1691000Y910000D01*
G01X1649000D02*
X1691000Y820000D01*
G01X1815000Y1308000D02*
X1820000Y1299000D01*
X1826000Y1293000D01*
X1833000Y1290000D01*
X1841000Y1293000D01*
X1847000Y1299000D01*
X1853000Y1308000D01*
X1855000Y1320000D01*
Y1380000D01*
G01X1883000Y1308000D02*
X1889000Y1297500D01*
X1897000Y1291500D01*
X1906000Y1290000D01*
X1914000Y1291500D01*
X1922000Y1299000D01*
X1927000Y1308000D01*
X1928000Y1317000D01*
X1926000Y1327500D01*
X1919000Y1335000D01*
X1912000Y1338000D01*
X1903000D01*
G01X1912000D02*
X1918000Y1342500D01*
X1923000Y1350000D01*
X1925000Y1359000D01*
X1923000Y1368000D01*
X1918000Y1375500D01*
X1909000Y1380000D01*
X1900000Y1378500D01*
X1891000Y1372500D01*
G01X2425000Y2798000D02*
X2430000Y2789000D01*
X2436000Y2783000D01*
X2443000Y2780000D01*
X2451000Y2783000D01*
X2457000Y2789000D01*
X2463000Y2798000D01*
X2465000Y2810000D01*
Y2870000D01*
G01X2496000Y2855000D02*
X2502000Y2864000D01*
X2509000Y2868500D01*
X2517000Y2870000D01*
X2527000Y2867000D01*
X2534000Y2859500D01*
X2536000Y2850500D01*
X2535000Y2841500D01*
X2531000Y2834000D01*
X2511000Y2819000D01*
X2502000Y2808500D01*
X2496000Y2793500D01*
X2494000Y2780000D01*
X2536000D01*
M02*
