G04 ================== begin FILE IDENTIFICATION RECORD ==================*
G04 Layout Name:  JTAG_TO_DC3-10P_V10_220511.brd*
G04 Film Name:    TOP*
G04 File Format:  Gerber RS274X*
G04 File Origin:  Cadence Allegro 17.2-S071*
G04 Origin Date:  Wed May 11 15:37:07 2022*
G04 *
G04 Layer:  VIA CLASS/TOP*
G04 Layer:  PIN/TOP*
G04 Layer:  ETCH/TOP*
G04 *
G04 Offset:    (0.0000 0.0000)*
G04 Mirror:    No*
G04 Mode:      Positive*
G04 Rotation:  0*
G04 FullContactRelief:  No*
G04 UndefLineWidth:     0.1524*
G04 ================== end FILE IDENTIFICATION RECORD ====================*
%FSLAX55Y55*MOMM*%
%IR0*IPPOS*OFA0.00000B0.00000*MIA0B0*SFA1.00000B1.00000*%
%ADD12C,.6096*%
%ADD13C,1.*%
%ADD14R,1.X1.*%
%ADD10C,1.8*%
%ADD11R,1.8X1.8*%
%ADD15C,.7112*%
%ADD16C,.508*%
G75*
%LPD*%
G75*
G36*
G01X200000Y2970000D02*
X2400000D01*
G02X2570000Y2800000I0J-170000D01*
G01Y200000D01*
G02X2400000Y30000I-170000J0D01*
G01X200000D01*
G02X30000Y200000I0J170000D01*
G01Y2800000D01*
G02X200000Y2970000I170000J0D01*
G37*
%LPC*%
G75*
G36*
G01X431830Y2748500D02*
G03X463900Y2741530I18580J8225D01*
G02X554000Y2775740I90095J-101532D01*
G02X689740Y2640000I0J-135740D01*
G02X632890Y2529540I-135737J0D01*
G03Y2496460I11805J-16540D01*
G02Y2275540I-78887J-110460D01*
G03Y2242460I11805J-16540D01*
G02Y2021540I-78887J-110460D01*
G03Y1988460I11805J-16540D01*
G02X669600Y1949140I-78896J-110455D01*
G01X1208530D01*
X1238860Y1979470D01*
Y2270000D01*
G02X1259700Y2320300I71123J0D01*
G01X1363700Y2424300D01*
G02X1414000Y2445140I50306J-50297D01*
G01X1785580D01*
X1788600Y2449610D01*
G02X1826500Y2469740I37900J-25613D01*
G01X1926500D01*
G02X1957270Y2457840I0J-45731D01*
G02X2003500Y2469740I46230J-83849D01*
G02X2067570Y2445140I0J-95734D01*
G01X2166000D01*
G02X2216300Y2424300I-6J-71137D01*
G01X2270300Y2370300D01*
G02X2291140Y2320000I-50297J-50306D01*
G01Y230000D01*
G02X2270300Y179700I-71123J0D01*
G01X2200300Y109700D01*
G02X2150000Y88860I-50306J50297D01*
G01X1400000D01*
G02X1349700Y109700I6J71137D01*
G01X1289700Y169700D01*
G02X1268860Y220000I50297J50306D01*
G01Y781730D01*
X1259730Y790860D01*
X669600D01*
G02X632890Y751540I-115606J71135D01*
G03Y718460I11805J-16540D01*
G02Y497540I-78887J-110460D01*
G03Y464460I11805J-16540D01*
G02X689740Y354000I-78887J-110460D01*
G02X554000Y218260I-135740J0D01*
G02X443540Y275110I0J135737D01*
G03X410460I-16540J-11805D01*
G02X300000Y218260I-110460J78887D01*
G02X164260Y354000I0J135740D01*
G02X221110Y464460I135737J0D01*
G03Y497540I-11805J16540D01*
G02Y718460I78887J110460D01*
G03Y751540I-11805J16540D01*
G02Y972460I78887J110460D01*
G03Y1005540I-11805J16540D01*
G02Y1226460I78887J110460D01*
G03Y1259540I-11805J16540D01*
G02Y1480460I78887J110460D01*
G03Y1513540I-11805J16540D01*
G02Y1734460I78887J110460D01*
G03Y1767540I-11805J16540D01*
G02Y1988460I78887J110460D01*
G03Y2021540I-11805J16540D01*
G02Y2242460I78887J110460D01*
G03Y2275540I-11805J16540D01*
G02X164260Y2386000I78887J110460D01*
G02X198470Y2476100I135742J5D01*
G03X191500Y2508170I-15195J13490D01*
G02X164260Y2550000I18497J41830D01*
G01Y2730000D01*
G02X210000Y2775740I45740J0D01*
G01X390000D01*
G02X431830Y2748500I0J-45737D01*
G37*
%LPD*%
G75*
G36*
G01X1480300Y1659700D02*
G03X1481360Y1660780I-50236J50366D01*
G02X1498860Y1653750I7339J-7027D01*
G01Y950000D01*
G03X1519700Y899700I71137J6D01*
G01X1601700Y817700D01*
G03X1652000Y796860I50300J50283D01*
G01X1824400D01*
G03X1861110Y757540I115606J71135D01*
G02Y724460I-11805J-16540D01*
G03X1804260Y614000I78887J-110460D01*
G03X1838470Y523900I135742J-5D01*
G02X1831500Y491830I-15195J-13490D01*
G03X1804260Y450000I18497J-41830D01*
G01Y270000D01*
G03X1806100Y257160I45740J3D01*
G02X1786600Y231140I-19504J-5700D01*
G01X1429470D01*
X1411140Y249470D01*
Y811200D01*
G03X1390300Y861500I-71137J-6D01*
G01X1339500Y912300D01*
G03X1289200Y933140I-50300J-50283D01*
G01X669600D01*
G03X632890Y972460I-115606J-71135D01*
G02Y1005540I11805J16540D01*
G03Y1226460I-78887J110460D01*
G02Y1259540I11805J16540D01*
G03Y1480460I-78887J110460D01*
G02Y1513540I11805J16540D01*
G03X669600Y1552860I-78896J110455D01*
G01X1344000D01*
G03X1394300Y1573700I-6J71137D01*
G01X1480300Y1659700D01*
G37*
G36*
G01X2113980Y2302860D02*
X2136530D01*
X2148860Y2290530D01*
Y259470D01*
X2120530Y231140D01*
X2093400D01*
G02X2073900Y257160I4J20320D01*
G03X2075740Y270000I-43900J12843D01*
G01Y450000D01*
G03X2048500Y491830I-45737J0D01*
G02X2041530Y523900I8225J18580D01*
G03X2075740Y614000I-101532J90095D01*
G03X2018890Y724460I-135737J0D01*
G02Y757540I11805J16540D01*
G03Y978460I-78887J110460D01*
G02Y1011540I11805J16540D01*
G03X2075740Y1122000I-78887J110460D01*
G03X1940000Y1257740I-135740J0D01*
G03X1823190Y1191140I0J-135737D01*
G01X1789470D01*
X1771140Y1209470D01*
Y1787020D01*
G02X1806350Y1800850I20321J1D01*
G03X1876500Y1770260I70150J65140D01*
G03X1940000Y1794350I0J95736D01*
G03X2003500Y1770260I63500J71646D01*
G03X2099240Y1866000I0J95740D01*
G03X2075150Y1929500I-95736J0D01*
G03Y2056500I-71646J63500D01*
G03Y2183500I-71646J63500D01*
G03X2099240Y2247000I-71646J63500D01*
G03X2094640Y2276320I-95742J0D01*
G02X2113980Y2302860I19344J6220D01*
G37*
G54D10*
X300000Y354000D03*
Y608000D03*
Y862000D03*
Y1116000D03*
Y1370000D03*
Y1624000D03*
Y1878000D03*
Y2132000D03*
Y2386000D03*
X554000Y354000D03*
Y608000D03*
Y862000D03*
Y1116000D03*
Y1370000D03*
Y1624000D03*
Y1878000D03*
Y2132000D03*
Y2386000D03*
Y2640000D03*
X1940000Y614000D03*
Y1122000D03*
Y868000D03*
G54D11*
X300000Y2640000D03*
X1940000Y360000D03*
G54D12*
X500530Y2829210D03*
X955980Y217790D03*
Y1017790D03*
Y617790D03*
Y1417790D03*
X960000Y2000000D03*
Y2400000D03*
X1300530Y2829210D03*
X900530D03*
X1700530D03*
X2457890Y256460D03*
Y1056460D03*
Y656460D03*
Y1456460D03*
Y1856460D03*
Y2656460D03*
Y2256460D03*
X2100530Y2829210D03*
G54D13*
X2003500Y1866000D03*
X1876500D03*
X2003500Y1993000D03*
X1876500D03*
X2003500Y2120000D03*
X1876500D03*
X2003500Y2247000D03*
X1876500D03*
X2003500Y2374000D03*
G54D14*
X1876500D03*
G54D15*
G01X300000Y208100D02*
Y354000D01*
G01X154100D02*
X300000D01*
G01X1794100Y360000D02*
X1940000D01*
G01D02*
X2085900D01*
G54D16*
G01X300000Y608000D02*
X116000D01*
G01X300000Y862000D02*
X116000D01*
G01X300000Y1116000D02*
X116000D01*
G01X300000Y1370000D02*
X116000D01*
G01X300000Y1624000D02*
X116000D01*
G01X300000Y1878000D02*
X116000D01*
G01X300000Y2132000D02*
X116000D01*
G01X110000Y2380000D02*
X116000Y2386000D01*
G01D02*
X300000D01*
G01X554000Y862000D02*
X1289200D01*
X1340000Y811200D01*
Y220000D01*
X1400000Y160000D01*
X2150000D01*
X2220000Y230000D01*
Y2320000D01*
X2166000Y2374000D01*
X2003500D01*
G01X554000Y1624000D02*
X1344000D01*
X1430000Y1710000D01*
Y2190000D01*
X1487000Y2247000D01*
X1876500D01*
G01X554000Y1878000D02*
X1238000D01*
X1310000Y1950000D01*
Y2270000D01*
X1414000Y2374000D01*
X1876500D01*
G01Y2120000D02*
X1640000D01*
X1570000Y2050000D01*
Y950000D01*
X1652000Y868000D01*
X1940000D01*
G01X1876500Y1993000D02*
X1743000D01*
X1700000Y1950000D01*
Y1180000D01*
X1760000Y1120000D01*
X1938000D01*
X1940000Y1122000D01*
G01X1870000Y1760000D02*
X1876500Y1766500D01*
G01D02*
Y1866000D01*
M02*
