G04 ================== begin FILE IDENTIFICATION RECORD ==================*
G04 Layout Name:  RM08S_V10_220913.brd*
G04 Film Name:    BOTTOM*
G04 File Format:  Gerber RS274X*
G04 File Origin:  Cadence Allegro 17.2-S079*
G04 Origin Date:  Tue Sep 13 16:42:28 2022*
G04 *
G04 Layer:  ETCH/BOTTOM*
G04 Layer:  PIN/BOTTOM*
G04 Layer:  VIA CLASS/BOTTOM*
G04 *
G04 Offset:    (0.0000 0.0000)*
G04 Mirror:    No*
G04 Mode:      Positive*
G04 Rotation:  0*
G04 FullContactRelief:  No*
G04 UndefLineWidth:     0.1524*
G04 ================== end FILE IDENTIFICATION RECORD ====================*
%FSLAX55Y55*MOMM*%
%IR0*IPPOS*OFA0.00000B0.00000*MIA0B0*SFA1.00000B1.00000*%
%ADD11C,.508*%
%ADD14O,1.X2.1*%
%ADD17O,4.X2.*%
%ADD16O,2.X4.*%
%ADD15O,1.X1.6*%
%ADD13C,2.5*%
%ADD12C,1.6*%
%ADD19C,1.8*%
%ADD18C,1.65*%
%ADD10C,6.35*%
%ADD20C,.2032*%
%ADD21C,.7112*%
%ADD24C,1.2004*%
%ADD25C,2.7148*%
%ADD23O,1.9148X2.5148*%
%ADD22O,2.9148X4.9148*%
G75*
%LPD*%
G75*
G36*
G01X586310Y5370000D02*
X3980000D01*
Y4174030D01*
X3971840Y4172390D01*
G03Y3837610I33661J-167390D01*
G01X3980000Y3835970D01*
Y3456240D01*
X3536880Y3013120D01*
G03X3519020Y2970000I43123J-43120D01*
G01Y1655260D01*
X3474740Y1610980D01*
X2991270D01*
X2991130Y1621000D01*
G03X2920000Y1691140I-71130J-997D01*
G03X2851630Y1639670I0J-71145D01*
G01X2850910Y1637150D01*
X2806880Y1593120D01*
G03X2789020Y1550000I43123J-43120D01*
G01Y1444760D01*
G03X2806880Y1401640I60983J0D01*
G01X2841640Y1366880D01*
G03X2884760Y1349020I43120J43123D01*
G01X2950000D01*
G03X2993120Y1366880I0J60983D01*
G01X3045260Y1419020D01*
X4004740D01*
X4236880Y1186880D01*
G03X4280000Y1169020I43120J43123D01*
G01X6370000D01*
Y1090000D01*
X6935970D01*
X6937610Y1081840D01*
G03X7272390I167390J33661D01*
G01X7274030Y1090000D01*
X8470000D01*
Y586310D01*
G02X8433270Y574320I-20321J-3D01*
G03X8140000Y723240I-293270J-214310D01*
G03X7776760Y360000I0J-363240D01*
G03X7925680Y66730I363230J0D01*
G02X7913690Y30000I-11987J-16409D01*
G01X6599790D01*
G02X6580810Y57570I1J20319D01*
G03X6589740Y106000I-126812J48421D01*
G03X6318260I-135740J0D01*
G03X6327190Y57570I135742J-9D01*
G02X6308210Y30000I-18981J-7251D01*
G01X6091790D01*
G02X6072810Y57570I1J20319D01*
G03X6081740Y106000I-126812J48421D01*
G03X5810260I-135740J0D01*
G03X5819190Y57570I135742J-9D01*
G02X5800210Y30000I-18981J-7251D01*
G01X5700380D01*
G02X5683230Y61220I1J20321D01*
G03X5703240Y130000I-108228J68787D01*
G03X5446760I-128240J0D01*
G03X5466770Y61220I128238J7D01*
G02X5449620Y30000I-17151J-10899D01*
G01X4950380D01*
G02X4933230Y61220I1J20321D01*
G03X4953240Y130000I-108228J68787D01*
G03X4696760I-128240J0D01*
G03X4716770Y61220I128238J7D01*
G02X4699620Y30000I-17151J-10899D01*
G01X4660380D01*
G02X4643230Y61220I1J20321D01*
G03X4663240Y130000I-108228J68787D01*
G03X4406760I-128240J0D01*
G03X4426770Y61220I128238J7D01*
G02X4409620Y30000I-17151J-10899D01*
G01X3910380D01*
G02X3893230Y61220I1J20321D01*
G03X3913240Y130000I-108228J68787D01*
G03X3656760I-128240J0D01*
G03X3676770Y61220I128238J7D01*
G02X3659620Y30000I-17151J-10899D01*
G01X586310D01*
G02X574320Y66730I-3J20321D01*
G03X723240Y360000I-214310J293270D01*
G03X360000Y723240I-363240J0D01*
G03X66730Y574320I0J-363230D01*
G02X30000Y586310I-16409J11987D01*
G01Y1090000D01*
X819020D01*
Y927830D01*
G02X784330Y913460I-20320J-3D01*
G01X748900Y948900D01*
G03X695000Y971220I-53893J-53903D01*
G01X535000D01*
G03Y818780I0J-76220D01*
G01X663430D01*
X723780Y758430D01*
Y530000D01*
G03X746100Y476100I76223J-7D01*
G01X936100Y286100D01*
G03X990000Y263780I53893J53903D01*
G01X3600000D01*
G03X3653900Y286100I7J76223D01*
G01X3723900Y356100D01*
G03X3746220Y410000I-53903J53893D01*
G01Y743780D01*
X5834770D01*
G02X5849250Y709210I-5J-20319D01*
G03X5810260Y614000I96752J-95210D01*
G03X6081740I135740J0D01*
G03X6042750Y709210I-135742J0D01*
G02X6057230Y743780I14485J14251D01*
G01X6342770D01*
G02X6357250Y709210I-5J-20319D01*
G03X6318260Y614000I96752J-95210D01*
G03X6589740I135740J0D01*
G03X6550750Y709210I-135742J0D01*
G02X6565230Y743780I14485J14251D01*
G01X8080000D01*
G03Y896220I0J76220D01*
G01X3670000D01*
G03X3593780Y820000I0J-76220D01*
G01Y441570D01*
X3568430Y416220D01*
X2051510D01*
G02X2037150Y450910I5J20319D01*
G01X2053120Y466880D01*
G03X2070980Y510000I-43123J43120D01*
G01Y814740D01*
X2085260Y829020D01*
X2750000D01*
G03X2793120Y846880I0J60983D01*
G01X2937150Y990910D01*
X2939670Y991630D01*
G03X2988370Y1040330I-19670J68370D01*
G01X2989090Y1042850D01*
X3015260Y1069020D01*
X3770000D01*
G03X3813120Y1086880I0J60983D01*
G01X3917150Y1190910D01*
X3919670Y1191630D01*
G03X3971140Y1260000I-19675J68370D01*
G03X3900000Y1331140I-71140J0D01*
G03X3845550Y1305790I0J-71152D01*
G02X3814450I-15550J13073D01*
G03X3760000Y1331140I-54450J-45802D01*
G03X3691630Y1279670I0J-71145D01*
G01X3690910Y1277150D01*
X3674740Y1260980D01*
X2956640D01*
G03X2920000Y1271140I-36640J-60987D01*
G03X2848860Y1200000I0J-71140D01*
G03X2874210Y1145550I71152J0D01*
G02Y1114450I-13073J-15550D01*
G03X2851630Y1079670I45790J-54448D01*
G01X2850910Y1077150D01*
X2724740Y950980D01*
X2714720D01*
G02X2700350Y985670I0J20321D01*
G01X2735740Y1021050D01*
Y3211050D01*
X2758950Y3234260D01*
X3168950D01*
X3215740Y3281050D01*
Y3508950D01*
X3178950Y3545740D01*
X2521050D01*
X2444260Y3468950D01*
Y1248950D01*
X2401050Y1205740D01*
X2130000D01*
Y4320000D01*
X1564030D01*
X1562390Y4328160D01*
G03X1227610I-167390J-33661D01*
G01X1225970Y4320000D01*
X30000D01*
Y4813690D01*
G02X66730Y4825680I20321J3D01*
G03X360000Y4676760I293270J214310D01*
G03X723240Y5040000I0J363240D01*
G03X574320Y5333270I-363230J0D01*
G02X586310Y5370000I11987J16409D01*
G37*
G36*
G01X1564030Y1090000D02*
X1654260D01*
Y838950D01*
X1611050Y795740D01*
X1331050D01*
X1254260Y718950D01*
Y521050D01*
X1259650Y515670D01*
G02X1245280Y480980I-14370J-14369D01*
G01X1045260D01*
X940980Y585260D01*
Y1090000D01*
X1225970D01*
X1227610Y1081840D01*
G03X1562390I167390J33661D01*
G01X1564030Y1090000D01*
G37*
G36*
G01X2540000Y3500000D02*
X3160000D01*
X3170000Y3490000D01*
Y3300000D01*
X3150000Y3280000D01*
X2740000D01*
X2690000Y3230000D01*
Y1040000D01*
X2600980Y950980D01*
X2060000D01*
G03X2049910Y950140I-3J-60980D01*
G01X2049080Y950000D01*
X1950000D01*
X1910000Y910000D01*
Y560000D01*
X1840000Y490000D01*
X1350000D01*
X1300000Y540000D01*
Y700000D01*
X1350000Y750000D01*
X1630000D01*
X1700000Y820000D01*
Y1100000D01*
X1760000Y1160000D01*
X2420000D01*
X2490000Y1230000D01*
Y1937290D01*
X2490140Y1938130D01*
G03X2491140Y1950000I-70139J11886D01*
G03X2490140Y1961870I-71139J-16D01*
G01X2490000Y1962710D01*
Y3011780D01*
G03Y3088220I-59994J38220D01*
G01Y3450000D01*
X2540000Y3500000D01*
G37*
G36*
G01X5580000Y5370000D02*
X7913690D01*
G02X7925680Y5333270I3J-20321D01*
G03X7776760Y5040000I214310J-293270D01*
G03X8140000Y4676760I363240J0D01*
G03X8433270Y4825680I0J363230D01*
G02X8470000Y4813690I16409J-11987D01*
G01Y4320000D01*
X7274030D01*
X7272390Y4328160D01*
G03X6937610I-167390J-33661D01*
G01X6935970Y4320000D01*
X6370000D01*
Y3556240D01*
X6314740Y3500980D01*
X6230000D01*
G03X6186880Y3483120I0J-60983D01*
G01X5915380Y3211620D01*
X4150640D01*
G03X4107520Y3193760I0J-60983D01*
G01X4046560Y3132800D01*
G03X4028700Y3089680I43123J-43120D01*
G01Y3004940D01*
X4022850Y2999090D01*
X4020330Y2998370D01*
G03X3985550Y2975790I19668J-68370D01*
G02X3954450I-15550J13073D01*
G03X3845550I-54450J-45802D01*
G02X3814450I-15550J13073D01*
G03X3760000Y3001140I-54450J-45802D01*
G03X3688860Y2930000I0J-71140D01*
G03X3740330Y2861630I71145J0D01*
G01X3742850Y2860910D01*
X3748700Y2855060D01*
Y2802840D01*
G03X3766560Y2759720I60983J0D01*
G01X3840040Y2686240D01*
G03X3883160Y2668380I43120J43123D01*
G01X4269360D01*
G03X4312480Y2686240I0J60983D01*
G01X4454620Y2828380D01*
X6370000D01*
Y1926240D01*
X6305380Y1861620D01*
X5242100D01*
X5161620Y1942100D01*
Y2669360D01*
G03X5143760Y2712480I-60983J0D01*
G01X5072480Y2783760D01*
G03X5029360Y2801620I-43120J-43123D01*
G01X4503160D01*
G03X4460040Y2783760I0J-60983D01*
G01X4326560Y2650280D01*
G03X4308700Y2607160I43123J-43120D01*
G01Y2504940D01*
X4302850Y2499090D01*
X4300330Y2498370D01*
G03X4248860Y2430000I19675J-68370D01*
G03X4320000Y2358860I71140J0D01*
G03X4374450Y2384210I0J71152D01*
G02X4405550I15550J-13073D01*
G03X4514450I54450J45802D01*
G02X4545550I15550J-13073D01*
G03X4600000Y2358860I54450J45802D01*
G03X4637370Y2369470I-6J71138D01*
G03X4665270Y2380250I-7357J60535D01*
G02X4691010Y2378410I11751J-16574D01*
G03X4740000Y2358860I48984J51592D01*
G03X4761830Y2362290I7J71141D01*
G02X4788380Y2342950I6231J-19340D01*
G01Y1460640D01*
G03X4806240Y1417520I60983J0D01*
G01X4857520Y1366240D01*
G03X4900640Y1348380I43120J43123D01*
G01X6370000D01*
Y1290980D01*
X4305260D01*
X4073120Y1523120D01*
G03X4030000Y1540980I-43120J-43123D01*
G01X3626270D01*
G02X3611910Y1575670I5J20319D01*
G01X3623120Y1586880D01*
G03X3640980Y1630000I-43123J43120D01*
G01Y2944740D01*
X3966240Y3270000D01*
X5580000D01*
Y3835970D01*
X5588160Y3837610D01*
G03Y4172390I-33661J167390D01*
G01X5580000Y4174030D01*
Y5370000D01*
G37*
G36*
G01X6272100Y3338380D02*
X6344740D01*
X6370000Y3313120D01*
Y2990980D01*
X4412520D01*
G03X4369400Y2973120I0J-60983D01*
G01X4227260Y2830980D01*
X3925260D01*
X3911300Y2844940D01*
Y2855060D01*
X3917150Y2860910D01*
X3919670Y2861630D01*
G03X3954450Y2884210I-19668J68370D01*
G02X3985550I15550J-13073D01*
G03X4094450I54450J45802D01*
G02X4125550I15550J-13073D01*
G03X4180000Y2858860I54450J45802D01*
G03X4251140Y2930000I0J71140D01*
G03X4199670Y2998370I-71145J0D01*
G01X4197150Y2999090D01*
X4191300Y3004940D01*
Y3047580D01*
X4192740Y3049020D01*
X5957480D01*
G03X6000600Y3066880I0J60983D01*
G01X6272100Y3338380D01*
G37*
G36*
G01X4545260Y2639020D02*
X4987260D01*
X4999020Y2627260D01*
Y1900000D01*
G03X5016880Y1856880I60983J0D01*
G01X5156880Y1716880D01*
G03X5200000Y1699020I43120J43123D01*
G01X6334740D01*
X6370000Y1663760D01*
Y1510980D01*
X4950980D01*
Y2506520D01*
G03X4933120Y2549640I-60983J0D01*
G01X4889000Y2593760D01*
G03X4845880Y2611620I-43120J-43123D01*
G01X4712540D01*
G03X4669420Y2593760I0J-60983D01*
G01X4625300Y2549640D01*
G03X4607580Y2510580I43124J-43113D01*
G02X4597760Y2501100I-10140J678D01*
G03X4545550Y2475790I2230J-71105D01*
G02X4514450I-15550J13073D01*
G03X4479670Y2498370I-54448J-45790D01*
G01X4477150Y2499090D01*
X4471300Y2504940D01*
Y2565060D01*
X4545260Y2639020D01*
G37*
%LPC*%
G75*
G36*
G01X3330000Y4145740D02*
X3530000D01*
G02Y3854260I0J-145740D01*
G01X3330000D01*
G02Y4145740I0J145740D01*
G37*
G36*
G01Y4745740D02*
X3530000D01*
G02Y4454260I0J-145740D01*
G01X3330000D01*
G02Y4745740I0J145740D01*
G37*
G36*
G01X1832260Y4719000D02*
Y4829000D01*
G02X1928000Y4924740I95740J0D01*
G02X2015870Y4867000I0J-95731D01*
G03X2046810Y4858880I18652J8066D01*
G02X2071000Y4867020I24190J-31873D01*
G02Y4786980I0J-40020D01*
G02X2053130Y4791190I0J40031D01*
G03X2023740Y4773010I-9071J-18182D01*
G01Y4719000D01*
G02X1832260I-95740J0D01*
G37*
G36*
G01X2666870Y4791190D02*
G02X2649000Y4786980I-17870J35821D01*
G02Y4867020I0J40020D01*
G02X2673190Y4858880I0J-40013D01*
G03X2704130Y4867000I12288J16186D01*
G02X2792000Y4924740I87870J-37991D01*
G02X2887740Y4829000I0J-95740D01*
G01Y4719000D01*
G02X2696260I-95740J0D01*
G01Y4773010D01*
G03X2666870Y4791190I-20319J-2D01*
G37*
G54D24*
X5085000Y160000D03*
X5315000D03*
X4045000D03*
X4275000D03*
G54D25*
X6201600Y361600D03*
G54D23*
X2792000Y5192000D03*
X1928000D03*
G54D22*
X2950000Y4280000D03*
%LPD*%
G75*
G54D10*
X360000Y360000D03*
Y5040000D03*
X8140000Y360000D03*
Y5040000D03*
G54D20*
G01X2920000Y1060000D02*
X2750000Y890000D01*
X2060000D01*
X2010000Y840000D01*
Y510000D01*
X1920000Y420000D01*
X1020000D01*
X880000Y560000D01*
Y2831500D01*
X600000Y3111500D01*
G01X2920000Y1060000D02*
X2990000Y1130000D01*
X3770000D01*
X3900000Y1260000D01*
G01X2920000Y1200000D02*
X3700000D01*
X3760000Y1260000D01*
G01X2920000Y1480000D02*
X2990000Y1550000D01*
X3500000D01*
X3580000Y1630000D01*
Y2970000D01*
X4140000Y3530000D01*
Y3710000D01*
X4500000Y4070000D01*
Y4671500D01*
X4371500Y4800000D01*
G01X2920000Y1620000D02*
X2850000Y1550000D01*
Y1444760D01*
X2884760Y1410000D01*
X2950000D01*
X3020000Y1480000D01*
X4030000D01*
X4280000Y1230000D01*
X6840000D01*
X7220000Y1610000D01*
X7810000D01*
X8080000Y1880000D01*
Y3748500D01*
X7900000Y3928500D01*
G01X3900000Y2930000D02*
X3850320Y2880320D01*
Y2819680D01*
X3900000Y2770000D01*
X4252520D01*
X4412520Y2930000D01*
X6880000D01*
X6940000Y2990000D01*
Y3120000D01*
X6880640Y3179360D01*
X6697140D01*
X6685180Y3167370D01*
X6675280Y3147580D01*
Y3147570D01*
X6684350Y3120330D01*
X6775000Y3075000D01*
G01X3760000Y2930000D02*
X3809680Y2880320D01*
Y2802840D01*
X3883160Y2729360D01*
X4269360D01*
X4429360Y2889360D01*
X6896840D01*
X6980640Y2973160D01*
Y3136840D01*
X6897480Y3220000D01*
X6680280D01*
X6651770Y3191440D01*
X6638920Y3165760D01*
X6611660Y3156660D01*
X6521000Y3202000D01*
G01X3970000Y2990000D02*
Y2880000D01*
G01X4180000Y2930000D02*
X4130320Y2979680D01*
Y3072840D01*
X4167480Y3110000D01*
X5957480D01*
X6246840Y3399360D01*
X6370000D01*
X6440360Y3329000D01*
X6775000D01*
G01X6521000Y3710000D02*
Y3621000D01*
X6340000Y3440000D01*
X6230000D01*
X5940640Y3150640D01*
X4150640D01*
X4089680Y3089680D01*
Y2979680D01*
X4040000Y2930000D01*
G01X4530000Y2500000D02*
Y2370000D01*
G01X4320000Y2430000D02*
X4369680Y2479680D01*
Y2607160D01*
X4503160Y2740640D01*
X5029360D01*
X5100640Y2669360D01*
Y1916840D01*
X5216840Y1800640D01*
X6330640D01*
X6521000Y1991000D01*
Y2080000D01*
G01X6775000Y1699000D02*
X6421000D01*
X6360000Y1760000D01*
X5200000D01*
X5060000Y1900000D01*
Y2652520D01*
X5012520Y2700000D01*
X4520000D01*
X4410320Y2590320D01*
Y2479680D01*
X4460000Y2430000D01*
G01X4740000D02*
X4709060Y2460940D01*
Y2489680D01*
X4729380Y2510000D01*
X4829040D01*
X4849360Y2489680D01*
Y1460640D01*
X4900640Y1409360D01*
X6601030D01*
X6641300Y1449620D01*
X6657100Y1481230D01*
X6684350Y1490330D01*
X6775000Y1445000D01*
G01X4600000Y2430000D02*
X4630000D01*
X4668420Y2468420D01*
Y2506520D01*
X4712540Y2550640D01*
X4845880D01*
X4890000Y2506520D01*
Y1477480D01*
X4917480Y1450000D01*
X6584190D01*
X6607890Y1473700D01*
X6620740Y1499400D01*
X6611660Y1526660D01*
X6521000Y1572000D01*
G54D11*
G01X3670000Y820000D02*
Y410000D01*
X3600000Y340000D01*
X990000D01*
X800000Y530000D01*
Y790000D01*
X695000Y895000D01*
X535000D01*
G01X2170000Y1450000D02*
X2166000Y1446000D01*
G01D02*
X1979000D01*
G01X3670000Y820000D02*
X8080000D01*
G01X4330000Y3240000D02*
X4336000Y3246000D01*
G01D02*
Y3421000D01*
X100000Y1030000D03*
X640000D03*
X535000Y895000D03*
X1030000Y80000D03*
X1000000Y880000D03*
X980000Y5220000D03*
X1340000Y670000D03*
Y570000D03*
X1530000Y80000D03*
X1440000Y670000D03*
X1540000D03*
Y570000D03*
X1440000D03*
X1500000Y880000D03*
X1480000Y5220000D03*
X2240000Y610000D03*
Y700000D03*
X2140000D03*
X2240000Y790000D03*
X2140000D03*
X2180000Y2130000D03*
X2200000Y2640000D03*
X2190000Y3310000D03*
X2180000Y3700000D03*
Y3860000D03*
Y4080000D03*
X2110000Y5250000D03*
X2420000Y1950000D03*
X2430000Y3050000D03*
X2440000Y3510000D03*
Y3830000D03*
X2540000Y4080000D03*
X2790000Y1950000D03*
Y2120000D03*
X2780000Y2650000D03*
Y2900000D03*
X2750000Y3590000D03*
Y3840000D03*
X2610000Y5250000D03*
X2970000Y60000D03*
Y690000D03*
X3060000D03*
X2970000Y820000D03*
X3060000D03*
X2920000Y1060000D03*
Y1330000D03*
Y1200000D03*
Y1480000D03*
Y1620000D03*
X3050000Y2900000D03*
X3130000Y3340000D03*
X3030000D03*
X2930000D03*
Y3440000D03*
X3030000D03*
X3130000D03*
X3320000Y60000D03*
X3150000Y690000D03*
X3240000D03*
X3150000Y820000D03*
X3240000D03*
X3350000Y1290000D03*
X3390000Y1700000D03*
Y2250000D03*
Y2600000D03*
X3400000Y2980000D03*
X3330000Y5230000D03*
X3600000Y60000D03*
X3440000Y540000D03*
Y670000D03*
X3540000Y540000D03*
Y670000D03*
X3670000Y820000D03*
X3520000Y1290000D03*
X3620000Y3200000D03*
X3950000Y700000D03*
Y940000D03*
X3900000Y1260000D03*
X3760000D03*
Y1390000D03*
X3890000Y1700000D03*
Y2250000D03*
Y2600000D03*
X3950000Y3040000D03*
X3900000Y2930000D03*
X3760000D03*
X3870000Y3350000D03*
X3830000Y5230000D03*
X4070000Y1260000D03*
X4210000Y2290000D03*
Y2600000D03*
X4180000Y2930000D03*
X4040000D03*
X4450000Y700000D03*
Y940000D03*
X4530000Y2290000D03*
X4600000Y2430000D03*
X4320000D03*
X4460000D03*
X4530000Y2590000D03*
X4320000Y3020000D03*
X4560000Y3240000D03*
X4730000Y1640000D03*
X4720000Y2050000D03*
X4740000Y2430000D03*
X4700000Y3020000D03*
X4980000Y2050000D03*
X4960000Y2600000D03*
X5000000Y3240000D03*
X5220000Y700000D03*
Y940000D03*
X5230000Y1640000D03*
X5220000Y2050000D03*
X5230000Y2480000D03*
X5720000Y700000D03*
Y1000000D03*
X5790000Y1320000D03*
Y1620000D03*
X5540000Y3020000D03*
X5740000Y3240000D03*
X5930000Y2020000D03*
Y2520000D03*
Y3020000D03*
X6050000Y3460000D03*
X5980000Y4040000D03*
Y4460000D03*
Y4850000D03*
X6280000Y1010000D03*
X6290000Y1320000D03*
Y1620000D03*
X6340000Y3280000D03*
Y3650000D03*
X6780000Y1010000D03*
X6830000Y5080000D03*
X7480000Y150000D03*
Y650000D03*
X7330000Y5080000D03*
X7900000Y1020000D03*
X8080000Y820000D03*
X7910000Y4390000D03*
X8400000Y1020000D03*
X8410000Y4390000D03*
G54D21*
G01X360000Y360000D02*
Y733400D01*
G01Y360000D02*
X733400D01*
G01X360000Y4666600D02*
Y5040000D01*
G01D02*
X733400D01*
G01X1928000Y4613100D02*
Y4774000D01*
G01D02*
Y4934900D01*
G01X1822100Y4774000D02*
X1928000D01*
G01Y5056100D02*
Y5192000D01*
G01D02*
Y5327900D01*
G01X1822100Y5192000D02*
X1928000D01*
G01D02*
X2033900D01*
G01X2792000Y4613100D02*
Y4774000D01*
G01D02*
Y4934900D01*
G01Y4774000D02*
X2897900D01*
G01X2792000Y5056100D02*
Y5192000D01*
G01D02*
Y5327900D01*
G01X2686100Y5192000D02*
X2792000D01*
G01D02*
X2897900D01*
G01X3430000Y4444100D02*
Y4600000D01*
G01D02*
Y4755900D01*
G01X3174100Y4600000D02*
X3430000D01*
G01D02*
X3685900D01*
G01X3646600Y130000D02*
X3785000D01*
G01D02*
Y268400D01*
G01Y130000D02*
X3923400D01*
G01X4535000D02*
Y268400D01*
G01X4396600Y130000D02*
X4535000D01*
G01D02*
X4673400D01*
G01X4825000D02*
Y268400D01*
G01X4686600Y130000D02*
X4825000D01*
G01D02*
X4963400D01*
G01X5436600D02*
X5575000D01*
G01X5800100Y106000D02*
X5946000D01*
G01X5575000Y130000D02*
Y268400D01*
G01Y130000D02*
X5713400D01*
G01X5800100Y614000D02*
X5946000D01*
G01Y106000D02*
Y251900D01*
G01Y106000D02*
X6091900D01*
G01X5946000Y468100D02*
Y614000D01*
G01D02*
X6091900D01*
G01X6308100Y106000D02*
X6454000D01*
G01X6308100Y614000D02*
X6454000D01*
G01Y106000D02*
Y251900D01*
G01Y106000D02*
X6599900D01*
G01X6454000Y468100D02*
Y614000D01*
G01D02*
X6599900D01*
G01X7766600Y360000D02*
X8140000D01*
G01X7766600Y5040000D02*
X8140000D01*
G01Y360000D02*
Y733400D01*
G01Y4666600D02*
Y5040000D01*
G54D12*
X600000Y1227500D03*
Y1481500D03*
Y2298500D03*
Y2552500D03*
Y2857500D03*
Y3111500D03*
Y3928500D03*
Y4182500D03*
X1979000Y1446000D03*
Y1700000D03*
X1725000Y1573000D03*
X1979000Y1954000D03*
X1725000Y1827000D03*
X1979000Y2208000D03*
X1725000Y2081000D03*
Y2335000D03*
X1979000Y3076000D03*
Y3330000D03*
X1725000Y3203000D03*
Y3457000D03*
X1979000Y3584000D03*
X1725000Y3711000D03*
X1979000Y3838000D03*
X1725000Y3965000D03*
X4336000Y3421000D03*
X4117500Y4800000D03*
X4371500D03*
X4590000Y3421000D03*
X4463000Y3675000D03*
X4844000Y3421000D03*
X4717000Y3675000D03*
X4971000D03*
X5098000Y3421000D03*
X5225000Y3675000D03*
X5188500Y4800000D03*
X5442500D03*
X6521000Y1572000D03*
Y1826000D03*
Y2080000D03*
Y2334000D03*
Y3456000D03*
Y3202000D03*
Y3710000D03*
Y3964000D03*
X6775000Y1699000D03*
Y1445000D03*
Y1953000D03*
Y2207000D03*
Y3075000D03*
Y3329000D03*
Y3583000D03*
Y3837000D03*
X7900000Y1227500D03*
Y1481500D03*
Y2298500D03*
Y2552500D03*
Y2857500D03*
Y3111500D03*
Y3928500D03*
Y4182500D03*
G54D13*
X1395000Y1115500D03*
Y2745500D03*
Y2664500D03*
Y4294500D03*
X4005500Y4005000D03*
X5554500D03*
X7105000Y1115500D03*
Y2664500D03*
Y2745500D03*
Y4294500D03*
G54D14*
X1928000Y4774000D03*
X2792000D03*
G54D15*
X1928000Y5192000D03*
X2792000D03*
G54D16*
X2950000Y4280000D03*
G54D17*
X3430000Y4000000D03*
Y4600000D03*
G54D18*
X3785000Y130000D03*
X4535000D03*
X4825000D03*
X5575000D03*
G54D19*
X5946000Y106000D03*
Y614000D03*
X6454000Y106000D03*
X6201600Y361600D03*
X6454000Y614000D03*
M02*
