G04 ================== begin FILE IDENTIFICATION RECORD ==================*
G04 Layout Name:  RM08S_V10_220913.brd*
G04 Film Name:    SilkScreen_Top*
G04 File Format:  Gerber RS274X*
G04 File Origin:  Cadence Allegro 17.2-S079*
G04 Origin Date:  Tue Sep 13 16:42:28 2022*
G04 *
G04 Layer:  PACKAGE GEOMETRY/SILKSCREEN_TOP*
G04 Layer:  BOARD GEOMETRY/SILKSCREEN_TOP*
G04 *
G04 Offset:    (0.0000 0.0000)*
G04 Mirror:    No*
G04 Mode:      Positive*
G04 Rotation:  0*
G04 FullContactRelief:  No*
G04 UndefLineWidth:     0.1524*
G04 ================== end FILE IDENTIFICATION RECORD ====================*
%FSLAX55Y55*MOMM*%
%IR0*IPPOS*OFA0.00000B0.00000*MIA0B0*SFA1.00000B1.00000*%
%ADD10C,.2*%
%ADD11C,.2032*%
%ADD12C,.1524*%
%ADD14R,2.2X2.2*%
%ADD13R,3.8X3.8*%
G75*
%LPD*%
G75*
G36*
G01X2262000Y548600D02*
G03I-25400J0D01*
G37*
G36*
G01X2690000Y1100000D02*
Y1020000D01*
X2730000Y1060000D01*
X2690000Y1100000D01*
G37*
G36*
G01Y1240000D02*
Y1160000D01*
X2730000Y1200000D01*
X2690000Y1240000D01*
G37*
G36*
G01Y1380000D02*
Y1300000D01*
X2730000Y1340000D01*
X2690000Y1380000D01*
G37*
G36*
G01Y1660000D02*
Y1580000D01*
X2730000Y1620000D01*
X2690000Y1660000D01*
G37*
G36*
G01Y1520000D02*
Y1440000D01*
X2730000Y1480000D01*
X2690000Y1520000D01*
G37*
G36*
G01Y1800000D02*
Y1720000D01*
X2730000Y1760000D01*
X2690000Y1800000D01*
G37*
G36*
G01X3140000Y1100000D02*
X3030000D01*
Y1280000D01*
X3140000D01*
Y2660000D01*
X3030000D01*
Y2840000D01*
X3140000D01*
Y2730000D01*
X5500000D01*
Y2840000D01*
X5610000D01*
Y2660000D01*
X5500000D01*
Y1280000D01*
X5610000D01*
Y1100000D01*
X5500000D01*
Y1210000D01*
X3140000D01*
Y1100000D01*
G37*
G36*
G01X3227200Y230000D02*
X3147200D01*
X3187200Y190000D01*
X3227200Y230000D01*
G37*
G36*
G01X5710000Y1340000D02*
G03I-30000J0D01*
G37*
%LPC*%
G75*
G54D14*
X5040000Y2280000D03*
Y1660000D03*
G54D13*
X4010000Y1970000D03*
%LPD*%
G75*
G54D10*
G01X1250000Y2690000D02*
X0D01*
Y1090000D01*
X1250000D01*
G01Y4320000D02*
X0D01*
Y2720000D01*
X1250000D01*
G01X380000Y850000D02*
Y1030000D01*
X480000D01*
Y850000D01*
X380000D01*
G01X480000Y4556500D02*
Y4376500D01*
X380000D01*
Y4556500D01*
X480000D01*
G01X1620000Y570000D02*
G03X1780000I80000J147500D01*
G01X1620000D02*
Y910000D01*
G01X1780000D02*
G03X1620000I-80000J-147500D01*
G01X1540000Y1090000D02*
X2130000D01*
Y2690000D01*
X1540000D01*
G01Y2720000D02*
X2130000D01*
Y4320000D01*
X1540000D01*
G01X1710000Y120000D02*
Y300000D01*
X1810000D01*
Y120000D01*
X1710000D01*
G01X1840000D02*
Y300000D01*
X1940000D01*
Y120000D01*
X1840000D01*
G01X1710000Y320000D02*
Y500000D01*
X1810000D01*
Y320000D01*
X1710000D01*
G01X1940000Y500000D02*
Y320000D01*
X1840000D01*
Y500000D01*
X1940000D01*
G01X1810000Y570000D02*
G03X1970000I80000J147500D01*
G01X1810000D02*
Y910000D01*
G01X1780000D02*
Y570000D01*
G01X1970000Y910000D02*
G03X1810000I-80000J-147500D01*
G01X1950000Y4650000D02*
X1910000D01*
Y4690000D01*
G01Y4650000D02*
X1980000D01*
G01X1910000Y5090000D02*
Y4900000D01*
G01X2810000Y5290000D02*
Y5400000D01*
X1910000D01*
Y5290000D01*
G01X2279700Y269200D02*
X1987600D01*
Y370800D01*
X2292400D01*
Y345400D01*
G01X2100000Y740000D02*
G03X2000000I-50000J-50000D01*
G01Y580000D02*
G03X2100000I50000J50000D01*
G01Y740000D02*
Y580000D01*
G01X2000000D02*
Y740000D01*
G01X1970000Y910000D02*
Y570000D01*
G01X2090000Y2690000D02*
X2130000D01*
Y2650000D01*
G01Y2760000D02*
Y2720000D01*
X2090000D01*
G01X2230000Y4556500D02*
Y4376500D01*
X2130000D01*
Y4556500D01*
X2230000D01*
G01X2350000Y157200D02*
G03X2450000I50000J50000D01*
G01Y317200D02*
Y157200D01*
G01X2350000D02*
Y317200D01*
G01X2450000D02*
G03X2350000I-50000J-50000D01*
G01X2292400Y294600D02*
G02Y345400I0J25400D01*
G01X2279700Y269200D02*
X2292400D01*
Y294600D01*
G01X2330000Y880000D02*
X2910000D01*
Y360000D01*
X2330000D01*
Y880000D01*
G01X2550000Y1010000D02*
X2370000D01*
Y1110000D01*
X2550000D01*
Y1010000D01*
G01Y1150000D02*
X2370000D01*
Y1250000D01*
X2550000D01*
Y1150000D01*
G01Y1290000D02*
X2370000D01*
Y1390000D01*
X2550000D01*
Y1290000D01*
G01Y1430000D02*
X2370000D01*
Y1530000D01*
X2550000D01*
Y1430000D01*
G01Y1570000D02*
X2370000D01*
Y1670000D01*
X2550000D01*
Y1570000D01*
G01Y1710000D02*
X2370000D01*
Y1810000D01*
X2550000D01*
Y1710000D01*
G01X2440000Y4376500D02*
Y4556500D01*
X2540000D01*
Y4376500D01*
X2440000D01*
G01X2610000Y700000D02*
G02Y620000I0J-40000D01*
G01D02*
G02Y540000I0J-40000D01*
G01D02*
G02Y460000I0J-40000D01*
G01Y780000D02*
G02Y700000I0J-40000D01*
G01X2570000Y1120000D02*
Y1000000D01*
X2850000D01*
Y1120000D01*
X2570000D01*
G01Y1260000D02*
Y1140000D01*
X2850000D01*
Y1260000D01*
X2570000D01*
G01Y1400000D02*
Y1280000D01*
X2850000D01*
Y1400000D01*
X2570000D01*
G01Y1680000D02*
Y1560000D01*
X2850000D01*
Y1680000D01*
X2570000D01*
G01Y1540000D02*
Y1420000D01*
X2850000D01*
Y1540000D01*
X2570000D01*
G01Y1820000D02*
Y1700000D01*
X2850000D01*
Y1820000D01*
X2570000D01*
G01X2810000Y4650000D02*
X2740000D01*
G01X2810000Y4900000D02*
Y5090000D01*
G01X2980000Y120000D02*
Y300000D01*
X3080000D01*
Y120000D01*
X2980000D01*
G01X2970000Y380000D02*
G03X3090000I60000J77500D01*
G01X2970000Y640000D02*
Y380000D01*
G01X3090000D02*
Y640000D01*
G01D02*
G03X2970000I-60000J-77500D01*
G01X2850000Y1120000D02*
X2880000D01*
Y1000000D01*
X2850000D01*
G01Y1260000D02*
X2880000D01*
Y1140000D01*
X2850000D01*
G01Y1400000D02*
X2880000D01*
Y1280000D01*
X2850000D01*
G01Y1680000D02*
X2880000D01*
Y1560000D01*
X2850000D01*
G01Y1540000D02*
X2880000D01*
Y1420000D01*
X2850000D01*
G01Y1820000D02*
X2880000D01*
Y1700000D01*
X2850000D01*
G01X2990000Y4000000D02*
X2950000D01*
Y4040000D01*
G01X3200000Y4000000D02*
X2950000D01*
Y4050000D01*
G01Y4510000D02*
Y5400000D01*
X3850000D01*
Y4000000D01*
X3660000D01*
G01X3247200Y70000D02*
Y40000D01*
X3127200D01*
Y70000D01*
G01X3247200Y350000D02*
X3127200D01*
Y70000D01*
X3247200D01*
Y350000D01*
G01X3127200Y380000D02*
G03X3247200I60000J77500D01*
G01X3127200Y640000D02*
Y380000D01*
G01X3247200D02*
Y640000D01*
G01X3280000Y380000D02*
G03X3400000I60000J77500D01*
G01X3280000Y640000D02*
Y380000D01*
G01X3400000D02*
Y640000D01*
G01X3280000Y720000D02*
G03X3400000I60000J77500D01*
G01X3280000Y980000D02*
Y720000D01*
G01X3400000D02*
Y980000D01*
G01X3247200Y640000D02*
G03X3127200I-60000J-77500D01*
G01X3400000D02*
G03X3280000I-60000J-77500D01*
G01X3400000Y980000D02*
G03X3280000I-60000J-77500D01*
G01X3670000Y3280000D02*
X3190000D01*
Y3500000D01*
X3670000D01*
Y3280000D01*
G01X3140000Y3820000D02*
X3720000D01*
Y3540000D01*
X3140000D01*
Y3820000D01*
G01X3563500Y430000D02*
G03I-63500J0D01*
G01X3420000Y720000D02*
G03X3540000I60000J77500D01*
G01X3420000Y980000D02*
Y720000D01*
G01X3540000D02*
Y980000D01*
G01D02*
G03X3420000I-60000J-77500D01*
G01X4020000Y3270000D02*
X3980000D01*
Y3310000D01*
G01Y3860000D02*
Y3270000D01*
X5580000D01*
Y3860000D01*
G01X3720000Y3820000D02*
X3750000D01*
Y3540000D01*
X3720000D01*
G01X5580000Y4150000D02*
Y5400000D01*
X3980000D01*
Y4150000D01*
G01X5820000Y4960000D02*
X5640000D01*
Y5060000D01*
X5820000D01*
Y4960000D01*
G01X6400000Y-700000D02*
X6000000Y-800000D01*
G01X6560000Y-640000D02*
X6400000Y-700000D01*
X6560000Y-750000D01*
X6400000Y-800000D01*
X6560000D01*
Y-200000D01*
X5840000D01*
Y-800000D01*
X6000000D01*
X5840000Y-750000D01*
X6000000Y-690000D01*
X5840000Y-640000D01*
G01X6000000Y0D02*
Y-800000D01*
X6400000D01*
Y0D01*
G01Y-590000D02*
X6000000Y-690000D01*
G01X6400000Y-480000D02*
X6000000Y-580000D01*
G01X6400000Y-370000D02*
X6000000Y-470000D01*
G01X5840000Y-530000D02*
X6000000Y-470000D01*
X5840000Y-420000D01*
G01Y-640000D02*
X6000000Y-580000D01*
X5840000Y-530000D01*
G01X6000000Y-250000D02*
X6200000Y-200000D01*
G01X6400000Y-260000D02*
X6000000Y-360000D01*
G01X5840000Y-310000D02*
X6000000Y-250000D01*
X5840000Y-200000D01*
G01Y-420000D02*
X6000000Y-360000D01*
X5840000Y-310000D01*
G01X6040000Y40000D02*
X6360000D01*
G01X5880000Y520000D02*
Y200000D01*
G01X6351330Y360000D02*
G03I-151330J0D01*
G01X6040000Y680000D02*
X6360000D01*
G01X6960000Y2690000D02*
X6370000D01*
Y1090000D01*
X6960000D01*
G01X6370000Y2650000D02*
Y2690000D01*
X6410000D01*
G01Y2730000D02*
X6370000D01*
Y2770000D01*
G01X6960000Y4320000D02*
X6370000D01*
Y2720000D01*
X6960000D01*
G01X6560000Y-530000D02*
X6400000Y-590000D01*
X6560000Y-640000D01*
G01Y-420000D02*
X6400000Y-480000D01*
X6560000Y-530000D01*
G01Y-310000D02*
X6400000Y-370000D01*
X6560000Y-420000D01*
G01Y-200000D02*
X6400000Y-260000D01*
X6560000Y-310000D01*
G01X6520000Y520000D02*
Y200000D01*
G01X7250000Y1090000D02*
X8500000D01*
Y2690000D01*
X7250000D01*
G01Y2720000D02*
X8500000D01*
Y4320000D01*
X7250000D01*
G01X8030000Y850000D02*
Y1030000D01*
X8130000D01*
Y850000D01*
X8030000D01*
G01X8130000Y4556500D02*
Y4376500D01*
X8030000D01*
Y4556500D01*
X8130000D01*
G54D11*
G01X4550000Y20000D02*
X4330000D01*
Y-90000D01*
X3990000D01*
Y20000D01*
X3770000D01*
G01X3760000Y240000D02*
Y300000D01*
X3850000D01*
G01X4030000D02*
X4290000D01*
G01X4470000D02*
X4560000D01*
Y240000D01*
G01X5590000Y20000D02*
X5370000D01*
Y-90000D01*
X5030000D01*
Y20000D01*
X4810000D01*
G01X4800000Y240000D02*
Y300000D01*
X4890000D01*
G01X5070000D02*
X5330000D01*
G01X5510000D02*
X5600000D01*
Y240000D01*
G54D12*
G01X2163330Y2840000D02*
Y2730000D01*
X2216670D01*
G01X2246670D02*
X2280000Y2840000D01*
X2313330Y2730000D01*
G01X2301330Y2768500D02*
X2258670D01*
G01X2339330Y2730000D02*
Y2840000D01*
X2400670Y2730000D01*
Y2840000D01*
G01X2430670Y2752000D02*
X2438670Y2739160D01*
X2449330Y2731830D01*
X2461330Y2730000D01*
X2472000Y2731830D01*
X2482670Y2741000D01*
X2489330Y2752000D01*
X2490670Y2763000D01*
X2488000Y2775830D01*
X2478670Y2785000D01*
X2469330Y2788670D01*
X2457330D01*
G01X2469330D02*
X2477330Y2794170D01*
X2484000Y2803330D01*
X2486670Y2814330D01*
X2484000Y2825330D01*
X2477330Y2834500D01*
X2465330Y2840000D01*
X2453330Y2838170D01*
X2441330Y2830830D01*
G01X2163330Y2680000D02*
Y2570000D01*
X2216670D01*
G01X2246670D02*
X2280000Y2680000D01*
X2313330Y2570000D01*
G01X2301330Y2608500D02*
X2258670D01*
G01X2339330Y2570000D02*
Y2680000D01*
X2400670Y2570000D01*
Y2680000D01*
G01X2476000Y2570000D02*
Y2680000D01*
X2426670Y2601170D01*
X2493330D01*
G01X3408000Y258000D02*
X3414000Y247500D01*
X3422000Y241500D01*
X3431000Y240000D01*
X3439000Y241500D01*
X3447000Y249000D01*
X3452000Y258000D01*
X3453000Y267000D01*
X3451000Y277500D01*
X3444000Y285000D01*
X3437000Y288000D01*
X3428000D01*
G01X3437000D02*
X3443000Y292500D01*
X3448000Y300000D01*
X3450000Y309000D01*
X3448000Y318000D01*
X3443000Y325500D01*
X3434000Y330000D01*
X3425000Y328500D01*
X3416000Y322500D01*
G01X3475000Y330000D02*
X3500000Y240000D01*
X3525000Y330000D01*
G01X3548000Y258000D02*
X3554000Y247500D01*
X3562000Y241500D01*
X3571000Y240000D01*
X3579000Y241500D01*
X3587000Y249000D01*
X3592000Y258000D01*
X3593000Y267000D01*
X3591000Y277500D01*
X3584000Y285000D01*
X3577000Y288000D01*
X3568000D01*
G01X3577000D02*
X3583000Y292500D01*
X3588000Y300000D01*
X3590000Y309000D01*
X3588000Y318000D01*
X3583000Y325500D01*
X3574000Y330000D01*
X3565000Y328500D01*
X3556000Y322500D01*
G01X3220670Y3116500D02*
X3228670Y3107330D01*
X3238000Y3101830D01*
X3250000Y3100000D01*
X3262000Y3103670D01*
X3271330Y3111000D01*
X3278000Y3123830D01*
X3279330Y3138500D01*
X3276670Y3153170D01*
X3270000Y3162330D01*
X3260670Y3169670D01*
X3251330Y3171500D01*
X3242000Y3169670D01*
X3230000Y3162330D01*
X3234000Y3210000D01*
X3270000D01*
G01X3322670Y3136670D02*
X3357330D01*
G01X3430000Y3100000D02*
Y3210000D01*
X3414000Y3188000D01*
G01Y3100000D02*
X3446000D01*
G01X3494670Y3191670D02*
X3502670Y3202660D01*
X3512000Y3208170D01*
X3522670Y3210000D01*
X3536000Y3206330D01*
X3545330Y3197170D01*
X3548000Y3186170D01*
X3546670Y3175160D01*
X3541330Y3166000D01*
X3514670Y3147670D01*
X3502670Y3134830D01*
X3494670Y3116500D01*
X3492000Y3100000D01*
X3548000D01*
G01X3576670Y3210000D02*
X3610000Y3100000D01*
X3643330Y3210000D01*
G01X3760000Y560000D02*
X3778670Y450000D01*
X3800000Y560000D01*
X3821330Y450000D01*
X3840000Y560000D01*
G01X3860670Y450000D02*
Y560000D01*
X3887330D01*
X3898000Y554500D01*
X3906000Y547170D01*
X3912670Y536170D01*
X3918000Y523330D01*
X3919330Y505000D01*
X3918000Y486670D01*
X3912670Y473830D01*
X3906000Y462830D01*
X3898000Y455500D01*
X3887330Y450000D01*
X3860670D01*
G01X3980000Y560000D02*
Y450000D01*
G01X3949330Y560000D02*
X4010670D01*
G01X4030000Y413330D02*
X4110000D01*
G01X4133330Y450000D02*
Y560000D01*
X4166670D01*
X4177330Y554500D01*
X4184000Y547170D01*
X4186670Y532500D01*
X4184000Y517830D01*
X4176000Y508670D01*
X4166670Y503170D01*
X4133330D01*
G01X4166670D02*
X4186670Y450000D01*
G01X4222000Y464660D02*
X4232670Y455500D01*
X4244670Y450000D01*
X4255330D01*
X4266000Y455500D01*
X4274000Y464660D01*
X4278000Y477500D01*
X4275330Y490330D01*
X4268670Y501330D01*
X4256670Y508670D01*
X4240670Y512330D01*
X4231330Y519670D01*
X4227330Y532500D01*
X4230000Y545330D01*
X4236670Y554500D01*
X4246000Y560000D01*
X4255330D01*
X4264670Y556330D01*
X4272670Y547170D01*
G01X4340000Y560000D02*
Y450000D01*
G01X4309330Y560000D02*
X4370670D01*
G01X4390000Y413330D02*
X4470000D01*
G01X4489330Y450000D02*
Y560000D01*
X4550670Y450000D01*
Y560000D01*
G01X3980000Y3210000D02*
X3998670Y3100000D01*
X4020000Y3210000D01*
X4041330Y3100000D01*
X4060000Y3210000D01*
G01X4076670Y3100000D02*
X4110000Y3210000D01*
X4143330Y3100000D01*
G01X4131330Y3138500D02*
X4088670D01*
G01X4169330Y3100000D02*
Y3210000D01*
X4230670Y3100000D01*
Y3210000D01*
G01X4903330Y450000D02*
Y560000D01*
X4935330D01*
X4946000Y554500D01*
X4954000Y541670D01*
X4956670Y527000D01*
X4954000Y512330D01*
X4947330Y501330D01*
X4935330Y495830D01*
X4903330D01*
G01X5020000Y450000D02*
X5009330Y451830D01*
X5000000Y459160D01*
X4992000Y470170D01*
X4986670Y483000D01*
X4984000Y497670D01*
Y512330D01*
X4986670Y527000D01*
X4992000Y539830D01*
X5000000Y550830D01*
X5009330Y558170D01*
X5020000Y560000D01*
X5030670Y558170D01*
X5040000Y550830D01*
X5048000Y539830D01*
X5053330Y527000D01*
X5056000Y512330D01*
Y497670D01*
X5053330Y483000D01*
X5048000Y470170D01*
X5040000Y459160D01*
X5030670Y451830D01*
X5020000Y450000D01*
G01X5083330D02*
Y560000D01*
X5116670D01*
X5127330Y554500D01*
X5134000Y547170D01*
X5136670Y532500D01*
X5134000Y517830D01*
X5126000Y508670D01*
X5116670Y503170D01*
X5083330D01*
G01X5116670D02*
X5136670Y450000D01*
G01X5172000Y464660D02*
X5182670Y455500D01*
X5194670Y450000D01*
X5205330D01*
X5216000Y455500D01*
X5224000Y464660D01*
X5228000Y477500D01*
X5225330Y490330D01*
X5218670Y501330D01*
X5206670Y508670D01*
X5190670Y512330D01*
X5181330Y519670D01*
X5177330Y532500D01*
X5180000Y545330D01*
X5186670Y554500D01*
X5196000Y560000D01*
X5205330D01*
X5214670Y556330D01*
X5222670Y547170D01*
G01X5290000Y560000D02*
Y450000D01*
G01X5259330Y560000D02*
X5320670D01*
G01X5340000Y413330D02*
X5420000D01*
G01X5439330Y450000D02*
Y560000D01*
X5500670Y450000D01*
Y560000D01*
G01X5993330Y2680000D02*
Y2570000D01*
X6046670D01*
G01X6076670D02*
X6110000Y2680000D01*
X6143330Y2570000D01*
G01X6131330Y2608500D02*
X6088670D01*
G01X6169330Y2570000D02*
Y2680000D01*
X6230670Y2570000D01*
Y2680000D01*
G01X6290000Y2570000D02*
Y2680000D01*
X6274000Y2658000D01*
G01Y2570000D02*
X6306000D01*
G01X5993330Y2850000D02*
Y2740000D01*
X6046670D01*
G01X6076670D02*
X6110000Y2850000D01*
X6143330Y2740000D01*
G01X6131330Y2778500D02*
X6088670D01*
G01X6169330Y2740000D02*
Y2850000D01*
X6230670Y2740000D01*
Y2850000D01*
G01X6264670Y2831670D02*
X6272670Y2842660D01*
X6282000Y2848170D01*
X6292670Y2850000D01*
X6306000Y2846330D01*
X6315330Y2837170D01*
X6318000Y2826170D01*
X6316670Y2815160D01*
X6311330Y2806000D01*
X6284670Y2787670D01*
X6272670Y2774830D01*
X6264670Y2756500D01*
X6262000Y2740000D01*
X6318000D01*
G01X6756000Y135000D02*
X6762000Y144000D01*
X6769000Y148500D01*
X6777000Y150000D01*
X6787000Y147000D01*
X6794000Y139500D01*
X6796000Y130500D01*
X6795000Y121500D01*
X6791000Y114000D01*
X6771000Y99000D01*
X6762000Y88500D01*
X6756000Y73500D01*
X6754000Y60000D01*
X6796000D01*
G01X6826000Y135000D02*
X6832000Y144000D01*
X6839000Y148500D01*
X6847000Y150000D01*
X6857000Y147000D01*
X6864000Y139500D01*
X6866000Y130500D01*
X6865000Y121500D01*
X6861000Y114000D01*
X6841000Y99000D01*
X6832000Y88500D01*
X6826000Y73500D01*
X6824000Y60000D01*
X6866000D01*
G01X6915000Y150000D02*
X6907000Y147000D01*
X6901000Y139500D01*
X6897000Y130500D01*
X6894000Y118500D01*
X6893000Y105000D01*
X6894000Y91500D01*
X6897000Y79500D01*
X6901000Y70500D01*
X6907000Y63000D01*
X6915000Y60000D01*
X6923000Y63000D01*
X6929000Y70500D01*
X6933000Y79500D01*
X6936000Y91500D01*
X6937000Y105000D01*
X6936000Y118500D01*
X6933000Y130500D01*
X6929000Y139500D01*
X6923000Y147000D01*
X6915000Y150000D01*
G01X6968000Y70500D02*
X6975000Y63000D01*
X6983000Y60000D01*
X6991000Y63000D01*
X6998000Y72000D01*
X7003000Y85500D01*
X7005000Y99000D01*
Y115500D01*
X7003000Y129000D01*
X6998000Y141000D01*
X6992000Y147000D01*
X6985000Y150000D01*
X6977000Y147000D01*
X6971000Y141000D01*
X6967000Y132000D01*
X6965000Y120000D01*
X6967000Y109500D01*
X6972000Y99000D01*
X6978000Y93000D01*
X6985000Y91500D01*
X6993000Y94500D01*
X6999000Y102000D01*
X7005000Y115500D01*
G01X7055000Y60000D02*
Y150000D01*
X7043000Y132000D01*
G01Y60000D02*
X7067000D01*
G01X7103000Y78000D02*
X7109000Y67500D01*
X7117000Y61500D01*
X7126000Y60000D01*
X7134000Y61500D01*
X7142000Y69000D01*
X7147000Y78000D01*
X7148000Y87000D01*
X7146000Y97500D01*
X7139000Y105000D01*
X7132000Y108000D01*
X7123000D01*
G01X7132000D02*
X7138000Y112500D01*
X7143000Y120000D01*
X7145000Y129000D01*
X7143000Y138000D01*
X7138000Y145500D01*
X7129000Y150000D01*
X7120000Y148500D01*
X7111000Y142500D01*
G01X6783000Y268000D02*
X6787000Y272500D01*
X6790000Y280000D01*
X6792000Y290500D01*
X6790000Y299500D01*
X6786000Y305500D01*
X6779000Y310000D01*
X6752000D01*
Y220000D01*
X6785000D01*
X6792000Y226000D01*
X6796000Y235000D01*
X6798000Y245500D01*
X6796000Y256000D01*
X6790000Y265000D01*
X6783000Y268000D01*
X6752000D01*
G01X6845000Y220000D02*
Y260500D01*
X6825000Y310000D01*
G01X6865000D02*
X6845000Y260500D01*
G01X6915000Y217000D02*
X6913000Y218500D01*
Y221500D01*
X6915000Y223000D01*
X6917000Y221500D01*
Y218500D01*
X6915000Y217000D01*
G01Y257500D02*
X6913000Y259000D01*
Y262000D01*
X6915000Y263500D01*
X6917000Y262000D01*
Y259000D01*
X6915000Y257500D01*
G01X6964000Y220000D02*
X7006000Y310000D01*
G01X6964000D02*
X7006000Y220000D01*
G01X7034000D02*
X7076000Y310000D01*
G01X7034000D02*
X7076000Y220000D01*
G01X7104000D02*
X7146000Y310000D01*
G01X7104000D02*
X7146000Y220000D01*
G01X7175000Y310000D02*
Y220000D01*
X7215000D01*
G01X7246000Y310000D02*
X7284000D01*
X7246000Y220000D01*
X7284000D01*
G01X7315000Y238000D02*
X7320000Y229000D01*
X7326000Y223000D01*
X7333000Y220000D01*
X7341000Y223000D01*
X7347000Y229000D01*
X7353000Y238000D01*
X7355000Y250000D01*
Y310000D01*
G01X7384000Y220000D02*
X7426000Y310000D01*
G01X7384000D02*
X7426000Y220000D01*
G01X7454000D02*
X7496000Y310000D01*
G01X7454000D02*
X7496000Y220000D01*
G01X7524000D02*
X7566000Y310000D01*
G01X7524000D02*
X7566000Y220000D01*
G01X6753330Y400000D02*
Y510000D01*
X6786670D01*
X6797330Y504500D01*
X6804000Y497170D01*
X6806670Y482500D01*
X6804000Y467830D01*
X6796000Y458670D01*
X6786670Y453170D01*
X6753330D01*
G01X6786670D02*
X6806670Y400000D01*
G01X6835330D02*
Y510000D01*
X6870000Y418330D01*
X6904670Y510000D01*
Y400000D01*
G01X6960000Y510000D02*
X6949330Y506330D01*
X6941330Y497170D01*
X6936000Y486170D01*
X6932000Y471500D01*
X6930670Y455000D01*
X6932000Y438500D01*
X6936000Y423830D01*
X6941330Y412830D01*
X6949330Y403670D01*
X6960000Y400000D01*
X6970670Y403670D01*
X6978670Y412830D01*
X6984000Y423830D01*
X6988000Y438500D01*
X6989330Y455000D01*
X6988000Y471500D01*
X6984000Y486170D01*
X6978670Y497170D01*
X6970670Y506330D01*
X6960000Y510000D01*
G01X7050000Y400000D02*
X7059330Y401830D01*
X7070000Y407330D01*
X7076670Y416500D01*
X7079330Y429330D01*
X7076670Y442160D01*
X7068670Y453170D01*
X7056670Y458670D01*
X7043330D01*
X7035330Y462330D01*
X7028670Y471500D01*
X7026000Y484330D01*
X7030000Y497170D01*
X7039330Y506330D01*
X7050000Y510000D01*
X7060670Y506330D01*
X7070000Y497170D01*
X7074000Y484330D01*
X7071330Y471500D01*
X7064670Y462330D01*
X7056670Y458670D01*
X7043330D01*
X7031330Y453170D01*
X7023330Y442160D01*
X7020670Y429330D01*
X7023330Y416500D01*
X7030000Y407330D01*
X7040670Y401830D01*
X7050000Y400000D01*
G01X7112000Y414660D02*
X7122670Y405500D01*
X7134670Y400000D01*
X7145330D01*
X7156000Y405500D01*
X7164000Y414660D01*
X7168000Y427500D01*
X7165330Y440330D01*
X7158670Y451330D01*
X7146670Y458670D01*
X7130670Y462330D01*
X7121330Y469670D01*
X7117330Y482500D01*
X7120000Y495330D01*
X7126670Y504500D01*
X7136000Y510000D01*
X7145330D01*
X7154670Y506330D01*
X7162670Y497170D01*
G01X7190000Y363330D02*
X7270000D01*
G01X7286670Y510000D02*
X7320000Y400000D01*
X7353330Y510000D01*
G01X7410000Y400000D02*
Y510000D01*
X7394000Y488000D01*
G01Y400000D02*
X7426000D01*
G01X7500000Y510000D02*
X7489330Y506330D01*
X7481330Y497170D01*
X7476000Y486170D01*
X7472000Y471500D01*
X7470670Y455000D01*
X7472000Y438500D01*
X7476000Y423830D01*
X7481330Y412830D01*
X7489330Y403670D01*
X7500000Y400000D01*
X7510670Y403670D01*
X7518670Y412830D01*
X7524000Y423830D01*
X7528000Y438500D01*
X7529330Y455000D01*
X7528000Y471500D01*
X7524000Y486170D01*
X7518670Y497170D01*
X7510670Y506330D01*
X7500000Y510000D01*
M02*
