G04 ================== begin FILE IDENTIFICATION RECORD ==================*
G04 Layout Name:  RM08S_V10_220913.brd*
G04 Film Name:    SolderMask_Top*
G04 File Format:  Gerber RS274X*
G04 File Origin:  Cadence Allegro 17.2-S079*
G04 Origin Date:  Tue Sep 13 16:42:28 2022*
G04 *
G04 Layer:  PIN/SOLDERMASK_TOP*
G04 Layer:  PACKAGE GEOMETRY/SOLDERMASK_TOP*
G04 Layer:  BOARD GEOMETRY/SOLDERMASK_TOP*
G04 *
G04 Offset:    (0.0000 0.0000)*
G04 Mirror:    No*
G04 Mode:      Positive*
G04 Rotation:  0*
G04 FullContactRelief:  No*
G04 UndefLineWidth:     0.1524*
G04 ================== end FILE IDENTIFICATION RECORD ====================*
%FSLAX55Y55*MOMM*%
%IR0*IPPOS*OFA0.00000B0.00000*MIA0B0*SFA1.00000B1.00000*%
%ADD19R,.4X1.3*%
%ADD18R,.7X1.3*%
%ADD17R,.8X1.3*%
%ADD29C,.85*%
%ADD22R,.9X.9*%
%ADD15O,1.1X2.2*%
%ADD14R,1.3X1.1*%
%ADD16O,1.1X1.7*%
%ADD30R,1.5X1.3*%
%ADD24R,1.9X1.1*%
%ADD25R,1.1X1.9*%
%ADD20R,1.5X4.3*%
%ADD27O,4.15X2.15*%
%ADD23O,2.15X4.15*%
%ADD21R,.6X.7*%
%ADD26R,1.7X1.9*%
%ADD11R,.7X.6*%
%ADD13C,2.6*%
%ADD12C,1.7*%
%ADD33C,1.9*%
%ADD32R,2.1X2.1*%
%ADD28C,1.75*%
%ADD10C,6.45*%
%ADD31R,3.7X3.7*%
%LPD*%
G75*
G54D10*
X360000Y360000D03*
Y5040000D03*
X8140000Y360000D03*
Y5040000D03*
G54D11*
X430000Y985000D03*
Y895000D03*
Y4421500D03*
Y4511500D03*
X1760000Y165000D03*
X1890000D03*
X1760000Y255000D03*
X1890000D03*
X1760000Y455000D03*
Y365000D03*
X1890000D03*
Y455000D03*
X2050000Y705000D03*
Y615000D03*
X2180000Y4421500D03*
Y4511500D03*
X2400000Y282200D03*
Y192200D03*
X2490000Y4511500D03*
Y4421500D03*
X3030000Y165000D03*
Y255000D03*
X8080000Y985000D03*
Y895000D03*
Y4421500D03*
Y4511500D03*
G54D20*
X2425000Y620000D03*
X2815000D03*
G54D12*
X600000Y1227500D03*
Y1481500D03*
Y2298500D03*
Y2552500D03*
Y2857500D03*
Y3111500D03*
Y3928500D03*
Y4182500D03*
X1979000Y1446000D03*
Y1700000D03*
X1725000Y1573000D03*
X1979000Y1954000D03*
X1725000Y1827000D03*
X1979000Y2208000D03*
X1725000Y2081000D03*
Y2335000D03*
X1979000Y3076000D03*
Y3330000D03*
X1725000Y3203000D03*
Y3457000D03*
X1979000Y3584000D03*
X1725000Y3711000D03*
X1979000Y3838000D03*
X1725000Y3965000D03*
X4336000Y3421000D03*
X4117500Y4800000D03*
X4371500D03*
X4590000Y3421000D03*
X4463000Y3675000D03*
X4844000Y3421000D03*
X4717000Y3675000D03*
X4971000D03*
X5098000Y3421000D03*
X5225000Y3675000D03*
X5188500Y4800000D03*
X5442500D03*
X6521000Y1572000D03*
Y1826000D03*
Y2080000D03*
Y2334000D03*
Y3456000D03*
Y3202000D03*
Y3710000D03*
Y3964000D03*
X6775000Y1699000D03*
Y1445000D03*
Y1953000D03*
Y2207000D03*
Y3075000D03*
Y3329000D03*
Y3583000D03*
Y3837000D03*
X7900000Y1227500D03*
Y1481500D03*
Y2298500D03*
Y2552500D03*
Y2857500D03*
Y3111500D03*
Y3928500D03*
Y4182500D03*
G54D21*
X2415000Y1060000D03*
X2505000D03*
X2415000Y1200000D03*
X2505000D03*
X2415000Y1340000D03*
X2505000D03*
X2415000Y1480000D03*
X2505000D03*
X2415000Y1620000D03*
X2505000D03*
X2415000Y1760000D03*
X2505000D03*
X5685000Y5010000D03*
X5775000D03*
G54D30*
X3940000Y330000D03*
X4380000D03*
X4980000D03*
X5420000D03*
G54D31*
X4010000Y1970000D03*
G54D13*
X1395000Y1115500D03*
Y2745500D03*
Y2664500D03*
Y4294500D03*
X4005500Y4005000D03*
X5554500D03*
X7105000Y1115500D03*
Y2664500D03*
Y2745500D03*
Y4294500D03*
G54D22*
X2633800Y1060000D03*
X2786200D03*
X2633800Y1200000D03*
X2786200D03*
X2633800Y1340000D03*
X2786200D03*
X2633800Y1620000D03*
X2786200D03*
X2633800Y1480000D03*
X2786200D03*
X2633800Y1760000D03*
X2786200D03*
X3030000Y433800D03*
Y586200D03*
X3187200Y133800D03*
Y286200D03*
Y433800D03*
X3340000D03*
Y773800D03*
X3187200Y586200D03*
X3340000D03*
Y926200D03*
X3480000Y773800D03*
Y926200D03*
G54D32*
X5040000Y1660000D03*
Y2280000D03*
G54D23*
X2950000Y4280000D03*
G54D14*
X1890000Y638400D03*
X1700000D03*
X1890000Y841600D03*
X1700000D03*
G54D33*
X5946000Y106000D03*
Y614000D03*
X6454000Y106000D03*
X6201600Y361600D03*
X6454000Y614000D03*
G54D24*
X3040000Y1340000D03*
Y1480000D03*
Y1620000D03*
Y1760000D03*
Y1900000D03*
Y2040000D03*
Y2180000D03*
Y2320000D03*
Y2460000D03*
Y2600000D03*
X5600000Y1340000D03*
Y1620000D03*
Y1480000D03*
Y1900000D03*
Y1760000D03*
Y2180000D03*
Y2040000D03*
Y2460000D03*
Y2320000D03*
Y2600000D03*
G54D15*
X1928000Y4774000D03*
X2792000D03*
G54D25*
X3340000Y1110000D03*
X3200000D03*
Y2830000D03*
X3340000D03*
X3620000Y1110000D03*
X3480000D03*
Y2830000D03*
X3620000D03*
X4040000Y1110000D03*
X3900000D03*
X3760000D03*
Y2830000D03*
X3900000D03*
X4040000D03*
X4320000Y1110000D03*
X4180000D03*
Y2830000D03*
X4320000D03*
X4600000Y1110000D03*
X4460000D03*
Y2830000D03*
X4600000D03*
X4880000Y1110000D03*
X4740000D03*
Y2830000D03*
X4880000D03*
X5160000Y1110000D03*
X5020000D03*
Y2830000D03*
X5160000D03*
X5440000Y1110000D03*
X5300000D03*
Y2830000D03*
X5440000D03*
G54D16*
X1928000Y5192000D03*
X2792000D03*
G54D26*
X3290000Y3390000D03*
X3240000Y3680000D03*
X3570000Y3390000D03*
X3620000Y3680000D03*
G54D17*
X2140000Y190000D03*
X2235000D03*
X2045000D03*
Y450000D03*
X2140000D03*
X2235000D03*
G54D27*
X3430000Y4000000D03*
Y4600000D03*
G54D18*
X2040000Y4670000D03*
X2120000D03*
X2600000D03*
X2680000D03*
G54D28*
X3785000Y130000D03*
X4535000D03*
X4825000D03*
X5575000D03*
G54D19*
X2185000Y4670000D03*
X2235000D03*
X2285000D03*
X2335000D03*
X2385000D03*
X2435000D03*
X2485000D03*
X2535000D03*
G54D29*
X3500000Y430000D03*
M02*
