G04 ================== begin FILE IDENTIFICATION RECORD ==================*
G04 Layout Name:  RM08S_V10_220913.brd*
G04 Film Name:    SolderMask_Bottom*
G04 File Format:  Gerber RS274X*
G04 File Origin:  Cadence Allegro 17.2-S079*
G04 Origin Date:  Tue Sep 13 16:42:28 2022*
G04 *
G04 Layer:  PIN/SOLDERMASK_BOTTOM*
G04 Layer:  PACKAGE GEOMETRY/SOLDERMASK_BOTTOM*
G04 Layer:  BOARD GEOMETRY/SOLDERMASK_BOTTOM*
G04 *
G04 Offset:    (0.0000 0.0000)*
G04 Mirror:    No*
G04 Mode:      Positive*
G04 Rotation:  0*
G04 FullContactRelief:  No*
G04 UndefLineWidth:     0.1524*
G04 ================== end FILE IDENTIFICATION RECORD ====================*
%FSLAX55Y55*MOMM*%
%IR0*IPPOS*OFA0.00000B0.00000*MIA0B0*SFA1.00000B1.00000*%
%ADD13O,1.1X2.2*%
%ADD14O,1.1X1.7*%
%ADD16O,4.15X2.15*%
%ADD15O,2.15X4.15*%
%ADD12C,2.6*%
%ADD11C,1.7*%
%ADD18C,1.9*%
%ADD17C,1.75*%
%ADD10C,6.45*%
%LPD*%
G75*
G54D10*
X360000Y360000D03*
Y5040000D03*
X8140000Y360000D03*
Y5040000D03*
G54D11*
X600000Y1227500D03*
Y1481500D03*
Y2298500D03*
Y2552500D03*
Y2857500D03*
Y3111500D03*
Y3928500D03*
Y4182500D03*
X1979000Y1446000D03*
Y1700000D03*
X1725000Y1573000D03*
X1979000Y1954000D03*
X1725000Y1827000D03*
X1979000Y2208000D03*
X1725000Y2081000D03*
Y2335000D03*
X1979000Y3076000D03*
Y3330000D03*
X1725000Y3203000D03*
Y3457000D03*
X1979000Y3584000D03*
X1725000Y3711000D03*
X1979000Y3838000D03*
X1725000Y3965000D03*
X4336000Y3421000D03*
X4117500Y4800000D03*
X4371500D03*
X4590000Y3421000D03*
X4463000Y3675000D03*
X4844000Y3421000D03*
X4717000Y3675000D03*
X4971000D03*
X5098000Y3421000D03*
X5225000Y3675000D03*
X5188500Y4800000D03*
X5442500D03*
X6521000Y1572000D03*
Y1826000D03*
Y2080000D03*
Y2334000D03*
Y3456000D03*
Y3202000D03*
Y3710000D03*
Y3964000D03*
X6775000Y1699000D03*
Y1445000D03*
Y1953000D03*
Y2207000D03*
Y3075000D03*
Y3329000D03*
Y3583000D03*
Y3837000D03*
X7900000Y1227500D03*
Y1481500D03*
Y2298500D03*
Y2552500D03*
Y2857500D03*
Y3111500D03*
Y3928500D03*
Y4182500D03*
G54D12*
X1395000Y1115500D03*
Y2745500D03*
Y2664500D03*
Y4294500D03*
X4005500Y4005000D03*
X5554500D03*
X7105000Y1115500D03*
Y2664500D03*
Y2745500D03*
Y4294500D03*
G54D13*
X1928000Y4774000D03*
X2792000D03*
G54D14*
X1928000Y5192000D03*
X2792000D03*
G54D15*
X2950000Y4280000D03*
G54D16*
X3430000Y4000000D03*
Y4600000D03*
G54D17*
X3785000Y130000D03*
X4535000D03*
X4825000D03*
X5575000D03*
G54D18*
X5946000Y106000D03*
Y614000D03*
X6454000Y106000D03*
X6201600Y361600D03*
X6454000Y614000D03*
M02*
