M48
METRIC,TZ
T01C.254
T02C.8
T03C1.1
T04C2.3
;LEADER: 12 
;HEADER: 
;CODE  : ASCII 
;FILE  : HY_4S_V10-1-2.drl for board H:/github/MBED-TOOLS/HARDWARE/HY_4S_V10/PCB/#Taaaarn04396.tmp ... layers TOP and BOTTOM
;T01 Holesize 1. = 0.254000 Tolerance = +0.000000/-0.000000 PLATED MM Quantity = 236
;T02 Holesize 2. = 0.800000 Tolerance = +0.000000/-0.000000 PLATED MM Quantity = 4
;T03 Holesize 3. = 1.100000 Tolerance = +0.000000/-0.000000 PLATED MM Quantity = 16
;T04 Holesize 4. = 2.300000 Tolerance = +0.000000/-0.000000 PLATED MM Quantity = 2
%
G90
T01
X6845060Y135540
X7267300Y337300
X7332700Y337300
X7345060Y135540
X7350000Y530000
X7350000Y600000
X7350000Y670000
X7590000Y680000
X7680000Y680000
X7770000Y680000
X8005060Y375540
X8015060Y135540
X8113100Y626900
X8505060Y375540
X8515060Y135540
X9185060Y125540
X9685060Y125540
X9085060Y785540
X8625060Y1065540
X8585060Y785540
X8125060Y1065540
X8115000Y915000
X7770000Y860000
X7770000Y770000
X7680000Y860000
X7680000Y770000
X7590000Y860000
X7590000Y770000
X7205540Y1484940
X7205540Y1984940
X6975540Y2644940
X7225060Y2575540
X7290000Y2837300
X7350000Y3030000
X7357300Y2837300
X7725060Y2575540
X7765060Y2925540
X8265060Y2925540
X8845060Y2695540
X8845060Y2965540
X9345060Y2695540
X9345060Y2965540
X9345060Y3275540
X8845060Y3275540
X8535060Y3575540
X8090000Y3415000
X8090000Y3126900
X8035060Y3575540
X7770000Y3360000
X7770000Y3270000
X7770000Y3180000
X7680000Y3360000
X7680000Y3270000
X7680000Y3180000
X7590000Y3360000
X7590000Y3270000
X7590000Y3180000
X7350000Y3170000
X7350000Y3100000
X7055540Y3604940
X6975540Y3144940
X6405540Y3334940
X5830000Y3640000
X5830000Y3410000
X5830000Y3180000
X5570000Y3180000
X5300000Y3630000
X5300000Y3410000
X5300000Y3180000
X4515060Y3255540
X4015060Y3805540
X4015060Y3255540
X3515060Y3805540
X3515060Y3255540
X3015060Y3805540
X3015060Y3255540
X2515060Y3805540
X2515060Y3255540
X2015060Y3255540
X1515060Y3255540
X1015060Y3255540
X210000Y3830000
X210000Y4520000
X950000Y4390000
X1150000Y4390000
X1430000Y3960000
X1730000Y3950000
X1880000Y3960000
X1880000Y4090000
X2040000Y4500000
X2495060Y4295540
X2995060Y4295540
X3495060Y4295540
X3995060Y4295540
X4360000Y4300000
X4360000Y4490000
X4500000Y3810000
X4850000Y4280000
X4850000Y4560000
X4930000Y3810000
X5030000Y4190000
X5170000Y4040000
X5320000Y4410000
X5320000Y4500000
X5410000Y4410000
X5410000Y4500000
X5430000Y3820000
X5500000Y4410000
X5500000Y4500000
X5700000Y3830000
X5870000Y4150000
X5870000Y4500000
X6010000Y3830000
X6185060Y4495540
X6400000Y4140000
X6405540Y3834940
X6685060Y4495540
X7050000Y4500000
X7055540Y4104940
X7530000Y4530000
X7545060Y4115540
X8045060Y4115540
X9385060Y5255540
X8885060Y5255540
X8035060Y4935540
X7535060Y4935540
X7342700Y5327300
X7279200Y5327300
X6840000Y5280000
X6840000Y4920000
X6620000Y5280000
X6549000Y5049000
X6470000Y5049000
X6160000Y4850000
X6100000Y5170000
X5870000Y4850000
X5500000Y4590000
X5480000Y5260000
X5410000Y4990000
X5410000Y4590000
X5370000Y5260000
X5320000Y4590000
X4870000Y5180000
X4860000Y5049000
X4771000Y5049000
X4015060Y4845540
X4015060Y4645540
X3530000Y5030000
X3515060Y4845540
X3515060Y4645540
X3450000Y5030000
X3370000Y5030000
X3015060Y4645540
X2515060Y4645540
X1790000Y5040000
X1790000Y4940000
X1790000Y4840000
X1690000Y5040000
X1690000Y4940000
X1690000Y4840000
X1400000Y4740000
X1150000Y4650000
X930000Y4650000
X210000Y5180000
X1025060Y5375540
X1025060Y5765540
X1525060Y5375540
X1525060Y5765540
X2025060Y5375540
X2025060Y5765540
X2525060Y5765540
X2685060Y5365540
X3025060Y5765540
X3185060Y5365540
X3525060Y5765540
X3685060Y5365540
X4025060Y5765540
X4185060Y5365540
X4525060Y5765540
X4880000Y5430000
X5150000Y5430000
X6210000Y5430000
X6480000Y5430000
X6585540Y5934940
X7340000Y5420000
X7340000Y5520000
X7340000Y5590000
X7340000Y5660000
X7590000Y5670000
X7590000Y5760000
X7590000Y5850000
X7680000Y5670000
X7680000Y5760000
X7680000Y5850000
X7765060Y5415540
X7770000Y5670000
X7770000Y5760000
X7770000Y5850000
X8015060Y6055540
X8113100Y5616900
X8115000Y5905000
X8265060Y5415540
X8475060Y5765540
X8515060Y6055540
X8975060Y5765540
X6585540Y6434940
X7215540Y6724940
X7215540Y7224940
X6595540Y8134940
X7266500Y7840000
X7330000Y7840000
X7350000Y8030000
X7350000Y8100000
X7350000Y8170000
X7590000Y8180000
X7590000Y8270000
X7590000Y8360000
X7680000Y8180000
X7680000Y8270000
X7680000Y8360000
X7764940Y7924460
X7770000Y8180000
X7770000Y8270000
X7770000Y8360000
X8113100Y8126900
X8264940Y7924460
X8534940Y8284460
X8954940Y7924460
X9034940Y8284460
X9454940Y7924460
X8574940Y8574460
X8115000Y8415000
X8074940Y8574460
X7554940Y8624460
X7054940Y8624460
X6595540Y8634940
T02
X1300000Y4375000
X1500000Y4375000
X1500000Y4625000
X1300000Y4625000
T03
X9690000Y370000
X9690000Y624000
X9690000Y878000
X9690000Y1132000
X9690000Y2870000
X9690000Y3124000
X9690000Y3378000
X9690000Y3632000
X9690000Y5360000
X9690000Y5614000
X9690000Y5868000
X9690000Y6122000
X9690000Y7870000
X9690000Y8124000
X9690000Y8378000
X9690000Y8632000
T04
X1029000Y3898000
X1029000Y5102000
M30
