G04 ================== begin FILE IDENTIFICATION RECORD ==================*
G04 Layout Name:  H:/github/MBED-TOOLS/HARDWARE/HY_4S_V10/PCB/HY_4S_V10.brd*
G04 Film Name:    OUTLINE*
G04 File Format:  Gerber RS274X*
G04 File Origin:  Cadence Allegro 17.2-S067*
G04 Origin Date:  Wed Dec 16 16:41:14 2020*
G04 *
G04 Layer:  BOARD GEOMETRY/DESIGN_OUTLINE*
G04 Layer:  BOARD GEOMETRY/CUTOUT*
G04 *
G04 Offset:    (0.0000 0.0000)*
G04 Mirror:    No*
G04 Mode:      Positive*
G04 Rotation:  0*
G04 FullContactRelief:  No*
G04 UndefLineWidth:     0.1524*
G04 ================== end FILE IDENTIFICATION RECORD ====================*
%FSLAX55Y55*MOMM*%
%IR0*IPPOS*OFA0.00000B0.00000*MIA0B0*SFA1.00000B1.00000*%
%ADD10C,.1524*%
G75*
%LPD*%
G75*
G54D10*
G01X6500000Y8700000D02*
Y6200000D01*
G02X6200000Y5900000I-300000J0D01*
G01X340000D01*
G03X0Y5560000I0J-340000D01*
G01Y3440000D01*
G03X340000Y3100000I340000J0D01*
G01X6200000D01*
G02X6500000Y2800000I0J-300000D01*
G01Y300000D01*
G03X6800000Y0I300000J0D01*
G01X9700000D01*
G03X10000000Y300000I0J300000D01*
G01Y1200000D01*
G03X9700000Y1500000I-300000J0D01*
G01X8750000D01*
G02X8450000Y1800000I0J300000D01*
G01Y2200000D01*
G02X8750000Y2500000I300000J0D01*
G01X9700000D01*
G03X10000000Y2800000I0J300000D01*
G01Y3700000D01*
G03X9700000Y4000000I-300000J0D01*
G01X8740000D01*
G02X8440000Y4300000I0J300000D01*
G01Y4700000D01*
G02X8740000Y5000000I300000J0D01*
G01X9700000D01*
G03X10000000Y5300000I0J300000D01*
G01Y6200000D01*
G03X9700000Y6500000I-300000J0D01*
G01X8730000D01*
G02X8430000Y6800000I0J300000D01*
G01Y7200000D01*
G02X8730000Y7500000I300000J0D01*
G01X9700000D01*
G03X10000000Y7800000I0J300000D01*
G01Y8700000D01*
G03X9700000Y9000000I-300000J0D01*
G01X6800000D01*
G03X6500000Y8700000I0J-300000D01*
G01X500000Y3440000D02*
G03I-160000J0D01*
G01Y5560000D02*
G03I-160000J0D01*
G01X608000Y4211000D02*
G03I-35000J0D01*
G01Y4789000D02*
G03I-35000J0D01*
G01X8270000Y1840000D02*
G03I-160000J0D01*
G01X8250000Y7170000D02*
G03I-160000J0D01*
M02*
