G04 ================== begin FILE IDENTIFICATION RECORD ==================*
G04 Layout Name:  H:/github/MBED-TOOLS/HARDWARE/HY_4S_V10/PCB/HY_4S_V10.brd*
G04 Film Name:    SilkScreen_Bottom*
G04 File Format:  Gerber RS274X*
G04 File Origin:  Cadence Allegro 17.2-S067*
G04 Origin Date:  Wed Dec 16 16:41:14 2020*
G04 *
G04 Layer:  REF DES/SILKSCREEN_BOTTOM*
G04 Layer:  PACKAGE GEOMETRY/SILKSCREEN_BOTTOM*
G04 Layer:  BOARD GEOMETRY/SILKSCREEN_BOTTOM*
G04 *
G04 Offset:    (0.0000 0.0000)*
G04 Mirror:    No*
G04 Mode:      Positive*
G04 Rotation:  0*
G04 FullContactRelief:  No*
G04 UndefLineWidth:     0.1524*
G04 ================== end FILE IDENTIFICATION RECORD ====================*
%FSLAX55Y55*MOMM*%
%IR0*IPPOS*OFA0.00000B0.00000*MIA0B0*SFA1.00000B1.00000*%
%ADD10C,.2*%
%ADD11C,.1524*%
G75*
%LPD*%
G75*
G54D10*
G01X110000Y4050000D02*
X0D01*
Y4950000D01*
X110000D01*
G01X500000Y4050000D02*
X310000D01*
G01Y4950000D02*
X500000D01*
G01X750000Y4050000D02*
Y4120000D01*
G01Y4950000D02*
Y4880000D01*
G54D11*
G01X767000Y5110000D02*
Y5045500D01*
X763000Y5032000D01*
X755000Y5023000D01*
X745000Y5020000D01*
X735000Y5023000D01*
X727000Y5032000D01*
X723000Y5045500D01*
Y5110000D01*
G01X696000Y5032000D02*
X688000Y5024500D01*
X679000Y5020000D01*
X671000D01*
X663000Y5024500D01*
X657000Y5032000D01*
X654000Y5042500D01*
X656000Y5053000D01*
X661000Y5062000D01*
X670000Y5068000D01*
X682000Y5071000D01*
X689000Y5077000D01*
X692000Y5087500D01*
X690000Y5098000D01*
X685000Y5105500D01*
X678000Y5110000D01*
X671000D01*
X664000Y5107000D01*
X658000Y5099500D01*
G01X597000Y5068000D02*
X593000Y5072500D01*
X590000Y5080000D01*
X588000Y5090500D01*
X590000Y5099500D01*
X594000Y5105500D01*
X601000Y5110000D01*
X628000D01*
Y5020000D01*
X595000D01*
X588000Y5026000D01*
X584000Y5035000D01*
X582000Y5045500D01*
X584000Y5056000D01*
X590000Y5065000D01*
X597000Y5068000D01*
X628000D01*
G01X535000Y5020000D02*
Y5110000D01*
X547000Y5092000D01*
G01Y5020000D02*
X523000D01*
M02*
