G04 ================== begin FILE IDENTIFICATION RECORD ==================*
G04 Layout Name:  H:/github/MBED-TOOLS/HARDWARE/HY_4S_V10/PCB/HY_4S_V10.brd*
G04 Film Name:    SilkScreen_Top*
G04 File Format:  Gerber RS274X*
G04 File Origin:  Cadence Allegro 17.2-S067*
G04 Origin Date:  Wed Dec 16 16:41:14 2020*
G04 *
G04 Layer:  REF DES/SILKSCREEN_TOP*
G04 Layer:  PACKAGE GEOMETRY/SILKSCREEN_TOP*
G04 Layer:  BOARD GEOMETRY/SILKSCREEN_TOP*
G04 *
G04 Offset:    (0.0000 0.0000)*
G04 Mirror:    No*
G04 Mode:      Positive*
G04 Rotation:  0*
G04 FullContactRelief:  No*
G04 UndefLineWidth:     0.1524*
G04 ================== end FILE IDENTIFICATION RECORD ====================*
%FSLAX55Y55*MOMM*%
%IR0*IPPOS*OFA0.00000B0.00000*MIA0B0*SFA1.00000B1.00000*%
%ADD10C,.2*%
%ADD11C,.1524*%
%ADD12C,.1778*%
G75*
%LPD*%
G75*
G36*
G01X2243200Y4433800D02*
G03I-25400J0D01*
G37*
G36*
G01X2030000Y5140000D02*
Y5220000D01*
X1990000Y5180000D01*
X2030000Y5140000D01*
G37*
G36*
G01X2720000Y4460000D02*
G03I-20000J0D01*
G37*
G36*
G01X2676800Y5030720D02*
G03I-25400J0D01*
G37*
G36*
G01X4390000Y5430000D02*
G03I-30000J0D01*
G37*
G36*
G01X5730000Y3630000D02*
G03I-30000J0D01*
G37*
G36*
G01X5820000Y4300000D02*
G03I-30000J0D01*
G37*
G36*
G01X5725000Y5430000D02*
G03I-30000J0D01*
G37*
G36*
G01X7127580Y240000D02*
Y160000D01*
X7167580Y200000D01*
X7127580Y240000D01*
G37*
G36*
G01X7145380Y2720000D02*
Y2640000D01*
X7185380Y2680000D01*
X7145380Y2720000D01*
G37*
G36*
G01Y5220000D02*
Y5140000D01*
X7185380Y5180000D01*
X7145380Y5220000D01*
G37*
G36*
G01X7136480Y7730000D02*
Y7650000D01*
X7176480Y7690000D01*
X7136480Y7730000D01*
G37*
G36*
G01X7425000Y895000D02*
G03I-30000J0D01*
G37*
G36*
G01Y3395000D02*
G03I-30000J0D01*
G37*
G36*
G01Y5885000D02*
G03I-30000J0D01*
G37*
G36*
G01Y8395000D02*
G03I-30000J0D01*
G37*
G36*
G01X9820000Y370000D02*
X9870000Y320000D01*
Y420000D01*
X9820000Y370000D01*
G37*
G36*
G01Y2870000D02*
X9870000Y2820000D01*
Y2920000D01*
X9820000Y2870000D01*
G37*
G36*
G01Y5360000D02*
X9870000Y5310000D01*
Y5410000D01*
X9820000Y5360000D01*
G37*
G36*
G01Y7870000D02*
X9870000Y7820000D01*
Y7920000D01*
X9820000Y7870000D01*
G37*
G54D10*
G01X660000Y3440000D02*
G03I-320000J0D01*
G01X840000Y5100000D02*
X0D01*
Y3900000D01*
X840000D01*
G01X660000Y5560000D02*
G03I-320000J0D01*
G01X900000Y3650000D02*
X1600000D01*
Y3160000D01*
X880000D01*
Y3650000D01*
X900000D01*
G01X1220000Y5100000D02*
X1600000D01*
Y3900000D01*
X1220000D01*
G01X2100000Y3910000D02*
X1920000D01*
Y4010000D01*
X2100000D01*
Y3910000D01*
G01X1920000Y4140000D02*
X2100000D01*
Y4040000D01*
X1920000D01*
Y4140000D01*
G01X2340000Y4784120D02*
X1900000D01*
Y5084120D01*
X2340000D01*
Y4784120D01*
G01X1870000Y5120000D02*
X1840000D01*
Y5240000D01*
X1870000D01*
G01X2150000Y5120000D02*
Y5240000D01*
X1870000D01*
Y5120000D01*
X2150000D01*
G01X2014600Y4385700D02*
G02X2065400I25400J0D01*
G01D02*
X2090800D01*
Y4614300D01*
X1989200D01*
Y4385700D01*
X2014600D01*
G01X2660000Y4420000D02*
X2320000D01*
Y4580000D01*
X2660000D01*
Y4420000D01*
G01X2060000Y4934120D02*
G02X2120000I30000J0D01*
G01X2180000D02*
G02X2120000I-30000J0D01*
G01X2060000D02*
X2040000D01*
G01X2200000D02*
X2180000D01*
G01X2170000Y5230000D02*
X2350000D01*
Y5130000D01*
X2170000D01*
Y5230000D01*
G01X2430000Y4804120D02*
G03X2550000I60000J77500D01*
G01D02*
Y5064120D01*
G01X2430000D02*
Y4804120D01*
G01X2550000Y5064120D02*
G03X2430000I-60000J-77500D01*
G01X2930800Y5073820D02*
Y4781720D01*
X2829200D01*
Y5086520D01*
X2854600D01*
G01X2905400D02*
G02X2854600I-25400J0D01*
G01X2930800Y5073820D02*
Y5086520D01*
X2905400D01*
G01X3200000Y4804120D02*
G03X3320000I60000J77500D01*
G01D02*
Y5064120D01*
G01X3200000D02*
Y4804120D01*
G01X3320000Y5064120D02*
G03X3200000I-60000J-77500D01*
G01X4410000Y4190000D02*
X4590000D01*
Y4090000D01*
X4410000D01*
Y4190000D01*
G01X4804100Y4090000D02*
X4624100D01*
Y4190000D01*
X4804100D01*
Y4090000D01*
G01Y4230000D02*
X4624100D01*
Y4330000D01*
X4804100D01*
Y4230000D01*
G01X4580000D02*
G03Y4330000I-50000J50000D01*
G01X4420000D02*
G03Y4230000I50000J-50000D01*
G01X4580000D02*
X4420000D01*
G01X4410000Y4610000D02*
X4590000D01*
Y4510000D01*
X4410000D01*
Y4610000D01*
G01Y4470000D02*
X4590000D01*
Y4370000D01*
X4410000D01*
Y4470000D01*
G01X4624100D02*
X4804100D01*
Y4370000D01*
X4624100D01*
Y4470000D01*
G01X4634100Y4610000D02*
G03Y4510000I50000J-50000D01*
G01X4794100D02*
X4634100D01*
G01Y4610000D02*
X4794100D01*
G01X4420000Y4330000D02*
X4580000D01*
G01X4590000Y4990000D02*
Y5490000D01*
X4710000D01*
G01X4790000D02*
X4910000D01*
Y4990000D01*
X4590000D01*
G01X5000000Y3815000D02*
Y3995000D01*
X5100000D01*
Y3815000D01*
X5000000D01*
G01X4794100Y4510000D02*
G03Y4610000I-50000J50000D01*
G01X4710000Y5490000D02*
G03X4790000I40000J4108D01*
G01X5780000Y3240000D02*
Y3600000D01*
X5360000D01*
Y3240000D01*
X5780000D01*
G01X5360000Y3770000D02*
G03Y3670000I50000J-50000D01*
G01X5520000D02*
X5360000D01*
G01Y3770000D02*
X5520000D01*
G01X5120000Y3825000D02*
G03X5220000I50000J50000D01*
G01Y3985000D02*
Y3825000D01*
G01X5120000D02*
Y3985000D01*
G01X5100000Y4260000D02*
Y4190000D01*
X5170000D01*
G01X5220000Y3985000D02*
G03X5120000I-50000J-50000D01*
G01X5170000Y4810000D02*
X5100000D01*
Y4740000D01*
G01X5220000Y5035230D02*
G03X5340000I60000J77500D01*
G01X5360000Y5046330D02*
G03X5460000I50000J50000D01*
G01X5340000Y5295230D02*
G03X5220000I-60000J-77500D01*
G01D02*
Y5035230D01*
G01X5340000D02*
Y5295230D01*
G01X5460000Y5206330D02*
G03X5360000I-50000J-50000D01*
G01Y5046330D02*
Y5206330D01*
G01X5480000Y3905000D02*
X5660000D01*
Y3805000D01*
X5480000D01*
Y3905000D01*
G01X5520000Y3670000D02*
G03Y3770000I-50000J50000D01*
G01X5620000D02*
G03Y3670000I50000J-50000D01*
G01X5780000D02*
G03Y3770000I-50000J50000D01*
G01X5620000D02*
X5780000D01*
G01Y3670000D02*
X5620000D01*
G01X5735000Y3825000D02*
G03X5835000I50000J50000D01*
G01X5735000D02*
Y3985000D01*
G01X5650000Y4190000D02*
X5720000D01*
Y4260000D01*
G01X5835000Y3985000D02*
G03X5735000I-50000J-50000D01*
G01X5720000Y4740000D02*
Y4810000D01*
X5650000D01*
G01X5480000Y5046330D02*
G03X5580000I50000J50000D01*
G01X5460000Y5206330D02*
Y5046330D01*
G01X5580000Y5206330D02*
G03X5480000I-50000J-50000D01*
G01Y5046330D02*
Y5206330D01*
G01X5580000D02*
Y5046330D01*
G01X5960000Y3995000D02*
Y3815000D01*
X5860000D01*
Y3995000D01*
X5960000D01*
G01X5835000Y3985000D02*
Y3825000D01*
G01X5930000Y4200000D02*
G03Y4100000I50000J-50000D01*
G01X6090000D02*
G03Y4200000I-50000J50000D01*
G01X5930000D02*
X6090000D01*
G01Y4100000D02*
X5930000D01*
G01Y4550000D02*
G03Y4450000I50000J-50000D01*
G01X6090000D02*
G03Y4550000I-50000J50000D01*
G01X5930000D02*
X6090000D01*
G01Y4450000D02*
X5930000D01*
G01X5925000Y4990000D02*
Y5490000D01*
X6045000D01*
G01X6125000D02*
X6245000D01*
Y4990000D01*
X5925000D01*
G01X5930000Y4900000D02*
G03Y4800000I50000J-50000D01*
G01X6090000D02*
G03Y4900000I-50000J50000D01*
G01X5930000D02*
X6090000D01*
G01Y4800000D02*
X5930000D01*
G01X6045000Y5490000D02*
G03X6125000I40000J4108D01*
G01X7027580Y400000D02*
X7207580D01*
Y300000D01*
X7027580D01*
Y400000D01*
G01X7287580Y260000D02*
X7317580D01*
Y140000D01*
X7287580D01*
G01X7007580Y260000D02*
Y140000D01*
X7287580D01*
Y260000D01*
X7007580D01*
G01X7286480Y480000D02*
G03Y600000I-77500J60000D01*
G01X7026480D02*
G03Y480000I77500J-60000D01*
G01X7286480Y600000D02*
X7026480D01*
G01Y480000D02*
X7286480D01*
G01X7275380Y620000D02*
G03Y720000I-50000J50000D01*
G01X7115380D02*
G03Y620000I50000J-50000D01*
G01X7275380D02*
X7115380D01*
G01Y720000D02*
X7275380D01*
G01X7305380Y2740000D02*
X7335380D01*
Y2620000D01*
X7305380D01*
G01X7025380Y2740000D02*
Y2620000D01*
X7305380D01*
Y2740000D01*
X7025380D01*
G01X7066480Y2900000D02*
X7246480D01*
Y2800000D01*
X7066480D01*
Y2900000D01*
G01X7286480Y2980000D02*
G03Y3100000I-77500J60000D01*
G01X7026480D02*
G03Y2980000I77500J-60000D01*
G01X7286480Y3100000D02*
X7026480D01*
G01Y2980000D02*
X7286480D01*
G01X7275380Y3120000D02*
G03Y3220000I-50000J50000D01*
G01X7115380D02*
G03Y3120000I50000J-50000D01*
G01X7275380D02*
X7115380D01*
G01Y3220000D02*
X7275380D01*
G01X7045380Y5390000D02*
X7225380D01*
Y5290000D01*
X7045380D01*
Y5390000D01*
G01X7305380Y5240000D02*
X7335380D01*
Y5120000D01*
X7305380D01*
G01X7025380Y5240000D02*
Y5120000D01*
X7305380D01*
Y5240000D01*
X7025380D01*
G01X7286480Y5470000D02*
G03Y5590000I-77500J60000D01*
G01X7026480D02*
G03Y5470000I77500J-60000D01*
G01X7286480Y5590000D02*
X7026480D01*
G01Y5470000D02*
X7286480D01*
G01X7275380Y5610000D02*
G03Y5710000I-50000J50000D01*
G01X7115380D02*
G03Y5610000I50000J-50000D01*
G01X7275380D02*
X7115380D01*
G01Y5710000D02*
X7275380D01*
G01X7296480Y7750000D02*
X7326480D01*
Y7630000D01*
X7296480D01*
G01X7016480Y7750000D02*
Y7630000D01*
X7296480D01*
Y7750000D01*
X7016480D01*
G01X7036480Y7900000D02*
X7216480D01*
Y7800000D01*
X7036480D01*
Y7900000D01*
G01X7286480Y7980000D02*
G03Y8100000I-77500J60000D01*
G01X7026480D02*
G03Y7980000I77500J-60000D01*
G01D02*
X7286480D01*
G01Y8100000D02*
X7026480D01*
G01X7275380Y8120000D02*
G03Y8220000I-50000J50000D01*
G01X7115380D02*
G03Y8120000I50000J-50000D01*
G01X7275380D02*
X7115380D01*
G01Y8220000D02*
X7275380D01*
G01X7510000Y391100D02*
G03X7390000I-60000J-77500D01*
G01Y131100D02*
G03X7510000I60000J77500D01*
G01X7390000Y391100D02*
Y131100D01*
G01X7510000D02*
Y391100D01*
G01X7750000Y380000D02*
G03X7650000I-50000J-50000D01*
G01Y220000D02*
G03X7750000I50000J50000D01*
G01X7650000D02*
Y380000D01*
G01X7630000D02*
G03X7530000I-50000J-50000D01*
G01Y220000D02*
G03X7630000I50000J50000D01*
G01Y380000D02*
Y220000D01*
G01X7530000D02*
Y380000D01*
G01X7470000Y610000D02*
Y560000D01*
X7520000D01*
G01Y980000D02*
X7470000D01*
Y930000D01*
G01X7720000Y1315000D02*
Y1135000D01*
X7620000D01*
Y1315000D01*
X7720000D01*
G01X7390000Y2631100D02*
G03X7510000I60000J77500D01*
G01X7390000Y2891100D02*
Y2631100D01*
G01X7510000D02*
Y2891100D01*
G01X7530000Y2720000D02*
G03X7630000I50000J50000D01*
G01Y2880000D02*
Y2720000D01*
G01X7530000D02*
Y2880000D01*
G01X7650000Y2720000D02*
G03X7750000I50000J50000D01*
G01X7650000D02*
Y2880000D01*
G01X7470000Y3110000D02*
Y3060000D01*
X7520000D01*
G01X7510000Y2891100D02*
G03X7390000I-60000J-77500D01*
G01X7630000Y2880000D02*
G03X7530000I-50000J-50000D01*
G01X7750000D02*
G03X7650000I-50000J-50000D01*
G01X7520000Y3480000D02*
X7470000D01*
Y3430000D01*
G01X7720000Y3815000D02*
Y3635000D01*
X7620000D01*
Y3815000D01*
X7720000D01*
G01X7510000Y5381100D02*
G03X7390000I-60000J-77500D01*
G01Y5121100D02*
G03X7510000I60000J77500D01*
G01X7390000Y5381100D02*
Y5121100D01*
G01X7510000D02*
Y5381100D01*
G01X7630000Y5370000D02*
G03X7530000I-50000J-50000D01*
G01Y5210000D02*
G03X7630000I50000J50000D01*
G01Y5370000D02*
Y5210000D01*
G01X7530000D02*
Y5370000D01*
G01X7750000D02*
G03X7650000I-50000J-50000D01*
G01Y5210000D02*
G03X7750000I50000J50000D01*
G01X7650000D02*
Y5370000D01*
G01X7470000Y5600000D02*
Y5550000D01*
X7520000D01*
G01Y5970000D02*
X7470000D01*
Y5920000D01*
G01X7720000Y6305000D02*
Y6125000D01*
X7620000D01*
Y6305000D01*
X7720000D01*
G01X7390000Y7631100D02*
G03X7510000I60000J77500D01*
G01X7390000Y7891100D02*
Y7631100D01*
G01X7510000D02*
Y7891100D01*
G01X7470000Y8110000D02*
Y8060000D01*
X7520000D01*
G01X7510000Y7891100D02*
G03X7390000I-60000J-77500D01*
G01X7630000Y7880000D02*
G03X7530000I-50000J-50000D01*
G01Y7720000D02*
G03X7630000I50000J50000D01*
G01Y7880000D02*
Y7720000D01*
G01X7530000D02*
Y7880000D01*
G01X7750000D02*
G03X7650000I-50000J-50000D01*
G01Y7720000D02*
G03X7750000I50000J50000D01*
G01X7650000D02*
Y7880000D01*
G01X7520000Y8480000D02*
X7470000D01*
Y8430000D01*
G01X7720000Y8815000D02*
Y8635000D01*
X7620000D01*
Y8815000D01*
X7720000D01*
G01X7870000Y390000D02*
Y210000D01*
X7770000D01*
Y390000D01*
X7870000D01*
G01X7750000Y380000D02*
Y220000D01*
G01X7840000Y560000D02*
X7890000D01*
Y610000D01*
G01X8070000Y830000D02*
G03Y710000I77500J-60000D01*
G01D02*
X8330000D01*
G01Y830000D02*
X8070000D01*
G01X7890000Y930000D02*
Y980000D01*
X7840000D01*
G01Y1315000D02*
Y1135000D01*
X7740000D01*
Y1315000D01*
X7840000D01*
G01X8430000Y1840000D02*
G03I-320000J0D01*
G01X7870000Y2890000D02*
Y2710000D01*
X7770000D01*
Y2890000D01*
X7870000D01*
G01X7750000Y2880000D02*
Y2720000D01*
G01X7840000Y3060000D02*
X7890000D01*
Y3110000D01*
G01Y3430000D02*
Y3480000D01*
X7840000D01*
G01X8070000Y3330000D02*
G03Y3210000I77500J-60000D01*
G01D02*
X8330000D01*
G01Y3330000D02*
X8070000D01*
G01X7840000Y3815000D02*
Y3635000D01*
X7740000D01*
Y3815000D01*
X7840000D01*
G01X7870000Y5380000D02*
Y5200000D01*
X7770000D01*
Y5380000D01*
X7870000D01*
G01X7750000Y5370000D02*
Y5210000D01*
G01X7840000Y5550000D02*
X7890000D01*
Y5600000D01*
G01X8070000Y5820000D02*
G03Y5700000I77500J-60000D01*
G01D02*
X8330000D01*
G01X7890000Y5920000D02*
Y5970000D01*
X7840000D01*
G01Y6305000D02*
Y6125000D01*
X7740000D01*
Y6305000D01*
X7840000D01*
G01X8330000Y5820000D02*
X8070000D01*
G01X8410000Y7170000D02*
G03I-320000J0D01*
G01X7840000Y8060000D02*
X7890000D01*
Y8110000D01*
G01X7870000Y7890000D02*
Y7710000D01*
X7770000D01*
Y7890000D01*
X7870000D01*
G01X7750000Y7880000D02*
Y7720000D01*
G01X7890000Y8430000D02*
Y8480000D01*
X7840000D01*
G01X8070000Y8330000D02*
G03Y8210000I77500J-60000D01*
G01D02*
X8330000D01*
G01Y8330000D02*
X8070000D01*
G01X7840000Y8815000D02*
Y8635000D01*
X7740000D01*
Y8815000D01*
X7840000D01*
G01X8328900Y576900D02*
X8148900D01*
Y676900D01*
X8328900D01*
Y576900D01*
G01X8330000Y710000D02*
G03Y830000I-77500J60000D01*
G01X8328900Y865000D02*
X8148900D01*
Y965000D01*
X8328900D01*
Y865000D01*
G01Y3076900D02*
X8148900D01*
Y3176900D01*
X8328900D01*
Y3076900D01*
G01Y3365000D02*
X8148900D01*
Y3465000D01*
X8328900D01*
Y3365000D01*
G01X8330000Y3210000D02*
G03Y3330000I-77500J60000D01*
G01X8328900Y5566900D02*
X8148900D01*
Y5666900D01*
X8328900D01*
Y5566900D01*
G01X8330000Y5700000D02*
G03Y5820000I-77500J60000D01*
G01X8328900Y5855000D02*
X8148900D01*
Y5955000D01*
X8328900D01*
Y5855000D01*
G01Y8076900D02*
X8148900D01*
Y8176900D01*
X8328900D01*
Y8076900D01*
G01Y8365000D02*
X8148900D01*
Y8465000D01*
X8328900D01*
Y8365000D01*
G01X8330000Y8210000D02*
G03Y8330000I-77500J60000D01*
G01X8620000Y1005000D02*
Y825000D01*
X8960000D01*
Y1005000D01*
X8620000D01*
G01Y716900D02*
Y536900D01*
X8960000D01*
Y716900D01*
X8620000D01*
G01Y3216900D02*
Y3036900D01*
X8960000D01*
Y3216900D01*
X8620000D01*
G01Y3505000D02*
Y3325000D01*
X8960000D01*
Y3505000D01*
X8620000D01*
G01Y5706900D02*
Y5526900D01*
X8960000D01*
Y5706900D01*
X8620000D01*
G01Y5995000D02*
Y5815000D01*
X8960000D01*
Y5995000D01*
X8620000D01*
G01Y8216900D02*
Y8036900D01*
X8960000D01*
Y8216900D01*
X8620000D01*
G01Y8505000D02*
Y8325000D01*
X8960000D01*
Y8505000D01*
X8620000D01*
G01X9110000Y520000D02*
X9240000Y620000D01*
X9110000Y730000D01*
G01X9030000Y520000D02*
X9160000Y620000D01*
X9030000Y730000D01*
G01X9240000Y1020000D02*
X9110000Y920000D01*
X9240000Y810000D01*
G01X9160000Y1020000D02*
X9030000Y920000D01*
X9160000Y810000D01*
G01X8960000Y1005000D02*
X8990000D01*
Y825000D01*
X8960000D01*
G01Y716900D02*
X8990000D01*
Y536900D01*
X8960000D01*
G01X9110000Y3020000D02*
X9240000Y3120000D01*
X9110000Y3230000D01*
G01X9030000Y3020000D02*
X9160000Y3120000D01*
X9030000Y3230000D01*
G01X8960000Y3216900D02*
X8990000D01*
Y3036900D01*
X8960000D01*
G01X9240000Y3520000D02*
X9110000Y3420000D01*
X9240000Y3310000D01*
G01X9160000Y3520000D02*
X9030000Y3420000D01*
X9160000Y3310000D01*
G01X8960000Y3505000D02*
X8990000D01*
Y3325000D01*
X8960000D01*
G01X9110000Y5510000D02*
X9240000Y5610000D01*
X9110000Y5720000D01*
G01X9030000Y5510000D02*
X9160000Y5610000D01*
X9030000Y5720000D01*
G01X8960000Y5706900D02*
X8990000D01*
Y5526900D01*
X8960000D01*
G01X9240000Y6010000D02*
X9110000Y5910000D01*
X9240000Y5800000D01*
G01X9160000Y6010000D02*
X9030000Y5910000D01*
X9160000Y5800000D01*
G01X8960000Y5995000D02*
X8990000D01*
Y5815000D01*
X8960000D01*
G01X9030000Y8020000D02*
X9160000Y8120000D01*
X9030000Y8230000D01*
G01X9110000Y8020000D02*
X9240000Y8120000D01*
X9110000Y8230000D01*
G01X8960000Y8216900D02*
X8990000D01*
Y8036900D01*
X8960000D01*
G01X9160000Y8520000D02*
X9030000Y8420000D01*
X9160000Y8310000D01*
G01X9240000Y8520000D02*
X9110000Y8420000D01*
X9240000Y8310000D01*
G01X8960000Y8505000D02*
X8990000D01*
Y8325000D01*
X8960000D01*
G01X9560000Y237000D02*
X9820000D01*
Y1267000D01*
X9560000D01*
Y237000D01*
G01Y2737000D02*
X9820000D01*
Y3767000D01*
X9560000D01*
Y2737000D01*
G01Y5227000D02*
X9820000D01*
Y6257000D01*
X9560000D01*
Y5227000D01*
G01Y7737000D02*
X9820000D01*
Y8767000D01*
X9560000D01*
Y7737000D01*
G54D11*
G01X939000Y3510000D02*
Y3600000D01*
G01X981000D02*
Y3510000D01*
G01Y3555000D02*
X939000D01*
G01X1030000Y3510000D02*
Y3550500D01*
X1010000Y3600000D01*
G01X1050000D02*
X1030000Y3550500D01*
G01X1070000Y3480000D02*
X1130000D01*
G01X1182000Y3510000D02*
Y3600000D01*
X1145000Y3535500D01*
X1195000D01*
G01X1219000Y3522000D02*
X1227000Y3514500D01*
X1236000Y3510000D01*
X1244000D01*
X1252000Y3514500D01*
X1258000Y3522000D01*
X1261000Y3532500D01*
X1259000Y3543000D01*
X1254000Y3552000D01*
X1245000Y3558000D01*
X1233000Y3561000D01*
X1226000Y3567000D01*
X1223000Y3577500D01*
X1225000Y3588000D01*
X1230000Y3595500D01*
X1237000Y3600000D01*
X1244000D01*
X1251000Y3597000D01*
X1257000Y3589500D01*
G01X1280000Y3480000D02*
X1340000D01*
G01X1355000Y3600000D02*
X1380000Y3510000D01*
X1405000Y3600000D01*
G01X1450000Y3510000D02*
Y3600000D01*
X1438000Y3582000D01*
G01Y3510000D02*
X1462000D01*
G01X1520000Y3600000D02*
X1512000Y3597000D01*
X1506000Y3589500D01*
X1502000Y3580500D01*
X1499000Y3568500D01*
X1498000Y3555000D01*
X1499000Y3541500D01*
X1502000Y3529500D01*
X1506000Y3520500D01*
X1512000Y3513000D01*
X1520000Y3510000D01*
X1528000Y3513000D01*
X1534000Y3520500D01*
X1538000Y3529500D01*
X1541000Y3541500D01*
X1542000Y3555000D01*
X1541000Y3568500D01*
X1538000Y3580500D01*
X1534000Y3589500D01*
X1528000Y3597000D01*
X1520000Y3600000D01*
G01X941000Y3435000D02*
X947000Y3444000D01*
X954000Y3448500D01*
X962000Y3450000D01*
X972000Y3447000D01*
X979000Y3439500D01*
X981000Y3430500D01*
X980000Y3421500D01*
X976000Y3414000D01*
X956000Y3399000D01*
X947000Y3388500D01*
X941000Y3373500D01*
X939000Y3360000D01*
X981000D01*
G01X1030000Y3450000D02*
X1022000Y3447000D01*
X1016000Y3439500D01*
X1012000Y3430500D01*
X1009000Y3418500D01*
X1008000Y3405000D01*
X1009000Y3391500D01*
X1012000Y3379500D01*
X1016000Y3370500D01*
X1022000Y3363000D01*
X1030000Y3360000D01*
X1038000Y3363000D01*
X1044000Y3370500D01*
X1048000Y3379500D01*
X1051000Y3391500D01*
X1052000Y3405000D01*
X1051000Y3418500D01*
X1048000Y3430500D01*
X1044000Y3439500D01*
X1038000Y3447000D01*
X1030000Y3450000D01*
G01X1081000Y3435000D02*
X1087000Y3444000D01*
X1094000Y3448500D01*
X1102000Y3450000D01*
X1112000Y3447000D01*
X1119000Y3439500D01*
X1121000Y3430500D01*
X1120000Y3421500D01*
X1116000Y3414000D01*
X1096000Y3399000D01*
X1087000Y3388500D01*
X1081000Y3373500D01*
X1079000Y3360000D01*
X1121000D01*
G01X1170000Y3450000D02*
X1162000Y3447000D01*
X1156000Y3439500D01*
X1152000Y3430500D01*
X1149000Y3418500D01*
X1148000Y3405000D01*
X1149000Y3391500D01*
X1152000Y3379500D01*
X1156000Y3370500D01*
X1162000Y3363000D01*
X1170000Y3360000D01*
X1178000Y3363000D01*
X1184000Y3370500D01*
X1188000Y3379500D01*
X1191000Y3391500D01*
X1192000Y3405000D01*
X1191000Y3418500D01*
X1188000Y3430500D01*
X1184000Y3439500D01*
X1178000Y3447000D01*
X1170000Y3450000D01*
G01X1240000Y3360000D02*
Y3450000D01*
X1228000Y3432000D01*
G01Y3360000D02*
X1252000D01*
G01X1291000Y3435000D02*
X1297000Y3444000D01*
X1304000Y3448500D01*
X1312000Y3450000D01*
X1322000Y3447000D01*
X1329000Y3439500D01*
X1331000Y3430500D01*
X1330000Y3421500D01*
X1326000Y3414000D01*
X1306000Y3399000D01*
X1297000Y3388500D01*
X1291000Y3373500D01*
X1289000Y3360000D01*
X1331000D01*
G01X1380000D02*
Y3450000D01*
X1368000Y3432000D01*
G01Y3360000D02*
X1392000D01*
G01X1431000Y3397500D02*
X1438000Y3408000D01*
X1444000Y3414000D01*
X1452000Y3417000D01*
X1459000Y3414000D01*
X1464000Y3408000D01*
X1468000Y3399000D01*
X1469000Y3388500D01*
X1468000Y3379500D01*
X1464000Y3370500D01*
X1458000Y3363000D01*
X1451000Y3360000D01*
X1443000Y3363000D01*
X1436000Y3372000D01*
X1432000Y3385500D01*
X1431000Y3400500D01*
X1433000Y3420000D01*
X1436000Y3430500D01*
X1441000Y3441000D01*
X1448000Y3448500D01*
X1455000Y3450000D01*
X1462000Y3447000D01*
X1467000Y3439500D01*
G01X939000Y3210000D02*
X981000Y3300000D01*
G01X939000D02*
X981000Y3210000D01*
G01X1009000D02*
X1051000Y3300000D01*
G01X1009000D02*
X1051000Y3210000D01*
G01X1079000D02*
X1121000Y3300000D01*
G01X1079000D02*
X1121000Y3210000D01*
G01X1150000Y3300000D02*
Y3210000D01*
X1190000D01*
G01X1221000Y3300000D02*
X1259000D01*
X1221000Y3210000D01*
X1259000D01*
G01X1290000Y3228000D02*
X1295000Y3219000D01*
X1301000Y3213000D01*
X1308000Y3210000D01*
X1316000Y3213000D01*
X1322000Y3219000D01*
X1328000Y3228000D01*
X1330000Y3240000D01*
Y3300000D01*
G01X1359000Y3210000D02*
X1401000Y3300000D01*
G01X1359000D02*
X1401000Y3210000D01*
G01X1429000D02*
X1471000Y3300000D01*
G01X1429000D02*
X1471000Y3210000D01*
G01X1499000D02*
X1541000Y3300000D01*
G01X1499000D02*
X1541000Y3210000D01*
G01X1343000Y5230000D02*
Y5165500D01*
X1347000Y5152000D01*
X1355000Y5143000D01*
X1365000Y5140000D01*
X1375000Y5143000D01*
X1383000Y5152000D01*
X1387000Y5165500D01*
Y5230000D01*
G01X1414000Y5152000D02*
X1422000Y5144500D01*
X1431000Y5140000D01*
X1439000D01*
X1447000Y5144500D01*
X1453000Y5152000D01*
X1456000Y5162500D01*
X1454000Y5173000D01*
X1449000Y5182000D01*
X1440000Y5188000D01*
X1428000Y5191000D01*
X1421000Y5197000D01*
X1418000Y5207500D01*
X1420000Y5218000D01*
X1425000Y5225500D01*
X1432000Y5230000D01*
X1439000D01*
X1446000Y5227000D01*
X1452000Y5219500D01*
G01X1513000Y5188000D02*
X1517000Y5192500D01*
X1520000Y5200000D01*
X1522000Y5210500D01*
X1520000Y5219500D01*
X1516000Y5225500D01*
X1509000Y5230000D01*
X1482000D01*
Y5140000D01*
X1515000D01*
X1522000Y5146000D01*
X1526000Y5155000D01*
X1528000Y5165500D01*
X1526000Y5176000D01*
X1520000Y5185000D01*
X1513000Y5188000D01*
X1482000D01*
G01X1556000Y5215000D02*
X1562000Y5224000D01*
X1569000Y5228500D01*
X1577000Y5230000D01*
X1587000Y5227000D01*
X1594000Y5219500D01*
X1596000Y5210500D01*
X1595000Y5201500D01*
X1591000Y5194000D01*
X1571000Y5179000D01*
X1562000Y5168500D01*
X1556000Y5153500D01*
X1554000Y5140000D01*
X1596000D01*
G01X1983000Y4350000D02*
Y4285500D01*
X1987000Y4272000D01*
X1995000Y4263000D01*
X2005000Y4260000D01*
X2015000Y4263000D01*
X2023000Y4272000D01*
X2027000Y4285500D01*
Y4350000D01*
G01X2056000Y4335000D02*
X2062000Y4344000D01*
X2069000Y4348500D01*
X2077000Y4350000D01*
X2087000Y4347000D01*
X2094000Y4339500D01*
X2096000Y4330500D01*
X2095000Y4321500D01*
X2091000Y4314000D01*
X2071000Y4299000D01*
X2062000Y4288500D01*
X2056000Y4273500D01*
X2054000Y4260000D01*
X2096000D01*
G01X1766000Y4790000D02*
Y4880000D01*
X1804000D01*
G01X1790000Y4836500D02*
X1766000D01*
G01X1855000Y4790000D02*
Y4880000D01*
X1843000Y4862000D01*
G01Y4790000D02*
X1867000D01*
G01X1863000Y5275000D02*
Y5365000D01*
X1883000D01*
X1891000Y5360500D01*
X1897000Y5354500D01*
X1902000Y5345500D01*
X1906000Y5335000D01*
X1907000Y5320000D01*
X1906000Y5305000D01*
X1902000Y5294500D01*
X1897000Y5285500D01*
X1891000Y5279500D01*
X1883000Y5275000D01*
X1863000D01*
G01X1938000Y5285500D02*
X1945000Y5278000D01*
X1953000Y5275000D01*
X1961000Y5278000D01*
X1968000Y5287000D01*
X1973000Y5300500D01*
X1975000Y5314000D01*
Y5330500D01*
X1973000Y5344000D01*
X1968000Y5356000D01*
X1962000Y5362000D01*
X1955000Y5365000D01*
X1947000Y5362000D01*
X1941000Y5356000D01*
X1937000Y5347000D01*
X1935000Y5335000D01*
X1937000Y5324500D01*
X1942000Y5314000D01*
X1948000Y5308000D01*
X1955000Y5306500D01*
X1963000Y5309500D01*
X1969000Y5317000D01*
X1975000Y5330500D01*
G01X2325000Y4360000D02*
Y4270000D01*
X2365000D01*
G01X2415000D02*
Y4360000D01*
X2403000Y4342000D01*
G01Y4270000D02*
X2427000D01*
G01X2135000Y3920000D02*
Y4010000D01*
X2160000D01*
X2168000Y4005500D01*
X2173000Y3999500D01*
X2175000Y3987500D01*
X2173000Y3975500D01*
X2167000Y3968000D01*
X2160000Y3963500D01*
X2135000D01*
G01X2160000D02*
X2175000Y3920000D01*
G01X2206000Y3995000D02*
X2212000Y4004000D01*
X2219000Y4008500D01*
X2227000Y4010000D01*
X2237000Y4007000D01*
X2244000Y3999500D01*
X2246000Y3990500D01*
X2245000Y3981500D01*
X2241000Y3974000D01*
X2221000Y3959000D01*
X2212000Y3948500D01*
X2206000Y3933500D01*
X2204000Y3920000D01*
X2246000D01*
G01X2135000Y4045000D02*
Y4135000D01*
X2160000D01*
X2168000Y4130500D01*
X2173000Y4124500D01*
X2175000Y4112500D01*
X2173000Y4100500D01*
X2167000Y4093000D01*
X2160000Y4088500D01*
X2135000D01*
G01X2160000D02*
X2175000Y4045000D01*
G01X2237000D02*
Y4135000D01*
X2200000Y4070500D01*
X2250000D01*
G01X2170000Y5270000D02*
Y5360000D01*
X2195000D01*
X2203000Y5355500D01*
X2208000Y5349500D01*
X2210000Y5337500D01*
X2208000Y5325500D01*
X2202000Y5318000D01*
X2195000Y5313500D01*
X2170000D01*
G01X2195000D02*
X2210000Y5270000D01*
G01X2241000Y5345000D02*
X2247000Y5354000D01*
X2254000Y5358500D01*
X2262000Y5360000D01*
X2272000Y5357000D01*
X2279000Y5349500D01*
X2281000Y5340500D01*
X2280000Y5331500D01*
X2276000Y5324000D01*
X2256000Y5309000D01*
X2247000Y5298500D01*
X2241000Y5283500D01*
X2239000Y5270000D01*
X2281000D01*
G01X2313000Y5280500D02*
X2320000Y5273000D01*
X2328000Y5270000D01*
X2336000Y5273000D01*
X2343000Y5282000D01*
X2348000Y5295500D01*
X2350000Y5309000D01*
Y5325500D01*
X2348000Y5339000D01*
X2343000Y5351000D01*
X2337000Y5357000D01*
X2330000Y5360000D01*
X2322000Y5357000D01*
X2316000Y5351000D01*
X2312000Y5342000D01*
X2310000Y5330000D01*
X2312000Y5319500D01*
X2317000Y5309000D01*
X2323000Y5303000D01*
X2330000Y5301500D01*
X2338000Y5304500D01*
X2344000Y5312000D01*
X2350000Y5325500D01*
G01X2442500Y5166120D02*
X2438000Y5160120D01*
X2435000Y5153120D01*
Y5145120D01*
X2439500Y5136120D01*
X2447000Y5129120D01*
X2456000Y5124120D01*
X2471000Y5120120D01*
X2484500Y5119120D01*
X2498000Y5121120D01*
X2507000Y5124120D01*
X2516000Y5130120D01*
X2522000Y5137120D01*
X2525000Y5144120D01*
Y5151120D01*
X2522000Y5158120D01*
X2517500Y5164120D01*
X2511500Y5169120D01*
G01X2507000Y5192120D02*
X2517500Y5198120D01*
X2523500Y5206120D01*
X2525000Y5215120D01*
X2523500Y5223120D01*
X2516000Y5231120D01*
X2507000Y5236120D01*
X2498000Y5237120D01*
X2487500Y5235120D01*
X2480000Y5228120D01*
X2477000Y5221120D01*
Y5212120D01*
G01Y5221120D02*
X2472500Y5227120D01*
X2465000Y5232120D01*
X2456000Y5234120D01*
X2447000Y5232120D01*
X2439500Y5227120D01*
X2435000Y5218120D01*
X2436500Y5209120D01*
X2442500Y5200120D01*
G01X2525000Y5282120D02*
X2505500Y5284120D01*
X2489000Y5287120D01*
X2474000Y5291120D01*
X2457500Y5296120D01*
X2435000Y5304120D01*
Y5264120D01*
G01X2823000Y5210000D02*
Y5145500D01*
X2827000Y5132000D01*
X2835000Y5123000D01*
X2845000Y5120000D01*
X2855000Y5123000D01*
X2863000Y5132000D01*
X2867000Y5145500D01*
Y5210000D01*
G01X2898000Y5130500D02*
X2905000Y5123000D01*
X2913000Y5120000D01*
X2921000Y5123000D01*
X2928000Y5132000D01*
X2933000Y5145500D01*
X2935000Y5159000D01*
Y5175500D01*
X2933000Y5189000D01*
X2928000Y5201000D01*
X2922000Y5207000D01*
X2915000Y5210000D01*
X2907000Y5207000D01*
X2901000Y5201000D01*
X2897000Y5192000D01*
X2895000Y5180000D01*
X2897000Y5169500D01*
X2902000Y5159000D01*
X2908000Y5153000D01*
X2915000Y5151500D01*
X2923000Y5154500D01*
X2929000Y5162000D01*
X2935000Y5175500D01*
G01X3212500Y5166120D02*
X3208000Y5160120D01*
X3205000Y5153120D01*
Y5145120D01*
X3209500Y5136120D01*
X3217000Y5129120D01*
X3226000Y5124120D01*
X3241000Y5120120D01*
X3254500Y5119120D01*
X3268000Y5121120D01*
X3277000Y5124120D01*
X3286000Y5130120D01*
X3292000Y5137120D01*
X3295000Y5144120D01*
Y5151120D01*
X3292000Y5158120D01*
X3287500Y5164120D01*
X3281500Y5169120D01*
G01X3277000Y5192120D02*
X3287500Y5198120D01*
X3293500Y5206120D01*
X3295000Y5215120D01*
X3293500Y5223120D01*
X3286000Y5231120D01*
X3277000Y5236120D01*
X3268000Y5237120D01*
X3257500Y5235120D01*
X3250000Y5228120D01*
X3247000Y5221120D01*
Y5212120D01*
G01Y5221120D02*
X3242500Y5227120D01*
X3235000Y5232120D01*
X3226000Y5234120D01*
X3217000Y5232120D01*
X3209500Y5227120D01*
X3205000Y5218120D01*
X3206500Y5209120D01*
X3212500Y5200120D01*
G01X3295000Y5284120D02*
X3293500Y5291120D01*
X3289000Y5299120D01*
X3281500Y5304120D01*
X3271000Y5306120D01*
X3260500Y5304120D01*
X3251500Y5298120D01*
X3247000Y5289120D01*
Y5279120D01*
X3244000Y5273120D01*
X3236500Y5268120D01*
X3226000Y5266120D01*
X3215500Y5269120D01*
X3208000Y5276120D01*
X3205000Y5284120D01*
X3208000Y5292120D01*
X3215500Y5299120D01*
X3226000Y5302120D01*
X3236500Y5300120D01*
X3244000Y5295120D01*
X3247000Y5289120D01*
Y5279120D01*
X3251500Y5270120D01*
X3260500Y5264120D01*
X3271000Y5262120D01*
X3281500Y5264120D01*
X3289000Y5269120D01*
X3293500Y5277120D01*
X3295000Y5284120D01*
G01X4005000Y4095000D02*
Y4185000D01*
X4030000D01*
X4038000Y4180500D01*
X4043000Y4174500D01*
X4045000Y4162500D01*
X4043000Y4150500D01*
X4037000Y4143000D01*
X4030000Y4138500D01*
X4005000D01*
G01X4030000D02*
X4045000Y4095000D01*
G01X4095000D02*
Y4185000D01*
X4083000Y4167000D01*
G01Y4095000D02*
X4107000D01*
G01X4219100D02*
Y4185000D01*
X4244100D01*
X4252100Y4180500D01*
X4257100Y4174500D01*
X4259100Y4162500D01*
X4257100Y4150500D01*
X4251100Y4143000D01*
X4244100Y4138500D01*
X4219100D01*
G01X4244100D02*
X4259100Y4095000D01*
G01X4287100Y4113000D02*
X4293100Y4102500D01*
X4301100Y4096500D01*
X4310100Y4095000D01*
X4318100Y4096500D01*
X4326100Y4104000D01*
X4331100Y4113000D01*
X4332100Y4122000D01*
X4330100Y4132500D01*
X4323100Y4140000D01*
X4316100Y4143000D01*
X4307100D01*
G01X4316100D02*
X4322100Y4147500D01*
X4327100Y4155000D01*
X4329100Y4164000D01*
X4327100Y4173000D01*
X4322100Y4180500D01*
X4313100Y4185000D01*
X4304100Y4183500D01*
X4295100Y4177500D01*
G01X4184100Y4235000D02*
Y4325000D01*
X4209100D01*
X4217100Y4320500D01*
X4222100Y4314500D01*
X4224100Y4302500D01*
X4222100Y4290500D01*
X4216100Y4283000D01*
X4209100Y4278500D01*
X4184100D01*
G01X4209100D02*
X4224100Y4235000D01*
G01X4274100D02*
Y4325000D01*
X4262100Y4307000D01*
G01Y4235000D02*
X4286100D01*
G01X4342100D02*
X4344100Y4254500D01*
X4347100Y4271000D01*
X4351100Y4286000D01*
X4356100Y4302500D01*
X4364100Y4325000D01*
X4324100D01*
G01X4047000Y4317500D02*
X4041000Y4322000D01*
X4034000Y4325000D01*
X4026000D01*
X4017000Y4320500D01*
X4010000Y4313000D01*
X4005000Y4304000D01*
X4001000Y4289000D01*
X4000000Y4275500D01*
X4002000Y4262000D01*
X4005000Y4253000D01*
X4011000Y4244000D01*
X4018000Y4238000D01*
X4025000Y4235000D01*
X4032000D01*
X4039000Y4238000D01*
X4045000Y4242500D01*
X4050000Y4248500D01*
G01X4073000Y4253000D02*
X4079000Y4242500D01*
X4087000Y4236500D01*
X4096000Y4235000D01*
X4104000Y4236500D01*
X4112000Y4244000D01*
X4117000Y4253000D01*
X4118000Y4262000D01*
X4116000Y4272500D01*
X4109000Y4280000D01*
X4102000Y4283000D01*
X4093000D01*
G01X4102000D02*
X4108000Y4287500D01*
X4113000Y4295000D01*
X4115000Y4304000D01*
X4113000Y4313000D01*
X4108000Y4320500D01*
X4099000Y4325000D01*
X4090000Y4323500D01*
X4081000Y4317500D01*
G01X3970000Y4515000D02*
Y4605000D01*
X3995000D01*
X4003000Y4600500D01*
X4008000Y4594500D01*
X4010000Y4582500D01*
X4008000Y4570500D01*
X4002000Y4563000D01*
X3995000Y4558500D01*
X3970000D01*
G01X3995000D02*
X4010000Y4515000D01*
G01X4060000D02*
Y4605000D01*
X4048000Y4587000D01*
G01Y4515000D02*
X4072000D01*
G01X4130000D02*
Y4605000D01*
X4118000Y4587000D01*
G01Y4515000D02*
X4142000D01*
G01X3970000Y4375000D02*
Y4465000D01*
X3995000D01*
X4003000Y4460500D01*
X4008000Y4454500D01*
X4010000Y4442500D01*
X4008000Y4430500D01*
X4002000Y4423000D01*
X3995000Y4418500D01*
X3970000D01*
G01X3995000D02*
X4010000Y4375000D01*
G01X4060000D02*
Y4465000D01*
X4048000Y4447000D01*
G01Y4375000D02*
X4072000D01*
G01X4142000D02*
Y4465000D01*
X4105000Y4400500D01*
X4155000D01*
G01X4184100Y4375000D02*
Y4465000D01*
X4209100D01*
X4217100Y4460500D01*
X4222100Y4454500D01*
X4224100Y4442500D01*
X4222100Y4430500D01*
X4216100Y4423000D01*
X4209100Y4418500D01*
X4184100D01*
G01X4209100D02*
X4224100Y4375000D01*
G01X4274100D02*
Y4465000D01*
X4262100Y4447000D01*
G01Y4375000D02*
X4286100D01*
G01X4322100Y4388500D02*
X4328100Y4381000D01*
X4335100Y4376500D01*
X4344100Y4375000D01*
X4353100Y4378000D01*
X4360100Y4384000D01*
X4365100Y4394500D01*
X4366100Y4406500D01*
X4364100Y4418500D01*
X4359100Y4426000D01*
X4352100Y4432000D01*
X4345100Y4433500D01*
X4338100Y4432000D01*
X4329100Y4426000D01*
X4332100Y4465000D01*
X4359100D01*
G01X4226100Y4597500D02*
X4220100Y4602000D01*
X4213100Y4605000D01*
X4205100D01*
X4196100Y4600500D01*
X4189100Y4593000D01*
X4184100Y4584000D01*
X4180100Y4569000D01*
X4179100Y4555500D01*
X4181100Y4542000D01*
X4184100Y4533000D01*
X4190100Y4524000D01*
X4197100Y4518000D01*
X4204100Y4515000D01*
X4211100D01*
X4218100Y4518000D01*
X4224100Y4522500D01*
X4229100Y4528500D01*
G01X4274100Y4515000D02*
Y4605000D01*
X4262100Y4587000D01*
G01Y4515000D02*
X4286100D01*
G01X4356100D02*
Y4605000D01*
X4319100Y4540500D01*
X4369100D01*
G01X4593000Y5630000D02*
Y5565500D01*
X4597000Y5552000D01*
X4605000Y5543000D01*
X4615000Y5540000D01*
X4625000Y5543000D01*
X4633000Y5552000D01*
X4637000Y5565500D01*
Y5630000D01*
G01X4685000Y5540000D02*
Y5630000D01*
X4673000Y5612000D01*
G01Y5540000D02*
X4697000D01*
G01X4755000Y5630000D02*
X4747000Y5627000D01*
X4741000Y5619500D01*
X4737000Y5610500D01*
X4734000Y5598500D01*
X4733000Y5585000D01*
X4734000Y5571500D01*
X4737000Y5559500D01*
X4741000Y5550500D01*
X4747000Y5543000D01*
X4755000Y5540000D01*
X4763000Y5543000D01*
X4769000Y5550500D01*
X4773000Y5559500D01*
X4776000Y5571500D01*
X4777000Y5585000D01*
X4776000Y5598500D01*
X4773000Y5610500D01*
X4769000Y5619500D01*
X4763000Y5627000D01*
X4755000Y5630000D01*
G01X4835000Y3825000D02*
X4745000D01*
Y3850000D01*
X4749500Y3858000D01*
X4755500Y3863000D01*
X4767500Y3865000D01*
X4779500Y3863000D01*
X4787000Y3857000D01*
X4791500Y3850000D01*
Y3825000D01*
G01Y3850000D02*
X4835000Y3865000D01*
G01Y3915000D02*
X4745000D01*
X4763000Y3903000D01*
G01X4835000D02*
Y3927000D01*
G01X4797500Y3966000D02*
X4787000Y3973000D01*
X4781000Y3979000D01*
X4778000Y3987000D01*
X4781000Y3994000D01*
X4787000Y3999000D01*
X4796000Y4003000D01*
X4806500Y4004000D01*
X4815500Y4003000D01*
X4824500Y3999000D01*
X4832000Y3993000D01*
X4835000Y3986000D01*
X4832000Y3978000D01*
X4823000Y3971000D01*
X4809500Y3967000D01*
X4794500Y3966000D01*
X4775000Y3968000D01*
X4764500Y3971000D01*
X4754000Y3976000D01*
X4746500Y3983000D01*
X4745000Y3990000D01*
X4748000Y3997000D01*
X4755500Y4002000D01*
G01X4872500Y3867000D02*
X4868000Y3861000D01*
X4865000Y3854000D01*
Y3846000D01*
X4869500Y3837000D01*
X4877000Y3830000D01*
X4886000Y3825000D01*
X4901000Y3821000D01*
X4914500Y3820000D01*
X4928000Y3822000D01*
X4937000Y3825000D01*
X4946000Y3831000D01*
X4952000Y3838000D01*
X4955000Y3845000D01*
Y3852000D01*
X4952000Y3859000D01*
X4947500Y3865000D01*
X4941500Y3870000D01*
G01X4955000Y3915000D02*
X4865000D01*
X4883000Y3903000D01*
G01X4955000D02*
Y3927000D01*
G01Y3985000D02*
X4953500Y3992000D01*
X4949000Y4000000D01*
X4941500Y4005000D01*
X4931000Y4007000D01*
X4920500Y4005000D01*
X4911500Y3999000D01*
X4907000Y3990000D01*
Y3980000D01*
X4904000Y3974000D01*
X4896500Y3969000D01*
X4886000Y3967000D01*
X4875500Y3970000D01*
X4868000Y3977000D01*
X4865000Y3985000D01*
X4868000Y3993000D01*
X4875500Y4000000D01*
X4886000Y4003000D01*
X4896500Y4001000D01*
X4904000Y3996000D01*
X4907000Y3990000D01*
Y3980000D01*
X4911500Y3971000D01*
X4920500Y3965000D01*
X4931000Y3963000D01*
X4941500Y3965000D01*
X4949000Y3970000D01*
X4953500Y3978000D01*
X4955000Y3985000D01*
G01X4893000Y4820000D02*
Y4755500D01*
X4897000Y4742000D01*
X4905000Y4733000D01*
X4915000Y4730000D01*
X4925000Y4733000D01*
X4933000Y4742000D01*
X4937000Y4755500D01*
Y4820000D01*
G01X4985000Y4730000D02*
Y4820000D01*
X4973000Y4802000D01*
G01Y4730000D02*
X4997000D01*
G01X5242500Y5397230D02*
X5238000Y5391230D01*
X5235000Y5384230D01*
Y5376230D01*
X5239500Y5367230D01*
X5247000Y5360230D01*
X5256000Y5355230D01*
X5271000Y5351230D01*
X5284500Y5350230D01*
X5298000Y5352230D01*
X5307000Y5355230D01*
X5316000Y5361230D01*
X5322000Y5368230D01*
X5325000Y5375230D01*
Y5382230D01*
X5322000Y5389230D01*
X5317500Y5395230D01*
X5311500Y5400230D01*
G01X5325000Y5445230D02*
X5235000D01*
X5253000Y5433230D01*
G01X5325000D02*
Y5457230D01*
G01X5287500Y5496230D02*
X5277000Y5503230D01*
X5271000Y5509230D01*
X5268000Y5517230D01*
X5271000Y5524230D01*
X5277000Y5529230D01*
X5286000Y5533230D01*
X5296500Y5534230D01*
X5305500Y5533230D01*
X5314500Y5529230D01*
X5322000Y5523230D01*
X5325000Y5516230D01*
X5322000Y5508230D01*
X5313000Y5501230D01*
X5299500Y5497230D01*
X5284500Y5496230D01*
X5265000Y5498230D01*
X5254500Y5501230D01*
X5244000Y5506230D01*
X5236500Y5513230D01*
X5235000Y5520230D01*
X5238000Y5527230D01*
X5245500Y5532230D01*
G01X5372500Y5398330D02*
X5368000Y5392330D01*
X5365000Y5385330D01*
Y5377330D01*
X5369500Y5368330D01*
X5377000Y5361330D01*
X5386000Y5356330D01*
X5401000Y5352330D01*
X5414500Y5351330D01*
X5428000Y5353330D01*
X5437000Y5356330D01*
X5446000Y5362330D01*
X5452000Y5369330D01*
X5455000Y5376330D01*
Y5383330D01*
X5452000Y5390330D01*
X5447500Y5396330D01*
X5441500Y5401330D01*
G01X5455000Y5446330D02*
X5365000D01*
X5383000Y5434330D01*
G01X5455000D02*
Y5458330D01*
G01X5441500Y5494330D02*
X5449000Y5500330D01*
X5453500Y5507330D01*
X5455000Y5516330D01*
X5452000Y5525330D01*
X5446000Y5532330D01*
X5435500Y5537330D01*
X5423500Y5538330D01*
X5411500Y5536330D01*
X5404000Y5531330D01*
X5398000Y5524330D01*
X5396500Y5517330D01*
X5398000Y5510330D01*
X5404000Y5501330D01*
X5365000Y5504330D01*
Y5531330D01*
G01X5490000Y3940000D02*
Y4030000D01*
X5515000D01*
X5523000Y4025500D01*
X5528000Y4019500D01*
X5530000Y4007500D01*
X5528000Y3995500D01*
X5522000Y3988000D01*
X5515000Y3983500D01*
X5490000D01*
G01X5515000D02*
X5530000Y3940000D01*
G01X5558000Y3958000D02*
X5564000Y3947500D01*
X5572000Y3941500D01*
X5581000Y3940000D01*
X5589000Y3941500D01*
X5597000Y3949000D01*
X5602000Y3958000D01*
X5603000Y3967000D01*
X5601000Y3977500D01*
X5594000Y3985000D01*
X5587000Y3988000D01*
X5578000D01*
G01X5587000D02*
X5593000Y3992500D01*
X5598000Y4000000D01*
X5600000Y4009000D01*
X5598000Y4018000D01*
X5593000Y4025500D01*
X5584000Y4030000D01*
X5575000Y4028500D01*
X5566000Y4022500D01*
G01X5650000Y3940000D02*
Y4030000D01*
X5638000Y4012000D01*
G01Y3940000D02*
X5662000D01*
G01X5492500Y5398330D02*
X5488000Y5392330D01*
X5485000Y5385330D01*
Y5377330D01*
X5489500Y5368330D01*
X5497000Y5361330D01*
X5506000Y5356330D01*
X5521000Y5352330D01*
X5534500Y5351330D01*
X5548000Y5353330D01*
X5557000Y5356330D01*
X5566000Y5362330D01*
X5572000Y5369330D01*
X5575000Y5376330D01*
Y5383330D01*
X5572000Y5390330D01*
X5567500Y5396330D01*
X5561500Y5401330D01*
G01X5500000Y5427330D02*
X5491000Y5433330D01*
X5486500Y5440330D01*
X5485000Y5448330D01*
X5488000Y5458330D01*
X5495500Y5465330D01*
X5504500Y5467330D01*
X5513500Y5466330D01*
X5521000Y5462330D01*
X5536000Y5442330D01*
X5546500Y5433330D01*
X5561500Y5427330D01*
X5575000Y5425330D01*
Y5467330D01*
G01X5500000Y5497330D02*
X5491000Y5503330D01*
X5486500Y5510330D01*
X5485000Y5518330D01*
X5488000Y5528330D01*
X5495500Y5535330D01*
X5504500Y5537330D01*
X5513500Y5536330D01*
X5521000Y5532330D01*
X5536000Y5512330D01*
X5546500Y5503330D01*
X5561500Y5497330D01*
X5575000Y5495330D01*
Y5537330D01*
G01X5823000Y3330000D02*
Y3265500D01*
X5827000Y3252000D01*
X5835000Y3243000D01*
X5845000Y3240000D01*
X5855000Y3243000D01*
X5863000Y3252000D01*
X5867000Y3265500D01*
Y3330000D01*
G01X5913000Y3240000D02*
X5915000Y3259500D01*
X5918000Y3276000D01*
X5922000Y3291000D01*
X5927000Y3307500D01*
X5935000Y3330000D01*
X5895000D01*
G01X6230000Y3820000D02*
X6140000D01*
Y3845000D01*
X6144500Y3853000D01*
X6150500Y3858000D01*
X6162500Y3860000D01*
X6174500Y3858000D01*
X6182000Y3852000D01*
X6186500Y3845000D01*
Y3820000D01*
G01Y3845000D02*
X6230000Y3860000D01*
G01Y3910000D02*
X6140000D01*
X6158000Y3898000D01*
G01X6230000D02*
Y3922000D01*
G01Y3980000D02*
X6228500Y3987000D01*
X6224000Y3995000D01*
X6216500Y4000000D01*
X6206000Y4002000D01*
X6195500Y4000000D01*
X6186500Y3994000D01*
X6182000Y3985000D01*
Y3975000D01*
X6179000Y3969000D01*
X6171500Y3964000D01*
X6161000Y3962000D01*
X6150500Y3965000D01*
X6143000Y3972000D01*
X6140000Y3980000D01*
X6143000Y3988000D01*
X6150500Y3995000D01*
X6161000Y3998000D01*
X6171500Y3996000D01*
X6179000Y3991000D01*
X6182000Y3985000D01*
Y3975000D01*
X6186500Y3966000D01*
X6195500Y3960000D01*
X6206000Y3958000D01*
X6216500Y3960000D01*
X6224000Y3965000D01*
X6228500Y3973000D01*
X6230000Y3980000D01*
G01X5882000Y3757500D02*
X5876000Y3762000D01*
X5869000Y3765000D01*
X5861000D01*
X5852000Y3760500D01*
X5845000Y3753000D01*
X5840000Y3744000D01*
X5836000Y3729000D01*
X5835000Y3715500D01*
X5837000Y3702000D01*
X5840000Y3693000D01*
X5846000Y3684000D01*
X5853000Y3678000D01*
X5860000Y3675000D01*
X5867000D01*
X5874000Y3678000D01*
X5880000Y3682500D01*
X5885000Y3688500D01*
G01X5911000Y3750000D02*
X5917000Y3759000D01*
X5924000Y3763500D01*
X5932000Y3765000D01*
X5942000Y3762000D01*
X5949000Y3754500D01*
X5951000Y3745500D01*
X5950000Y3736500D01*
X5946000Y3729000D01*
X5926000Y3714000D01*
X5917000Y3703500D01*
X5911000Y3688500D01*
X5909000Y3675000D01*
X5951000D01*
G01X5981000Y3712500D02*
X5988000Y3723000D01*
X5994000Y3729000D01*
X6002000Y3732000D01*
X6009000Y3729000D01*
X6014000Y3723000D01*
X6018000Y3714000D01*
X6019000Y3703500D01*
X6018000Y3694500D01*
X6014000Y3685500D01*
X6008000Y3678000D01*
X6001000Y3675000D01*
X5993000Y3678000D01*
X5986000Y3687000D01*
X5982000Y3700500D01*
X5981000Y3715500D01*
X5983000Y3735000D01*
X5986000Y3745500D01*
X5991000Y3756000D01*
X5998000Y3763500D01*
X6005000Y3765000D01*
X6012000Y3762000D01*
X6017000Y3754500D01*
G01X6122000Y3762500D02*
X6116000Y3767000D01*
X6109000Y3770000D01*
X6101000D01*
X6092000Y3765500D01*
X6085000Y3758000D01*
X6080000Y3749000D01*
X6076000Y3734000D01*
X6075000Y3720500D01*
X6077000Y3707000D01*
X6080000Y3698000D01*
X6086000Y3689000D01*
X6093000Y3683000D01*
X6100000Y3680000D01*
X6107000D01*
X6114000Y3683000D01*
X6120000Y3687500D01*
X6125000Y3693500D01*
G01X6151000Y3755000D02*
X6157000Y3764000D01*
X6164000Y3768500D01*
X6172000Y3770000D01*
X6182000Y3767000D01*
X6189000Y3759500D01*
X6191000Y3750500D01*
X6190000Y3741500D01*
X6186000Y3734000D01*
X6166000Y3719000D01*
X6157000Y3708500D01*
X6151000Y3693500D01*
X6149000Y3680000D01*
X6191000D01*
G01X6218000Y3693500D02*
X6224000Y3686000D01*
X6231000Y3681500D01*
X6240000Y3680000D01*
X6249000Y3683000D01*
X6256000Y3689000D01*
X6261000Y3699500D01*
X6262000Y3711500D01*
X6260000Y3723500D01*
X6255000Y3731000D01*
X6248000Y3737000D01*
X6241000Y3738500D01*
X6234000Y3737000D01*
X6225000Y3731000D01*
X6228000Y3770000D01*
X6255000D01*
G01X6017500Y3867000D02*
X6013000Y3861000D01*
X6010000Y3854000D01*
Y3846000D01*
X6014500Y3837000D01*
X6022000Y3830000D01*
X6031000Y3825000D01*
X6046000Y3821000D01*
X6059500Y3820000D01*
X6073000Y3822000D01*
X6082000Y3825000D01*
X6091000Y3831000D01*
X6097000Y3838000D01*
X6100000Y3845000D01*
Y3852000D01*
X6097000Y3859000D01*
X6092500Y3865000D01*
X6086500Y3870000D01*
G01X6100000Y3915000D02*
X6010000D01*
X6028000Y3903000D01*
G01X6100000D02*
Y3927000D01*
G01Y3983000D02*
X6080500Y3985000D01*
X6064000Y3988000D01*
X6049000Y3992000D01*
X6032500Y3997000D01*
X6010000Y4005000D01*
Y3965000D01*
G01X6192000Y4187500D02*
X6186000Y4192000D01*
X6179000Y4195000D01*
X6171000D01*
X6162000Y4190500D01*
X6155000Y4183000D01*
X6150000Y4174000D01*
X6146000Y4159000D01*
X6145000Y4145500D01*
X6147000Y4132000D01*
X6150000Y4123000D01*
X6156000Y4114000D01*
X6163000Y4108000D01*
X6170000Y4105000D01*
X6177000D01*
X6184000Y4108000D01*
X6190000Y4112500D01*
X6195000Y4118500D01*
G01X6240000Y4105000D02*
Y4195000D01*
X6228000Y4177000D01*
G01Y4105000D02*
X6252000D01*
G01X6293000Y4115500D02*
X6300000Y4108000D01*
X6308000Y4105000D01*
X6316000Y4108000D01*
X6323000Y4117000D01*
X6328000Y4130500D01*
X6330000Y4144000D01*
Y4160500D01*
X6328000Y4174000D01*
X6323000Y4186000D01*
X6317000Y4192000D01*
X6310000Y4195000D01*
X6302000Y4192000D01*
X6296000Y4186000D01*
X6292000Y4177000D01*
X6290000Y4165000D01*
X6292000Y4154500D01*
X6297000Y4144000D01*
X6303000Y4138000D01*
X6310000Y4136500D01*
X6318000Y4139500D01*
X6324000Y4147000D01*
X6330000Y4160500D01*
G01X6192000Y4537500D02*
X6186000Y4542000D01*
X6179000Y4545000D01*
X6171000D01*
X6162000Y4540500D01*
X6155000Y4533000D01*
X6150000Y4524000D01*
X6146000Y4509000D01*
X6145000Y4495500D01*
X6147000Y4482000D01*
X6150000Y4473000D01*
X6156000Y4464000D01*
X6163000Y4458000D01*
X6170000Y4455000D01*
X6177000D01*
X6184000Y4458000D01*
X6190000Y4462500D01*
X6195000Y4468500D01*
G01X6221000Y4530000D02*
X6227000Y4539000D01*
X6234000Y4543500D01*
X6242000Y4545000D01*
X6252000Y4542000D01*
X6259000Y4534500D01*
X6261000Y4525500D01*
X6260000Y4516500D01*
X6256000Y4509000D01*
X6236000Y4494000D01*
X6227000Y4483500D01*
X6221000Y4468500D01*
X6219000Y4455000D01*
X6261000D01*
G01X6310000Y4545000D02*
X6302000Y4542000D01*
X6296000Y4534500D01*
X6292000Y4525500D01*
X6289000Y4513500D01*
X6288000Y4500000D01*
X6289000Y4486500D01*
X6292000Y4474500D01*
X6296000Y4465500D01*
X6302000Y4458000D01*
X6310000Y4455000D01*
X6318000Y4458000D01*
X6324000Y4465500D01*
X6328000Y4474500D01*
X6331000Y4486500D01*
X6332000Y4500000D01*
X6331000Y4513500D01*
X6328000Y4525500D01*
X6324000Y4534500D01*
X6318000Y4542000D01*
X6310000Y4545000D01*
G01X6192000Y4887500D02*
X6186000Y4892000D01*
X6179000Y4895000D01*
X6171000D01*
X6162000Y4890500D01*
X6155000Y4883000D01*
X6150000Y4874000D01*
X6146000Y4859000D01*
X6145000Y4845500D01*
X6147000Y4832000D01*
X6150000Y4823000D01*
X6156000Y4814000D01*
X6163000Y4808000D01*
X6170000Y4805000D01*
X6177000D01*
X6184000Y4808000D01*
X6190000Y4812500D01*
X6195000Y4818500D01*
G01X6221000Y4880000D02*
X6227000Y4889000D01*
X6234000Y4893500D01*
X6242000Y4895000D01*
X6252000Y4892000D01*
X6259000Y4884500D01*
X6261000Y4875500D01*
X6260000Y4866500D01*
X6256000Y4859000D01*
X6236000Y4844000D01*
X6227000Y4833500D01*
X6221000Y4818500D01*
X6219000Y4805000D01*
X6261000D01*
G01X6310000D02*
Y4895000D01*
X6298000Y4877000D01*
G01Y4805000D02*
X6322000D01*
G01X5963000Y5630000D02*
Y5565500D01*
X5967000Y5552000D01*
X5975000Y5543000D01*
X5985000Y5540000D01*
X5995000Y5543000D01*
X6003000Y5552000D01*
X6007000Y5565500D01*
Y5630000D01*
G01X6055000Y5540000D02*
X6062000Y5541500D01*
X6070000Y5546000D01*
X6075000Y5553500D01*
X6077000Y5564000D01*
X6075000Y5574500D01*
X6069000Y5583500D01*
X6060000Y5588000D01*
X6050000D01*
X6044000Y5591000D01*
X6039000Y5598500D01*
X6037000Y5609000D01*
X6040000Y5619500D01*
X6047000Y5627000D01*
X6055000Y5630000D01*
X6063000Y5627000D01*
X6070000Y5619500D01*
X6073000Y5609000D01*
X6071000Y5598500D01*
X6066000Y5591000D01*
X6060000Y5588000D01*
X6050000D01*
X6041000Y5583500D01*
X6035000Y5574500D01*
X6033000Y5564000D01*
X6035000Y5553500D01*
X6040000Y5546000D01*
X6048000Y5541500D01*
X6055000Y5540000D01*
G01X6767580Y315000D02*
Y405000D01*
X6792580D01*
X6800580Y400500D01*
X6805580Y394500D01*
X6807580Y382500D01*
X6805580Y370500D01*
X6799580Y363000D01*
X6792580Y358500D01*
X6767580D01*
G01X6792580D02*
X6807580Y315000D01*
G01X6835580Y333000D02*
X6841580Y322500D01*
X6849580Y316500D01*
X6858580Y315000D01*
X6866580Y316500D01*
X6874580Y324000D01*
X6879580Y333000D01*
X6880580Y342000D01*
X6878580Y352500D01*
X6871580Y360000D01*
X6864580Y363000D01*
X6855580D01*
G01X6864580D02*
X6870580Y367500D01*
X6875580Y375000D01*
X6877580Y384000D01*
X6875580Y393000D01*
X6870580Y400500D01*
X6861580Y405000D01*
X6852580Y403500D01*
X6843580Y397500D01*
G01X6927580Y405000D02*
X6919580Y402000D01*
X6913580Y394500D01*
X6909580Y385500D01*
X6906580Y373500D01*
X6905580Y360000D01*
X6906580Y346500D01*
X6909580Y334500D01*
X6913580Y325500D01*
X6919580Y318000D01*
X6927580Y315000D01*
X6935580Y318000D01*
X6941580Y325500D01*
X6945580Y334500D01*
X6948580Y346500D01*
X6949580Y360000D01*
X6948580Y373500D01*
X6945580Y385500D01*
X6941580Y394500D01*
X6935580Y402000D01*
X6927580Y405000D01*
G01X6765580Y165000D02*
Y255000D01*
X6785580D01*
X6793580Y250500D01*
X6799580Y244500D01*
X6804580Y235500D01*
X6808580Y225000D01*
X6809580Y210000D01*
X6808580Y195000D01*
X6804580Y184500D01*
X6799580Y175500D01*
X6793580Y169500D01*
X6785580Y165000D01*
X6765580D01*
G01X6857580D02*
Y255000D01*
X6845580Y237000D01*
G01Y165000D02*
X6869580D01*
G01X6927580Y255000D02*
X6919580Y252000D01*
X6913580Y244500D01*
X6909580Y235500D01*
X6906580Y223500D01*
X6905580Y210000D01*
X6906580Y196500D01*
X6909580Y184500D01*
X6913580Y175500D01*
X6919580Y168000D01*
X6927580Y165000D01*
X6935580Y168000D01*
X6941580Y175500D01*
X6945580Y184500D01*
X6948580Y196500D01*
X6949580Y210000D01*
X6948580Y223500D01*
X6945580Y235500D01*
X6941580Y244500D01*
X6935580Y252000D01*
X6927580Y255000D01*
G01X6809580Y587500D02*
X6803580Y592000D01*
X6796580Y595000D01*
X6788580D01*
X6779580Y590500D01*
X6772580Y583000D01*
X6767580Y574000D01*
X6763580Y559000D01*
X6762580Y545500D01*
X6764580Y532000D01*
X6767580Y523000D01*
X6773580Y514000D01*
X6780580Y508000D01*
X6787580Y505000D01*
X6794580D01*
X6801580Y508000D01*
X6807580Y512500D01*
X6812580Y518500D01*
G01X6869580Y505000D02*
Y595000D01*
X6832580Y530500D01*
X6882580D01*
G01X6809580Y717500D02*
X6803580Y722000D01*
X6796580Y725000D01*
X6788580D01*
X6779580Y720500D01*
X6772580Y713000D01*
X6767580Y704000D01*
X6763580Y689000D01*
X6762580Y675500D01*
X6764580Y662000D01*
X6767580Y653000D01*
X6773580Y644000D01*
X6780580Y638000D01*
X6787580Y635000D01*
X6794580D01*
X6801580Y638000D01*
X6807580Y642500D01*
X6812580Y648500D01*
G01X6835580D02*
X6841580Y641000D01*
X6848580Y636500D01*
X6857580Y635000D01*
X6866580Y638000D01*
X6873580Y644000D01*
X6878580Y654500D01*
X6879580Y666500D01*
X6877580Y678500D01*
X6872580Y686000D01*
X6865580Y692000D01*
X6858580Y693500D01*
X6851580Y692000D01*
X6842580Y686000D01*
X6845580Y725000D01*
X6872580D01*
G01X6765580Y2645000D02*
Y2735000D01*
X6785580D01*
X6793580Y2730500D01*
X6799580Y2724500D01*
X6804580Y2715500D01*
X6808580Y2705000D01*
X6809580Y2690000D01*
X6808580Y2675000D01*
X6804580Y2664500D01*
X6799580Y2655500D01*
X6793580Y2649500D01*
X6785580Y2645000D01*
X6765580D01*
G01X6857580D02*
Y2735000D01*
X6845580Y2717000D01*
G01Y2645000D02*
X6869580D01*
G01X6927580D02*
Y2735000D01*
X6915580Y2717000D01*
G01Y2645000D02*
X6939580D01*
G01X6767580Y2815000D02*
Y2905000D01*
X6792580D01*
X6800580Y2900500D01*
X6805580Y2894500D01*
X6807580Y2882500D01*
X6805580Y2870500D01*
X6799580Y2863000D01*
X6792580Y2858500D01*
X6767580D01*
G01X6792580D02*
X6807580Y2815000D01*
G01X6835580Y2833000D02*
X6841580Y2822500D01*
X6849580Y2816500D01*
X6858580Y2815000D01*
X6866580Y2816500D01*
X6874580Y2824000D01*
X6879580Y2833000D01*
X6880580Y2842000D01*
X6878580Y2852500D01*
X6871580Y2860000D01*
X6864580Y2863000D01*
X6855580D01*
G01X6864580D02*
X6870580Y2867500D01*
X6875580Y2875000D01*
X6877580Y2884000D01*
X6875580Y2893000D01*
X6870580Y2900500D01*
X6861580Y2905000D01*
X6852580Y2903500D01*
X6843580Y2897500D01*
G01X6908580Y2890000D02*
X6914580Y2899000D01*
X6921580Y2903500D01*
X6929580Y2905000D01*
X6939580Y2902000D01*
X6946580Y2894500D01*
X6948580Y2885500D01*
X6947580Y2876500D01*
X6943580Y2869000D01*
X6923580Y2854000D01*
X6914580Y2843500D01*
X6908580Y2828500D01*
X6906580Y2815000D01*
X6948580D01*
G01X6809580Y3087500D02*
X6803580Y3092000D01*
X6796580Y3095000D01*
X6788580D01*
X6779580Y3090500D01*
X6772580Y3083000D01*
X6767580Y3074000D01*
X6763580Y3059000D01*
X6762580Y3045500D01*
X6764580Y3032000D01*
X6767580Y3023000D01*
X6773580Y3014000D01*
X6780580Y3008000D01*
X6787580Y3005000D01*
X6794580D01*
X6801580Y3008000D01*
X6807580Y3012500D01*
X6812580Y3018500D01*
G01X6838580Y3042500D02*
X6845580Y3053000D01*
X6851580Y3059000D01*
X6859580Y3062000D01*
X6866580Y3059000D01*
X6871580Y3053000D01*
X6875580Y3044000D01*
X6876580Y3033500D01*
X6875580Y3024500D01*
X6871580Y3015500D01*
X6865580Y3008000D01*
X6858580Y3005000D01*
X6850580Y3008000D01*
X6843580Y3017000D01*
X6839580Y3030500D01*
X6838580Y3045500D01*
X6840580Y3065000D01*
X6843580Y3075500D01*
X6848580Y3086000D01*
X6855580Y3093500D01*
X6862580Y3095000D01*
X6869580Y3092000D01*
X6874580Y3084500D01*
G01X6809580Y3217500D02*
X6803580Y3222000D01*
X6796580Y3225000D01*
X6788580D01*
X6779580Y3220500D01*
X6772580Y3213000D01*
X6767580Y3204000D01*
X6763580Y3189000D01*
X6762580Y3175500D01*
X6764580Y3162000D01*
X6767580Y3153000D01*
X6773580Y3144000D01*
X6780580Y3138000D01*
X6787580Y3135000D01*
X6794580D01*
X6801580Y3138000D01*
X6807580Y3142500D01*
X6812580Y3148500D01*
G01X6855580Y3135000D02*
X6857580Y3154500D01*
X6860580Y3171000D01*
X6864580Y3186000D01*
X6869580Y3202500D01*
X6877580Y3225000D01*
X6837580D01*
G01X6785380Y5295000D02*
Y5385000D01*
X6810380D01*
X6818380Y5380500D01*
X6823380Y5374500D01*
X6825380Y5362500D01*
X6823380Y5350500D01*
X6817380Y5343000D01*
X6810380Y5338500D01*
X6785380D01*
G01X6810380D02*
X6825380Y5295000D01*
G01X6853380Y5313000D02*
X6859380Y5302500D01*
X6867380Y5296500D01*
X6876380Y5295000D01*
X6884380Y5296500D01*
X6892380Y5304000D01*
X6897380Y5313000D01*
X6898380Y5322000D01*
X6896380Y5332500D01*
X6889380Y5340000D01*
X6882380Y5343000D01*
X6873380D01*
G01X6882380D02*
X6888380Y5347500D01*
X6893380Y5355000D01*
X6895380Y5364000D01*
X6893380Y5373000D01*
X6888380Y5380500D01*
X6879380Y5385000D01*
X6870380Y5383500D01*
X6861380Y5377500D01*
G01X6923380Y5313000D02*
X6929380Y5302500D01*
X6937380Y5296500D01*
X6946380Y5295000D01*
X6954380Y5296500D01*
X6962380Y5304000D01*
X6967380Y5313000D01*
X6968380Y5322000D01*
X6966380Y5332500D01*
X6959380Y5340000D01*
X6952380Y5343000D01*
X6943380D01*
G01X6952380D02*
X6958380Y5347500D01*
X6963380Y5355000D01*
X6965380Y5364000D01*
X6963380Y5373000D01*
X6958380Y5380500D01*
X6949380Y5385000D01*
X6940380Y5383500D01*
X6931380Y5377500D01*
G01X6783380Y5135000D02*
Y5225000D01*
X6803380D01*
X6811380Y5220500D01*
X6817380Y5214500D01*
X6822380Y5205500D01*
X6826380Y5195000D01*
X6827380Y5180000D01*
X6826380Y5165000D01*
X6822380Y5154500D01*
X6817380Y5145500D01*
X6811380Y5139500D01*
X6803380Y5135000D01*
X6783380D01*
G01X6875380D02*
Y5225000D01*
X6863380Y5207000D01*
G01Y5135000D02*
X6887380D01*
G01X6926380Y5210000D02*
X6932380Y5219000D01*
X6939380Y5223500D01*
X6947380Y5225000D01*
X6957380Y5222000D01*
X6964380Y5214500D01*
X6966380Y5205500D01*
X6965380Y5196500D01*
X6961380Y5189000D01*
X6941380Y5174000D01*
X6932380Y5163500D01*
X6926380Y5148500D01*
X6924380Y5135000D01*
X6966380D01*
G01X6827380Y5567500D02*
X6821380Y5572000D01*
X6814380Y5575000D01*
X6806380D01*
X6797380Y5570500D01*
X6790380Y5563000D01*
X6785380Y5554000D01*
X6781380Y5539000D01*
X6780380Y5525500D01*
X6782380Y5512000D01*
X6785380Y5503000D01*
X6791380Y5494000D01*
X6798380Y5488000D01*
X6805380Y5485000D01*
X6812380D01*
X6819380Y5488000D01*
X6825380Y5492500D01*
X6830380Y5498500D01*
G01X6856380Y5560000D02*
X6862380Y5569000D01*
X6869380Y5573500D01*
X6877380Y5575000D01*
X6887380Y5572000D01*
X6894380Y5564500D01*
X6896380Y5555500D01*
X6895380Y5546500D01*
X6891380Y5539000D01*
X6871380Y5524000D01*
X6862380Y5513500D01*
X6856380Y5498500D01*
X6854380Y5485000D01*
X6896380D01*
G01X6943380D02*
X6945380Y5504500D01*
X6948380Y5521000D01*
X6952380Y5536000D01*
X6957380Y5552500D01*
X6965380Y5575000D01*
X6925380D01*
G01X6827380Y5697500D02*
X6821380Y5702000D01*
X6814380Y5705000D01*
X6806380D01*
X6797380Y5700500D01*
X6790380Y5693000D01*
X6785380Y5684000D01*
X6781380Y5669000D01*
X6780380Y5655500D01*
X6782380Y5642000D01*
X6785380Y5633000D01*
X6791380Y5624000D01*
X6798380Y5618000D01*
X6805380Y5615000D01*
X6812380D01*
X6819380Y5618000D01*
X6825380Y5622500D01*
X6830380Y5628500D01*
G01X6856380Y5690000D02*
X6862380Y5699000D01*
X6869380Y5703500D01*
X6877380Y5705000D01*
X6887380Y5702000D01*
X6894380Y5694500D01*
X6896380Y5685500D01*
X6895380Y5676500D01*
X6891380Y5669000D01*
X6871380Y5654000D01*
X6862380Y5643500D01*
X6856380Y5628500D01*
X6854380Y5615000D01*
X6896380D01*
G01X6945380D02*
X6952380Y5616500D01*
X6960380Y5621000D01*
X6965380Y5628500D01*
X6967380Y5639000D01*
X6965380Y5649500D01*
X6959380Y5658500D01*
X6950380Y5663000D01*
X6940380D01*
X6934380Y5666000D01*
X6929380Y5673500D01*
X6927380Y5684000D01*
X6930380Y5694500D01*
X6937380Y5702000D01*
X6945380Y5705000D01*
X6953380Y5702000D01*
X6960380Y5694500D01*
X6963380Y5684000D01*
X6961380Y5673500D01*
X6956380Y5666000D01*
X6950380Y5663000D01*
X6940380D01*
X6931380Y5658500D01*
X6925380Y5649500D01*
X6923380Y5639000D01*
X6925380Y5628500D01*
X6930380Y5621000D01*
X6938380Y5616500D01*
X6945380Y5615000D01*
G01X6794480Y7655000D02*
Y7745000D01*
X6814480D01*
X6822480Y7740500D01*
X6828480Y7734500D01*
X6833480Y7725500D01*
X6837480Y7715000D01*
X6838480Y7700000D01*
X6837480Y7685000D01*
X6833480Y7674500D01*
X6828480Y7665500D01*
X6822480Y7659500D01*
X6814480Y7655000D01*
X6794480D01*
G01X6886480D02*
Y7745000D01*
X6874480Y7727000D01*
G01Y7655000D02*
X6898480D01*
G01X6934480Y7673000D02*
X6940480Y7662500D01*
X6948480Y7656500D01*
X6957480Y7655000D01*
X6965480Y7656500D01*
X6973480Y7664000D01*
X6978480Y7673000D01*
X6979480Y7682000D01*
X6977480Y7692500D01*
X6970480Y7700000D01*
X6963480Y7703000D01*
X6954480D01*
G01X6963480D02*
X6969480Y7707500D01*
X6974480Y7715000D01*
X6976480Y7724000D01*
X6974480Y7733000D01*
X6969480Y7740500D01*
X6960480Y7745000D01*
X6951480Y7743500D01*
X6942480Y7737500D01*
G01X6800000Y7820000D02*
Y7910000D01*
X6825000D01*
X6833000Y7905500D01*
X6838000Y7899500D01*
X6840000Y7887500D01*
X6838000Y7875500D01*
X6832000Y7868000D01*
X6825000Y7863500D01*
X6800000D01*
G01X6825000D02*
X6840000Y7820000D01*
G01X6868000Y7838000D02*
X6874000Y7827500D01*
X6882000Y7821500D01*
X6891000Y7820000D01*
X6899000Y7821500D01*
X6907000Y7829000D01*
X6912000Y7838000D01*
X6913000Y7847000D01*
X6911000Y7857500D01*
X6904000Y7865000D01*
X6897000Y7868000D01*
X6888000D01*
G01X6897000D02*
X6903000Y7872500D01*
X6908000Y7880000D01*
X6910000Y7889000D01*
X6908000Y7898000D01*
X6903000Y7905500D01*
X6894000Y7910000D01*
X6885000Y7908500D01*
X6876000Y7902500D01*
G01X6941000Y7857500D02*
X6948000Y7868000D01*
X6954000Y7874000D01*
X6962000Y7877000D01*
X6969000Y7874000D01*
X6974000Y7868000D01*
X6978000Y7859000D01*
X6979000Y7848500D01*
X6978000Y7839500D01*
X6974000Y7830500D01*
X6968000Y7823000D01*
X6961000Y7820000D01*
X6953000Y7823000D01*
X6946000Y7832000D01*
X6942000Y7845500D01*
X6941000Y7860500D01*
X6943000Y7880000D01*
X6946000Y7890500D01*
X6951000Y7901000D01*
X6958000Y7908500D01*
X6965000Y7910000D01*
X6972000Y7907000D01*
X6977000Y7899500D01*
G01X6838480Y8087500D02*
X6832480Y8092000D01*
X6825480Y8095000D01*
X6817480D01*
X6808480Y8090500D01*
X6801480Y8083000D01*
X6796480Y8074000D01*
X6792480Y8059000D01*
X6791480Y8045500D01*
X6793480Y8032000D01*
X6796480Y8023000D01*
X6802480Y8014000D01*
X6809480Y8008000D01*
X6816480Y8005000D01*
X6823480D01*
X6830480Y8008000D01*
X6836480Y8012500D01*
X6841480Y8018500D01*
G01X6867480Y8080000D02*
X6873480Y8089000D01*
X6880480Y8093500D01*
X6888480Y8095000D01*
X6898480Y8092000D01*
X6905480Y8084500D01*
X6907480Y8075500D01*
X6906480Y8066500D01*
X6902480Y8059000D01*
X6882480Y8044000D01*
X6873480Y8033500D01*
X6867480Y8018500D01*
X6865480Y8005000D01*
X6907480D01*
G01X6939480Y8015500D02*
X6946480Y8008000D01*
X6954480Y8005000D01*
X6962480Y8008000D01*
X6969480Y8017000D01*
X6974480Y8030500D01*
X6976480Y8044000D01*
Y8060500D01*
X6974480Y8074000D01*
X6969480Y8086000D01*
X6963480Y8092000D01*
X6956480Y8095000D01*
X6948480Y8092000D01*
X6942480Y8086000D01*
X6938480Y8077000D01*
X6936480Y8065000D01*
X6938480Y8054500D01*
X6943480Y8044000D01*
X6949480Y8038000D01*
X6956480Y8036500D01*
X6964480Y8039500D01*
X6970480Y8047000D01*
X6976480Y8060500D01*
G01X6842000Y8222500D02*
X6836000Y8227000D01*
X6829000Y8230000D01*
X6821000D01*
X6812000Y8225500D01*
X6805000Y8218000D01*
X6800000Y8209000D01*
X6796000Y8194000D01*
X6795000Y8180500D01*
X6797000Y8167000D01*
X6800000Y8158000D01*
X6806000Y8149000D01*
X6813000Y8143000D01*
X6820000Y8140000D01*
X6827000D01*
X6834000Y8143000D01*
X6840000Y8147500D01*
X6845000Y8153500D01*
G01X6868000Y8158000D02*
X6874000Y8147500D01*
X6882000Y8141500D01*
X6891000Y8140000D01*
X6899000Y8141500D01*
X6907000Y8149000D01*
X6912000Y8158000D01*
X6913000Y8167000D01*
X6911000Y8177500D01*
X6904000Y8185000D01*
X6897000Y8188000D01*
X6888000D01*
G01X6897000D02*
X6903000Y8192500D01*
X6908000Y8200000D01*
X6910000Y8209000D01*
X6908000Y8218000D01*
X6903000Y8225500D01*
X6894000Y8230000D01*
X6885000Y8228500D01*
X6876000Y8222500D01*
G01X6960000Y8230000D02*
X6952000Y8227000D01*
X6946000Y8219500D01*
X6942000Y8210500D01*
X6939000Y8198500D01*
X6938000Y8185000D01*
X6939000Y8171500D01*
X6942000Y8159500D01*
X6946000Y8150500D01*
X6952000Y8143000D01*
X6960000Y8140000D01*
X6968000Y8143000D01*
X6974000Y8150500D01*
X6978000Y8159500D01*
X6981000Y8171500D01*
X6982000Y8185000D01*
X6981000Y8198500D01*
X6978000Y8210500D01*
X6974000Y8219500D01*
X6968000Y8227000D01*
X6960000Y8230000D01*
G01X7213000Y980000D02*
Y915500D01*
X7217000Y902000D01*
X7225000Y893000D01*
X7235000Y890000D01*
X7245000Y893000D01*
X7253000Y902000D01*
X7257000Y915500D01*
Y980000D01*
G01X7283000Y908000D02*
X7289000Y897500D01*
X7297000Y891500D01*
X7306000Y890000D01*
X7314000Y891500D01*
X7322000Y899000D01*
X7327000Y908000D01*
X7328000Y917000D01*
X7326000Y927500D01*
X7319000Y935000D01*
X7312000Y938000D01*
X7303000D01*
G01X7312000D02*
X7318000Y942500D01*
X7323000Y950000D01*
X7325000Y959000D01*
X7323000Y968000D01*
X7318000Y975500D01*
X7309000Y980000D01*
X7300000Y978500D01*
X7291000Y972500D01*
G01X7213000Y3480000D02*
Y3415500D01*
X7217000Y3402000D01*
X7225000Y3393000D01*
X7235000Y3390000D01*
X7245000Y3393000D01*
X7253000Y3402000D01*
X7257000Y3415500D01*
Y3480000D01*
G01X7317000Y3390000D02*
Y3480000D01*
X7280000Y3415500D01*
X7330000D01*
G01X7213000Y5960000D02*
Y5895500D01*
X7217000Y5882000D01*
X7225000Y5873000D01*
X7235000Y5870000D01*
X7245000Y5873000D01*
X7253000Y5882000D01*
X7257000Y5895500D01*
Y5960000D01*
G01X7283000Y5883500D02*
X7289000Y5876000D01*
X7296000Y5871500D01*
X7305000Y5870000D01*
X7314000Y5873000D01*
X7321000Y5879000D01*
X7326000Y5889500D01*
X7327000Y5901500D01*
X7325000Y5913500D01*
X7320000Y5921000D01*
X7313000Y5927000D01*
X7306000Y5928500D01*
X7299000Y5927000D01*
X7290000Y5921000D01*
X7293000Y5960000D01*
X7320000D01*
G01X7203000Y8480000D02*
Y8415500D01*
X7207000Y8402000D01*
X7215000Y8393000D01*
X7225000Y8390000D01*
X7235000Y8393000D01*
X7243000Y8402000D01*
X7247000Y8415500D01*
Y8480000D01*
G01X7276000Y8427500D02*
X7283000Y8438000D01*
X7289000Y8444000D01*
X7297000Y8447000D01*
X7304000Y8444000D01*
X7309000Y8438000D01*
X7313000Y8429000D01*
X7314000Y8418500D01*
X7313000Y8409500D01*
X7309000Y8400500D01*
X7303000Y8393000D01*
X7296000Y8390000D01*
X7288000Y8393000D01*
X7281000Y8402000D01*
X7277000Y8415500D01*
X7276000Y8430500D01*
X7278000Y8450000D01*
X7281000Y8460500D01*
X7286000Y8471000D01*
X7293000Y8478500D01*
X7300000Y8480000D01*
X7307000Y8477000D01*
X7312000Y8469500D01*
G01X7672500Y88100D02*
X7668000Y82100D01*
X7665000Y75100D01*
Y67100D01*
X7669500Y58100D01*
X7677000Y51100D01*
X7686000Y46100D01*
X7701000Y42100D01*
X7714500Y41100D01*
X7728000Y43100D01*
X7737000Y46100D01*
X7746000Y52100D01*
X7752000Y59100D01*
X7755000Y66100D01*
Y73100D01*
X7752000Y80100D01*
X7747500Y86100D01*
X7741500Y91100D01*
G01X7755000Y136100D02*
X7753500Y143100D01*
X7749000Y151100D01*
X7741500Y156100D01*
X7731000Y158100D01*
X7720500Y156100D01*
X7711500Y150100D01*
X7707000Y141100D01*
Y131100D01*
X7704000Y125100D01*
X7696500Y120100D01*
X7686000Y118100D01*
X7675500Y121100D01*
X7668000Y128100D01*
X7665000Y136100D01*
X7668000Y144100D01*
X7675500Y151100D01*
X7686000Y154100D01*
X7696500Y152100D01*
X7704000Y147100D01*
X7707000Y141100D01*
Y131100D01*
X7711500Y122100D01*
X7720500Y116100D01*
X7731000Y114100D01*
X7741500Y116100D01*
X7749000Y121100D01*
X7753500Y129100D01*
X7755000Y136100D01*
G01X7460000Y1145000D02*
X7370000D01*
Y1170000D01*
X7374500Y1178000D01*
X7380500Y1183000D01*
X7392500Y1185000D01*
X7404500Y1183000D01*
X7412000Y1177000D01*
X7416500Y1170000D01*
Y1145000D01*
G01Y1170000D02*
X7460000Y1185000D01*
G01X7449500Y1218000D02*
X7457000Y1225000D01*
X7460000Y1233000D01*
X7457000Y1241000D01*
X7448000Y1248000D01*
X7434500Y1253000D01*
X7421000Y1255000D01*
X7404500D01*
X7391000Y1253000D01*
X7379000Y1248000D01*
X7373000Y1242000D01*
X7370000Y1235000D01*
X7373000Y1227000D01*
X7379000Y1221000D01*
X7388000Y1217000D01*
X7400000Y1215000D01*
X7410500Y1217000D01*
X7421000Y1222000D01*
X7427000Y1228000D01*
X7428500Y1235000D01*
X7425500Y1243000D01*
X7418000Y1249000D01*
X7404500Y1255000D01*
G01X7585000Y1145000D02*
X7495000D01*
Y1170000D01*
X7499500Y1178000D01*
X7505500Y1183000D01*
X7517500Y1185000D01*
X7529500Y1183000D01*
X7537000Y1177000D01*
X7541500Y1170000D01*
Y1145000D01*
G01Y1170000D02*
X7585000Y1185000D01*
G01Y1235000D02*
X7495000D01*
X7513000Y1223000D01*
G01X7585000D02*
Y1247000D01*
G01X7510000Y1286000D02*
X7501000Y1292000D01*
X7496500Y1299000D01*
X7495000Y1307000D01*
X7498000Y1317000D01*
X7505500Y1324000D01*
X7514500Y1326000D01*
X7523500Y1325000D01*
X7531000Y1321000D01*
X7546000Y1301000D01*
X7556500Y1292000D01*
X7571500Y1286000D01*
X7585000Y1284000D01*
Y1326000D01*
G01X7422500Y2453100D02*
X7418000Y2447100D01*
X7415000Y2440100D01*
Y2432100D01*
X7419500Y2423100D01*
X7427000Y2416100D01*
X7436000Y2411100D01*
X7451000Y2407100D01*
X7464500Y2406100D01*
X7478000Y2408100D01*
X7487000Y2411100D01*
X7496000Y2417100D01*
X7502000Y2424100D01*
X7505000Y2431100D01*
Y2438100D01*
X7502000Y2445100D01*
X7497500Y2451100D01*
X7491500Y2456100D01*
G01X7505000Y2501100D02*
X7415000D01*
X7433000Y2489100D01*
G01X7505000D02*
Y2513100D01*
G01Y2571100D02*
X7415000D01*
X7433000Y2559100D01*
G01X7505000D02*
Y2583100D01*
G01X7542500Y2522000D02*
X7538000Y2516000D01*
X7535000Y2509000D01*
Y2501000D01*
X7539500Y2492000D01*
X7547000Y2485000D01*
X7556000Y2480000D01*
X7571000Y2476000D01*
X7584500Y2475000D01*
X7598000Y2477000D01*
X7607000Y2480000D01*
X7616000Y2486000D01*
X7622000Y2493000D01*
X7625000Y2500000D01*
Y2507000D01*
X7622000Y2514000D01*
X7617500Y2520000D01*
X7611500Y2525000D01*
G01X7625000Y2570000D02*
X7535000D01*
X7553000Y2558000D01*
G01X7625000D02*
Y2582000D01*
G01X7550000Y2621000D02*
X7541000Y2627000D01*
X7536500Y2634000D01*
X7535000Y2642000D01*
X7538000Y2652000D01*
X7545500Y2659000D01*
X7554500Y2661000D01*
X7563500Y2660000D01*
X7571000Y2656000D01*
X7586000Y2636000D01*
X7596500Y2627000D01*
X7611500Y2621000D01*
X7625000Y2619000D01*
Y2661000D01*
G01X7662500Y2522000D02*
X7658000Y2516000D01*
X7655000Y2509000D01*
Y2501000D01*
X7659500Y2492000D01*
X7667000Y2485000D01*
X7676000Y2480000D01*
X7691000Y2476000D01*
X7704500Y2475000D01*
X7718000Y2477000D01*
X7727000Y2480000D01*
X7736000Y2486000D01*
X7742000Y2493000D01*
X7745000Y2500000D01*
Y2507000D01*
X7742000Y2514000D01*
X7737500Y2520000D01*
X7731500Y2525000D01*
G01X7745000Y2570000D02*
X7655000D01*
X7673000Y2558000D01*
G01X7745000D02*
Y2582000D01*
G01X7727000Y2618000D02*
X7737500Y2624000D01*
X7743500Y2632000D01*
X7745000Y2641000D01*
X7743500Y2649000D01*
X7736000Y2657000D01*
X7727000Y2662000D01*
X7718000Y2663000D01*
X7707500Y2661000D01*
X7700000Y2654000D01*
X7697000Y2647000D01*
Y2638000D01*
G01Y2647000D02*
X7692500Y2653000D01*
X7685000Y2658000D01*
X7676000Y2660000D01*
X7667000Y2658000D01*
X7659500Y2653000D01*
X7655000Y2644000D01*
X7656500Y2635000D01*
X7662500Y2626000D01*
G01X7455000Y3635000D02*
X7365000D01*
Y3660000D01*
X7369500Y3668000D01*
X7375500Y3673000D01*
X7387500Y3675000D01*
X7399500Y3673000D01*
X7407000Y3667000D01*
X7411500Y3660000D01*
Y3635000D01*
G01Y3660000D02*
X7455000Y3675000D01*
G01Y3725000D02*
X7365000D01*
X7383000Y3713000D01*
G01X7455000D02*
Y3737000D01*
G01X7365000Y3795000D02*
X7368000Y3787000D01*
X7375500Y3781000D01*
X7384500Y3777000D01*
X7396500Y3774000D01*
X7410000Y3773000D01*
X7423500Y3774000D01*
X7435500Y3777000D01*
X7444500Y3781000D01*
X7452000Y3787000D01*
X7455000Y3795000D01*
X7452000Y3803000D01*
X7444500Y3809000D01*
X7435500Y3813000D01*
X7423500Y3816000D01*
X7410000Y3817000D01*
X7396500Y3816000D01*
X7384500Y3813000D01*
X7375500Y3809000D01*
X7368000Y3803000D01*
X7365000Y3795000D01*
G01X7575000Y3635000D02*
X7485000D01*
Y3660000D01*
X7489500Y3668000D01*
X7495500Y3673000D01*
X7507500Y3675000D01*
X7519500Y3673000D01*
X7527000Y3667000D01*
X7531500Y3660000D01*
Y3635000D01*
G01Y3660000D02*
X7575000Y3675000D01*
G01Y3725000D02*
X7485000D01*
X7503000Y3713000D01*
G01X7575000D02*
Y3737000D01*
G01X7557000Y3773000D02*
X7567500Y3779000D01*
X7573500Y3787000D01*
X7575000Y3796000D01*
X7573500Y3804000D01*
X7566000Y3812000D01*
X7557000Y3817000D01*
X7548000Y3818000D01*
X7537500Y3816000D01*
X7530000Y3809000D01*
X7527000Y3802000D01*
Y3793000D01*
G01Y3802000D02*
X7522500Y3808000D01*
X7515000Y3813000D01*
X7506000Y3815000D01*
X7497000Y3813000D01*
X7489500Y3808000D01*
X7485000Y3799000D01*
X7486500Y3790000D01*
X7492500Y3781000D01*
G01X7412500Y4933100D02*
X7408000Y4927100D01*
X7405000Y4920100D01*
Y4912100D01*
X7409500Y4903100D01*
X7417000Y4896100D01*
X7426000Y4891100D01*
X7441000Y4887100D01*
X7454500Y4886100D01*
X7468000Y4888100D01*
X7477000Y4891100D01*
X7486000Y4897100D01*
X7492000Y4904100D01*
X7495000Y4911100D01*
Y4918100D01*
X7492000Y4925100D01*
X7487500Y4931100D01*
X7481500Y4936100D01*
G01X7477000Y4959100D02*
X7487500Y4965100D01*
X7493500Y4973100D01*
X7495000Y4982100D01*
X7493500Y4990100D01*
X7486000Y4998100D01*
X7477000Y5003100D01*
X7468000Y5004100D01*
X7457500Y5002100D01*
X7450000Y4995100D01*
X7447000Y4988100D01*
Y4979100D01*
G01Y4988100D02*
X7442500Y4994100D01*
X7435000Y4999100D01*
X7426000Y5001100D01*
X7417000Y4999100D01*
X7409500Y4994100D01*
X7405000Y4985100D01*
X7406500Y4976100D01*
X7412500Y4967100D01*
G01X7495000Y5051100D02*
X7405000D01*
X7423000Y5039100D01*
G01X7495000D02*
Y5063100D01*
G01X7542500Y5022000D02*
X7538000Y5016000D01*
X7535000Y5009000D01*
Y5001000D01*
X7539500Y4992000D01*
X7547000Y4985000D01*
X7556000Y4980000D01*
X7571000Y4976000D01*
X7584500Y4975000D01*
X7598000Y4977000D01*
X7607000Y4980000D01*
X7616000Y4986000D01*
X7622000Y4993000D01*
X7625000Y5000000D01*
Y5007000D01*
X7622000Y5014000D01*
X7617500Y5020000D01*
X7611500Y5025000D01*
G01X7607000Y5048000D02*
X7617500Y5054000D01*
X7623500Y5062000D01*
X7625000Y5071000D01*
X7623500Y5079000D01*
X7616000Y5087000D01*
X7607000Y5092000D01*
X7598000Y5093000D01*
X7587500Y5091000D01*
X7580000Y5084000D01*
X7577000Y5077000D01*
Y5068000D01*
G01Y5077000D02*
X7572500Y5083000D01*
X7565000Y5088000D01*
X7556000Y5090000D01*
X7547000Y5088000D01*
X7539500Y5083000D01*
X7535000Y5074000D01*
X7536500Y5065000D01*
X7542500Y5056000D01*
G01X7550000Y5121000D02*
X7541000Y5127000D01*
X7536500Y5134000D01*
X7535000Y5142000D01*
X7538000Y5152000D01*
X7545500Y5159000D01*
X7554500Y5161000D01*
X7563500Y5160000D01*
X7571000Y5156000D01*
X7586000Y5136000D01*
X7596500Y5127000D01*
X7611500Y5121000D01*
X7625000Y5119000D01*
Y5161000D01*
G01X7662500Y5022000D02*
X7658000Y5016000D01*
X7655000Y5009000D01*
Y5001000D01*
X7659500Y4992000D01*
X7667000Y4985000D01*
X7676000Y4980000D01*
X7691000Y4976000D01*
X7704500Y4975000D01*
X7718000Y4977000D01*
X7727000Y4980000D01*
X7736000Y4986000D01*
X7742000Y4993000D01*
X7745000Y5000000D01*
Y5007000D01*
X7742000Y5014000D01*
X7737500Y5020000D01*
X7731500Y5025000D01*
G01X7727000Y5048000D02*
X7737500Y5054000D01*
X7743500Y5062000D01*
X7745000Y5071000D01*
X7743500Y5079000D01*
X7736000Y5087000D01*
X7727000Y5092000D01*
X7718000Y5093000D01*
X7707500Y5091000D01*
X7700000Y5084000D01*
X7697000Y5077000D01*
Y5068000D01*
G01Y5077000D02*
X7692500Y5083000D01*
X7685000Y5088000D01*
X7676000Y5090000D01*
X7667000Y5088000D01*
X7659500Y5083000D01*
X7655000Y5074000D01*
X7656500Y5065000D01*
X7662500Y5056000D01*
G01X7727000Y5118000D02*
X7737500Y5124000D01*
X7743500Y5132000D01*
X7745000Y5141000D01*
X7743500Y5149000D01*
X7736000Y5157000D01*
X7727000Y5162000D01*
X7718000Y5163000D01*
X7707500Y5161000D01*
X7700000Y5154000D01*
X7697000Y5147000D01*
Y5138000D01*
G01Y5147000D02*
X7692500Y5153000D01*
X7685000Y5158000D01*
X7676000Y5160000D01*
X7667000Y5158000D01*
X7659500Y5153000D01*
X7655000Y5144000D01*
X7656500Y5135000D01*
X7662500Y5126000D01*
G01X7465000Y6135000D02*
X7375000D01*
Y6160000D01*
X7379500Y6168000D01*
X7385500Y6173000D01*
X7397500Y6175000D01*
X7409500Y6173000D01*
X7417000Y6167000D01*
X7421500Y6160000D01*
Y6135000D01*
G01Y6160000D02*
X7465000Y6175000D01*
G01X7390000Y6206000D02*
X7381000Y6212000D01*
X7376500Y6219000D01*
X7375000Y6227000D01*
X7378000Y6237000D01*
X7385500Y6244000D01*
X7394500Y6246000D01*
X7403500Y6245000D01*
X7411000Y6241000D01*
X7426000Y6221000D01*
X7436500Y6212000D01*
X7451500Y6206000D01*
X7465000Y6204000D01*
Y6246000D01*
G01X7451500Y6273000D02*
X7459000Y6279000D01*
X7463500Y6286000D01*
X7465000Y6295000D01*
X7462000Y6304000D01*
X7456000Y6311000D01*
X7445500Y6316000D01*
X7433500Y6317000D01*
X7421500Y6315000D01*
X7414000Y6310000D01*
X7408000Y6303000D01*
X7406500Y6296000D01*
X7408000Y6289000D01*
X7414000Y6280000D01*
X7375000Y6283000D01*
Y6310000D01*
G01X7585000Y6135000D02*
X7495000D01*
Y6160000D01*
X7499500Y6168000D01*
X7505500Y6173000D01*
X7517500Y6175000D01*
X7529500Y6173000D01*
X7537000Y6167000D01*
X7541500Y6160000D01*
Y6135000D01*
G01Y6160000D02*
X7585000Y6175000D01*
G01X7510000Y6206000D02*
X7501000Y6212000D01*
X7496500Y6219000D01*
X7495000Y6227000D01*
X7498000Y6237000D01*
X7505500Y6244000D01*
X7514500Y6246000D01*
X7523500Y6245000D01*
X7531000Y6241000D01*
X7546000Y6221000D01*
X7556500Y6212000D01*
X7571500Y6206000D01*
X7585000Y6204000D01*
Y6246000D01*
G01Y6293000D02*
X7565500Y6295000D01*
X7549000Y6298000D01*
X7534000Y6302000D01*
X7517500Y6307000D01*
X7495000Y6315000D01*
Y6275000D01*
G01X7402500Y7433100D02*
X7398000Y7427100D01*
X7395000Y7420100D01*
Y7412100D01*
X7399500Y7403100D01*
X7407000Y7396100D01*
X7416000Y7391100D01*
X7431000Y7387100D01*
X7444500Y7386100D01*
X7458000Y7388100D01*
X7467000Y7391100D01*
X7476000Y7397100D01*
X7482000Y7404100D01*
X7485000Y7411100D01*
Y7418100D01*
X7482000Y7425100D01*
X7477500Y7431100D01*
X7471500Y7436100D01*
G01X7467000Y7459100D02*
X7477500Y7465100D01*
X7483500Y7473100D01*
X7485000Y7482100D01*
X7483500Y7490100D01*
X7476000Y7498100D01*
X7467000Y7503100D01*
X7458000Y7504100D01*
X7447500Y7502100D01*
X7440000Y7495100D01*
X7437000Y7488100D01*
Y7479100D01*
G01Y7488100D02*
X7432500Y7494100D01*
X7425000Y7499100D01*
X7416000Y7501100D01*
X7407000Y7499100D01*
X7399500Y7494100D01*
X7395000Y7485100D01*
X7396500Y7476100D01*
X7402500Y7467100D01*
G01X7485000Y7563100D02*
X7395000D01*
X7459500Y7526100D01*
Y7576100D01*
G01X7552500Y7522000D02*
X7548000Y7516000D01*
X7545000Y7509000D01*
Y7501000D01*
X7549500Y7492000D01*
X7557000Y7485000D01*
X7566000Y7480000D01*
X7581000Y7476000D01*
X7594500Y7475000D01*
X7608000Y7477000D01*
X7617000Y7480000D01*
X7626000Y7486000D01*
X7632000Y7493000D01*
X7635000Y7500000D01*
Y7507000D01*
X7632000Y7514000D01*
X7627500Y7520000D01*
X7621500Y7525000D01*
G01X7617000Y7548000D02*
X7627500Y7554000D01*
X7633500Y7562000D01*
X7635000Y7571000D01*
X7633500Y7579000D01*
X7626000Y7587000D01*
X7617000Y7592000D01*
X7608000Y7593000D01*
X7597500Y7591000D01*
X7590000Y7584000D01*
X7587000Y7577000D01*
Y7568000D01*
G01Y7577000D02*
X7582500Y7583000D01*
X7575000Y7588000D01*
X7566000Y7590000D01*
X7557000Y7588000D01*
X7549500Y7583000D01*
X7545000Y7574000D01*
X7546500Y7565000D01*
X7552500Y7556000D01*
G01X7621500Y7618000D02*
X7629000Y7624000D01*
X7633500Y7631000D01*
X7635000Y7640000D01*
X7632000Y7649000D01*
X7626000Y7656000D01*
X7615500Y7661000D01*
X7603500Y7662000D01*
X7591500Y7660000D01*
X7584000Y7655000D01*
X7578000Y7648000D01*
X7576500Y7641000D01*
X7578000Y7634000D01*
X7584000Y7625000D01*
X7545000Y7628000D01*
Y7655000D01*
G01X7672500Y7522000D02*
X7668000Y7516000D01*
X7665000Y7509000D01*
Y7501000D01*
X7669500Y7492000D01*
X7677000Y7485000D01*
X7686000Y7480000D01*
X7701000Y7476000D01*
X7714500Y7475000D01*
X7728000Y7477000D01*
X7737000Y7480000D01*
X7746000Y7486000D01*
X7752000Y7493000D01*
X7755000Y7500000D01*
Y7507000D01*
X7752000Y7514000D01*
X7747500Y7520000D01*
X7741500Y7525000D01*
G01X7737000Y7548000D02*
X7747500Y7554000D01*
X7753500Y7562000D01*
X7755000Y7571000D01*
X7753500Y7579000D01*
X7746000Y7587000D01*
X7737000Y7592000D01*
X7728000Y7593000D01*
X7717500Y7591000D01*
X7710000Y7584000D01*
X7707000Y7577000D01*
Y7568000D01*
G01Y7577000D02*
X7702500Y7583000D01*
X7695000Y7588000D01*
X7686000Y7590000D01*
X7677000Y7588000D01*
X7669500Y7583000D01*
X7665000Y7574000D01*
X7666500Y7565000D01*
X7672500Y7556000D01*
G01X7717500Y7621000D02*
X7707000Y7628000D01*
X7701000Y7634000D01*
X7698000Y7642000D01*
X7701000Y7649000D01*
X7707000Y7654000D01*
X7716000Y7658000D01*
X7726500Y7659000D01*
X7735500Y7658000D01*
X7744500Y7654000D01*
X7752000Y7648000D01*
X7755000Y7641000D01*
X7752000Y7633000D01*
X7743000Y7626000D01*
X7729500Y7622000D01*
X7714500Y7621000D01*
X7695000Y7623000D01*
X7684500Y7626000D01*
X7674000Y7631000D01*
X7666500Y7638000D01*
X7665000Y7645000D01*
X7668000Y7652000D01*
X7675500Y7657000D01*
G01X7455000Y8645000D02*
X7365000D01*
Y8670000D01*
X7369500Y8678000D01*
X7375500Y8683000D01*
X7387500Y8685000D01*
X7399500Y8683000D01*
X7407000Y8677000D01*
X7411500Y8670000D01*
Y8645000D01*
G01Y8670000D02*
X7455000Y8685000D01*
G01X7380000Y8716000D02*
X7371000Y8722000D01*
X7366500Y8729000D01*
X7365000Y8737000D01*
X7368000Y8747000D01*
X7375500Y8754000D01*
X7384500Y8756000D01*
X7393500Y8755000D01*
X7401000Y8751000D01*
X7416000Y8731000D01*
X7426500Y8722000D01*
X7441500Y8716000D01*
X7455000Y8714000D01*
Y8756000D01*
G01X7417500Y8786000D02*
X7407000Y8793000D01*
X7401000Y8799000D01*
X7398000Y8807000D01*
X7401000Y8814000D01*
X7407000Y8819000D01*
X7416000Y8823000D01*
X7426500Y8824000D01*
X7435500Y8823000D01*
X7444500Y8819000D01*
X7452000Y8813000D01*
X7455000Y8806000D01*
X7452000Y8798000D01*
X7443000Y8791000D01*
X7429500Y8787000D01*
X7414500Y8786000D01*
X7395000Y8788000D01*
X7384500Y8791000D01*
X7374000Y8796000D01*
X7366500Y8803000D01*
X7365000Y8810000D01*
X7368000Y8817000D01*
X7375500Y8822000D01*
G01X7575000Y8645000D02*
X7485000D01*
Y8670000D01*
X7489500Y8678000D01*
X7495500Y8683000D01*
X7507500Y8685000D01*
X7519500Y8683000D01*
X7527000Y8677000D01*
X7531500Y8670000D01*
Y8645000D01*
G01Y8670000D02*
X7575000Y8685000D01*
G01X7500000Y8716000D02*
X7491000Y8722000D01*
X7486500Y8729000D01*
X7485000Y8737000D01*
X7488000Y8747000D01*
X7495500Y8754000D01*
X7504500Y8756000D01*
X7513500Y8755000D01*
X7521000Y8751000D01*
X7536000Y8731000D01*
X7546500Y8722000D01*
X7561500Y8716000D01*
X7575000Y8714000D01*
Y8756000D01*
G01Y8805000D02*
X7573500Y8812000D01*
X7569000Y8820000D01*
X7561500Y8825000D01*
X7551000Y8827000D01*
X7540500Y8825000D01*
X7531500Y8819000D01*
X7527000Y8810000D01*
Y8800000D01*
X7524000Y8794000D01*
X7516500Y8789000D01*
X7506000Y8787000D01*
X7495500Y8790000D01*
X7488000Y8797000D01*
X7485000Y8805000D01*
X7488000Y8813000D01*
X7495500Y8820000D01*
X7506000Y8823000D01*
X7516500Y8821000D01*
X7524000Y8816000D01*
X7527000Y8810000D01*
Y8800000D01*
X7531500Y8791000D01*
X7540500Y8785000D01*
X7551000Y8783000D01*
X7561500Y8785000D01*
X7569000Y8790000D01*
X7573500Y8798000D01*
X7575000Y8805000D01*
G01X8130000Y50000D02*
X8040000D01*
Y75000D01*
X8044500Y83000D01*
X8050500Y88000D01*
X8062500Y90000D01*
X8074500Y88000D01*
X8082000Y82000D01*
X8086500Y75000D01*
Y50000D01*
G01Y75000D02*
X8130000Y90000D01*
G01Y140000D02*
X8040000D01*
X8058000Y128000D01*
G01X8130000D02*
Y152000D01*
G01X8119500Y193000D02*
X8127000Y200000D01*
X8130000Y208000D01*
X8127000Y216000D01*
X8118000Y223000D01*
X8104500Y228000D01*
X8091000Y230000D01*
X8074500D01*
X8061000Y228000D01*
X8049000Y223000D01*
X8043000Y217000D01*
X8040000Y210000D01*
X8043000Y202000D01*
X8049000Y196000D01*
X8058000Y192000D01*
X8070000Y190000D01*
X8080500Y192000D01*
X8091000Y197000D01*
X8097000Y203000D01*
X8098500Y210000D01*
X8095500Y218000D01*
X8088000Y224000D01*
X8074500Y230000D01*
G01X7922500Y92000D02*
X7918000Y86000D01*
X7915000Y79000D01*
Y71000D01*
X7919500Y62000D01*
X7927000Y55000D01*
X7936000Y50000D01*
X7951000Y46000D01*
X7964500Y45000D01*
X7978000Y47000D01*
X7987000Y50000D01*
X7996000Y56000D01*
X8002000Y63000D01*
X8005000Y70000D01*
Y77000D01*
X8002000Y84000D01*
X7997500Y90000D01*
X7991500Y95000D01*
G01X8005000Y140000D02*
X7915000D01*
X7933000Y128000D01*
G01X8005000D02*
Y152000D01*
G01X7915000Y210000D02*
X7918000Y202000D01*
X7925500Y196000D01*
X7934500Y192000D01*
X7946500Y189000D01*
X7960000Y188000D01*
X7973500Y189000D01*
X7985500Y192000D01*
X7994500Y196000D01*
X8002000Y202000D01*
X8005000Y210000D01*
X8002000Y218000D01*
X7994500Y224000D01*
X7985500Y228000D01*
X7973500Y231000D01*
X7960000Y232000D01*
X7946500Y231000D01*
X7934500Y228000D01*
X7925500Y224000D01*
X7918000Y218000D01*
X7915000Y210000D01*
G01X7787500Y87000D02*
X7783000Y81000D01*
X7780000Y74000D01*
Y66000D01*
X7784500Y57000D01*
X7792000Y50000D01*
X7801000Y45000D01*
X7816000Y41000D01*
X7829500Y40000D01*
X7843000Y42000D01*
X7852000Y45000D01*
X7861000Y51000D01*
X7867000Y58000D01*
X7870000Y65000D01*
Y72000D01*
X7867000Y79000D01*
X7862500Y85000D01*
X7856500Y90000D01*
G01X7859500Y118000D02*
X7867000Y125000D01*
X7870000Y133000D01*
X7867000Y141000D01*
X7858000Y148000D01*
X7844500Y153000D01*
X7831000Y155000D01*
X7814500D01*
X7801000Y153000D01*
X7789000Y148000D01*
X7783000Y142000D01*
X7780000Y135000D01*
X7783000Y127000D01*
X7789000Y121000D01*
X7798000Y117000D01*
X7810000Y115000D01*
X7820500Y117000D01*
X7831000Y122000D01*
X7837000Y128000D01*
X7838500Y135000D01*
X7835500Y143000D01*
X7828000Y149000D01*
X7814500Y155000D01*
G01X7870000Y2480000D02*
X7780000D01*
Y2505000D01*
X7784500Y2513000D01*
X7790500Y2518000D01*
X7802500Y2520000D01*
X7814500Y2518000D01*
X7822000Y2512000D01*
X7826500Y2505000D01*
Y2480000D01*
G01Y2505000D02*
X7870000Y2520000D01*
G01X7795000Y2551000D02*
X7786000Y2557000D01*
X7781500Y2564000D01*
X7780000Y2572000D01*
X7783000Y2582000D01*
X7790500Y2589000D01*
X7799500Y2591000D01*
X7808500Y2590000D01*
X7816000Y2586000D01*
X7831000Y2566000D01*
X7841500Y2557000D01*
X7856500Y2551000D01*
X7870000Y2549000D01*
Y2591000D01*
G01X7780000Y2640000D02*
X7783000Y2632000D01*
X7790500Y2626000D01*
X7799500Y2622000D01*
X7811500Y2619000D01*
X7825000Y2618000D01*
X7838500Y2619000D01*
X7850500Y2622000D01*
X7859500Y2626000D01*
X7867000Y2632000D01*
X7870000Y2640000D01*
X7867000Y2648000D01*
X7859500Y2654000D01*
X7850500Y2658000D01*
X7838500Y2661000D01*
X7825000Y2662000D01*
X7811500Y2661000D01*
X7799500Y2658000D01*
X7790500Y2654000D01*
X7783000Y2648000D01*
X7780000Y2640000D01*
G01X7870000Y4980000D02*
X7780000D01*
Y5005000D01*
X7784500Y5013000D01*
X7790500Y5018000D01*
X7802500Y5020000D01*
X7814500Y5018000D01*
X7822000Y5012000D01*
X7826500Y5005000D01*
Y4980000D01*
G01Y5005000D02*
X7870000Y5020000D01*
G01X7852000Y5048000D02*
X7862500Y5054000D01*
X7868500Y5062000D01*
X7870000Y5071000D01*
X7868500Y5079000D01*
X7861000Y5087000D01*
X7852000Y5092000D01*
X7843000Y5093000D01*
X7832500Y5091000D01*
X7825000Y5084000D01*
X7822000Y5077000D01*
Y5068000D01*
G01Y5077000D02*
X7817500Y5083000D01*
X7810000Y5088000D01*
X7801000Y5090000D01*
X7792000Y5088000D01*
X7784500Y5083000D01*
X7780000Y5074000D01*
X7781500Y5065000D01*
X7787500Y5056000D01*
G01X7870000Y5152000D02*
X7780000D01*
X7844500Y5115000D01*
Y5165000D01*
G01X7870000Y7480000D02*
X7780000D01*
Y7505000D01*
X7784500Y7513000D01*
X7790500Y7518000D01*
X7802500Y7520000D01*
X7814500Y7518000D01*
X7822000Y7512000D01*
X7826500Y7505000D01*
Y7480000D01*
G01Y7505000D02*
X7870000Y7520000D01*
G01X7852000Y7548000D02*
X7862500Y7554000D01*
X7868500Y7562000D01*
X7870000Y7571000D01*
X7868500Y7579000D01*
X7861000Y7587000D01*
X7852000Y7592000D01*
X7843000Y7593000D01*
X7832500Y7591000D01*
X7825000Y7584000D01*
X7822000Y7577000D01*
Y7568000D01*
G01Y7577000D02*
X7817500Y7583000D01*
X7810000Y7588000D01*
X7801000Y7590000D01*
X7792000Y7588000D01*
X7784500Y7583000D01*
X7780000Y7574000D01*
X7781500Y7565000D01*
X7787500Y7556000D01*
G01X7856500Y7618000D02*
X7864000Y7624000D01*
X7868500Y7631000D01*
X7870000Y7640000D01*
X7867000Y7649000D01*
X7861000Y7656000D01*
X7850500Y7661000D01*
X7838500Y7662000D01*
X7826500Y7660000D01*
X7819000Y7655000D01*
X7813000Y7648000D01*
X7811500Y7641000D01*
X7813000Y7634000D01*
X7819000Y7625000D01*
X7780000Y7628000D01*
Y7655000D01*
G01X8205000Y210000D02*
Y300000D01*
X8230000D01*
X8238000Y295500D01*
X8243000Y289500D01*
X8245000Y277500D01*
X8243000Y265500D01*
X8237000Y258000D01*
X8230000Y253500D01*
X8205000D01*
G01X8230000D02*
X8245000Y210000D01*
G01X8273000Y223500D02*
X8279000Y216000D01*
X8286000Y211500D01*
X8295000Y210000D01*
X8304000Y213000D01*
X8311000Y219000D01*
X8316000Y229500D01*
X8317000Y241500D01*
X8315000Y253500D01*
X8310000Y261000D01*
X8303000Y267000D01*
X8296000Y268500D01*
X8289000Y267000D01*
X8280000Y261000D01*
X8283000Y300000D01*
X8310000D01*
G01X8203900Y450000D02*
Y540000D01*
X8228900D01*
X8236900Y535500D01*
X8241900Y529500D01*
X8243900Y517500D01*
X8241900Y505500D01*
X8235900Y498000D01*
X8228900Y493500D01*
X8203900D01*
G01X8228900D02*
X8243900Y450000D01*
G01X8291900D02*
X8293900Y469500D01*
X8296900Y486000D01*
X8300900Y501000D01*
X8305900Y517500D01*
X8313900Y540000D01*
X8273900D01*
G01X8247000Y412500D02*
X8241000Y417000D01*
X8234000Y420000D01*
X8226000D01*
X8217000Y415500D01*
X8210000Y408000D01*
X8205000Y399000D01*
X8201000Y384000D01*
X8200000Y370500D01*
X8202000Y357000D01*
X8205000Y348000D01*
X8211000Y339000D01*
X8218000Y333000D01*
X8225000Y330000D01*
X8232000D01*
X8239000Y333000D01*
X8245000Y337500D01*
X8250000Y343500D01*
G01X8295000Y330000D02*
Y420000D01*
X8283000Y402000D01*
G01Y330000D02*
X8307000D01*
G01X8145000Y2710000D02*
Y2800000D01*
X8170000D01*
X8178000Y2795500D01*
X8183000Y2789500D01*
X8185000Y2777500D01*
X8183000Y2765500D01*
X8177000Y2758000D01*
X8170000Y2753500D01*
X8145000D01*
G01X8170000D02*
X8185000Y2710000D01*
G01X8216000Y2747500D02*
X8223000Y2758000D01*
X8229000Y2764000D01*
X8237000Y2767000D01*
X8244000Y2764000D01*
X8249000Y2758000D01*
X8253000Y2749000D01*
X8254000Y2738500D01*
X8253000Y2729500D01*
X8249000Y2720500D01*
X8243000Y2713000D01*
X8236000Y2710000D01*
X8228000Y2713000D01*
X8221000Y2722000D01*
X8217000Y2735500D01*
X8216000Y2750500D01*
X8218000Y2770000D01*
X8221000Y2780500D01*
X8226000Y2791000D01*
X8233000Y2798500D01*
X8240000Y2800000D01*
X8247000Y2797000D01*
X8252000Y2789500D01*
G01X8143900Y2950000D02*
Y3040000D01*
X8168900D01*
X8176900Y3035500D01*
X8181900Y3029500D01*
X8183900Y3017500D01*
X8181900Y3005500D01*
X8175900Y2998000D01*
X8168900Y2993500D01*
X8143900D01*
G01X8168900D02*
X8183900Y2950000D01*
G01X8233900D02*
X8240900Y2951500D01*
X8248900Y2956000D01*
X8253900Y2963500D01*
X8255900Y2974000D01*
X8253900Y2984500D01*
X8247900Y2993500D01*
X8238900Y2998000D01*
X8228900D01*
X8222900Y3001000D01*
X8217900Y3008500D01*
X8215900Y3019000D01*
X8218900Y3029500D01*
X8225900Y3037000D01*
X8233900Y3040000D01*
X8241900Y3037000D01*
X8248900Y3029500D01*
X8251900Y3019000D01*
X8249900Y3008500D01*
X8244900Y3001000D01*
X8238900Y2998000D01*
X8228900D01*
X8219900Y2993500D01*
X8213900Y2984500D01*
X8211900Y2974000D01*
X8213900Y2963500D01*
X8218900Y2956000D01*
X8226900Y2951500D01*
X8233900Y2950000D01*
G01X8177000Y2912500D02*
X8171000Y2917000D01*
X8164000Y2920000D01*
X8156000D01*
X8147000Y2915500D01*
X8140000Y2908000D01*
X8135000Y2899000D01*
X8131000Y2884000D01*
X8130000Y2870500D01*
X8132000Y2857000D01*
X8135000Y2848000D01*
X8141000Y2839000D01*
X8148000Y2833000D01*
X8155000Y2830000D01*
X8162000D01*
X8169000Y2833000D01*
X8175000Y2837500D01*
X8180000Y2843500D01*
G01X8206000Y2905000D02*
X8212000Y2914000D01*
X8219000Y2918500D01*
X8227000Y2920000D01*
X8237000Y2917000D01*
X8244000Y2909500D01*
X8246000Y2900500D01*
X8245000Y2891500D01*
X8241000Y2884000D01*
X8221000Y2869000D01*
X8212000Y2858500D01*
X8206000Y2843500D01*
X8204000Y2830000D01*
X8246000D01*
G01X8150000Y5190000D02*
Y5280000D01*
X8175000D01*
X8183000Y5275500D01*
X8188000Y5269500D01*
X8190000Y5257500D01*
X8188000Y5245500D01*
X8182000Y5238000D01*
X8175000Y5233500D01*
X8150000D01*
G01X8175000D02*
X8190000Y5190000D01*
G01X8221000Y5265000D02*
X8227000Y5274000D01*
X8234000Y5278500D01*
X8242000Y5280000D01*
X8252000Y5277000D01*
X8259000Y5269500D01*
X8261000Y5260500D01*
X8260000Y5251500D01*
X8256000Y5244000D01*
X8236000Y5229000D01*
X8227000Y5218500D01*
X8221000Y5203500D01*
X8219000Y5190000D01*
X8261000D01*
G01X8310000D02*
Y5280000D01*
X8298000Y5262000D01*
G01Y5190000D02*
X8322000D01*
G01X8182000Y5392500D02*
X8176000Y5397000D01*
X8169000Y5400000D01*
X8161000D01*
X8152000Y5395500D01*
X8145000Y5388000D01*
X8140000Y5379000D01*
X8136000Y5364000D01*
X8135000Y5350500D01*
X8137000Y5337000D01*
X8140000Y5328000D01*
X8146000Y5319000D01*
X8153000Y5313000D01*
X8160000Y5310000D01*
X8167000D01*
X8174000Y5313000D01*
X8180000Y5317500D01*
X8185000Y5323500D01*
G01X8211000Y5385000D02*
X8217000Y5394000D01*
X8224000Y5398500D01*
X8232000Y5400000D01*
X8242000Y5397000D01*
X8249000Y5389500D01*
X8251000Y5380500D01*
X8250000Y5371500D01*
X8246000Y5364000D01*
X8226000Y5349000D01*
X8217000Y5338500D01*
X8211000Y5323500D01*
X8209000Y5310000D01*
X8251000D01*
G01X8278000Y5328000D02*
X8284000Y5317500D01*
X8292000Y5311500D01*
X8301000Y5310000D01*
X8309000Y5311500D01*
X8317000Y5319000D01*
X8322000Y5328000D01*
X8323000Y5337000D01*
X8321000Y5347500D01*
X8314000Y5355000D01*
X8307000Y5358000D01*
X8298000D01*
G01X8307000D02*
X8313000Y5362500D01*
X8318000Y5370000D01*
X8320000Y5379000D01*
X8318000Y5388000D01*
X8313000Y5395500D01*
X8304000Y5400000D01*
X8295000Y5398500D01*
X8286000Y5392500D01*
G01X8138900Y5440000D02*
Y5530000D01*
X8163900D01*
X8171900Y5525500D01*
X8176900Y5519500D01*
X8178900Y5507500D01*
X8176900Y5495500D01*
X8170900Y5488000D01*
X8163900Y5483500D01*
X8138900D01*
G01X8163900D02*
X8178900Y5440000D01*
G01X8209900Y5515000D02*
X8215900Y5524000D01*
X8222900Y5528500D01*
X8230900Y5530000D01*
X8240900Y5527000D01*
X8247900Y5519500D01*
X8249900Y5510500D01*
X8248900Y5501500D01*
X8244900Y5494000D01*
X8224900Y5479000D01*
X8215900Y5468500D01*
X8209900Y5453500D01*
X8207900Y5440000D01*
X8249900D01*
G01X8276900Y5458000D02*
X8282900Y5447500D01*
X8290900Y5441500D01*
X8299900Y5440000D01*
X8307900Y5441500D01*
X8315900Y5449000D01*
X8320900Y5458000D01*
X8321900Y5467000D01*
X8319900Y5477500D01*
X8312900Y5485000D01*
X8305900Y5488000D01*
X8296900D01*
G01X8305900D02*
X8311900Y5492500D01*
X8316900Y5500000D01*
X8318900Y5509000D01*
X8316900Y5518000D01*
X8311900Y5525500D01*
X8302900Y5530000D01*
X8293900Y5528500D01*
X8284900Y5522500D01*
G01X8140000Y7700000D02*
Y7790000D01*
X8165000D01*
X8173000Y7785500D01*
X8178000Y7779500D01*
X8180000Y7767500D01*
X8178000Y7755500D01*
X8172000Y7748000D01*
X8165000Y7743500D01*
X8140000D01*
G01X8165000D02*
X8180000Y7700000D01*
G01X8211000Y7775000D02*
X8217000Y7784000D01*
X8224000Y7788500D01*
X8232000Y7790000D01*
X8242000Y7787000D01*
X8249000Y7779500D01*
X8251000Y7770500D01*
X8250000Y7761500D01*
X8246000Y7754000D01*
X8226000Y7739000D01*
X8217000Y7728500D01*
X8211000Y7713500D01*
X8209000Y7700000D01*
X8251000D01*
G01X8281000Y7775000D02*
X8287000Y7784000D01*
X8294000Y7788500D01*
X8302000Y7790000D01*
X8312000Y7787000D01*
X8319000Y7779500D01*
X8321000Y7770500D01*
X8320000Y7761500D01*
X8316000Y7754000D01*
X8296000Y7739000D01*
X8287000Y7728500D01*
X8281000Y7713500D01*
X8279000Y7700000D01*
X8321000D01*
G01X8138900Y7940000D02*
Y8030000D01*
X8163900D01*
X8171900Y8025500D01*
X8176900Y8019500D01*
X8178900Y8007500D01*
X8176900Y7995500D01*
X8170900Y7988000D01*
X8163900Y7983500D01*
X8138900D01*
G01X8163900D02*
X8178900Y7940000D01*
G01X8209900Y8015000D02*
X8215900Y8024000D01*
X8222900Y8028500D01*
X8230900Y8030000D01*
X8240900Y8027000D01*
X8247900Y8019500D01*
X8249900Y8010500D01*
X8248900Y8001500D01*
X8244900Y7994000D01*
X8224900Y7979000D01*
X8215900Y7968500D01*
X8209900Y7953500D01*
X8207900Y7940000D01*
X8249900D01*
G01X8310900D02*
Y8030000D01*
X8273900Y7965500D01*
X8323900D01*
G01X8182000Y7902500D02*
X8176000Y7907000D01*
X8169000Y7910000D01*
X8161000D01*
X8152000Y7905500D01*
X8145000Y7898000D01*
X8140000Y7889000D01*
X8136000Y7874000D01*
X8135000Y7860500D01*
X8137000Y7847000D01*
X8140000Y7838000D01*
X8146000Y7829000D01*
X8153000Y7823000D01*
X8160000Y7820000D01*
X8167000D01*
X8174000Y7823000D01*
X8180000Y7827500D01*
X8185000Y7833500D01*
G01X8211000Y7895000D02*
X8217000Y7904000D01*
X8224000Y7908500D01*
X8232000Y7910000D01*
X8242000Y7907000D01*
X8249000Y7899500D01*
X8251000Y7890500D01*
X8250000Y7881500D01*
X8246000Y7874000D01*
X8226000Y7859000D01*
X8217000Y7848500D01*
X8211000Y7833500D01*
X8209000Y7820000D01*
X8251000D01*
G01X8312000D02*
Y7910000D01*
X8275000Y7845500D01*
X8325000D01*
G01X8473000Y581900D02*
Y671900D01*
X8493000D01*
X8501000Y667400D01*
X8507000Y661400D01*
X8512000Y652400D01*
X8516000Y641900D01*
X8517000Y626900D01*
X8516000Y611900D01*
X8512000Y601400D01*
X8507000Y592400D01*
X8501000Y586400D01*
X8493000Y581900D01*
X8473000D01*
G01X8565000D02*
Y671900D01*
X8553000Y653900D01*
G01Y581900D02*
X8577000D01*
G01X8473000Y870000D02*
Y960000D01*
X8493000D01*
X8501000Y955500D01*
X8507000Y949500D01*
X8512000Y940500D01*
X8516000Y930000D01*
X8517000Y915000D01*
X8516000Y900000D01*
X8512000Y889500D01*
X8507000Y880500D01*
X8501000Y874500D01*
X8493000Y870000D01*
X8473000D01*
G01X8543000Y888000D02*
X8549000Y877500D01*
X8557000Y871500D01*
X8566000Y870000D01*
X8574000Y871500D01*
X8582000Y879000D01*
X8587000Y888000D01*
X8588000Y897000D01*
X8586000Y907500D01*
X8579000Y915000D01*
X8572000Y918000D01*
X8563000D01*
G01X8572000D02*
X8578000Y922500D01*
X8583000Y930000D01*
X8585000Y939000D01*
X8583000Y948000D01*
X8578000Y955500D01*
X8569000Y960000D01*
X8560000Y958500D01*
X8551000Y952500D01*
G01X8473000Y3081900D02*
Y3171900D01*
X8493000D01*
X8501000Y3167400D01*
X8507000Y3161400D01*
X8512000Y3152400D01*
X8516000Y3141900D01*
X8517000Y3126900D01*
X8516000Y3111900D01*
X8512000Y3101400D01*
X8507000Y3092400D01*
X8501000Y3086400D01*
X8493000Y3081900D01*
X8473000D01*
G01X8546000Y3156900D02*
X8552000Y3165900D01*
X8559000Y3170400D01*
X8567000Y3171900D01*
X8577000Y3168900D01*
X8584000Y3161400D01*
X8586000Y3152400D01*
X8585000Y3143400D01*
X8581000Y3135900D01*
X8561000Y3120900D01*
X8552000Y3110400D01*
X8546000Y3095400D01*
X8544000Y3081900D01*
X8586000D01*
G01X8473000Y3370000D02*
Y3460000D01*
X8493000D01*
X8501000Y3455500D01*
X8507000Y3449500D01*
X8512000Y3440500D01*
X8516000Y3430000D01*
X8517000Y3415000D01*
X8516000Y3400000D01*
X8512000Y3389500D01*
X8507000Y3380500D01*
X8501000Y3374500D01*
X8493000Y3370000D01*
X8473000D01*
G01X8577000D02*
Y3460000D01*
X8540000Y3395500D01*
X8590000D01*
G01X8473000Y5571900D02*
Y5661900D01*
X8493000D01*
X8501000Y5657400D01*
X8507000Y5651400D01*
X8512000Y5642400D01*
X8516000Y5631900D01*
X8517000Y5616900D01*
X8516000Y5601900D01*
X8512000Y5591400D01*
X8507000Y5582400D01*
X8501000Y5576400D01*
X8493000Y5571900D01*
X8473000D01*
G01X8543000Y5585400D02*
X8549000Y5577900D01*
X8556000Y5573400D01*
X8565000Y5571900D01*
X8574000Y5574900D01*
X8581000Y5580900D01*
X8586000Y5591400D01*
X8587000Y5603400D01*
X8585000Y5615400D01*
X8580000Y5622900D01*
X8573000Y5628900D01*
X8566000Y5630400D01*
X8559000Y5628900D01*
X8550000Y5622900D01*
X8553000Y5661900D01*
X8580000D01*
G01X8473000Y5860000D02*
Y5950000D01*
X8493000D01*
X8501000Y5945500D01*
X8507000Y5939500D01*
X8512000Y5930500D01*
X8516000Y5920000D01*
X8517000Y5905000D01*
X8516000Y5890000D01*
X8512000Y5879500D01*
X8507000Y5870500D01*
X8501000Y5864500D01*
X8493000Y5860000D01*
X8473000D01*
G01X8563000D02*
X8565000Y5879500D01*
X8568000Y5896000D01*
X8572000Y5911000D01*
X8577000Y5927500D01*
X8585000Y5950000D01*
X8545000D01*
G01X8473000Y8081900D02*
Y8171900D01*
X8493000D01*
X8501000Y8167400D01*
X8507000Y8161400D01*
X8512000Y8152400D01*
X8516000Y8141900D01*
X8517000Y8126900D01*
X8516000Y8111900D01*
X8512000Y8101400D01*
X8507000Y8092400D01*
X8501000Y8086400D01*
X8493000Y8081900D01*
X8473000D01*
G01X8546000Y8119400D02*
X8553000Y8129900D01*
X8559000Y8135900D01*
X8567000Y8138900D01*
X8574000Y8135900D01*
X8579000Y8129900D01*
X8583000Y8120900D01*
X8584000Y8110400D01*
X8583000Y8101400D01*
X8579000Y8092400D01*
X8573000Y8084900D01*
X8566000Y8081900D01*
X8558000Y8084900D01*
X8551000Y8093900D01*
X8547000Y8107400D01*
X8546000Y8122400D01*
X8548000Y8141900D01*
X8551000Y8152400D01*
X8556000Y8162900D01*
X8563000Y8170400D01*
X8570000Y8171900D01*
X8577000Y8168900D01*
X8582000Y8161400D01*
G01X8473000Y8370000D02*
Y8460000D01*
X8493000D01*
X8501000Y8455500D01*
X8507000Y8449500D01*
X8512000Y8440500D01*
X8516000Y8430000D01*
X8517000Y8415000D01*
X8516000Y8400000D01*
X8512000Y8389500D01*
X8507000Y8380500D01*
X8501000Y8374500D01*
X8493000Y8370000D01*
X8473000D01*
G01X8565000D02*
X8572000Y8371500D01*
X8580000Y8376000D01*
X8585000Y8383500D01*
X8587000Y8394000D01*
X8585000Y8404500D01*
X8579000Y8413500D01*
X8570000Y8418000D01*
X8560000D01*
X8554000Y8421000D01*
X8549000Y8428500D01*
X8547000Y8439000D01*
X8550000Y8449500D01*
X8557000Y8457000D01*
X8565000Y8460000D01*
X8573000Y8457000D01*
X8580000Y8449500D01*
X8583000Y8439000D01*
X8581000Y8428500D01*
X8576000Y8421000D01*
X8570000Y8418000D01*
X8560000D01*
X8551000Y8413500D01*
X8545000Y8404500D01*
X8543000Y8394000D01*
X8545000Y8383500D01*
X8550000Y8376000D01*
X8558000Y8371500D01*
X8565000Y8370000D01*
G01X9428000Y375000D02*
X9454670D01*
Y342000D01*
X9446670Y331000D01*
X9437330Y323670D01*
X9424000Y320000D01*
X9410670Y323670D01*
X9401330Y331000D01*
X9393330Y342000D01*
X9388000Y354830D01*
X9385330Y369500D01*
Y382330D01*
X9388000Y393330D01*
X9393330Y406170D01*
X9401330Y417170D01*
X9409330Y424500D01*
X9420000Y430000D01*
X9429330D01*
X9440000Y426330D01*
X9448000Y419000D01*
G01X9386670Y680000D02*
X9420000Y570000D01*
X9453330Y680000D01*
G01X9393330Y830000D02*
Y940000D01*
X9426670D01*
X9437330Y934500D01*
X9444000Y927170D01*
X9446670Y912500D01*
X9444000Y897830D01*
X9436000Y888670D01*
X9426670Y883170D01*
X9393330D01*
G01X9426670D02*
X9446670Y830000D01*
G01X9420000Y1190000D02*
Y1080000D01*
G01X9389330Y1190000D02*
X9450670D01*
G01X9560000Y1320000D02*
X9565000Y1311000D01*
X9571000Y1305000D01*
X9578000Y1302000D01*
X9586000Y1305000D01*
X9592000Y1311000D01*
X9598000Y1320000D01*
X9600000Y1332000D01*
Y1392000D01*
G01X9650000Y1302000D02*
Y1392000D01*
X9638000Y1374000D01*
G01Y1302000D02*
X9662000D01*
G01X9386670Y3170000D02*
X9420000Y3060000D01*
X9453330Y3170000D01*
G01X9428000Y2865000D02*
X9454670D01*
Y2832000D01*
X9446670Y2821000D01*
X9437330Y2813670D01*
X9424000Y2810000D01*
X9410670Y2813670D01*
X9401330Y2821000D01*
X9393330Y2832000D01*
X9388000Y2844830D01*
X9385330Y2859500D01*
Y2872330D01*
X9388000Y2883330D01*
X9393330Y2896170D01*
X9401330Y2907170D01*
X9409330Y2914500D01*
X9420000Y2920000D01*
X9429330D01*
X9440000Y2916330D01*
X9448000Y2909000D01*
G01X9393330Y3320000D02*
Y3430000D01*
X9426670D01*
X9437330Y3424500D01*
X9444000Y3417170D01*
X9446670Y3402500D01*
X9444000Y3387830D01*
X9436000Y3378670D01*
X9426670Y3373170D01*
X9393330D01*
G01X9426670D02*
X9446670Y3320000D01*
G01X9420000Y3680000D02*
Y3570000D01*
G01X9389330Y3680000D02*
X9450670D01*
G01X9560000Y3820000D02*
X9565000Y3811000D01*
X9571000Y3805000D01*
X9578000Y3802000D01*
X9586000Y3805000D01*
X9592000Y3811000D01*
X9598000Y3820000D01*
X9600000Y3832000D01*
Y3892000D01*
G01X9631000Y3877000D02*
X9637000Y3886000D01*
X9644000Y3890500D01*
X9652000Y3892000D01*
X9662000Y3889000D01*
X9669000Y3881500D01*
X9671000Y3872500D01*
X9670000Y3863500D01*
X9666000Y3856000D01*
X9646000Y3841000D01*
X9637000Y3830500D01*
X9631000Y3815500D01*
X9629000Y3802000D01*
X9671000D01*
G01X9438000Y5355000D02*
X9464670D01*
Y5322000D01*
X9456670Y5311000D01*
X9447330Y5303670D01*
X9434000Y5300000D01*
X9420670Y5303670D01*
X9411330Y5311000D01*
X9403330Y5322000D01*
X9398000Y5334830D01*
X9395330Y5349500D01*
Y5362330D01*
X9398000Y5373330D01*
X9403330Y5386170D01*
X9411330Y5397170D01*
X9419330Y5404500D01*
X9430000Y5410000D01*
X9439330D01*
X9450000Y5406330D01*
X9458000Y5399000D01*
G01X9396670Y5660000D02*
X9430000Y5550000D01*
X9463330Y5660000D01*
G01X9403330Y5810000D02*
Y5920000D01*
X9436670D01*
X9447330Y5914500D01*
X9454000Y5907170D01*
X9456670Y5892500D01*
X9454000Y5877830D01*
X9446000Y5868670D01*
X9436670Y5863170D01*
X9403330D01*
G01X9436670D02*
X9456670Y5810000D01*
G01X9430000Y6170000D02*
Y6060000D01*
G01X9399330Y6170000D02*
X9460670D01*
G01X9560000Y6310000D02*
X9565000Y6301000D01*
X9571000Y6295000D01*
X9578000Y6292000D01*
X9586000Y6295000D01*
X9592000Y6301000D01*
X9598000Y6310000D01*
X9600000Y6322000D01*
Y6382000D01*
G01X9628000Y6310000D02*
X9634000Y6299500D01*
X9642000Y6293500D01*
X9651000Y6292000D01*
X9659000Y6293500D01*
X9667000Y6301000D01*
X9672000Y6310000D01*
X9673000Y6319000D01*
X9671000Y6329500D01*
X9664000Y6337000D01*
X9657000Y6340000D01*
X9648000D01*
G01X9657000D02*
X9663000Y6344500D01*
X9668000Y6352000D01*
X9670000Y6361000D01*
X9668000Y6370000D01*
X9663000Y6377500D01*
X9654000Y6382000D01*
X9645000Y6380500D01*
X9636000Y6374500D01*
G01X9406670Y8180000D02*
X9440000Y8070000D01*
X9473330Y8180000D01*
G01X9448000Y7875000D02*
X9474670D01*
Y7842000D01*
X9466670Y7831000D01*
X9457330Y7823670D01*
X9444000Y7820000D01*
X9430670Y7823670D01*
X9421330Y7831000D01*
X9413330Y7842000D01*
X9408000Y7854830D01*
X9405330Y7869500D01*
Y7882330D01*
X9408000Y7893330D01*
X9413330Y7906170D01*
X9421330Y7917170D01*
X9429330Y7924500D01*
X9440000Y7930000D01*
X9449330D01*
X9460000Y7926330D01*
X9468000Y7919000D01*
G01X9413330Y8330000D02*
Y8440000D01*
X9446670D01*
X9457330Y8434500D01*
X9464000Y8427170D01*
X9466670Y8412500D01*
X9464000Y8397830D01*
X9456000Y8388670D01*
X9446670Y8383170D01*
X9413330D01*
G01X9446670D02*
X9466670Y8330000D01*
G01X9440000Y8690000D02*
Y8580000D01*
G01X9409330Y8690000D02*
X9470670D01*
G01X9565000Y8818000D02*
X9570000Y8809000D01*
X9576000Y8803000D01*
X9583000Y8800000D01*
X9591000Y8803000D01*
X9597000Y8809000D01*
X9603000Y8818000D01*
X9605000Y8830000D01*
Y8890000D01*
G01X9667000Y8800000D02*
Y8890000D01*
X9630000Y8825500D01*
X9680000D01*
G54D12*
G01X8759520Y690400D02*
X8823020Y626900D01*
X8759520Y563400D01*
Y690400D01*
X8777300Y672620D01*
Y588800D01*
X8790000Y601500D01*
Y652300D01*
X8802700Y639600D01*
Y614200D01*
G01X8759520Y978500D02*
X8823020Y915000D01*
X8759520Y851500D01*
Y978500D01*
X8777300Y960720D01*
Y876900D01*
X8790000Y889600D01*
Y940400D01*
X8802700Y927700D01*
Y902300D01*
G01X8759520Y3190400D02*
X8823020Y3126900D01*
X8759520Y3063400D01*
Y3190400D01*
X8777300Y3172620D01*
Y3088800D01*
X8790000Y3101500D01*
Y3152300D01*
X8802700Y3139600D01*
Y3114200D01*
G01X8759520Y3478500D02*
X8823020Y3415000D01*
X8759520Y3351500D01*
Y3478500D01*
X8777300Y3460720D01*
Y3376900D01*
X8790000Y3389600D01*
Y3440400D01*
X8802700Y3427700D01*
Y3402300D01*
G01X8759520Y5680400D02*
X8823020Y5616900D01*
X8759520Y5553400D01*
Y5680400D01*
X8777300Y5662620D01*
Y5578800D01*
X8790000Y5591500D01*
Y5642300D01*
X8802700Y5629600D01*
Y5604200D01*
G01X8759520Y5968500D02*
X8823020Y5905000D01*
X8759520Y5841500D01*
Y5968500D01*
X8777300Y5950720D01*
Y5866900D01*
X8790000Y5879600D01*
Y5930400D01*
X8802700Y5917700D01*
Y5892300D01*
G01X8759520Y8190400D02*
X8823020Y8126900D01*
X8759520Y8063400D01*
Y8190400D01*
X8777300Y8172620D01*
Y8088800D01*
X8790000Y8101500D01*
Y8152300D01*
X8802700Y8139600D01*
Y8114200D01*
G01X8759520Y8478500D02*
X8823020Y8415000D01*
X8759520Y8351500D01*
Y8478500D01*
X8777300Y8460720D01*
Y8376900D01*
X8790000Y8389600D01*
Y8440400D01*
X8802700Y8427700D01*
Y8402300D01*
M02*
