G04 ================== begin FILE IDENTIFICATION RECORD ==================*
G04 Layout Name:  HY_TYPEC_DBUG_V10C.brd*
G04 Film Name:    BOTTOM*
G04 File Format:  Gerber RS274X*
G04 File Origin:  Cadence Allegro 17.2-S071*
G04 Origin Date:  Thu Sep 02 09:10:10 2021*
G04 *
G04 Layer:  ETCH/BOTTOM*
G04 Layer:  PIN/BOTTOM*
G04 Layer:  VIA CLASS/BOTTOM*
G04 *
G04 Offset:    (0.0000 0.0000)*
G04 Mirror:    No*
G04 Mode:      Positive*
G04 Rotation:  0*
G04 FullContactRelief:  No*
G04 UndefLineWidth:     0.1524*
G04 ================== end FILE IDENTIFICATION RECORD ====================*
%FSLAX55Y55*MOMM*%
%IR0*IPPOS*OFA0.00000B0.00000*MIA0B0*SFA1.00000B1.00000*%
%ADD14R,1.5X.3*%
%ADD13R,1.4X.7*%
%ADD10C,.508*%
%ADD12O,2.1X1.*%
%ADD11O,1.6X1.*%
%ADD15C,.2032*%
%ADD16C,.254*%
%ADD17C,1.0004*%
%ADD18C,1.4228*%
G75*
%LPD*%
G75*
G36*
G01X200000Y2080000D02*
X3300000D01*
G02X3480000Y1900000I0J-180000D01*
G01Y1540000D01*
X3260000D01*
Y1405890D01*
G02X3238240Y1385630I-20318J7D01*
G03X3235000Y1385740I-3171J-45632D01*
G01X3095900D01*
Y1640000D01*
G03X3079530Y1679530I-55913J0D01*
G01X2969530Y1789530D01*
G03X2930000Y1805900I-39530J-39543D01*
G01X2624000D01*
G03X2580000Y1821140I-44000J-55897D01*
G03X2508870Y1750930I0J-71136D01*
G01X2508740Y1740900D01*
X2319000D01*
G03X2275000Y1756140I-44000J-55897D01*
G03X2203860Y1685000I0J-71140D01*
G03X2224950Y1634440I71150J0D01*
G02Y1605560I-14292J-14440D01*
G03X2203860Y1555000I50060J-50560D01*
G03X2275000Y1483860I71140J0D01*
G03X2319000Y1499100I0J71137D01*
G01X2661850D01*
X2674100Y1486850D01*
Y1140000D01*
G03X2674240Y1136110I55898J64D01*
G01X2674260Y1135760D01*
Y638950D01*
X2651050Y615740D01*
X2311050D01*
X2191050Y495740D01*
X1351050D01*
X1304260Y448950D01*
Y335740D01*
X1228950D01*
X1098950Y465740D01*
X588950D01*
X525740Y528950D01*
Y750740D01*
G02X545030Y771030I20319J-3D01*
G03Y850970I-2032J39970D01*
G02X525740Y871260I1029J20293D01*
G01Y1328740D01*
G02X545030Y1349030I20319J-3D01*
G03Y1428970I-2032J39970D01*
G02X525740Y1449260I1029J20293D01*
G01Y1551050D01*
X528950Y1554260D01*
X651050D01*
X851050Y1354260D01*
X1215130D01*
G02X1235430Y1333060I-2J-20321D01*
G03X1235360Y1330000I71068J-3157D01*
G03X1306500Y1258860I71140J0D01*
G03X1338250Y1266340I-4J71139D01*
G03X1370000Y1258860I31754J63659D01*
G03X1441140Y1330000I0J71140D01*
G03X1427110Y1372420I-71144J0D01*
G01X1445740Y1391050D01*
Y1478950D01*
X1408950Y1515740D01*
X938950D01*
X851990Y1602690D01*
G02X851620Y1631050I14369J14370D01*
G03X871140Y1680000I-51616J48950D01*
G03X861930Y1715000I-71138J-8D01*
G03X871140Y1750000I-61928J35008D01*
G03X871080Y1752940I-71140J19D01*
G02X891380Y1774100I20302J841D01*
G01X1528750D01*
G02X1549020Y1755160I-1J-20318D01*
G03X1690980I70980J4845D01*
G02X1711250Y1774100I20271J-1378D01*
G01X1888220D01*
Y1726850D01*
G03X1904590Y1687320I55913J0D01*
G01X1934330Y1657590D01*
X1935090Y1655880D01*
G03X2000000Y1613860I64910J29125D01*
G03X2071140Y1685000I0J71140D01*
G03X2063280Y1717500I-71139J-4D01*
G03X2071140Y1750000I-63279J32504D01*
G03X2055900Y1794000I-71137J0D01*
G01Y1830000D01*
G03X2039530Y1869530I-55913J0D01*
G01X1999530Y1909530D01*
G03X1960000Y1925900I-39530J-39543D01*
G01X1811250D01*
G02X1790980Y1944840I1J20318D01*
G03X1649020I-70980J-4845D01*
G02X1628750Y1925900I-20271J1378D01*
G01X764440D01*
G03X724910Y1909530I0J-55913D01*
G01X713080Y1897700D01*
G02X695740Y1904880I-7181J7185D01*
G01Y1938950D01*
X658950Y1975740D01*
X301050D01*
X244260Y1918950D01*
Y321050D01*
X391050Y174260D01*
X689320D01*
X690220Y165100D01*
G03X789780I49780J4901D01*
G01X790680Y174260D01*
X1189320D01*
X1190220Y165100D01*
G03X1289780I49780J4901D01*
G01X1290680Y174260D01*
X2159320D01*
X2160220Y165100D01*
G03X2259780I49780J4901D01*
G01X2260680Y174260D01*
X2518950D01*
X2595740Y251050D01*
Y424260D01*
X2718950D01*
X2749570Y454890D01*
G02X2784260Y440520I14369J-14370D01*
G01Y301050D01*
X2821050Y264260D01*
X2958950D01*
X3025740Y331050D01*
Y695160D01*
G02X3044710Y715440I20321J4D01*
G03X3111140Y786420I-4706J70980D01*
G03X3110900Y792270I-71140J11D01*
G02X3131150Y814260I20251J1671D01*
G01X3235000D01*
G03X3238240Y814370I69J45742D01*
G02X3260000Y794110I1442J-20267D01*
G01Y660000D01*
X3480000D01*
Y200000D01*
G02X3300000Y20000I-180000J0D01*
G01X200000D01*
G02X20000Y200000I0J180000D01*
G01Y1900000D01*
G02X200000Y2080000I180000J0D01*
G37*
G36*
G01X320000Y1930000D02*
X640000D01*
X650000Y1920000D01*
Y1740000D01*
X732460Y1657540D01*
X733230Y1655440D01*
G03X775440Y1613230I66770J24560D01*
G01X777540Y1612460D01*
X920000Y1470000D01*
X961780D01*
G03X1000000Y1458860I38220J59994D01*
G03X1035940Y1468610I-6J71138D01*
G01X1038320Y1470000D01*
X1061680D01*
X1064060Y1468610D01*
G03X1100000Y1458860I35946J61388D01*
G03X1135940Y1468610I-6J71138D01*
G01X1138320Y1470000D01*
X1161680D01*
X1164060Y1468610D01*
G03X1200000Y1458860I35946J61388D01*
G03X1238220Y1470000I0J71134D01*
G01X1390000D01*
X1400000Y1460000D01*
Y1410000D01*
X1390000Y1400000D01*
X1382710D01*
X1381870Y1400140D01*
G03X1370000Y1401140I-11886J-70139D01*
G03X1358130Y1400140I16J-71139D01*
G01X1357290Y1400000D01*
X1319210D01*
X1318370Y1400140D01*
G03X1306500Y1401140I-11886J-70139D01*
G03X1294630Y1400140I16J-71139D01*
G01X1293790Y1400000D01*
X870000D01*
X746470Y1523530D01*
X746660Y1527990D01*
G03X746740Y1532000I-95662J3914D01*
G03X651000Y1627740I-95740J0D01*
G01X541000D01*
G03X445260Y1532000I0J-95740D01*
G03X480000Y1458210I95737J0D01*
G01Y741790D01*
G03Y594210I60997J-73790D01*
G01Y510000D01*
X570000Y420000D01*
X1080000D01*
X1210000Y290000D01*
X1335310D01*
X1351050Y274260D01*
X2228950D01*
X2244690Y290000D01*
X2250000D01*
X2380000Y420000D01*
X2540000D01*
X2550000Y410000D01*
Y270000D01*
X2500000Y220000D01*
X2211290D01*
G03X2210000Y220020I-1420J-49998D01*
G03X2208710Y220000I130J-50018D01*
G01X1241290D01*
G03X1240000Y220020I-1420J-49998D01*
G03X1238710Y220000I130J-50018D01*
G01X741290D01*
G03X740000Y220020I-1420J-49998D01*
G03X738710Y220000I130J-50018D01*
G01X410000D01*
X290000Y340000D01*
Y1900000D01*
X320000Y1930000D01*
G37*
G36*
G01X2868760Y1008760D02*
X2860590Y1000590D01*
X2857450Y1000020D01*
G03X2798860Y930000I12545J-70020D01*
G03X2820000Y879390I71151J0D01*
G01Y590000D01*
X2700000Y470000D01*
X2360000D01*
X2210000Y320000D01*
X1370000D01*
X1350000Y340000D01*
Y430000D01*
X1370000Y450000D01*
X2210000D01*
X2330000Y570000D01*
X2670000D01*
X2720000Y620000D01*
Y1007600D01*
G02X2749140Y1025900I20319J-5D01*
G03X2779990Y1018860I30856J64101D01*
G01X2780000D01*
G03X2851140Y1090000I0J71140D01*
G03X2794050Y1159740I-71141J0D01*
G01X2785900Y1161380D01*
Y1260000D01*
X2884100D01*
Y1054000D01*
G03X2868910Y1012740I55898J-44005D01*
G01X2868760Y1008760D01*
G37*
G36*
G01X2865740Y941050D02*
X2880030Y955350D01*
G02X2893810Y955890I7182J-7186D01*
G03X2931090Y939420I46184J54112D01*
G01X2939980Y938300D01*
Y854500D01*
G03X2898860Y790000I30027J-64500D01*
G03X2969860Y718860I71140J0D01*
G02X2980000Y708700I-20J-10160D01*
G01Y350000D01*
X2940000Y310000D01*
X2840000D01*
X2830000Y320000D01*
Y535310D01*
X2865740Y571050D01*
Y941050D01*
G37*
%LPC*%
G75*
G54D17*
X2710000Y170000D03*
G54D18*
X2560000Y1940000D03*
X3230000Y1890000D03*
%LPD*%
G75*
G54D10*
X90000Y400000D03*
Y850000D03*
Y1340000D03*
X80000Y1950000D03*
Y1690000D03*
X240000Y140000D03*
X410000Y1890000D03*
X480000D03*
X550000D03*
X620000D03*
X800000Y1750000D03*
Y1680000D03*
X750000Y2000000D03*
X890000Y120000D03*
X923100Y390000D03*
X986600D03*
X1050100D03*
X1000000Y850000D03*
X1180000D03*
X1040000Y1000000D03*
X1070000Y1150000D03*
X890000Y1310000D03*
X1000000Y1530000D03*
X1100000D03*
X1200000D03*
X1100000Y1630000D03*
X1000000Y1730000D03*
X1100000D03*
X1200000D03*
Y1630000D03*
X1000000D03*
X1400000Y420000D03*
Y350000D03*
X1510000Y960000D03*
Y1200000D03*
X1310000Y1440000D03*
X1373500D03*
X1306500Y1330000D03*
X1370000D03*
X1430000Y2000000D03*
X1720000Y120000D03*
X1900000Y880000D03*
X1750000Y1340000D03*
X1720000Y1940000D03*
X1620000Y1760000D03*
X2270000Y660000D03*
X2150000Y910000D03*
X2290000Y870000D03*
X2160000Y1590000D03*
X2080000Y1340000D03*
X2275000Y1555000D03*
X2310000Y1880000D03*
X2010000Y1940000D03*
X2275000Y1685000D03*
X2000000D03*
Y1750000D03*
X2510000Y120000D03*
X2520100Y390000D03*
X2456600D03*
X2393100D03*
X2560000Y1220000D03*
Y970000D03*
X2580000Y1620000D03*
Y1750000D03*
X2560000Y1940000D03*
X3130000Y130000D03*
X2860000Y420000D03*
Y340000D03*
X3130000Y570000D03*
X2970000Y790000D03*
X3040000Y786420D03*
X2870000Y930000D03*
X2932630D03*
X2940000Y1010000D03*
X2780000Y1090000D03*
X2800000Y1170000D03*
X2850000Y1220000D03*
X3390000Y130000D03*
Y280000D03*
Y420000D03*
Y570000D03*
Y1570000D03*
Y1860000D03*
Y1720000D03*
X3230000Y1890000D03*
X3390000Y2010000D03*
G54D11*
X178000Y668000D03*
Y1532000D03*
G54D12*
X596000Y668000D03*
Y1532000D03*
G54D13*
X3165000Y740000D03*
Y1460000D03*
G54D14*
X3160000Y825000D03*
Y1225000D03*
Y1175000D03*
Y1125000D03*
Y1075000D03*
Y1025000D03*
Y975000D03*
Y925000D03*
Y875000D03*
Y1375000D03*
Y1325000D03*
Y1275000D03*
G54D15*
G01X2000000Y1685000D02*
X1985970D01*
X1944120Y1726850D01*
Y1805880D01*
X1920000Y1830000D01*
X820320D01*
X800000Y1809680D01*
Y1750000D01*
G01X2000000D02*
Y1830000D01*
X1960000Y1870000D01*
X764440D01*
X744120Y1849680D01*
Y1725890D01*
X790010Y1680000D01*
X800000D01*
G01X2275000Y1555000D02*
X2685000D01*
X2730000Y1510000D01*
Y1140000D01*
X2780000Y1090000D01*
G01X2970000Y790000D02*
Y800000D01*
X2995880Y825880D01*
Y1594120D01*
X2905000Y1685000D01*
X2275000D01*
G01X2940000Y1010000D02*
Y1560000D01*
X2880000Y1620000D01*
X2580000D01*
G01X3040000Y786420D02*
Y1640000D01*
X2930000Y1750000D01*
X2580000D01*
G54D16*
G01X3165000Y740000D02*
X3160000Y745000D01*
G01D02*
Y825000D01*
G01X3165000Y1460000D02*
X3160000Y1455000D01*
G01D02*
Y1375000D01*
M02*
