G04 ================== begin FILE IDENTIFICATION RECORD ==================*
G04 Layout Name:  HY_TYPEC_DBUG_V10C.brd*
G04 Film Name:    Drill_Legend*
G04 File Format:  Gerber RS274X*
G04 File Origin:  Cadence Allegro 17.2-S071*
G04 Origin Date:  Thu Sep 02 09:10:10 2021*
G04 *
G04 Layer:  MANUFACTURING/NCLEGEND-1-2*
G04 Layer:  MANUFACTURING/NCLEGEND-1-4*
G04 Layer:  MANUFACTURING/NCDRILL_LEGEND*
G04 Layer:  MANUFACTURING/NCDRILL_FIGURE*
G04 Layer:  BOARD GEOMETRY/DIMENSION*
G04 *
G04 Offset:    (0.0000 0.0000)*
G04 Mirror:    No*
G04 Mode:      Positive*
G04 Rotation:  0*
G04 FullContactRelief:  No*
G04 UndefLineWidth:     0.1524*
G04 ================== end FILE IDENTIFICATION RECORD ====================*
%FSLAX55Y55*MOMM*%
%IR0*IPPOS*OFA0.00000B0.00000*MIA0B0*SFA1.00000B1.00000*%
%AMMACRO11*
1,1,.1524,-.3,.3*
20,1,.1524,-.3,.3,.3,.3,0.0*
1,1,.1524,.3,.3*
20,1,.1524,.3,.3,.352094,.295442,0.0*
1,1,.1524,.352094,.295442*
20,1,.1524,.352094,.295442,.402606,.281908,0.0*
1,1,.1524,.402606,.281908*
20,1,.1524,.402606,.281908,.45,.259808,0.0*
1,1,.1524,.45,.259808*
20,1,.1524,.45,.259808,.492836,.229813,0.0*
1,1,.1524,.492836,.229813*
20,1,.1524,.492836,.229813,.529813,.192836,0.0*
1,1,.1524,.529813,.192836*
20,1,.1524,.529813,.192836,.559808,.15,0.0*
1,1,.1524,.559808,.15*
20,1,.1524,.559808,.15,.581908,.102606,0.0*
1,1,.1524,.581908,.102606*
20,1,.1524,.581908,.102606,.595442,.052094,0.0*
1,1,.1524,.595442,.052094*
20,1,.1524,.595442,.052094,.6,0.0,0.0*
1,1,.1524,.6,0.0*
20,1,.1524,.6,0.0,.595442,-.052094,0.0*
1,1,.1524,.595442,-.052094*
20,1,.1524,.595442,-.052094,.581908,-.102606,0.0*
1,1,.1524,.581908,-.102606*
20,1,.1524,.581908,-.102606,.559808,-.15,0.0*
1,1,.1524,.559808,-.15*
20,1,.1524,.559808,-.15,.529813,-.192836,0.0*
1,1,.1524,.529813,-.192836*
20,1,.1524,.529813,-.192836,.492836,-.229813,0.0*
1,1,.1524,.492836,-.229813*
20,1,.1524,.492836,-.229813,.45,-.259808,0.0*
1,1,.1524,.45,-.259808*
20,1,.1524,.45,-.259808,.402606,-.281908,0.0*
1,1,.1524,.402606,-.281908*
20,1,.1524,.402606,-.281908,.352094,-.295442,0.0*
1,1,.1524,.352094,-.295442*
20,1,.1524,.352094,-.295442,.3,-.3,0.0*
1,1,.1524,.3,-.3*
20,1,.1524,.3,-.3,-.3,-.3,0.0*
1,1,.1524,-.3,-.3*
20,1,.1524,-.3,-.3,-.352094,-.295442,0.0*
1,1,.1524,-.352094,-.295442*
20,1,.1524,-.352094,-.295442,-.402606,-.281908,0.0*
1,1,.1524,-.402606,-.281908*
20,1,.1524,-.402606,-.281908,-.45,-.259808,0.0*
1,1,.1524,-.45,-.259808*
20,1,.1524,-.45,-.259808,-.492836,-.229813,0.0*
1,1,.1524,-.492836,-.229813*
20,1,.1524,-.492836,-.229813,-.529813,-.192836,0.0*
1,1,.1524,-.529813,-.192836*
20,1,.1524,-.529813,-.192836,-.559808,-.15,0.0*
1,1,.1524,-.559808,-.15*
20,1,.1524,-.559808,-.15,-.581908,-.102606,0.0*
1,1,.1524,-.581908,-.102606*
20,1,.1524,-.581908,-.102606,-.595442,-.052094,0.0*
1,1,.1524,-.595442,-.052094*
20,1,.1524,-.595442,-.052094,-.6,0.0,0.0*
1,1,.1524,-.6,0.0*
20,1,.1524,-.6,0.0,-.595442,.052094,0.0*
1,1,.1524,-.595442,.052094*
20,1,.1524,-.595442,.052094,-.581908,.102606,0.0*
1,1,.1524,-.581908,.102606*
20,1,.1524,-.581908,.102606,-.559808,.15,0.0*
1,1,.1524,-.559808,.15*
20,1,.1524,-.559808,.15,-.529813,.192836,0.0*
1,1,.1524,-.529813,.192836*
20,1,.1524,-.529813,.192836,-.492836,.229813,0.0*
1,1,.1524,-.492836,.229813*
20,1,.1524,-.492836,.229813,-.45,.259808,0.0*
1,1,.1524,-.45,.259808*
20,1,.1524,-.45,.259808,-.402606,.281908,0.0*
1,1,.1524,-.402606,.281908*
20,1,.1524,-.402606,.281908,-.352094,.295442,0.0*
1,1,.1524,-.352094,.295442*
20,1,.1524,-.352094,.295442,-.3,.3,0.0*
1,1,.1524,-.3,.3*
1,1,.1524,-.15,-.15*
20,1,.1524,-.15,-.15,-.19,-.145,0.0*
1,1,.1524,-.19,-.145*
20,1,.1524,-.19,-.145,-.225,-.125,0.0*
1,1,.1524,-.225,-.125*
20,1,.1524,-.225,-.125,-.255,-.095,0.0*
1,1,.1524,-.255,-.095*
20,1,.1524,-.255,-.095,-.275,-.06,0.0*
1,1,.1524,-.275,-.06*
20,1,.1524,-.275,-.06,-.285,-.02,0.0*
1,1,.1524,-.285,-.02*
20,1,.1524,-.285,-.02,-.285,.02,0.0*
1,1,.1524,-.285,.02*
20,1,.1524,-.285,.02,-.275,.06,0.0*
1,1,.1524,-.275,.06*
20,1,.1524,-.275,.06,-.255,.095,0.0*
1,1,.1524,-.255,.095*
20,1,.1524,-.255,.095,-.225,.125,0.0*
1,1,.1524,-.225,.125*
20,1,.1524,-.225,.125,-.19,.145,0.0*
1,1,.1524,-.19,.145*
20,1,.1524,-.19,.145,-.15,.15,0.0*
1,1,.1524,-.15,.15*
20,1,.1524,-.15,.15,-.11,.145,0.0*
1,1,.1524,-.11,.145*
20,1,.1524,-.11,.145,-.075,.125,0.0*
1,1,.1524,-.075,.125*
20,1,.1524,-.075,.125,-.045,.095,0.0*
1,1,.1524,-.045,.095*
20,1,.1524,-.045,.095,-.025,.06,0.0*
1,1,.1524,-.025,.06*
20,1,.1524,-.025,.06,-.015,.02,0.0*
1,1,.1524,-.015,.02*
20,1,.1524,-.015,.02,-.015,-.02,0.0*
1,1,.1524,-.015,-.02*
20,1,.1524,-.015,-.02,-.025,-.06,0.0*
1,1,.1524,-.025,-.06*
20,1,.1524,-.025,-.06,-.045,-.095,0.0*
1,1,.1524,-.045,-.095*
20,1,.1524,-.045,-.095,-.075,-.125,0.0*
1,1,.1524,-.075,-.125*
20,1,.1524,-.075,-.125,-.11,-.145,0.0*
1,1,.1524,-.11,-.145*
20,1,.1524,-.11,-.145,-.15,-.15,0.0*
1,1,.1524,-.15,-.15*
1,1,.1524,.0251,-.15*
20,1,.1524,.0251,-.15,.1501,.15,0.0*
1,1,.1524,.1501,.15*
20,1,.1524,.1501,.15,.2751,-.15,0.0*
1,1,.1524,.2751,-.15*
1,1,.1524,.2301,-.045*
20,1,.1524,.2301,-.045,.0701,-.045,0.0*
1,1,.1524,.0701,-.045*
%
%ADD11MACRO11*%
%AMMACRO12*
1,1,.1524,-.55,.3*
20,1,.1524,-.55,.3,.55,.3,0.0*
1,1,.1524,.55,.3*
20,1,.1524,.55,.3,.602094,.295442,0.0*
1,1,.1524,.602094,.295442*
20,1,.1524,.602094,.295442,.652606,.281908,0.0*
1,1,.1524,.652606,.281908*
20,1,.1524,.652606,.281908,.7,.259808,0.0*
1,1,.1524,.7,.259808*
20,1,.1524,.7,.259808,.742836,.229813,0.0*
1,1,.1524,.742836,.229813*
20,1,.1524,.742836,.229813,.779813,.192836,0.0*
1,1,.1524,.779813,.192836*
20,1,.1524,.779813,.192836,.809808,.15,0.0*
1,1,.1524,.809808,.15*
20,1,.1524,.809808,.15,.831908,.102606,0.0*
1,1,.1524,.831908,.102606*
20,1,.1524,.831908,.102606,.845442,.052094,0.0*
1,1,.1524,.845442,.052094*
20,1,.1524,.845442,.052094,.85,0.0,0.0*
1,1,.1524,.85,0.0*
20,1,.1524,.85,0.0,.845442,-.052094,0.0*
1,1,.1524,.845442,-.052094*
20,1,.1524,.845442,-.052094,.831908,-.102606,0.0*
1,1,.1524,.831908,-.102606*
20,1,.1524,.831908,-.102606,.809808,-.15,0.0*
1,1,.1524,.809808,-.15*
20,1,.1524,.809808,-.15,.779813,-.192836,0.0*
1,1,.1524,.779813,-.192836*
20,1,.1524,.779813,-.192836,.742836,-.229813,0.0*
1,1,.1524,.742836,-.229813*
20,1,.1524,.742836,-.229813,.7,-.259808,0.0*
1,1,.1524,.7,-.259808*
20,1,.1524,.7,-.259808,.652606,-.281908,0.0*
1,1,.1524,.652606,-.281908*
20,1,.1524,.652606,-.281908,.602094,-.295442,0.0*
1,1,.1524,.602094,-.295442*
20,1,.1524,.602094,-.295442,.55,-.3,0.0*
1,1,.1524,.55,-.3*
20,1,.1524,.55,-.3,-.55,-.3,0.0*
1,1,.1524,-.55,-.3*
20,1,.1524,-.55,-.3,-.602094,-.295442,0.0*
1,1,.1524,-.602094,-.295442*
20,1,.1524,-.602094,-.295442,-.652606,-.281908,0.0*
1,1,.1524,-.652606,-.281908*
20,1,.1524,-.652606,-.281908,-.7,-.259808,0.0*
1,1,.1524,-.7,-.259808*
20,1,.1524,-.7,-.259808,-.742836,-.229813,0.0*
1,1,.1524,-.742836,-.229813*
20,1,.1524,-.742836,-.229813,-.779813,-.192836,0.0*
1,1,.1524,-.779813,-.192836*
20,1,.1524,-.779813,-.192836,-.809808,-.15,0.0*
1,1,.1524,-.809808,-.15*
20,1,.1524,-.809808,-.15,-.831908,-.102606,0.0*
1,1,.1524,-.831908,-.102606*
20,1,.1524,-.831908,-.102606,-.845442,-.052094,0.0*
1,1,.1524,-.845442,-.052094*
20,1,.1524,-.845442,-.052094,-.85,0.0,0.0*
1,1,.1524,-.85,0.0*
20,1,.1524,-.85,0.0,-.845442,.052094,0.0*
1,1,.1524,-.845442,.052094*
20,1,.1524,-.845442,.052094,-.831908,.102606,0.0*
1,1,.1524,-.831908,.102606*
20,1,.1524,-.831908,.102606,-.809808,.15,0.0*
1,1,.1524,-.809808,.15*
20,1,.1524,-.809808,.15,-.779813,.192836,0.0*
1,1,.1524,-.779813,.192836*
20,1,.1524,-.779813,.192836,-.742836,.229813,0.0*
1,1,.1524,-.742836,.229813*
20,1,.1524,-.742836,.229813,-.7,.259808,0.0*
1,1,.1524,-.7,.259808*
20,1,.1524,-.7,.259808,-.652606,.281908,0.0*
1,1,.1524,-.652606,.281908*
20,1,.1524,-.652606,.281908,-.602094,.295442,0.0*
1,1,.1524,-.602094,.295442*
20,1,.1524,-.602094,.295442,-.55,.3,0.0*
1,1,.1524,-.55,.3*
1,1,.1524,-.15,-.15*
20,1,.1524,-.15,-.15,-.19,-.145,0.0*
1,1,.1524,-.19,-.145*
20,1,.1524,-.19,-.145,-.225,-.125,0.0*
1,1,.1524,-.225,-.125*
20,1,.1524,-.225,-.125,-.255,-.095,0.0*
1,1,.1524,-.255,-.095*
20,1,.1524,-.255,-.095,-.275,-.06,0.0*
1,1,.1524,-.275,-.06*
20,1,.1524,-.275,-.06,-.285,-.02,0.0*
1,1,.1524,-.285,-.02*
20,1,.1524,-.285,-.02,-.285,.02,0.0*
1,1,.1524,-.285,.02*
20,1,.1524,-.285,.02,-.275,.06,0.0*
1,1,.1524,-.275,.06*
20,1,.1524,-.275,.06,-.255,.095,0.0*
1,1,.1524,-.255,.095*
20,1,.1524,-.255,.095,-.225,.125,0.0*
1,1,.1524,-.225,.125*
20,1,.1524,-.225,.125,-.19,.145,0.0*
1,1,.1524,-.19,.145*
20,1,.1524,-.19,.145,-.15,.15,0.0*
1,1,.1524,-.15,.15*
20,1,.1524,-.15,.15,-.11,.145,0.0*
1,1,.1524,-.11,.145*
20,1,.1524,-.11,.145,-.075,.125,0.0*
1,1,.1524,-.075,.125*
20,1,.1524,-.075,.125,-.045,.095,0.0*
1,1,.1524,-.045,.095*
20,1,.1524,-.045,.095,-.025,.06,0.0*
1,1,.1524,-.025,.06*
20,1,.1524,-.025,.06,-.015,.02,0.0*
1,1,.1524,-.015,.02*
20,1,.1524,-.015,.02,-.015,-.02,0.0*
1,1,.1524,-.015,-.02*
20,1,.1524,-.015,-.02,-.025,-.06,0.0*
1,1,.1524,-.025,-.06*
20,1,.1524,-.025,-.06,-.045,-.095,0.0*
1,1,.1524,-.045,-.095*
20,1,.1524,-.045,-.095,-.075,-.125,0.0*
1,1,.1524,-.075,-.125*
20,1,.1524,-.075,-.125,-.11,-.145,0.0*
1,1,.1524,-.11,-.145*
20,1,.1524,-.11,-.145,-.15,-.15,0.0*
1,1,.1524,-.15,-.15*
1,1,.1524,.1901,.01*
20,1,.1524,.1901,.01,.2101,.025,0.0*
1,1,.1524,.2101,.025*
20,1,.1524,.2101,.025,.2251,.05,0.0*
1,1,.1524,.2251,.05*
20,1,.1524,.2251,.05,.2351,.085,0.0*
1,1,.1524,.2351,.085*
20,1,.1524,.2351,.085,.2251,.115,0.0*
1,1,.1524,.2251,.115*
20,1,.1524,.2251,.115,.2051,.135,0.0*
1,1,.1524,.2051,.135*
20,1,.1524,.2051,.135,.1701,.15,0.0*
1,1,.1524,.1701,.15*
20,1,.1524,.1701,.15,.0351,.15,0.0*
1,1,.1524,.0351,.15*
20,1,.1524,.0351,.15,.0351,-.15,0.0*
1,1,.1524,.0351,-.15*
20,1,.1524,.0351,-.15,.2001,-.15,0.0*
1,1,.1524,.2001,-.15*
20,1,.1524,.2001,-.15,.2351,-.13,0.0*
1,1,.1524,.2351,-.13*
20,1,.1524,.2351,-.13,.2551,-.1,0.0*
1,1,.1524,.2551,-.1*
20,1,.1524,.2551,-.1,.2651,-.065,0.0*
1,1,.1524,.2651,-.065*
20,1,.1524,.2651,-.065,.2551,-.03,0.0*
1,1,.1524,.2551,-.03*
20,1,.1524,.2551,-.03,.2251,0.0,0.0*
1,1,.1524,.2251,0.0*
20,1,.1524,.2251,0.0,.1901,.01,0.0*
1,1,.1524,.1901,.01*
20,1,.1524,.1901,.01,.0351,.01,0.0*
1,1,.1524,.0351,.01*
%
%ADD12MACRO12*%
%AMMACRO10*
1,1,.1524,.127,0.0*
20,1,.1524,.127,0.0,-.127,0.0,0.0*
1,1,.1524,-.127,0.0*
1,1,.1524,0.0,.127*
20,1,.1524,0.0,.127,0.0,-.127,0.0*
1,1,.1524,0.0,-.127*
%
%ADD10MACRO10*%
%ADD13C,.1524*%
G75*
%LPD*%
G75*
G54D10*
X90000Y400000D03*
Y850000D03*
Y1340000D03*
X80000Y1950000D03*
Y1690000D03*
X240000Y140000D03*
X410000Y1890000D03*
X480000D03*
X550000D03*
X620000D03*
X800000Y1750000D03*
Y1680000D03*
X750000Y2000000D03*
X890000Y120000D03*
X923100Y390000D03*
X986600D03*
X1050100D03*
X1000000Y850000D03*
X1180000D03*
X1040000Y1000000D03*
X1070000Y1150000D03*
X890000Y1310000D03*
X1000000Y1530000D03*
X1100000D03*
X1200000D03*
X1100000Y1630000D03*
X1000000Y1730000D03*
X1100000D03*
X1200000D03*
Y1630000D03*
X1000000D03*
X1400000Y420000D03*
Y350000D03*
X1510000Y960000D03*
Y1200000D03*
X1310000Y1440000D03*
X1373500D03*
X1306500Y1330000D03*
X1370000D03*
X1430000Y2000000D03*
X1720000Y120000D03*
X1900000Y880000D03*
X1750000Y1340000D03*
X1720000Y1940000D03*
X1620000Y1760000D03*
X2270000Y660000D03*
X2150000Y910000D03*
X2290000Y870000D03*
X2160000Y1590000D03*
X2080000Y1340000D03*
X2275000Y1555000D03*
X2310000Y1880000D03*
X2010000Y1940000D03*
X2275000Y1685000D03*
X2000000D03*
Y1750000D03*
X2510000Y120000D03*
X2520100Y390000D03*
X2456600D03*
X2393100D03*
X2560000Y1220000D03*
Y970000D03*
X2580000Y1620000D03*
Y1750000D03*
X2560000Y1940000D03*
X3130000Y130000D03*
X2860000Y420000D03*
Y340000D03*
X3130000Y570000D03*
X2970000Y790000D03*
X3040000Y786420D03*
X2870000Y930000D03*
X2932630D03*
X2940000Y1010000D03*
X2780000Y1090000D03*
X2800000Y1170000D03*
X2850000Y1220000D03*
X3390000Y130000D03*
Y280000D03*
Y420000D03*
Y570000D03*
Y1570000D03*
Y1860000D03*
Y1720000D03*
X3230000Y1890000D03*
X3390000Y2010000D03*
X5831730Y1752500D03*
G54D11*
X178000Y668000D03*
Y1532000D03*
X5831730Y1117500D03*
G54D12*
X596000Y668000D03*
Y1532000D03*
X5831730Y482500D03*
G54D13*
G01X-510290Y1083500D02*
X-496070Y1102550D01*
X-479470Y1112080D01*
X-460510Y1115250D01*
X-436800Y1108900D01*
X-420210Y1093020D01*
X-415470Y1073980D01*
X-417840Y1054920D01*
X-427320Y1039050D01*
X-474730Y1007300D01*
X-496070Y985070D01*
X-510290Y953320D01*
X-515030Y924750D01*
X-415470D01*
G01X-274750D02*
Y1115250D01*
X-303200Y1077150D01*
G01Y924750D02*
X-246310D01*
G01X1532600Y-357150D02*
X1546820Y-379380D01*
X1565780Y-392080D01*
X1587120Y-395250D01*
X1606090Y-392080D01*
X1625050Y-376200D01*
X1636900Y-357150D01*
X1639270Y-338100D01*
X1634530Y-315880D01*
X1617940Y-300000D01*
X1601340Y-293650D01*
X1580010D01*
G01X1601340D02*
X1615570Y-284130D01*
X1627420Y-268250D01*
X1632160Y-249200D01*
X1627420Y-230150D01*
X1615570Y-214280D01*
X1594230Y-204750D01*
X1572900Y-207920D01*
X1551560Y-220630D01*
G01X1723100Y-366680D02*
X1737320Y-382550D01*
X1753910Y-392080D01*
X1775250Y-395250D01*
X1796590Y-388900D01*
X1813180Y-376200D01*
X1825030Y-353980D01*
X1827400Y-328580D01*
X1822660Y-303180D01*
X1810810Y-287300D01*
X1794210Y-274600D01*
X1777620Y-271430D01*
X1761030Y-274600D01*
X1739690Y-287300D01*
X1746800Y-204750D01*
X1810810D01*
G01X4969520Y2228750D02*
Y2546250D01*
X5119140D01*
G01X5064010Y2392800D02*
X4969520D01*
G01X5312050Y2546250D02*
X5406530D01*
G01X5359290D02*
Y2228750D01*
G01X5312050D02*
X5406530D01*
G01X5697870Y2387500D02*
X5776620D01*
Y2292250D01*
X5752990Y2260490D01*
X5725430Y2239330D01*
X5686060Y2228750D01*
X5646690Y2239330D01*
X5619130Y2260490D01*
X5595510Y2292250D01*
X5579760Y2329290D01*
X5571880Y2371620D01*
Y2408670D01*
X5579760Y2440410D01*
X5595510Y2477460D01*
X5619130Y2509210D01*
X5642750Y2530370D01*
X5674250Y2546250D01*
X5701810D01*
X5733300Y2535670D01*
X5756930Y2514500D01*
G01X5902600Y2546250D02*
Y2318710D01*
X5918340Y2271070D01*
X5949840Y2239330D01*
X5989210Y2228750D01*
X6028580Y2239330D01*
X6060080Y2271070D01*
X6075820Y2318710D01*
Y2546250D01*
G01X6225430Y2228750D02*
Y2546250D01*
X6323850D01*
X6355350Y2530370D01*
X6375040Y2509210D01*
X6382910Y2466870D01*
X6375040Y2424540D01*
X6351410Y2398090D01*
X6323850Y2382200D01*
X6225430D01*
G01X6323850D02*
X6382910Y2228750D01*
G01X6697870D02*
X6540390D01*
Y2546250D01*
X6697870D01*
G01X6634880Y2392800D02*
X6540390D01*
G01X6638810Y2863750D02*
X6737240Y3181250D01*
X6835670Y2863750D01*
G01X6800230Y2974870D02*
X6674240D01*
G01X6973460Y3181250D02*
Y2863750D01*
X7130940D01*
G01X7288420Y3181250D02*
Y2863750D01*
X7445900D01*
G01X7910470Y3181250D02*
Y2953710D01*
X7926210Y2906070D01*
X7957710Y2874330D01*
X7997080Y2863750D01*
X8036450Y2874330D01*
X8067950Y2906070D01*
X8083690Y2953710D01*
Y3181250D01*
G01X8221490Y2863750D02*
Y3181250D01*
X8402590Y2863750D01*
Y3181250D01*
G01X8579760D02*
X8674240D01*
G01X8627000D02*
Y2863750D01*
G01X8579760D02*
X8674240D01*
G01X8941960Y3181250D02*
Y2863750D01*
G01X8851410Y3181250D02*
X9032510D01*
G01X9174240Y2906070D02*
X9205740Y2879620D01*
X9241170Y2863750D01*
X9272670D01*
X9304160Y2879620D01*
X9327790Y2906070D01*
X9339600Y2943130D01*
X9331730Y2980160D01*
X9312040Y3011910D01*
X9276600Y3033090D01*
X9229360Y3043670D01*
X9201800Y3064830D01*
X9189990Y3101870D01*
X9197870Y3138920D01*
X9217550Y3165370D01*
X9245110Y3181250D01*
X9272670D01*
X9300230Y3170670D01*
X9323850Y3144210D01*
G01X9788410Y2863750D02*
X9886840Y3181250D01*
X9985270Y2863750D01*
G01X9949830Y2974870D02*
X9823840D01*
G01X10123060Y2863750D02*
Y3181250D01*
X10221480D01*
X10252980Y3165370D01*
X10272670Y3144210D01*
X10280540Y3101870D01*
X10272670Y3059540D01*
X10249040Y3033090D01*
X10221480Y3017200D01*
X10123060D01*
G01X10221480D02*
X10280540Y2863750D01*
G01X10595500D02*
X10438020D01*
Y3181250D01*
X10595500D01*
G01X10532510Y3027800D02*
X10438020D01*
G01X11099440Y3181250D02*
X11193920D01*
G01X11146680D02*
Y2863750D01*
G01X11099440D02*
X11193920D01*
G01X11371090D02*
Y3181250D01*
X11552190Y2863750D01*
Y3181250D01*
G01X11989190Y2863750D02*
Y3181250D01*
X12091560Y2916670D01*
X12193930Y3181250D01*
Y2863750D01*
G01X12359280Y3181250D02*
X12453760D01*
G01X12406520D02*
Y2863750D01*
G01X12359280D02*
X12453760D01*
G01X12642740Y3181250D02*
Y2863750D01*
X12800220D01*
G01X12957700Y3181250D02*
Y2863750D01*
X13115180D01*
G01X13304160Y3181250D02*
X13398640D01*
G01X13351400D02*
Y2863750D01*
G01X13304160D02*
X13398640D01*
G01X13563990D02*
Y3181250D01*
X13666360Y2916670D01*
X13768730Y3181250D01*
Y2863750D01*
G01X14060060D02*
X13902580D01*
Y3181250D01*
X14060060D01*
G01X13997070Y3027800D02*
X13902580D01*
G01X14296280Y3181250D02*
Y2863750D01*
G01X14205730Y3181250D02*
X14386830D01*
G01X14689980Y2863750D02*
X14532500D01*
Y3181250D01*
X14689980D01*
G01X14626990Y3027800D02*
X14532500D01*
G01X14847460Y2863750D02*
Y3181250D01*
X14945880D01*
X14977380Y3165370D01*
X14997070Y3144210D01*
X15004940Y3101870D01*
X14997070Y3059540D01*
X14973440Y3033090D01*
X14945880Y3017200D01*
X14847460D01*
G01X14945880D02*
X15004940Y2863750D01*
G01X15158480Y2906070D02*
X15189980Y2879620D01*
X15225410Y2863750D01*
X15256910D01*
X15288400Y2879620D01*
X15312030Y2906070D01*
X15323840Y2943130D01*
X15315970Y2980160D01*
X15296280Y3011910D01*
X15260840Y3033090D01*
X15213600Y3043670D01*
X15186040Y3064830D01*
X15174230Y3101870D01*
X15182110Y3138920D01*
X15201790Y3165370D01*
X15229350Y3181250D01*
X15256910D01*
X15284470Y3170670D01*
X15308090Y3144210D01*
G01X6965590Y3513750D02*
Y3831250D01*
X7044320D01*
X7075820Y3815370D01*
X7099440Y3794210D01*
X7119130Y3762460D01*
X7134880Y3725410D01*
X7138810Y3672500D01*
X7134880Y3619580D01*
X7119130Y3582540D01*
X7099440Y3550780D01*
X7075820Y3529620D01*
X7044320Y3513750D01*
X6965590D01*
G01X7288420D02*
Y3831250D01*
X7386840D01*
X7418340Y3815370D01*
X7438030Y3794210D01*
X7445900Y3751870D01*
X7438030Y3709540D01*
X7414400Y3683090D01*
X7386840Y3667200D01*
X7288420D01*
G01X7386840D02*
X7445900Y3513750D01*
G01X7634880Y3831250D02*
X7729360D01*
G01X7682120D02*
Y3513750D01*
G01X7634880D02*
X7729360D01*
G01X7918340Y3831250D02*
Y3513750D01*
X8075820D01*
G01X8233300Y3831250D02*
Y3513750D01*
X8390780D01*
G01X9028570Y3804790D02*
X9004950Y3820670D01*
X8977400Y3831250D01*
X8945900D01*
X8910460Y3815370D01*
X8882910Y3788920D01*
X8863220Y3757160D01*
X8847470Y3704250D01*
X8843530Y3656620D01*
X8851410Y3609000D01*
X8863220Y3577250D01*
X8886840Y3545490D01*
X8914400Y3524330D01*
X8941960Y3513750D01*
X8969520D01*
X8997080Y3524330D01*
X9020700Y3540200D01*
X9040390Y3561360D01*
G01X9174240Y3513750D02*
Y3831250D01*
G01X9339600D02*
Y3513750D01*
G01Y3672500D02*
X9174240D01*
G01X9473450Y3513750D02*
X9571880Y3831250D01*
X9670310Y3513750D01*
G01X9634870Y3624870D02*
X9508880D01*
G01X9808100Y3513750D02*
Y3831250D01*
X9906520D01*
X9938020Y3815370D01*
X9957710Y3794210D01*
X9965580Y3751870D01*
X9957710Y3709540D01*
X9934080Y3683090D01*
X9906520Y3667200D01*
X9808100D01*
G01X9906520D02*
X9965580Y3513750D01*
G01X10201800Y3831250D02*
Y3513750D01*
G01X10111250Y3831250D02*
X10292350D01*
G01X10516760Y3503170D02*
X10508880Y3508460D01*
Y3519040D01*
X10516760Y3524330D01*
X10524640Y3519040D01*
Y3508460D01*
X10516760Y3503170D01*
G01Y3646030D02*
X10508880Y3651330D01*
Y3661910D01*
X10516760Y3667200D01*
X10524640Y3661910D01*
Y3651330D01*
X10516760Y3646030D01*
G01X11146680Y3831250D02*
Y3513750D01*
G01X11056130Y3831250D02*
X11237230D01*
G01X11461640Y3513750D02*
X11430140Y3519040D01*
X11402590Y3540200D01*
X11378960Y3571960D01*
X11363210Y3609000D01*
X11355340Y3651330D01*
Y3693670D01*
X11363210Y3736000D01*
X11378960Y3773040D01*
X11402590Y3804790D01*
X11430140Y3825960D01*
X11461640Y3831250D01*
X11493130Y3825960D01*
X11520690Y3804790D01*
X11544320Y3773040D01*
X11560070Y3736000D01*
X11567940Y3693670D01*
Y3651330D01*
X11560070Y3609000D01*
X11544320Y3571960D01*
X11520690Y3540200D01*
X11493130Y3519040D01*
X11461640Y3513750D01*
G01X11697860D02*
Y3831250D01*
X11792350D01*
X11823840Y3815370D01*
X11847470Y3778330D01*
X11855340Y3736000D01*
X11847470Y3693670D01*
X11827780Y3661910D01*
X11792350Y3646030D01*
X11697860D01*
G01X12406520Y3831250D02*
Y3513750D01*
G01X12351400Y3725410D02*
X12461640D01*
G01X12721480Y3513750D02*
X12697860Y3519040D01*
X12674240Y3540200D01*
X12658480Y3577250D01*
X12650610Y3619580D01*
X12658480Y3661910D01*
X12674240Y3698960D01*
X12697860Y3720120D01*
X12721480Y3725410D01*
X12745100Y3720120D01*
X12768720Y3698960D01*
X12784470Y3661910D01*
X12788410Y3619580D01*
X12784470Y3577250D01*
X12768720Y3540200D01*
X12745100Y3519040D01*
X12721480Y3513750D01*
G01X13382890Y3683090D02*
X13398640Y3698960D01*
X13410450Y3725410D01*
X13418330Y3762460D01*
X13410450Y3794210D01*
X13394710Y3815370D01*
X13367150Y3831250D01*
X13260850D01*
Y3513750D01*
X13390770D01*
X13418330Y3534910D01*
X13434080Y3566670D01*
X13441950Y3603710D01*
X13434080Y3640740D01*
X13410450Y3672500D01*
X13382890Y3683090D01*
X13260850D01*
G01X13666360Y3513750D02*
X13634860Y3519040D01*
X13607310Y3540200D01*
X13583680Y3571960D01*
X13567930Y3609000D01*
X13560060Y3651330D01*
Y3693670D01*
X13567930Y3736000D01*
X13583680Y3773040D01*
X13607310Y3804790D01*
X13634860Y3825960D01*
X13666360Y3831250D01*
X13697850Y3825960D01*
X13725410Y3804790D01*
X13749040Y3773040D01*
X13764790Y3736000D01*
X13772660Y3693670D01*
Y3651330D01*
X13764790Y3609000D01*
X13749040Y3571960D01*
X13725410Y3540200D01*
X13697850Y3519040D01*
X13666360Y3513750D01*
G01X13981320Y3831250D02*
Y3513750D01*
G01X13890770Y3831250D02*
X14071870D01*
G01X14296280D02*
Y3513750D01*
G01X14205730Y3831250D02*
X14386830D01*
G01X14611240Y3513750D02*
X14579740Y3519040D01*
X14552190Y3540200D01*
X14528560Y3571960D01*
X14512810Y3609000D01*
X14504940Y3651330D01*
Y3693670D01*
X14512810Y3736000D01*
X14528560Y3773040D01*
X14552190Y3804790D01*
X14579740Y3825960D01*
X14611240Y3831250D01*
X14642730Y3825960D01*
X14670290Y3804790D01*
X14693920Y3773040D01*
X14709670Y3736000D01*
X14717540Y3693670D01*
Y3651330D01*
X14709670Y3609000D01*
X14693920Y3571960D01*
X14670290Y3540200D01*
X14642730Y3519040D01*
X14611240Y3513750D01*
G01X14823830D02*
Y3831250D01*
X14926200Y3566670D01*
X15028570Y3831250D01*
Y3513750D01*
G01X7567940Y2228750D02*
Y2546250D01*
X7717560D01*
G01X7662430Y2392800D02*
X7567940D01*
G01X7910470Y2546250D02*
X8004950D01*
G01X7957710D02*
Y2228750D01*
G01X7910470D02*
X8004950D01*
G01X8182120D02*
Y2546250D01*
X8363220Y2228750D01*
Y2546250D01*
G01X8540390D02*
X8634870D01*
G01X8587630D02*
Y2228750D01*
G01X8540390D02*
X8634870D01*
G01X8819910Y2271070D02*
X8851410Y2244620D01*
X8886840Y2228750D01*
X8918340D01*
X8949830Y2244620D01*
X8973460Y2271070D01*
X8985270Y2308130D01*
X8977400Y2345160D01*
X8957710Y2376910D01*
X8922270Y2398090D01*
X8875030Y2408670D01*
X8847470Y2429830D01*
X8835660Y2466870D01*
X8843540Y2503920D01*
X8863220Y2530370D01*
X8890780Y2546250D01*
X8918340D01*
X8945900Y2535670D01*
X8969520Y2509210D01*
G01X9134870Y2228750D02*
Y2546250D01*
G01X9300230D02*
Y2228750D01*
G01Y2387500D02*
X9134870D01*
G01X9611250Y2228750D02*
X9453770D01*
Y2546250D01*
X9611250D01*
G01X9548260Y2392800D02*
X9453770D01*
G01X9760860Y2228750D02*
Y2546250D01*
X9839590D01*
X9871090Y2530370D01*
X9894710Y2509210D01*
X9914400Y2477460D01*
X9930150Y2440410D01*
X9934080Y2387500D01*
X9930150Y2334580D01*
X9914400Y2297540D01*
X9894710Y2265780D01*
X9871090Y2244620D01*
X9839590Y2228750D01*
X9760860D01*
G01X10044320Y2122920D02*
X10280540D01*
G01X10394710Y2271070D02*
X10426210Y2244620D01*
X10461640Y2228750D01*
X10493140D01*
X10524630Y2244620D01*
X10548260Y2271070D01*
X10560070Y2308130D01*
X10552200Y2345160D01*
X10532510Y2376910D01*
X10497070Y2398090D01*
X10449830Y2408670D01*
X10422270Y2429830D01*
X10410460Y2466870D01*
X10418340Y2503920D01*
X10438020Y2530370D01*
X10465580Y2546250D01*
X10493140D01*
X10520700Y2535670D01*
X10544320Y2509210D01*
G01X10745110Y2546250D02*
X10839590D01*
G01X10792350D02*
Y2228750D01*
G01X10745110D02*
X10839590D01*
G01X11032500Y2546250D02*
X11182120D01*
X11032500Y2228750D01*
X11182120D01*
G01X11501010D02*
X11343530D01*
Y2546250D01*
X11501010D01*
G01X11438020Y2392800D02*
X11343530D01*
G01X8587630Y323750D02*
Y641250D01*
X8540390Y577750D01*
G01Y323750D02*
X8634870D01*
G01X8902590Y313170D02*
X8894710Y318460D01*
Y329040D01*
X8902590Y334330D01*
X8910470Y329040D01*
Y318460D01*
X8902590Y313170D01*
G01X9209670Y323750D02*
X9217550Y392540D01*
X9229360Y450740D01*
X9245110Y503670D01*
X9264790Y561870D01*
X9296290Y641250D01*
X9138810D01*
G01X9473460Y535410D02*
X9591560Y323750D01*
G01Y535410D02*
X9473460Y323750D01*
G01X9847470Y641250D02*
X9815970Y630670D01*
X9792350Y604210D01*
X9776600Y572460D01*
X9764790Y530120D01*
X9760860Y482500D01*
X9764790Y434870D01*
X9776600Y392540D01*
X9792350Y360780D01*
X9815970Y334330D01*
X9847470Y323750D01*
X9878960Y334330D01*
X9902590Y360780D01*
X9918340Y392540D01*
X9930150Y434870D01*
X9934080Y482500D01*
X9930150Y530120D01*
X9918340Y572460D01*
X9902590Y604210D01*
X9878960Y630670D01*
X9847470Y641250D01*
G01X10162430Y313170D02*
X10154550Y318460D01*
Y329040D01*
X10162430Y334330D01*
X10170310Y329040D01*
Y318460D01*
X10162430Y313170D01*
G01X10402580Y456030D02*
X10430150Y493090D01*
X10453770Y514250D01*
X10485270Y524830D01*
X10512830Y514250D01*
X10532510Y493090D01*
X10548260Y461330D01*
X10552200Y424290D01*
X10548260Y392540D01*
X10532510Y360780D01*
X10508880Y334330D01*
X10481330Y323750D01*
X10449830Y334330D01*
X10422270Y366070D01*
X10406520Y413710D01*
X10402580Y466620D01*
X10410460Y535410D01*
X10422270Y572460D01*
X10441950Y609500D01*
X10469510Y635960D01*
X10497070Y641250D01*
X10524630Y630670D01*
X10544320Y604210D01*
G01X8587630Y958750D02*
Y1276250D01*
X8540390Y1212750D01*
G01Y958750D02*
X8634870D01*
G01X8902590Y948170D02*
X8894710Y953460D01*
Y964040D01*
X8902590Y969330D01*
X8910470Y964040D01*
Y953460D01*
X8902590Y948170D01*
G01X9142740Y1223330D02*
X9166370Y1255080D01*
X9193930Y1270960D01*
X9225430Y1276250D01*
X9264790Y1265670D01*
X9292360Y1239210D01*
X9300230Y1207460D01*
X9296290Y1175700D01*
X9280540Y1149250D01*
X9201800Y1096330D01*
X9166370Y1059290D01*
X9142740Y1006360D01*
X9134870Y958750D01*
X9300230D01*
G01X9473460Y1170410D02*
X9591560Y958750D01*
G01Y1170410D02*
X9473460Y958750D01*
G01X9847470Y1276250D02*
X9815970Y1265670D01*
X9792350Y1239210D01*
X9776600Y1207460D01*
X9764790Y1165120D01*
X9760860Y1117500D01*
X9764790Y1069870D01*
X9776600Y1027540D01*
X9792350Y995780D01*
X9815970Y969330D01*
X9847470Y958750D01*
X9878960Y969330D01*
X9902590Y995780D01*
X9918340Y1027540D01*
X9930150Y1069870D01*
X9934080Y1117500D01*
X9930150Y1165120D01*
X9918340Y1207460D01*
X9902590Y1239210D01*
X9878960Y1265670D01*
X9847470Y1276250D01*
G01X10162430Y948170D02*
X10154550Y953460D01*
Y964040D01*
X10162430Y969330D01*
X10170310Y964040D01*
Y953460D01*
X10162430Y948170D01*
G01X10402580Y1091030D02*
X10430150Y1128090D01*
X10453770Y1149250D01*
X10485270Y1159830D01*
X10512830Y1149250D01*
X10532510Y1128090D01*
X10548260Y1096330D01*
X10552200Y1059290D01*
X10548260Y1027540D01*
X10532510Y995780D01*
X10508880Y969330D01*
X10481330Y958750D01*
X10449830Y969330D01*
X10422270Y1001070D01*
X10406520Y1048710D01*
X10402580Y1101620D01*
X10410460Y1170410D01*
X10422270Y1207460D01*
X10441950Y1244500D01*
X10469510Y1270960D01*
X10497070Y1276250D01*
X10524630Y1265670D01*
X10544320Y1239210D01*
G01X8902590Y1911250D02*
X8871090Y1900670D01*
X8847470Y1874210D01*
X8831720Y1842460D01*
X8819910Y1800120D01*
X8815980Y1752500D01*
X8819910Y1704870D01*
X8831720Y1662540D01*
X8847470Y1630780D01*
X8871090Y1604330D01*
X8902590Y1593750D01*
X8934080Y1604330D01*
X8957710Y1630780D01*
X8973460Y1662540D01*
X8985270Y1704870D01*
X8989200Y1752500D01*
X8985270Y1800120D01*
X8973460Y1842460D01*
X8957710Y1874210D01*
X8934080Y1900670D01*
X8902590Y1911250D01*
G01X9217550Y1583170D02*
X9209670Y1588460D01*
Y1599040D01*
X9217550Y1604330D01*
X9225430Y1599040D01*
Y1588460D01*
X9217550Y1583170D01*
G01X9457700Y1858330D02*
X9481330Y1890080D01*
X9508890Y1905960D01*
X9540390Y1911250D01*
X9579750Y1900670D01*
X9607320Y1874210D01*
X9615190Y1842460D01*
X9611250Y1810700D01*
X9595500Y1784250D01*
X9516760Y1731330D01*
X9481330Y1694290D01*
X9457700Y1641360D01*
X9449830Y1593750D01*
X9615190D01*
G01X9760860Y1641360D02*
X9784470Y1614910D01*
X9812030Y1599040D01*
X9847470Y1593750D01*
X9882910Y1604330D01*
X9910460Y1625490D01*
X9930150Y1662540D01*
X9934080Y1704870D01*
X9926210Y1747200D01*
X9906520Y1773670D01*
X9878960Y1794830D01*
X9851410Y1800120D01*
X9823850Y1794830D01*
X9788420Y1773670D01*
X9800230Y1911250D01*
X9906520D01*
G01X10209670Y1593750D02*
Y1911250D01*
X10064000Y1683710D01*
X10260860D01*
G01X11419730Y6250D02*
Y-311250D01*
G01X11329180Y6250D02*
X11510280D01*
G01X11734690Y-311250D02*
X11703190Y-305960D01*
X11675640Y-284800D01*
X11652010Y-253040D01*
X11636260Y-216000D01*
X11628390Y-173670D01*
Y-131330D01*
X11636260Y-89000D01*
X11652010Y-51960D01*
X11675640Y-20210D01*
X11703190Y960D01*
X11734690Y6250D01*
X11766180Y960D01*
X11793740Y-20210D01*
X11817370Y-51960D01*
X11833120Y-89000D01*
X11840990Y-131330D01*
Y-173670D01*
X11833120Y-216000D01*
X11817370Y-253040D01*
X11793740Y-284800D01*
X11766180Y-305960D01*
X11734690Y-311250D01*
G01X12049650Y6250D02*
Y-311250D01*
G01X11959100Y6250D02*
X12140200D01*
G01X12266180Y-311250D02*
X12364610Y6250D01*
X12463040Y-311250D01*
G01X12427600Y-200130D02*
X12301610D01*
G01X12600830Y6250D02*
Y-311250D01*
X12758310D01*
G01X13226810D02*
Y6250D01*
G01X13392170D02*
Y-311250D01*
G01Y-152500D02*
X13226810D01*
G01X13624450Y-311250D02*
X13592950Y-305960D01*
X13565400Y-284800D01*
X13541770Y-253040D01*
X13526020Y-216000D01*
X13518150Y-173670D01*
Y-131330D01*
X13526020Y-89000D01*
X13541770Y-51960D01*
X13565400Y-20210D01*
X13592950Y960D01*
X13624450Y6250D01*
X13655940Y960D01*
X13683500Y-20210D01*
X13707130Y-51960D01*
X13722880Y-89000D01*
X13730750Y-131330D01*
Y-173670D01*
X13722880Y-216000D01*
X13707130Y-253040D01*
X13683500Y-284800D01*
X13655940Y-305960D01*
X13624450Y-311250D01*
G01X13860670Y6250D02*
Y-311250D01*
X14018150D01*
G01X14333110D02*
X14175630D01*
Y6250D01*
X14333110D01*
G01X14270120Y-147200D02*
X14175630D01*
G01X14486650Y-268930D02*
X14518150Y-295380D01*
X14553580Y-311250D01*
X14585080D01*
X14616570Y-295380D01*
X14640200Y-268930D01*
X14652010Y-231870D01*
X14644140Y-194840D01*
X14624450Y-163090D01*
X14589010Y-141910D01*
X14541770Y-131330D01*
X14514210Y-110170D01*
X14502400Y-73130D01*
X14510280Y-36080D01*
X14529960Y-9630D01*
X14557520Y6250D01*
X14585080D01*
X14612640Y-4330D01*
X14636260Y-30790D01*
G01X14884290Y-321830D02*
X14876410Y-316540D01*
Y-305960D01*
X14884290Y-300670D01*
X14892170Y-305960D01*
Y-316540D01*
X14884290Y-321830D01*
G01Y-178970D02*
X14876410Y-173670D01*
Y-163090D01*
X14884290Y-157800D01*
X14892170Y-163090D01*
Y-173670D01*
X14884290Y-178970D01*
G01X12839590Y323750D02*
Y641250D01*
X12934080D01*
X12965570Y625370D01*
X12989200Y588330D01*
X12997070Y546000D01*
X12989200Y503670D01*
X12969510Y471910D01*
X12934080Y456030D01*
X12839590D01*
G01X13154550Y641250D02*
Y323750D01*
X13312030D01*
G01X13449820D02*
X13548250Y641250D01*
X13646680Y323750D01*
G01X13611240Y434870D02*
X13485250D01*
G01X13863210Y641250D02*
Y323750D01*
G01X13772660Y641250D02*
X13953760D01*
G01X14256910Y323750D02*
X14099430D01*
Y641250D01*
X14256910D01*
G01X14193920Y487800D02*
X14099430D01*
G01X14406520Y323750D02*
Y641250D01*
X14485250D01*
X14516750Y625370D01*
X14540370Y604210D01*
X14560060Y572460D01*
X14575810Y535410D01*
X14579740Y482500D01*
X14575810Y429580D01*
X14560060Y392540D01*
X14540370Y360780D01*
X14516750Y339620D01*
X14485250Y323750D01*
X14406520D01*
G01X12839590Y958750D02*
Y1276250D01*
X12934080D01*
X12965570Y1260370D01*
X12989200Y1223330D01*
X12997070Y1181000D01*
X12989200Y1138670D01*
X12969510Y1106910D01*
X12934080Y1091030D01*
X12839590D01*
G01X13154550Y1276250D02*
Y958750D01*
X13312030D01*
G01X13449820D02*
X13548250Y1276250D01*
X13646680Y958750D01*
G01X13611240Y1069870D02*
X13485250D01*
G01X13863210Y1276250D02*
Y958750D01*
G01X13772660Y1276250D02*
X13953760D01*
G01X14256910Y958750D02*
X14099430D01*
Y1276250D01*
X14256910D01*
G01X14193920Y1122800D02*
X14099430D01*
G01X14406520Y958750D02*
Y1276250D01*
X14485250D01*
X14516750Y1260370D01*
X14540370Y1239210D01*
X14560060Y1207460D01*
X14575810Y1170410D01*
X14579740Y1117500D01*
X14575810Y1064580D01*
X14560060Y1027540D01*
X14540370Y995780D01*
X14516750Y974620D01*
X14485250Y958750D01*
X14406520D01*
G01X12839590Y1593750D02*
Y1911250D01*
X12934080D01*
X12965570Y1895370D01*
X12989200Y1858330D01*
X12997070Y1816000D01*
X12989200Y1773670D01*
X12969510Y1741910D01*
X12934080Y1726030D01*
X12839590D01*
G01X13154550Y1911250D02*
Y1593750D01*
X13312030D01*
G01X13449820D02*
X13548250Y1911250D01*
X13646680Y1593750D01*
G01X13611240Y1704870D02*
X13485250D01*
G01X13863210Y1911250D02*
Y1593750D01*
G01X13772660Y1911250D02*
X13953760D01*
G01X14256910Y1593750D02*
X14099430D01*
Y1911250D01*
X14256910D01*
G01X14193920Y1757800D02*
X14099430D01*
G01X14406520Y1593750D02*
Y1911250D01*
X14485250D01*
X14516750Y1895370D01*
X14540370Y1874210D01*
X14560060Y1842460D01*
X14575810Y1805410D01*
X14579740Y1752500D01*
X14575810Y1699580D01*
X14560060Y1662540D01*
X14540370Y1630780D01*
X14516750Y1609620D01*
X14485250Y1593750D01*
X14406520D01*
G01X12839590Y2228750D02*
Y2546250D01*
X12934080D01*
X12965570Y2530370D01*
X12989200Y2493330D01*
X12997070Y2451000D01*
X12989200Y2408670D01*
X12969510Y2376910D01*
X12934080Y2361030D01*
X12839590D01*
G01X13154550Y2546250D02*
Y2228750D01*
X13312030D01*
G01X13449820D02*
X13548250Y2546250D01*
X13646680Y2228750D01*
G01X13611240Y2339870D02*
X13485250D01*
G01X13863210Y2546250D02*
Y2228750D01*
G01X13772660Y2546250D02*
X13953760D01*
G01X14256910Y2228750D02*
X14099430D01*
Y2546250D01*
X14256910D01*
G01X14193920Y2392800D02*
X14099430D01*
G01X14406520Y2228750D02*
Y2546250D01*
X14485250D01*
X14516750Y2530370D01*
X14540370Y2509210D01*
X14560060Y2477460D01*
X14575810Y2440410D01*
X14579740Y2387500D01*
X14575810Y2334580D01*
X14560060Y2297540D01*
X14540370Y2265780D01*
X14516750Y2244620D01*
X14485250Y2228750D01*
X14406520D01*
G01X16079740Y-274220D02*
X16107300Y-300670D01*
X16138790Y-311250D01*
X16170290Y-300670D01*
X16197850Y-268930D01*
X16217540Y-221290D01*
X16225410Y-173670D01*
Y-115460D01*
X16217540Y-67840D01*
X16197850Y-25500D01*
X16174230Y-4330D01*
X16146670Y6250D01*
X16115170Y-4330D01*
X16091550Y-25500D01*
X16075800Y-57250D01*
X16067930Y-99590D01*
X16075800Y-136620D01*
X16095490Y-173670D01*
X16119110Y-194840D01*
X16146670Y-200130D01*
X16178160Y-189550D01*
X16201790Y-163090D01*
X16225410Y-115460D01*
G01X16461630Y6250D02*
X16430130Y-4330D01*
X16406510Y-30790D01*
X16390760Y-62540D01*
X16378950Y-104880D01*
X16375020Y-152500D01*
X16378950Y-200130D01*
X16390760Y-242460D01*
X16406510Y-274220D01*
X16430130Y-300670D01*
X16461630Y-311250D01*
X16493120Y-300670D01*
X16516750Y-274220D01*
X16532500Y-242460D01*
X16544310Y-200130D01*
X16548240Y-152500D01*
X16544310Y-104880D01*
X16532500Y-62540D01*
X16516750Y-30790D01*
X16493120Y-4330D01*
X16461630Y6250D01*
G01X16146670Y1593750D02*
X16174230Y1599040D01*
X16205720Y1614910D01*
X16225410Y1641360D01*
X16233280Y1678420D01*
X16225410Y1715450D01*
X16201790Y1747200D01*
X16166350Y1763090D01*
X16126990D01*
X16103360Y1773670D01*
X16083670Y1800120D01*
X16075800Y1837160D01*
X16087620Y1874210D01*
X16115170Y1900670D01*
X16146670Y1911250D01*
X16178160Y1900670D01*
X16205720Y1874210D01*
X16217540Y1837160D01*
X16209660Y1800120D01*
X16189980Y1773670D01*
X16166350Y1763090D01*
X16126990D01*
X16091550Y1747200D01*
X16067930Y1715450D01*
X16060060Y1678420D01*
X16067930Y1641360D01*
X16087620Y1614910D01*
X16119110Y1599040D01*
X16146670Y1593750D01*
G01X16386820Y1726030D02*
X16414390Y1763090D01*
X16438010Y1784250D01*
X16469510Y1794830D01*
X16497070Y1784250D01*
X16516750Y1763090D01*
X16532500Y1731330D01*
X16536440Y1694290D01*
X16532500Y1662540D01*
X16516750Y1630780D01*
X16493120Y1604330D01*
X16465570Y1593750D01*
X16434070Y1604330D01*
X16406510Y1636070D01*
X16390760Y1683710D01*
X16386820Y1736620D01*
X16394700Y1805410D01*
X16406510Y1842460D01*
X16426190Y1879500D01*
X16453750Y1905960D01*
X16481310Y1911250D01*
X16508870Y1900670D01*
X16528560Y1874210D01*
G01X15989190Y2228750D02*
X15957690Y2234040D01*
X15930140Y2255200D01*
X15906510Y2286960D01*
X15890760Y2324000D01*
X15882890Y2366330D01*
Y2408670D01*
X15890760Y2451000D01*
X15906510Y2488040D01*
X15930140Y2519790D01*
X15957690Y2540960D01*
X15989190Y2546250D01*
X16020680Y2540960D01*
X16048240Y2519790D01*
X16071870Y2488040D01*
X16087620Y2451000D01*
X16095490Y2408670D01*
Y2366330D01*
X16087620Y2324000D01*
X16071870Y2286960D01*
X16048240Y2255200D01*
X16020680Y2234040D01*
X15989190Y2228750D01*
G01X16020680Y2313420D02*
X16067930Y2228750D01*
G01X16304150Y2546250D02*
Y2228750D01*
G01X16213600Y2546250D02*
X16394700D01*
G01X16619110Y2228750D02*
Y2371620D01*
X16540370Y2546250D01*
G01X16697850D02*
X16619110Y2371620D01*
G01X16229340Y588330D02*
X16252970Y620080D01*
X16280530Y635960D01*
X16312030Y641250D01*
X16351390Y630670D01*
X16378960Y604210D01*
X16386830Y572460D01*
X16382890Y540700D01*
X16367140Y514250D01*
X16288400Y461330D01*
X16252970Y424290D01*
X16229340Y371360D01*
X16221470Y323750D01*
X16386830D01*
G01X16229340Y1223330D02*
X16252970Y1255080D01*
X16280530Y1270960D01*
X16312030Y1276250D01*
X16351390Y1265670D01*
X16378960Y1239210D01*
X16386830Y1207460D01*
X16382890Y1175700D01*
X16367140Y1149250D01*
X16288400Y1096330D01*
X16252970Y1059290D01*
X16229340Y1006360D01*
X16221470Y958750D01*
X16386830D01*
G01X-250000Y0D02*
X-620000D01*
G01X-370000Y774260D02*
Y0D01*
G01X-432500Y400000D02*
X-370000Y0D01*
X-307500Y400000D01*
X-432500D01*
G01X-370000Y1265740D02*
Y2100000D01*
G01X-307500Y1700000D02*
X-370000Y2100000D01*
X-432500Y1700000D01*
X-307500D01*
G01X0Y2100000D02*
X-620000D01*
G01X0Y-250000D02*
Y-550000D01*
G01X1363140Y-300000D02*
X0D01*
G01X400000Y-237500D02*
X0Y-300000D01*
X400000Y-362500D01*
Y-237500D01*
G01X1996860Y-300000D02*
X3500000D01*
G01X3100000Y-362500D02*
X3500000Y-300000D01*
X3100000Y-237500D01*
Y-362500D01*
G01X3500000Y-20000D02*
Y-550000D01*
G01X4690000Y165000D02*
Y3990000D01*
X17288400D01*
Y165000D01*
X4690000D01*
G01Y800000D02*
X17288400D01*
G01X4690000Y1435000D02*
X17288400D01*
G01X4690000Y2070000D02*
X17288400D01*
G01X4690000Y2705000D02*
X17288400D01*
G01X4690000Y3340000D02*
X17288400D01*
G01X6973460Y2705000D02*
Y165000D01*
G01X12091560Y2705000D02*
Y165000D01*
G01X15319900Y2705000D02*
Y165000D01*
M02*
