M48
METRIC,TZ
T01C.254
;LEADER: 12 
;HEADER: 
;CODE  : ASCII 
;FILE  : HY_TYPEC_DBUG_V10C-1-4.drl for board G:/github/MBED-TOOLS/HARDWARE/HY_TYPEC_DBUG_V10C/PCB/#Taaaanr14220.tmp ... layers TOP and BOTTOM
;T01 Holesize 1. = 0.254000 Tolerance = +0.000000/-0.000000 PLATED MM Quantity = 86
%
G90
T01
X90000Y400000
X240000Y140000
X890000Y120000
X923100Y390000
X986600Y390000
X1050100Y390000
X1400000Y350000
X1400000Y420000
X1720000Y120000
X2393100Y390000
X2456600Y390000
X2510000Y120000
X2520100Y390000
X2860000Y340000
X2860000Y420000
X3130000Y130000
X3390000Y130000
X3390000Y280000
X3390000Y420000
X3390000Y570000
X3130000Y570000
X3040000Y786420
X2970000Y790000
X2940000Y1010000
X2932630Y930000
X2870000Y930000
X2560000Y970000
X2290000Y870000
X2270000Y660000
X2150000Y910000
X1900000Y880000
X1510000Y960000
X1180000Y850000
X1040000Y1000000
X1000000Y850000
X90000Y850000
X90000Y1340000
X890000Y1310000
X1070000Y1150000
X1306500Y1330000
X1310000Y1440000
X1370000Y1330000
X1373500Y1440000
X1510000Y1200000
X1750000Y1340000
X2080000Y1340000
X2560000Y1220000
X2780000Y1090000
X2800000Y1170000
X2850000Y1220000
X3390000Y2010000
X3390000Y1860000
X3390000Y1720000
X3390000Y1570000
X3230000Y1890000
X2580000Y1750000
X2580000Y1620000
X2560000Y1940000
X2310000Y1880000
X2275000Y1685000
X2275000Y1555000
X2160000Y1590000
X2010000Y1940000
X2000000Y1750000
X2000000Y1685000
X1720000Y1940000
X1620000Y1760000
X1430000Y2000000
X1200000Y1730000
X1200000Y1630000
X1200000Y1530000
X1100000Y1730000
X1100000Y1630000
X1100000Y1530000
X1000000Y1730000
X1000000Y1630000
X1000000Y1530000
X800000Y1750000
X800000Y1680000
X750000Y2000000
X620000Y1890000
X550000Y1890000
X480000Y1890000
X410000Y1890000
X80000Y1950000
X80000Y1690000
M30
