G04 ================== begin FILE IDENTIFICATION RECORD ==================*
G04 Layout Name:  HY_TYPEC_DBUG_V10C.brd*
G04 Film Name:    L03_VCC*
G04 File Format:  Gerber RS274X*
G04 File Origin:  Cadence Allegro 17.2-S071*
G04 Origin Date:  Thu Sep 02 09:10:11 2021*
G04 *
G04 Layer:  VIA CLASS/L03_VCC*
G04 Layer:  PIN/L03_VCC*
G04 Layer:  ETCH/L03_VCC*
G04 *
G04 Offset:    (0.0000 0.0000)*
G04 Mirror:    No*
G04 Mode:      Positive*
G04 Rotation:  0*
G04 FullContactRelief:  No*
G04 UndefLineWidth:     0.2000*
G04 ================== end FILE IDENTIFICATION RECORD ====================*
%FSLAX55Y55*MOMM*%
%IR0*IPPOS*OFA0.00000B0.00000*MIA0B0*SFA1.00000B1.00000*%
%ADD10C,.508*%
%ADD12O,2.1X1.*%
%ADD11O,1.6X1.*%
%ADD14C,1.0004*%
%ADD13C,1.4228*%
G75*
%LPD*%
G75*
G36*
G01X1499300Y2080000D02*
X3300000D01*
G02X3314510Y2079410I-52J-179998D01*
G02X3330010Y2048240I-1635J-20252D01*
G03X3318860Y2010000I59999J-38240D01*
G03X3349290Y1951660I71139J0D01*
G02Y1918340I-11634J-16660D01*
G03X3318860Y1860000I40709J-58340D01*
G03X3344210Y1805550I71152J0D01*
G02Y1774450I-13073J-15550D01*
G03X3318860Y1720000I45802J-54450D01*
G03X3349290Y1661660I71139J0D01*
G02Y1628340I-11634J-16660D01*
G03X3318860Y1570000I40709J-58340D01*
G03X3319260Y1562470I71140J3D01*
G02X3299060Y1540000I-20206J-2150D01*
G01X3260000D01*
Y660000D01*
X3330760D01*
G02X3343920Y624200I-2J-20319D01*
G03X3318860Y570000I46082J-54200D01*
G03X3349290Y511660I71139J0D01*
G02Y478340I-11634J-16660D01*
G03X3318860Y420000I40709J-58340D01*
G03X3344210Y365550I71152J0D01*
G02Y334450I-13073J-15550D01*
G03X3318860Y280000I45802J-54450D01*
G03X3349290Y221660I71139J0D01*
G02Y188340I-11634J-16660D01*
G03X3318860Y130000I40709J-58340D01*
G03X3358320Y66300I71145J0D01*
G02X3355540Y28780I-9051J-18192D01*
G02X3300020Y20000I-55531J171221D01*
G01X200000D01*
G02X20000Y200000I0J180000D01*
G01Y323210D01*
G02X51360Y340270I20320J0D01*
G03X90000Y328860I38640J59722D01*
G03Y471140I0J71140D01*
G03X51360Y459730I0J-71132D01*
G02X20000Y476790I-11040J17060D01*
G01Y773210D01*
G02X51360Y790270I20320J0D01*
G03X90000Y778860I38640J59722D01*
G03Y921140I0J71140D01*
G03X51360Y909730I0J-71132D01*
G02X20000Y926790I-11040J17060D01*
G01Y1263210D01*
G02X51360Y1280270I20320J0D01*
G03X90000Y1268860I38640J59722D01*
G03Y1411140I0J71140D01*
G03X51360Y1399730I0J-71132D01*
G02X20000Y1416790I-11040J17060D01*
G01Y1607600D01*
G02X49140Y1625900I20319J-5D01*
G03X60840Y1621490I30844J64106D01*
G02X71580Y1589680I-5476J-19567D01*
G03X52260Y1532010I76422J-57673D01*
G01Y1532000D01*
G03X148000Y1436260I95740J0D01*
G01X208000D01*
G03Y1627740I0J95740D01*
G01X148000D01*
G03X142840Y1627600I16J-95740D01*
G01X140760Y1627490D01*
X129260Y1631680D01*
X133350Y1642910D01*
X134500Y1644280D01*
G03X151140Y1690000I-54490J45720D01*
G03X80000Y1761140I-71140J0D01*
G01X79990D01*
G03X49140Y1754100I6J-71141D01*
G02X20000Y1772400I-8821J18305D01*
G01Y1867600D01*
G02X49140Y1885900I20319J-5D01*
G03X79990Y1878860I30856J64101D01*
G01X80000D01*
G03X151140Y1950000I0J71140D01*
G03X106720Y2015930I-71138J0D01*
G02X103450Y2051910I7629J18832D01*
G02X200000Y2080000I96557J-151908D01*
G01X680700D01*
G02X696090Y2046420I-6J-20319D01*
G03X678860Y2000000I53916J-46420D01*
G03X821140I71140J0D01*
G03X803910Y2046420I-71146J0D01*
G02X819300Y2080000I15396J13261D01*
G01X1360700D01*
G02X1376090Y2046420I-6J-20319D01*
G03X1358860Y2000000I53916J-46420D01*
G03X1501140I71140J0D01*
G03X1483910Y2046420I-71146J0D01*
G02X1499300Y2080000I15396J13261D01*
G37*
%LPC*%
G75*
G36*
G01X2204050Y1679800D02*
G02X2203860Y1685000I70960J5196D01*
G02X2346140I71140J0D01*
G02X2325050Y1634440I-71150J0D01*
G03Y1605560I14292J-14440D01*
G02X2346140Y1555000I-50060J-50560D01*
G02X2275000Y1483860I-71140J0D01*
G02X2214660Y1517310I0J71148D01*
G03X2189110Y1525090I-17236J-10760D01*
G02X2160000Y1518860I-29113J64909D01*
G02Y1661140I0J71140D01*
G02X2178500Y1658690I-9J-71139D01*
G03X2204050Y1679800I5284J19621D01*
G37*
G36*
G01X503000Y1444130D02*
G02X445260Y1532000I37991J87870D01*
G02X541000Y1627740I95740J0D01*
G01X651000D01*
G02Y1436260I0J-95740D01*
G01X596990D01*
G03X578810Y1406870I2J-20319D01*
G02X583020Y1389000I-35821J-17870D01*
G02X502980I-40020J0D01*
G02X511120Y1413190I40013J0D01*
G03X503000Y1444130I-16186J12288D01*
G37*
G36*
G01X2901320Y866120D02*
G02X2870000Y858860I-31309J63882D01*
G02X2798860Y930000I0J71140D01*
G02X2860110Y1000450I71141J0D01*
G03X2868860Y1010450I-1409J10061D01*
G02X2940000Y1081140I71140J-451D01*
G02X3011140Y1010000I0J-71140D01*
G02X2994780Y964610I-71146J0D01*
G02X3003770Y930000I-62149J-34616D01*
G02X2989110Y886750I-71128J0D01*
G03X2997420Y855650I16135J-12349D01*
G02X3008160Y850040I-27449J-65635D01*
G02X3040000Y857560I31834J-63621D01*
G02Y715280I0J-71140D01*
G02X3001840Y726380I0J71144D01*
G02X2970000Y718860I-31834J63621D01*
G02X2898860Y790000I0J71140D01*
G02X2922470Y842930I71135J0D01*
G03X2917800Y860420I-6793J7555D01*
G02X2901320Y866120I14839J69576D01*
G37*
G36*
G01X511120Y786810D02*
G02X502980Y811000I31873J24190D01*
G02X583020I40020J0D01*
G02X578810Y793130I-40031J0D01*
G03X596990Y763740I18182J-9071D01*
G01X651000D01*
G02Y572260I0J-95740D01*
G01X541000D01*
G02X445260Y668000I0J95740D01*
G02X503000Y755870I95731J0D01*
G03X511120Y786810I-8066J18652D01*
G37*
G36*
G01X2529950Y1670560D02*
G03Y1699440I-14292J14440D01*
G02X2508860Y1750000I50060J50560D01*
G02X2651140I71140J0D01*
G02X2630050Y1699440I-71150J0D01*
G03Y1670560I14292J-14440D01*
G02X2651140Y1620000I-50060J-50560D01*
G02X2508860I-71140J0D01*
G02X2529950Y1670560I71150J0D01*
G37*
G36*
G01X2063280Y1717500D02*
G02X2071140Y1685000I-63279J-32504D01*
G02X1928860I-71140J0D01*
G02X1936720Y1717500I71139J-4D01*
G02X1928860Y1750000I63279J32504D01*
G02X2071140I71140J0D01*
G02X2063280Y1717500I-71139J4D01*
G37*
G36*
G01X861930Y1715000D02*
G02X871140Y1680000I-61928J-35008D01*
G02X728860I-71140J0D01*
G02X738070Y1715000I71138J-8D01*
G02X728860Y1750000I61928J35008D01*
G02X871140I71140J0D01*
G02X861930Y1715000I-71138J8D01*
G37*
G36*
G01X2846240Y1115940D02*
G02X2851140Y1090000I-66239J-25945D01*
G02X2708860I-71140J0D01*
G02X2733760Y1144060I71134J0D01*
G02X2728860Y1170000I66239J25945D01*
G02X2781350Y1238650I71138J0D01*
G02X2850000Y1291140I68650J-18648D01*
G02X2921140Y1220000I0J-71140D01*
G02X2868650Y1151350I-71138J0D01*
G02X2846240Y1115940I-68650J18651D01*
G37*
G36*
G01X2918830Y380000D02*
G02X2931140Y340000I-58833J-40000D01*
G02X2788860I-71140J0D01*
G02X2801170Y380000I71143J0D01*
G02X2788860Y420000I58833J40000D01*
G02X2931140I71140J0D01*
G02X2918830Y380000I-71143J0D01*
G37*
G36*
G01X1461930Y385000D02*
G02X1471140Y350000I-61928J-35008D01*
G02X1328860I-71140J0D01*
G02X1338070Y385000I71138J-8D01*
G02X1328860Y420000I61928J35008D01*
G02X1471140I71140J0D01*
G02X1461930Y385000I-71138J8D01*
G37*
G36*
G01X2424850Y326340D02*
G02X2393100Y318860I-31754J63659D01*
G02Y461140I0J71140D01*
G02X2424850Y453660I-4J-71139D01*
G02X2456600Y461140I31754J-63659D01*
G02X2488350Y453660I-4J-71139D01*
G02X2520100Y461140I31754J-63659D01*
G02Y318860I0J-71140D01*
G02X2488350Y326340I4J71139D01*
G02X2456600Y318860I-31754J63659D01*
G02X2424850Y326340I4J71139D01*
G37*
G36*
G01X954850D02*
G02X923100Y318860I-31754J63659D01*
G02Y461140I0J71140D01*
G02X954850Y453660I-4J-71139D01*
G02X986600Y461140I31754J-63659D01*
G02X1018350Y453660I-4J-71139D01*
G02X1050100Y461140I31754J-63659D01*
G02Y318860I0J-71140D01*
G02X1018350Y326340I4J71139D01*
G02X986600Y318860I-31754J63659D01*
G02X954850Y326340I4J71139D01*
G37*
G36*
G01X148000Y763740D02*
X208000D01*
G02Y572260I0J-95740D01*
G01X148000D01*
G02Y763740I0J95740D01*
G37*
G36*
G01X410000Y1961140D02*
G02X445000Y1951930I-8J-71138D01*
G02X480000Y1961140I35008J-61928D01*
G02X515000Y1951930I-8J-71138D01*
G02X550000Y1961140I35008J-61928D01*
G02X585000Y1951930I-8J-71138D01*
G02X620000Y1961140I35008J-61928D01*
G02Y1818860I0J-71140D01*
G02X585000Y1828070I8J71138D01*
G02X550000Y1818860I-35008J61928D01*
G02X515000Y1828070I8J71138D01*
G02X480000Y1818860I-35008J61928D01*
G02X445000Y1828070I8J71138D01*
G02X410000Y1818860I-35008J61928D01*
G02Y1961140I0J71140D01*
G37*
G36*
G01X1000000Y1801140D02*
G02X1050000Y1780610I0J-71152D01*
G02X1150000I50000J-50622D01*
G02X1200000Y1801140I50000J-50622D01*
G02X1271140Y1730000I0J-71140D01*
G02X1250610Y1680000I-71152J0D01*
G02Y1580000I-50622J-50000D01*
G02X1271140Y1530000I-50622J-50000D01*
G01Y1529660D01*
G03X1295580Y1509660I20320J-102D01*
G02X1310000Y1511140I14435J-69658D01*
G02X1341750Y1503660I-4J-71139D01*
G02X1373500Y1511140I31754J-63659D01*
G02Y1368860I0J-71140D01*
G02X1341750Y1376340I4J71139D01*
G02X1310000Y1368860I-31754J63659D01*
G02X1238860Y1440000I0J71140D01*
G01Y1440340D01*
G03X1214420Y1460340I-20320J102D01*
G02X1200000Y1458860I-14435J69658D01*
G02X1150000Y1479390I0J71152D01*
G02X1100000Y1458860I-50000J50622D01*
G02X1050000Y1479390I0J71152D01*
G02X1000000Y1458860I-50000J50622D01*
G02X928860Y1530000I0J71140D01*
G02X949390Y1580000I71152J0D01*
G02Y1680000I50622J50000D01*
G02X928860Y1730000I50622J50000D01*
G02X1000000Y1801140I71140J0D01*
G37*
G54D14*
X1240000Y170000D03*
X740000D03*
X2710000D03*
X2210000D03*
G54D13*
X2010000Y1940000D03*
X1070000Y1150000D03*
X1000000Y850000D03*
X2270000Y660000D03*
X2150000Y910000D03*
X1510000Y1200000D03*
X1750000Y1340000D03*
X2510000Y120000D03*
X890000D03*
X1040000Y1000000D03*
X2560000Y970000D03*
Y1220000D03*
X240000Y140000D03*
X1720000Y120000D03*
X3130000Y130000D03*
X2310000Y1880000D03*
X2080000Y1340000D03*
X1510000Y960000D03*
X1900000Y880000D03*
X2290000Y870000D03*
X3130000Y570000D03*
X1180000Y850000D03*
X890000Y1310000D03*
%LPD*%
G75*
G54D10*
X90000Y400000D03*
Y850000D03*
Y1340000D03*
X80000Y1950000D03*
Y1690000D03*
X240000Y140000D03*
X410000Y1890000D03*
X480000D03*
X550000D03*
X620000D03*
X800000Y1750000D03*
Y1680000D03*
X750000Y2000000D03*
X890000Y120000D03*
X923100Y390000D03*
X986600D03*
X1050100D03*
X1000000Y850000D03*
X1180000D03*
X1040000Y1000000D03*
X1070000Y1150000D03*
X890000Y1310000D03*
X1000000Y1530000D03*
X1100000D03*
X1200000D03*
X1100000Y1630000D03*
X1000000Y1730000D03*
X1100000D03*
X1200000D03*
Y1630000D03*
X1000000D03*
X1400000Y420000D03*
Y350000D03*
X1510000Y960000D03*
Y1200000D03*
X1310000Y1440000D03*
X1373500D03*
X1306500Y1330000D03*
X1370000D03*
X1430000Y2000000D03*
X1720000Y120000D03*
X1900000Y880000D03*
X1750000Y1340000D03*
X1720000Y1940000D03*
X1620000Y1760000D03*
X2270000Y660000D03*
X2150000Y910000D03*
X2290000Y870000D03*
X2160000Y1590000D03*
X2080000Y1340000D03*
X2275000Y1555000D03*
X2310000Y1880000D03*
X2010000Y1940000D03*
X2275000Y1685000D03*
X2000000D03*
Y1750000D03*
X2510000Y120000D03*
X2520100Y390000D03*
X2456600D03*
X2393100D03*
X2560000Y1220000D03*
Y970000D03*
X2580000Y1620000D03*
Y1750000D03*
X2560000Y1940000D03*
X3130000Y130000D03*
X2860000Y420000D03*
Y340000D03*
X3130000Y570000D03*
X2970000Y790000D03*
X3040000Y786420D03*
X2870000Y930000D03*
X2932630D03*
X2940000Y1010000D03*
X2780000Y1090000D03*
X2800000Y1170000D03*
X2850000Y1220000D03*
X3390000Y130000D03*
Y280000D03*
Y420000D03*
Y570000D03*
Y1570000D03*
Y1860000D03*
Y1720000D03*
X3230000Y1890000D03*
X3390000Y2010000D03*
G54D11*
X178000Y668000D03*
Y1532000D03*
G54D12*
X596000Y668000D03*
Y1532000D03*
M02*
