G04 ================== begin FILE IDENTIFICATION RECORD ==================*
G04 Layout Name:  HY_TYPEC_DBUG_V10C.brd*
G04 Film Name:    SolderMask_Top*
G04 File Format:  Gerber RS274X*
G04 File Origin:  Cadence Allegro 17.2-S071*
G04 Origin Date:  Thu Sep 02 09:10:10 2021*
G04 *
G04 Layer:  PIN/SOLDERMASK_TOP*
G04 Layer:  PACKAGE GEOMETRY/SOLDERMASK_TOP*
G04 Layer:  BOARD GEOMETRY/SOLDERMASK_TOP*
G04 *
G04 Offset:    (0.0000 0.0000)*
G04 Mirror:    No*
G04 Mode:      Positive*
G04 Rotation:  0*
G04 FullContactRelief:  No*
G04 UndefLineWidth:     0.1524*
G04 ================== end FILE IDENTIFICATION RECORD ====================*
%FSLAX55Y55*MOMM*%
%IR0*IPPOS*OFA0.00000B0.00000*MIA0B0*SFA1.00000B1.00000*%
%ADD25R,1.1X.4*%
%ADD18R,1.3X.4*%
%ADD29R,1.6X.4*%
%ADD17R,1.3X.7*%
%ADD10R,1.1X.9*%
%ADD27R,1.7X.4*%
%ADD28R,1.5X.8*%
%ADD13R,.9X.9*%
%ADD16O,2.2X1.1*%
%ADD19R,1.3X1.1*%
%ADD15R,1.X1.4*%
%ADD11O,1.7X1.1*%
%ADD26R,1.5X1.3*%
%ADD14R,2.6X1.1*%
%ADD20R,.7X.5*%
%ADD12R,.6X.7*%
%ADD21R,.7X.6*%
%ADD24R,2.8X2.8*%
%ADD22R,.9X.35*%
%ADD23R,.35X.9*%
G75*
%LPD*%
G75*
G36*
G01X3500000Y200000D02*
G02X3300000Y0I-200000J0D01*
G01Y660000D01*
X3500000D01*
Y200000D01*
G37*
G36*
G01Y1540000D02*
Y1900000D01*
G03X3300000Y2100000I-200000J0D01*
G01Y1540000D01*
X3500000D01*
G37*
G54D10*
X455000Y55000D03*
Y285000D03*
X1525000Y55000D03*
Y285000D03*
X1925000Y55000D03*
Y285000D03*
X2995000Y55000D03*
Y285000D03*
G54D20*
X930000Y1000000D03*
X1150000D03*
X2670000Y970000D03*
X2450000D03*
X2670000Y1220000D03*
X2450000D03*
G54D11*
X178000Y668000D03*
Y1532000D03*
G54D21*
X930000Y935000D03*
Y1065000D03*
X1150000D03*
Y935000D03*
X2670000Y1035000D03*
Y905000D03*
X2450000D03*
Y1035000D03*
X2670000Y1155000D03*
X2450000D03*
X2670000Y1285000D03*
X2450000D03*
X2950000Y1670000D03*
X2790000D03*
X2950000Y1750000D03*
X2790000D03*
X2950000Y1910000D03*
X2790000D03*
X2950000Y1990000D03*
X2790000D03*
G54D12*
X155000Y490000D03*
X245000D03*
X275000Y1690000D03*
X185000D03*
X275000Y2010000D03*
X185000D03*
X1455000Y1760000D03*
X1545000D03*
X1455000Y1640000D03*
X1545000D03*
X1905000Y1940000D03*
X1815000D03*
X2375000D03*
X2615000Y1470000D03*
X2705000D03*
X2465000Y1940000D03*
X3065000Y1650000D03*
Y1770000D03*
Y1890000D03*
Y2010000D03*
X3155000Y1650000D03*
Y1770000D03*
Y1890000D03*
Y2010000D03*
G54D22*
X900000Y1505000D03*
Y1555000D03*
Y1605000D03*
Y1655000D03*
Y1705000D03*
Y1755000D03*
X1300000Y1605000D03*
Y1555000D03*
Y1505000D03*
Y1755000D03*
Y1705000D03*
Y1655000D03*
G54D13*
X286200Y1850000D03*
X133800D03*
X873800Y2010000D03*
X1026200D03*
X1430000Y706200D03*
Y553800D03*
X1570000Y706200D03*
Y553800D03*
X1626200Y1370000D03*
X1473800D03*
X1626200Y1510000D03*
X1473800D03*
X1710000Y706200D03*
Y553800D03*
G54D23*
X1225000Y1430000D03*
X1175000D03*
X1125000D03*
X1075000D03*
X1025000D03*
X975000D03*
Y1830000D03*
X1025000D03*
X1075000D03*
X1125000D03*
X1175000D03*
X1225000D03*
G54D14*
X520000Y1700000D03*
Y2000000D03*
G54D24*
X1100000Y1630000D03*
G54D15*
X690000Y370000D03*
X840000D03*
X1140000D03*
X1290000D03*
X2160000D03*
X2310000D03*
X2610000D03*
X2760000D03*
G54D16*
X596000Y668000D03*
Y1532000D03*
G54D25*
X1340000Y864500D03*
Y917500D03*
Y970500D03*
Y1023500D03*
Y1076500D03*
Y1129500D03*
Y1182500D03*
Y1235500D03*
X1740000Y1182500D03*
Y1129500D03*
Y1076500D03*
Y1023500D03*
Y970500D03*
Y917500D03*
Y864500D03*
Y1235500D03*
G54D26*
X1910000Y755000D03*
Y565000D03*
X2150000Y755000D03*
Y565000D03*
G54D17*
X700000Y780000D03*
Y860000D03*
Y1340000D03*
Y1420000D03*
G54D27*
X1870000Y1425000D03*
Y1490000D03*
Y1555000D03*
Y1620000D03*
Y1685000D03*
Y1750000D03*
Y1815000D03*
X2430000Y1555000D03*
Y1490000D03*
Y1425000D03*
Y1815000D03*
Y1750000D03*
Y1685000D03*
Y1620000D03*
G54D18*
X700000Y925000D03*
Y975000D03*
Y1025000D03*
Y1075000D03*
Y1125000D03*
Y1175000D03*
Y1225000D03*
Y1275000D03*
G54D19*
X910000Y751600D03*
Y548400D03*
X1090000Y751600D03*
Y548400D03*
X1270000Y751600D03*
Y548400D03*
X2370000Y761600D03*
Y558400D03*
X2550000Y761600D03*
Y558400D03*
X2730000Y761600D03*
Y558400D03*
G54D28*
X3165000Y740000D03*
Y1460000D03*
G54D29*
X3160000Y825000D03*
Y875000D03*
Y925000D03*
Y975000D03*
Y1025000D03*
Y1075000D03*
Y1125000D03*
Y1175000D03*
Y1225000D03*
Y1275000D03*
Y1325000D03*
Y1375000D03*
M02*
