G04 ================== begin FILE IDENTIFICATION RECORD ==================*
G04 Layout Name:  HY_IP5328_TEST_V10A.brd*
G04 Film Name:    BOTTOM*
G04 File Format:  Gerber RS274X*
G04 File Origin:  Cadence Allegro 17.2-S045*
G04 Origin Date:  Fri Jan 25 17:29:49 2019*
G04 *
G04 Layer:  BOARD GEOMETRY/OUTLINE*
G04 Layer:  ETCH/BOTTOM*
G04 Layer:  PIN/BOTTOM*
G04 Layer:  VIA CLASS/BOTTOM*
G04 *
G04 Offset:    (0.0000 0.0000)*
G04 Mirror:    No*
G04 Mode:      Positive*
G04 Rotation:  0*
G04 FullContactRelief:  No*
G04 UndefLineWidth:     0.1524*
G04 ================== end FILE IDENTIFICATION RECORD ====================*
%FSLAX55Y55*MOMM*%
%IR0*IPPOS*OFA0.00000B0.00000*MIA0B0*SFA1.00000B1.00000*%
%ADD14C,.762*%
%ADD10C,.6096*%
%ADD16O,2.X1.2*%
%ADD17O,2.4X1.2*%
%ADD15C,1.3*%
%ADD12C,1.8*%
%ADD13C,1.65*%
%ADD11R,1.9X1.9*%
%ADD18C,.1*%
%ADD19C,.2032*%
%ADD20C,.7112*%
%ADD21C,.508*%
%ADD24C,.6328*%
%ADD22C,1.2004*%
%ADD23C,1.5004*%
%ADD26C,2.3164*%
%ADD25C,2.2148*%
G75*
%LPD*%
G75*
G36*
G01X11110000Y8990000D02*
X14430000D01*
Y8600000D01*
X14590000Y8440000D01*
X14990000D01*
Y6510590D01*
G02X14955220Y6496310I-20321J-1D01*
G03X14880000Y6527740I-75225J-74308D01*
G01X14760000D01*
G03X14654260Y6422000I0J-105740D01*
G01Y6421990D01*
G03X14667780Y6370260I105741J4D01*
G02X14650060Y6340000I-17721J-9941D01*
G01X14569940D01*
G02X14552220Y6370260I1J20319D01*
G03X14565740Y6421990I-92221J51734D01*
G01Y6422000D01*
G03X14460000Y6527740I-105740J0D01*
G01X14380000D01*
G03X14274260Y6422000I0J-105740D01*
G03X14343360Y6322810I105741J0D01*
G01X14350000Y6320360D01*
Y5399640D01*
X14343360Y5397190D01*
G03X14274260Y5298000I36641J-99190D01*
G03X14380000Y5192260I105740J0D01*
G01X14460000D01*
G03X14565740Y5298000I0J105740D01*
G01Y5298010D01*
G03X14552220Y5349740I-105741J-4D01*
G02X14569940Y5380000I17721J9941D01*
G01X14650060D01*
G02X14667780Y5349740I-1J-20319D01*
G03X14654260Y5298010I92221J-51734D01*
G01Y5298000D01*
G03X14760000Y5192260I105740J0D01*
G01X14880000D01*
G03X14955220Y5223690I-5J105738D01*
G02X14990000Y5209410I14459J-14279D01*
G01Y580000D01*
X14600000D01*
X14420000Y400000D01*
Y10000D01*
X13606750D01*
G02X13591690Y43950I6J20318D01*
G03X13624840Y129990I-95092J86044D01*
G01Y130000D01*
G03X13368360I-128240J0D01*
G01Y129990D01*
G03X13401510Y43950I128242J4D01*
G02X13386450Y10000I-15066J-13632D01*
G01X12856750D01*
G02X12841690Y43950I6J20318D01*
G03X12874840Y129990I-95092J86044D01*
G01Y130000D01*
G03X12618360I-128240J0D01*
G01Y129990D01*
G03X12651510Y43950I128242J4D01*
G02X12636450Y10000I-15066J-13632D01*
G01X11110000D01*
Y8990000D01*
G37*
%LPC*%
G75*
G36*
G01X12186450Y5801760D02*
X12125740Y5741050D01*
Y5198950D01*
X12458950Y4865740D01*
X14308950D01*
X14345740Y4828950D01*
Y4551050D01*
X13895740Y4101050D01*
Y1661050D01*
X13718950Y1484260D01*
X12791050D01*
X12714260Y1561050D01*
Y1878950D01*
X12801050Y1965740D01*
X13251050D01*
X13324260Y2038950D01*
Y3711050D01*
X13271050Y3764260D01*
X12321050D01*
X12214260Y3871050D01*
Y4511050D01*
X11674260Y5051050D01*
Y6798950D01*
X12171050Y7295740D01*
X14488950D01*
X14545740Y7238950D01*
Y6961050D01*
X14488950Y6904260D01*
X14321050D01*
X14281050Y6944260D01*
X12608950D01*
X12460740Y6796050D01*
Y5901050D01*
X12361450Y5801760D01*
X12186450D01*
G37*
G36*
G01X11911020Y4285440D02*
G03X11917390Y4316080I-9501J17957D01*
G02X11886580Y4404000I110013J87911D01*
G02X12168220I140820J0D01*
G02X12137410Y4316080I-140823J-9D01*
G03X12143780Y4285440I15871J-12683D01*
G02X12168140Y4245000I-21387J-40440D01*
G01Y4055000D01*
G02X12122400Y4009260I-45740J0D01*
G01X11932400D01*
G02X11886660Y4055000I0J45740D01*
G01Y4245000D01*
G02X11911020Y4285440I45747J0D01*
G37*
G36*
G01X12373940Y5082640D02*
Y5533540D01*
X12373310Y5535250D01*
G02X12368860Y5560000I66687J24765D01*
G02X12511140I71140J0D01*
G02X12506690Y5535250I-71137J15D01*
G01X12506060Y5533540D01*
Y5137360D01*
X12607360Y5036060D01*
X14853540D01*
X14855250Y5036690D01*
G02X14880000Y5041140I24765J-66687D01*
G02Y4898860I0J-71140D01*
G02X14855250Y4903310I15J71137D01*
G01X14853540Y4903940D01*
X12552640D01*
X12373940Y5082640D01*
G37*
G36*
G01X12519780Y3209180D02*
G02X12470000Y3331140I-49780J50821D01*
G02X12519780Y3310820I0J-71136D01*
G01X13170220D01*
G02X13220000Y3331140I49780J-50816D01*
G02Y3188860I0J-71140D01*
G02X13170220Y3209180I0J71136D01*
G01X12519780D01*
G37*
G36*
G01X12599780Y3499180D02*
G02X12550000Y3621140I-49780J50821D01*
G02X12599780Y3600820I0J-71136D01*
G01X13060220D01*
G02X13110000Y3621140I49780J-50816D01*
G02Y3478860I0J-71140D01*
G02X13060220Y3499180I0J71136D01*
G01X12599780D01*
G37*
G36*
G01X13959180Y6451050D02*
Y6740220D01*
G02X13938860Y6790000I50816J49780D01*
G02X14010000Y6861140I71140J0D01*
G02X14056900Y6843490I0J-71137D01*
G02X14103800Y6861140I46900J-53487D01*
G02X14174940Y6790000I0J-71140D01*
G02X14154620Y6740220I-71136J0D01*
G01Y6446180D01*
X14058800Y6350360D01*
G03X14073230Y6315740I14436J-14300D01*
G01X14188950D01*
X14235740Y6268950D01*
Y6101050D01*
X14220210Y6085520D01*
X14195340Y6060650D01*
G03X14198890Y6029570I14663J-14068D01*
G02X14231140Y5970000I-38892J-59570D01*
G02X14190890Y5905920I-71134J0D01*
G02X14191140Y5900000I-70888J-5959D01*
G02X14120000Y5828860I-71140J0D01*
G01X14119990D01*
G02X14086950Y5837000I4J71141D01*
G01X14080330Y5840480D01*
X13991240Y5751390D01*
X13991000Y5747560D01*
G02X13920000Y5680880I-71000J4460D01*
G02X13848860Y5752020I0J71140D01*
G02X13870140Y5802760I71132J0D01*
G03Y5817250I-7126J7245D01*
G02X13848860Y5867990I49852J50740D01*
G02X13920000Y5939130I71140J0D01*
G01X13920010D01*
G02X13956410Y5929110I-4J-71142D01*
G01X13963200Y5925060D01*
X14058960Y6020820D01*
X14103810D01*
G03X14113420Y6034280I2J10159D01*
G01X14109990Y6044260D01*
X13991250D01*
X13991140Y6034210D01*
G02X13920000Y5963860I-71140J794D01*
G02X13870220Y5984180I0J71136D01*
G01X13806050D01*
X13790820Y5968950D01*
Y5769780D01*
G02X13811140Y5720000I-50816J-49780D01*
G02X13745160Y5649050I-71137J0D01*
G03X13735740Y5638910I741J-10134D01*
G01Y5588950D01*
X13798950Y5525740D01*
X14118950D01*
X14175740Y5468950D01*
Y5261050D01*
X14108950Y5194260D01*
X14071370D01*
G03X14051060Y5173430I4J-20320D01*
G02X14051140Y5170000I-71061J-3373D01*
G02X13980000Y5098860I-71140J0D01*
G02X13930220Y5119180I0J71136D01*
G01X13039780D01*
G02X12990000Y5098860I-49780J50816D01*
G02X12919410Y5161170I0J71140D01*
G03X12884950Y5173080I-20162J-2528D01*
G01X12881240Y5169370D01*
X12881000Y5165540D01*
G02X12810000Y5098860I-71000J4460D01*
G02X12738860Y5170000I0J71140D01*
G02X12754900Y5215000I71143J0D01*
G02X12738860Y5260000I55103J45000D01*
G02X12805540Y5331000I71140J0D01*
G01X12809370Y5331240D01*
X12898950Y5420820D01*
X13338950D01*
X13359180Y5441050D01*
Y6251050D01*
X13437770Y6329640D01*
G03X13423340Y6364260I-14436J14300D01*
G01X12898950D01*
X12865740Y6331050D01*
Y5981050D01*
X12818950Y5934260D01*
X12611050D01*
X12564260Y5981050D01*
Y6548950D01*
X12691050Y6675740D01*
X13768950D01*
X13825740Y6618950D01*
Y6410820D01*
X13918950D01*
X13959180Y6451050D01*
G37*
G36*
G01X11896660Y8445000D02*
Y8635000D01*
G02X11942400Y8680740I45740J0D01*
G01X12132400D01*
G02X12178140Y8635000I0J-45740D01*
G01Y8445000D01*
G02X12153780Y8404560I-45747J0D01*
G03X12147410Y8373920I9501J-17957D01*
G02X12178220Y8286020I-110013J-87911D01*
G01Y8286000D01*
G02X12138160Y8187630I-140807J0D01*
G01X12138040Y8187510D01*
X12090820Y8135710D01*
Y7981050D01*
X12201050Y7870820D01*
X13710220D01*
G02X13760000Y7891140I49780J-50816D01*
G02Y7748860I0J-71140D01*
G02X13710220Y7769180I0J71136D01*
G01X12158950D01*
X11989180Y7938950D01*
Y8135080D01*
X11938880Y8185380D01*
G02X11896580Y8286000I98524J100620D01*
G01Y8286020D01*
G02X11927390Y8373920I140823J-11D01*
G03X11921020Y8404560I-15871J12683D01*
G02X11896660Y8445000I21387J40440D01*
G37*
G54D24*
X14550000Y7600000D03*
Y8000000D03*
G54D22*
X13006600Y160000D03*
X13236600D03*
G54D23*
X14030000Y1170000D03*
Y1670000D03*
Y3480000D03*
Y3980000D03*
G54D26*
X14310000Y2443000D03*
G54D25*
Y2697000D03*
%LPD*%
G75*
G36*
G01X12190000Y7250000D02*
X14470000D01*
X14500000Y7220000D01*
Y6980000D01*
X14470000Y6950000D01*
X14340000D01*
X14300000Y6990000D01*
X12590000D01*
X12415000Y6815000D01*
Y5920000D01*
X12342500Y5847500D01*
X12167500D01*
X12080000Y5760000D01*
Y5180000D01*
X12440000Y4820000D01*
X12557290D01*
X12558130Y4819860D01*
G03X12570000Y4818860I11886J70139D01*
G03X12581870Y4819860I-16J71139D01*
G01X12582710Y4820000D01*
X12667290D01*
X12668130Y4819860D01*
G03X12680000Y4818860I11886J70139D01*
G03X12691870Y4819860I-16J71139D01*
G01X12692710Y4820000D01*
X12797290D01*
X12798130Y4819860D01*
G03X12810000Y4818860I11886J70139D01*
G03X12821870Y4819860I-16J71139D01*
G01X12822710Y4820000D01*
X12927290D01*
X12928130Y4819860D01*
G03X12940000Y4818860I11886J70139D01*
G03X12951870Y4819860I-16J71139D01*
G01X12952710Y4820000D01*
X14290000D01*
X14300000Y4810000D01*
Y4570000D01*
X13850000Y4120000D01*
Y1680000D01*
X13700000Y1530000D01*
X12810000D01*
X12760000Y1580000D01*
Y1860000D01*
X12820000Y1920000D01*
X13270000D01*
X13370000Y2020000D01*
Y3730000D01*
X13290000Y3810000D01*
X12340000D01*
X12260000Y3890000D01*
Y4530000D01*
X11720000Y5070000D01*
Y6780000D01*
X12190000Y7250000D01*
G37*
G36*
G01X12047510Y8163640D02*
X12101360Y8222700D01*
X12037340Y8288540D01*
X11973770Y8222360D01*
X12032820Y8163310D01*
G03X12047510Y8163640I7187J7180D01*
G37*
G36*
G01X12585920Y3557180D02*
X12571550Y3571550D01*
X12547460Y3550000D01*
X12571550Y3528450D01*
X12585920Y3542820D01*
G03Y3557180I-7180J7180D01*
G37*
G36*
G01X12505920Y3267180D02*
X12491550Y3281550D01*
X12467460Y3260000D01*
X12491550Y3238450D01*
X12505920Y3252820D01*
G03Y3267180I-7180J7180D01*
G37*
G36*
G01X13074080Y3542820D02*
X13088450Y3528450D01*
X13112540Y3550000D01*
X13088450Y3571550D01*
X13074080Y3557180D01*
G03Y3542820I7180J-7180D01*
G37*
G36*
G01X13025920Y5267180D02*
X13011550Y5281550D01*
X12987460Y5260000D01*
X13011550Y5238450D01*
X13025920Y5252820D01*
G03Y5267180I-7180J7180D01*
G37*
G36*
G01Y5177180D02*
X13011550Y5191550D01*
X12987460Y5170000D01*
X13011550Y5148450D01*
X13025920Y5162820D01*
G03Y5177180I-7180J7180D01*
G37*
G36*
G01X12830320Y5200480D02*
X12810000D01*
X12808200Y5168200D01*
X12840480Y5170000D01*
Y5190320D01*
G03X12830320Y5200480I-10160J0D01*
G37*
G36*
G01Y5290480D02*
X12810000D01*
X12808200Y5258200D01*
X12840480Y5260000D01*
Y5280320D01*
G03X12830320Y5290480I-10160J0D01*
G37*
G36*
G01X12710000Y6630000D02*
X13750000D01*
X13780000Y6600000D01*
Y6430000D01*
X13760820Y6410820D01*
X13518950D01*
X13518130Y6410000D01*
X12880000D01*
X12820000Y6350000D01*
Y6000000D01*
X12800000Y5980000D01*
X12630000D01*
X12610000Y6000000D01*
Y6530000D01*
X12710000Y6630000D01*
G37*
G36*
G01X13184080Y3252820D02*
X13198450Y3238450D01*
X13222540Y3260000D01*
X13198450Y3281550D01*
X13184080Y3267180D01*
G03Y3252820I7180J-7180D01*
G37*
G36*
G01X13690000Y6011870D02*
X13689180Y6011050D01*
Y5769780D01*
G03X13669420Y5728890I50821J-49779D01*
G01X13669260Y5727640D01*
G03X13668850Y5720000I70741J-7627D01*
G03X13690000Y5669380I71151J0D01*
G01Y5570000D01*
X13780000Y5480000D01*
X14100000D01*
X14130000Y5450000D01*
Y5280000D01*
X14090000Y5240000D01*
X13992710D01*
X13991870Y5240140D01*
G03X13980000Y5241140I-11886J-70139D01*
G03X13968130Y5240140I16J-71139D01*
G01X13967290Y5240000D01*
X13640000D01*
X13500820Y5379180D01*
Y6140820D01*
X13629180Y6269180D01*
X13977620D01*
X13978440Y6270000D01*
X14170000D01*
X14190000Y6250000D01*
Y6120000D01*
X14160000Y6090000D01*
X13965120D01*
G03X13874880I-45120J-54997D01*
G01X13740000D01*
X13690000Y6040000D01*
Y6011870D01*
G37*
G36*
G01X13944080Y5162820D02*
X13958450Y5148450D01*
X13982540Y5170000D01*
X13958450Y5191550D01*
X13944080Y5177180D01*
G03Y5162820I7180J-7180D01*
G37*
G36*
G01X13732820Y5755920D02*
X13718450Y5741550D01*
X13740000Y5717460D01*
X13761550Y5741550D01*
X13747180Y5755920D01*
G03X13732820I-7180J-7180D01*
G37*
G36*
G01X13940320Y5782500D02*
X13920000D01*
X13918200Y5750220D01*
X13950480Y5752020D01*
Y5772340D01*
G03X13940320Y5782500I-10160J0D01*
G37*
G36*
G01X13884080Y6027820D02*
X13898450Y6013450D01*
X13922540Y6035000D01*
X13898450Y6056550D01*
X13884080Y6042180D01*
G03Y6027820I7180J-7180D01*
G37*
G36*
G01X14084080Y5892820D02*
X14098450Y5878450D01*
X14122540Y5900000D01*
X14098450Y5921550D01*
X14084080Y5907180D01*
G03Y5892820I7180J-7180D01*
G37*
G36*
G01X13955920Y5875170D02*
X13941550Y5889540D01*
X13917460Y5867990D01*
X13941550Y5846440D01*
X13955920Y5860810D01*
G03Y5875170I-7180J7180D01*
G37*
G36*
G01X14124080Y5962820D02*
X14138450Y5948450D01*
X14162540Y5970000D01*
X14138450Y5991550D01*
X14124080Y5977180D01*
G03Y5962820I7180J-7180D01*
G37*
G36*
G01X14110980Y6754080D02*
X14125350Y6768450D01*
X14103800Y6792540D01*
X14082250Y6768450D01*
X14096620Y6754080D01*
G03X14110980I7180J7180D01*
G37*
G36*
G01X14017180D02*
X14031550Y6768450D01*
X14010000Y6792540D01*
X13988450Y6768450D01*
X14002820Y6754080D01*
G03X14017180I7180J7180D01*
G37*
G36*
G01X13724080Y7812820D02*
X13738450Y7798450D01*
X13762540Y7820000D01*
X13738450Y7841550D01*
X13724080Y7827180D01*
G03Y7812820I7180J-7180D01*
G37*
G54D10*
X11190000Y80000D03*
X11555460Y115250D03*
X11194620Y466110D03*
X11190000Y280000D03*
X11555460Y515250D03*
X11194620Y686110D03*
Y876110D03*
Y1076110D03*
X11555460Y915250D03*
X11184620Y1686110D03*
X11194620Y1276110D03*
Y1476110D03*
X11555460Y1315250D03*
X11184620Y1906110D03*
Y2096110D03*
X11555460Y2115250D03*
X11184620Y2496110D03*
Y2296110D03*
Y2696110D03*
X11555460Y2515250D03*
X11184620Y2916110D03*
Y3136110D03*
X11555460Y2915250D03*
X11184620Y3726110D03*
Y3326110D03*
Y3526110D03*
X11555460Y3715250D03*
Y3315250D03*
X11174620Y4166110D03*
X11184620Y3926110D03*
X11174620Y4386110D03*
Y4576110D03*
Y4776110D03*
Y4976110D03*
Y5176110D03*
Y5396110D03*
Y5616110D03*
Y5806110D03*
Y6206110D03*
Y6006110D03*
Y6636110D03*
Y6856110D03*
Y6406110D03*
Y7046110D03*
Y7246110D03*
Y7886110D03*
Y7446110D03*
Y7646110D03*
Y8296110D03*
Y8106110D03*
Y8896110D03*
Y8496110D03*
Y8696110D03*
X11955460Y115250D03*
Y515250D03*
Y915250D03*
Y1315250D03*
Y2115250D03*
Y1715250D03*
Y2515250D03*
Y2915250D03*
Y3715250D03*
Y3315250D03*
X11890000Y6020000D03*
X11960000D03*
Y6090000D03*
X12030000D03*
Y6020000D03*
X11684620Y7886110D03*
Y8296110D03*
Y8106110D03*
Y8496110D03*
Y8896110D03*
Y8696110D03*
X12355460Y115250D03*
Y515250D03*
Y915250D03*
Y1315250D03*
Y2115250D03*
Y1715250D03*
Y2515250D03*
Y2915250D03*
X12470000Y3260000D03*
X12355460Y3715250D03*
Y3315250D03*
X12550000Y3550000D03*
X12230000Y5140000D03*
X12300000D03*
X12460000Y4940000D03*
X12570000Y4890000D03*
X12230000Y5510000D03*
Y5350000D03*
X12570000Y5690000D03*
X12440000Y5560000D03*
X12100000Y6090000D03*
Y6020000D03*
X12170000Y6090000D03*
Y6020000D03*
X12240000Y6090000D03*
Y6020000D03*
X12310000D03*
Y5950000D03*
X12380000D03*
X12510000Y6790000D03*
X12600000D03*
Y6870000D03*
X12384430Y8226950D03*
Y8626950D03*
Y8926950D03*
X12910000Y1700000D03*
X13010000Y1697320D03*
Y1623660D03*
X13110000Y1697320D03*
Y1623660D03*
X12993400Y2224740D03*
X12810000Y1860000D03*
Y1783660D03*
X12910000Y1780000D03*
Y1860000D03*
X13010000Y1780000D03*
X12993400Y2624740D03*
Y3024740D03*
X13110000Y3550000D03*
X13096340Y4080000D03*
X13022680D03*
X12949020D03*
X13096340Y3990000D03*
X13022680D03*
X12949020D03*
X13096340Y3890000D03*
X13022680D03*
X12949020D03*
X12670000Y5170000D03*
Y5080000D03*
X12870000D03*
X13030000D03*
X12680000Y4890000D03*
X12810000D03*
X12940000D03*
X12990000Y5260000D03*
Y5170000D03*
X12810000D03*
Y5260000D03*
X12640000Y6030000D03*
Y6100000D03*
X12710000Y6030000D03*
Y6100000D03*
X12780000D03*
Y6030000D03*
X12690000Y6790000D03*
X12784430Y8626950D03*
Y8926950D03*
X13220000Y3260000D03*
X13590000Y6770000D03*
X13190000Y8220000D03*
Y8630000D03*
Y8940000D03*
X14150000Y4629020D03*
X14050000D03*
X14150000Y4702680D03*
X14050000D03*
X14150000Y4776340D03*
X14050000D03*
X13880300Y5292740D03*
X13980000Y5290000D03*
X14080000Y5292680D03*
X13980000Y5170000D03*
X13877320Y5440000D03*
Y5366340D03*
X14080000Y5440000D03*
Y5366340D03*
X13740000Y5720000D03*
X13920000Y5752020D03*
X13930000Y6230000D03*
Y6150000D03*
X14003660D03*
Y6230000D03*
X14077320D03*
Y6150000D03*
X14147320Y6230000D03*
Y6150000D03*
X13920000Y6035000D03*
X14120000Y5900000D03*
X14160000Y5970000D03*
X13920000Y5867990D03*
X13930000Y6470000D03*
Y6590000D03*
Y6720000D03*
X13670000Y6870000D03*
X14103800Y6790000D03*
X14010000D03*
X13650000Y6590000D03*
X13720000D03*
X13650000Y6520000D03*
X13720000D03*
Y6450000D03*
X13650000D03*
X13930000Y6900000D03*
X13950000Y7600000D03*
X13760000Y7820000D03*
X13794430Y8006950D03*
X14044430Y8466950D03*
X14249230Y1185160D03*
Y1585160D03*
X14328900Y3199810D03*
Y3599810D03*
Y3999810D03*
X14680000Y4580000D03*
X14520000D03*
X14250000Y4776340D03*
Y4702680D03*
Y4629020D03*
X14680000Y5110000D03*
X14520000D03*
X14680000Y4840000D03*
X14520000D03*
X14370000Y5110000D03*
X14250000Y5450000D03*
Y5360000D03*
X14290000Y6290000D03*
X14200000Y6380000D03*
Y6490000D03*
Y6600000D03*
Y6720000D03*
X14340000Y6600000D03*
Y6720000D03*
X14360000Y7210000D03*
X14460000D03*
Y7136340D03*
X14360000D03*
X14460000Y7062680D03*
X14360000D03*
X14460000Y6989020D03*
X14360000D03*
X14194430Y8006950D03*
X14444430Y8466950D03*
X14870000Y5110000D03*
X14880000Y4970000D03*
X14755710Y6788990D03*
Y7188990D03*
X14756950Y7615570D03*
Y8015570D03*
G54D20*
G01X12027400Y3999100D02*
Y4150000D01*
G01X11876500D02*
X12027400D01*
G01D02*
X12178300D01*
G01X12037400Y8540000D02*
Y8690900D01*
G01X11886500Y8540000D02*
X12037400D01*
G01D02*
X12188300D01*
G01X12746600Y130000D02*
Y268400D01*
G01X12608200Y130000D02*
X12746600D01*
G01D02*
X12885000D01*
G01X13496600D02*
Y268400D01*
G01X13358200Y130000D02*
X13496600D01*
G01D02*
X13635000D01*
G01X14310000Y2576100D02*
Y2697000D01*
G01D02*
Y2817900D01*
G01X14189100Y2697000D02*
X14310000D01*
G01D02*
X14430900D01*
G01X14644100Y5298000D02*
X14820000D01*
G01X14420000Y5182100D02*
Y5298000D01*
G01X14264100D02*
X14420000D01*
G01D02*
X14575900D01*
G01X14420000Y6422000D02*
Y6537900D01*
G01X14264100Y6422000D02*
X14420000D01*
G01D02*
X14575900D01*
G01X14644100D02*
X14820000D01*
G01Y5182100D02*
Y5298000D01*
G01Y6422000D02*
Y6537900D01*
G54D11*
X12027400Y4150000D03*
X12037400Y8540000D03*
G54D21*
G01X14880000Y4970000D02*
X12580000D01*
X12440000Y5110000D01*
Y5560000D01*
G54D12*
X12027400Y4404000D03*
X12037400Y8286000D03*
G54D13*
X12746600Y130000D03*
X13496600D03*
G54D14*
X13030000Y5790000D03*
Y5680000D03*
Y6020000D03*
Y5910000D03*
X13170000Y5790000D03*
X13310000D03*
X13170000Y5680000D03*
X13310000D03*
X13170000Y6020000D03*
X13310000D03*
X13170000Y5910000D03*
X13310000D03*
G54D15*
X14310000Y2697000D03*
Y2443000D03*
G54D16*
X14420000Y5298000D03*
Y6422000D03*
G54D17*
X14820000Y5298000D03*
Y6422000D03*
G54D18*
G01X260000Y0D02*
G02X0Y260000I0J260000D01*
G01Y8740000D01*
G02X260000Y9000000I260000J0D01*
G01X14740000D01*
G02X15000000Y8740000I0J-260000D01*
G01Y6390000D01*
G02X14940000Y6330000I-60000J0D01*
G01X14360000D01*
Y5390000D01*
G01X420000Y260000D02*
G03I-160000J0D01*
G01Y8740000D02*
G03I-160000J0D01*
G01X260000Y0D02*
X14740000D01*
G03X15000000Y260000I0J260000D01*
G01Y5330000D01*
G03X14940000Y5390000I-60000J0D01*
G01X14360000D01*
G01X13056600Y160000D02*
G03I-50000J0D01*
G01X13286600D02*
G03I-50000J0D01*
G01X14100000Y1170000D02*
G03I-70000J0D01*
G01Y1670000D02*
G03I-70000J0D01*
G01Y3480000D02*
G03I-70000J0D01*
G01Y3980000D02*
G03I-70000J0D01*
G01X14900000Y260000D02*
G03I-160000J0D01*
G01X14580000Y7600000D02*
G03I-30000J0D01*
G01Y8000000D02*
G03I-30000J0D01*
G01X14900000Y8740000D02*
G03I-160000J0D01*
G54D19*
G01X13760000Y7820000D02*
X12180000D01*
X12040000Y7960000D01*
Y8283400D01*
X12037400Y8286000D01*
G01X12550000Y3550000D02*
X13110000D01*
G01X13220000Y3260000D02*
X12470000D01*
G01X13580000Y5330000D02*
X13510000Y5260000D01*
X12990000D01*
G01Y5170000D02*
X13980000D01*
G01X14103800Y6790000D02*
Y6467230D01*
X13956570Y6320000D01*
X13556570D01*
X13450000Y6213430D01*
Y5403430D01*
X13376570Y5330000D01*
X12970000D01*
X12810000Y5170000D01*
G01X14010000Y6790000D02*
Y6430000D01*
X13940000Y6360000D01*
X13540000D01*
X13410000Y6230000D01*
Y5420000D01*
X13360000Y5370000D01*
X12920000D01*
X12810000Y5260000D01*
G01X13920000Y6035000D02*
X13785000D01*
X13740000Y5990000D01*
Y5720000D01*
G01X14120000Y5900000D02*
X14067980D01*
X13920000Y5752020D01*
G01X14160000Y5970000D02*
X14080010D01*
X13978000Y5867990D01*
X13920000D01*
M02*
