G04 ================== begin FILE IDENTIFICATION RECORD ==================*
G04 Layout Name:  HY_IP5328_TEST_V10A.brd*
G04 Film Name:    Drill_Legend*
G04 File Format:  Gerber RS274X*
G04 File Origin:  Cadence Allegro 17.2-S045*
G04 Origin Date:  Fri Jan 25 17:29:49 2019*
G04 *
G04 Layer:  MANUFACTURING/NCLEGEND-1-2*
G04 Layer:  MANUFACTURING/NCDRILL_LEGEND*
G04 Layer:  MANUFACTURING/NCDRILL_FIGURE*
G04 Layer:  BOARD GEOMETRY/DIMENSION*
G04 Layer:  BOARD GEOMETRY/OUTLINE*
G04 *
G04 Offset:    (0.0000 0.0000)*
G04 Mirror:    No*
G04 Mode:      Positive*
G04 Rotation:  0*
G04 FullContactRelief:  No*
G04 UndefLineWidth:     0.1524*
G04 ================== end FILE IDENTIFICATION RECORD ====================*
%FSLAX55Y55*MOMM*%
%IR0*IPPOS*OFA0.00000B0.00000*MIA0B0*SFA1.00000B1.00000*%
%AMMACRO15*
1,1,.1524,-.4,.3*
20,1,.1524,-.4,.3,.4,.3,0.0*
1,1,.1524,.4,.3*
20,1,.1524,.4,.3,.452094,.295442,0.0*
1,1,.1524,.452094,.295442*
20,1,.1524,.452094,.295442,.502606,.281908,0.0*
1,1,.1524,.502606,.281908*
20,1,.1524,.502606,.281908,.55,.259808,0.0*
1,1,.1524,.55,.259808*
20,1,.1524,.55,.259808,.592836,.229813,0.0*
1,1,.1524,.592836,.229813*
20,1,.1524,.592836,.229813,.629813,.192836,0.0*
1,1,.1524,.629813,.192836*
20,1,.1524,.629813,.192836,.659808,.15,0.0*
1,1,.1524,.659808,.15*
20,1,.1524,.659808,.15,.681908,.102606,0.0*
1,1,.1524,.681908,.102606*
20,1,.1524,.681908,.102606,.695442,.052094,0.0*
1,1,.1524,.695442,.052094*
20,1,.1524,.695442,.052094,.7,0.0,0.0*
1,1,.1524,.7,0.0*
20,1,.1524,.7,0.0,.695442,-.052094,0.0*
1,1,.1524,.695442,-.052094*
20,1,.1524,.695442,-.052094,.681908,-.102606,0.0*
1,1,.1524,.681908,-.102606*
20,1,.1524,.681908,-.102606,.659808,-.15,0.0*
1,1,.1524,.659808,-.15*
20,1,.1524,.659808,-.15,.629813,-.192836,0.0*
1,1,.1524,.629813,-.192836*
20,1,.1524,.629813,-.192836,.592836,-.229813,0.0*
1,1,.1524,.592836,-.229813*
20,1,.1524,.592836,-.229813,.55,-.259808,0.0*
1,1,.1524,.55,-.259808*
20,1,.1524,.55,-.259808,.502606,-.281908,0.0*
1,1,.1524,.502606,-.281908*
20,1,.1524,.502606,-.281908,.452094,-.295442,0.0*
1,1,.1524,.452094,-.295442*
20,1,.1524,.452094,-.295442,.4,-.3,0.0*
1,1,.1524,.4,-.3*
20,1,.1524,.4,-.3,-.4,-.3,0.0*
1,1,.1524,-.4,-.3*
20,1,.1524,-.4,-.3,-.452094,-.295442,0.0*
1,1,.1524,-.452094,-.295442*
20,1,.1524,-.452094,-.295442,-.502606,-.281908,0.0*
1,1,.1524,-.502606,-.281908*
20,1,.1524,-.502606,-.281908,-.55,-.259808,0.0*
1,1,.1524,-.55,-.259808*
20,1,.1524,-.55,-.259808,-.592836,-.229813,0.0*
1,1,.1524,-.592836,-.229813*
20,1,.1524,-.592836,-.229813,-.629813,-.192836,0.0*
1,1,.1524,-.629813,-.192836*
20,1,.1524,-.629813,-.192836,-.659808,-.15,0.0*
1,1,.1524,-.659808,-.15*
20,1,.1524,-.659808,-.15,-.681908,-.102606,0.0*
1,1,.1524,-.681908,-.102606*
20,1,.1524,-.681908,-.102606,-.695442,-.052094,0.0*
1,1,.1524,-.695442,-.052094*
20,1,.1524,-.695442,-.052094,-.7,0.0,0.0*
1,1,.1524,-.7,0.0*
20,1,.1524,-.7,0.0,-.695442,.052094,0.0*
1,1,.1524,-.695442,.052094*
20,1,.1524,-.695442,.052094,-.681908,.102606,0.0*
1,1,.1524,-.681908,.102606*
20,1,.1524,-.681908,.102606,-.659808,.15,0.0*
1,1,.1524,-.659808,.15*
20,1,.1524,-.659808,.15,-.629813,.192836,0.0*
1,1,.1524,-.629813,.192836*
20,1,.1524,-.629813,.192836,-.592836,.229813,0.0*
1,1,.1524,-.592836,.229813*
20,1,.1524,-.592836,.229813,-.55,.259808,0.0*
1,1,.1524,-.55,.259808*
20,1,.1524,-.55,.259808,-.502606,.281908,0.0*
1,1,.1524,-.502606,.281908*
20,1,.1524,-.502606,.281908,-.452094,.295442,0.0*
1,1,.1524,-.452094,.295442*
20,1,.1524,-.452094,.295442,-.4,.3,0.0*
1,1,.1524,-.4,.3*
1,1,.1524,-.15,-.15*
20,1,.1524,-.15,-.15,-.19,-.145,0.0*
1,1,.1524,-.19,-.145*
20,1,.1524,-.19,-.145,-.225,-.125,0.0*
1,1,.1524,-.225,-.125*
20,1,.1524,-.225,-.125,-.255,-.095,0.0*
1,1,.1524,-.255,-.095*
20,1,.1524,-.255,-.095,-.275,-.06,0.0*
1,1,.1524,-.275,-.06*
20,1,.1524,-.275,-.06,-.285,-.02,0.0*
1,1,.1524,-.285,-.02*
20,1,.1524,-.285,-.02,-.285,.02,0.0*
1,1,.1524,-.285,.02*
20,1,.1524,-.285,.02,-.275,.06,0.0*
1,1,.1524,-.275,.06*
20,1,.1524,-.275,.06,-.255,.095,0.0*
1,1,.1524,-.255,.095*
20,1,.1524,-.255,.095,-.225,.125,0.0*
1,1,.1524,-.225,.125*
20,1,.1524,-.225,.125,-.19,.145,0.0*
1,1,.1524,-.19,.145*
20,1,.1524,-.19,.145,-.15,.15,0.0*
1,1,.1524,-.15,.15*
20,1,.1524,-.15,.15,-.11,.145,0.0*
1,1,.1524,-.11,.145*
20,1,.1524,-.11,.145,-.075,.125,0.0*
1,1,.1524,-.075,.125*
20,1,.1524,-.075,.125,-.045,.095,0.0*
1,1,.1524,-.045,.095*
20,1,.1524,-.045,.095,-.025,.06,0.0*
1,1,.1524,-.025,.06*
20,1,.1524,-.025,.06,-.015,.02,0.0*
1,1,.1524,-.015,.02*
20,1,.1524,-.015,.02,-.015,-.02,0.0*
1,1,.1524,-.015,-.02*
20,1,.1524,-.015,-.02,-.025,-.06,0.0*
1,1,.1524,-.025,-.06*
20,1,.1524,-.025,-.06,-.045,-.095,0.0*
1,1,.1524,-.045,-.095*
20,1,.1524,-.045,-.095,-.075,-.125,0.0*
1,1,.1524,-.075,-.125*
20,1,.1524,-.075,-.125,-.11,-.145,0.0*
1,1,.1524,-.11,-.145*
20,1,.1524,-.11,-.145,-.15,-.15,0.0*
1,1,.1524,-.15,-.15*
1,1,.1524,.0251,-.15*
20,1,.1524,.0251,-.15,.1501,.15,0.0*
1,1,.1524,.1501,.15*
20,1,.1524,.1501,.15,.2751,-.15,0.0*
1,1,.1524,.2751,-.15*
1,1,.1524,.2301,-.045*
20,1,.1524,.2301,-.045,.0701,-.045,0.0*
1,1,.1524,.0701,-.045*
%
%ADD15MACRO15*%
%AMMACRO16*
1,1,.1524,-.6,.3*
20,1,.1524,-.6,.3,.6,.3,0.0*
1,1,.1524,.6,.3*
20,1,.1524,.6,.3,.652094,.295442,0.0*
1,1,.1524,.652094,.295442*
20,1,.1524,.652094,.295442,.702606,.281908,0.0*
1,1,.1524,.702606,.281908*
20,1,.1524,.702606,.281908,.75,.259808,0.0*
1,1,.1524,.75,.259808*
20,1,.1524,.75,.259808,.792836,.229813,0.0*
1,1,.1524,.792836,.229813*
20,1,.1524,.792836,.229813,.829813,.192836,0.0*
1,1,.1524,.829813,.192836*
20,1,.1524,.829813,.192836,.859808,.15,0.0*
1,1,.1524,.859808,.15*
20,1,.1524,.859808,.15,.881908,.102606,0.0*
1,1,.1524,.881908,.102606*
20,1,.1524,.881908,.102606,.895442,.052094,0.0*
1,1,.1524,.895442,.052094*
20,1,.1524,.895442,.052094,.9,0.0,0.0*
1,1,.1524,.9,0.0*
20,1,.1524,.9,0.0,.895442,-.052094,0.0*
1,1,.1524,.895442,-.052094*
20,1,.1524,.895442,-.052094,.881908,-.102606,0.0*
1,1,.1524,.881908,-.102606*
20,1,.1524,.881908,-.102606,.859808,-.15,0.0*
1,1,.1524,.859808,-.15*
20,1,.1524,.859808,-.15,.829813,-.192836,0.0*
1,1,.1524,.829813,-.192836*
20,1,.1524,.829813,-.192836,.792836,-.229813,0.0*
1,1,.1524,.792836,-.229813*
20,1,.1524,.792836,-.229813,.75,-.259808,0.0*
1,1,.1524,.75,-.259808*
20,1,.1524,.75,-.259808,.702606,-.281908,0.0*
1,1,.1524,.702606,-.281908*
20,1,.1524,.702606,-.281908,.652094,-.295442,0.0*
1,1,.1524,.652094,-.295442*
20,1,.1524,.652094,-.295442,.6,-.3,0.0*
1,1,.1524,.6,-.3*
20,1,.1524,.6,-.3,-.6,-.3,0.0*
1,1,.1524,-.6,-.3*
20,1,.1524,-.6,-.3,-.652094,-.295442,0.0*
1,1,.1524,-.652094,-.295442*
20,1,.1524,-.652094,-.295442,-.702606,-.281908,0.0*
1,1,.1524,-.702606,-.281908*
20,1,.1524,-.702606,-.281908,-.75,-.259808,0.0*
1,1,.1524,-.75,-.259808*
20,1,.1524,-.75,-.259808,-.792836,-.229813,0.0*
1,1,.1524,-.792836,-.229813*
20,1,.1524,-.792836,-.229813,-.829813,-.192836,0.0*
1,1,.1524,-.829813,-.192836*
20,1,.1524,-.829813,-.192836,-.859808,-.15,0.0*
1,1,.1524,-.859808,-.15*
20,1,.1524,-.859808,-.15,-.881908,-.102606,0.0*
1,1,.1524,-.881908,-.102606*
20,1,.1524,-.881908,-.102606,-.895442,-.052094,0.0*
1,1,.1524,-.895442,-.052094*
20,1,.1524,-.895442,-.052094,-.9,0.0,0.0*
1,1,.1524,-.9,0.0*
20,1,.1524,-.9,0.0,-.895442,.052094,0.0*
1,1,.1524,-.895442,.052094*
20,1,.1524,-.895442,.052094,-.881908,.102606,0.0*
1,1,.1524,-.881908,.102606*
20,1,.1524,-.881908,.102606,-.859808,.15,0.0*
1,1,.1524,-.859808,.15*
20,1,.1524,-.859808,.15,-.829813,.192836,0.0*
1,1,.1524,-.829813,.192836*
20,1,.1524,-.829813,.192836,-.792836,.229813,0.0*
1,1,.1524,-.792836,.229813*
20,1,.1524,-.792836,.229813,-.75,.259808,0.0*
1,1,.1524,-.75,.259808*
20,1,.1524,-.75,.259808,-.702606,.281908,0.0*
1,1,.1524,-.702606,.281908*
20,1,.1524,-.702606,.281908,-.652094,.295442,0.0*
1,1,.1524,-.652094,.295442*
20,1,.1524,-.652094,.295442,-.6,.3,0.0*
1,1,.1524,-.6,.3*
1,1,.1524,-.15,-.15*
20,1,.1524,-.15,-.15,-.19,-.145,0.0*
1,1,.1524,-.19,-.145*
20,1,.1524,-.19,-.145,-.225,-.125,0.0*
1,1,.1524,-.225,-.125*
20,1,.1524,-.225,-.125,-.255,-.095,0.0*
1,1,.1524,-.255,-.095*
20,1,.1524,-.255,-.095,-.275,-.06,0.0*
1,1,.1524,-.275,-.06*
20,1,.1524,-.275,-.06,-.285,-.02,0.0*
1,1,.1524,-.285,-.02*
20,1,.1524,-.285,-.02,-.285,.02,0.0*
1,1,.1524,-.285,.02*
20,1,.1524,-.285,.02,-.275,.06,0.0*
1,1,.1524,-.275,.06*
20,1,.1524,-.275,.06,-.255,.095,0.0*
1,1,.1524,-.255,.095*
20,1,.1524,-.255,.095,-.225,.125,0.0*
1,1,.1524,-.225,.125*
20,1,.1524,-.225,.125,-.19,.145,0.0*
1,1,.1524,-.19,.145*
20,1,.1524,-.19,.145,-.15,.15,0.0*
1,1,.1524,-.15,.15*
20,1,.1524,-.15,.15,-.11,.145,0.0*
1,1,.1524,-.11,.145*
20,1,.1524,-.11,.145,-.075,.125,0.0*
1,1,.1524,-.075,.125*
20,1,.1524,-.075,.125,-.045,.095,0.0*
1,1,.1524,-.045,.095*
20,1,.1524,-.045,.095,-.025,.06,0.0*
1,1,.1524,-.025,.06*
20,1,.1524,-.025,.06,-.015,.02,0.0*
1,1,.1524,-.015,.02*
20,1,.1524,-.015,.02,-.015,-.02,0.0*
1,1,.1524,-.015,-.02*
20,1,.1524,-.015,-.02,-.025,-.06,0.0*
1,1,.1524,-.025,-.06*
20,1,.1524,-.025,-.06,-.045,-.095,0.0*
1,1,.1524,-.045,-.095*
20,1,.1524,-.045,-.095,-.075,-.125,0.0*
1,1,.1524,-.075,-.125*
20,1,.1524,-.075,-.125,-.11,-.145,0.0*
1,1,.1524,-.11,-.145*
20,1,.1524,-.11,-.145,-.15,-.15,0.0*
1,1,.1524,-.15,-.15*
1,1,.1524,.1901,.01*
20,1,.1524,.1901,.01,.2101,.025,0.0*
1,1,.1524,.2101,.025*
20,1,.1524,.2101,.025,.2251,.05,0.0*
1,1,.1524,.2251,.05*
20,1,.1524,.2251,.05,.2351,.085,0.0*
1,1,.1524,.2351,.085*
20,1,.1524,.2351,.085,.2251,.115,0.0*
1,1,.1524,.2251,.115*
20,1,.1524,.2251,.115,.2051,.135,0.0*
1,1,.1524,.2051,.135*
20,1,.1524,.2051,.135,.1701,.15,0.0*
1,1,.1524,.1701,.15*
20,1,.1524,.1701,.15,.0351,.15,0.0*
1,1,.1524,.0351,.15*
20,1,.1524,.0351,.15,.0351,-.15,0.0*
1,1,.1524,.0351,-.15*
20,1,.1524,.0351,-.15,.2001,-.15,0.0*
1,1,.1524,.2001,-.15*
20,1,.1524,.2001,-.15,.2351,-.13,0.0*
1,1,.1524,.2351,-.13*
20,1,.1524,.2351,-.13,.2551,-.1,0.0*
1,1,.1524,.2551,-.1*
20,1,.1524,.2551,-.1,.2651,-.065,0.0*
1,1,.1524,.2651,-.065*
20,1,.1524,.2651,-.065,.2551,-.03,0.0*
1,1,.1524,.2551,-.03*
20,1,.1524,.2551,-.03,.2251,0.0,0.0*
1,1,.1524,.2251,0.0*
20,1,.1524,.2251,0.0,.1901,.01,0.0*
1,1,.1524,.1901,.01*
20,1,.1524,.1901,.01,.0351,.01,0.0*
1,1,.1524,.0351,.01*
%
%ADD16MACRO16*%
%AMMACRO10*
1,1,.1524,.1524,0.0*
20,1,.1524,.1524,0.0,-.1524,0.0,0.0*
1,1,.1524,-.1524,0.0*
1,1,.1524,0.0,.1524*
20,1,.1524,0.0,.1524,0.0,-.1524,0.0*
1,1,.1524,0.0,-.1524*
%
%ADD10MACRO10*%
%AMMACRO13*
1,1,.1524,.2286,.2286*
20,1,.1524,.2286,.2286,.2286,-.2286,0.0*
1,1,.1524,.2286,-.2286*
20,1,.1524,.2286,-.2286,-.2286,-.2286,0.0*
1,1,.1524,-.2286,-.2286*
20,1,.1524,-.2286,-.2286,-.2286,.2286,0.0*
1,1,.1524,-.2286,.2286*
20,1,.1524,-.2286,.2286,.2286,.2286,0.0*
1,1,.1524,.2286,.2286*
%
%ADD13MACRO13*%
%AMMACRO12*
1,1,.1524,0.0,.5*
20,1,.1524,0.0,.5,-.433013,.25,0.0*
1,1,.1524,-.433013,.25*
20,1,.1524,-.433013,.25,-.433013,-.25,0.0*
1,1,.1524,-.433013,-.25*
20,1,.1524,-.433013,-.25,0.0,-.5,0.0*
1,1,.1524,0.0,-.5*
20,1,.1524,0.0,-.5,.433013,-.25,0.0*
1,1,.1524,.433013,-.25*
20,1,.1524,.433013,-.25,.433013,.25,0.0*
1,1,.1524,.433013,.25*
20,1,.1524,.433013,.25,0.0,.5,0.0*
1,1,.1524,0.0,.5*
%
%ADD12MACRO12*%
%AMMACRO14*
1,1,.1524,.4,0.0*
20,1,.1524,.4,0.0,.2,.34641,0.0*
1,1,.1524,.2,.34641*
20,1,.1524,.2,.34641,-.2,.34641,0.0*
1,1,.1524,-.2,.34641*
20,1,.1524,-.2,.34641,-.4,0.0,0.0*
1,1,.1524,-.4,0.0*
20,1,.1524,-.4,0.0,-.2,-.34641,0.0*
1,1,.1524,-.2,-.34641*
20,1,.1524,-.2,-.34641,.2,-.34641,0.0*
1,1,.1524,.2,-.34641*
20,1,.1524,.2,-.34641,.4,0.0,0.0*
1,1,.1524,.4,0.0*
%
%ADD14MACRO14*%
%AMMACRO11*
1,1,.1524,.227817,-.55*
20,1,.1524,.227817,-.55,-.227817,-.55,0.0*
1,1,.1524,-.227817,-.55*
20,1,.1524,-.227817,-.55,-.55,-.227817,0.0*
1,1,.1524,-.55,-.227817*
20,1,.1524,-.55,-.227817,-.55,.227817,0.0*
1,1,.1524,-.55,.227817*
20,1,.1524,-.55,.227817,-.227817,.55,0.0*
1,1,.1524,-.227817,.55*
20,1,.1524,-.227817,.55,.227817,.55,0.0*
1,1,.1524,.227817,.55*
20,1,.1524,.227817,.55,.55,.227817,0.0*
1,1,.1524,.55,.227817*
20,1,.1524,.55,.227817,.55,-.227817,0.0*
1,1,.1524,.55,-.227817*
20,1,.1524,.55,-.227817,.227817,-.55,0.0*
1,1,.1524,.227817,-.55*
%
%ADD11MACRO11*%
%ADD17C,.1*%
%ADD18C,.1524*%
G75*
%LPD*%
G75*
G54D10*
X11190000Y80000D03*
X11555460Y115250D03*
X11194620Y466110D03*
X11190000Y280000D03*
X11555460Y515250D03*
X11194620Y686110D03*
Y876110D03*
Y1076110D03*
X11555460Y915250D03*
X11184620Y1686110D03*
X11194620Y1276110D03*
Y1476110D03*
X11555460Y1315250D03*
X11184620Y1906110D03*
Y2096110D03*
X11555460Y2115250D03*
X11184620Y2496110D03*
Y2296110D03*
Y2696110D03*
X11555460Y2515250D03*
X11184620Y2916110D03*
Y3136110D03*
X11555460Y2915250D03*
X11184620Y3726110D03*
Y3326110D03*
Y3526110D03*
X11555460Y3715250D03*
Y3315250D03*
X11174620Y4166110D03*
X11184620Y3926110D03*
X11174620Y4386110D03*
Y4576110D03*
Y4776110D03*
Y4976110D03*
Y5176110D03*
Y5396110D03*
Y5616110D03*
Y5806110D03*
Y6206110D03*
Y6006110D03*
Y6636110D03*
Y6856110D03*
Y6406110D03*
Y7046110D03*
Y7246110D03*
Y7886110D03*
Y7446110D03*
Y7646110D03*
Y8296110D03*
Y8106110D03*
Y8896110D03*
Y8496110D03*
Y8696110D03*
X11955460Y115250D03*
Y515250D03*
Y915250D03*
Y1315250D03*
Y2115250D03*
Y1715250D03*
Y2515250D03*
Y2915250D03*
Y3715250D03*
Y3315250D03*
X11890000Y6020000D03*
X11960000D03*
Y6090000D03*
X12030000D03*
Y6020000D03*
X11684620Y7886110D03*
Y8296110D03*
Y8106110D03*
Y8496110D03*
Y8896110D03*
Y8696110D03*
X12355460Y115250D03*
Y515250D03*
Y915250D03*
Y1315250D03*
Y2115250D03*
Y1715250D03*
Y2515250D03*
Y2915250D03*
X12470000Y3260000D03*
X12355460Y3715250D03*
Y3315250D03*
X12550000Y3550000D03*
X12230000Y5140000D03*
X12300000D03*
X12460000Y4940000D03*
X12570000Y4890000D03*
X12230000Y5510000D03*
Y5350000D03*
X12570000Y5690000D03*
X12440000Y5560000D03*
X12100000Y6090000D03*
Y6020000D03*
X12170000Y6090000D03*
Y6020000D03*
X12240000Y6090000D03*
Y6020000D03*
X12310000D03*
Y5950000D03*
X12380000D03*
X12510000Y6790000D03*
X12600000D03*
Y6870000D03*
X12384430Y8226950D03*
Y8626950D03*
Y8926950D03*
X12910000Y1700000D03*
X13010000Y1697320D03*
Y1623660D03*
X13110000Y1697320D03*
Y1623660D03*
X12993400Y2224740D03*
X12810000Y1860000D03*
Y1783660D03*
X12910000Y1780000D03*
Y1860000D03*
X13010000Y1780000D03*
X12993400Y2624740D03*
Y3024740D03*
X13110000Y3550000D03*
X13096340Y4080000D03*
X13022680D03*
X12949020D03*
X13096340Y3990000D03*
X13022680D03*
X12949020D03*
X13096340Y3890000D03*
X13022680D03*
X12949020D03*
X12670000Y5170000D03*
Y5080000D03*
X12870000D03*
X13030000D03*
X12680000Y4890000D03*
X12810000D03*
X12940000D03*
X12990000Y5260000D03*
Y5170000D03*
X12810000D03*
Y5260000D03*
X12640000Y6030000D03*
Y6100000D03*
X12710000Y6030000D03*
Y6100000D03*
X12780000D03*
Y6030000D03*
X12690000Y6790000D03*
X12784430Y8626950D03*
Y8926950D03*
X13220000Y3260000D03*
X13590000Y6770000D03*
X13190000Y8220000D03*
Y8630000D03*
Y8940000D03*
X14150000Y4629020D03*
X14050000D03*
X14150000Y4702680D03*
X14050000D03*
X14150000Y4776340D03*
X14050000D03*
X13880300Y5292740D03*
X13980000Y5290000D03*
X14080000Y5292680D03*
X13980000Y5170000D03*
X13877320Y5440000D03*
Y5366340D03*
X14080000Y5440000D03*
Y5366340D03*
X13740000Y5720000D03*
X13920000Y5752020D03*
X13930000Y6230000D03*
Y6150000D03*
X14003660D03*
Y6230000D03*
X14077320D03*
Y6150000D03*
X14147320Y6230000D03*
Y6150000D03*
X13920000Y6035000D03*
X14120000Y5900000D03*
X14160000Y5970000D03*
X13920000Y5867990D03*
X13930000Y6470000D03*
Y6590000D03*
Y6720000D03*
X13670000Y6870000D03*
X14103800Y6790000D03*
X14010000D03*
X13650000Y6590000D03*
X13720000D03*
X13650000Y6520000D03*
X13720000D03*
Y6450000D03*
X13650000D03*
X13930000Y6900000D03*
X13950000Y7600000D03*
X13760000Y7820000D03*
X13794430Y8006950D03*
X14044430Y8466950D03*
X14249230Y1185160D03*
Y1585160D03*
X14328900Y3199810D03*
Y3599810D03*
Y3999810D03*
X14680000Y4580000D03*
X14520000D03*
X14250000Y4776340D03*
Y4702680D03*
Y4629020D03*
X14680000Y5110000D03*
X14520000D03*
X14680000Y4840000D03*
X14520000D03*
X14370000Y5110000D03*
X14250000Y5450000D03*
Y5360000D03*
X14290000Y6290000D03*
X14200000Y6380000D03*
Y6490000D03*
Y6600000D03*
Y6720000D03*
X14340000Y6600000D03*
Y6720000D03*
X14360000Y7210000D03*
X14460000D03*
Y7136340D03*
X14360000D03*
X14460000Y7062680D03*
X14360000D03*
X14460000Y6989020D03*
X14360000D03*
X14194430Y8006950D03*
X14444430Y8466950D03*
X14870000Y5110000D03*
X14880000Y4970000D03*
X14755710Y6788990D03*
Y7188990D03*
X14756950Y7615570D03*
Y8015570D03*
X17431730Y4152500D03*
G54D11*
X12027400Y4150000D03*
Y4404000D03*
X12037400Y8286000D03*
Y8540000D03*
X17431730Y1612500D03*
G54D12*
X12746600Y130000D03*
X13496600D03*
X17431730Y2247500D03*
G54D13*
X13030000Y5790000D03*
Y5680000D03*
Y6020000D03*
Y5910000D03*
X13170000Y5790000D03*
X13310000D03*
X13170000Y5680000D03*
X13310000D03*
X13170000Y6020000D03*
X13310000D03*
X13170000Y5910000D03*
X13310000D03*
X17431730Y3517500D03*
G54D14*
X14310000Y2697000D03*
Y2443000D03*
X17431730Y2882500D03*
G54D15*
X14420000Y5298000D03*
Y6422000D03*
X17431730Y977500D03*
G54D16*
X14820000Y5298000D03*
Y6422000D03*
X17431730Y342500D03*
G54D17*
G01X260000Y0D02*
G02X0Y260000I0J260000D01*
G01Y8740000D01*
G02X260000Y9000000I260000J0D01*
G01X14740000D01*
G02X15000000Y8740000I0J-260000D01*
G01Y6390000D01*
G02X14940000Y6330000I-60000J0D01*
G01X14360000D01*
Y5390000D01*
G01X420000Y260000D02*
G03I-160000J0D01*
G01Y8740000D02*
G03I-160000J0D01*
G01X260000Y0D02*
X14740000D01*
G03X15000000Y260000I0J260000D01*
G01Y5330000D01*
G03X14940000Y5390000I-60000J0D01*
G01X14360000D01*
G01X13056600Y160000D02*
G03I-50000J0D01*
G01X13286600D02*
G03I-50000J0D01*
G01X14100000Y1170000D02*
G03I-70000J0D01*
G01Y1670000D02*
G03I-70000J0D01*
G01Y3480000D02*
G03I-70000J0D01*
G01Y3980000D02*
G03I-70000J0D01*
G01X14900000Y260000D02*
G03I-160000J0D01*
G01X14580000Y7600000D02*
G03I-30000J0D01*
G01Y8000000D02*
G03I-30000J0D01*
G01X14900000Y8740000D02*
G03I-160000J0D01*
G54D18*
G01X16290000Y25000D02*
Y6390000D01*
X28888400D01*
Y25000D01*
X16290000D01*
G01Y660000D02*
X28888400D01*
G01X16290000Y1295000D02*
X28888400D01*
G01X16290000Y1930000D02*
X28888400D01*
G01X16290000Y2565000D02*
X28888400D01*
G01X16290000Y3200000D02*
X28888400D01*
G01X16290000Y3835000D02*
X28888400D01*
G01X16569520Y4628750D02*
Y4946250D01*
X16719140D01*
G01X16664010Y4792800D02*
X16569520D01*
G01X16912050Y4946250D02*
X17006530D01*
G01X16959290D02*
Y4628750D01*
G01X16912050D02*
X17006530D01*
G01X17297870Y4787500D02*
X17376620D01*
Y4692250D01*
X17352990Y4660490D01*
X17325430Y4639330D01*
X17286060Y4628750D01*
X17246690Y4639330D01*
X17219130Y4660490D01*
X17195510Y4692250D01*
X17179760Y4729290D01*
X17171880Y4771620D01*
Y4808670D01*
X17179760Y4840410D01*
X17195510Y4877460D01*
X17219130Y4909210D01*
X17242750Y4930370D01*
X17274250Y4946250D01*
X17301810D01*
X17333300Y4935670D01*
X17356930Y4914500D01*
G01X17502600Y4946250D02*
Y4718710D01*
X17518340Y4671070D01*
X17549840Y4639330D01*
X17589210Y4628750D01*
X17628580Y4639330D01*
X17660080Y4671070D01*
X17675820Y4718710D01*
Y4946250D01*
G01X17825430Y4628750D02*
Y4946250D01*
X17923850D01*
X17955350Y4930370D01*
X17975040Y4909210D01*
X17982910Y4866870D01*
X17975040Y4824540D01*
X17951410Y4798090D01*
X17923850Y4782200D01*
X17825430D01*
G01X17923850D02*
X17982910Y4628750D01*
G01X18297870D02*
X18140390D01*
Y4946250D01*
X18297870D01*
G01X18234880Y4792800D02*
X18140390D01*
G01X16290000Y4470000D02*
X28888400D01*
G01X16290000Y5105000D02*
X28888400D01*
G01X16290000Y5740000D02*
X28888400D01*
G01X18238810Y5263750D02*
X18337240Y5581250D01*
X18435670Y5263750D01*
G01X18400230Y5374870D02*
X18274240D01*
G01X18573460Y5581250D02*
Y5263750D01*
X18730940D01*
G01X18888420Y5581250D02*
Y5263750D01*
X19045900D01*
G01X19510470Y5581250D02*
Y5353710D01*
X19526210Y5306070D01*
X19557710Y5274330D01*
X19597080Y5263750D01*
X19636450Y5274330D01*
X19667950Y5306070D01*
X19683690Y5353710D01*
Y5581250D01*
G01X19821490Y5263750D02*
Y5581250D01*
X20002590Y5263750D01*
Y5581250D01*
G01X20179760D02*
X20274240D01*
G01X20227000D02*
Y5263750D01*
G01X20179760D02*
X20274240D01*
G01X20541960Y5581250D02*
Y5263750D01*
G01X20451410Y5581250D02*
X20632510D01*
G01X20774240Y5306070D02*
X20805740Y5279620D01*
X20841170Y5263750D01*
X20872670D01*
X20904160Y5279620D01*
X20927790Y5306070D01*
X20939600Y5343130D01*
X20931730Y5380160D01*
X20912040Y5411910D01*
X20876600Y5433090D01*
X20829360Y5443670D01*
X20801800Y5464830D01*
X20789990Y5501870D01*
X20797870Y5538920D01*
X20817550Y5565370D01*
X20845110Y5581250D01*
X20872670D01*
X20900230Y5570670D01*
X20923850Y5544210D01*
G01X21388410Y5263750D02*
X21486840Y5581250D01*
X21585270Y5263750D01*
G01X21549830Y5374870D02*
X21423840D01*
G01X21723060Y5263750D02*
Y5581250D01*
X21821480D01*
X21852980Y5565370D01*
X21872670Y5544210D01*
X21880540Y5501870D01*
X21872670Y5459540D01*
X21849040Y5433090D01*
X21821480Y5417200D01*
X21723060D01*
G01X21821480D02*
X21880540Y5263750D01*
G01X22195500D02*
X22038020D01*
Y5581250D01*
X22195500D01*
G01X22132510Y5427800D02*
X22038020D01*
G01X22699440Y5581250D02*
X22793920D01*
G01X22746680D02*
Y5263750D01*
G01X22699440D02*
X22793920D01*
G01X22971090D02*
Y5581250D01*
X23152190Y5263750D01*
Y5581250D01*
G01X23589190Y5263750D02*
Y5581250D01*
X23691560Y5316670D01*
X23793930Y5581250D01*
Y5263750D01*
G01X23959280Y5581250D02*
X24053760D01*
G01X24006520D02*
Y5263750D01*
G01X23959280D02*
X24053760D01*
G01X24242740Y5581250D02*
Y5263750D01*
X24400220D01*
G01X24557700Y5581250D02*
Y5263750D01*
X24715180D01*
G01X24904160Y5581250D02*
X24998640D01*
G01X24951400D02*
Y5263750D01*
G01X24904160D02*
X24998640D01*
G01X25163990D02*
Y5581250D01*
X25266360Y5316670D01*
X25368730Y5581250D01*
Y5263750D01*
G01X25660060D02*
X25502580D01*
Y5581250D01*
X25660060D01*
G01X25597070Y5427800D02*
X25502580D01*
G01X25896280Y5581250D02*
Y5263750D01*
G01X25805730Y5581250D02*
X25986830D01*
G01X26289980Y5263750D02*
X26132500D01*
Y5581250D01*
X26289980D01*
G01X26226990Y5427800D02*
X26132500D01*
G01X26447460Y5263750D02*
Y5581250D01*
X26545880D01*
X26577380Y5565370D01*
X26597070Y5544210D01*
X26604940Y5501870D01*
X26597070Y5459540D01*
X26573440Y5433090D01*
X26545880Y5417200D01*
X26447460D01*
G01X26545880D02*
X26604940Y5263750D01*
G01X26758480Y5306070D02*
X26789980Y5279620D01*
X26825410Y5263750D01*
X26856910D01*
X26888400Y5279620D01*
X26912030Y5306070D01*
X26923840Y5343130D01*
X26915970Y5380160D01*
X26896280Y5411910D01*
X26860840Y5433090D01*
X26813600Y5443670D01*
X26786040Y5464830D01*
X26774230Y5501870D01*
X26782110Y5538920D01*
X26801790Y5565370D01*
X26829350Y5581250D01*
X26856910D01*
X26884470Y5570670D01*
X26908090Y5544210D01*
G01X18573460Y5105000D02*
Y25000D01*
G01X18565590Y5913750D02*
Y6231250D01*
X18644320D01*
X18675820Y6215370D01*
X18699440Y6194210D01*
X18719130Y6162460D01*
X18734880Y6125410D01*
X18738810Y6072500D01*
X18734880Y6019580D01*
X18719130Y5982540D01*
X18699440Y5950780D01*
X18675820Y5929620D01*
X18644320Y5913750D01*
X18565590D01*
G01X18888420D02*
Y6231250D01*
X18986840D01*
X19018340Y6215370D01*
X19038030Y6194210D01*
X19045900Y6151870D01*
X19038030Y6109540D01*
X19014400Y6083090D01*
X18986840Y6067200D01*
X18888420D01*
G01X18986840D02*
X19045900Y5913750D01*
G01X19234880Y6231250D02*
X19329360D01*
G01X19282120D02*
Y5913750D01*
G01X19234880D02*
X19329360D01*
G01X19518340Y6231250D02*
Y5913750D01*
X19675820D01*
G01X19833300Y6231250D02*
Y5913750D01*
X19990780D01*
G01X20628570Y6204790D02*
X20604950Y6220670D01*
X20577400Y6231250D01*
X20545900D01*
X20510460Y6215370D01*
X20482910Y6188920D01*
X20463220Y6157160D01*
X20447470Y6104250D01*
X20443530Y6056620D01*
X20451410Y6009000D01*
X20463220Y5977250D01*
X20486840Y5945490D01*
X20514400Y5924330D01*
X20541960Y5913750D01*
X20569520D01*
X20597080Y5924330D01*
X20620700Y5940200D01*
X20640390Y5961360D01*
G01X20774240Y5913750D02*
Y6231250D01*
G01X20939600D02*
Y5913750D01*
G01Y6072500D02*
X20774240D01*
G01X21073450Y5913750D02*
X21171880Y6231250D01*
X21270310Y5913750D01*
G01X21234870Y6024870D02*
X21108880D01*
G01X21408100Y5913750D02*
Y6231250D01*
X21506520D01*
X21538020Y6215370D01*
X21557710Y6194210D01*
X21565580Y6151870D01*
X21557710Y6109540D01*
X21534080Y6083090D01*
X21506520Y6067200D01*
X21408100D01*
G01X21506520D02*
X21565580Y5913750D01*
G01X21801800Y6231250D02*
Y5913750D01*
G01X21711250Y6231250D02*
X21892350D01*
G01X22116760Y5903170D02*
X22108880Y5908460D01*
Y5919040D01*
X22116760Y5924330D01*
X22124640Y5919040D01*
Y5908460D01*
X22116760Y5903170D01*
G01Y6046030D02*
X22108880Y6051330D01*
Y6061910D01*
X22116760Y6067200D01*
X22124640Y6061910D01*
Y6051330D01*
X22116760Y6046030D01*
G01X22746680Y6231250D02*
Y5913750D01*
G01X22656130Y6231250D02*
X22837230D01*
G01X23061640Y5913750D02*
X23030140Y5919040D01*
X23002590Y5940200D01*
X22978960Y5971960D01*
X22963210Y6009000D01*
X22955340Y6051330D01*
Y6093670D01*
X22963210Y6136000D01*
X22978960Y6173040D01*
X23002590Y6204790D01*
X23030140Y6225960D01*
X23061640Y6231250D01*
X23093130Y6225960D01*
X23120690Y6204790D01*
X23144320Y6173040D01*
X23160070Y6136000D01*
X23167940Y6093670D01*
Y6051330D01*
X23160070Y6009000D01*
X23144320Y5971960D01*
X23120690Y5940200D01*
X23093130Y5919040D01*
X23061640Y5913750D01*
G01X23297860D02*
Y6231250D01*
X23392350D01*
X23423840Y6215370D01*
X23447470Y6178330D01*
X23455340Y6136000D01*
X23447470Y6093670D01*
X23427780Y6061910D01*
X23392350Y6046030D01*
X23297860D01*
G01X24006520Y6231250D02*
Y5913750D01*
G01X23951400Y6125410D02*
X24061640D01*
G01X24321480Y5913750D02*
X24297860Y5919040D01*
X24274240Y5940200D01*
X24258480Y5977250D01*
X24250610Y6019580D01*
X24258480Y6061910D01*
X24274240Y6098960D01*
X24297860Y6120120D01*
X24321480Y6125410D01*
X24345100Y6120120D01*
X24368720Y6098960D01*
X24384470Y6061910D01*
X24388410Y6019580D01*
X24384470Y5977250D01*
X24368720Y5940200D01*
X24345100Y5919040D01*
X24321480Y5913750D01*
G01X24982890Y6083090D02*
X24998640Y6098960D01*
X25010450Y6125410D01*
X25018330Y6162460D01*
X25010450Y6194210D01*
X24994710Y6215370D01*
X24967150Y6231250D01*
X24860850D01*
Y5913750D01*
X24990770D01*
X25018330Y5934910D01*
X25034080Y5966670D01*
X25041950Y6003710D01*
X25034080Y6040740D01*
X25010450Y6072500D01*
X24982890Y6083090D01*
X24860850D01*
G01X25266360Y5913750D02*
X25234860Y5919040D01*
X25207310Y5940200D01*
X25183680Y5971960D01*
X25167930Y6009000D01*
X25160060Y6051330D01*
Y6093670D01*
X25167930Y6136000D01*
X25183680Y6173040D01*
X25207310Y6204790D01*
X25234860Y6225960D01*
X25266360Y6231250D01*
X25297850Y6225960D01*
X25325410Y6204790D01*
X25349040Y6173040D01*
X25364790Y6136000D01*
X25372660Y6093670D01*
Y6051330D01*
X25364790Y6009000D01*
X25349040Y5971960D01*
X25325410Y5940200D01*
X25297850Y5919040D01*
X25266360Y5913750D01*
G01X25581320Y6231250D02*
Y5913750D01*
G01X25490770Y6231250D02*
X25671870D01*
G01X25896280D02*
Y5913750D01*
G01X25805730Y6231250D02*
X25986830D01*
G01X26211240Y5913750D02*
X26179740Y5919040D01*
X26152190Y5940200D01*
X26128560Y5971960D01*
X26112810Y6009000D01*
X26104940Y6051330D01*
Y6093670D01*
X26112810Y6136000D01*
X26128560Y6173040D01*
X26152190Y6204790D01*
X26179740Y6225960D01*
X26211240Y6231250D01*
X26242730Y6225960D01*
X26270290Y6204790D01*
X26293920Y6173040D01*
X26309670Y6136000D01*
X26317540Y6093670D01*
Y6051330D01*
X26309670Y6009000D01*
X26293920Y5971960D01*
X26270290Y5940200D01*
X26242730Y5919040D01*
X26211240Y5913750D01*
G01X26423830D02*
Y6231250D01*
X26526200Y5966670D01*
X26628570Y6231250D01*
Y5913750D01*
G01X19167940Y4628750D02*
Y4946250D01*
X19317560D01*
G01X19262430Y4792800D02*
X19167940D01*
G01X19510470Y4946250D02*
X19604950D01*
G01X19557710D02*
Y4628750D01*
G01X19510470D02*
X19604950D01*
G01X19782120D02*
Y4946250D01*
X19963220Y4628750D01*
Y4946250D01*
G01X20140390D02*
X20234870D01*
G01X20187630D02*
Y4628750D01*
G01X20140390D02*
X20234870D01*
G01X20419910Y4671070D02*
X20451410Y4644620D01*
X20486840Y4628750D01*
X20518340D01*
X20549830Y4644620D01*
X20573460Y4671070D01*
X20585270Y4708130D01*
X20577400Y4745160D01*
X20557710Y4776910D01*
X20522270Y4798090D01*
X20475030Y4808670D01*
X20447470Y4829830D01*
X20435660Y4866870D01*
X20443540Y4903920D01*
X20463220Y4930370D01*
X20490780Y4946250D01*
X20518340D01*
X20545900Y4935670D01*
X20569520Y4909210D01*
G01X20734870Y4628750D02*
Y4946250D01*
G01X20900230D02*
Y4628750D01*
G01Y4787500D02*
X20734870D01*
G01X21211250Y4628750D02*
X21053770D01*
Y4946250D01*
X21211250D01*
G01X21148260Y4792800D02*
X21053770D01*
G01X21360860Y4628750D02*
Y4946250D01*
X21439590D01*
X21471090Y4930370D01*
X21494710Y4909210D01*
X21514400Y4877460D01*
X21530150Y4840410D01*
X21534080Y4787500D01*
X21530150Y4734580D01*
X21514400Y4697540D01*
X21494710Y4665780D01*
X21471090Y4644620D01*
X21439590Y4628750D01*
X21360860D01*
G01X21644320Y4522920D02*
X21880540D01*
G01X21994710Y4671070D02*
X22026210Y4644620D01*
X22061640Y4628750D01*
X22093140D01*
X22124630Y4644620D01*
X22148260Y4671070D01*
X22160070Y4708130D01*
X22152200Y4745160D01*
X22132510Y4776910D01*
X22097070Y4798090D01*
X22049830Y4808670D01*
X22022270Y4829830D01*
X22010460Y4866870D01*
X22018340Y4903920D01*
X22038020Y4930370D01*
X22065580Y4946250D01*
X22093140D01*
X22120700Y4935670D01*
X22144320Y4909210D01*
G01X22345110Y4946250D02*
X22439590D01*
G01X22392350D02*
Y4628750D01*
G01X22345110D02*
X22439590D01*
G01X22632500Y4946250D02*
X22782120D01*
X22632500Y4628750D01*
X22782120D01*
G01X23101010D02*
X22943530D01*
Y4946250D01*
X23101010D01*
G01X23038020Y4792800D02*
X22943530D01*
G01X20187630Y183750D02*
Y501250D01*
X20140390Y437750D01*
G01Y183750D02*
X20234870D01*
G01X20502590Y173170D02*
X20494710Y178460D01*
Y189040D01*
X20502590Y194330D01*
X20510470Y189040D01*
Y178460D01*
X20502590Y173170D01*
G01X20817550Y183750D02*
X20845110Y189040D01*
X20876600Y204910D01*
X20896290Y231360D01*
X20904160Y268420D01*
X20896290Y305450D01*
X20872670Y337200D01*
X20837230Y353090D01*
X20797870D01*
X20774240Y363670D01*
X20754550Y390120D01*
X20746680Y427160D01*
X20758500Y464210D01*
X20786050Y490670D01*
X20817550Y501250D01*
X20849040Y490670D01*
X20876600Y464210D01*
X20888420Y427160D01*
X20880540Y390120D01*
X20860860Y363670D01*
X20837230Y353090D01*
X20797870D01*
X20762430Y337200D01*
X20738810Y305450D01*
X20730940Y268420D01*
X20738810Y231360D01*
X20758500Y204910D01*
X20789990Y189040D01*
X20817550Y183750D01*
G01X21073460Y395410D02*
X21191560Y183750D01*
G01Y395410D02*
X21073460Y183750D01*
G01X21447470Y501250D02*
X21415970Y490670D01*
X21392350Y464210D01*
X21376600Y432460D01*
X21364790Y390120D01*
X21360860Y342500D01*
X21364790Y294870D01*
X21376600Y252540D01*
X21392350Y220780D01*
X21415970Y194330D01*
X21447470Y183750D01*
X21478960Y194330D01*
X21502590Y220780D01*
X21518340Y252540D01*
X21530150Y294870D01*
X21534080Y342500D01*
X21530150Y390120D01*
X21518340Y432460D01*
X21502590Y464210D01*
X21478960Y490670D01*
X21447470Y501250D01*
G01X21762430Y173170D02*
X21754550Y178460D01*
Y189040D01*
X21762430Y194330D01*
X21770310Y189040D01*
Y178460D01*
X21762430Y173170D01*
G01X22002580Y316030D02*
X22030150Y353090D01*
X22053770Y374250D01*
X22085270Y384830D01*
X22112830Y374250D01*
X22132510Y353090D01*
X22148260Y321330D01*
X22152200Y284290D01*
X22148260Y252540D01*
X22132510Y220780D01*
X22108880Y194330D01*
X22081330Y183750D01*
X22049830Y194330D01*
X22022270Y226070D01*
X22006520Y273710D01*
X22002580Y326620D01*
X22010460Y395410D01*
X22022270Y432460D01*
X22041950Y469500D01*
X22069510Y495960D01*
X22097070Y501250D01*
X22124630Y490670D01*
X22144320Y464210D01*
G01X20187630Y818750D02*
Y1136250D01*
X20140390Y1072750D01*
G01Y818750D02*
X20234870D01*
G01X20502590Y808170D02*
X20494710Y813460D01*
Y824040D01*
X20502590Y829330D01*
X20510470Y824040D01*
Y813460D01*
X20502590Y808170D01*
G01X20864790Y818750D02*
Y1136250D01*
X20719120Y908710D01*
X20915980D01*
G01X21073460Y1030410D02*
X21191560Y818750D01*
G01Y1030410D02*
X21073460Y818750D01*
G01X21447470Y1136250D02*
X21415970Y1125670D01*
X21392350Y1099210D01*
X21376600Y1067460D01*
X21364790Y1025120D01*
X21360860Y977500D01*
X21364790Y929870D01*
X21376600Y887540D01*
X21392350Y855780D01*
X21415970Y829330D01*
X21447470Y818750D01*
X21478960Y829330D01*
X21502590Y855780D01*
X21518340Y887540D01*
X21530150Y929870D01*
X21534080Y977500D01*
X21530150Y1025120D01*
X21518340Y1067460D01*
X21502590Y1099210D01*
X21478960Y1125670D01*
X21447470Y1136250D01*
G01X21762430Y808170D02*
X21754550Y813460D01*
Y824040D01*
X21762430Y829330D01*
X21770310Y824040D01*
Y813460D01*
X21762430Y808170D01*
G01X22002580Y951030D02*
X22030150Y988090D01*
X22053770Y1009250D01*
X22085270Y1019830D01*
X22112830Y1009250D01*
X22132510Y988090D01*
X22148260Y956330D01*
X22152200Y919290D01*
X22148260Y887540D01*
X22132510Y855780D01*
X22108880Y829330D01*
X22081330Y818750D01*
X22049830Y829330D01*
X22022270Y861070D01*
X22006520Y908710D01*
X22002580Y961620D01*
X22010460Y1030410D01*
X22022270Y1067460D01*
X22041950Y1104500D01*
X22069510Y1130960D01*
X22097070Y1136250D01*
X22124630Y1125670D01*
X22144320Y1099210D01*
G01X20345110Y3676250D02*
X20313610Y3665670D01*
X20289990Y3639210D01*
X20274240Y3607460D01*
X20262430Y3565120D01*
X20258500Y3517500D01*
X20262430Y3469870D01*
X20274240Y3427540D01*
X20289990Y3395780D01*
X20313610Y3369330D01*
X20345110Y3358750D01*
X20376600Y3369330D01*
X20400230Y3395780D01*
X20415980Y3427540D01*
X20427790Y3469870D01*
X20431720Y3517500D01*
X20427790Y3565120D01*
X20415980Y3607460D01*
X20400230Y3639210D01*
X20376600Y3665670D01*
X20345110Y3676250D01*
G01X20660070Y3348170D02*
X20652190Y3353460D01*
Y3364040D01*
X20660070Y3369330D01*
X20667950Y3364040D01*
Y3353460D01*
X20660070Y3348170D01*
G01X21022270Y3358750D02*
Y3676250D01*
X20876600Y3448710D01*
X21073460D01*
G01X21203380Y3406360D02*
X21226990Y3379910D01*
X21254550Y3364040D01*
X21289990Y3358750D01*
X21325430Y3369330D01*
X21352980Y3390490D01*
X21372670Y3427540D01*
X21376600Y3469870D01*
X21368730Y3512200D01*
X21349040Y3538670D01*
X21321480Y3559830D01*
X21293930Y3565120D01*
X21266370Y3559830D01*
X21230940Y3538670D01*
X21242750Y3676250D01*
X21349040D01*
G01X21597070Y3358750D02*
X21604950Y3427540D01*
X21616760Y3485740D01*
X21632510Y3538670D01*
X21652190Y3596870D01*
X21683690Y3676250D01*
X21526210D01*
G01X21845100Y3623330D02*
X21868730Y3655080D01*
X21896290Y3670960D01*
X21927790Y3676250D01*
X21967150Y3665670D01*
X21994720Y3639210D01*
X22002590Y3607460D01*
X21998650Y3575700D01*
X21982900Y3549250D01*
X21904160Y3496330D01*
X21868730Y3459290D01*
X21845100Y3406360D01*
X21837230Y3358750D01*
X22002590D01*
G01X20345110Y4311250D02*
X20313610Y4300670D01*
X20289990Y4274210D01*
X20274240Y4242460D01*
X20262430Y4200120D01*
X20258500Y4152500D01*
X20262430Y4104870D01*
X20274240Y4062540D01*
X20289990Y4030780D01*
X20313610Y4004330D01*
X20345110Y3993750D01*
X20376600Y4004330D01*
X20400230Y4030780D01*
X20415980Y4062540D01*
X20427790Y4104870D01*
X20431720Y4152500D01*
X20427790Y4200120D01*
X20415980Y4242460D01*
X20400230Y4274210D01*
X20376600Y4300670D01*
X20345110Y4311250D01*
G01X20660070Y3983170D02*
X20652190Y3988460D01*
Y3999040D01*
X20660070Y4004330D01*
X20667950Y3999040D01*
Y3988460D01*
X20660070Y3983170D01*
G01X20888420Y4057250D02*
X20912030Y4020200D01*
X20943530Y3999040D01*
X20978970Y3993750D01*
X21010470Y3999040D01*
X21041960Y4025490D01*
X21061640Y4057250D01*
X21065580Y4089000D01*
X21057710Y4126030D01*
X21030150Y4152500D01*
X21002590Y4163090D01*
X20967150D01*
G01X21002590D02*
X21026210Y4178960D01*
X21045900Y4205410D01*
X21053770Y4237160D01*
X21045900Y4268920D01*
X21026210Y4295370D01*
X20990780Y4311250D01*
X20955350Y4305960D01*
X20919910Y4284790D01*
G01X21289990Y4311250D02*
X21258490Y4300670D01*
X21234870Y4274210D01*
X21219120Y4242460D01*
X21207310Y4200120D01*
X21203380Y4152500D01*
X21207310Y4104870D01*
X21219120Y4062540D01*
X21234870Y4030780D01*
X21258490Y4004330D01*
X21289990Y3993750D01*
X21321480Y4004330D01*
X21345110Y4030780D01*
X21360860Y4062540D01*
X21372670Y4104870D01*
X21376600Y4152500D01*
X21372670Y4200120D01*
X21360860Y4242460D01*
X21345110Y4274210D01*
X21321480Y4300670D01*
X21289990Y4311250D01*
G01X21652190Y3993750D02*
Y4311250D01*
X21506520Y4083710D01*
X21703380D01*
G01X21919910Y3993750D02*
X21947470Y3999040D01*
X21978960Y4014910D01*
X21998650Y4041360D01*
X22006520Y4078420D01*
X21998650Y4115450D01*
X21975030Y4147200D01*
X21939590Y4163090D01*
X21900230D01*
X21876600Y4173670D01*
X21856910Y4200120D01*
X21849040Y4237160D01*
X21860860Y4274210D01*
X21888410Y4300670D01*
X21919910Y4311250D01*
X21951400Y4300670D01*
X21978960Y4274210D01*
X21990780Y4237160D01*
X21982900Y4200120D01*
X21963220Y4173670D01*
X21939590Y4163090D01*
X21900230D01*
X21864790Y4147200D01*
X21841170Y4115450D01*
X21833300Y4078420D01*
X21841170Y4041360D01*
X21860860Y4014910D01*
X21892350Y3999040D01*
X21919910Y3993750D01*
G01X20817550Y1453750D02*
Y1771250D01*
X20770310Y1707750D01*
G01Y1453750D02*
X20864790D01*
G01X21132510Y1443170D02*
X21124630Y1448460D01*
Y1459040D01*
X21132510Y1464330D01*
X21140390Y1459040D01*
Y1448460D01*
X21132510Y1443170D01*
G01X21447470Y1453750D02*
Y1771250D01*
X21400230Y1707750D01*
G01Y1453750D02*
X21494710D01*
G01X20817550Y2088750D02*
Y2406250D01*
X20770310Y2342750D01*
G01Y2088750D02*
X20864790D01*
G01X21132510Y2078170D02*
X21124630Y2083460D01*
Y2094040D01*
X21132510Y2099330D01*
X21140390Y2094040D01*
Y2083460D01*
X21132510Y2078170D01*
G01X21447470Y2406250D02*
X21415970Y2395670D01*
X21392350Y2369210D01*
X21376600Y2337460D01*
X21364790Y2295120D01*
X21360860Y2247500D01*
X21364790Y2199870D01*
X21376600Y2157540D01*
X21392350Y2125780D01*
X21415970Y2099330D01*
X21447470Y2088750D01*
X21478960Y2099330D01*
X21502590Y2125780D01*
X21518340Y2157540D01*
X21530150Y2199870D01*
X21534080Y2247500D01*
X21530150Y2295120D01*
X21518340Y2337460D01*
X21502590Y2369210D01*
X21478960Y2395670D01*
X21447470Y2406250D01*
G01X20817550Y3041250D02*
X20786050Y3030670D01*
X20762430Y3004210D01*
X20746680Y2972460D01*
X20734870Y2930120D01*
X20730940Y2882500D01*
X20734870Y2834870D01*
X20746680Y2792540D01*
X20762430Y2760780D01*
X20786050Y2734330D01*
X20817550Y2723750D01*
X20849040Y2734330D01*
X20872670Y2760780D01*
X20888420Y2792540D01*
X20900230Y2834870D01*
X20904160Y2882500D01*
X20900230Y2930120D01*
X20888420Y2972460D01*
X20872670Y3004210D01*
X20849040Y3030670D01*
X20817550Y3041250D01*
G01X21132510Y2713170D02*
X21124630Y2718460D01*
Y2729040D01*
X21132510Y2734330D01*
X21140390Y2729040D01*
Y2718460D01*
X21132510Y2713170D01*
G01X21447470Y2723750D02*
X21475030Y2729040D01*
X21506520Y2744910D01*
X21526210Y2771360D01*
X21534080Y2808420D01*
X21526210Y2845450D01*
X21502590Y2877200D01*
X21467150Y2893090D01*
X21427790D01*
X21404160Y2903670D01*
X21384470Y2930120D01*
X21376600Y2967160D01*
X21388420Y3004210D01*
X21415970Y3030670D01*
X21447470Y3041250D01*
X21478960Y3030670D01*
X21506520Y3004210D01*
X21518340Y2967160D01*
X21510460Y2930120D01*
X21490780Y2903670D01*
X21467150Y2893090D01*
X21427790D01*
X21392350Y2877200D01*
X21368730Y2845450D01*
X21360860Y2808420D01*
X21368730Y2771360D01*
X21388420Y2744910D01*
X21419910Y2729040D01*
X21447470Y2723750D01*
G01X23019730Y-133750D02*
Y-451250D01*
G01X22929180Y-133750D02*
X23110280D01*
G01X23334690Y-451250D02*
X23303190Y-445960D01*
X23275640Y-424800D01*
X23252010Y-393040D01*
X23236260Y-356000D01*
X23228390Y-313670D01*
Y-271330D01*
X23236260Y-229000D01*
X23252010Y-191960D01*
X23275640Y-160210D01*
X23303190Y-139040D01*
X23334690Y-133750D01*
X23366180Y-139040D01*
X23393740Y-160210D01*
X23417370Y-191960D01*
X23433120Y-229000D01*
X23440990Y-271330D01*
Y-313670D01*
X23433120Y-356000D01*
X23417370Y-393040D01*
X23393740Y-424800D01*
X23366180Y-445960D01*
X23334690Y-451250D01*
G01X23649650Y-133750D02*
Y-451250D01*
G01X23559100Y-133750D02*
X23740200D01*
G01X23866180Y-451250D02*
X23964610Y-133750D01*
X24063040Y-451250D01*
G01X24027600Y-340130D02*
X23901610D01*
G01X24200830Y-133750D02*
Y-451250D01*
X24358310D01*
G01X24826810D02*
Y-133750D01*
G01X24992170D02*
Y-451250D01*
G01Y-292500D02*
X24826810D01*
G01X25224450Y-451250D02*
X25192950Y-445960D01*
X25165400Y-424800D01*
X25141770Y-393040D01*
X25126020Y-356000D01*
X25118150Y-313670D01*
Y-271330D01*
X25126020Y-229000D01*
X25141770Y-191960D01*
X25165400Y-160210D01*
X25192950Y-139040D01*
X25224450Y-133750D01*
X25255940Y-139040D01*
X25283500Y-160210D01*
X25307130Y-191960D01*
X25322880Y-229000D01*
X25330750Y-271330D01*
Y-313670D01*
X25322880Y-356000D01*
X25307130Y-393040D01*
X25283500Y-424800D01*
X25255940Y-445960D01*
X25224450Y-451250D01*
G01X25460670Y-133750D02*
Y-451250D01*
X25618150D01*
G01X25933110D02*
X25775630D01*
Y-133750D01*
X25933110D01*
G01X25870120Y-287200D02*
X25775630D01*
G01X26086650Y-408930D02*
X26118150Y-435380D01*
X26153580Y-451250D01*
X26185080D01*
X26216570Y-435380D01*
X26240200Y-408930D01*
X26252010Y-371870D01*
X26244140Y-334840D01*
X26224450Y-303090D01*
X26189010Y-281910D01*
X26141770Y-271330D01*
X26114210Y-250170D01*
X26102400Y-213130D01*
X26110280Y-176080D01*
X26129960Y-149630D01*
X26157520Y-133750D01*
X26185080D01*
X26212640Y-144330D01*
X26236260Y-170790D01*
G01X26484290Y-461830D02*
X26476410Y-456540D01*
Y-445960D01*
X26484290Y-440670D01*
X26492170Y-445960D01*
Y-456540D01*
X26484290Y-461830D01*
G01Y-318970D02*
X26476410Y-313670D01*
Y-303090D01*
X26484290Y-297800D01*
X26492170Y-303090D01*
Y-313670D01*
X26484290Y-318970D01*
G01X23691560Y5105000D02*
Y25000D01*
G01X24439590Y183750D02*
Y501250D01*
X24534080D01*
X24565570Y485370D01*
X24589200Y448330D01*
X24597070Y406000D01*
X24589200Y363670D01*
X24569510Y331910D01*
X24534080Y316030D01*
X24439590D01*
G01X24754550Y501250D02*
Y183750D01*
X24912030D01*
G01X25049820D02*
X25148250Y501250D01*
X25246680Y183750D01*
G01X25211240Y294870D02*
X25085250D01*
G01X25463210Y501250D02*
Y183750D01*
G01X25372660Y501250D02*
X25553760D01*
G01X25856910Y183750D02*
X25699430D01*
Y501250D01*
X25856910D01*
G01X25793920Y347800D02*
X25699430D01*
G01X26006520Y183750D02*
Y501250D01*
X26085250D01*
X26116750Y485370D01*
X26140370Y464210D01*
X26160060Y432460D01*
X26175810Y395410D01*
X26179740Y342500D01*
X26175810Y289580D01*
X26160060Y252540D01*
X26140370Y220780D01*
X26116750Y199620D01*
X26085250Y183750D01*
X26006520D01*
G01X24439590Y818750D02*
Y1136250D01*
X24534080D01*
X24565570Y1120370D01*
X24589200Y1083330D01*
X24597070Y1041000D01*
X24589200Y998670D01*
X24569510Y966910D01*
X24534080Y951030D01*
X24439590D01*
G01X24754550Y1136250D02*
Y818750D01*
X24912030D01*
G01X25049820D02*
X25148250Y1136250D01*
X25246680Y818750D01*
G01X25211240Y929870D02*
X25085250D01*
G01X25463210Y1136250D02*
Y818750D01*
G01X25372660Y1136250D02*
X25553760D01*
G01X25856910Y818750D02*
X25699430D01*
Y1136250D01*
X25856910D01*
G01X25793920Y982800D02*
X25699430D01*
G01X26006520Y818750D02*
Y1136250D01*
X26085250D01*
X26116750Y1120370D01*
X26140370Y1099210D01*
X26160060Y1067460D01*
X26175810Y1030410D01*
X26179740Y977500D01*
X26175810Y924580D01*
X26160060Y887540D01*
X26140370Y855780D01*
X26116750Y834620D01*
X26085250Y818750D01*
X26006520D01*
G01X24439590Y1453750D02*
Y1771250D01*
X24534080D01*
X24565570Y1755370D01*
X24589200Y1718330D01*
X24597070Y1676000D01*
X24589200Y1633670D01*
X24569510Y1601910D01*
X24534080Y1586030D01*
X24439590D01*
G01X24754550Y1771250D02*
Y1453750D01*
X24912030D01*
G01X25049820D02*
X25148250Y1771250D01*
X25246680Y1453750D01*
G01X25211240Y1564870D02*
X25085250D01*
G01X25463210Y1771250D02*
Y1453750D01*
G01X25372660Y1771250D02*
X25553760D01*
G01X25856910Y1453750D02*
X25699430D01*
Y1771250D01*
X25856910D01*
G01X25793920Y1617800D02*
X25699430D01*
G01X26006520Y1453750D02*
Y1771250D01*
X26085250D01*
X26116750Y1755370D01*
X26140370Y1734210D01*
X26160060Y1702460D01*
X26175810Y1665410D01*
X26179740Y1612500D01*
X26175810Y1559580D01*
X26160060Y1522540D01*
X26140370Y1490780D01*
X26116750Y1469620D01*
X26085250Y1453750D01*
X26006520D01*
G01X24439590Y2088750D02*
Y2406250D01*
X24534080D01*
X24565570Y2390370D01*
X24589200Y2353330D01*
X24597070Y2311000D01*
X24589200Y2268670D01*
X24569510Y2236910D01*
X24534080Y2221030D01*
X24439590D01*
G01X24754550Y2406250D02*
Y2088750D01*
X24912030D01*
G01X25049820D02*
X25148250Y2406250D01*
X25246680Y2088750D01*
G01X25211240Y2199870D02*
X25085250D01*
G01X25463210Y2406250D02*
Y2088750D01*
G01X25372660Y2406250D02*
X25553760D01*
G01X25856910Y2088750D02*
X25699430D01*
Y2406250D01*
X25856910D01*
G01X25793920Y2252800D02*
X25699430D01*
G01X26006520Y2088750D02*
Y2406250D01*
X26085250D01*
X26116750Y2390370D01*
X26140370Y2369210D01*
X26160060Y2337460D01*
X26175810Y2300410D01*
X26179740Y2247500D01*
X26175810Y2194580D01*
X26160060Y2157540D01*
X26140370Y2125780D01*
X26116750Y2104620D01*
X26085250Y2088750D01*
X26006520D01*
G01X24439590Y2723750D02*
Y3041250D01*
X24534080D01*
X24565570Y3025370D01*
X24589200Y2988330D01*
X24597070Y2946000D01*
X24589200Y2903670D01*
X24569510Y2871910D01*
X24534080Y2856030D01*
X24439590D01*
G01X24754550Y3041250D02*
Y2723750D01*
X24912030D01*
G01X25049820D02*
X25148250Y3041250D01*
X25246680Y2723750D01*
G01X25211240Y2834870D02*
X25085250D01*
G01X25463210Y3041250D02*
Y2723750D01*
G01X25372660Y3041250D02*
X25553760D01*
G01X25856910Y2723750D02*
X25699430D01*
Y3041250D01*
X25856910D01*
G01X25793920Y2887800D02*
X25699430D01*
G01X26006520Y2723750D02*
Y3041250D01*
X26085250D01*
X26116750Y3025370D01*
X26140370Y3004210D01*
X26160060Y2972460D01*
X26175810Y2935410D01*
X26179740Y2882500D01*
X26175810Y2829580D01*
X26160060Y2792540D01*
X26140370Y2760780D01*
X26116750Y2739620D01*
X26085250Y2723750D01*
X26006520D01*
G01X24439590Y3358750D02*
Y3676250D01*
X24534080D01*
X24565570Y3660370D01*
X24589200Y3623330D01*
X24597070Y3581000D01*
X24589200Y3538670D01*
X24569510Y3506910D01*
X24534080Y3491030D01*
X24439590D01*
G01X24754550Y3676250D02*
Y3358750D01*
X24912030D01*
G01X25049820D02*
X25148250Y3676250D01*
X25246680Y3358750D01*
G01X25211240Y3469870D02*
X25085250D01*
G01X25463210Y3676250D02*
Y3358750D01*
G01X25372660Y3676250D02*
X25553760D01*
G01X25856910Y3358750D02*
X25699430D01*
Y3676250D01*
X25856910D01*
G01X25793920Y3522800D02*
X25699430D01*
G01X26006520Y3358750D02*
Y3676250D01*
X26085250D01*
X26116750Y3660370D01*
X26140370Y3639210D01*
X26160060Y3607460D01*
X26175810Y3570410D01*
X26179740Y3517500D01*
X26175810Y3464580D01*
X26160060Y3427540D01*
X26140370Y3395780D01*
X26116750Y3374620D01*
X26085250Y3358750D01*
X26006520D01*
G01X24439590Y3993750D02*
Y4311250D01*
X24534080D01*
X24565570Y4295370D01*
X24589200Y4258330D01*
X24597070Y4216000D01*
X24589200Y4173670D01*
X24569510Y4141910D01*
X24534080Y4126030D01*
X24439590D01*
G01X24754550Y4311250D02*
Y3993750D01*
X24912030D01*
G01X25049820D02*
X25148250Y4311250D01*
X25246680Y3993750D01*
G01X25211240Y4104870D02*
X25085250D01*
G01X25463210Y4311250D02*
Y3993750D01*
G01X25372660Y4311250D02*
X25553760D01*
G01X25856910Y3993750D02*
X25699430D01*
Y4311250D01*
X25856910D01*
G01X25793920Y4157800D02*
X25699430D01*
G01X26006520Y3993750D02*
Y4311250D01*
X26085250D01*
X26116750Y4295370D01*
X26140370Y4274210D01*
X26160060Y4242460D01*
X26175810Y4205410D01*
X26179740Y4152500D01*
X26175810Y4099580D01*
X26160060Y4062540D01*
X26140370Y4030780D01*
X26116750Y4009620D01*
X26085250Y3993750D01*
X26006520D01*
G01X24439590Y4628750D02*
Y4946250D01*
X24534080D01*
X24565570Y4930370D01*
X24589200Y4893330D01*
X24597070Y4851000D01*
X24589200Y4808670D01*
X24569510Y4776910D01*
X24534080Y4761030D01*
X24439590D01*
G01X24754550Y4946250D02*
Y4628750D01*
X24912030D01*
G01X25049820D02*
X25148250Y4946250D01*
X25246680Y4628750D01*
G01X25211240Y4739870D02*
X25085250D01*
G01X25463210Y4946250D02*
Y4628750D01*
G01X25372660Y4946250D02*
X25553760D01*
G01X25856910Y4628750D02*
X25699430D01*
Y4946250D01*
X25856910D01*
G01X25793920Y4792800D02*
X25699430D01*
G01X26006520Y4628750D02*
Y4946250D01*
X26085250D01*
X26116750Y4930370D01*
X26140370Y4909210D01*
X26160060Y4877460D01*
X26175810Y4840410D01*
X26179740Y4787500D01*
X26175810Y4734580D01*
X26160060Y4697540D01*
X26140370Y4665780D01*
X26116750Y4644620D01*
X26085250Y4628750D01*
X26006520D01*
G01X26919900Y5105000D02*
Y25000D01*
G01X27514380Y-186670D02*
X27538010Y-154920D01*
X27565570Y-139040D01*
X27597070Y-133750D01*
X27636430Y-144330D01*
X27664000Y-170790D01*
X27671870Y-202540D01*
X27667930Y-234300D01*
X27652180Y-260750D01*
X27573440Y-313670D01*
X27538010Y-350710D01*
X27514380Y-403640D01*
X27506510Y-451250D01*
X27671870D01*
G01X27829340Y-318970D02*
X27856910Y-281910D01*
X27880530Y-260750D01*
X27912030Y-250170D01*
X27939590Y-260750D01*
X27959270Y-281910D01*
X27975020Y-313670D01*
X27978960Y-350710D01*
X27975020Y-382460D01*
X27959270Y-414220D01*
X27935640Y-440670D01*
X27908090Y-451250D01*
X27876590Y-440670D01*
X27849030Y-408930D01*
X27833280Y-361290D01*
X27829340Y-308380D01*
X27837220Y-239590D01*
X27849030Y-202540D01*
X27868710Y-165500D01*
X27896270Y-139040D01*
X27923830Y-133750D01*
X27951390Y-144330D01*
X27971080Y-170790D01*
G01X28144300Y-318970D02*
X28171870Y-281910D01*
X28195490Y-260750D01*
X28226990Y-250170D01*
X28254550Y-260750D01*
X28274230Y-281910D01*
X28289980Y-313670D01*
X28293920Y-350710D01*
X28289980Y-382460D01*
X28274230Y-414220D01*
X28250600Y-440670D01*
X28223050Y-451250D01*
X28191550Y-440670D01*
X28163990Y-408930D01*
X28148240Y-361290D01*
X28144300Y-308380D01*
X28152180Y-239590D01*
X28163990Y-202540D01*
X28183670Y-165500D01*
X28211230Y-139040D01*
X28238790Y-133750D01*
X28266350Y-144330D01*
X28286040Y-170790D01*
G01X27514380Y4258330D02*
X27538010Y4290080D01*
X27565570Y4305960D01*
X27597070Y4311250D01*
X27636430Y4300670D01*
X27664000Y4274210D01*
X27671870Y4242460D01*
X27667930Y4210700D01*
X27652180Y4184250D01*
X27573440Y4131330D01*
X27538010Y4094290D01*
X27514380Y4041360D01*
X27506510Y3993750D01*
X27671870D01*
G01X27951390D02*
Y4311250D01*
X27805720Y4083710D01*
X28002580D01*
G01X28144300Y4258330D02*
X28167930Y4290080D01*
X28195490Y4305960D01*
X28226990Y4311250D01*
X28266350Y4300670D01*
X28293920Y4274210D01*
X28301790Y4242460D01*
X28297850Y4210700D01*
X28282100Y4184250D01*
X28203360Y4131330D01*
X28167930Y4094290D01*
X28144300Y4041360D01*
X28136430Y3993750D01*
X28301790D01*
G01X27589190Y4628750D02*
X27557690Y4634040D01*
X27530140Y4655200D01*
X27506510Y4686960D01*
X27490760Y4724000D01*
X27482890Y4766330D01*
Y4808670D01*
X27490760Y4851000D01*
X27506510Y4888040D01*
X27530140Y4919790D01*
X27557690Y4940960D01*
X27589190Y4946250D01*
X27620680Y4940960D01*
X27648240Y4919790D01*
X27671870Y4888040D01*
X27687620Y4851000D01*
X27695490Y4808670D01*
Y4766330D01*
X27687620Y4724000D01*
X27671870Y4686960D01*
X27648240Y4655200D01*
X27620680Y4634040D01*
X27589190Y4628750D01*
G01X27620680Y4713420D02*
X27667930Y4628750D01*
G01X27904150Y4946250D02*
Y4628750D01*
G01X27813600Y4946250D02*
X27994700D01*
G01X28219110Y4628750D02*
Y4771620D01*
X28140370Y4946250D01*
G01X28297850D02*
X28219110Y4771620D01*
G01X27829340Y448330D02*
X27852970Y480080D01*
X27880530Y495960D01*
X27912030Y501250D01*
X27951390Y490670D01*
X27978960Y464210D01*
X27986830Y432460D01*
X27982890Y400700D01*
X27967140Y374250D01*
X27888400Y321330D01*
X27852970Y284290D01*
X27829340Y231360D01*
X27821470Y183750D01*
X27986830D01*
G01X27829340Y1083330D02*
X27852970Y1115080D01*
X27880530Y1130960D01*
X27912030Y1136250D01*
X27951390Y1125670D01*
X27978960Y1099210D01*
X27986830Y1067460D01*
X27982890Y1035700D01*
X27967140Y1009250D01*
X27888400Y956330D01*
X27852970Y919290D01*
X27829340Y866360D01*
X27821470Y818750D01*
X27986830D01*
G01X27951390Y1453750D02*
Y1771250D01*
X27805720Y1543710D01*
X28002580D01*
G01X27829340Y2353330D02*
X27852970Y2385080D01*
X27880530Y2400960D01*
X27912030Y2406250D01*
X27951390Y2395670D01*
X27978960Y2369210D01*
X27986830Y2337460D01*
X27982890Y2305700D01*
X27967140Y2279250D01*
X27888400Y2226330D01*
X27852970Y2189290D01*
X27829340Y2136360D01*
X27821470Y2088750D01*
X27986830D01*
G01X27829340Y2988330D02*
X27852970Y3020080D01*
X27880530Y3035960D01*
X27912030Y3041250D01*
X27951390Y3030670D01*
X27978960Y3004210D01*
X27986830Y2972460D01*
X27982890Y2940700D01*
X27967140Y2914250D01*
X27888400Y2861330D01*
X27852970Y2824290D01*
X27829340Y2771360D01*
X27821470Y2723750D01*
X27986830D01*
G01X27746670Y3358750D02*
Y3676250D01*
X27699430Y3612750D01*
G01Y3358750D02*
X27793910D01*
G01X27986820Y3623330D02*
X28010450Y3655080D01*
X28038010Y3670960D01*
X28069510Y3676250D01*
X28108870Y3665670D01*
X28136440Y3639210D01*
X28144310Y3607460D01*
X28140370Y3575700D01*
X28124620Y3549250D01*
X28045880Y3496330D01*
X28010450Y3459290D01*
X27986820Y3406360D01*
X27978950Y3358750D01*
X28144310D01*
M02*
