M48
METRIC,TZ
T01C.3048
T02C.4572
T03C.8
T04C1.
T05C1.1
;LEADER: 12 
;HEADER: 
;CODE  : ASCII 
;FILE  : HY_IP5328_TEST_V10A-1-2.drl for board G:/SVN/hard_group/手持调试设备/trunk/HY_IP5328_TEST_V10A/PCB/#Taaaakx05148.tmp ... layers TOP and BOTTOM
;T01 Holesize 1. = 0.304800 Tolerance = +0.000000/-0.000000 PLATED MM Quantity = 242
;T02 Holesize 2. = 0.457200 Tolerance = +0.000000/-0.000000 PLATED MM Quantity = 12
;T03 Holesize 3. = 0.800000 Tolerance = +0.000000/-0.000000 PLATED MM Quantity = 2
;T04 Holesize 4. = 1.000000 Tolerance = +0.000000/-0.000000 PLATED MM Quantity = 2
;T05 Holesize 5. = 1.100000 Tolerance = +0.000000/-0.000000 PLATED MM Quantity = 4
%
G90
T01
X11190000Y80000
X11190000Y280000
X11194620Y466110
X11194620Y686110
X11194620Y876110
X11194620Y1076110
X11194620Y1276110
X11194620Y1476110
X11184620Y1686110
X11184620Y1906110
X11184620Y2096110
X11184620Y2296110
X11184620Y2496110
X11184620Y2696110
X11184620Y2916110
X11184620Y3136110
X11184620Y3326110
X11184620Y3526110
X11184620Y3726110
X11184620Y3926110
X11174620Y4166110
X11174620Y4386110
X11174620Y4576110
X11174620Y4776110
X11174620Y4976110
X11174620Y5176110
X11174620Y5396110
X11174620Y5616110
X11174620Y5806110
X11174620Y6006110
X11174620Y6206110
X11174620Y6406110
X11174620Y6636110
X11174620Y6856110
X11174620Y7046110
X11174620Y7246110
X11174620Y7446110
X11174620Y7646110
X11174620Y7886110
X11174620Y8106110
X11174620Y8296110
X11174620Y8496110
X11174620Y8696110
X11174620Y8896110
X11684620Y8896110
X11684620Y8696110
X11684620Y8496110
X11684620Y8296110
X11684620Y8106110
X11684620Y7886110
X12170000Y6090000
X12100000Y6090000
X12030000Y6090000
X11960000Y6090000
X12170000Y6020000
X12100000Y6020000
X12030000Y6020000
X11960000Y6020000
X11890000Y6020000
X11955460Y3715250
X11555460Y3715250
X11955460Y3315250
X11555460Y3315250
X11955460Y2915250
X11555460Y2915250
X11955460Y2515250
X11555460Y2515250
X11955460Y2115250
X11555460Y2115250
X11955460Y1715250
X11955460Y1315250
X11555460Y1315250
X11955460Y915250
X11555460Y915250
X11955460Y515250
X11555460Y515250
X11955460Y115250
X11555460Y115250
X12355460Y115250
X12355460Y515250
X12355460Y915250
X12355460Y1315250
X12910000Y1700000
X12355460Y1715250
X12910000Y1780000
X12810000Y1783660
X12810000Y1860000
X12910000Y1860000
X12355460Y2115250
X12355460Y2515250
X12355460Y2915250
X12470000Y3260000
X12355460Y3315250
X12550000Y3550000
X12355460Y3715250
X12949020Y3890000
X12949020Y3990000
X12949020Y4080000
X12570000Y4890000
X12680000Y4890000
X12810000Y4890000
X12940000Y4890000
X12460000Y4940000
X12670000Y5080000
X12870000Y5080000
X12230000Y5140000
X12300000Y5140000
X12670000Y5170000
X12810000Y5170000
X12810000Y5260000
X12230000Y5350000
X12230000Y5510000
X12440000Y5560000
X12570000Y5690000
X12310000Y5950000
X12380000Y5950000
X12240000Y6020000
X12310000Y6020000
X12640000Y6030000
X12710000Y6030000
X12780000Y6030000
X12240000Y6090000
X12640000Y6100000
X12710000Y6100000
X12780000Y6100000
X12510000Y6790000
X12600000Y6790000
X12690000Y6790000
X12600000Y6870000
X12384430Y8226950
X12384430Y8626950
X12784430Y8626950
X12384430Y8926950
X12784430Y8926950
X13190000Y8940000
X13190000Y8630000
X13190000Y8220000
X13670000Y6870000
X13590000Y6770000
X13650000Y6590000
X13650000Y6520000
X13650000Y6450000
X12990000Y5260000
X12990000Y5170000
X13030000Y5080000
X13096340Y4080000
X13022680Y4080000
X13096340Y3990000
X13022680Y3990000
X13096340Y3890000
X13022680Y3890000
X13110000Y3550000
X13220000Y3260000
X12993400Y3024740
X12993400Y2624740
X12993400Y2224740
X13010000Y1780000
X13110000Y1697320
X13010000Y1697320
X13110000Y1623660
X13010000Y1623660
X14249230Y1185160
X14249230Y1585160
X14328900Y3199810
X14328900Y3599810
X14328900Y3999810
X14050000Y4629020
X14150000Y4629020
X14250000Y4629020
X14050000Y4702680
X14150000Y4702680
X14250000Y4702680
X14050000Y4776340
X14150000Y4776340
X14250000Y4776340
X14370000Y5110000
X13980000Y5170000
X13980000Y5290000
X13880300Y5292740
X14080000Y5292680
X14250000Y5360000
X13877320Y5366340
X14080000Y5366340
X13877320Y5440000
X14080000Y5440000
X14250000Y5450000
X13740000Y5720000
X13920000Y5752020
X13920000Y5867990
X14120000Y5900000
X14160000Y5970000
X13920000Y6035000
X13930000Y6150000
X14003660Y6150000
X14077320Y6150000
X14147320Y6150000
X13930000Y6230000
X14003660Y6230000
X14077320Y6230000
X14147320Y6230000
X14290000Y6290000
X14200000Y6380000
X13720000Y6450000
X13930000Y6470000
X14200000Y6490000
X13720000Y6520000
X13720000Y6590000
X13930000Y6590000
X14200000Y6600000
X14340000Y6600000
X13930000Y6720000
X14200000Y6720000
X14340000Y6720000
X14010000Y6790000
X14103800Y6790000
X13930000Y6900000
X14360000Y6989020
X14460000Y6989020
X14360000Y7062680
X14460000Y7062680
X14360000Y7136340
X14460000Y7136340
X14360000Y7210000
X14460000Y7210000
X13950000Y7600000
X13760000Y7820000
X13794430Y8006950
X14194430Y8006950
X14044430Y8466950
X14444430Y8466950
X14756950Y8015570
X14756950Y7615570
X14755710Y7188990
X14755710Y6788990
X14870000Y5110000
X14680000Y5110000
X14520000Y5110000
X14880000Y4970000
X14680000Y4840000
X14520000Y4840000
X14680000Y4580000
X14520000Y4580000
T02
X13030000Y5680000
X13170000Y5680000
X13030000Y5790000
X13170000Y5790000
X13030000Y5910000
X13170000Y5910000
X13030000Y6020000
X13170000Y6020000
X13310000Y6020000
X13310000Y5910000
X13310000Y5790000
X13310000Y5680000
T03
X14310000Y2443000
X14310000Y2697000
T04
X12746600Y130000
X13496600Y130000
T05
X12027400Y4150000
X12027400Y4404000
X12037400Y8286000
X12037400Y8540000
M30
