G04 ================== begin FILE IDENTIFICATION RECORD ==================*
G04 Layout Name:  HY_IP5328_TEST_V10A.brd*
G04 Film Name:    PasteMask_Bottom*
G04 File Format:  Gerber RS274X*
G04 File Origin:  Cadence Allegro 17.2-S045*
G04 Origin Date:  Fri Jan 25 17:29:49 2019*
G04 *
G04 Layer:  BOARD GEOMETRY/OUTLINE*
G04 Layer:  PIN/PASTEMASK_BOTTOM*
G04 Layer:  PACKAGE GEOMETRY/PASTEMASK_BOTTOM*
G04 *
G04 Offset:    (0.0000 0.0000)*
G04 Mirror:    No*
G04 Mode:      Positive*
G04 Rotation:  0*
G04 FullContactRelief:  No*
G04 UndefLineWidth:     0.1524*
G04 ================== end FILE IDENTIFICATION RECORD ====================*
%FSLAX55Y55*MOMM*%
%IR0*IPPOS*OFA0.00000B0.00000*MIA0B0*SFA1.00000B1.00000*%
%ADD10C,.1*%
G75*
%LPD*%
G75*
G54D10*
G01X260000Y0D02*
G02X0Y260000I0J260000D01*
G01Y8740000D01*
G02X260000Y9000000I260000J0D01*
G01X14740000D01*
G02X15000000Y8740000I0J-260000D01*
G01Y6390000D01*
G02X14940000Y6330000I-60000J0D01*
G01X14360000D01*
Y5390000D01*
G01X420000Y260000D02*
G03I-160000J0D01*
G01Y8740000D02*
G03I-160000J0D01*
G01X260000Y0D02*
X14740000D01*
G03X15000000Y260000I0J260000D01*
G01Y5330000D01*
G03X14940000Y5390000I-60000J0D01*
G01X14360000D01*
G01X13056600Y160000D02*
G03I-50000J0D01*
G01X13286600D02*
G03I-50000J0D01*
G01X14100000Y1170000D02*
G03I-70000J0D01*
G01Y1670000D02*
G03I-70000J0D01*
G01Y3480000D02*
G03I-70000J0D01*
G01Y3980000D02*
G03I-70000J0D01*
G01X14900000Y260000D02*
G03I-160000J0D01*
G01X14580000Y7600000D02*
G03I-30000J0D01*
G01Y8000000D02*
G03I-30000J0D01*
G01X14900000Y8740000D02*
G03I-160000J0D01*
M02*
