G04 ================== begin FILE IDENTIFICATION RECORD ==================*
G04 Layout Name:  HY_TP4056_V10_210902.brd*
G04 Film Name:    SilkScreen_Top*
G04 File Format:  Gerber RS274X*
G04 File Origin:  Cadence Allegro 17.2-S071*
G04 Origin Date:  Thu Sep 02 16:57:29 2021*
G04 *
G04 Layer:  PACKAGE GEOMETRY/SILKSCREEN_TOP*
G04 Layer:  BOARD GEOMETRY/SILKSCREEN_TOP*
G04 *
G04 Offset:    (0.0000 0.0000)*
G04 Mirror:    No*
G04 Mode:      Positive*
G04 Rotation:  0*
G04 FullContactRelief:  No*
G04 UndefLineWidth:     0.1524*
G04 ================== end FILE IDENTIFICATION RECORD ====================*
%FSLAX55Y55*MOMM*%
%IR0*IPPOS*OFA0.00000B0.00000*MIA0B0*SFA1.00000B1.00000*%
%ADD10C,.2*%
%ADD11C,.1524*%
G75*
%LPD*%
G75*
G36*
G01X1170000Y470000D02*
G03I-30000J0D01*
G37*
G36*
G01X1326800Y786600D02*
G03I-25400J0D01*
G37*
G54D10*
G01X150000Y890000D02*
X20000D01*
Y170000D01*
X150000D01*
G01X130000Y980000D02*
X20000D01*
Y80000D01*
X130000D01*
G01X350000Y170000D02*
X410000D01*
G01X330000Y80000D02*
X520000D01*
G01X350000Y890000D02*
X410000D01*
G01X520000Y980000D02*
X330000D01*
G01X570000Y360000D02*
Y300000D01*
G01X770000Y80000D02*
Y150000D01*
G01X570000Y760000D02*
Y700000D01*
G01X770000Y980000D02*
Y910000D01*
G01X1140000Y30000D02*
G03Y150000I-77500J60000D01*
G01X880000D02*
G03Y30000I77500J-60000D01*
G01D02*
X1140000D01*
G01X920000Y400000D02*
X1100000D01*
Y300000D01*
X920000D01*
Y400000D01*
G01Y530000D02*
X1100000D01*
Y430000D01*
X920000D01*
Y530000D01*
G01X1140000Y150000D02*
X880000D01*
G01X1100000Y560000D02*
X920000D01*
Y660000D01*
X1100000D01*
Y560000D01*
G01X880000Y840000D02*
G03Y720000I77500J-60000D01*
G01X1140000D02*
G03Y840000I-77500J60000D01*
G01X880000Y720000D02*
X1140000D01*
G01Y840000D02*
X880000D01*
G01X1203500Y950000D02*
G03I-63500J0D01*
G01X1370000Y30000D02*
Y530000D01*
X1490000D01*
G01X1690000Y30000D02*
X1370000D01*
G01X1555400Y842400D02*
G02X1504600I-25400J0D01*
G01X1580800Y829700D02*
Y842400D01*
X1555400D01*
G01X1580800Y829700D02*
Y537600D01*
X1479200D01*
Y842400D01*
X1504600D01*
G01X1570000Y530000D02*
X1690000D01*
G01X1490000D02*
G03X1570000I40000J4108D01*
G01X1453500Y950000D02*
G03I-63500J0D01*
G01X1920000Y150000D02*
G03Y30000I77500J-60000D01*
G01D02*
X2180000D01*
G01X1690000D02*
Y530000D01*
G01X2180000Y150000D02*
X1920000D01*
G01X2000000Y370000D02*
X2050000Y420000D01*
X1950000D01*
X2000000Y370000D01*
G01X2050000Y360000D02*
X1950000D01*
G01X1920000Y260000D02*
Y520000D01*
X2080000D01*
Y260000D01*
X1920000D01*
G01X1810000Y640000D02*
X1990000D01*
Y540000D01*
X1810000D01*
Y640000D01*
G01X1920000Y840000D02*
G03Y720000I77500J-60000D01*
G01X2180000Y840000D02*
X1920000D01*
G01Y720000D02*
X2180000D01*
G01X1843500Y950000D02*
G03I-63500J0D01*
G01X2093500D02*
G03I-63500J0D01*
G01X2180000Y30000D02*
G03Y150000I-77500J60000D01*
G01X2190000Y540000D02*
X2010000D01*
Y640000D01*
X2190000D01*
Y540000D01*
G01X2180000Y720000D02*
G03Y840000I-77500J60000D01*
G54D11*
G01X975000Y1016000D02*
Y1036000D01*
X1002000D01*
X1011000Y1030000D01*
X1017000Y1023000D01*
X1020000Y1013000D01*
X1017000Y1003000D01*
X1011000Y996000D01*
X1002000Y990000D01*
X991500Y986000D01*
X979500Y984000D01*
X969000D01*
X960000Y986000D01*
X949500Y990000D01*
X940500Y996000D01*
X934500Y1002000D01*
X930000Y1010000D01*
Y1017000D01*
X933000Y1025000D01*
X939000Y1031000D01*
G01X1552000Y1018000D02*
X1547500Y1022000D01*
X1540000Y1025000D01*
X1529500Y1027000D01*
X1520500Y1025000D01*
X1514500Y1021000D01*
X1510000Y1014000D01*
Y987000D01*
X1600000D01*
Y1020000D01*
X1594000Y1027000D01*
X1585000Y1031000D01*
X1574500Y1033000D01*
X1564000Y1031000D01*
X1555000Y1025000D01*
X1552000Y1018000D01*
Y987000D01*
G01X1625000Y946000D02*
Y966000D01*
X1652000D01*
X1661000Y960000D01*
X1667000Y953000D01*
X1670000Y943000D01*
X1667000Y933000D01*
X1661000Y926000D01*
X1652000Y920000D01*
X1641500Y916000D01*
X1629500Y914000D01*
X1619000D01*
X1610000Y916000D01*
X1599500Y920000D01*
X1590500Y926000D01*
X1584500Y932000D01*
X1580000Y940000D01*
Y947000D01*
X1583000Y955000D01*
X1589000Y961000D01*
G01X2212000Y918000D02*
X2222500Y924000D01*
X2228500Y932000D01*
X2230000Y941000D01*
X2228500Y949000D01*
X2221000Y957000D01*
X2212000Y962000D01*
X2203000Y963000D01*
X2192500Y961000D01*
X2185000Y954000D01*
X2182000Y947000D01*
Y938000D01*
G01Y947000D02*
X2177500Y953000D01*
X2170000Y958000D01*
X2161000Y960000D01*
X2152000Y958000D01*
X2144500Y953000D01*
X2140000Y944000D01*
X2141500Y935000D01*
X2147500Y926000D01*
M02*
