G04 ================== begin FILE IDENTIFICATION RECORD ==================*
G04 Layout Name:  HY_TP4056_V10_210902.brd*
G04 Film Name:    SolderMask_Top*
G04 File Format:  Gerber RS274X*
G04 File Origin:  Cadence Allegro 17.2-S071*
G04 Origin Date:  Thu Sep 02 16:57:29 2021*
G04 *
G04 Layer:  PIN/SOLDERMASK_TOP*
G04 Layer:  PACKAGE GEOMETRY/SOLDERMASK_TOP*
G04 Layer:  BOARD GEOMETRY/SOLDERMASK_TOP*
G04 *
G04 Offset:    (0.0000 0.0000)*
G04 Mirror:    No*
G04 Mode:      Positive*
G04 Rotation:  0*
G04 FullContactRelief:  No*
G04 UndefLineWidth:     0.1524*
G04 ================== end FILE IDENTIFICATION RECORD ====================*
%FSLAX55Y55*MOMM*%
%IR0*IPPOS*OFA0.00000B0.00000*MIA0B0*SFA1.00000B1.00000*%
%ADD16R,1.3X.4*%
%ADD15R,1.3X.7*%
%ADD22R,1.3X.8*%
%ADD14R,1.7X.5*%
%ADD18R,1.6X.7*%
%ADD20C,.85*%
%ADD17R,.9X.9*%
%ADD13O,2.2X1.1*%
%ADD11O,1.7X1.1*%
%ADD21R,2.5X3.2*%
%ADD12R,1.6X1.7*%
%ADD19R,.6X.7*%
%ADD10R,1.7X1.9*%
G75*
%LPD*%
G75*
G36*
G01X1040000Y900000D02*
Y1040000D01*
X1240000D01*
Y900000D01*
X1040000D01*
G37*
G36*
G01X1290000D02*
Y1040000D01*
X1490000D01*
Y900000D01*
X1290000D01*
G37*
G36*
G01X1680000D02*
Y1040000D01*
X1880000D01*
Y900000D01*
X1680000D01*
G37*
G36*
G01X1930000D02*
Y1040000D01*
X2130000D01*
Y900000D01*
X1930000D01*
G37*
G54D10*
X250000Y110000D03*
Y950000D03*
G54D11*
X228000Y98000D03*
Y962000D03*
G54D20*
X1140000Y950000D03*
X1390000D03*
X1780000D03*
X2030000D03*
G54D12*
X510000Y200000D03*
Y860000D03*
G54D21*
X1530000Y280000D03*
G54D13*
X646000Y98000D03*
Y962000D03*
G54D22*
X1660000Y785000D03*
Y595000D03*
X1400000D03*
Y690000D03*
Y785000D03*
G54D14*
X560000Y400000D03*
Y465000D03*
Y530000D03*
Y595000D03*
Y660000D03*
G54D15*
X750000Y210000D03*
Y290000D03*
Y770000D03*
Y850000D03*
G54D16*
Y355000D03*
Y405000D03*
Y455000D03*
Y505000D03*
Y555000D03*
Y605000D03*
Y655000D03*
Y705000D03*
G54D17*
X933800Y90000D03*
X1086200D03*
Y780000D03*
X933800D03*
X1973800Y90000D03*
Y780000D03*
X2126200Y90000D03*
Y780000D03*
G54D18*
X1260000Y89000D03*
Y216000D03*
Y343000D03*
Y470000D03*
X1800000Y89000D03*
Y470000D03*
Y343000D03*
Y216000D03*
G54D19*
X1055000Y350000D03*
X965000D03*
X1055000Y480000D03*
X965000D03*
Y610000D03*
X1055000D03*
X1960000Y470000D03*
Y310000D03*
X1945000Y590000D03*
X1855000D03*
X2040000Y470000D03*
Y310000D03*
X2055000Y590000D03*
X2145000D03*
M02*
