G04 ================== begin FILE IDENTIFICATION RECORD ==================*
G04 Layout Name:  H:/github/MBED-TOOLS/HARDWARE/RM08K_TEST_V10/PCB/RM08K_TEST_V10.brd*
G04 Film Name:    OUTLINE*
G04 File Format:  Gerber RS274X*
G04 File Origin:  Cadence Allegro 17.2-S067*
G04 Origin Date:  Sat Aug 01 17:15:10 2020*
G04 *
G04 Layer:  BOARD GEOMETRY/DESIGN_OUTLINE*
G04 Layer:  BOARD GEOMETRY/CUTOUT*
G04 *
G04 Offset:    (0.0000 0.0000)*
G04 Mirror:    No*
G04 Mode:      Positive*
G04 Rotation:  0*
G04 FullContactRelief:  No*
G04 UndefLineWidth:     0.1524*
G04 ================== end FILE IDENTIFICATION RECORD ====================*
%FSLAX55Y55*MOMM*%
%IR0*IPPOS*OFA0.00000B0.00000*MIA0B0*SFA1.00000B1.00000*%
%ADD10C,.1524*%
G75*
%LPD*%
G75*
G54D10*
G01X480000Y320000D02*
G03I-160000J0D01*
G01X0Y300000D02*
Y6700000D01*
G02X300000Y7000000I300000J0D01*
G01X7700000D01*
G02X8000000Y6700000I0J-300000D01*
G01Y300000D01*
G02X7700000Y0I-300000J0D01*
G01X300000D01*
G02X0Y300000I0J300000D01*
G01X220000Y1615000D02*
G03I-50000J0D01*
G01Y1845000D02*
G03I-50000J0D01*
G01Y3625000D02*
G03I-50000J0D01*
G01Y3395000D02*
G03I-50000J0D01*
G01Y5395000D02*
G03I-50000J0D01*
G01Y5165000D02*
G03I-50000J0D01*
G01X480000Y6680000D02*
G03I-160000J0D01*
G01X1150000Y1090000D02*
G03I-160000J0D01*
G01Y5910000D02*
G03I-160000J0D01*
G01X2290000Y1090000D02*
G03I-160000J0D01*
G01X2780000D02*
G03I-160000J0D01*
G01X2290000Y5910000D02*
G03I-160000J0D01*
G01X3920000Y1090000D02*
G03I-160000J0D01*
G01X4410000D02*
G03I-160000J0D01*
G01X6040000D02*
G03I-160000J0D01*
G01X5550000D02*
G03I-160000J0D01*
G01X7180000D02*
G03I-160000J0D01*
G01X7840000Y320000D02*
G03I-160000J0D01*
G01Y6680000D02*
G03I-160000J0D01*
M02*
