G04 ================== begin FILE IDENTIFICATION RECORD ==================*
G04 Layout Name:  H:/github/MBED-TOOLS/HARDWARE/RM08K_TEST_V10/PCB/RM08K_TEST_V10.brd*
G04 Film Name:    SilkScreen_Bottom*
G04 File Format:  Gerber RS274X*
G04 File Origin:  Cadence Allegro 17.2-S067*
G04 Origin Date:  Sat Aug 01 17:15:10 2020*
G04 *
G04 Layer:  REF DES/SILKSCREEN_BOTTOM*
G04 Layer:  PACKAGE GEOMETRY/SILKSCREEN_BOTTOM*
G04 Layer:  BOARD GEOMETRY/SILKSCREEN_BOTTOM*
G04 *
G04 Offset:    (0.0000 0.0000)*
G04 Mirror:    No*
G04 Mode:      Positive*
G04 Rotation:  0*
G04 FullContactRelief:  No*
G04 UndefLineWidth:     0.1524*
G04 ================== end FILE IDENTIFICATION RECORD ====================*
%FSLAX55Y55*MOMM*%
%IR0*IPPOS*OFA0.00000B0.00000*MIA0B0*SFA1.00000B1.00000*%
%ADD10C,.2*%
%ADD11C,.1524*%
G75*
%LPD*%
G75*
G36*
G01X640000Y320000D02*
G03I-320000J0D01*
G37*
G36*
G01Y6680000D02*
G03I-320000J0D01*
G37*
G36*
G01X8000000Y320000D02*
G03I-320000J0D01*
G37*
G36*
G01Y6680000D02*
G03I-320000J0D01*
G37*
G54D10*
G01X4670000Y560000D02*
Y20000D01*
X3120000D01*
Y560000D01*
X4670000D01*
G54D11*
G01X4590000Y400000D02*
Y490000D01*
X4565000D01*
X4557000Y485500D01*
X4552000Y479500D01*
X4550000Y467500D01*
X4552000Y455500D01*
X4558000Y448000D01*
X4565000Y443500D01*
X4590000D01*
G01X4565000D02*
X4550000Y400000D01*
G01X4526000D02*
Y490000D01*
X4500000Y415000D01*
X4474000Y490000D01*
Y400000D01*
G01X4430000Y490000D02*
X4438000Y487000D01*
X4444000Y479500D01*
X4448000Y470500D01*
X4451000Y458500D01*
X4452000Y445000D01*
X4451000Y431500D01*
X4448000Y419500D01*
X4444000Y410500D01*
X4438000Y403000D01*
X4430000Y400000D01*
X4422000Y403000D01*
X4416000Y410500D01*
X4412000Y419500D01*
X4409000Y431500D01*
X4408000Y445000D01*
X4409000Y458500D01*
X4412000Y470500D01*
X4416000Y479500D01*
X4422000Y487000D01*
X4430000Y490000D01*
G01X4360000Y400000D02*
X4353000Y401500D01*
X4345000Y406000D01*
X4340000Y413500D01*
X4338000Y424000D01*
X4340000Y434500D01*
X4346000Y443500D01*
X4355000Y448000D01*
X4365000D01*
X4371000Y451000D01*
X4376000Y458500D01*
X4378000Y469000D01*
X4375000Y479500D01*
X4368000Y487000D01*
X4360000Y490000D01*
X4352000Y487000D01*
X4345000Y479500D01*
X4342000Y469000D01*
X4344000Y458500D01*
X4349000Y451000D01*
X4355000Y448000D01*
X4365000D01*
X4374000Y443500D01*
X4380000Y434500D01*
X4382000Y424000D01*
X4380000Y413500D01*
X4375000Y406000D01*
X4367000Y401500D01*
X4360000Y400000D01*
G01X4312000D02*
Y490000D01*
G01X4274000D02*
X4312000Y434500D01*
G01X4268000Y400000D02*
X4295000Y460000D01*
G01X4250000Y370000D02*
X4190000D01*
G01X4150000Y490000D02*
Y400000D01*
G01X4173000Y490000D02*
X4127000D01*
G01X4060000Y400000D02*
X4100000D01*
Y490000D01*
X4060000D01*
G01X4076000Y446500D02*
X4100000D01*
G01X4031000Y412000D02*
X4023000Y404500D01*
X4014000Y400000D01*
X4006000D01*
X3998000Y404500D01*
X3992000Y412000D01*
X3989000Y422500D01*
X3991000Y433000D01*
X3996000Y442000D01*
X4005000Y448000D01*
X4017000Y451000D01*
X4024000Y457000D01*
X4027000Y467500D01*
X4025000Y478000D01*
X4020000Y485500D01*
X4013000Y490000D01*
X4006000D01*
X3999000Y487000D01*
X3993000Y479500D01*
G01X3940000Y490000D02*
Y400000D01*
G01X3963000Y490000D02*
X3917000D01*
G01X3900000Y370000D02*
X3840000D01*
G01X3825000Y490000D02*
X3800000Y400000D01*
X3775000Y490000D01*
G01X3730000Y400000D02*
Y490000D01*
X3742000Y472000D01*
G01Y400000D02*
X3718000D01*
G01X3660000Y490000D02*
X3668000Y487000D01*
X3674000Y479500D01*
X3678000Y470500D01*
X3681000Y458500D01*
X3682000Y445000D01*
X3681000Y431500D01*
X3678000Y419500D01*
X3674000Y410500D01*
X3668000Y403000D01*
X3660000Y400000D01*
X3652000Y403000D01*
X3646000Y410500D01*
X3642000Y419500D01*
X3639000Y431500D01*
X3638000Y445000D01*
X3639000Y458500D01*
X3642000Y470500D01*
X3646000Y479500D01*
X3652000Y487000D01*
X3660000Y490000D01*
G01X4589000Y315000D02*
X4583000Y324000D01*
X4576000Y328500D01*
X4568000Y330000D01*
X4558000Y327000D01*
X4551000Y319500D01*
X4549000Y310500D01*
X4550000Y301500D01*
X4554000Y294000D01*
X4574000Y279000D01*
X4583000Y268500D01*
X4589000Y253500D01*
X4591000Y240000D01*
X4549000D01*
G01X4500000Y330000D02*
X4508000Y327000D01*
X4514000Y319500D01*
X4518000Y310500D01*
X4521000Y298500D01*
X4522000Y285000D01*
X4521000Y271500D01*
X4518000Y259500D01*
X4514000Y250500D01*
X4508000Y243000D01*
X4500000Y240000D01*
X4492000Y243000D01*
X4486000Y250500D01*
X4482000Y259500D01*
X4479000Y271500D01*
X4478000Y285000D01*
X4479000Y298500D01*
X4482000Y310500D01*
X4486000Y319500D01*
X4492000Y327000D01*
X4500000Y330000D01*
G01X4449000Y315000D02*
X4443000Y324000D01*
X4436000Y328500D01*
X4428000Y330000D01*
X4418000Y327000D01*
X4411000Y319500D01*
X4409000Y310500D01*
X4410000Y301500D01*
X4414000Y294000D01*
X4434000Y279000D01*
X4443000Y268500D01*
X4449000Y253500D01*
X4451000Y240000D01*
X4409000D01*
G01X4360000Y330000D02*
X4368000Y327000D01*
X4374000Y319500D01*
X4378000Y310500D01*
X4381000Y298500D01*
X4382000Y285000D01*
X4381000Y271500D01*
X4378000Y259500D01*
X4374000Y250500D01*
X4368000Y243000D01*
X4360000Y240000D01*
X4352000Y243000D01*
X4346000Y250500D01*
X4342000Y259500D01*
X4339000Y271500D01*
X4338000Y285000D01*
X4339000Y298500D01*
X4342000Y310500D01*
X4346000Y319500D01*
X4352000Y327000D01*
X4360000Y330000D01*
G01X4320000Y210000D02*
X4260000D01*
G01X4220000Y330000D02*
X4228000Y327000D01*
X4234000Y319500D01*
X4238000Y310500D01*
X4241000Y298500D01*
X4242000Y285000D01*
X4241000Y271500D01*
X4238000Y259500D01*
X4234000Y250500D01*
X4228000Y243000D01*
X4220000Y240000D01*
X4212000Y243000D01*
X4206000Y250500D01*
X4202000Y259500D01*
X4199000Y271500D01*
X4198000Y285000D01*
X4199000Y298500D01*
X4202000Y310500D01*
X4206000Y319500D01*
X4212000Y327000D01*
X4220000Y330000D01*
G01X4150000Y240000D02*
X4143000Y241500D01*
X4135000Y246000D01*
X4130000Y253500D01*
X4128000Y264000D01*
X4130000Y274500D01*
X4136000Y283500D01*
X4145000Y288000D01*
X4155000D01*
X4161000Y291000D01*
X4166000Y298500D01*
X4168000Y309000D01*
X4165000Y319500D01*
X4158000Y327000D01*
X4150000Y330000D01*
X4142000Y327000D01*
X4135000Y319500D01*
X4132000Y309000D01*
X4134000Y298500D01*
X4139000Y291000D01*
X4145000Y288000D01*
X4155000D01*
X4164000Y283500D01*
X4170000Y274500D01*
X4172000Y264000D01*
X4170000Y253500D01*
X4165000Y246000D01*
X4157000Y241500D01*
X4150000Y240000D01*
G01X4110000Y210000D02*
X4050000D01*
G01X4010000Y330000D02*
X4018000Y327000D01*
X4024000Y319500D01*
X4028000Y310500D01*
X4031000Y298500D01*
X4032000Y285000D01*
X4031000Y271500D01*
X4028000Y259500D01*
X4024000Y250500D01*
X4018000Y243000D01*
X4010000Y240000D01*
X4002000Y243000D01*
X3996000Y250500D01*
X3992000Y259500D01*
X3989000Y271500D01*
X3988000Y285000D01*
X3989000Y298500D01*
X3992000Y310500D01*
X3996000Y319500D01*
X4002000Y327000D01*
X4010000Y330000D01*
G01X3940000Y240000D02*
Y330000D01*
X3952000Y312000D01*
G01Y240000D02*
X3928000D01*
G01X4591000Y70000D02*
X4549000Y160000D01*
G01X4591000D02*
X4549000Y70000D01*
G01X4521000D02*
X4479000Y160000D01*
G01X4521000D02*
X4479000Y70000D01*
G01X4451000D02*
X4409000Y160000D01*
G01X4451000D02*
X4409000Y70000D01*
G01X4380000Y160000D02*
Y70000D01*
X4340000D01*
G01X4309000Y160000D02*
X4271000D01*
X4309000Y70000D01*
X4271000D01*
G01X4240000Y88000D02*
X4235000Y79000D01*
X4229000Y73000D01*
X4222000Y70000D01*
X4214000Y73000D01*
X4208000Y79000D01*
X4202000Y88000D01*
X4200000Y100000D01*
Y160000D01*
G01X4171000Y70000D02*
X4129000Y160000D01*
G01X4171000D02*
X4129000Y70000D01*
G01X4101000D02*
X4059000Y160000D01*
G01X4101000D02*
X4059000Y70000D01*
G01X4031000D02*
X3989000Y160000D01*
G01X4031000D02*
X3989000Y70000D01*
M02*
