G04 ================== begin FILE IDENTIFICATION RECORD ==================*
G04 Layout Name:  HY_RF_TEST_V10_210708.brd*
G04 Film Name:    BOTTOM*
G04 File Format:  Gerber RS274X*
G04 File Origin:  Cadence Allegro 17.2-S071*
G04 Origin Date:  Thu Jul 08 19:44:30 2021*
G04 *
G04 Layer:  ETCH/BOTTOM*
G04 Layer:  PIN/BOTTOM*
G04 Layer:  VIA CLASS/BOTTOM*
G04 *
G04 Offset:    (0.0000 0.0000)*
G04 Mirror:    No*
G04 Mode:      Positive*
G04 Rotation:  0*
G04 FullContactRelief:  No*
G04 UndefLineWidth:     0.1524*
G04 ================== end FILE IDENTIFICATION RECORD ====================*
%FSLAX55Y55*MOMM*%
%IR0*IPPOS*OFA0.00000B0.00000*MIA0B0*SFA1.00000B1.00000*%
%ADD10C,.508*%
G75*
%LPD*%
G75*
G36*
G01X6900000Y5370000D02*
X7789980D01*
Y4649980D01*
X8470000D01*
Y710020D01*
X7789980D01*
Y30000D01*
X6900000D01*
Y430000D01*
X6500000D01*
Y30000D01*
X4450000D01*
Y430000D01*
X4050000D01*
Y30000D01*
X2000000D01*
Y430000D01*
X1600000D01*
Y30000D01*
X750020D01*
Y710020D01*
X30000D01*
Y4649980D01*
X750020D01*
Y5370000D01*
X1640000D01*
Y5110000D01*
X1960000D01*
Y5370000D01*
X4140000D01*
Y5080000D01*
X4360000D01*
Y5370000D01*
X6500000D01*
Y4960000D01*
X6900000D01*
Y5370000D01*
G37*
G54D10*
X253010Y1014830D03*
Y1414830D03*
Y1814830D03*
Y2214830D03*
Y2614830D03*
Y3014830D03*
Y3414830D03*
Y3814830D03*
Y4214830D03*
Y4614830D03*
X653010Y1014830D03*
Y1414830D03*
Y1814830D03*
Y2214830D03*
Y2614830D03*
Y3014830D03*
Y3414830D03*
Y3814830D03*
Y4214830D03*
Y4614830D03*
X1053010Y214830D03*
Y614830D03*
Y1014830D03*
Y1414830D03*
Y1814830D03*
Y2214830D03*
Y2614830D03*
Y3014830D03*
Y3414830D03*
Y3814830D03*
Y4214830D03*
Y4614830D03*
Y5014830D03*
X1586130Y679970D03*
Y579970D03*
Y479970D03*
Y979970D03*
Y879970D03*
Y779970D03*
Y1279970D03*
Y1179970D03*
Y1079970D03*
Y1579970D03*
Y1479970D03*
Y1379970D03*
Y1879970D03*
Y1779970D03*
Y1679970D03*
Y2179970D03*
Y2079970D03*
Y1979970D03*
Y2479970D03*
Y2379970D03*
Y2279970D03*
Y2779970D03*
Y2679970D03*
Y2579970D03*
Y3079970D03*
Y2979970D03*
Y2879970D03*
Y3379970D03*
Y3279970D03*
Y3179970D03*
Y3679970D03*
Y3579970D03*
Y3479970D03*
Y3979970D03*
Y3879970D03*
Y3779970D03*
Y4279970D03*
Y4179970D03*
Y4079970D03*
Y4579970D03*
Y4479970D03*
Y4379970D03*
Y4879970D03*
Y4779970D03*
Y4679970D03*
Y5079970D03*
Y4979970D03*
X1686130Y679970D03*
Y579970D03*
Y479970D03*
X1916130D03*
Y579970D03*
Y679970D03*
X1686130Y979970D03*
Y879970D03*
Y779970D03*
X1916130D03*
Y879970D03*
Y979970D03*
X1686130Y1279970D03*
Y1179970D03*
Y1079970D03*
X1916130D03*
Y1179970D03*
Y1279970D03*
X1686130Y1579970D03*
Y1479970D03*
Y1379970D03*
X1916130D03*
Y1479970D03*
Y1579970D03*
X1686130Y1879970D03*
Y1779970D03*
Y1679970D03*
X1916130D03*
Y1779970D03*
Y1879970D03*
X1686130Y2179970D03*
Y2079970D03*
Y1979970D03*
X1916130D03*
Y2079970D03*
Y2179970D03*
X1686130Y2479970D03*
Y2379970D03*
Y2279970D03*
X1916130D03*
Y2379970D03*
Y2479970D03*
X1686130Y2779970D03*
Y2679970D03*
Y2579970D03*
X1916130D03*
Y2679970D03*
Y2779970D03*
X1686130Y3079970D03*
Y2979970D03*
Y2879970D03*
X1916130D03*
Y2979970D03*
Y3079970D03*
X1686130Y3379970D03*
Y3279970D03*
Y3179970D03*
X1916130D03*
Y3279970D03*
Y3379970D03*
X1686130Y3679970D03*
Y3579970D03*
Y3479970D03*
X1916130D03*
Y3579970D03*
Y3679970D03*
X1686130Y3979970D03*
Y3879970D03*
Y3779970D03*
X1916130D03*
Y3879970D03*
Y3979970D03*
X1686130Y4279970D03*
Y4179970D03*
Y4079970D03*
X1916130Y4279970D03*
Y4079970D03*
Y4179970D03*
X1686130Y4579970D03*
Y4479970D03*
Y4379970D03*
X1916130D03*
Y4479970D03*
Y4579970D03*
X1686130Y4879970D03*
Y4779970D03*
Y4679970D03*
X1916130D03*
Y4779970D03*
Y4879970D03*
X1686130Y5079970D03*
Y4979970D03*
X1916130D03*
Y5079970D03*
X2016130Y479970D03*
Y579970D03*
Y679970D03*
Y779970D03*
Y879970D03*
Y979970D03*
Y1079970D03*
Y1179970D03*
Y1279970D03*
Y1379970D03*
Y1479970D03*
Y1579970D03*
Y1679970D03*
Y1779970D03*
Y1879970D03*
Y1979970D03*
Y2079970D03*
Y2179970D03*
Y2279970D03*
Y2379970D03*
Y2479970D03*
Y2579970D03*
Y2679970D03*
Y2779970D03*
Y2879970D03*
Y2979970D03*
Y3079970D03*
Y3179970D03*
Y3279970D03*
Y3379970D03*
Y3479970D03*
Y3579970D03*
Y3679970D03*
Y3779970D03*
Y3879970D03*
Y3979970D03*
Y4279970D03*
Y4079970D03*
Y4179970D03*
Y4379970D03*
Y4479970D03*
Y4579970D03*
Y4679970D03*
Y4779970D03*
Y4879970D03*
Y4979970D03*
Y5079970D03*
X2427470Y270270D03*
Y670270D03*
Y1070270D03*
Y1470270D03*
Y1870270D03*
Y2270270D03*
Y2670270D03*
Y3070270D03*
Y3470270D03*
Y3870270D03*
Y4270270D03*
Y4670270D03*
Y5070270D03*
X2827470Y270270D03*
Y670270D03*
Y1070270D03*
Y1470270D03*
Y1870270D03*
Y2270270D03*
Y2670270D03*
Y3070270D03*
Y3470270D03*
Y3870270D03*
Y4270270D03*
Y4670270D03*
Y5070270D03*
X3227470Y270270D03*
Y670270D03*
Y1070270D03*
Y1470270D03*
Y1870270D03*
Y2270270D03*
Y2670270D03*
Y3070270D03*
Y3470270D03*
Y3870270D03*
Y4270270D03*
Y4670270D03*
Y5070270D03*
X3627470Y270270D03*
Y670270D03*
Y1070270D03*
Y1470270D03*
Y1870270D03*
Y2270270D03*
Y2670270D03*
Y3070270D03*
Y3470270D03*
Y3870270D03*
Y4270270D03*
Y4670270D03*
Y5070270D03*
X4036130Y463100D03*
X4136130Y459970D03*
X4036130Y559970D03*
Y659970D03*
Y759970D03*
X4136130Y559970D03*
Y659970D03*
Y759970D03*
X4036130Y859970D03*
Y959970D03*
Y1059970D03*
X4136130Y859970D03*
Y959970D03*
Y1059970D03*
X4036130Y1159970D03*
Y1259970D03*
Y1359970D03*
X4136130Y1159970D03*
Y1259970D03*
Y1359970D03*
X4036130Y1459970D03*
Y1559970D03*
X4136130Y1459970D03*
Y1559970D03*
X4036130Y1659970D03*
Y1759970D03*
Y1859970D03*
X4136130Y1659970D03*
Y1759970D03*
Y1859970D03*
X4036130Y1959970D03*
Y2059970D03*
Y2159970D03*
X4136130Y1959970D03*
Y2059970D03*
Y2159970D03*
X4036130Y2259970D03*
Y2359970D03*
Y2459970D03*
X4136130Y2259970D03*
Y2359970D03*
Y2459970D03*
X4036130Y2559970D03*
Y2659970D03*
Y2759970D03*
X4136130Y2559970D03*
Y2659970D03*
Y2759970D03*
X4036130Y2859970D03*
Y2959970D03*
Y3059970D03*
X4136130Y2859970D03*
Y2959970D03*
Y3059970D03*
X4036130Y3159970D03*
Y3259970D03*
Y3359970D03*
X4136130Y3159970D03*
Y3259970D03*
Y3359970D03*
X4036130Y3459970D03*
Y3559970D03*
Y3659970D03*
X4136130Y3459970D03*
Y3559970D03*
Y3659970D03*
X4036130Y3759970D03*
Y3859970D03*
Y3959970D03*
X4136130Y3759970D03*
Y3859970D03*
Y3959970D03*
X4036130Y4259970D03*
Y4059970D03*
Y4159970D03*
X4136130Y4259970D03*
Y4059970D03*
Y4159970D03*
X4036130Y4359970D03*
Y4459970D03*
Y4559970D03*
X4136130Y4359970D03*
Y4459970D03*
Y4559970D03*
X4036130Y4659970D03*
Y4759970D03*
Y4859970D03*
X4136130Y4659970D03*
Y4759970D03*
Y4859970D03*
X4036130Y4959970D03*
Y5041900D03*
X4136130Y4959970D03*
Y5041900D03*
X4366130Y459970D03*
X4466130Y463100D03*
X4366130Y759970D03*
Y659970D03*
Y559970D03*
X4466130Y759970D03*
Y659970D03*
Y559970D03*
X4366130Y1059970D03*
Y959970D03*
Y859970D03*
X4466130Y1059970D03*
Y959970D03*
Y859970D03*
X4366130Y1159970D03*
Y1359970D03*
Y1259970D03*
X4466130Y1159970D03*
Y1359970D03*
Y1259970D03*
X4366130Y1559970D03*
Y1459970D03*
X4466130Y1559970D03*
Y1459970D03*
X4366130Y1859970D03*
Y1759970D03*
Y1659970D03*
X4466130Y1859970D03*
Y1759970D03*
Y1659970D03*
X4366130Y1959970D03*
Y2159970D03*
Y2059970D03*
X4466130Y1959970D03*
Y2159970D03*
Y2059970D03*
X4366130Y2259970D03*
Y2459970D03*
Y2359970D03*
X4466130Y2259970D03*
Y2459970D03*
Y2359970D03*
X4366130Y2659970D03*
Y2559970D03*
Y2759970D03*
X4466130Y2659970D03*
Y2559970D03*
Y2759970D03*
X4366130Y3059970D03*
Y2959970D03*
Y2859970D03*
X4466130Y3059970D03*
Y2959970D03*
Y2859970D03*
X4366130Y3359970D03*
Y3259970D03*
Y3159970D03*
X4466130Y3359970D03*
Y3259970D03*
Y3159970D03*
X4366130Y3459970D03*
Y3659970D03*
Y3559970D03*
X4466130Y3459970D03*
Y3659970D03*
Y3559970D03*
X4366130Y3859970D03*
Y3759970D03*
Y3959970D03*
X4466130Y3859970D03*
Y3759970D03*
Y3959970D03*
X4366130Y4159970D03*
Y4059970D03*
Y4259970D03*
X4466130Y4159970D03*
Y4059970D03*
Y4259970D03*
X4366130Y4559970D03*
Y4459970D03*
Y4359970D03*
X4466130Y4559970D03*
Y4459970D03*
Y4359970D03*
X4366130Y4859970D03*
Y4759970D03*
Y4659970D03*
X4466130Y4859970D03*
Y4759970D03*
Y4659970D03*
X4366130Y4959970D03*
Y5041900D03*
X4466130Y4959970D03*
Y5041900D03*
X4887470Y260270D03*
Y660270D03*
Y1060270D03*
Y1460270D03*
Y1860270D03*
Y2260270D03*
Y2660270D03*
Y3060270D03*
Y3460270D03*
Y3860270D03*
Y4260270D03*
Y4660270D03*
Y5060270D03*
X5287470Y260270D03*
Y660270D03*
Y1060270D03*
Y1460270D03*
Y1860270D03*
Y2260270D03*
Y2660270D03*
Y3060270D03*
Y3460270D03*
Y3860270D03*
Y4260270D03*
Y4660270D03*
Y5060270D03*
X5687470Y260270D03*
Y660270D03*
Y1060270D03*
Y1460270D03*
Y1860270D03*
Y2260270D03*
Y2660270D03*
Y3060270D03*
Y3460270D03*
Y3860270D03*
Y4260270D03*
Y4660270D03*
Y5060270D03*
X6087470Y260270D03*
Y660270D03*
Y1060270D03*
Y1460270D03*
Y1860270D03*
Y2260270D03*
Y2660270D03*
Y3060270D03*
Y3460270D03*
Y3860270D03*
Y4260270D03*
Y4660270D03*
Y5060270D03*
X6486130Y489970D03*
Y589970D03*
Y689970D03*
X6586130Y489970D03*
Y589970D03*
Y689970D03*
X6486130Y789970D03*
Y889970D03*
Y989970D03*
X6586130Y789970D03*
Y889970D03*
Y989970D03*
X6486130Y1089970D03*
Y1189970D03*
Y1289970D03*
X6586130Y1089970D03*
Y1189970D03*
Y1289970D03*
X6486130Y1389970D03*
Y1489970D03*
Y1589970D03*
X6586130Y1389970D03*
Y1489970D03*
Y1589970D03*
X6486130Y1689970D03*
Y1789970D03*
Y1889970D03*
X6586130Y1689970D03*
Y1789970D03*
Y1889970D03*
X6486130Y1989970D03*
Y2089970D03*
Y2189970D03*
X6586130Y1989970D03*
Y2089970D03*
Y2189970D03*
X6486130Y2289970D03*
Y2389970D03*
Y2489970D03*
X6586130Y2289970D03*
Y2389970D03*
Y2489970D03*
X6486130Y2589970D03*
Y2689970D03*
Y2789970D03*
X6586130Y2589970D03*
Y2689970D03*
Y2789970D03*
X6486130Y2889970D03*
Y2989970D03*
Y3089970D03*
X6586130Y2889970D03*
Y2989970D03*
Y3089970D03*
X6486130Y3189970D03*
Y3289970D03*
Y3389970D03*
X6586130Y3189970D03*
Y3289970D03*
Y3389970D03*
X6486130Y3489970D03*
Y3589970D03*
Y3689970D03*
X6586130Y3489970D03*
Y3589970D03*
Y3689970D03*
X6486130Y3789970D03*
Y3889970D03*
Y3989970D03*
X6586130Y3789970D03*
Y3889970D03*
Y3989970D03*
X6486130Y4089970D03*
Y4189970D03*
Y4289970D03*
X6586130Y4089970D03*
Y4189970D03*
Y4289970D03*
X6486130Y4389970D03*
Y4489970D03*
Y4589970D03*
X6586130Y4389970D03*
Y4489970D03*
Y4589970D03*
X6486130Y4689970D03*
Y4789970D03*
Y4889970D03*
X6586130Y4689970D03*
Y4789970D03*
Y4889970D03*
X6816130Y589970D03*
Y489970D03*
Y689970D03*
X6916130Y589970D03*
Y489970D03*
Y689970D03*
X6816130Y989970D03*
Y889970D03*
Y789970D03*
X6916130Y989970D03*
Y889970D03*
Y789970D03*
X6816130Y1289970D03*
Y1189970D03*
Y1089970D03*
X6916130Y1289970D03*
Y1189970D03*
Y1089970D03*
X6816130Y1389970D03*
Y1589970D03*
Y1489970D03*
X6916130Y1389970D03*
Y1589970D03*
Y1489970D03*
X6816130Y1789970D03*
Y1689970D03*
Y1889970D03*
X6916130Y1789970D03*
Y1689970D03*
Y1889970D03*
X6816130Y2089970D03*
Y1989970D03*
Y2189970D03*
X6916130Y2089970D03*
Y1989970D03*
Y2189970D03*
X6816130Y2489970D03*
Y2389970D03*
Y2289970D03*
X6916130Y2489970D03*
Y2389970D03*
Y2289970D03*
X6816130Y2789970D03*
Y2689970D03*
Y2589970D03*
X6916130Y2789970D03*
Y2689970D03*
Y2589970D03*
X6816130Y2889970D03*
Y3089970D03*
Y2989970D03*
X6916130Y2889970D03*
Y3089970D03*
Y2989970D03*
X6816130Y3289970D03*
Y3189970D03*
Y3389970D03*
X6916130Y3289970D03*
Y3189970D03*
Y3389970D03*
X6816130Y3689970D03*
Y3589970D03*
Y3489970D03*
X6916130Y3689970D03*
Y3589970D03*
Y3489970D03*
X6816130Y3989970D03*
Y3889970D03*
Y3789970D03*
X6916130Y3989970D03*
Y3889970D03*
Y3789970D03*
X6816130Y4089970D03*
Y4289970D03*
Y4189970D03*
X6916130Y4089970D03*
Y4289970D03*
Y4189970D03*
X6816130Y4389970D03*
Y4589970D03*
Y4489970D03*
X6916130Y4389970D03*
Y4589970D03*
Y4489970D03*
X6816130Y4789970D03*
Y4689970D03*
Y4889970D03*
X6916130Y4789970D03*
Y4689970D03*
Y4889970D03*
X7343140Y196350D03*
Y596350D03*
Y996350D03*
Y1396350D03*
Y1796350D03*
Y2196350D03*
Y2596350D03*
Y2996350D03*
Y3396350D03*
Y3796350D03*
Y4196350D03*
Y4596350D03*
Y4996350D03*
X7743140Y196350D03*
Y596350D03*
Y996350D03*
Y1396350D03*
Y1796350D03*
Y2196350D03*
Y2596350D03*
Y2996350D03*
Y3396350D03*
Y3796350D03*
Y4196350D03*
Y4596350D03*
Y4996350D03*
X8143140Y996350D03*
Y1396350D03*
Y1796350D03*
Y2196350D03*
Y2596350D03*
Y2996350D03*
Y3396350D03*
Y3796350D03*
Y4196350D03*
Y4596350D03*
M02*
