G04 ================== begin FILE IDENTIFICATION RECORD ==================*
G04 Layout Name:  HY_RF_TEST_V10_210708.brd*
G04 Film Name:    Drill_Legend*
G04 File Format:  Gerber RS274X*
G04 File Origin:  Cadence Allegro 17.2-S071*
G04 Origin Date:  Thu Jul 08 19:44:30 2021*
G04 *
G04 Layer:  MANUFACTURING/NCLEGEND-1-2*
G04 Layer:  MANUFACTURING/NCDRILL_LEGEND*
G04 Layer:  MANUFACTURING/NCDRILL_FIGURE*
G04 Layer:  BOARD GEOMETRY/DIMENSION*
G04 *
G04 Offset:    (0.0000 0.0000)*
G04 Mirror:    No*
G04 Mode:      Positive*
G04 Rotation:  0*
G04 FullContactRelief:  No*
G04 UndefLineWidth:     0.1524*
G04 ================== end FILE IDENTIFICATION RECORD ====================*
%FSLAX55Y55*MOMM*%
%IR0*IPPOS*OFA0.00000B0.00000*MIA0B0*SFA1.00000B1.00000*%
%AMMACRO10*
1,1,.1524,.127,0.0*
20,1,.1524,.127,0.0,-.127,0.0,0.0*
1,1,.1524,-.127,0.0*
1,1,.1524,0.0,.127*
20,1,.1524,0.0,.127,0.0,-.127,0.0*
1,1,.1524,0.0,-.127*
%
%ADD10MACRO10*%
%ADD11C,.1524*%
G75*
%LPD*%
G75*
G54D10*
X253010Y1014830D03*
Y1414830D03*
Y1814830D03*
Y2214830D03*
Y2614830D03*
Y3014830D03*
Y3414830D03*
Y3814830D03*
Y4214830D03*
Y4614830D03*
X653010Y1014830D03*
Y1414830D03*
Y1814830D03*
Y2214830D03*
Y2614830D03*
Y3014830D03*
Y3414830D03*
Y3814830D03*
Y4214830D03*
Y4614830D03*
X1053010Y214830D03*
Y614830D03*
Y1014830D03*
Y1414830D03*
Y1814830D03*
Y2214830D03*
Y2614830D03*
Y3014830D03*
Y3414830D03*
Y3814830D03*
Y4214830D03*
Y4614830D03*
Y5014830D03*
X1586130Y679970D03*
Y579970D03*
Y479970D03*
Y979970D03*
Y879970D03*
Y779970D03*
Y1279970D03*
Y1179970D03*
Y1079970D03*
Y1579970D03*
Y1479970D03*
Y1379970D03*
Y1879970D03*
Y1779970D03*
Y1679970D03*
Y2179970D03*
Y2079970D03*
Y1979970D03*
Y2479970D03*
Y2379970D03*
Y2279970D03*
Y2779970D03*
Y2679970D03*
Y2579970D03*
Y3079970D03*
Y2979970D03*
Y2879970D03*
Y3379970D03*
Y3279970D03*
Y3179970D03*
Y3679970D03*
Y3579970D03*
Y3479970D03*
Y3979970D03*
Y3879970D03*
Y3779970D03*
Y4279970D03*
Y4179970D03*
Y4079970D03*
Y4579970D03*
Y4479970D03*
Y4379970D03*
Y4879970D03*
Y4779970D03*
Y4679970D03*
Y5079970D03*
Y4979970D03*
X1686130Y679970D03*
Y579970D03*
Y479970D03*
X1916130D03*
Y579970D03*
Y679970D03*
X1686130Y979970D03*
Y879970D03*
Y779970D03*
X1916130D03*
Y879970D03*
Y979970D03*
X1686130Y1279970D03*
Y1179970D03*
Y1079970D03*
X1916130D03*
Y1179970D03*
Y1279970D03*
X1686130Y1579970D03*
Y1479970D03*
Y1379970D03*
X1916130D03*
Y1479970D03*
Y1579970D03*
X1686130Y1879970D03*
Y1779970D03*
Y1679970D03*
X1916130D03*
Y1779970D03*
Y1879970D03*
X1686130Y2179970D03*
Y2079970D03*
Y1979970D03*
X1916130D03*
Y2079970D03*
Y2179970D03*
X1686130Y2479970D03*
Y2379970D03*
Y2279970D03*
X1916130D03*
Y2379970D03*
Y2479970D03*
X1686130Y2779970D03*
Y2679970D03*
Y2579970D03*
X1916130D03*
Y2679970D03*
Y2779970D03*
X1686130Y3079970D03*
Y2979970D03*
Y2879970D03*
X1916130D03*
Y2979970D03*
Y3079970D03*
X1686130Y3379970D03*
Y3279970D03*
Y3179970D03*
X1916130D03*
Y3279970D03*
Y3379970D03*
X1686130Y3679970D03*
Y3579970D03*
Y3479970D03*
X1916130D03*
Y3579970D03*
Y3679970D03*
X1686130Y3979970D03*
Y3879970D03*
Y3779970D03*
X1916130D03*
Y3879970D03*
Y3979970D03*
X1686130Y4279970D03*
Y4179970D03*
Y4079970D03*
X1916130Y4279970D03*
Y4079970D03*
Y4179970D03*
X1686130Y4579970D03*
Y4479970D03*
Y4379970D03*
X1916130D03*
Y4479970D03*
Y4579970D03*
X1686130Y4879970D03*
Y4779970D03*
Y4679970D03*
X1916130D03*
Y4779970D03*
Y4879970D03*
X1686130Y5079970D03*
Y4979970D03*
X1916130D03*
Y5079970D03*
X2016130Y479970D03*
Y579970D03*
Y679970D03*
Y779970D03*
Y879970D03*
Y979970D03*
Y1079970D03*
Y1179970D03*
Y1279970D03*
Y1379970D03*
Y1479970D03*
Y1579970D03*
Y1679970D03*
Y1779970D03*
Y1879970D03*
Y1979970D03*
Y2079970D03*
Y2179970D03*
Y2279970D03*
Y2379970D03*
Y2479970D03*
Y2579970D03*
Y2679970D03*
Y2779970D03*
Y2879970D03*
Y2979970D03*
Y3079970D03*
Y3179970D03*
Y3279970D03*
Y3379970D03*
Y3479970D03*
Y3579970D03*
Y3679970D03*
Y3779970D03*
Y3879970D03*
Y3979970D03*
Y4279970D03*
Y4079970D03*
Y4179970D03*
Y4379970D03*
Y4479970D03*
Y4579970D03*
Y4679970D03*
Y4779970D03*
Y4879970D03*
Y4979970D03*
Y5079970D03*
X2427470Y270270D03*
Y670270D03*
Y1070270D03*
Y1470270D03*
Y1870270D03*
Y2270270D03*
Y2670270D03*
Y3070270D03*
Y3470270D03*
Y3870270D03*
Y4270270D03*
Y4670270D03*
Y5070270D03*
X2827470Y270270D03*
Y670270D03*
Y1070270D03*
Y1470270D03*
Y1870270D03*
Y2270270D03*
Y2670270D03*
Y3070270D03*
Y3470270D03*
Y3870270D03*
Y4270270D03*
Y4670270D03*
Y5070270D03*
X3227470Y270270D03*
Y670270D03*
Y1070270D03*
Y1470270D03*
Y1870270D03*
Y2270270D03*
Y2670270D03*
Y3070270D03*
Y3470270D03*
Y3870270D03*
Y4270270D03*
Y4670270D03*
Y5070270D03*
X3627470Y270270D03*
Y670270D03*
Y1070270D03*
Y1470270D03*
Y1870270D03*
Y2270270D03*
Y2670270D03*
Y3070270D03*
Y3470270D03*
Y3870270D03*
Y4270270D03*
Y4670270D03*
Y5070270D03*
X4036130Y463100D03*
X4136130Y459970D03*
X4036130Y559970D03*
Y659970D03*
Y759970D03*
X4136130Y559970D03*
Y659970D03*
Y759970D03*
X4036130Y859970D03*
Y959970D03*
Y1059970D03*
X4136130Y859970D03*
Y959970D03*
Y1059970D03*
X4036130Y1159970D03*
Y1259970D03*
Y1359970D03*
X4136130Y1159970D03*
Y1259970D03*
Y1359970D03*
X4036130Y1459970D03*
Y1559970D03*
X4136130Y1459970D03*
Y1559970D03*
X4036130Y1659970D03*
Y1759970D03*
Y1859970D03*
X4136130Y1659970D03*
Y1759970D03*
Y1859970D03*
X4036130Y1959970D03*
Y2059970D03*
Y2159970D03*
X4136130Y1959970D03*
Y2059970D03*
Y2159970D03*
X4036130Y2259970D03*
Y2359970D03*
Y2459970D03*
X4136130Y2259970D03*
Y2359970D03*
Y2459970D03*
X4036130Y2559970D03*
Y2659970D03*
Y2759970D03*
X4136130Y2559970D03*
Y2659970D03*
Y2759970D03*
X4036130Y2859970D03*
Y2959970D03*
Y3059970D03*
X4136130Y2859970D03*
Y2959970D03*
Y3059970D03*
X4036130Y3159970D03*
Y3259970D03*
Y3359970D03*
X4136130Y3159970D03*
Y3259970D03*
Y3359970D03*
X4036130Y3459970D03*
Y3559970D03*
Y3659970D03*
X4136130Y3459970D03*
Y3559970D03*
Y3659970D03*
X4036130Y3759970D03*
Y3859970D03*
Y3959970D03*
X4136130Y3759970D03*
Y3859970D03*
Y3959970D03*
X4036130Y4259970D03*
Y4059970D03*
Y4159970D03*
X4136130Y4259970D03*
Y4059970D03*
Y4159970D03*
X4036130Y4359970D03*
Y4459970D03*
Y4559970D03*
X4136130Y4359970D03*
Y4459970D03*
Y4559970D03*
X4036130Y4659970D03*
Y4759970D03*
Y4859970D03*
X4136130Y4659970D03*
Y4759970D03*
Y4859970D03*
X4036130Y4959970D03*
Y5041900D03*
X4136130Y4959970D03*
Y5041900D03*
X4366130Y459970D03*
X4466130Y463100D03*
X4366130Y759970D03*
Y659970D03*
Y559970D03*
X4466130Y759970D03*
Y659970D03*
Y559970D03*
X4366130Y1059970D03*
Y959970D03*
Y859970D03*
X4466130Y1059970D03*
Y959970D03*
Y859970D03*
X4366130Y1159970D03*
Y1359970D03*
Y1259970D03*
X4466130Y1159970D03*
Y1359970D03*
Y1259970D03*
X4366130Y1559970D03*
Y1459970D03*
X4466130Y1559970D03*
Y1459970D03*
X4366130Y1859970D03*
Y1759970D03*
Y1659970D03*
X4466130Y1859970D03*
Y1759970D03*
Y1659970D03*
X4366130Y1959970D03*
Y2159970D03*
Y2059970D03*
X4466130Y1959970D03*
Y2159970D03*
Y2059970D03*
X4366130Y2259970D03*
Y2459970D03*
Y2359970D03*
X4466130Y2259970D03*
Y2459970D03*
Y2359970D03*
X4366130Y2659970D03*
Y2559970D03*
Y2759970D03*
X4466130Y2659970D03*
Y2559970D03*
Y2759970D03*
X4366130Y3059970D03*
Y2959970D03*
Y2859970D03*
X4466130Y3059970D03*
Y2959970D03*
Y2859970D03*
X4366130Y3359970D03*
Y3259970D03*
Y3159970D03*
X4466130Y3359970D03*
Y3259970D03*
Y3159970D03*
X4366130Y3459970D03*
Y3659970D03*
Y3559970D03*
X4466130Y3459970D03*
Y3659970D03*
Y3559970D03*
X4366130Y3859970D03*
Y3759970D03*
Y3959970D03*
X4466130Y3859970D03*
Y3759970D03*
Y3959970D03*
X4366130Y4159970D03*
Y4059970D03*
Y4259970D03*
X4466130Y4159970D03*
Y4059970D03*
Y4259970D03*
X4366130Y4559970D03*
Y4459970D03*
Y4359970D03*
X4466130Y4559970D03*
Y4459970D03*
Y4359970D03*
X4366130Y4859970D03*
Y4759970D03*
Y4659970D03*
X4466130Y4859970D03*
Y4759970D03*
Y4659970D03*
X4366130Y4959970D03*
Y5041900D03*
X4466130Y4959970D03*
Y5041900D03*
X4887470Y260270D03*
Y660270D03*
Y1060270D03*
Y1460270D03*
Y1860270D03*
Y2260270D03*
Y2660270D03*
Y3060270D03*
Y3460270D03*
Y3860270D03*
Y4260270D03*
Y4660270D03*
Y5060270D03*
X5287470Y260270D03*
Y660270D03*
Y1060270D03*
Y1460270D03*
Y1860270D03*
Y2260270D03*
Y2660270D03*
Y3060270D03*
Y3460270D03*
Y3860270D03*
Y4260270D03*
Y4660270D03*
Y5060270D03*
X5687470Y260270D03*
Y660270D03*
Y1060270D03*
Y1460270D03*
Y1860270D03*
Y2260270D03*
Y2660270D03*
Y3060270D03*
Y3460270D03*
Y3860270D03*
Y4260270D03*
Y4660270D03*
Y5060270D03*
X6087470Y260270D03*
Y660270D03*
Y1060270D03*
Y1460270D03*
Y1860270D03*
Y2260270D03*
Y2660270D03*
Y3060270D03*
Y3460270D03*
Y3860270D03*
Y4260270D03*
Y4660270D03*
Y5060270D03*
X6486130Y489970D03*
Y589970D03*
Y689970D03*
X6586130Y489970D03*
Y589970D03*
Y689970D03*
X6486130Y789970D03*
Y889970D03*
Y989970D03*
X6586130Y789970D03*
Y889970D03*
Y989970D03*
X6486130Y1089970D03*
Y1189970D03*
Y1289970D03*
X6586130Y1089970D03*
Y1189970D03*
Y1289970D03*
X6486130Y1389970D03*
Y1489970D03*
Y1589970D03*
X6586130Y1389970D03*
Y1489970D03*
Y1589970D03*
X6486130Y1689970D03*
Y1789970D03*
Y1889970D03*
X6586130Y1689970D03*
Y1789970D03*
Y1889970D03*
X6486130Y1989970D03*
Y2089970D03*
Y2189970D03*
X6586130Y1989970D03*
Y2089970D03*
Y2189970D03*
X6486130Y2289970D03*
Y2389970D03*
Y2489970D03*
X6586130Y2289970D03*
Y2389970D03*
Y2489970D03*
X6486130Y2589970D03*
Y2689970D03*
Y2789970D03*
X6586130Y2589970D03*
Y2689970D03*
Y2789970D03*
X6486130Y2889970D03*
Y2989970D03*
Y3089970D03*
X6586130Y2889970D03*
Y2989970D03*
Y3089970D03*
X6486130Y3189970D03*
Y3289970D03*
Y3389970D03*
X6586130Y3189970D03*
Y3289970D03*
Y3389970D03*
X6486130Y3489970D03*
Y3589970D03*
Y3689970D03*
X6586130Y3489970D03*
Y3589970D03*
Y3689970D03*
X6486130Y3789970D03*
Y3889970D03*
Y3989970D03*
X6586130Y3789970D03*
Y3889970D03*
Y3989970D03*
X6486130Y4089970D03*
Y4189970D03*
Y4289970D03*
X6586130Y4089970D03*
Y4189970D03*
Y4289970D03*
X6486130Y4389970D03*
Y4489970D03*
Y4589970D03*
X6586130Y4389970D03*
Y4489970D03*
Y4589970D03*
X6486130Y4689970D03*
Y4789970D03*
Y4889970D03*
X6586130Y4689970D03*
Y4789970D03*
Y4889970D03*
X6816130Y589970D03*
Y489970D03*
Y689970D03*
X6916130Y589970D03*
Y489970D03*
Y689970D03*
X6816130Y989970D03*
Y889970D03*
Y789970D03*
X6916130Y989970D03*
Y889970D03*
Y789970D03*
X6816130Y1289970D03*
Y1189970D03*
Y1089970D03*
X6916130Y1289970D03*
Y1189970D03*
Y1089970D03*
X6816130Y1389970D03*
Y1589970D03*
Y1489970D03*
X6916130Y1389970D03*
Y1589970D03*
Y1489970D03*
X6816130Y1789970D03*
Y1689970D03*
Y1889970D03*
X6916130Y1789970D03*
Y1689970D03*
Y1889970D03*
X6816130Y2089970D03*
Y1989970D03*
Y2189970D03*
X6916130Y2089970D03*
Y1989970D03*
Y2189970D03*
X6816130Y2489970D03*
Y2389970D03*
Y2289970D03*
X6916130Y2489970D03*
Y2389970D03*
Y2289970D03*
X6816130Y2789970D03*
Y2689970D03*
Y2589970D03*
X6916130Y2789970D03*
Y2689970D03*
Y2589970D03*
X6816130Y2889970D03*
Y3089970D03*
Y2989970D03*
X6916130Y2889970D03*
Y3089970D03*
Y2989970D03*
X6816130Y3289970D03*
Y3189970D03*
Y3389970D03*
X6916130Y3289970D03*
Y3189970D03*
Y3389970D03*
X6816130Y3689970D03*
Y3589970D03*
Y3489970D03*
X6916130Y3689970D03*
Y3589970D03*
Y3489970D03*
X6816130Y3989970D03*
Y3889970D03*
Y3789970D03*
X6916130Y3989970D03*
Y3889970D03*
Y3789970D03*
X6816130Y4089970D03*
Y4289970D03*
Y4189970D03*
X6916130Y4089970D03*
Y4289970D03*
Y4189970D03*
X6816130Y4389970D03*
Y4589970D03*
Y4489970D03*
X6916130Y4389970D03*
Y4589970D03*
Y4489970D03*
X6816130Y4789970D03*
Y4689970D03*
Y4889970D03*
X6916130Y4789970D03*
Y4689970D03*
Y4889970D03*
X7343140Y196350D03*
Y596350D03*
Y996350D03*
Y1396350D03*
Y1796350D03*
Y2196350D03*
Y2596350D03*
Y2996350D03*
Y3396350D03*
Y3796350D03*
Y4196350D03*
Y4596350D03*
Y4996350D03*
X7743140Y196350D03*
Y596350D03*
Y996350D03*
Y1396350D03*
Y1796350D03*
Y2196350D03*
Y2596350D03*
Y2996350D03*
Y3396350D03*
Y3796350D03*
Y4196350D03*
Y4596350D03*
Y4996350D03*
X8143140Y996350D03*
Y1396350D03*
Y1796350D03*
Y2196350D03*
Y2596350D03*
Y2996350D03*
Y3396350D03*
Y3796350D03*
Y4196350D03*
Y4596350D03*
X9891730Y652500D03*
G54D11*
G01X-1387400Y2523320D02*
X-1373180Y2507450D01*
X-1356590Y2497920D01*
X-1335250Y2494750D01*
X-1313910Y2501100D01*
X-1297320Y2513800D01*
X-1285470Y2536020D01*
X-1283100Y2561420D01*
X-1287840Y2586820D01*
X-1299690Y2602700D01*
X-1316290Y2615400D01*
X-1332880Y2618570D01*
X-1349470Y2615400D01*
X-1370810Y2602700D01*
X-1363700Y2685250D01*
X-1299690D01*
G01X-1116300Y2494750D02*
Y2685250D01*
X-1204020Y2548730D01*
X-1085480D01*
G01X3904750Y-1125250D02*
X3921340Y-1122080D01*
X3940310Y-1112550D01*
X3952160Y-1096680D01*
X3956900Y-1074450D01*
X3952160Y-1052230D01*
X3937940Y-1033180D01*
X3916600Y-1023650D01*
X3892900D01*
X3878670Y-1017300D01*
X3866820Y-1001430D01*
X3862080Y-979200D01*
X3869190Y-956980D01*
X3885780Y-941100D01*
X3904750Y-934750D01*
X3923710Y-941100D01*
X3940310Y-956980D01*
X3947420Y-979200D01*
X3942680Y-1001430D01*
X3930830Y-1017300D01*
X3916600Y-1023650D01*
X3892900D01*
X3871560Y-1033180D01*
X3857340Y-1052230D01*
X3852600Y-1074450D01*
X3857340Y-1096680D01*
X3869190Y-1112550D01*
X3888160Y-1122080D01*
X3904750Y-1125250D01*
G01X4043100Y-1096680D02*
X4057320Y-1112550D01*
X4073910Y-1122080D01*
X4095250Y-1125250D01*
X4116590Y-1118900D01*
X4133180Y-1106200D01*
X4145030Y-1083980D01*
X4147400Y-1058580D01*
X4142660Y-1033180D01*
X4130810Y-1017300D01*
X4114210Y-1004600D01*
X4097620Y-1001430D01*
X4081030Y-1004600D01*
X4059690Y-1017300D01*
X4066800Y-934750D01*
X4130810D01*
G01X9029520Y1128750D02*
Y1446250D01*
X9179140D01*
G01X9124010Y1292800D02*
X9029520D01*
G01X9372050Y1446250D02*
X9466530D01*
G01X9419290D02*
Y1128750D01*
G01X9372050D02*
X9466530D01*
G01X9757870Y1287500D02*
X9836620D01*
Y1192250D01*
X9812990Y1160490D01*
X9785430Y1139330D01*
X9746060Y1128750D01*
X9706690Y1139330D01*
X9679130Y1160490D01*
X9655510Y1192250D01*
X9639760Y1229290D01*
X9631880Y1271620D01*
Y1308670D01*
X9639760Y1340410D01*
X9655510Y1377460D01*
X9679130Y1409210D01*
X9702750Y1430370D01*
X9734250Y1446250D01*
X9761810D01*
X9793300Y1435670D01*
X9816930Y1414500D01*
G01X9962600Y1446250D02*
Y1218710D01*
X9978340Y1171070D01*
X10009840Y1139330D01*
X10049210Y1128750D01*
X10088580Y1139330D01*
X10120080Y1171070D01*
X10135820Y1218710D01*
Y1446250D01*
G01X10285430Y1128750D02*
Y1446250D01*
X10383850D01*
X10415350Y1430370D01*
X10435040Y1409210D01*
X10442910Y1366870D01*
X10435040Y1324540D01*
X10411410Y1298090D01*
X10383850Y1282200D01*
X10285430D01*
G01X10383850D02*
X10442910Y1128750D01*
G01X10757870D02*
X10600390D01*
Y1446250D01*
X10757870D01*
G01X10694880Y1292800D02*
X10600390D01*
G01X10698810Y1763750D02*
X10797240Y2081250D01*
X10895670Y1763750D01*
G01X10860230Y1874870D02*
X10734240D01*
G01X11033460Y2081250D02*
Y1763750D01*
X11190940D01*
G01X11348420Y2081250D02*
Y1763750D01*
X11505900D01*
G01X11970470Y2081250D02*
Y1853710D01*
X11986210Y1806070D01*
X12017710Y1774330D01*
X12057080Y1763750D01*
X12096450Y1774330D01*
X12127950Y1806070D01*
X12143690Y1853710D01*
Y2081250D01*
G01X12281490Y1763750D02*
Y2081250D01*
X12462590Y1763750D01*
Y2081250D01*
G01X12639760D02*
X12734240D01*
G01X12687000D02*
Y1763750D01*
G01X12639760D02*
X12734240D01*
G01X13001960Y2081250D02*
Y1763750D01*
G01X12911410Y2081250D02*
X13092510D01*
G01X13234240Y1806070D02*
X13265740Y1779620D01*
X13301170Y1763750D01*
X13332670D01*
X13364160Y1779620D01*
X13387790Y1806070D01*
X13399600Y1843130D01*
X13391730Y1880160D01*
X13372040Y1911910D01*
X13336600Y1933090D01*
X13289360Y1943670D01*
X13261800Y1964830D01*
X13249990Y2001870D01*
X13257870Y2038920D01*
X13277550Y2065370D01*
X13305110Y2081250D01*
X13332670D01*
X13360230Y2070670D01*
X13383850Y2044210D01*
G01X13848410Y1763750D02*
X13946840Y2081250D01*
X14045270Y1763750D01*
G01X14009830Y1874870D02*
X13883840D01*
G01X14183060Y1763750D02*
Y2081250D01*
X14281480D01*
X14312980Y2065370D01*
X14332670Y2044210D01*
X14340540Y2001870D01*
X14332670Y1959540D01*
X14309040Y1933090D01*
X14281480Y1917200D01*
X14183060D01*
G01X14281480D02*
X14340540Y1763750D01*
G01X14655500D02*
X14498020D01*
Y2081250D01*
X14655500D01*
G01X14592510Y1927800D02*
X14498020D01*
G01X15159440Y2081250D02*
X15253920D01*
G01X15206680D02*
Y1763750D01*
G01X15159440D02*
X15253920D01*
G01X15431090D02*
Y2081250D01*
X15612190Y1763750D01*
Y2081250D01*
G01X16049190Y1763750D02*
Y2081250D01*
X16151560Y1816670D01*
X16253930Y2081250D01*
Y1763750D01*
G01X16419280Y2081250D02*
X16513760D01*
G01X16466520D02*
Y1763750D01*
G01X16419280D02*
X16513760D01*
G01X16702740Y2081250D02*
Y1763750D01*
X16860220D01*
G01X17017700Y2081250D02*
Y1763750D01*
X17175180D01*
G01X17364160Y2081250D02*
X17458640D01*
G01X17411400D02*
Y1763750D01*
G01X17364160D02*
X17458640D01*
G01X17623990D02*
Y2081250D01*
X17726360Y1816670D01*
X17828730Y2081250D01*
Y1763750D01*
G01X18120060D02*
X17962580D01*
Y2081250D01*
X18120060D01*
G01X18057070Y1927800D02*
X17962580D01*
G01X18356280Y2081250D02*
Y1763750D01*
G01X18265730Y2081250D02*
X18446830D01*
G01X18749980Y1763750D02*
X18592500D01*
Y2081250D01*
X18749980D01*
G01X18686990Y1927800D02*
X18592500D01*
G01X18907460Y1763750D02*
Y2081250D01*
X19005880D01*
X19037380Y2065370D01*
X19057070Y2044210D01*
X19064940Y2001870D01*
X19057070Y1959540D01*
X19033440Y1933090D01*
X19005880Y1917200D01*
X18907460D01*
G01X19005880D02*
X19064940Y1763750D01*
G01X19218480Y1806070D02*
X19249980Y1779620D01*
X19285410Y1763750D01*
X19316910D01*
X19348400Y1779620D01*
X19372030Y1806070D01*
X19383840Y1843130D01*
X19375970Y1880160D01*
X19356280Y1911910D01*
X19320840Y1933090D01*
X19273600Y1943670D01*
X19246040Y1964830D01*
X19234230Y2001870D01*
X19242110Y2038920D01*
X19261790Y2065370D01*
X19289350Y2081250D01*
X19316910D01*
X19344470Y2070670D01*
X19368090Y2044210D01*
G01X11025590Y2413750D02*
Y2731250D01*
X11104320D01*
X11135820Y2715370D01*
X11159440Y2694210D01*
X11179130Y2662460D01*
X11194880Y2625410D01*
X11198810Y2572500D01*
X11194880Y2519580D01*
X11179130Y2482540D01*
X11159440Y2450780D01*
X11135820Y2429620D01*
X11104320Y2413750D01*
X11025590D01*
G01X11348420D02*
Y2731250D01*
X11446840D01*
X11478340Y2715370D01*
X11498030Y2694210D01*
X11505900Y2651870D01*
X11498030Y2609540D01*
X11474400Y2583090D01*
X11446840Y2567200D01*
X11348420D01*
G01X11446840D02*
X11505900Y2413750D01*
G01X11694880Y2731250D02*
X11789360D01*
G01X11742120D02*
Y2413750D01*
G01X11694880D02*
X11789360D01*
G01X11978340Y2731250D02*
Y2413750D01*
X12135820D01*
G01X12293300Y2731250D02*
Y2413750D01*
X12450780D01*
G01X13088570Y2704790D02*
X13064950Y2720670D01*
X13037400Y2731250D01*
X13005900D01*
X12970460Y2715370D01*
X12942910Y2688920D01*
X12923220Y2657160D01*
X12907470Y2604250D01*
X12903530Y2556620D01*
X12911410Y2509000D01*
X12923220Y2477250D01*
X12946840Y2445490D01*
X12974400Y2424330D01*
X13001960Y2413750D01*
X13029520D01*
X13057080Y2424330D01*
X13080700Y2440200D01*
X13100390Y2461360D01*
G01X13234240Y2413750D02*
Y2731250D01*
G01X13399600D02*
Y2413750D01*
G01Y2572500D02*
X13234240D01*
G01X13533450Y2413750D02*
X13631880Y2731250D01*
X13730310Y2413750D01*
G01X13694870Y2524870D02*
X13568880D01*
G01X13868100Y2413750D02*
Y2731250D01*
X13966520D01*
X13998020Y2715370D01*
X14017710Y2694210D01*
X14025580Y2651870D01*
X14017710Y2609540D01*
X13994080Y2583090D01*
X13966520Y2567200D01*
X13868100D01*
G01X13966520D02*
X14025580Y2413750D01*
G01X14261800Y2731250D02*
Y2413750D01*
G01X14171250Y2731250D02*
X14352350D01*
G01X14576760Y2403170D02*
X14568880Y2408460D01*
Y2419040D01*
X14576760Y2424330D01*
X14584640Y2419040D01*
Y2408460D01*
X14576760Y2403170D01*
G01Y2546030D02*
X14568880Y2551330D01*
Y2561910D01*
X14576760Y2567200D01*
X14584640Y2561910D01*
Y2551330D01*
X14576760Y2546030D01*
G01X15206680Y2731250D02*
Y2413750D01*
G01X15116130Y2731250D02*
X15297230D01*
G01X15521640Y2413750D02*
X15490140Y2419040D01*
X15462590Y2440200D01*
X15438960Y2471960D01*
X15423210Y2509000D01*
X15415340Y2551330D01*
Y2593670D01*
X15423210Y2636000D01*
X15438960Y2673040D01*
X15462590Y2704790D01*
X15490140Y2725960D01*
X15521640Y2731250D01*
X15553130Y2725960D01*
X15580690Y2704790D01*
X15604320Y2673040D01*
X15620070Y2636000D01*
X15627940Y2593670D01*
Y2551330D01*
X15620070Y2509000D01*
X15604320Y2471960D01*
X15580690Y2440200D01*
X15553130Y2419040D01*
X15521640Y2413750D01*
G01X15757860D02*
Y2731250D01*
X15852350D01*
X15883840Y2715370D01*
X15907470Y2678330D01*
X15915340Y2636000D01*
X15907470Y2593670D01*
X15887780Y2561910D01*
X15852350Y2546030D01*
X15757860D01*
G01X16466520Y2731250D02*
Y2413750D01*
G01X16411400Y2625410D02*
X16521640D01*
G01X16781480Y2413750D02*
X16757860Y2419040D01*
X16734240Y2440200D01*
X16718480Y2477250D01*
X16710610Y2519580D01*
X16718480Y2561910D01*
X16734240Y2598960D01*
X16757860Y2620120D01*
X16781480Y2625410D01*
X16805100Y2620120D01*
X16828720Y2598960D01*
X16844470Y2561910D01*
X16848410Y2519580D01*
X16844470Y2477250D01*
X16828720Y2440200D01*
X16805100Y2419040D01*
X16781480Y2413750D01*
G01X17442890Y2583090D02*
X17458640Y2598960D01*
X17470450Y2625410D01*
X17478330Y2662460D01*
X17470450Y2694210D01*
X17454710Y2715370D01*
X17427150Y2731250D01*
X17320850D01*
Y2413750D01*
X17450770D01*
X17478330Y2434910D01*
X17494080Y2466670D01*
X17501950Y2503710D01*
X17494080Y2540740D01*
X17470450Y2572500D01*
X17442890Y2583090D01*
X17320850D01*
G01X17726360Y2413750D02*
X17694860Y2419040D01*
X17667310Y2440200D01*
X17643680Y2471960D01*
X17627930Y2509000D01*
X17620060Y2551330D01*
Y2593670D01*
X17627930Y2636000D01*
X17643680Y2673040D01*
X17667310Y2704790D01*
X17694860Y2725960D01*
X17726360Y2731250D01*
X17757850Y2725960D01*
X17785410Y2704790D01*
X17809040Y2673040D01*
X17824790Y2636000D01*
X17832660Y2593670D01*
Y2551330D01*
X17824790Y2509000D01*
X17809040Y2471960D01*
X17785410Y2440200D01*
X17757850Y2419040D01*
X17726360Y2413750D01*
G01X18041320Y2731250D02*
Y2413750D01*
G01X17950770Y2731250D02*
X18131870D01*
G01X18356280D02*
Y2413750D01*
G01X18265730Y2731250D02*
X18446830D01*
G01X18671240Y2413750D02*
X18639740Y2419040D01*
X18612190Y2440200D01*
X18588560Y2471960D01*
X18572810Y2509000D01*
X18564940Y2551330D01*
Y2593670D01*
X18572810Y2636000D01*
X18588560Y2673040D01*
X18612190Y2704790D01*
X18639740Y2725960D01*
X18671240Y2731250D01*
X18702730Y2725960D01*
X18730290Y2704790D01*
X18753920Y2673040D01*
X18769670Y2636000D01*
X18777540Y2593670D01*
Y2551330D01*
X18769670Y2509000D01*
X18753920Y2471960D01*
X18730290Y2440200D01*
X18702730Y2419040D01*
X18671240Y2413750D01*
G01X18883830D02*
Y2731250D01*
X18986200Y2466670D01*
X19088570Y2731250D01*
Y2413750D01*
G01X11627940Y1128750D02*
Y1446250D01*
X11777560D01*
G01X11722430Y1292800D02*
X11627940D01*
G01X11970470Y1446250D02*
X12064950D01*
G01X12017710D02*
Y1128750D01*
G01X11970470D02*
X12064950D01*
G01X12242120D02*
Y1446250D01*
X12423220Y1128750D01*
Y1446250D01*
G01X12600390D02*
X12694870D01*
G01X12647630D02*
Y1128750D01*
G01X12600390D02*
X12694870D01*
G01X12879910Y1171070D02*
X12911410Y1144620D01*
X12946840Y1128750D01*
X12978340D01*
X13009830Y1144620D01*
X13033460Y1171070D01*
X13045270Y1208130D01*
X13037400Y1245160D01*
X13017710Y1276910D01*
X12982270Y1298090D01*
X12935030Y1308670D01*
X12907470Y1329830D01*
X12895660Y1366870D01*
X12903540Y1403920D01*
X12923220Y1430370D01*
X12950780Y1446250D01*
X12978340D01*
X13005900Y1435670D01*
X13029520Y1409210D01*
G01X13194870Y1128750D02*
Y1446250D01*
G01X13360230D02*
Y1128750D01*
G01Y1287500D02*
X13194870D01*
G01X13671250Y1128750D02*
X13513770D01*
Y1446250D01*
X13671250D01*
G01X13608260Y1292800D02*
X13513770D01*
G01X13820860Y1128750D02*
Y1446250D01*
X13899590D01*
X13931090Y1430370D01*
X13954710Y1409210D01*
X13974400Y1377460D01*
X13990150Y1340410D01*
X13994080Y1287500D01*
X13990150Y1234580D01*
X13974400Y1197540D01*
X13954710Y1165780D01*
X13931090Y1144620D01*
X13899590Y1128750D01*
X13820860D01*
G01X14104320Y1022920D02*
X14340540D01*
G01X14454710Y1171070D02*
X14486210Y1144620D01*
X14521640Y1128750D01*
X14553140D01*
X14584630Y1144620D01*
X14608260Y1171070D01*
X14620070Y1208130D01*
X14612200Y1245160D01*
X14592510Y1276910D01*
X14557070Y1298090D01*
X14509830Y1308670D01*
X14482270Y1329830D01*
X14470460Y1366870D01*
X14478340Y1403920D01*
X14498020Y1430370D01*
X14525580Y1446250D01*
X14553140D01*
X14580700Y1435670D01*
X14604320Y1409210D01*
G01X14805110Y1446250D02*
X14899590D01*
G01X14852350D02*
Y1128750D01*
G01X14805110D02*
X14899590D01*
G01X15092500Y1446250D02*
X15242120D01*
X15092500Y1128750D01*
X15242120D01*
G01X15561010D02*
X15403530D01*
Y1446250D01*
X15561010D01*
G01X15498020Y1292800D02*
X15403530D01*
G01X12962590Y811250D02*
X12931090Y800670D01*
X12907470Y774210D01*
X12891720Y742460D01*
X12879910Y700120D01*
X12875980Y652500D01*
X12879910Y604870D01*
X12891720Y562540D01*
X12907470Y530780D01*
X12931090Y504330D01*
X12962590Y493750D01*
X12994080Y504330D01*
X13017710Y530780D01*
X13033460Y562540D01*
X13045270Y604870D01*
X13049200Y652500D01*
X13045270Y700120D01*
X13033460Y742460D01*
X13017710Y774210D01*
X12994080Y800670D01*
X12962590Y811250D01*
G01X13277550Y483170D02*
X13269670Y488460D01*
Y499040D01*
X13277550Y504330D01*
X13285430Y499040D01*
Y488460D01*
X13277550Y483170D01*
G01X13517700Y758330D02*
X13541330Y790080D01*
X13568890Y805960D01*
X13600390Y811250D01*
X13639750Y800670D01*
X13667320Y774210D01*
X13675190Y742460D01*
X13671250Y710700D01*
X13655500Y684250D01*
X13576760Y631330D01*
X13541330Y594290D01*
X13517700Y541360D01*
X13509830Y493750D01*
X13675190D01*
G01X13820860Y541360D02*
X13844470Y514910D01*
X13872030Y499040D01*
X13907470Y493750D01*
X13942910Y504330D01*
X13970460Y525490D01*
X13990150Y562540D01*
X13994080Y604870D01*
X13986210Y647200D01*
X13966520Y673670D01*
X13938960Y694830D01*
X13911410Y700120D01*
X13883850Y694830D01*
X13848420Y673670D01*
X13860230Y811250D01*
X13966520D01*
G01X14269670Y493750D02*
Y811250D01*
X14124000Y583710D01*
X14320860D01*
G01X15479730Y176250D02*
Y-141250D01*
G01X15389180Y176250D02*
X15570280D01*
G01X15794690Y-141250D02*
X15763190Y-135960D01*
X15735640Y-114800D01*
X15712010Y-83040D01*
X15696260Y-46000D01*
X15688390Y-3670D01*
Y38670D01*
X15696260Y81000D01*
X15712010Y118040D01*
X15735640Y149790D01*
X15763190Y170960D01*
X15794690Y176250D01*
X15826180Y170960D01*
X15853740Y149790D01*
X15877370Y118040D01*
X15893120Y81000D01*
X15900990Y38670D01*
Y-3670D01*
X15893120Y-46000D01*
X15877370Y-83040D01*
X15853740Y-114800D01*
X15826180Y-135960D01*
X15794690Y-141250D01*
G01X16109650Y176250D02*
Y-141250D01*
G01X16019100Y176250D02*
X16200200D01*
G01X16326180Y-141250D02*
X16424610Y176250D01*
X16523040Y-141250D01*
G01X16487600Y-30130D02*
X16361610D01*
G01X16660830Y176250D02*
Y-141250D01*
X16818310D01*
G01X17286810D02*
Y176250D01*
G01X17452170D02*
Y-141250D01*
G01Y17500D02*
X17286810D01*
G01X17684450Y-141250D02*
X17652950Y-135960D01*
X17625400Y-114800D01*
X17601770Y-83040D01*
X17586020Y-46000D01*
X17578150Y-3670D01*
Y38670D01*
X17586020Y81000D01*
X17601770Y118040D01*
X17625400Y149790D01*
X17652950Y170960D01*
X17684450Y176250D01*
X17715940Y170960D01*
X17743500Y149790D01*
X17767130Y118040D01*
X17782880Y81000D01*
X17790750Y38670D01*
Y-3670D01*
X17782880Y-46000D01*
X17767130Y-83040D01*
X17743500Y-114800D01*
X17715940Y-135960D01*
X17684450Y-141250D01*
G01X17920670Y176250D02*
Y-141250D01*
X18078150D01*
G01X18393110D02*
X18235630D01*
Y176250D01*
X18393110D01*
G01X18330120Y22800D02*
X18235630D01*
G01X18546650Y-98930D02*
X18578150Y-125380D01*
X18613580Y-141250D01*
X18645080D01*
X18676570Y-125380D01*
X18700200Y-98930D01*
X18712010Y-61870D01*
X18704140Y-24840D01*
X18684450Y6910D01*
X18649010Y28090D01*
X18601770Y38670D01*
X18574210Y59830D01*
X18562400Y96870D01*
X18570280Y133920D01*
X18589960Y160370D01*
X18617520Y176250D01*
X18645080D01*
X18672640Y165670D01*
X18696260Y139210D01*
G01X18944290Y-151830D02*
X18936410Y-146540D01*
Y-135960D01*
X18944290Y-130670D01*
X18952170Y-135960D01*
Y-146540D01*
X18944290Y-151830D01*
G01Y-8970D02*
X18936410Y-3670D01*
Y6910D01*
X18944290Y12200D01*
X18952170Y6910D01*
Y-3670D01*
X18944290Y-8970D01*
G01X16899590Y493750D02*
Y811250D01*
X16994080D01*
X17025570Y795370D01*
X17049200Y758330D01*
X17057070Y716000D01*
X17049200Y673670D01*
X17029510Y641910D01*
X16994080Y626030D01*
X16899590D01*
G01X17214550Y811250D02*
Y493750D01*
X17372030D01*
G01X17509820D02*
X17608250Y811250D01*
X17706680Y493750D01*
G01X17671240Y604870D02*
X17545250D01*
G01X17923210Y811250D02*
Y493750D01*
G01X17832660Y811250D02*
X18013760D01*
G01X18316910Y493750D02*
X18159430D01*
Y811250D01*
X18316910D01*
G01X18253920Y657800D02*
X18159430D01*
G01X18466520Y493750D02*
Y811250D01*
X18545250D01*
X18576750Y795370D01*
X18600370Y774210D01*
X18620060Y742460D01*
X18635810Y705410D01*
X18639740Y652500D01*
X18635810Y599580D01*
X18620060Y562540D01*
X18600370Y530780D01*
X18576750Y509620D01*
X18545250Y493750D01*
X18466520D01*
G01X16899590Y1128750D02*
Y1446250D01*
X16994080D01*
X17025570Y1430370D01*
X17049200Y1393330D01*
X17057070Y1351000D01*
X17049200Y1308670D01*
X17029510Y1276910D01*
X16994080Y1261030D01*
X16899590D01*
G01X17214550Y1446250D02*
Y1128750D01*
X17372030D01*
G01X17509820D02*
X17608250Y1446250D01*
X17706680Y1128750D01*
G01X17671240Y1239870D02*
X17545250D01*
G01X17923210Y1446250D02*
Y1128750D01*
G01X17832660Y1446250D02*
X18013760D01*
G01X18316910Y1128750D02*
X18159430D01*
Y1446250D01*
X18316910D01*
G01X18253920Y1292800D02*
X18159430D01*
G01X18466520Y1128750D02*
Y1446250D01*
X18545250D01*
X18576750Y1430370D01*
X18600370Y1409210D01*
X18620060Y1377460D01*
X18635810Y1340410D01*
X18639740Y1287500D01*
X18635810Y1234580D01*
X18620060Y1197540D01*
X18600370Y1165780D01*
X18576750Y1144620D01*
X18545250Y1128750D01*
X18466520D01*
G01X20041310Y-141250D02*
X20049190Y-72460D01*
X20061000Y-14260D01*
X20076750Y38670D01*
X20096430Y96870D01*
X20127930Y176250D01*
X19970450D01*
G01X20289340Y123330D02*
X20312970Y155080D01*
X20340530Y170960D01*
X20372030Y176250D01*
X20411390Y165670D01*
X20438960Y139210D01*
X20446830Y107460D01*
X20442890Y75700D01*
X20427140Y49250D01*
X20348400Y-3670D01*
X20312970Y-40710D01*
X20289340Y-93640D01*
X20281470Y-141250D01*
X20446830D01*
G01X20612180Y-104220D02*
X20639740Y-130670D01*
X20671230Y-141250D01*
X20702730Y-130670D01*
X20730290Y-98930D01*
X20749980Y-51290D01*
X20757850Y-3670D01*
Y54540D01*
X20749980Y102160D01*
X20730290Y144500D01*
X20706670Y165670D01*
X20679110Y176250D01*
X20647610Y165670D01*
X20623990Y144500D01*
X20608240Y112750D01*
X20600370Y70410D01*
X20608240Y33380D01*
X20627930Y-3670D01*
X20651550Y-24840D01*
X20679110Y-30130D01*
X20710600Y-19550D01*
X20734230Y6910D01*
X20757850Y54540D01*
G01X20041310Y493750D02*
X20049190Y562540D01*
X20061000Y620740D01*
X20076750Y673670D01*
X20096430Y731870D01*
X20127930Y811250D01*
X19970450D01*
G01X20289340Y758330D02*
X20312970Y790080D01*
X20340530Y805960D01*
X20372030Y811250D01*
X20411390Y800670D01*
X20438960Y774210D01*
X20446830Y742460D01*
X20442890Y710700D01*
X20427140Y684250D01*
X20348400Y631330D01*
X20312970Y594290D01*
X20289340Y541360D01*
X20281470Y493750D01*
X20446830D01*
G01X20612180Y530780D02*
X20639740Y504330D01*
X20671230Y493750D01*
X20702730Y504330D01*
X20730290Y536070D01*
X20749980Y583710D01*
X20757850Y631330D01*
Y689540D01*
X20749980Y737160D01*
X20730290Y779500D01*
X20706670Y800670D01*
X20679110Y811250D01*
X20647610Y800670D01*
X20623990Y779500D01*
X20608240Y747750D01*
X20600370Y705410D01*
X20608240Y668380D01*
X20627930Y631330D01*
X20651550Y610160D01*
X20679110Y604870D01*
X20710600Y615450D01*
X20734230Y641910D01*
X20757850Y689540D01*
G01X20049190Y1128750D02*
X20017690Y1134040D01*
X19990140Y1155200D01*
X19966510Y1186960D01*
X19950760Y1224000D01*
X19942890Y1266330D01*
Y1308670D01*
X19950760Y1351000D01*
X19966510Y1388040D01*
X19990140Y1419790D01*
X20017690Y1440960D01*
X20049190Y1446250D01*
X20080680Y1440960D01*
X20108240Y1419790D01*
X20131870Y1388040D01*
X20147620Y1351000D01*
X20155490Y1308670D01*
Y1266330D01*
X20147620Y1224000D01*
X20131870Y1186960D01*
X20108240Y1155200D01*
X20080680Y1134040D01*
X20049190Y1128750D01*
G01X20080680Y1213420D02*
X20127930Y1128750D01*
G01X20364150Y1446250D02*
Y1128750D01*
G01X20273600Y1446250D02*
X20454700D01*
G01X20679110Y1128750D02*
Y1271620D01*
X20600370Y1446250D01*
G01X20757850D02*
X20679110Y1271620D01*
G01X-250000Y0D02*
X-1490000D01*
G01X790000Y5400000D02*
X-1490000D01*
G01X-1240000Y2344260D02*
Y0D01*
G01X-1302500Y400000D02*
X-1240000Y0D01*
X-1177500Y400000D01*
X-1302500D01*
G01X-1240000Y2835740D02*
Y5400000D01*
G01X-1177500Y5000000D02*
X-1240000Y5400000D01*
X-1302500Y5000000D01*
X-1177500D01*
G01X0Y-250000D02*
Y-1280000D01*
G01X3683140Y-1030000D02*
X0D01*
G01X400000Y-967500D02*
X0Y-1030000D01*
X400000Y-1092500D01*
Y-967500D01*
G01X4316860Y-1030000D02*
X8500000D01*
G01X8100000Y-1092500D02*
X8500000Y-1030000D01*
X8100000Y-967500D01*
Y-1092500D01*
G01X8500000Y420000D02*
Y-1280000D01*
G01X8750000Y335000D02*
Y2890000D01*
X21348400D01*
Y335000D01*
X8750000D01*
G01Y970000D02*
X21348400D01*
G01X8750000Y1605000D02*
X21348400D01*
G01X8750000Y2240000D02*
X21348400D01*
G01X11033460Y1605000D02*
Y335000D01*
G01X16151560Y1605000D02*
Y335000D01*
G01X19379900Y1605000D02*
Y335000D01*
M02*
