G04 ================== begin FILE IDENTIFICATION RECORD ==================*
G04 Layout Name:  HY_RF_TEST_V10_210708.brd*
G04 Film Name:    SilkScreen_Bottom*
G04 File Format:  Gerber RS274X*
G04 File Origin:  Cadence Allegro 17.2-S071*
G04 Origin Date:  Thu Jul 08 19:44:30 2021*
G04 *
G04 Layer:  PACKAGE GEOMETRY/SILKSCREEN_BOTTOM*
G04 Layer:  BOARD GEOMETRY/SILKSCREEN_BOTTOM*
G04 *
G04 Offset:    (0.0000 0.0000)*
G04 Mirror:    No*
G04 Mode:      Positive*
G04 Rotation:  0*
G04 FullContactRelief:  No*
G04 UndefLineWidth:     0.1524*
G04 ================== end FILE IDENTIFICATION RECORD ====================*
%FSLAX55Y55*MOMM*%
%IR0*IPPOS*OFA0.00000B0.00000*MIA0B0*SFA1.00000B1.00000*%
%ADD10C,.2*%
%ADD11C,.1524*%
G75*
%LPD*%
G75*
G54D10*
G01X8460000Y1860000D02*
Y3400000D01*
X7970000D01*
Y1860000D01*
X8460000D01*
G54D11*
G01X8110000Y3350000D02*
X8020000D01*
Y3325000D01*
X8024500Y3317000D01*
X8030500Y3312000D01*
X8042500Y3310000D01*
X8054500Y3312000D01*
X8062000Y3318000D01*
X8066500Y3325000D01*
Y3350000D01*
G01Y3325000D02*
X8110000Y3310000D01*
G01Y3279000D02*
X8020000D01*
Y3241000D01*
G01X8063500Y3255000D02*
Y3279000D01*
G01X8140000Y3220000D02*
Y3160000D01*
G01X8020000Y3120000D02*
X8110000D01*
G01X8020000Y3143000D02*
Y3097000D01*
G01X8110000Y3030000D02*
Y3070000D01*
X8020000D01*
Y3030000D01*
G01X8063500Y3046000D02*
Y3070000D01*
G01X8098000Y3001000D02*
X8105500Y2993000D01*
X8110000Y2984000D01*
Y2976000D01*
X8105500Y2968000D01*
X8098000Y2962000D01*
X8087500Y2959000D01*
X8077000Y2961000D01*
X8068000Y2966000D01*
X8062000Y2975000D01*
X8059000Y2987000D01*
X8053000Y2994000D01*
X8042500Y2997000D01*
X8032000Y2995000D01*
X8024500Y2990000D01*
X8020000Y2983000D01*
Y2976000D01*
X8023000Y2969000D01*
X8030500Y2963000D01*
G01X8020000Y2910000D02*
X8110000D01*
G01X8020000Y2933000D02*
Y2887000D01*
G01X8140000Y2870000D02*
Y2810000D01*
G01X8020000Y2795000D02*
X8110000Y2770000D01*
X8020000Y2745000D01*
G01X8110000Y2700000D02*
X8020000D01*
X8038000Y2712000D01*
G01X8110000D02*
Y2688000D01*
G01X8020000Y2630000D02*
X8023000Y2638000D01*
X8030500Y2644000D01*
X8039500Y2648000D01*
X8051500Y2651000D01*
X8065000Y2652000D01*
X8078500Y2651000D01*
X8090500Y2648000D01*
X8099500Y2644000D01*
X8107000Y2638000D01*
X8110000Y2630000D01*
X8107000Y2622000D01*
X8099500Y2616000D01*
X8090500Y2612000D01*
X8078500Y2609000D01*
X8065000Y2608000D01*
X8051500Y2609000D01*
X8039500Y2612000D01*
X8030500Y2616000D01*
X8023000Y2622000D01*
X8020000Y2630000D01*
G01X8410000Y3352000D02*
X8320000D01*
Y3332000D01*
X8324500Y3324000D01*
X8330500Y3318000D01*
X8339500Y3313000D01*
X8350000Y3309000D01*
X8365000Y3308000D01*
X8380000Y3309000D01*
X8390500Y3313000D01*
X8399500Y3318000D01*
X8405500Y3324000D01*
X8410000Y3332000D01*
Y3352000D01*
G01Y3240000D02*
Y3280000D01*
X8320000D01*
Y3240000D01*
G01X8363500Y3256000D02*
Y3280000D01*
G01X8398000Y3211000D02*
X8405500Y3203000D01*
X8410000Y3194000D01*
Y3186000D01*
X8405500Y3178000D01*
X8398000Y3172000D01*
X8387500Y3169000D01*
X8377000Y3171000D01*
X8368000Y3176000D01*
X8362000Y3185000D01*
X8359000Y3197000D01*
X8353000Y3204000D01*
X8342500Y3207000D01*
X8332000Y3205000D01*
X8324500Y3200000D01*
X8320000Y3193000D01*
Y3186000D01*
X8323000Y3179000D01*
X8330500Y3173000D01*
G01X8320000Y3132000D02*
Y3108000D01*
G01Y3120000D02*
X8410000D01*
G01Y3132000D02*
Y3108000D01*
G01X8365000Y3044000D02*
Y3024000D01*
X8392000D01*
X8401000Y3030000D01*
X8407000Y3037000D01*
X8410000Y3047000D01*
X8407000Y3057000D01*
X8401000Y3064000D01*
X8392000Y3070000D01*
X8381500Y3074000D01*
X8369500Y3076000D01*
X8359000D01*
X8350000Y3074000D01*
X8339500Y3070000D01*
X8330500Y3064000D01*
X8324500Y3058000D01*
X8320000Y3050000D01*
Y3043000D01*
X8323000Y3035000D01*
X8329000Y3029000D01*
G01X8410000Y3003000D02*
X8320000D01*
X8410000Y2957000D01*
X8320000D01*
G01X8410000Y2890000D02*
Y2930000D01*
X8320000D01*
Y2890000D01*
G01X8363500Y2906000D02*
Y2930000D01*
G01X8410000Y2862000D02*
X8320000D01*
Y2842000D01*
X8324500Y2834000D01*
X8330500Y2828000D01*
X8339500Y2823000D01*
X8350000Y2819000D01*
X8365000Y2818000D01*
X8380000Y2819000D01*
X8390500Y2823000D01*
X8399500Y2828000D01*
X8405500Y2834000D01*
X8410000Y2842000D01*
Y2862000D01*
G01X8362000Y2692000D02*
X8357500Y2688000D01*
X8350000Y2685000D01*
X8339500Y2683000D01*
X8330500Y2685000D01*
X8324500Y2689000D01*
X8320000Y2696000D01*
Y2723000D01*
X8410000D01*
Y2690000D01*
X8404000Y2683000D01*
X8395000Y2679000D01*
X8384500Y2677000D01*
X8374000Y2679000D01*
X8365000Y2685000D01*
X8362000Y2692000D01*
Y2723000D01*
G01X8410000Y2630000D02*
X8369500D01*
X8320000Y2650000D01*
G01Y2610000D02*
X8369500Y2630000D01*
G01X8410000Y2511000D02*
X8320000Y2469000D01*
G01Y2511000D02*
X8410000Y2469000D01*
G01Y2441000D02*
X8320000Y2399000D01*
G01Y2441000D02*
X8410000Y2399000D01*
G01Y2371000D02*
X8320000Y2329000D01*
G01Y2371000D02*
X8410000Y2329000D01*
G01X8320000Y2300000D02*
X8410000D01*
Y2260000D01*
G01X8320000Y2229000D02*
Y2191000D01*
X8410000Y2229000D01*
Y2191000D01*
G01X8392000Y2160000D02*
X8401000Y2155000D01*
X8407000Y2149000D01*
X8410000Y2142000D01*
X8407000Y2134000D01*
X8401000Y2128000D01*
X8392000Y2122000D01*
X8380000Y2120000D01*
X8320000D01*
G01X8410000Y2091000D02*
X8320000Y2049000D01*
G01Y2091000D02*
X8410000Y2049000D01*
G01Y2021000D02*
X8320000Y1979000D01*
G01Y2021000D02*
X8410000Y1979000D01*
G01Y1951000D02*
X8320000Y1909000D01*
G01Y1951000D02*
X8410000Y1909000D01*
G01X8185000Y3349000D02*
X8176000Y3343000D01*
X8171500Y3336000D01*
X8170000Y3328000D01*
X8173000Y3318000D01*
X8180500Y3311000D01*
X8189500Y3309000D01*
X8198500Y3310000D01*
X8206000Y3314000D01*
X8221000Y3334000D01*
X8231500Y3343000D01*
X8246500Y3349000D01*
X8260000Y3351000D01*
Y3309000D01*
G01Y3260000D02*
X8170000D01*
X8188000Y3272000D01*
G01X8260000D02*
Y3248000D01*
G01X8170000Y3190000D02*
X8173000Y3198000D01*
X8180500Y3204000D01*
X8189500Y3208000D01*
X8201500Y3211000D01*
X8215000Y3212000D01*
X8228500Y3211000D01*
X8240500Y3208000D01*
X8249500Y3204000D01*
X8257000Y3198000D01*
X8260000Y3190000D01*
X8257000Y3182000D01*
X8249500Y3176000D01*
X8240500Y3172000D01*
X8228500Y3169000D01*
X8215000Y3168000D01*
X8201500Y3169000D01*
X8189500Y3172000D01*
X8180500Y3176000D01*
X8173000Y3182000D01*
X8170000Y3190000D01*
G01X8260000Y3122000D02*
X8240500Y3120000D01*
X8224000Y3117000D01*
X8209000Y3113000D01*
X8192500Y3108000D01*
X8170000Y3100000D01*
Y3140000D01*
G01Y3050000D02*
X8173000Y3058000D01*
X8180500Y3064000D01*
X8189500Y3068000D01*
X8201500Y3071000D01*
X8215000Y3072000D01*
X8228500Y3071000D01*
X8240500Y3068000D01*
X8249500Y3064000D01*
X8257000Y3058000D01*
X8260000Y3050000D01*
X8257000Y3042000D01*
X8249500Y3036000D01*
X8240500Y3032000D01*
X8228500Y3029000D01*
X8215000Y3028000D01*
X8201500Y3029000D01*
X8189500Y3032000D01*
X8180500Y3036000D01*
X8173000Y3042000D01*
X8170000Y3050000D01*
G01X8260000Y2980000D02*
X8258500Y2973000D01*
X8254000Y2965000D01*
X8246500Y2960000D01*
X8236000Y2958000D01*
X8225500Y2960000D01*
X8216500Y2966000D01*
X8212000Y2975000D01*
Y2985000D01*
X8209000Y2991000D01*
X8201500Y2996000D01*
X8191000Y2998000D01*
X8180500Y2995000D01*
X8173000Y2988000D01*
X8170000Y2980000D01*
X8173000Y2972000D01*
X8180500Y2965000D01*
X8191000Y2962000D01*
X8201500Y2964000D01*
X8209000Y2969000D01*
X8212000Y2975000D01*
Y2985000D01*
X8216500Y2994000D01*
X8225500Y3000000D01*
X8236000Y3002000D01*
X8246500Y3000000D01*
X8254000Y2995000D01*
X8258500Y2987000D01*
X8260000Y2980000D01*
M02*
