G04 ================== begin FILE IDENTIFICATION RECORD ==================*
G04 Layout Name:  HY_AD8436_V10_250412.brd*
G04 Film Name:    TOP*
G04 File Format:  Gerber RS274X*
G04 File Origin:  Cadence Allegro 23.1-S006*
G04 Origin Date:  Tue Apr 15 16:52:14 2025*
G04 *
G04 Layer:  VIA CLASS/TOP*
G04 Layer:  PIN/TOP*
G04 Layer:  ETCH/TOP*
G04 *
G04 Offset:    (0.0000 0.0000)*
G04 Mirror:    No*
G04 Mode:      Positive*
G04 Rotation:  0*
G04 FullContactRelief:  No*
G04 UndefLineWidth:     0.1524*
G04 ================== end FILE IDENTIFICATION RECORD ====================*
%FSLAX55Y55*MOMM*%
%IR0*IPPOS*OFA0.00000B0.00000*MIA0B0*SFA1.00000B1.00000*%
%ADD17R,1.2X.3*%
%ADD22R,1.X.6*%
%ADD16R,1.2X.6*%
%ADD31R,1.5X.45*%
%ADD30C,.75*%
%ADD21R,.8X.8*%
%ADD18C,.6096*%
%ADD15O,2.1X1.*%
%ADD28R,1.2X1.*%
%ADD29R,1.X1.2*%
%ADD12O,1.6X1.*%
%ADD34R,1.X4.1*%
%ADD35R,2.4X2.4*%
%ADD11O,2.8X1.4*%
%ADD27R,2.4X2.4*%
%ADD24R,1.5X2.5*%
%ADD32R,1.5X1.8*%
%ADD20R,1.8X1.6*%
%ADD19R,.5X.6*%
%ADD23R,.6X.5*%
%ADD26R,.8X.25*%
%ADD25R,.25X.8*%
%ADD14C,1.8*%
%ADD10C,6.9*%
%ADD13R,1.8X1.8*%
%ADD33R,1.9X1.9*%
%ADD36C,.254*%
%ADD37C,.508*%
G75*
%LPD*%
G75*
G36*
G01X360000Y4760000D02*
X8850000D01*
Y4310000D01*
X8966340D01*
X8969150Y4304410D01*
G03X8984390Y4287100I40844J20596D01*
G01X8988860Y4284080D01*
Y4185740D01*
X8970000D01*
G03X8924260Y4140000I0J-45740D01*
G01Y4014870D01*
X8879700Y3970300D01*
G03X8858860Y3920000I50297J-50306D01*
G01Y2920000D01*
G03X8859210Y2912950I71140J-2D01*
G01X8859260Y2912450D01*
Y2890000D01*
G03X8863020Y2871830I45742J-8D01*
G01X8863860Y2869900D01*
Y2840100D01*
X8863020Y2838170D01*
G03X8859260Y2820000I41982J-18162D01*
G01Y2708990D01*
G03X8857530Y2705740I50696J-29072D01*
G01X8588950D01*
X8585740Y2708950D01*
Y2978950D01*
X8528950Y3035740D01*
X6069540D01*
Y3130000D01*
G03X6023800Y3175740I-45740J0D01*
G01X5943800D01*
G03X5938440Y3175420I41J-45738D01*
G02X5915740Y3195600I-2379J20182D01*
G01Y3250000D01*
G03X5915610Y3253490I-45742J44D01*
G02X5926510Y3264390I10128J772D01*
G03X5930000Y3264260I3446J45612D01*
G01X5980000D01*
G03X6025740Y3310000I0J45740D01*
G01Y3370000D01*
G03X5980000Y3415740I-45740J0D01*
G01X5930000D01*
G03X5900000Y3404530I0J-45748D01*
G03X5870000Y3415740I-30000J-34538D01*
G01X5856430D01*
X5813340Y3458820D01*
G03X5772020Y3475940I-41326J-41318D01*
G01X5650740D01*
Y3505000D01*
G03X5605000Y3550740I-45740J0D01*
G01X5455000D01*
G03X5409260Y3505000I0J-45740D01*
G01Y3460000D01*
G03X5410370Y3450000I45738J15D01*
G03X5409260Y3440000I44628J-10015D01*
G01Y3425740D01*
X5404260D01*
Y3064260D01*
X5584260D01*
Y2881050D01*
X5631050Y2834260D01*
X6381050D01*
X6414260Y2801050D01*
Y451050D01*
X6481050Y384260D01*
X7028950D01*
X7105740Y461050D01*
Y2811050D01*
X7128950Y2834260D01*
X8394260D01*
Y2551050D01*
X8424260Y2521050D01*
Y2477550D01*
X8424210Y2477050D01*
G03X8423860Y2470000I70790J-7048D01*
G01Y2456370D01*
X8354700Y2387200D01*
G03X8334130Y2343100I50297J-50308D01*
G01X8333810Y2339420D01*
X8283500Y2289100D01*
G03X8262660Y2238800I50283J-50300D01*
G01Y2233730D01*
X8260010Y2230820D01*
G03X8248060Y2200000I33787J-30827D01*
G01Y2120000D01*
G03X8293800Y2074260I45740J0D01*
G01X8396220D01*
G02X8414620Y2045320I2J-20318D01*
G03X8406760Y2010000I75382J-35310D01*
G03X8490000Y1926760I83240J0D01*
G03X8573180Y2006710I0J83245D01*
G01X8573330Y2010690D01*
X8714210Y2151560D01*
X8760000D01*
G03X8764460Y2151730I6J58440D01*
G01X8764850Y2151760D01*
X8801760D01*
Y2070000D01*
G03X8804720Y2053810I45741J-3D01*
G01X8807040Y2047670D01*
X8751890Y1992520D01*
X8747180Y1992930D01*
G03X8740000Y1993240I-7177J-82930D01*
G03X8656760Y1910000I0J-83240D01*
G03X8678860Y1853510I83247J0D01*
G01X8681560Y1850590D01*
Y1839970D01*
G03X8658060Y1800000I22242J-39970D01*
G01Y1720000D01*
G03X8703800Y1674260I45740J0D01*
G01X8936200D01*
G03X8968700Y1687810I0J45751D01*
G02X8983930Y1686910I7219J-7149D01*
G03X8985150Y1685410I36085J28103D01*
G02Y1672250I-7745J-6580D01*
G03X8974260Y1642630I34837J-29620D01*
G01Y1562630D01*
G03X8988860Y1529130I45733J0D01*
G01Y885740D01*
X8970000D01*
G03X8924260Y840000I0J-45740D01*
G01Y660000D01*
G03X8970000Y614260I45740J0D01*
G01X8988860D01*
Y525920D01*
X8984390Y522900D01*
G03X8969150Y505590I25604J-37906D01*
G01X8966340Y500000D01*
X8860000D01*
Y40000D01*
X360000D01*
G02X40000Y360000I0J320000D01*
G01Y4440000D01*
G02X360000Y4760000I320000J0D01*
G37*
G36*
G01X5633470Y3359060D02*
X5747810D01*
X5774260Y3332610D01*
Y3310000D01*
G03X5778960Y3289810I45739J5D01*
G01X5780000Y3287690D01*
Y3272310D01*
X5778960Y3270190D01*
G03X5774260Y3250000I41039J-20195D01*
G01Y3190000D01*
G03X5778960Y3169810I45739J5D01*
G01X5780000Y3167690D01*
Y3142310D01*
X5778960Y3140190D01*
G03X5774260Y3120000I41039J-20195D01*
G01Y3060000D01*
G03X5778960Y3039810I45739J5D01*
G01X5780000Y3037690D01*
Y3020000D01*
X5810000Y2990000D01*
X8510000D01*
X8540000Y2960000D01*
Y2690000D01*
X8570000Y2660000D01*
X8840000D01*
X8851560Y2648440D01*
Y2570000D01*
X8820000D01*
Y2471510D01*
X8815320Y2468510D01*
G03X8801490Y2454680I24680J-38510D01*
G01X8798490Y2450000D01*
X8690000D01*
Y2368440D01*
X8555820D01*
G03X8520000Y2385740I-35820J-28433D01*
G01X8514260D01*
X8475740Y2424260D01*
Y2500000D01*
G03X8471040Y2520190I-45739J-5D01*
G01X8470000Y2522310D01*
Y2540000D01*
X8440000Y2570000D01*
Y2860000D01*
X8420000Y2880000D01*
X7110000D01*
X7060000Y2830000D01*
Y480000D01*
X7010000Y430000D01*
X6500000D01*
X6460000Y470000D01*
Y2820000D01*
X6400000Y2880000D01*
X5650000D01*
X5631600Y2898400D01*
X5633520Y2904310D01*
G03X5635740Y2918400I-43522J14077D01*
G01Y3018400D01*
G03X5631040Y3038590I-45739J-5D01*
G01X5630000Y3040710D01*
Y3090000D01*
X5610000Y3110000D01*
X5450000D01*
Y3349260D01*
X5605000D01*
G03X5630870Y3357280I0J45734D01*
G01X5633470Y3359060D01*
G37*
G36*
G01X9270000Y4760000D02*
X10840000D01*
G02X11160000Y4440000I0J-320000D01*
G01Y360000D01*
G02X10840000Y40000I-320000J0D01*
G01X9260000D01*
Y500000D01*
X9153660D01*
X9150850Y505590D01*
G03X9135610Y522900I-40844J-20596D01*
G01X9131140Y525920D01*
Y614260D01*
X9150000D01*
G03X9195740Y660000I0J45740D01*
G01Y840000D01*
G03X9150000Y885740I-45740J0D01*
G01X9131140D01*
Y1529130D01*
G03X9145740Y1562630I-31133J33500D01*
G01Y1642630D01*
G03X9134850Y1672250I-45727J0D01*
G02Y1685410I7745J6580D01*
G03X9138500Y1690330I-34827J29651D01*
G02X9153040Y1693050I8551J-5486D01*
G03X9180000Y1684260I26960J36950D01*
G01X9320000D01*
G03X9365740Y1730000I0J45740D01*
G01Y1790000D01*
G03X9359090Y1813750I-45736J0D01*
G03X9371220Y1855000I-64089J41254D01*
G03X9295000Y1931220I-76220J0D01*
G03X9218780Y1855840I0J-76225D01*
G02X9198470Y1835740I-20317J218D01*
G01X9180000D01*
G03X9154590Y1828030I0J-45727D01*
G02X9129980Y1829580I-11290J16894D01*
G03X9123400Y1834330I-29957J-34566D01*
G01X9118440Y1837280D01*
Y2110000D01*
G03X9118270Y2114460I-58440J6D01*
G01X9118240Y2114850D01*
Y2151760D01*
X9155150D01*
X9155540Y2151730D01*
G03X9160000Y2151560I4454J58270D01*
G01X9315790D01*
X9406670Y2060690D01*
X9406820Y2056710D01*
G03X9490000Y1976760I83180J3295D01*
G03X9573240Y2060000I0J83240D01*
G03X9547400Y2120280I-83231J0D01*
G02Y2149720I14012J14720D01*
G03X9573240Y2210000I-57391J60280D01*
G03X9554520Y2262590I-83230J0D01*
G01X9552240Y2265390D01*
Y2277750D01*
X9557200Y2280700D01*
G03X9579540Y2320000I-23398J39300D01*
G01Y2400000D01*
G03X9549580Y2442930I-45737J0D01*
G02X9543430Y2455660I3498J9541D01*
G03X9545740Y2470000I-43428J14352D01*
G01Y2492450D01*
X9545790Y2492950D01*
G03X9546140Y2500000I-70790J7048D01*
G01Y2555460D01*
X9552210Y2558130D01*
G03X9579540Y2600000I-18408J41870D01*
G01Y2680000D01*
G03X9564940Y2713500I-45733J0D01*
G01Y2778710D01*
G03X9639740Y2900000I-60937J121290D01*
G03X9504000Y3035740I-135740J0D01*
G03X9418460Y3005390I6J-135738D01*
G02X9387000Y3013120I-12802J15781D01*
G03X9345000Y3040740I-42000J-18123D01*
G01X9155000D01*
G03X9109260Y2995000I0J-45740D01*
G01Y2805000D01*
G03X9114710Y2783340I45742J-6D01*
G02X9101700Y2753990I-17894J-9627D01*
G03X9044450Y2690050I18303J-73988D01*
G01X9043990Y2686640D01*
X9028390Y2671030D01*
X9018550Y2680870D01*
X9018260Y2684600D01*
G03X9011880Y2706900I-58258J-4605D01*
G01X9010740Y2709100D01*
Y2820000D01*
G03X9006980Y2838170I-45742J8D01*
G01X9006140Y2840100D01*
Y2915000D01*
G03X9001760Y2939560I-71137J-16D01*
G01X9001140Y2941260D01*
Y3890530D01*
X9024870Y3914260D01*
X9150000D01*
G03X9195740Y3960000I0J45740D01*
G01Y4140000D01*
G03X9150000Y4185740I-45740J0D01*
G01X9131140D01*
Y4284080D01*
X9135610Y4287100D01*
G03X9150850Y4304410I-25604J37906D01*
G01X9153660Y4310000D01*
X9270000D01*
Y4760000D01*
G37*
G36*
G01X8845740Y2424260D02*
X9074260D01*
Y2397500D01*
G03X9076000Y2385000I45741J-4D01*
G03X9074260Y2372500I44001J-12496D01*
G01Y2347500D01*
G03X9086080Y2316820I45727J0D01*
G02Y2303180I-7535J-6820D01*
G03X9074260Y2272500I33907J-30680D01*
G01Y2247500D01*
G03X9076000Y2235000I45741J-4D01*
G03X9074260Y2222500I44001J-12496D01*
G01Y2195740D01*
X8845740D01*
Y2222500D01*
G03X8844000Y2235000I-45741J4D01*
G03X8845740Y2247500I-44001J12496D01*
G01Y2272500D01*
G03X8844000Y2285000I-45741J4D01*
G03X8845740Y2297500I-44001J12496D01*
G01Y2322500D01*
G03X8844000Y2335000I-45741J4D01*
G03X8845740Y2347500I-44001J12496D01*
G01Y2372500D01*
G03X8844000Y2385000I-45741J4D01*
G03X8845740Y2397500I-44001J12496D01*
G01Y2424260D01*
G37*
%LPC*%
G75*
G36*
G01X5399260Y2040000D02*
Y2085000D01*
G02X5445000Y2130740I45740J0D01*
G01X5595000D01*
G02X5640740Y2085000I0J-45740D01*
G01Y2055940D01*
X5772020D01*
G02X5813340Y2038820I-6J-58438D01*
G01X5856430Y1995740D01*
X5870000D01*
G02X5900000Y1984530I0J-45748D01*
G02X5930000Y1995740I30000J-34538D01*
G01X5980000D01*
G02X6025740Y1950000I0J-45740D01*
G01Y1890000D01*
G02X5980000Y1844260I-45740J0D01*
G01X5930000D01*
G02X5926510Y1844390I-44J45742D01*
G03X5915610Y1833490I-772J-10128D01*
G02X5915740Y1830000I-45612J-3446D01*
G01Y1770000D01*
G02X5912260Y1752490I-45742J-10D01*
G01X5911480Y1750620D01*
Y1738440D01*
X5931550D01*
X5934500Y1743400D01*
G02X5973800Y1765740I39300J-23398D01*
G01X6053800D01*
G02X6099540Y1720000I0J-45740D01*
G01Y1640000D01*
G02X6073870Y1598900I-45737J0D01*
G03X6068420Y1566270I8915J-18259D01*
G01X6075740Y1558950D01*
Y384260D01*
X5571050D01*
X5514260Y441050D01*
Y628950D01*
X5584260Y698950D01*
Y1641050D01*
X5571050Y1654260D01*
X5394260D01*
Y2005740D01*
X5399260D01*
Y2020000D01*
G02X5400370Y2030000I45738J-15D01*
G02X5399260Y2040000I44628J10015D01*
G37*
G36*
G01X214260Y3261050D02*
Y3685740D01*
X505740D01*
Y3358950D01*
X585740Y3278950D01*
Y3028950D01*
X595520Y3019160D01*
X602330Y3023270D01*
G02X623000Y3029020I20670J-34277D01*
G02X652780Y3015740I0J-40030D01*
G01X885740D01*
Y2883440D01*
X980720D01*
G02X1020000Y2905740I39280J-23445D01*
G01X1070000D01*
G02X1115740Y2860000I0J-45740D01*
G01Y2800000D01*
G02X1070000Y2754260I-45740J0D01*
G01X1020000D01*
G02X988790Y2766560I0J45746D01*
G01X886260D01*
X885650Y2757050D01*
G02X884630Y2750000I-45642J3005D01*
G02X885740Y2740000I-44628J-10015D01*
G01Y2710000D01*
G02X884630Y2700000I-45738J15D01*
G02X885740Y2690000I-44628J-10015D01*
G01Y2660000D01*
G02X884630Y2650000I-45738J15D01*
G02X885740Y2640000I-44628J-10015D01*
G01Y2610000D01*
G02X884630Y2600000I-45738J15D01*
G02X885650Y2592950I-44622J-10055D01*
G01X886260Y2583440D01*
X988790D01*
G02X1020000Y2595740I31210J-33446D01*
G01X1070000D01*
G02X1115740Y2550000I0J-45740D01*
G01Y2490000D01*
G02X1070000Y2444260I-45740J0D01*
G01X1020000D01*
G02X980720Y2466560I0J45745D01*
G01X885740D01*
Y2384260D01*
X652780D01*
G02X623000Y2370980I-29780J26750D01*
G02X618400Y2371250I41J40018D01*
G03X595740Y2351060I-2339J-20186D01*
G01Y2198950D01*
X865740Y1928950D01*
Y1317080D01*
G03X898600Y1301090I20320J0D01*
G02X970000Y1325740I71400J-91082D01*
G01X1110000D01*
G02X1225740Y1210000I0J-115740D01*
G02X1184690Y1121580I-115752J0D01*
G03X1197800Y1085740I13112J-15522D01*
G01X1644260D01*
Y1381050D01*
X1631050Y1394260D01*
X1471050D01*
X1414260Y1451050D01*
Y2615740D01*
X1728430D01*
G03X1747370Y2643420I1J20319D01*
G02X1744260Y2660000I42641J16580D01*
G01Y2720000D01*
G02X1790000Y2765740I45740J0D01*
G01X1890000D01*
G02X1926070Y2748120I0J-45730D01*
G02X1961320Y2731320I-6072J-58121D01*
G01X2001320Y2691320D01*
G02X2009800Y2680580I-41309J-41334D01*
G01X2012770Y2675740D01*
X2185740D01*
Y2608950D01*
X2188950Y2605740D01*
X2324260D01*
Y2765740D01*
X2575740D01*
Y2301050D01*
X2528950Y2254260D01*
X2429480D01*
G03X2415110Y2219570I0J-20321D01*
G01X2445740Y2188950D01*
Y2038950D01*
X2456780Y2027910D01*
X2462000Y2028830D01*
G02X2470000Y2029540I8028J-45028D01*
G01X2550000D01*
G02X2566580Y2026430I0J-45751D01*
G01X2568350Y2025740D01*
X2584260D01*
Y2050000D01*
G02X2588860Y2070000I45742J8D01*
G02X2584260Y2090000I41142J19992D01*
G01Y2140000D01*
G02X2630000Y2185740I45740J0D01*
G01X2690000D01*
G02X2735730Y2140920I0J-45739D01*
G01X2735810Y2136830D01*
X2776910Y2095740D01*
X2790520D01*
G03X2804890Y2130430I0J20321D01*
G01X2694260Y2241050D01*
Y2765740D01*
X2870520D01*
G03X2884890Y2800430I0J20321D01*
G01X2814260Y2871050D01*
Y3065740D01*
X3481050D01*
X3484260Y3068950D01*
Y3218950D01*
X3551050Y3285740D01*
X4611560D01*
Y3550000D01*
G02X4628680Y3591320I58438J-6D01*
G01X4668680Y3631320D01*
G02X4710000Y3648440I41326J-41318D01*
G01X4950000D01*
G02X4991320Y3631320I-6J-58438D01*
G01X5006910Y3615740D01*
X5125000D01*
G02X5170740Y3570000I0J-45740D01*
G01Y3525000D01*
G02X5169630Y3515000I-45738J15D01*
G02X5170740Y3505000I-44628J-10015D01*
G01Y3460000D01*
G02X5169630Y3450000I-45738J15D01*
G02X5170740Y3440000I-44628J-10015D01*
G01Y3425740D01*
X5175740D01*
Y3064260D01*
X3758950D01*
X3755740Y3061050D01*
Y2841050D01*
X3688950Y2774260D01*
X3455740D01*
Y2730000D01*
G02X3451140Y2710000I-45742J-8D01*
G02X3455740Y2690000I-41142J-19992D01*
G01Y2640000D01*
G02X3410000Y2594260I-45740J0D01*
G01X3325740D01*
Y2525740D01*
X3410000D01*
G02X3438640Y2515660I0J-45727D01*
G03X3451360I6360J7927D01*
G02X3480000Y2525740I28640J-35647D01*
G01X3540000D01*
G02X3585740Y2480000I0J-45740D01*
G01Y2430000D01*
G02X3568440Y2394180I-45733J0D01*
G01Y2373630D01*
X3580010D01*
X3581360Y2374020D01*
G02X3593800Y2375740I12426J-44022D01*
G01X3673800D01*
G02X3719540Y2330000I0J-45740D01*
G01Y2250000D01*
G02X3719460Y2247270I-45741J-26D01*
G03X3739740Y2225740I20283J-1211D01*
G01X3740000D01*
G02X3768640Y2215660I0J-45727D01*
G03X3781360I6360J7927D01*
G02X3810000Y2225740I28640J-35647D01*
G01X3950000D01*
G02X3985820Y2208440I0J-45733D01*
G01X4420000D01*
G02X4461320Y2191320I-6J-58438D01*
G01X4501320Y2151320D01*
G02X4518440Y2110000I-41318J-41326D01*
G01Y1905740D01*
X4601560D01*
Y2130000D01*
G02X4618680Y2171320I58438J-6D01*
G01X4658680Y2211320D01*
G02X4700000Y2228440I41326J-41318D01*
G01X4940000D01*
G02X4981320Y2211320I-6J-58438D01*
G01X4996910Y2195740D01*
X5115000D01*
G02X5160740Y2150000I0J-45740D01*
G01Y2105000D01*
G02X5159630Y2095000I-45738J15D01*
G02X5160740Y2085000I-44628J-10015D01*
G01Y2040000D01*
G02X5159630Y2030000I-45738J15D01*
G02X5160740Y2020000I-44628J-10015D01*
G01Y2005740D01*
X5165740D01*
Y1644260D01*
X3721050D01*
X3680000Y1685310D01*
X3625740Y1631050D01*
Y1244260D01*
X3391050D01*
X3294260Y1341050D01*
Y1560520D01*
G03X3259570Y1574890I-20321J0D01*
G01X3258950Y1574260D01*
X3023440D01*
X3021720Y1573620D01*
G02X2995000Y1568780I-26728J71379D01*
G02X2918780Y1645000I0J76220D01*
G02X2928090Y1681510I76221J6D01*
G03X2910250Y1711560I-17837J9731D01*
G01X2030000D01*
G02X1988680Y1728680I6J58438D01*
G01X1970430Y1746930D01*
G03X1935740Y1732560I-14369J-14370D01*
G01Y791050D01*
X1898950Y754260D01*
X551050D01*
X474260Y831050D01*
Y1114980D01*
X304980D01*
Y1305020D01*
X474260D01*
Y1831050D01*
X324260Y1981050D01*
Y3151050D01*
X214260Y3261050D01*
G37*
%LPD*%
G75*
G36*
G01X260000Y3640000D02*
X460000D01*
Y3340000D01*
X540000Y3260000D01*
Y3183040D01*
G03Y3080960I80998J-51040D01*
G01Y3010000D01*
X580000Y2970000D01*
X587390D01*
X590430Y2965740D01*
G03X655570I32570J23267D01*
G01X658610Y2970000D01*
X678490D01*
X681490Y2965320D01*
G03X690110Y2955380I38506J24685D01*
G02Y2924620I-13283J-15380D01*
G03X674890Y2897560I29890J-34622D01*
G01X674350Y2894350D01*
X670000Y2890000D01*
Y2520000D01*
X674260Y2515740D01*
Y2510000D01*
G03X690110Y2475380I45734J0D01*
G02Y2444620I-13283J-15380D01*
G03X681490Y2434680I29886J-34625D01*
G01X678490Y2430000D01*
X658610D01*
X655570Y2434260D01*
G03X623000Y2451020I-32570J-23267D01*
G03X586520Y2427450I0J-40016D01*
G01X585750Y2425750D01*
X550000Y2390000D01*
Y2332230D01*
G03X525260Y2268000I71007J-64230D01*
G03X547630Y2206500I95738J5D01*
G01X550000Y2203670D01*
Y2180000D01*
X820000Y1910000D01*
Y1100000D01*
X880000Y1040000D01*
X1890000D01*
Y810000D01*
X1880000Y800000D01*
X570000D01*
X520000Y850000D01*
Y1850000D01*
X370000Y2000000D01*
Y2218580D01*
G03Y2317420I-82007J49420D01*
G01Y3082580D01*
G03X383740Y3132000I-82007J49420D01*
G03X318840Y3222640I-95744J0D01*
G01X316600Y3223400D01*
X260000Y3280000D01*
Y3640000D01*
G37*
G36*
G01X1460000Y2570000D02*
X1850000D01*
X1890000Y2530000D01*
Y1130000D01*
X1690000D01*
Y1400000D01*
X1650000Y1440000D01*
X1592310D01*
X1590190Y1441040D01*
G03X1570000Y1445740I-20195J-41039D01*
G01X1484260D01*
X1460000Y1470000D01*
Y2570000D01*
G37*
G36*
G01X2070000Y2210000D02*
X2360000D01*
X2400000Y2170000D01*
Y2020000D01*
X2440000Y1980000D01*
X2708490D01*
X2711490Y1975320D01*
G03X2750000Y1954260I38510J24679D01*
G01X2823960D01*
G03X2870000Y1938780I46044J60738D01*
G03X2885540Y1940380I5J76220D01*
G02X2910000Y1920490I4141J-19893D01*
G01Y1880000D01*
X2986760D01*
Y1844850D01*
X2986730Y1844460D01*
G03X2986560Y1840660I58267J-4510D01*
G01X2986520Y1836520D01*
X2978440Y1828440D01*
X2071560D01*
X2040000Y1860000D01*
Y2180000D01*
X2070000Y2210000D01*
G37*
G36*
G01X2050000Y2300000D02*
X2020000Y2330000D01*
Y2630000D01*
X2140000D01*
Y2590000D01*
X2170000Y2560000D01*
X2350000D01*
X2370000Y2580000D01*
Y2720000D01*
X2530000D01*
Y2320000D01*
X2510000Y2300000D01*
X2050000D01*
G37*
G36*
G01X3257500Y2154260D02*
G03X3271330Y2156400I3J45740D01*
G02X3284510Y2147770I3074J-9685D01*
G03X3286000Y2140000I45497J4697D01*
G03X3284260Y2127500I44001J-12496D01*
G01Y2102500D01*
G03X3286000Y2090000I45741J-4D01*
G03X3284260Y2077500I44001J-12496D01*
G01Y2052500D01*
G03X3286000Y2040000I45741J-4D01*
G03X3284260Y2027500I44001J-12496D01*
G01Y2002500D01*
G03X3286000Y1990000I45741J-4D01*
G03X3284260Y1977500I44001J-12496D01*
G01Y1952500D01*
G03X3286000Y1940000I45741J-4D01*
G03X3284780Y1934370I44004J-12483D01*
G01X3283470Y1925740D01*
X3056530D01*
X3055220Y1934370D01*
G03X3054000Y1940000I-45224J-6853D01*
G03X3055740Y1952500I-44001J12496D01*
G01Y1977500D01*
G03X3054000Y1990000I-45741J4D01*
G03X3055740Y2002500I-44001J12496D01*
G01Y2027500D01*
G03X3040000Y2062030I-45746J0D01*
G01Y2117970D01*
G03X3055220Y2145630I-30002J34526D01*
G01X3056530Y2154260D01*
X3257500D01*
G37*
G36*
G01X3082650Y1760000D02*
X3260000D01*
Y1640000D01*
X3240000Y1620000D01*
X3152310D01*
X3150190Y1621040D01*
G03X3130000Y1625740I-20195J-41039D01*
G01X3060000D01*
Y1737350D01*
X3082650Y1760000D01*
G37*
G36*
G01X2740000Y2720000D02*
X2900000D01*
Y2580000D01*
X2940000Y2540000D01*
X3071560D01*
Y2414210D01*
X3053680Y2396320D01*
G03X3036560Y2355000I41318J-41326D01*
G01Y2300000D01*
X3010000D01*
Y2200000D01*
X2910000D01*
Y2173440D01*
X2841210D01*
G03X2817560Y2185110I-31206J-33442D01*
G01X2814350Y2185650D01*
X2740000Y2260000D01*
Y2720000D01*
G37*
G36*
G01X5130000Y3349260D02*
Y3110000D01*
X3740000D01*
X3710000Y3080000D01*
Y2860000D01*
X3670000Y2820000D01*
X3200000D01*
X3170000Y2790000D01*
Y2670000D01*
X3140000Y2640000D01*
X2960000D01*
Y2790000D01*
X2860000Y2890000D01*
Y3020000D01*
X3500000D01*
X3530000Y3050000D01*
Y3200000D01*
X3570000Y3240000D01*
X4940000D01*
X4970000Y3270000D01*
Y3329780D01*
X4970730Y3331600D01*
G03X4973960Y3341560I-70718J28437D01*
G01X4975880Y3349260D01*
X5130000D01*
G37*
G36*
G01X3440000Y1956560D02*
X3630000D01*
Y1700000D01*
X3580000Y1650000D01*
Y1290000D01*
X3410000D01*
X3340000Y1360000D01*
Y1767810D01*
G03X3353240Y1800000I-32511J32190D01*
G01Y1880000D01*
X3440000D01*
Y1956560D01*
G37*
G36*
G01X3410000Y2384260D02*
G03X3424710Y2386690I0J45738D01*
G02X3451560Y2367450I6530J-19242D01*
G01Y2304210D01*
X3370920Y2223560D01*
X3367010Y2223360D01*
G03X3365540Y2223270I2836J-58369D01*
G01X3365150Y2223240D01*
X3303240D01*
Y2280000D01*
G03X3299580Y2297930I-45749J0D01*
G01X3296890Y2304240D01*
X3376910Y2384260D01*
X3410000D01*
G37*
G36*
G01X5120000Y1929260D02*
Y1690000D01*
X3740000D01*
X3730000Y1700000D01*
Y1850000D01*
X3740000Y1860000D01*
X4940000D01*
X4960000Y1880000D01*
Y1929260D01*
X5120000D01*
G37*
G36*
G01X4718440Y2105790D02*
X4724210Y2111560D01*
X4774260D01*
Y2040000D01*
G03X4820000Y1994260I45740J0D01*
G01X4870000D01*
G03X4895870Y2002280I0J45734D01*
G01X4898470Y2004060D01*
X4914260D01*
Y1905740D01*
X4718440D01*
Y2105790D01*
G37*
G36*
G01X4728440Y3525790D02*
X4734210Y3531560D01*
X4784260D01*
Y3460000D01*
G03X4830000Y3414260I45740J0D01*
G01X4880000D01*
G03X4905870Y3422280I0J45734D01*
G01X4908470Y3424060D01*
X4924260D01*
Y3288950D01*
X4921050Y3285740D01*
X4728440D01*
Y3525790D01*
G37*
G36*
G01X5623470Y1939060D02*
X5747810D01*
X5774260Y1912610D01*
Y1890000D01*
G03X5785470Y1860000I45748J0D01*
G03X5774260Y1830000I34538J-30000D01*
G01Y1770000D01*
G03X5785470Y1740000I45748J0D01*
G03X5774260Y1710000I34538J-30000D01*
G01Y1650000D01*
G03X5790000Y1615470I45746J0D01*
G01Y1590000D01*
X5810000Y1570000D01*
X6000000D01*
X6030000Y1540000D01*
Y430000D01*
X5590000D01*
X5560000Y460000D01*
Y610000D01*
X5630000Y680000D01*
Y1660000D01*
X5590000Y1700000D01*
X5440000D01*
Y1929260D01*
X5595000D01*
G03X5620870Y1937280I0J45734D01*
G01X5623470Y1939060D01*
G37*
G54D10*
X360000Y360000D03*
Y4440000D03*
X10840000Y360000D03*
Y4440000D03*
G54D20*
X1480000Y940000D03*
Y1320000D03*
X1790000Y1210000D03*
Y930000D03*
G54D11*
X300000Y850000D03*
Y1830000D03*
X1040000Y890000D03*
Y1210000D03*
Y1740000D03*
G54D12*
X258000Y2268000D03*
Y3132000D03*
G54D21*
X1510000Y2666200D03*
Y2513800D03*
X1670000Y2666200D03*
Y2513800D03*
X2250000Y2666200D03*
Y2513800D03*
X2510000Y1943800D03*
Y2096200D03*
X3786200Y2290000D03*
X3633800D03*
X6166200Y1680000D03*
X6013800D03*
X5983800Y3090000D03*
X6136200D03*
X8333800Y2160000D03*
X8486200D03*
X8333800Y2610000D03*
X8486200D03*
X8743800Y1760000D03*
X9060000Y1602630D03*
Y1755030D03*
X8896200Y1760000D03*
X9493800Y2360000D03*
Y2640000D03*
X9646200Y2360000D03*
Y2640000D03*
G54D30*
X3580000Y2960000D03*
X4680000Y1780000D03*
X5750000Y1520000D03*
X5760000Y2920000D03*
X8740000Y1910000D03*
X8490000Y2010000D03*
X8900000Y1910000D03*
X9490000Y2210000D03*
Y2060000D03*
G54D13*
X360000Y3540000D03*
X9060000Y750000D03*
Y4050000D03*
X10840000Y2500000D03*
G54D31*
X5040000Y1932500D03*
Y1997500D03*
Y2062500D03*
Y2127500D03*
X5050000Y3352500D03*
Y3417500D03*
Y3482500D03*
Y3547500D03*
X5520000Y1997500D03*
Y1932500D03*
Y2127500D03*
Y2062500D03*
X5530000Y3482500D03*
Y3417500D03*
Y3352500D03*
Y3547500D03*
G54D22*
X1840000Y2490000D03*
Y2690000D03*
X2080000Y2590000D03*
G54D14*
X360000Y3794000D03*
X5656000Y530000D03*
Y276000D03*
X5910000D03*
X6646000Y530000D03*
Y276000D03*
X6900000D03*
X9314000Y750000D03*
X9504000Y2900000D03*
X9314000Y4050000D03*
X9758000Y2900000D03*
X10840000Y2246000D03*
G54D23*
X2660000Y2025000D03*
Y2115000D03*
X3100000Y1555000D03*
Y1645000D03*
X2780000Y2115000D03*
Y2025000D03*
X3380000Y2545000D03*
Y2455000D03*
Y2665000D03*
Y2755000D03*
X3510000Y2545000D03*
Y2455000D03*
X3250000Y2665000D03*
Y2755000D03*
Y2455000D03*
Y2545000D03*
X8935000Y2705000D03*
Y2795000D03*
G54D32*
X5280000Y2030000D03*
X5290000Y3450000D03*
G54D33*
X5910000Y530000D03*
X6900000D03*
X9250000Y2900000D03*
G54D24*
X2455000Y2590000D03*
X2825000D03*
X3495000Y1420000D03*
X3865000D03*
G54D15*
X676000Y2268000D03*
Y3132000D03*
G54D25*
X3095000Y1840000D03*
X3045000D03*
Y2240000D03*
X3095000D03*
X3295000Y1840000D03*
X3245000D03*
X3195000D03*
X3145000D03*
Y2240000D03*
X3195000D03*
X3245000D03*
X3295000D03*
X9060000Y2110000D03*
X9010000D03*
X8960000D03*
X8910000D03*
X8860000D03*
Y2510000D03*
X8910000D03*
X8960000D03*
X9010000D03*
X9060000D03*
G54D34*
X8806000Y280000D03*
Y4530000D03*
X9060000Y280000D03*
Y4530000D03*
X9314000Y280000D03*
Y4530000D03*
G54D16*
X780000Y2380000D03*
Y2460000D03*
Y2940000D03*
Y3020000D03*
G54D26*
X2970000Y1915000D03*
Y1965000D03*
Y2015000D03*
Y2065000D03*
Y2115000D03*
Y2165000D03*
X3370000Y1965000D03*
Y1915000D03*
Y2165000D03*
Y2115000D03*
Y2065000D03*
Y2015000D03*
X8760000Y2210000D03*
Y2260000D03*
Y2310000D03*
Y2360000D03*
Y2410000D03*
X9160000Y2360000D03*
Y2310000D03*
Y2260000D03*
Y2210000D03*
Y2410000D03*
G54D35*
X8960000Y2310000D03*
G54D17*
X780000Y2525000D03*
Y2575000D03*
Y2625000D03*
Y2675000D03*
Y2725000D03*
Y2775000D03*
Y2825000D03*
Y2875000D03*
G54D36*
G01Y2525000D02*
X1040000D01*
X1045000Y2520000D01*
G01X780000Y2825000D02*
X1040000D01*
X1045000Y2830000D01*
G01X1840000Y2690000D02*
X1920000D01*
X1960000Y2650000D01*
Y1840000D01*
X2030000Y1770000D01*
X3010000D01*
X3045000Y1805000D01*
Y1840000D01*
G01X2670000Y1970000D02*
X2675000Y1965000D01*
G01X2780000Y2025000D02*
X2765000D01*
X2675000Y2115000D01*
X2660000D01*
G01X2970000Y1915000D02*
Y1870000D01*
G01X2870000Y1930000D02*
X2874810D01*
G01X2945000Y1915000D02*
X2900000Y1870000D01*
G01X2970000Y1915000D02*
X2945000D01*
G01X2890000Y1890000D02*
X2915000Y1915000D01*
X2945000D01*
G01X2874810Y1930000D02*
X2909810Y1965000D01*
X2970000D01*
G01X3090000Y1730000D02*
X3095000Y1735000D01*
G01X3100000Y1645000D02*
X2995000D01*
G01X3095000Y1735000D02*
Y1840000D01*
G01X2970000Y2115000D02*
X2780000D01*
G01D02*
X2816500Y2078500D01*
X2896310D01*
X2909810Y2065000D01*
X2970000D01*
G01Y2115000D02*
X3085000D01*
G01X3090000Y2120000D02*
X3145000Y2065000D01*
X3114030D01*
X3113150Y2064120D01*
X3066850D01*
X3065970Y2065000D01*
G01X3085000Y2115000D02*
X3090000Y2120000D01*
G01X3065970Y2065000D02*
X2970000D01*
G01X2870000Y2180000D02*
X2885000Y2165000D01*
X2970000D01*
G01X2960000Y2210000D02*
X2970000Y2200000D01*
G01X3045000Y2240000D02*
X3000000D01*
G01X3045000Y2399600D02*
Y2240000D01*
G01X2970000Y2200000D02*
Y2165000D01*
G01Y2015000D02*
X2870000D01*
G01D02*
X2790000D01*
X2780000Y2025000D01*
G01X3130000Y2750000D02*
Y2390000D01*
X3095000Y2355000D01*
Y2240000D01*
G01X3150000Y1740000D02*
X3145000Y1745000D01*
G01X3200000Y1740000D02*
X3195000Y1745000D01*
G01X3240000Y1740000D02*
X3245000Y1745000D01*
G01X3145000D02*
Y1840000D01*
G01X3195000Y1745000D02*
Y1840000D01*
G01X3245000Y1745000D02*
Y1840000D01*
G01X3470000Y1910000D02*
X3465000Y1915000D01*
G01X3370000D02*
Y1870000D01*
G01X3620000Y1940000D02*
X3595000Y1965000D01*
X3370000D01*
G01X3465000Y1915000D02*
X3370000D01*
G01X3320000Y2300000D02*
X3295000Y2275000D01*
Y2240000D01*
G01X3250000Y2120000D02*
X3225880Y2095880D01*
Y2094910D01*
X3194120Y2063150D01*
Y2055090D01*
X3193150Y2054120D01*
X3184120D01*
X3170000Y2040000D01*
G01X3250000Y2120000D02*
X3295000Y2165000D01*
Y2240000D01*
G01X3145000D02*
Y2325000D01*
X3180640Y2360640D01*
Y2480160D01*
X3245480Y2545000D01*
X3250000D01*
G01X3195000Y2240000D02*
Y2285000D01*
X3365000Y2455000D01*
X3380000D01*
G01X3920000Y1770000D02*
Y1970000D01*
X3875000Y2015000D01*
X3370000D01*
G01X3510000Y2455000D02*
Y2280000D01*
X3395000Y2165000D01*
X3370000D01*
G01Y2065000D02*
X3634520D01*
X3715000Y2145480D01*
Y2150000D01*
G01X3370000Y2115000D02*
X3590000D01*
X3625000Y2150000D01*
G01X3250000Y2455000D02*
X3265000D01*
X3355000Y2545000D01*
G01D02*
X3380000D01*
G01X3250000D02*
Y2665000D01*
G01D02*
X3380000D01*
G01X3390000Y2850000D02*
X3380000Y2840000D01*
G01X3250000Y2755000D02*
X3380000D01*
G01Y2840000D02*
Y2755000D01*
G01X3715000Y2150000D02*
X3835000D01*
G01X3625000D02*
Y2281200D01*
X3633800Y2290000D01*
G01X3925000Y2150000D02*
X4420000D01*
X4460000Y2110000D01*
Y1771600D01*
G01D02*
X4470000Y1761600D01*
G01X4660000Y1840000D02*
Y2130000D01*
X4700000Y2170000D01*
X4940000D01*
X4982500Y2127500D01*
X5040000D01*
G01Y2062500D02*
X4852500D01*
X4845000Y2070000D01*
G01X5050000Y3482500D02*
X4862500D01*
X4855000Y3490000D01*
G01X4670000Y3230000D02*
Y3550000D01*
X4710000Y3590000D01*
X4950000D01*
X4992500Y3547500D01*
X5050000D01*
G01Y1890000D02*
X5040000Y1900000D01*
G01D02*
Y1932500D01*
G01X5390000Y2130000D02*
X5392500Y2127500D01*
G01D02*
X5520000D01*
G01X5040000Y3330000D02*
X5050000Y3340000D01*
G01D02*
Y3352500D01*
G01X5530000Y3547500D02*
X5393440D01*
G01X5520000Y1932500D02*
X5742500D01*
G01D02*
X5755000Y1920000D01*
G01X5640000Y2140000D02*
X5627500Y2127500D01*
G01D02*
X5520000D01*
G01Y1997500D02*
X5772020D01*
X5845000Y1924520D01*
Y1920000D01*
G01X5530000Y3417500D02*
X5772020D01*
X5845000Y3344520D01*
Y3340000D01*
G01X5755000D02*
Y3220000D01*
G01X5540000Y3320000D02*
X5530000Y3330000D01*
G01X5755000Y3340000D02*
X5742500Y3352500D01*
G01D02*
X5530000D01*
G01Y3330000D02*
Y3352500D01*
G01X5660000Y3550000D02*
X5657500Y3547500D01*
G01D02*
X5530000D01*
G01X5845000Y1680000D02*
X6013800D01*
G01X5845000Y1920000D02*
X5955000D01*
G01X5845000D02*
Y1800000D01*
G01Y3090000D02*
X5983800D01*
G01X5845000Y3340000D02*
X5955000D01*
G01X5845000D02*
Y3220000D01*
G01X8910000Y2110000D02*
Y2067980D01*
X8752020Y1910000D01*
X8740000D01*
G01D02*
Y1763800D01*
X8743800Y1760000D01*
G01X8670000Y2380000D02*
X8690000Y2360000D01*
X8760000D01*
G01Y2260000D02*
X8586200D01*
X8486200Y2160000D01*
G01X8760000Y2310000D02*
X8495000D01*
G01X8760000Y2210000D02*
X8690000D01*
X8490000Y2010000D01*
G01X8660000Y2420000D02*
X8670000Y2410000D01*
G01X8760000D02*
Y2470000D01*
G01X8860000Y2510000D02*
X8790000D01*
G01X8840000Y2590000D02*
X8860000Y2570000D01*
Y2510000D01*
G01X8670000Y2410000D02*
X8760000D01*
G01X9060000Y2110000D02*
Y1755030D01*
G01D02*
X9200030D01*
X9205000Y1760000D01*
G01X8900000Y1910000D02*
X8962900D01*
X8984590Y1931690D01*
Y2005400D01*
G01X8900000Y1910000D02*
Y1763800D01*
X8896200Y1760000D01*
G01X9160000Y2310000D02*
X9040000D01*
G01D02*
X8960000D01*
G01X9160000Y2360000D02*
X9390000D01*
G01X9010000Y2110000D02*
Y2030810D01*
X8984590Y2005400D01*
G01D02*
X8960000Y2029990D01*
Y2110000D01*
G01X9160000Y2210000D02*
X9340000D01*
X9490000Y2060000D01*
G01X9228200Y2448200D02*
X9190000Y2410000D01*
X9160000D01*
G01X9120000Y2590000D02*
X9060000Y2530000D01*
Y2510000D01*
G01X8910000D02*
Y2680000D01*
X8935000Y2705000D01*
G01X8960000Y2510000D02*
Y2680000D01*
X8935000Y2705000D01*
G01X9120000Y2680000D02*
X9010000Y2570000D01*
Y2510000D01*
G01X9295000Y1760000D02*
Y1855000D01*
G01X9493800Y2360000D02*
Y2213800D01*
X9490000Y2210000D01*
G01X9390000Y2360000D02*
X9493800D01*
G54D27*
X3170000Y2040000D03*
G54D18*
X720000Y3810000D03*
Y4310000D03*
X1220000Y3810000D03*
Y4310000D03*
X1580000Y2780000D03*
Y2920000D03*
X1440000Y2780000D03*
Y2920000D03*
X1850000Y1940000D03*
Y2140000D03*
Y2040000D03*
X1720000Y2920000D03*
Y2780000D03*
Y3810000D03*
Y4310000D03*
X2380000Y300000D03*
Y800000D03*
X2080000Y1940000D03*
Y2140000D03*
Y2040000D03*
X2300000Y2780000D03*
Y2920000D03*
X2160000Y2780000D03*
Y2920000D03*
X2220000Y3810000D03*
Y4310000D03*
X2670000Y2220000D03*
X2570000D03*
X2470000D03*
X2640000Y2370000D03*
Y2550000D03*
Y2750000D03*
Y2920000D03*
Y3060000D03*
Y3200000D03*
X2720000Y3810000D03*
Y4310000D03*
X2880000Y300000D03*
Y800000D03*
X3030000Y1470000D03*
Y1330000D03*
X3090000Y1960000D03*
X2995000Y1645000D03*
X3090000Y2120000D03*
Y2040000D03*
X2870000Y2015000D03*
X2780000Y2920000D03*
Y3060000D03*
Y3200000D03*
X2920000Y3320000D03*
X2780000D03*
X3050000D03*
Y3440000D03*
X2920000D03*
X2780000D03*
X3380000Y300000D03*
Y800000D03*
X3170000Y1470000D03*
Y1330000D03*
Y1960000D03*
X3250000D03*
X3420000Y2350000D03*
X3360000Y2290000D03*
X3170000Y2040000D03*
X3172690Y2116350D03*
X3250000Y2120000D03*
Y2040000D03*
X3490000Y2690000D03*
X3190000Y3320000D03*
X3470000D03*
X3330000D03*
X3190000Y3440000D03*
X3330000D03*
X3470000D03*
X3220000Y3810000D03*
Y4310000D03*
X3880000Y300000D03*
Y800000D03*
X3630000Y2690000D03*
Y2550000D03*
X3770000Y2690000D03*
Y2550000D03*
Y2400000D03*
X3720000Y3810000D03*
Y4310000D03*
X4000000Y1410000D03*
Y1270000D03*
X4140000Y1410000D03*
Y1270000D03*
X4280000Y1410000D03*
Y1270000D03*
X3920000Y2260000D03*
Y2400000D03*
X4220000Y3810000D03*
Y4310000D03*
X4380000Y300000D03*
Y800000D03*
X4420000Y1410000D03*
Y1270000D03*
X4560000Y1410000D03*
Y1270000D03*
X4600000Y2870000D03*
Y3010000D03*
X4880000Y300000D03*
Y800000D03*
X4700000Y1410000D03*
Y1270000D03*
Y1560000D03*
X4860000Y1270000D03*
Y1410000D03*
Y1560000D03*
X5030000Y1270000D03*
Y1410000D03*
X4750000Y1960000D03*
X4890000D03*
X4880000Y2870000D03*
Y3010000D03*
X4740000Y2870000D03*
Y3010000D03*
X4760000Y3360000D03*
X4900000D03*
X4720000Y3810000D03*
Y4310000D03*
X5310000Y1270000D03*
Y1410000D03*
X5170000Y1270000D03*
Y1410000D03*
X5210000Y1590000D03*
X5350000D03*
X5210000Y1870000D03*
X5350000D03*
X5210000Y1730000D03*
X5350000D03*
X5330000Y1970000D03*
X5230000D03*
X5210000Y2220000D03*
X5350000D03*
X5210000Y2360000D03*
X5350000D03*
X5330000Y2090000D03*
X5230000D03*
X5280000Y2030000D03*
X5210000Y2500000D03*
X5350000D03*
X5220000Y2970000D03*
X5360000D03*
X5220000Y3110000D03*
X5360000D03*
X5220000Y2800000D03*
X5360000D03*
X5080000D03*
X5220000Y3250000D03*
X5360000D03*
X5290000Y3450000D03*
X5240000Y3510000D03*
X5340000D03*
X5240000Y3390000D03*
X5340000D03*
X5210000Y3640000D03*
X5350000D03*
X5210000Y3780000D03*
X5350000D03*
X5210000Y3920000D03*
X5350000D03*
X5220000Y4310000D03*
X5720000Y3810000D03*
Y4310000D03*
X6270000Y160000D03*
Y660000D03*
Y1160000D03*
Y1660000D03*
Y2160000D03*
Y2660000D03*
X6220000Y3810000D03*
Y4310000D03*
X6720000Y3810000D03*
Y4310000D03*
X7310000Y160000D03*
Y660000D03*
Y1160000D03*
Y1660000D03*
Y2160000D03*
Y2660000D03*
X7220000Y3810000D03*
Y4310000D03*
X7810000Y160000D03*
Y660000D03*
Y1160000D03*
Y1660000D03*
X8060000Y2270000D03*
X7810000Y2160000D03*
X8060000Y2690000D03*
Y2550000D03*
Y2410000D03*
X7810000Y2660000D03*
X7720000Y3810000D03*
Y4310000D03*
X8200000Y2270000D03*
Y2690000D03*
Y2550000D03*
Y2410000D03*
X8220000Y3810000D03*
Y4310000D03*
X8800000Y3120000D03*
Y3260000D03*
Y3400000D03*
Y3830000D03*
Y3540000D03*
Y3690000D03*
X9180000Y1080000D03*
Y940000D03*
Y1220000D03*
X8930000Y940000D03*
Y1080000D03*
Y1220000D03*
X9180000Y1360000D03*
Y1510000D03*
X8930000Y1360000D03*
Y1510000D03*
X9180000Y1650000D03*
X8930000D03*
X8880000Y2230000D03*
Y2310000D03*
X9040000Y2230000D03*
X8960000D03*
X9040000Y2310000D03*
X8960000D03*
X8880000Y2390000D03*
X9040000D03*
X8962690Y2386350D03*
X9120000Y2590000D03*
Y2680000D03*
X9050000Y3120000D03*
Y3260000D03*
Y3400000D03*
Y3830000D03*
Y3540000D03*
Y3690000D03*
X9295000Y1855000D03*
X9390000Y2360000D03*
X9760000Y2290000D03*
X9900000D03*
X9760000Y2710000D03*
Y2570000D03*
X9900000Y2710000D03*
Y2570000D03*
X9760000Y2430000D03*
X9900000D03*
X10090000Y1210000D03*
Y1710000D03*
Y2210000D03*
Y2710000D03*
Y3210000D03*
Y3710000D03*
X10590000Y1210000D03*
Y1710000D03*
Y2210000D03*
Y2710000D03*
Y3210000D03*
Y3710000D03*
G54D37*
G01X650000Y2500000D02*
X690000Y2460000D01*
G01D02*
X780000D01*
G01X710000Y2940000D02*
X670000D01*
G01X710000D02*
X640000Y2870000D01*
G01X780000Y2940000D02*
X710000D01*
G01X2660000Y2025000D02*
Y1950000D01*
G01X8333800Y2160000D02*
Y2238800D01*
X8405000Y2310000D01*
G01X8495000Y2426900D02*
X8405000Y2336900D01*
Y2310000D01*
G01X8495000Y2470000D02*
Y2426900D01*
G01X9060000Y280000D02*
Y750000D01*
G01Y1602630D02*
Y750000D01*
G01X9475000Y2500000D02*
X9280000D01*
X9228200Y2448200D01*
G01X8935000Y2795000D02*
Y2915000D01*
X8930000Y2920000D01*
G01D02*
Y3920000D01*
X9060000Y4050000D01*
G01D02*
Y4530000D01*
G01X9475000Y2500000D02*
Y2621200D01*
X9493800Y2640000D01*
G01D02*
Y2889800D01*
X9504000Y2900000D01*
G54D19*
X1135000Y2520000D03*
X1045000D03*
X1135000Y2830000D03*
X1045000D03*
X3625000Y2150000D03*
X3715000D03*
X3835000D03*
X3925000D03*
X4755000Y2070000D03*
X4845000D03*
X4765000Y3490000D03*
X4855000D03*
X5755000Y1800000D03*
Y1680000D03*
Y1920000D03*
Y3090000D03*
Y3220000D03*
Y3340000D03*
X5845000Y1800000D03*
Y1680000D03*
X6045000Y1920000D03*
X5955000D03*
X5845000D03*
Y3090000D03*
Y3220000D03*
Y3340000D03*
X6045000D03*
X5955000D03*
X8405000Y2310000D03*
Y2470000D03*
X8495000Y2310000D03*
Y2470000D03*
X9205000Y1760000D03*
X9020000Y2920000D03*
X8930000D03*
X9295000Y1760000D03*
X9565000Y2500000D03*
X9475000D03*
G54D28*
X3030000Y2700000D03*
Y2480000D03*
X2930000Y3161600D03*
Y2958400D03*
X3140000Y3161600D03*
Y2958400D03*
X3350000Y3161600D03*
Y2958400D03*
X4070000Y1558400D03*
X4270000D03*
X4070000Y1761600D03*
X4270000D03*
X4470000Y1558400D03*
Y1761600D03*
X5040000Y1548400D03*
Y1751600D03*
X5050000Y2968400D03*
Y3171600D03*
X5520000Y1548400D03*
Y1751600D03*
X5530000Y2968400D03*
Y3171600D03*
G54D29*
X3570000Y1760000D03*
X3790000D03*
M02*
