M48
METRIC,TZ
T01C.3048
T02C.889
T03C1.016
;LEADER: 12 
;HEADER: 
;CODE  : ASCII 
;FILE  : 430DEBUG_ZJ_V10A-1-2.drl for board H:/MBED-TOOLS/HARDWARE/430DEBUG_ZJ_V10A/PCB/#Taaaabf11616.tmp ... layers TOP and BOTTOM
;T01 Holesize 1. = 0.304800 Tolerance = +0.000000/-0.000000 PLATED MM Quantity = 77
;T02 Holesize 2. = 0.889000 Tolerance = +0.000000/-0.000000 PLATED MM Quantity = 28
;T03 Holesize 3. = 1.016000 Tolerance = +0.000000/-0.000000 PLATED MM Quantity = 10
%
G90
T01
X115180Y120750
X315180Y120750
X515180Y120750
X715180Y120750
X915180Y120750
X1115180Y120750
X1315180Y120750
X1515180Y120750
X1715180Y120750
X1915180Y120750
X2115180Y120750
X2315180Y120750
X2515180Y120750
X2554830Y481680
X2715180Y120750
X2754830Y481680
X2915180Y120750
X3115180Y120750
X3315180Y120750
X3515180Y120750
X3634290Y458290
X3634290Y858290
X3634290Y658290
X2754830Y881680
X2754830Y681680
X2554830Y881680
X2554830Y681680
X1974590Y521790
X1774590Y521790
X1574590Y521790
X1374590Y521790
X1174590Y521790
X937310Y1206900
X937310Y1406900
X1398520Y1019740
X1398520Y1219740
X1598520Y1019740
X1598520Y1219740
X1645810Y1440840
X1845810Y1440840
X1910000Y1070000
X2130000Y1440000
X2143260Y1066530
X2554830Y1081680
X2554830Y1281680
X2554830Y1481680
X2754830Y1081680
X2754830Y1281680
X2754830Y1481680
X3634290Y1058290
X3634290Y1258290
X3634290Y1458290
X3634290Y1858290
X3634290Y1658290
X1845810Y1640840
X1645810Y1640840
X937310Y1806900
X937310Y1606900
X161970Y2420040
X361970Y2420040
X561970Y2420040
X761970Y2420040
X961970Y2420040
X1161970Y2420040
X1361970Y2420040
X1561970Y2420040
X1761970Y2420040
X1961970Y2420040
X2161970Y2420040
X2361970Y2420040
X2561970Y2420040
X2761970Y2420040
X2961970Y2420040
X3161970Y2420040
X3361970Y2420040
X3561970Y2420040
X3634290Y2058290
T02
X330000Y546000
X330000Y800000
X330000Y1054000
X330000Y1308000
X330000Y1562000
X330000Y1816000
X330000Y2070000
X584000Y2070000
X584000Y1816000
X584000Y1562000
X584000Y1308000
X584000Y1054000
X584000Y800000
X584000Y546000
X3170000Y546000
X3170000Y800000
X3170000Y1054000
X3170000Y1308000
X3170000Y1562000
X3170000Y1816000
X3170000Y2070000
X3424000Y2070000
X3424000Y1816000
X3424000Y1562000
X3424000Y1308000
X3424000Y1054000
X3424000Y800000
X3424000Y546000
T03
X1515000Y790000
X1765000Y790000
X2015000Y790000
X2265000Y790000
X2505000Y1860000
X2255000Y1860000
X2005000Y1860000
X1755000Y1860000
X1505000Y1860000
X1255000Y1860000
M30
