G04 ================== begin FILE IDENTIFICATION RECORD ==================*
G04 Layout Name:  H:/MBED-TOOLS/HARDWARE/430DEBUG_ZJ_V10A/PCB/430DEBUG_ZJ_V10A.brd*
G04 Film Name:    BOTTOM*
G04 File Format:  Gerber RS274X*
G04 File Origin:  Cadence Allegro 17.2-S037*
G04 Origin Date:  Wed Jun 06 11:13:59 2018*
G04 *
G04 Layer:  BOARD GEOMETRY/OUTLINE*
G04 Layer:  ETCH/BOTTOM*
G04 Layer:  PIN/BOTTOM*
G04 Layer:  VIA CLASS/BOTTOM*
G04 *
G04 Offset:    (0.0000 0.0000)*
G04 Mirror:    No*
G04 Mode:      Positive*
G04 Rotation:  0*
G04 FullContactRelief:  No*
G04 UndefLineWidth:     0.1524*
G04 ================== end FILE IDENTIFICATION RECORD ====================*
%FSLAX55Y55*MOMM*%
%IR0*IPPOS*OFA0.00000B0.00000*MIA0B0*SFA1.00000B1.00000*%
%ADD10C,.6096*%
%ADD14C,1.524*%
%ADD12R,1.524X1.524*%
%ADD11C,1.778*%
%ADD13R,.9144X.9144*%
%ADD15C,.7112*%
%ADD16C,.254*%
%ADD17C,.1524*%
%ADD18C,.508*%
%ADD19C,.762*%
G75*
%LPD*%
G75*
G36*
G01X100000Y30000D02*
X30000Y100000D01*
Y2490000D01*
X90000Y2550000D01*
X3670000D01*
X3740000Y2480000D01*
Y100000D01*
X3670000Y30000D01*
X100000D01*
G37*
%LPC*%
G75*
G36*
G01X440880Y460980D02*
G02X244980Y656880I-110880J85020D01*
G03Y689120I-12364J16120D01*
G02X248690Y913630I85017J110881D01*
G03X249080Y946390I-11824J16523D01*
G02Y1161610I80920J107610D01*
G03X248690Y1194370I-12214J16237D01*
G02X244980Y1418880I81307J113629D01*
G03Y1451120I-12364J16120D01*
G02Y1672880I85020J110880D01*
G03Y1705120I-12364J16120D01*
G02Y1926880I85020J110880D01*
G03Y1959120I-12364J16120D01*
G02X440880Y2155020I85020J110880D01*
G03X473120I16120J12364D01*
G02X684240Y2167330I110876J-85020D01*
G01X684290Y2167280D01*
X710440Y2141140D01*
X2039470D01*
X2149170Y2031440D01*
G03X2183860Y2045800I14371J14364D01*
G01Y2164470D01*
X2340530Y2321140D01*
X3273470D01*
X3384890Y2209720D01*
X3424000D01*
G02X3509020Y1959120I0J-139722D01*
G03Y1926880I12364J-16120D01*
G02Y1705120I-85020J-110880D01*
G03Y1672880I12364J-16120D01*
G02Y1451120I-85020J-110880D01*
G03Y1418880I12364J-16120D01*
G02Y1197120I-85020J-110880D01*
G03Y1164880I12364J-16120D01*
G02Y943120I-85020J-110880D01*
G03Y910880I12364J-16120D01*
G02Y689120I-85020J-110880D01*
G03Y656880I12364J-16120D01*
G02X3313120Y460980I-85020J-110880D01*
G03X3280880I-16120J-12364D01*
G02X3084980Y656880I-110880J85020D01*
G03Y689120I-12364J16120D01*
G02X3088690Y913630I85017J110881D01*
G03X3089080Y946390I-11824J16523D01*
G02Y1161610I80920J107610D01*
G03X3088690Y1194370I-12214J16237D01*
G02X3084980Y1418880I81307J113629D01*
G03Y1451120I-12364J16120D01*
G02Y1672880I85020J110880D01*
G03Y1705120I-12364J16120D01*
G02Y1926880I85020J110880D01*
G03Y1959120I-12364J16120D01*
G02X3053610Y2147300I85019J110878D01*
G03X3036680Y2178860I-16927J11241D01*
G01X2399470D01*
X2326140Y2105530D01*
Y1968480D01*
X2343390Y1951220D01*
X2343450Y1951170D01*
G02X2364170Y1924930I-88462J-91153D01*
G01X2367120Y1919970D01*
X2383060D01*
Y1936200D01*
G02X2428800Y1981940I45740J0D01*
G01X2581200D01*
G02X2626940Y1936200I0J-45740D01*
G01Y1783800D01*
G02X2581200Y1738060I-45740J0D01*
G01X2428800D01*
G02X2383060Y1783800I0J45740D01*
G01Y1800030D01*
X2367120D01*
X2364170Y1795070D01*
G02X2343440Y1768830I-109167J64935D01*
G01X2343390Y1768780D01*
X2321140Y1746520D01*
Y1723150D01*
X2331200Y1710790D01*
G02X2337520Y1700480I-35493J-28849D01*
G01X2367390Y1633210D01*
X2431140Y1569470D01*
Y1310530D01*
X2279470Y1158860D01*
X1899470D01*
X1836140Y1095530D01*
Y898480D01*
X1853390Y881220D01*
X1853450Y881170D01*
G02X1872760Y857240I-88470J-91145D01*
G03X1907240I17240J10760D01*
G02X2122760I107760J-67240D01*
G03X2157240I17240J10760D01*
G02Y722760I107760J-67240D01*
G03X2122760I-17240J-10760D01*
G02X1907240I-107760J67240D01*
G03X1872760I-17240J-10760D01*
G02X1655830Y725070I-107761J67241D01*
G01X1652880Y730030D01*
X1636940D01*
Y713800D01*
G02X1591200Y668060I-45740J0D01*
G01X1438800D01*
G02X1393060Y713800I0J45740D01*
G01Y866200D01*
G02X1438800Y911940I45740J0D01*
G01X1591200D01*
G02X1636940Y866200I0J-45740D01*
G01Y849970D01*
X1652880D01*
X1655830Y854930D01*
G02X1676550Y881170I109183J-64914D01*
G01X1676610Y881220D01*
X1693860Y898480D01*
Y1154470D01*
X1840530Y1301140D01*
X2220530D01*
X2288860Y1369470D01*
Y1392340D01*
X2204280D01*
G02X2158540Y1438080I0J45740D01*
G01Y1474650D01*
X2058860Y1574330D01*
Y1716530D01*
G03X2033910Y1736310I-20318J-4D01*
G02X1897240Y1792760I-28905J123688D01*
G03X1862760I-17240J-10760D01*
G02X1647240I-107760J67240D01*
G03X1612760I-17240J-10760D01*
G02X1593440Y1768830I-107762J67238D01*
G01X1593380Y1768770D01*
X1555050Y1730420D01*
X1579990Y1702220D01*
G02X1591460Y1671920I-34272J-30295D01*
G01Y1580480D01*
G02X1579820Y1550000I-45727J0D01*
G02X1591460Y1519520I-34087J-30480D01*
G01Y1428080D01*
G02X1545720Y1382340I-45740J0D01*
G01X1454280D01*
G02X1408540Y1428080I0J45740D01*
G01Y1482610D01*
X1386150Y1505010D01*
G03X1351460Y1490640I-14369J-14370D01*
G01Y1428080D01*
G02X1339990Y1397780I-45742J-5D01*
G01X1318440Y1373410D01*
Y725790D01*
X1080210Y487560D01*
X723150D01*
X684290Y448720D01*
X684240Y448670D01*
G02X473120Y460980I-100244J97330D01*
G03X440880I-16120J-12364D01*
G37*
%LPD*%
G75*
G36*
G01X700740Y554980D02*
X646850Y608850D01*
X580820Y546000D01*
X646850Y483150D01*
X700740Y537020D01*
G03Y554980I-8980J8980D01*
G37*
G36*
G01Y808980D02*
X646850Y862850D01*
X580820Y800000D01*
X646850Y737150D01*
X700740Y791020D01*
G03Y808980I-8980J8980D01*
G37*
G36*
G01X691760Y2087960D02*
X646850Y2132850D01*
X577650Y2070000D01*
X646850Y2007150D01*
X691760Y2052040D01*
G03Y2087960I-17960J17960D01*
G37*
G36*
G01X723150Y858440D02*
X684290Y897280D01*
X684240Y897330D01*
G03X669020Y910880I-100269J-97304D01*
G02Y943120I12364J16120D01*
G03Y1164880I-85020J110880D01*
G02Y1197120I12364J16120D01*
G03Y1418880I-85020J110880D01*
G02Y1451120I12364J16120D01*
G03Y1672880I-85020J110880D01*
G02Y1705120I12364J16120D01*
G03Y1926880I-85020J110880D01*
G02Y1959120I12364J16120D01*
G03X684240Y1972670I-85049J110854D01*
G01X684290Y1972720D01*
X710440Y1998860D01*
X1061690D01*
G02X1068870Y1981520I-6J-10159D01*
G01X1061560Y1974210D01*
Y954210D01*
X965790Y858440D01*
X723150D01*
G37*
G36*
G01X1492570Y1715230D02*
X1454280Y1671920D01*
X1500000Y1623020D01*
X1545720Y1671920D01*
X1507430Y1715230D01*
G03X1492570I-7430J-10300D01*
G37*
G36*
G01X1246330Y1719210D02*
X1214280Y1671920D01*
X1260190Y1623030D01*
X1305720Y1671920D01*
X1262620Y1720090D01*
G03X1246330Y1719210I-7620J-10160D01*
G37*
G36*
G01X1267430Y1384770D02*
X1305720Y1428080D01*
X1260000Y1476980D01*
X1214280Y1428080D01*
X1252570Y1384770D01*
G03X1267430I7430J10300D01*
G37*
G36*
G01X1508980Y1756220D02*
X1558870Y1806130D01*
X1505170Y1863170D01*
X1450190Y1807180D01*
X1490080Y1757270D01*
G03X1508980Y1756220I9920J7930D01*
G37*
G36*
G01X1263980Y1761220D02*
X1308870Y1806130D01*
X1255000Y1863180D01*
X1201130Y1806130D01*
X1246020Y1761220D01*
G03X1263980I8980J8980D01*
G37*
G36*
G01X1747040Y879800D02*
X1711130Y843870D01*
X1765000Y783650D01*
X1818870Y843870D01*
X1782960Y879800D01*
G03X1747040I-17960J-17960D01*
G37*
G36*
G01X2334640Y1594270D02*
X2295720Y1681920D01*
X2244960Y1640070D01*
X2204280Y1590480D01*
X2309520Y1565080D01*
G03X2334640Y1594270I0J25404D01*
G37*
G36*
G01X2239690Y1725440D02*
X2204280Y1681920D01*
X2250000Y1629850D01*
X2295720Y1681920D01*
X2260310Y1725440D01*
G03X2239690I-10310J-23210D01*
G37*
G36*
G01X2237040Y1949800D02*
X2201130Y1913870D01*
X2255000Y1853650D01*
X2308870Y1913870D01*
X2272960Y1949800D01*
G03X2237040I-17960J-17960D01*
G37*
G36*
G01X2267960Y1765200D02*
X2308870Y1806130D01*
X2255410Y1866340D01*
X2198820Y1808770D01*
X2229730Y1767850D01*
G03X2267960Y1765200I20268J15310D01*
G37*
G36*
G01X3335100Y2133500D02*
Y2070000D01*
X3428490Y2065510D01*
X3424000Y2158900D01*
X3360500D01*
G03X3335100Y2133500I0J-25400D01*
G37*
G54D10*
X515180Y120750D03*
X315180D03*
X115180D03*
X561970Y2420040D03*
X361970D03*
X161970D03*
X1115180Y120750D03*
X915180D03*
X715180D03*
X937310Y1606900D03*
Y1406900D03*
Y1206900D03*
Y1806900D03*
X961970Y2420040D03*
X761970D03*
X1515180Y120750D03*
X1315180D03*
X1574590Y521790D03*
X1374590D03*
X1174590D03*
X1598520Y1019740D03*
X1398520D03*
X1645810Y1640840D03*
Y1440840D03*
X1598520Y1219740D03*
X1398520D03*
X1561970Y2420040D03*
X1361970D03*
X1161970D03*
X2115180Y120750D03*
X1915180D03*
X1715180D03*
X1974590Y521790D03*
X1774590D03*
X2143260Y1066530D03*
X1910000Y1070000D03*
X1845810Y1640840D03*
Y1440840D03*
X2130000Y1440000D03*
X2161970Y2420040D03*
X1961970D03*
X1761970D03*
X2515180Y120750D03*
X2315180D03*
X2554830Y481680D03*
Y1081680D03*
Y881680D03*
Y681680D03*
Y1481680D03*
Y1281680D03*
X2561970Y2420040D03*
X2361970D03*
X3115180Y120750D03*
X2915180D03*
X2715180D03*
X2754830Y481680D03*
Y1081680D03*
Y881680D03*
Y681680D03*
Y1481680D03*
Y1281680D03*
X3161970Y2420040D03*
X2961970D03*
X2761970D03*
X3515180Y120750D03*
X3315180D03*
X3634290Y658290D03*
Y458290D03*
Y1058290D03*
Y858290D03*
Y1658290D03*
Y1458290D03*
Y1258290D03*
Y2058290D03*
Y1858290D03*
X3561970Y2420040D03*
X3361970D03*
G54D11*
X584000Y546000D03*
X330000D03*
X584000Y800000D03*
X330000D03*
X584000Y1054000D03*
X330000D03*
X584000Y1308000D03*
X330000D03*
X584000Y1562000D03*
X330000D03*
X584000Y1816000D03*
X330000D03*
X584000Y2070000D03*
X330000D03*
X3170000Y546000D03*
Y800000D03*
Y1054000D03*
Y1308000D03*
Y1562000D03*
Y1816000D03*
Y2070000D03*
X3424000Y546000D03*
Y800000D03*
Y1054000D03*
Y1308000D03*
Y1562000D03*
Y1816000D03*
Y2070000D03*
G54D12*
X1515000Y790000D03*
X2505000Y1860000D03*
G54D13*
X1260000Y1473800D03*
Y1626200D03*
X1500000Y1473800D03*
Y1626200D03*
X2250000Y1483800D03*
Y1636200D03*
G54D14*
X1255000Y1860000D03*
X1505000D03*
X1765000Y790000D03*
X2015000D03*
X2005000Y1860000D03*
X1755000D03*
X2265000Y790000D03*
X2255000Y1860000D03*
G54D15*
G01X1515000Y657900D02*
Y790000D01*
G01D02*
Y922100D01*
G01X1382900Y790000D02*
X1515000D01*
G01X2505000Y1727900D02*
Y1860000D01*
G01D02*
Y1992100D01*
G01Y1860000D02*
X2637100D01*
G54D16*
G01X1260000Y1473800D02*
Y750000D01*
X1056000Y546000D01*
X584000D01*
G01X1500000Y1473800D02*
X1390000Y1583800D01*
Y1950000D01*
X1340000Y2000000D01*
X1170000D01*
X1120000Y1950000D01*
Y930000D01*
X990000Y800000D01*
X584000D01*
G01X1500000Y1626200D02*
Y1855000D01*
X1505000Y1860000D01*
G01X1255000D02*
Y1631200D01*
X1260000Y1626200D01*
G54D17*
G01X3670000Y2590000D02*
X100000D01*
G03X0Y2490000I0J-100000D01*
G01Y100000D01*
G03X100000Y0I100000J0D01*
G01X3670000D01*
G03X3770000Y100000I0J100000D01*
G01Y2490000D01*
G03X3670000Y2590000I-100000J0D01*
G54D18*
G01X2250000Y1483800D02*
X2130000Y1603800D01*
Y1950000D01*
X2010000Y2070000D01*
X584000D01*
G01X1765000Y790000D02*
Y1125000D01*
X1870000Y1230000D01*
X2250000D01*
X2360000Y1340000D01*
Y1540000D01*
X2263800Y1636200D01*
X2250000D01*
G01D02*
Y1855000D01*
X2255000Y1860000D01*
G01X3424000Y2070000D02*
X3244000Y2250000D01*
X2370000D01*
X2255000Y2135000D01*
Y1860000D01*
G54D19*
G01X160000Y1050000D02*
X164000Y1054000D01*
G01D02*
X330000D01*
G01X3000000Y1050000D02*
X3004000Y1054000D01*
G01D02*
X3170000D01*
M02*
