G04 ================== begin FILE IDENTIFICATION RECORD ==================*
G04 Layout Name:  H:/MBED-TOOLS/HARDWARE/430DEBUG_ZJ_V10A/PCB/430DEBUG_ZJ_V10A.brd*
G04 Film Name:    SilkScreen_Top*
G04 File Format:  Gerber RS274X*
G04 File Origin:  Cadence Allegro 17.2-S037*
G04 Origin Date:  Wed Jun 06 11:13:59 2018*
G04 *
G04 Layer:  BOARD GEOMETRY/OUTLINE*
G04 Layer:  REF DES/SILKSCREEN_TOP*
G04 Layer:  PACKAGE GEOMETRY/SILKSCREEN_TOP*
G04 Layer:  BOARD GEOMETRY/SILKSCREEN_TOP*
G04 *
G04 Offset:    (0.0000 0.0000)*
G04 Mirror:    No*
G04 Mode:      Positive*
G04 Rotation:  0*
G04 FullContactRelief:  No*
G04 UndefLineWidth:     0.1524*
G04 ================== end FILE IDENTIFICATION RECORD ====================*
%FSLAX55Y55*MOMM*%
%IR0*IPPOS*OFA0.00000B0.00000*MIA0B0*SFA1.00000B1.00000*%
%ADD10C,.25*%
%ADD11C,.127*%
%ADD12C,.254*%
%ADD13C,.1524*%
G75*
%LPD*%
G75*
G36*
G01X255000Y2570000D02*
X30000D01*
Y2320000D01*
X255000D01*
Y2570000D01*
G37*
G36*
G01X1260000Y790000D02*
Y740000D01*
X1310000D01*
Y790000D01*
X1260000D01*
G37*
G36*
G01X1890000Y860000D02*
X1770000Y980000D01*
X1830000D01*
Y1220000D01*
X1130000D01*
Y1410000D01*
X1830000D01*
Y1640000D01*
X1770000D01*
X1890000Y1760000D01*
X2010000Y1640000D01*
X1950000D01*
Y1410000D01*
X2250000D01*
Y1500000D01*
X2430000Y1320000D01*
X2250000Y1140000D01*
Y1220000D01*
X1950000D01*
Y980000D01*
X2010000D01*
X1890000Y860000D01*
G37*
G36*
G01X2764000Y2490000D02*
Y2540000D01*
X2714000D01*
Y2490000D01*
X2764000D01*
G37*
G36*
G01X3095000Y2570000D02*
X2870000D01*
Y2320000D01*
X3095000D01*
Y2570000D01*
G37*
G54D10*
G01X21000Y2563000D02*
X911000D01*
Y20000D01*
X21000D01*
Y2563000D01*
G01X30000Y1045000D02*
X180000D01*
Y1570000D01*
X30000D01*
G01X2861000Y2563000D02*
X3751000D01*
Y20000D01*
X2861000D01*
Y2563000D01*
G01X2870000Y1045000D02*
X3020000D01*
Y1570000D01*
X2870000D01*
G54D11*
G01X1094780Y635570D02*
Y631760D01*
G01Y525080D02*
Y517460D01*
G01X1090970Y635570D02*
Y624140D01*
G01Y528890D02*
Y513650D01*
G01X1087160Y635570D02*
Y509840D01*
G01X1083350Y635570D02*
Y620330D01*
G01Y528890D02*
Y513650D01*
G01X1079540Y635570D02*
Y620330D01*
G01Y528890D02*
Y513650D01*
G01X1075730Y635570D02*
Y620330D01*
G01Y528890D02*
Y513650D01*
G01X1071920Y635570D02*
Y620330D01*
G01Y528890D02*
Y513650D01*
G01X1068110Y635570D02*
Y620330D01*
G01Y528890D02*
Y513650D01*
G01X1064300Y635570D02*
Y620330D01*
G01Y528890D02*
Y513650D01*
G01X1060490Y635570D02*
Y620330D01*
G01Y528890D02*
Y513650D01*
G01X1056680Y635570D02*
Y620330D01*
G01Y528890D02*
Y513650D01*
G01X1052870Y635570D02*
Y620330D01*
G01Y528890D02*
Y513650D01*
G01X1049060Y635570D02*
Y620330D01*
G01Y528890D02*
Y513650D01*
G01X1045250Y635570D02*
Y620330D01*
G01Y528890D02*
Y513650D01*
G01X1041440Y635570D02*
Y620330D01*
G01Y528890D02*
Y513650D01*
G01X1037630Y635570D02*
Y620330D01*
G01Y528890D02*
Y513650D01*
G01X1033820Y635570D02*
Y620330D01*
G01Y528890D02*
Y513650D01*
G01X1030010Y635570D02*
Y620330D01*
G01Y528890D02*
Y513650D01*
G01X1026200Y635570D02*
Y620330D01*
G01Y528890D02*
Y513650D01*
G01X1022390Y635570D02*
Y620330D01*
G01Y528890D02*
Y513650D01*
G01X1018580Y635570D02*
Y620330D01*
G01Y528890D02*
Y513650D01*
G01X1014770Y635570D02*
Y620330D01*
G01Y528890D02*
Y513650D01*
G01X1010960Y635570D02*
Y620330D01*
G01Y528890D02*
Y513650D01*
G01X1007150Y635570D02*
Y620330D01*
G01Y528890D02*
Y513650D01*
G01X1003340Y635570D02*
Y620330D01*
G01Y528890D02*
Y513650D01*
G01X999530Y635570D02*
Y620330D01*
G01Y528890D02*
Y513650D01*
G01X995720Y635570D02*
Y620330D01*
G01Y528890D02*
Y513650D01*
G01X991910Y635570D02*
Y620330D01*
G01Y528890D02*
Y513650D01*
G01X988100Y635570D02*
Y513650D01*
G01X984290Y635570D02*
Y620330D01*
G01Y528890D02*
Y513650D01*
G01X980480Y635570D02*
Y620330D01*
G01Y528890D02*
Y513650D01*
G01X976670Y635570D02*
Y620330D01*
G01Y528890D02*
Y513650D01*
G01X972860Y635570D02*
Y620330D01*
G01Y528890D02*
Y517460D01*
G01X969050Y635570D02*
Y627950D01*
G01X1110020Y818450D02*
Y799400D01*
G01Y749870D02*
Y734630D01*
G01X1106210Y818450D02*
Y803210D01*
G01Y746060D02*
Y730820D01*
G01X1102400Y818450D02*
Y803210D01*
G01Y742250D02*
Y727010D01*
G01X1098590Y818450D02*
Y803210D01*
G01Y742250D02*
Y727010D01*
G01X1094780Y818450D02*
Y803210D01*
G01Y742250D02*
Y730820D01*
G01Y700340D02*
Y692720D01*
G01X1090970Y1115630D02*
Y1108010D01*
G01Y986090D02*
Y951800D01*
G01Y921320D02*
Y917510D01*
G01Y818450D02*
Y803210D01*
G01Y738440D02*
Y734630D01*
G01Y704150D02*
Y688910D01*
G01X1087160Y1115630D02*
Y1108010D01*
G01Y1001330D02*
Y940370D01*
G01Y925130D02*
Y917510D01*
G01Y818450D02*
Y803210D01*
G01Y780350D02*
Y685100D01*
G01X1083350Y1119440D02*
Y1108010D01*
G01Y1008950D02*
Y978470D01*
G01Y955610D02*
Y917510D01*
G01Y818450D02*
Y803210D01*
G01Y791780D02*
Y784160D01*
G01X1079540Y1119440D02*
Y1104200D01*
G01Y1012760D02*
Y986090D01*
G01Y944180D02*
Y917510D01*
G01Y818450D02*
Y803210D01*
G01Y795590D02*
Y780350D01*
G01Y768920D02*
Y761300D01*
G01Y719390D02*
Y711770D01*
G01X1075730Y1123250D02*
Y1104200D01*
G01Y1016570D02*
Y989900D01*
G01Y940370D02*
Y917510D01*
G01Y845120D02*
Y776540D01*
G01Y765110D02*
Y753680D01*
G01Y723200D02*
Y704150D01*
G01X1071920Y1123250D02*
Y1100390D01*
G01Y1020380D02*
Y993710D01*
G01Y936560D02*
Y917510D01*
G01Y818450D02*
Y803210D01*
G01Y761300D02*
Y749870D01*
G01Y723200D02*
Y707960D01*
G01X1068110Y1123250D02*
Y1100390D01*
G01Y1024190D02*
Y997520D01*
G01Y932750D02*
Y917510D01*
G01Y818450D02*
Y803210D01*
G01Y761300D02*
Y746060D01*
G01Y727010D02*
Y711770D01*
G01X1064300Y1127060D02*
Y1096580D01*
G01Y1028000D02*
Y1001330D01*
G01Y928940D02*
Y917510D01*
G01Y818450D02*
Y803210D01*
G01Y757490D02*
Y742250D01*
G01Y727010D02*
Y715580D01*
G01X1060490Y1127060D02*
Y1096580D01*
G01Y1031810D02*
Y1001330D01*
G01Y925130D02*
Y917510D01*
G01Y818450D02*
Y803210D01*
G01Y757490D02*
Y742250D01*
G01Y727010D02*
Y715580D01*
G01X1056680Y1130870D02*
Y1096580D01*
G01Y1031810D02*
Y1001330D01*
G01Y925130D02*
Y917510D01*
G01Y818450D02*
Y807020D01*
G01Y757490D02*
Y746060D01*
G01Y730820D02*
Y719390D01*
G01Y696530D02*
Y685100D01*
G01X1052870Y1130870D02*
Y1092770D01*
G01Y1035620D02*
Y1005140D01*
G01Y921320D02*
Y917510D01*
G01Y818450D02*
Y807020D01*
G01Y753680D02*
Y749870D01*
G01Y730820D02*
Y723200D01*
G01Y700340D02*
Y681290D01*
G01X1049060Y1134680D02*
Y1127060D01*
G01Y1123250D02*
Y1092770D01*
G01Y1035620D02*
Y1005140D01*
G01Y818450D02*
Y807020D01*
G01Y791780D02*
Y677480D01*
G01X1045250Y1134680D02*
Y1127060D01*
G01Y1119440D02*
Y1088960D01*
G01Y1035620D02*
Y1005140D01*
G01Y818450D02*
Y807020D01*
G01Y749870D02*
Y742250D01*
G01X1041440Y1138490D02*
Y1130870D01*
G01Y1119440D02*
Y1088960D01*
G01Y1039430D02*
Y1005140D01*
G01Y818450D02*
Y807020D01*
G01Y791780D02*
Y784160D01*
G01Y749870D02*
Y734630D01*
G01X1037630Y1138490D02*
Y1130870D01*
G01Y1119440D02*
Y1088960D01*
G01Y1039430D02*
Y1005140D01*
G01Y818450D02*
Y791780D01*
G01Y753680D02*
Y734630D01*
G01X1033820Y1138490D02*
Y1130870D01*
G01Y1115630D02*
Y1085150D01*
G01Y1039430D02*
Y1005140D01*
G01Y818450D02*
Y799400D01*
G01Y753680D02*
Y738440D01*
G01X1030010Y1142300D02*
Y1134680D01*
G01Y1115630D02*
Y1085150D01*
G01Y1039430D02*
Y1005140D01*
G01Y822260D02*
Y803210D01*
G01Y753680D02*
Y738440D01*
G01X1026200Y1142300D02*
Y1134680D01*
G01Y1111820D02*
Y1081340D01*
G01Y1039430D02*
Y1005140D01*
G01Y833690D02*
Y803210D01*
G01Y757490D02*
Y742250D01*
G01X1022390Y1146110D02*
Y1138490D01*
G01Y1111820D02*
Y1081340D01*
G01Y1039430D02*
Y1005140D01*
G01Y845120D02*
Y822260D01*
G01Y818450D02*
Y803210D01*
G01Y757490D02*
Y746060D01*
G01Y692720D02*
Y685100D01*
G01X1018580Y1146110D02*
Y1138490D01*
G01Y1108010D02*
Y1077530D01*
G01Y1039430D02*
Y1005140D01*
G01Y848930D02*
Y826070D01*
G01Y818450D02*
Y803210D01*
G01Y761300D02*
Y746060D01*
G01Y696530D02*
Y681290D01*
G01X1014770Y1149920D02*
Y1142300D01*
G01Y1108010D02*
Y1077530D01*
G01Y1039430D02*
Y1005140D01*
G01Y963230D02*
Y906080D01*
G01Y845120D02*
Y829880D01*
G01Y818450D02*
Y803210D01*
G01Y799400D02*
Y673670D01*
G01X1010960Y1149920D02*
Y1142300D01*
G01Y1108010D02*
Y1077530D01*
G01Y1039430D02*
Y1005140D01*
G01Y955610D02*
Y913700D01*
G01Y837500D02*
Y833690D01*
G01Y818450D02*
Y803210D01*
G01Y765110D02*
Y749870D01*
G01Y719390D02*
Y704150D01*
G01X1007150Y1149920D02*
Y1073720D01*
G01Y1035620D02*
Y1005140D01*
G01Y951800D02*
Y917510D01*
G01Y818450D02*
Y803210D01*
G01Y765110D02*
Y753680D01*
G01Y723200D02*
Y707960D01*
G01X1003340Y1153730D02*
Y1073720D01*
G01Y1035620D02*
Y1005140D01*
G01Y947990D02*
Y917510D01*
G01Y818450D02*
Y803210D01*
G01Y768920D02*
Y753680D01*
G01Y723200D02*
Y707960D01*
G01X999530Y1153730D02*
Y1146110D01*
G01Y1100390D02*
Y1069910D01*
G01Y1031810D02*
Y1005140D01*
G01Y947990D02*
Y917510D01*
G01Y818450D02*
Y803210D01*
G01Y768920D02*
Y757490D01*
G01Y727010D02*
Y711770D01*
G01X995720Y1157540D02*
Y1149920D01*
G01Y1100390D02*
Y1069910D01*
G01Y1031810D02*
Y1001330D01*
G01Y947990D02*
Y917510D01*
G01Y818450D02*
Y803210D01*
G01Y772730D02*
Y757490D01*
G01Y727010D02*
Y711770D01*
G01X991910Y1157540D02*
Y1149920D01*
G01Y1100390D02*
Y1066100D01*
G01Y1028000D02*
Y1001330D01*
G01Y947990D02*
Y917510D01*
G01Y818450D02*
Y803210D01*
G01Y776540D02*
Y761300D01*
G01Y730820D02*
Y715580D01*
G01X988100Y1161350D02*
Y1153730D01*
G01Y1096580D02*
Y1066100D01*
G01Y1028000D02*
Y997520D01*
G01Y947990D02*
Y917510D01*
G01Y818450D02*
Y803210D01*
G01Y772730D02*
Y753680D01*
G01Y730820D02*
Y715580D01*
G01X984290Y1161350D02*
Y1153730D01*
G01Y1096580D02*
Y1062290D01*
G01Y1024190D02*
Y997520D01*
G01Y947990D02*
Y917510D01*
G01Y818450D02*
Y803210D01*
G01Y757490D02*
Y738440D01*
G01Y734630D02*
Y719390D01*
G01X980480Y1165160D02*
Y1153730D01*
G01Y1092770D02*
Y1062290D01*
G01Y1020380D02*
Y993710D01*
G01Y947990D02*
Y917510D01*
G01Y818450D02*
Y803210D01*
G01Y746060D02*
Y719390D01*
G01X976670Y1168970D02*
Y1153730D01*
G01Y1092770D02*
Y1058480D01*
G01Y1012760D02*
Y989900D01*
G01Y947990D02*
Y917510D01*
G01Y818450D02*
Y803210D01*
G01Y742250D02*
Y711770D01*
G01X972860Y1172780D02*
Y1149920D01*
G01Y1096580D02*
Y1054670D01*
G01Y1008950D02*
Y982280D01*
G01Y955610D02*
Y921320D01*
G01Y818450D02*
Y803210D01*
G01Y746060D02*
Y730820D01*
G01Y723200D02*
Y700340D01*
G01X969050Y1180400D02*
Y1138490D01*
G01Y1108010D02*
Y1047050D01*
G01Y1001330D02*
Y932750D01*
G01Y818450D02*
Y803210D01*
G01Y753680D02*
Y734630D01*
G01Y719390D02*
Y696530D01*
G01X965240Y989900D02*
Y947990D01*
G01Y841310D02*
Y826070D01*
G01Y822260D02*
Y803210D01*
G01Y757490D02*
Y742250D01*
G01Y711770D02*
Y688910D01*
G01X961430Y833690D02*
Y807020D01*
G01Y765110D02*
Y746060D01*
G01Y707960D02*
Y685100D01*
G01X957620Y826070D02*
Y807020D01*
G01Y776540D02*
Y757490D01*
G01Y700340D02*
Y685100D01*
G01X953810Y822260D02*
Y814640D01*
G01Y787970D02*
Y765110D01*
G01Y696530D02*
Y685100D01*
G01X950000Y822260D02*
Y818450D01*
G01Y803210D02*
Y787970D01*
G01Y692720D02*
Y685100D01*
G01X1110020Y1530920D02*
Y1511870D01*
G01Y1496630D02*
Y1485200D01*
G01X1106210Y1649030D02*
Y1641410D01*
G01Y1599500D02*
Y1591880D01*
G01Y1534730D02*
Y1515680D01*
G01Y1496630D02*
Y1481390D01*
G01X1102400Y1652840D02*
Y1637600D01*
G01Y1599500D02*
Y1588070D01*
G01Y1534730D02*
Y1519490D01*
G01Y1492820D02*
Y1477580D01*
G01X1098590Y1717610D02*
Y1633790D01*
G01Y1595690D02*
Y1580450D01*
G01Y1534730D02*
Y1519490D01*
G01Y1492820D02*
Y1477580D01*
G01X1094780Y1595690D02*
Y1576640D01*
G01Y1553780D02*
Y1549970D01*
G01Y1538540D02*
Y1523300D01*
G01Y1492820D02*
Y1477580D01*
G01X1090970Y1591880D02*
Y1572830D01*
G01Y1557590D02*
Y1549970D01*
G01Y1538540D02*
Y1523300D01*
G01Y1489010D02*
Y1477580D01*
G01Y1454720D02*
Y1450910D01*
G01X1087160Y1591880D02*
Y1572830D01*
G01Y1557590D02*
Y1549970D01*
G01Y1538540D02*
Y1527110D01*
G01Y1458530D02*
Y1447100D01*
G01Y1359470D02*
Y1290890D01*
G01Y1283270D02*
Y1172780D01*
G01X1083350Y1588070D02*
Y1572830D01*
G01Y1557590D02*
Y1553780D01*
G01Y1542350D02*
Y1527110D01*
G01Y1462340D02*
Y1443290D01*
G01Y1344230D02*
Y1302320D01*
G01Y1283270D02*
Y1172780D01*
G01X1079540Y1588070D02*
Y1576640D01*
G01Y1561400D02*
Y1553780D01*
G01Y1542350D02*
Y1439480D01*
G01Y1340420D02*
Y1306130D01*
G01Y1283270D02*
Y1264220D01*
G01Y1241360D02*
Y1214690D01*
G01Y1191830D02*
Y1172780D01*
G01X1075730Y1588070D02*
Y1576640D01*
G01Y1561400D02*
Y1553780D01*
G01Y1546160D02*
Y1527110D01*
G01Y1496630D02*
Y1481390D01*
G01Y1340420D02*
Y1309940D01*
G01Y1283270D02*
Y1271840D01*
G01Y1241360D02*
Y1214690D01*
G01Y1184210D02*
Y1172780D01*
G01X1071920Y1565210D02*
Y1557590D01*
G01Y1546160D02*
Y1527110D01*
G01Y1496630D02*
Y1481390D01*
G01Y1340420D02*
Y1309940D01*
G01Y1283270D02*
Y1275650D01*
G01Y1241360D02*
Y1214690D01*
G01Y1180400D02*
Y1172780D01*
G01X1068110Y1565210D02*
Y1557590D01*
G01Y1549970D02*
Y1527110D01*
G01Y1496630D02*
Y1481390D01*
G01Y1340420D02*
Y1309940D01*
G01Y1283270D02*
Y1275650D01*
G01Y1241360D02*
Y1214690D01*
G01Y1180400D02*
Y1172780D01*
G01X1064300Y1565210D02*
Y1557590D01*
G01Y1549970D02*
Y1527110D01*
G01Y1496630D02*
Y1481390D01*
G01Y1340420D02*
Y1309940D01*
G01Y1283270D02*
Y1279460D01*
G01Y1241360D02*
Y1214690D01*
G01Y1176590D02*
Y1172780D01*
G01X1060490Y1637600D02*
Y1629980D01*
G01Y1569020D02*
Y1561400D01*
G01Y1553780D02*
Y1542350D01*
G01Y1538540D02*
Y1527110D01*
G01Y1496630D02*
Y1481390D01*
G01Y1340420D02*
Y1309940D01*
G01Y1283270D02*
Y1279460D01*
G01Y1241360D02*
Y1214690D01*
G01Y1176590D02*
Y1172780D01*
G01X1056680Y1645220D02*
Y1626170D01*
G01Y1569020D02*
Y1561400D01*
G01Y1553780D02*
Y1546160D01*
G01Y1538540D02*
Y1527110D01*
G01Y1496630D02*
Y1481390D01*
G01Y1340420D02*
Y1309940D01*
G01Y1283270D02*
Y1279460D01*
G01Y1241360D02*
Y1214690D01*
G01Y1176590D02*
Y1172780D01*
G01X1052870Y1729040D02*
Y1618550D01*
G01Y1572830D02*
Y1561400D01*
G01Y1557590D02*
Y1546160D01*
G01Y1538540D02*
Y1527110D01*
G01Y1496630D02*
Y1481390D01*
G01Y1462340D02*
Y1454720D01*
G01Y1340420D02*
Y1309940D01*
G01Y1241360D02*
Y1214690D01*
G01X1049060Y1683320D02*
Y1668080D01*
G01Y1572830D02*
Y1565210D01*
G01Y1557590D02*
Y1549970D01*
G01Y1538540D02*
Y1527110D01*
G01Y1496630D02*
Y1481390D01*
G01Y1469960D02*
Y1450910D01*
G01Y1340420D02*
Y1309940D01*
G01Y1241360D02*
Y1214690D01*
G01X1045250Y1683320D02*
Y1668080D01*
G01Y1576640D02*
Y1565210D01*
G01Y1561400D02*
Y1549970D01*
G01Y1538540D02*
Y1443290D01*
G01Y1340420D02*
Y1309940D01*
G01Y1241360D02*
Y1214690D01*
G01X1041440Y1683320D02*
Y1668080D01*
G01Y1576640D02*
Y1565210D01*
G01Y1561400D02*
Y1553780D01*
G01Y1538540D02*
Y1527110D01*
G01Y1496630D02*
Y1481390D01*
G01Y1340420D02*
Y1309940D01*
G01Y1241360D02*
Y1214690D01*
G01X1037630Y1683320D02*
Y1668080D01*
G01Y1580450D02*
Y1569020D01*
G01Y1565210D02*
Y1557590D01*
G01Y1538540D02*
Y1527110D01*
G01Y1496630D02*
Y1481390D01*
G01Y1340420D02*
Y1309940D01*
G01Y1241360D02*
Y1214690D01*
G01X1033820Y1683320D02*
Y1668080D01*
G01Y1580450D02*
Y1561400D01*
G01Y1538540D02*
Y1527110D01*
G01Y1496630D02*
Y1481390D01*
G01Y1340420D02*
Y1309940D01*
G01Y1241360D02*
Y1214690D01*
G01X1030010Y1683320D02*
Y1668080D01*
G01Y1584260D02*
Y1569020D01*
G01Y1538540D02*
Y1527110D01*
G01Y1496630D02*
Y1481390D01*
G01Y1340420D02*
Y1309940D01*
G01Y1241360D02*
Y1214690D01*
G01X1026200Y1683320D02*
Y1668080D01*
G01Y1664270D02*
Y1656650D01*
G01Y1584260D02*
Y1572830D01*
G01Y1538540D02*
Y1527110D01*
G01Y1496630D02*
Y1481390D01*
G01Y1340420D02*
Y1309940D01*
G01Y1241360D02*
Y1214690D01*
G01X1022390Y1683320D02*
Y1668080D01*
G01Y1660460D02*
Y1652840D01*
G01Y1588070D02*
Y1572830D01*
G01Y1538540D02*
Y1527110D01*
G01Y1496630D02*
Y1481390D01*
G01Y1340420D02*
Y1309940D01*
G01Y1241360D02*
Y1214690D01*
G01X1018580Y1683320D02*
Y1668080D01*
G01Y1656650D02*
Y1649030D01*
G01Y1607120D02*
Y1572830D01*
G01Y1538540D02*
Y1527110D01*
G01Y1496630D02*
Y1481390D01*
G01Y1340420D02*
Y1309940D01*
G01Y1241360D02*
Y1214690D01*
G01X1014770Y1683320D02*
Y1668080D01*
G01Y1656650D02*
Y1645220D01*
G01Y1599500D02*
Y1576640D01*
G01Y1538540D02*
Y1527110D01*
G01Y1496630D02*
Y1481390D01*
G01Y1462340D02*
Y1450910D01*
G01Y1340420D02*
Y1309940D01*
G01Y1241360D02*
Y1214690D01*
G01X1010960Y1683320D02*
Y1668080D01*
G01Y1652840D02*
Y1641410D01*
G01Y1595690D02*
Y1576640D01*
G01Y1538540D02*
Y1527110D01*
G01Y1496630D02*
Y1481390D01*
G01Y1466150D02*
Y1447100D01*
G01Y1340420D02*
Y1309940D01*
G01Y1241360D02*
Y1214690D01*
G01X1007150Y1683320D02*
Y1668080D01*
G01Y1652840D02*
Y1637600D01*
G01Y1591880D02*
Y1576640D01*
G01Y1538540D02*
Y1443290D01*
G01Y1340420D02*
Y1309940D01*
G01Y1241360D02*
Y1214690D01*
G01X1003340Y1683320D02*
Y1668080D01*
G01Y1649030D02*
Y1633790D01*
G01Y1591880D02*
Y1576640D01*
G01Y1538540D02*
Y1527110D01*
G01Y1496630D02*
Y1481390D01*
G01Y1374710D02*
Y1363280D01*
G01Y1340420D02*
Y1309940D01*
G01Y1241360D02*
Y1214690D01*
G01X999530Y1683320D02*
Y1668080D01*
G01Y1649030D02*
Y1629980D01*
G01Y1591880D02*
Y1576640D01*
G01Y1538540D02*
Y1527110D01*
G01Y1496630D02*
Y1481390D01*
G01Y1378520D02*
Y1359470D01*
G01Y1340420D02*
Y1309940D01*
G01Y1241360D02*
Y1214690D01*
G01X995720Y1683320D02*
Y1668080D01*
G01Y1645220D02*
Y1626170D01*
G01Y1591880D02*
Y1576640D01*
G01Y1538540D02*
Y1527110D01*
G01Y1496630D02*
Y1481390D01*
G01Y1378520D02*
Y1355660D01*
G01Y1340420D02*
Y1309940D01*
G01Y1241360D02*
Y1214690D01*
G01X991910Y1683320D02*
Y1668080D01*
G01Y1645220D02*
Y1626170D01*
G01Y1591880D02*
Y1576640D01*
G01Y1538540D02*
Y1527110D01*
G01Y1496630D02*
Y1481390D01*
G01Y1382330D02*
Y1355660D01*
G01Y1340420D02*
Y1309940D01*
G01Y1241360D02*
Y1214690D01*
G01X988100Y1683320D02*
Y1668080D01*
G01Y1641410D02*
Y1626170D01*
G01Y1591880D02*
Y1576640D01*
G01Y1538540D02*
Y1527110D01*
G01Y1496630D02*
Y1481390D01*
G01Y1382330D02*
Y1355660D01*
G01Y1340420D02*
Y1309940D01*
G01Y1241360D02*
Y1214690D01*
G01X984290Y1683320D02*
Y1668080D01*
G01Y1641410D02*
Y1626170D01*
G01Y1595690D02*
Y1576640D01*
G01Y1538540D02*
Y1527110D01*
G01Y1496630D02*
Y1481390D01*
G01Y1378520D02*
Y1359470D01*
G01Y1340420D02*
Y1309940D01*
G01Y1241360D02*
Y1214690D01*
G01X980480Y1683320D02*
Y1668080D01*
G01Y1641410D02*
Y1626170D01*
G01Y1595690D02*
Y1576640D01*
G01Y1538540D02*
Y1527110D01*
G01Y1496630D02*
Y1481390D01*
G01Y1378520D02*
Y1359470D01*
G01Y1340420D02*
Y1313750D01*
G01Y1245170D02*
Y1214690D01*
G01X976670Y1683320D02*
Y1668080D01*
G01Y1637600D02*
Y1629980D01*
G01Y1595690D02*
Y1576640D01*
G01Y1538540D02*
Y1527110D01*
G01Y1496630D02*
Y1481390D01*
G01Y1450910D02*
Y1447100D01*
G01Y1374710D02*
Y1359470D01*
G01Y1340420D02*
Y1313750D01*
G01Y1245170D02*
Y1210880D01*
G01X972860Y1683320D02*
Y1668080D01*
G01Y1595690D02*
Y1576640D01*
G01Y1538540D02*
Y1527110D01*
G01Y1496630D02*
Y1481390D01*
G01Y1454720D02*
Y1443290D01*
G01Y1370900D02*
Y1359470D01*
G01Y1344230D02*
Y1317560D01*
G01Y1248980D02*
Y1207070D01*
G01X969050Y1683320D02*
Y1668080D01*
G01Y1595690D02*
Y1576640D01*
G01Y1538540D02*
Y1527110D01*
G01Y1496630D02*
Y1481390D01*
G01Y1462340D02*
Y1439480D01*
G01Y1367090D02*
Y1325180D01*
G01Y1260410D02*
Y1195640D01*
G01X965240Y1687130D02*
Y1668080D01*
G01Y1591880D02*
Y1576640D01*
G01Y1538540D02*
Y1435670D01*
G01Y1359470D02*
Y1332800D01*
G01X961430Y1702370D02*
Y1671890D01*
G01Y1588070D02*
Y1580450D01*
G01Y1538540D02*
Y1527110D01*
G01X957620Y1694750D02*
Y1671890D01*
G01Y1538540D02*
Y1527110D01*
G01X953810Y1690940D02*
Y1675700D01*
G01Y1538540D02*
Y1527110D01*
G01X950000Y1538540D02*
Y1534730D01*
G01X1110020Y1763330D02*
Y1744280D01*
G01X1106210Y1763330D02*
Y1748090D01*
G01X1102400Y1763330D02*
Y1748090D01*
G01X1098590Y1763330D02*
Y1748090D01*
G01X1094780Y1763330D02*
Y1748090D01*
G01X1090970Y1763330D02*
Y1748090D01*
G01X1087160Y1763330D02*
Y1748090D01*
G01X1083350Y1763330D02*
Y1748090D01*
G01X1079540Y1763330D02*
Y1748090D01*
G01X1075730Y1763330D02*
Y1748090D01*
G01Y1736660D02*
Y1729040D01*
G01X1071920Y1763330D02*
Y1748090D01*
G01Y1740470D02*
Y1725230D01*
G01X1068110Y1790000D02*
Y1721420D01*
G01X1064300Y1763330D02*
Y1748090D01*
G01X1060490Y1763330D02*
Y1748090D01*
G01X1056680Y1763330D02*
Y1748090D01*
G01X1052870Y1767140D02*
Y1748090D01*
G01X1049060Y1767140D02*
Y1748090D01*
G01X1045250Y1767140D02*
Y1744280D01*
G01X1041440Y1770950D02*
Y1736660D01*
G01X1037630Y1770950D02*
Y1748090D01*
G01Y1744280D02*
Y1732850D01*
G01X1033820Y1770950D02*
Y1748090D01*
G01Y1744280D02*
Y1729040D01*
G01X1030010Y1774760D02*
Y1748090D01*
G01Y1740470D02*
Y1725230D01*
G01Y1709990D02*
Y1706180D01*
G01X1026200Y1774760D02*
Y1748090D01*
G01Y1740470D02*
Y1725230D01*
G01Y1709990D02*
Y1698560D01*
G01X1022390Y1774760D02*
Y1767140D01*
G01Y1763330D02*
Y1748090D01*
G01Y1740470D02*
Y1729040D01*
G01Y1713800D02*
Y1690940D01*
G01X1018580Y1778570D02*
Y1767140D01*
G01Y1763330D02*
Y1748090D01*
G01Y1736660D02*
Y1729040D01*
G01Y1713800D02*
Y1698560D01*
G01X1014770Y1778570D02*
Y1770950D01*
G01Y1763330D02*
Y1748090D01*
G01Y1717610D02*
Y1698560D01*
G01X1010960Y1782380D02*
Y1770950D01*
G01Y1763330D02*
Y1748090D01*
G01Y1717610D02*
Y1702370D01*
G01X1007150Y1782380D02*
Y1774760D01*
G01Y1763330D02*
Y1748090D01*
G01Y1717610D02*
Y1706180D01*
G01X1003340Y1786190D02*
Y1774760D01*
G01Y1763330D02*
Y1748090D01*
G01Y1721420D02*
Y1706180D01*
G01X999530Y1786190D02*
Y1778570D01*
G01Y1763330D02*
Y1748090D01*
G01Y1721420D02*
Y1709990D01*
G01X995720Y1790000D02*
Y1782380D01*
G01Y1763330D02*
Y1748090D01*
G01Y1725230D02*
Y1713800D01*
G01X991910Y1790000D02*
Y1786190D01*
G01Y1763330D02*
Y1748090D01*
G01Y1725230D02*
Y1713800D01*
G01X988100Y1790000D02*
Y1786190D01*
G01Y1763330D02*
Y1748090D01*
G01Y1729040D02*
Y1717610D01*
G01X984290Y1763330D02*
Y1748090D01*
G01Y1732850D02*
Y1721420D01*
G01X980480Y1763330D02*
Y1748090D01*
G01Y1732850D02*
Y1725230D01*
G01X976670Y1763330D02*
Y1748090D01*
G01Y1736660D02*
Y1729040D01*
G01X972860Y1763330D02*
Y1748090D01*
G01Y1740470D02*
Y1732850D01*
G01X969050Y1763330D02*
Y1748090D01*
G01Y1740470D02*
Y1736660D01*
G01X965240Y1763330D02*
Y1748090D01*
G01Y1709990D02*
Y1690940D01*
G01X961430Y1763330D02*
Y1748090D01*
G01X957620Y1763330D02*
Y1748090D01*
G01X953810Y1763330D02*
Y1748090D01*
G01X950000Y1763330D02*
Y1755710D01*
G01Y1687130D02*
Y1683320D01*
G01X1117640Y818450D02*
Y814640D01*
G01X1113830Y818450D02*
Y803210D01*
G01Y749870D02*
Y742250D01*
G01X1117640Y1530920D02*
Y1527110D01*
G01Y1500440D02*
Y1496630D01*
G01X1113830Y1530920D02*
Y1519490D01*
G01Y1500440D02*
Y1489010D01*
G01X1117640Y1763330D02*
Y1759520D01*
G01X1113830Y1763330D02*
Y1751900D01*
G01X2642360Y574410D02*
Y585840D01*
G01X2646170Y578220D02*
Y597270D01*
G01X2649980Y582030D02*
Y601080D01*
G01X2653790Y585840D02*
Y604890D01*
G01X2657600Y589650D02*
Y601080D01*
G01X2432360Y960010D02*
Y963820D01*
G01Y1024780D02*
Y1028590D01*
G01Y1112410D02*
Y1120030D01*
G01X2642360Y783960D02*
Y791580D01*
G01Y974460D02*
Y982080D01*
G01X2436170Y952390D02*
Y967630D01*
G01Y1024780D02*
Y1040020D01*
G01Y1112410D02*
Y1127650D01*
G01X2646170Y726810D02*
Y734430D01*
G01Y783960D02*
Y799200D01*
G01Y978270D02*
Y989700D01*
G01Y1123050D02*
Y1126860D01*
G01X2439980Y940960D02*
Y971440D01*
G01Y1024780D02*
Y1043830D01*
G01Y1112410D02*
Y1131460D01*
G01X2649980Y726810D02*
Y742050D01*
G01Y783960D02*
Y803010D01*
G01Y909690D02*
Y921120D01*
G01Y982080D02*
Y997320D01*
G01Y1115430D02*
Y1130670D01*
G01X2443790Y929530D02*
Y975250D01*
G01Y1024780D02*
Y1040020D01*
G01Y1108600D02*
Y1127650D01*
G01X2653790Y723000D02*
Y742050D01*
G01Y787770D02*
Y799200D01*
G01Y810630D02*
Y822060D01*
G01Y909690D02*
Y924930D01*
G01Y982080D02*
Y1001130D01*
G01Y1104000D02*
Y1134480D01*
G01Y1145910D02*
Y1153530D01*
G01X2447600Y914290D02*
Y952390D01*
G01Y1024780D02*
Y1040020D01*
G01Y1108600D02*
Y1123840D01*
G01X2657600Y654420D02*
Y665850D01*
G01Y723000D02*
Y738240D01*
G01Y787770D02*
Y799200D01*
G01Y814440D02*
Y833490D01*
G01Y905880D02*
Y921120D01*
G01Y985890D02*
Y1001130D01*
G01Y1092570D02*
Y1130670D01*
G01Y1145910D02*
Y1225920D01*
G01X2451410Y891430D02*
Y921910D01*
G01Y925720D02*
Y940960D01*
G01Y1024780D02*
Y1040020D01*
G01Y1108600D02*
Y1123840D01*
G01X2455220Y929530D02*
Y940960D01*
G01Y1024780D02*
Y1040020D01*
G01Y1104790D02*
Y1120030D01*
G01X2459030Y929530D02*
Y940960D01*
G01Y986680D02*
Y998110D01*
G01Y1024780D02*
Y1040020D01*
G01Y1104790D02*
Y1120030D01*
G01X2462840Y929530D02*
Y940960D01*
G01Y986680D02*
Y1005730D01*
G01Y1024780D02*
Y1040020D01*
G01Y1100980D02*
Y1116220D01*
G01X2466650Y929530D02*
Y940960D01*
G01Y986680D02*
Y1001920D01*
G01Y1024780D02*
Y1040020D01*
G01Y1100980D02*
Y1226710D01*
G01X2470460Y929530D02*
Y940960D01*
G01Y986680D02*
Y1001920D01*
G01Y1024780D02*
Y1040020D01*
G01Y1097170D02*
Y1112410D01*
G01X2474270Y929530D02*
Y940960D01*
G01Y986680D02*
Y1001920D01*
G01Y1024780D02*
Y1040020D01*
G01Y1097170D02*
Y1108600D01*
G01X2478080Y929530D02*
Y940960D01*
G01Y986680D02*
Y1001920D01*
G01Y1024780D02*
Y1040020D01*
G01Y1093360D02*
Y1108600D01*
G01X2481890Y929530D02*
Y940960D01*
G01Y963820D02*
Y975250D01*
G01Y986680D02*
Y1001920D01*
G01Y1024780D02*
Y1040020D01*
G01Y1093360D02*
Y1104790D01*
G01X2485700Y925720D02*
Y940960D01*
G01Y960010D02*
Y979060D01*
G01Y986680D02*
Y1001920D01*
G01Y1024780D02*
Y1040020D01*
G01Y1089550D02*
Y1100980D01*
G01X2489510Y880000D02*
Y982870D01*
G01Y990490D02*
Y1001920D01*
G01Y1024780D02*
Y1040020D01*
G01Y1085740D02*
Y1097170D01*
G01Y1146700D02*
Y1158130D01*
G01X2493320Y925720D02*
Y940960D01*
G01Y990490D02*
Y1001920D01*
G01Y1024780D02*
Y1040020D01*
G01Y1085740D02*
Y1093360D01*
G01Y1146700D02*
Y1165750D01*
G01X2497130Y925720D02*
Y940960D01*
G01Y990490D02*
Y1001920D01*
G01Y1024780D02*
Y1040020D01*
G01Y1081930D02*
Y1089550D01*
G01Y1146700D02*
Y1161940D01*
G01X2500940Y921910D02*
Y940960D01*
G01Y990490D02*
Y1001920D01*
G01Y1024780D02*
Y1040020D01*
G01Y1078120D02*
Y1085740D01*
G01Y1146700D02*
Y1158130D01*
G01X2504750Y921910D02*
Y940960D01*
G01Y990490D02*
Y1001920D01*
G01Y1024780D02*
Y1040020D01*
G01Y1078120D02*
Y1081930D01*
G01Y1146700D02*
Y1158130D01*
G01X2508560Y918100D02*
Y940960D01*
G01Y990490D02*
Y1001920D01*
G01Y1024780D02*
Y1040020D01*
G01Y1146700D02*
Y1158130D01*
G01X2512370Y918100D02*
Y952390D01*
G01Y990490D02*
Y1001920D01*
G01Y1024780D02*
Y1040020D01*
G01Y1112410D02*
Y1120030D01*
G01Y1146700D02*
Y1158130D01*
G01X2516180Y914290D02*
Y940960D01*
G01Y944770D02*
Y960010D01*
G01Y986680D02*
Y1001920D01*
G01Y1024780D02*
Y1040020D01*
G01Y1112410D02*
Y1127650D01*
G01Y1146700D02*
Y1158130D01*
G01X2519990Y914290D02*
Y925720D01*
G01Y929530D02*
Y940960D01*
G01Y948580D02*
Y967630D01*
G01Y986680D02*
Y1001920D01*
G01Y1024780D02*
Y1040020D01*
G01Y1108600D02*
Y1131460D01*
G01Y1146700D02*
Y1158130D01*
G01X2523800Y910480D02*
Y921910D01*
G01Y929530D02*
Y940960D01*
G01Y952390D02*
Y971440D01*
G01Y986680D02*
Y1001920D01*
G01Y1024780D02*
Y1040020D01*
G01Y1108600D02*
Y1127650D01*
G01Y1146700D02*
Y1158130D01*
G01X2527610Y910480D02*
Y921910D01*
G01Y929530D02*
Y940960D01*
G01Y956200D02*
Y975250D01*
G01Y986680D02*
Y1001920D01*
G01Y1024780D02*
Y1040020D01*
G01Y1104790D02*
Y1123840D01*
G01Y1146700D02*
Y1158130D01*
G01X2531420Y906670D02*
Y918100D01*
G01Y929530D02*
Y940960D01*
G01Y960010D02*
Y975250D01*
G01Y986680D02*
Y1001920D01*
G01Y1024780D02*
Y1040020D01*
G01Y1104790D02*
Y1120030D01*
G01Y1146700D02*
Y1158130D01*
G01X2535230Y902860D02*
Y914290D01*
G01Y929530D02*
Y940960D01*
G01Y960010D02*
Y975250D01*
G01Y986680D02*
Y1001920D01*
G01Y1024780D02*
Y1040020D01*
G01Y1100980D02*
Y1116220D01*
G01Y1146700D02*
Y1158130D01*
G01X2539040Y899050D02*
Y910480D01*
G01Y929530D02*
Y940960D01*
G01Y963820D02*
Y971440D01*
G01Y986680D02*
Y1001920D01*
G01Y1024780D02*
Y1040020D01*
G01Y1100980D02*
Y1116220D01*
G01Y1146700D02*
Y1158130D01*
G01X2542850Y899050D02*
Y910480D01*
G01Y929530D02*
Y940960D01*
G01Y986680D02*
Y1001920D01*
G01Y1024780D02*
Y1040020D01*
G01Y1097170D02*
Y1112410D01*
G01Y1146700D02*
Y1158130D01*
G01X2546660Y895240D02*
Y906670D01*
G01Y929530D02*
Y940960D01*
G01Y986680D02*
Y1001920D01*
G01Y1024780D02*
Y1040020D01*
G01Y1093360D02*
Y1108600D01*
G01Y1146700D02*
Y1158130D01*
G01X2550470Y891430D02*
Y902860D01*
G01Y929530D02*
Y940960D01*
G01Y986680D02*
Y1001920D01*
G01Y1024780D02*
Y1040020D01*
G01Y1093360D02*
Y1104790D01*
G01Y1146700D02*
Y1158130D01*
G01X2554280Y887620D02*
Y899050D01*
G01Y929530D02*
Y940960D01*
G01Y1024780D02*
Y1040020D01*
G01Y1089550D02*
Y1104790D01*
G01Y1146700D02*
Y1158130D01*
G01X2558090Y883810D02*
Y891430D01*
G01Y929530D02*
Y940960D01*
G01Y1024780D02*
Y1040020D01*
G01Y1085740D02*
Y1100980D01*
G01Y1146700D02*
Y1158130D01*
G01X2561900Y880000D02*
Y887620D01*
G01Y929530D02*
Y940960D01*
G01Y1024780D02*
Y1040020D01*
G01Y1085740D02*
Y1097170D01*
G01Y1146700D02*
Y1158130D01*
G01X2565710Y880000D02*
Y883810D01*
G01Y929530D02*
Y940960D01*
G01Y1024780D02*
Y1040020D01*
G01Y1081930D02*
Y1093360D01*
G01Y1146700D02*
Y1158130D01*
G01X2569520Y929530D02*
Y940960D01*
G01Y1024780D02*
Y1040020D01*
G01Y1078120D02*
Y1089550D01*
G01Y1146700D02*
Y1158130D01*
G01X2573330Y929530D02*
Y940960D01*
G01Y1024780D02*
Y1040020D01*
G01Y1074310D02*
Y1085740D01*
G01Y1146700D02*
Y1158130D01*
G01X2577140Y929530D02*
Y940960D01*
G01Y1024780D02*
Y1040020D01*
G01Y1070500D02*
Y1081930D01*
G01Y1146700D02*
Y1158130D01*
G01X2580950Y929530D02*
Y940960D01*
G01Y994300D02*
Y1040020D01*
G01Y1070500D02*
Y1074310D01*
G01Y1146700D02*
Y1158130D01*
G01X2584760Y929530D02*
Y940960D01*
G01Y1005730D02*
Y1036210D01*
G01Y1066690D02*
Y1070500D01*
G01Y1116220D02*
Y1158130D01*
G01X2588570Y925720D02*
Y940960D01*
G01Y1013350D02*
Y1036210D01*
G01Y1127650D02*
Y1158130D01*
G01X2592380Y925720D02*
Y940960D01*
G01Y1017160D02*
Y1032400D01*
G01Y1135270D02*
Y1154320D01*
G01X2596190Y925720D02*
Y933340D01*
G01Y1017160D02*
Y1024780D01*
G01Y1139080D02*
Y1150510D01*
G01X2600000Y1139080D02*
Y1142890D01*
G01X2432360Y1348630D02*
Y1352440D01*
G01X2642360Y1507860D02*
Y1511670D01*
G01X2436170Y1268620D02*
Y1280050D01*
G01Y1348630D02*
Y1363870D01*
G01X2646170Y1507860D02*
Y1519290D01*
G01Y1645020D02*
Y1648830D01*
G01X2439980Y1272430D02*
Y1287670D01*
G01Y1348630D02*
Y1367680D01*
G01X2649980Y1214490D02*
Y1218300D01*
G01Y1317360D02*
Y1321170D01*
G01Y1389750D02*
Y1393560D01*
G01Y1507860D02*
Y1523100D01*
G01Y1645020D02*
Y1656450D01*
G01X2443790Y1276240D02*
Y1291480D01*
G01Y1348630D02*
Y1363870D01*
G01X2653790Y1210680D02*
Y1222110D01*
G01Y1275450D02*
Y1283070D01*
G01Y1313550D02*
Y1328790D01*
G01Y1347840D02*
Y1355460D01*
G01Y1385940D02*
Y1397370D01*
G01Y1507860D02*
Y1519290D01*
G01Y1645020D02*
Y1778370D01*
G01X2447600Y1276240D02*
Y1295290D01*
G01Y1348630D02*
Y1363870D01*
G01X2657600Y1275450D02*
Y1332600D01*
G01Y1347840D02*
Y1401180D01*
G01Y1504050D02*
Y1519290D01*
G01Y1645020D02*
Y1660260D01*
G01X2451410Y1280050D02*
Y1295290D01*
G01Y1348630D02*
Y1363870D01*
G01X2455220Y1280050D02*
Y1295290D01*
G01Y1348630D02*
Y1360060D01*
G01X2459030Y1207660D02*
Y1219090D01*
G01Y1283860D02*
Y1295290D01*
G01Y1348630D02*
Y1360060D01*
G01X2462840Y1203850D02*
Y1222900D01*
G01Y1283860D02*
Y1291480D01*
G01Y1348630D02*
Y1360060D01*
G01Y1535320D02*
Y1546750D01*
G01Y1600090D02*
Y1622950D01*
G01X2466650Y1348630D02*
Y1360060D01*
G01Y1531510D02*
Y1546750D01*
G01Y1588660D02*
Y1630570D01*
G01X2470460Y1203850D02*
Y1222900D01*
G01Y1348630D02*
Y1360060D01*
G01Y1527700D02*
Y1546750D01*
G01Y1584850D02*
Y1638190D01*
G01X2474270Y1200040D02*
Y1215280D01*
G01Y1348630D02*
Y1360060D01*
G01Y1398160D02*
Y1409590D01*
G01Y1527700D02*
Y1546750D01*
G01Y1581040D02*
Y1588660D01*
G01Y1607710D02*
Y1638190D01*
G01X2478080Y1200040D02*
Y1211470D01*
G01Y1344820D02*
Y1360060D01*
G01Y1394350D02*
Y1413400D01*
G01Y1523890D02*
Y1546750D01*
G01Y1577230D02*
Y1581040D01*
G01Y1611520D02*
Y1642000D01*
G01X2481890Y1196230D02*
Y1207660D01*
G01Y1299100D02*
Y1417210D01*
G01Y1520080D02*
Y1546750D01*
G01Y1573420D02*
Y1577230D01*
G01Y1615330D02*
Y1642000D01*
G01Y1672480D02*
Y1691530D01*
G01X2485700Y1192420D02*
Y1203850D01*
G01Y1344820D02*
Y1360060D01*
G01Y1516270D02*
Y1546750D01*
G01Y1615330D02*
Y1642000D01*
G01Y1672480D02*
Y1691530D01*
G01X2489510Y1192420D02*
Y1200040D01*
G01Y1280050D02*
Y1287670D01*
G01Y1344820D02*
Y1360060D01*
G01Y1512460D02*
Y1546750D01*
G01Y1615330D02*
Y1642000D01*
G01Y1668670D02*
Y1691530D01*
G01X2493320Y1192420D02*
Y1196230D01*
G01Y1276240D02*
Y1291480D01*
G01Y1344820D02*
Y1360060D01*
G01Y1512460D02*
Y1546750D01*
G01Y1615330D02*
Y1638190D01*
G01Y1668670D02*
Y1691530D01*
G01X2497130Y1249570D02*
Y1295290D01*
G01Y1344820D02*
Y1360060D01*
G01Y1508650D02*
Y1516270D01*
G01Y1523890D02*
Y1546750D01*
G01Y1615330D02*
Y1634380D01*
G01Y1668670D02*
Y1691530D01*
G01X2500940Y1276240D02*
Y1291480D01*
G01Y1344820D02*
Y1356250D01*
G01Y1504840D02*
Y1512460D01*
G01Y1523890D02*
Y1546750D01*
G01Y1615330D02*
Y1630570D01*
G01Y1668670D02*
Y1691530D01*
G01X2504750Y1276240D02*
Y1287670D01*
G01Y1341010D02*
Y1356250D01*
G01Y1501030D02*
Y1512460D01*
G01Y1523890D02*
Y1546750D01*
G01Y1611520D02*
Y1626760D01*
G01Y1664860D02*
Y1691530D01*
G01X2508560Y1276240D02*
Y1287670D01*
G01Y1341010D02*
Y1356250D01*
G01Y1501030D02*
Y1508650D01*
G01Y1523890D02*
Y1546750D01*
G01Y1607710D02*
Y1634380D01*
G01Y1664860D02*
Y1691530D01*
G01X2512370Y1173370D02*
Y1177180D01*
G01Y1276240D02*
Y1287670D01*
G01Y1341010D02*
Y1360060D01*
G01Y1497220D02*
Y1504840D01*
G01Y1523890D02*
Y1546750D01*
G01Y1600090D02*
Y1638190D01*
G01Y1664860D02*
Y1691530D01*
G01X2516180Y1173370D02*
Y1180990D01*
G01Y1276240D02*
Y1287670D01*
G01Y1337200D02*
Y1352440D01*
G01Y1356250D02*
Y1363870D01*
G01Y1493410D02*
Y1501030D01*
G01Y1523890D02*
Y1546750D01*
G01Y1592470D02*
Y1642000D01*
G01Y1664860D02*
Y1691530D01*
G01X2519990Y1177180D02*
Y1184800D01*
G01Y1276240D02*
Y1287670D01*
G01Y1337200D02*
Y1352440D01*
G01Y1360060D02*
Y1371490D01*
G01Y1489600D02*
Y1501030D01*
G01Y1523890D02*
Y1546750D01*
G01Y1600090D02*
Y1645810D01*
G01Y1664860D02*
Y1691530D01*
G01X2523800Y1180990D02*
Y1192420D01*
G01Y1276240D02*
Y1287670D01*
G01Y1333390D02*
Y1348630D01*
G01Y1363870D02*
Y1379110D01*
G01Y1485790D02*
Y1497220D01*
G01Y1523890D02*
Y1546750D01*
G01Y1607710D02*
Y1645810D01*
G01Y1664860D02*
Y1691530D01*
G01X2527610Y1184800D02*
Y1196230D01*
G01Y1276240D02*
Y1287670D01*
G01Y1333390D02*
Y1344820D01*
G01Y1367680D02*
Y1382920D01*
G01Y1485790D02*
Y1493410D01*
G01Y1523890D02*
Y1546750D01*
G01Y1615330D02*
Y1645810D01*
G01Y1664860D02*
Y1691530D01*
G01X2531420Y1188610D02*
Y1200040D01*
G01Y1276240D02*
Y1287670D01*
G01Y1329580D02*
Y1344820D01*
G01Y1371490D02*
Y1390540D01*
G01Y1481980D02*
Y1489600D01*
G01Y1523890D02*
Y1546750D01*
G01Y1619140D02*
Y1649620D01*
G01Y1664860D02*
Y1691530D01*
G01X2535230Y1188610D02*
Y1203850D01*
G01Y1276240D02*
Y1287670D01*
G01Y1329580D02*
Y1341010D01*
G01Y1375300D02*
Y1394350D01*
G01Y1478170D02*
Y1485790D01*
G01Y1523890D02*
Y1546750D01*
G01Y1622950D02*
Y1649620D01*
G01Y1664860D02*
Y1691530D01*
G01X2539040Y1192420D02*
Y1207660D01*
G01Y1276240D02*
Y1287670D01*
G01Y1325770D02*
Y1337200D01*
G01Y1379110D02*
Y1398160D01*
G01Y1478170D02*
Y1558180D01*
G01Y1622950D02*
Y1649620D01*
G01Y1664860D02*
Y1691530D01*
G01X2542850Y1196230D02*
Y1211470D01*
G01Y1276240D02*
Y1287670D01*
G01Y1321960D02*
Y1333390D01*
G01Y1382920D02*
Y1401970D01*
G01Y1478170D02*
Y1558180D01*
G01Y1626760D02*
Y1645810D01*
G01Y1668670D02*
Y1691530D01*
G01X2546660Y1196230D02*
Y1215280D01*
G01Y1276240D02*
Y1287670D01*
G01Y1318150D02*
Y1329580D01*
G01Y1386730D02*
Y1401970D01*
G01Y1478170D02*
Y1558180D01*
G01Y1626760D02*
Y1645810D01*
G01Y1668670D02*
Y1691530D01*
G01X2550470Y1200040D02*
Y1219090D01*
G01Y1276240D02*
Y1287670D01*
G01Y1314340D02*
Y1325770D01*
G01Y1386730D02*
Y1405780D01*
G01Y1478170D02*
Y1558180D01*
G01Y1626760D02*
Y1645810D01*
G01Y1668670D02*
Y1691530D01*
G01X2554280Y1200040D02*
Y1219090D01*
G01Y1276240D02*
Y1287670D01*
G01Y1310530D02*
Y1318150D01*
G01Y1390540D02*
Y1405780D01*
G01Y1478170D02*
Y1558180D01*
G01Y1626760D02*
Y1645810D01*
G01Y1668670D02*
Y1691530D01*
G01X2558090Y1203850D02*
Y1222900D01*
G01Y1276240D02*
Y1291480D01*
G01Y1302910D02*
Y1314340D01*
G01Y1390540D02*
Y1401970D01*
G01Y1523890D02*
Y1546750D01*
G01Y1573420D02*
Y1584850D01*
G01Y1626760D02*
Y1642000D01*
G01Y1672480D02*
Y1691530D01*
G01X2561900Y1203850D02*
Y1222900D01*
G01Y1272430D02*
Y1280050D01*
G01Y1283860D02*
Y1291480D01*
G01Y1299100D02*
Y1306720D01*
G01Y1394350D02*
Y1401970D01*
G01Y1523890D02*
Y1546750D01*
G01Y1569610D02*
Y1592470D01*
G01Y1626760D02*
Y1642000D01*
G01Y1672480D02*
Y1695340D01*
G01X2565710Y1207660D02*
Y1226710D01*
G01Y1264810D02*
Y1276240D01*
G01Y1287670D02*
Y1299100D01*
G01Y1523890D02*
Y1546750D01*
G01Y1569610D02*
Y1596280D01*
G01Y1622950D02*
Y1638190D01*
G01X2569520Y1207660D02*
Y1226710D01*
G01Y1261000D02*
Y1272430D01*
G01Y1291480D02*
Y1302910D01*
G01Y1523890D02*
Y1546750D01*
G01Y1569610D02*
Y1603900D01*
G01Y1619140D02*
Y1634380D01*
G01X2573330Y1211470D02*
Y1222900D01*
G01Y1257190D02*
Y1272430D01*
G01Y1291480D02*
Y1306720D01*
G01Y1523890D02*
Y1546750D01*
G01Y1569610D02*
Y1630570D01*
G01X2577140Y1211470D02*
Y1219090D01*
G01Y1249570D02*
Y1268620D01*
G01Y1299100D02*
Y1314340D01*
G01Y1523890D02*
Y1546750D01*
G01Y1573420D02*
Y1622950D01*
G01X2580950Y1253380D02*
Y1264810D01*
G01Y1302910D02*
Y1333390D01*
G01Y1409590D02*
Y1421020D01*
G01Y1523890D02*
Y1546750D01*
G01Y1581040D02*
Y1611520D01*
G01X2584760Y1257190D02*
Y1264810D01*
G01Y1310530D02*
Y1417210D01*
G01X2588570Y1318150D02*
Y1409590D01*
G01X2592380Y1348630D02*
Y1409590D01*
G01X2646170Y1763130D02*
Y1770750D01*
G01X2649980Y1763130D02*
Y1774560D01*
G01X2657600Y1702170D02*
Y1713600D01*
G01Y1759320D02*
Y1774560D01*
G01X2462840Y1695340D02*
Y1714390D01*
G01X2466650Y1687720D02*
Y1722010D01*
G01X2470460Y1680100D02*
Y1699150D01*
G01Y1710580D02*
Y1729630D01*
G01X2474270Y1676290D02*
Y1695340D01*
G01Y1714390D02*
Y1729630D01*
G01X2478080Y1676290D02*
Y1695340D01*
G01Y1714390D02*
Y1733440D01*
G01X2481890Y1714390D02*
Y1737250D01*
G01X2485700Y1718200D02*
Y1737250D01*
G01X2489510Y1718200D02*
Y1741060D01*
G01X2493320Y1718200D02*
Y1741060D01*
G01X2497130Y1718200D02*
Y1741060D01*
G01X2500940Y1718200D02*
Y1741060D01*
G01X2504750Y1718200D02*
Y1744870D01*
G01X2508560Y1718200D02*
Y1744870D01*
G01X2512370Y1718200D02*
Y1744870D01*
G01X2516180Y1718200D02*
Y1744870D01*
G01X2519990Y1718200D02*
Y1744870D01*
G01X2523800Y1718200D02*
Y1744870D01*
G01X2527610Y1718200D02*
Y1744870D01*
G01X2531420Y1718200D02*
Y1744870D01*
G01X2535230Y1718200D02*
Y1744870D01*
G01X2539040Y1718200D02*
Y1744870D01*
G01X2542850Y1718200D02*
Y1741060D01*
G01X2546660Y1718200D02*
Y1741060D01*
G01X2550470Y1718200D02*
Y1741060D01*
G01X2554280Y1718200D02*
Y1741060D01*
G01X2558090Y1718200D02*
Y1737250D01*
G01X2561900Y1714390D02*
Y1737250D01*
G01X2565710Y1676290D02*
Y1695340D01*
G01Y1714390D02*
Y1733440D01*
G01X2569520Y1680100D02*
Y1695340D01*
G01Y1714390D02*
Y1729630D01*
G01X2573330Y1680100D02*
Y1699150D01*
G01Y1710580D02*
Y1729630D01*
G01X2577140Y1687720D02*
Y1722010D01*
G01X2580950Y1695340D02*
Y1714390D01*
G01X2661410Y589650D02*
Y601080D01*
G01X2665220Y509640D02*
Y673470D01*
G01X2672840Y608700D02*
Y612510D01*
G01X2676650Y540120D02*
Y547740D01*
G01Y562980D02*
Y566790D01*
G01Y604890D02*
Y616320D01*
G01Y631560D02*
Y635370D01*
G01X2680460Y540120D02*
Y555360D01*
G01Y566790D02*
Y578220D01*
G01Y601080D02*
Y620130D01*
G01Y631560D02*
Y646800D01*
G01X2684270Y540120D02*
Y555360D01*
G01Y574410D02*
Y585840D01*
G01Y597270D02*
Y612510D01*
G01Y631560D02*
Y646800D01*
G01X2688080Y540120D02*
Y551550D01*
G01Y582030D02*
Y608700D01*
G01Y631560D02*
Y642990D01*
G01X2691890Y540120D02*
Y551550D01*
G01Y585840D02*
Y604890D01*
G01Y631560D02*
Y642990D01*
G01X2695700Y540120D02*
Y551550D01*
G01Y582030D02*
Y612510D01*
G01Y631560D02*
Y642990D01*
G01X2699510Y540120D02*
Y551550D01*
G01Y578220D02*
Y589650D01*
G01Y597270D02*
Y620130D01*
G01Y631560D02*
Y642990D01*
G01X2703320Y540120D02*
Y551550D01*
G01Y570600D02*
Y585840D01*
G01Y604890D02*
Y623940D01*
G01Y631560D02*
Y642990D01*
G01X2707130Y540120D02*
Y551550D01*
G01Y566790D02*
Y578220D01*
G01Y608700D02*
Y623940D01*
G01Y631560D02*
Y642990D01*
G01X2710940Y540120D02*
Y551550D01*
G01Y559170D02*
Y566790D01*
G01Y612510D02*
Y623940D01*
G01Y631560D02*
Y642990D01*
G01X2714750Y540120D02*
Y551550D01*
G01Y555360D02*
Y559170D01*
G01Y612510D02*
Y623940D01*
G01Y631560D02*
Y642990D01*
G01X2718560Y536310D02*
Y551550D01*
G01Y631560D02*
Y646800D01*
G01X2722370Y536310D02*
Y646800D01*
G01X2726180Y540120D02*
Y551550D01*
G01Y585840D02*
Y597270D01*
G01Y631560D02*
Y646800D01*
G01X2729990Y585840D02*
Y604890D01*
G01Y631560D02*
Y639180D01*
G01X2733800Y582030D02*
Y597270D01*
G01X2737610Y524880D02*
Y532500D01*
G01Y578220D02*
Y593460D01*
G01X2741420Y524880D02*
Y665850D01*
G01X2745230Y524880D02*
Y536310D01*
G01Y574410D02*
Y589650D01*
G01X2749040Y524880D02*
Y536310D01*
G01Y574410D02*
Y585840D01*
G01X2752850Y524880D02*
Y536310D01*
G01Y570600D02*
Y582030D01*
G01Y601080D02*
Y604890D01*
G01X2756660Y524880D02*
Y536310D01*
G01Y566790D02*
Y578220D01*
G01Y601080D02*
Y612510D01*
G01X2760470Y524880D02*
Y536310D01*
G01Y562980D02*
Y574410D01*
G01Y604890D02*
Y620130D01*
G01X2764280Y524880D02*
Y536310D01*
G01Y559170D02*
Y570600D01*
G01Y608700D02*
Y627750D01*
G01X2768090Y524880D02*
Y536310D01*
G01Y555360D02*
Y566790D01*
G01Y612510D02*
Y631560D01*
G01X2771900Y524880D02*
Y536310D01*
G01Y551550D02*
Y631560D01*
G01X2775710Y524880D02*
Y536310D01*
G01Y551550D02*
Y589650D01*
G01Y620130D02*
Y635370D01*
G01X2779520Y524880D02*
Y536310D01*
G01Y555360D02*
Y566790D01*
G01Y620130D02*
Y635370D01*
G01X2783330Y524880D02*
Y536310D01*
G01Y623940D02*
Y631560D01*
G01X2787140Y524880D02*
Y536310D01*
G01X2790950Y524880D02*
Y536310D01*
G01X2794760Y524880D02*
Y536310D01*
G01Y620130D02*
Y635370D01*
G01X2798570Y524880D02*
Y536310D01*
G01Y627750D02*
Y658230D01*
G01X2802380Y524880D02*
Y536310D01*
G01Y635370D02*
Y658230D01*
G01X2806190Y524880D02*
Y536310D01*
G01Y639180D02*
Y654420D01*
G01X2810000Y524880D02*
Y528690D01*
G01Y642990D02*
Y646800D01*
G01X2661410Y650610D02*
Y669660D01*
G01Y723000D02*
Y738240D01*
G01Y787770D02*
Y799200D01*
G01Y818250D02*
Y837300D01*
G01Y905880D02*
Y917310D01*
G01Y985890D02*
Y997320D01*
G01Y1023990D02*
Y1027800D01*
G01Y1077330D02*
Y1111620D01*
G01Y1145910D02*
Y1157340D01*
G01X2665220Y719190D02*
Y734430D01*
G01Y787770D02*
Y799200D01*
G01Y822060D02*
Y837300D01*
G01Y902070D02*
Y917310D01*
G01Y943980D02*
Y955410D01*
G01Y989700D02*
Y993510D01*
G01Y1020180D02*
Y1031610D01*
G01Y1065900D02*
Y1069710D01*
G01Y1096380D02*
Y1111620D01*
G01Y1145910D02*
Y1157340D01*
G01X2669030Y719190D02*
Y730620D01*
G01Y787770D02*
Y799200D01*
G01Y825870D02*
Y837300D01*
G01Y902070D02*
Y913500D01*
G01Y943980D02*
Y1035420D01*
G01Y1096380D02*
Y1111620D01*
G01Y1145910D02*
Y1157340D01*
G01X2672840Y715380D02*
Y730620D01*
G01Y787770D02*
Y799200D01*
G01Y825870D02*
Y837300D01*
G01Y898260D02*
Y913500D01*
G01Y943980D02*
Y959220D01*
G01Y1020180D02*
Y1035420D01*
G01Y1096380D02*
Y1111620D01*
G01Y1145910D02*
Y1157340D01*
G01X2676650Y715380D02*
Y726810D01*
G01Y749670D02*
Y757290D01*
G01Y787770D02*
Y799200D01*
G01Y829680D02*
Y833490D01*
G01Y898260D02*
Y909690D01*
G01Y943980D02*
Y959220D01*
G01Y1020180D02*
Y1031610D01*
G01Y1096380D02*
Y1111620D01*
G01Y1145910D02*
Y1157340D01*
G01X2680460Y711570D02*
Y726810D01*
G01Y745860D02*
Y764910D01*
G01Y787770D02*
Y799200D01*
G01Y837300D02*
Y844920D01*
G01Y894450D02*
Y905880D01*
G01Y928740D02*
Y932550D01*
G01Y943980D02*
Y959220D01*
G01Y1020180D02*
Y1031610D01*
G01Y1096380D02*
Y1111620D01*
G01Y1145910D02*
Y1157340D01*
G01X2684270Y711570D02*
Y723000D01*
G01Y745860D02*
Y764910D01*
G01Y787770D02*
Y799200D01*
G01Y833490D02*
Y848730D01*
G01Y894450D02*
Y905880D01*
G01Y924930D02*
Y940170D01*
G01Y943980D02*
Y959220D01*
G01Y1020180D02*
Y1031610D01*
G01Y1096380D02*
Y1111620D01*
G01Y1145910D02*
Y1157340D01*
G01X2688080Y707760D02*
Y719190D01*
G01Y742050D02*
Y761100D01*
G01Y787770D02*
Y799200D01*
G01Y825870D02*
Y852540D01*
G01Y890640D02*
Y902070D01*
G01Y924930D02*
Y940170D01*
G01Y943980D02*
Y959220D01*
G01Y1020180D02*
Y1031610D01*
G01Y1096380D02*
Y1111620D01*
G01Y1145910D02*
Y1157340D01*
G01X2691890Y707760D02*
Y719190D01*
G01Y742050D02*
Y757290D01*
G01Y783960D02*
Y825870D01*
G01Y886830D02*
Y898260D01*
G01Y921120D02*
Y936360D01*
G01Y943980D02*
Y959220D01*
G01Y1020180D02*
Y1031610D01*
G01Y1096380D02*
Y1111620D01*
G01Y1123050D02*
Y1130670D01*
G01Y1145910D02*
Y1157340D01*
G01X2695700Y703950D02*
Y715380D01*
G01Y738240D02*
Y753480D01*
G01Y757290D02*
Y772530D01*
G01Y787770D02*
Y799200D01*
G01Y886830D02*
Y898260D01*
G01Y921120D02*
Y932550D01*
G01Y943980D02*
Y1031610D01*
G01Y1096380D02*
Y1111620D01*
G01Y1119240D02*
Y1134480D01*
G01Y1145910D02*
Y1157340D01*
G01X2699510Y700140D02*
Y711570D01*
G01Y738240D02*
Y749670D01*
G01Y787770D02*
Y799200D01*
G01Y883020D02*
Y894450D01*
G01Y917310D02*
Y932550D01*
G01Y943980D02*
Y959220D01*
G01Y1020180D02*
Y1031610D01*
G01Y1065900D02*
Y1138290D01*
G01Y1145910D02*
Y1222110D01*
G01X2703320Y696330D02*
Y711570D01*
G01Y719190D02*
Y749670D01*
G01Y787770D02*
Y799200D01*
G01Y879210D02*
Y928740D01*
G01Y943980D02*
Y955410D01*
G01Y1096380D02*
Y1111620D01*
G01Y1145910D02*
Y1157340D01*
G01X2707130Y696330D02*
Y723000D01*
G01Y730620D02*
Y745860D01*
G01Y787770D02*
Y799200D01*
G01Y883020D02*
Y902070D01*
G01Y913500D02*
Y924930D01*
G01Y943980D02*
Y955410D01*
G01Y1092570D02*
Y1111620D01*
G01Y1145910D02*
Y1157340D01*
G01X2710940Y700140D02*
Y711570D01*
G01Y730620D02*
Y742050D01*
G01Y787770D02*
Y799200D01*
G01Y841110D02*
Y848730D01*
G01Y886830D02*
Y890640D01*
G01Y909690D02*
Y921120D01*
G01Y943980D02*
Y955410D01*
G01Y1092570D02*
Y1111620D01*
G01Y1145910D02*
Y1153530D01*
G01X2714750Y700140D02*
Y707760D01*
G01Y726810D02*
Y742050D01*
G01Y787770D02*
Y799200D01*
G01Y833490D02*
Y856350D01*
G01Y905880D02*
Y921120D01*
G01Y943980D02*
Y955410D01*
G01Y1031610D02*
Y1035420D01*
G01Y1092570D02*
Y1111620D01*
G01X2718560Y723000D02*
Y738240D01*
G01Y787770D02*
Y803010D01*
G01Y825870D02*
Y856350D01*
G01Y905880D02*
Y917310D01*
G01Y943980D02*
Y963030D01*
G01Y1027800D02*
Y1043040D01*
G01Y1092570D02*
Y1119240D01*
G01X2722370Y723000D02*
Y734430D01*
G01Y787770D02*
Y822060D01*
G01Y902070D02*
Y913500D01*
G01Y943980D02*
Y1043040D01*
G01Y1088760D02*
Y1111620D01*
G01Y1115430D02*
Y1123050D01*
G01X2726180Y719190D02*
Y730620D01*
G01Y753480D02*
Y803010D01*
G01Y898260D02*
Y909690D01*
G01Y943980D02*
Y966840D01*
G01Y978270D02*
Y989700D01*
G01Y1001130D02*
Y1012560D01*
G01Y1027800D02*
Y1039230D01*
G01Y1088760D02*
Y1111620D01*
G01Y1115430D02*
Y1130670D01*
G01Y1138290D02*
Y1229730D01*
G01X2729990Y715380D02*
Y730620D01*
G01Y749670D02*
Y761100D01*
G01Y787770D02*
Y803010D01*
G01Y894450D02*
Y905880D01*
G01Y943980D02*
Y966840D01*
G01Y978270D02*
Y989700D01*
G01Y1001130D02*
Y1012560D01*
G01Y1027800D02*
Y1039230D01*
G01Y1088760D02*
Y1111620D01*
G01Y1119240D02*
Y1134480D01*
G01X2733800Y650610D02*
Y658230D01*
G01Y711570D02*
Y726810D01*
G01Y791580D02*
Y803010D01*
G01Y829680D02*
Y837300D01*
G01Y894450D02*
Y905880D01*
G01Y940170D02*
Y966840D01*
G01Y978270D02*
Y989700D01*
G01Y1001130D02*
Y1012560D01*
G01Y1027800D02*
Y1039230D01*
G01Y1084950D02*
Y1111620D01*
G01Y1119240D02*
Y1134480D01*
G01X2737610Y646800D02*
Y662040D01*
G01Y707760D02*
Y723000D01*
G01Y791580D02*
Y803010D01*
G01Y829680D02*
Y841110D01*
G01Y890640D02*
Y902070D01*
G01Y940170D02*
Y966840D01*
G01Y978270D02*
Y989700D01*
G01Y1001130D02*
Y1012560D01*
G01Y1027800D02*
Y1039230D01*
G01Y1084950D02*
Y1092570D01*
G01Y1096380D02*
Y1111620D01*
G01Y1123050D02*
Y1134480D01*
G01X2741420Y703950D02*
Y719190D01*
G01Y745860D02*
Y761100D01*
G01Y791580D02*
Y803010D01*
G01Y825870D02*
Y848730D01*
G01Y883020D02*
Y932550D01*
G01Y940170D02*
Y966840D01*
G01Y978270D02*
Y989700D01*
G01Y1001130D02*
Y1012560D01*
G01Y1027800D02*
Y1039230D01*
G01Y1084950D02*
Y1092570D01*
G01Y1096380D02*
Y1111620D01*
G01Y1123050D02*
Y1134480D01*
G01X2745230Y646800D02*
Y662040D01*
G01Y700140D02*
Y719190D01*
G01Y723000D02*
Y745860D01*
G01Y791580D02*
Y806820D01*
G01Y822060D02*
Y841110D01*
G01Y883020D02*
Y917310D01*
G01Y940170D02*
Y966840D01*
G01Y978270D02*
Y989700D01*
G01Y1001130D02*
Y1012560D01*
G01Y1027800D02*
Y1039230D01*
G01Y1081140D02*
Y1092570D01*
G01Y1096380D02*
Y1111620D01*
G01Y1126860D02*
Y1130670D01*
G01X2749040Y646800D02*
Y662040D01*
G01Y700140D02*
Y734430D01*
G01Y791580D02*
Y806820D01*
G01Y818250D02*
Y837300D01*
G01Y886830D02*
Y905880D01*
G01Y940170D02*
Y951600D01*
G01Y955410D02*
Y966840D01*
G01Y978270D02*
Y989700D01*
G01Y1001130D02*
Y1012560D01*
G01Y1027800D02*
Y1039230D01*
G01Y1081140D02*
Y1088760D01*
G01Y1096380D02*
Y1111620D01*
G01X2752850Y646800D02*
Y662040D01*
G01Y700140D02*
Y723000D01*
G01Y791580D02*
Y806820D01*
G01Y814440D02*
Y833490D01*
G01Y890640D02*
Y894450D01*
G01Y940170D02*
Y951600D01*
G01Y955410D02*
Y966840D01*
G01Y978270D02*
Y989700D01*
G01Y1001130D02*
Y1016370D01*
G01Y1027800D02*
Y1039230D01*
G01Y1077330D02*
Y1088760D01*
G01Y1096380D02*
Y1111620D01*
G01X2756660Y646800D02*
Y662040D01*
G01Y703950D02*
Y715380D01*
G01Y795390D02*
Y806820D01*
G01Y810630D02*
Y829680D01*
G01Y936360D02*
Y951600D01*
G01Y955410D02*
Y1039230D01*
G01Y1077330D02*
Y1084950D01*
G01Y1096380D02*
Y1111620D01*
G01X2760470Y646800D02*
Y662040D01*
G01Y795390D02*
Y825870D01*
G01Y936360D02*
Y947790D01*
G01Y955410D02*
Y966840D01*
G01Y978270D02*
Y989700D01*
G01Y1001130D02*
Y1012560D01*
G01Y1027800D02*
Y1039230D01*
G01Y1073520D02*
Y1084950D01*
G01Y1096380D02*
Y1111620D01*
G01Y1142100D02*
Y1225920D01*
G01X2764280Y646800D02*
Y662040D01*
G01Y795390D02*
Y818250D01*
G01Y852540D02*
Y856350D01*
G01Y928740D02*
Y947790D01*
G01Y955410D02*
Y966840D01*
G01Y978270D02*
Y989700D01*
G01Y1001130D02*
Y1012560D01*
G01Y1027800D02*
Y1039230D01*
G01Y1073520D02*
Y1081140D01*
G01Y1096380D02*
Y1111620D01*
G01X2768090Y646800D02*
Y662040D01*
G01Y795390D02*
Y814440D01*
G01Y852540D02*
Y856350D01*
G01Y909690D02*
Y947790D01*
G01Y955410D02*
Y966840D01*
G01Y978270D02*
Y989700D01*
G01Y1001130D02*
Y1012560D01*
G01Y1027800D02*
Y1039230D01*
G01Y1069710D02*
Y1077330D01*
G01Y1096380D02*
Y1111620D01*
G01X2771900Y646800D02*
Y662040D01*
G01Y757290D02*
Y768720D01*
G01Y791580D02*
Y814440D01*
G01Y848730D02*
Y856350D01*
G01Y894450D02*
Y921120D01*
G01Y932550D02*
Y943980D01*
G01Y955410D02*
Y966840D01*
G01Y978270D02*
Y989700D01*
G01Y1001130D02*
Y1012560D01*
G01Y1027800D02*
Y1039230D01*
G01Y1069710D02*
Y1073520D01*
G01Y1096380D02*
Y1111620D01*
G01X2775710Y646800D02*
Y662040D01*
G01Y734430D02*
Y757290D01*
G01Y787770D02*
Y818250D01*
G01Y848730D02*
Y856350D01*
G01Y879210D02*
Y913500D01*
G01Y932550D02*
Y943980D01*
G01Y955410D02*
Y966840D01*
G01Y978270D02*
Y989700D01*
G01Y1001130D02*
Y1012560D01*
G01Y1027800D02*
Y1039230D01*
G01Y1065900D02*
Y1073520D01*
G01Y1096380D02*
Y1111620D01*
G01X2779520Y646800D02*
Y662040D01*
G01Y711570D02*
Y745860D01*
G01Y783960D02*
Y799200D01*
G01Y806820D02*
Y822060D01*
G01Y848730D02*
Y856350D01*
G01Y879210D02*
Y902070D01*
G01Y928740D02*
Y940170D01*
G01Y955410D02*
Y966840D01*
G01Y978270D02*
Y989700D01*
G01Y1001130D02*
Y1012560D01*
G01Y1027800D02*
Y1039230D01*
G01Y1062090D02*
Y1069710D01*
G01Y1096380D02*
Y1111620D01*
G01X2783330Y646800D02*
Y662040D01*
G01Y692520D02*
Y734430D01*
G01Y776340D02*
Y795390D01*
G01Y806820D02*
Y825870D01*
G01Y844920D02*
Y856350D01*
G01Y883020D02*
Y894450D01*
G01Y928740D02*
Y940170D01*
G01Y955410D02*
Y966840D01*
G01Y978270D02*
Y989700D01*
G01Y1001130D02*
Y1012560D01*
G01Y1027800D02*
Y1039230D01*
G01Y1096380D02*
Y1111620D01*
G01X2787140Y646800D02*
Y662040D01*
G01Y696330D02*
Y723000D01*
G01Y768720D02*
Y787770D01*
G01Y810630D02*
Y829680D01*
G01Y844920D02*
Y856350D01*
G01Y924930D02*
Y936360D01*
G01Y955410D02*
Y966840D01*
G01Y978270D02*
Y989700D01*
G01Y1001130D02*
Y1008750D01*
G01Y1027800D02*
Y1039230D01*
G01Y1096380D02*
Y1111620D01*
G01X2790950Y646800D02*
Y662040D01*
G01Y700140D02*
Y711570D01*
G01Y761100D02*
Y780150D01*
G01Y814440D02*
Y833490D01*
G01Y841110D02*
Y856350D01*
G01Y921120D02*
Y932550D01*
G01Y955410D02*
Y966840D01*
G01Y978270D02*
Y989700D01*
G01Y1027800D02*
Y1039230D01*
G01Y1096380D02*
Y1111620D01*
G01X2794760Y646800D02*
Y662040D01*
G01Y753480D02*
Y772530D01*
G01Y818250D02*
Y856350D01*
G01Y921120D02*
Y928740D01*
G01Y955410D02*
Y966840D01*
G01Y1027800D02*
Y1039230D01*
G01Y1096380D02*
Y1111620D01*
G01X2798570Y745860D02*
Y757290D01*
G01Y825870D02*
Y856350D01*
G01Y917310D02*
Y928740D01*
G01Y955410D02*
Y966840D01*
G01Y1008750D02*
Y1039230D01*
G01Y1096380D02*
Y1111620D01*
G01Y1126860D02*
Y1237350D01*
G01X2802380Y742050D02*
Y745860D01*
G01Y829680D02*
Y856350D01*
G01Y913500D02*
Y924930D01*
G01Y955410D02*
Y966840D01*
G01Y1016370D02*
Y1039230D01*
G01Y1096380D02*
Y1111620D01*
G01X2806190Y837300D02*
Y860160D01*
G01Y913500D02*
Y921120D01*
G01Y955410D02*
Y963030D01*
G01Y1023990D02*
Y1035420D01*
G01Y1096380D02*
Y1111620D01*
G01X2810000Y909690D02*
Y917310D01*
G01Y1096380D02*
Y1104000D01*
G01X2661410Y1210680D02*
Y1222110D01*
G01Y1275450D02*
Y1286880D01*
G01Y1313550D02*
Y1328790D01*
G01Y1347840D02*
Y1359270D01*
G01Y1385940D02*
Y1397370D01*
G01Y1504050D02*
Y1519290D01*
G01Y1645020D02*
Y1660260D01*
G01X2665220Y1210680D02*
Y1222110D01*
G01Y1275450D02*
Y1286880D01*
G01Y1313550D02*
Y1324980D01*
G01Y1347840D02*
Y1359270D01*
G01Y1385940D02*
Y1397370D01*
G01Y1504050D02*
Y1519290D01*
G01Y1645020D02*
Y1660260D01*
G01X2669030Y1210680D02*
Y1222110D01*
G01Y1275450D02*
Y1286880D01*
G01Y1313550D02*
Y1324980D01*
G01Y1347840D02*
Y1359270D01*
G01Y1385940D02*
Y1397370D01*
G01Y1504050D02*
Y1519290D01*
G01Y1565010D02*
Y1576440D01*
G01Y1645020D02*
Y1660260D01*
G01X2672840Y1210680D02*
Y1222110D01*
G01Y1275450D02*
Y1286880D01*
G01Y1313550D02*
Y1324980D01*
G01Y1347840D02*
Y1359270D01*
G01Y1385940D02*
Y1397370D01*
G01Y1504050D02*
Y1519290D01*
G01Y1557390D02*
Y1580250D01*
G01Y1645020D02*
Y1660260D01*
G01X2676650Y1210680D02*
Y1222110D01*
G01Y1275450D02*
Y1286880D01*
G01Y1313550D02*
Y1324980D01*
G01Y1347840D02*
Y1359270D01*
G01Y1385940D02*
Y1397370D01*
G01Y1454520D02*
Y1584060D01*
G01Y1645020D02*
Y1660260D01*
G01X2680460Y1210680D02*
Y1222110D01*
G01Y1275450D02*
Y1286880D01*
G01Y1313550D02*
Y1324980D01*
G01Y1347840D02*
Y1359270D01*
G01Y1385940D02*
Y1397370D01*
G01Y1500240D02*
Y1515480D01*
G01Y1645020D02*
Y1660260D01*
G01X2684270Y1210680D02*
Y1222110D01*
G01Y1275450D02*
Y1286880D01*
G01Y1313550D02*
Y1324980D01*
G01Y1347840D02*
Y1359270D01*
G01Y1382130D02*
Y1397370D01*
G01Y1500240D02*
Y1515480D01*
G01Y1645020D02*
Y1660260D01*
G01X2688080Y1210680D02*
Y1222110D01*
G01Y1275450D02*
Y1324980D01*
G01Y1347840D02*
Y1397370D01*
G01Y1500240D02*
Y1515480D01*
G01Y1645020D02*
Y1660260D01*
G01X2691890Y1210680D02*
Y1222110D01*
G01Y1275450D02*
Y1286880D01*
G01Y1313550D02*
Y1324980D01*
G01Y1347840D02*
Y1359270D01*
G01Y1385940D02*
Y1397370D01*
G01Y1500240D02*
Y1515480D01*
G01Y1645020D02*
Y1660260D01*
G01X2695700Y1206870D02*
Y1222110D01*
G01Y1275450D02*
Y1286880D01*
G01Y1313550D02*
Y1321170D01*
G01Y1347840D02*
Y1355460D01*
G01Y1385940D02*
Y1389750D01*
G01Y1500240D02*
Y1511670D01*
G01Y1645020D02*
Y1660260D01*
G01X2699510Y1275450D02*
Y1283070D01*
G01Y1324980D02*
Y1336410D01*
G01Y1359270D02*
Y1370700D01*
G01Y1500240D02*
Y1511670D01*
G01Y1645020D02*
Y1774560D01*
G01X2703320Y1210680D02*
Y1222110D01*
G01Y1321170D02*
Y1340220D01*
G01Y1363080D02*
Y1382130D01*
G01Y1496430D02*
Y1511670D01*
G01Y1584060D02*
Y1595490D01*
G01Y1645020D02*
Y1660260D01*
G01X2707130Y1210680D02*
Y1218300D01*
G01Y1321170D02*
Y1340220D01*
G01Y1366890D02*
Y1382130D01*
G01Y1401180D02*
Y1404990D01*
G01Y1496430D02*
Y1511670D01*
G01Y1580250D02*
Y1599300D01*
G01Y1645020D02*
Y1660260D01*
G01X2710940Y1317360D02*
Y1336410D01*
G01Y1370700D02*
Y1382130D01*
G01Y1397370D02*
Y1408800D01*
G01Y1439280D02*
Y1606920D01*
G01Y1645020D02*
Y1660260D01*
G01X2714750Y1317360D02*
Y1332600D01*
G01Y1370700D02*
Y1382130D01*
G01Y1393560D02*
Y1412610D01*
G01Y1496430D02*
Y1507860D01*
G01Y1645020D02*
Y1660260D01*
G01X2718560Y1218300D02*
Y1222110D01*
G01Y1256400D02*
Y1416420D01*
G01Y1492620D02*
Y1507860D01*
G01Y1645020D02*
Y1660260D01*
G01X2722370Y1210680D02*
Y1225920D01*
G01Y1309740D02*
Y1324980D01*
G01Y1347840D02*
Y1355460D01*
G01Y1492620D02*
Y1507860D01*
G01Y1645020D02*
Y1660260D01*
G01X2726180Y1305930D02*
Y1324980D01*
G01Y1351650D02*
Y1359270D01*
G01Y1492620D02*
Y1507860D01*
G01Y1645020D02*
Y1656450D01*
G01X2729990Y1176390D02*
Y1187820D01*
G01Y1302120D02*
Y1321170D01*
G01Y1355460D02*
Y1366890D01*
G01Y1492620D02*
Y1507860D01*
G01Y1645020D02*
Y1656450D01*
G01X2733800Y1176390D02*
Y1187820D01*
G01Y1298310D02*
Y1317360D01*
G01Y1359270D02*
Y1370700D01*
G01Y1488810D02*
Y1504050D01*
G01Y1645020D02*
Y1656450D01*
G01X2737610Y1176390D02*
Y1187820D01*
G01Y1294500D02*
Y1309740D01*
G01Y1363080D02*
Y1378320D01*
G01Y1488810D02*
Y1504050D01*
G01Y1565010D02*
Y1568820D01*
G01Y1645020D02*
Y1660260D01*
G01X2741420Y1176390D02*
Y1187820D01*
G01Y1290690D02*
Y1305930D01*
G01Y1366890D02*
Y1385940D01*
G01Y1485000D02*
Y1504050D01*
G01Y1561200D02*
Y1576440D01*
G01Y1645020D02*
Y1774560D01*
G01X2745230Y1176390D02*
Y1187820D01*
G01Y1286880D02*
Y1302120D01*
G01Y1370700D02*
Y1397370D01*
G01Y1485000D02*
Y1580250D01*
G01Y1645020D02*
Y1656450D01*
G01X2749040Y1176390D02*
Y1187820D01*
G01Y1279260D02*
Y1294500D01*
G01Y1317360D02*
Y1321170D01*
G01Y1378320D02*
Y1416420D01*
G01Y1492620D02*
Y1500240D01*
G01Y1557390D02*
Y1580250D01*
G01Y1641210D02*
Y1656450D01*
G01X2752850Y1176390D02*
Y1187820D01*
G01Y1214490D02*
Y1218300D01*
G01Y1271640D02*
Y1290690D01*
G01Y1313550D02*
Y1328790D01*
G01Y1340220D02*
Y1351650D01*
G01Y1382130D02*
Y1420230D01*
G01Y1557390D02*
Y1572630D01*
G01Y1641210D02*
Y1656450D01*
G01X2756660Y1176390D02*
Y1187820D01*
G01Y1206870D02*
Y1222110D01*
G01Y1264020D02*
Y1332600D01*
G01Y1340220D02*
Y1412610D01*
G01Y1553580D02*
Y1568820D01*
G01Y1641210D02*
Y1656450D01*
G01X2760470Y1256400D02*
Y1267830D01*
G01Y1275450D02*
Y1290690D01*
G01Y1313550D02*
Y1328790D01*
G01Y1340220D02*
Y1355460D01*
G01Y1385940D02*
Y1397370D01*
G01Y1404990D02*
Y1408800D01*
G01Y1549770D02*
Y1565010D01*
G01Y1641210D02*
Y1656450D01*
G01X2764280Y1176390D02*
Y1187820D01*
G01Y1248780D02*
Y1252590D01*
G01Y1275450D02*
Y1290690D01*
G01Y1313550D02*
Y1328790D01*
G01Y1340220D02*
Y1355460D01*
G01Y1385940D02*
Y1397370D01*
G01Y1545960D02*
Y1561200D01*
G01Y1641210D02*
Y1652640D01*
G01X2768090Y1176390D02*
Y1187820D01*
G01Y1275450D02*
Y1290690D01*
G01Y1313550D02*
Y1328790D01*
G01Y1344030D02*
Y1355460D01*
G01Y1385940D02*
Y1397370D01*
G01Y1542150D02*
Y1557390D01*
G01Y1641210D02*
Y1652640D01*
G01X2771900Y1176390D02*
Y1187820D01*
G01Y1275450D02*
Y1290690D01*
G01Y1313550D02*
Y1328790D01*
G01Y1344030D02*
Y1355460D01*
G01Y1385940D02*
Y1397370D01*
G01Y1488810D02*
Y1496430D01*
G01Y1542150D02*
Y1553580D01*
G01Y1637400D02*
Y1652640D01*
G01X2775710Y1176390D02*
Y1187820D01*
G01Y1275450D02*
Y1290690D01*
G01Y1313550D02*
Y1328790D01*
G01Y1344030D02*
Y1355460D01*
G01Y1385940D02*
Y1397370D01*
G01Y1492620D02*
Y1507860D01*
G01Y1538340D02*
Y1549770D01*
G01Y1637400D02*
Y1648830D01*
G01X2779520Y1176390D02*
Y1187820D01*
G01Y1275450D02*
Y1290690D01*
G01Y1313550D02*
Y1328790D01*
G01Y1344030D02*
Y1355460D01*
G01Y1385940D02*
Y1397370D01*
G01Y1500240D02*
Y1519290D01*
G01Y1534530D02*
Y1545960D01*
G01Y1637400D02*
Y1648830D01*
G01X2783330Y1176390D02*
Y1187820D01*
G01Y1275450D02*
Y1290690D01*
G01Y1313550D02*
Y1328790D01*
G01Y1344030D02*
Y1355460D01*
G01Y1385940D02*
Y1397370D01*
G01Y1507860D02*
Y1526910D01*
G01Y1530720D02*
Y1542150D01*
G01Y1633590D02*
Y1645020D01*
G01X2787140Y1176390D02*
Y1187820D01*
G01Y1275450D02*
Y1290690D01*
G01Y1313550D02*
Y1328790D01*
G01Y1344030D02*
Y1355460D01*
G01Y1382130D02*
Y1397370D01*
G01Y1515480D02*
Y1542150D01*
G01Y1633590D02*
Y1645020D01*
G01X2790950Y1176390D02*
Y1187820D01*
G01Y1218300D02*
Y1229730D01*
G01Y1275450D02*
Y1328790D01*
G01Y1340220D02*
Y1397370D01*
G01Y1523100D02*
Y1549770D01*
G01Y1629780D02*
Y1641210D01*
G01X2794760Y1176390D02*
Y1187820D01*
G01Y1214490D02*
Y1233540D01*
G01Y1275450D02*
Y1290690D01*
G01Y1313550D02*
Y1328790D01*
G01Y1340220D02*
Y1355460D01*
G01Y1385940D02*
Y1397370D01*
G01Y1526910D02*
Y1553580D01*
G01Y1629780D02*
Y1641210D01*
G01X2798570Y1275450D02*
Y1290690D01*
G01Y1313550D02*
Y1328790D01*
G01Y1340220D02*
Y1355460D01*
G01Y1385940D02*
Y1397370D01*
G01Y1534530D02*
Y1553580D01*
G01Y1629780D02*
Y1637400D01*
G01X2802380Y1275450D02*
Y1290690D01*
G01Y1313550D02*
Y1321170D01*
G01Y1340220D02*
Y1355460D01*
G01Y1385940D02*
Y1393560D01*
G01Y1538340D02*
Y1557390D01*
G01Y1625970D02*
Y1633590D01*
G01X2806190Y1340220D02*
Y1347840D01*
G01Y1542150D02*
Y1557390D01*
G01Y1625970D02*
Y1629780D01*
G01X2810000Y1545960D02*
Y1553580D01*
G01Y1622160D02*
Y1625970D01*
G01X2661410Y1702170D02*
Y1713600D01*
G01Y1759320D02*
Y1774560D01*
G01X2665220Y1702170D02*
Y1713600D01*
G01Y1759320D02*
Y1774560D01*
G01X2669030Y1702170D02*
Y1713600D01*
G01Y1759320D02*
Y1774560D01*
G01X2672840Y1702170D02*
Y1713600D01*
G01Y1759320D02*
Y1774560D01*
G01X2676650Y1702170D02*
Y1713600D01*
G01Y1759320D02*
Y1774560D01*
G01X2680460Y1702170D02*
Y1713600D01*
G01Y1759320D02*
Y1774560D01*
G01X2684270Y1702170D02*
Y1713600D01*
G01Y1759320D02*
Y1774560D01*
G01X2688080Y1702170D02*
Y1713600D01*
G01Y1759320D02*
Y1774560D01*
G01X2691890Y1702170D02*
Y1713600D01*
G01Y1759320D02*
Y1774560D01*
G01X2695700Y1702170D02*
Y1717410D01*
G01Y1759320D02*
Y1774560D01*
G01X2703320Y1702170D02*
Y1713600D01*
G01Y1759320D02*
Y1774560D01*
G01X2707130Y1702170D02*
Y1713600D01*
G01Y1759320D02*
Y1774560D01*
G01X2710940Y1702170D02*
Y1713600D01*
G01Y1759320D02*
Y1774560D01*
G01X2714750Y1702170D02*
Y1713600D01*
G01Y1759320D02*
Y1774560D01*
G01X2718560Y1702170D02*
Y1713600D01*
G01Y1759320D02*
Y1774560D01*
G01X2722370Y1702170D02*
Y1713600D01*
G01Y1759320D02*
Y1774560D01*
G01X2726180Y1702170D02*
Y1713600D01*
G01Y1759320D02*
Y1774560D01*
G01X2729990Y1702170D02*
Y1713600D01*
G01Y1759320D02*
Y1774560D01*
G01X2733800Y1702170D02*
Y1713600D01*
G01Y1759320D02*
Y1774560D01*
G01X2737610Y1702170D02*
Y1717410D01*
G01Y1759320D02*
Y1774560D01*
G01X2745230Y1702170D02*
Y1713600D01*
G01Y1759320D02*
Y1774560D01*
G01X2749040Y1702170D02*
Y1713600D01*
G01Y1759320D02*
Y1774560D01*
G01X2752850Y1702170D02*
Y1713600D01*
G01Y1759320D02*
Y1774560D01*
G01X2756660Y1702170D02*
Y1713600D01*
G01Y1759320D02*
Y1774560D01*
G01X2760470Y1702170D02*
Y1713600D01*
G01Y1759320D02*
Y1774560D01*
G01X2764280Y1702170D02*
Y1713600D01*
G01Y1759320D02*
Y1774560D01*
G01X2768090Y1702170D02*
Y1713600D01*
G01Y1759320D02*
Y1774560D01*
G01X2771900Y1702170D02*
Y1713600D01*
G01Y1759320D02*
Y1774560D01*
G01X2775710Y1702170D02*
Y1713600D01*
G01Y1759320D02*
Y1774560D01*
G01X2779520Y1702170D02*
Y1713600D01*
G01Y1759320D02*
Y1774560D01*
G01X2783330Y1702170D02*
Y1713600D01*
G01Y1759320D02*
Y1774560D01*
G01X2787140Y1702170D02*
Y1713600D01*
G01Y1759320D02*
Y1774560D01*
G01X2790950Y1702170D02*
Y1717410D01*
G01Y1759320D02*
Y1774560D01*
G01X2794760Y1702170D02*
Y1717410D01*
G01Y1732650D02*
Y1774560D01*
G01X2798570Y1702170D02*
Y1713600D01*
G01Y1744080D02*
Y1770750D01*
G01X2802380Y1702170D02*
Y1705980D01*
G01Y1751700D02*
Y1770750D01*
G01X2806190Y1755510D02*
Y1766940D01*
G01X2810000Y1755510D02*
Y1759320D01*
G54D12*
G01X2410000Y1850000D02*
X2350000D01*
Y1960000D01*
X2160000D01*
Y1850000D01*
X2100000D01*
Y1960000D01*
X1910000D01*
Y1850000D01*
X1850000D01*
Y1960000D01*
X1660000D01*
Y1850000D01*
X1600000D01*
Y1960000D01*
X1410000D01*
Y1850000D01*
X1350000D01*
Y1960000D01*
X1160000D01*
Y1850000D01*
X994000D01*
Y2550000D01*
X2774000D01*
Y1850000D01*
G01X1430000Y160000D02*
Y140000D01*
X1480000Y90000D01*
Y70000D01*
X1430000Y20000D01*
Y320000D01*
X1580000D01*
Y20000D01*
G01X1250000Y800000D02*
Y20000D01*
X2530000D01*
Y800000D01*
X2360000D01*
Y690000D01*
X2170000D01*
Y800000D01*
X2110000D01*
Y690000D01*
X1920000D01*
Y800000D01*
X1860000D01*
Y690000D01*
X1670000D01*
Y800000D01*
X1610000D01*
Y690000D01*
X1420000D01*
Y800000D01*
X1250000D01*
G01X1340000Y2550000D02*
Y2200000D01*
X1160000D01*
Y2550000D01*
G01X2200000Y20000D02*
Y320000D01*
X2350000D01*
Y20000D01*
X2300000Y70000D01*
Y100000D01*
X2350000Y140000D01*
G01X2410000Y1850000D02*
Y1960000D01*
X2600000D01*
Y1850000D01*
X2774000D01*
G01X2590000Y2550000D02*
Y2200000D01*
X2410000D01*
Y2550000D01*
G54D13*
G01X3670000Y2590000D02*
X100000D01*
G03X0Y2490000I0J-100000D01*
G01Y100000D01*
G03X100000Y0I100000J0D01*
G01X3670000D01*
G03X3770000Y100000I0J100000D01*
G01Y2490000D01*
G03X3670000Y2590000I-100000J0D01*
G01X118000Y1223330D02*
X129000Y1230000D01*
X136330Y1238000D01*
X140000Y1247330D01*
X136330Y1258000D01*
X129000Y1266000D01*
X118000Y1274000D01*
X103330Y1276670D01*
X30000D01*
G01X140000Y1340000D02*
X30000D01*
X52000Y1324000D01*
G01X140000D02*
Y1356000D01*
G01X1783330Y82000D02*
X1790000Y71000D01*
X1798000Y63670D01*
X1807330Y60000D01*
X1818000Y63670D01*
X1826000Y71000D01*
X1834000Y82000D01*
X1836670Y96670D01*
Y170000D01*
G01X1874670Y151670D02*
X1882670Y162660D01*
X1892000Y168170D01*
X1902670Y170000D01*
X1916000Y166330D01*
X1925330Y157170D01*
X1928000Y146170D01*
X1926670Y135160D01*
X1921330Y126000D01*
X1894670Y107670D01*
X1882670Y94830D01*
X1874670Y76500D01*
X1872000Y60000D01*
X1928000D01*
G01X1743330Y2412000D02*
X1750000Y2401000D01*
X1758000Y2393670D01*
X1767330Y2390000D01*
X1778000Y2393670D01*
X1786000Y2401000D01*
X1794000Y2412000D01*
X1796670Y2426670D01*
Y2500000D01*
G01X1830670Y2412000D02*
X1838670Y2399160D01*
X1849330Y2391830D01*
X1861330Y2390000D01*
X1872000Y2391830D01*
X1882670Y2401000D01*
X1889330Y2412000D01*
X1890670Y2423000D01*
X1888000Y2435830D01*
X1878670Y2445000D01*
X1869330Y2448670D01*
X1857330D01*
G01X1869330D02*
X1877330Y2454170D01*
X1884000Y2463330D01*
X1886670Y2474330D01*
X1884000Y2485330D01*
X1877330Y2494500D01*
X1865330Y2500000D01*
X1853330Y2498170D01*
X1841330Y2490830D01*
G01X2790000Y106670D02*
X2753330Y53330D01*
X2716670Y106670D01*
G01X2775340Y142000D02*
X2784500Y152670D01*
X2790000Y164670D01*
Y175330D01*
X2784500Y186000D01*
X2775340Y194000D01*
X2762500Y198000D01*
X2749670Y195330D01*
X2738670Y188670D01*
X2731330Y176670D01*
X2727670Y160670D01*
X2720330Y151330D01*
X2707500Y147330D01*
X2694670Y150000D01*
X2685500Y156670D01*
X2680000Y166000D01*
Y175330D01*
X2683670Y184670D01*
X2692830Y192670D01*
G01X2731330Y270670D02*
X2725830Y276000D01*
X2716670Y280000D01*
X2703830Y282670D01*
X2692830Y280000D01*
X2685500Y274670D01*
X2680000Y265330D01*
Y229330D01*
X2790000D01*
Y273330D01*
X2782670Y282670D01*
X2771670Y288000D01*
X2758830Y290670D01*
X2746000Y288000D01*
X2735000Y280000D01*
X2731330Y270670D01*
Y229330D01*
G01X2680000Y310000D02*
X2790000Y328670D01*
X2680000Y350000D01*
X2790000Y371330D01*
X2680000Y390000D01*
G01X2790000Y413330D02*
X2753330Y466670D01*
X2716670Y413330D01*
G01X2968000Y1193330D02*
X2979000Y1200000D01*
X2986330Y1208000D01*
X2990000Y1217330D01*
X2986330Y1228000D01*
X2979000Y1236000D01*
X2968000Y1244000D01*
X2953330Y1246670D01*
X2880000D01*
G01X2990000Y1283330D02*
X2880000D01*
Y1315330D01*
X2885500Y1326000D01*
X2898330Y1334000D01*
X2913000Y1336670D01*
X2927670Y1334000D01*
X2938670Y1327330D01*
X2944170Y1315330D01*
Y1283330D01*
G01X2990000Y1400000D02*
X2880000D01*
X2902000Y1384000D01*
G01X2990000D02*
Y1416000D01*
M02*
