G04 ================== begin FILE IDENTIFICATION RECORD ==================*
G04 Layout Name:  H:/MBED-TOOLS/HARDWARE/430DEBUG_ZJ_V10A/PCB/430DEBUG_ZJ_V10A.brd*
G04 Film Name:    TOP*
G04 File Format:  Gerber RS274X*
G04 File Origin:  Cadence Allegro 17.2-S037*
G04 Origin Date:  Wed Jun 06 11:13:59 2018*
G04 *
G04 Layer:  BOARD GEOMETRY/OUTLINE*
G04 Layer:  VIA CLASS/TOP*
G04 Layer:  PIN/TOP*
G04 Layer:  ETCH/TOP*
G04 *
G04 Offset:    (0.0000 0.0000)*
G04 Mirror:    No*
G04 Mode:      Positive*
G04 Rotation:  0*
G04 FullContactRelief:  No*
G04 UndefLineWidth:     0.1524*
G04 ================== end FILE IDENTIFICATION RECORD ====================*
%FSLAX55Y55*MOMM*%
%IR0*IPPOS*OFA0.00000B0.00000*MIA0B0*SFA1.00000B1.00000*%
%ADD10C,.6096*%
%ADD13C,1.524*%
%ADD12R,1.524X1.524*%
%ADD11C,1.778*%
%ADD14C,.7112*%
%ADD15C,.254*%
%ADD16C,.1524*%
%ADD17C,.762*%
G75*
%LPD*%
G75*
G36*
G01X100000Y30000D02*
X30000Y100000D01*
Y2490000D01*
X90000Y2550000D01*
X3670000D01*
X3740000Y2480000D01*
Y100000D01*
X3670000Y30000D01*
X100000D01*
G37*
%LPC*%
G75*
G36*
G01X2154210Y281560D02*
X235790D01*
X111560Y405790D01*
Y674210D01*
X182550Y745190D01*
X190360Y804640D01*
X190370Y805120D01*
G02X248690Y913630I139629J-5118D01*
G03X249080Y946390I-11824J16523D01*
G02Y1161610I80920J107610D01*
G03X248690Y1194370I-12214J16237D01*
G02X190280Y1308000I81322J113630D01*
G01Y1365070D01*
X101560Y1453790D01*
Y2174210D01*
X266430Y2339080D01*
X2841050D01*
X3027970Y2152150D01*
G03X3058550Y2154270I14367J14370D01*
G02X3280880Y2155020I111451J-84268D01*
G03X3313120I16120J12364D01*
G02X3509020Y1959120I110880J-85020D01*
G03Y1926880I12364J-16120D01*
G02Y1705120I-85020J-110880D01*
G03Y1672880I12364J-16120D01*
G02Y1451120I-85020J-110880D01*
G03Y1418880I12364J-16120D01*
G02Y1197120I-85020J-110880D01*
G03Y1164880I12364J-16120D01*
G02Y943120I-85020J-110880D01*
G03Y910880I12364J-16120D01*
G02Y689120I-85020J-110880D01*
G03Y656880I12364J-16120D01*
G02X3313120Y460980I-85020J-110880D01*
G03X3280880I-16120J-12364D01*
G02X3084980Y656880I-110880J85020D01*
G03Y689120I-12364J16120D01*
G02X3030280Y800000I85030J110880D01*
G01Y867070D01*
X2901560Y995790D01*
Y2055790D01*
X2775790Y2181560D01*
X715480D01*
G03X698790Y2149660I5J-20319D01*
G02X669020Y1959120I-114789J-79661D01*
G03Y1926880I12364J-16120D01*
G02Y1705120I-85020J-110880D01*
G03Y1672880I12364J-16120D01*
G02Y1451120I-85020J-110880D01*
G03Y1418880I12364J-16120D01*
G02X723660Y1312080I-85022J-110875D01*
G01X723670Y1311690D01*
X729860Y1252780D01*
X888440Y1094210D01*
Y814210D01*
X1014210Y688440D01*
X1372930D01*
G03X1393190Y710310I1J20319D01*
G02X1393060Y713800I45612J3446D01*
G01Y866200D01*
G02X1438800Y911940I45740J0D01*
G01X1591200D01*
G02X1636940Y866200I0J-45740D01*
G01Y849970D01*
X1652880D01*
X1655830Y854930D01*
G02X1872760Y857240I109169J-64931D01*
G03X1907240I17240J10760D01*
G02X1926560Y881170I107762J-67238D01*
G01X1926620Y881230D01*
X1956560Y911180D01*
Y1728810D01*
X1916620Y1768770D01*
X1916560Y1768820D01*
G02X1897240Y1792760I88460J91155D01*
G03X1862760I-17240J-10760D01*
G02X1647240I-107760J67240D01*
G03X1612760I-17240J-10760D01*
G02X1397240I-107760J67240D01*
G03X1362760I-17240J-10760D01*
G02Y1927240I-107760J67240D01*
G03X1397240I17240J10760D01*
G02X1612760I107760J-67240D01*
G03X1647240I17240J10760D01*
G02X1755000Y1987020I107760J-67235D01*
G01X1799370D01*
X1880790Y2068440D01*
X2104210D01*
X2198760Y1973890D01*
G02X2364170Y1924930I56240J-113890D01*
G01X2367120Y1919970D01*
X2383060D01*
Y1936200D01*
G02X2428800Y1981940I45740J0D01*
G01X2581200D01*
G02X2626940Y1936200I0J-45740D01*
G01Y1783800D01*
G02X2581200Y1738060I-45740J0D01*
G01X2428800D01*
G02X2383060Y1783800I0J45740D01*
G01Y1800030D01*
X2367120D01*
X2364170Y1795070D01*
G02X2258170Y1733020I-109170J64930D01*
G03X2244310Y1698340I508J-20313D01*
G01X2323440Y1619210D01*
Y911180D01*
X2353380Y881230D01*
X2353440Y881170D01*
G02X2357820Y703290I-88440J-91172D01*
G01X2357550Y703000D01*
X2328440Y666580D01*
Y455790D01*
X2154210Y281560D01*
G37*
%LPD*%
G75*
G36*
G01X243800Y711100D02*
X330000D01*
X332380Y802100D01*
X241220Y801650D01*
X231210Y725450D01*
G03X243800Y711100I12590J-1652D01*
G37*
G36*
G01X241100Y1384200D02*
Y1308000D01*
X332250Y1305750D01*
X330000Y1396900D01*
X253800D01*
G03X241100Y1384200I0J-12700D01*
G37*
G36*
G01X680830Y1233130D02*
X672820Y1309330D01*
X581650Y1310130D01*
X584000Y1219100D01*
X668200D01*
G03X680830Y1233130I0J12700D01*
G37*
G36*
G01X406200Y2158900D02*
X330000D01*
X327750Y2067750D01*
X418900Y2070000D01*
Y2146200D01*
G03X406200Y2158900I-12700J0D01*
G37*
G36*
G01X668750Y434910D02*
G03X669020Y656880I-84747J111088D01*
G02Y689120I12364J16120D01*
G03Y910880I-85020J110880D01*
G02Y943120I12364J16120D01*
G03X723490Y1046000I-85022J110875D01*
G02X758150Y1059210I20289J-1157D01*
G01X771560Y1045790D01*
Y765790D01*
X965790Y571560D01*
X1879210D01*
X1970630Y662980D01*
X2015000D01*
G03X2122760Y722760I0J127015D01*
G02X2157240I17240J-10760D01*
G03X2176560Y698830I107762J67238D01*
G01X2176620Y698770D01*
X2211560Y663820D01*
Y504210D01*
X2105790Y398440D01*
X681070D01*
G02X668750Y434910I5J20317D01*
G37*
G36*
G01X2122760Y857240D02*
G03X2103440Y881170I-107762J-67238D01*
G01X2103380Y881230D01*
X2073440Y911180D01*
Y1654860D01*
G02X2108130Y1669230I20321J0D01*
G01X2206560Y1570790D01*
Y911180D01*
X2176620Y881230D01*
X2176560Y881170D01*
G03X2157240Y857240I88442J-91168D01*
G02X2122760I-17240J10760D01*
G37*
G36*
G01X2006020Y888780D02*
X1961130Y843870D01*
X2015000Y786820D01*
X2068870Y843870D01*
X2023980Y888780D01*
G03X2006020I-8980J-8980D01*
G37*
G36*
G01X1951500Y713800D02*
X2015000D01*
X2017250Y792250D01*
X1938800Y790000D01*
Y726500D01*
G03X1951500Y713800I12700J0D01*
G37*
G36*
G01X1818500Y1936200D02*
X1755000D01*
X1752750Y1857750D01*
X1831200Y1860000D01*
Y1923500D01*
G03X1818500Y1936200I-12700J0D01*
G37*
G36*
G01X2025720Y1753390D02*
X2060610Y1808290D01*
X2004680Y1863160D01*
X1951130Y1806130D01*
X2006020Y1751220D01*
G03X2025720Y1753390I8980J8980D01*
G37*
G36*
G01X2256020Y888780D02*
X2211130Y843870D01*
X2265000Y786820D01*
X2318870Y843870D01*
X2273980Y888780D01*
G03X2256020I-8980J-8980D01*
G37*
G36*
G01X2279920Y687270D02*
X2319810Y737180D01*
X2264830Y793170D01*
X2211130Y736130D01*
X2261020Y686220D01*
G03X2279920Y687270I8980J8980D01*
G37*
G36*
G01X3081100Y886200D02*
Y800000D01*
X3172100Y797620D01*
X3171650Y888780D01*
X3095450Y898790D01*
G03X3081100Y886200I-1652J-12590D01*
G37*
G36*
G01X3333100Y1383870D02*
X3335110Y1307670D01*
X3426270Y1305780D01*
X3424000Y1396900D01*
X3345800D01*
G03X3333100Y1383870I0J-12704D01*
G37*
G54D10*
X515180Y120750D03*
X315180D03*
X115180D03*
X561970Y2420040D03*
X361970D03*
X161970D03*
X1115180Y120750D03*
X915180D03*
X715180D03*
X937310Y1606900D03*
Y1406900D03*
Y1206900D03*
Y1806900D03*
X961970Y2420040D03*
X761970D03*
X1515180Y120750D03*
X1315180D03*
X1574590Y521790D03*
X1374590D03*
X1174590D03*
X1598520Y1019740D03*
X1398520D03*
X1645810Y1640840D03*
Y1440840D03*
X1598520Y1219740D03*
X1398520D03*
X1561970Y2420040D03*
X1361970D03*
X1161970D03*
X2115180Y120750D03*
X1915180D03*
X1715180D03*
X1974590Y521790D03*
X1774590D03*
X2143260Y1066530D03*
X1910000Y1070000D03*
X1845810Y1640840D03*
Y1440840D03*
X2130000Y1440000D03*
X2161970Y2420040D03*
X1961970D03*
X1761970D03*
X2515180Y120750D03*
X2315180D03*
X2554830Y481680D03*
Y1081680D03*
Y881680D03*
Y681680D03*
Y1481680D03*
Y1281680D03*
X2561970Y2420040D03*
X2361970D03*
X3115180Y120750D03*
X2915180D03*
X2715180D03*
X2754830Y481680D03*
Y1081680D03*
Y881680D03*
Y681680D03*
Y1481680D03*
Y1281680D03*
X3161970Y2420040D03*
X2961970D03*
X2761970D03*
X3515180Y120750D03*
X3315180D03*
X3634290Y658290D03*
Y458290D03*
Y1058290D03*
Y858290D03*
Y1658290D03*
Y1458290D03*
Y1258290D03*
Y2058290D03*
Y1858290D03*
X3561970Y2420040D03*
X3361970D03*
G54D11*
X584000Y546000D03*
X330000D03*
X584000Y800000D03*
X330000D03*
X584000Y1054000D03*
X330000D03*
X584000Y1308000D03*
X330000D03*
X584000Y1562000D03*
X330000D03*
X584000Y1816000D03*
X330000D03*
X584000Y2070000D03*
X330000D03*
X3170000Y546000D03*
Y800000D03*
Y1054000D03*
Y1308000D03*
Y1562000D03*
Y1816000D03*
Y2070000D03*
X3424000Y546000D03*
Y800000D03*
Y1054000D03*
Y1308000D03*
Y1562000D03*
Y1816000D03*
Y2070000D03*
G54D12*
X1515000Y790000D03*
X2505000Y1860000D03*
G54D13*
X1255000D03*
X1505000D03*
X1765000Y790000D03*
X2015000D03*
X2005000Y1860000D03*
X1755000D03*
X2265000Y790000D03*
X2255000Y1860000D03*
G54D14*
G01X1515000Y790000D02*
Y922100D01*
G01X1382900Y790000D02*
X1515000D01*
G01X2505000Y1727900D02*
Y1860000D01*
G01D02*
Y1992100D01*
G01Y1860000D02*
X2637100D01*
G54D15*
G01X2265000Y790000D02*
X2270000Y785000D01*
Y480000D01*
X2130000Y340000D01*
X260000D01*
X170000Y430000D01*
Y650000D01*
X320000Y800000D01*
X330000D01*
G01Y1308000D02*
X160000Y1478000D01*
Y2150000D01*
X290640Y2280640D01*
X2816840D01*
X3000640Y2096840D01*
Y1480000D01*
X3050720Y1429920D01*
X3300080D01*
X3422000Y1308000D01*
X3424000D01*
G01X2015000Y790000D02*
X1855000Y630000D01*
X990000D01*
X830000Y790000D01*
Y1070000D01*
X592000Y1308000D01*
X584000D01*
G01X330000Y2070000D02*
X500000Y2240000D01*
X2800000D01*
X2960000Y2080000D01*
Y1020000D01*
X3170000Y810000D01*
Y800000D01*
G01X2015000Y790000D02*
Y1850000D01*
X2005000Y1860000D01*
G01X1755000D02*
X1905000Y2010000D01*
X2080000D01*
X2140000Y1950000D01*
Y1720000D01*
X2265000Y1595000D01*
Y790000D01*
G54D16*
G01X3670000Y2590000D02*
X100000D01*
G03X0Y2490000I0J-100000D01*
G01Y100000D01*
G03X100000Y0I100000J0D01*
G01X3670000D01*
G03X3770000Y100000I0J100000D01*
G01Y2490000D01*
G03X3670000Y2590000I-100000J0D01*
G54D17*
G01X150000Y1060000D02*
X156000Y1054000D01*
G01D02*
X330000D01*
M02*
