G04 ================== begin FILE IDENTIFICATION RECORD ==================*
G04 Layout Name:  HY_TYPEC_CHRG_V10.brd*
G04 Film Name:    Drill_Legend*
G04 File Format:  Gerber RS274X*
G04 File Origin:  Cadence Allegro 17.2-S067*
G04 Origin Date:  Tue Sep 29 16:39:21 2020*
G04 *
G04 Layer:  MANUFACTURING/NCLEGEND-1-2*
G04 Layer:  MANUFACTURING/NCDRILL_LEGEND*
G04 Layer:  MANUFACTURING/NCDRILL_FIGURE*
G04 Layer:  BOARD GEOMETRY/DIMENSION*
G04 *
G04 Offset:    (0.0000 0.0000)*
G04 Mirror:    No*
G04 Mode:      Positive*
G04 Rotation:  0*
G04 FullContactRelief:  No*
G04 UndefLineWidth:     0.1524*
G04 ================== end FILE IDENTIFICATION RECORD ====================*
%FSLAX55Y55*MOMM*%
%IR0*IPPOS*OFA0.00000B0.00000*MIA0B0*SFA1.00000B1.00000*%
%AMMACRO12*
1,1,.1524,-.3,.3*
20,1,.1524,-.3,.3,.3,.3,0.0*
1,1,.1524,.3,.3*
20,1,.1524,.3,.3,.352094,.295442,0.0*
1,1,.1524,.352094,.295442*
20,1,.1524,.352094,.295442,.402606,.281908,0.0*
1,1,.1524,.402606,.281908*
20,1,.1524,.402606,.281908,.45,.259808,0.0*
1,1,.1524,.45,.259808*
20,1,.1524,.45,.259808,.492836,.229813,0.0*
1,1,.1524,.492836,.229813*
20,1,.1524,.492836,.229813,.529813,.192836,0.0*
1,1,.1524,.529813,.192836*
20,1,.1524,.529813,.192836,.559808,.15,0.0*
1,1,.1524,.559808,.15*
20,1,.1524,.559808,.15,.581908,.102606,0.0*
1,1,.1524,.581908,.102606*
20,1,.1524,.581908,.102606,.595442,.052094,0.0*
1,1,.1524,.595442,.052094*
20,1,.1524,.595442,.052094,.6,0.0,0.0*
1,1,.1524,.6,0.0*
20,1,.1524,.6,0.0,.595442,-.052094,0.0*
1,1,.1524,.595442,-.052094*
20,1,.1524,.595442,-.052094,.581908,-.102606,0.0*
1,1,.1524,.581908,-.102606*
20,1,.1524,.581908,-.102606,.559808,-.15,0.0*
1,1,.1524,.559808,-.15*
20,1,.1524,.559808,-.15,.529813,-.192836,0.0*
1,1,.1524,.529813,-.192836*
20,1,.1524,.529813,-.192836,.492836,-.229813,0.0*
1,1,.1524,.492836,-.229813*
20,1,.1524,.492836,-.229813,.45,-.259808,0.0*
1,1,.1524,.45,-.259808*
20,1,.1524,.45,-.259808,.402606,-.281908,0.0*
1,1,.1524,.402606,-.281908*
20,1,.1524,.402606,-.281908,.352094,-.295442,0.0*
1,1,.1524,.352094,-.295442*
20,1,.1524,.352094,-.295442,.3,-.3,0.0*
1,1,.1524,.3,-.3*
20,1,.1524,.3,-.3,-.3,-.3,0.0*
1,1,.1524,-.3,-.3*
20,1,.1524,-.3,-.3,-.352094,-.295442,0.0*
1,1,.1524,-.352094,-.295442*
20,1,.1524,-.352094,-.295442,-.402606,-.281908,0.0*
1,1,.1524,-.402606,-.281908*
20,1,.1524,-.402606,-.281908,-.45,-.259808,0.0*
1,1,.1524,-.45,-.259808*
20,1,.1524,-.45,-.259808,-.492836,-.229813,0.0*
1,1,.1524,-.492836,-.229813*
20,1,.1524,-.492836,-.229813,-.529813,-.192836,0.0*
1,1,.1524,-.529813,-.192836*
20,1,.1524,-.529813,-.192836,-.559808,-.15,0.0*
1,1,.1524,-.559808,-.15*
20,1,.1524,-.559808,-.15,-.581908,-.102606,0.0*
1,1,.1524,-.581908,-.102606*
20,1,.1524,-.581908,-.102606,-.595442,-.052094,0.0*
1,1,.1524,-.595442,-.052094*
20,1,.1524,-.595442,-.052094,-.6,0.0,0.0*
1,1,.1524,-.6,0.0*
20,1,.1524,-.6,0.0,-.595442,.052094,0.0*
1,1,.1524,-.595442,.052094*
20,1,.1524,-.595442,.052094,-.581908,.102606,0.0*
1,1,.1524,-.581908,.102606*
20,1,.1524,-.581908,.102606,-.559808,.15,0.0*
1,1,.1524,-.559808,.15*
20,1,.1524,-.559808,.15,-.529813,.192836,0.0*
1,1,.1524,-.529813,.192836*
20,1,.1524,-.529813,.192836,-.492836,.229813,0.0*
1,1,.1524,-.492836,.229813*
20,1,.1524,-.492836,.229813,-.45,.259808,0.0*
1,1,.1524,-.45,.259808*
20,1,.1524,-.45,.259808,-.402606,.281908,0.0*
1,1,.1524,-.402606,.281908*
20,1,.1524,-.402606,.281908,-.352094,.295442,0.0*
1,1,.1524,-.352094,.295442*
20,1,.1524,-.352094,.295442,-.3,.3,0.0*
1,1,.1524,-.3,.3*
1,1,.1524,-.15,-.15*
20,1,.1524,-.15,-.15,-.19,-.145,0.0*
1,1,.1524,-.19,-.145*
20,1,.1524,-.19,-.145,-.225,-.125,0.0*
1,1,.1524,-.225,-.125*
20,1,.1524,-.225,-.125,-.255,-.095,0.0*
1,1,.1524,-.255,-.095*
20,1,.1524,-.255,-.095,-.275,-.06,0.0*
1,1,.1524,-.275,-.06*
20,1,.1524,-.275,-.06,-.285,-.02,0.0*
1,1,.1524,-.285,-.02*
20,1,.1524,-.285,-.02,-.285,.02,0.0*
1,1,.1524,-.285,.02*
20,1,.1524,-.285,.02,-.275,.06,0.0*
1,1,.1524,-.275,.06*
20,1,.1524,-.275,.06,-.255,.095,0.0*
1,1,.1524,-.255,.095*
20,1,.1524,-.255,.095,-.225,.125,0.0*
1,1,.1524,-.225,.125*
20,1,.1524,-.225,.125,-.19,.145,0.0*
1,1,.1524,-.19,.145*
20,1,.1524,-.19,.145,-.15,.15,0.0*
1,1,.1524,-.15,.15*
20,1,.1524,-.15,.15,-.11,.145,0.0*
1,1,.1524,-.11,.145*
20,1,.1524,-.11,.145,-.075,.125,0.0*
1,1,.1524,-.075,.125*
20,1,.1524,-.075,.125,-.045,.095,0.0*
1,1,.1524,-.045,.095*
20,1,.1524,-.045,.095,-.025,.06,0.0*
1,1,.1524,-.025,.06*
20,1,.1524,-.025,.06,-.015,.02,0.0*
1,1,.1524,-.015,.02*
20,1,.1524,-.015,.02,-.015,-.02,0.0*
1,1,.1524,-.015,-.02*
20,1,.1524,-.015,-.02,-.025,-.06,0.0*
1,1,.1524,-.025,-.06*
20,1,.1524,-.025,-.06,-.045,-.095,0.0*
1,1,.1524,-.045,-.095*
20,1,.1524,-.045,-.095,-.075,-.125,0.0*
1,1,.1524,-.075,-.125*
20,1,.1524,-.075,-.125,-.11,-.145,0.0*
1,1,.1524,-.11,-.145*
20,1,.1524,-.11,-.145,-.15,-.15,0.0*
1,1,.1524,-.15,-.15*
1,1,.1524,.0251,-.15*
20,1,.1524,.0251,-.15,.1501,.15,0.0*
1,1,.1524,.1501,.15*
20,1,.1524,.1501,.15,.2751,-.15,0.0*
1,1,.1524,.2751,-.15*
1,1,.1524,.2301,-.045*
20,1,.1524,.2301,-.045,.0701,-.045,0.0*
1,1,.1524,.0701,-.045*
%
%ADD12MACRO12*%
%AMMACRO13*
1,1,.1524,-.55,.3*
20,1,.1524,-.55,.3,.55,.3,0.0*
1,1,.1524,.55,.3*
20,1,.1524,.55,.3,.602094,.295442,0.0*
1,1,.1524,.602094,.295442*
20,1,.1524,.602094,.295442,.652606,.281908,0.0*
1,1,.1524,.652606,.281908*
20,1,.1524,.652606,.281908,.7,.259808,0.0*
1,1,.1524,.7,.259808*
20,1,.1524,.7,.259808,.742836,.229813,0.0*
1,1,.1524,.742836,.229813*
20,1,.1524,.742836,.229813,.779813,.192836,0.0*
1,1,.1524,.779813,.192836*
20,1,.1524,.779813,.192836,.809808,.15,0.0*
1,1,.1524,.809808,.15*
20,1,.1524,.809808,.15,.831908,.102606,0.0*
1,1,.1524,.831908,.102606*
20,1,.1524,.831908,.102606,.845442,.052094,0.0*
1,1,.1524,.845442,.052094*
20,1,.1524,.845442,.052094,.85,0.0,0.0*
1,1,.1524,.85,0.0*
20,1,.1524,.85,0.0,.845442,-.052094,0.0*
1,1,.1524,.845442,-.052094*
20,1,.1524,.845442,-.052094,.831908,-.102606,0.0*
1,1,.1524,.831908,-.102606*
20,1,.1524,.831908,-.102606,.809808,-.15,0.0*
1,1,.1524,.809808,-.15*
20,1,.1524,.809808,-.15,.779813,-.192836,0.0*
1,1,.1524,.779813,-.192836*
20,1,.1524,.779813,-.192836,.742836,-.229813,0.0*
1,1,.1524,.742836,-.229813*
20,1,.1524,.742836,-.229813,.7,-.259808,0.0*
1,1,.1524,.7,-.259808*
20,1,.1524,.7,-.259808,.652606,-.281908,0.0*
1,1,.1524,.652606,-.281908*
20,1,.1524,.652606,-.281908,.602094,-.295442,0.0*
1,1,.1524,.602094,-.295442*
20,1,.1524,.602094,-.295442,.55,-.3,0.0*
1,1,.1524,.55,-.3*
20,1,.1524,.55,-.3,-.55,-.3,0.0*
1,1,.1524,-.55,-.3*
20,1,.1524,-.55,-.3,-.602094,-.295442,0.0*
1,1,.1524,-.602094,-.295442*
20,1,.1524,-.602094,-.295442,-.652606,-.281908,0.0*
1,1,.1524,-.652606,-.281908*
20,1,.1524,-.652606,-.281908,-.7,-.259808,0.0*
1,1,.1524,-.7,-.259808*
20,1,.1524,-.7,-.259808,-.742836,-.229813,0.0*
1,1,.1524,-.742836,-.229813*
20,1,.1524,-.742836,-.229813,-.779813,-.192836,0.0*
1,1,.1524,-.779813,-.192836*
20,1,.1524,-.779813,-.192836,-.809808,-.15,0.0*
1,1,.1524,-.809808,-.15*
20,1,.1524,-.809808,-.15,-.831908,-.102606,0.0*
1,1,.1524,-.831908,-.102606*
20,1,.1524,-.831908,-.102606,-.845442,-.052094,0.0*
1,1,.1524,-.845442,-.052094*
20,1,.1524,-.845442,-.052094,-.85,0.0,0.0*
1,1,.1524,-.85,0.0*
20,1,.1524,-.85,0.0,-.845442,.052094,0.0*
1,1,.1524,-.845442,.052094*
20,1,.1524,-.845442,.052094,-.831908,.102606,0.0*
1,1,.1524,-.831908,.102606*
20,1,.1524,-.831908,.102606,-.809808,.15,0.0*
1,1,.1524,-.809808,.15*
20,1,.1524,-.809808,.15,-.779813,.192836,0.0*
1,1,.1524,-.779813,.192836*
20,1,.1524,-.779813,.192836,-.742836,.229813,0.0*
1,1,.1524,-.742836,.229813*
20,1,.1524,-.742836,.229813,-.7,.259808,0.0*
1,1,.1524,-.7,.259808*
20,1,.1524,-.7,.259808,-.652606,.281908,0.0*
1,1,.1524,-.652606,.281908*
20,1,.1524,-.652606,.281908,-.602094,.295442,0.0*
1,1,.1524,-.602094,.295442*
20,1,.1524,-.602094,.295442,-.55,.3,0.0*
1,1,.1524,-.55,.3*
1,1,.1524,-.15,-.15*
20,1,.1524,-.15,-.15,-.19,-.145,0.0*
1,1,.1524,-.19,-.145*
20,1,.1524,-.19,-.145,-.225,-.125,0.0*
1,1,.1524,-.225,-.125*
20,1,.1524,-.225,-.125,-.255,-.095,0.0*
1,1,.1524,-.255,-.095*
20,1,.1524,-.255,-.095,-.275,-.06,0.0*
1,1,.1524,-.275,-.06*
20,1,.1524,-.275,-.06,-.285,-.02,0.0*
1,1,.1524,-.285,-.02*
20,1,.1524,-.285,-.02,-.285,.02,0.0*
1,1,.1524,-.285,.02*
20,1,.1524,-.285,.02,-.275,.06,0.0*
1,1,.1524,-.275,.06*
20,1,.1524,-.275,.06,-.255,.095,0.0*
1,1,.1524,-.255,.095*
20,1,.1524,-.255,.095,-.225,.125,0.0*
1,1,.1524,-.225,.125*
20,1,.1524,-.225,.125,-.19,.145,0.0*
1,1,.1524,-.19,.145*
20,1,.1524,-.19,.145,-.15,.15,0.0*
1,1,.1524,-.15,.15*
20,1,.1524,-.15,.15,-.11,.145,0.0*
1,1,.1524,-.11,.145*
20,1,.1524,-.11,.145,-.075,.125,0.0*
1,1,.1524,-.075,.125*
20,1,.1524,-.075,.125,-.045,.095,0.0*
1,1,.1524,-.045,.095*
20,1,.1524,-.045,.095,-.025,.06,0.0*
1,1,.1524,-.025,.06*
20,1,.1524,-.025,.06,-.015,.02,0.0*
1,1,.1524,-.015,.02*
20,1,.1524,-.015,.02,-.015,-.02,0.0*
1,1,.1524,-.015,-.02*
20,1,.1524,-.015,-.02,-.025,-.06,0.0*
1,1,.1524,-.025,-.06*
20,1,.1524,-.025,-.06,-.045,-.095,0.0*
1,1,.1524,-.045,-.095*
20,1,.1524,-.045,-.095,-.075,-.125,0.0*
1,1,.1524,-.075,-.125*
20,1,.1524,-.075,-.125,-.11,-.145,0.0*
1,1,.1524,-.11,-.145*
20,1,.1524,-.11,-.145,-.15,-.15,0.0*
1,1,.1524,-.15,-.15*
1,1,.1524,.1901,.01*
20,1,.1524,.1901,.01,.2101,.025,0.0*
1,1,.1524,.2101,.025*
20,1,.1524,.2101,.025,.2251,.05,0.0*
1,1,.1524,.2251,.05*
20,1,.1524,.2251,.05,.2351,.085,0.0*
1,1,.1524,.2351,.085*
20,1,.1524,.2351,.085,.2251,.115,0.0*
1,1,.1524,.2251,.115*
20,1,.1524,.2251,.115,.2051,.135,0.0*
1,1,.1524,.2051,.135*
20,1,.1524,.2051,.135,.1701,.15,0.0*
1,1,.1524,.1701,.15*
20,1,.1524,.1701,.15,.0351,.15,0.0*
1,1,.1524,.0351,.15*
20,1,.1524,.0351,.15,.0351,-.15,0.0*
1,1,.1524,.0351,-.15*
20,1,.1524,.0351,-.15,.2001,-.15,0.0*
1,1,.1524,.2001,-.15*
20,1,.1524,.2001,-.15,.2351,-.13,0.0*
1,1,.1524,.2351,-.13*
20,1,.1524,.2351,-.13,.2551,-.1,0.0*
1,1,.1524,.2551,-.1*
20,1,.1524,.2551,-.1,.2651,-.065,0.0*
1,1,.1524,.2651,-.065*
20,1,.1524,.2651,-.065,.2551,-.03,0.0*
1,1,.1524,.2551,-.03*
20,1,.1524,.2551,-.03,.2251,0.0,0.0*
1,1,.1524,.2251,0.0*
20,1,.1524,.2251,0.0,.1901,.01,0.0*
1,1,.1524,.1901,.01*
20,1,.1524,.1901,.01,.0351,.01,0.0*
1,1,.1524,.0351,.01*
%
%ADD13MACRO13*%
%AMMACRO11*
1,1,.1524,.127,0.0*
20,1,.1524,.127,0.0,-.127,0.0,0.0*
1,1,.1524,-.127,0.0*
1,1,.1524,0.0,.127*
20,1,.1524,0.0,.127,0.0,-.127,0.0*
1,1,.1524,0.0,-.127*
%
%ADD11MACRO11*%
%AMMACRO14*
1,1,.1524,.1524,.1524*
20,1,.1524,.1524,.1524,.1524,-.1524,0.0*
1,1,.1524,.1524,-.1524*
20,1,.1524,.1524,-.1524,-.1524,-.1524,0.0*
1,1,.1524,-.1524,-.1524*
20,1,.1524,-.1524,-.1524,-.1524,.1524,0.0*
1,1,.1524,-.1524,.1524*
20,1,.1524,-.1524,.1524,.1524,.1524,0.0*
1,1,.1524,.1524,.1524*
%
%ADD14MACRO14*%
%AMMACRO10*
1,1,.1524,.5,0.0*
20,1,.1524,.5,0.0,.25,.433013,0.0*
1,1,.1524,.25,.433013*
20,1,.1524,.25,.433013,-.25,.433013,0.0*
1,1,.1524,-.25,.433013*
20,1,.1524,-.25,.433013,-.5,0.0,0.0*
1,1,.1524,-.5,0.0*
20,1,.1524,-.5,0.0,-.25,-.433013,0.0*
1,1,.1524,-.25,-.433013*
20,1,.1524,-.25,-.433013,.25,-.433013,0.0*
1,1,.1524,.25,-.433013*
20,1,.1524,.25,-.433013,.5,0.0,0.0*
1,1,.1524,.5,0.0*
%
%ADD10MACRO10*%
%AMMACRO15*
1,1,.1524,0.0,.55*
20,1,.1524,0.0,.55,-.476314,.275,0.0*
1,1,.1524,-.476314,.275*
20,1,.1524,-.476314,.275,-.476314,-.275,0.0*
1,1,.1524,-.476314,-.275*
20,1,.1524,-.476314,-.275,0.0,-.55,0.0*
1,1,.1524,0.0,-.55*
20,1,.1524,0.0,-.55,.476314,-.275,0.0*
1,1,.1524,.476314,-.275*
20,1,.1524,.476314,-.275,.476314,.275,0.0*
1,1,.1524,.476314,.275*
20,1,.1524,.476314,.275,0.0,.55,0.0*
1,1,.1524,0.0,.55*
%
%ADD15MACRO15*%
%ADD16C,.1524*%
G75*
%LPD*%
G75*
G54D10*
X285000Y100000D03*
Y2610000D03*
X1035000Y100000D03*
Y2610000D03*
X8471730Y2282500D03*
G54D11*
X420000Y470000D03*
X350000D03*
X280000D03*
X120000Y1320000D03*
Y1260000D03*
X190000D03*
Y1320000D03*
X260000Y1260000D03*
Y1320000D03*
X330000Y1260000D03*
Y1320000D03*
X440000Y2270000D03*
X380000D03*
X320000D03*
X440000Y2200000D03*
X380000D03*
X320000D03*
X150000Y2440000D03*
X210000D03*
X270000D03*
X480000Y1300000D03*
X840000Y1160000D03*
X780000Y1220000D03*
X840000Y1360000D03*
X776500D03*
X790000Y1490000D03*
X880000Y2130000D03*
Y2290000D03*
Y2220000D03*
X1120000Y500000D03*
X1190000Y460000D03*
X1200000Y290000D03*
X1120000Y640000D03*
Y570000D03*
X1190000Y600000D03*
Y530000D03*
X1060000Y990000D03*
X1240000Y930000D03*
X1210000Y840000D03*
X1140950Y1558710D03*
X1103500Y1610000D03*
X1040000D03*
X1160000Y1859200D03*
X1360000Y2370000D03*
Y2300000D03*
X1176500Y2110000D03*
X1240000D03*
X1360000Y2236500D03*
X1750000Y343500D03*
X1813500D03*
Y280000D03*
X1750000D03*
X1520000Y640000D03*
Y540000D03*
X1700000Y920000D03*
X1580000D03*
X1510000D03*
X1780000D03*
X1535000Y1350000D03*
X1660000D03*
Y1220000D03*
X1530000D03*
X1400000Y1350000D03*
Y1490000D03*
X1660000D03*
X1530000D03*
X1770000Y1800000D03*
X1820000Y2380000D03*
X2180000Y140000D03*
X1960000Y480000D03*
X2180000Y430000D03*
X1980000Y381100D03*
Y309980D03*
X2180000Y320000D03*
X2050000Y970000D03*
X2113500D03*
X2177000D03*
X2150000Y1400000D03*
X2070000Y1200000D03*
X1970000Y1319120D03*
X2050000Y1040000D03*
X2113500D03*
X2177000D03*
X2110000Y1860000D03*
X2180000D03*
X1940000Y1680000D03*
Y1620000D03*
Y1740000D03*
Y1560000D03*
Y1500000D03*
X1920000Y2380000D03*
X2760000Y450000D03*
X2640000Y320000D03*
X2761310Y521580D03*
X2760000Y380940D03*
X2440000Y135880D03*
X2760000Y258420D03*
X3200000Y500000D03*
X3250000Y730000D03*
X3220000Y910000D03*
X3260000Y1760000D03*
X3570000Y110000D03*
X3370000D03*
X3340960Y510000D03*
X3679770Y920000D03*
X3361760Y760000D03*
X3290000Y894240D03*
X3400000Y565880D03*
X3510000Y1380000D03*
X3355000Y1450000D03*
X3290000Y1006000D03*
Y1196500D03*
X3679770Y1010000D03*
X3290000Y1260000D03*
Y1069500D03*
Y1133000D03*
X3510000Y1580000D03*
X3980000Y310000D03*
X4200000Y260000D03*
Y100000D03*
X3870000Y960000D03*
X4194990Y724990D03*
X3990000Y969110D03*
X3895010Y738240D03*
X3878240Y1075010D03*
X3934120Y1019130D03*
X4030000Y1550000D03*
X4490000Y270000D03*
Y110000D03*
X4464120Y772400D03*
X4350000Y560000D03*
X4614920Y840000D03*
X4710000Y650000D03*
X8471730Y3552500D03*
G54D12*
X138000Y928000D03*
Y1792000D03*
X8471730Y1012500D03*
G54D13*
X556000Y928000D03*
Y1792000D03*
X8471730Y377500D03*
G54D14*
X2120000Y2360000D03*
X2760000Y2340000D03*
Y2140000D03*
X4130000Y1830000D03*
X4150000Y2270000D03*
X4620000Y1230000D03*
X4300000Y1810000D03*
X4620000Y1520000D03*
Y1890000D03*
X4300000Y2270000D03*
X5150000Y90000D03*
X5143260Y369380D03*
X4710000Y840000D03*
X5143260Y769380D03*
Y1169380D03*
Y1569380D03*
Y1969380D03*
Y2369380D03*
X5840020Y183980D03*
Y983980D03*
Y583980D03*
Y1383980D03*
Y1783980D03*
Y2183980D03*
Y2583980D03*
X8471730Y2917500D03*
G54D15*
X5590000Y350000D03*
X5336000D03*
X5590000Y950000D03*
X5336000D03*
X5590000Y1750000D03*
X5336000D03*
X5590000Y2350000D03*
X5336000D03*
X8471730Y1647500D03*
G54D16*
G01X-920790Y1533500D02*
X-906570Y1552550D01*
X-889970Y1562080D01*
X-871010Y1565250D01*
X-847300Y1558900D01*
X-830710Y1543020D01*
X-825970Y1523980D01*
X-828340Y1504920D01*
X-837820Y1489050D01*
X-885230Y1457300D01*
X-906570Y1435070D01*
X-920790Y1403320D01*
X-925530Y1374750D01*
X-825970D01*
G01X-689990D02*
X-685250Y1416020D01*
X-678140Y1450950D01*
X-668660Y1482700D01*
X-656800Y1517620D01*
X-637840Y1565250D01*
X-732660D01*
G01X-494750Y1368400D02*
X-499490Y1371580D01*
Y1377920D01*
X-494750Y1381100D01*
X-490010Y1377920D01*
Y1371580D01*
X-494750Y1368400D01*
G01X-304250Y1374750D02*
Y1565250D01*
X-332700Y1527150D01*
G01Y1374750D02*
X-275810D01*
G01X2519210Y-425880D02*
X2535800Y-403650D01*
X2550030Y-390950D01*
X2568990Y-384600D01*
X2585590Y-390950D01*
X2597440Y-403650D01*
X2606920Y-422700D01*
X2609290Y-444930D01*
X2606920Y-463980D01*
X2597440Y-483030D01*
X2583210Y-498900D01*
X2566620Y-505250D01*
X2547660Y-498900D01*
X2531060Y-479860D01*
X2521580Y-451270D01*
X2519210Y-419530D01*
X2523950Y-378250D01*
X2531060Y-356020D01*
X2542910Y-333800D01*
X2559510Y-317920D01*
X2576100Y-314750D01*
X2592700Y-321100D01*
X2604550Y-336980D01*
G01X2754750Y-314750D02*
X2735780Y-321100D01*
X2721560Y-336980D01*
X2712080Y-356020D01*
X2704970Y-381430D01*
X2702600Y-410000D01*
X2704970Y-438580D01*
X2712080Y-463980D01*
X2721560Y-483030D01*
X2735780Y-498900D01*
X2754750Y-505250D01*
X2773710Y-498900D01*
X2787940Y-483030D01*
X2797420Y-463980D01*
X2804530Y-438580D01*
X2806900Y-410000D01*
X2804530Y-381430D01*
X2797420Y-356020D01*
X2787940Y-336980D01*
X2773710Y-321100D01*
X2754750Y-314750D01*
G01X2945250Y-511600D02*
X2940510Y-508420D01*
Y-502080D01*
X2945250Y-498900D01*
X2949990Y-502080D01*
Y-508420D01*
X2945250Y-511600D01*
G01X3164200Y-505250D02*
Y-314750D01*
X3076480Y-451270D01*
X3195020D01*
G01X7609520Y4028750D02*
Y4346250D01*
X7759140D01*
G01X7704010Y4192800D02*
X7609520D01*
G01X7952050Y4346250D02*
X8046530D01*
G01X7999290D02*
Y4028750D01*
G01X7952050D02*
X8046530D01*
G01X8337870Y4187500D02*
X8416620D01*
Y4092250D01*
X8392990Y4060490D01*
X8365430Y4039330D01*
X8326060Y4028750D01*
X8286690Y4039330D01*
X8259130Y4060490D01*
X8235510Y4092250D01*
X8219760Y4129290D01*
X8211880Y4171620D01*
Y4208670D01*
X8219760Y4240410D01*
X8235510Y4277460D01*
X8259130Y4309210D01*
X8282750Y4330370D01*
X8314250Y4346250D01*
X8341810D01*
X8373300Y4335670D01*
X8396930Y4314500D01*
G01X8542600Y4346250D02*
Y4118710D01*
X8558340Y4071070D01*
X8589840Y4039330D01*
X8629210Y4028750D01*
X8668580Y4039330D01*
X8700080Y4071070D01*
X8715820Y4118710D01*
Y4346250D01*
G01X8865430Y4028750D02*
Y4346250D01*
X8963850D01*
X8995350Y4330370D01*
X9015040Y4309210D01*
X9022910Y4266870D01*
X9015040Y4224540D01*
X8991410Y4198090D01*
X8963850Y4182200D01*
X8865430D01*
G01X8963850D02*
X9022910Y4028750D01*
G01X9337870D02*
X9180390D01*
Y4346250D01*
X9337870D01*
G01X9274880Y4192800D02*
X9180390D01*
G01X9278810Y4663750D02*
X9377240Y4981250D01*
X9475670Y4663750D01*
G01X9440230Y4774870D02*
X9314240D01*
G01X9613460Y4981250D02*
Y4663750D01*
X9770940D01*
G01X9928420Y4981250D02*
Y4663750D01*
X10085900D01*
G01X10550470Y4981250D02*
Y4753710D01*
X10566210Y4706070D01*
X10597710Y4674330D01*
X10637080Y4663750D01*
X10676450Y4674330D01*
X10707950Y4706070D01*
X10723690Y4753710D01*
Y4981250D01*
G01X10861490Y4663750D02*
Y4981250D01*
X11042590Y4663750D01*
Y4981250D01*
G01X11219760D02*
X11314240D01*
G01X11267000D02*
Y4663750D01*
G01X11219760D02*
X11314240D01*
G01X11581960Y4981250D02*
Y4663750D01*
G01X11491410Y4981250D02*
X11672510D01*
G01X11814240Y4706070D02*
X11845740Y4679620D01*
X11881170Y4663750D01*
X11912670D01*
X11944160Y4679620D01*
X11967790Y4706070D01*
X11979600Y4743130D01*
X11971730Y4780160D01*
X11952040Y4811910D01*
X11916600Y4833090D01*
X11869360Y4843670D01*
X11841800Y4864830D01*
X11829990Y4901870D01*
X11837870Y4938920D01*
X11857550Y4965370D01*
X11885110Y4981250D01*
X11912670D01*
X11940230Y4970670D01*
X11963850Y4944210D01*
G01X12428410Y4663750D02*
X12526840Y4981250D01*
X12625270Y4663750D01*
G01X12589830Y4774870D02*
X12463840D01*
G01X12763060Y4663750D02*
Y4981250D01*
X12861480D01*
X12892980Y4965370D01*
X12912670Y4944210D01*
X12920540Y4901870D01*
X12912670Y4859540D01*
X12889040Y4833090D01*
X12861480Y4817200D01*
X12763060D01*
G01X12861480D02*
X12920540Y4663750D01*
G01X13235500D02*
X13078020D01*
Y4981250D01*
X13235500D01*
G01X13172510Y4827800D02*
X13078020D01*
G01X13739440Y4981250D02*
X13833920D01*
G01X13786680D02*
Y4663750D01*
G01X13739440D02*
X13833920D01*
G01X14011090D02*
Y4981250D01*
X14192190Y4663750D01*
Y4981250D01*
G01X14629190Y4663750D02*
Y4981250D01*
X14731560Y4716670D01*
X14833930Y4981250D01*
Y4663750D01*
G01X14999280Y4981250D02*
X15093760D01*
G01X15046520D02*
Y4663750D01*
G01X14999280D02*
X15093760D01*
G01X15282740Y4981250D02*
Y4663750D01*
X15440220D01*
G01X15597700Y4981250D02*
Y4663750D01*
X15755180D01*
G01X15944160Y4981250D02*
X16038640D01*
G01X15991400D02*
Y4663750D01*
G01X15944160D02*
X16038640D01*
G01X16203990D02*
Y4981250D01*
X16306360Y4716670D01*
X16408730Y4981250D01*
Y4663750D01*
G01X16700060D02*
X16542580D01*
Y4981250D01*
X16700060D01*
G01X16637070Y4827800D02*
X16542580D01*
G01X16936280Y4981250D02*
Y4663750D01*
G01X16845730Y4981250D02*
X17026830D01*
G01X17329980Y4663750D02*
X17172500D01*
Y4981250D01*
X17329980D01*
G01X17266990Y4827800D02*
X17172500D01*
G01X17487460Y4663750D02*
Y4981250D01*
X17585880D01*
X17617380Y4965370D01*
X17637070Y4944210D01*
X17644940Y4901870D01*
X17637070Y4859540D01*
X17613440Y4833090D01*
X17585880Y4817200D01*
X17487460D01*
G01X17585880D02*
X17644940Y4663750D01*
G01X17798480Y4706070D02*
X17829980Y4679620D01*
X17865410Y4663750D01*
X17896910D01*
X17928400Y4679620D01*
X17952030Y4706070D01*
X17963840Y4743130D01*
X17955970Y4780160D01*
X17936280Y4811910D01*
X17900840Y4833090D01*
X17853600Y4843670D01*
X17826040Y4864830D01*
X17814230Y4901870D01*
X17822110Y4938920D01*
X17841790Y4965370D01*
X17869350Y4981250D01*
X17896910D01*
X17924470Y4970670D01*
X17948090Y4944210D01*
G01X9605590Y5313750D02*
Y5631250D01*
X9684320D01*
X9715820Y5615370D01*
X9739440Y5594210D01*
X9759130Y5562460D01*
X9774880Y5525410D01*
X9778810Y5472500D01*
X9774880Y5419580D01*
X9759130Y5382540D01*
X9739440Y5350780D01*
X9715820Y5329620D01*
X9684320Y5313750D01*
X9605590D01*
G01X9928420D02*
Y5631250D01*
X10026840D01*
X10058340Y5615370D01*
X10078030Y5594210D01*
X10085900Y5551870D01*
X10078030Y5509540D01*
X10054400Y5483090D01*
X10026840Y5467200D01*
X9928420D01*
G01X10026840D02*
X10085900Y5313750D01*
G01X10274880Y5631250D02*
X10369360D01*
G01X10322120D02*
Y5313750D01*
G01X10274880D02*
X10369360D01*
G01X10558340Y5631250D02*
Y5313750D01*
X10715820D01*
G01X10873300Y5631250D02*
Y5313750D01*
X11030780D01*
G01X11668570Y5604790D02*
X11644950Y5620670D01*
X11617400Y5631250D01*
X11585900D01*
X11550460Y5615370D01*
X11522910Y5588920D01*
X11503220Y5557160D01*
X11487470Y5504250D01*
X11483530Y5456620D01*
X11491410Y5409000D01*
X11503220Y5377250D01*
X11526840Y5345490D01*
X11554400Y5324330D01*
X11581960Y5313750D01*
X11609520D01*
X11637080Y5324330D01*
X11660700Y5340200D01*
X11680390Y5361360D01*
G01X11814240Y5313750D02*
Y5631250D01*
G01X11979600D02*
Y5313750D01*
G01Y5472500D02*
X11814240D01*
G01X12113450Y5313750D02*
X12211880Y5631250D01*
X12310310Y5313750D01*
G01X12274870Y5424870D02*
X12148880D01*
G01X12448100Y5313750D02*
Y5631250D01*
X12546520D01*
X12578020Y5615370D01*
X12597710Y5594210D01*
X12605580Y5551870D01*
X12597710Y5509540D01*
X12574080Y5483090D01*
X12546520Y5467200D01*
X12448100D01*
G01X12546520D02*
X12605580Y5313750D01*
G01X12841800Y5631250D02*
Y5313750D01*
G01X12751250Y5631250D02*
X12932350D01*
G01X13156760Y5303170D02*
X13148880Y5308460D01*
Y5319040D01*
X13156760Y5324330D01*
X13164640Y5319040D01*
Y5308460D01*
X13156760Y5303170D01*
G01Y5446030D02*
X13148880Y5451330D01*
Y5461910D01*
X13156760Y5467200D01*
X13164640Y5461910D01*
Y5451330D01*
X13156760Y5446030D01*
G01X13786680Y5631250D02*
Y5313750D01*
G01X13696130Y5631250D02*
X13877230D01*
G01X14101640Y5313750D02*
X14070140Y5319040D01*
X14042590Y5340200D01*
X14018960Y5371960D01*
X14003210Y5409000D01*
X13995340Y5451330D01*
Y5493670D01*
X14003210Y5536000D01*
X14018960Y5573040D01*
X14042590Y5604790D01*
X14070140Y5625960D01*
X14101640Y5631250D01*
X14133130Y5625960D01*
X14160690Y5604790D01*
X14184320Y5573040D01*
X14200070Y5536000D01*
X14207940Y5493670D01*
Y5451330D01*
X14200070Y5409000D01*
X14184320Y5371960D01*
X14160690Y5340200D01*
X14133130Y5319040D01*
X14101640Y5313750D01*
G01X14337860D02*
Y5631250D01*
X14432350D01*
X14463840Y5615370D01*
X14487470Y5578330D01*
X14495340Y5536000D01*
X14487470Y5493670D01*
X14467780Y5461910D01*
X14432350Y5446030D01*
X14337860D01*
G01X15046520Y5631250D02*
Y5313750D01*
G01X14991400Y5525410D02*
X15101640D01*
G01X15361480Y5313750D02*
X15337860Y5319040D01*
X15314240Y5340200D01*
X15298480Y5377250D01*
X15290610Y5419580D01*
X15298480Y5461910D01*
X15314240Y5498960D01*
X15337860Y5520120D01*
X15361480Y5525410D01*
X15385100Y5520120D01*
X15408720Y5498960D01*
X15424470Y5461910D01*
X15428410Y5419580D01*
X15424470Y5377250D01*
X15408720Y5340200D01*
X15385100Y5319040D01*
X15361480Y5313750D01*
G01X16022890Y5483090D02*
X16038640Y5498960D01*
X16050450Y5525410D01*
X16058330Y5562460D01*
X16050450Y5594210D01*
X16034710Y5615370D01*
X16007150Y5631250D01*
X15900850D01*
Y5313750D01*
X16030770D01*
X16058330Y5334910D01*
X16074080Y5366670D01*
X16081950Y5403710D01*
X16074080Y5440740D01*
X16050450Y5472500D01*
X16022890Y5483090D01*
X15900850D01*
G01X16306360Y5313750D02*
X16274860Y5319040D01*
X16247310Y5340200D01*
X16223680Y5371960D01*
X16207930Y5409000D01*
X16200060Y5451330D01*
Y5493670D01*
X16207930Y5536000D01*
X16223680Y5573040D01*
X16247310Y5604790D01*
X16274860Y5625960D01*
X16306360Y5631250D01*
X16337850Y5625960D01*
X16365410Y5604790D01*
X16389040Y5573040D01*
X16404790Y5536000D01*
X16412660Y5493670D01*
Y5451330D01*
X16404790Y5409000D01*
X16389040Y5371960D01*
X16365410Y5340200D01*
X16337850Y5319040D01*
X16306360Y5313750D01*
G01X16621320Y5631250D02*
Y5313750D01*
G01X16530770Y5631250D02*
X16711870D01*
G01X16936280D02*
Y5313750D01*
G01X16845730Y5631250D02*
X17026830D01*
G01X17251240Y5313750D02*
X17219740Y5319040D01*
X17192190Y5340200D01*
X17168560Y5371960D01*
X17152810Y5409000D01*
X17144940Y5451330D01*
Y5493670D01*
X17152810Y5536000D01*
X17168560Y5573040D01*
X17192190Y5604790D01*
X17219740Y5625960D01*
X17251240Y5631250D01*
X17282730Y5625960D01*
X17310290Y5604790D01*
X17333920Y5573040D01*
X17349670Y5536000D01*
X17357540Y5493670D01*
Y5451330D01*
X17349670Y5409000D01*
X17333920Y5371960D01*
X17310290Y5340200D01*
X17282730Y5319040D01*
X17251240Y5313750D01*
G01X17463830D02*
Y5631250D01*
X17566200Y5366670D01*
X17668570Y5631250D01*
Y5313750D01*
G01X10207940Y4028750D02*
Y4346250D01*
X10357560D01*
G01X10302430Y4192800D02*
X10207940D01*
G01X10550470Y4346250D02*
X10644950D01*
G01X10597710D02*
Y4028750D01*
G01X10550470D02*
X10644950D01*
G01X10822120D02*
Y4346250D01*
X11003220Y4028750D01*
Y4346250D01*
G01X11180390D02*
X11274870D01*
G01X11227630D02*
Y4028750D01*
G01X11180390D02*
X11274870D01*
G01X11459910Y4071070D02*
X11491410Y4044620D01*
X11526840Y4028750D01*
X11558340D01*
X11589830Y4044620D01*
X11613460Y4071070D01*
X11625270Y4108130D01*
X11617400Y4145160D01*
X11597710Y4176910D01*
X11562270Y4198090D01*
X11515030Y4208670D01*
X11487470Y4229830D01*
X11475660Y4266870D01*
X11483540Y4303920D01*
X11503220Y4330370D01*
X11530780Y4346250D01*
X11558340D01*
X11585900Y4335670D01*
X11609520Y4309210D01*
G01X11774870Y4028750D02*
Y4346250D01*
G01X11940230D02*
Y4028750D01*
G01Y4187500D02*
X11774870D01*
G01X12251250Y4028750D02*
X12093770D01*
Y4346250D01*
X12251250D01*
G01X12188260Y4192800D02*
X12093770D01*
G01X12400860Y4028750D02*
Y4346250D01*
X12479590D01*
X12511090Y4330370D01*
X12534710Y4309210D01*
X12554400Y4277460D01*
X12570150Y4240410D01*
X12574080Y4187500D01*
X12570150Y4134580D01*
X12554400Y4097540D01*
X12534710Y4065780D01*
X12511090Y4044620D01*
X12479590Y4028750D01*
X12400860D01*
G01X12684320Y3922920D02*
X12920540D01*
G01X13034710Y4071070D02*
X13066210Y4044620D01*
X13101640Y4028750D01*
X13133140D01*
X13164630Y4044620D01*
X13188260Y4071070D01*
X13200070Y4108130D01*
X13192200Y4145160D01*
X13172510Y4176910D01*
X13137070Y4198090D01*
X13089830Y4208670D01*
X13062270Y4229830D01*
X13050460Y4266870D01*
X13058340Y4303920D01*
X13078020Y4330370D01*
X13105580Y4346250D01*
X13133140D01*
X13160700Y4335670D01*
X13184320Y4309210D01*
G01X13385110Y4346250D02*
X13479590D01*
G01X13432350D02*
Y4028750D01*
G01X13385110D02*
X13479590D01*
G01X13672500Y4346250D02*
X13822120D01*
X13672500Y4028750D01*
X13822120D01*
G01X14141010D02*
X13983530D01*
Y4346250D01*
X14141010D01*
G01X14078020Y4192800D02*
X13983530D01*
G01X11227630Y218750D02*
Y536250D01*
X11180390Y472750D01*
G01Y218750D02*
X11274870D01*
G01X11542590Y208170D02*
X11534710Y213460D01*
Y224040D01*
X11542590Y229330D01*
X11550470Y224040D01*
Y213460D01*
X11542590Y208170D01*
G01X11849670Y218750D02*
X11857550Y287540D01*
X11869360Y345740D01*
X11885110Y398670D01*
X11904790Y456870D01*
X11936290Y536250D01*
X11778810D01*
G01X12113460Y430410D02*
X12231560Y218750D01*
G01Y430410D02*
X12113460Y218750D01*
G01X12487470Y536250D02*
X12455970Y525670D01*
X12432350Y499210D01*
X12416600Y467460D01*
X12404790Y425120D01*
X12400860Y377500D01*
X12404790Y329870D01*
X12416600Y287540D01*
X12432350Y255780D01*
X12455970Y229330D01*
X12487470Y218750D01*
X12518960Y229330D01*
X12542590Y255780D01*
X12558340Y287540D01*
X12570150Y329870D01*
X12574080Y377500D01*
X12570150Y425120D01*
X12558340Y467460D01*
X12542590Y499210D01*
X12518960Y525670D01*
X12487470Y536250D01*
G01X12802430Y208170D02*
X12794550Y213460D01*
Y224040D01*
X12802430Y229330D01*
X12810310Y224040D01*
Y213460D01*
X12802430Y208170D01*
G01X13042580Y351030D02*
X13070150Y388090D01*
X13093770Y409250D01*
X13125270Y419830D01*
X13152830Y409250D01*
X13172510Y388090D01*
X13188260Y356330D01*
X13192200Y319290D01*
X13188260Y287540D01*
X13172510Y255780D01*
X13148880Y229330D01*
X13121330Y218750D01*
X13089830Y229330D01*
X13062270Y261070D01*
X13046520Y308710D01*
X13042580Y361620D01*
X13050460Y430410D01*
X13062270Y467460D01*
X13081950Y504500D01*
X13109510Y530960D01*
X13137070Y536250D01*
X13164630Y525670D01*
X13184320Y499210D01*
G01X11227630Y853750D02*
Y1171250D01*
X11180390Y1107750D01*
G01Y853750D02*
X11274870D01*
G01X11542590Y843170D02*
X11534710Y848460D01*
Y859040D01*
X11542590Y864330D01*
X11550470Y859040D01*
Y848460D01*
X11542590Y843170D01*
G01X11782740Y1118330D02*
X11806370Y1150080D01*
X11833930Y1165960D01*
X11865430Y1171250D01*
X11904790Y1160670D01*
X11932360Y1134210D01*
X11940230Y1102460D01*
X11936290Y1070700D01*
X11920540Y1044250D01*
X11841800Y991330D01*
X11806370Y954290D01*
X11782740Y901360D01*
X11774870Y853750D01*
X11940230D01*
G01X12113460Y1065410D02*
X12231560Y853750D01*
G01Y1065410D02*
X12113460Y853750D01*
G01X12487470Y1171250D02*
X12455970Y1160670D01*
X12432350Y1134210D01*
X12416600Y1102460D01*
X12404790Y1060120D01*
X12400860Y1012500D01*
X12404790Y964870D01*
X12416600Y922540D01*
X12432350Y890780D01*
X12455970Y864330D01*
X12487470Y853750D01*
X12518960Y864330D01*
X12542590Y890780D01*
X12558340Y922540D01*
X12570150Y964870D01*
X12574080Y1012500D01*
X12570150Y1060120D01*
X12558340Y1102460D01*
X12542590Y1134210D01*
X12518960Y1160670D01*
X12487470Y1171250D01*
G01X12802430Y843170D02*
X12794550Y848460D01*
Y859040D01*
X12802430Y864330D01*
X12810310Y859040D01*
Y848460D01*
X12802430Y843170D01*
G01X13042580Y986030D02*
X13070150Y1023090D01*
X13093770Y1044250D01*
X13125270Y1054830D01*
X13152830Y1044250D01*
X13172510Y1023090D01*
X13188260Y991330D01*
X13192200Y954290D01*
X13188260Y922540D01*
X13172510Y890780D01*
X13148880Y864330D01*
X13121330Y853750D01*
X13089830Y864330D01*
X13062270Y896070D01*
X13046520Y943710D01*
X13042580Y996620D01*
X13050460Y1065410D01*
X13062270Y1102460D01*
X13081950Y1139500D01*
X13109510Y1165960D01*
X13137070Y1171250D01*
X13164630Y1160670D01*
X13184320Y1134210D01*
G01X11385110Y3076250D02*
X11353610Y3065670D01*
X11329990Y3039210D01*
X11314240Y3007460D01*
X11302430Y2965120D01*
X11298500Y2917500D01*
X11302430Y2869870D01*
X11314240Y2827540D01*
X11329990Y2795780D01*
X11353610Y2769330D01*
X11385110Y2758750D01*
X11416600Y2769330D01*
X11440230Y2795780D01*
X11455980Y2827540D01*
X11467790Y2869870D01*
X11471720Y2917500D01*
X11467790Y2965120D01*
X11455980Y3007460D01*
X11440230Y3039210D01*
X11416600Y3065670D01*
X11385110Y3076250D01*
G01X11700070Y2748170D02*
X11692190Y2753460D01*
Y2764040D01*
X11700070Y2769330D01*
X11707950Y2764040D01*
Y2753460D01*
X11700070Y2748170D01*
G01X11928420Y2822250D02*
X11952030Y2785200D01*
X11983530Y2764040D01*
X12018970Y2758750D01*
X12050470Y2764040D01*
X12081960Y2790490D01*
X12101640Y2822250D01*
X12105580Y2854000D01*
X12097710Y2891030D01*
X12070150Y2917500D01*
X12042590Y2928090D01*
X12007150D01*
G01X12042590D02*
X12066210Y2943960D01*
X12085900Y2970410D01*
X12093770Y3002160D01*
X12085900Y3033920D01*
X12066210Y3060370D01*
X12030780Y3076250D01*
X11995350Y3070960D01*
X11959910Y3049790D01*
G01X12329990Y3076250D02*
X12298490Y3065670D01*
X12274870Y3039210D01*
X12259120Y3007460D01*
X12247310Y2965120D01*
X12243380Y2917500D01*
X12247310Y2869870D01*
X12259120Y2827540D01*
X12274870Y2795780D01*
X12298490Y2769330D01*
X12329990Y2758750D01*
X12361480Y2769330D01*
X12385110Y2795780D01*
X12400860Y2827540D01*
X12412670Y2869870D01*
X12416600Y2917500D01*
X12412670Y2965120D01*
X12400860Y3007460D01*
X12385110Y3039210D01*
X12361480Y3065670D01*
X12329990Y3076250D01*
G01X12692190Y2758750D02*
Y3076250D01*
X12546520Y2848710D01*
X12743380D01*
G01X12959910Y2758750D02*
X12987470Y2764040D01*
X13018960Y2779910D01*
X13038650Y2806360D01*
X13046520Y2843420D01*
X13038650Y2880450D01*
X13015030Y2912200D01*
X12979590Y2928090D01*
X12940230D01*
X12916600Y2938670D01*
X12896910Y2965120D01*
X12889040Y3002160D01*
X12900860Y3039210D01*
X12928410Y3065670D01*
X12959910Y3076250D01*
X12991400Y3065670D01*
X13018960Y3039210D01*
X13030780Y3002160D01*
X13022900Y2965120D01*
X13003220Y2938670D01*
X12979590Y2928090D01*
X12940230D01*
X12904790Y2912200D01*
X12881170Y2880450D01*
X12873300Y2843420D01*
X12881170Y2806360D01*
X12900860Y2779910D01*
X12932350Y2764040D01*
X12959910Y2758750D01*
G01X11542590Y3711250D02*
X11511090Y3700670D01*
X11487470Y3674210D01*
X11471720Y3642460D01*
X11459910Y3600120D01*
X11455980Y3552500D01*
X11459910Y3504870D01*
X11471720Y3462540D01*
X11487470Y3430780D01*
X11511090Y3404330D01*
X11542590Y3393750D01*
X11574080Y3404330D01*
X11597710Y3430780D01*
X11613460Y3462540D01*
X11625270Y3504870D01*
X11629200Y3552500D01*
X11625270Y3600120D01*
X11613460Y3642460D01*
X11597710Y3674210D01*
X11574080Y3700670D01*
X11542590Y3711250D01*
G01X11857550Y3383170D02*
X11849670Y3388460D01*
Y3399040D01*
X11857550Y3404330D01*
X11865430Y3399040D01*
Y3388460D01*
X11857550Y3383170D01*
G01X12097700Y3658330D02*
X12121330Y3690080D01*
X12148890Y3705960D01*
X12180390Y3711250D01*
X12219750Y3700670D01*
X12247320Y3674210D01*
X12255190Y3642460D01*
X12251250Y3610700D01*
X12235500Y3584250D01*
X12156760Y3531330D01*
X12121330Y3494290D01*
X12097700Y3441360D01*
X12089830Y3393750D01*
X12255190D01*
G01X12400860Y3441360D02*
X12424470Y3414910D01*
X12452030Y3399040D01*
X12487470Y3393750D01*
X12522910Y3404330D01*
X12550460Y3425490D01*
X12570150Y3462540D01*
X12574080Y3504870D01*
X12566210Y3547200D01*
X12546520Y3573670D01*
X12518960Y3594830D01*
X12491410Y3600120D01*
X12463850Y3594830D01*
X12428420Y3573670D01*
X12440230Y3711250D01*
X12546520D01*
G01X12849670Y3393750D02*
Y3711250D01*
X12704000Y3483710D01*
X12900860D01*
G01X11857550Y1488750D02*
Y1806250D01*
X11810310Y1742750D01*
G01Y1488750D02*
X11904790D01*
G01X12172510Y1478170D02*
X12164630Y1483460D01*
Y1494040D01*
X12172510Y1499330D01*
X12180390Y1494040D01*
Y1483460D01*
X12172510Y1478170D01*
G01X12487470Y1488750D02*
Y1806250D01*
X12440230Y1742750D01*
G01Y1488750D02*
X12534710D01*
G01X11857550Y2123750D02*
Y2441250D01*
X11810310Y2377750D01*
G01Y2123750D02*
X11904790D01*
G01X12172510Y2113170D02*
X12164630Y2118460D01*
Y2129040D01*
X12172510Y2134330D01*
X12180390Y2129040D01*
Y2118460D01*
X12172510Y2113170D01*
G01X12487470Y2441250D02*
X12455970Y2430670D01*
X12432350Y2404210D01*
X12416600Y2372460D01*
X12404790Y2330120D01*
X12400860Y2282500D01*
X12404790Y2234870D01*
X12416600Y2192540D01*
X12432350Y2160780D01*
X12455970Y2134330D01*
X12487470Y2123750D01*
X12518960Y2134330D01*
X12542590Y2160780D01*
X12558340Y2192540D01*
X12570150Y2234870D01*
X12574080Y2282500D01*
X12570150Y2330120D01*
X12558340Y2372460D01*
X12542590Y2404210D01*
X12518960Y2430670D01*
X12487470Y2441250D01*
G01X14059730Y-98750D02*
Y-416250D01*
G01X13969180Y-98750D02*
X14150280D01*
G01X14374690Y-416250D02*
X14343190Y-410960D01*
X14315640Y-389800D01*
X14292010Y-358040D01*
X14276260Y-321000D01*
X14268390Y-278670D01*
Y-236330D01*
X14276260Y-194000D01*
X14292010Y-156960D01*
X14315640Y-125210D01*
X14343190Y-104040D01*
X14374690Y-98750D01*
X14406180Y-104040D01*
X14433740Y-125210D01*
X14457370Y-156960D01*
X14473120Y-194000D01*
X14480990Y-236330D01*
Y-278670D01*
X14473120Y-321000D01*
X14457370Y-358040D01*
X14433740Y-389800D01*
X14406180Y-410960D01*
X14374690Y-416250D01*
G01X14689650Y-98750D02*
Y-416250D01*
G01X14599100Y-98750D02*
X14780200D01*
G01X14906180Y-416250D02*
X15004610Y-98750D01*
X15103040Y-416250D01*
G01X15067600Y-305130D02*
X14941610D01*
G01X15240830Y-98750D02*
Y-416250D01*
X15398310D01*
G01X15866810D02*
Y-98750D01*
G01X16032170D02*
Y-416250D01*
G01Y-257500D02*
X15866810D01*
G01X16264450Y-416250D02*
X16232950Y-410960D01*
X16205400Y-389800D01*
X16181770Y-358040D01*
X16166020Y-321000D01*
X16158150Y-278670D01*
Y-236330D01*
X16166020Y-194000D01*
X16181770Y-156960D01*
X16205400Y-125210D01*
X16232950Y-104040D01*
X16264450Y-98750D01*
X16295940Y-104040D01*
X16323500Y-125210D01*
X16347130Y-156960D01*
X16362880Y-194000D01*
X16370750Y-236330D01*
Y-278670D01*
X16362880Y-321000D01*
X16347130Y-358040D01*
X16323500Y-389800D01*
X16295940Y-410960D01*
X16264450Y-416250D01*
G01X16500670Y-98750D02*
Y-416250D01*
X16658150D01*
G01X16973110D02*
X16815630D01*
Y-98750D01*
X16973110D01*
G01X16910120Y-252200D02*
X16815630D01*
G01X17126650Y-373930D02*
X17158150Y-400380D01*
X17193580Y-416250D01*
X17225080D01*
X17256570Y-400380D01*
X17280200Y-373930D01*
X17292010Y-336870D01*
X17284140Y-299840D01*
X17264450Y-268090D01*
X17229010Y-246910D01*
X17181770Y-236330D01*
X17154210Y-215170D01*
X17142400Y-178130D01*
X17150280Y-141080D01*
X17169960Y-114630D01*
X17197520Y-98750D01*
X17225080D01*
X17252640Y-109330D01*
X17276260Y-135790D01*
G01X17524290Y-426830D02*
X17516410Y-421540D01*
Y-410960D01*
X17524290Y-405670D01*
X17532170Y-410960D01*
Y-421540D01*
X17524290Y-426830D01*
G01Y-283970D02*
X17516410Y-278670D01*
Y-268090D01*
X17524290Y-262800D01*
X17532170Y-268090D01*
Y-278670D01*
X17524290Y-283970D01*
G01X15479590Y218750D02*
Y536250D01*
X15574080D01*
X15605570Y520370D01*
X15629200Y483330D01*
X15637070Y441000D01*
X15629200Y398670D01*
X15609510Y366910D01*
X15574080Y351030D01*
X15479590D01*
G01X15794550Y536250D02*
Y218750D01*
X15952030D01*
G01X16089820D02*
X16188250Y536250D01*
X16286680Y218750D01*
G01X16251240Y329870D02*
X16125250D01*
G01X16503210Y536250D02*
Y218750D01*
G01X16412660Y536250D02*
X16593760D01*
G01X16896910Y218750D02*
X16739430D01*
Y536250D01*
X16896910D01*
G01X16833920Y382800D02*
X16739430D01*
G01X17046520Y218750D02*
Y536250D01*
X17125250D01*
X17156750Y520370D01*
X17180370Y499210D01*
X17200060Y467460D01*
X17215810Y430410D01*
X17219740Y377500D01*
X17215810Y324580D01*
X17200060Y287540D01*
X17180370Y255780D01*
X17156750Y234620D01*
X17125250Y218750D01*
X17046520D01*
G01X15479590Y853750D02*
Y1171250D01*
X15574080D01*
X15605570Y1155370D01*
X15629200Y1118330D01*
X15637070Y1076000D01*
X15629200Y1033670D01*
X15609510Y1001910D01*
X15574080Y986030D01*
X15479590D01*
G01X15794550Y1171250D02*
Y853750D01*
X15952030D01*
G01X16089820D02*
X16188250Y1171250D01*
X16286680Y853750D01*
G01X16251240Y964870D02*
X16125250D01*
G01X16503210Y1171250D02*
Y853750D01*
G01X16412660Y1171250D02*
X16593760D01*
G01X16896910Y853750D02*
X16739430D01*
Y1171250D01*
X16896910D01*
G01X16833920Y1017800D02*
X16739430D01*
G01X17046520Y853750D02*
Y1171250D01*
X17125250D01*
X17156750Y1155370D01*
X17180370Y1134210D01*
X17200060Y1102460D01*
X17215810Y1065410D01*
X17219740Y1012500D01*
X17215810Y959580D01*
X17200060Y922540D01*
X17180370Y890780D01*
X17156750Y869620D01*
X17125250Y853750D01*
X17046520D01*
G01X15479590Y1488750D02*
Y1806250D01*
X15574080D01*
X15605570Y1790370D01*
X15629200Y1753330D01*
X15637070Y1711000D01*
X15629200Y1668670D01*
X15609510Y1636910D01*
X15574080Y1621030D01*
X15479590D01*
G01X15794550Y1806250D02*
Y1488750D01*
X15952030D01*
G01X16089820D02*
X16188250Y1806250D01*
X16286680Y1488750D01*
G01X16251240Y1599870D02*
X16125250D01*
G01X16503210Y1806250D02*
Y1488750D01*
G01X16412660Y1806250D02*
X16593760D01*
G01X16896910Y1488750D02*
X16739430D01*
Y1806250D01*
X16896910D01*
G01X16833920Y1652800D02*
X16739430D01*
G01X17046520Y1488750D02*
Y1806250D01*
X17125250D01*
X17156750Y1790370D01*
X17180370Y1769210D01*
X17200060Y1737460D01*
X17215810Y1700410D01*
X17219740Y1647500D01*
X17215810Y1594580D01*
X17200060Y1557540D01*
X17180370Y1525780D01*
X17156750Y1504620D01*
X17125250Y1488750D01*
X17046520D01*
G01X15479590Y2123750D02*
Y2441250D01*
X15574080D01*
X15605570Y2425370D01*
X15629200Y2388330D01*
X15637070Y2346000D01*
X15629200Y2303670D01*
X15609510Y2271910D01*
X15574080Y2256030D01*
X15479590D01*
G01X15794550Y2441250D02*
Y2123750D01*
X15952030D01*
G01X16089820D02*
X16188250Y2441250D01*
X16286680Y2123750D01*
G01X16251240Y2234870D02*
X16125250D01*
G01X16503210Y2441250D02*
Y2123750D01*
G01X16412660Y2441250D02*
X16593760D01*
G01X16896910Y2123750D02*
X16739430D01*
Y2441250D01*
X16896910D01*
G01X16833920Y2287800D02*
X16739430D01*
G01X17046520Y2123750D02*
Y2441250D01*
X17125250D01*
X17156750Y2425370D01*
X17180370Y2404210D01*
X17200060Y2372460D01*
X17215810Y2335410D01*
X17219740Y2282500D01*
X17215810Y2229580D01*
X17200060Y2192540D01*
X17180370Y2160780D01*
X17156750Y2139620D01*
X17125250Y2123750D01*
X17046520D01*
G01X15479590Y2758750D02*
Y3076250D01*
X15574080D01*
X15605570Y3060370D01*
X15629200Y3023330D01*
X15637070Y2981000D01*
X15629200Y2938670D01*
X15609510Y2906910D01*
X15574080Y2891030D01*
X15479590D01*
G01X15794550Y3076250D02*
Y2758750D01*
X15952030D01*
G01X16089820D02*
X16188250Y3076250D01*
X16286680Y2758750D01*
G01X16251240Y2869870D02*
X16125250D01*
G01X16503210Y3076250D02*
Y2758750D01*
G01X16412660Y3076250D02*
X16593760D01*
G01X16896910Y2758750D02*
X16739430D01*
Y3076250D01*
X16896910D01*
G01X16833920Y2922800D02*
X16739430D01*
G01X17046520Y2758750D02*
Y3076250D01*
X17125250D01*
X17156750Y3060370D01*
X17180370Y3039210D01*
X17200060Y3007460D01*
X17215810Y2970410D01*
X17219740Y2917500D01*
X17215810Y2864580D01*
X17200060Y2827540D01*
X17180370Y2795780D01*
X17156750Y2774620D01*
X17125250Y2758750D01*
X17046520D01*
G01X15479590Y3393750D02*
Y3711250D01*
X15574080D01*
X15605570Y3695370D01*
X15629200Y3658330D01*
X15637070Y3616000D01*
X15629200Y3573670D01*
X15609510Y3541910D01*
X15574080Y3526030D01*
X15479590D01*
G01X15794550Y3711250D02*
Y3393750D01*
X15952030D01*
G01X16089820D02*
X16188250Y3711250D01*
X16286680Y3393750D01*
G01X16251240Y3504870D02*
X16125250D01*
G01X16503210Y3711250D02*
Y3393750D01*
G01X16412660Y3711250D02*
X16593760D01*
G01X16896910Y3393750D02*
X16739430D01*
Y3711250D01*
X16896910D01*
G01X16833920Y3557800D02*
X16739430D01*
G01X17046520Y3393750D02*
Y3711250D01*
X17125250D01*
X17156750Y3695370D01*
X17180370Y3674210D01*
X17200060Y3642460D01*
X17215810Y3605410D01*
X17219740Y3552500D01*
X17215810Y3499580D01*
X17200060Y3462540D01*
X17180370Y3430780D01*
X17156750Y3409620D01*
X17125250Y3393750D01*
X17046520D01*
G01X15479590Y4028750D02*
Y4346250D01*
X15574080D01*
X15605570Y4330370D01*
X15629200Y4293330D01*
X15637070Y4251000D01*
X15629200Y4208670D01*
X15609510Y4176910D01*
X15574080Y4161030D01*
X15479590D01*
G01X15794550Y4346250D02*
Y4028750D01*
X15952030D01*
G01X16089820D02*
X16188250Y4346250D01*
X16286680Y4028750D01*
G01X16251240Y4139870D02*
X16125250D01*
G01X16503210Y4346250D02*
Y4028750D01*
G01X16412660Y4346250D02*
X16593760D01*
G01X16896910Y4028750D02*
X16739430D01*
Y4346250D01*
X16896910D01*
G01X16833920Y4192800D02*
X16739430D01*
G01X17046520Y4028750D02*
Y4346250D01*
X17125250D01*
X17156750Y4330370D01*
X17180370Y4309210D01*
X17200060Y4277460D01*
X17215810Y4240410D01*
X17219740Y4187500D01*
X17215810Y4134580D01*
X17200060Y4097540D01*
X17180370Y4065780D01*
X17156750Y4044620D01*
X17125250Y4028750D01*
X17046520D01*
G01X18629190Y-416250D02*
Y-98750D01*
X18581950Y-162250D01*
G01Y-416250D02*
X18676430D01*
G01X18936270D02*
X18944150Y-347460D01*
X18955960Y-289260D01*
X18971710Y-236330D01*
X18991390Y-178130D01*
X19022890Y-98750D01*
X18865410D01*
G01X19306350Y-416250D02*
Y-98750D01*
X19160680Y-326290D01*
X19357540D01*
G01X18711860Y3023330D02*
X18735490Y3055080D01*
X18763050Y3070960D01*
X18794550Y3076250D01*
X18833910Y3065670D01*
X18861480Y3039210D01*
X18869350Y3007460D01*
X18865410Y2975700D01*
X18849660Y2949250D01*
X18770920Y2896330D01*
X18735490Y2859290D01*
X18711860Y2806360D01*
X18703990Y2758750D01*
X18869350D01*
G01X19015020Y2806360D02*
X19038630Y2779910D01*
X19066190Y2764040D01*
X19101630Y2758750D01*
X19137070Y2769330D01*
X19164620Y2790490D01*
X19184310Y2827540D01*
X19188240Y2869870D01*
X19180370Y2912200D01*
X19160680Y2938670D01*
X19133120Y2959830D01*
X19105570Y2965120D01*
X19078010Y2959830D01*
X19042580Y2938670D01*
X19054390Y3076250D01*
X19160680D01*
G01X18629190Y3393750D02*
Y3711250D01*
X18581950Y3647750D01*
G01Y3393750D02*
X18676430D01*
G01X18857540Y3457250D02*
X18881150Y3420200D01*
X18912650Y3399040D01*
X18948090Y3393750D01*
X18979590Y3399040D01*
X19011080Y3425490D01*
X19030760Y3457250D01*
X19034700Y3489000D01*
X19026830Y3526030D01*
X18999270Y3552500D01*
X18971710Y3563090D01*
X18936270D01*
G01X18971710D02*
X18995330Y3578960D01*
X19015020Y3605410D01*
X19022890Y3637160D01*
X19015020Y3668920D01*
X18995330Y3695370D01*
X18959900Y3711250D01*
X18924470Y3705960D01*
X18889030Y3684790D01*
G01X19172500Y3457250D02*
X19196110Y3420200D01*
X19227610Y3399040D01*
X19263050Y3393750D01*
X19294550Y3399040D01*
X19326040Y3425490D01*
X19345720Y3457250D01*
X19349660Y3489000D01*
X19341790Y3526030D01*
X19314230Y3552500D01*
X19286670Y3563090D01*
X19251230D01*
G01X19286670D02*
X19310290Y3578960D01*
X19329980Y3605410D01*
X19337850Y3637160D01*
X19329980Y3668920D01*
X19310290Y3695370D01*
X19274860Y3711250D01*
X19239430Y3705960D01*
X19203990Y3684790D01*
G01X18629190Y4028750D02*
X18597690Y4034040D01*
X18570140Y4055200D01*
X18546510Y4086960D01*
X18530760Y4124000D01*
X18522890Y4166330D01*
Y4208670D01*
X18530760Y4251000D01*
X18546510Y4288040D01*
X18570140Y4319790D01*
X18597690Y4340960D01*
X18629190Y4346250D01*
X18660680Y4340960D01*
X18688240Y4319790D01*
X18711870Y4288040D01*
X18727620Y4251000D01*
X18735490Y4208670D01*
Y4166330D01*
X18727620Y4124000D01*
X18711870Y4086960D01*
X18688240Y4055200D01*
X18660680Y4034040D01*
X18629190Y4028750D01*
G01X18660680Y4113420D02*
X18707930Y4028750D01*
G01X18944150Y4346250D02*
Y4028750D01*
G01X18853600Y4346250D02*
X19034700D01*
G01X19259110Y4028750D02*
Y4171620D01*
X19180370Y4346250D01*
G01X19337850D02*
X19259110Y4171620D01*
G01X18869340Y483330D02*
X18892970Y515080D01*
X18920530Y530960D01*
X18952030Y536250D01*
X18991390Y525670D01*
X19018960Y499210D01*
X19026830Y467460D01*
X19022890Y435700D01*
X19007140Y409250D01*
X18928400Y356330D01*
X18892970Y319290D01*
X18869340Y266360D01*
X18861470Y218750D01*
X19026830D01*
G01X18869340Y1118330D02*
X18892970Y1150080D01*
X18920530Y1165960D01*
X18952030Y1171250D01*
X18991390Y1160670D01*
X19018960Y1134210D01*
X19026830Y1102460D01*
X19022890Y1070700D01*
X19007140Y1044250D01*
X18928400Y991330D01*
X18892970Y954290D01*
X18869340Y901360D01*
X18861470Y853750D01*
X19026830D01*
G01X18944150Y1488750D02*
X18971710Y1494040D01*
X19003200Y1509910D01*
X19022890Y1536360D01*
X19030760Y1573420D01*
X19022890Y1610450D01*
X18999270Y1642200D01*
X18963830Y1658090D01*
X18924470D01*
X18900840Y1668670D01*
X18881150Y1695120D01*
X18873280Y1732160D01*
X18885100Y1769210D01*
X18912650Y1795670D01*
X18944150Y1806250D01*
X18975640Y1795670D01*
X19003200Y1769210D01*
X19015020Y1732160D01*
X19007140Y1695120D01*
X18987460Y1668670D01*
X18963830Y1658090D01*
X18924470D01*
X18889030Y1642200D01*
X18865410Y1610450D01*
X18857540Y1573420D01*
X18865410Y1536360D01*
X18885100Y1509910D01*
X18916590Y1494040D01*
X18944150Y1488750D01*
G01X18991390Y2123750D02*
Y2441250D01*
X18845720Y2213710D01*
X19042580D01*
G01X-250000Y0D02*
X-840000D01*
G01X-590000Y1224260D02*
Y0D01*
G01X-652500Y400000D02*
X-590000Y0D01*
X-527500Y400000D01*
X-652500D01*
G01X-590000Y1715740D02*
Y2710000D01*
G01X-527500Y2310000D02*
X-590000Y2710000D01*
X-652500Y2310000D01*
X-527500D01*
G01X-110000Y2710000D02*
X-840000D01*
G01X0Y-250000D02*
Y-660000D01*
G01X400000Y-347500D02*
X0Y-410000D01*
X400000Y-472500D01*
Y-347500D01*
G01X2342640Y-410000D02*
X0D01*
G01X3357360D02*
X6040000D01*
G01Y-140000D02*
Y-660000D01*
G01X5640000Y-472500D02*
X6040000Y-410000D01*
X5640000Y-347500D01*
Y-472500D01*
G01X7330000Y60000D02*
Y5790000D01*
X19928400D01*
Y60000D01*
X7330000D01*
G01Y695000D02*
X19928400D01*
G01X7330000Y1330000D02*
X19928400D01*
G01X7330000Y1965000D02*
X19928400D01*
G01X7330000Y2600000D02*
X19928400D01*
G01X7330000Y3235000D02*
X19928400D01*
G01X7330000Y3870000D02*
X19928400D01*
G01X7330000Y4505000D02*
X19928400D01*
G01X7330000Y5140000D02*
X19928400D01*
G01X9613460Y4505000D02*
Y60000D01*
G01X14731560Y4505000D02*
Y60000D01*
G01X17959900Y4505000D02*
Y60000D01*
M02*
