M48
METRIC,TZ
T01C.254
T02C.3048
T03C1.
T04C1.1
;LEADER: 12 
;HEADER: 
;CODE  : ASCII 
;FILE  : HY_TYPEC_CHRG_V10-1-2.drl for board H:/github/MBED-TOOLS/HARDWARE/HY_TYPEC_CHRG_V10/PCB/#Taaaahy11928.tmp ... layers TOP and BOTTOM
;T01 Holesize 1. = 0.254000 Tolerance = +0.000000/-0.000000 PLATED MM Quantity = 133
;T02 Holesize 2. = 0.304800 Tolerance = +0.000000/-0.000000 PLATED MM Quantity = 25
;T03 Holesize 3. = 1.000000 Tolerance = +0.000000/-0.000000 PLATED MM Quantity = 4
;T04 Holesize 4. = 1.100000 Tolerance = +0.000000/-0.000000 PLATED MM Quantity = 8
%
G90
T01
X280000Y470000
X350000Y470000
X420000Y470000
X120000Y1260000
X190000Y1260000
X260000Y1260000
X330000Y1260000
X480000Y1300000
X120000Y1320000
X190000Y1320000
X260000Y1320000
X330000Y1320000
X320000Y2200000
X380000Y2200000
X440000Y2200000
X320000Y2270000
X380000Y2270000
X440000Y2270000
X150000Y2440000
X210000Y2440000
X270000Y2440000
X880000Y2290000
X880000Y2220000
X880000Y2130000
X790000Y1490000
X840000Y1360000
X776500Y1360000
X780000Y1220000
X840000Y1160000
X1200000Y290000
X1190000Y460000
X1120000Y500000
X1190000Y530000
X1520000Y540000
X1120000Y570000
X1190000Y600000
X1120000Y640000
X1520000Y640000
X1210000Y840000
X1510000Y920000
X1240000Y930000
X1060000Y990000
X1400000Y1350000
X1400000Y1490000
X1140950Y1558710
X1040000Y1610000
X1103500Y1610000
X1160000Y1859200
X1176500Y2110000
X1240000Y2110000
X1360000Y2236500
X1360000Y2300000
X1360000Y2370000
X1920000Y2380000
X1820000Y2380000
X1770000Y1800000
X1940000Y1740000
X1940000Y1680000
X1940000Y1620000
X1940000Y1560000
X1940000Y1500000
X1660000Y1490000
X1530000Y1490000
X1660000Y1350000
X1535000Y1350000
X1970000Y1319120
X1660000Y1220000
X1530000Y1220000
X1780000Y920000
X1700000Y920000
X1580000Y920000
X1960000Y480000
X1980000Y381100
X1813500Y343500
X1750000Y343500
X1980000Y309980
X1813500Y280000
X1750000Y280000
X2180000Y1860000
X2110000Y1860000
X2150000Y1400000
X2070000Y1200000
X2177000Y1040000
X2113500Y1040000
X2050000Y1040000
X2177000Y970000
X2113500Y970000
X2050000Y970000
X2180000Y430000
X2180000Y320000
X2180000Y140000
X2440000Y135880
X2760000Y258420
X2640000Y320000
X2760000Y380940
X2760000Y450000
X2761310Y521580
X3370000Y110000
X3200000Y500000
X3340960Y510000
X3400000Y565880
X3250000Y730000
X3361760Y760000
X3290000Y894240
X3220000Y910000
X3290000Y1006000
X3290000Y1069500
X3290000Y1133000
X3290000Y1196500
X3290000Y1260000
X3510000Y1380000
X3355000Y1450000
X3510000Y1580000
X3260000Y1760000
X4030000Y1550000
X3878240Y1075010
X3934120Y1019130
X3679770Y1010000
X3990000Y969110
X3870000Y960000
X3679770Y920000
X3895010Y738240
X3980000Y310000
X3570000Y110000
X4200000Y100000
X4490000Y110000
X4200000Y260000
X4490000Y270000
X4350000Y560000
X4194990Y724990
X4464120Y772400
X4614920Y840000
X4710000Y650000
T02
X2120000Y2360000
X2760000Y2340000
X2760000Y2140000
X4300000Y2270000
X4150000Y2270000
X4130000Y1830000
X4300000Y1810000
X4620000Y1890000
X4620000Y1520000
X4620000Y1230000
X4710000Y840000
X5150000Y90000
X5143260Y369380
X5143260Y769380
X5143260Y1169380
X5143260Y1569380
X5143260Y1969380
X5143260Y2369380
X5840020Y2583980
X5840020Y2183980
X5840020Y1783980
X5840020Y1383980
X5840020Y983980
X5840020Y583980
X5840020Y183980
T03
X285000Y100000
X1035000Y100000
X1035000Y2610000
X285000Y2610000
T04
X5336000Y350000
X5590000Y350000
X5590000Y950000
X5336000Y950000
X5336000Y1750000
X5590000Y1750000
X5590000Y2350000
X5336000Y2350000
M30
