G04 ================== begin FILE IDENTIFICATION RECORD ==================*
G04 Layout Name:  HY_TYPEC_CHRG_V10.brd*
G04 Film Name:    PasteMask_Bottom*
G04 File Format:  Gerber RS274X*
G04 File Origin:  Cadence Allegro 17.2-S067*
G04 Origin Date:  Tue Sep 29 16:39:21 2020*
G04 *
G04 Layer:  PIN/PASTEMASK_BOTTOM*
G04 Layer:  PACKAGE GEOMETRY/PASTEMASK_BOTTOM*
G04 *
G04 Offset:    (0.0000 0.0000)*
G04 Mirror:    No*
G04 Mode:      Positive*
G04 Rotation:  0*
G04 FullContactRelief:  No*
G04 UndefLineWidth:     0.1524*
G04 ================== end FILE IDENTIFICATION RECORD ====================*
%FSLAX55Y55*MOMM*%
%IR0*IPPOS*OFA0.00000B0.00000*MIA0B0*SFA1.00000B1.00000*%
%ADD28R,1.2X.3*%
%ADD29R,.3X1.2*%
%ADD27R,.5X2.*%
%ADD10R,.6X1.1*%
%ADD15R,1.5X.6*%
%ADD31R,.6X1.5*%
%ADD18R,.8X1.4*%
%ADD24C,.75*%
%ADD23R,.8X.8*%
%ADD22R,1.2X1.*%
%ADD12R,1.X1.2*%
%ADD30R,1.X1.8*%
%ADD26R,3.2X1.8*%
%ADD25R,2.5X3.5*%
%ADD17R,2.1X5.7*%
%ADD11R,.5X.6*%
%ADD16R,.6X.5*%
%ADD13R,.5X.35*%
%ADD19R,4.5X4.5*%
%ADD21R,.8X.25*%
%AMMACRO14*
4,1,28,1.14,1.225,
.725,1.225,
.725,1.525,
.295,1.525,
.295,1.225,
-.84,1.225,
-.84,1.175,
-1.14,1.175,
-1.14,.775,
-.84,.775,
-.84,.525,
-1.14,.525,
-1.14,.125,
-.84,.125,
-.84,-.125,
-1.14,-.125,
-1.14,-.525,
-.84,-.525,
-.84,-.775,
-1.14,-.775,
-1.14,-1.175,
-.84,-1.175,
-.84,-1.225,
.295,-1.225,
.295,-1.525,
.725,-1.525,
.725,-1.225,
1.14,-1.225,
1.14,1.225,
0.0*
%
%ADD14MACRO14*%
%ADD20R,.25X.8*%
%LPD*%
G75*
G54D10*
X325000Y340000D03*
X420000D03*
Y600000D03*
X325000D03*
X515000Y340000D03*
Y600000D03*
G54D20*
X1310000Y1050000D03*
X1360000D03*
Y1650000D03*
X1310000D03*
X1410000Y1050000D03*
X1460000D03*
X1510000D03*
X1560000D03*
X1610000D03*
X1660000D03*
X1710000D03*
X1760000D03*
Y1650000D03*
X1710000D03*
X1660000D03*
X1610000D03*
X1560000D03*
X1510000D03*
X1460000D03*
X1410000D03*
G54D11*
X185000Y350000D03*
X95000D03*
Y470000D03*
X185000D03*
X95000Y740000D03*
X185000D03*
X95000Y590000D03*
X185000D03*
X965000Y1700000D03*
X1055000D03*
Y1840000D03*
X965000D03*
Y1980000D03*
X1055000D03*
Y2087000D03*
X965000D03*
X1055000Y2370000D03*
X965000D03*
X1275000D03*
X1185000D03*
X965000Y2220000D03*
X1055000D03*
X2295000Y1150000D03*
X2205000D03*
X2295000Y1330000D03*
X2205000D03*
X2845000Y290000D03*
X2935000D03*
X3045000D03*
X3135000D03*
X3265000Y420000D03*
Y290000D03*
X2935000Y430000D03*
X2845000D03*
X3135000D03*
X3045000D03*
X2935000Y580000D03*
X2845000D03*
X3135000D03*
X3045000D03*
X3265000Y1360000D03*
X3355000Y420000D03*
Y290000D03*
Y1360000D03*
X4135000Y370000D03*
X4045000D03*
X4265000D03*
X4355000D03*
G54D21*
X1235000Y1425000D03*
Y1375000D03*
Y1325000D03*
Y1275000D03*
Y1225000D03*
Y1175000D03*
Y1125000D03*
Y1575000D03*
Y1525000D03*
Y1475000D03*
X1835000Y1125000D03*
Y1175000D03*
Y1225000D03*
Y1275000D03*
Y1325000D03*
Y1375000D03*
Y1425000D03*
Y1475000D03*
Y1525000D03*
Y1575000D03*
G54D30*
X4075000Y180000D03*
X4325000D03*
G54D12*
X408400Y770000D03*
X331600Y1120000D03*
X128400D03*
X611600Y770000D03*
X1681600Y2380000D03*
X1478400D03*
X1681600Y2560000D03*
X1478400D03*
X2918400Y140000D03*
X3121600D03*
X2918400Y780000D03*
X3121600D03*
X2918400Y1460000D03*
X3121600D03*
X2918400Y1270000D03*
X3121600D03*
X2918400Y1080000D03*
X3121600D03*
G54D13*
X370000Y1422500D03*
Y1487500D03*
Y1552500D03*
Y1617500D03*
G54D22*
X1630000Y351600D03*
Y148400D03*
Y771600D03*
Y568400D03*
X1810000Y771600D03*
Y568400D03*
X2080000D03*
Y771600D03*
X2290000Y568400D03*
Y771600D03*
X3730000Y2338400D03*
X3540000D03*
X3350000D03*
X3730000Y2541600D03*
X3540000D03*
X3350000D03*
X4620000Y2138400D03*
Y2341600D03*
G54D31*
X3920000Y1970000D03*
X4047000D03*
X4174000D03*
Y2510000D03*
X4047000D03*
X3920000D03*
X4301000Y1970000D03*
Y2510000D03*
G54D14*
X179000Y1520000D03*
G54D23*
X2080000Y227600D03*
Y380000D03*
X2290000D03*
Y227600D03*
G54D24*
X1940000Y200000D03*
X3480000Y1740000D03*
X3730000D03*
X4840000Y400000D03*
Y150000D03*
Y900000D03*
Y650000D03*
G54D15*
X190000Y2341000D03*
Y2214000D03*
Y2087000D03*
Y1960000D03*
X730000D03*
Y2087000D03*
Y2214000D03*
Y2341000D03*
G54D16*
X660000Y515000D03*
Y425000D03*
X490000Y1405000D03*
Y1495000D03*
X1220000Y105000D03*
Y195000D03*
X1310000Y1935000D03*
X1170000D03*
X1310000Y2025000D03*
X1170000D03*
X1810000Y115000D03*
Y205000D03*
X1705000Y1865000D03*
X1840000D03*
X1705000Y1955000D03*
X1840000D03*
X3470000Y415000D03*
Y325000D03*
Y115000D03*
Y205000D03*
X3920000Y1785000D03*
Y1695000D03*
X4200000D03*
Y1785000D03*
X4047000Y1695000D03*
Y1785000D03*
X4490000Y465000D03*
Y375000D03*
X4610000D03*
Y465000D03*
X4460000Y2395000D03*
Y2305000D03*
Y2185000D03*
Y2095000D03*
G54D25*
X2050000Y2107000D03*
X3090000D03*
G54D17*
X875000Y570000D03*
X1365000D03*
G54D26*
X2600000Y780000D03*
Y1420000D03*
G54D18*
X785000Y990000D03*
X1135000D03*
G54D27*
X3670000Y180000D03*
X3910000D03*
X3790000D03*
G54D19*
X1535000Y1350000D03*
G54D28*
X3495000Y975010D03*
Y924990D03*
Y875010D03*
Y824990D03*
Y775010D03*
Y724990D03*
Y1275010D03*
Y1224990D03*
Y1175010D03*
Y1124990D03*
Y1075010D03*
Y1024990D03*
X4345000Y724990D03*
Y775010D03*
Y824990D03*
Y875010D03*
Y924990D03*
Y975010D03*
Y1024990D03*
Y1075010D03*
Y1124990D03*
Y1175010D03*
Y1224990D03*
Y1275010D03*
G54D29*
X3644990Y575000D03*
X3695010D03*
Y1425000D03*
X3644990D03*
X3744990Y575000D03*
X3795010D03*
X3844990D03*
X3895010D03*
X3944990D03*
X3995010D03*
X4044990D03*
X4095010D03*
X4144990D03*
X4195010D03*
Y1425000D03*
X4144990D03*
X4095010D03*
X4044990D03*
X3995010D03*
X3944990D03*
X3895010D03*
X3844990D03*
X3795010D03*
X3744990D03*
M02*
