G04 ================== begin FILE IDENTIFICATION RECORD ==================*
G04 Layout Name:  HY_TYPEC_CHRG_V10.brd*
G04 Film Name:    SilkScreen_Top*
G04 File Format:  Gerber RS274X*
G04 File Origin:  Cadence Allegro 17.2-S067*
G04 Origin Date:  Tue Sep 29 16:39:21 2020*
G04 *
G04 Layer:  PACKAGE GEOMETRY/SILKSCREEN_TOP*
G04 Layer:  BOARD GEOMETRY/SILKSCREEN_TOP*
G04 *
G04 Offset:    (0.0000 0.0000)*
G04 Mirror:    No*
G04 Mode:      Positive*
G04 Rotation:  0*
G04 FullContactRelief:  No*
G04 UndefLineWidth:     0.1524*
G04 ================== end FILE IDENTIFICATION RECORD ====================*
%FSLAX55Y55*MOMM*%
%IR0*IPPOS*OFA0.00000B0.00000*MIA0B0*SFA1.00000B1.00000*%
%ADD10C,.2*%
%ADD11C,.4*%
%ADD12C,.2032*%
%ADD13C,.1524*%
%ADD14C,.1778*%
G75*
%LPD*%
G75*
G36*
G01X20000Y1960000D02*
X120000Y2060000D01*
Y1990000D01*
X410000D01*
Y2060000D01*
X510000Y1960000D01*
X410000Y1860000D01*
Y1920000D01*
X120000D01*
Y1860000D01*
X20000Y1960000D01*
G37*
G36*
G01X4220000Y1790000D02*
Y1860000D01*
X4320000D01*
Y1790000D01*
X4220000D01*
G37*
G36*
G01X4940000Y280000D02*
X4870000Y350000D01*
Y210000D01*
X4940000Y280000D01*
G37*
G36*
G01X5450000Y120000D02*
X5380000Y190000D01*
Y50000D01*
X5450000Y120000D01*
G37*
G36*
G01X5590000Y480000D02*
X5640000Y530000D01*
X5540000D01*
X5590000Y480000D01*
G37*
G36*
G01Y1080000D02*
X5640000Y1130000D01*
X5540000D01*
X5590000Y1080000D01*
G37*
G36*
G01Y1880000D02*
X5640000Y1930000D01*
X5540000D01*
X5590000Y1880000D01*
G37*
G36*
G01Y2480000D02*
X5640000Y2530000D01*
X5540000D01*
X5590000Y2480000D01*
G37*
G54D10*
G01X40000Y1810000D02*
X-70000D01*
Y910000D01*
X40000D01*
G01X240000D02*
X430000D01*
G01Y1810000D02*
X240000D01*
G01X490000Y480000D02*
X460000D01*
Y660000D01*
X490000D01*
G01X830000Y480000D02*
Y660000D01*
X490000D01*
Y480000D01*
X830000D01*
G01X760000Y1980000D02*
X1460000D01*
Y730000D01*
X760000D01*
Y1980000D01*
G01X680000Y910000D02*
Y980000D01*
G01Y1810000D02*
Y1740000D01*
G01X490000Y2080000D02*
X460000D01*
Y2260000D01*
X490000D01*
G01X830000Y2080000D02*
Y2260000D01*
X490000D01*
Y2080000D01*
X830000D01*
G01X3470000Y20000D02*
X1540000D01*
Y2690000D01*
X3470000D01*
Y20000D01*
G01X2370000Y220000D02*
X2970000D01*
G01D02*
Y2420000D01*
X2370000D01*
G01X3473700Y723700D02*
X3470000Y720000D01*
X2970000D01*
Y1920000D01*
X3470000D01*
Y720000D01*
G01X4100000Y910000D02*
X4070000D01*
Y1090000D01*
X4100000D01*
G01X4440000Y910000D02*
Y1090000D01*
X4100000D01*
Y910000D01*
X4440000D01*
G01X4100000Y1310000D02*
Y1130000D01*
X4440000D01*
Y1310000D01*
X4100000D01*
G01Y1530000D02*
Y1350000D01*
X4440000D01*
Y1530000D01*
X4100000D01*
G01Y1570000D02*
X4070000D01*
Y1750000D01*
X4100000D01*
G01X4440000Y1570000D02*
Y1750000D01*
X4100000D01*
Y1570000D01*
X4440000D01*
G01Y1310000D02*
X4470000D01*
Y1130000D01*
X4440000D01*
G01Y1530000D02*
X4470000D01*
Y1350000D01*
X4440000D01*
G01X4780000Y280000D02*
X4930000D01*
G01X4780000Y120000D02*
X5440000D01*
G01X5723000Y220000D02*
Y480000D01*
X5203000D01*
Y220000D01*
X5723000D01*
G01Y820000D02*
Y1080000D01*
X5203000D01*
Y820000D01*
X5723000D01*
G01Y1620000D02*
Y1880000D01*
X5203000D01*
Y1620000D01*
X5723000D01*
G01Y2220000D02*
Y2480000D01*
X5203000D01*
Y2220000D01*
X5723000D01*
G54D11*
G01X4090000Y880000D02*
X4470000D01*
Y1780000D01*
X4070000D01*
Y880000D01*
X4090000D01*
G01X4070000Y1110000D02*
X4460000D01*
G01X4070000Y1330000D02*
X4460000D01*
G01X4070000Y1550000D02*
X4460000D01*
G54D12*
G01X1050000Y-10000D02*
X830000D01*
Y-120000D01*
X490000D01*
Y-10000D01*
X270000D01*
G01X260000Y210000D02*
Y270000D01*
X350000D01*
G01X270000Y2720000D02*
X490000D01*
Y2830000D01*
X830000D01*
Y2720000D01*
X1050000D01*
G01X350000Y2440000D02*
X260000D01*
Y2500000D01*
G01X530000Y270000D02*
X790000D01*
G01Y2440000D02*
X530000D01*
G01X970000Y270000D02*
X1060000D01*
Y210000D01*
G01Y2500000D02*
Y2440000D01*
X970000D01*
G54D13*
G01X63000Y550500D02*
X70000Y543000D01*
X78000Y540000D01*
X86000Y543000D01*
X93000Y552000D01*
X98000Y565500D01*
X100000Y579000D01*
Y595500D01*
X98000Y609000D01*
X93000Y621000D01*
X87000Y627000D01*
X80000Y630000D01*
X72000Y627000D01*
X66000Y621000D01*
X62000Y612000D01*
X60000Y600000D01*
X62000Y589500D01*
X67000Y579000D01*
X73000Y573000D01*
X80000Y571500D01*
X88000Y574500D01*
X94000Y582000D01*
X100000Y595500D01*
G01X132000Y537000D02*
X168000Y630000D01*
G01X201000Y615000D02*
X207000Y624000D01*
X214000Y628500D01*
X222000Y630000D01*
X232000Y627000D01*
X239000Y619500D01*
X241000Y610500D01*
X240000Y601500D01*
X236000Y594000D01*
X216000Y579000D01*
X207000Y568500D01*
X201000Y553500D01*
X199000Y540000D01*
X241000D01*
G01X265000D02*
X290000Y630000D01*
X315000Y540000D01*
G01X306000Y571500D02*
X274000D01*
G01X70000Y380000D02*
Y470000D01*
X58000Y452000D01*
G01Y380000D02*
X82000D01*
G01X121000Y455000D02*
X127000Y464000D01*
X134000Y468500D01*
X142000Y470000D01*
X152000Y467000D01*
X159000Y459500D01*
X161000Y450500D01*
X160000Y441500D01*
X156000Y434000D01*
X136000Y419000D01*
X127000Y408500D01*
X121000Y393500D01*
X119000Y380000D01*
X161000D01*
G01X185000Y470000D02*
X210000Y380000D01*
X235000Y470000D01*
G01X262000Y377000D02*
X298000Y470000D01*
G01X350000Y380000D02*
Y470000D01*
X338000Y452000D01*
G01Y380000D02*
X362000D01*
G01X420000Y377000D02*
X418000Y378500D01*
Y381500D01*
X420000Y383000D01*
X422000Y381500D01*
Y378500D01*
X420000Y377000D01*
G01X468000Y393500D02*
X474000Y386000D01*
X481000Y381500D01*
X490000Y380000D01*
X499000Y383000D01*
X506000Y389000D01*
X511000Y399500D01*
X512000Y411500D01*
X510000Y423500D01*
X505000Y431000D01*
X498000Y437000D01*
X491000Y438500D01*
X484000Y437000D01*
X475000Y431000D01*
X478000Y470000D01*
X505000D01*
G01X535000Y380000D02*
X560000Y470000D01*
X585000Y380000D01*
G01X576000Y411500D02*
X544000D01*
G01X58000Y713500D02*
X64000Y706000D01*
X71000Y701500D01*
X80000Y700000D01*
X89000Y703000D01*
X96000Y709000D01*
X101000Y719500D01*
X102000Y731500D01*
X100000Y743500D01*
X95000Y751000D01*
X88000Y757000D01*
X81000Y758500D01*
X74000Y757000D01*
X65000Y751000D01*
X68000Y790000D01*
X95000D01*
G01X125000D02*
X150000Y700000D01*
X175000Y790000D01*
G01X202000Y697000D02*
X238000Y790000D01*
G01X268000Y718000D02*
X274000Y707500D01*
X282000Y701500D01*
X291000Y700000D01*
X299000Y701500D01*
X307000Y709000D01*
X312000Y718000D01*
X313000Y727000D01*
X311000Y737500D01*
X304000Y745000D01*
X297000Y748000D01*
X288000D01*
G01X297000D02*
X303000Y752500D01*
X308000Y760000D01*
X310000Y769000D01*
X308000Y778000D01*
X303000Y785500D01*
X294000Y790000D01*
X285000Y788500D01*
X276000Y782500D01*
G01X335000Y700000D02*
X360000Y790000D01*
X385000Y700000D01*
G01X376000Y731500D02*
X344000D01*
G01X68000Y2160000D02*
X92000D01*
G01X80000D02*
Y2070000D01*
G01X68000D02*
X92000D01*
G01X127000D02*
Y2160000D01*
X173000Y2070000D01*
Y2160000D01*
G01X202000Y2067000D02*
X238000Y2160000D01*
G01X290000Y2070000D02*
X282000Y2071500D01*
X275000Y2077500D01*
X269000Y2086500D01*
X265000Y2097000D01*
X263000Y2109000D01*
Y2121000D01*
X265000Y2133000D01*
X269000Y2143500D01*
X275000Y2152500D01*
X282000Y2158500D01*
X290000Y2160000D01*
X298000Y2158500D01*
X305000Y2152500D01*
X311000Y2143500D01*
X315000Y2133000D01*
X317000Y2121000D01*
Y2109000D01*
X315000Y2097000D01*
X311000Y2086500D01*
X305000Y2077500D01*
X298000Y2071500D01*
X290000Y2070000D01*
G01X338000Y2160000D02*
Y2095500D01*
X342000Y2082000D01*
X350000Y2073000D01*
X360000Y2070000D01*
X370000Y2073000D01*
X378000Y2082000D01*
X382000Y2095500D01*
Y2160000D01*
G01X430000D02*
Y2070000D01*
G01X407000Y2160000D02*
X453000D01*
G01X880000Y550000D02*
Y460000D01*
X920000D01*
G01X990000D02*
X950000D01*
Y550000D01*
X990000D01*
G01X974000Y506500D02*
X950000D01*
G01X1018000Y460000D02*
Y550000D01*
X1038000D01*
X1046000Y545500D01*
X1052000Y539500D01*
X1057000Y530500D01*
X1061000Y520000D01*
X1062000Y505000D01*
X1061000Y490000D01*
X1057000Y479500D01*
X1052000Y470500D01*
X1046000Y464500D01*
X1038000Y460000D01*
X1018000D01*
G01X878000Y670000D02*
Y605500D01*
X882000Y592000D01*
X890000Y583000D01*
X900000Y580000D01*
X910000Y583000D01*
X918000Y592000D01*
X922000Y605500D01*
Y670000D01*
G01X949000Y592000D02*
X957000Y584500D01*
X966000Y580000D01*
X974000D01*
X982000Y584500D01*
X988000Y592000D01*
X991000Y602500D01*
X989000Y613000D01*
X984000Y622000D01*
X975000Y628000D01*
X963000Y631000D01*
X956000Y637000D01*
X953000Y647500D01*
X955000Y658000D01*
X960000Y665500D01*
X967000Y670000D01*
X974000D01*
X981000Y667000D01*
X987000Y659500D01*
G01X1060000Y580000D02*
X1020000D01*
Y670000D01*
X1060000D01*
G01X1044000Y626500D02*
X1020000D01*
G01X1090000Y580000D02*
Y670000D01*
X1115000D01*
X1123000Y665500D01*
X1128000Y659500D01*
X1130000Y647500D01*
X1128000Y635500D01*
X1122000Y628000D01*
X1115000Y623500D01*
X1090000D01*
G01X1115000D02*
X1130000Y580000D01*
G01X838000Y945780D02*
X842000Y950280D01*
X845000Y957780D01*
X847000Y968280D01*
X845000Y977280D01*
X841000Y983280D01*
X834000Y987780D01*
X807000D01*
Y897780D01*
X840000D01*
X847000Y903780D01*
X851000Y912780D01*
X853000Y923280D01*
X851000Y933780D01*
X845000Y942780D01*
X838000Y945780D01*
X807000D01*
G01X922000Y980280D02*
X916000Y984780D01*
X909000Y987780D01*
X901000D01*
X892000Y983280D01*
X885000Y975780D01*
X880000Y966780D01*
X876000Y951780D01*
X875000Y938280D01*
X877000Y924780D01*
X880000Y915780D01*
X886000Y906780D01*
X893000Y900780D01*
X900000Y897780D01*
X907000D01*
X914000Y900780D01*
X920000Y905280D01*
X925000Y911280D01*
G01X970000Y897780D02*
Y987780D01*
X958000Y969780D01*
G01Y897780D02*
X982000D01*
G01X1040000Y894780D02*
X1038000Y896280D01*
Y899280D01*
X1040000Y900780D01*
X1042000Y899280D01*
Y896280D01*
X1040000Y894780D01*
G01X1091000Y972780D02*
X1097000Y981780D01*
X1104000Y986280D01*
X1112000Y987780D01*
X1122000Y984780D01*
X1129000Y977280D01*
X1131000Y968280D01*
X1130000Y959280D01*
X1126000Y951780D01*
X1106000Y936780D01*
X1097000Y926280D01*
X1091000Y911280D01*
X1089000Y897780D01*
X1131000D01*
G01X805000Y780000D02*
X830000Y870000D01*
X855000Y780000D01*
G01X846000Y811500D02*
X814000D01*
G01X880000Y780000D02*
Y870000D01*
X904000D01*
X912000Y865500D01*
X918000Y855000D01*
X920000Y843000D01*
X918000Y831000D01*
X913000Y822000D01*
X904000Y817500D01*
X880000D01*
G01X950000Y780000D02*
Y870000D01*
X974000D01*
X982000Y865500D01*
X988000Y855000D01*
X990000Y843000D01*
X988000Y831000D01*
X983000Y822000D01*
X974000Y817500D01*
X950000D01*
G01X1020000Y870000D02*
Y780000D01*
X1060000D01*
G01X1130000D02*
X1090000D01*
Y870000D01*
X1130000D01*
G01X1114000Y826500D02*
X1090000D01*
G01X1161000Y855000D02*
X1167000Y864000D01*
X1174000Y868500D01*
X1182000Y870000D01*
X1192000Y867000D01*
X1199000Y859500D01*
X1201000Y850500D01*
X1200000Y841500D01*
X1196000Y834000D01*
X1176000Y819000D01*
X1167000Y808500D01*
X1161000Y793500D01*
X1159000Y780000D01*
X1201000D01*
G01X1250000Y777000D02*
X1248000Y778500D01*
Y781500D01*
X1250000Y783000D01*
X1252000Y781500D01*
Y778500D01*
X1250000Y777000D01*
G01X1332000Y780000D02*
Y870000D01*
X1295000Y805500D01*
X1345000D01*
G01X1365000Y780000D02*
X1390000Y870000D01*
X1415000Y780000D01*
G01X1406000Y811500D02*
X1374000D01*
G01X805000Y1368890D02*
X830000Y1458890D01*
X855000Y1368890D01*
G01X846000Y1400390D02*
X814000D01*
G01X881000Y1368890D02*
Y1458890D01*
X919000D01*
G01X905000Y1415390D02*
X881000D01*
G01X992000Y1451390D02*
X986000Y1455890D01*
X979000Y1458890D01*
X971000D01*
X962000Y1454390D01*
X955000Y1446890D01*
X950000Y1437890D01*
X946000Y1422890D01*
X945000Y1409390D01*
X947000Y1395890D01*
X950000Y1386890D01*
X956000Y1377890D01*
X963000Y1371890D01*
X970000Y1368890D01*
X977000D01*
X984000Y1371890D01*
X990000Y1376390D01*
X995000Y1382390D01*
G01X809000Y1263110D02*
X817000Y1255610D01*
X826000Y1251110D01*
X834000D01*
X842000Y1255610D01*
X848000Y1263110D01*
X851000Y1273610D01*
X849000Y1284110D01*
X844000Y1293110D01*
X835000Y1299110D01*
X823000Y1302110D01*
X816000Y1308110D01*
X813000Y1318610D01*
X815000Y1329110D01*
X820000Y1336610D01*
X827000Y1341110D01*
X834000D01*
X841000Y1338110D01*
X847000Y1330610D01*
G01X881000Y1251110D02*
Y1341110D01*
X919000D01*
G01X905000Y1297610D02*
X881000D01*
G01X992000Y1333610D02*
X986000Y1338110D01*
X979000Y1341110D01*
X971000D01*
X962000Y1336610D01*
X955000Y1329110D01*
X950000Y1320110D01*
X946000Y1305110D01*
X945000Y1291610D01*
X947000Y1278110D01*
X950000Y1269110D01*
X956000Y1260110D01*
X963000Y1254110D01*
X970000Y1251110D01*
X977000D01*
X984000Y1254110D01*
X990000Y1258610D01*
X995000Y1264610D01*
G01X1020000Y1251110D02*
Y1341110D01*
X1044000D01*
X1052000Y1336610D01*
X1058000Y1326110D01*
X1060000Y1314110D01*
X1058000Y1302110D01*
X1053000Y1293110D01*
X1044000Y1288610D01*
X1020000D01*
G01X804000Y1133330D02*
Y1223330D01*
X830000Y1148330D01*
X856000Y1223330D01*
Y1133330D01*
G01X900000Y1223330D02*
Y1133330D01*
G01X877000Y1223330D02*
X923000D01*
G01X948000Y1133330D02*
Y1223330D01*
G01X986000D02*
X948000Y1167830D01*
G01X992000Y1133330D02*
X965000Y1193330D01*
G01X808000Y1105560D02*
Y1041060D01*
X812000Y1027560D01*
X820000Y1018560D01*
X830000Y1015560D01*
X840000Y1018560D01*
X848000Y1027560D01*
X852000Y1041060D01*
Y1105560D01*
G01X879000Y1027560D02*
X887000Y1020060D01*
X896000Y1015560D01*
X904000D01*
X912000Y1020060D01*
X918000Y1027560D01*
X921000Y1038060D01*
X919000Y1048560D01*
X914000Y1057560D01*
X905000Y1063560D01*
X893000Y1066560D01*
X886000Y1072560D01*
X883000Y1083060D01*
X885000Y1093560D01*
X890000Y1101060D01*
X897000Y1105560D01*
X904000D01*
X911000Y1102560D01*
X917000Y1095060D01*
G01X978000Y1063560D02*
X982000Y1068060D01*
X985000Y1075560D01*
X987000Y1086060D01*
X985000Y1095060D01*
X981000Y1101060D01*
X974000Y1105560D01*
X947000D01*
Y1015560D01*
X980000D01*
X987000Y1021560D01*
X991000Y1030560D01*
X993000Y1041060D01*
X991000Y1051560D01*
X985000Y1060560D01*
X978000Y1063560D01*
X947000D01*
G01X1132000Y1098060D02*
X1126000Y1102560D01*
X1119000Y1105560D01*
X1111000D01*
X1102000Y1101060D01*
X1095000Y1093560D01*
X1090000Y1084560D01*
X1086000Y1069560D01*
X1085000Y1056060D01*
X1087000Y1042560D01*
X1090000Y1033560D01*
X1096000Y1024560D01*
X1103000Y1018560D01*
X1110000Y1015560D01*
X1117000D01*
X1124000Y1018560D01*
X1130000Y1023060D01*
X1135000Y1029060D01*
G01X1228000Y1015560D02*
Y1105560D01*
X1248000D01*
X1256000Y1101060D01*
X1262000Y1095060D01*
X1267000Y1086060D01*
X1271000Y1075560D01*
X1272000Y1060560D01*
X1271000Y1045560D01*
X1267000Y1035060D01*
X1262000Y1026060D01*
X1256000Y1020060D01*
X1248000Y1015560D01*
X1228000D01*
G01X1300000D02*
Y1105560D01*
X1325000D01*
X1333000Y1101060D01*
X1338000Y1095060D01*
X1340000Y1083060D01*
X1338000Y1071060D01*
X1332000Y1063560D01*
X1325000Y1059060D01*
X1300000D01*
G01X1325000D02*
X1340000Y1015560D01*
G01X1370000D02*
Y1105560D01*
X1394000D01*
X1402000Y1101060D01*
X1408000Y1090560D01*
X1410000Y1078560D01*
X1408000Y1066560D01*
X1403000Y1057560D01*
X1394000Y1053060D01*
X1370000D01*
G01X830000Y1840000D02*
X822000Y1841500D01*
X815000Y1847500D01*
X809000Y1856500D01*
X805000Y1867000D01*
X803000Y1879000D01*
Y1891000D01*
X805000Y1903000D01*
X809000Y1913500D01*
X815000Y1922500D01*
X822000Y1928500D01*
X830000Y1930000D01*
X838000Y1928500D01*
X845000Y1922500D01*
X851000Y1913500D01*
X855000Y1903000D01*
X857000Y1891000D01*
Y1879000D01*
X855000Y1867000D01*
X851000Y1856500D01*
X845000Y1847500D01*
X838000Y1841500D01*
X830000Y1840000D01*
G01X838000Y1864000D02*
X850000Y1840000D01*
G01X922000Y1922500D02*
X916000Y1927000D01*
X909000Y1930000D01*
X901000D01*
X892000Y1925500D01*
X885000Y1918000D01*
X880000Y1909000D01*
X876000Y1894000D01*
X875000Y1880500D01*
X877000Y1867000D01*
X880000Y1858000D01*
X886000Y1849000D01*
X893000Y1843000D01*
X900000Y1840000D01*
X907000D01*
X914000Y1843000D01*
X920000Y1847500D01*
X925000Y1853500D01*
G01X951000Y1915000D02*
X957000Y1924000D01*
X964000Y1928500D01*
X972000Y1930000D01*
X982000Y1927000D01*
X989000Y1919500D01*
X991000Y1910500D01*
X990000Y1901500D01*
X986000Y1894000D01*
X966000Y1879000D01*
X957000Y1868500D01*
X951000Y1853500D01*
X949000Y1840000D01*
X991000D01*
G01X1040000Y1837000D02*
X1038000Y1838500D01*
Y1841500D01*
X1040000Y1843000D01*
X1042000Y1841500D01*
Y1838500D01*
X1040000Y1837000D01*
G01X1110000Y1930000D02*
X1102000Y1927000D01*
X1096000Y1919500D01*
X1092000Y1910500D01*
X1089000Y1898500D01*
X1088000Y1885000D01*
X1089000Y1871500D01*
X1092000Y1859500D01*
X1096000Y1850500D01*
X1102000Y1843000D01*
X1110000Y1840000D01*
X1118000Y1843000D01*
X1124000Y1850500D01*
X1128000Y1859500D01*
X1131000Y1871500D01*
X1132000Y1885000D01*
X1131000Y1898500D01*
X1128000Y1910500D01*
X1124000Y1919500D01*
X1118000Y1927000D01*
X1110000Y1930000D01*
G01X1162000Y1837000D02*
X1198000Y1930000D01*
G01X1228000Y1858000D02*
X1234000Y1847500D01*
X1242000Y1841500D01*
X1251000Y1840000D01*
X1259000Y1841500D01*
X1267000Y1849000D01*
X1272000Y1858000D01*
X1273000Y1867000D01*
X1271000Y1877500D01*
X1264000Y1885000D01*
X1257000Y1888000D01*
X1248000D01*
G01X1257000D02*
X1263000Y1892500D01*
X1268000Y1900000D01*
X1270000Y1909000D01*
X1268000Y1918000D01*
X1263000Y1925500D01*
X1254000Y1930000D01*
X1245000Y1928500D01*
X1236000Y1922500D01*
G01X1320000Y1837000D02*
X1318000Y1838500D01*
Y1841500D01*
X1320000Y1843000D01*
X1322000Y1841500D01*
Y1838500D01*
X1320000Y1837000D01*
G01X1390000Y1930000D02*
X1382000Y1927000D01*
X1376000Y1919500D01*
X1372000Y1910500D01*
X1369000Y1898500D01*
X1368000Y1885000D01*
X1369000Y1871500D01*
X1372000Y1859500D01*
X1376000Y1850500D01*
X1382000Y1843000D01*
X1390000Y1840000D01*
X1398000Y1843000D01*
X1404000Y1850500D01*
X1408000Y1859500D01*
X1411000Y1871500D01*
X1412000Y1885000D01*
X1411000Y1898500D01*
X1408000Y1910500D01*
X1404000Y1919500D01*
X1398000Y1927000D01*
X1390000Y1930000D01*
G01X810000Y1722220D02*
Y1812220D01*
X834000D01*
X842000Y1807720D01*
X848000Y1797220D01*
X850000Y1785220D01*
X848000Y1773220D01*
X843000Y1764220D01*
X834000Y1759720D01*
X810000D01*
G01X878000Y1722220D02*
Y1812220D01*
X898000D01*
X906000Y1807720D01*
X912000Y1801720D01*
X917000Y1792720D01*
X921000Y1782220D01*
X922000Y1767220D01*
X921000Y1752220D01*
X917000Y1741720D01*
X912000Y1732720D01*
X906000Y1726720D01*
X898000Y1722220D01*
X878000D01*
G01X951000Y1797220D02*
X957000Y1806220D01*
X964000Y1810720D01*
X972000Y1812220D01*
X982000Y1809220D01*
X989000Y1801720D01*
X991000Y1792720D01*
X990000Y1783720D01*
X986000Y1776220D01*
X966000Y1761220D01*
X957000Y1750720D01*
X951000Y1735720D01*
X949000Y1722220D01*
X991000D01*
G01X1040000Y1719220D02*
X1038000Y1720720D01*
Y1723720D01*
X1040000Y1725220D01*
X1042000Y1723720D01*
Y1720720D01*
X1040000Y1719220D01*
G01X1110000Y1812220D02*
X1102000Y1809220D01*
X1096000Y1801720D01*
X1092000Y1792720D01*
X1089000Y1780720D01*
X1088000Y1767220D01*
X1089000Y1753720D01*
X1092000Y1741720D01*
X1096000Y1732720D01*
X1102000Y1725220D01*
X1110000Y1722220D01*
X1118000Y1725220D01*
X1124000Y1732720D01*
X1128000Y1741720D01*
X1131000Y1753720D01*
X1132000Y1767220D01*
X1131000Y1780720D01*
X1128000Y1792720D01*
X1124000Y1801720D01*
X1118000Y1809220D01*
X1110000Y1812220D01*
G01X811000Y1486670D02*
Y1576670D01*
X849000D01*
G01X835000Y1533170D02*
X811000D01*
G01X922000Y1569170D02*
X916000Y1573670D01*
X909000Y1576670D01*
X901000D01*
X892000Y1572170D01*
X885000Y1564670D01*
X880000Y1555670D01*
X876000Y1540670D01*
X875000Y1527170D01*
X877000Y1513670D01*
X880000Y1504670D01*
X886000Y1495670D01*
X893000Y1489670D01*
X900000Y1486670D01*
X907000D01*
X914000Y1489670D01*
X920000Y1494170D01*
X925000Y1500170D01*
G01X950000Y1486670D02*
Y1576670D01*
X974000D01*
X982000Y1572170D01*
X988000Y1561670D01*
X990000Y1549670D01*
X988000Y1537670D01*
X983000Y1528670D01*
X974000Y1524170D01*
X950000D01*
G01X810000Y1604440D02*
Y1694440D01*
X834000D01*
X842000Y1689940D01*
X848000Y1679440D01*
X850000Y1667440D01*
X848000Y1655440D01*
X843000Y1646440D01*
X834000Y1641940D01*
X810000D01*
G01X878000Y1604440D02*
Y1694440D01*
X898000D01*
X906000Y1689940D01*
X912000Y1683940D01*
X917000Y1674940D01*
X921000Y1664440D01*
X922000Y1649440D01*
X921000Y1634440D01*
X917000Y1623940D01*
X912000Y1614940D01*
X906000Y1608940D01*
X898000Y1604440D01*
X878000D01*
G01X948000Y1622440D02*
X954000Y1611940D01*
X962000Y1605940D01*
X971000Y1604440D01*
X979000Y1605940D01*
X987000Y1613440D01*
X992000Y1622440D01*
X993000Y1631440D01*
X991000Y1641940D01*
X984000Y1649440D01*
X977000Y1652440D01*
X968000D01*
G01X977000D02*
X983000Y1656940D01*
X988000Y1664440D01*
X990000Y1673440D01*
X988000Y1682440D01*
X983000Y1689940D01*
X974000Y1694440D01*
X965000Y1692940D01*
X956000Y1686940D01*
G01X1040000Y1601440D02*
X1038000Y1602940D01*
Y1605940D01*
X1040000Y1607440D01*
X1042000Y1605940D01*
Y1602940D01*
X1040000Y1601440D01*
G01X1110000Y1694440D02*
X1102000Y1691440D01*
X1096000Y1683940D01*
X1092000Y1674940D01*
X1089000Y1662940D01*
X1088000Y1649440D01*
X1089000Y1635940D01*
X1092000Y1623940D01*
X1096000Y1614940D01*
X1102000Y1607440D01*
X1110000Y1604440D01*
X1118000Y1607440D01*
X1124000Y1614940D01*
X1128000Y1623940D01*
X1131000Y1635940D01*
X1132000Y1649440D01*
X1131000Y1662940D01*
X1128000Y1674940D01*
X1124000Y1683940D01*
X1118000Y1691440D01*
X1110000Y1694440D01*
G01X1230000Y1604440D02*
Y1694440D01*
X1254000D01*
X1262000Y1689940D01*
X1268000Y1679440D01*
X1270000Y1667440D01*
X1268000Y1655440D01*
X1263000Y1646440D01*
X1254000Y1641940D01*
X1230000D01*
G01X1300000Y1604440D02*
Y1694440D01*
X1324000D01*
X1332000Y1689940D01*
X1338000Y1679440D01*
X1340000Y1667440D01*
X1338000Y1655440D01*
X1333000Y1646440D01*
X1324000Y1641940D01*
X1300000D01*
G01X1369000Y1616440D02*
X1377000Y1608940D01*
X1386000Y1604440D01*
X1394000D01*
X1402000Y1608940D01*
X1408000Y1616440D01*
X1411000Y1626940D01*
X1409000Y1637440D01*
X1404000Y1646440D01*
X1395000Y1652440D01*
X1383000Y1655440D01*
X1376000Y1661440D01*
X1373000Y1671940D01*
X1375000Y1682440D01*
X1380000Y1689940D01*
X1387000Y1694440D01*
X1394000D01*
X1401000Y1691440D01*
X1407000Y1683940D01*
G01X900000Y2180000D02*
X892000Y2181500D01*
X885000Y2187500D01*
X879000Y2196500D01*
X875000Y2207000D01*
X873000Y2219000D01*
Y2231000D01*
X875000Y2243000D01*
X879000Y2253500D01*
X885000Y2262500D01*
X892000Y2268500D01*
X900000Y2270000D01*
X908000Y2268500D01*
X915000Y2262500D01*
X921000Y2253500D01*
X925000Y2243000D01*
X927000Y2231000D01*
Y2219000D01*
X925000Y2207000D01*
X921000Y2196500D01*
X915000Y2187500D01*
X908000Y2181500D01*
X900000Y2180000D01*
G01X908000Y2204000D02*
X920000Y2180000D01*
G01X948000Y2270000D02*
Y2205500D01*
X952000Y2192000D01*
X960000Y2183000D01*
X970000Y2180000D01*
X980000Y2183000D01*
X988000Y2192000D01*
X992000Y2205500D01*
Y2270000D01*
G01X1028000D02*
X1052000D01*
G01X1040000D02*
Y2180000D01*
G01X1028000D02*
X1052000D01*
G01X1132000Y2262500D02*
X1126000Y2267000D01*
X1119000Y2270000D01*
X1111000D01*
X1102000Y2265500D01*
X1095000Y2258000D01*
X1090000Y2249000D01*
X1086000Y2234000D01*
X1085000Y2220500D01*
X1087000Y2207000D01*
X1090000Y2198000D01*
X1096000Y2189000D01*
X1103000Y2183000D01*
X1110000Y2180000D01*
X1117000D01*
X1124000Y2183000D01*
X1130000Y2187500D01*
X1135000Y2193500D01*
G01X1158000Y2180000D02*
Y2270000D01*
G01X1196000D02*
X1158000Y2214500D01*
G01X1202000Y2180000D02*
X1175000Y2240000D01*
G01X922000Y2142500D02*
X916000Y2147000D01*
X909000Y2150000D01*
X901000D01*
X892000Y2145500D01*
X885000Y2138000D01*
X880000Y2129000D01*
X876000Y2114000D01*
X875000Y2100500D01*
X877000Y2087000D01*
X880000Y2078000D01*
X886000Y2069000D01*
X893000Y2063000D01*
X900000Y2060000D01*
X907000D01*
X914000Y2063000D01*
X920000Y2067500D01*
X925000Y2073500D01*
G01X949000Y2060000D02*
Y2150000D01*
G01X991000D02*
Y2060000D01*
G01Y2105000D02*
X949000D01*
G01X1015000Y2060000D02*
X1040000Y2150000D01*
X1065000Y2060000D01*
G01X1056000Y2091500D02*
X1024000D01*
G01X1090000Y2060000D02*
Y2150000D01*
X1115000D01*
X1123000Y2145500D01*
X1128000Y2139500D01*
X1130000Y2127500D01*
X1128000Y2115500D01*
X1122000Y2108000D01*
X1115000Y2103500D01*
X1090000D01*
G01X1115000D02*
X1130000Y2060000D01*
G01X1186000Y2105000D02*
X1206000D01*
Y2078000D01*
X1200000Y2069000D01*
X1193000Y2063000D01*
X1183000Y2060000D01*
X1173000Y2063000D01*
X1166000Y2069000D01*
X1160000Y2078000D01*
X1156000Y2088500D01*
X1154000Y2100500D01*
Y2111000D01*
X1156000Y2120000D01*
X1160000Y2130500D01*
X1166000Y2139500D01*
X1172000Y2145500D01*
X1180000Y2150000D01*
X1187000D01*
X1195000Y2147000D01*
X1201000Y2141000D01*
G01X1270000Y2060000D02*
X1230000D01*
Y2150000D01*
X1270000D01*
G01X1254000Y2106500D02*
X1230000D01*
G01X1158000Y50000D02*
Y140000D01*
G01X1196000D02*
X1158000Y84500D01*
G01X1202000Y50000D02*
X1175000Y110000D01*
G01X1270000Y50000D02*
X1230000D01*
Y140000D01*
X1270000D01*
G01X1254000Y96500D02*
X1230000D01*
G01X1320000Y50000D02*
Y90500D01*
X1300000Y140000D01*
G01X1340000D02*
X1320000Y90500D01*
G01X1158000Y260000D02*
Y195500D01*
X1162000Y182000D01*
X1170000Y173000D01*
X1180000Y170000D01*
X1190000Y173000D01*
X1198000Y182000D01*
X1202000Y195500D01*
Y260000D01*
G01X1229000Y182000D02*
X1237000Y174500D01*
X1246000Y170000D01*
X1254000D01*
X1262000Y174500D01*
X1268000Y182000D01*
X1271000Y192500D01*
X1269000Y203000D01*
X1264000Y212000D01*
X1255000Y218000D01*
X1243000Y221000D01*
X1236000Y227000D01*
X1233000Y237500D01*
X1235000Y248000D01*
X1240000Y255500D01*
X1247000Y260000D01*
X1254000D01*
X1261000Y257000D01*
X1267000Y249500D01*
G01X1340000Y170000D02*
X1300000D01*
Y260000D01*
X1340000D01*
G01X1324000Y216500D02*
X1300000D01*
G01X1370000Y170000D02*
Y260000D01*
X1395000D01*
X1403000Y255500D01*
X1408000Y249500D01*
X1410000Y237500D01*
X1408000Y225500D01*
X1402000Y218000D01*
X1395000Y213500D01*
X1370000D01*
G01X1395000D02*
X1410000Y170000D01*
G01X1118000Y2540000D02*
X1142000D01*
G01X1130000D02*
Y2450000D01*
G01X1118000D02*
X1142000D01*
G01X1180000D02*
Y2540000D01*
X1204000D01*
X1212000Y2535500D01*
X1218000Y2525000D01*
X1220000Y2513000D01*
X1218000Y2501000D01*
X1213000Y2492000D01*
X1204000Y2487500D01*
X1180000D01*
G01X1248000Y2463500D02*
X1254000Y2456000D01*
X1261000Y2451500D01*
X1270000Y2450000D01*
X1279000Y2453000D01*
X1286000Y2459000D01*
X1291000Y2469500D01*
X1292000Y2481500D01*
X1290000Y2493500D01*
X1285000Y2501000D01*
X1278000Y2507000D01*
X1271000Y2508500D01*
X1264000Y2507000D01*
X1255000Y2501000D01*
X1258000Y2540000D01*
X1285000D01*
G01X1318000Y2468000D02*
X1324000Y2457500D01*
X1332000Y2451500D01*
X1341000Y2450000D01*
X1349000Y2451500D01*
X1357000Y2459000D01*
X1362000Y2468000D01*
X1363000Y2477000D01*
X1361000Y2487500D01*
X1354000Y2495000D01*
X1347000Y2498000D01*
X1338000D01*
G01X1347000D02*
X1353000Y2502500D01*
X1358000Y2510000D01*
X1360000Y2519000D01*
X1358000Y2528000D01*
X1353000Y2535500D01*
X1344000Y2540000D01*
X1335000Y2538500D01*
X1326000Y2532500D01*
G01X1391000Y2525000D02*
X1397000Y2534000D01*
X1404000Y2538500D01*
X1412000Y2540000D01*
X1422000Y2537000D01*
X1429000Y2529500D01*
X1431000Y2520500D01*
X1430000Y2511500D01*
X1426000Y2504000D01*
X1406000Y2489000D01*
X1397000Y2478500D01*
X1391000Y2463500D01*
X1389000Y2450000D01*
X1431000D01*
G01X1480000D02*
X1487000Y2451500D01*
X1495000Y2456000D01*
X1500000Y2463500D01*
X1502000Y2474000D01*
X1500000Y2484500D01*
X1494000Y2493500D01*
X1485000Y2498000D01*
X1475000D01*
X1469000Y2501000D01*
X1464000Y2508500D01*
X1462000Y2519000D01*
X1465000Y2529500D01*
X1472000Y2537000D01*
X1480000Y2540000D01*
X1488000Y2537000D01*
X1495000Y2529500D01*
X1498000Y2519000D01*
X1496000Y2508500D01*
X1491000Y2501000D01*
X1485000Y2498000D01*
X1475000D01*
X1466000Y2493500D01*
X1460000Y2484500D01*
X1458000Y2474000D01*
X1460000Y2463500D01*
X1465000Y2456000D01*
X1473000Y2451500D01*
X1480000Y2450000D01*
G01X1328000Y2580000D02*
Y2670000D01*
G01X1366000D02*
X1328000Y2614500D01*
G01X1372000Y2580000D02*
X1345000Y2640000D01*
G01X1440000Y2580000D02*
X1400000D01*
Y2670000D01*
X1440000D01*
G01X1424000Y2626500D02*
X1400000D01*
G01X1490000Y2580000D02*
Y2620500D01*
X1470000Y2670000D01*
G01X1510000D02*
X1490000Y2620500D01*
G01X2816800Y299200D02*
X2706800D01*
X2728800Y283200D01*
G01X2816800D02*
Y315200D01*
G01X2794800Y2174870D02*
X2807640Y2182870D01*
X2814970Y2193530D01*
X2816800Y2205530D01*
X2814970Y2216200D01*
X2805800Y2226870D01*
X2794800Y2233530D01*
X2783800Y2234870D01*
X2770970Y2232200D01*
X2761800Y2222870D01*
X2758130Y2213530D01*
Y2201530D01*
G01Y2213530D02*
X2752630Y2221530D01*
X2743470Y2228200D01*
X2732470Y2230870D01*
X2721470Y2228200D01*
X2712300Y2221530D01*
X2706800Y2209530D01*
X2708630Y2197530D01*
X2715970Y2185530D01*
G01X2706800Y2294200D02*
X2710470Y2283530D01*
X2719630Y2275530D01*
X2730630Y2270200D01*
X2745300Y2266200D01*
X2761800Y2264870D01*
X2778300Y2266200D01*
X2792970Y2270200D01*
X2803970Y2275530D01*
X2813130Y2283530D01*
X2816800Y2294200D01*
X2813130Y2304870D01*
X2803970Y2312870D01*
X2792970Y2318200D01*
X2778300Y2322200D01*
X2761800Y2323530D01*
X2745300Y2322200D01*
X2730630Y2318200D01*
X2719630Y2312870D01*
X2710470Y2304870D01*
X2706800Y2294200D01*
G01X3821000Y1025000D02*
X3827000Y1034000D01*
X3834000Y1038500D01*
X3842000Y1040000D01*
X3852000Y1037000D01*
X3859000Y1029500D01*
X3861000Y1020500D01*
X3860000Y1011500D01*
X3856000Y1004000D01*
X3836000Y989000D01*
X3827000Y978500D01*
X3821000Y963500D01*
X3819000Y950000D01*
X3861000D01*
G01X3888000Y963500D02*
X3894000Y956000D01*
X3901000Y951500D01*
X3910000Y950000D01*
X3919000Y953000D01*
X3926000Y959000D01*
X3931000Y969500D01*
X3932000Y981500D01*
X3930000Y993500D01*
X3925000Y1001000D01*
X3918000Y1007000D01*
X3911000Y1008500D01*
X3904000Y1007000D01*
X3895000Y1001000D01*
X3898000Y1040000D01*
X3925000D01*
G01X3962000Y947000D02*
X3998000Y1040000D01*
G01X3962000D02*
X3956000Y1037000D01*
X3953000Y1032500D01*
X3951000Y1023500D01*
X3953000Y1014500D01*
X3956000Y1010000D01*
X3962000Y1007000D01*
X3968000Y1010000D01*
X3971000Y1014500D01*
X3973000Y1023500D01*
X3971000Y1032500D01*
X3968000Y1037000D01*
X3962000Y1040000D01*
G01X3998000Y980000D02*
X3992000Y977000D01*
X3989000Y972500D01*
X3987000Y963500D01*
X3989000Y954500D01*
X3992000Y950000D01*
X3998000Y947000D01*
X4004000Y950000D01*
X4007000Y954500D01*
X4009000Y963500D01*
X4007000Y972500D01*
X4004000Y977000D01*
X3998000Y980000D01*
G01X3818000Y1186830D02*
X3824000Y1179330D01*
X3831000Y1174830D01*
X3840000Y1173330D01*
X3849000Y1176330D01*
X3856000Y1182330D01*
X3861000Y1192830D01*
X3862000Y1204830D01*
X3860000Y1216830D01*
X3855000Y1224330D01*
X3848000Y1230330D01*
X3841000Y1231830D01*
X3834000Y1230330D01*
X3825000Y1224330D01*
X3828000Y1263330D01*
X3855000D01*
G01X3910000D02*
X3902000Y1260330D01*
X3896000Y1252830D01*
X3892000Y1243830D01*
X3889000Y1231830D01*
X3888000Y1218330D01*
X3889000Y1204830D01*
X3892000Y1192830D01*
X3896000Y1183830D01*
X3902000Y1176330D01*
X3910000Y1173330D01*
X3918000Y1176330D01*
X3924000Y1183830D01*
X3928000Y1192830D01*
X3931000Y1204830D01*
X3932000Y1218330D01*
X3931000Y1231830D01*
X3928000Y1243830D01*
X3924000Y1252830D01*
X3918000Y1260330D01*
X3910000Y1263330D01*
G01X3962000Y1170330D02*
X3998000Y1263330D01*
G01X3962000D02*
X3956000Y1260330D01*
X3953000Y1255830D01*
X3951000Y1246830D01*
X3953000Y1237830D01*
X3956000Y1233330D01*
X3962000Y1230330D01*
X3968000Y1233330D01*
X3971000Y1237830D01*
X3973000Y1246830D01*
X3971000Y1255830D01*
X3968000Y1260330D01*
X3962000Y1263330D01*
G01X3998000Y1203330D02*
X3992000Y1200330D01*
X3989000Y1195830D01*
X3987000Y1186830D01*
X3989000Y1177830D01*
X3992000Y1173330D01*
X3998000Y1170330D01*
X4004000Y1173330D01*
X4007000Y1177830D01*
X4009000Y1186830D01*
X4007000Y1195830D01*
X4004000Y1200330D01*
X3998000Y1203330D01*
G01X3838000Y1396670D02*
X3840000Y1416170D01*
X3843000Y1432670D01*
X3847000Y1447670D01*
X3852000Y1464170D01*
X3860000Y1486670D01*
X3820000D01*
G01X3888000Y1410170D02*
X3894000Y1402670D01*
X3901000Y1398170D01*
X3910000Y1396670D01*
X3919000Y1399670D01*
X3926000Y1405670D01*
X3931000Y1416170D01*
X3932000Y1428170D01*
X3930000Y1440170D01*
X3925000Y1447670D01*
X3918000Y1453670D01*
X3911000Y1455170D01*
X3904000Y1453670D01*
X3895000Y1447670D01*
X3898000Y1486670D01*
X3925000D01*
G01X3962000Y1393670D02*
X3998000Y1486670D01*
G01X3962000D02*
X3956000Y1483670D01*
X3953000Y1479170D01*
X3951000Y1470170D01*
X3953000Y1461170D01*
X3956000Y1456670D01*
X3962000Y1453670D01*
X3968000Y1456670D01*
X3971000Y1461170D01*
X3973000Y1470170D01*
X3971000Y1479170D01*
X3968000Y1483670D01*
X3962000Y1486670D01*
G01X3998000Y1426670D02*
X3992000Y1423670D01*
X3989000Y1419170D01*
X3987000Y1410170D01*
X3989000Y1401170D01*
X3992000Y1396670D01*
X3998000Y1393670D01*
X4004000Y1396670D01*
X4007000Y1401170D01*
X4009000Y1410170D01*
X4007000Y1419170D01*
X4004000Y1423670D01*
X3998000Y1426670D01*
G01X3770000Y1620000D02*
Y1710000D01*
X3758000Y1692000D01*
G01Y1620000D02*
X3782000D01*
G01X3840000Y1710000D02*
X3832000Y1707000D01*
X3826000Y1699500D01*
X3822000Y1690500D01*
X3819000Y1678500D01*
X3818000Y1665000D01*
X3819000Y1651500D01*
X3822000Y1639500D01*
X3826000Y1630500D01*
X3832000Y1623000D01*
X3840000Y1620000D01*
X3848000Y1623000D01*
X3854000Y1630500D01*
X3858000Y1639500D01*
X3861000Y1651500D01*
X3862000Y1665000D01*
X3861000Y1678500D01*
X3858000Y1690500D01*
X3854000Y1699500D01*
X3848000Y1707000D01*
X3840000Y1710000D01*
G01X3910000D02*
X3902000Y1707000D01*
X3896000Y1699500D01*
X3892000Y1690500D01*
X3889000Y1678500D01*
X3888000Y1665000D01*
X3889000Y1651500D01*
X3892000Y1639500D01*
X3896000Y1630500D01*
X3902000Y1623000D01*
X3910000Y1620000D01*
X3918000Y1623000D01*
X3924000Y1630500D01*
X3928000Y1639500D01*
X3931000Y1651500D01*
X3932000Y1665000D01*
X3931000Y1678500D01*
X3928000Y1690500D01*
X3924000Y1699500D01*
X3918000Y1707000D01*
X3910000Y1710000D01*
G01X3962000Y1617000D02*
X3998000Y1710000D01*
G01X3962000D02*
X3956000Y1707000D01*
X3953000Y1702500D01*
X3951000Y1693500D01*
X3953000Y1684500D01*
X3956000Y1680000D01*
X3962000Y1677000D01*
X3968000Y1680000D01*
X3971000Y1684500D01*
X3973000Y1693500D01*
X3971000Y1702500D01*
X3968000Y1707000D01*
X3962000Y1710000D01*
G01X3998000Y1650000D02*
X3992000Y1647000D01*
X3989000Y1642500D01*
X3987000Y1633500D01*
X3989000Y1624500D01*
X3992000Y1620000D01*
X3998000Y1617000D01*
X4004000Y1620000D01*
X4007000Y1624500D01*
X4009000Y1633500D01*
X4007000Y1642500D01*
X4004000Y1647000D01*
X3998000Y1650000D01*
G01X4548000Y115000D02*
X4574670D01*
Y82000D01*
X4566670Y71000D01*
X4557330Y63670D01*
X4544000Y60000D01*
X4530670Y63670D01*
X4521330Y71000D01*
X4513330Y82000D01*
X4508000Y94830D01*
X4505330Y109500D01*
Y122330D01*
X4508000Y133330D01*
X4513330Y146170D01*
X4521330Y157170D01*
X4529330Y164500D01*
X4540000Y170000D01*
X4549330D01*
X4560000Y166330D01*
X4568000Y159000D01*
G01X4599330Y60000D02*
Y170000D01*
X4660670Y60000D01*
Y170000D01*
G01X4690670Y60000D02*
Y170000D01*
X4717330D01*
X4728000Y164500D01*
X4736000Y157170D01*
X4742670Y146170D01*
X4748000Y133330D01*
X4749330Y115000D01*
X4748000Y96670D01*
X4742670Y83830D01*
X4736000Y72830D01*
X4728000Y65500D01*
X4717330Y60000D01*
X4690670D01*
G01X4550670Y288670D02*
X4556000Y294170D01*
X4560000Y303330D01*
X4562670Y316170D01*
X4560000Y327170D01*
X4554670Y334500D01*
X4545330Y340000D01*
X4509330D01*
Y230000D01*
X4553330D01*
X4562670Y237330D01*
X4568000Y248330D01*
X4570670Y261170D01*
X4568000Y274000D01*
X4560000Y285000D01*
X4550670Y288670D01*
X4509330D01*
G01X4596670Y230000D02*
X4630000Y340000D01*
X4663330Y230000D01*
G01X4651330Y268500D02*
X4608670D01*
G01X4720000Y340000D02*
Y230000D01*
G01X4689330Y340000D02*
X4750670D01*
G54D14*
G01X690480Y506500D02*
X626980Y570000D01*
X690480Y633500D01*
Y506500D01*
X672700Y524280D01*
Y608100D01*
X660000Y595400D01*
Y544600D01*
X647300Y557300D01*
Y582700D01*
G01X690480Y2106500D02*
X626980Y2170000D01*
X690480Y2233500D01*
Y2106500D01*
X672700Y2124280D01*
Y2208100D01*
X660000Y2195400D01*
Y2144600D01*
X647300Y2157300D01*
Y2182700D01*
G01X4300480Y936500D02*
X4236980Y1000000D01*
X4300480Y1063500D01*
Y936500D01*
X4282700Y954280D01*
Y1038100D01*
X4270000Y1025400D01*
Y974600D01*
X4257300Y987300D01*
Y1012700D01*
G01X4239520Y1283500D02*
X4303020Y1220000D01*
X4239520Y1156500D01*
Y1283500D01*
X4257300Y1265720D01*
Y1181900D01*
X4270000Y1194600D01*
Y1245400D01*
X4282700Y1232700D01*
Y1207300D01*
G01X4239520Y1503500D02*
X4303020Y1440000D01*
X4239520Y1376500D01*
Y1503500D01*
X4257300Y1485720D01*
Y1401900D01*
X4270000Y1414600D01*
Y1465400D01*
X4282700Y1452700D01*
Y1427300D01*
G01X4300480Y1596500D02*
X4236980Y1660000D01*
X4300480Y1723500D01*
Y1596500D01*
X4282700Y1614280D01*
Y1698100D01*
X4270000Y1685400D01*
Y1634600D01*
X4257300Y1647300D01*
Y1672700D01*
M02*
