G04 ================== begin FILE IDENTIFICATION RECORD ==================*
G04 Layout Name:  HY_TYPEC_CHRG_V10.brd*
G04 Film Name:    SilkScreen_Bottom*
G04 File Format:  Gerber RS274X*
G04 File Origin:  Cadence Allegro 17.2-S067*
G04 Origin Date:  Tue Sep 29 16:39:21 2020*
G04 *
G04 Layer:  PACKAGE GEOMETRY/SILKSCREEN_BOTTOM*
G04 Layer:  BOARD GEOMETRY/SILKSCREEN_BOTTOM*
G04 *
G04 Offset:    (0.0000 0.0000)*
G04 Mirror:    No*
G04 Mode:      Positive*
G04 Rotation:  0*
G04 FullContactRelief:  No*
G04 UndefLineWidth:     0.1524*
G04 ================== end FILE IDENTIFICATION RECORD ====================*
%FSLAX55Y55*MOMM*%
%IR0*IPPOS*OFA0.00000B0.00000*MIA0B0*SFA1.00000B1.00000*%
%ADD10C,.2*%
%ADD11C,.2032*%
%ADD12C,.254*%
%ADD13C,.1524*%
G75*
%LPD*%
G75*
G36*
G01X465000Y1617500D02*
G03I-30000J0D01*
G37*
G36*
G01X100000Y1960000D02*
G03I-30000J0D01*
G37*
G36*
G01X542000Y241400D02*
G03I-25400J0D01*
G37*
G36*
G01X920000Y990000D02*
X1000000Y910000D01*
Y1070000D01*
X920000Y990000D01*
G37*
G36*
G01X1177360Y1125000D02*
G03I-22360J0D01*
G37*
G36*
G01X4225000Y470000D02*
G03I-30000J0D01*
G37*
G36*
G01X3950000Y2630000D02*
G03I-30000J0D01*
G37*
G54D10*
G01X559700Y520800D02*
X267600D01*
Y419200D01*
X572400D01*
Y444600D01*
G01X50000Y300000D02*
X230000D01*
Y400000D01*
X50000D01*
Y300000D01*
G01X230000Y520000D02*
X50000D01*
Y420000D01*
X230000D01*
Y520000D01*
G01X340000Y690000D02*
G02Y850000I147500J80000D01*
G01X680000D02*
X340000D01*
G01Y690000D02*
X680000D01*
G01X230000Y790000D02*
X50000D01*
Y690000D01*
X230000D01*
Y790000D01*
G01Y640000D02*
X50000D01*
Y540000D01*
X230000D01*
Y640000D01*
G01X180000Y1360000D02*
X70000D01*
Y1380000D01*
G01X390000Y1390000D02*
Y1360000D01*
X280000D01*
G01X60000Y1040000D02*
G02Y1200000I147500J80000D01*
G01X400000D02*
G02Y1040000I-147500J-80000D01*
G01X60000D02*
X400000D01*
G01Y1200000D02*
X60000D01*
G01X300000Y2400000D02*
Y1900000D01*
X420000D01*
G01D02*
G02X500000I40000J-4108D01*
G01X280000Y1680000D02*
X390000D01*
Y1660000D01*
G01X70000D02*
Y1680000D01*
X180000D01*
G01X500000Y1900000D02*
X620000D01*
Y2400000D01*
X300000D01*
G01X572400Y495400D02*
G03Y444600I0J-25400D01*
G01X559700Y520800D02*
X572400D01*
Y495400D01*
G01X710000Y390000D02*
G02X610000I-50000J50000D01*
G01Y550000D02*
Y390000D01*
G01X710000D02*
Y550000D01*
G01X820000Y260000D02*
X750000D01*
Y880000D01*
X1490000D01*
Y260000D01*
X820000D01*
G01X680000Y850000D02*
G02Y690000I-147500J-80000D01*
G01X610000Y550000D02*
G02X710000I50000J-50000D01*
G01X726300Y1078900D02*
X720000Y1080000D01*
X690000D01*
Y900000D01*
X720000D01*
G01X1200000Y1080000D02*
X720000D01*
Y900000D01*
X726300Y901100D01*
G01D02*
X720000Y900000D01*
X1200000D01*
X1196200Y901100D01*
G01X540000Y1360000D02*
Y1540000D01*
X440000D01*
Y1360000D01*
X540000D01*
G01X1170000Y240000D02*
Y60000D01*
X1270000D01*
Y240000D01*
X1170000D01*
G01X916800Y1078900D02*
Y901100D01*
G01X1196200D02*
X1200000Y900000D01*
Y1080000D01*
G01X1275000Y1040000D02*
X1225000D01*
Y1090000D01*
G01Y1610000D02*
Y1660000D01*
X1275000D01*
G01X1360000Y1890000D02*
Y2070000D01*
X1260000D01*
Y1890000D01*
X1360000D01*
G01X1100000Y1750000D02*
X920000D01*
Y1650000D01*
X1100000D01*
Y1750000D01*
G01X920000Y1790000D02*
X1100000D01*
Y1890000D01*
X920000D01*
Y1790000D01*
G01X1220000Y1890000D02*
Y2070000D01*
X1120000D01*
Y1890000D01*
X1220000D01*
G01X930000Y1930000D02*
G02Y2030000I50000J50000D01*
G01X1090000D02*
G02Y1930000I-50000J-50000D01*
G01X930000D02*
X1090000D01*
G01Y2030000D02*
X930000D01*
G01X1090000Y2137000D02*
G02Y2037000I-50000J-50000D01*
G01X930000D02*
G02Y2137000I50000J50000D01*
G01X1090000D02*
X930000D01*
G01Y2037000D02*
X1090000D01*
G01X920000Y2320000D02*
X1100000D01*
Y2420000D01*
X920000D01*
Y2320000D01*
G01X1140000D02*
X1320000D01*
Y2420000D01*
X1140000D01*
Y2320000D01*
G01X1100000Y2270000D02*
X920000D01*
Y2170000D01*
X1100000D01*
Y2270000D01*
G01X1710000Y80000D02*
G02X1550000I-80000J147500D01*
G01Y420000D02*
G02X1710000I80000J-147500D01*
G01Y80000D02*
Y420000D01*
G01X1550000D02*
Y80000D01*
G01X1710000Y500000D02*
G02X1550000I-80000J147500D01*
G01X1710000D02*
Y840000D01*
G01X1550000D02*
Y500000D01*
G01X1890000D02*
G02X1730000I-80000J147500D01*
G01Y840000D02*
Y500000D01*
G01X1860000Y80000D02*
G02X1760000I-50000J50000D01*
G01Y240000D02*
G02X1860000I50000J-50000D01*
G01X1760000D02*
Y80000D01*
G01X1550000Y840000D02*
G02X1710000I80000J-147500D01*
G01X1730000D02*
G02X1890000I80000J-147500D01*
G01X1845000Y1090000D02*
Y1040000D01*
X1795000D01*
G01Y1660000D02*
X1845000D01*
Y1610000D01*
G01X1755000Y1830000D02*
G02X1655000I-50000J50000D01*
G01X1755000D02*
Y1990000D01*
G01X1655000D02*
Y1830000D01*
G01X1890000Y1820000D02*
Y2000000D01*
X1790000D01*
Y1820000D01*
X1890000D01*
G01X1410000Y2300000D02*
G02Y2460000I147500J80000D01*
G01X1750000D02*
G02Y2300000I-147500J-80000D01*
G01X1410000D02*
X1750000D01*
G01X1655000Y1990000D02*
G02X1755000I50000J-50000D01*
G01X1750000Y2460000D02*
X1410000D01*
G01Y2480000D02*
G02Y2640000I147500J80000D01*
G01X1750000D02*
G02Y2480000I-147500J-80000D01*
G01X1410000D02*
X1750000D01*
G01Y2640000D02*
X1410000D01*
G01X2160000Y500000D02*
G02X2000000I-80000J147500D01*
G01Y840000D02*
Y500000D01*
G01X2160000D02*
Y840000D01*
G01X2370000Y500000D02*
G02X2210000I-80000J147500D01*
G01Y840000D02*
Y500000D01*
G01X1890000D02*
Y840000D01*
G01X1860000Y80000D02*
Y240000D01*
G01X2020000Y433800D02*
G02X2140000I60000J-77500D01*
G01Y173800D02*
G02X2020000I-60000J77500D01*
G01X2140000Y433800D02*
Y173800D01*
G01X2020000D02*
Y433800D01*
G01X2350000Y173800D02*
G02X2230000I-60000J77500D01*
G01Y433800D02*
G02X2350000I60000J-77500D01*
G01X2230000Y173800D02*
Y433800D01*
G01X2003500Y200000D02*
G03I-63500J0D01*
G01X2000000Y840000D02*
G02X2160000I80000J-147500D01*
G01X2210000D02*
G02X2370000I80000J-147500D01*
G01X2170000Y1100000D02*
G02Y1200000I50000J50000D01*
G01X2330000D02*
X2170000D01*
G01Y1100000D02*
X2330000D01*
G01X2170000Y1280000D02*
G02Y1380000I50000J50000D01*
G01X2330000D02*
X2170000D01*
G01Y1280000D02*
X2330000D01*
G01X2370000Y500000D02*
Y840000D01*
G01X2350000Y433800D02*
Y173800D01*
G01X2330000Y1200000D02*
G02Y1100000I-50000J-50000D01*
G01Y1380000D02*
G02Y1280000I-50000J-50000D01*
G01X3190000Y220000D02*
G02Y60000I-147500J-80000D01*
G01X2850000D02*
G02Y220000I147500J80000D01*
G01X3190000D02*
X2850000D01*
G01Y60000D02*
X3190000D01*
G01X2980000Y340000D02*
X2800000D01*
Y240000D01*
X2980000D01*
Y340000D01*
G01X3180000D02*
X3000000D01*
Y240000D01*
X3180000D01*
Y340000D01*
G01X3400000Y470000D02*
X3220000D01*
Y370000D01*
X3400000D01*
Y470000D01*
G01Y340000D02*
X3220000D01*
Y240000D01*
X3400000D01*
Y340000D01*
G01X2800000Y380000D02*
X2980000D01*
Y480000D01*
X2800000D01*
Y380000D01*
G01X3000000D02*
X3180000D01*
Y480000D01*
X3000000D01*
Y380000D01*
G01X3190000Y860000D02*
G02Y700000I-147500J-80000D01*
G01X2850000D02*
G02Y860000I147500J80000D01*
G01X3190000D02*
X2850000D01*
G01Y700000D02*
X3190000D01*
G01X2800000Y530000D02*
X2980000D01*
Y630000D01*
X2800000D01*
Y530000D01*
G01X3000000D02*
X3180000D01*
Y630000D01*
X3000000D01*
Y530000D01*
G01X3190000Y1540000D02*
G02Y1380000I-147500J-80000D01*
G01X2850000D02*
G02Y1540000I147500J80000D01*
G01Y1380000D02*
X3190000D01*
G01Y1350000D02*
G02Y1190000I-147500J-80000D01*
G01X2850000D02*
G02Y1350000I147500J80000D01*
G01X3190000D02*
X2850000D01*
G01Y1190000D02*
X3190000D01*
G01Y1160000D02*
G02Y1000000I-147500J-80000D01*
G01X2850000D02*
G02Y1160000I147500J80000D01*
G01X3190000D02*
X2850000D01*
G01Y1000000D02*
X3190000D01*
G01X3230000Y1310000D02*
G02Y1410000I50000J50000D01*
G01X3390000D02*
X3230000D01*
G01Y1310000D02*
X3390000D01*
G01X3190000Y1540000D02*
X2850000D01*
G01X3960000Y260000D02*
Y60000D01*
X3620000D01*
Y300000D01*
X3960000D01*
Y260000D01*
G01X3420000Y450000D02*
G02X3520000I50000J-50000D01*
G01Y290000D02*
G02X3420000I-50000J50000D01*
G01Y450000D02*
Y290000D01*
G01X3520000D02*
Y450000D01*
G01Y80000D02*
G02X3420000I-50000J50000D01*
G01Y240000D02*
G02X3520000I50000J-50000D01*
G01Y80000D02*
Y240000D01*
G01X3420000D02*
Y80000D01*
G01X4260000Y1340000D02*
X3580000D01*
Y660000D01*
X4260000D01*
Y1340000D01*
G01X3390000Y1410000D02*
G02Y1310000I-50000J-50000D01*
G01X3543500Y1740000D02*
G03I-63500J0D01*
G01X3793500D02*
G03I-63500J0D01*
G01X3810000Y2270000D02*
G02X3650000I-80000J147500D01*
G01Y2610000D02*
Y2270000D01*
G01X3620000D02*
G02X3460000I-80000J147500D01*
G01Y2610000D02*
Y2270000D01*
G01X3620000D02*
Y2610000D01*
G01X3430000Y2270000D02*
G02X3270000I-80000J147500D01*
G01Y2610000D02*
Y2270000D01*
G01X3430000D02*
Y2610000D01*
G01X3650000D02*
G02X3810000I80000J-147500D01*
G01X3460000D02*
G02X3620000I80000J-147500D01*
G01X3270000D02*
G02X3430000I80000J-147500D01*
G01X4170000Y420000D02*
G02Y320000I-50000J-50000D01*
G01X4010000D02*
G02Y420000I50000J50000D01*
G01X4170000D02*
X4010000D01*
G01Y320000D02*
X4170000D01*
G01X3870000Y1820000D02*
G02X3970000I50000J-50000D01*
G01Y1660000D02*
G02X3870000I-50000J50000D01*
G01Y1820000D02*
Y1660000D01*
G01X3970000D02*
Y1820000D01*
G01X4250000Y1660000D02*
G02X4150000I-50000J50000D01*
G01Y1820000D02*
G02X4250000I50000J-50000D01*
G01X4150000D02*
Y1660000D01*
G01X4097000D02*
G02X3997000I-50000J50000D01*
G01Y1820000D02*
G02X4097000I50000J-50000D01*
G01Y1660000D02*
Y1820000D01*
G01X3997000D02*
Y1660000D01*
G01X4360000Y2400000D02*
X3860000D01*
Y2280000D01*
G01Y2200000D02*
Y2080000D01*
X4360000D01*
Y2400000D01*
G01X3860000Y2280000D02*
G02Y2200000I-4108J-40000D01*
G01X3810000Y2270000D02*
Y2610000D01*
G01X4230000Y320000D02*
G02Y420000I50000J50000D01*
G01X4390000D02*
G02Y320000I-50000J-50000D01*
G01X4230000D02*
X4390000D01*
G01Y420000D02*
X4230000D01*
G01X4440000Y500000D02*
G02X4540000I50000J-50000D01*
G01Y340000D02*
G02X4440000I-50000J50000D01*
G01Y500000D02*
Y340000D01*
G01X4540000D02*
Y500000D01*
G01X4560000Y510000D02*
Y330000D01*
X4660000D01*
Y510000D01*
X4560000D01*
G01X4250000Y1660000D02*
Y1820000D01*
G01X4700000Y2070000D02*
G02X4540000I-80000J147500D01*
G01Y2410000D02*
Y2070000D01*
G01X4510000Y2260000D02*
Y2440000D01*
X4410000D01*
Y2260000D01*
X4510000D01*
G01Y2050000D02*
Y2230000D01*
X4410000D01*
Y2050000D01*
X4510000D01*
G01X4540000Y2410000D02*
G02X4700000I80000J-147500D01*
G01X4903500Y400000D02*
G03I-63500J0D01*
G01Y150000D02*
G03I-63500J0D01*
G01Y900000D02*
G03I-63500J0D01*
G01Y650000D02*
G03I-63500J0D01*
G01X4700000Y2070000D02*
Y2410000D01*
G01X6010000Y2240000D02*
X5710000D01*
Y460000D01*
X6010000D01*
Y2240000D01*
G54D11*
G01X1970000Y1907000D02*
Y1587000D01*
X3170000D01*
Y1907000D01*
G01X2270000Y2107000D02*
G03X2370000I50000J0D01*
G01X2200000D02*
X2270000D01*
G01X3170000Y2307000D02*
Y2627000D01*
X1970000D01*
Y2307000D01*
G01X2570000Y2107000D02*
G03X2670000I50000J0D01*
G01D02*
G03X2770000I50000J0D01*
G01D02*
G03X2870000I50000J0D01*
G01X2470000D02*
G03X2570000I50000J0D01*
G01X2370000D02*
G03X2470000I50000J0D01*
G01X2870000D02*
X2940000D01*
G54D12*
G01X1120000Y420000D02*
G02Y520000I0J50000D01*
G01Y340000D02*
Y420000D01*
G01Y620000D02*
G02Y720000I0J50000D01*
G01Y520000D02*
G02Y620000I0J50000D01*
G01Y720000D02*
Y800000D01*
G01X2410000Y1540000D02*
Y660000D01*
X2790000D01*
Y1540000D01*
X2410000D01*
G01X4009500Y65700D02*
X4403200D01*
Y294300D01*
X3996800D01*
Y65700D01*
X4009500D01*
G54D13*
G01X2082000Y38000D02*
X2076000Y27500D01*
X2068000Y21500D01*
X2059000Y20000D01*
X2051000Y21500D01*
X2043000Y29000D01*
X2038000Y38000D01*
X2037000Y47000D01*
X2039000Y57500D01*
X2046000Y65000D01*
X2053000Y68000D01*
X2062000D01*
G01X2053000D02*
X2047000Y72500D01*
X2042000Y80000D01*
X2040000Y89000D01*
X2042000Y98000D01*
X2047000Y105500D01*
X2056000Y110000D01*
X2065000Y108500D01*
X2074000Y102500D01*
G01X2015000Y110000D02*
X1990000Y20000D01*
X1965000Y110000D01*
G01X1942000Y38000D02*
X1936000Y27500D01*
X1928000Y21500D01*
X1919000Y20000D01*
X1911000Y21500D01*
X1903000Y29000D01*
X1898000Y38000D01*
X1897000Y47000D01*
X1899000Y57500D01*
X1906000Y65000D01*
X1913000Y68000D01*
X1922000D01*
G01X1913000D02*
X1907000Y72500D01*
X1902000Y80000D01*
X1900000Y89000D01*
X1902000Y98000D01*
X1907000Y105500D01*
X1916000Y110000D01*
X1925000Y108500D01*
X1934000Y102500D01*
G01X3530000Y1838000D02*
X3465500D01*
X3452000Y1842000D01*
X3443000Y1850000D01*
X3440000Y1860000D01*
X3443000Y1870000D01*
X3452000Y1878000D01*
X3465500Y1882000D01*
X3530000D01*
G01X3440000Y1930000D02*
X3530000D01*
X3512000Y1918000D01*
G01X3440000D02*
Y1942000D01*
G01X3530000Y2000000D02*
X3440000D01*
G01X3530000Y1977000D02*
Y2023000D01*
G01X3440000Y2049000D02*
X3530000Y2091000D01*
G01Y2049000D02*
X3440000Y2091000D01*
G01X3780000Y1838000D02*
X3715500D01*
X3702000Y1842000D01*
X3693000Y1850000D01*
X3690000Y1860000D01*
X3693000Y1870000D01*
X3702000Y1878000D01*
X3715500Y1882000D01*
X3780000D01*
G01X3690000Y1930000D02*
X3780000D01*
X3762000Y1918000D01*
G01X3690000D02*
Y1942000D01*
G01Y1980000D02*
X3780000D01*
Y2005000D01*
X3775500Y2013000D01*
X3769500Y2018000D01*
X3757500Y2020000D01*
X3745500Y2018000D01*
X3738000Y2012000D01*
X3733500Y2005000D01*
Y1980000D01*
G01Y2005000D02*
X3690000Y2020000D01*
G01Y2049000D02*
X3780000Y2091000D01*
G01Y2049000D02*
X3690000Y2091000D01*
G01X5098000Y442500D02*
X5104000Y447000D01*
X5111000Y450000D01*
X5119000D01*
X5128000Y445500D01*
X5135000Y438000D01*
X5140000Y429000D01*
X5144000Y414000D01*
X5145000Y400500D01*
X5143000Y387000D01*
X5140000Y378000D01*
X5134000Y369000D01*
X5127000Y363000D01*
X5120000Y360000D01*
X5113000D01*
X5106000Y363000D01*
X5100000Y367500D01*
X5095000Y373500D01*
G01X5070000Y450000D02*
Y360000D01*
X5030000D01*
G01X5002000D02*
Y450000D01*
G01X4964000D02*
X5002000Y394500D01*
G01X4958000Y360000D02*
X4985000Y420000D01*
G01X5142000Y110000D02*
Y200000D01*
X5122000D01*
X5114000Y195500D01*
X5108000Y189500D01*
X5103000Y180500D01*
X5099000Y170000D01*
X5098000Y155000D01*
X5099000Y140000D01*
X5103000Y129500D01*
X5108000Y120500D01*
X5114000Y114500D01*
X5122000Y110000D01*
X5142000D01*
G01X5062000Y200000D02*
X5038000D01*
G01X5050000D02*
Y110000D01*
G01X5062000D02*
X5038000D01*
G01X4980000D02*
X4988000Y111500D01*
X4995000Y117500D01*
X5001000Y126500D01*
X5005000Y137000D01*
X5007000Y149000D01*
Y161000D01*
X5005000Y173000D01*
X5001000Y183500D01*
X4995000Y192500D01*
X4988000Y198500D01*
X4980000Y200000D01*
X4972000Y198500D01*
X4965000Y192500D01*
X4959000Y183500D01*
X4955000Y173000D01*
X4953000Y161000D01*
Y149000D01*
X4955000Y137000D01*
X4959000Y126500D01*
X4965000Y117500D01*
X4972000Y111500D01*
X4980000Y110000D01*
G01X5114000Y905000D02*
X5094000D01*
Y878000D01*
X5100000Y869000D01*
X5107000Y863000D01*
X5117000Y860000D01*
X5127000Y863000D01*
X5134000Y869000D01*
X5140000Y878000D01*
X5144000Y888500D01*
X5146000Y900500D01*
Y911000D01*
X5144000Y920000D01*
X5140000Y930500D01*
X5134000Y939500D01*
X5128000Y945500D01*
X5120000Y950000D01*
X5113000D01*
X5105000Y947000D01*
X5099000Y941000D01*
G01X5073000Y860000D02*
Y950000D01*
X5027000Y860000D01*
Y950000D01*
G01X5002000Y860000D02*
Y950000D01*
X4982000D01*
X4974000Y945500D01*
X4968000Y939500D01*
X4963000Y930500D01*
X4959000Y920000D01*
X4958000Y905000D01*
X4959000Y890000D01*
X4963000Y879500D01*
X4968000Y870500D01*
X4974000Y864500D01*
X4982000Y860000D01*
X5002000D01*
G01X5142000Y628000D02*
X5136000Y617500D01*
X5128000Y611500D01*
X5119000Y610000D01*
X5111000Y611500D01*
X5103000Y619000D01*
X5098000Y628000D01*
X5097000Y637000D01*
X5099000Y647500D01*
X5106000Y655000D01*
X5113000Y658000D01*
X5122000D01*
G01X5113000D02*
X5107000Y662500D01*
X5102000Y670000D01*
X5100000Y679000D01*
X5102000Y688000D01*
X5107000Y695500D01*
X5116000Y700000D01*
X5125000Y698500D01*
X5134000Y692500D01*
G01X5075000Y700000D02*
X5050000Y610000D01*
X5025000Y700000D01*
G01X5002000Y628000D02*
X4996000Y617500D01*
X4988000Y611500D01*
X4979000Y610000D01*
X4971000Y611500D01*
X4963000Y619000D01*
X4958000Y628000D01*
X4957000Y637000D01*
X4959000Y647500D01*
X4966000Y655000D01*
X4973000Y658000D01*
X4982000D01*
G01X4973000D02*
X4967000Y662500D01*
X4962000Y670000D01*
X4960000Y679000D01*
X4962000Y688000D01*
X4967000Y695500D01*
X4976000Y700000D01*
X4985000Y698500D01*
X4994000Y692500D01*
G01X5830000Y2181000D02*
X5740000D01*
G01Y2139000D02*
X5830000D01*
G01X5785000D02*
Y2181000D01*
G01X5830000Y2090000D02*
X5789500D01*
X5740000Y2110000D01*
G01Y2070000D02*
X5789500Y2090000D01*
G01X5860000Y2050000D02*
Y1990000D01*
G01X5740000Y1950000D02*
X5830000D01*
G01X5740000Y1973000D02*
Y1927000D01*
G01X5830000Y1880000D02*
X5789500D01*
X5740000Y1900000D01*
G01Y1860000D02*
X5789500Y1880000D01*
G01X5830000Y1830000D02*
X5740000D01*
Y1806000D01*
X5744500Y1798000D01*
X5755000Y1792000D01*
X5767000Y1790000D01*
X5779000Y1792000D01*
X5788000Y1797000D01*
X5792500Y1806000D01*
Y1830000D01*
G01X5830000Y1720000D02*
Y1760000D01*
X5740000D01*
Y1720000D01*
G01X5783500Y1736000D02*
Y1760000D01*
G01X5747500Y1648000D02*
X5743000Y1654000D01*
X5740000Y1661000D01*
Y1669000D01*
X5744500Y1678000D01*
X5752000Y1685000D01*
X5761000Y1690000D01*
X5776000Y1694000D01*
X5789500Y1695000D01*
X5803000Y1693000D01*
X5812000Y1690000D01*
X5821000Y1684000D01*
X5827000Y1677000D01*
X5830000Y1670000D01*
Y1663000D01*
X5827000Y1656000D01*
X5822500Y1650000D01*
X5816500Y1645000D01*
G01X5860000Y1630000D02*
Y1570000D01*
G01X5747500Y1508000D02*
X5743000Y1514000D01*
X5740000Y1521000D01*
Y1529000D01*
X5744500Y1538000D01*
X5752000Y1545000D01*
X5761000Y1550000D01*
X5776000Y1554000D01*
X5789500Y1555000D01*
X5803000Y1553000D01*
X5812000Y1550000D01*
X5821000Y1544000D01*
X5827000Y1537000D01*
X5830000Y1530000D01*
Y1523000D01*
X5827000Y1516000D01*
X5822500Y1510000D01*
X5816500Y1505000D01*
G01X5830000Y1481000D02*
X5740000D01*
G01Y1439000D02*
X5830000D01*
G01X5785000D02*
Y1481000D01*
G01X5830000Y1410000D02*
X5740000D01*
Y1385000D01*
X5744500Y1377000D01*
X5750500Y1372000D01*
X5762500Y1370000D01*
X5774500Y1372000D01*
X5782000Y1378000D01*
X5786500Y1385000D01*
Y1410000D01*
G01Y1385000D02*
X5830000Y1370000D01*
G01X5785000Y1314000D02*
Y1294000D01*
X5812000D01*
X5821000Y1300000D01*
X5827000Y1307000D01*
X5830000Y1317000D01*
X5827000Y1327000D01*
X5821000Y1334000D01*
X5812000Y1340000D01*
X5801500Y1344000D01*
X5789500Y1346000D01*
X5779000D01*
X5770000Y1344000D01*
X5759500Y1340000D01*
X5750500Y1334000D01*
X5744500Y1328000D01*
X5740000Y1320000D01*
Y1313000D01*
X5743000Y1305000D01*
X5749000Y1299000D01*
G01X5860000Y1280000D02*
Y1220000D01*
G01X5740000Y1205000D02*
X5830000Y1180000D01*
X5740000Y1155000D01*
G01X5830000Y1110000D02*
X5740000D01*
X5758000Y1122000D01*
G01X5830000D02*
Y1098000D01*
G01X5740000Y1040000D02*
X5743000Y1048000D01*
X5750500Y1054000D01*
X5759500Y1058000D01*
X5771500Y1061000D01*
X5785000Y1062000D01*
X5798500Y1061000D01*
X5810500Y1058000D01*
X5819500Y1054000D01*
X5827000Y1048000D01*
X5830000Y1040000D01*
X5827000Y1032000D01*
X5819500Y1026000D01*
X5810500Y1022000D01*
X5798500Y1019000D01*
X5785000Y1018000D01*
X5771500Y1019000D01*
X5759500Y1022000D01*
X5750500Y1026000D01*
X5743000Y1032000D01*
X5740000Y1040000D01*
G01X5860000Y1000000D02*
Y940000D01*
G01X5755000Y919000D02*
X5746000Y913000D01*
X5741500Y906000D01*
X5740000Y898000D01*
X5743000Y888000D01*
X5750500Y881000D01*
X5759500Y879000D01*
X5768500Y880000D01*
X5776000Y884000D01*
X5791000Y904000D01*
X5801500Y913000D01*
X5816500Y919000D01*
X5830000Y921000D01*
Y879000D01*
G01X5740000Y830000D02*
X5743000Y838000D01*
X5750500Y844000D01*
X5759500Y848000D01*
X5771500Y851000D01*
X5785000Y852000D01*
X5798500Y851000D01*
X5810500Y848000D01*
X5819500Y844000D01*
X5827000Y838000D01*
X5830000Y830000D01*
X5827000Y822000D01*
X5819500Y816000D01*
X5810500Y812000D01*
X5798500Y809000D01*
X5785000Y808000D01*
X5771500Y809000D01*
X5759500Y812000D01*
X5750500Y816000D01*
X5743000Y822000D01*
X5740000Y830000D01*
G01Y760000D02*
X5743000Y768000D01*
X5750500Y774000D01*
X5759500Y778000D01*
X5771500Y781000D01*
X5785000Y782000D01*
X5798500Y781000D01*
X5810500Y778000D01*
X5819500Y774000D01*
X5827000Y768000D01*
X5830000Y760000D01*
X5827000Y752000D01*
X5819500Y746000D01*
X5810500Y742000D01*
X5798500Y739000D01*
X5785000Y738000D01*
X5771500Y739000D01*
X5759500Y742000D01*
X5750500Y746000D01*
X5743000Y752000D01*
X5740000Y760000D01*
G01X5819500Y707000D02*
X5827000Y700000D01*
X5830000Y692000D01*
X5827000Y684000D01*
X5818000Y677000D01*
X5804500Y672000D01*
X5791000Y670000D01*
X5774500D01*
X5761000Y672000D01*
X5749000Y677000D01*
X5743000Y683000D01*
X5740000Y690000D01*
X5743000Y698000D01*
X5749000Y704000D01*
X5758000Y708000D01*
X5770000Y710000D01*
X5780500Y708000D01*
X5791000Y703000D01*
X5797000Y697000D01*
X5798500Y690000D01*
X5795500Y682000D01*
X5788000Y676000D01*
X5774500Y670000D01*
G01X5755000Y639000D02*
X5746000Y633000D01*
X5741500Y626000D01*
X5740000Y618000D01*
X5743000Y608000D01*
X5750500Y601000D01*
X5759500Y599000D01*
X5768500Y600000D01*
X5776000Y604000D01*
X5791000Y624000D01*
X5801500Y633000D01*
X5816500Y639000D01*
X5830000Y641000D01*
Y599000D01*
G01X5819500Y567000D02*
X5827000Y560000D01*
X5830000Y552000D01*
X5827000Y544000D01*
X5818000Y537000D01*
X5804500Y532000D01*
X5791000Y530000D01*
X5774500D01*
X5761000Y532000D01*
X5749000Y537000D01*
X5743000Y543000D01*
X5740000Y550000D01*
X5743000Y558000D01*
X5749000Y564000D01*
X5758000Y568000D01*
X5770000Y570000D01*
X5780500Y568000D01*
X5791000Y563000D01*
X5797000Y557000D01*
X5798500Y550000D01*
X5795500Y542000D01*
X5788000Y536000D01*
X5774500Y530000D01*
G01X5980000Y1661000D02*
X5890000Y1619000D01*
G01Y1661000D02*
X5980000Y1619000D01*
G01Y1591000D02*
X5890000Y1549000D01*
G01Y1591000D02*
X5980000Y1549000D01*
G01Y1521000D02*
X5890000Y1479000D01*
G01Y1521000D02*
X5980000Y1479000D01*
G01X5890000Y1450000D02*
X5980000D01*
Y1410000D01*
G01X5890000Y1379000D02*
Y1341000D01*
X5980000Y1379000D01*
Y1341000D01*
G01X5962000Y1310000D02*
X5971000Y1305000D01*
X5977000Y1299000D01*
X5980000Y1292000D01*
X5977000Y1284000D01*
X5971000Y1278000D01*
X5962000Y1272000D01*
X5950000Y1270000D01*
X5890000D01*
G01X5980000Y1241000D02*
X5890000Y1199000D01*
G01Y1241000D02*
X5980000Y1199000D01*
G01Y1171000D02*
X5890000Y1129000D01*
G01Y1171000D02*
X5980000Y1129000D01*
G01Y1101000D02*
X5890000Y1059000D01*
G01Y1101000D02*
X5980000Y1059000D01*
M02*
