G04 ================== begin FILE IDENTIFICATION RECORD ==================*
G04 Layout Name:  HY_TYPEC_CHRG_V10.brd*
G04 Film Name:    SolderMask_Top*
G04 File Format:  Gerber RS274X*
G04 File Origin:  Cadence Allegro 17.2-S067*
G04 Origin Date:  Tue Sep 29 16:39:21 2020*
G04 *
G04 Layer:  PIN/SOLDERMASK_TOP*
G04 Layer:  PACKAGE GEOMETRY/SOLDERMASK_TOP*
G04 Layer:  BOARD GEOMETRY/SOLDERMASK_TOP*
G04 *
G04 Offset:    (0.0000 0.0000)*
G04 Mirror:    No*
G04 Mode:      Positive*
G04 Rotation:  0*
G04 FullContactRelief:  No*
G04 UndefLineWidth:     0.1524*
G04 ================== end FILE IDENTIFICATION RECORD ====================*
%FSLAX55Y55*MOMM*%
%IR0*IPPOS*OFA0.00000B0.00000*MIA0B0*SFA1.00000B1.00000*%
%ADD16R,1.3X.4*%
%ADD15R,1.3X.7*%
%ADD17R,3.6X.5*%
%ADD14O,2.2X1.1*%
%ADD13R,1.X1.4*%
%ADD12O,1.7X1.1*%
%ADD11R,1.5X1.3*%
%ADD19C,1.9*%
%ADD10C,1.75*%
%ADD18R,1.9X1.9*%
G75*
%LPD*%
G75*
G36*
G01X4990000Y2500000D02*
X5400000D01*
X5430000Y2470000D01*
Y260000D01*
X5400000Y230000D01*
X5000000D01*
X4970000Y260000D01*
Y2480000D01*
X4990000Y2500000D01*
G37*
G36*
G01X5470000Y30000D02*
Y2680000D01*
X5940000D01*
G02X6010000Y2610000I1667J-68333D01*
G01Y100000D01*
G02X5940000Y30000I-68333J-1667D01*
G01X5470000D01*
G37*
G54D10*
X285000Y100000D03*
Y2610000D03*
X1035000Y100000D03*
Y2610000D03*
G54D11*
X440000Y300000D03*
Y2410000D03*
X880000Y300000D03*
Y2410000D03*
G54D12*
X138000Y928000D03*
Y1792000D03*
G54D13*
X760000Y570000D03*
X560000D03*
X760000Y2170000D03*
X560000D03*
X4170000Y1000000D03*
Y1220000D03*
Y1440000D03*
Y1660000D03*
X4370000Y1000000D03*
Y1220000D03*
Y1440000D03*
Y1660000D03*
G54D14*
X556000Y928000D03*
Y1792000D03*
G54D15*
X660000Y1040000D03*
Y1120000D03*
Y1600000D03*
Y1680000D03*
G54D16*
Y1185000D03*
Y1235000D03*
Y1285000D03*
Y1335000D03*
Y1385000D03*
Y1435000D03*
Y1485000D03*
Y1535000D03*
G54D17*
X2420000Y520000D03*
Y450000D03*
Y380000D03*
Y310000D03*
Y940000D03*
Y870000D03*
Y800000D03*
Y730000D03*
Y660000D03*
Y590000D03*
Y1430000D03*
Y1360000D03*
Y1290000D03*
Y1220000D03*
Y1150000D03*
Y1080000D03*
Y1010000D03*
Y1920000D03*
Y1850000D03*
Y1780000D03*
Y1710000D03*
Y1640000D03*
Y1570000D03*
Y1500000D03*
Y2340000D03*
Y2270000D03*
Y2200000D03*
Y2130000D03*
Y2060000D03*
Y1990000D03*
G54D18*
X5590000Y350000D03*
Y950000D03*
Y1750000D03*
Y2350000D03*
G54D19*
X5336000Y350000D03*
Y950000D03*
Y1750000D03*
Y2350000D03*
M02*
