G04 ================== begin FILE IDENTIFICATION RECORD ==================*
G04 Layout Name:  H:/github/MBED-TOOLS/HARDWARE/JLINKtoSWD_V10/PCB/JLINKtoSWD_V10.brd*
G04 Film Name:    Drill_Legend*
G04 File Format:  Gerber RS274X*
G04 File Origin:  Cadence Allegro 17.2-S067*
G04 Origin Date:  Sat Aug 01 11:17:35 2020*
G04 *
G04 Layer:  MANUFACTURING/NCLEGEND-1-2*
G04 Layer:  MANUFACTURING/NCDRILL_LEGEND*
G04 Layer:  MANUFACTURING/NCDRILL_FIGURE*
G04 Layer:  BOARD GEOMETRY/DIMENSION*
G04 *
G04 Offset:    (0.0000 0.0000)*
G04 Mirror:    No*
G04 Mode:      Positive*
G04 Rotation:  0*
G04 FullContactRelief:  No*
G04 UndefLineWidth:     0.1524*
G04 ================== end FILE IDENTIFICATION RECORD ====================*
%FSLAX55Y55*MOMM*%
%IR0*IPPOS*OFA0.00000B0.00000*MIA0B0*SFA1.00000B1.00000*%
%AMMACRO11*
1,1,.1524,.3,.3*
20,1,.1524,.3,.3,.3,-.3,0.0*
1,1,.1524,.3,-.3*
20,1,.1524,.3,-.3,-.3,-.3,0.0*
1,1,.1524,-.3,-.3*
20,1,.1524,-.3,-.3,-.3,.3,0.0*
1,1,.1524,-.3,.3*
20,1,.1524,-.3,.3,.3,.3,0.0*
1,1,.1524,.3,.3*
%
%ADD11MACRO11*%
%AMMACRO10*
1,1,.1524,.1524,0.0*
20,1,.1524,.1524,0.0,-.1524,0.0,0.0*
1,1,.1524,-.1524,0.0*
1,1,.1524,0.0,.1524*
20,1,.1524,0.0,.1524,0.0,-.1524,0.0*
1,1,.1524,0.0,-.1524*
%
%ADD10MACRO10*%
%AMMACRO12*
1,1,.1524,0.0,.55*
20,1,.1524,0.0,.55,-.476314,.275,0.0*
1,1,.1524,-.476314,.275*
20,1,.1524,-.476314,.275,-.476314,-.275,0.0*
1,1,.1524,-.476314,-.275*
20,1,.1524,-.476314,-.275,0.0,-.55,0.0*
1,1,.1524,0.0,-.55*
20,1,.1524,0.0,-.55,.476314,-.275,0.0*
1,1,.1524,.476314,-.275*
20,1,.1524,.476314,-.275,.476314,.275,0.0*
1,1,.1524,.476314,.275*
20,1,.1524,.476314,.275,0.0,.55,0.0*
1,1,.1524,0.0,.55*
%
%ADD12MACRO12*%
%ADD13C,.1524*%
G75*
%LPD*%
G75*
G54D10*
X200810Y919570D03*
Y1519570D03*
Y1219570D03*
Y2119570D03*
Y1819570D03*
X624840Y853530D03*
X1224840D03*
X924840D03*
X1266720Y1783550D03*
X966720D03*
X1276720Y2223550D03*
X976720D03*
X1824840Y853530D03*
X1524840D03*
X1866720Y1783550D03*
X1566720D03*
X1876720Y2223550D03*
X1576720D03*
X2424840Y853530D03*
X2124840D03*
X2466720Y1783550D03*
X2166720D03*
X2476720Y2223550D03*
X2176720D03*
X2724840Y853530D03*
X2766720Y1783550D03*
X2776720Y2223550D03*
X3832940Y980880D03*
Y680880D03*
Y1580880D03*
Y1280880D03*
Y1880880D03*
Y2180880D03*
X6031730Y1562500D03*
G54D11*
X743500Y1246000D03*
X616500Y1627000D03*
X743500D03*
X616500Y1500000D03*
X743500D03*
X616500Y1373000D03*
X743500D03*
X616500Y1246000D03*
Y1754000D03*
X743500D03*
X6031730Y927500D03*
G54D12*
X3380000Y738000D03*
Y992000D03*
Y1246000D03*
Y1500000D03*
Y1754000D03*
Y2008000D03*
Y2262000D03*
X6031730Y292500D03*
G54D13*
G01X-567400Y1512850D02*
X-553180Y1490620D01*
X-534220Y1477920D01*
X-512880Y1474750D01*
X-493910Y1477920D01*
X-474950Y1493800D01*
X-463100Y1512850D01*
X-460730Y1531900D01*
X-465470Y1554120D01*
X-482060Y1570000D01*
X-498660Y1576350D01*
X-519990D01*
G01X-498660D02*
X-484430Y1585870D01*
X-472580Y1601750D01*
X-467840Y1620800D01*
X-472580Y1639850D01*
X-484430Y1655720D01*
X-505770Y1665250D01*
X-527100Y1662080D01*
X-548440Y1649370D01*
G01X-324750Y1665250D02*
X-343720Y1658900D01*
X-357940Y1643020D01*
X-367420Y1623980D01*
X-374530Y1598570D01*
X-376900Y1570000D01*
X-374530Y1541420D01*
X-367420Y1516020D01*
X-357940Y1496970D01*
X-343720Y1481100D01*
X-324750Y1474750D01*
X-305790Y1481100D01*
X-291560Y1496970D01*
X-282080Y1516020D01*
X-274970Y1541420D01*
X-272600Y1570000D01*
X-274970Y1598570D01*
X-282080Y1623980D01*
X-291560Y1643020D01*
X-305790Y1658900D01*
X-324750Y1665250D01*
G01X1843200Y-455250D02*
Y-264750D01*
X1755480Y-401270D01*
X1874020D01*
G01X2005250Y-455250D02*
Y-264750D01*
X1976800Y-302850D01*
G01Y-455250D02*
X2033690D01*
G01X5169520Y2038750D02*
Y2356250D01*
X5319140D01*
G01X5264010Y2202800D02*
X5169520D01*
G01X5512050Y2356250D02*
X5606530D01*
G01X5559290D02*
Y2038750D01*
G01X5512050D02*
X5606530D01*
G01X5897870Y2197500D02*
X5976620D01*
Y2102250D01*
X5952990Y2070490D01*
X5925430Y2049330D01*
X5886060Y2038750D01*
X5846690Y2049330D01*
X5819130Y2070490D01*
X5795510Y2102250D01*
X5779760Y2139290D01*
X5771880Y2181620D01*
Y2218670D01*
X5779760Y2250410D01*
X5795510Y2287460D01*
X5819130Y2319210D01*
X5842750Y2340370D01*
X5874250Y2356250D01*
X5901810D01*
X5933300Y2345670D01*
X5956930Y2324500D01*
G01X6102600Y2356250D02*
Y2128710D01*
X6118340Y2081070D01*
X6149840Y2049330D01*
X6189210Y2038750D01*
X6228580Y2049330D01*
X6260080Y2081070D01*
X6275820Y2128710D01*
Y2356250D01*
G01X6425430Y2038750D02*
Y2356250D01*
X6523850D01*
X6555350Y2340370D01*
X6575040Y2319210D01*
X6582910Y2276870D01*
X6575040Y2234540D01*
X6551410Y2208090D01*
X6523850Y2192200D01*
X6425430D01*
G01X6523850D02*
X6582910Y2038750D01*
G01X6897870D02*
X6740390D01*
Y2356250D01*
X6897870D01*
G01X6834880Y2202800D02*
X6740390D01*
G01X6838810Y2673750D02*
X6937240Y2991250D01*
X7035670Y2673750D01*
G01X7000230Y2784870D02*
X6874240D01*
G01X7173460Y2991250D02*
Y2673750D01*
X7330940D01*
G01X7488420Y2991250D02*
Y2673750D01*
X7645900D01*
G01X8110470Y2991250D02*
Y2763710D01*
X8126210Y2716070D01*
X8157710Y2684330D01*
X8197080Y2673750D01*
X8236450Y2684330D01*
X8267950Y2716070D01*
X8283690Y2763710D01*
Y2991250D01*
G01X8421490Y2673750D02*
Y2991250D01*
X8602590Y2673750D01*
Y2991250D01*
G01X8779760D02*
X8874240D01*
G01X8827000D02*
Y2673750D01*
G01X8779760D02*
X8874240D01*
G01X9141960Y2991250D02*
Y2673750D01*
G01X9051410Y2991250D02*
X9232510D01*
G01X9374240Y2716070D02*
X9405740Y2689620D01*
X9441170Y2673750D01*
X9472670D01*
X9504160Y2689620D01*
X9527790Y2716070D01*
X9539600Y2753130D01*
X9531730Y2790160D01*
X9512040Y2821910D01*
X9476600Y2843090D01*
X9429360Y2853670D01*
X9401800Y2874830D01*
X9389990Y2911870D01*
X9397870Y2948920D01*
X9417550Y2975370D01*
X9445110Y2991250D01*
X9472670D01*
X9500230Y2980670D01*
X9523850Y2954210D01*
G01X9988410Y2673750D02*
X10086840Y2991250D01*
X10185270Y2673750D01*
G01X10149830Y2784870D02*
X10023840D01*
G01X10323060Y2673750D02*
Y2991250D01*
X10421480D01*
X10452980Y2975370D01*
X10472670Y2954210D01*
X10480540Y2911870D01*
X10472670Y2869540D01*
X10449040Y2843090D01*
X10421480Y2827200D01*
X10323060D01*
G01X10421480D02*
X10480540Y2673750D01*
G01X10795500D02*
X10638020D01*
Y2991250D01*
X10795500D01*
G01X10732510Y2837800D02*
X10638020D01*
G01X11299440Y2991250D02*
X11393920D01*
G01X11346680D02*
Y2673750D01*
G01X11299440D02*
X11393920D01*
G01X11571090D02*
Y2991250D01*
X11752190Y2673750D01*
Y2991250D01*
G01X12189190Y2673750D02*
Y2991250D01*
X12291560Y2726670D01*
X12393930Y2991250D01*
Y2673750D01*
G01X12559280Y2991250D02*
X12653760D01*
G01X12606520D02*
Y2673750D01*
G01X12559280D02*
X12653760D01*
G01X12842740Y2991250D02*
Y2673750D01*
X13000220D01*
G01X13157700Y2991250D02*
Y2673750D01*
X13315180D01*
G01X13504160Y2991250D02*
X13598640D01*
G01X13551400D02*
Y2673750D01*
G01X13504160D02*
X13598640D01*
G01X13763990D02*
Y2991250D01*
X13866360Y2726670D01*
X13968730Y2991250D01*
Y2673750D01*
G01X14260060D02*
X14102580D01*
Y2991250D01*
X14260060D01*
G01X14197070Y2837800D02*
X14102580D01*
G01X14496280Y2991250D02*
Y2673750D01*
G01X14405730Y2991250D02*
X14586830D01*
G01X14889980Y2673750D02*
X14732500D01*
Y2991250D01*
X14889980D01*
G01X14826990Y2837800D02*
X14732500D01*
G01X15047460Y2673750D02*
Y2991250D01*
X15145880D01*
X15177380Y2975370D01*
X15197070Y2954210D01*
X15204940Y2911870D01*
X15197070Y2869540D01*
X15173440Y2843090D01*
X15145880Y2827200D01*
X15047460D01*
G01X15145880D02*
X15204940Y2673750D01*
G01X15358480Y2716070D02*
X15389980Y2689620D01*
X15425410Y2673750D01*
X15456910D01*
X15488400Y2689620D01*
X15512030Y2716070D01*
X15523840Y2753130D01*
X15515970Y2790160D01*
X15496280Y2821910D01*
X15460840Y2843090D01*
X15413600Y2853670D01*
X15386040Y2874830D01*
X15374230Y2911870D01*
X15382110Y2948920D01*
X15401790Y2975370D01*
X15429350Y2991250D01*
X15456910D01*
X15484470Y2980670D01*
X15508090Y2954210D01*
G01X7165590Y3323750D02*
Y3641250D01*
X7244320D01*
X7275820Y3625370D01*
X7299440Y3604210D01*
X7319130Y3572460D01*
X7334880Y3535410D01*
X7338810Y3482500D01*
X7334880Y3429580D01*
X7319130Y3392540D01*
X7299440Y3360780D01*
X7275820Y3339620D01*
X7244320Y3323750D01*
X7165590D01*
G01X7488420D02*
Y3641250D01*
X7586840D01*
X7618340Y3625370D01*
X7638030Y3604210D01*
X7645900Y3561870D01*
X7638030Y3519540D01*
X7614400Y3493090D01*
X7586840Y3477200D01*
X7488420D01*
G01X7586840D02*
X7645900Y3323750D01*
G01X7834880Y3641250D02*
X7929360D01*
G01X7882120D02*
Y3323750D01*
G01X7834880D02*
X7929360D01*
G01X8118340Y3641250D02*
Y3323750D01*
X8275820D01*
G01X8433300Y3641250D02*
Y3323750D01*
X8590780D01*
G01X9228570Y3614790D02*
X9204950Y3630670D01*
X9177400Y3641250D01*
X9145900D01*
X9110460Y3625370D01*
X9082910Y3598920D01*
X9063220Y3567160D01*
X9047470Y3514250D01*
X9043530Y3466620D01*
X9051410Y3419000D01*
X9063220Y3387250D01*
X9086840Y3355490D01*
X9114400Y3334330D01*
X9141960Y3323750D01*
X9169520D01*
X9197080Y3334330D01*
X9220700Y3350200D01*
X9240390Y3371360D01*
G01X9374240Y3323750D02*
Y3641250D01*
G01X9539600D02*
Y3323750D01*
G01Y3482500D02*
X9374240D01*
G01X9673450Y3323750D02*
X9771880Y3641250D01*
X9870310Y3323750D01*
G01X9834870Y3434870D02*
X9708880D01*
G01X10008100Y3323750D02*
Y3641250D01*
X10106520D01*
X10138020Y3625370D01*
X10157710Y3604210D01*
X10165580Y3561870D01*
X10157710Y3519540D01*
X10134080Y3493090D01*
X10106520Y3477200D01*
X10008100D01*
G01X10106520D02*
X10165580Y3323750D01*
G01X10401800Y3641250D02*
Y3323750D01*
G01X10311250Y3641250D02*
X10492350D01*
G01X10716760Y3313170D02*
X10708880Y3318460D01*
Y3329040D01*
X10716760Y3334330D01*
X10724640Y3329040D01*
Y3318460D01*
X10716760Y3313170D01*
G01Y3456030D02*
X10708880Y3461330D01*
Y3471910D01*
X10716760Y3477200D01*
X10724640Y3471910D01*
Y3461330D01*
X10716760Y3456030D01*
G01X11346680Y3641250D02*
Y3323750D01*
G01X11256130Y3641250D02*
X11437230D01*
G01X11661640Y3323750D02*
X11630140Y3329040D01*
X11602590Y3350200D01*
X11578960Y3381960D01*
X11563210Y3419000D01*
X11555340Y3461330D01*
Y3503670D01*
X11563210Y3546000D01*
X11578960Y3583040D01*
X11602590Y3614790D01*
X11630140Y3635960D01*
X11661640Y3641250D01*
X11693130Y3635960D01*
X11720690Y3614790D01*
X11744320Y3583040D01*
X11760070Y3546000D01*
X11767940Y3503670D01*
Y3461330D01*
X11760070Y3419000D01*
X11744320Y3381960D01*
X11720690Y3350200D01*
X11693130Y3329040D01*
X11661640Y3323750D01*
G01X11897860D02*
Y3641250D01*
X11992350D01*
X12023840Y3625370D01*
X12047470Y3588330D01*
X12055340Y3546000D01*
X12047470Y3503670D01*
X12027780Y3471910D01*
X11992350Y3456030D01*
X11897860D01*
G01X12606520Y3641250D02*
Y3323750D01*
G01X12551400Y3535410D02*
X12661640D01*
G01X12921480Y3323750D02*
X12897860Y3329040D01*
X12874240Y3350200D01*
X12858480Y3387250D01*
X12850610Y3429580D01*
X12858480Y3471910D01*
X12874240Y3508960D01*
X12897860Y3530120D01*
X12921480Y3535410D01*
X12945100Y3530120D01*
X12968720Y3508960D01*
X12984470Y3471910D01*
X12988410Y3429580D01*
X12984470Y3387250D01*
X12968720Y3350200D01*
X12945100Y3329040D01*
X12921480Y3323750D01*
G01X13582890Y3493090D02*
X13598640Y3508960D01*
X13610450Y3535410D01*
X13618330Y3572460D01*
X13610450Y3604210D01*
X13594710Y3625370D01*
X13567150Y3641250D01*
X13460850D01*
Y3323750D01*
X13590770D01*
X13618330Y3344910D01*
X13634080Y3376670D01*
X13641950Y3413710D01*
X13634080Y3450740D01*
X13610450Y3482500D01*
X13582890Y3493090D01*
X13460850D01*
G01X13866360Y3323750D02*
X13834860Y3329040D01*
X13807310Y3350200D01*
X13783680Y3381960D01*
X13767930Y3419000D01*
X13760060Y3461330D01*
Y3503670D01*
X13767930Y3546000D01*
X13783680Y3583040D01*
X13807310Y3614790D01*
X13834860Y3635960D01*
X13866360Y3641250D01*
X13897850Y3635960D01*
X13925410Y3614790D01*
X13949040Y3583040D01*
X13964790Y3546000D01*
X13972660Y3503670D01*
Y3461330D01*
X13964790Y3419000D01*
X13949040Y3381960D01*
X13925410Y3350200D01*
X13897850Y3329040D01*
X13866360Y3323750D01*
G01X14181320Y3641250D02*
Y3323750D01*
G01X14090770Y3641250D02*
X14271870D01*
G01X14496280D02*
Y3323750D01*
G01X14405730Y3641250D02*
X14586830D01*
G01X14811240Y3323750D02*
X14779740Y3329040D01*
X14752190Y3350200D01*
X14728560Y3381960D01*
X14712810Y3419000D01*
X14704940Y3461330D01*
Y3503670D01*
X14712810Y3546000D01*
X14728560Y3583040D01*
X14752190Y3614790D01*
X14779740Y3635960D01*
X14811240Y3641250D01*
X14842730Y3635960D01*
X14870290Y3614790D01*
X14893920Y3583040D01*
X14909670Y3546000D01*
X14917540Y3503670D01*
Y3461330D01*
X14909670Y3419000D01*
X14893920Y3381960D01*
X14870290Y3350200D01*
X14842730Y3329040D01*
X14811240Y3323750D01*
G01X15023830D02*
Y3641250D01*
X15126200Y3376670D01*
X15228570Y3641250D01*
Y3323750D01*
G01X7767940Y2038750D02*
Y2356250D01*
X7917560D01*
G01X7862430Y2202800D02*
X7767940D01*
G01X8110470Y2356250D02*
X8204950D01*
G01X8157710D02*
Y2038750D01*
G01X8110470D02*
X8204950D01*
G01X8382120D02*
Y2356250D01*
X8563220Y2038750D01*
Y2356250D01*
G01X8740390D02*
X8834870D01*
G01X8787630D02*
Y2038750D01*
G01X8740390D02*
X8834870D01*
G01X9019910Y2081070D02*
X9051410Y2054620D01*
X9086840Y2038750D01*
X9118340D01*
X9149830Y2054620D01*
X9173460Y2081070D01*
X9185270Y2118130D01*
X9177400Y2155160D01*
X9157710Y2186910D01*
X9122270Y2208090D01*
X9075030Y2218670D01*
X9047470Y2239830D01*
X9035660Y2276870D01*
X9043540Y2313920D01*
X9063220Y2340370D01*
X9090780Y2356250D01*
X9118340D01*
X9145900Y2345670D01*
X9169520Y2319210D01*
G01X9334870Y2038750D02*
Y2356250D01*
G01X9500230D02*
Y2038750D01*
G01Y2197500D02*
X9334870D01*
G01X9811250Y2038750D02*
X9653770D01*
Y2356250D01*
X9811250D01*
G01X9748260Y2202800D02*
X9653770D01*
G01X9960860Y2038750D02*
Y2356250D01*
X10039590D01*
X10071090Y2340370D01*
X10094710Y2319210D01*
X10114400Y2287460D01*
X10130150Y2250410D01*
X10134080Y2197500D01*
X10130150Y2144580D01*
X10114400Y2107540D01*
X10094710Y2075780D01*
X10071090Y2054620D01*
X10039590Y2038750D01*
X9960860D01*
G01X10244320Y1932920D02*
X10480540D01*
G01X10594710Y2081070D02*
X10626210Y2054620D01*
X10661640Y2038750D01*
X10693140D01*
X10724630Y2054620D01*
X10748260Y2081070D01*
X10760070Y2118130D01*
X10752200Y2155160D01*
X10732510Y2186910D01*
X10697070Y2208090D01*
X10649830Y2218670D01*
X10622270Y2239830D01*
X10610460Y2276870D01*
X10618340Y2313920D01*
X10638020Y2340370D01*
X10665580Y2356250D01*
X10693140D01*
X10720700Y2345670D01*
X10744320Y2319210D01*
G01X10945110Y2356250D02*
X11039590D01*
G01X10992350D02*
Y2038750D01*
G01X10945110D02*
X11039590D01*
G01X11232500Y2356250D02*
X11382120D01*
X11232500Y2038750D01*
X11382120D01*
G01X11701010D02*
X11543530D01*
Y2356250D01*
X11701010D01*
G01X11638020Y2202800D02*
X11543530D01*
G01X8945110Y1721250D02*
X8913610Y1710670D01*
X8889990Y1684210D01*
X8874240Y1652460D01*
X8862430Y1610120D01*
X8858500Y1562500D01*
X8862430Y1514870D01*
X8874240Y1472540D01*
X8889990Y1440780D01*
X8913610Y1414330D01*
X8945110Y1403750D01*
X8976600Y1414330D01*
X9000230Y1440780D01*
X9015980Y1472540D01*
X9027790Y1514870D01*
X9031720Y1562500D01*
X9027790Y1610120D01*
X9015980Y1652460D01*
X9000230Y1684210D01*
X8976600Y1710670D01*
X8945110Y1721250D01*
G01X9260070Y1393170D02*
X9252190Y1398460D01*
Y1409040D01*
X9260070Y1414330D01*
X9267950Y1409040D01*
Y1398460D01*
X9260070Y1393170D01*
G01X9488420Y1467250D02*
X9512030Y1430200D01*
X9543530Y1409040D01*
X9578970Y1403750D01*
X9610470Y1409040D01*
X9641960Y1435490D01*
X9661640Y1467250D01*
X9665580Y1499000D01*
X9657710Y1536030D01*
X9630150Y1562500D01*
X9602590Y1573090D01*
X9567150D01*
G01X9602590D02*
X9626210Y1588960D01*
X9645900Y1615410D01*
X9653770Y1647160D01*
X9645900Y1678920D01*
X9626210Y1705370D01*
X9590780Y1721250D01*
X9555350Y1715960D01*
X9519910Y1694790D01*
G01X9889990Y1721250D02*
X9858490Y1710670D01*
X9834870Y1684210D01*
X9819120Y1652460D01*
X9807310Y1610120D01*
X9803380Y1562500D01*
X9807310Y1514870D01*
X9819120Y1472540D01*
X9834870Y1440780D01*
X9858490Y1414330D01*
X9889990Y1403750D01*
X9921480Y1414330D01*
X9945110Y1440780D01*
X9960860Y1472540D01*
X9972670Y1514870D01*
X9976600Y1562500D01*
X9972670Y1610120D01*
X9960860Y1652460D01*
X9945110Y1684210D01*
X9921480Y1710670D01*
X9889990Y1721250D01*
G01X10252190Y1403750D02*
Y1721250D01*
X10106520Y1493710D01*
X10303380D01*
G01X10519910Y1403750D02*
X10547470Y1409040D01*
X10578960Y1424910D01*
X10598650Y1451360D01*
X10606520Y1488420D01*
X10598650Y1525450D01*
X10575030Y1557200D01*
X10539590Y1573090D01*
X10500230D01*
X10476600Y1583670D01*
X10456910Y1610120D01*
X10449040Y1647160D01*
X10460860Y1684210D01*
X10488410Y1710670D01*
X10519910Y1721250D01*
X10551400Y1710670D01*
X10578960Y1684210D01*
X10590780Y1647160D01*
X10582900Y1610120D01*
X10563220Y1583670D01*
X10539590Y1573090D01*
X10500230D01*
X10464790Y1557200D01*
X10441170Y1525450D01*
X10433300Y1488420D01*
X10441170Y1451360D01*
X10460860Y1424910D01*
X10492350Y1409040D01*
X10519910Y1403750D01*
G01X9417550Y133750D02*
Y451250D01*
X9370310Y387750D01*
G01Y133750D02*
X9464790D01*
G01X9732510Y123170D02*
X9724630Y128460D01*
Y139040D01*
X9732510Y144330D01*
X9740390Y139040D01*
Y128460D01*
X9732510Y123170D01*
G01X10047470Y133750D02*
Y451250D01*
X10000230Y387750D01*
G01Y133750D02*
X10094710D01*
G01X9417550Y1086250D02*
X9386050Y1075670D01*
X9362430Y1049210D01*
X9346680Y1017460D01*
X9334870Y975120D01*
X9330940Y927500D01*
X9334870Y879870D01*
X9346680Y837540D01*
X9362430Y805780D01*
X9386050Y779330D01*
X9417550Y768750D01*
X9449040Y779330D01*
X9472670Y805780D01*
X9488420Y837540D01*
X9500230Y879870D01*
X9504160Y927500D01*
X9500230Y975120D01*
X9488420Y1017460D01*
X9472670Y1049210D01*
X9449040Y1075670D01*
X9417550Y1086250D01*
G01X9732510Y758170D02*
X9724630Y763460D01*
Y774040D01*
X9732510Y779330D01*
X9740390Y774040D01*
Y763460D01*
X9732510Y758170D01*
G01X9972660Y901030D02*
X10000230Y938090D01*
X10023850Y959250D01*
X10055350Y969830D01*
X10082910Y959250D01*
X10102590Y938090D01*
X10118340Y906330D01*
X10122280Y869290D01*
X10118340Y837540D01*
X10102590Y805780D01*
X10078960Y779330D01*
X10051410Y768750D01*
X10019910Y779330D01*
X9992350Y811070D01*
X9976600Y858710D01*
X9972660Y911620D01*
X9980540Y980410D01*
X9992350Y1017460D01*
X10012030Y1054500D01*
X10039590Y1080960D01*
X10067150Y1086250D01*
X10094710Y1075670D01*
X10114400Y1049210D01*
G01X11619730Y-183750D02*
Y-501250D01*
G01X11529180Y-183750D02*
X11710280D01*
G01X11934690Y-501250D02*
X11903190Y-495960D01*
X11875640Y-474800D01*
X11852010Y-443040D01*
X11836260Y-406000D01*
X11828390Y-363670D01*
Y-321330D01*
X11836260Y-279000D01*
X11852010Y-241960D01*
X11875640Y-210210D01*
X11903190Y-189040D01*
X11934690Y-183750D01*
X11966180Y-189040D01*
X11993740Y-210210D01*
X12017370Y-241960D01*
X12033120Y-279000D01*
X12040990Y-321330D01*
Y-363670D01*
X12033120Y-406000D01*
X12017370Y-443040D01*
X11993740Y-474800D01*
X11966180Y-495960D01*
X11934690Y-501250D01*
G01X12249650Y-183750D02*
Y-501250D01*
G01X12159100Y-183750D02*
X12340200D01*
G01X12466180Y-501250D02*
X12564610Y-183750D01*
X12663040Y-501250D01*
G01X12627600Y-390130D02*
X12501610D01*
G01X12800830Y-183750D02*
Y-501250D01*
X12958310D01*
G01X13426810D02*
Y-183750D01*
G01X13592170D02*
Y-501250D01*
G01Y-342500D02*
X13426810D01*
G01X13824450Y-501250D02*
X13792950Y-495960D01*
X13765400Y-474800D01*
X13741770Y-443040D01*
X13726020Y-406000D01*
X13718150Y-363670D01*
Y-321330D01*
X13726020Y-279000D01*
X13741770Y-241960D01*
X13765400Y-210210D01*
X13792950Y-189040D01*
X13824450Y-183750D01*
X13855940Y-189040D01*
X13883500Y-210210D01*
X13907130Y-241960D01*
X13922880Y-279000D01*
X13930750Y-321330D01*
Y-363670D01*
X13922880Y-406000D01*
X13907130Y-443040D01*
X13883500Y-474800D01*
X13855940Y-495960D01*
X13824450Y-501250D01*
G01X14060670Y-183750D02*
Y-501250D01*
X14218150D01*
G01X14533110D02*
X14375630D01*
Y-183750D01*
X14533110D01*
G01X14470120Y-337200D02*
X14375630D01*
G01X14686650Y-458930D02*
X14718150Y-485380D01*
X14753580Y-501250D01*
X14785080D01*
X14816570Y-485380D01*
X14840200Y-458930D01*
X14852010Y-421870D01*
X14844140Y-384840D01*
X14824450Y-353090D01*
X14789010Y-331910D01*
X14741770Y-321330D01*
X14714210Y-300170D01*
X14702400Y-263130D01*
X14710280Y-226080D01*
X14729960Y-199630D01*
X14757520Y-183750D01*
X14785080D01*
X14812640Y-194330D01*
X14836260Y-220790D01*
G01X15084290Y-511830D02*
X15076410Y-506540D01*
Y-495960D01*
X15084290Y-490670D01*
X15092170Y-495960D01*
Y-506540D01*
X15084290Y-511830D01*
G01Y-368970D02*
X15076410Y-363670D01*
Y-353090D01*
X15084290Y-347800D01*
X15092170Y-353090D01*
Y-363670D01*
X15084290Y-368970D01*
G01X13039590Y133750D02*
Y451250D01*
X13134080D01*
X13165570Y435370D01*
X13189200Y398330D01*
X13197070Y356000D01*
X13189200Y313670D01*
X13169510Y281910D01*
X13134080Y266030D01*
X13039590D01*
G01X13354550Y451250D02*
Y133750D01*
X13512030D01*
G01X13649820D02*
X13748250Y451250D01*
X13846680Y133750D01*
G01X13811240Y244870D02*
X13685250D01*
G01X14063210Y451250D02*
Y133750D01*
G01X13972660Y451250D02*
X14153760D01*
G01X14456910Y133750D02*
X14299430D01*
Y451250D01*
X14456910D01*
G01X14393920Y297800D02*
X14299430D01*
G01X14606520Y133750D02*
Y451250D01*
X14685250D01*
X14716750Y435370D01*
X14740370Y414210D01*
X14760060Y382460D01*
X14775810Y345410D01*
X14779740Y292500D01*
X14775810Y239580D01*
X14760060Y202540D01*
X14740370Y170780D01*
X14716750Y149620D01*
X14685250Y133750D01*
X14606520D01*
G01X13039590Y768750D02*
Y1086250D01*
X13134080D01*
X13165570Y1070370D01*
X13189200Y1033330D01*
X13197070Y991000D01*
X13189200Y948670D01*
X13169510Y916910D01*
X13134080Y901030D01*
X13039590D01*
G01X13354550Y1086250D02*
Y768750D01*
X13512030D01*
G01X13649820D02*
X13748250Y1086250D01*
X13846680Y768750D01*
G01X13811240Y879870D02*
X13685250D01*
G01X14063210Y1086250D02*
Y768750D01*
G01X13972660Y1086250D02*
X14153760D01*
G01X14456910Y768750D02*
X14299430D01*
Y1086250D01*
X14456910D01*
G01X14393920Y932800D02*
X14299430D01*
G01X14606520Y768750D02*
Y1086250D01*
X14685250D01*
X14716750Y1070370D01*
X14740370Y1049210D01*
X14760060Y1017460D01*
X14775810Y980410D01*
X14779740Y927500D01*
X14775810Y874580D01*
X14760060Y837540D01*
X14740370Y805780D01*
X14716750Y784620D01*
X14685250Y768750D01*
X14606520D01*
G01X13039590Y1403750D02*
Y1721250D01*
X13134080D01*
X13165570Y1705370D01*
X13189200Y1668330D01*
X13197070Y1626000D01*
X13189200Y1583670D01*
X13169510Y1551910D01*
X13134080Y1536030D01*
X13039590D01*
G01X13354550Y1721250D02*
Y1403750D01*
X13512030D01*
G01X13649820D02*
X13748250Y1721250D01*
X13846680Y1403750D01*
G01X13811240Y1514870D02*
X13685250D01*
G01X14063210Y1721250D02*
Y1403750D01*
G01X13972660Y1721250D02*
X14153760D01*
G01X14456910Y1403750D02*
X14299430D01*
Y1721250D01*
X14456910D01*
G01X14393920Y1567800D02*
X14299430D01*
G01X14606520Y1403750D02*
Y1721250D01*
X14685250D01*
X14716750Y1705370D01*
X14740370Y1684210D01*
X14760060Y1652460D01*
X14775810Y1615410D01*
X14779740Y1562500D01*
X14775810Y1509580D01*
X14760060Y1472540D01*
X14740370Y1440780D01*
X14716750Y1419620D01*
X14685250Y1403750D01*
X14606520D01*
G01X13039590Y2038750D02*
Y2356250D01*
X13134080D01*
X13165570Y2340370D01*
X13189200Y2303330D01*
X13197070Y2261000D01*
X13189200Y2218670D01*
X13169510Y2186910D01*
X13134080Y2171030D01*
X13039590D01*
G01X13354550Y2356250D02*
Y2038750D01*
X13512030D01*
G01X13649820D02*
X13748250Y2356250D01*
X13846680Y2038750D01*
G01X13811240Y2149870D02*
X13685250D01*
G01X14063210Y2356250D02*
Y2038750D01*
G01X13972660Y2356250D02*
X14153760D01*
G01X14456910Y2038750D02*
X14299430D01*
Y2356250D01*
X14456910D01*
G01X14393920Y2202800D02*
X14299430D01*
G01X14606520Y2038750D02*
Y2356250D01*
X14685250D01*
X14716750Y2340370D01*
X14740370Y2319210D01*
X14760060Y2287460D01*
X14775810Y2250410D01*
X14779740Y2197500D01*
X14775810Y2144580D01*
X14760060Y2107540D01*
X14740370Y2075780D01*
X14716750Y2054620D01*
X14685250Y2038750D01*
X14606520D01*
G01X16189190D02*
X16157690Y2044040D01*
X16130140Y2065200D01*
X16106510Y2096960D01*
X16090760Y2134000D01*
X16082890Y2176330D01*
Y2218670D01*
X16090760Y2261000D01*
X16106510Y2298040D01*
X16130140Y2329790D01*
X16157690Y2350960D01*
X16189190Y2356250D01*
X16220680Y2350960D01*
X16248240Y2329790D01*
X16271870Y2298040D01*
X16287620Y2261000D01*
X16295490Y2218670D01*
Y2176330D01*
X16287620Y2134000D01*
X16271870Y2096960D01*
X16248240Y2065200D01*
X16220680Y2044040D01*
X16189190Y2038750D01*
G01X16220680Y2123420D02*
X16267930Y2038750D01*
G01X16504150Y2356250D02*
Y2038750D01*
G01X16413600Y2356250D02*
X16594700D01*
G01X16819110Y2038750D02*
Y2181620D01*
X16740370Y2356250D01*
G01X16897850D02*
X16819110Y2181620D01*
G01X16260060Y-453640D02*
X16283670Y-480090D01*
X16311230Y-495960D01*
X16346670Y-501250D01*
X16382110Y-490670D01*
X16409660Y-469510D01*
X16429350Y-432460D01*
X16433280Y-390130D01*
X16425410Y-347800D01*
X16405720Y-321330D01*
X16378160Y-300170D01*
X16350610Y-294880D01*
X16323050Y-300170D01*
X16287620Y-321330D01*
X16299430Y-183750D01*
X16405720D01*
G01X16661630D02*
X16630130Y-194330D01*
X16606510Y-220790D01*
X16590760Y-252540D01*
X16578950Y-294880D01*
X16575020Y-342500D01*
X16578950Y-390130D01*
X16590760Y-432460D01*
X16606510Y-464220D01*
X16630130Y-490670D01*
X16661630Y-501250D01*
X16693120Y-490670D01*
X16716750Y-464220D01*
X16732500Y-432460D01*
X16744310Y-390130D01*
X16748240Y-342500D01*
X16744310Y-294880D01*
X16732500Y-252540D01*
X16716750Y-220790D01*
X16693120Y-194330D01*
X16661630Y-183750D01*
G01X16496270Y133750D02*
X16504150Y202540D01*
X16515960Y260740D01*
X16531710Y313670D01*
X16551390Y371870D01*
X16582890Y451250D01*
X16425410D01*
G01X16346670Y768750D02*
Y1086250D01*
X16299430Y1022750D01*
G01Y768750D02*
X16393910D01*
G01X16661630Y1086250D02*
X16630130Y1075670D01*
X16606510Y1049210D01*
X16590760Y1017460D01*
X16578950Y975120D01*
X16575020Y927500D01*
X16578950Y879870D01*
X16590760Y837540D01*
X16606510Y805780D01*
X16630130Y779330D01*
X16661630Y768750D01*
X16693120Y779330D01*
X16716750Y805780D01*
X16732500Y837540D01*
X16744310Y879870D01*
X16748240Y927500D01*
X16744310Y975120D01*
X16732500Y1017460D01*
X16716750Y1049210D01*
X16693120Y1075670D01*
X16661630Y1086250D01*
G01X16260060Y1467250D02*
X16283670Y1430200D01*
X16315170Y1409040D01*
X16350610Y1403750D01*
X16382110Y1409040D01*
X16413600Y1435490D01*
X16433280Y1467250D01*
X16437220Y1499000D01*
X16429350Y1536030D01*
X16401790Y1562500D01*
X16374230Y1573090D01*
X16338790D01*
G01X16374230D02*
X16397850Y1588960D01*
X16417540Y1615410D01*
X16425410Y1647160D01*
X16417540Y1678920D01*
X16397850Y1705370D01*
X16362420Y1721250D01*
X16326990Y1715960D01*
X16291550Y1694790D01*
G01X16575020Y1467250D02*
X16598630Y1430200D01*
X16630130Y1409040D01*
X16665570Y1403750D01*
X16697070Y1409040D01*
X16728560Y1435490D01*
X16748240Y1467250D01*
X16752180Y1499000D01*
X16744310Y1536030D01*
X16716750Y1562500D01*
X16689190Y1573090D01*
X16653750D01*
G01X16689190D02*
X16712810Y1588960D01*
X16732500Y1615410D01*
X16740370Y1647160D01*
X16732500Y1678920D01*
X16712810Y1705370D01*
X16677380Y1721250D01*
X16641950Y1715960D01*
X16606510Y1694790D01*
G01X-250000Y0D02*
X-670000D01*
G01X-420000Y1324260D02*
Y0D01*
G01X-482500Y400000D02*
X-420000Y0D01*
X-357500Y400000D01*
X-482500D01*
G01X-420000Y1815740D02*
Y3000000D01*
G01X-357500Y2600000D02*
X-420000Y3000000D01*
X-482500Y2600000D01*
X-357500D01*
G01X70000Y3000000D02*
X-670000D01*
G01X0Y-250000D02*
Y-610000D01*
G01X1593140Y-360000D02*
X0D01*
G01X400000Y-297500D02*
X0Y-360000D01*
X400000Y-422500D01*
Y-297500D01*
G01X2226860Y-360000D02*
X4100000D01*
G01Y-110000D02*
Y-610000D01*
G01X3700000Y-422500D02*
X4100000Y-360000D01*
X3700000Y-297500D01*
Y-422500D01*
G01X4890000Y-25000D02*
Y3800000D01*
X17488400D01*
Y-25000D01*
X4890000D01*
G01Y610000D02*
X17488400D01*
G01X4890000Y1245000D02*
X17488400D01*
G01X4890000Y1880000D02*
X17488400D01*
G01X4890000Y2515000D02*
X17488400D01*
G01X4890000Y3150000D02*
X17488400D01*
G01X7173460Y2515000D02*
Y-25000D01*
G01X12291560Y2515000D02*
Y-25000D01*
G01X15519900Y2515000D02*
Y-25000D01*
M02*
