M48
METRIC,TZ
T01C.3048
T02C.6
T03C1.1
;LEADER: 12 
;HEADER: 
;CODE  : ASCII 
;FILE  : JLINKtoSWD_V10-1-2.drl for board H:/github/MBED-TOOLS/HARDWARE/JLINKtoSWD_V10/PCB/#Taaaaei01508.tmp ... layers TOP and BOTTOM
;T01 Holesize 1. = 0.304800 Tolerance = +0.000000/-0.000000 PLATED MM Quantity = 33
;T02 Holesize 2. = 0.600000 Tolerance = +0.000000/-0.000000 PLATED MM Quantity = 10
;T03 Holesize 3. = 1.100000 Tolerance = +0.000000/-0.000000 PLATED MM Quantity = 7
%
G90
T01
X200810Y919570
X624840Y853530
X924840Y853530
X1224840Y853530
X1524840Y853530
X1824840Y853530
X2124840Y853530
X2424840Y853530
X2724840Y853530
X3832940Y680880
X3832940Y980880
X3832940Y1880880
X3832940Y1580880
X3832940Y1280880
X2766720Y1783550
X2466720Y1783550
X2166720Y1783550
X1866720Y1783550
X1566720Y1783550
X1266720Y1783550
X966720Y1783550
X200810Y1819570
X200810Y1519570
X200810Y1219570
X200810Y2119570
X976720Y2223550
X1276720Y2223550
X1576720Y2223550
X1876720Y2223550
X2176720Y2223550
X2476720Y2223550
X2776720Y2223550
X3832940Y2180880
T02
X616500Y1246000
X743500Y1246000
X616500Y1373000
X616500Y1500000
X743500Y1373000
X743500Y1500000
X616500Y1627000
X616500Y1754000
X743500Y1627000
X743500Y1754000
T03
X3380000Y738000
X3380000Y992000
X3380000Y1246000
X3380000Y1500000
X3380000Y1754000
X3380000Y2008000
X3380000Y2262000
M30
