G04 ================== begin FILE IDENTIFICATION RECORD ==================*
G04 Layout Name:  H:/github/MBED-TOOLS/HARDWARE/JLINKtoSWD_V10/PCB/JLINKtoSWD_V10.brd*
G04 Film Name:    TOP*
G04 File Format:  Gerber RS274X*
G04 File Origin:  Cadence Allegro 17.2-S067*
G04 Origin Date:  Sat Aug 01 11:17:35 2020*
G04 *
G04 Layer:  VIA CLASS/TOP*
G04 Layer:  PIN/TOP*
G04 Layer:  ETCH/TOP*
G04 *
G04 Offset:    (0.0000 0.0000)*
G04 Mirror:    No*
G04 Mode:      Positive*
G04 Rotation:  0*
G04 FullContactRelief:  No*
G04 UndefLineWidth:     0.1524*
G04 ================== end FILE IDENTIFICATION RECORD ====================*
%FSLAX55Y55*MOMM*%
%IR0*IPPOS*OFA0.00000B0.00000*MIA0B0*SFA1.00000B1.00000*%
%ADD10C,.6096*%
%ADD13R,1.8X1.*%
%ADD12C,1.*%
%ADD11R,1.X1.*%
%ADD14C,1.8*%
%ADD15R,1.8X1.8*%
%ADD16C,.254*%
%ADD17C,.508*%
G75*
%LPD*%
G75*
G36*
G01X30000Y2440000D02*
X1348900D01*
G02X1355670Y2422260I3J-10161D01*
G01X1345790Y2413440D01*
X605000D01*
G03X563680Y2396320I6J-58438D01*
G01X428680Y2261320D01*
G03X411560Y2220000I41318J-41326D01*
G01Y1660000D01*
G03X428680Y1618680I58438J6D01*
G01X461680Y1585680D01*
G03X503000Y1568560I41326J41318D01*
G01X510940D01*
G02X529420Y1539790I1J-20320D01*
G03X520760Y1500000I87081J-39790D01*
G03X544850Y1436500I95736J0D01*
G03Y1309500I71646J-63500D01*
G03X520760Y1246000I71646J-63500D01*
G03X549600Y1177510I95746J0D01*
G01X549650Y1177470D01*
X558060Y1169050D01*
Y1153500D01*
G03X575180Y1112180I58438J6D01*
G01X633680Y1053680D01*
G03X675000Y1036560I41326J41318D01*
G01X1345790D01*
X1374530Y1010890D01*
G03X1405000Y999260I30470J34100D01*
G01X1585000D01*
G03X1615470Y1010890I0J45730D01*
G01X1644210Y1036560D01*
X2255790D01*
X2284530Y1010890D01*
G03X2315000Y999260I30470J34100D01*
G01X2495000D01*
G03X2525470Y1010890I0J45730D01*
G01X2554210Y1036560D01*
X3040790D01*
X3071560Y1005790D01*
Y640000D01*
G03X3088680Y598680I58438J6D01*
G01X3102670Y584690D01*
G02X3088300Y550000I-14370J-14369D01*
G01X30000D01*
Y2440000D01*
G37*
G36*
G01X554770Y1618020D02*
X581150Y1591650D01*
X619680Y1627000D01*
X581150Y1662350D01*
X554770Y1635980D01*
G03Y1618020I8980J-8980D01*
G37*
G36*
G01X625480Y1184270D02*
X651850Y1210650D01*
X616500Y1249180D01*
X581150Y1210650D01*
X607520Y1184270D01*
G03X625480I8980J8980D01*
G37*
G36*
G01X805230Y1635980D02*
X778850Y1662350D01*
X740320Y1627000D01*
X778850Y1591650D01*
X805230Y1618020D01*
G03Y1635980I-8980J8980D01*
G37*
G36*
G01Y1381980D02*
X778850Y1408350D01*
X740320Y1373000D01*
X778850Y1337650D01*
X805230Y1364020D01*
G03Y1381980I-8980J8980D01*
G37*
G36*
G01X840970Y1253590D02*
X793500Y1296000D01*
X740320Y1246000D01*
X793500Y1196000D01*
X840970Y1238410D01*
G03Y1253590I-10180J7590D01*
G37*
G36*
G01X805230Y1508980D02*
X778850Y1535350D01*
X740320Y1500000D01*
X778850Y1464650D01*
X805230Y1491020D01*
G03Y1508980I-8980J8980D01*
G37*
G36*
G01X2559410Y2440000D02*
X4080000D01*
Y550000D01*
X3631700D01*
G02X3617330Y584690I0J20321D01*
G01X3621320Y588680D01*
G03X3638440Y630000I-41318J41326D01*
G01Y1554000D01*
G03X3621320Y1595320I-58438J-6D01*
G01X3515740Y1700910D01*
Y1754000D01*
G03X3458890Y1864460I-135737J0D01*
G02Y1897540I11805J16540D01*
G03X3515740Y2008000I-78887J110460D01*
G03X3380000Y2143740I-135740J0D01*
G01X3344870D01*
X3328300Y2160300D01*
G03X3278000Y2181140I-50306J-50297D01*
G01X710000D01*
G03X659700Y2160300I6J-71137D01*
G01X566200Y2066800D01*
G03X563810Y2064300I50211J-50394D01*
G02X528440Y2077950I-15051J13651D01*
G01Y2195790D01*
X629210Y2296560D01*
X1345790D01*
X1374530Y2270890D01*
G03X1405000Y2259260I30470J34100D01*
G01X1585000D01*
G03X1615470Y2270890I0J45730D01*
G01X1644210Y2296560D01*
X2255790D01*
X2284530Y2270890D01*
G03X2315000Y2259260I30470J34100D01*
G01X2495000D01*
G03X2540740Y2305000I0J45740D01*
G01Y2405000D01*
G03X2539600Y2415160I-45741J12D01*
G02X2559410Y2440000I19809J4521D01*
G37*
G36*
G01X739470Y2038860D02*
X3244260D01*
Y2008000D01*
G03X3301110Y1897540I135737J0D01*
G02Y1864460I-11805J-16540D01*
G03X3244260Y1754000I78887J-110460D01*
G03X3250910Y1712040I135739J6D01*
G02X3231580Y1685440I-19326J-6280D01*
G01X820450D01*
X812030Y1693850D01*
X811990Y1693900D01*
G03X743500Y1722740I-68490J-66906D01*
G03X734000Y1722270I-25J-95741D01*
G02X711770Y1744500I-2013J20217D01*
G03X712240Y1754000I-95271J9475D01*
G03X687640Y1818070I-95734J0D01*
G01Y1987030D01*
X739470Y2038860D01*
G37*
G36*
G01X598530Y1806750D02*
X581150Y1789340D01*
X616500Y1747650D01*
X651850Y1789340D01*
X634470Y1806750D01*
G03X598530I-17970J-17960D01*
G37*
G36*
G01X1357530Y1087410D02*
X1405000Y1045000D01*
X1498180Y1095000D01*
X1405000Y1145000D01*
X1357530Y1102590D01*
G03Y1087410I10180J-7590D01*
G37*
G36*
G01Y2347410D02*
X1405000Y2305000D01*
X1498180Y2355000D01*
X1405000Y2405000D01*
X1357530Y2362590D01*
G03Y2347410I10180J-7590D01*
G37*
G36*
G01X1632470Y1102590D02*
X1585000Y1145000D01*
X1491820Y1095000D01*
X1585000Y1045000D01*
X1632470Y1087410D01*
G03Y1102590I-10180J7590D01*
G37*
G36*
G01X1641100Y2440000D02*
X2258900D01*
G02X2265670Y2422260I3J-10161D01*
G01X2255790Y2413440D01*
X1644210D01*
X1634330Y2422260D01*
G02X1641100Y2440000I6767J7579D01*
G37*
G36*
G01X1632470Y2362590D02*
X1585000Y2405000D01*
X1491820Y2355000D01*
X1585000Y2305000D01*
X1632470Y2347410D01*
G03Y2362590I-10180J7590D01*
G37*
G36*
G01X2542470Y1102590D02*
X2495000Y1145000D01*
X2401820Y1095000D01*
X2495000Y1045000D01*
X2542470Y1087410D01*
G03Y1102590I-10180J7590D01*
G37*
G36*
G01X2267530Y1087410D02*
X2315000Y1045000D01*
X2408180Y1095000D01*
X2315000Y1145000D01*
X2267530Y1102590D01*
G03Y1087410I10180J-7590D01*
G37*
G36*
G01Y2347410D02*
X2315000Y2305000D01*
X2408180Y2355000D01*
X2315000Y2405000D01*
X2267530Y2362590D01*
G03Y2347410I10180J-7590D01*
G37*
G36*
G01X3290000Y1069300D02*
Y992000D01*
X3382250Y989750D01*
X3380000Y1082000D01*
X3302700D01*
G03X3290000Y1069300I0J-12700D01*
G37*
G36*
G01X3261700Y729020D02*
X3316370Y674370D01*
X3383180Y738000D01*
X3316370Y801630D01*
X3261700Y746980D01*
G03Y729020I8980J-8980D01*
G37*
G36*
G01X3290000Y1577300D02*
Y1500000D01*
X3382250Y1497750D01*
X3380000Y1590000D01*
X3302700D01*
G03X3290000Y1577300I0J-12700D01*
G37*
G36*
G01Y1323300D02*
Y1246000D01*
X3382250Y1243750D01*
X3380000Y1336000D01*
X3302700D01*
G03X3290000Y1323300I0J-12700D01*
G37*
G36*
G01Y2072600D02*
Y2008000D01*
X3384490Y2003510D01*
X3380000Y2098000D01*
X3315400D01*
G03X3290000Y2072600I0J-25400D01*
G37*
G36*
G01X3470000Y1676700D02*
Y1754000D01*
X3377750Y1756250D01*
X3380000Y1664000D01*
X3457300D01*
G03X3470000Y1676700I0J12700D01*
G37*
G54D10*
X200810Y919570D03*
Y1519570D03*
Y1219570D03*
Y2119570D03*
Y1819570D03*
X624840Y853530D03*
X1224840D03*
X924840D03*
X1266720Y1783550D03*
X966720D03*
X1276720Y2223550D03*
X976720D03*
X1824840Y853530D03*
X1524840D03*
X1866720Y1783550D03*
X1566720D03*
X1876720Y2223550D03*
X1576720D03*
X2424840Y853530D03*
X2124840D03*
X2466720Y1783550D03*
X2166720D03*
X2476720Y2223550D03*
X2176720D03*
X2724840Y853530D03*
X2766720Y1783550D03*
X2776720Y2223550D03*
X3832940Y980880D03*
Y680880D03*
Y1580880D03*
Y1280880D03*
Y1880880D03*
Y2180880D03*
G54D11*
X743500Y1246000D03*
G54D12*
X616500Y1627000D03*
X743500D03*
X616500Y1500000D03*
X743500D03*
X616500Y1373000D03*
X743500D03*
X616500Y1246000D03*
Y1754000D03*
X743500D03*
G54D13*
X1495000Y645000D03*
Y1095000D03*
Y1905000D03*
Y2355000D03*
X2405000Y645000D03*
Y1095000D03*
Y1905000D03*
Y2355000D03*
G54D14*
X3380000Y738000D03*
Y992000D03*
Y1246000D03*
Y1500000D03*
Y1754000D03*
Y2008000D03*
G54D15*
Y2262000D03*
G54D16*
G01X1495000Y1095000D02*
X675000D01*
X616500Y1153500D01*
Y1246000D01*
G01X1495000Y2355000D02*
X605000D01*
X470000Y2220000D01*
Y1660000D01*
X503000Y1627000D01*
X616500D01*
G01X743500D02*
X3253000D01*
X3380000Y1500000D01*
G01X743500Y1373000D02*
X2999000D01*
X3380000Y992000D01*
G01Y738000D02*
X3252000D01*
X3210000Y780000D01*
Y1050000D01*
X3014000Y1246000D01*
X743500D01*
G01Y1500000D02*
X3126000D01*
X3380000Y1246000D01*
G01X1630000Y2430000D02*
X1612030Y2447970D01*
X1377970D01*
X1360000Y2430000D01*
X1330000D01*
G01X1495000Y1095000D02*
X2405000D01*
G01X1495000Y2355000D02*
X2405000D01*
G01Y1095000D02*
X3065000D01*
X3130000Y1030000D01*
Y640000D01*
X3200000Y570000D01*
X3520000D01*
X3580000Y630000D01*
Y1554000D01*
X3380000Y1754000D01*
G01X2550000Y2430000D02*
X2532030Y2447970D01*
X2287970D01*
X2270000Y2430000D01*
X2240000D01*
G01X3630000Y570000D02*
X3589360Y529360D01*
X3140640D01*
X3090000Y580000D01*
G54D17*
G01X3380000Y2008000D02*
X3278000Y2110000D01*
X710000D01*
X616500Y2016500D01*
Y1754000D01*
M02*
