G04 ================== begin FILE IDENTIFICATION RECORD ==================*
G04 Layout Name:  HY_SP32_AIRQ_V10_260326.brd*
G04 Film Name:    Drill_Legend*
G04 File Format:  Gerber RS274X*
G04 File Origin:  Cadence Allegro 25.1-S020*
G04 Origin Date:  Wed Apr  1 10:16:44 2026*
G04 *
G04 Layer:  MANUFACTURING/NCLEGEND-1-2*
G04 Layer:  MANUFACTURING/NCDRILL_LEGEND*
G04 Layer:  MANUFACTURING/NCDRILL_FIGURE*
G04 Layer:  BOARD GEOMETRY/DIMENSION*
G04 *
G04 Offset:    (0.0000 0.0000)*
G04 Mirror:    No*
G04 Mode:      Positive*
G04 Rotation:  0*
G04 FullContactRelief:  No*
G04 UndefLineWidth:     0.1524*
G04 ================== end FILE IDENTIFICATION RECORD ====================*
%FSLAX55Y55*MOMM*%
%IR0*IPPOS*OFA0.00000B0.00000*MIA0B0*SFA1.00000B1.00000*%
%AMMACRO10*
1,1,.1524,1.55,0.0*
20,1,.1524,1.55,0.0,0.0,-1.55,0.0*
1,1,.1524,0.0,-1.55*
20,1,.1524,0.0,-1.55,-1.55,0.0,0.0*
1,1,.1524,-1.55,0.0*
20,1,.1524,-1.55,0.0,0.0,1.55,0.0*
1,1,.1524,0.0,1.55*
20,1,.1524,0.0,1.55,1.55,0.0,0.0*
1,1,.1524,1.55,0.0*
%
%ADD10MACRO10*%
%AMMACRO16*
1,1,.1524,.3,.3*
20,1,.1524,.3,.3,.3,-.3,0.0*
1,1,.1524,.3,-.3*
20,1,.1524,.3,-.3,-.3,-.3,0.0*
1,1,.1524,-.3,-.3*
20,1,.1524,-.3,-.3,-.3,.3,0.0*
1,1,.1524,-.3,.3*
20,1,.1524,-.3,.3,.3,.3,0.0*
1,1,.1524,.3,.3*
%
%ADD16MACRO16*%
%AMMACRO12*
1,1,.1524,-.3,.3*
20,1,.1524,-.3,.3,.3,.3,0.0*
1,1,.1524,.3,.3*
20,1,.1524,.3,.3,.352094,.295442,0.0*
1,1,.1524,.352094,.295442*
20,1,.1524,.352094,.295442,.402606,.281908,0.0*
1,1,.1524,.402606,.281908*
20,1,.1524,.402606,.281908,.45,.259808,0.0*
1,1,.1524,.45,.259808*
20,1,.1524,.45,.259808,.492836,.229813,0.0*
1,1,.1524,.492836,.229813*
20,1,.1524,.492836,.229813,.529813,.192836,0.0*
1,1,.1524,.529813,.192836*
20,1,.1524,.529813,.192836,.559808,.15,0.0*
1,1,.1524,.559808,.15*
20,1,.1524,.559808,.15,.581908,.102606,0.0*
1,1,.1524,.581908,.102606*
20,1,.1524,.581908,.102606,.595442,.052094,0.0*
1,1,.1524,.595442,.052094*
20,1,.1524,.595442,.052094,.6,0.0,0.0*
1,1,.1524,.6,0.0*
20,1,.1524,.6,0.0,.595442,-.052094,0.0*
1,1,.1524,.595442,-.052094*
20,1,.1524,.595442,-.052094,.581908,-.102606,0.0*
1,1,.1524,.581908,-.102606*
20,1,.1524,.581908,-.102606,.559808,-.15,0.0*
1,1,.1524,.559808,-.15*
20,1,.1524,.559808,-.15,.529813,-.192836,0.0*
1,1,.1524,.529813,-.192836*
20,1,.1524,.529813,-.192836,.492836,-.229813,0.0*
1,1,.1524,.492836,-.229813*
20,1,.1524,.492836,-.229813,.45,-.259808,0.0*
1,1,.1524,.45,-.259808*
20,1,.1524,.45,-.259808,.402606,-.281908,0.0*
1,1,.1524,.402606,-.281908*
20,1,.1524,.402606,-.281908,.352094,-.295442,0.0*
1,1,.1524,.352094,-.295442*
20,1,.1524,.352094,-.295442,.3,-.3,0.0*
1,1,.1524,.3,-.3*
20,1,.1524,.3,-.3,-.3,-.3,0.0*
1,1,.1524,-.3,-.3*
20,1,.1524,-.3,-.3,-.352094,-.295442,0.0*
1,1,.1524,-.352094,-.295442*
20,1,.1524,-.352094,-.295442,-.402606,-.281908,0.0*
1,1,.1524,-.402606,-.281908*
20,1,.1524,-.402606,-.281908,-.45,-.259808,0.0*
1,1,.1524,-.45,-.259808*
20,1,.1524,-.45,-.259808,-.492836,-.229813,0.0*
1,1,.1524,-.492836,-.229813*
20,1,.1524,-.492836,-.229813,-.529813,-.192836,0.0*
1,1,.1524,-.529813,-.192836*
20,1,.1524,-.529813,-.192836,-.559808,-.15,0.0*
1,1,.1524,-.559808,-.15*
20,1,.1524,-.559808,-.15,-.581908,-.102606,0.0*
1,1,.1524,-.581908,-.102606*
20,1,.1524,-.581908,-.102606,-.595442,-.052094,0.0*
1,1,.1524,-.595442,-.052094*
20,1,.1524,-.595442,-.052094,-.6,0.0,0.0*
1,1,.1524,-.6,0.0*
20,1,.1524,-.6,0.0,-.595442,.052094,0.0*
1,1,.1524,-.595442,.052094*
20,1,.1524,-.595442,.052094,-.581908,.102606,0.0*
1,1,.1524,-.581908,.102606*
20,1,.1524,-.581908,.102606,-.559808,.15,0.0*
1,1,.1524,-.559808,.15*
20,1,.1524,-.559808,.15,-.529813,.192836,0.0*
1,1,.1524,-.529813,.192836*
20,1,.1524,-.529813,.192836,-.492836,.229813,0.0*
1,1,.1524,-.492836,.229813*
20,1,.1524,-.492836,.229813,-.45,.259808,0.0*
1,1,.1524,-.45,.259808*
20,1,.1524,-.45,.259808,-.402606,.281908,0.0*
1,1,.1524,-.402606,.281908*
20,1,.1524,-.402606,.281908,-.352094,.295442,0.0*
1,1,.1524,-.352094,.295442*
20,1,.1524,-.352094,.295442,-.3,.3,0.0*
1,1,.1524,-.3,.3*
1,1,.1524,-.15,-.15*
20,1,.1524,-.15,-.15,-.19,-.145,0.0*
1,1,.1524,-.19,-.145*
20,1,.1524,-.19,-.145,-.225,-.125,0.0*
1,1,.1524,-.225,-.125*
20,1,.1524,-.225,-.125,-.255,-.095,0.0*
1,1,.1524,-.255,-.095*
20,1,.1524,-.255,-.095,-.275,-.06,0.0*
1,1,.1524,-.275,-.06*
20,1,.1524,-.275,-.06,-.285,-.02,0.0*
1,1,.1524,-.285,-.02*
20,1,.1524,-.285,-.02,-.285,.02,0.0*
1,1,.1524,-.285,.02*
20,1,.1524,-.285,.02,-.275,.06,0.0*
1,1,.1524,-.275,.06*
20,1,.1524,-.275,.06,-.255,.095,0.0*
1,1,.1524,-.255,.095*
20,1,.1524,-.255,.095,-.225,.125,0.0*
1,1,.1524,-.225,.125*
20,1,.1524,-.225,.125,-.19,.145,0.0*
1,1,.1524,-.19,.145*
20,1,.1524,-.19,.145,-.15,.15,0.0*
1,1,.1524,-.15,.15*
20,1,.1524,-.15,.15,-.11,.145,0.0*
1,1,.1524,-.11,.145*
20,1,.1524,-.11,.145,-.075,.125,0.0*
1,1,.1524,-.075,.125*
20,1,.1524,-.075,.125,-.045,.095,0.0*
1,1,.1524,-.045,.095*
20,1,.1524,-.045,.095,-.025,.06,0.0*
1,1,.1524,-.025,.06*
20,1,.1524,-.025,.06,-.015,.02,0.0*
1,1,.1524,-.015,.02*
20,1,.1524,-.015,.02,-.015,-.02,0.0*
1,1,.1524,-.015,-.02*
20,1,.1524,-.015,-.02,-.025,-.06,0.0*
1,1,.1524,-.025,-.06*
20,1,.1524,-.025,-.06,-.045,-.095,0.0*
1,1,.1524,-.045,-.095*
20,1,.1524,-.045,-.095,-.075,-.125,0.0*
1,1,.1524,-.075,-.125*
20,1,.1524,-.075,-.125,-.11,-.145,0.0*
1,1,.1524,-.11,-.145*
20,1,.1524,-.11,-.145,-.15,-.15,0.0*
1,1,.1524,-.15,-.15*
1,1,.1524,.0251,-.15*
20,1,.1524,.0251,-.15,.1501,.15,0.0*
1,1,.1524,.1501,.15*
20,1,.1524,.1501,.15,.2751,-.15,0.0*
1,1,.1524,.2751,-.15*
1,1,.1524,.2301,-.045*
20,1,.1524,.2301,-.045,.0701,-.045,0.0*
1,1,.1524,.0701,-.045*
%
%ADD12MACRO12*%
%AMMACRO13*
1,1,.1524,-.55,.3*
20,1,.1524,-.55,.3,.55,.3,0.0*
1,1,.1524,.55,.3*
20,1,.1524,.55,.3,.602094,.295442,0.0*
1,1,.1524,.602094,.295442*
20,1,.1524,.602094,.295442,.652606,.281908,0.0*
1,1,.1524,.652606,.281908*
20,1,.1524,.652606,.281908,.7,.259808,0.0*
1,1,.1524,.7,.259808*
20,1,.1524,.7,.259808,.742836,.229813,0.0*
1,1,.1524,.742836,.229813*
20,1,.1524,.742836,.229813,.779813,.192836,0.0*
1,1,.1524,.779813,.192836*
20,1,.1524,.779813,.192836,.809808,.15,0.0*
1,1,.1524,.809808,.15*
20,1,.1524,.809808,.15,.831908,.102606,0.0*
1,1,.1524,.831908,.102606*
20,1,.1524,.831908,.102606,.845442,.052094,0.0*
1,1,.1524,.845442,.052094*
20,1,.1524,.845442,.052094,.85,0.0,0.0*
1,1,.1524,.85,0.0*
20,1,.1524,.85,0.0,.845442,-.052094,0.0*
1,1,.1524,.845442,-.052094*
20,1,.1524,.845442,-.052094,.831908,-.102606,0.0*
1,1,.1524,.831908,-.102606*
20,1,.1524,.831908,-.102606,.809808,-.15,0.0*
1,1,.1524,.809808,-.15*
20,1,.1524,.809808,-.15,.779813,-.192836,0.0*
1,1,.1524,.779813,-.192836*
20,1,.1524,.779813,-.192836,.742836,-.229813,0.0*
1,1,.1524,.742836,-.229813*
20,1,.1524,.742836,-.229813,.7,-.259808,0.0*
1,1,.1524,.7,-.259808*
20,1,.1524,.7,-.259808,.652606,-.281908,0.0*
1,1,.1524,.652606,-.281908*
20,1,.1524,.652606,-.281908,.602094,-.295442,0.0*
1,1,.1524,.602094,-.295442*
20,1,.1524,.602094,-.295442,.55,-.3,0.0*
1,1,.1524,.55,-.3*
20,1,.1524,.55,-.3,-.55,-.3,0.0*
1,1,.1524,-.55,-.3*
20,1,.1524,-.55,-.3,-.602094,-.295442,0.0*
1,1,.1524,-.602094,-.295442*
20,1,.1524,-.602094,-.295442,-.652606,-.281908,0.0*
1,1,.1524,-.652606,-.281908*
20,1,.1524,-.652606,-.281908,-.7,-.259808,0.0*
1,1,.1524,-.7,-.259808*
20,1,.1524,-.7,-.259808,-.742836,-.229813,0.0*
1,1,.1524,-.742836,-.229813*
20,1,.1524,-.742836,-.229813,-.779813,-.192836,0.0*
1,1,.1524,-.779813,-.192836*
20,1,.1524,-.779813,-.192836,-.809808,-.15,0.0*
1,1,.1524,-.809808,-.15*
20,1,.1524,-.809808,-.15,-.831908,-.102606,0.0*
1,1,.1524,-.831908,-.102606*
20,1,.1524,-.831908,-.102606,-.845442,-.052094,0.0*
1,1,.1524,-.845442,-.052094*
20,1,.1524,-.845442,-.052094,-.85,0.0,0.0*
1,1,.1524,-.85,0.0*
20,1,.1524,-.85,0.0,-.845442,.052094,0.0*
1,1,.1524,-.845442,.052094*
20,1,.1524,-.845442,.052094,-.831908,.102606,0.0*
1,1,.1524,-.831908,.102606*
20,1,.1524,-.831908,.102606,-.809808,.15,0.0*
1,1,.1524,-.809808,.15*
20,1,.1524,-.809808,.15,-.779813,.192836,0.0*
1,1,.1524,-.779813,.192836*
20,1,.1524,-.779813,.192836,-.742836,.229813,0.0*
1,1,.1524,-.742836,.229813*
20,1,.1524,-.742836,.229813,-.7,.259808,0.0*
1,1,.1524,-.7,.259808*
20,1,.1524,-.7,.259808,-.652606,.281908,0.0*
1,1,.1524,-.652606,.281908*
20,1,.1524,-.652606,.281908,-.602094,.295442,0.0*
1,1,.1524,-.602094,.295442*
20,1,.1524,-.602094,.295442,-.55,.3,0.0*
1,1,.1524,-.55,.3*
1,1,.1524,-.15,-.15*
20,1,.1524,-.15,-.15,-.19,-.145,0.0*
1,1,.1524,-.19,-.145*
20,1,.1524,-.19,-.145,-.225,-.125,0.0*
1,1,.1524,-.225,-.125*
20,1,.1524,-.225,-.125,-.255,-.095,0.0*
1,1,.1524,-.255,-.095*
20,1,.1524,-.255,-.095,-.275,-.06,0.0*
1,1,.1524,-.275,-.06*
20,1,.1524,-.275,-.06,-.285,-.02,0.0*
1,1,.1524,-.285,-.02*
20,1,.1524,-.285,-.02,-.285,.02,0.0*
1,1,.1524,-.285,.02*
20,1,.1524,-.285,.02,-.275,.06,0.0*
1,1,.1524,-.275,.06*
20,1,.1524,-.275,.06,-.255,.095,0.0*
1,1,.1524,-.255,.095*
20,1,.1524,-.255,.095,-.225,.125,0.0*
1,1,.1524,-.225,.125*
20,1,.1524,-.225,.125,-.19,.145,0.0*
1,1,.1524,-.19,.145*
20,1,.1524,-.19,.145,-.15,.15,0.0*
1,1,.1524,-.15,.15*
20,1,.1524,-.15,.15,-.11,.145,0.0*
1,1,.1524,-.11,.145*
20,1,.1524,-.11,.145,-.075,.125,0.0*
1,1,.1524,-.075,.125*
20,1,.1524,-.075,.125,-.045,.095,0.0*
1,1,.1524,-.045,.095*
20,1,.1524,-.045,.095,-.025,.06,0.0*
1,1,.1524,-.025,.06*
20,1,.1524,-.025,.06,-.015,.02,0.0*
1,1,.1524,-.015,.02*
20,1,.1524,-.015,.02,-.015,-.02,0.0*
1,1,.1524,-.015,-.02*
20,1,.1524,-.015,-.02,-.025,-.06,0.0*
1,1,.1524,-.025,-.06*
20,1,.1524,-.025,-.06,-.045,-.095,0.0*
1,1,.1524,-.045,-.095*
20,1,.1524,-.045,-.095,-.075,-.125,0.0*
1,1,.1524,-.075,-.125*
20,1,.1524,-.075,-.125,-.11,-.145,0.0*
1,1,.1524,-.11,-.145*
20,1,.1524,-.11,-.145,-.15,-.15,0.0*
1,1,.1524,-.15,-.15*
1,1,.1524,.1901,.01*
20,1,.1524,.1901,.01,.2101,.025,0.0*
1,1,.1524,.2101,.025*
20,1,.1524,.2101,.025,.2251,.05,0.0*
1,1,.1524,.2251,.05*
20,1,.1524,.2251,.05,.2351,.085,0.0*
1,1,.1524,.2351,.085*
20,1,.1524,.2351,.085,.2251,.115,0.0*
1,1,.1524,.2251,.115*
20,1,.1524,.2251,.115,.2051,.135,0.0*
1,1,.1524,.2051,.135*
20,1,.1524,.2051,.135,.1701,.15,0.0*
1,1,.1524,.1701,.15*
20,1,.1524,.1701,.15,.0351,.15,0.0*
1,1,.1524,.0351,.15*
20,1,.1524,.0351,.15,.0351,-.15,0.0*
1,1,.1524,.0351,-.15*
20,1,.1524,.0351,-.15,.2001,-.15,0.0*
1,1,.1524,.2001,-.15*
20,1,.1524,.2001,-.15,.2351,-.13,0.0*
1,1,.1524,.2351,-.13*
20,1,.1524,.2351,-.13,.2551,-.1,0.0*
1,1,.1524,.2551,-.1*
20,1,.1524,.2551,-.1,.2651,-.065,0.0*
1,1,.1524,.2651,-.065*
20,1,.1524,.2651,-.065,.2551,-.03,0.0*
1,1,.1524,.2551,-.03*
20,1,.1524,.2551,-.03,.2251,0.0,0.0*
1,1,.1524,.2251,0.0*
20,1,.1524,.2251,0.0,.1901,.01,0.0*
1,1,.1524,.1901,.01*
20,1,.1524,.1901,.01,.0351,.01,0.0*
1,1,.1524,.0351,.01*
%
%ADD13MACRO13*%
%AMMACRO11*
1,1,.1524,.127,0.0*
20,1,.1524,.127,0.0,-.127,0.0,0.0*
1,1,.1524,-.127,0.0*
1,1,.1524,0.0,.127*
20,1,.1524,0.0,.127,0.0,-.127,0.0*
1,1,.1524,0.0,-.127*
%
%ADD11MACRO11*%
%AMMACRO14*
1,1,.1524,0.0,.5*
20,1,.1524,0.0,.5,-.433013,.25,0.0*
1,1,.1524,-.433013,.25*
20,1,.1524,-.433013,.25,-.433013,-.25,0.0*
1,1,.1524,-.433013,-.25*
20,1,.1524,-.433013,-.25,0.0,-.5,0.0*
1,1,.1524,0.0,-.5*
20,1,.1524,0.0,-.5,.433013,-.25,0.0*
1,1,.1524,.433013,-.25*
20,1,.1524,.433013,-.25,.433013,.25,0.0*
1,1,.1524,.433013,.25*
20,1,.1524,.433013,.25,0.0,.5,0.0*
1,1,.1524,0.0,.5*
%
%ADD14MACRO14*%
%AMMACRO17*
1,1,.1524,.4,0.0*
20,1,.1524,.4,0.0,.2,.34641,0.0*
1,1,.1524,.2,.34641*
20,1,.1524,.2,.34641,-.2,.34641,0.0*
1,1,.1524,-.2,.34641*
20,1,.1524,-.2,.34641,-.4,0.0,0.0*
1,1,.1524,-.4,0.0*
20,1,.1524,-.4,0.0,-.2,-.34641,0.0*
1,1,.1524,-.2,-.34641*
20,1,.1524,-.2,-.34641,.2,-.34641,0.0*
1,1,.1524,.2,-.34641*
20,1,.1524,.2,-.34641,.4,0.0,0.0*
1,1,.1524,.4,0.0*
%
%ADD17MACRO17*%
%AMMACRO15*
1,1,.1524,.227817,-.55*
20,1,.1524,.227817,-.55,-.227817,-.55,0.0*
1,1,.1524,-.227817,-.55*
20,1,.1524,-.227817,-.55,-.55,-.227817,0.0*
1,1,.1524,-.55,-.227817*
20,1,.1524,-.55,-.227817,-.55,.227817,0.0*
1,1,.1524,-.55,.227817*
20,1,.1524,-.55,.227817,-.227817,.55,0.0*
1,1,.1524,-.227817,.55*
20,1,.1524,-.227817,.55,.227817,.55,0.0*
1,1,.1524,.227817,.55*
20,1,.1524,.227817,.55,.55,.227817,0.0*
1,1,.1524,.55,.227817*
20,1,.1524,.55,.227817,.55,-.227817,0.0*
1,1,.1524,.55,-.227817*
20,1,.1524,.55,-.227817,.227817,-.55,0.0*
1,1,.1524,.227817,-.55*
%
%ADD15MACRO15*%
%ADD18C,.1524*%
G75*
%LPD*%
G75*
G54D10*
X360000Y360000D03*
Y5040000D03*
X8140000Y360000D03*
Y5040000D03*
X10401730Y1537500D03*
G54D11*
X340000Y1000000D03*
Y1500000D03*
X200000Y3920000D03*
Y4420000D03*
X605000Y4055000D03*
Y4355000D03*
X1150000Y1560000D03*
X790000Y2160000D03*
Y2880000D03*
Y3380000D03*
X1050000Y4040000D03*
X990000Y3770000D03*
X910000Y4120000D03*
Y4340000D03*
X1130000Y4420000D03*
X1070000Y4940000D03*
X960000D03*
X840000D03*
Y5030000D03*
X960000D03*
X1070000D03*
X1380000Y180000D03*
Y680000D03*
X1290000Y2160000D03*
Y2880000D03*
Y3380000D03*
X1530000Y4020000D03*
X1380000Y4230000D03*
X1210000Y4420000D03*
Y4340000D03*
X1380000Y4690000D03*
X1220000Y5290000D03*
X1562500Y5182500D03*
X1790000Y1240000D03*
Y2160000D03*
Y2880000D03*
Y3380000D03*
X1650000Y4020000D03*
X1780000D03*
X1900000D03*
X1690000Y4400000D03*
X1670000Y4680000D03*
X1590000Y5290000D03*
X2370000Y430000D03*
Y930000D03*
X2290000Y2160000D03*
Y2880000D03*
Y3380000D03*
X2250000Y4410000D03*
X2747500Y997500D03*
X2720000Y4720000D03*
Y4660000D03*
X2860000Y2770000D03*
X2790000Y4720000D03*
Y4660000D03*
X2860000Y4720000D03*
Y4660000D03*
X3590000Y1970000D03*
X3360000Y2770000D03*
X3510000Y3680000D03*
X3480000Y4290000D03*
X3310000Y4640000D03*
X3940000Y490000D03*
X3752500Y997500D03*
X3630000Y4290000D03*
X3810000D03*
X3960000D03*
X4090000Y1970000D03*
X4010000Y3680000D03*
X4140000Y4290000D03*
X4465000Y845000D03*
X4712500Y1667500D03*
X4520000Y4540000D03*
X4610000D03*
X4700000D03*
X4520000Y4450000D03*
X4610000D03*
X4700000D03*
X4520000Y4360000D03*
X4610000D03*
X4700000D03*
X4520000Y4270000D03*
X4610000D03*
X4700000D03*
X4510000Y4670000D03*
X4660000D03*
X5020000Y720000D03*
X4860000Y880000D03*
X5020000D03*
X5180000D03*
Y720000D03*
X4860000D03*
Y560000D03*
X5020000D03*
X5180000D03*
X5570000Y470000D03*
X5575000Y845000D03*
X5570000Y595000D03*
X5270000Y1420000D03*
X5260000Y2050000D03*
X5280000Y2770000D03*
X5250000Y3650000D03*
X5230000Y4520000D03*
X5422500Y4787500D03*
X5380000Y5070000D03*
Y5133500D03*
Y5006500D03*
X5760000Y320000D03*
X5770000Y1420000D03*
X5760000Y2050000D03*
X5780000Y2770000D03*
X5750000Y3650000D03*
X5730000Y4520000D03*
X5670000Y5090000D03*
X6260000Y320000D03*
X6430000Y730000D03*
X6312500Y977500D03*
X6222500Y4807500D03*
X6170000Y5090000D03*
X6820000Y3460000D03*
X6930000Y730000D03*
X7170000Y2509500D03*
X6870000Y2760000D03*
X7170000Y3005000D03*
Y4710000D03*
X7200000Y5280000D03*
X7370000Y2760000D03*
X7320000Y3460000D03*
X7790000Y970000D03*
X7950000Y3490000D03*
X7670000Y4710000D03*
X7700000Y5280000D03*
X8290000Y970000D03*
X8150000Y2410000D03*
Y2910000D03*
X10401730Y4712500D03*
G54D12*
X258000Y3748000D03*
Y4612000D03*
X10401730Y902500D03*
G54D13*
X676000Y3748000D03*
Y4612000D03*
X10401730Y267500D03*
G54D14*
X2475000Y5290000D03*
X3225000D03*
X3665000D03*
X4415000D03*
X10401730Y2807500D03*
G54D15*
X6420000Y1230000D03*
X6674000D03*
X7182000D03*
X6928000D03*
X10401730Y2172500D03*
G54D16*
X6322500Y5040000D03*
X6447500D03*
X6822500D03*
X6697500D03*
X6572500D03*
X7197500D03*
X7072500D03*
X6947500D03*
X10401730Y4077500D03*
G54D17*
X6885000Y1845000D03*
X7285000D03*
X7085000D03*
Y4115000D03*
X7285000D03*
X7685000Y1845000D03*
X7485000D03*
Y4115000D03*
X7685000D03*
X8085000Y1845000D03*
X7885000D03*
Y4115000D03*
X10401730Y3442500D03*
G54D18*
G01X-1037400Y2603320D02*
X-1023180Y2587450D01*
X-1006590Y2577920D01*
X-985250Y2574750D01*
X-963910Y2581100D01*
X-947320Y2593800D01*
X-935470Y2616020D01*
X-933100Y2641420D01*
X-937840Y2666820D01*
X-949690Y2682700D01*
X-966290Y2695400D01*
X-982880Y2698570D01*
X-999470Y2695400D01*
X-1020810Y2682700D01*
X-1013700Y2765250D01*
X-949690D01*
G01X-766300Y2574750D02*
Y2765250D01*
X-854020Y2628730D01*
X-735480D01*
G01X-667300Y2144750D02*
Y2335250D01*
X-755020Y2198730D01*
X-636480D01*
G01X-550290Y2224120D02*
X-533700Y2246350D01*
X-519470Y2259050D01*
X-500510Y2265400D01*
X-483910Y2259050D01*
X-472060Y2246350D01*
X-462580Y2227300D01*
X-460210Y2205070D01*
X-462580Y2186020D01*
X-472060Y2166970D01*
X-486290Y2151100D01*
X-502880Y2144750D01*
X-521840Y2151100D01*
X-538440Y2170140D01*
X-547920Y2198730D01*
X-550290Y2230470D01*
X-545550Y2271750D01*
X-538440Y2293980D01*
X-526590Y2316200D01*
X-509990Y2332080D01*
X-493400Y2335250D01*
X-476800Y2328900D01*
X-464950Y2313020D01*
G01X-314750Y2138400D02*
X-319490Y2141580D01*
Y2147920D01*
X-314750Y2151100D01*
X-310010Y2147920D01*
Y2141580D01*
X-314750Y2138400D01*
G01X-124250Y2144750D02*
X-107660Y2147920D01*
X-88690Y2157450D01*
X-76840Y2173320D01*
X-72100Y2195550D01*
X-76840Y2217770D01*
X-91060Y2236820D01*
X-112400Y2246350D01*
X-136100D01*
X-150330Y2252700D01*
X-162180Y2268570D01*
X-166920Y2290800D01*
X-159810Y2313020D01*
X-143220Y2328900D01*
X-124250Y2335250D01*
X-105290Y2328900D01*
X-88690Y2313020D01*
X-81580Y2290800D01*
X-86320Y2268570D01*
X-98170Y2252700D01*
X-112400Y2246350D01*
X-136100D01*
X-157440Y2236820D01*
X-171660Y2217770D01*
X-176400Y2195550D01*
X-171660Y2173320D01*
X-159810Y2157450D01*
X-140840Y2147920D01*
X-124250Y2144750D01*
G01X2829510Y-455250D02*
X2834250Y-413980D01*
X2841360Y-379050D01*
X2850840Y-347300D01*
X2862700Y-312380D01*
X2881660Y-264750D01*
X2786840D01*
G01X3020010Y-455250D02*
X3024750Y-413980D01*
X3031860Y-379050D01*
X3041340Y-347300D01*
X3053200Y-312380D01*
X3072160Y-264750D01*
X2977340D01*
G01X3215250Y-461600D02*
X3210510Y-458420D01*
Y-452080D01*
X3215250Y-448900D01*
X3219990Y-452080D01*
Y-458420D01*
X3215250Y-461600D01*
G01X3405750Y-455250D02*
X3422340Y-452080D01*
X3441310Y-442550D01*
X3453160Y-426680D01*
X3457900Y-404450D01*
X3453160Y-382230D01*
X3438940Y-363180D01*
X3417600Y-353650D01*
X3393900D01*
X3379670Y-347300D01*
X3367820Y-331430D01*
X3363080Y-309200D01*
X3370190Y-286980D01*
X3386780Y-271100D01*
X3405750Y-264750D01*
X3424710Y-271100D01*
X3441310Y-286980D01*
X3448420Y-309200D01*
X3443680Y-331430D01*
X3431830Y-347300D01*
X3417600Y-353650D01*
X3393900D01*
X3372560Y-363180D01*
X3358340Y-382230D01*
X3353600Y-404450D01*
X3358340Y-426680D01*
X3370190Y-442550D01*
X3389160Y-452080D01*
X3405750Y-455250D01*
G01X3544750Y-765250D02*
X3561340Y-762080D01*
X3580310Y-752550D01*
X3592160Y-736680D01*
X3596900Y-714450D01*
X3592160Y-692230D01*
X3577940Y-673180D01*
X3556600Y-663650D01*
X3532900D01*
X3518670Y-657300D01*
X3506820Y-641430D01*
X3502080Y-619200D01*
X3509190Y-596980D01*
X3525780Y-581100D01*
X3544750Y-574750D01*
X3563710Y-581100D01*
X3580310Y-596980D01*
X3587420Y-619200D01*
X3582680Y-641430D01*
X3570830Y-657300D01*
X3556600Y-663650D01*
X3532900D01*
X3511560Y-673180D01*
X3497340Y-692230D01*
X3492600Y-714450D01*
X3497340Y-736680D01*
X3509190Y-752550D01*
X3528160Y-762080D01*
X3544750Y-765250D01*
G01X3683100Y-736680D02*
X3697320Y-752550D01*
X3713910Y-762080D01*
X3735250Y-765250D01*
X3756590Y-758900D01*
X3773180Y-746200D01*
X3785030Y-723980D01*
X3787400Y-698580D01*
X3782660Y-673180D01*
X3770810Y-657300D01*
X3754210Y-644600D01*
X3737620Y-641430D01*
X3721030Y-644600D01*
X3699690Y-657300D01*
X3706800Y-574750D01*
X3770810D01*
G01X9539520Y5188750D02*
Y5506250D01*
X9689140D01*
G01X9634010Y5352800D02*
X9539520D01*
G01X9882050Y5506250D02*
X9976530D01*
G01X9929290D02*
Y5188750D01*
G01X9882050D02*
X9976530D01*
G01X10267870Y5347500D02*
X10346620D01*
Y5252250D01*
X10322990Y5220490D01*
X10295430Y5199330D01*
X10256060Y5188750D01*
X10216690Y5199330D01*
X10189130Y5220490D01*
X10165510Y5252250D01*
X10149760Y5289290D01*
X10141880Y5331620D01*
Y5368670D01*
X10149760Y5400410D01*
X10165510Y5437460D01*
X10189130Y5469210D01*
X10212750Y5490370D01*
X10244250Y5506250D01*
X10271810D01*
X10303300Y5495670D01*
X10326930Y5474500D01*
G01X10472600Y5506250D02*
Y5278710D01*
X10488340Y5231070D01*
X10519840Y5199330D01*
X10559210Y5188750D01*
X10598580Y5199330D01*
X10630080Y5231070D01*
X10645820Y5278710D01*
Y5506250D01*
G01X10795430Y5188750D02*
Y5506250D01*
X10893850D01*
X10925350Y5490370D01*
X10945040Y5469210D01*
X10952910Y5426870D01*
X10945040Y5384540D01*
X10921410Y5358090D01*
X10893850Y5342200D01*
X10795430D01*
G01X10893850D02*
X10952910Y5188750D01*
G01X11267870D02*
X11110390D01*
Y5506250D01*
X11267870D01*
G01X11204880Y5352800D02*
X11110390D01*
G01X12137940Y5188750D02*
Y5506250D01*
X12287560D01*
G01X12232430Y5352800D02*
X12137940D01*
G01X12480470Y5506250D02*
X12574950D01*
G01X12527710D02*
Y5188750D01*
G01X12480470D02*
X12574950D01*
G01X12752120D02*
Y5506250D01*
X12933220Y5188750D01*
Y5506250D01*
G01X13110390D02*
X13204870D01*
G01X13157630D02*
Y5188750D01*
G01X13110390D02*
X13204870D01*
G01X13389910Y5231070D02*
X13421410Y5204620D01*
X13456840Y5188750D01*
X13488340D01*
X13519830Y5204620D01*
X13543460Y5231070D01*
X13555270Y5268130D01*
X13547400Y5305160D01*
X13527710Y5336910D01*
X13492270Y5358090D01*
X13445030Y5368670D01*
X13417470Y5389830D01*
X13405660Y5426870D01*
X13413540Y5463920D01*
X13433220Y5490370D01*
X13460780Y5506250D01*
X13488340D01*
X13515900Y5495670D01*
X13539520Y5469210D01*
G01X13704870Y5188750D02*
Y5506250D01*
G01X13870230D02*
Y5188750D01*
G01Y5347500D02*
X13704870D01*
G01X14181250Y5188750D02*
X14023770D01*
Y5506250D01*
X14181250D01*
G01X14118260Y5352800D02*
X14023770D01*
G01X14330860Y5188750D02*
Y5506250D01*
X14409590D01*
X14441090Y5490370D01*
X14464710Y5469210D01*
X14484400Y5437460D01*
X14500150Y5400410D01*
X14504080Y5347500D01*
X14500150Y5294580D01*
X14484400Y5257540D01*
X14464710Y5225780D01*
X14441090Y5204620D01*
X14409590Y5188750D01*
X14330860D01*
G01X14614320Y5082920D02*
X14850540D01*
G01X14964710Y5231070D02*
X14996210Y5204620D01*
X15031640Y5188750D01*
X15063140D01*
X15094630Y5204620D01*
X15118260Y5231070D01*
X15130070Y5268130D01*
X15122200Y5305160D01*
X15102510Y5336910D01*
X15067070Y5358090D01*
X15019830Y5368670D01*
X14992270Y5389830D01*
X14980460Y5426870D01*
X14988340Y5463920D01*
X15008020Y5490370D01*
X15035580Y5506250D01*
X15063140D01*
X15090700Y5495670D01*
X15114320Y5469210D01*
G01X15315110Y5506250D02*
X15409590D01*
G01X15362350D02*
Y5188750D01*
G01X15315110D02*
X15409590D01*
G01X15602500Y5506250D02*
X15752120D01*
X15602500Y5188750D01*
X15752120D01*
G01X16071010D02*
X15913530D01*
Y5506250D01*
X16071010D01*
G01X16008020Y5352800D02*
X15913530D01*
G01X13157630Y108750D02*
Y426250D01*
X13110390Y362750D01*
G01Y108750D02*
X13204870D01*
G01X13472590Y98170D02*
X13464710Y103460D01*
Y114040D01*
X13472590Y119330D01*
X13480470Y114040D01*
Y103460D01*
X13472590Y98170D01*
G01X13779670Y108750D02*
X13787550Y177540D01*
X13799360Y235740D01*
X13815110Y288670D01*
X13834790Y346870D01*
X13866290Y426250D01*
X13708810D01*
G01X14043460Y320410D02*
X14161560Y108750D01*
G01Y320410D02*
X14043460Y108750D01*
G01X14417470Y426250D02*
X14385970Y415670D01*
X14362350Y389210D01*
X14346600Y357460D01*
X14334790Y315120D01*
X14330860Y267500D01*
X14334790Y219870D01*
X14346600Y177540D01*
X14362350Y145780D01*
X14385970Y119330D01*
X14417470Y108750D01*
X14448960Y119330D01*
X14472590Y145780D01*
X14488340Y177540D01*
X14500150Y219870D01*
X14504080Y267500D01*
X14500150Y315120D01*
X14488340Y357460D01*
X14472590Y389210D01*
X14448960Y415670D01*
X14417470Y426250D01*
G01X14732430Y98170D02*
X14724550Y103460D01*
Y114040D01*
X14732430Y119330D01*
X14740310Y114040D01*
Y103460D01*
X14732430Y98170D01*
G01X14972580Y241030D02*
X15000150Y278090D01*
X15023770Y299250D01*
X15055270Y309830D01*
X15082830Y299250D01*
X15102510Y278090D01*
X15118260Y246330D01*
X15122200Y209290D01*
X15118260Y177540D01*
X15102510Y145780D01*
X15078880Y119330D01*
X15051330Y108750D01*
X15019830Y119330D01*
X14992270Y151070D01*
X14976520Y198710D01*
X14972580Y251620D01*
X14980460Y320410D01*
X14992270Y357460D01*
X15011950Y394500D01*
X15039510Y420960D01*
X15067070Y426250D01*
X15094630Y415670D01*
X15114320Y389210D01*
G01X13157630Y743750D02*
Y1061250D01*
X13110390Y997750D01*
G01Y743750D02*
X13204870D01*
G01X13472590Y733170D02*
X13464710Y738460D01*
Y749040D01*
X13472590Y754330D01*
X13480470Y749040D01*
Y738460D01*
X13472590Y733170D01*
G01X13712740Y1008330D02*
X13736370Y1040080D01*
X13763930Y1055960D01*
X13795430Y1061250D01*
X13834790Y1050670D01*
X13862360Y1024210D01*
X13870230Y992460D01*
X13866290Y960700D01*
X13850540Y934250D01*
X13771800Y881330D01*
X13736370Y844290D01*
X13712740Y791360D01*
X13704870Y743750D01*
X13870230D01*
G01X14043460Y955410D02*
X14161560Y743750D01*
G01Y955410D02*
X14043460Y743750D01*
G01X14417470Y1061250D02*
X14385970Y1050670D01*
X14362350Y1024210D01*
X14346600Y992460D01*
X14334790Y950120D01*
X14330860Y902500D01*
X14334790Y854870D01*
X14346600Y812540D01*
X14362350Y780780D01*
X14385970Y754330D01*
X14417470Y743750D01*
X14448960Y754330D01*
X14472590Y780780D01*
X14488340Y812540D01*
X14500150Y854870D01*
X14504080Y902500D01*
X14500150Y950120D01*
X14488340Y992460D01*
X14472590Y1024210D01*
X14448960Y1050670D01*
X14417470Y1061250D01*
G01X14732430Y733170D02*
X14724550Y738460D01*
Y749040D01*
X14732430Y754330D01*
X14740310Y749040D01*
Y738460D01*
X14732430Y733170D01*
G01X14972580Y876030D02*
X15000150Y913090D01*
X15023770Y934250D01*
X15055270Y944830D01*
X15082830Y934250D01*
X15102510Y913090D01*
X15118260Y881330D01*
X15122200Y844290D01*
X15118260Y812540D01*
X15102510Y780780D01*
X15078880Y754330D01*
X15051330Y743750D01*
X15019830Y754330D01*
X14992270Y786070D01*
X14976520Y833710D01*
X14972580Y886620D01*
X14980460Y955410D01*
X14992270Y992460D01*
X15011950Y1029500D01*
X15039510Y1055960D01*
X15067070Y1061250D01*
X15094630Y1050670D01*
X15114320Y1024210D01*
G01X13700940Y1442250D02*
X13724550Y1405200D01*
X13756050Y1384040D01*
X13791490Y1378750D01*
X13822990Y1384040D01*
X13854480Y1410490D01*
X13874160Y1442250D01*
X13878100Y1474000D01*
X13870230Y1511030D01*
X13842670Y1537500D01*
X13815110Y1548090D01*
X13779670D01*
G01X13815110D02*
X13838730Y1563960D01*
X13858420Y1590410D01*
X13866290Y1622160D01*
X13858420Y1653920D01*
X13838730Y1680370D01*
X13803300Y1696250D01*
X13767870Y1690960D01*
X13732430Y1669790D01*
G01X14102510Y1368170D02*
X14094630Y1373460D01*
Y1384040D01*
X14102510Y1389330D01*
X14110390Y1384040D01*
Y1373460D01*
X14102510Y1368170D01*
G01X14417470Y1378750D02*
Y1696250D01*
X14370230Y1632750D01*
G01Y1378750D02*
X14464710D01*
G01X13787550Y2013750D02*
Y2331250D01*
X13740310Y2267750D01*
G01Y2013750D02*
X13834790D01*
G01X14102510Y2003170D02*
X14094630Y2008460D01*
Y2019040D01*
X14102510Y2024330D01*
X14110390Y2019040D01*
Y2008460D01*
X14102510Y2003170D01*
G01X14417470Y2013750D02*
Y2331250D01*
X14370230Y2267750D01*
G01Y2013750D02*
X14464710D01*
G01X13787550Y2648750D02*
Y2966250D01*
X13740310Y2902750D01*
G01Y2648750D02*
X13834790D01*
G01X14102510Y2638170D02*
X14094630Y2643460D01*
Y2654040D01*
X14102510Y2659330D01*
X14110390Y2654040D01*
Y2643460D01*
X14102510Y2638170D01*
G01X14417470Y2966250D02*
X14385970Y2955670D01*
X14362350Y2929210D01*
X14346600Y2897460D01*
X14334790Y2855120D01*
X14330860Y2807500D01*
X14334790Y2759870D01*
X14346600Y2717540D01*
X14362350Y2685780D01*
X14385970Y2659330D01*
X14417470Y2648750D01*
X14448960Y2659330D01*
X14472590Y2685780D01*
X14488340Y2717540D01*
X14500150Y2759870D01*
X14504080Y2807500D01*
X14500150Y2855120D01*
X14488340Y2897460D01*
X14472590Y2929210D01*
X14448960Y2955670D01*
X14417470Y2966250D01*
G01X13787550Y3601250D02*
X13756050Y3590670D01*
X13732430Y3564210D01*
X13716680Y3532460D01*
X13704870Y3490120D01*
X13700940Y3442500D01*
X13704870Y3394870D01*
X13716680Y3352540D01*
X13732430Y3320780D01*
X13756050Y3294330D01*
X13787550Y3283750D01*
X13819040Y3294330D01*
X13842670Y3320780D01*
X13858420Y3352540D01*
X13870230Y3394870D01*
X13874160Y3442500D01*
X13870230Y3490120D01*
X13858420Y3532460D01*
X13842670Y3564210D01*
X13819040Y3590670D01*
X13787550Y3601250D01*
G01X14102510Y3273170D02*
X14094630Y3278460D01*
Y3289040D01*
X14102510Y3294330D01*
X14110390Y3289040D01*
Y3278460D01*
X14102510Y3273170D01*
G01X14417470Y3283750D02*
X14445030Y3289040D01*
X14476520Y3304910D01*
X14496210Y3331360D01*
X14504080Y3368420D01*
X14496210Y3405450D01*
X14472590Y3437200D01*
X14437150Y3453090D01*
X14397790D01*
X14374160Y3463670D01*
X14354470Y3490120D01*
X14346600Y3527160D01*
X14358420Y3564210D01*
X14385970Y3590670D01*
X14417470Y3601250D01*
X14448960Y3590670D01*
X14476520Y3564210D01*
X14488340Y3527160D01*
X14480460Y3490120D01*
X14460780Y3463670D01*
X14437150Y3453090D01*
X14397790D01*
X14362350Y3437200D01*
X14338730Y3405450D01*
X14330860Y3368420D01*
X14338730Y3331360D01*
X14358420Y3304910D01*
X14389910Y3289040D01*
X14417470Y3283750D01*
G01X13787550Y4236250D02*
X13756050Y4225670D01*
X13732430Y4199210D01*
X13716680Y4167460D01*
X13704870Y4125120D01*
X13700940Y4077500D01*
X13704870Y4029870D01*
X13716680Y3987540D01*
X13732430Y3955780D01*
X13756050Y3929330D01*
X13787550Y3918750D01*
X13819040Y3929330D01*
X13842670Y3955780D01*
X13858420Y3987540D01*
X13870230Y4029870D01*
X13874160Y4077500D01*
X13870230Y4125120D01*
X13858420Y4167460D01*
X13842670Y4199210D01*
X13819040Y4225670D01*
X13787550Y4236250D01*
G01X14102510Y3908170D02*
X14094630Y3913460D01*
Y3924040D01*
X14102510Y3929330D01*
X14110390Y3924040D01*
Y3913460D01*
X14102510Y3908170D01*
G01X14342660Y4051030D02*
X14370230Y4088090D01*
X14393850Y4109250D01*
X14425350Y4119830D01*
X14452910Y4109250D01*
X14472590Y4088090D01*
X14488340Y4056330D01*
X14492280Y4019290D01*
X14488340Y3987540D01*
X14472590Y3955780D01*
X14448960Y3929330D01*
X14421410Y3918750D01*
X14389910Y3929330D01*
X14362350Y3961070D01*
X14346600Y4008710D01*
X14342660Y4061620D01*
X14350540Y4130410D01*
X14362350Y4167460D01*
X14382030Y4204500D01*
X14409590Y4230960D01*
X14437150Y4236250D01*
X14464710Y4225670D01*
X14484400Y4199210D01*
G01X13472590Y4871250D02*
X13441090Y4860670D01*
X13417470Y4834210D01*
X13401720Y4802460D01*
X13389910Y4760120D01*
X13385980Y4712500D01*
X13389910Y4664870D01*
X13401720Y4622540D01*
X13417470Y4590780D01*
X13441090Y4564330D01*
X13472590Y4553750D01*
X13504080Y4564330D01*
X13527710Y4590780D01*
X13543460Y4622540D01*
X13555270Y4664870D01*
X13559200Y4712500D01*
X13555270Y4760120D01*
X13543460Y4802460D01*
X13527710Y4834210D01*
X13504080Y4860670D01*
X13472590Y4871250D01*
G01X13787550Y4543170D02*
X13779670Y4548460D01*
Y4559040D01*
X13787550Y4564330D01*
X13795430Y4559040D01*
Y4548460D01*
X13787550Y4543170D01*
G01X14027700Y4818330D02*
X14051330Y4850080D01*
X14078890Y4865960D01*
X14110390Y4871250D01*
X14149750Y4860670D01*
X14177320Y4834210D01*
X14185190Y4802460D01*
X14181250Y4770700D01*
X14165500Y4744250D01*
X14086760Y4691330D01*
X14051330Y4654290D01*
X14027700Y4601360D01*
X14019830Y4553750D01*
X14185190D01*
G01X14330860Y4601360D02*
X14354470Y4574910D01*
X14382030Y4559040D01*
X14417470Y4553750D01*
X14452910Y4564330D01*
X14480460Y4585490D01*
X14500150Y4622540D01*
X14504080Y4664870D01*
X14496210Y4707200D01*
X14476520Y4733670D01*
X14448960Y4754830D01*
X14421410Y4760120D01*
X14393850Y4754830D01*
X14358420Y4733670D01*
X14370230Y4871250D01*
X14476520D01*
G01X14779670Y4553750D02*
Y4871250D01*
X14634000Y4643710D01*
X14830860D01*
G01X13767860Y5823750D02*
X13866290Y6141250D01*
X13964720Y5823750D01*
G01X13929280Y5934870D02*
X13803290D01*
G01X14102510Y6141250D02*
Y5823750D01*
X14259990D01*
G01X14417470Y6141250D02*
Y5823750D01*
X14574950D01*
G01X15039520Y6141250D02*
Y5913710D01*
X15055260Y5866070D01*
X15086760Y5834330D01*
X15126130Y5823750D01*
X15165500Y5834330D01*
X15197000Y5866070D01*
X15212740Y5913710D01*
Y6141250D01*
G01X15350540Y5823750D02*
Y6141250D01*
X15531640Y5823750D01*
Y6141250D01*
G01X15708810D02*
X15803290D01*
G01X15756050D02*
Y5823750D01*
G01X15708810D02*
X15803290D01*
G01X16071010Y6141250D02*
Y5823750D01*
G01X15980460Y6141250D02*
X16161560D01*
G01X16303290Y5866070D02*
X16334790Y5839620D01*
X16370220Y5823750D01*
X16401720D01*
X16433210Y5839620D01*
X16456840Y5866070D01*
X16468650Y5903130D01*
X16460780Y5940160D01*
X16441090Y5971910D01*
X16405650Y5993090D01*
X16358410Y6003670D01*
X16330850Y6024830D01*
X16319040Y6061870D01*
X16326920Y6098920D01*
X16346600Y6125370D01*
X16374160Y6141250D01*
X16401720D01*
X16429280Y6130670D01*
X16452900Y6104210D01*
G01X16917460Y5823750D02*
X17015890Y6141250D01*
X17114320Y5823750D01*
G01X17078880Y5934870D02*
X16952890D01*
G01X17252110Y5823750D02*
Y6141250D01*
X17350530D01*
X17382030Y6125370D01*
X17401720Y6104210D01*
X17409590Y6061870D01*
X17401720Y6019540D01*
X17378090Y5993090D01*
X17350530Y5977200D01*
X17252110D01*
G01X17350530D02*
X17409590Y5823750D01*
G01X17724550D02*
X17567070D01*
Y6141250D01*
X17724550D01*
G01X17661560Y5987800D02*
X17567070D01*
G01X18228490Y6141250D02*
X18322970D01*
G01X18275730D02*
Y5823750D01*
G01X18228490D02*
X18322970D01*
G01X18500140D02*
Y6141250D01*
X18681240Y5823750D01*
Y6141250D01*
G01X19118240Y5823750D02*
Y6141250D01*
X19220610Y5876670D01*
X19322980Y6141250D01*
Y5823750D01*
G01X19488330Y6141250D02*
X19582810D01*
G01X19535570D02*
Y5823750D01*
G01X19488330D02*
X19582810D01*
G01X19771790Y6141250D02*
Y5823750D01*
X19929270D01*
G01X20086750Y6141250D02*
Y5823750D01*
X20244230D01*
G01X20433210Y6141250D02*
X20527690D01*
G01X20480450D02*
Y5823750D01*
G01X20433210D02*
X20527690D01*
G01X20693040D02*
Y6141250D01*
X20795410Y5876670D01*
X20897780Y6141250D01*
Y5823750D01*
G01X21189110D02*
X21031630D01*
Y6141250D01*
X21189110D01*
G01X21126120Y5987800D02*
X21031630D01*
G01X21425330Y6141250D02*
Y5823750D01*
G01X21334780Y6141250D02*
X21515880D01*
G01X21819030Y5823750D02*
X21661550D01*
Y6141250D01*
X21819030D01*
G01X21756040Y5987800D02*
X21661550D01*
G01X21976510Y5823750D02*
Y6141250D01*
X22074930D01*
X22106430Y6125370D01*
X22126120Y6104210D01*
X22133990Y6061870D01*
X22126120Y6019540D01*
X22102490Y5993090D01*
X22074930Y5977200D01*
X21976510D01*
G01X22074930D02*
X22133990Y5823750D01*
G01X22287530Y5866070D02*
X22319030Y5839620D01*
X22354460Y5823750D01*
X22385960D01*
X22417450Y5839620D01*
X22441080Y5866070D01*
X22452890Y5903130D01*
X22445020Y5940160D01*
X22425330Y5971910D01*
X22389890Y5993090D01*
X22342650Y6003670D01*
X22315090Y6024830D01*
X22303280Y6061870D01*
X22311160Y6098920D01*
X22330840Y6125370D01*
X22358400Y6141250D01*
X22385960D01*
X22413520Y6130670D01*
X22437140Y6104210D01*
G01X14094640Y6473750D02*
Y6791250D01*
X14173370D01*
X14204870Y6775370D01*
X14228490Y6754210D01*
X14248180Y6722460D01*
X14263930Y6685410D01*
X14267860Y6632500D01*
X14263930Y6579580D01*
X14248180Y6542540D01*
X14228490Y6510780D01*
X14204870Y6489620D01*
X14173370Y6473750D01*
X14094640D01*
G01X14417470D02*
Y6791250D01*
X14515890D01*
X14547390Y6775370D01*
X14567080Y6754210D01*
X14574950Y6711870D01*
X14567080Y6669540D01*
X14543450Y6643090D01*
X14515890Y6627200D01*
X14417470D01*
G01X14515890D02*
X14574950Y6473750D01*
G01X14763930Y6791250D02*
X14858410D01*
G01X14811170D02*
Y6473750D01*
G01X14763930D02*
X14858410D01*
G01X15047390Y6791250D02*
Y6473750D01*
X15204870D01*
G01X15362350Y6791250D02*
Y6473750D01*
X15519830D01*
G01X16157620Y6764790D02*
X16134000Y6780670D01*
X16106450Y6791250D01*
X16074950D01*
X16039510Y6775370D01*
X16011960Y6748920D01*
X15992270Y6717160D01*
X15976520Y6664250D01*
X15972580Y6616620D01*
X15980460Y6569000D01*
X15992270Y6537250D01*
X16015890Y6505490D01*
X16043450Y6484330D01*
X16071010Y6473750D01*
X16098570D01*
X16126130Y6484330D01*
X16149750Y6500200D01*
X16169440Y6521360D01*
G01X16303290Y6473750D02*
Y6791250D01*
G01X16468650D02*
Y6473750D01*
G01Y6632500D02*
X16303290D01*
G01X16602500Y6473750D02*
X16700930Y6791250D01*
X16799360Y6473750D01*
G01X16763920Y6584870D02*
X16637930D01*
G01X16937150Y6473750D02*
Y6791250D01*
X17035570D01*
X17067070Y6775370D01*
X17086760Y6754210D01*
X17094630Y6711870D01*
X17086760Y6669540D01*
X17063130Y6643090D01*
X17035570Y6627200D01*
X16937150D01*
G01X17035570D02*
X17094630Y6473750D01*
G01X17330850Y6791250D02*
Y6473750D01*
G01X17240300Y6791250D02*
X17421400D01*
G01X17645810Y6463170D02*
X17637930Y6468460D01*
Y6479040D01*
X17645810Y6484330D01*
X17653690Y6479040D01*
Y6468460D01*
X17645810Y6463170D01*
G01Y6606030D02*
X17637930Y6611330D01*
Y6621910D01*
X17645810Y6627200D01*
X17653690Y6621910D01*
Y6611330D01*
X17645810Y6606030D01*
G01X18275730Y6791250D02*
Y6473750D01*
G01X18185180Y6791250D02*
X18366280D01*
G01X18590690Y6473750D02*
X18559190Y6479040D01*
X18531640Y6500200D01*
X18508010Y6531960D01*
X18492260Y6569000D01*
X18484390Y6611330D01*
Y6653670D01*
X18492260Y6696000D01*
X18508010Y6733040D01*
X18531640Y6764790D01*
X18559190Y6785960D01*
X18590690Y6791250D01*
X18622180Y6785960D01*
X18649740Y6764790D01*
X18673370Y6733040D01*
X18689120Y6696000D01*
X18696990Y6653670D01*
Y6611330D01*
X18689120Y6569000D01*
X18673370Y6531960D01*
X18649740Y6500200D01*
X18622180Y6479040D01*
X18590690Y6473750D01*
G01X18826910D02*
Y6791250D01*
X18921400D01*
X18952890Y6775370D01*
X18976520Y6738330D01*
X18984390Y6696000D01*
X18976520Y6653670D01*
X18956830Y6621910D01*
X18921400Y6606030D01*
X18826910D01*
G01X19535570Y6791250D02*
Y6473750D01*
G01X19480450Y6685410D02*
X19590690D01*
G01X19850530Y6473750D02*
X19826910Y6479040D01*
X19803290Y6500200D01*
X19787530Y6537250D01*
X19779660Y6579580D01*
X19787530Y6621910D01*
X19803290Y6658960D01*
X19826910Y6680120D01*
X19850530Y6685410D01*
X19874150Y6680120D01*
X19897770Y6658960D01*
X19913520Y6621910D01*
X19917460Y6579580D01*
X19913520Y6537250D01*
X19897770Y6500200D01*
X19874150Y6479040D01*
X19850530Y6473750D01*
G01X20511940Y6643090D02*
X20527690Y6658960D01*
X20539500Y6685410D01*
X20547380Y6722460D01*
X20539500Y6754210D01*
X20523760Y6775370D01*
X20496200Y6791250D01*
X20389900D01*
Y6473750D01*
X20519820D01*
X20547380Y6494910D01*
X20563130Y6526670D01*
X20571000Y6563710D01*
X20563130Y6600740D01*
X20539500Y6632500D01*
X20511940Y6643090D01*
X20389900D01*
G01X20795410Y6473750D02*
X20763910Y6479040D01*
X20736360Y6500200D01*
X20712730Y6531960D01*
X20696980Y6569000D01*
X20689110Y6611330D01*
Y6653670D01*
X20696980Y6696000D01*
X20712730Y6733040D01*
X20736360Y6764790D01*
X20763910Y6785960D01*
X20795410Y6791250D01*
X20826900Y6785960D01*
X20854460Y6764790D01*
X20878090Y6733040D01*
X20893840Y6696000D01*
X20901710Y6653670D01*
Y6611330D01*
X20893840Y6569000D01*
X20878090Y6531960D01*
X20854460Y6500200D01*
X20826900Y6479040D01*
X20795410Y6473750D01*
G01X21110370Y6791250D02*
Y6473750D01*
G01X21019820Y6791250D02*
X21200920D01*
G01X21425330D02*
Y6473750D01*
G01X21334780Y6791250D02*
X21515880D01*
G01X21740290Y6473750D02*
X21708790Y6479040D01*
X21681240Y6500200D01*
X21657610Y6531960D01*
X21641860Y6569000D01*
X21633990Y6611330D01*
Y6653670D01*
X21641860Y6696000D01*
X21657610Y6733040D01*
X21681240Y6764790D01*
X21708790Y6785960D01*
X21740290Y6791250D01*
X21771780Y6785960D01*
X21799340Y6764790D01*
X21822970Y6733040D01*
X21838720Y6696000D01*
X21846590Y6653670D01*
Y6611330D01*
X21838720Y6569000D01*
X21822970Y6531960D01*
X21799340Y6500200D01*
X21771780Y6479040D01*
X21740290Y6473750D01*
G01X21952880D02*
Y6791250D01*
X22055250Y6526670D01*
X22157620Y6791250D01*
Y6473750D01*
G01X17401720Y5188750D02*
Y5506250D01*
X17480450D01*
X17511950Y5490370D01*
X17535570Y5469210D01*
X17555260Y5437460D01*
X17571010Y5400410D01*
X17574940Y5347500D01*
X17571010Y5294580D01*
X17555260Y5257540D01*
X17535570Y5225780D01*
X17511950Y5204620D01*
X17480450Y5188750D01*
X17401720D01*
G01X17724550D02*
Y5506250D01*
X17822970D01*
X17854470Y5490370D01*
X17874160Y5469210D01*
X17882030Y5426870D01*
X17874160Y5384540D01*
X17850530Y5358090D01*
X17822970Y5342200D01*
X17724550D01*
G01X17822970D02*
X17882030Y5188750D01*
G01X18071010Y5506250D02*
X18165490D01*
G01X18118250D02*
Y5188750D01*
G01X18071010D02*
X18165490D01*
G01X18354470Y5506250D02*
Y5188750D01*
X18511950D01*
G01X18669430Y5506250D02*
Y5188750D01*
X18826910D01*
G01X19141870D02*
X18984390D01*
Y5506250D01*
X19141870D01*
G01X19078880Y5352800D02*
X18984390D01*
G01X19291480Y5188750D02*
Y5506250D01*
X19370210D01*
X19401710Y5490370D01*
X19425330Y5469210D01*
X19445020Y5437460D01*
X19460770Y5400410D01*
X19464700Y5347500D01*
X19460770Y5294580D01*
X19445020Y5257540D01*
X19425330Y5225780D01*
X19401710Y5204620D01*
X19370210Y5188750D01*
X19291480D01*
G01X19574940Y5082920D02*
X19811160D01*
G01X19925330Y5231070D02*
X19956830Y5204620D01*
X19992260Y5188750D01*
X20023760D01*
X20055250Y5204620D01*
X20078880Y5231070D01*
X20090690Y5268130D01*
X20082820Y5305160D01*
X20063130Y5336910D01*
X20027690Y5358090D01*
X19980450Y5368670D01*
X19952890Y5389830D01*
X19941080Y5426870D01*
X19948960Y5463920D01*
X19968640Y5490370D01*
X19996200Y5506250D01*
X20023760D01*
X20051320Y5495670D01*
X20074940Y5469210D01*
G01X20275730Y5506250D02*
X20370210D01*
G01X20322970D02*
Y5188750D01*
G01X20275730D02*
X20370210D01*
G01X20563120Y5506250D02*
X20712740D01*
X20563120Y5188750D01*
X20712740D01*
G01X21031630D02*
X20874150D01*
Y5506250D01*
X21031630D01*
G01X20968640Y5352800D02*
X20874150D01*
G01X19169430Y214580D02*
X19271790D01*
G01X19169430Y849580D02*
X19271790D01*
G01X19169430Y1484580D02*
X19271790D01*
G01X19169430Y2119580D02*
X19271790D01*
G01X19169430Y2754580D02*
X19271790D01*
G01X19169430Y3389580D02*
X19271790D01*
G01X19169430Y4024580D02*
X19271790D01*
G01X19169430Y4659580D02*
X19271790D01*
G01X21107830Y-208750D02*
Y-526250D01*
G01X21017280Y-208750D02*
X21198380D01*
G01X21422790Y-526250D02*
X21391290Y-520960D01*
X21363740Y-499800D01*
X21340110Y-468040D01*
X21324360Y-431000D01*
X21316490Y-388670D01*
Y-346330D01*
X21324360Y-304000D01*
X21340110Y-266960D01*
X21363740Y-235210D01*
X21391290Y-214040D01*
X21422790Y-208750D01*
X21454280Y-214040D01*
X21481840Y-235210D01*
X21505470Y-266960D01*
X21521220Y-304000D01*
X21529090Y-346330D01*
Y-388670D01*
X21521220Y-431000D01*
X21505470Y-468040D01*
X21481840Y-499800D01*
X21454280Y-520960D01*
X21422790Y-526250D01*
G01X21737750Y-208750D02*
Y-526250D01*
G01X21647200Y-208750D02*
X21828300D01*
G01X21954280Y-526250D02*
X22052710Y-208750D01*
X22151140Y-526250D01*
G01X22115700Y-415130D02*
X21989710D01*
G01X22288930Y-208750D02*
Y-526250D01*
X22446410D01*
G01X22914910D02*
Y-208750D01*
G01X23080270D02*
Y-526250D01*
G01Y-367500D02*
X22914910D01*
G01X23312550Y-526250D02*
X23281050Y-520960D01*
X23253500Y-499800D01*
X23229870Y-468040D01*
X23214120Y-431000D01*
X23206250Y-388670D01*
Y-346330D01*
X23214120Y-304000D01*
X23229870Y-266960D01*
X23253500Y-235210D01*
X23281050Y-214040D01*
X23312550Y-208750D01*
X23344040Y-214040D01*
X23371600Y-235210D01*
X23395230Y-266960D01*
X23410980Y-304000D01*
X23418850Y-346330D01*
Y-388670D01*
X23410980Y-431000D01*
X23395230Y-468040D01*
X23371600Y-499800D01*
X23344040Y-520960D01*
X23312550Y-526250D01*
G01X23548770Y-208750D02*
Y-526250D01*
X23706250D01*
G01X24021210D02*
X23863730D01*
Y-208750D01*
X24021210D01*
G01X23958220Y-362200D02*
X23863730D01*
G01X24174750Y-483930D02*
X24206250Y-510380D01*
X24241680Y-526250D01*
X24273180D01*
X24304670Y-510380D01*
X24328300Y-483930D01*
X24340110Y-446870D01*
X24332240Y-409840D01*
X24312550Y-378090D01*
X24277110Y-356910D01*
X24229870Y-346330D01*
X24202310Y-325170D01*
X24190500Y-288130D01*
X24198380Y-251080D01*
X24218060Y-224630D01*
X24245620Y-208750D01*
X24273180D01*
X24300740Y-219330D01*
X24324360Y-245790D01*
G01X24572390Y-536830D02*
X24564510Y-531540D01*
Y-520960D01*
X24572390Y-515670D01*
X24580270Y-520960D01*
Y-531540D01*
X24572390Y-536830D01*
G01Y-393970D02*
X24564510Y-388670D01*
Y-378090D01*
X24572390Y-372800D01*
X24580270Y-378090D01*
Y-388670D01*
X24572390Y-393970D01*
G01X22527690Y108750D02*
Y426250D01*
X22622180D01*
X22653670Y410370D01*
X22677300Y373330D01*
X22685170Y331000D01*
X22677300Y288670D01*
X22657610Y256910D01*
X22622180Y241030D01*
X22527690D01*
G01X22842650Y426250D02*
Y108750D01*
X23000130D01*
G01X23137920D02*
X23236350Y426250D01*
X23334780Y108750D01*
G01X23299340Y219870D02*
X23173350D01*
G01X23551310Y426250D02*
Y108750D01*
G01X23460760Y426250D02*
X23641860D01*
G01X23945010Y108750D02*
X23787530D01*
Y426250D01*
X23945010D01*
G01X23882020Y272800D02*
X23787530D01*
G01X24094620Y108750D02*
Y426250D01*
X24173350D01*
X24204850Y410370D01*
X24228470Y389210D01*
X24248160Y357460D01*
X24263910Y320410D01*
X24267840Y267500D01*
X24263910Y214580D01*
X24248160Y177540D01*
X24228470Y145780D01*
X24204850Y124620D01*
X24173350Y108750D01*
X24094620D01*
G01X22527690Y743750D02*
Y1061250D01*
X22622180D01*
X22653670Y1045370D01*
X22677300Y1008330D01*
X22685170Y966000D01*
X22677300Y923670D01*
X22657610Y891910D01*
X22622180Y876030D01*
X22527690D01*
G01X22842650Y1061250D02*
Y743750D01*
X23000130D01*
G01X23137920D02*
X23236350Y1061250D01*
X23334780Y743750D01*
G01X23299340Y854870D02*
X23173350D01*
G01X23551310Y1061250D02*
Y743750D01*
G01X23460760Y1061250D02*
X23641860D01*
G01X23945010Y743750D02*
X23787530D01*
Y1061250D01*
X23945010D01*
G01X23882020Y907800D02*
X23787530D01*
G01X24094620Y743750D02*
Y1061250D01*
X24173350D01*
X24204850Y1045370D01*
X24228470Y1024210D01*
X24248160Y992460D01*
X24263910Y955410D01*
X24267840Y902500D01*
X24263910Y849580D01*
X24248160Y812540D01*
X24228470Y780780D01*
X24204850Y759620D01*
X24173350Y743750D01*
X24094620D01*
G01X22527690Y1378750D02*
Y1696250D01*
X22622180D01*
X22653670Y1680370D01*
X22677300Y1643330D01*
X22685170Y1601000D01*
X22677300Y1558670D01*
X22657610Y1526910D01*
X22622180Y1511030D01*
X22527690D01*
G01X22842650Y1696250D02*
Y1378750D01*
X23000130D01*
G01X23137920D02*
X23236350Y1696250D01*
X23334780Y1378750D01*
G01X23299340Y1489870D02*
X23173350D01*
G01X23551310Y1696250D02*
Y1378750D01*
G01X23460760Y1696250D02*
X23641860D01*
G01X23945010Y1378750D02*
X23787530D01*
Y1696250D01*
X23945010D01*
G01X23882020Y1542800D02*
X23787530D01*
G01X24094620Y1378750D02*
Y1696250D01*
X24173350D01*
X24204850Y1680370D01*
X24228470Y1659210D01*
X24248160Y1627460D01*
X24263910Y1590410D01*
X24267840Y1537500D01*
X24263910Y1484580D01*
X24248160Y1447540D01*
X24228470Y1415780D01*
X24204850Y1394620D01*
X24173350Y1378750D01*
X24094620D01*
G01X22527690Y2013750D02*
Y2331250D01*
X22622180D01*
X22653670Y2315370D01*
X22677300Y2278330D01*
X22685170Y2236000D01*
X22677300Y2193670D01*
X22657610Y2161910D01*
X22622180Y2146030D01*
X22527690D01*
G01X22842650Y2331250D02*
Y2013750D01*
X23000130D01*
G01X23137920D02*
X23236350Y2331250D01*
X23334780Y2013750D01*
G01X23299340Y2124870D02*
X23173350D01*
G01X23551310Y2331250D02*
Y2013750D01*
G01X23460760Y2331250D02*
X23641860D01*
G01X23945010Y2013750D02*
X23787530D01*
Y2331250D01*
X23945010D01*
G01X23882020Y2177800D02*
X23787530D01*
G01X24094620Y2013750D02*
Y2331250D01*
X24173350D01*
X24204850Y2315370D01*
X24228470Y2294210D01*
X24248160Y2262460D01*
X24263910Y2225410D01*
X24267840Y2172500D01*
X24263910Y2119580D01*
X24248160Y2082540D01*
X24228470Y2050780D01*
X24204850Y2029620D01*
X24173350Y2013750D01*
X24094620D01*
G01X22527690Y2648750D02*
Y2966250D01*
X22622180D01*
X22653670Y2950370D01*
X22677300Y2913330D01*
X22685170Y2871000D01*
X22677300Y2828670D01*
X22657610Y2796910D01*
X22622180Y2781030D01*
X22527690D01*
G01X22842650Y2966250D02*
Y2648750D01*
X23000130D01*
G01X23137920D02*
X23236350Y2966250D01*
X23334780Y2648750D01*
G01X23299340Y2759870D02*
X23173350D01*
G01X23551310Y2966250D02*
Y2648750D01*
G01X23460760Y2966250D02*
X23641860D01*
G01X23945010Y2648750D02*
X23787530D01*
Y2966250D01*
X23945010D01*
G01X23882020Y2812800D02*
X23787530D01*
G01X24094620Y2648750D02*
Y2966250D01*
X24173350D01*
X24204850Y2950370D01*
X24228470Y2929210D01*
X24248160Y2897460D01*
X24263910Y2860410D01*
X24267840Y2807500D01*
X24263910Y2754580D01*
X24248160Y2717540D01*
X24228470Y2685780D01*
X24204850Y2664620D01*
X24173350Y2648750D01*
X24094620D01*
G01X22527690Y3283750D02*
Y3601250D01*
X22622180D01*
X22653670Y3585370D01*
X22677300Y3548330D01*
X22685170Y3506000D01*
X22677300Y3463670D01*
X22657610Y3431910D01*
X22622180Y3416030D01*
X22527690D01*
G01X22842650Y3601250D02*
Y3283750D01*
X23000130D01*
G01X23137920D02*
X23236350Y3601250D01*
X23334780Y3283750D01*
G01X23299340Y3394870D02*
X23173350D01*
G01X23551310Y3601250D02*
Y3283750D01*
G01X23460760Y3601250D02*
X23641860D01*
G01X23945010Y3283750D02*
X23787530D01*
Y3601250D01*
X23945010D01*
G01X23882020Y3447800D02*
X23787530D01*
G01X24094620Y3283750D02*
Y3601250D01*
X24173350D01*
X24204850Y3585370D01*
X24228470Y3564210D01*
X24248160Y3532460D01*
X24263910Y3495410D01*
X24267840Y3442500D01*
X24263910Y3389580D01*
X24248160Y3352540D01*
X24228470Y3320780D01*
X24204850Y3299620D01*
X24173350Y3283750D01*
X24094620D01*
G01X22527690Y3918750D02*
Y4236250D01*
X22622180D01*
X22653670Y4220370D01*
X22677300Y4183330D01*
X22685170Y4141000D01*
X22677300Y4098670D01*
X22657610Y4066910D01*
X22622180Y4051030D01*
X22527690D01*
G01X22842650Y4236250D02*
Y3918750D01*
X23000130D01*
G01X23137920D02*
X23236350Y4236250D01*
X23334780Y3918750D01*
G01X23299340Y4029870D02*
X23173350D01*
G01X23551310Y4236250D02*
Y3918750D01*
G01X23460760Y4236250D02*
X23641860D01*
G01X23945010Y3918750D02*
X23787530D01*
Y4236250D01*
X23945010D01*
G01X23882020Y4082800D02*
X23787530D01*
G01X24094620Y3918750D02*
Y4236250D01*
X24173350D01*
X24204850Y4220370D01*
X24228470Y4199210D01*
X24248160Y4167460D01*
X24263910Y4130410D01*
X24267840Y4077500D01*
X24263910Y4024580D01*
X24248160Y3987540D01*
X24228470Y3955780D01*
X24204850Y3934620D01*
X24173350Y3918750D01*
X24094620D01*
G01X22527690Y4553750D02*
Y4871250D01*
X22622180D01*
X22653670Y4855370D01*
X22677300Y4818330D01*
X22685170Y4776000D01*
X22677300Y4733670D01*
X22657610Y4701910D01*
X22622180Y4686030D01*
X22527690D01*
G01X22842650Y4871250D02*
Y4553750D01*
X23000130D01*
G01X23137920D02*
X23236350Y4871250D01*
X23334780Y4553750D01*
G01X23299340Y4664870D02*
X23173350D01*
G01X23551310Y4871250D02*
Y4553750D01*
G01X23460760Y4871250D02*
X23641860D01*
G01X23945010Y4553750D02*
X23787530D01*
Y4871250D01*
X23945010D01*
G01X23882020Y4717800D02*
X23787530D01*
G01X24094620Y4553750D02*
Y4871250D01*
X24173350D01*
X24204850Y4855370D01*
X24228470Y4834210D01*
X24248160Y4802460D01*
X24263910Y4765410D01*
X24267840Y4712500D01*
X24263910Y4659580D01*
X24248160Y4622540D01*
X24228470Y4590780D01*
X24204850Y4569620D01*
X24173350Y4553750D01*
X24094620D01*
G01X22527690Y5188750D02*
Y5506250D01*
X22622180D01*
X22653670Y5490370D01*
X22677300Y5453330D01*
X22685170Y5411000D01*
X22677300Y5368670D01*
X22657610Y5336910D01*
X22622180Y5321030D01*
X22527690D01*
G01X22842650Y5506250D02*
Y5188750D01*
X23000130D01*
G01X23137920D02*
X23236350Y5506250D01*
X23334780Y5188750D01*
G01X23299340Y5299870D02*
X23173350D01*
G01X23551310Y5506250D02*
Y5188750D01*
G01X23460760Y5506250D02*
X23641860D01*
G01X23945010Y5188750D02*
X23787530D01*
Y5506250D01*
X23945010D01*
G01X23882020Y5352800D02*
X23787530D01*
G01X24094620Y5188750D02*
Y5506250D01*
X24173350D01*
X24204850Y5490370D01*
X24228470Y5469210D01*
X24248160Y5437460D01*
X24263910Y5400410D01*
X24267840Y5347500D01*
X24263910Y5294580D01*
X24248160Y5257540D01*
X24228470Y5225780D01*
X24204850Y5204620D01*
X24173350Y5188750D01*
X24094620D01*
G01X25677290Y-526250D02*
Y-208750D01*
X25630050Y-272250D01*
G01Y-526250D02*
X25724530D01*
G01X25984370D02*
X25992250Y-457460D01*
X26004060Y-399260D01*
X26019810Y-346330D01*
X26039490Y-288130D01*
X26070990Y-208750D01*
X25913510D01*
G01X26307210Y-526250D02*
Y-208750D01*
X26259970Y-272250D01*
G01Y-526250D02*
X26354450D01*
G01X25917440Y373330D02*
X25941070Y405080D01*
X25968630Y420960D01*
X26000130Y426250D01*
X26039490Y415670D01*
X26067060Y389210D01*
X26074930Y357460D01*
X26070990Y325700D01*
X26055240Y299250D01*
X25976500Y246330D01*
X25941070Y209290D01*
X25917440Y156360D01*
X25909570Y108750D01*
X26074930D01*
G01X25917440Y1008330D02*
X25941070Y1040080D01*
X25968630Y1055960D01*
X26000130Y1061250D01*
X26039490Y1050670D01*
X26067060Y1024210D01*
X26074930Y992460D01*
X26070990Y960700D01*
X26055240Y934250D01*
X25976500Y881330D01*
X25941070Y844290D01*
X25917440Y791360D01*
X25909570Y743750D01*
X26074930D01*
G01X26039490Y1378750D02*
Y1696250D01*
X25893820Y1468710D01*
X26090680D01*
G01X26039490Y2013750D02*
Y2331250D01*
X25893820Y2103710D01*
X26090680D01*
G01X26039490Y2648750D02*
Y2966250D01*
X25893820Y2738710D01*
X26090680D01*
G01X25834770Y3283750D02*
Y3601250D01*
X25787530Y3537750D01*
G01Y3283750D02*
X25882010D01*
G01X26074920Y3548330D02*
X26098550Y3580080D01*
X26126110Y3595960D01*
X26157610Y3601250D01*
X26196970Y3590670D01*
X26224540Y3564210D01*
X26232410Y3532460D01*
X26228470Y3500700D01*
X26212720Y3474250D01*
X26133980Y3421330D01*
X26098550Y3384290D01*
X26074920Y3331360D01*
X26067050Y3283750D01*
X26232410D01*
G01X25992250Y3918750D02*
X26019810Y3924040D01*
X26051300Y3939910D01*
X26070990Y3966360D01*
X26078860Y4003420D01*
X26070990Y4040450D01*
X26047370Y4072200D01*
X26011930Y4088090D01*
X25972570D01*
X25948940Y4098670D01*
X25929250Y4125120D01*
X25921380Y4162160D01*
X25933200Y4199210D01*
X25960750Y4225670D01*
X25992250Y4236250D01*
X26023740Y4225670D01*
X26051300Y4199210D01*
X26063120Y4162160D01*
X26055240Y4125120D01*
X26035560Y4098670D01*
X26011930Y4088090D01*
X25972570D01*
X25937130Y4072200D01*
X25913510Y4040450D01*
X25905640Y4003420D01*
X25913510Y3966360D01*
X25933200Y3939910D01*
X25964690Y3924040D01*
X25992250Y3918750D01*
G01X25677290Y4553750D02*
Y4871250D01*
X25630050Y4807750D01*
G01Y4553750D02*
X25724530D01*
G01X25905640Y4617250D02*
X25929250Y4580200D01*
X25960750Y4559040D01*
X25996190Y4553750D01*
X26027690Y4559040D01*
X26059180Y4585490D01*
X26078860Y4617250D01*
X26082800Y4649000D01*
X26074930Y4686030D01*
X26047370Y4712500D01*
X26019810Y4723090D01*
X25984370D01*
G01X26019810D02*
X26043430Y4738960D01*
X26063120Y4765410D01*
X26070990Y4797160D01*
X26063120Y4828920D01*
X26043430Y4855370D01*
X26008000Y4871250D01*
X25972570Y4865960D01*
X25937130Y4844790D01*
G01X26220600Y4601360D02*
X26244210Y4574910D01*
X26271770Y4559040D01*
X26307210Y4553750D01*
X26342650Y4564330D01*
X26370200Y4585490D01*
X26389890Y4622540D01*
X26393820Y4664870D01*
X26385950Y4707200D01*
X26366260Y4733670D01*
X26338700Y4754830D01*
X26311150Y4760120D01*
X26283590Y4754830D01*
X26248160Y4733670D01*
X26259970Y4871250D01*
X26366260D01*
G01X25677290Y5188750D02*
X25645790Y5194040D01*
X25618240Y5215200D01*
X25594610Y5246960D01*
X25578860Y5284000D01*
X25570990Y5326330D01*
Y5368670D01*
X25578860Y5411000D01*
X25594610Y5448040D01*
X25618240Y5479790D01*
X25645790Y5500960D01*
X25677290Y5506250D01*
X25708780Y5500960D01*
X25736340Y5479790D01*
X25759970Y5448040D01*
X25775720Y5411000D01*
X25783590Y5368670D01*
Y5326330D01*
X25775720Y5284000D01*
X25759970Y5246960D01*
X25736340Y5215200D01*
X25708780Y5194040D01*
X25677290Y5188750D01*
G01X25708780Y5273420D02*
X25756030Y5188750D01*
G01X25992250Y5506250D02*
Y5188750D01*
G01X25901700Y5506250D02*
X26082800D01*
G01X26307210Y5188750D02*
Y5331620D01*
X26228470Y5506250D01*
G01X26385950D02*
X26307210Y5331620D01*
G01X-250000Y0D02*
X-1140000D01*
G01X-952500Y400000D02*
X-890000Y0D01*
X-827500Y400000D01*
X-952500D01*
G01X-827500Y5000000D02*
X-890000Y5400000D01*
X-952500Y5000000D01*
X-827500D01*
G01X510000Y5400000D02*
X-1140000D01*
G01X-890000Y2424260D02*
Y0D01*
G01X110000Y360000D02*
X-660000D01*
G01X-890000Y2915740D02*
Y5400000D01*
G01X110000Y5040000D02*
X-660000D01*
G01X-410000Y1994260D02*
Y360000D01*
G01X-472500Y760000D02*
X-410000Y360000D01*
X-347500Y760000D01*
X-472500D01*
G01X-410000Y2485740D02*
Y5040000D01*
G01X-347500Y4640000D02*
X-410000Y5040000D01*
X-472500Y4640000D01*
X-347500D01*
G01X0Y-250000D02*
Y-920000D01*
G01X3323140Y-670000D02*
X0D01*
G01X400000Y-607500D02*
X0Y-670000D01*
X400000Y-732500D01*
Y-607500D01*
G01X360000Y110000D02*
Y-610000D01*
G01X2612640Y-360000D02*
X360000D01*
G01X760000Y-297500D02*
X360000Y-360000D01*
X760000Y-422500D01*
Y-297500D01*
G01X3956860Y-670000D02*
X8500000D01*
G01X3627360Y-360000D02*
X8140000D01*
G01X7740000Y-422500D02*
X8140000Y-360000D01*
X7740000Y-297500D01*
Y-422500D01*
G01X8100000Y-732500D02*
X8500000Y-670000D01*
X8100000Y-607500D01*
Y-732500D01*
G01X8140000Y110000D02*
Y-610000D01*
G01X8500000Y50000D02*
Y-920000D01*
G01X9260000Y-50000D02*
Y6950000D01*
X26976500D01*
Y-50000D01*
X9260000D01*
G01Y585000D02*
X26976500D01*
G01X9260000Y1220000D02*
X26976500D01*
G01X9260000Y1855000D02*
X26976500D01*
G01X9260000Y2490000D02*
X26976500D01*
G01X9260000Y3125000D02*
X26976500D01*
G01X9260000Y3760000D02*
X26976500D01*
G01X9260000Y4395000D02*
X26976500D01*
G01X9260000Y5030000D02*
X26976500D01*
G01X9260000Y5665000D02*
X26976500D01*
G01X9260000Y6300000D02*
X26976500D01*
G01X11543460Y5665000D02*
Y-50000D01*
G01X16661560Y5665000D02*
Y-50000D01*
G01X21779660Y5665000D02*
Y-50000D01*
G01X25008000Y5665000D02*
Y-50000D01*
M02*
