G04 ================== begin FILE IDENTIFICATION RECORD ==================*
G04 Layout Name:  HY_SP32_AIRQ_V10_260326.brd*
G04 Film Name:    SilkScreen_Top*
G04 File Format:  Gerber RS274X*
G04 File Origin:  Cadence Allegro 25.1-S020*
G04 Origin Date:  Wed Apr  1 10:16:44 2026*
G04 *
G04 Layer:  PACKAGE GEOMETRY/SILKSCREEN_TOP*
G04 Layer:  BOARD GEOMETRY/SILKSCREEN_TOP*
G04 *
G04 Offset:    (0.0000 0.0000)*
G04 Mirror:    No*
G04 Mode:      Positive*
G04 Rotation:  0*
G04 FullContactRelief:  No*
G04 UndefLineWidth:     0.1524*
G04 ================== end FILE IDENTIFICATION RECORD ====================*
%FSLAX55Y55*MOMM*%
%IR0*IPPOS*OFA0.00000B0.00000*MIA0B0*SFA1.00000B1.00000*%
%ADD10C,.2*%
%ADD11C,.2032*%
%ADD12C,.18*%
%ADD13C,.1524*%
G75*
%LPD*%
G75*
G36*
G01X790000Y1700000D02*
G03I-30000J0D01*
G37*
G36*
G01X1009200Y4052200D02*
G03I-25400J0D01*
G37*
G36*
G01X1362500Y4440000D02*
G03I-30000J0D01*
G37*
G36*
G01X2886060Y875000D02*
G03I-36060J0D01*
G37*
G36*
G01X3570000Y4515000D02*
G03I-30000J0D01*
G37*
G36*
G01X5210000Y5145000D02*
G03I-30000J0D01*
G37*
G36*
G01X7872360Y3555000D02*
G03I-22360J0D01*
G37*
G36*
G01X7056800Y3551070D02*
Y3535730D01*
X7061550Y3533270D01*
X7067070Y3529730D01*
X7072660Y3525430D01*
X7078320Y3520370D01*
X7084050Y3514560D01*
X7085150Y3513360D01*
X7091450Y3505850D01*
X7097290Y3497720D01*
X7102670Y3488980D01*
X7107600Y3479630D01*
X7131680D01*
X7129990Y3483800D01*
X7126940Y3490360D01*
X7123270Y3497350D01*
X7118980Y3504770D01*
X7115240Y3510540D01*
X7110720Y3516870D01*
X7106230Y3522450D01*
X7101780Y3527260D01*
X7260000D01*
Y3551070D01*
X7056800D01*
G37*
G54D10*
G01X960000Y930000D02*
X20000D01*
Y1300000D01*
X960000D01*
Y930000D01*
G01X690000Y3610000D02*
X0D01*
Y1790000D01*
X690000D01*
G01X620000D02*
Y3610000D01*
G01X380000Y4110000D02*
X560000D01*
Y4010000D01*
X380000D01*
Y4110000D01*
G01Y4410000D02*
X560000D01*
Y4310000D01*
X380000D01*
Y4410000D01*
G01X960000Y810000D02*
X880000D01*
Y190000D01*
X960000D01*
G01X1020000Y1030000D02*
G03X1120000I50000J52500D01*
G01Y1190000D02*
G03X1020000I-50000J-52500D01*
G01X1120000D02*
Y1030000D01*
G01X1020000D02*
Y1190000D01*
G01X1110000Y1610000D02*
G03X970000I-70000J-112500D01*
G01Y1370000D02*
G03X1110000I70000J112500D01*
G01D02*
Y1610000D01*
G01X970000Y1370000D02*
Y1610000D01*
G01X940000D02*
G03X840000I-50000J-52500D01*
G01Y1450000D02*
G03X940000I50000J52500D01*
G01X840000D02*
Y1610000D01*
G01X940000D02*
Y1450000D01*
G01X935700Y4255400D02*
G02Y4204600I0J-25400D01*
G01D02*
Y4179200D01*
X1164300D01*
Y4280800D01*
X935700D01*
Y4255400D01*
G01X1080000Y4500000D02*
G03X1220000I70000J112500D01*
G01X1080000D02*
Y4740000D01*
G01X1050000Y4850000D02*
Y4490000D01*
X870000D01*
Y4850000D01*
X1050000D01*
G01X1220000Y4740000D02*
G03X1080000I-70000J-112500D01*
G01X1550000Y810000D02*
X1470000D01*
Y190000D01*
X1550000D01*
G01X1180000Y810000D02*
X1260000D01*
Y190000D01*
X1180000D01*
G01X1580000Y3970000D02*
Y3790000D01*
X1480000D01*
Y3970000D01*
X1580000D01*
G01X1220000Y4500000D02*
Y4740000D01*
G01X1270000Y4840000D02*
G02Y4740000I0J-50000D01*
G01D02*
Y4630000D01*
X1590000D01*
Y4950000D01*
X1270000D01*
Y4840000D01*
G01X1280000Y5150000D02*
G03X1380000I50000J52500D01*
G01Y5310000D02*
G03X1280000I-50000J-52500D01*
G01X1380000D02*
Y5150000D01*
G01X1280000D02*
Y5310000D01*
G01X1430000Y5150000D02*
G03X1530000I50000J52500D01*
G01Y5310000D02*
G03X1430000I-50000J-52500D01*
G01X1530000D02*
Y5150000D01*
G01X1430000D02*
Y5310000D01*
G01X1770000Y810000D02*
X1850000D01*
Y190000D01*
X1770000D01*
G01X1610000Y1030000D02*
G03X1710000I50000J52500D01*
G01Y1190000D02*
G03X1610000I-50000J-52500D01*
G01X1710000D02*
Y1030000D01*
G01X1610000D02*
Y1190000D01*
G01X1840000Y1200000D02*
Y1020000D01*
X1740000D01*
Y1200000D01*
X1840000D01*
G01X1600000Y3800000D02*
G03X1700000I50000J52500D01*
G01Y3960000D02*
G03X1600000I-50000J-52500D01*
G01X1700000D02*
Y3800000D01*
G01X1600000D02*
Y3960000D01*
G01X1730000Y3800000D02*
G03X1830000I50000J52500D01*
G01Y3960000D02*
G03X1730000I-50000J-52500D01*
G01X1830000D02*
Y3800000D01*
G01X1730000D02*
Y3960000D01*
G01X1950000Y3970000D02*
Y3790000D01*
X1850000D01*
Y3970000D01*
X1950000D01*
G01X1840000Y4720000D02*
X1950000D01*
Y4560000D01*
G01X1740000D02*
X1840000D01*
G01X1740000Y4720000D02*
X1630000D01*
Y4560000D01*
G01X1800000Y4890000D02*
Y5250000D01*
X1640000D01*
Y4890000D01*
X1800000D01*
G01D02*
Y4860000D01*
X1640000D01*
Y4890000D01*
G01X1830000Y5070000D02*
Y5250000D01*
X1930000D01*
Y5070000D01*
X1830000D01*
G01X1770800Y5095400D02*
X1669200D01*
X1720000Y5044600D01*
X1770800Y5095400D01*
G01X2110000Y4970000D02*
Y4790000D01*
X2010000D01*
Y4970000D01*
X2110000D01*
G01X2300000D02*
Y4790000D01*
X2200000D01*
Y4970000D01*
X2300000D01*
G01X2190000Y5245000D02*
X2310000D01*
X2280000Y5275000D01*
X2220000D01*
X2190000Y5245000D01*
G01X2310000Y4995000D02*
Y5245000D01*
G01X2190000Y4995000D02*
Y5245000D01*
G01X2250000Y5100000D02*
Y5140000D01*
G01X2220000Y5100000D02*
X2280000D01*
G01X2190000Y4995000D02*
X2310000D01*
G01X2000000Y5245000D02*
X2120000D01*
X2090000Y5275000D01*
X2030000D01*
X2000000Y5245000D01*
G01X2120000Y4995000D02*
Y5245000D01*
G01X2000000Y4995000D02*
Y5245000D01*
G01X2060000Y5100000D02*
Y5140000D01*
G01X2030000Y5100000D02*
X2090000D01*
G01X2000000Y4995000D02*
X2120000D01*
G01X2620000Y960000D02*
G03Y860000I52500J-50000D01*
G01X2780000D02*
X2620000D01*
G01X2790000Y740000D02*
X2610000D01*
Y840000D01*
X2790000D01*
Y740000D01*
G01Y620000D02*
X2610000D01*
Y720000D01*
X2790000D01*
Y620000D01*
G01X2620000Y960000D02*
X2780000D01*
G01X2480000Y1790000D02*
X2570000D01*
Y1930000D01*
G01Y3470000D02*
Y3610000D01*
X2480000D01*
G01X3180000Y930000D02*
X3090000D01*
Y430000D01*
X3430000D01*
Y930000D01*
X3340000D01*
G01X2780000Y860000D02*
G03Y960000I-52500J50000D01*
G01X3130000Y1390000D02*
Y4010000D01*
X6060000D01*
Y1390000D01*
X3130000D01*
G01X2910000Y4490000D02*
G03X3050000I70000J112500D01*
G01X2910000Y4730000D02*
Y4490000D01*
G01X3050000Y4730000D02*
Y4490000D01*
G01X3230000Y4400000D02*
Y4220000D01*
X3130000D01*
Y4400000D01*
X3230000D01*
G01X3050000Y4730000D02*
G03X2910000I-70000J-112500D01*
G01X3340000Y930000D02*
G02X3180000I-80000J0D01*
G01X3270000Y1530000D02*
Y3870000D01*
X5610000D01*
Y1530000D01*
X3270000D01*
G01Y4460000D02*
G02X3350000I40000J0D01*
G01X3390000D02*
X3350000D01*
G01X3230000D02*
X3270000D01*
G01X3250000Y4220000D02*
Y4400000D01*
X3350000D01*
Y4220000D01*
X3250000D01*
G01X3230000Y4760000D02*
X3390000D01*
G01X3230000Y4570000D02*
Y4650000D01*
G01X3710000Y540000D02*
X3890000D01*
Y440000D01*
X3710000D01*
Y540000D01*
G01X3880000Y860000D02*
G03Y960000I-52500J50000D01*
G01X3720000D02*
G03Y860000I52500J-50000D01*
G01X3880000D02*
X3720000D01*
G01X3710000Y840000D02*
X3890000D01*
Y740000D01*
X3710000D01*
Y840000D01*
G01Y720000D02*
X3890000D01*
Y620000D01*
X3710000D01*
Y720000D01*
G01X3720000Y960000D02*
X3880000D01*
G01X3988780Y4490000D02*
G03X4128780I70000J112500D01*
G01X3988780D02*
Y4730000D01*
G01X3600000Y4450000D02*
X3920000D01*
G01X3760000Y4560000D02*
G03Y4510000I0J-25000D01*
G01Y4450000D01*
G01X4128780Y4730000D02*
G03X3988780I-70000J-112500D01*
G01X3600000Y4770000D02*
X3920000D01*
G01X3760000Y4610000D02*
G03Y4560000I0J-25000D01*
G01Y4660000D02*
G03Y4610000I0J-25000D01*
G01Y4660000D02*
G02Y4710000I0J25000D01*
G01Y4760000D01*
G01X4330000Y4490000D02*
G03X4470000I70000J112500D01*
G01X4330000D02*
Y4730000D01*
G01X4128780Y4490000D02*
Y4730000D01*
G01X4160000Y4490000D02*
G03X4300000I70000J112500D01*
G01D02*
Y4730000D01*
G01X4160000Y4490000D02*
Y4730000D01*
G01X4463500Y4310000D02*
G03I-63500J0D01*
G01X4470000Y4730000D02*
G03X4330000I-70000J-112500D01*
G01X4300000D02*
G03X4160000I-70000J-112500D01*
G01X4690000Y790000D02*
G03Y890000I-52500J50000D01*
G01X4530000D02*
G03Y790000I52500J-50000D01*
G01X4690000D02*
X4530000D01*
G01Y890000D02*
X4690000D01*
G01X4470000Y4490000D02*
Y4730000D01*
G01X4700000Y4870000D02*
Y5050000D01*
X4800000D01*
Y4870000D01*
X4700000D01*
G01X4690000Y5325000D02*
X4810000D01*
X4780000Y5355000D01*
X4720000D01*
X4690000Y5325000D01*
G01Y5075000D02*
Y5325000D01*
G01X4750000Y5180000D02*
Y5220000D01*
G01X4720000Y5180000D02*
X4780000D01*
G01X4690000Y5075000D02*
X4810000D01*
G01D02*
Y5325000D01*
G01X5510000Y790000D02*
G03Y890000I-52500J50000D01*
G01X5350000D02*
G03Y790000I52500J-50000D01*
G01X5510000D02*
X5350000D01*
G01Y890000D02*
X5510000D01*
G01X5520000Y4960000D02*
Y4930000D01*
X5240000D01*
Y4960000D01*
G01X5560000Y4820000D02*
G03X5460000I-50000J-52500D01*
G01Y4660000D02*
G03X5560000I50000J52500D01*
G01X5460000D02*
Y4820000D01*
G01X5560000D02*
Y4660000D01*
G01X5240000Y5180000D02*
Y5210000D01*
X5520000D01*
Y5180000D01*
G01X5750000Y4010000D02*
Y1390000D01*
G01X6370000Y850000D02*
G03X6470000I50000J52500D01*
G01X6370000D02*
Y1010000D01*
G01X6470000D02*
G03X6370000I-50000J-52500D01*
G01X6060000Y2350000D02*
Y3600000D01*
X7560000D01*
Y2350000D01*
X6060000D01*
G01X6270000Y4680000D02*
G03X6370000I50000J52500D01*
G01Y4840000D02*
G03X6270000I-50000J-52500D01*
G01X6370000D02*
Y4680000D01*
G01X6270000D02*
Y4840000D01*
G01X6470000Y1010000D02*
Y850000D01*
G01X6868780Y4850000D02*
Y4670000D01*
X6768780D01*
Y4850000D01*
X6868780D01*
G01X6840000Y1540000D02*
G03X6940000I50000J52500D01*
G01X6840000D02*
Y1700000D01*
G01X6940000D02*
Y1540000D01*
G01X7320000Y3870000D02*
X7220000D01*
Y2090000D01*
X7320000D01*
G01X6940000Y1700000D02*
G03X6840000I-50000J-52500D01*
G01X6990000Y4850000D02*
Y4670000D01*
X6890000D01*
Y4850000D01*
X6990000D01*
G01X8040000Y1530000D02*
Y1710000D01*
X8140000D01*
Y1530000D01*
X8040000D01*
G01X7830000D02*
Y1710000D01*
X7930000D01*
Y1530000D01*
X7830000D01*
G01X7670000Y2370000D02*
Y2160000D01*
G01Y3590000D02*
Y3800000D01*
G01X8140000Y3410000D02*
G03Y3270000I112500J-70000D01*
G01X8380000D02*
G03Y3410000I-112500J70000D01*
G01Y3270000D02*
X8140000D01*
G01Y3240000D02*
G03Y3100000I112500J-70000D01*
G01X8380000D02*
G03Y3240000I-112500J70000D01*
G01D02*
X8140000D01*
G01X8380000Y3100000D02*
X8140000D01*
G01X8380000Y3410000D02*
X8140000D01*
G54D11*
G01X2540000Y5120000D02*
X2450000D01*
Y5180000D01*
G01X2980000Y5120000D02*
X2720000D01*
G01X2460000Y5400000D02*
X2680000D01*
Y5510000D01*
X3020000D01*
Y5400000D01*
X3240000D01*
G01X3250000Y5180000D02*
Y5120000D01*
X3160000D01*
G01X3730000D02*
X3640000D01*
Y5180000D01*
G01X4170000Y5120000D02*
X3910000D01*
G01X3650000Y5400000D02*
X3870000D01*
Y5510000D01*
X4210000D01*
Y5400000D01*
X4430000D01*
G01X4440000Y5180000D02*
Y5120000D01*
X4350000D01*
G54D12*
G01X4630000Y5010000D02*
X4670000D01*
Y4920000D01*
G01X4550000Y5010000D02*
X4510000D01*
Y4920000D01*
G01X8210000Y3580000D02*
X8170000D01*
Y3670000D01*
G01X8290000Y3580000D02*
X8330000D01*
Y3670000D01*
G54D13*
G01X314000Y340000D02*
Y430000D01*
X340000Y355000D01*
X366000Y430000D01*
Y340000D01*
G01X389000D02*
Y430000D01*
G01X431000D02*
Y340000D01*
G01Y385000D02*
X389000D01*
G01X458000Y358000D02*
X464000Y347500D01*
X472000Y341500D01*
X481000Y340000D01*
X489000Y341500D01*
X497000Y349000D01*
X502000Y358000D01*
X503000Y367000D01*
X501000Y377500D01*
X494000Y385000D01*
X487000Y388000D01*
X478000D01*
G01X487000D02*
X493000Y392500D01*
X498000Y400000D01*
X500000Y409000D01*
X498000Y418000D01*
X493000Y425500D01*
X484000Y430000D01*
X475000Y428500D01*
X466000Y422500D01*
G01X49000Y1162000D02*
X57000Y1154500D01*
X66000Y1150000D01*
X74000D01*
X82000Y1154500D01*
X88000Y1162000D01*
X91000Y1172500D01*
X89000Y1183000D01*
X84000Y1192000D01*
X75000Y1198000D01*
X63000Y1201000D01*
X56000Y1207000D01*
X53000Y1217500D01*
X55000Y1228000D01*
X60000Y1235500D01*
X67000Y1240000D01*
X74000D01*
X81000Y1237000D01*
X87000Y1229500D01*
G01X120000Y1150000D02*
Y1240000D01*
X144000D01*
X152000Y1235500D01*
X158000Y1225000D01*
X160000Y1213000D01*
X158000Y1201000D01*
X153000Y1192000D01*
X144000Y1187500D01*
X120000D01*
G01X188000Y1168000D02*
X194000Y1157500D01*
X202000Y1151500D01*
X211000Y1150000D01*
X219000Y1151500D01*
X227000Y1159000D01*
X232000Y1168000D01*
X233000Y1177000D01*
X231000Y1187500D01*
X224000Y1195000D01*
X217000Y1198000D01*
X208000D01*
G01X217000D02*
X223000Y1202500D01*
X228000Y1210000D01*
X230000Y1219000D01*
X228000Y1228000D01*
X223000Y1235500D01*
X214000Y1240000D01*
X205000Y1238500D01*
X196000Y1232500D01*
G01X261000Y1225000D02*
X267000Y1234000D01*
X274000Y1238500D01*
X282000Y1240000D01*
X292000Y1237000D01*
X299000Y1229500D01*
X301000Y1220500D01*
X300000Y1211500D01*
X296000Y1204000D01*
X276000Y1189000D01*
X267000Y1178500D01*
X261000Y1163500D01*
X259000Y1150000D01*
X301000D01*
G01X320000Y1120000D02*
X380000D01*
G01X395000Y1150000D02*
X420000Y1240000D01*
X445000Y1150000D01*
G01X436000Y1181500D02*
X404000D01*
G01X478000Y1240000D02*
X502000D01*
G01X490000D02*
Y1150000D01*
G01X478000D02*
X502000D01*
G01X540000D02*
Y1240000D01*
X565000D01*
X573000Y1235500D01*
X578000Y1229500D01*
X580000Y1217500D01*
X578000Y1205500D01*
X572000Y1198000D01*
X565000Y1193500D01*
X540000D01*
G01X565000D02*
X580000Y1150000D01*
G01X630000D02*
X622000Y1151500D01*
X615000Y1157500D01*
X609000Y1166500D01*
X605000Y1177000D01*
X603000Y1189000D01*
Y1201000D01*
X605000Y1213000D01*
X609000Y1223500D01*
X615000Y1232500D01*
X622000Y1238500D01*
X630000Y1240000D01*
X638000Y1238500D01*
X645000Y1232500D01*
X651000Y1223500D01*
X655000Y1213000D01*
X657000Y1201000D01*
Y1189000D01*
X655000Y1177000D01*
X651000Y1166500D01*
X645000Y1157500D01*
X638000Y1151500D01*
X630000Y1150000D01*
G01X638000Y1174000D02*
X650000Y1150000D01*
G01X670000Y1120000D02*
X730000D01*
G01X745000Y1240000D02*
X770000Y1150000D01*
X795000Y1240000D01*
G01X840000Y1150000D02*
Y1240000D01*
X828000Y1222000D01*
G01Y1150000D02*
X852000D01*
G01X910000Y1240000D02*
X902000Y1237000D01*
X896000Y1229500D01*
X892000Y1220500D01*
X889000Y1208500D01*
X888000Y1195000D01*
X889000Y1181500D01*
X892000Y1169500D01*
X896000Y1160500D01*
X902000Y1153000D01*
X910000Y1150000D01*
X918000Y1153000D01*
X924000Y1160500D01*
X928000Y1169500D01*
X931000Y1181500D01*
X932000Y1195000D01*
X931000Y1208500D01*
X928000Y1220500D01*
X924000Y1229500D01*
X918000Y1237000D01*
X910000Y1240000D01*
G01X51000Y1065000D02*
X57000Y1074000D01*
X64000Y1078500D01*
X72000Y1080000D01*
X82000Y1077000D01*
X89000Y1069500D01*
X91000Y1060500D01*
X90000Y1051500D01*
X86000Y1044000D01*
X66000Y1029000D01*
X57000Y1018500D01*
X51000Y1003500D01*
X49000Y990000D01*
X91000D01*
G01X121000Y1027500D02*
X128000Y1038000D01*
X134000Y1044000D01*
X142000Y1047000D01*
X149000Y1044000D01*
X154000Y1038000D01*
X158000Y1029000D01*
X159000Y1018500D01*
X158000Y1009500D01*
X154000Y1000500D01*
X148000Y993000D01*
X141000Y990000D01*
X133000Y993000D01*
X126000Y1002000D01*
X122000Y1015500D01*
X121000Y1030500D01*
X123000Y1050000D01*
X126000Y1060500D01*
X131000Y1071000D01*
X138000Y1078500D01*
X145000Y1080000D01*
X152000Y1077000D01*
X157000Y1069500D01*
G01X210000Y1080000D02*
X202000Y1077000D01*
X196000Y1069500D01*
X192000Y1060500D01*
X189000Y1048500D01*
X188000Y1035000D01*
X189000Y1021500D01*
X192000Y1009500D01*
X196000Y1000500D01*
X202000Y993000D01*
X210000Y990000D01*
X218000Y993000D01*
X224000Y1000500D01*
X228000Y1009500D01*
X231000Y1021500D01*
X232000Y1035000D01*
X231000Y1048500D01*
X228000Y1060500D01*
X224000Y1069500D01*
X218000Y1077000D01*
X210000Y1080000D01*
G01X258000Y1008000D02*
X264000Y997500D01*
X272000Y991500D01*
X281000Y990000D01*
X289000Y991500D01*
X297000Y999000D01*
X302000Y1008000D01*
X303000Y1017000D01*
X301000Y1027500D01*
X294000Y1035000D01*
X287000Y1038000D01*
X278000D01*
G01X287000D02*
X293000Y1042500D01*
X298000Y1050000D01*
X300000Y1059000D01*
X298000Y1068000D01*
X293000Y1075500D01*
X284000Y1080000D01*
X275000Y1078500D01*
X266000Y1072500D01*
G01X331000Y1065000D02*
X337000Y1074000D01*
X344000Y1078500D01*
X352000Y1080000D01*
X362000Y1077000D01*
X369000Y1069500D01*
X371000Y1060500D01*
X370000Y1051500D01*
X366000Y1044000D01*
X346000Y1029000D01*
X337000Y1018500D01*
X331000Y1003500D01*
X329000Y990000D01*
X371000D01*
G01X401000Y1027500D02*
X408000Y1038000D01*
X414000Y1044000D01*
X422000Y1047000D01*
X429000Y1044000D01*
X434000Y1038000D01*
X438000Y1029000D01*
X439000Y1018500D01*
X438000Y1009500D01*
X434000Y1000500D01*
X428000Y993000D01*
X421000Y990000D01*
X413000Y993000D01*
X406000Y1002000D01*
X402000Y1015500D01*
X401000Y1030500D01*
X403000Y1050000D01*
X406000Y1060500D01*
X411000Y1071000D01*
X418000Y1078500D01*
X425000Y1080000D01*
X432000Y1077000D01*
X437000Y1069500D01*
G01X314000Y5020000D02*
Y5110000D01*
X340000Y5035000D01*
X366000Y5110000D01*
Y5020000D01*
G01X389000D02*
Y5110000D01*
G01X431000D02*
Y5020000D01*
G01Y5065000D02*
X389000D01*
G01X480000Y5020000D02*
Y5110000D01*
X468000Y5092000D01*
G01Y5020000D02*
X492000D01*
G01X718000Y88000D02*
X722000Y92500D01*
X725000Y100000D01*
X727000Y110500D01*
X725000Y119500D01*
X721000Y125500D01*
X714000Y130000D01*
X687000D01*
Y40000D01*
X720000D01*
X727000Y46000D01*
X731000Y55000D01*
X733000Y65500D01*
X731000Y76000D01*
X725000Y85000D01*
X718000Y88000D01*
X687000D01*
G01X780000Y40000D02*
X772000Y41500D01*
X765000Y47500D01*
X759000Y56500D01*
X755000Y67000D01*
X753000Y79000D01*
Y91000D01*
X755000Y103000D01*
X759000Y113500D01*
X765000Y122500D01*
X772000Y128500D01*
X780000Y130000D01*
X788000Y128500D01*
X795000Y122500D01*
X801000Y113500D01*
X805000Y103000D01*
X807000Y91000D01*
Y79000D01*
X805000Y67000D01*
X801000Y56500D01*
X795000Y47500D01*
X788000Y41500D01*
X780000Y40000D01*
G01X850000D02*
X842000Y41500D01*
X835000Y47500D01*
X829000Y56500D01*
X825000Y67000D01*
X823000Y79000D01*
Y91000D01*
X825000Y103000D01*
X829000Y113500D01*
X835000Y122500D01*
X842000Y128500D01*
X850000Y130000D01*
X858000Y128500D01*
X865000Y122500D01*
X871000Y113500D01*
X875000Y103000D01*
X877000Y91000D01*
Y79000D01*
X875000Y67000D01*
X871000Y56500D01*
X865000Y47500D01*
X858000Y41500D01*
X850000Y40000D01*
G01X920000Y130000D02*
Y40000D01*
G01X897000Y130000D02*
X943000D01*
G01X1890000Y40000D02*
X1850000D01*
Y130000D01*
X1890000D01*
G01X1874000Y86500D02*
X1850000D01*
G01X1917000Y40000D02*
Y130000D01*
X1963000Y40000D01*
Y130000D01*
G01X2010000Y4650000D02*
Y4740000D01*
X2035000D01*
X2043000Y4735500D01*
X2048000Y4729500D01*
X2050000Y4717500D01*
X2048000Y4705500D01*
X2042000Y4698000D01*
X2035000Y4693500D01*
X2010000D01*
G01X2035000D02*
X2050000Y4650000D01*
G01X2079000D02*
X2121000Y4740000D01*
G01X2079000D02*
X2121000Y4650000D01*
G01X2210000Y4740000D02*
Y4650000D01*
G01X2187000Y4740000D02*
X2233000D01*
G01X2259000Y4650000D02*
X2301000Y4740000D01*
G01X2259000D02*
X2301000Y4650000D01*
G01X2558000Y4890000D02*
Y4980000D01*
G01X2596000D02*
X2558000Y4924500D01*
G01X2602000Y4890000D02*
X2575000Y4950000D01*
G01X2670000Y4890000D02*
X2630000D01*
Y4980000D01*
X2670000D01*
G01X2654000Y4936500D02*
X2630000D01*
G01X2720000Y4890000D02*
Y4930500D01*
X2700000Y4980000D01*
G01X2740000D02*
X2720000Y4930500D01*
G01X2771000Y4965000D02*
X2777000Y4974000D01*
X2784000Y4978500D01*
X2792000Y4980000D01*
X2802000Y4977000D01*
X2809000Y4969500D01*
X2811000Y4960500D01*
X2810000Y4951500D01*
X2806000Y4944000D01*
X2786000Y4929000D01*
X2777000Y4918500D01*
X2771000Y4903500D01*
X2769000Y4890000D01*
X2811000D01*
G01X3748000D02*
Y4980000D01*
G01X3786000D02*
X3748000Y4924500D01*
G01X3792000Y4890000D02*
X3765000Y4950000D01*
G01X3860000Y4890000D02*
X3820000D01*
Y4980000D01*
X3860000D01*
G01X3844000Y4936500D02*
X3820000D01*
G01X3910000Y4890000D02*
Y4930500D01*
X3890000Y4980000D01*
G01X3930000D02*
X3910000Y4930500D01*
G01X3980000Y4890000D02*
Y4980000D01*
X3968000Y4962000D01*
G01Y4890000D02*
X3992000D01*
G01X4518000Y4278000D02*
X4524000Y4267500D01*
X4532000Y4261500D01*
X4541000Y4260000D01*
X4549000Y4261500D01*
X4557000Y4269000D01*
X4562000Y4278000D01*
X4563000Y4287000D01*
X4561000Y4297500D01*
X4554000Y4305000D01*
X4547000Y4308000D01*
X4538000D01*
G01X4547000D02*
X4553000Y4312500D01*
X4558000Y4320000D01*
X4560000Y4329000D01*
X4558000Y4338000D01*
X4553000Y4345500D01*
X4544000Y4350000D01*
X4535000Y4348500D01*
X4526000Y4342500D01*
G01X4585000Y4350000D02*
X4610000Y4260000D01*
X4635000Y4350000D01*
G01X4658000Y4278000D02*
X4664000Y4267500D01*
X4672000Y4261500D01*
X4681000Y4260000D01*
X4689000Y4261500D01*
X4697000Y4269000D01*
X4702000Y4278000D01*
X4703000Y4287000D01*
X4701000Y4297500D01*
X4694000Y4305000D01*
X4687000Y4308000D01*
X4678000D01*
G01X4687000D02*
X4693000Y4312500D01*
X4698000Y4320000D01*
X4700000Y4329000D01*
X4698000Y4338000D01*
X4693000Y4345500D01*
X4684000Y4350000D01*
X4675000Y4348500D01*
X4666000Y4342500D01*
G01X4850000Y5240000D02*
Y5150000D01*
X4890000D01*
G01X4960000D02*
X4920000D01*
Y5240000D01*
X4960000D01*
G01X4944000Y5196500D02*
X4920000D01*
G01X4988000Y5150000D02*
Y5240000D01*
X5008000D01*
X5016000Y5235500D01*
X5022000Y5229500D01*
X5027000Y5220500D01*
X5031000Y5210000D01*
X5032000Y5195000D01*
X5031000Y5180000D01*
X5027000Y5169500D01*
X5022000Y5160500D01*
X5016000Y5154500D01*
X5008000Y5150000D01*
X4988000D01*
G01X8094000Y340000D02*
Y430000D01*
X8120000Y355000D01*
X8146000Y430000D01*
Y340000D01*
G01X8169000D02*
Y430000D01*
G01X8211000D02*
Y340000D01*
G01Y385000D02*
X8169000D01*
G01X8272000Y340000D02*
Y430000D01*
X8235000Y365500D01*
X8285000D01*
G01X8094000Y5020000D02*
Y5110000D01*
X8120000Y5035000D01*
X8146000Y5110000D01*
Y5020000D01*
G01X8169000D02*
Y5110000D01*
G01X8211000D02*
Y5020000D01*
G01Y5065000D02*
X8169000D01*
G01X8241000Y5095000D02*
X8247000Y5104000D01*
X8254000Y5108500D01*
X8262000Y5110000D01*
X8272000Y5107000D01*
X8279000Y5099500D01*
X8281000Y5090500D01*
X8280000Y5081500D01*
X8276000Y5074000D01*
X8256000Y5059000D01*
X8247000Y5048500D01*
X8241000Y5033500D01*
X8239000Y5020000D01*
X8281000D01*
M02*
