G04 ================== begin FILE IDENTIFICATION RECORD ==================*
G04 Layout Name:  HY_SP32_AIRQ_V10_260326.brd*
G04 Film Name:    SolderMask_Top*
G04 File Format:  Gerber RS274X*
G04 File Origin:  Cadence Allegro 25.1-S020*
G04 Origin Date:  Wed Apr  1 10:16:44 2026*
G04 *
G04 Layer:  PIN/SOLDERMASK_TOP*
G04 Layer:  PACKAGE GEOMETRY/SOLDERMASK_TOP*
G04 Layer:  BOARD GEOMETRY/SOLDERMASK_TOP*
G04 *
G04 Offset:    (0.0000 0.0000)*
G04 Mirror:    No*
G04 Mode:      Positive*
G04 Rotation:  0*
G04 FullContactRelief:  No*
G04 UndefLineWidth:     0.1524*
G04 ================== end FILE IDENTIFICATION RECORD ====================*
%FSLAX55Y55*MOMM*%
%IR0*IPPOS*OFA0.00000B0.00000*MIA0B0*SFA1.00000B1.00000*%
%ADD23R,.4X1.3*%
%ADD45R,.9X1.*%
%ADD24R,.7X1.1*%
%ADD44R,1.6X.4*%
%ADD32R,1.2X.7*%
%ADD17R,1.X.9*%
%ADD31R,1.7X.4*%
%ADD34C,.85*%
%ADD13O,2.2X1.1*%
%ADD25R,1.3X1.1*%
%ADD11O,1.7X1.1*%
%ADD28R,1.6X1.*%
%ADD35R,1.X1.7*%
%ADD12R,1.X1.6*%
%ADD30R,1.5X1.3*%
%ADD20R,1.6X1.1*%
%ADD33R,1.1X2.8*%
%ADD39C,1.1*%
%ADD36R,.8X.4*%
%ADD18R,.5X.7*%
%ADD43R,3.15X3.15*%
%ADD19R,.6X.7*%
%ADD42C,1.4*%
%ADD15R,1.7X2.8*%
%ADD14R,.55X.6*%
%ADD10C,7.*%
%ADD27R,.65X.6*%
%ADD22R,.6X.55*%
%ADD38R,1.1X1.1*%
%ADD26R,.9X.8*%
%ADD16R,.6X.65*%
%ADD40C,1.9*%
%ADD41R,1.4X1.4*%
%ADD29C,1.75*%
%ADD37R,1.9X1.9*%
%ADD21R,3.9X3.9*%
%LPD*%
G75*
G54D10*
X360000Y360000D03*
Y5040000D03*
X8140000Y360000D03*
Y5040000D03*
G54D20*
X960000Y4558400D03*
Y4781600D03*
G54D11*
X258000Y3748000D03*
Y4612000D03*
G54D21*
X1531000Y2550000D03*
G54D30*
X2630000Y5090000D03*
X3070000D03*
X3820000D03*
X4260000D03*
G54D12*
X759000Y1820000D03*
Y3580000D03*
X1140000Y1820000D03*
X1013000D03*
X886000D03*
Y3580000D03*
X1013000D03*
X1140000D03*
X1521000Y1820000D03*
X1394000D03*
X1267000D03*
Y3580000D03*
X1394000D03*
X1521000D03*
X1902000Y1820000D03*
X1775000D03*
X1648000D03*
Y3580000D03*
X1775000D03*
X1902000D03*
X2283000Y1820000D03*
X2156000D03*
X2029000D03*
Y3580000D03*
X2156000D03*
X2283000D03*
X2410000Y1820000D03*
Y3580000D03*
G54D40*
X6674000Y1230000D03*
X7182000D03*
X6928000D03*
G54D22*
X1530000Y3927500D03*
Y3832500D03*
X1790000Y1157500D03*
Y1062500D03*
X1900000Y3927500D03*
Y3832500D03*
X1880000Y5112500D03*
Y5207500D03*
X2060000Y4927500D03*
Y4832500D03*
X2250000Y4927500D03*
Y4832500D03*
X3180000Y4357500D03*
Y4262500D03*
X3300000D03*
Y4357500D03*
X4750000Y4912500D03*
Y5007500D03*
X6818780Y4807500D03*
Y4712500D03*
X6940000Y4807500D03*
Y4712500D03*
X8090000Y1572500D03*
Y1667500D03*
X7880000Y1572500D03*
Y1667500D03*
G54D13*
X676000Y3748000D03*
Y4612000D03*
G54D31*
X2980000Y485000D03*
Y550000D03*
Y615000D03*
Y680000D03*
Y745000D03*
Y810000D03*
Y875000D03*
X3540000D03*
Y810000D03*
Y745000D03*
Y680000D03*
Y615000D03*
Y550000D03*
Y485000D03*
G54D41*
X6885000Y1845000D03*
G54D14*
X422500Y4060000D03*
X517500D03*
X422500Y4360000D03*
X517500D03*
X2747500Y790000D03*
X2652500D03*
X2747500Y670000D03*
X2652500D03*
X3752500Y490000D03*
X3847500D03*
X3752500Y790000D03*
X3847500D03*
X3752500Y670000D03*
X3847500D03*
G54D32*
X3180000Y4515000D03*
Y4705000D03*
X3440000Y4515000D03*
Y4705000D03*
Y4610000D03*
G54D23*
X1530000Y4545000D03*
X1480000D03*
X1430000D03*
X1380000D03*
X1330000D03*
Y5035000D03*
X1380000D03*
X1430000D03*
X1480000D03*
X1530000D03*
G54D15*
X1070000Y177000D03*
Y823000D03*
X1660000Y177000D03*
Y823000D03*
G54D42*
X7285000Y1845000D03*
X7085000D03*
Y4115000D03*
X7285000D03*
X7685000Y1845000D03*
X7485000D03*
Y4115000D03*
X7685000D03*
X8085000Y1845000D03*
X7885000D03*
Y4115000D03*
G54D33*
X3630000Y4610000D03*
X3890000D03*
G54D24*
X1890000Y4520000D03*
X1690000D03*
X1790000Y4760000D03*
G54D16*
X1070000Y1157500D03*
Y1062500D03*
X890000Y1482500D03*
Y1577500D03*
X1330000Y5277500D03*
Y5182500D03*
X1480000Y5277500D03*
Y5182500D03*
X1660000Y1157500D03*
Y1062500D03*
X1650000Y3927500D03*
Y3832500D03*
X1780000Y3927500D03*
Y3832500D03*
X5510000Y4692500D03*
Y4787500D03*
X6420000Y882500D03*
Y977500D03*
X6320000Y4807500D03*
Y4712500D03*
X6890000Y1572500D03*
Y1667500D03*
G54D43*
X7490000Y2220000D03*
Y3740000D03*
G54D25*
X1720000Y4960000D03*
Y5180000D03*
G54D34*
X4400000Y4310000D03*
G54D26*
X2250000Y5050000D03*
Y5190000D03*
X2060000Y5050000D03*
Y5190000D03*
X4750000Y5130000D03*
Y5270000D03*
G54D35*
X5380000Y5070000D03*
G54D17*
X1040000Y1420000D03*
Y1560000D03*
X1150000Y4550000D03*
Y4690000D03*
X2980000Y4540000D03*
Y4680000D03*
X4400000Y4540000D03*
X4058780D03*
X4230000D03*
X4400000Y4680000D03*
X4058780D03*
X4230000D03*
G54D44*
X7740000Y2405000D03*
Y2455000D03*
Y2505000D03*
Y2555000D03*
Y2605000D03*
Y2655000D03*
Y2705000D03*
Y2755000D03*
Y2805000D03*
Y2855000D03*
Y2905000D03*
Y2955000D03*
Y3005000D03*
Y3055000D03*
Y3105000D03*
Y3155000D03*
Y3205000D03*
Y3255000D03*
Y3305000D03*
Y3355000D03*
Y3405000D03*
Y3455000D03*
Y3505000D03*
Y3555000D03*
G54D27*
X2747500Y910000D03*
X2652500D03*
X3752500D03*
X3847500D03*
X4562500Y840000D03*
X4657500D03*
X5382500D03*
X5477500D03*
G54D18*
X1050000Y4120000D03*
Y4340000D03*
G54D36*
X5505000Y5145000D03*
Y5095000D03*
Y5045000D03*
Y4995000D03*
X5255000D03*
Y5045000D03*
Y5095000D03*
Y5145000D03*
G54D45*
X8330000Y3340000D03*
X8190000D03*
X8330000Y3170000D03*
X8190000D03*
G54D37*
X6420000Y1230000D03*
G54D19*
X1115000Y4120000D03*
X985000D03*
Y4340000D03*
X1115000D03*
X4630000Y4900000D03*
X4550000D03*
X4590000Y5020000D03*
X8210000Y3690000D03*
X8290000D03*
X8250000Y3570000D03*
G54D28*
X2540000Y2128500D03*
Y2001500D03*
Y2509500D03*
Y2382500D03*
Y2255500D03*
Y2890500D03*
Y2763500D03*
Y2636500D03*
Y3271500D03*
Y3144500D03*
Y3017500D03*
Y3398500D03*
G54D29*
X2475000Y5290000D03*
X3225000D03*
X3665000D03*
X4415000D03*
G54D38*
X6322500Y5040000D03*
G54D39*
X6447500D03*
X6822500D03*
X6697500D03*
X6572500D03*
X7197500D03*
X7072500D03*
X6947500D03*
M02*
