M48
METRIC,TZ
T01C.254
T02C.4572
T03C1.
T04C1.5
T05C1.6
T06C1.7
;LEADER: 12 
;HEADER: 
;CODE  : ASCII 
;FILE  : HY_DP100_PWER_V10_231227-1-2.drl for board G:/github/MBED-TOOLS/HARDWARE/HY_DP100_PWER_V10_231227/PCB/#Taaaabf12588.tmp ... layers TOP and BOTTOM
;T01 Holesize 1. = 0.254000 Tolerance = +0.000000/-0.000000 PLATED MM Quantity = 238
;T02 Holesize 2. = 0.457200 Tolerance = +0.000000/-0.000000 PLATED MM Quantity = 41
;T03 Holesize 3. = 1.000000 Tolerance = +0.000000/-0.000000 PLATED MM Quantity = 2
;T04 Holesize 4. = 1.500000 Tolerance = +0.000000/-0.000000 PLATED MM Quantity = 2
;T05 Holesize 5. = 1.600000 Tolerance = +0.000000/-0.000000 PLATED MM Quantity = 3
;T06 Holesize 6. = 1.700000 Tolerance = +0.000000/-0.000000 PLATED MM Quantity = 2
%
G90
T01
X80000Y250000
X79970Y710960
X79970Y1210960
X320000Y470000
X319970Y710960
X319970Y1210960
X509040Y69970
X509040Y369970
X1009040Y69970
X1009040Y369970
X1509040Y69970
X1509040Y369970
X2009040Y69970
X2009040Y369970
X2509040Y69970
X2509040Y369970
X3009040Y69970
X3009040Y369970
X3509040Y69970
X3509040Y369970
X4009040Y69970
X4009040Y369970
X4509040Y69970
X4509040Y369970
X5009040Y69970
X5009040Y369970
X5509040Y69970
X5509040Y369970
X6009040Y69970
X6009040Y369970
X6509040Y69970
X6509040Y369970
X7009040Y69970
X7009040Y369970
X7509040Y69970
X7509040Y369970
X8009040Y69970
X8009040Y369970
X8329040Y509970
X8329040Y809970
X8329040Y1099970
X8329040Y1399970
X8540000Y1020000
X8540000Y1130000
X8540000Y1250000
X8540000Y1360000
X8663500Y1020000
X8663500Y1130000
X8663500Y1250000
X8663500Y1360000
X8840000Y600000
X8840000Y700000
X8970000Y960000
X9030000Y600000
X9070000Y960000
X9170000Y960000
X9270000Y960000
X9380000Y1560000
X9450000Y1560000
X9520000Y1560000
X9590000Y1560000
X9620000Y1430000
X9620000Y1500000
X9646200Y796200
X9650000Y600000
X9650000Y700000
X9760000Y600000
X9760000Y700000
X9910000Y150000
X9910000Y210000
X9910000Y270000
X9920000Y740000
X9970000Y150000
X9970000Y210000
X9970000Y270000
X10033500Y150000
X10033500Y210000
X10033500Y270000
X10210000Y235000
X10440000Y90000
X10440000Y220000
X10440000Y460000
X10440000Y990000
X10440960Y340030
X10450000Y1230000
X10450000Y1330000
X10530000Y1230000
X10530000Y1330000
X10610000Y1230000
X10610000Y1330000
X10655000Y1055000
X10740000Y1470000
X10940000Y140000
X10940960Y340030
X11040000Y1570000
X11349970Y640960
X11349970Y1140960
X11350000Y130000
X11350000Y330000
X11390000Y3100000
X11390000Y2950000
X11390000Y2790000
X11390000Y2640000
X11390000Y2420000
X11149040Y2419970
X11050000Y2210000
X11040000Y1860000
X11000000Y3450000
X11000000Y3260000
X11000000Y3030000
X10849040Y2419970
X10849040Y2109970
X10849040Y1859970
X10810000Y3030000
X10590000Y3070000
X10590000Y2900000
X10590000Y2710000
X10529040Y2419970
X10529040Y2109970
X10529040Y1859970
X10410000Y3070000
X10229040Y2419970
X10229040Y2109970
X10229040Y1859970
X10150000Y3480000
X10150000Y3040000
X10150000Y2960000
X10150000Y2890000
X9909040Y3119970
X9909040Y2819970
X9899040Y3459970
X9670000Y2010000
X9609040Y3119970
X9609040Y2819970
X9599040Y3459970
X9599040Y2559970
X9599040Y2259970
X9570000Y2110000
X9570000Y2010000
X9470000Y2110000
X9470000Y2010000
X9370000Y2110000
X9370000Y2010000
X9289040Y3119970
X9289040Y2819970
X9289040Y2559970
X9289040Y2259970
X9270000Y2110000
X9270000Y2010000
X9160000Y2110000
X9160000Y2010000
X9060000Y2110000
X9060000Y2010000
X9040000Y3060000
X9020000Y2820000
X9019040Y2549970
X9019040Y2249970
X8970000Y1920000
X8970000Y1820000
X8260000Y2680000
X8260000Y2520000
X8260000Y2360000
X319970Y3450960
X319970Y2950960
X319970Y2450960
X79970Y3450960
X79970Y2950960
X79970Y2450960
X79970Y3950960
X79970Y5280960
X319970Y3950960
X319970Y5280960
X8310000Y5120000
X8480000Y5120000
X8740000Y3810000
X8779040Y4829970
X8779040Y5129970
X8789040Y4189970
X8789040Y4489970
X9090000Y4200000
X9430000Y4200000
X10555000Y5285000
X10750000Y3750000
X11000000Y3630000
X11029970Y4370960
X11029970Y4870960
X11039970Y4060960
X11190000Y3740000
X11379970Y4370960
X11379970Y4870960
X11390000Y3590000
X11390000Y3740000
X11389970Y4060960
X11300000Y6370000
X11299970Y5870960
X11299970Y5370960
X10469040Y6409970
X9969040Y6409970
X9199040Y6419970
X9199040Y6119970
X8699040Y6419970
X8699040Y6119970
X8069040Y6429970
X8069040Y6129970
X7569040Y6429970
X7569040Y6129970
X7069040Y6429970
X7069040Y6129970
X6569040Y6429970
X6569040Y6129970
X6069040Y6429970
X6069040Y6129970
X5569040Y6429970
X5569040Y6129970
X5069040Y6429970
X5069040Y6129970
X4569040Y6429970
X4569040Y6129970
X4069040Y6429970
X4069040Y6129970
X3569040Y6429970
X3569040Y6129970
X3069040Y6429970
X3069040Y6129970
X2569040Y6429970
X2569040Y6129970
X2069040Y6429970
X2069040Y6129970
X1569040Y6429970
X1569040Y6129970
X1069040Y6429970
X1069040Y6129970
X569040Y6429970
X569040Y6129970
X320000Y6060000
X319970Y5780960
X80000Y6270000
X79970Y5780960
T02
X120000Y1660000
X290000Y1660000
X120000Y1830000
X290000Y1830000
X120000Y2000000
X290000Y2000000
X120000Y2170000
X290000Y2170000
X120000Y4350000
X290000Y4350000
X120000Y4520000
X290000Y4520000
X120000Y4690000
X290000Y4690000
X120000Y4860000
X290000Y4860000
X8480000Y4870000
X8310000Y4870000
X8480000Y4700000
X8310000Y4700000
X8480000Y4530000
X8310000Y4530000
X8480000Y4350000
X8310000Y4350000
X8490000Y2140000
X8320000Y2140000
X8490000Y1970000
X8320000Y1970000
X8490000Y1800000
X8320000Y1800000
X8490000Y1620000
X8320000Y1620000
X9850000Y960000
X10020000Y960000
X9850000Y1130000
X10020000Y1130000
X9850000Y1300000
X10020000Y1300000
X10190000Y1300000
X10190000Y1130000
X10190000Y960000
T03
X8325000Y160000
X9075000Y160000
T04
X8235000Y6347000
X9565000Y6347000
T05
X8420000Y5425000
X8900000Y5425000
X9380000Y5425000
T06
X9906000Y5750000
X10414000Y5750000
M30
