G04 ================== begin FILE IDENTIFICATION RECORD ==================*
G04 Layout Name:  HY_DP100_PWER_V10_231227.brd*
G04 Film Name:    PasteMask_Top*
G04 File Format:  Gerber RS274X*
G04 File Origin:  Cadence Allegro 17.2-S079*
G04 Origin Date:  Wed Jan 24 11:36:02 2024*
G04 *
G04 Layer:  PIN/PASTEMASK_TOP*
G04 Layer:  PACKAGE GEOMETRY/PASTEMASK_TOP*
G04 *
G04 Offset:    (0.0000 0.0000)*
G04 Mirror:    No*
G04 Mode:      Positive*
G04 Rotation:  0*
G04 FullContactRelief:  No*
G04 UndefLineWidth:     0.1524*
G04 ================== end FILE IDENTIFICATION RECORD ====================*
%FSLAX55Y55*MOMM*%
%IR0*IPPOS*OFA0.00000B0.00000*MIA0B0*SFA1.00000B1.00000*%
%ADD34R,1.2X.3*%
%ADD33R,1.2X.6*%
%AMMACRO17*
4,1,28,-1.14,1.225,
-.725,1.225,
-.725,1.525,
-.295,1.525,
-.295,1.225,
.84,1.225,
.84,1.175,
1.14,1.175,
1.14,.775,
.84,.775,
.84,.525,
1.14,.525,
1.14,.125,
.84,.125,
.84,-.125,
1.14,-.125,
1.14,-.525,
.84,-.525,
.84,-.775,
1.14,-.775,
1.14,-1.175,
.84,-1.175,
.84,-1.225,
-.295,-1.225,
-.295,-1.525,
-.725,-1.525,
-.725,-1.225,
-1.14,-1.225,
-1.14,1.225,
0.0*
%
%ADD17MACRO17*%
%ADD35R,1.5X.45*%
%ADD12R,.8X.8*%
%ADD13R,1.2X1.*%
%ADD37R,3.1X1.1*%
%ADD26R,1.1X3.1*%
%ADD11R,1.4X1.2*%
%ADD10R,2.X5.*%
%ADD32R,5.X5.*%
%ADD28R,1.4X1.5*%
%ADD22R,2.5X2.2*%
%ADD20R,1.7X2.2*%
%ADD21R,3.5X2.5*%
%ADD14R,1.8X3.2*%
%ADD31R,.5X.6*%
%ADD19R,1.8X1.6*%
%ADD15R,2.5X3.5*%
%ADD16R,.6X.5*%
%ADD36R,.7X.6*%
%ADD23R,4.5X4.5*%
%AMMACRO29*
4,1,28,-1.225,-1.14,
-1.225,-.725,
-1.525,-.725,
-1.525,-.295,
-1.225,-.295,
-1.225,.84,
-1.175,.84,
-1.175,1.14,
-.775,1.14,
-.775,.84,
-.525,.84,
-.525,1.14,
-.125,1.14,
-.125,.84,
.125,.84,
.125,1.14,
.525,1.14,
.525,.84,
.775,.84,
.775,1.14,
1.175,1.14,
1.175,.84,
1.225,.84,
1.225,-.295,
1.525,-.295,
1.525,-.725,
1.225,-.725,
1.225,-1.14,
-1.225,-1.14,
0.0*
%
%ADD29MACRO29*%
%ADD25R,.8X.25*%
%ADD24R,.25X.8*%
%ADD18R,.8X.35*%
%ADD30R,.35X.8*%
%AMMACRO27*
4,1,20,2.335,-2.3,
2.335,2.3,
-1.785,2.3,
-1.785,2.155,
-2.335,2.155,
-2.335,1.655,
-1.785,1.655,
-1.785,.885,
-2.335,.885,
-2.335,.385,
-1.785,.385,
-1.785,-.385,
-2.335,-.385,
-2.335,-.885,
-1.785,-.885,
-1.785,-1.655,
-2.335,-1.655,
-2.335,-2.155,
-1.785,-2.155,
-1.785,-2.3,
2.335,-2.3,
0.0*
%
%ADD27MACRO27*%
%LPD*%
G75*
G54D10*
X210000Y1900000D03*
Y4600000D03*
X8390000Y1900000D03*
Y4600000D03*
G54D20*
X9415000Y220000D03*
G54D11*
X8480000Y360000D03*
X8920000D03*
G54D30*
X10107500D03*
X10042500D03*
X9977500D03*
X9912500D03*
G54D21*
X9180000Y4000000D03*
Y5040000D03*
G54D12*
X8363800Y2360000D03*
Y2520000D03*
Y2680000D03*
X8516200Y2360000D03*
Y2520000D03*
Y2680000D03*
X9400000Y643800D03*
Y796200D03*
X9550000Y643800D03*
Y796200D03*
X11163800Y1710000D03*
Y1560000D03*
Y1860000D03*
Y2210000D03*
Y2010000D03*
Y5040000D03*
X11316200Y1710000D03*
Y1560000D03*
Y1860000D03*
Y2210000D03*
Y2010000D03*
Y5040000D03*
G54D31*
X10245000Y2650000D03*
X10155000D03*
Y2810000D03*
X10245000D03*
X10475000Y1450000D03*
X10565000D03*
X10475000Y1570000D03*
X10565000D03*
X10475000Y1690000D03*
X10565000D03*
X10715000Y2570000D03*
X10625000D03*
X10715000Y5040000D03*
X10765000Y6210000D03*
Y6330000D03*
X11215000Y2570000D03*
X11125000D03*
X11215000Y2690000D03*
X11125000D03*
X10935000Y2570000D03*
X10845000D03*
X11215000Y2810000D03*
X11125000D03*
X11215000Y3050000D03*
X11125000D03*
X11215000Y2930000D03*
X11125000D03*
X10805000Y5040000D03*
X10915000D03*
X11005000D03*
X10855000Y6210000D03*
Y6330000D03*
G54D22*
X9670000Y220000D03*
G54D13*
X8810000Y838400D03*
Y1041600D03*
X9310000Y1668400D03*
Y1871600D03*
X9120000Y1668400D03*
Y1871600D03*
X9510000Y1668400D03*
Y1871600D03*
X10300000Y408400D03*
Y611600D03*
G54D23*
X10020000Y1130000D03*
G54D14*
X8820000Y1350000D03*
X9460000D03*
X9765050Y5330000D03*
X10254950D03*
X10680000Y3350000D03*
X11320000D03*
G54D32*
X10220000Y4845000D03*
G54D24*
X9795000Y830000D03*
Y1430000D03*
X10245000Y830000D03*
X10195000D03*
X10145000D03*
X10095000D03*
X10045000D03*
X9995000D03*
X9945000D03*
X9895000D03*
X9845000D03*
Y1430000D03*
X9895000D03*
X9945000D03*
X9995000D03*
X10045000D03*
X10095000D03*
X10145000D03*
X10195000D03*
X10245000D03*
G54D15*
X8800000Y2520000D03*
X9840000D03*
G54D33*
X10770000Y640000D03*
Y560000D03*
Y1200000D03*
Y1120000D03*
Y5380000D03*
Y5300000D03*
Y5940000D03*
Y5860000D03*
G54D25*
X9720000Y905000D03*
Y955000D03*
Y1005000D03*
Y1055000D03*
Y1105000D03*
Y1155000D03*
Y1205000D03*
Y1255000D03*
Y1305000D03*
Y1355000D03*
X10320000Y955000D03*
Y905000D03*
Y1355000D03*
Y1305000D03*
Y1255000D03*
Y1205000D03*
Y1155000D03*
Y1105000D03*
Y1055000D03*
Y1005000D03*
G54D16*
X8760000Y3135000D03*
Y3225000D03*
X9000000Y715000D03*
Y805000D03*
X8950000Y1735000D03*
Y1645000D03*
X9040000Y3220000D03*
Y3140000D03*
X8920000Y3180000D03*
X9400000Y985000D03*
Y1075000D03*
X9810000Y1725000D03*
Y1635000D03*
X9670000Y1835000D03*
Y1925000D03*
Y1635000D03*
Y1725000D03*
X10300000Y235000D03*
Y145000D03*
X10190000Y1635000D03*
Y1725000D03*
X10470000Y5195000D03*
Y5285000D03*
G54D34*
X10770000Y955000D03*
Y905000D03*
Y855000D03*
Y805000D03*
Y755000D03*
Y705000D03*
Y1055000D03*
Y1005000D03*
Y5645000D03*
Y5595000D03*
Y5545000D03*
Y5495000D03*
Y5445000D03*
Y5795000D03*
Y5745000D03*
Y5695000D03*
G54D26*
X9460000Y3250000D03*
Y3730000D03*
X10160000Y3250000D03*
Y3730000D03*
G54D35*
X10430000Y2712500D03*
Y2777500D03*
Y2842500D03*
Y2907500D03*
X10910000Y2842500D03*
Y2777500D03*
Y2712500D03*
Y2907500D03*
G54D17*
X8951000Y3490000D03*
G54D27*
X9996500Y4230000D03*
G54D18*
X8750000Y3392500D03*
Y3457500D03*
Y3522500D03*
Y3587500D03*
G54D36*
X10362500Y4166500D03*
Y4039500D03*
Y4420500D03*
Y4293500D03*
G54D19*
X9190000Y480000D03*
Y760000D03*
G54D28*
X9835000Y4746000D03*
Y4954000D03*
G54D37*
X10760000Y3910000D03*
Y4610000D03*
X11240000Y3910000D03*
Y4610000D03*
G54D29*
X10010000Y561000D03*
M02*
