M48
METRIC,TZ
T01C.3048
T02C.8
T03C1.8
;LEADER: 12 
;HEADER: 
;CODE  : ASCII 
;FILE  : HY_IP6518_TEST_V10A-1-2.drl for board H:/MBED-TOOLS/HARDWARE/HY_IP6518_TEST_V10A/PCB/#Taaaaek06776.tmp ... layers TOP and BOTTOM
;T01 Holesize 1. = 0.304800 Tolerance = +0.000000/-0.000000 PLATED MM Quantity = 209
;T02 Holesize 2. = 0.800000 Tolerance = +0.000000/-0.000000 PLATED MM Quantity = 10
;T03 Holesize 3. = 1.800000 Tolerance = +0.000000/-0.000000 PLATED MM Quantity = 2
%
G90
T01
X414190Y681290
X814190Y281290
X814190Y681290
X1214190Y281290
X1214190Y681290
X1614190Y281290
X1614190Y681290
X2014190Y281290
X2014190Y681290
X2325340Y204840
X2725340Y204840
X3125340Y204840
X3525340Y204840
X3925340Y204840
X4325340Y204840
X4725340Y204840
X5169150Y393410
X5569150Y393410
X5969150Y393410
X6369150Y393410
X6825500Y1374400
X6825500Y974400
X4664840Y1274660
X4545340Y824840
X4340740Y1218100
X4170740Y1218100
X4145340Y824840
X3795000Y1520000
X3795000Y1440000
X3795000Y1360000
X3745340Y824840
X3695000Y1520000
X3695000Y1440000
X3695000Y1360000
X3595000Y1520000
X3370000Y1310000
X3370000Y1230000
X3370000Y1150000
X3345340Y824840
X3290000Y1310000
X3290000Y1230000
X3290000Y1150000
X3210000Y1310000
X3210000Y1230000
X3210000Y1150000
X2905000Y1520000
X2905000Y1440000
X2905000Y1360000
X2905000Y1280000
X2805000Y1520000
X2805000Y1440000
X2805000Y1360000
X2805000Y1280000
X2014190Y1081290
X1614190Y1081290
X1214190Y1081290
X814190Y1081290
X414190Y1081290
X3470740Y1808100
X3595000Y1600000
X3640740Y1808100
X3695000Y1600000
X3795000Y1600000
X3810740Y1808100
X3980740Y1808100
X4111900Y1610740
X4111900Y1780740
X4221900Y1610740
X4221900Y1780740
X4331900Y1610740
X4331900Y1780740
X4664840Y1674660
X5194840Y1874660
X5194840Y2274660
X6184840Y1724660
X6184840Y2124660
X6825500Y1774400
X6825500Y2174400
X6825500Y2574400
X3279260Y3001900
X3279260Y2821900
X3279260Y2601900
X3279260Y2421900
X2839260Y2991900
X2839260Y2811900
X2839260Y2591900
X2839260Y2411900
X2439260Y2991900
X2439260Y2811900
X2439260Y2591900
X2439260Y2411900
X669260Y2791900
X269260Y2791900
X269260Y3191900
X269260Y3591900
X669260Y3191900
X669260Y3591900
X2439260Y3211900
X2439260Y3391900
X2790000Y3800000
X2839260Y3211900
X2839260Y3391900
X2870000Y3800000
X3150000Y3690000
X3150000Y3770000
X3230000Y3690000
X3230000Y3770000
X3279260Y3221900
X3310000Y3690000
X3310000Y3770000
X4219260Y3741900
X4551900Y3640740
X4631900Y3200740
X4771900Y3640740
X4851900Y3200740
X4951900Y3640740
X5031900Y3200740
X5171900Y3640740
X5251900Y3200740
X6081410Y3155670
X6081410Y3555670
X6481410Y3155670
X6481410Y3555670
X6864840Y4224660
X6564840Y4234660
X6080000Y4120000
X6080000Y4040000
X6080000Y3960000
X6000000Y4120000
X6000000Y4040000
X6000000Y3960000
X5920000Y4120000
X5920000Y4040000
X5920000Y3960000
X5790000Y4050000
X5490000Y4050000
X5161900Y4360740
X5161900Y4130740
X5161900Y3890740
X4941900Y4360740
X4941900Y4130740
X4941900Y3890740
X4761900Y4360740
X4761900Y4130740
X4761900Y3890740
X4541900Y4360740
X4541900Y4130740
X4541900Y3890740
X4221900Y4310740
X4221900Y4140740
X4219260Y3961900
X4001900Y4310740
X4001900Y4140740
X3821900Y4310740
X3630000Y4080000
X3630000Y4000000
X3601900Y4310740
X3550000Y4080000
X3550000Y4000000
X3470000Y4080000
X3470000Y4000000
X3310000Y3850000
X3230000Y3850000
X3150000Y3850000
X2870000Y4040000
X2870000Y3960000
X2870000Y3880000
X2790000Y4040000
X2790000Y3960000
X2790000Y3880000
X2019260Y4541900
X1619260Y4541900
X1219260Y4541900
X819260Y4541900
X419260Y4541900
X419260Y4941900
X819260Y4941900
X1219260Y4941900
X1619260Y4941900
X2019260Y4941900
X2499260Y5311900
X2899260Y5311900
X3299260Y5311900
X4341900Y4780740
X4341900Y5180740
X4521900Y4780740
X4521900Y5180740
X5850000Y4650000
X5850000Y4730000
X5930000Y4650000
X5930000Y4730000
X6010000Y4650000
X6010000Y4730000
X6090000Y4650000
X6564840Y4634660
X6864840Y4624660
X6366520Y5342040
X5966520Y5342040
X5566520Y5342040
X5166520Y5342040
X4766520Y5342040
X3299260Y5711900
X2899260Y5711900
X2499260Y5711900
X2019260Y5341900
X1619260Y5341900
X1219260Y5341900
X819260Y5341900
X419260Y5341900
T02
X1910000Y2391000
X2210000Y2391000
X3630000Y2910000
X3630000Y3210000
X4190000Y2910000
X4190000Y3210000
X3620000Y5440000
X3620000Y5740000
X4180000Y5440000
X4180000Y5740000
T03
X1060000Y3326000
X1060000Y3834000
M30
