G04 ================== begin FILE IDENTIFICATION RECORD ==================*
G04 Layout Name:  HY_IP6518_TEST_V10A.brd*
G04 Film Name:    PasteMask_Top*
G04 File Format:  Gerber RS274X*
G04 File Origin:  Cadence Allegro 17.2-S045*
G04 Origin Date:  Mon Apr 22 16:18:40 2019*
G04 *
G04 Layer:  BOARD GEOMETRY/OUTLINE*
G04 Layer:  PIN/PASTEMASK_TOP*
G04 Layer:  PACKAGE GEOMETRY/PASTEMASK_TOP*
G04 *
G04 Offset:    (0.0000 0.0000)*
G04 Mirror:    No*
G04 Mode:      Positive*
G04 Rotation:  0*
G04 FullContactRelief:  No*
G04 UndefLineWidth:     0.1524*
G04 ================== end FILE IDENTIFICATION RECORD ====================*
%FSLAX55Y55*MOMM*%
%IR0*IPPOS*OFA0.00000B0.00000*MIA0B0*SFA1.00000B1.00000*%
%ADD21R,1.2X.3*%
%ADD20R,1.2X.6*%
%ADD11R,.9X1.3*%
%ADD10R,.8X.8*%
%ADD19R,3.X1.2*%
%ADD16R,2.4X2.4*%
%ADD17R,1.8X3.2*%
%ADD13R,2.5X3.5*%
%ADD12R,1.6X1.8*%
%ADD15R,.8X.25*%
%ADD14R,.25X.8*%
%ADD18R,4.9X2.7*%
%ADD22C,.1*%
G75*
%LPD*%
G75*
G54D10*
X563800Y1500000D03*
X716200D03*
X2676200Y950000D03*
X2523800D03*
X2510000Y1663800D03*
Y1816200D03*
X2666200Y3535000D03*
X2513800D03*
X2500000Y4183800D03*
Y4336200D03*
X3723800Y3730000D03*
Y3535000D03*
X3913800Y980000D03*
X4066200D03*
X3913800Y1180000D03*
X4066200D03*
X3876200Y3730000D03*
Y3535000D03*
X5053800Y2460000D03*
X5206200D03*
X5043800Y5000000D03*
X5196200D03*
G54D11*
X410000Y1500000D03*
X210000D03*
G54D20*
X6260000Y4160000D03*
Y4080000D03*
Y4720000D03*
Y4640000D03*
G54D12*
X2200000Y1700000D03*
X1920000D03*
X2200000Y3040000D03*
X1920000D03*
X2650000Y1150000D03*
X2370000D03*
X2640000Y3730000D03*
X2360000D03*
X3770000Y3920000D03*
X3950000Y1400000D03*
X4230000D03*
X4300000Y2460000D03*
X4020000D03*
X4050000Y3920000D03*
X4290000Y5000000D03*
X4010000D03*
X4560000Y2460000D03*
X4840000D03*
X4560000Y5000000D03*
X4840000D03*
G54D21*
X6260000Y4275000D03*
Y4225000D03*
Y4575000D03*
Y4525000D03*
Y4475000D03*
Y4425000D03*
Y4375000D03*
Y4325000D03*
G54D22*
G01X7000000Y5740000D02*
Y260000D01*
G02X6740000Y0I-260000J0D01*
G01X260000D01*
G02X0Y260000I0J260000D01*
G01Y5740000D01*
G02X260000Y6000000I260000J0D01*
G01X6740000D01*
G02X7000000Y5740000I0J-260000D01*
G01X420000Y260000D02*
G03I-160000J0D01*
G01Y5740000D02*
G03I-160000J0D01*
G01X6080000Y1450000D02*
G03I-70000J0D01*
G01Y1950000D02*
G03I-70000J0D01*
G01X6900000Y260000D02*
G03I-160000J0D01*
G01X6452000Y4111000D02*
G03I-35000J0D01*
G01Y4689000D02*
G03I-35000J0D01*
G01X6900000Y5740000D02*
G03I-160000J0D01*
G54D13*
X2720000Y2099400D03*
X2710000Y4640000D03*
X3760000Y2099400D03*
X3750000Y4640000D03*
G54D14*
X3215000Y1030000D03*
X3165000D03*
Y1430000D03*
X3215000D03*
X3205000Y3575000D03*
X3155000D03*
X3105000D03*
Y3975000D03*
X3155000D03*
X3205000D03*
X3415000Y1030000D03*
X3365000D03*
X3315000D03*
X3265000D03*
Y1430000D03*
X3315000D03*
X3365000D03*
X3415000D03*
X3355000Y3575000D03*
X3305000D03*
X3255000D03*
Y3975000D03*
X3305000D03*
X3355000D03*
G54D15*
X3090000Y1105000D03*
Y1155000D03*
Y1205000D03*
Y1255000D03*
Y1305000D03*
Y1355000D03*
X3030000Y3650000D03*
Y3700000D03*
Y3750000D03*
Y3800000D03*
Y3850000D03*
Y3900000D03*
X3490000Y1155000D03*
Y1105000D03*
Y1355000D03*
Y1305000D03*
Y1255000D03*
Y1205000D03*
X3430000Y3750000D03*
Y3700000D03*
Y3650000D03*
Y3900000D03*
Y3850000D03*
Y3800000D03*
G54D16*
X3290000Y1230000D03*
X3230000Y3775000D03*
G54D17*
X4130000Y2099400D03*
X4120000Y4640000D03*
X4770000Y2099400D03*
X4760000Y4640000D03*
G54D18*
X5860000Y1002500D03*
Y2397500D03*
G54D19*
X5510000Y1350000D03*
Y1600000D03*
Y1800000D03*
Y2050000D03*
M02*
