G04 ================== begin FILE IDENTIFICATION RECORD ==================*
G04 Layout Name:  HY_IP6518_TEST_V10A.brd*
G04 Film Name:    SilkScreen_Bottom*
G04 File Format:  Gerber RS274X*
G04 File Origin:  Cadence Allegro 17.2-S045*
G04 Origin Date:  Mon Apr 22 16:18:40 2019*
G04 *
G04 Layer:  BOARD GEOMETRY/OUTLINE*
G04 Layer:  REF DES/SILKSCREEN_BOTTOM*
G04 Layer:  PACKAGE GEOMETRY/SILKSCREEN_BOTTOM*
G04 Layer:  BOARD GEOMETRY/SILKSCREEN_BOTTOM*
G04 *
G04 Offset:    (0.0000 0.0000)*
G04 Mirror:    No*
G04 Mode:      Positive*
G04 Rotation:  0*
G04 FullContactRelief:  No*
G04 UndefLineWidth:     0.1524*
G04 ================== end FILE IDENTIFICATION RECORD ====================*
%FSLAX55Y55*MOMM*%
%IR0*IPPOS*OFA0.00000B0.00000*MIA0B0*SFA1.00000B1.00000*%
%ADD10C,.1*%
%ADD11C,.2*%
%ADD12C,.1524*%
G75*
%LPD*%
G75*
G54D10*
G01X7000000Y5740000D02*
Y260000D01*
G02X6740000Y0I-260000J0D01*
G01X260000D01*
G02X0Y260000I0J260000D01*
G01Y5740000D01*
G02X260000Y6000000I260000J0D01*
G01X6740000D01*
G02X7000000Y5740000I0J-260000D01*
G01X420000Y260000D02*
G03I-160000J0D01*
G01Y5740000D02*
G03I-160000J0D01*
G01X6080000Y1450000D02*
G03I-70000J0D01*
G01Y1950000D02*
G03I-70000J0D01*
G01X6900000Y260000D02*
G03I-160000J0D01*
G01X6452000Y4111000D02*
G03I-35000J0D01*
G01Y4689000D02*
G03I-35000J0D01*
G01X6900000Y5740000D02*
G03I-160000J0D01*
G54D11*
G01X4260000Y640000D02*
Y70000D01*
X2390000D01*
Y640000D01*
X4260000D01*
G54D12*
G01X4163000Y470000D02*
Y560000D01*
X4117000Y470000D01*
Y560000D01*
G01X4095000Y470000D02*
X4070000Y560000D01*
X4045000Y470000D01*
G01X4054000Y501500D02*
X4086000D01*
G01X4026000Y470000D02*
Y560000D01*
X4000000Y485000D01*
X3974000Y560000D01*
Y470000D01*
G01X3910000D02*
X3950000D01*
Y560000D01*
X3910000D01*
G01X3926000Y516500D02*
X3950000D01*
G01X3860000Y467000D02*
X3862000Y468500D01*
Y471500D01*
X3860000Y473000D01*
X3858000Y471500D01*
Y468500D01*
X3860000Y467000D01*
G01Y507500D02*
X3862000Y509000D01*
Y512000D01*
X3860000Y513500D01*
X3858000Y512000D01*
Y509000D01*
X3860000Y507500D01*
G01X3811000Y470000D02*
Y560000D01*
G01X3769000D02*
Y470000D01*
G01Y515000D02*
X3811000D01*
G01X3720000Y470000D02*
Y510500D01*
X3740000Y560000D01*
G01X3700000D02*
X3720000Y510500D01*
G01X3680000Y440000D02*
X3620000D01*
G01X3592000Y560000D02*
X3568000D01*
G01X3580000D02*
Y470000D01*
G01X3592000D02*
X3568000D01*
G01X3530000D02*
Y560000D01*
X3506000D01*
X3498000Y555500D01*
X3492000Y545000D01*
X3490000Y533000D01*
X3492000Y521000D01*
X3497000Y512000D01*
X3506000Y507500D01*
X3530000D01*
G01X3459000D02*
X3452000Y518000D01*
X3446000Y524000D01*
X3438000Y527000D01*
X3431000Y524000D01*
X3426000Y518000D01*
X3422000Y509000D01*
X3421000Y498500D01*
X3422000Y489500D01*
X3426000Y480500D01*
X3432000Y473000D01*
X3439000Y470000D01*
X3447000Y473000D01*
X3454000Y482000D01*
X3458000Y495500D01*
X3459000Y510500D01*
X3457000Y530000D01*
X3454000Y540500D01*
X3449000Y551000D01*
X3442000Y558500D01*
X3435000Y560000D01*
X3428000Y557000D01*
X3423000Y549500D01*
G01X3392000Y483500D02*
X3386000Y476000D01*
X3379000Y471500D01*
X3370000Y470000D01*
X3361000Y473000D01*
X3354000Y479000D01*
X3349000Y489500D01*
X3348000Y501500D01*
X3350000Y513500D01*
X3355000Y521000D01*
X3362000Y527000D01*
X3369000Y528500D01*
X3376000Y527000D01*
X3385000Y521000D01*
X3382000Y560000D01*
X3355000D01*
G01X3300000Y470000D02*
Y560000D01*
X3312000Y542000D01*
G01Y470000D02*
X3288000D01*
G01X3230000D02*
X3223000Y471500D01*
X3215000Y476000D01*
X3210000Y483500D01*
X3208000Y494000D01*
X3210000Y504500D01*
X3216000Y513500D01*
X3225000Y518000D01*
X3235000D01*
X3241000Y521000D01*
X3246000Y528500D01*
X3248000Y539000D01*
X3245000Y549500D01*
X3238000Y557000D01*
X3230000Y560000D01*
X3222000Y557000D01*
X3215000Y549500D01*
X3212000Y539000D01*
X3214000Y528500D01*
X3219000Y521000D01*
X3225000Y518000D01*
X3235000D01*
X3244000Y513500D01*
X3250000Y504500D01*
X3252000Y494000D01*
X3250000Y483500D01*
X3245000Y476000D01*
X3237000Y471500D01*
X3230000Y470000D01*
G01X3190000Y440000D02*
X3130000D01*
G01X3090000Y560000D02*
Y470000D01*
G01X3113000Y560000D02*
X3067000D01*
G01X3000000Y470000D02*
X3040000D01*
Y560000D01*
X3000000D01*
G01X3016000Y516500D02*
X3040000D01*
G01X2971000Y482000D02*
X2963000Y474500D01*
X2954000Y470000D01*
X2946000D01*
X2938000Y474500D01*
X2932000Y482000D01*
X2929000Y492500D01*
X2931000Y503000D01*
X2936000Y512000D01*
X2945000Y518000D01*
X2957000Y521000D01*
X2964000Y527000D01*
X2967000Y537500D01*
X2965000Y548000D01*
X2960000Y555500D01*
X2953000Y560000D01*
X2946000D01*
X2939000Y557000D01*
X2933000Y549500D01*
G01X2880000Y560000D02*
Y470000D01*
G01X2903000Y560000D02*
X2857000D01*
G01X2840000Y440000D02*
X2780000D01*
G01X2765000Y560000D02*
X2740000Y470000D01*
X2715000Y560000D01*
G01X2670000Y470000D02*
Y560000D01*
X2682000Y542000D01*
G01Y470000D02*
X2658000D01*
G01X2600000Y560000D02*
X2608000Y557000D01*
X2614000Y549500D01*
X2618000Y540500D01*
X2621000Y528500D01*
X2622000Y515000D01*
X2621000Y501500D01*
X2618000Y489500D01*
X2614000Y480500D01*
X2608000Y473000D01*
X2600000Y470000D01*
X2592000Y473000D01*
X2586000Y480500D01*
X2582000Y489500D01*
X2579000Y501500D01*
X2578000Y515000D01*
X2579000Y528500D01*
X2582000Y540500D01*
X2586000Y549500D01*
X2592000Y557000D01*
X2600000Y560000D01*
G01X2555000Y470000D02*
X2530000Y560000D01*
X2505000Y470000D01*
G01X2514000Y501500D02*
X2546000D01*
G01X4162000Y310000D02*
Y400000D01*
X4142000D01*
X4134000Y395500D01*
X4128000Y389500D01*
X4123000Y380500D01*
X4119000Y370000D01*
X4118000Y355000D01*
X4119000Y340000D01*
X4123000Y329500D01*
X4128000Y320500D01*
X4134000Y314500D01*
X4142000Y310000D01*
X4162000D01*
G01X4095000D02*
X4070000Y400000D01*
X4045000Y310000D01*
G01X4054000Y341500D02*
X4086000D01*
G01X4000000Y400000D02*
Y310000D01*
G01X4023000Y400000D02*
X3977000D01*
G01X3910000Y310000D02*
X3950000D01*
Y400000D01*
X3910000D01*
G01X3926000Y356500D02*
X3950000D01*
G01X3860000Y307000D02*
X3862000Y308500D01*
Y311500D01*
X3860000Y313000D01*
X3858000Y311500D01*
Y308500D01*
X3860000Y307000D01*
G01Y347500D02*
X3862000Y349000D01*
Y352000D01*
X3860000Y353500D01*
X3858000Y352000D01*
Y349000D01*
X3860000Y347500D01*
G01X3809000Y385000D02*
X3803000Y394000D01*
X3796000Y398500D01*
X3788000Y400000D01*
X3778000Y397000D01*
X3771000Y389500D01*
X3769000Y380500D01*
X3770000Y371500D01*
X3774000Y364000D01*
X3794000Y349000D01*
X3803000Y338500D01*
X3809000Y323500D01*
X3811000Y310000D01*
X3769000D01*
G01X3720000Y400000D02*
X3728000Y397000D01*
X3734000Y389500D01*
X3738000Y380500D01*
X3741000Y368500D01*
X3742000Y355000D01*
X3741000Y341500D01*
X3738000Y329500D01*
X3734000Y320500D01*
X3728000Y313000D01*
X3720000Y310000D01*
X3712000Y313000D01*
X3706000Y320500D01*
X3702000Y329500D01*
X3699000Y341500D01*
X3698000Y355000D01*
X3699000Y368500D01*
X3702000Y380500D01*
X3706000Y389500D01*
X3712000Y397000D01*
X3720000Y400000D01*
G01X3650000Y310000D02*
Y400000D01*
X3662000Y382000D01*
G01Y310000D02*
X3638000D01*
G01X3597000Y320500D02*
X3590000Y313000D01*
X3582000Y310000D01*
X3574000Y313000D01*
X3567000Y322000D01*
X3562000Y335500D01*
X3560000Y349000D01*
Y365500D01*
X3562000Y379000D01*
X3567000Y391000D01*
X3573000Y397000D01*
X3580000Y400000D01*
X3588000Y397000D01*
X3594000Y391000D01*
X3598000Y382000D01*
X3600000Y370000D01*
X3598000Y359500D01*
X3593000Y349000D01*
X3587000Y343000D01*
X3580000Y341500D01*
X3572000Y344500D01*
X3566000Y352000D01*
X3560000Y365500D01*
G01X3540000Y280000D02*
X3480000D01*
G01X3440000Y400000D02*
X3448000Y397000D01*
X3454000Y389500D01*
X3458000Y380500D01*
X3461000Y368500D01*
X3462000Y355000D01*
X3461000Y341500D01*
X3458000Y329500D01*
X3454000Y320500D01*
X3448000Y313000D01*
X3440000Y310000D01*
X3432000Y313000D01*
X3426000Y320500D01*
X3422000Y329500D01*
X3419000Y341500D01*
X3418000Y355000D01*
X3419000Y368500D01*
X3422000Y380500D01*
X3426000Y389500D01*
X3432000Y397000D01*
X3440000Y400000D01*
G01X3358000Y310000D02*
Y400000D01*
X3395000Y335500D01*
X3345000D01*
G01X3330000Y280000D02*
X3270000D01*
G01X3249000Y385000D02*
X3243000Y394000D01*
X3236000Y398500D01*
X3228000Y400000D01*
X3218000Y397000D01*
X3211000Y389500D01*
X3209000Y380500D01*
X3210000Y371500D01*
X3214000Y364000D01*
X3234000Y349000D01*
X3243000Y338500D01*
X3249000Y323500D01*
X3251000Y310000D01*
X3209000D01*
G01X3179000Y385000D02*
X3173000Y394000D01*
X3166000Y398500D01*
X3158000Y400000D01*
X3148000Y397000D01*
X3141000Y389500D01*
X3139000Y380500D01*
X3140000Y371500D01*
X3144000Y364000D01*
X3164000Y349000D01*
X3173000Y338500D01*
X3179000Y323500D01*
X3181000Y310000D01*
X3139000D01*
G01X4132000Y198000D02*
X4128000Y202500D01*
X4125000Y210000D01*
X4123000Y220500D01*
X4125000Y229500D01*
X4129000Y235500D01*
X4136000Y240000D01*
X4163000D01*
Y150000D01*
X4130000D01*
X4123000Y156000D01*
X4119000Y165000D01*
X4117000Y175500D01*
X4119000Y186000D01*
X4125000Y195000D01*
X4132000Y198000D01*
X4163000D01*
G01X4070000Y150000D02*
Y190500D01*
X4090000Y240000D01*
G01X4050000D02*
X4070000Y190500D01*
G01X4000000Y147000D02*
X4002000Y148500D01*
Y151500D01*
X4000000Y153000D01*
X3998000Y151500D01*
Y148500D01*
X4000000Y147000D01*
G01Y187500D02*
X4002000Y189000D01*
Y192000D01*
X4000000Y193500D01*
X3998000Y192000D01*
Y189000D01*
X4000000Y187500D01*
G01X3951000Y150000D02*
X3909000Y240000D01*
G01X3951000D02*
X3909000Y150000D01*
G01X3881000D02*
X3839000Y240000D01*
G01X3881000D02*
X3839000Y150000D01*
G01X3811000D02*
X3769000Y240000D01*
G01X3811000D02*
X3769000Y150000D01*
G01X3740000Y240000D02*
Y150000D01*
X3700000D01*
G01X3669000Y240000D02*
X3631000D01*
X3669000Y150000D01*
X3631000D01*
G01X3600000Y168000D02*
X3595000Y159000D01*
X3589000Y153000D01*
X3582000Y150000D01*
X3574000Y153000D01*
X3568000Y159000D01*
X3562000Y168000D01*
X3560000Y180000D01*
Y240000D01*
G01X3531000Y150000D02*
X3489000Y240000D01*
G01X3531000D02*
X3489000Y150000D01*
G01X3461000D02*
X3419000Y240000D01*
G01X3461000D02*
X3419000Y150000D01*
G01X3391000D02*
X3349000Y240000D01*
G01X3391000D02*
X3349000Y150000D01*
M02*
