G04 ================== begin FILE IDENTIFICATION RECORD ==================*
G04 Layout Name:  H:/MBED-TOOLS/HARDWARE/CP2105_TEST_V10A/PCB/CP2105_TEST_V10A.brd*
G04 Film Name:    ADT*
G04 File Format:  Gerber RS274X*
G04 File Origin:  Cadence Allegro 17.2-S058*
G04 Origin Date:  Sat Dec 21 10:24:47 2019*
G04 *
G04 Layer:  REF DES/SILKSCREEN_TOP*
G04 Layer:  PIN/TOP*
G04 Layer:  PACKAGE GEOMETRY/SILKSCREEN_TOP*
G04 Layer:  BOARD GEOMETRY/SILKSCREEN_TOP*
G04 *
G04 Offset:    (0.0000 0.0000)*
G04 Mirror:    No*
G04 Mode:      Positive*
G04 Rotation:  0*
G04 FullContactRelief:  No*
G04 UndefLineWidth:     0.1524*
G04 ================== end FILE IDENTIFICATION RECORD ====================*
%FSLAX55Y55*MOMM*%
%IR0*IPPOS*OFA0.00000B0.00000*MIA0B0*SFA1.00000B1.00000*%
%ADD17R,1.3X.9*%
%ADD18R,.6X.4*%
%ADD19R,.6X.5*%
%ADD13C,1.3*%
%ADD22R,2.7X2.7*%
%ADD21R,.8X.25*%
%ADD10C,3.3*%
%ADD20R,.25X.8*%
%ADD11C,1.6*%
%ADD16C,1.8*%
%ADD14R,1.3X1.3*%
%ADD12R,1.6X1.6*%
%ADD15R,1.9X1.9*%
%ADD23C,.2*%
%ADD24C,.1524*%
%ADD25C,.1778*%
G75*
%LPD*%
G75*
G36*
G01X1710000Y70000D02*
X1660000Y20000D01*
X1760000D01*
X1710000Y70000D01*
G37*
G36*
G01X1460000Y930000D02*
X1560000D01*
X1510000Y880000D01*
X1460000Y930000D01*
G37*
G36*
G01X1680000Y880000D02*
X1580000D01*
X1630000Y930000D01*
X1680000Y880000D01*
G37*
G36*
G01X1980000D02*
X1880000D01*
X1930000Y930000D01*
X1980000Y880000D01*
G37*
G36*
G01X1760000Y930000D02*
X1860000D01*
X1810000Y880000D01*
X1760000Y930000D01*
G37*
G36*
G01X1985000Y1355000D02*
G03I-30000J0D01*
G37*
G36*
G01X1943200Y1163800D02*
G03I-25400J0D01*
G37*
G36*
G01X2930000Y500000D02*
X2980000Y450000D01*
Y550000D01*
X2930000Y500000D01*
G37*
G54D10*
X280000Y200000D03*
X839000Y198000D03*
X280000Y1400000D03*
X839000Y1402000D03*
G54D11*
X550000Y450000D03*
Y700000D03*
Y900000D03*
G54D20*
X2115000Y1430000D03*
X2165000D03*
X2215000D03*
X2265000D03*
X2315000D03*
X2365000D03*
Y1030000D03*
X2315000D03*
X2265000D03*
X2215000D03*
X2165000D03*
X2115000D03*
G54D12*
X550000Y1150000D03*
G54D21*
X2440000Y1355000D03*
Y1305000D03*
Y1255000D03*
Y1205000D03*
Y1155000D03*
Y1105000D03*
X2040000D03*
Y1155000D03*
Y1205000D03*
Y1255000D03*
Y1305000D03*
Y1355000D03*
G54D22*
X2240000Y1230000D03*
G54D13*
X1110000Y675000D03*
X1310000Y925000D03*
X1110000D03*
G54D23*
G01X650000Y1400000D02*
X-190000D01*
Y200000D01*
X650000D01*
G01X1030000Y1400000D02*
X1410000D01*
Y200000D01*
X1030000D01*
G01X1577000Y330000D02*
Y70000D01*
X2607000D01*
Y330000D01*
X1577000D01*
G01X1840000Y499550D02*
Y469550D01*
X1660000D01*
Y499550D01*
G01X1840000Y839550D02*
X1660000D01*
Y499550D01*
X1840000D01*
Y839550D01*
G01X2040000Y499550D02*
Y469550D01*
X1860000D01*
Y499550D01*
G01X2040000Y839550D02*
X1860000D01*
Y499550D01*
X2040000D01*
Y839550D01*
G01X1714600Y1115700D02*
G02X1765400I25400J0D01*
G01D02*
X1790800D01*
Y1344300D01*
X1689200D01*
Y1115700D01*
X1714600D01*
G01X2670000Y367000D02*
X2930000D01*
Y1397000D01*
X2670000D01*
Y367000D01*
G01X2520000Y499550D02*
Y469550D01*
X2340000D01*
Y499550D01*
G01X2520000Y839550D02*
X2340000D01*
Y499550D01*
X2520000D01*
Y839550D01*
G01X2320000Y498520D02*
Y468520D01*
X2140000D01*
Y498520D01*
G01X2320000Y838520D02*
X2140000D01*
Y498520D01*
X2320000D01*
Y838520D01*
G01X2400000Y1020000D02*
X2450000D01*
Y1070000D01*
G01X2030000D02*
Y1020000D01*
X2080000D01*
G01Y1440000D02*
X2030000D01*
Y1390000D01*
G01X2450000D02*
Y1440000D01*
X2400000D01*
G54D14*
X1310000Y675000D03*
G54D24*
G01X1706000Y395000D02*
X1726000D01*
Y368000D01*
X1720000Y359000D01*
X1713000Y353000D01*
X1703000Y350000D01*
X1693000Y353000D01*
X1686000Y359000D01*
X1680000Y368000D01*
X1676000Y378500D01*
X1674000Y390500D01*
Y401000D01*
X1676000Y410000D01*
X1680000Y420500D01*
X1686000Y429500D01*
X1692000Y435500D01*
X1700000Y440000D01*
X1707000D01*
X1715000Y437000D01*
X1721000Y431000D01*
G01X1935000Y440000D02*
X1960000Y350000D01*
X1985000Y440000D01*
G01X1376670Y70000D02*
X1323330D01*
Y180000D01*
X1376670D01*
G01X1355330Y126830D02*
X1323330D01*
G01X1469330Y170830D02*
X1461330Y176330D01*
X1452000Y180000D01*
X1441330D01*
X1429330Y174500D01*
X1420000Y165330D01*
X1413330Y154330D01*
X1408000Y136000D01*
X1406670Y119500D01*
X1409330Y103000D01*
X1413330Y92000D01*
X1421330Y81000D01*
X1430670Y73670D01*
X1440000Y70000D01*
X1449330D01*
X1458670Y73670D01*
X1466670Y79160D01*
X1473330Y86500D01*
G01X1514000Y180000D02*
X1546000D01*
G01X1530000D02*
Y70000D01*
G01X1514000D02*
X1546000D01*
G01X1445000Y248000D02*
X1450000Y239000D01*
X1456000Y233000D01*
X1463000Y230000D01*
X1471000Y233000D01*
X1477000Y239000D01*
X1483000Y248000D01*
X1485000Y260000D01*
Y320000D01*
G01X1535000Y230000D02*
Y320000D01*
X1523000Y302000D01*
G01Y230000D02*
X1547000D01*
G01X1683000Y1460000D02*
Y1395500D01*
X1687000Y1382000D01*
X1695000Y1373000D01*
X1705000Y1370000D01*
X1715000Y1373000D01*
X1723000Y1382000D01*
X1727000Y1395500D01*
Y1460000D01*
G01X1756000Y1445000D02*
X1762000Y1454000D01*
X1769000Y1458500D01*
X1777000Y1460000D01*
X1787000Y1457000D01*
X1794000Y1449500D01*
X1796000Y1440500D01*
X1795000Y1431500D01*
X1791000Y1424000D01*
X1771000Y1409000D01*
X1762000Y1398500D01*
X1756000Y1383500D01*
X1754000Y1370000D01*
X1796000D01*
G01X1143000Y1530000D02*
Y1465500D01*
X1147000Y1452000D01*
X1155000Y1443000D01*
X1165000Y1440000D01*
X1175000Y1443000D01*
X1183000Y1452000D01*
X1187000Y1465500D01*
Y1530000D01*
G01X1214000Y1452000D02*
X1222000Y1444500D01*
X1231000Y1440000D01*
X1239000D01*
X1247000Y1444500D01*
X1253000Y1452000D01*
X1256000Y1462500D01*
X1254000Y1473000D01*
X1249000Y1482000D01*
X1240000Y1488000D01*
X1228000Y1491000D01*
X1221000Y1497000D01*
X1218000Y1507500D01*
X1220000Y1518000D01*
X1225000Y1525500D01*
X1232000Y1530000D01*
X1239000D01*
X1246000Y1527000D01*
X1252000Y1519500D01*
G01X1313000Y1488000D02*
X1317000Y1492500D01*
X1320000Y1500000D01*
X1322000Y1510500D01*
X1320000Y1519500D01*
X1316000Y1525500D01*
X1309000Y1530000D01*
X1282000D01*
Y1440000D01*
X1315000D01*
X1322000Y1446000D01*
X1326000Y1455000D01*
X1328000Y1465500D01*
X1326000Y1476000D01*
X1320000Y1485000D01*
X1313000Y1488000D01*
X1282000D01*
G01X1356000Y1515000D02*
X1362000Y1524000D01*
X1369000Y1528500D01*
X1377000Y1530000D01*
X1387000Y1527000D01*
X1394000Y1519500D01*
X1396000Y1510500D01*
X1395000Y1501500D01*
X1391000Y1494000D01*
X1371000Y1479000D01*
X1362000Y1468500D01*
X1356000Y1453500D01*
X1354000Y1440000D01*
X1396000D01*
G01X1970000Y963000D02*
X1880000D01*
Y983000D01*
X1884500Y991000D01*
X1890500Y997000D01*
X1899500Y1002000D01*
X1910000Y1006000D01*
X1925000Y1007000D01*
X1940000Y1006000D01*
X1950500Y1002000D01*
X1959500Y997000D01*
X1965500Y991000D01*
X1970000Y983000D01*
Y963000D01*
G01Y1067000D02*
X1880000D01*
X1944500Y1030000D01*
Y1080000D01*
G01X1550000Y963000D02*
X1460000D01*
Y983000D01*
X1464500Y991000D01*
X1470500Y997000D01*
X1479500Y1002000D01*
X1490000Y1006000D01*
X1505000Y1007000D01*
X1520000Y1006000D01*
X1530500Y1002000D01*
X1539500Y997000D01*
X1545500Y991000D01*
X1550000Y983000D01*
Y963000D01*
G01Y1055000D02*
X1460000D01*
X1478000Y1043000D01*
G01X1550000D02*
Y1067000D01*
G01X1850000Y963000D02*
X1760000D01*
Y983000D01*
X1764500Y991000D01*
X1770500Y997000D01*
X1779500Y1002000D01*
X1790000Y1006000D01*
X1805000Y1007000D01*
X1820000Y1006000D01*
X1830500Y1002000D01*
X1839500Y997000D01*
X1845500Y991000D01*
X1850000Y983000D01*
Y963000D01*
G01X1832000Y1033000D02*
X1842500Y1039000D01*
X1848500Y1047000D01*
X1850000Y1056000D01*
X1848500Y1064000D01*
X1841000Y1072000D01*
X1832000Y1077000D01*
X1823000Y1078000D01*
X1812500Y1076000D01*
X1805000Y1069000D01*
X1802000Y1062000D01*
Y1053000D01*
G01Y1062000D02*
X1797500Y1068000D01*
X1790000Y1073000D01*
X1781000Y1075000D01*
X1772000Y1073000D01*
X1764500Y1068000D01*
X1760000Y1059000D01*
X1761500Y1050000D01*
X1767500Y1041000D01*
G01X1670000Y963000D02*
X1580000D01*
Y983000D01*
X1584500Y991000D01*
X1590500Y997000D01*
X1599500Y1002000D01*
X1610000Y1006000D01*
X1625000Y1007000D01*
X1640000Y1006000D01*
X1650500Y1002000D01*
X1659500Y997000D01*
X1665500Y991000D01*
X1670000Y983000D01*
Y963000D01*
G01X1595000Y1036000D02*
X1586000Y1042000D01*
X1581500Y1049000D01*
X1580000Y1057000D01*
X1583000Y1067000D01*
X1590500Y1074000D01*
X1599500Y1076000D01*
X1608500Y1075000D01*
X1616000Y1071000D01*
X1631000Y1051000D01*
X1641500Y1042000D01*
X1656500Y1036000D01*
X1670000Y1034000D01*
Y1076000D01*
G01X2190000Y350000D02*
Y440000D01*
X2215000D01*
X2223000Y435500D01*
X2228000Y429500D01*
X2230000Y417500D01*
X2228000Y405500D01*
X2222000Y398000D01*
X2215000Y393500D01*
X2190000D01*
G01X2215000D02*
X2230000Y350000D01*
G01X2470000Y440000D02*
Y350000D01*
G01X2447000Y440000D02*
X2493000D01*
G01X2605000Y506000D02*
Y526000D01*
X2632000D01*
X2641000Y520000D01*
X2647000Y513000D01*
X2650000Y503000D01*
X2647000Y493000D01*
X2641000Y486000D01*
X2632000Y480000D01*
X2621500Y476000D01*
X2609500Y474000D01*
X2599000D01*
X2590000Y476000D01*
X2579500Y480000D01*
X2570500Y486000D01*
X2564500Y492000D01*
X2560000Y500000D01*
Y507000D01*
X2563000Y515000D01*
X2569000Y521000D01*
G01X2560000Y735000D02*
X2650000Y760000D01*
X2560000Y785000D01*
G01X2905340Y112000D02*
X2914500Y122670D01*
X2920000Y134670D01*
Y145330D01*
X2914500Y156000D01*
X2905340Y164000D01*
X2892500Y168000D01*
X2879670Y165330D01*
X2868670Y158670D01*
X2861330Y146670D01*
X2857670Y130670D01*
X2850330Y121330D01*
X2837500Y117330D01*
X2824670Y120000D01*
X2815500Y126670D01*
X2810000Y136000D01*
Y145330D01*
X2813670Y154670D01*
X2822830Y162670D01*
G01X2819170Y259330D02*
X2813670Y251330D01*
X2810000Y242000D01*
Y231330D01*
X2815500Y219330D01*
X2824670Y210000D01*
X2835670Y203330D01*
X2854000Y198000D01*
X2870500Y196670D01*
X2887000Y199330D01*
X2898000Y203330D01*
X2909000Y211330D01*
X2916330Y220670D01*
X2920000Y230000D01*
Y239330D01*
X2916330Y248670D01*
X2910840Y256670D01*
X2903500Y263330D01*
G01X2810000Y304000D02*
Y336000D01*
G01Y320000D02*
X2920000D01*
G01Y304000D02*
Y336000D01*
G01X2742000Y225000D02*
X2751000Y230000D01*
X2757000Y236000D01*
X2760000Y243000D01*
X2757000Y251000D01*
X2751000Y257000D01*
X2742000Y263000D01*
X2730000Y265000D01*
X2670000D01*
G01X2685000Y296000D02*
X2676000Y302000D01*
X2671500Y309000D01*
X2670000Y317000D01*
X2673000Y327000D01*
X2680500Y334000D01*
X2689500Y336000D01*
X2698500Y335000D01*
X2706000Y331000D01*
X2721000Y311000D01*
X2731500Y302000D01*
X2746500Y296000D01*
X2760000Y294000D01*
Y336000D01*
G01X2560000Y1270000D02*
X2650000D01*
G01X2560000Y1247000D02*
Y1293000D01*
G01X2650000Y990000D02*
X2560000D01*
Y1015000D01*
X2564500Y1023000D01*
X2570500Y1028000D01*
X2582500Y1030000D01*
X2594500Y1028000D01*
X2602000Y1022000D01*
X2606500Y1015000D01*
Y990000D01*
G01Y1015000D02*
X2650000Y1030000D01*
G01X2680000Y1450000D02*
X2770000D01*
G01X2680000Y1427000D02*
Y1473000D01*
G01X2033000Y1580000D02*
Y1515500D01*
X2037000Y1502000D01*
X2045000Y1493000D01*
X2055000Y1490000D01*
X2065000Y1493000D01*
X2073000Y1502000D01*
X2077000Y1515500D01*
Y1580000D01*
G01X2125000Y1490000D02*
Y1580000D01*
X2113000Y1562000D01*
G01Y1490000D02*
X2137000D01*
G54D15*
X1710000Y200000D03*
X2800000Y500000D03*
G54D25*
G01X1813500Y700030D02*
X1750000Y636530D01*
X1686500Y700030D01*
X1813500D01*
X1795720Y682250D01*
X1711900D01*
X1724600Y669550D01*
X1775400D01*
X1762700Y656850D01*
X1737300D01*
G01X2013500Y700030D02*
X1950000Y636530D01*
X1886500Y700030D01*
X2013500D01*
X1995720Y682250D01*
X1911900D01*
X1924600Y669550D01*
X1975400D01*
X1962700Y656850D01*
X1937300D01*
G01X2493500Y700030D02*
X2430000Y636530D01*
X2366500Y700030D01*
X2493500D01*
X2475720Y682250D01*
X2391900D01*
X2404600Y669550D01*
X2455400D01*
X2442700Y656850D01*
X2417300D01*
G01X2293500Y699000D02*
X2230000Y635500D01*
X2166500Y699000D01*
X2293500D01*
X2275720Y681220D01*
X2191900D01*
X2204600Y668520D01*
X2255400D01*
X2242700Y655820D01*
X2217300D01*
G54D16*
X1964000Y200000D03*
X2472000D03*
X2218000D03*
X2800000Y754000D03*
Y1262000D03*
Y1008000D03*
G54D17*
X1750000Y769550D03*
Y569550D03*
X1950000Y769550D03*
Y569550D03*
X2430000Y769550D03*
Y569550D03*
X2230000Y768520D03*
Y568520D03*
G54D18*
X1630000Y1230000D03*
X1850000D03*
G54D19*
X1630000Y1165000D03*
Y1295000D03*
X1850000D03*
Y1165000D03*
M02*
