G04 ================== begin FILE IDENTIFICATION RECORD ==================*
G04 Layout Name:  H:/MBED-TOOLS/HARDWARE/CP2105_TEST_V10A/PCB/CP2105_TEST_V10A.brd*
G04 Film Name:    TOP*
G04 File Format:  Gerber RS274X*
G04 File Origin:  Cadence Allegro 17.2-S058*
G04 Origin Date:  Sat Dec 21 10:24:47 2019*
G04 *
G04 Layer:  VIA CLASS/TOP*
G04 Layer:  PIN/TOP*
G04 Layer:  ETCH/TOP*
G04 *
G04 Offset:    (0.0000 0.0000)*
G04 Mirror:    No*
G04 Mode:      Positive*
G04 Rotation:  0*
G04 FullContactRelief:  No*
G04 UndefLineWidth:     0.1524*
G04 ================== end FILE IDENTIFICATION RECORD ====================*
%FSLAX55Y55*MOMM*%
%IR0*IPPOS*OFA0.00000B0.00000*MIA0B0*SFA1.00000B1.00000*%
%ADD18R,1.3X.9*%
%ADD12C,.508*%
%ADD24C,.6096*%
%ADD19R,.6X.4*%
%ADD20R,.6X.5*%
%ADD14C,1.3*%
%ADD23R,2.7X2.7*%
%ADD22R,.8X.25*%
%ADD10C,3.3*%
%ADD21R,.25X.8*%
%ADD11C,1.6*%
%ADD17C,1.8*%
%ADD15R,1.3X1.3*%
%ADD13R,1.6X1.6*%
%ADD16R,1.9X1.9*%
%ADD25C,.2032*%
%ADD26C,.254*%
%ADD27C,1.6128*%
G75*
%LPD*%
G75*
G36*
G01X100000Y1580000D02*
X2211890D01*
G02X2226260Y1545310I1J-20321D01*
G01X2225470Y1544530D01*
G03X2211970Y1522690I39530J-39527D01*
G01X2209650Y1515740D01*
X2102500D01*
G03X2056760Y1470000I0J-45740D01*
G01Y1413240D01*
X2000000D01*
G03X1954260Y1367500I0J-45740D01*
G01Y1344150D01*
X1941720D01*
X1939600Y1345190D01*
G03X1915000Y1350900I-24612J-50187D01*
G01X1913720D01*
G03X1880000Y1365740I-33720J-30890D01*
G01X1820000D01*
G03X1786280Y1350900I0J-45730D01*
G01X1693720D01*
G03X1660000Y1365740I-33720J-30890D01*
G01X1600000D01*
G03X1565120Y1349590I0J-45741D01*
G03X1537610Y1334530I12010J-54595D01*
G01X1509310Y1306220D01*
X1290320D01*
G03X1250790Y1289850I0J-55913D01*
G01X1150150Y1189210D01*
G03X1133780Y1149680I39543J-39530D01*
G01Y1056010D01*
G02X1112920Y1035700I-20320J3D01*
G03X1110000Y1035740I-2977J-110699D01*
G03Y814260I0J-110740D01*
G03X1194500Y853420I0J110748D01*
G02X1225500I15500J-13135D01*
G03X1310000Y814260I84500J71588D01*
G03Y1035740I0J110740D01*
G03X1307080Y1035700I57J-110739D01*
G02X1286220Y1056010I-540J20313D01*
G01Y1109690D01*
X1330310Y1153780D01*
X1509310D01*
X1537610Y1125470D01*
G03X1565120Y1110410I39520J39535D01*
G03X1600000Y1094260I34880J29591D01*
G01X1660000D01*
G03X1693720Y1109100I0J45730D01*
G01X1744260D01*
Y951400D01*
X1736090Y949770D01*
G03X1678860Y880360I13912J-69769D01*
G01Y879600D01*
G03X1678870Y879130I71123J1278D01*
G01X1678910Y875050D01*
X1651700Y845910D01*
X1651690Y845900D01*
G03X1639260Y814550I33319J-31350D01*
G01Y724550D01*
Y614850D01*
Y524550D01*
G03X1651570Y493330I45744J0D01*
G01X1694100Y447780D01*
Y420000D01*
G03X1710470Y380470I55913J0D01*
G01X1770470Y320470D01*
G03X1810000Y304100I39530J39543D01*
G01X1832340D01*
G02X1849480Y272870I-3J-20320D01*
G03X1828260Y200000I114509J-72870D01*
G03X1964000Y64260I135740J0D01*
G03X2051530Y96260I-9J135735D01*
G01X2058670Y102280D01*
X2106510Y54430D01*
G02X2091890Y20000I-14621J-14111D01*
G01X100000D01*
G02X20000Y100000I5000J85000D01*
G01Y1500000D01*
G02X100000Y1580000I85000J-5000D01*
G37*
G36*
G01X1743450Y877150D02*
X1685000Y814550D01*
X1750000Y767010D01*
X1815000Y814550D01*
X1756550Y877150D01*
G03X1743450I-6550J-7770D01*
G37*
G36*
G01X1956550Y461950D02*
X2015000Y524550D01*
X1950000Y572090D01*
X1885000Y524550D01*
X1943450Y461950D01*
G03X1956550I6550J7770D01*
G37*
G36*
G01X1756550D02*
X1815000Y524550D01*
X1750000Y572090D01*
X1685000Y524550D01*
X1743450Y461950D01*
G03X1756550I6550J7770D01*
G37*
G36*
G01X1801050Y1225520D02*
X1820000Y1210000D01*
X1852540Y1230000D01*
X1820000Y1250000D01*
X1801050Y1234480D01*
G03Y1225520I9120J-4480D01*
G37*
G36*
G01X1678950Y1234480D02*
X1660000Y1250000D01*
X1627460Y1230000D01*
X1660000Y1210000D01*
X1678950Y1225520D01*
G03Y1234480I-9120J4480D01*
G37*
G36*
G01X1711260Y1222820D02*
X1722040Y1212050D01*
X1742540Y1230000D01*
X1722040Y1247950D01*
X1711260Y1237180D01*
G03Y1222820I7190J-7180D01*
G37*
G36*
G01X1768740Y1237180D02*
X1757960Y1247950D01*
X1737460Y1230000D01*
X1757960Y1212050D01*
X1768740Y1222820D01*
G03Y1237180I-7190J7180D01*
G37*
G36*
G01X1975400Y1114760D02*
Y1130000D01*
X1948200Y1131800D01*
X1950000Y1104600D01*
X1965240D01*
G03X1975400Y1114760I0J10160D01*
G37*
G36*
G01X1965240Y1155400D02*
X1950000D01*
X1948200Y1128200D01*
X1975400Y1130000D01*
Y1145240D01*
G03X1965240Y1155400I-10160J0D01*
G37*
G36*
G01X1880000Y1094260D02*
G03X1888080Y1094980I-4J45740D01*
G03X1942930Y1059210I61925J35017D01*
G03X1974990Y1049100I32064J45792D01*
G01X1985480D01*
X1986900Y1048670D01*
G03X1999960Y1046760I13080J43833D01*
G01X2080000D01*
G03X2096880Y1049990I-3J45739D01*
G03X2105000Y1049260I8139J45008D01*
G01X2130000D01*
Y980000D01*
X2159100D01*
Y940000D01*
X1810000D01*
X1790000Y960000D01*
Y1074650D01*
G02X1813300Y1094750I20319J1D01*
G03X1819950Y1094260I6677J45252D01*
G01X1880000D01*
G37*
G36*
G01X1757180Y851260D02*
X1767950Y862040D01*
X1750000Y882540D01*
X1732050Y862040D01*
X1742820Y851260D01*
G03X1757180I7180J7190D01*
G37*
G36*
G01X1164840Y990000D02*
X1110000D01*
X1108200Y923200D01*
X1175000Y925000D01*
Y979840D01*
G03X1164840Y990000I-10160J0D01*
G37*
G36*
G01X1576430Y1289820D02*
X1600000Y1270000D01*
X1632540Y1295000D01*
X1600000Y1320000D01*
X1576430Y1300180D01*
G03Y1289820I8740J-5180D01*
G37*
G36*
G01X1683570Y1300180D02*
X1660000Y1320000D01*
X1627460Y1295000D01*
X1660000Y1270000D01*
X1683570Y1289820D01*
G03Y1300180I-8740J5180D01*
G37*
G36*
G01X1903570D02*
X1880000Y1320000D01*
X1847460Y1295000D01*
X1880000Y1270000D01*
X1903570Y1289820D01*
G03Y1300180I-8740J5180D01*
G37*
G36*
G01X1796430Y1289820D02*
X1820000Y1270000D01*
X1852540Y1295000D01*
X1820000Y1320000D01*
X1796430Y1300180D01*
G03Y1289820I8740J-5180D01*
G37*
G36*
G01X1245000Y979840D02*
Y925000D01*
X1311800Y923200D01*
X1310000Y990000D01*
X1255160D01*
G03X1245000Y979840I0J-10160D01*
G37*
G36*
G01X1576430Y1159820D02*
X1600000Y1140000D01*
X1632540Y1165000D01*
X1600000Y1190000D01*
X1576430Y1170180D01*
G03Y1159820I8740J-5180D01*
G37*
G36*
G01X1683570Y1170180D02*
X1660000Y1190000D01*
X1627460Y1165000D01*
X1660000Y1140000D01*
X1683570Y1159820D01*
G03Y1170180I-8740J5180D01*
G37*
G36*
G01X1903570D02*
X1880000Y1190000D01*
X1847460Y1165000D01*
X1880000Y1140000D01*
X1903570Y1159820D01*
G03Y1170180I-8740J5180D01*
G37*
G36*
G01X1796430Y1159820D02*
X1820000Y1140000D01*
X1852540Y1165000D01*
X1820000Y1190000D01*
X1796430Y1170180D01*
G03Y1159820I8740J-5180D01*
G37*
G36*
G01X2096950Y659200D02*
G02X2119260Y638980I1990J-20222D01*
G01Y523520D01*
G03X2165000Y477780I45740J0D01*
G01X2173190D01*
X2199620Y451390D01*
X2199170Y446630D01*
G03X2198860Y440000I70830J-6634D01*
G01Y439560D01*
G03X2261630Y369350I71141J438D01*
G02X2274630Y335740I-2260J-20193D01*
G01X2161310D01*
X2039700Y457360D01*
G02X2042230Y487800I14622J14110D01*
G03X2060740Y524550I-27227J36750D01*
G01Y638980D01*
G02X2083050Y659200I20320J-2D01*
G03X2090000Y658860I6947J70800D01*
G03X2096950Y659200I3J71140D01*
G37*
G36*
G01X2758110Y1580000D02*
X2900000D01*
G02X2980000Y1500000I-5000J-85000D01*
G01Y100000D01*
G02X2900000Y20000I-85000J5000D01*
G01X2420110D01*
G02X2405490Y54430I1J20319D01*
G01X2415310Y64260D01*
X2472000D01*
G03X2607740Y200000I0J135740D01*
G01Y256690D01*
X2619530Y268470D01*
G03X2635900Y308000I-39543J39530D01*
G01Y1040000D01*
G03X2619530Y1079530I-55913J0D01*
G01X2554530Y1144530D01*
G03X2525120Y1159980I-39529J-39529D01*
G03X2525690Y1169710I-45117J7525D01*
G01X2525480Y1174000D01*
X2534740Y1183920D01*
X2538430Y1184360D01*
G03X2579610Y1204010I-8429J70640D01*
G02X2614100Y1189450I14171J-14562D01*
G01Y1138000D01*
G03X2630470Y1098470I55913J0D01*
G01X2653640Y1075300D01*
X2664260Y1064690D01*
Y1009140D01*
G03X2664250Y1008000I135735J-1761D01*
G03X2664510Y999720I135746J118D01*
G01X2664590Y998550D01*
G03X2721280Y897420I135410J9452D01*
G02X2721110Y864460I-11975J-16419D01*
G03X2664260Y754000I78887J-110460D01*
G03X2935740I135740J0D01*
G03X2878890Y864460I-135737J0D01*
G02X2878720Y897420I11805J16541D01*
G03Y1118580I-78715J110580D01*
G02Y1151420I11975J16420D01*
G03X2935740Y1262000I-78715J110580D01*
G03X2894930Y1359030I-135754J0D01*
G01X2894890Y1359060D01*
X2855900Y1398060D01*
Y1410000D01*
G03X2839530Y1449530I-55913J0D01*
G01X2787210Y1501840D01*
X2743490Y1545570D01*
G02X2758110Y1580000I14621J14111D01*
G37*
G36*
G01X2061260Y792820D02*
X2072040Y782050D01*
X2092540Y800000D01*
X2072040Y817950D01*
X2061260Y807180D01*
G03Y792820I7190J-7180D01*
G37*
G36*
G01X2423450Y877150D02*
X2365000Y814550D01*
X2430000Y767010D01*
X2495000Y814550D01*
X2436550Y877150D01*
G03X2423450I-6550J-7770D01*
G37*
G36*
G01X2118740Y737180D02*
X2107960Y747950D01*
X2087460Y730000D01*
X2107960Y712050D01*
X2118740Y722820D01*
G03Y737180I-7190J7180D01*
G37*
G36*
G01X2386420Y453180D02*
X2457880Y524570D01*
X2431060Y571860D01*
X2366450Y534250D01*
X2370010Y459200D01*
G03X2386420Y453180I9989J1852D01*
G37*
G36*
G01X2372820Y468740D02*
X2362050Y457960D01*
X2380000Y437460D01*
X2397950Y457960D01*
X2387180Y468740D01*
G03X2372820I-7180J-7190D01*
G37*
G36*
G01X2279730Y457110D02*
X2291550Y531990D01*
X2229120Y570900D01*
X2192120Y523520D01*
X2263580Y452150D01*
G03X2279730Y457110I6419J7872D01*
G37*
G36*
G01X2262820Y468740D02*
X2252050Y457960D01*
X2270000Y437460D01*
X2287950Y457960D01*
X2277180Y468740D01*
G03X2262820I-7180J-7190D01*
G37*
G36*
G01X2297840Y290000D02*
X2218000D01*
X2216200Y198200D01*
X2308000Y200000D01*
Y279840D01*
G03X2297840Y290000I-10160J0D01*
G37*
G36*
G01X2128000Y279840D02*
Y200000D01*
X2219800Y198200D01*
X2218000Y290000D01*
X2138160D01*
G03X2128000Y279840I0J-10160D01*
G37*
G36*
G01X2551840Y290000D02*
X2472000D01*
X2470200Y198200D01*
X2562000Y200000D01*
Y279840D01*
G03X2551840Y290000I-10160J0D01*
G37*
G36*
G01X2392160Y110000D02*
X2472000D01*
X2473800Y201800D01*
X2382000Y200000D01*
Y120160D01*
G03X2392160Y110000I10160J0D01*
G37*
G36*
G01X2126530Y1344260D02*
X2353470D01*
X2354780Y1335630D01*
G03X2356000Y1330000I45224J6853D01*
G03X2354260Y1317500I44001J-12496D01*
G01Y1292500D01*
G03X2356000Y1280000I45741J-4D01*
G03X2354260Y1267500I44001J-12496D01*
G01Y1242500D01*
G03X2356000Y1230000I45741J-4D01*
G03X2354260Y1217500I44001J-12496D01*
G01Y1192500D01*
G03X2356000Y1180000I45741J-4D01*
G03X2354260Y1167500I44001J-12496D01*
G01Y1142500D01*
G03X2356000Y1130000I45741J-4D01*
G03X2354780Y1124370I44004J-12483D01*
G01X2353470Y1115740D01*
X2126530D01*
X2125220Y1124370D01*
G03X2124000Y1130000I-45224J-6853D01*
G03X2125740Y1142500I-44001J12496D01*
G01Y1167500D01*
G03X2124000Y1180000I-45741J4D01*
G03X2125740Y1192500I-44001J12496D01*
G01Y1217500D01*
G03X2124000Y1230000I-45741J4D01*
G03X2125740Y1242500I-44001J12496D01*
G01Y1267500D01*
G03X2113920Y1298180I-45727J0D01*
G02Y1311820I7535J6820D01*
G03X2125220Y1335630I-33919J30684D01*
G01X2126530Y1344260D01*
G37*
G36*
G01X2423240Y1448540D02*
X2611690D01*
X2614100Y1446130D01*
Y1320550D01*
G02X2579610Y1305990I-20319J2D01*
G03X2534840Y1325980I-49614J-50987D01*
G02X2525440Y1337270I692J10135D01*
G03X2525740Y1342500I-45438J5230D01*
G01Y1367500D01*
G03X2480000Y1413240I-45740J0D01*
G01X2423240D01*
Y1448540D01*
G37*
G36*
G01X2092320Y1306860D02*
X2080000Y1317500D01*
X2037460Y1305000D01*
X2080000Y1292500D01*
X2092320Y1303140D01*
G03Y1306860I-9990J1860D01*
G37*
G36*
G01X1987680Y1303140D02*
X2000000Y1292500D01*
X2042540Y1305000D01*
X2000000Y1317500D01*
X1987680Y1306860D01*
G03Y1303140I9990J-1860D01*
G37*
G36*
G01Y1103140D02*
X2000000Y1092500D01*
X2042540Y1105000D01*
X2000000Y1117500D01*
X1987680Y1106860D01*
G03Y1103140I9990J-1860D01*
G37*
G36*
G01Y1153140D02*
X2000000Y1142500D01*
X2042540Y1155000D01*
X2000000Y1167500D01*
X1987680Y1156860D01*
G03Y1153140I9990J-1860D01*
G37*
G36*
G01X2207820Y898740D02*
X2197050Y887960D01*
X2215000Y867460D01*
X2232950Y887960D01*
X2222180Y898740D01*
G03X2207820I-7180J-7190D01*
G37*
G36*
G01X2216860Y977680D02*
X2227500Y990000D01*
X2215000Y1032540D01*
X2202500Y990000D01*
X2213140Y977680D01*
G03X2216860I1860J9990D01*
G37*
G36*
G01X2437180Y851260D02*
X2447950Y862040D01*
X2430000Y882540D01*
X2412050Y862040D01*
X2422820Y851260D01*
G03X2437180I7180J7190D01*
G37*
G36*
G01X2501260Y1247820D02*
X2512040Y1237050D01*
X2532540Y1255000D01*
X2512040Y1272950D01*
X2501260Y1262180D01*
G03Y1247820I7190J-7180D01*
G37*
G36*
G01X2492320Y1256860D02*
X2480000Y1267500D01*
X2437460Y1255000D01*
X2480000Y1242500D01*
X2492320Y1253140D01*
G03Y1256860I-9990J1860D01*
G37*
G36*
G01X2710000Y1087840D02*
Y1008000D01*
X2801800Y1006200D01*
X2800000Y1098000D01*
X2720160D01*
G03X2710000Y1087840I0J-10160D01*
G37*
G36*
G01X2313140Y1482320D02*
X2302500Y1470000D01*
X2315000Y1427460D01*
X2327500Y1470000D01*
X2316860Y1482320D01*
G03X2313140I-1860J-9990D01*
G37*
G36*
G01X2792820Y1382100D02*
X2736360Y1325650D01*
X2800000Y1259460D01*
X2863630Y1325640D01*
X2807180Y1382090D01*
G03X2792820Y1382100I-7185J-7181D01*
G37*
G36*
G01X2263140Y1482320D02*
X2252500Y1470000D01*
X2265000Y1427460D01*
X2277500Y1470000D01*
X2266860Y1482320D01*
G03X2263140I-1860J-9990D01*
G37*
G36*
G01X2415470Y1036070D02*
X2377500Y1070000D01*
X2362460Y1030000D01*
X2377500Y990000D01*
X2415470Y1023930D01*
G03Y1036070I-8140J6070D01*
G37*
G36*
G01X2492320Y1106860D02*
X2480000Y1117500D01*
X2437460Y1105000D01*
X2480000Y1092500D01*
X2492320Y1103140D01*
G03Y1106860I-9990J1860D01*
G37*
G36*
G01X1987680Y1253140D02*
X2000000Y1242500D01*
X2042540Y1255000D01*
X2000000Y1267500D01*
X1987680Y1256860D01*
G03Y1253140I9990J-1860D01*
G37*
G36*
G01X1983300Y1206070D02*
X2000000Y1192500D01*
X2050100Y1203930D01*
X2080000Y1217500D01*
X1991800Y1220120D01*
G03X1983300Y1206070I869J-10122D01*
G37*
%LPC*%
G75*
G36*
G01X424260Y1070000D02*
Y1230000D01*
G02X470000Y1275740I45740J0D01*
G01X630000D01*
G02X675740Y1230000I0J-45740D01*
G01Y1070000D01*
G02X630000Y1024260I-45740J0D01*
G01X613660D01*
Y1008570D01*
X618300Y1005570D01*
G02X675740Y900000I-68294J-105570D01*
G02X641650Y813910I-125750J0D01*
G03Y786090I14809J-13910D01*
G02X675740Y700000I-91660J-86090D01*
G02X424260I-125740J0D01*
G02X458350Y786090I125750J0D01*
G03Y813910I-14809J13910D01*
G02X424260Y900000I91660J86090D01*
G02X481700Y1005570I125734J0D01*
G01X486340Y1008570D01*
Y1024260D01*
X470000D01*
G02X424260Y1070000I0J45740D01*
G37*
G36*
G01X1199260Y610000D02*
Y740000D01*
G02X1245000Y785740I45740J0D01*
G01X1375000D01*
G02X1420740Y740000I0J-45740D01*
G01Y610000D01*
G02X1375000Y564260I-45740J0D01*
G01X1245000D01*
G02X1199260Y610000I0J45740D01*
G37*
G54D27*
X280000Y1025000D03*
X278160Y574130D03*
%LPD*%
G75*
G54D10*
X280000Y200000D03*
X839000Y198000D03*
X280000Y1400000D03*
X839000Y1402000D03*
G54D11*
X550000Y450000D03*
Y700000D03*
Y900000D03*
G54D20*
X1630000Y1165000D03*
Y1295000D03*
X1850000D03*
Y1165000D03*
G54D21*
X2115000Y1430000D03*
X2165000D03*
X2215000D03*
X2265000D03*
X2315000D03*
X2365000D03*
Y1030000D03*
X2315000D03*
X2265000D03*
X2215000D03*
X2165000D03*
X2115000D03*
G54D12*
G01X2800000Y500000D02*
Y520000D01*
X2650000Y670000D01*
Y1070000D01*
X2601120Y1118880D01*
G01D02*
Y1288880D01*
X2540000Y1350000D01*
X540000Y70000D03*
X100000Y460000D03*
Y840000D03*
X90000Y1170000D03*
X1500000Y60000D03*
X1100000D03*
X880000Y470000D03*
X1330000D03*
X880000Y780000D03*
X1740000Y1230000D03*
X860000Y1090000D03*
X1340000D03*
X1500000Y900000D03*
X1080000Y1330000D03*
X1480000Y1340000D03*
X1540000Y1540000D03*
X1740000D03*
X1950000Y1130000D03*
X1830000Y1089200D03*
X1750000Y880000D03*
X2890000Y80000D03*
X2680000D03*
X2090000Y480000D03*
X2160000Y390000D03*
X2090000Y800000D03*
Y730000D03*
X2380000Y440000D03*
X2270000D03*
X2540000Y1350000D03*
X2900000Y1500000D03*
X2040000Y1540000D03*
X2215000Y870000D03*
X2430000Y880000D03*
X2530000Y1255000D03*
G54D13*
X550000Y1150000D03*
G54D22*
X2440000Y1355000D03*
Y1305000D03*
Y1255000D03*
Y1205000D03*
Y1155000D03*
Y1105000D03*
X2040000D03*
Y1155000D03*
Y1205000D03*
Y1255000D03*
Y1305000D03*
Y1355000D03*
G54D23*
X2240000Y1230000D03*
G54D14*
X1110000Y675000D03*
X1310000Y925000D03*
X1110000D03*
G54D15*
X1310000Y675000D03*
G54D24*
X2330000Y1230000D03*
Y1310000D03*
X2240000D03*
Y1230000D03*
G54D25*
G01X2090000Y800000D02*
X1990000D01*
X1959550Y769550D01*
X1950000D01*
G01X1750000D02*
Y880000D01*
G01X2218000Y200000D02*
X1950000Y468000D01*
Y569550D01*
G01X2472000Y200000D02*
X2342000Y70000D01*
X2170000D01*
X2090000Y150000D01*
Y259990D01*
X1989990Y360000D01*
X1810000D01*
X1750000Y420000D01*
Y569550D01*
G01X1740000Y1230000D02*
X1850000D01*
G01X1630000D02*
X1740000D01*
G01X1995000Y1305000D02*
X1940000Y1360000D01*
G01X1920000D02*
X1975000Y1305000D01*
X1995000D01*
G01X2040000Y1155000D02*
X1975000D01*
X1950000Y1130000D01*
G01X2040000Y1105000D02*
X1975000D01*
X1950000Y1130000D01*
G01X1630000Y1295000D02*
X1850000D01*
G01X1110000Y925000D02*
X1189680Y1004680D01*
Y1149680D01*
X1290320Y1250320D01*
X1532460D01*
X1577140Y1295000D01*
X1630000D01*
G01X2040000Y1255000D02*
X1955000D01*
X1915000Y1295000D01*
X1850000D01*
G01X1630000Y1165000D02*
X1850000D01*
G01X1310000Y925000D02*
X1230320Y1004680D01*
Y1132840D01*
X1307160Y1209680D01*
X1532460D01*
X1577140Y1165000D01*
X1630000D01*
G01X2040000Y1205000D02*
X2035000Y1210000D01*
X1947860D01*
X1902860Y1165000D01*
X1850000D01*
G01X2080000Y30000D02*
X2420000D01*
G01X2430000Y769550D02*
Y880000D01*
G01X2090000Y730000D02*
X2190000D01*
X2228520Y768520D01*
X2230000D01*
G01X2380000Y440000D02*
Y540000D01*
X2409550Y569550D01*
X2430000D01*
G01X2270000Y440000D02*
Y550000D01*
X2251480Y568520D01*
X2230000D01*
G01X2365000Y1030000D02*
X2510000D01*
X2540000Y1000000D01*
Y410000D01*
X2490000Y360000D01*
X2378000D01*
X2218000Y200000D01*
G01X2440000Y1105000D02*
X2515000D01*
X2580000Y1040000D01*
Y308000D01*
X2472000Y200000D01*
G01X2240000Y1230000D02*
X2165000Y1305000D01*
G01X2770000Y1570000D02*
X2764440Y1575560D01*
G01X2040000Y1305000D02*
X1995000D01*
G01X2165000D02*
X2040000D01*
G01X2764440Y1575560D02*
X2225560D01*
X2210000Y1560000D01*
G01X2215000Y870000D02*
Y1030000D01*
G01X2440000Y1255000D02*
X2530000D01*
G01X2315000Y1430000D02*
Y1484280D01*
X2335160Y1504440D01*
X2634840D01*
X2670000Y1469280D01*
Y1138000D01*
X2800000Y1008000D01*
G01X2265000Y1430000D02*
Y1505000D01*
X2300000Y1540000D01*
X2670000D01*
X2800000Y1410000D01*
Y1262000D01*
G54D16*
X1710000Y200000D03*
X2800000Y500000D03*
G54D26*
G01X2150000Y960000D02*
X2165000Y975000D01*
Y1030000D01*
G54D17*
X1964000Y200000D03*
X2472000D03*
X2218000D03*
X2800000Y754000D03*
Y1262000D03*
Y1008000D03*
G54D18*
X1750000Y769550D03*
Y569550D03*
X1950000Y769550D03*
Y569550D03*
X2430000Y769550D03*
Y569550D03*
X2230000Y768520D03*
Y568520D03*
G54D19*
X1630000Y1230000D03*
X1850000D03*
M02*
