M48
METRIC,TZ
T01C.3048
T02C.9
T03C1.
T04C1.1
T05C3.1
;LEADER: 12 
;HEADER: 
;CODE  : ASCII 
;FILE  : HY_4S5P_ZJB_V10_260325-1-2.drl for board G:/github/DebugTool/HARDWARE/HY_4S5P_ZJB_V10_260325/#Taaaaua11788.tmp ... layers TOP and BOTTOM
;T01 Holesize 1. = 0.304800 Tolerance = +0.000000/-0.000000 PLATED MM Quantity = 119
;T02 Holesize 2. = 0.900000 Tolerance = +0.000000/-0.000000 PLATED MM Quantity = 1
;T03 Holesize 3. = 1.000000 Tolerance = +0.000000/-0.000000 PLATED MM Quantity = 4
;T04 Holesize 4. = 1.100000 Tolerance = +0.000000/-0.000000 PLATED MM Quantity = 12
;T05 Holesize 5. = 3.100000 Tolerance = +0.000000/-0.000000 PLATED MM Quantity = 4
%
G90
T01
X360000Y1060000
X360000Y1560000
X360000Y2060000
X360000Y2560000
X360000Y3060000
X360000Y3560000
X360000Y4060000
X360000Y4560000
X860000Y4560000
X860000Y4060000
X860000Y3560000
X860000Y3060000
X860000Y2560000
X860000Y2060000
X860000Y1560000
X860000Y1060000
X860000Y620000
X860000Y120000
X1360000Y120000
X1360000Y620000
X1380000Y960000
X1380000Y1460000
X1380000Y1960000
X1380000Y2460000
X1380000Y2960000
X1380000Y3460000
X1380000Y3960000
X1880000Y4960000
X1880000Y4460000
X1880000Y3960000
X1880000Y3460000
X1880000Y2960000
X1880000Y2460000
X1880000Y1960000
X1880000Y1460000
X1880000Y960000
X1860000Y620000
X1860000Y120000
X2360000Y120000
X2360000Y620000
X2380000Y960000
X2380000Y1460000
X2380000Y1960000
X2380000Y2460000
X2380000Y2960000
X2380000Y3460000
X2380000Y3960000
X2880000Y4960000
X2880000Y4460000
X2880000Y3960000
X2880000Y3460000
X2880000Y2960000
X2880000Y2460000
X2880000Y1960000
X2880000Y1460000
X2880000Y960000
X2860000Y620000
X2860000Y120000
X3360000Y120000
X3360000Y620000
X3380000Y960000
X3380000Y1460000
X3380000Y1960000
X3380000Y2460000
X3380000Y2960000
X3380000Y3460000
X3380000Y3960000
X3380000Y4460000
X3380000Y4960000
X5310000Y4880000
X5310000Y4380000
X5310000Y3880000
X5310000Y3330000
X5310000Y2830000
X5310000Y2330000
X5310000Y1830000
X5310000Y1330000
X5310000Y810000
X5310000Y310000
X5810000Y310000
X5810000Y810000
X5810000Y1330000
X5810000Y1830000
X5810000Y2330000
X5810000Y2830000
X5810000Y3330000
X5810000Y3880000
X5810000Y4380000
X5810000Y4880000
X6310000Y3870000
X6310000Y3330000
X6310000Y2830000
X6310000Y2330000
X6310000Y1830000
X6310000Y1330000
X6310000Y810000
X6310000Y310000
X6810000Y310000
X6810000Y810000
X6810000Y1330000
X6810000Y1830000
X6810000Y2330000
X6810000Y2830000
X6810000Y3330000
X6810000Y3870000
X7310000Y3870000
X7310000Y3330000
X7310000Y2830000
X7310000Y2330000
X7310000Y1830000
X7310000Y1330000
X7310000Y810000
X7310000Y310000
X7810000Y1330000
X7810000Y1830000
X7810000Y2330000
X7810000Y2830000
X7810000Y3330000
X7810000Y3870000
T02
X4790000Y4660000
T03
X3790000Y4660000
X4040000Y4660000
X4290000Y4660000
X4540000Y4660000
T04
X3600000Y910000
X3600000Y1210000
X3900000Y1210000
X3900000Y910000
X4200000Y910000
X4200000Y1210000
X4500000Y1210000
X4500000Y910000
X4800000Y910000
X4800000Y1210000
X5100000Y1210000
X5100000Y910000
T05
X360000Y360000
X360000Y5040000
X8140000Y5040000
X8140000Y360000
M30
