G04 ================== begin FILE IDENTIFICATION RECORD ==================*
G04 Layout Name:  HY_4S5P_ZJB_V10_260325.brd*
G04 Film Name:    SilkScreen_Top*
G04 File Format:  Gerber RS274X*
G04 File Origin:  Cadence Allegro 25.1-S020*
G04 Origin Date:  Wed Mar 25 16:07:08 2026*
G04 *
G04 Layer:  PACKAGE GEOMETRY/SILKSCREEN_TOP*
G04 Layer:  BOARD GEOMETRY/SILKSCREEN_TOP*
G04 *
G04 Offset:    (0.0000 0.0000)*
G04 Mirror:    No*
G04 Mode:      Positive*
G04 Rotation:  0*
G04 FullContactRelief:  No*
G04 UndefLineWidth:     0.1524*
G04 ================== end FILE IDENTIFICATION RECORD ====================*
%FSLAX55Y55*MOMM*%
%IR0*IPPOS*OFA0.00000B0.00000*MIA0B0*SFA1.00000B1.00000*%
%ADD10C,.2*%
%ADD11C,.1524*%
G75*
%LPD*%
G75*
G36*
G01X4675000Y4350000D02*
Y4400000D01*
X4425000D01*
X4175000D01*
X3915000D01*
Y4350000D01*
X4165000D01*
X4175000D01*
X4425000D01*
X4675000D01*
G37*
G36*
G01X5045000Y4940000D02*
Y4990000D01*
X4995000D01*
Y4940000D01*
X5045000D01*
G37*
G54D10*
G01X940000Y930000D02*
X20000D01*
Y1300000D01*
X940000D01*
Y930000D01*
G01X2135000Y4150000D02*
X1515000D01*
G01X1295000Y4590000D02*
Y4730000D01*
G01X1515000Y5170000D02*
X2135000D01*
G01X2095000Y4660000D02*
G03I-270000J0D01*
G01X2355000Y4730000D02*
Y4590000D01*
G01X3260000Y1030000D02*
X5440000D01*
Y10000D01*
X3260000D01*
Y1030000D01*
G01X3570000Y4450000D02*
Y4400000D01*
G01X3670000Y4450000D02*
X3570000D01*
G01X4670000Y4400000D02*
X3525000D01*
Y5000000D01*
X3775000D01*
G01X3670000Y4400000D02*
Y4450000D01*
G01X3665000Y4400000D02*
X3915000D01*
Y4350000D01*
X4675000D01*
Y4400000D01*
X4670000D01*
X5055000D01*
G01D02*
Y5000000D01*
X3775000D01*
G01X4260000Y10000D02*
Y150000D01*
X4430000D01*
Y10000D01*
G01X5015000Y4400000D02*
Y4450000D01*
X4915000D01*
Y4400000D01*
G01X6985000Y4150000D02*
X6365000D01*
G01X6945000Y4660000D02*
G03I-270000J0D01*
G01X6145000Y4590000D02*
Y4730000D01*
G01X6365000Y5170000D02*
X6985000D01*
G01X7205000Y4730000D02*
Y4590000D01*
G54D11*
G01X314000Y340000D02*
Y430000D01*
X340000Y355000D01*
X366000Y430000D01*
Y340000D01*
G01X389000D02*
Y430000D01*
G01X431000D02*
Y340000D01*
G01Y385000D02*
X389000D01*
G01X458000Y358000D02*
X464000Y347500D01*
X472000Y341500D01*
X481000Y340000D01*
X489000Y341500D01*
X497000Y349000D01*
X502000Y358000D01*
X503000Y367000D01*
X501000Y377500D01*
X494000Y385000D01*
X487000Y388000D01*
X478000D01*
G01X487000D02*
X493000Y392500D01*
X498000Y400000D01*
X500000Y409000D01*
X498000Y418000D01*
X493000Y425500D01*
X484000Y430000D01*
X475000Y428500D01*
X466000Y422500D01*
G01X102000Y1150000D02*
Y1240000D01*
X65000Y1175500D01*
X115000D01*
G01X139000Y1162000D02*
X147000Y1154500D01*
X156000Y1150000D01*
X164000D01*
X172000Y1154500D01*
X178000Y1162000D01*
X181000Y1172500D01*
X179000Y1183000D01*
X174000Y1192000D01*
X165000Y1198000D01*
X153000Y1201000D01*
X146000Y1207000D01*
X143000Y1217500D01*
X145000Y1228000D01*
X150000Y1235500D01*
X157000Y1240000D01*
X164000D01*
X171000Y1237000D01*
X177000Y1229500D01*
G01X208000Y1163500D02*
X214000Y1156000D01*
X221000Y1151500D01*
X230000Y1150000D01*
X239000Y1153000D01*
X246000Y1159000D01*
X251000Y1169500D01*
X252000Y1181500D01*
X250000Y1193500D01*
X245000Y1201000D01*
X238000Y1207000D01*
X231000Y1208500D01*
X224000Y1207000D01*
X215000Y1201000D01*
X218000Y1240000D01*
X245000D01*
G01X280000Y1150000D02*
Y1240000D01*
X304000D01*
X312000Y1235500D01*
X318000Y1225000D01*
X320000Y1213000D01*
X318000Y1201000D01*
X313000Y1192000D01*
X304000Y1187500D01*
X280000D01*
G01X340000Y1120000D02*
X400000D01*
G01X421000Y1240000D02*
X459000D01*
X421000Y1150000D01*
X459000D01*
G01X490000Y1168000D02*
X495000Y1159000D01*
X501000Y1153000D01*
X508000Y1150000D01*
X516000Y1153000D01*
X522000Y1159000D01*
X528000Y1168000D01*
X530000Y1180000D01*
Y1240000D01*
G01X588000Y1198000D02*
X592000Y1202500D01*
X595000Y1210000D01*
X597000Y1220500D01*
X595000Y1229500D01*
X591000Y1235500D01*
X584000Y1240000D01*
X557000D01*
Y1150000D01*
X590000D01*
X597000Y1156000D01*
X601000Y1165000D01*
X603000Y1175500D01*
X601000Y1186000D01*
X595000Y1195000D01*
X588000Y1198000D01*
X557000D01*
G01X620000Y1120000D02*
X680000D01*
G01X695000Y1240000D02*
X720000Y1150000D01*
X745000Y1240000D01*
G01X790000Y1150000D02*
Y1240000D01*
X778000Y1222000D01*
G01Y1150000D02*
X802000D01*
G01X860000Y1240000D02*
X852000Y1237000D01*
X846000Y1229500D01*
X842000Y1220500D01*
X839000Y1208500D01*
X838000Y1195000D01*
X839000Y1181500D01*
X842000Y1169500D01*
X846000Y1160500D01*
X852000Y1153000D01*
X860000Y1150000D01*
X868000Y1153000D01*
X874000Y1160500D01*
X878000Y1169500D01*
X881000Y1181500D01*
X882000Y1195000D01*
X881000Y1208500D01*
X878000Y1220500D01*
X874000Y1229500D01*
X868000Y1237000D01*
X860000Y1240000D01*
G01X71000Y1065000D02*
X77000Y1074000D01*
X84000Y1078500D01*
X92000Y1080000D01*
X102000Y1077000D01*
X109000Y1069500D01*
X111000Y1060500D01*
X110000Y1051500D01*
X106000Y1044000D01*
X86000Y1029000D01*
X77000Y1018500D01*
X71000Y1003500D01*
X69000Y990000D01*
X111000D01*
G01X141000Y1027500D02*
X148000Y1038000D01*
X154000Y1044000D01*
X162000Y1047000D01*
X169000Y1044000D01*
X174000Y1038000D01*
X178000Y1029000D01*
X179000Y1018500D01*
X178000Y1009500D01*
X174000Y1000500D01*
X168000Y993000D01*
X161000Y990000D01*
X153000Y993000D01*
X146000Y1002000D01*
X142000Y1015500D01*
X141000Y1030500D01*
X143000Y1050000D01*
X146000Y1060500D01*
X151000Y1071000D01*
X158000Y1078500D01*
X165000Y1080000D01*
X172000Y1077000D01*
X177000Y1069500D01*
G01X230000Y1080000D02*
X222000Y1077000D01*
X216000Y1069500D01*
X212000Y1060500D01*
X209000Y1048500D01*
X208000Y1035000D01*
X209000Y1021500D01*
X212000Y1009500D01*
X216000Y1000500D01*
X222000Y993000D01*
X230000Y990000D01*
X238000Y993000D01*
X244000Y1000500D01*
X248000Y1009500D01*
X251000Y1021500D01*
X252000Y1035000D01*
X251000Y1048500D01*
X248000Y1060500D01*
X244000Y1069500D01*
X238000Y1077000D01*
X230000Y1080000D01*
G01X278000Y1008000D02*
X284000Y997500D01*
X292000Y991500D01*
X301000Y990000D01*
X309000Y991500D01*
X317000Y999000D01*
X322000Y1008000D01*
X323000Y1017000D01*
X321000Y1027500D01*
X314000Y1035000D01*
X307000Y1038000D01*
X298000D01*
G01X307000D02*
X313000Y1042500D01*
X318000Y1050000D01*
X320000Y1059000D01*
X318000Y1068000D01*
X313000Y1075500D01*
X304000Y1080000D01*
X295000Y1078500D01*
X286000Y1072500D01*
G01X351000Y1065000D02*
X357000Y1074000D01*
X364000Y1078500D01*
X372000Y1080000D01*
X382000Y1077000D01*
X389000Y1069500D01*
X391000Y1060500D01*
X390000Y1051500D01*
X386000Y1044000D01*
X366000Y1029000D01*
X357000Y1018500D01*
X351000Y1003500D01*
X349000Y990000D01*
X391000D01*
G01X418000Y1003500D02*
X424000Y996000D01*
X431000Y991500D01*
X440000Y990000D01*
X449000Y993000D01*
X456000Y999000D01*
X461000Y1009500D01*
X462000Y1021500D01*
X460000Y1033500D01*
X455000Y1041000D01*
X448000Y1047000D01*
X441000Y1048500D01*
X434000Y1047000D01*
X425000Y1041000D01*
X428000Y1080000D01*
X455000D01*
G01X314000Y5020000D02*
Y5110000D01*
X340000Y5035000D01*
X366000Y5110000D01*
Y5020000D01*
G01X389000D02*
Y5110000D01*
G01X431000D02*
Y5020000D01*
G01Y5065000D02*
X389000D01*
G01X480000Y5020000D02*
Y5110000D01*
X468000Y5092000D01*
G01Y5020000D02*
X492000D01*
G01X1765000Y4648000D02*
X1770000Y4639000D01*
X1776000Y4633000D01*
X1783000Y4630000D01*
X1791000Y4633000D01*
X1797000Y4639000D01*
X1803000Y4648000D01*
X1805000Y4660000D01*
Y4720000D01*
G01X1833000Y4643500D02*
X1839000Y4636000D01*
X1846000Y4631500D01*
X1855000Y4630000D01*
X1864000Y4633000D01*
X1871000Y4639000D01*
X1876000Y4649500D01*
X1877000Y4661500D01*
X1875000Y4673500D01*
X1870000Y4681000D01*
X1863000Y4687000D01*
X1856000Y4688500D01*
X1849000Y4687000D01*
X1840000Y4681000D01*
X1843000Y4720000D01*
X1870000D01*
G01X3311750Y870000D02*
Y958900D01*
X3299050Y941120D01*
G01Y870000D02*
X3324450D01*
G01X3390490D02*
Y958900D01*
X3377790Y941120D01*
G01Y870000D02*
X3403190D01*
G01X3311750Y1160000D02*
Y1248900D01*
X3299050Y1231120D01*
G01Y1160000D02*
X3324450D01*
G01X3370380Y1234080D02*
X3376730Y1242970D01*
X3384140Y1247420D01*
X3392610Y1248900D01*
X3403190Y1245940D01*
X3410600Y1238530D01*
X3412720Y1229640D01*
X3411660Y1220750D01*
X3407420Y1213340D01*
X3386260Y1198520D01*
X3376730Y1188150D01*
X3370380Y1173330D01*
X3368260Y1160000D01*
X3412720D01*
G01X3782000Y5068000D02*
X3777500Y5072000D01*
X3770000Y5075000D01*
X3759500Y5077000D01*
X3750500Y5075000D01*
X3744500Y5071000D01*
X3740000Y5064000D01*
Y5037000D01*
X3830000D01*
Y5070000D01*
X3824000Y5077000D01*
X3815000Y5081000D01*
X3804500Y5083000D01*
X3794000Y5081000D01*
X3785000Y5075000D01*
X3782000Y5068000D01*
Y5037000D01*
G01X3830000Y5105000D02*
X3740000Y5130000D01*
X3830000Y5155000D01*
G01X3798500Y5146000D02*
Y5114000D01*
G01X3740000Y5200000D02*
X3830000D01*
G01X3740000Y5177000D02*
Y5223000D01*
G01X3830000Y5282000D02*
X3740000D01*
X3804500Y5245000D01*
Y5295000D01*
G01X4310000Y1058000D02*
X4315000Y1049000D01*
X4321000Y1043000D01*
X4328000Y1040000D01*
X4336000Y1043000D01*
X4342000Y1049000D01*
X4348000Y1058000D01*
X4350000Y1070000D01*
Y1130000D01*
G01X4378000Y1058000D02*
X4384000Y1047500D01*
X4392000Y1041500D01*
X4401000Y1040000D01*
X4409000Y1041500D01*
X4417000Y1049000D01*
X4422000Y1058000D01*
X4423000Y1067000D01*
X4421000Y1077500D01*
X4414000Y1085000D01*
X4407000Y1088000D01*
X4398000D01*
G01X4407000D02*
X4413000Y1092500D01*
X4418000Y1100000D01*
X4420000Y1109000D01*
X4418000Y1118000D01*
X4413000Y1125500D01*
X4404000Y1130000D01*
X4395000Y1128500D01*
X4386000Y1122500D01*
G01X4032000Y5068000D02*
X4027500Y5072000D01*
X4020000Y5075000D01*
X4009500Y5077000D01*
X4000500Y5075000D01*
X3994500Y5071000D01*
X3990000Y5064000D01*
Y5037000D01*
X4080000D01*
Y5070000D01*
X4074000Y5077000D01*
X4065000Y5081000D01*
X4054500Y5083000D01*
X4044000Y5081000D01*
X4035000Y5075000D01*
X4032000Y5068000D01*
Y5037000D01*
G01X4080000Y5105000D02*
X3990000Y5130000D01*
X4080000Y5155000D01*
G01X4048500Y5146000D02*
Y5114000D01*
G01X3990000Y5200000D02*
X4080000D01*
G01X3990000Y5177000D02*
Y5223000D01*
G01X4062000Y5248000D02*
X4072500Y5254000D01*
X4078500Y5262000D01*
X4080000Y5271000D01*
X4078500Y5279000D01*
X4071000Y5287000D01*
X4062000Y5292000D01*
X4053000Y5293000D01*
X4042500Y5291000D01*
X4035000Y5284000D01*
X4032000Y5277000D01*
Y5268000D01*
G01Y5277000D02*
X4027500Y5283000D01*
X4020000Y5288000D01*
X4011000Y5290000D01*
X4002000Y5288000D01*
X3994500Y5283000D01*
X3990000Y5274000D01*
X3991500Y5265000D01*
X3997500Y5256000D01*
G01X4282000Y5068000D02*
X4277500Y5072000D01*
X4270000Y5075000D01*
X4259500Y5077000D01*
X4250500Y5075000D01*
X4244500Y5071000D01*
X4240000Y5064000D01*
Y5037000D01*
X4330000D01*
Y5070000D01*
X4324000Y5077000D01*
X4315000Y5081000D01*
X4304500Y5083000D01*
X4294000Y5081000D01*
X4285000Y5075000D01*
X4282000Y5068000D01*
Y5037000D01*
G01X4330000Y5105000D02*
X4240000Y5130000D01*
X4330000Y5155000D01*
G01X4298500Y5146000D02*
Y5114000D01*
G01X4240000Y5200000D02*
X4330000D01*
G01X4240000Y5177000D02*
Y5223000D01*
G01X4255000Y5251000D02*
X4246000Y5257000D01*
X4241500Y5264000D01*
X4240000Y5272000D01*
X4243000Y5282000D01*
X4250500Y5289000D01*
X4259500Y5291000D01*
X4268500Y5290000D01*
X4276000Y5286000D01*
X4291000Y5266000D01*
X4301500Y5257000D01*
X4316500Y5251000D01*
X4330000Y5249000D01*
Y5291000D01*
G01X4900000Y4492000D02*
X4895000Y4501000D01*
X4889000Y4507000D01*
X4882000Y4510000D01*
X4874000Y4507000D01*
X4868000Y4501000D01*
X4862000Y4492000D01*
X4860000Y4480000D01*
Y4420000D01*
G01X4812000Y4510000D02*
X4810000Y4490500D01*
X4807000Y4474000D01*
X4803000Y4459000D01*
X4798000Y4442500D01*
X4790000Y4420000D01*
X4830000D01*
G01X4785000Y5066000D02*
Y5086000D01*
X4812000D01*
X4821000Y5080000D01*
X4827000Y5073000D01*
X4830000Y5063000D01*
X4827000Y5053000D01*
X4821000Y5046000D01*
X4812000Y5040000D01*
X4801500Y5036000D01*
X4789500Y5034000D01*
X4779000D01*
X4770000Y5036000D01*
X4759500Y5040000D01*
X4750500Y5046000D01*
X4744500Y5052000D01*
X4740000Y5060000D01*
Y5067000D01*
X4743000Y5075000D01*
X4749000Y5081000D01*
G01X4830000Y5107000D02*
X4740000D01*
X4830000Y5153000D01*
X4740000D01*
G01X4830000Y5178000D02*
X4740000D01*
Y5198000D01*
X4744500Y5206000D01*
X4750500Y5212000D01*
X4759500Y5217000D01*
X4770000Y5221000D01*
X4785000Y5222000D01*
X4800000Y5221000D01*
X4810500Y5217000D01*
X4819500Y5212000D01*
X4825500Y5206000D01*
X4830000Y5198000D01*
Y5178000D01*
G01X4532000Y5068000D02*
X4527500Y5072000D01*
X4520000Y5075000D01*
X4509500Y5077000D01*
X4500500Y5075000D01*
X4494500Y5071000D01*
X4490000Y5064000D01*
Y5037000D01*
X4580000D01*
Y5070000D01*
X4574000Y5077000D01*
X4565000Y5081000D01*
X4554500Y5083000D01*
X4544000Y5081000D01*
X4535000Y5075000D01*
X4532000Y5068000D01*
Y5037000D01*
G01X4580000Y5105000D02*
X4490000Y5130000D01*
X4580000Y5155000D01*
G01X4548500Y5146000D02*
Y5114000D01*
G01X4490000Y5200000D02*
X4580000D01*
G01X4490000Y5177000D02*
Y5223000D01*
G01X4580000Y5270000D02*
X4490000D01*
X4508000Y5258000D01*
G01X4580000D02*
Y5282000D01*
G01X5351750Y860000D02*
Y948900D01*
X5339050Y931120D01*
G01Y860000D02*
X5364450D01*
G01X5331640Y1234080D02*
X5337990Y1242970D01*
X5345400Y1247420D01*
X5353870Y1248900D01*
X5364450Y1245940D01*
X5371860Y1238530D01*
X5373980Y1229640D01*
X5372920Y1220750D01*
X5368680Y1213340D01*
X5347520Y1198520D01*
X5337990Y1188150D01*
X5331640Y1173330D01*
X5329520Y1160000D01*
X5373980D01*
G01X6615000Y4648000D02*
X6620000Y4639000D01*
X6626000Y4633000D01*
X6633000Y4630000D01*
X6641000Y4633000D01*
X6647000Y4639000D01*
X6653000Y4648000D01*
X6655000Y4660000D01*
Y4720000D01*
G01X6717000Y4630000D02*
Y4720000D01*
X6680000Y4655500D01*
X6730000D01*
G01X8094000Y340000D02*
Y430000D01*
X8120000Y355000D01*
X8146000Y430000D01*
Y340000D01*
G01X8169000D02*
Y430000D01*
G01X8211000D02*
Y340000D01*
G01Y385000D02*
X8169000D01*
G01X8272000Y340000D02*
Y430000D01*
X8235000Y365500D01*
X8285000D01*
G01X8094000Y5020000D02*
Y5110000D01*
X8120000Y5035000D01*
X8146000Y5110000D01*
Y5020000D01*
G01X8169000D02*
Y5110000D01*
G01X8211000D02*
Y5020000D01*
G01Y5065000D02*
X8169000D01*
G01X8241000Y5095000D02*
X8247000Y5104000D01*
X8254000Y5108500D01*
X8262000Y5110000D01*
X8272000Y5107000D01*
X8279000Y5099500D01*
X8281000Y5090500D01*
X8280000Y5081500D01*
X8276000Y5074000D01*
X8256000Y5059000D01*
X8247000Y5048500D01*
X8241000Y5033500D01*
X8239000Y5020000D01*
X8281000D01*
M02*
