G04 ================== begin FILE IDENTIFICATION RECORD ==================*
G04 Layout Name:  HY_POWERBANK_V10_250816.brd*
G04 Film Name:    BOTTOM*
G04 File Format:  Gerber RS274X*
G04 File Origin:  Cadence Allegro 24.1-S006*
G04 Origin Date:  Sat Aug 16 13:33:42 2025*
G04 *
G04 Layer:  ETCH/BOTTOM*
G04 Layer:  PIN/BOTTOM*
G04 Layer:  VIA CLASS/BOTTOM*
G04 *
G04 Offset:    (0.0000 0.0000)*
G04 Mirror:    No*
G04 Mode:      Positive*
G04 Rotation:  0*
G04 FullContactRelief:  No*
G04 UndefLineWidth:     0.1524*
G04 ================== end FILE IDENTIFICATION RECORD ====================*
%FSLAX55Y55*MOMM*%
%IR0*IPPOS*OFA0.00000B0.00000*MIA0B0*SFA1.00000B1.00000*%
%ADD12C,.6096*%
%ADD17O,1.X2.1*%
%ADD16O,1.X1.6*%
%ADD18O,1.2X2.4*%
%ADD15C,2.2*%
%ADD13C,1.3*%
%ADD14C,1.6*%
%ADD10C,2.5*%
%ADD20C,1.8*%
%ADD11C,6.9*%
%ADD19R,1.8X1.8*%
%ADD21C,.2032*%
%ADD22C,.254*%
%ADD23C,.508*%
%ADD24C,.8004*%
%ADD25C,2.5148*%
G75*
%LPD*%
G75*
G36*
G01X2820000Y3950000D02*
X8550000D01*
G02X8600000Y3900000I0J-50000D01*
G01Y100000D01*
G02X8550000Y50000I-50000J0D01*
G01X1722570D01*
G02X1702480Y73370I1J20321D01*
G03X1703740Y90000I-109478J16658D01*
G03X1482260I-110740J0D01*
G03X1483520Y73370I110738J28D01*
G02X1463430Y50000I-20091J-3049D01*
G01X100000D01*
G02X50000Y100000I0J50000D01*
G01Y3900000D01*
G02X100000Y3950000I50000J0D01*
G01X2030000D01*
Y3594040D01*
X2029980Y3593730D01*
G03X2029260Y3570000I390021J-23710D01*
G03X2029980Y3546270I390741J-20D01*
G01X2030000Y3545960D01*
Y3090000D01*
X2820000D01*
Y3950000D01*
G37*
%LPC*%
G75*
G36*
G01X3071560Y3020000D02*
Y3201070D01*
G02X3053780Y3250000I58437J48930D01*
G02X3206220I76220J0D01*
G02X3188440Y3201070I-76217J0D01*
G01Y3044210D01*
X3224210Y3008440D01*
X3501070D01*
G02X3598930I48930J-58437D01*
G01X4331070D01*
G02X4380000Y3026220I48930J-58437D01*
G02Y2873780I0J-76220D01*
G02X4331070Y2891560I0J76217D01*
G01X3598930D01*
G02X3501070I-48930J58437D01*
G01X3200000D01*
G02X3158680Y2908680I6J58438D01*
G01X3088680Y2978680D01*
G02X3071560Y3020000I41318J41326D01*
G37*
G36*
G01X6401560Y3054210D02*
Y3201070D01*
G02X6383780Y3250000I58437J48930D01*
G02X6536220I76220J0D01*
G02X6518440Y3201070I-76217J0D01*
G01Y3030000D01*
G02X6501320Y2988680I-58424J0D01*
G01X6421320Y2908680D01*
G02X6380000Y2891560I-41326J41318D01*
G01X5908930D01*
G02X5860000Y2873780I-48930J58437D01*
G02Y3026220I0J76220D01*
G02X5908930Y3008440I0J-76217D01*
G01X6355790D01*
X6401560Y3054210D01*
G37*
G36*
G01X3081560Y3710000D02*
Y3741070D01*
G02X3063780Y3790000I58437J48930D01*
G02X3216220I76220J0D01*
G02X3198440Y3741070I-76217J0D01*
G01Y3734210D01*
X3214210Y3718440D01*
X3590570D01*
G02X3688430I48930J-58437D01*
G01X4611070D01*
G02X4660000Y3736220I48930J-58437D01*
G02Y3583780I0J-76220D01*
G02X4611070Y3601560I0J76217D01*
G01X3688430D01*
G02X3590570I-48930J58437D01*
G01X3190000D01*
G02X3148680Y3618680I6J58438D01*
G01X3098680Y3668680D01*
G02X3081560Y3710000I41318J41326D01*
G37*
G36*
G01X6401560Y3614210D02*
Y3741070D01*
G02X6383780Y3790000I58437J48930D01*
G02X6536220I76220J0D01*
G02X6518440Y3741070I-76217J0D01*
G01Y3590000D01*
G02X6501320Y3548680I-58424J0D01*
G01X6461320Y3508680D01*
G02X6420000Y3491560I-41326J41318D01*
G01X5908930D01*
G02X5811070I-48930J58437D01*
G01X4878930D01*
G02X4830000Y3473780I-48930J58437D01*
G02Y3626220I0J76220D01*
G02X4878930Y3608440I0J-76217D01*
G01X5811070D01*
G02X5908930I48930J-58437D01*
G01X6395790D01*
X6401560Y3614210D01*
G37*
G36*
G01X7020000Y3855740D02*
X7200000D01*
G02X7245740Y3810000I0J-45740D01*
G01Y3630000D01*
G02X7200000Y3584260I-45740J0D01*
G01X7168440D01*
Y2654210D01*
X7264210Y2558440D01*
X8160000D01*
G02X8201320Y2541320I-6J-58438D01*
G01X8261320Y2481320D01*
G02X8278440Y2440000I-41318J-41326D01*
G01Y1860000D01*
G02X8261320Y1818680I-58438J6D01*
G01X8181320Y1738680D01*
G02X8140000Y1721560I-41326J41318D01*
G01X7950050D01*
G03X7930230Y1696770I3J-20320D01*
G02X7932100Y1680000I-74349J-16780D01*
G02X7855880Y1603780I-76220J0D01*
G02X7830130Y1608260I-4J76221D01*
G01X7828460Y1608860D01*
X7758510D01*
G03X7739880Y1580430I2J-20320D01*
G02X7746060Y1554910I-69880J-30431D01*
G03X7766340Y1535900I20278J1310D01*
G01X7936850D01*
X7953740Y1552800D01*
X7954060Y1556490D01*
G02X8030000Y1626220I75940J-6487D01*
G02X8106220Y1550000I0J-76220D01*
G02X8036490Y1474060I-76217J0D01*
G01X8032800Y1473740D01*
X7999530Y1440470D01*
G02X7960000Y1424100I-39530J39543D01*
G01X7213150D01*
X7195900Y1406850D01*
Y440000D01*
G02X7179530Y400470I-55913J0D01*
G01X7058570Y279510D01*
G02X7019040Y263140I-39530J39543D01*
G01X4830960D01*
G02X4791430Y279510I0J55913D01*
G01X4767200Y303740D01*
X4763510Y304060D01*
G02X4693780Y380000I6487J75940D01*
G02X4770000Y456220I76220J0D01*
G02X4845940Y386490I0J-76217D01*
G01X4846260Y382800D01*
X4854110Y374940D01*
X5028350D01*
X5028910Y384500D01*
G02X5105000Y456220I76090J-4503D01*
G02X5156170Y436490I0J-76220D01*
G03X5180560Y461870I4871J19728D01*
G02X5178980Y473000I38439J11134D01*
G02X5259020I40020J0D01*
G02X5257440Y461870I-40019J4D01*
G03X5276960Y435900I19519J-5650D01*
G01X6064440D01*
G03X6078800Y470590I-4J20319D01*
G01X5920530Y628860D01*
X3000000D01*
G02X2949700Y649700I6J71137D01*
G01X2829700Y769700D01*
G02X2808860Y820000I50283J50300D01*
G01Y1692580D01*
X2808260Y1694250D01*
G02X2803780Y1720000I71741J25746D01*
G02X2956220I76220J0D01*
G02X2951740Y1694250I-76221J-4D01*
G01X2951140Y1692580D01*
Y849470D01*
X3029470Y771140D01*
X4197160D01*
G03X4211530Y805830I0J20321D01*
G01X4203680Y813680D01*
G02X4186560Y855000I41318J41326D01*
G01Y906070D01*
G02X4168780Y955000I58437J48930D01*
G02X4321220I76220J0D01*
G02X4305530Y908680I-76218J0D01*
G01X4303440Y905950D01*
Y879210D01*
X4344210Y838440D01*
X4573450D01*
G03X4587820Y873130I1J20321D01*
G01X4579830Y881110D01*
G02X4563460Y920640I39543J39530D01*
G01Y949640D01*
G02X4533780Y1010000I46537J60360D01*
G02X4610000Y1086220I76220J0D01*
G02X4646830Y1076730I0J-76212D01*
G02X4683660Y1086220I36830J-66722D01*
G02X4686200Y1086180I70J-76221D01*
G03X4696690Y1095970I337J10154D01*
G02X4772860Y1169470I76170J-2718D01*
G02X4824670Y1149150I0J-76210D01*
G01X5172740D01*
G03X5187110Y1183840I1J20321D01*
G01X5177200Y1193740D01*
X5173510Y1194060D01*
G02X5103780Y1270000I6487J75940D01*
G02X5134540Y1331180I76222J0D01*
G03X5128220Y1366960I-12124J16307D01*
G02X5073780Y1440000I21777J73040D01*
G02X5150000Y1516220I76220J0D01*
G02X5198930Y1498440I0J-76217D01*
G01X5571070D01*
G02X5620000Y1516220I48930J-58437D01*
G02Y1363780I0J-76220D01*
G02X5571070Y1381560I0J76217D01*
G01X5338270D01*
G03X5319040Y1354660I-5J-20320D01*
G02X5322860Y1336490I-72123J-24649D01*
G01X5323180Y1332800D01*
X5350070Y1305900D01*
X5923660D01*
G03X5943940Y1324910I2J20320D01*
G02X5961560Y1368930I76061J-4909D01*
G01Y1765790D01*
X5935790Y1791560D01*
X5638930D01*
G02X5590000Y1773780I-48930J58437D01*
G02Y1926220I0J76220D01*
G02X5638930Y1908440I0J-76217D01*
G01X5960000D01*
G02X6001320Y1891320I-6J-58438D01*
G01X6061320Y1831320D01*
G02X6078440Y1790000I-41318J-41326D01*
G01Y1368930D01*
G02X6096060Y1324910I-58441J-48929D01*
G03X6116340Y1305900I20278J1310D01*
G01X6406850D01*
X7080470Y1979530D01*
G02X7120000Y1995900I39530J-39543D01*
G01X7718190D01*
G02X7770000Y2016220I51810J-55890D01*
G02X7846090Y1944500I0J-76223D01*
G01X7846650Y1934940D01*
X8045890D01*
X8053740Y1942800D01*
X8054060Y1946490D01*
G02X8130000Y2016220I75940J-6487D01*
G02X8138870Y2015700I-18J-76219D01*
G03X8161560Y2035880I2370J20182D01*
G01Y2415790D01*
X8135790Y2441560D01*
X7240000D01*
G02X7198680Y2458680I6J58438D01*
G01X7068680Y2588680D01*
G02X7051560Y2630000I41318J41326D01*
G01Y3584260D01*
X7020000D01*
G02X6974260Y3630000I0J45740D01*
G01Y3810000D01*
G02X7020000Y3855740I45740J0D01*
G37*
G54D24*
X4641000Y473000D03*
G54D25*
X1945000Y450000D03*
%LPD*%
G75*
G54D10*
X235000Y520000D03*
Y1020000D03*
X1005000Y520000D03*
Y1020000D03*
X7645000Y520000D03*
Y1020000D03*
X8415000Y520000D03*
Y1020000D03*
G54D11*
X620000Y770000D03*
Y3570000D03*
X1420000D03*
X2420000D03*
X8030000Y770000D03*
Y3570000D03*
G54D20*
X7364000Y3720000D03*
G54D21*
G01X4610000Y1010000D02*
X4619360Y1000640D01*
Y920640D01*
X4680640Y859360D01*
X6113160D01*
X6333160Y639360D01*
X6485580D01*
X6550320Y704100D01*
Y749680D01*
X6570640Y770000D01*
X6630000D01*
G01X8030000Y1550000D02*
X7960000Y1480000D01*
X7190000D01*
X7140000Y1430000D01*
Y440000D01*
X7019040Y319040D01*
X4830960D01*
X4770000Y380000D01*
G01X6430000Y770000D02*
X6489360D01*
X6509680Y749680D01*
Y720940D01*
X6468740Y680000D01*
X6350000D01*
X6130000Y900000D01*
X4697480D01*
X4670960Y926520D01*
Y997300D01*
X4683660Y1010000D01*
G01X6710000Y1320000D02*
X6483250Y1093250D01*
X4772860D01*
G01X6020000Y1010000D02*
X4760000D01*
G01X7670000Y1550000D02*
X7180000D01*
X7090000Y1460000D01*
Y470000D01*
X7000000Y380000D01*
X5105000D01*
G01X8130000Y1940000D02*
X8069040Y1879040D01*
X7129760D01*
X6450720Y1200000D01*
X5250000D01*
X5180000Y1270000D01*
G01X7770000Y1940000D02*
X7120000D01*
X6430000Y1250000D01*
X5326920D01*
X5246920Y1330000D01*
G54D12*
X270000Y170000D03*
X250000Y1280000D03*
Y1580000D03*
Y1880000D03*
Y2180000D03*
Y2480000D03*
Y2780000D03*
Y3080000D03*
X860000Y170000D03*
X570000D03*
X550000Y1280000D03*
X850000D03*
X550000Y1580000D03*
X850000D03*
X550000Y1880000D03*
X850000D03*
X550000Y2180000D03*
X850000D03*
X550000Y2480000D03*
X850000D03*
X550000Y2780000D03*
X850000D03*
X550000Y3080000D03*
X850000D03*
X1160000Y170000D03*
X1150000Y1280000D03*
Y1580000D03*
Y1880000D03*
Y2180000D03*
Y2480000D03*
Y2780000D03*
Y3080000D03*
X1450000Y1280000D03*
Y1580000D03*
Y1880000D03*
Y2180000D03*
Y2480000D03*
Y2780000D03*
Y3080000D03*
X1700000Y1580000D03*
Y1370000D03*
X2000000Y1380000D03*
Y1580000D03*
X1990000Y2120000D03*
X2070000Y270000D03*
Y1060000D03*
X2520000Y280000D03*
Y580000D03*
Y880000D03*
X2460000Y1610000D03*
X2650000Y1350000D03*
X2460000Y1910000D03*
X3000000Y270000D03*
Y570000D03*
Y910000D03*
X3060000Y1340000D03*
Y1640000D03*
X2880000Y1720000D03*
X2940000Y2630000D03*
Y2890000D03*
Y3490000D03*
Y3190000D03*
X3130000Y3250000D03*
X2940000Y3790000D03*
X3140000D03*
X3390000Y270000D03*
Y570000D03*
Y900000D03*
X3280000Y1910000D03*
X3360000Y1730000D03*
X3480000Y3890000D03*
X3330000D03*
X3780000Y220000D03*
X3810000Y570000D03*
X3580000Y1210000D03*
Y1510000D03*
Y1910000D03*
Y1730000D03*
X3700000Y2420000D03*
X3850000D03*
X3530000D03*
X3550000Y2950000D03*
X3630000Y3890000D03*
X3780000D03*
X3639500Y3660000D03*
X4170000Y220000D03*
X4110000Y570000D03*
Y800000D03*
X4245000Y955000D03*
X4130000Y2290000D03*
Y2140000D03*
X4000000Y2420000D03*
X3930000Y3890000D03*
X4610000Y1010000D03*
X4400000Y1390000D03*
X4520000D03*
X4640000D03*
X4400000Y1510000D03*
X4520000D03*
X4640000D03*
X4400000Y1630000D03*
X4520000D03*
X4640000D03*
X4400000Y1750000D03*
X4520000D03*
X4640000D03*
X4400000Y1870000D03*
X4520000D03*
X4640000D03*
X4380000Y2950000D03*
X4660000Y3660000D03*
X4790000Y120000D03*
X4770000Y380000D03*
X4683660Y1010000D03*
X4772860Y1093250D03*
X4760000Y1010000D03*
Y1390000D03*
X4880000D03*
X4760000Y1510000D03*
X4880000D03*
X4760000Y1630000D03*
X4880000D03*
X4760000Y1750000D03*
X4880000D03*
X4760000Y1870000D03*
X4880000D03*
X4830000Y3550000D03*
X5090000Y120000D03*
X5105000Y380000D03*
X5160000Y1170000D03*
X5150000Y1440000D03*
X5180000Y1270000D03*
X5246920Y1330000D03*
X5120000Y1960000D03*
X5150000Y2280000D03*
Y2130000D03*
X5270000Y2430000D03*
X5560000Y530000D03*
X5620000Y1440000D03*
X5590000Y1850000D03*
X5740000Y2430000D03*
X5590000D03*
X5440000D03*
X6100000Y120000D03*
X5860000Y530000D03*
X6020000Y1010000D03*
Y1320000D03*
X6180000Y1780000D03*
X5910000Y2430000D03*
X6080000D03*
X5860000Y2950000D03*
X6060000Y3890000D03*
Y3690000D03*
X5860000Y3550000D03*
X6400000Y120000D03*
X6430000Y770000D03*
X6380000Y2430000D03*
X6230000D03*
X6460000Y3250000D03*
X6360000Y3890000D03*
X6210000D03*
X6360000Y3690000D03*
X6210000D03*
X6460000Y3790000D03*
X6690000Y120000D03*
X6630000Y770000D03*
X6710000Y1320000D03*
X6940000Y3890000D03*
X6640000D03*
X6790000D03*
X6990000Y120000D03*
X7320000Y430000D03*
Y730000D03*
Y1020000D03*
Y1320000D03*
X7260000Y2160000D03*
X7040000D03*
X7260000Y2650000D03*
X6960000D03*
X7260000Y2390000D03*
X7040000D03*
X7260000Y2950000D03*
X6960000D03*
Y3250000D03*
X7260000D03*
X7110000Y3890000D03*
X7260000D03*
X6960000Y3530000D03*
X7260000D03*
X7550000Y140000D03*
X7670000Y1550000D03*
X7470000Y1680000D03*
X7570000Y2150000D03*
X7560000Y2650000D03*
Y2390000D03*
Y2950000D03*
X7410000Y3890000D03*
X7850000Y140000D03*
X8030000Y1550000D03*
X7855880Y1680000D03*
X7770000Y1940000D03*
X7930000Y2150000D03*
X7860000Y2650000D03*
Y2390000D03*
Y2950000D03*
X8440000Y140000D03*
X8140000D03*
X8460000Y1420000D03*
Y1720000D03*
X8130000Y1940000D03*
X8460000Y2010000D03*
Y2310000D03*
X8160000Y2650000D03*
X8460000D03*
X8160000Y2950000D03*
X8460000D03*
G54D22*
G01X3130000Y3250000D02*
Y3020000D01*
X3200000Y2950000D01*
X3550000D01*
G01X3140000Y3790000D02*
Y3710000D01*
X3190000Y3660000D01*
X3639500D01*
G01X4380000Y2950000D02*
X3550000D01*
G01X3639500Y3660000D02*
X4660000D01*
G01X7110000Y3720000D02*
Y2630000D01*
X7240000Y2500000D01*
X8160000D01*
X8220000Y2440000D01*
Y1860000D01*
X8140000Y1780000D01*
X7160000D01*
X6800000Y1420000D01*
Y680000D01*
X6680000Y560000D01*
X6260000D01*
X6040000Y780000D01*
X4320000D01*
X4245000Y855000D01*
Y955000D01*
G01X4830000Y3550000D02*
X5860000D01*
G01X5150000Y1440000D02*
X5620000D01*
G01X5590000Y1850000D02*
X5960000D01*
X6020000Y1790000D01*
Y1320000D01*
G01X6460000Y3250000D02*
Y3030000D01*
X6380000Y2950000D01*
X5860000D01*
G01X6460000Y3790000D02*
Y3590000D01*
X6420000Y3550000D01*
X5860000D01*
G54D13*
X1593000Y90000D03*
X1847000D03*
G54D23*
G01X2880000Y1720000D02*
Y820000D01*
X3000000Y700000D01*
X5950000D01*
X6180000Y470000D01*
X6770000D01*
X6940000Y640000D01*
Y1430000D01*
X7190000Y1680000D01*
X7470000D01*
G01X7855880D02*
X7470000D01*
G54D14*
X1495000Y450000D03*
X1945000D03*
G54D15*
X1370000Y700000D03*
X2070000D03*
G54D16*
X4498000Y108000D03*
X5362000D03*
G54D17*
X4498000Y526000D03*
X5362000D03*
G54D18*
X5885000Y105000D03*
X7175000D03*
G54D19*
X7110000Y3720000D03*
M02*
