G04 ================== begin FILE IDENTIFICATION RECORD ==================*
G04 Layout Name:  HY_POWERBANK_V10_250816.brd*
G04 Film Name:    Drill_Legend*
G04 File Format:  Gerber RS274X*
G04 File Origin:  Cadence Allegro 24.1-S006*
G04 Origin Date:  Sat Aug 16 13:33:42 2025*
G04 *
G04 Layer:  MANUFACTURING/NCLEGEND-1-2*
G04 Layer:  MANUFACTURING/NCDRILL_LEGEND*
G04 Layer:  MANUFACTURING/NCDRILL_FIGURE*
G04 Layer:  BOARD GEOMETRY/DIMENSION*
G04 *
G04 Offset:    (0.0000 0.0000)*
G04 Mirror:    No*
G04 Mode:      Positive*
G04 Rotation:  0*
G04 FullContactRelief:  No*
G04 UndefLineWidth:     0.1524*
G04 ================== end FILE IDENTIFICATION RECORD ====================*
%FSLAX55Y55*MOMM*%
%IR0*IPPOS*OFA0.00000B0.00000*MIA0B0*SFA1.00000B1.00000*%
%AMMACRO15*
1,1,.1524,.31066,-.75*
20,1,.1524,.31066,-.75,-.31066,-.75,0.0*
1,1,.1524,-.31066,-.75*
20,1,.1524,-.31066,-.75,-.75,-.31066,0.0*
1,1,.1524,-.75,-.31066*
20,1,.1524,-.75,-.31066,-.75,.31066,0.0*
1,1,.1524,-.75,.31066*
20,1,.1524,-.75,.31066,-.31066,.75,0.0*
1,1,.1524,-.31066,.75*
20,1,.1524,-.31066,.75,.31066,.75,0.0*
1,1,.1524,.31066,.75*
20,1,.1524,.31066,.75,.75,.31066,0.0*
1,1,.1524,.75,.31066*
20,1,.1524,.75,.31066,.75,-.31066,0.0*
1,1,.1524,.75,-.31066*
20,1,.1524,.75,-.31066,.31066,-.75,0.0*
1,1,.1524,.31066,-.75*
%
%ADD15MACRO15*%
%AMMACRO16*
1,1,.1524,-.3,-.3*
20,1,.1524,-.3,-.3,-.3,.3,0.0*
1,1,.1524,-.3,.3*
20,1,.1524,-.3,.3,-.295442,.352094,0.0*
1,1,.1524,-.295442,.352094*
20,1,.1524,-.295442,.352094,-.281908,.402606,0.0*
1,1,.1524,-.281908,.402606*
20,1,.1524,-.281908,.402606,-.259808,.45,0.0*
1,1,.1524,-.259808,.45*
20,1,.1524,-.259808,.45,-.229813,.492836,0.0*
1,1,.1524,-.229813,.492836*
20,1,.1524,-.229813,.492836,-.192836,.529813,0.0*
1,1,.1524,-.192836,.529813*
20,1,.1524,-.192836,.529813,-.15,.559808,0.0*
1,1,.1524,-.15,.559808*
20,1,.1524,-.15,.559808,-.102606,.581908,0.0*
1,1,.1524,-.102606,.581908*
20,1,.1524,-.102606,.581908,-.052094,.595442,0.0*
1,1,.1524,-.052094,.595442*
20,1,.1524,-.052094,.595442,0.0,.6,0.0*
1,1,.1524,0.0,.6*
20,1,.1524,0.0,.6,.052094,.595442,0.0*
1,1,.1524,.052094,.595442*
20,1,.1524,.052094,.595442,.102606,.581908,0.0*
1,1,.1524,.102606,.581908*
20,1,.1524,.102606,.581908,.15,.559808,0.0*
1,1,.1524,.15,.559808*
20,1,.1524,.15,.559808,.192836,.529813,0.0*
1,1,.1524,.192836,.529813*
20,1,.1524,.192836,.529813,.229813,.492836,0.0*
1,1,.1524,.229813,.492836*
20,1,.1524,.229813,.492836,.259808,.45,0.0*
1,1,.1524,.259808,.45*
20,1,.1524,.259808,.45,.281908,.402606,0.0*
1,1,.1524,.281908,.402606*
20,1,.1524,.281908,.402606,.295442,.352094,0.0*
1,1,.1524,.295442,.352094*
20,1,.1524,.295442,.352094,.3,.3,0.0*
1,1,.1524,.3,.3*
20,1,.1524,.3,.3,.3,-.3,0.0*
1,1,.1524,.3,-.3*
20,1,.1524,.3,-.3,.295442,-.352094,0.0*
1,1,.1524,.295442,-.352094*
20,1,.1524,.295442,-.352094,.281908,-.402606,0.0*
1,1,.1524,.281908,-.402606*
20,1,.1524,.281908,-.402606,.259808,-.45,0.0*
1,1,.1524,.259808,-.45*
20,1,.1524,.259808,-.45,.229813,-.492836,0.0*
1,1,.1524,.229813,-.492836*
20,1,.1524,.229813,-.492836,.192836,-.529813,0.0*
1,1,.1524,.192836,-.529813*
20,1,.1524,.192836,-.529813,.15,-.559808,0.0*
1,1,.1524,.15,-.559808*
20,1,.1524,.15,-.559808,.102606,-.581908,0.0*
1,1,.1524,.102606,-.581908*
20,1,.1524,.102606,-.581908,.052094,-.595442,0.0*
1,1,.1524,.052094,-.595442*
20,1,.1524,.052094,-.595442,0.0,-.6,0.0*
1,1,.1524,0.0,-.6*
20,1,.1524,0.0,-.6,-.052094,-.595442,0.0*
1,1,.1524,-.052094,-.595442*
20,1,.1524,-.052094,-.595442,-.102606,-.581908,0.0*
1,1,.1524,-.102606,-.581908*
20,1,.1524,-.102606,-.581908,-.15,-.559808,0.0*
1,1,.1524,-.15,-.559808*
20,1,.1524,-.15,-.559808,-.192836,-.529813,0.0*
1,1,.1524,-.192836,-.529813*
20,1,.1524,-.192836,-.529813,-.229813,-.492836,0.0*
1,1,.1524,-.229813,-.492836*
20,1,.1524,-.229813,-.492836,-.259808,-.45,0.0*
1,1,.1524,-.259808,-.45*
20,1,.1524,-.259808,-.45,-.281908,-.402606,0.0*
1,1,.1524,-.281908,-.402606*
20,1,.1524,-.281908,-.402606,-.295442,-.352094,0.0*
1,1,.1524,-.295442,-.352094*
20,1,.1524,-.295442,-.352094,-.3,-.3,0.0*
1,1,.1524,-.3,-.3*
1,1,.1524,-.15,-.15*
20,1,.1524,-.15,-.15,-.19,-.145,0.0*
1,1,.1524,-.19,-.145*
20,1,.1524,-.19,-.145,-.225,-.125,0.0*
1,1,.1524,-.225,-.125*
20,1,.1524,-.225,-.125,-.255,-.095,0.0*
1,1,.1524,-.255,-.095*
20,1,.1524,-.255,-.095,-.275,-.06,0.0*
1,1,.1524,-.275,-.06*
20,1,.1524,-.275,-.06,-.285,-.02,0.0*
1,1,.1524,-.285,-.02*
20,1,.1524,-.285,-.02,-.285,.02,0.0*
1,1,.1524,-.285,.02*
20,1,.1524,-.285,.02,-.275,.06,0.0*
1,1,.1524,-.275,.06*
20,1,.1524,-.275,.06,-.255,.095,0.0*
1,1,.1524,-.255,.095*
20,1,.1524,-.255,.095,-.225,.125,0.0*
1,1,.1524,-.225,.125*
20,1,.1524,-.225,.125,-.19,.145,0.0*
1,1,.1524,-.19,.145*
20,1,.1524,-.19,.145,-.15,.15,0.0*
1,1,.1524,-.15,.15*
20,1,.1524,-.15,.15,-.11,.145,0.0*
1,1,.1524,-.11,.145*
20,1,.1524,-.11,.145,-.075,.125,0.0*
1,1,.1524,-.075,.125*
20,1,.1524,-.075,.125,-.045,.095,0.0*
1,1,.1524,-.045,.095*
20,1,.1524,-.045,.095,-.025,.06,0.0*
1,1,.1524,-.025,.06*
20,1,.1524,-.025,.06,-.015,.02,0.0*
1,1,.1524,-.015,.02*
20,1,.1524,-.015,.02,-.015,-.02,0.0*
1,1,.1524,-.015,-.02*
20,1,.1524,-.015,-.02,-.025,-.06,0.0*
1,1,.1524,-.025,-.06*
20,1,.1524,-.025,-.06,-.045,-.095,0.0*
1,1,.1524,-.045,-.095*
20,1,.1524,-.045,-.095,-.075,-.125,0.0*
1,1,.1524,-.075,-.125*
20,1,.1524,-.075,-.125,-.11,-.145,0.0*
1,1,.1524,-.11,-.145*
20,1,.1524,-.11,-.145,-.15,-.15,0.0*
1,1,.1524,-.15,-.15*
1,1,.1524,.0251,-.15*
20,1,.1524,.0251,-.15,.1501,.15,0.0*
1,1,.1524,.1501,.15*
20,1,.1524,.1501,.15,.2751,-.15,0.0*
1,1,.1524,.2751,-.15*
1,1,.1524,.2301,-.045*
20,1,.1524,.2301,-.045,.0701,-.045,0.0*
1,1,.1524,.0701,-.045*
%
%ADD16MACRO16*%
%AMMACRO10*
1,1,.1524,.9,0.0*
20,1,.1524,.9,0.0,0.0,-.9,0.0*
1,1,.1524,0.0,-.9*
20,1,.1524,0.0,-.9,-.9,0.0,0.0*
1,1,.1524,-.9,0.0*
20,1,.1524,-.9,0.0,0.0,.9,0.0*
1,1,.1524,0.0,.9*
20,1,.1524,0.0,.9,.9,0.0,0.0*
1,1,.1524,.9,0.0*
%
%ADD10MACRO10*%
%AMMACRO18*
1,1,.1524,-.3,-.5*
20,1,.1524,-.3,-.5,-.3,.5,0.0*
1,1,.1524,-.3,.5*
20,1,.1524,-.3,.5,-.295442,.552094,0.0*
1,1,.1524,-.295442,.552094*
20,1,.1524,-.295442,.552094,-.281908,.602606,0.0*
1,1,.1524,-.281908,.602606*
20,1,.1524,-.281908,.602606,-.259808,.65,0.0*
1,1,.1524,-.259808,.65*
20,1,.1524,-.259808,.65,-.229813,.692836,0.0*
1,1,.1524,-.229813,.692836*
20,1,.1524,-.229813,.692836,-.192836,.729813,0.0*
1,1,.1524,-.192836,.729813*
20,1,.1524,-.192836,.729813,-.15,.759808,0.0*
1,1,.1524,-.15,.759808*
20,1,.1524,-.15,.759808,-.102606,.781908,0.0*
1,1,.1524,-.102606,.781908*
20,1,.1524,-.102606,.781908,-.052094,.795442,0.0*
1,1,.1524,-.052094,.795442*
20,1,.1524,-.052094,.795442,0.0,.8,0.0*
1,1,.1524,0.0,.8*
20,1,.1524,0.0,.8,.052094,.795442,0.0*
1,1,.1524,.052094,.795442*
20,1,.1524,.052094,.795442,.102606,.781908,0.0*
1,1,.1524,.102606,.781908*
20,1,.1524,.102606,.781908,.15,.759808,0.0*
1,1,.1524,.15,.759808*
20,1,.1524,.15,.759808,.192836,.729813,0.0*
1,1,.1524,.192836,.729813*
20,1,.1524,.192836,.729813,.229813,.692836,0.0*
1,1,.1524,.229813,.692836*
20,1,.1524,.229813,.692836,.259808,.65,0.0*
1,1,.1524,.259808,.65*
20,1,.1524,.259808,.65,.281908,.602606,0.0*
1,1,.1524,.281908,.602606*
20,1,.1524,.281908,.602606,.295442,.552094,0.0*
1,1,.1524,.295442,.552094*
20,1,.1524,.295442,.552094,.3,.5,0.0*
1,1,.1524,.3,.5*
20,1,.1524,.3,.5,.3,-.5,0.0*
1,1,.1524,.3,-.5*
20,1,.1524,.3,-.5,.295442,-.552094,0.0*
1,1,.1524,.295442,-.552094*
20,1,.1524,.295442,-.552094,.281908,-.602606,0.0*
1,1,.1524,.281908,-.602606*
20,1,.1524,.281908,-.602606,.259808,-.65,0.0*
1,1,.1524,.259808,-.65*
20,1,.1524,.259808,-.65,.229813,-.692836,0.0*
1,1,.1524,.229813,-.692836*
20,1,.1524,.229813,-.692836,.192836,-.729813,0.0*
1,1,.1524,.192836,-.729813*
20,1,.1524,.192836,-.729813,.15,-.759808,0.0*
1,1,.1524,.15,-.759808*
20,1,.1524,.15,-.759808,.102606,-.781908,0.0*
1,1,.1524,.102606,-.781908*
20,1,.1524,.102606,-.781908,.052094,-.795442,0.0*
1,1,.1524,.052094,-.795442*
20,1,.1524,.052094,-.795442,0.0,-.8,0.0*
1,1,.1524,0.0,-.8*
20,1,.1524,0.0,-.8,-.052094,-.795442,0.0*
1,1,.1524,-.052094,-.795442*
20,1,.1524,-.052094,-.795442,-.102606,-.781908,0.0*
1,1,.1524,-.102606,-.781908*
20,1,.1524,-.102606,-.781908,-.15,-.759808,0.0*
1,1,.1524,-.15,-.759808*
20,1,.1524,-.15,-.759808,-.192836,-.729813,0.0*
1,1,.1524,-.192836,-.729813*
20,1,.1524,-.192836,-.729813,-.229813,-.692836,0.0*
1,1,.1524,-.229813,-.692836*
20,1,.1524,-.229813,-.692836,-.259808,-.65,0.0*
1,1,.1524,-.259808,-.65*
20,1,.1524,-.259808,-.65,-.281908,-.602606,0.0*
1,1,.1524,-.281908,-.602606*
20,1,.1524,-.281908,-.602606,-.295442,-.552094,0.0*
1,1,.1524,-.295442,-.552094*
20,1,.1524,-.295442,-.552094,-.3,-.5,0.0*
1,1,.1524,-.3,-.5*
1,1,.1524,-.15,-.15*
20,1,.1524,-.15,-.15,-.19,-.145,0.0*
1,1,.1524,-.19,-.145*
20,1,.1524,-.19,-.145,-.225,-.125,0.0*
1,1,.1524,-.225,-.125*
20,1,.1524,-.225,-.125,-.255,-.095,0.0*
1,1,.1524,-.255,-.095*
20,1,.1524,-.255,-.095,-.275,-.06,0.0*
1,1,.1524,-.275,-.06*
20,1,.1524,-.275,-.06,-.285,-.02,0.0*
1,1,.1524,-.285,-.02*
20,1,.1524,-.285,-.02,-.285,.02,0.0*
1,1,.1524,-.285,.02*
20,1,.1524,-.285,.02,-.275,.06,0.0*
1,1,.1524,-.275,.06*
20,1,.1524,-.275,.06,-.255,.095,0.0*
1,1,.1524,-.255,.095*
20,1,.1524,-.255,.095,-.225,.125,0.0*
1,1,.1524,-.225,.125*
20,1,.1524,-.225,.125,-.19,.145,0.0*
1,1,.1524,-.19,.145*
20,1,.1524,-.19,.145,-.15,.15,0.0*
1,1,.1524,-.15,.15*
20,1,.1524,-.15,.15,-.11,.145,0.0*
1,1,.1524,-.11,.145*
20,1,.1524,-.11,.145,-.075,.125,0.0*
1,1,.1524,-.075,.125*
20,1,.1524,-.075,.125,-.045,.095,0.0*
1,1,.1524,-.045,.095*
20,1,.1524,-.045,.095,-.025,.06,0.0*
1,1,.1524,-.025,.06*
20,1,.1524,-.025,.06,-.015,.02,0.0*
1,1,.1524,-.015,.02*
20,1,.1524,-.015,.02,-.015,-.02,0.0*
1,1,.1524,-.015,-.02*
20,1,.1524,-.015,-.02,-.025,-.06,0.0*
1,1,.1524,-.025,-.06*
20,1,.1524,-.025,-.06,-.045,-.095,0.0*
1,1,.1524,-.045,-.095*
20,1,.1524,-.045,-.095,-.075,-.125,0.0*
1,1,.1524,-.075,-.125*
20,1,.1524,-.075,-.125,-.11,-.145,0.0*
1,1,.1524,-.11,-.145*
20,1,.1524,-.11,-.145,-.15,-.15,0.0*
1,1,.1524,-.15,-.15*
1,1,.1524,.1901,.01*
20,1,.1524,.1901,.01,.2101,.025,0.0*
1,1,.1524,.2101,.025*
20,1,.1524,.2101,.025,.2251,.05,0.0*
1,1,.1524,.2251,.05*
20,1,.1524,.2251,.05,.2351,.085,0.0*
1,1,.1524,.2351,.085*
20,1,.1524,.2351,.085,.2251,.115,0.0*
1,1,.1524,.2251,.115*
20,1,.1524,.2251,.115,.2051,.135,0.0*
1,1,.1524,.2051,.135*
20,1,.1524,.2051,.135,.1701,.15,0.0*
1,1,.1524,.1701,.15*
20,1,.1524,.1701,.15,.0351,.15,0.0*
1,1,.1524,.0351,.15*
20,1,.1524,.0351,.15,.0351,-.15,0.0*
1,1,.1524,.0351,-.15*
20,1,.1524,.0351,-.15,.2001,-.15,0.0*
1,1,.1524,.2001,-.15*
20,1,.1524,.2001,-.15,.2351,-.13,0.0*
1,1,.1524,.2351,-.13*
20,1,.1524,.2351,-.13,.2551,-.1,0.0*
1,1,.1524,.2551,-.1*
20,1,.1524,.2551,-.1,.2651,-.065,0.0*
1,1,.1524,.2651,-.065*
20,1,.1524,.2651,-.065,.2551,-.03,0.0*
1,1,.1524,.2551,-.03*
20,1,.1524,.2551,-.03,.2251,0.0,0.0*
1,1,.1524,.2251,0.0*
20,1,.1524,.2251,0.0,.1901,.01,0.0*
1,1,.1524,.1901,.01*
20,1,.1524,.1901,.01,.0351,.01,0.0*
1,1,.1524,.0351,.01*
%
%ADD18MACRO18*%
%AMMACRO13*
1,1,.1524,.4,.4*
20,1,.1524,.4,.4,.4,-.4,0.0*
1,1,.1524,.4,-.4*
20,1,.1524,.4,-.4,-.4,-.4,0.0*
1,1,.1524,-.4,-.4*
20,1,.1524,-.4,-.4,-.4,.4,0.0*
1,1,.1524,-.4,.4*
20,1,.1524,-.4,.4,.4,.4,0.0*
1,1,.1524,.4,.4*
%
%ADD13MACRO13*%
%AMMACRO17*
1,1,.1524,-.3,-.55*
20,1,.1524,-.3,-.55,-.3,.55,0.0*
1,1,.1524,-.3,.55*
20,1,.1524,-.3,.55,-.295442,.602094,0.0*
1,1,.1524,-.295442,.602094*
20,1,.1524,-.295442,.602094,-.281908,.652606,0.0*
1,1,.1524,-.281908,.652606*
20,1,.1524,-.281908,.652606,-.259808,.7,0.0*
1,1,.1524,-.259808,.7*
20,1,.1524,-.259808,.7,-.229813,.742836,0.0*
1,1,.1524,-.229813,.742836*
20,1,.1524,-.229813,.742836,-.192836,.779813,0.0*
1,1,.1524,-.192836,.779813*
20,1,.1524,-.192836,.779813,-.15,.809808,0.0*
1,1,.1524,-.15,.809808*
20,1,.1524,-.15,.809808,-.102606,.831908,0.0*
1,1,.1524,-.102606,.831908*
20,1,.1524,-.102606,.831908,-.052094,.845442,0.0*
1,1,.1524,-.052094,.845442*
20,1,.1524,-.052094,.845442,0.0,.85,0.0*
1,1,.1524,0.0,.85*
20,1,.1524,0.0,.85,.052094,.845442,0.0*
1,1,.1524,.052094,.845442*
20,1,.1524,.052094,.845442,.102606,.831908,0.0*
1,1,.1524,.102606,.831908*
20,1,.1524,.102606,.831908,.15,.809808,0.0*
1,1,.1524,.15,.809808*
20,1,.1524,.15,.809808,.192836,.779813,0.0*
1,1,.1524,.192836,.779813*
20,1,.1524,.192836,.779813,.229813,.742836,0.0*
1,1,.1524,.229813,.742836*
20,1,.1524,.229813,.742836,.259808,.7,0.0*
1,1,.1524,.259808,.7*
20,1,.1524,.259808,.7,.281908,.652606,0.0*
1,1,.1524,.281908,.652606*
20,1,.1524,.281908,.652606,.295442,.602094,0.0*
1,1,.1524,.295442,.602094*
20,1,.1524,.295442,.602094,.3,.55,0.0*
1,1,.1524,.3,.55*
20,1,.1524,.3,.55,.3,-.55,0.0*
1,1,.1524,.3,-.55*
20,1,.1524,.3,-.55,.295442,-.602094,0.0*
1,1,.1524,.295442,-.602094*
20,1,.1524,.295442,-.602094,.281908,-.652606,0.0*
1,1,.1524,.281908,-.652606*
20,1,.1524,.281908,-.652606,.259808,-.7,0.0*
1,1,.1524,.259808,-.7*
20,1,.1524,.259808,-.7,.229813,-.742836,0.0*
1,1,.1524,.229813,-.742836*
20,1,.1524,.229813,-.742836,.192836,-.779813,0.0*
1,1,.1524,.192836,-.779813*
20,1,.1524,.192836,-.779813,.15,-.809808,0.0*
1,1,.1524,.15,-.809808*
20,1,.1524,.15,-.809808,.102606,-.831908,0.0*
1,1,.1524,.102606,-.831908*
20,1,.1524,.102606,-.831908,.052094,-.845442,0.0*
1,1,.1524,.052094,-.845442*
20,1,.1524,.052094,-.845442,0.0,-.85,0.0*
1,1,.1524,0.0,-.85*
20,1,.1524,0.0,-.85,-.052094,-.845442,0.0*
1,1,.1524,-.052094,-.845442*
20,1,.1524,-.052094,-.845442,-.102606,-.831908,0.0*
1,1,.1524,-.102606,-.831908*
20,1,.1524,-.102606,-.831908,-.15,-.809808,0.0*
1,1,.1524,-.15,-.809808*
20,1,.1524,-.15,-.809808,-.192836,-.779813,0.0*
1,1,.1524,-.192836,-.779813*
20,1,.1524,-.192836,-.779813,-.229813,-.742836,0.0*
1,1,.1524,-.229813,-.742836*
20,1,.1524,-.229813,-.742836,-.259808,-.7,0.0*
1,1,.1524,-.259808,-.7*
20,1,.1524,-.259808,-.7,-.281908,-.652606,0.0*
1,1,.1524,-.281908,-.652606*
20,1,.1524,-.281908,-.652606,-.295442,-.602094,0.0*
1,1,.1524,-.295442,-.602094*
20,1,.1524,-.295442,-.602094,-.3,-.55,0.0*
1,1,.1524,-.3,-.55*
1,1,.1524,-.15,-.15*
20,1,.1524,-.15,-.15,-.19,-.145,0.0*
1,1,.1524,-.19,-.145*
20,1,.1524,-.19,-.145,-.225,-.125,0.0*
1,1,.1524,-.225,-.125*
20,1,.1524,-.225,-.125,-.255,-.095,0.0*
1,1,.1524,-.255,-.095*
20,1,.1524,-.255,-.095,-.275,-.06,0.0*
1,1,.1524,-.275,-.06*
20,1,.1524,-.275,-.06,-.285,-.02,0.0*
1,1,.1524,-.285,-.02*
20,1,.1524,-.285,-.02,-.285,.02,0.0*
1,1,.1524,-.285,.02*
20,1,.1524,-.285,.02,-.275,.06,0.0*
1,1,.1524,-.275,.06*
20,1,.1524,-.275,.06,-.255,.095,0.0*
1,1,.1524,-.255,.095*
20,1,.1524,-.255,.095,-.225,.125,0.0*
1,1,.1524,-.225,.125*
20,1,.1524,-.225,.125,-.19,.145,0.0*
1,1,.1524,-.19,.145*
20,1,.1524,-.19,.145,-.15,.15,0.0*
1,1,.1524,-.15,.15*
20,1,.1524,-.15,.15,-.11,.145,0.0*
1,1,.1524,-.11,.145*
20,1,.1524,-.11,.145,-.075,.125,0.0*
1,1,.1524,-.075,.125*
20,1,.1524,-.075,.125,-.045,.095,0.0*
1,1,.1524,-.045,.095*
20,1,.1524,-.045,.095,-.025,.06,0.0*
1,1,.1524,-.025,.06*
20,1,.1524,-.025,.06,-.015,.02,0.0*
1,1,.1524,-.015,.02*
20,1,.1524,-.015,.02,-.015,-.02,0.0*
1,1,.1524,-.015,-.02*
20,1,.1524,-.015,-.02,-.025,-.06,0.0*
1,1,.1524,-.025,-.06*
20,1,.1524,-.025,-.06,-.045,-.095,0.0*
1,1,.1524,-.045,-.095*
20,1,.1524,-.045,-.095,-.075,-.125,0.0*
1,1,.1524,-.075,-.125*
20,1,.1524,-.075,-.125,-.11,-.145,0.0*
1,1,.1524,-.11,-.145*
20,1,.1524,-.11,-.145,-.15,-.15,0.0*
1,1,.1524,-.15,-.15*
1,1,.1524,.2601,.125*
20,1,.1524,.2601,.125,.2301,.14,0.0*
1,1,.1524,.2301,.14*
20,1,.1524,.2301,.14,.1951,.15,0.0*
1,1,.1524,.1951,.15*
20,1,.1524,.1951,.15,.1551,.15,0.0*
1,1,.1524,.1551,.15*
20,1,.1524,.1551,.15,.1101,.135,0.0*
1,1,.1524,.1101,.135*
20,1,.1524,.1101,.135,.0751,.11,0.0*
1,1,.1524,.0751,.11*
20,1,.1524,.0751,.11,.0501,.08,0.0*
1,1,.1524,.0501,.08*
20,1,.1524,.0501,.08,.0301,.03,0.0*
1,1,.1524,.0301,.03*
20,1,.1524,.0301,.03,.0251,-.015,0.0*
1,1,.1524,.0251,-.015*
20,1,.1524,.0251,-.015,.0351,-.06,0.0*
1,1,.1524,.0351,-.06*
20,1,.1524,.0351,-.06,.0501,-.09,0.0*
1,1,.1524,.0501,-.09*
20,1,.1524,.0501,-.09,.0801,-.12,0.0*
1,1,.1524,.0801,-.12*
20,1,.1524,.0801,-.12,.1151,-.14,0.0*
1,1,.1524,.1151,-.14*
20,1,.1524,.1151,-.14,.1501,-.15,0.0*
1,1,.1524,.1501,-.15*
20,1,.1524,.1501,-.15,.1851,-.15,0.0*
1,1,.1524,.1851,-.15*
20,1,.1524,.1851,-.15,.2201,-.14,0.0*
1,1,.1524,.2201,-.14*
20,1,.1524,.2201,-.14,.2501,-.125,0.0*
1,1,.1524,.2501,-.125*
20,1,.1524,.2501,-.125,.2751,-.105,0.0*
1,1,.1524,.2751,-.105*
%
%ADD17MACRO17*%
%AMMACRO12*
1,1,.1524,.1524,0.0*
20,1,.1524,.1524,0.0,-.1524,0.0,0.0*
1,1,.1524,-.1524,0.0*
1,1,.1524,0.0,.1524*
20,1,.1524,0.0,.1524,0.0,-.1524,0.0*
1,1,.1524,0.0,-.1524*
%
%ADD12MACRO12*%
%AMMACRO19*
1,1,.1524,0.0,.55*
20,1,.1524,0.0,.55,-.476314,.275,0.0*
1,1,.1524,-.476314,.275*
20,1,.1524,-.476314,.275,-.476314,-.275,0.0*
1,1,.1524,-.476314,-.275*
20,1,.1524,-.476314,-.275,0.0,-.55,0.0*
1,1,.1524,0.0,-.55*
20,1,.1524,0.0,-.55,.476314,-.275,0.0*
1,1,.1524,.476314,-.275*
20,1,.1524,.476314,-.275,.476314,.275,0.0*
1,1,.1524,.476314,.275*
20,1,.1524,.476314,.275,0.0,.55,0.0*
1,1,.1524,0.0,.55*
%
%ADD19MACRO19*%
%AMMACRO11*
1,1,.1524,0.0,2.1*
20,1,.1524,0.0,2.1,1.818653,-1.05,0.0*
1,1,.1524,1.818653,-1.05*
20,1,.1524,1.818653,-1.05,-1.818653,-1.05,0.0*
1,1,.1524,-1.818653,-1.05*
20,1,.1524,-1.818653,-1.05,0.0,2.1,0.0*
1,1,.1524,0.0,2.1*
%
%ADD11MACRO11*%
%AMMACRO14*
1,1,.1524,.45,0.0*
20,1,.1524,.45,0.0,.225,.389711,0.0*
1,1,.1524,.225,.389711*
20,1,.1524,.225,.389711,-.225,.389711,0.0*
1,1,.1524,-.225,.389711*
20,1,.1524,-.225,.389711,-.45,0.0,0.0*
1,1,.1524,-.45,0.0*
20,1,.1524,-.45,0.0,-.225,-.389711,0.0*
1,1,.1524,-.225,-.389711*
20,1,.1524,-.225,-.389711,.225,-.389711,0.0*
1,1,.1524,.225,-.389711*
20,1,.1524,.225,-.389711,.45,0.0,0.0*
1,1,.1524,.45,0.0*
%
%ADD14MACRO14*%
%ADD20C,.1524*%
G75*
%LPD*%
G75*
G54D10*
X235000Y520000D03*
Y1020000D03*
X1005000Y520000D03*
Y1020000D03*
X7645000Y520000D03*
Y1020000D03*
X8415000Y520000D03*
Y1020000D03*
X10231730Y2637500D03*
G54D20*
G01X-1465540Y-435880D02*
X-1448950Y-413650D01*
X-1434720Y-400950D01*
X-1415760Y-394600D01*
X-1399160Y-400950D01*
X-1387310Y-413650D01*
X-1377830Y-432700D01*
X-1375460Y-454930D01*
X-1377830Y-473980D01*
X-1387310Y-493030D01*
X-1401540Y-508900D01*
X-1418130Y-515250D01*
X-1437090Y-508900D01*
X-1453690Y-489860D01*
X-1463170Y-461270D01*
X-1465540Y-429530D01*
X-1460800Y-388250D01*
X-1453690Y-366020D01*
X-1441840Y-343800D01*
X-1425240Y-327920D01*
X-1408650Y-324750D01*
X-1392050Y-331100D01*
X-1380200Y-346980D01*
G01X-1230000Y-521600D02*
X-1234740Y-518420D01*
Y-512080D01*
X-1230000Y-508900D01*
X-1225260Y-512080D01*
Y-518420D01*
X-1230000Y-521600D01*
G01X-1084540Y-356500D02*
X-1070320Y-337450D01*
X-1053720Y-327920D01*
X-1034760Y-324750D01*
X-1011050Y-331100D01*
X-994460Y-346980D01*
X-989720Y-366020D01*
X-992090Y-385080D01*
X-1001570Y-400950D01*
X-1048980Y-432700D01*
X-1070320Y-454930D01*
X-1084540Y-486680D01*
X-1089280Y-515250D01*
X-989720D01*
G01X-1716800Y2254750D02*
Y2445250D01*
X-1804520Y2308730D01*
X-1685980D01*
G01X-1554750Y2445250D02*
X-1573720Y2438900D01*
X-1587940Y2423020D01*
X-1597420Y2403980D01*
X-1604530Y2378570D01*
X-1606900Y2350000D01*
X-1604530Y2321420D01*
X-1597420Y2296020D01*
X-1587940Y2276970D01*
X-1573720Y2261100D01*
X-1554750Y2254750D01*
X-1535790Y2261100D01*
X-1521560Y2276970D01*
X-1512080Y2296020D01*
X-1504970Y2321420D01*
X-1502600Y2350000D01*
X-1504970Y2378570D01*
X-1512080Y2403980D01*
X-1521560Y2423020D01*
X-1535790Y2438900D01*
X-1554750Y2445250D01*
G01X-1307900Y1802850D02*
X-1293680Y1780620D01*
X-1274720Y1767920D01*
X-1253380Y1764750D01*
X-1234410Y1767920D01*
X-1215450Y1783800D01*
X-1203600Y1802850D01*
X-1201230Y1821900D01*
X-1205970Y1844120D01*
X-1222560Y1860000D01*
X-1239160Y1866350D01*
X-1260490D01*
G01X-1239160D02*
X-1224930Y1875870D01*
X-1213080Y1891750D01*
X-1208340Y1910800D01*
X-1213080Y1929850D01*
X-1224930Y1945720D01*
X-1246270Y1955250D01*
X-1267600Y1952080D01*
X-1288940Y1939370D01*
G01X-1117400Y1793320D02*
X-1103180Y1777450D01*
X-1086590Y1767920D01*
X-1065250Y1764750D01*
X-1043910Y1771100D01*
X-1027320Y1783800D01*
X-1015470Y1806020D01*
X-1013100Y1831420D01*
X-1017840Y1856820D01*
X-1029690Y1872700D01*
X-1046290Y1885400D01*
X-1062880Y1888570D01*
X-1079470Y1885400D01*
X-1100810Y1872700D01*
X-1093700Y1955250D01*
X-1029690D01*
G01X-874750Y1758400D02*
X-879490Y1761580D01*
Y1767920D01*
X-874750Y1771100D01*
X-870010Y1767920D01*
Y1761580D01*
X-874750Y1758400D01*
G01X-688990Y1764750D02*
X-684250Y1806020D01*
X-677140Y1840950D01*
X-667660Y1872700D01*
X-655800Y1907620D01*
X-636840Y1955250D01*
X-731660D01*
G01X-745240Y1234750D02*
X-740500Y1276020D01*
X-733390Y1310950D01*
X-723910Y1342700D01*
X-712050Y1377620D01*
X-693090Y1425250D01*
X-787910D01*
G01X-550000Y1228400D02*
X-554740Y1231580D01*
Y1237920D01*
X-550000Y1241100D01*
X-545260Y1237920D01*
Y1231580D01*
X-550000Y1228400D01*
G01X-364240Y1234750D02*
X-359500Y1276020D01*
X-352390Y1310950D01*
X-342910Y1342700D01*
X-331050Y1377620D01*
X-312090Y1425250D01*
X-406910D01*
G01X1064750Y-875250D02*
Y-684750D01*
X1036300Y-722850D01*
G01Y-875250D02*
X1093190D01*
G01X1255250D02*
Y-684750D01*
X1226800Y-722850D01*
G01Y-875250D02*
X1283690D01*
G01X1824460Y-1085880D02*
X1841050Y-1063650D01*
X1855280Y-1050950D01*
X1874240Y-1044600D01*
X1890840Y-1050950D01*
X1902690Y-1063650D01*
X1912170Y-1082700D01*
X1914540Y-1104930D01*
X1912170Y-1123980D01*
X1902690Y-1143030D01*
X1888460Y-1158900D01*
X1871870Y-1165250D01*
X1852910Y-1158900D01*
X1836310Y-1139860D01*
X1826830Y-1111270D01*
X1824460Y-1079530D01*
X1829200Y-1038250D01*
X1836310Y-1016020D01*
X1848160Y-993800D01*
X1864760Y-977920D01*
X1881350Y-974750D01*
X1897950Y-981100D01*
X1909800Y-996980D01*
G01X2060000Y-1171600D02*
X2055260Y-1168420D01*
Y-1162080D01*
X2060000Y-1158900D01*
X2064740Y-1162080D01*
Y-1168420D01*
X2060000Y-1171600D01*
G01X2250500Y-1165250D02*
X2267090Y-1162080D01*
X2286060Y-1152550D01*
X2297910Y-1136680D01*
X2302650Y-1114450D01*
X2297910Y-1092230D01*
X2283690Y-1073180D01*
X2262350Y-1063650D01*
X2238650D01*
X2224420Y-1057300D01*
X2212570Y-1041430D01*
X2207830Y-1019200D01*
X2214940Y-996980D01*
X2231530Y-981100D01*
X2250500Y-974750D01*
X2269460Y-981100D01*
X2286060Y-996980D01*
X2293170Y-1019200D01*
X2288430Y-1041430D01*
X2276580Y-1057300D01*
X2262350Y-1063650D01*
X2238650D01*
X2217310Y-1073180D01*
X2203090Y-1092230D01*
X2198350Y-1114450D01*
X2203090Y-1136680D01*
X2214940Y-1152550D01*
X2233910Y-1162080D01*
X2250500Y-1165250D01*
G01X2414250Y-1915250D02*
X2430840Y-1912080D01*
X2449810Y-1902550D01*
X2461660Y-1886680D01*
X2466400Y-1864450D01*
X2461660Y-1842230D01*
X2447440Y-1823180D01*
X2426100Y-1813650D01*
X2402400D01*
X2388170Y-1807300D01*
X2376320Y-1791430D01*
X2371580Y-1769200D01*
X2378690Y-1746980D01*
X2395280Y-1731100D01*
X2414250Y-1724750D01*
X2433210Y-1731100D01*
X2449810Y-1746980D01*
X2456920Y-1769200D01*
X2452180Y-1791430D01*
X2440330Y-1807300D01*
X2426100Y-1813650D01*
X2402400D01*
X2381060Y-1823180D01*
X2366840Y-1842230D01*
X2362100Y-1864450D01*
X2366840Y-1886680D01*
X2378690Y-1902550D01*
X2397660Y-1912080D01*
X2414250Y-1915250D01*
G01X2604750Y-1724750D02*
X2585780Y-1731100D01*
X2571560Y-1746980D01*
X2562080Y-1766020D01*
X2554970Y-1791430D01*
X2552600Y-1820000D01*
X2554970Y-1848580D01*
X2562080Y-1873980D01*
X2571560Y-1893030D01*
X2585780Y-1908900D01*
X2604750Y-1915250D01*
X2623710Y-1908900D01*
X2637940Y-1893030D01*
X2647420Y-1873980D01*
X2654530Y-1848580D01*
X2656900Y-1820000D01*
X2654530Y-1791430D01*
X2647420Y-1766020D01*
X2637940Y-1746980D01*
X2623710Y-1731100D01*
X2604750Y-1724750D01*
G01X2795250Y-1921600D02*
X2790510Y-1918420D01*
Y-1912080D01*
X2795250Y-1908900D01*
X2799990Y-1912080D01*
Y-1918420D01*
X2795250Y-1921600D01*
G01X2933600Y-1877150D02*
X2947820Y-1899380D01*
X2966780Y-1912080D01*
X2988120Y-1915250D01*
X3007090Y-1912080D01*
X3026050Y-1896200D01*
X3037900Y-1877150D01*
X3040270Y-1858100D01*
X3035530Y-1835880D01*
X3018940Y-1820000D01*
X3002340Y-1813650D01*
X2981010D01*
G01X3002340D02*
X3016570Y-1804130D01*
X3028420Y-1788250D01*
X3033160Y-1769200D01*
X3028420Y-1750150D01*
X3016570Y-1734280D01*
X2995230Y-1724750D01*
X2973900Y-1727920D01*
X2952560Y-1740630D01*
G01X2577850Y-836680D02*
X2592070Y-852550D01*
X2608660Y-862080D01*
X2630000Y-865250D01*
X2651340Y-858900D01*
X2667930Y-846200D01*
X2679780Y-823980D01*
X2682150Y-798580D01*
X2677410Y-773180D01*
X2665560Y-757300D01*
X2648960Y-744600D01*
X2632370Y-741430D01*
X2615780Y-744600D01*
X2594440Y-757300D01*
X2601550Y-674750D01*
X2665560D01*
G01X3244250Y-1395250D02*
Y-1204750D01*
X3215800Y-1242850D01*
G01Y-1395250D02*
X3272690D01*
G01X3434750D02*
Y-1204750D01*
X3406300Y-1242850D01*
G01Y-1395250D02*
X3463190D01*
G01X3625250Y-1401600D02*
X3620510Y-1398420D01*
Y-1392080D01*
X3625250Y-1388900D01*
X3629990Y-1392080D01*
Y-1398420D01*
X3625250Y-1401600D01*
G01X3811010Y-1395250D02*
X3815750Y-1353980D01*
X3822860Y-1319050D01*
X3832340Y-1287300D01*
X3844200Y-1252380D01*
X3863160Y-1204750D01*
X3768340D01*
G01X3944250Y-2365250D02*
X3960840Y-2362080D01*
X3979810Y-2352550D01*
X3991660Y-2336680D01*
X3996400Y-2314450D01*
X3991660Y-2292230D01*
X3977440Y-2273180D01*
X3956100Y-2263650D01*
X3932400D01*
X3918170Y-2257300D01*
X3906320Y-2241430D01*
X3901580Y-2219200D01*
X3908690Y-2196980D01*
X3925280Y-2181100D01*
X3944250Y-2174750D01*
X3963210Y-2181100D01*
X3979810Y-2196980D01*
X3986920Y-2219200D01*
X3982180Y-2241430D01*
X3970330Y-2257300D01*
X3956100Y-2263650D01*
X3932400D01*
X3911060Y-2273180D01*
X3896840Y-2292230D01*
X3892100Y-2314450D01*
X3896840Y-2336680D01*
X3908690Y-2352550D01*
X3927660Y-2362080D01*
X3944250Y-2365250D01*
G01X4089710Y-2285880D02*
X4106300Y-2263650D01*
X4120530Y-2250950D01*
X4139490Y-2244600D01*
X4156090Y-2250950D01*
X4167940Y-2263650D01*
X4177420Y-2282700D01*
X4179790Y-2304930D01*
X4177420Y-2323980D01*
X4167940Y-2343030D01*
X4153710Y-2358900D01*
X4137120Y-2365250D01*
X4118160Y-2358900D01*
X4101560Y-2339860D01*
X4092080Y-2311270D01*
X4089710Y-2279530D01*
X4094450Y-2238250D01*
X4101560Y-2216020D01*
X4113410Y-2193800D01*
X4130010Y-2177920D01*
X4146600Y-2174750D01*
X4163200Y-2181100D01*
X4175050Y-2196980D01*
G01X4325250Y-2371600D02*
X4320510Y-2368420D01*
Y-2362080D01*
X4325250Y-2358900D01*
X4329990Y-2362080D01*
Y-2368420D01*
X4325250Y-2371600D01*
G01X4463600Y-2336680D02*
X4477820Y-2352550D01*
X4494410Y-2362080D01*
X4515750Y-2365250D01*
X4537090Y-2358900D01*
X4553680Y-2346200D01*
X4565530Y-2323980D01*
X4567900Y-2298580D01*
X4563160Y-2273180D01*
X4551310Y-2257300D01*
X4534710Y-2244600D01*
X4518120Y-2241430D01*
X4501530Y-2244600D01*
X4480190Y-2257300D01*
X4487300Y-2174750D01*
X4551310D01*
G01X4229500Y-545250D02*
X4246090Y-542080D01*
X4265060Y-532550D01*
X4276910Y-516680D01*
X4281650Y-494450D01*
X4276910Y-472230D01*
X4262690Y-453180D01*
X4241350Y-443650D01*
X4217650D01*
X4203420Y-437300D01*
X4191570Y-421430D01*
X4186830Y-399200D01*
X4193940Y-376980D01*
X4210530Y-361100D01*
X4229500Y-354750D01*
X4248460Y-361100D01*
X4265060Y-376980D01*
X4272170Y-399200D01*
X4267430Y-421430D01*
X4255580Y-437300D01*
X4241350Y-443650D01*
X4217650D01*
X4196310Y-453180D01*
X4182090Y-472230D01*
X4177350Y-494450D01*
X4182090Y-516680D01*
X4193940Y-532550D01*
X4212910Y-542080D01*
X4229500Y-545250D01*
G01X4420000Y-551600D02*
X4415260Y-548420D01*
Y-542080D01*
X4420000Y-538900D01*
X4424740Y-542080D01*
Y-548420D01*
X4420000Y-551600D01*
G01X4565460Y-465880D02*
X4582050Y-443650D01*
X4596280Y-430950D01*
X4615240Y-424600D01*
X4631840Y-430950D01*
X4643690Y-443650D01*
X4653170Y-462700D01*
X4655540Y-484930D01*
X4653170Y-503980D01*
X4643690Y-523030D01*
X4629460Y-538900D01*
X4612870Y-545250D01*
X4593910Y-538900D01*
X4577310Y-519860D01*
X4567830Y-491270D01*
X4565460Y-459530D01*
X4570200Y-418250D01*
X4577310Y-396020D01*
X4589160Y-373800D01*
X4605760Y-357920D01*
X4622350Y-354750D01*
X4638950Y-361100D01*
X4650800Y-376980D01*
G01X5644750Y-1185250D02*
Y-994750D01*
X5616300Y-1032850D01*
G01Y-1185250D02*
X5673190D01*
G01X5790210Y-1105880D02*
X5806800Y-1083650D01*
X5821030Y-1070950D01*
X5839990Y-1064600D01*
X5856590Y-1070950D01*
X5868440Y-1083650D01*
X5877920Y-1102700D01*
X5880290Y-1124930D01*
X5877920Y-1143980D01*
X5868440Y-1163030D01*
X5854210Y-1178900D01*
X5837620Y-1185250D01*
X5818660Y-1178900D01*
X5802060Y-1159860D01*
X5792580Y-1131270D01*
X5790210Y-1099530D01*
X5794950Y-1058250D01*
X5802060Y-1036020D01*
X5813910Y-1013800D01*
X5830510Y-997920D01*
X5847100Y-994750D01*
X5863700Y-1001100D01*
X5875550Y-1016980D01*
G01X9369520Y6288750D02*
Y6606250D01*
X9519140D01*
G01X9464010Y6452800D02*
X9369520D01*
G01X9712050Y6606250D02*
X9806530D01*
G01X9759290D02*
Y6288750D01*
G01X9712050D02*
X9806530D01*
G01X10097870Y6447500D02*
X10176620D01*
Y6352250D01*
X10152990Y6320490D01*
X10125430Y6299330D01*
X10086060Y6288750D01*
X10046690Y6299330D01*
X10019130Y6320490D01*
X9995510Y6352250D01*
X9979760Y6389290D01*
X9971880Y6431620D01*
Y6468670D01*
X9979760Y6500410D01*
X9995510Y6537460D01*
X10019130Y6569210D01*
X10042750Y6590370D01*
X10074250Y6606250D01*
X10101810D01*
X10133300Y6595670D01*
X10156930Y6574500D01*
G01X10302600Y6606250D02*
Y6378710D01*
X10318340Y6331070D01*
X10349840Y6299330D01*
X10389210Y6288750D01*
X10428580Y6299330D01*
X10460080Y6331070D01*
X10475820Y6378710D01*
Y6606250D01*
G01X10625430Y6288750D02*
Y6606250D01*
X10723850D01*
X10755350Y6590370D01*
X10775040Y6569210D01*
X10782910Y6526870D01*
X10775040Y6484540D01*
X10751410Y6458090D01*
X10723850Y6442200D01*
X10625430D01*
G01X10723850D02*
X10782910Y6288750D01*
G01X11097870D02*
X10940390D01*
Y6606250D01*
X11097870D01*
G01X11034880Y6452800D02*
X10940390D01*
G01X11967940Y6288750D02*
Y6606250D01*
X12117560D01*
G01X12062430Y6452800D02*
X11967940D01*
G01X12310470Y6606250D02*
X12404950D01*
G01X12357710D02*
Y6288750D01*
G01X12310470D02*
X12404950D01*
G01X12582120D02*
Y6606250D01*
X12763220Y6288750D01*
Y6606250D01*
G01X12940390D02*
X13034870D01*
G01X12987630D02*
Y6288750D01*
G01X12940390D02*
X13034870D01*
G01X13219910Y6331070D02*
X13251410Y6304620D01*
X13286840Y6288750D01*
X13318340D01*
X13349830Y6304620D01*
X13373460Y6331070D01*
X13385270Y6368130D01*
X13377400Y6405160D01*
X13357710Y6436910D01*
X13322270Y6458090D01*
X13275030Y6468670D01*
X13247470Y6489830D01*
X13235660Y6526870D01*
X13243540Y6563920D01*
X13263220Y6590370D01*
X13290780Y6606250D01*
X13318340D01*
X13345900Y6595670D01*
X13369520Y6569210D01*
G01X13534870Y6288750D02*
Y6606250D01*
G01X13700230D02*
Y6288750D01*
G01Y6447500D02*
X13534870D01*
G01X14011250Y6288750D02*
X13853770D01*
Y6606250D01*
X14011250D01*
G01X13948260Y6452800D02*
X13853770D01*
G01X14160860Y6288750D02*
Y6606250D01*
X14239590D01*
X14271090Y6590370D01*
X14294710Y6569210D01*
X14314400Y6537460D01*
X14330150Y6500410D01*
X14334080Y6447500D01*
X14330150Y6394580D01*
X14314400Y6357540D01*
X14294710Y6325780D01*
X14271090Y6304620D01*
X14239590Y6288750D01*
X14160860D01*
G01X14444320Y6182920D02*
X14680540D01*
G01X14794710Y6331070D02*
X14826210Y6304620D01*
X14861640Y6288750D01*
X14893140D01*
X14924630Y6304620D01*
X14948260Y6331070D01*
X14960070Y6368130D01*
X14952200Y6405160D01*
X14932510Y6436910D01*
X14897070Y6458090D01*
X14849830Y6468670D01*
X14822270Y6489830D01*
X14810460Y6526870D01*
X14818340Y6563920D01*
X14838020Y6590370D01*
X14865580Y6606250D01*
X14893140D01*
X14920700Y6595670D01*
X14944320Y6569210D01*
G01X15145110Y6606250D02*
X15239590D01*
G01X15192350D02*
Y6288750D01*
G01X15145110D02*
X15239590D01*
G01X15432500Y6606250D02*
X15582120D01*
X15432500Y6288750D01*
X15582120D01*
G01X15901010D02*
X15743530D01*
Y6606250D01*
X15901010D01*
G01X15838020Y6452800D02*
X15743530D01*
G01X12987630Y-61250D02*
Y256250D01*
X12940390Y192750D01*
G01Y-61250D02*
X13034870D01*
G01X13302590Y-71830D02*
X13294710Y-66540D01*
Y-55960D01*
X13302590Y-50670D01*
X13310470Y-55960D01*
Y-66540D01*
X13302590Y-71830D01*
G01X13609670Y-61250D02*
X13617550Y7540D01*
X13629360Y65740D01*
X13645110Y118670D01*
X13664790Y176870D01*
X13696290Y256250D01*
X13538810D01*
G01X13873460Y150410D02*
X13991560Y-61250D01*
G01Y150410D02*
X13873460Y-61250D01*
G01X14247470Y256250D02*
X14215970Y245670D01*
X14192350Y219210D01*
X14176600Y187460D01*
X14164790Y145120D01*
X14160860Y97500D01*
X14164790Y49870D01*
X14176600Y7540D01*
X14192350Y-24220D01*
X14215970Y-50670D01*
X14247470Y-61250D01*
X14278960Y-50670D01*
X14302590Y-24220D01*
X14318340Y7540D01*
X14330150Y49870D01*
X14334080Y97500D01*
X14330150Y145120D01*
X14318340Y187460D01*
X14302590Y219210D01*
X14278960Y245670D01*
X14247470Y256250D01*
G01X14562430Y-71830D02*
X14554550Y-66540D01*
Y-55960D01*
X14562430Y-50670D01*
X14570310Y-55960D01*
Y-66540D01*
X14562430Y-71830D01*
G01X14802580Y71030D02*
X14830150Y108090D01*
X14853770Y129250D01*
X14885270Y139830D01*
X14912830Y129250D01*
X14932510Y108090D01*
X14948260Y76330D01*
X14952200Y39290D01*
X14948260Y7540D01*
X14932510Y-24220D01*
X14908880Y-50670D01*
X14881330Y-61250D01*
X14849830Y-50670D01*
X14822270Y-18930D01*
X14806520Y28710D01*
X14802580Y81620D01*
X14810460Y150410D01*
X14822270Y187460D01*
X14841950Y224500D01*
X14869510Y250960D01*
X14897070Y256250D01*
X14924630Y245670D01*
X14944320Y219210D01*
G01X12987630Y573750D02*
Y891250D01*
X12940390Y827750D01*
G01Y573750D02*
X13034870D01*
G01X13302590Y563170D02*
X13294710Y568460D01*
Y579040D01*
X13302590Y584330D01*
X13310470Y579040D01*
Y568460D01*
X13302590Y563170D01*
G01X13542740Y706030D02*
X13570310Y743090D01*
X13593930Y764250D01*
X13625430Y774830D01*
X13652990Y764250D01*
X13672670Y743090D01*
X13688420Y711330D01*
X13692360Y674290D01*
X13688420Y642540D01*
X13672670Y610780D01*
X13649040Y584330D01*
X13621490Y573750D01*
X13589990Y584330D01*
X13562430Y616070D01*
X13546680Y663710D01*
X13542740Y716620D01*
X13550620Y785410D01*
X13562430Y822460D01*
X13582110Y859500D01*
X13609670Y885960D01*
X13637230Y891250D01*
X13664790Y880670D01*
X13684480Y854210D01*
G01X13873460Y785410D02*
X13991560Y573750D01*
G01Y785410D02*
X13873460Y573750D01*
G01X14247470Y891250D02*
X14215970Y880670D01*
X14192350Y854210D01*
X14176600Y822460D01*
X14164790Y780120D01*
X14160860Y732500D01*
X14164790Y684870D01*
X14176600Y642540D01*
X14192350Y610780D01*
X14215970Y584330D01*
X14247470Y573750D01*
X14278960Y584330D01*
X14302590Y610780D01*
X14318340Y642540D01*
X14330150Y684870D01*
X14334080Y732500D01*
X14330150Y780120D01*
X14318340Y822460D01*
X14302590Y854210D01*
X14278960Y880670D01*
X14247470Y891250D01*
G01X14562430Y563170D02*
X14554550Y568460D01*
Y579040D01*
X14562430Y584330D01*
X14570310Y579040D01*
Y568460D01*
X14562430Y563170D01*
G01X14802580Y706030D02*
X14830150Y743090D01*
X14853770Y764250D01*
X14885270Y774830D01*
X14912830Y764250D01*
X14932510Y743090D01*
X14948260Y711330D01*
X14952200Y674290D01*
X14948260Y642540D01*
X14932510Y610780D01*
X14908880Y584330D01*
X14881330Y573750D01*
X14849830Y584330D01*
X14822270Y616070D01*
X14806520Y663710D01*
X14802580Y716620D01*
X14810460Y785410D01*
X14822270Y822460D01*
X14841950Y859500D01*
X14869510Y885960D01*
X14897070Y891250D01*
X14924630Y880670D01*
X14944320Y854210D01*
G01X12987630Y1208750D02*
Y1526250D01*
X12940390Y1462750D01*
G01Y1208750D02*
X13034870D01*
G01X13302590Y1198170D02*
X13294710Y1203460D01*
Y1214040D01*
X13302590Y1219330D01*
X13310470Y1214040D01*
Y1203460D01*
X13302590Y1198170D01*
G01X13542740Y1473330D02*
X13566370Y1505080D01*
X13593930Y1520960D01*
X13625430Y1526250D01*
X13664790Y1515670D01*
X13692360Y1489210D01*
X13700230Y1457460D01*
X13696290Y1425700D01*
X13680540Y1399250D01*
X13601800Y1346330D01*
X13566370Y1309290D01*
X13542740Y1256360D01*
X13534870Y1208750D01*
X13700230D01*
G01X13873460Y1420410D02*
X13991560Y1208750D01*
G01Y1420410D02*
X13873460Y1208750D01*
G01X14247470Y1526250D02*
X14215970Y1515670D01*
X14192350Y1489210D01*
X14176600Y1457460D01*
X14164790Y1415120D01*
X14160860Y1367500D01*
X14164790Y1319870D01*
X14176600Y1277540D01*
X14192350Y1245780D01*
X14215970Y1219330D01*
X14247470Y1208750D01*
X14278960Y1219330D01*
X14302590Y1245780D01*
X14318340Y1277540D01*
X14330150Y1319870D01*
X14334080Y1367500D01*
X14330150Y1415120D01*
X14318340Y1457460D01*
X14302590Y1489210D01*
X14278960Y1515670D01*
X14247470Y1526250D01*
G01X14562430Y1198170D02*
X14554550Y1203460D01*
Y1214040D01*
X14562430Y1219330D01*
X14570310Y1214040D01*
Y1203460D01*
X14562430Y1198170D01*
G01X14802580Y1341030D02*
X14830150Y1378090D01*
X14853770Y1399250D01*
X14885270Y1409830D01*
X14912830Y1399250D01*
X14932510Y1378090D01*
X14948260Y1346330D01*
X14952200Y1309290D01*
X14948260Y1277540D01*
X14932510Y1245780D01*
X14908880Y1219330D01*
X14881330Y1208750D01*
X14849830Y1219330D01*
X14822270Y1251070D01*
X14806520Y1298710D01*
X14802580Y1351620D01*
X14810460Y1420410D01*
X14822270Y1457460D01*
X14841950Y1494500D01*
X14869510Y1520960D01*
X14897070Y1526250D01*
X14924630Y1515670D01*
X14944320Y1489210D01*
G01X13145110Y5971250D02*
X13113610Y5960670D01*
X13089990Y5934210D01*
X13074240Y5902460D01*
X13062430Y5860120D01*
X13058500Y5812500D01*
X13062430Y5764870D01*
X13074240Y5722540D01*
X13089990Y5690780D01*
X13113610Y5664330D01*
X13145110Y5653750D01*
X13176600Y5664330D01*
X13200230Y5690780D01*
X13215980Y5722540D01*
X13227790Y5764870D01*
X13231720Y5812500D01*
X13227790Y5860120D01*
X13215980Y5902460D01*
X13200230Y5934210D01*
X13176600Y5960670D01*
X13145110Y5971250D01*
G01X13460070Y5643170D02*
X13452190Y5648460D01*
Y5659040D01*
X13460070Y5664330D01*
X13467950Y5659040D01*
Y5648460D01*
X13460070Y5643170D01*
G01X13688420Y5717250D02*
X13712030Y5680200D01*
X13743530Y5659040D01*
X13778970Y5653750D01*
X13810470Y5659040D01*
X13841960Y5685490D01*
X13861640Y5717250D01*
X13865580Y5749000D01*
X13857710Y5786030D01*
X13830150Y5812500D01*
X13802590Y5823090D01*
X13767150D01*
G01X13802590D02*
X13826210Y5838960D01*
X13845900Y5865410D01*
X13853770Y5897160D01*
X13845900Y5928920D01*
X13826210Y5955370D01*
X13790780Y5971250D01*
X13755350Y5965960D01*
X13719910Y5944790D01*
G01X14089990Y5971250D02*
X14058490Y5960670D01*
X14034870Y5934210D01*
X14019120Y5902460D01*
X14007310Y5860120D01*
X14003380Y5812500D01*
X14007310Y5764870D01*
X14019120Y5722540D01*
X14034870Y5690780D01*
X14058490Y5664330D01*
X14089990Y5653750D01*
X14121480Y5664330D01*
X14145110Y5690780D01*
X14160860Y5722540D01*
X14172670Y5764870D01*
X14176600Y5812500D01*
X14172670Y5860120D01*
X14160860Y5902460D01*
X14145110Y5934210D01*
X14121480Y5960670D01*
X14089990Y5971250D01*
G01X14452190Y5653750D02*
Y5971250D01*
X14306520Y5743710D01*
X14503380D01*
G01X14719910Y5653750D02*
X14747470Y5659040D01*
X14778960Y5674910D01*
X14798650Y5701360D01*
X14806520Y5738420D01*
X14798650Y5775450D01*
X14775030Y5807200D01*
X14739590Y5823090D01*
X14700230D01*
X14676600Y5833670D01*
X14656910Y5860120D01*
X14649040Y5897160D01*
X14660860Y5934210D01*
X14688410Y5960670D01*
X14719910Y5971250D01*
X14751400Y5960670D01*
X14778960Y5934210D01*
X14790780Y5897160D01*
X14782900Y5860120D01*
X14763220Y5833670D01*
X14739590Y5823090D01*
X14700230D01*
X14664790Y5807200D01*
X14641170Y5775450D01*
X14633300Y5738420D01*
X14641170Y5701360D01*
X14660860Y5674910D01*
X14692350Y5659040D01*
X14719910Y5653750D01*
G01X13664790Y1843750D02*
Y2161250D01*
X13519120Y1933710D01*
X13715980D01*
G01X13932510Y1833170D02*
X13924630Y1838460D01*
Y1849040D01*
X13932510Y1854330D01*
X13940390Y1849040D01*
Y1838460D01*
X13932510Y1833170D01*
G01X14172660Y2108330D02*
X14196290Y2140080D01*
X14223850Y2155960D01*
X14255350Y2161250D01*
X14294710Y2150670D01*
X14322280Y2124210D01*
X14330150Y2092460D01*
X14326210Y2060700D01*
X14310460Y2034250D01*
X14231720Y1981330D01*
X14196290Y1944290D01*
X14172660Y1891360D01*
X14164790Y1843750D01*
X14330150D01*
G01X13617550Y2478750D02*
Y2796250D01*
X13570310Y2732750D01*
G01Y2478750D02*
X13664790D01*
G01X13932510Y2468170D02*
X13924630Y2473460D01*
Y2484040D01*
X13932510Y2489330D01*
X13940390Y2484040D01*
Y2473460D01*
X13932510Y2468170D01*
G01X14247470Y2478750D02*
X14275030Y2484040D01*
X14306520Y2499910D01*
X14326210Y2526360D01*
X14334080Y2563420D01*
X14326210Y2600450D01*
X14302590Y2632200D01*
X14267150Y2648090D01*
X14227790D01*
X14204160Y2658670D01*
X14184470Y2685120D01*
X14176600Y2722160D01*
X14188420Y2759210D01*
X14215970Y2785670D01*
X14247470Y2796250D01*
X14278960Y2785670D01*
X14306520Y2759210D01*
X14318340Y2722160D01*
X14310460Y2685120D01*
X14290780Y2658670D01*
X14267150Y2648090D01*
X14227790D01*
X14192350Y2632200D01*
X14168730Y2600450D01*
X14160860Y2563420D01*
X14168730Y2526360D01*
X14188420Y2499910D01*
X14219910Y2484040D01*
X14247470Y2478750D01*
G01X13617550Y3113750D02*
Y3431250D01*
X13570310Y3367750D01*
G01Y3113750D02*
X13664790D01*
G01X13932510Y3103170D02*
X13924630Y3108460D01*
Y3119040D01*
X13932510Y3124330D01*
X13940390Y3119040D01*
Y3108460D01*
X13932510Y3103170D01*
G01X14160860Y3161360D02*
X14184470Y3134910D01*
X14212030Y3119040D01*
X14247470Y3113750D01*
X14282910Y3124330D01*
X14310460Y3145490D01*
X14330150Y3182540D01*
X14334080Y3224870D01*
X14326210Y3267200D01*
X14306520Y3293670D01*
X14278960Y3314830D01*
X14251410Y3320120D01*
X14223850Y3314830D01*
X14188420Y3293670D01*
X14200230Y3431250D01*
X14306520D01*
G01X13617550Y3748750D02*
Y4066250D01*
X13570310Y4002750D01*
G01Y3748750D02*
X13664790D01*
G01X13932510Y3738170D02*
X13924630Y3743460D01*
Y3754040D01*
X13932510Y3759330D01*
X13940390Y3754040D01*
Y3743460D01*
X13932510Y3738170D01*
G01X14247470Y3748750D02*
Y4066250D01*
X14200230Y4002750D01*
G01Y3748750D02*
X14294710D01*
G01X13617550Y4701250D02*
X13586050Y4690670D01*
X13562430Y4664210D01*
X13546680Y4632460D01*
X13534870Y4590120D01*
X13530940Y4542500D01*
X13534870Y4494870D01*
X13546680Y4452540D01*
X13562430Y4420780D01*
X13586050Y4394330D01*
X13617550Y4383750D01*
X13649040Y4394330D01*
X13672670Y4420780D01*
X13688420Y4452540D01*
X13700230Y4494870D01*
X13704160Y4542500D01*
X13700230Y4590120D01*
X13688420Y4632460D01*
X13672670Y4664210D01*
X13649040Y4690670D01*
X13617550Y4701250D01*
G01X13932510Y4373170D02*
X13924630Y4378460D01*
Y4389040D01*
X13932510Y4394330D01*
X13940390Y4389040D01*
Y4378460D01*
X13932510Y4373170D01*
G01X14180540Y4420780D02*
X14208100Y4394330D01*
X14239590Y4383750D01*
X14271090Y4394330D01*
X14298650Y4426070D01*
X14318340Y4473710D01*
X14326210Y4521330D01*
Y4579540D01*
X14318340Y4627160D01*
X14298650Y4669500D01*
X14275030Y4690670D01*
X14247470Y4701250D01*
X14215970Y4690670D01*
X14192350Y4669500D01*
X14176600Y4637750D01*
X14168730Y4595410D01*
X14176600Y4558380D01*
X14196290Y4521330D01*
X14219910Y4500160D01*
X14247470Y4494870D01*
X14278960Y4505450D01*
X14302590Y4531910D01*
X14326210Y4579540D01*
G01X13617550Y5336250D02*
X13586050Y5325670D01*
X13562430Y5299210D01*
X13546680Y5267460D01*
X13534870Y5225120D01*
X13530940Y5177500D01*
X13534870Y5129870D01*
X13546680Y5087540D01*
X13562430Y5055780D01*
X13586050Y5029330D01*
X13617550Y5018750D01*
X13649040Y5029330D01*
X13672670Y5055780D01*
X13688420Y5087540D01*
X13700230Y5129870D01*
X13704160Y5177500D01*
X13700230Y5225120D01*
X13688420Y5267460D01*
X13672670Y5299210D01*
X13649040Y5325670D01*
X13617550Y5336250D01*
G01X13932510Y5008170D02*
X13924630Y5013460D01*
Y5024040D01*
X13932510Y5029330D01*
X13940390Y5024040D01*
Y5013460D01*
X13932510Y5008170D01*
G01X14247470Y5018750D02*
X14275030Y5024040D01*
X14306520Y5039910D01*
X14326210Y5066360D01*
X14334080Y5103420D01*
X14326210Y5140450D01*
X14302590Y5172200D01*
X14267150Y5188090D01*
X14227790D01*
X14204160Y5198670D01*
X14184470Y5225120D01*
X14176600Y5262160D01*
X14188420Y5299210D01*
X14215970Y5325670D01*
X14247470Y5336250D01*
X14278960Y5325670D01*
X14306520Y5299210D01*
X14318340Y5262160D01*
X14310460Y5225120D01*
X14290780Y5198670D01*
X14267150Y5188090D01*
X14227790D01*
X14192350Y5172200D01*
X14168730Y5140450D01*
X14160860Y5103420D01*
X14168730Y5066360D01*
X14188420Y5039910D01*
X14219910Y5024040D01*
X14247470Y5018750D01*
G01X15212030Y6923750D02*
X15310460Y7241250D01*
X15408890Y6923750D01*
G01X15373450Y7034870D02*
X15247460D01*
G01X15546680Y7241250D02*
Y6923750D01*
X15704160D01*
G01X15861640Y7241250D02*
Y6923750D01*
X16019120D01*
G01X16483690Y7241250D02*
Y7013710D01*
X16499430Y6966070D01*
X16530930Y6934330D01*
X16570300Y6923750D01*
X16609670Y6934330D01*
X16641170Y6966070D01*
X16656910Y7013710D01*
Y7241250D01*
G01X16794710Y6923750D02*
Y7241250D01*
X16975810Y6923750D01*
Y7241250D01*
G01X17152980D02*
X17247460D01*
G01X17200220D02*
Y6923750D01*
G01X17152980D02*
X17247460D01*
G01X17515180Y7241250D02*
Y6923750D01*
G01X17424630Y7241250D02*
X17605730D01*
G01X17747460Y6966070D02*
X17778960Y6939620D01*
X17814390Y6923750D01*
X17845890D01*
X17877380Y6939620D01*
X17901010Y6966070D01*
X17912820Y7003130D01*
X17904950Y7040160D01*
X17885260Y7071910D01*
X17849820Y7093090D01*
X17802580Y7103670D01*
X17775020Y7124830D01*
X17763210Y7161870D01*
X17771090Y7198920D01*
X17790770Y7225370D01*
X17818330Y7241250D01*
X17845890D01*
X17873450Y7230670D01*
X17897070Y7204210D01*
G01X18361630Y6923750D02*
X18460060Y7241250D01*
X18558490Y6923750D01*
G01X18523050Y7034870D02*
X18397060D01*
G01X18696280Y6923750D02*
Y7241250D01*
X18794700D01*
X18826200Y7225370D01*
X18845890Y7204210D01*
X18853760Y7161870D01*
X18845890Y7119540D01*
X18822260Y7093090D01*
X18794700Y7077200D01*
X18696280D01*
G01X18794700D02*
X18853760Y6923750D01*
G01X19168720D02*
X19011240D01*
Y7241250D01*
X19168720D01*
G01X19105730Y7087800D02*
X19011240D01*
G01X19672660Y7241250D02*
X19767140D01*
G01X19719900D02*
Y6923750D01*
G01X19672660D02*
X19767140D01*
G01X19944310D02*
Y7241250D01*
X20125410Y6923750D01*
Y7241250D01*
G01X20562410Y6923750D02*
Y7241250D01*
X20664780Y6976670D01*
X20767150Y7241250D01*
Y6923750D01*
G01X20932500Y7241250D02*
X21026980D01*
G01X20979740D02*
Y6923750D01*
G01X20932500D02*
X21026980D01*
G01X21215960Y7241250D02*
Y6923750D01*
X21373440D01*
G01X21530920Y7241250D02*
Y6923750D01*
X21688400D01*
G01X21877380Y7241250D02*
X21971860D01*
G01X21924620D02*
Y6923750D01*
G01X21877380D02*
X21971860D01*
G01X22137210D02*
Y7241250D01*
X22239580Y6976670D01*
X22341950Y7241250D01*
Y6923750D01*
G01X22633280D02*
X22475800D01*
Y7241250D01*
X22633280D01*
G01X22570290Y7087800D02*
X22475800D01*
G01X22869500Y7241250D02*
Y6923750D01*
G01X22778950Y7241250D02*
X22960050D01*
G01X23263200Y6923750D02*
X23105720D01*
Y7241250D01*
X23263200D01*
G01X23200210Y7087800D02*
X23105720D01*
G01X23420680Y6923750D02*
Y7241250D01*
X23519100D01*
X23550600Y7225370D01*
X23570290Y7204210D01*
X23578160Y7161870D01*
X23570290Y7119540D01*
X23546660Y7093090D01*
X23519100Y7077200D01*
X23420680D01*
G01X23519100D02*
X23578160Y6923750D01*
G01X23731700Y6966070D02*
X23763200Y6939620D01*
X23798630Y6923750D01*
X23830130D01*
X23861620Y6939620D01*
X23885250Y6966070D01*
X23897060Y7003130D01*
X23889190Y7040160D01*
X23869500Y7071910D01*
X23834060Y7093090D01*
X23786820Y7103670D01*
X23759260Y7124830D01*
X23747450Y7161870D01*
X23755330Y7198920D01*
X23775010Y7225370D01*
X23802570Y7241250D01*
X23830130D01*
X23857690Y7230670D01*
X23881310Y7204210D01*
G01X15538810Y7573750D02*
Y7891250D01*
X15617540D01*
X15649040Y7875370D01*
X15672660Y7854210D01*
X15692350Y7822460D01*
X15708100Y7785410D01*
X15712030Y7732500D01*
X15708100Y7679580D01*
X15692350Y7642540D01*
X15672660Y7610780D01*
X15649040Y7589620D01*
X15617540Y7573750D01*
X15538810D01*
G01X15861640D02*
Y7891250D01*
X15960060D01*
X15991560Y7875370D01*
X16011250Y7854210D01*
X16019120Y7811870D01*
X16011250Y7769540D01*
X15987620Y7743090D01*
X15960060Y7727200D01*
X15861640D01*
G01X15960060D02*
X16019120Y7573750D01*
G01X16208100Y7891250D02*
X16302580D01*
G01X16255340D02*
Y7573750D01*
G01X16208100D02*
X16302580D01*
G01X16491560Y7891250D02*
Y7573750D01*
X16649040D01*
G01X16806520Y7891250D02*
Y7573750D01*
X16964000D01*
G01X17601790Y7864790D02*
X17578170Y7880670D01*
X17550620Y7891250D01*
X17519120D01*
X17483680Y7875370D01*
X17456130Y7848920D01*
X17436440Y7817160D01*
X17420690Y7764250D01*
X17416750Y7716620D01*
X17424630Y7669000D01*
X17436440Y7637250D01*
X17460060Y7605490D01*
X17487620Y7584330D01*
X17515180Y7573750D01*
X17542740D01*
X17570300Y7584330D01*
X17593920Y7600200D01*
X17613610Y7621360D01*
G01X17747460Y7573750D02*
Y7891250D01*
G01X17912820D02*
Y7573750D01*
G01Y7732500D02*
X17747460D01*
G01X18046670Y7573750D02*
X18145100Y7891250D01*
X18243530Y7573750D01*
G01X18208090Y7684870D02*
X18082100D01*
G01X18381320Y7573750D02*
Y7891250D01*
X18479740D01*
X18511240Y7875370D01*
X18530930Y7854210D01*
X18538800Y7811870D01*
X18530930Y7769540D01*
X18507300Y7743090D01*
X18479740Y7727200D01*
X18381320D01*
G01X18479740D02*
X18538800Y7573750D01*
G01X18775020Y7891250D02*
Y7573750D01*
G01X18684470Y7891250D02*
X18865570D01*
G01X19089980Y7563170D02*
X19082100Y7568460D01*
Y7579040D01*
X19089980Y7584330D01*
X19097860Y7579040D01*
Y7568460D01*
X19089980Y7563170D01*
G01Y7706030D02*
X19082100Y7711330D01*
Y7721910D01*
X19089980Y7727200D01*
X19097860Y7721910D01*
Y7711330D01*
X19089980Y7706030D01*
G01X19719900Y7891250D02*
Y7573750D01*
G01X19629350Y7891250D02*
X19810450D01*
G01X20034860Y7573750D02*
X20003360Y7579040D01*
X19975810Y7600200D01*
X19952180Y7631960D01*
X19936430Y7669000D01*
X19928560Y7711330D01*
Y7753670D01*
X19936430Y7796000D01*
X19952180Y7833040D01*
X19975810Y7864790D01*
X20003360Y7885960D01*
X20034860Y7891250D01*
X20066350Y7885960D01*
X20093910Y7864790D01*
X20117540Y7833040D01*
X20133290Y7796000D01*
X20141160Y7753670D01*
Y7711330D01*
X20133290Y7669000D01*
X20117540Y7631960D01*
X20093910Y7600200D01*
X20066350Y7579040D01*
X20034860Y7573750D01*
G01X20271080D02*
Y7891250D01*
X20365570D01*
X20397060Y7875370D01*
X20420690Y7838330D01*
X20428560Y7796000D01*
X20420690Y7753670D01*
X20401000Y7721910D01*
X20365570Y7706030D01*
X20271080D01*
G01X20979740Y7891250D02*
Y7573750D01*
G01X20924620Y7785410D02*
X21034860D01*
G01X21294700Y7573750D02*
X21271080Y7579040D01*
X21247460Y7600200D01*
X21231700Y7637250D01*
X21223830Y7679580D01*
X21231700Y7721910D01*
X21247460Y7758960D01*
X21271080Y7780120D01*
X21294700Y7785410D01*
X21318320Y7780120D01*
X21341940Y7758960D01*
X21357690Y7721910D01*
X21361630Y7679580D01*
X21357690Y7637250D01*
X21341940Y7600200D01*
X21318320Y7579040D01*
X21294700Y7573750D01*
G01X21956110Y7743090D02*
X21971860Y7758960D01*
X21983670Y7785410D01*
X21991550Y7822460D01*
X21983670Y7854210D01*
X21967930Y7875370D01*
X21940370Y7891250D01*
X21834070D01*
Y7573750D01*
X21963990D01*
X21991550Y7594910D01*
X22007300Y7626670D01*
X22015170Y7663710D01*
X22007300Y7700740D01*
X21983670Y7732500D01*
X21956110Y7743090D01*
X21834070D01*
G01X22239580Y7573750D02*
X22208080Y7579040D01*
X22180530Y7600200D01*
X22156900Y7631960D01*
X22141150Y7669000D01*
X22133280Y7711330D01*
Y7753670D01*
X22141150Y7796000D01*
X22156900Y7833040D01*
X22180530Y7864790D01*
X22208080Y7885960D01*
X22239580Y7891250D01*
X22271070Y7885960D01*
X22298630Y7864790D01*
X22322260Y7833040D01*
X22338010Y7796000D01*
X22345880Y7753670D01*
Y7711330D01*
X22338010Y7669000D01*
X22322260Y7631960D01*
X22298630Y7600200D01*
X22271070Y7579040D01*
X22239580Y7573750D01*
G01X22554540Y7891250D02*
Y7573750D01*
G01X22463990Y7891250D02*
X22645090D01*
G01X22869500D02*
Y7573750D01*
G01X22778950Y7891250D02*
X22960050D01*
G01X23184460Y7573750D02*
X23152960Y7579040D01*
X23125410Y7600200D01*
X23101780Y7631960D01*
X23086030Y7669000D01*
X23078160Y7711330D01*
Y7753670D01*
X23086030Y7796000D01*
X23101780Y7833040D01*
X23125410Y7864790D01*
X23152960Y7885960D01*
X23184460Y7891250D01*
X23215950Y7885960D01*
X23243510Y7864790D01*
X23267140Y7833040D01*
X23282890Y7796000D01*
X23290760Y7753670D01*
Y7711330D01*
X23282890Y7669000D01*
X23267140Y7631960D01*
X23243510Y7600200D01*
X23215950Y7579040D01*
X23184460Y7573750D01*
G01X23397050D02*
Y7891250D01*
X23499420Y7626670D01*
X23601790Y7891250D01*
Y7573750D01*
G01X17231720Y6288750D02*
Y6606250D01*
X17310450D01*
X17341950Y6590370D01*
X17365570Y6569210D01*
X17385260Y6537460D01*
X17401010Y6500410D01*
X17404940Y6447500D01*
X17401010Y6394580D01*
X17385260Y6357540D01*
X17365570Y6325780D01*
X17341950Y6304620D01*
X17310450Y6288750D01*
X17231720D01*
G01X17554550D02*
Y6606250D01*
X17652970D01*
X17684470Y6590370D01*
X17704160Y6569210D01*
X17712030Y6526870D01*
X17704160Y6484540D01*
X17680530Y6458090D01*
X17652970Y6442200D01*
X17554550D01*
G01X17652970D02*
X17712030Y6288750D01*
G01X17901010Y6606250D02*
X17995490D01*
G01X17948250D02*
Y6288750D01*
G01X17901010D02*
X17995490D01*
G01X18184470Y6606250D02*
Y6288750D01*
X18341950D01*
G01X18499430Y6606250D02*
Y6288750D01*
X18656910D01*
G01X18971870D02*
X18814390D01*
Y6606250D01*
X18971870D01*
G01X18908880Y6452800D02*
X18814390D01*
G01X19121480Y6288750D02*
Y6606250D01*
X19200210D01*
X19231710Y6590370D01*
X19255330Y6569210D01*
X19275020Y6537460D01*
X19290770Y6500410D01*
X19294700Y6447500D01*
X19290770Y6394580D01*
X19275020Y6357540D01*
X19255330Y6325780D01*
X19231710Y6304620D01*
X19200210Y6288750D01*
X19121480D01*
G01X19404940Y6182920D02*
X19641160D01*
G01X19755330Y6331070D02*
X19786830Y6304620D01*
X19822260Y6288750D01*
X19853760D01*
X19885250Y6304620D01*
X19908880Y6331070D01*
X19920690Y6368130D01*
X19912820Y6405160D01*
X19893130Y6436910D01*
X19857690Y6458090D01*
X19810450Y6468670D01*
X19782890Y6489830D01*
X19771080Y6526870D01*
X19778960Y6563920D01*
X19798640Y6590370D01*
X19826200Y6606250D01*
X19853760D01*
X19881320Y6595670D01*
X19904940Y6569210D01*
G01X20105730Y6606250D02*
X20200210D01*
G01X20152970D02*
Y6288750D01*
G01X20105730D02*
X20200210D01*
G01X20393120Y6606250D02*
X20542740D01*
X20393120Y6288750D01*
X20542740D01*
G01X20861630D02*
X20704150D01*
Y6606250D01*
X20861630D01*
G01X20798640Y6452800D02*
X20704150D01*
G01X18999430Y44580D02*
X19101790D01*
G01X18999430Y679580D02*
X19101790D01*
G01X18999430Y1314580D02*
X19101790D01*
G01X18999430Y1949580D02*
X19101790D01*
G01X18999430Y2584580D02*
X19101790D01*
G01X18999430Y3219580D02*
X19101790D01*
G01X18999430Y3854580D02*
X19101790D01*
G01X18999430Y4489580D02*
X19101790D01*
G01X18999430Y5124580D02*
X19101790D01*
G01X18999430Y5759580D02*
X19101790D01*
G01X22042730Y6288750D02*
Y6606250D01*
X22141150D01*
X22172650Y6590370D01*
X22192340Y6569210D01*
X22200210Y6526870D01*
X22192340Y6484540D01*
X22168710Y6458090D01*
X22141150Y6442200D01*
X22042730D01*
G01X22141150D02*
X22200210Y6288750D01*
G01X22436430D02*
X22404930Y6294040D01*
X22377380Y6315200D01*
X22353750Y6346960D01*
X22338000Y6384000D01*
X22330130Y6426330D01*
Y6468670D01*
X22338000Y6511000D01*
X22353750Y6548040D01*
X22377380Y6579790D01*
X22404930Y6600960D01*
X22436430Y6606250D01*
X22467920Y6600960D01*
X22495480Y6579790D01*
X22519110Y6548040D01*
X22534860Y6511000D01*
X22542730Y6468670D01*
Y6426330D01*
X22534860Y6384000D01*
X22519110Y6346960D01*
X22495480Y6315200D01*
X22467920Y6294040D01*
X22436430Y6288750D01*
G01X22751390Y6606250D02*
Y6288750D01*
G01X22660840Y6606250D02*
X22841940D01*
G01X22967920Y6288750D02*
X23066350Y6606250D01*
X23164780Y6288750D01*
G01X23129340Y6399870D02*
X23003350D01*
G01X23381310Y6606250D02*
Y6288750D01*
G01X23290760Y6606250D02*
X23471860D01*
G01X23649030D02*
X23743510D01*
G01X23696270D02*
Y6288750D01*
G01X23649030D02*
X23743510D01*
G01X24011230D02*
X23979730Y6294040D01*
X23952180Y6315200D01*
X23928550Y6346960D01*
X23912800Y6384000D01*
X23904930Y6426330D01*
Y6468670D01*
X23912800Y6511000D01*
X23928550Y6548040D01*
X23952180Y6579790D01*
X23979730Y6600960D01*
X24011230Y6606250D01*
X24042720Y6600960D01*
X24070280Y6579790D01*
X24093910Y6548040D01*
X24109660Y6511000D01*
X24117530Y6468670D01*
Y6426330D01*
X24109660Y6384000D01*
X24093910Y6346960D01*
X24070280Y6315200D01*
X24042720Y6294040D01*
X24011230Y6288750D01*
G01X24235640D02*
Y6606250D01*
X24416740Y6288750D01*
Y6606250D01*
G01X22369500Y-24220D02*
X22397060Y-50670D01*
X22428550Y-61250D01*
X22460050Y-50670D01*
X22487610Y-18930D01*
X22507300Y28710D01*
X22515170Y76330D01*
Y134540D01*
X22507300Y182160D01*
X22487610Y224500D01*
X22463990Y245670D01*
X22436430Y256250D01*
X22404930Y245670D01*
X22381310Y224500D01*
X22365560Y192750D01*
X22357690Y150410D01*
X22365560Y113380D01*
X22385250Y76330D01*
X22408870Y55160D01*
X22436430Y49870D01*
X22467920Y60450D01*
X22491550Y86910D01*
X22515170Y134540D01*
G01X22751390Y256250D02*
X22719890Y245670D01*
X22696270Y219210D01*
X22680520Y187460D01*
X22668710Y145120D01*
X22664780Y97500D01*
X22668710Y49870D01*
X22680520Y7540D01*
X22696270Y-24220D01*
X22719890Y-50670D01*
X22751390Y-61250D01*
X22782880Y-50670D01*
X22806510Y-24220D01*
X22822260Y7540D01*
X22834070Y49870D01*
X22838000Y97500D01*
X22834070Y145120D01*
X22822260Y187460D01*
X22806510Y219210D01*
X22782880Y245670D01*
X22751390Y256250D01*
G01X23066350Y-71830D02*
X23058470Y-66540D01*
Y-55960D01*
X23066350Y-50670D01*
X23074230Y-55960D01*
Y-66540D01*
X23066350Y-71830D01*
G01X23381310Y256250D02*
X23349810Y245670D01*
X23326190Y219210D01*
X23310440Y187460D01*
X23298630Y145120D01*
X23294700Y97500D01*
X23298630Y49870D01*
X23310440Y7540D01*
X23326190Y-24220D01*
X23349810Y-50670D01*
X23381310Y-61250D01*
X23412800Y-50670D01*
X23436430Y-24220D01*
X23452180Y7540D01*
X23463990Y49870D01*
X23467920Y97500D01*
X23463990Y145120D01*
X23452180Y187460D01*
X23436430Y219210D01*
X23412800Y245670D01*
X23381310Y256250D01*
G01X23696270D02*
X23664770Y245670D01*
X23641150Y219210D01*
X23625400Y187460D01*
X23613590Y145120D01*
X23609660Y97500D01*
X23613590Y49870D01*
X23625400Y7540D01*
X23641150Y-24220D01*
X23664770Y-50670D01*
X23696270Y-61250D01*
X23727760Y-50670D01*
X23751390Y-24220D01*
X23767140Y7540D01*
X23778950Y49870D01*
X23782880Y97500D01*
X23778950Y145120D01*
X23767140Y187460D01*
X23751390Y219210D01*
X23727760Y245670D01*
X23696270Y256250D01*
G01X24011230D02*
X23979730Y245670D01*
X23956110Y219210D01*
X23940360Y187460D01*
X23928550Y145120D01*
X23924620Y97500D01*
X23928550Y49870D01*
X23940360Y7540D01*
X23956110Y-24220D01*
X23979730Y-50670D01*
X24011230Y-61250D01*
X24042720Y-50670D01*
X24066350Y-24220D01*
X24082100Y7540D01*
X24093910Y49870D01*
X24097840Y97500D01*
X24093910Y145120D01*
X24082100Y187460D01*
X24066350Y219210D01*
X24042720Y245670D01*
X24011230Y256250D01*
G01X22369500Y610780D02*
X22397060Y584330D01*
X22428550Y573750D01*
X22460050Y584330D01*
X22487610Y616070D01*
X22507300Y663710D01*
X22515170Y711330D01*
Y769540D01*
X22507300Y817160D01*
X22487610Y859500D01*
X22463990Y880670D01*
X22436430Y891250D01*
X22404930Y880670D01*
X22381310Y859500D01*
X22365560Y827750D01*
X22357690Y785410D01*
X22365560Y748380D01*
X22385250Y711330D01*
X22408870Y690160D01*
X22436430Y684870D01*
X22467920Y695450D01*
X22491550Y721910D01*
X22515170Y769540D01*
G01X22751390Y891250D02*
X22719890Y880670D01*
X22696270Y854210D01*
X22680520Y822460D01*
X22668710Y780120D01*
X22664780Y732500D01*
X22668710Y684870D01*
X22680520Y642540D01*
X22696270Y610780D01*
X22719890Y584330D01*
X22751390Y573750D01*
X22782880Y584330D01*
X22806510Y610780D01*
X22822260Y642540D01*
X22834070Y684870D01*
X22838000Y732500D01*
X22834070Y780120D01*
X22822260Y822460D01*
X22806510Y854210D01*
X22782880Y880670D01*
X22751390Y891250D01*
G01X23066350Y563170D02*
X23058470Y568460D01*
Y579040D01*
X23066350Y584330D01*
X23074230Y579040D01*
Y568460D01*
X23066350Y563170D01*
G01X23381310Y891250D02*
X23349810Y880670D01*
X23326190Y854210D01*
X23310440Y822460D01*
X23298630Y780120D01*
X23294700Y732500D01*
X23298630Y684870D01*
X23310440Y642540D01*
X23326190Y610780D01*
X23349810Y584330D01*
X23381310Y573750D01*
X23412800Y584330D01*
X23436430Y610780D01*
X23452180Y642540D01*
X23463990Y684870D01*
X23467920Y732500D01*
X23463990Y780120D01*
X23452180Y822460D01*
X23436430Y854210D01*
X23412800Y880670D01*
X23381310Y891250D01*
G01X23696270D02*
X23664770Y880670D01*
X23641150Y854210D01*
X23625400Y822460D01*
X23613590Y780120D01*
X23609660Y732500D01*
X23613590Y684870D01*
X23625400Y642540D01*
X23641150Y610780D01*
X23664770Y584330D01*
X23696270Y573750D01*
X23727760Y584330D01*
X23751390Y610780D01*
X23767140Y642540D01*
X23778950Y684870D01*
X23782880Y732500D01*
X23778950Y780120D01*
X23767140Y822460D01*
X23751390Y854210D01*
X23727760Y880670D01*
X23696270Y891250D01*
G01X24011230D02*
X23979730Y880670D01*
X23956110Y854210D01*
X23940360Y822460D01*
X23928550Y780120D01*
X23924620Y732500D01*
X23928550Y684870D01*
X23940360Y642540D01*
X23956110Y610780D01*
X23979730Y584330D01*
X24011230Y573750D01*
X24042720Y584330D01*
X24066350Y610780D01*
X24082100Y642540D01*
X24093910Y684870D01*
X24097840Y732500D01*
X24093910Y780120D01*
X24082100Y822460D01*
X24066350Y854210D01*
X24042720Y880670D01*
X24011230Y891250D01*
G01X22369500Y1245780D02*
X22397060Y1219330D01*
X22428550Y1208750D01*
X22460050Y1219330D01*
X22487610Y1251070D01*
X22507300Y1298710D01*
X22515170Y1346330D01*
Y1404540D01*
X22507300Y1452160D01*
X22487610Y1494500D01*
X22463990Y1515670D01*
X22436430Y1526250D01*
X22404930Y1515670D01*
X22381310Y1494500D01*
X22365560Y1462750D01*
X22357690Y1420410D01*
X22365560Y1383380D01*
X22385250Y1346330D01*
X22408870Y1325160D01*
X22436430Y1319870D01*
X22467920Y1330450D01*
X22491550Y1356910D01*
X22515170Y1404540D01*
G01X22751390Y1526250D02*
X22719890Y1515670D01*
X22696270Y1489210D01*
X22680520Y1457460D01*
X22668710Y1415120D01*
X22664780Y1367500D01*
X22668710Y1319870D01*
X22680520Y1277540D01*
X22696270Y1245780D01*
X22719890Y1219330D01*
X22751390Y1208750D01*
X22782880Y1219330D01*
X22806510Y1245780D01*
X22822260Y1277540D01*
X22834070Y1319870D01*
X22838000Y1367500D01*
X22834070Y1415120D01*
X22822260Y1457460D01*
X22806510Y1489210D01*
X22782880Y1515670D01*
X22751390Y1526250D01*
G01X23066350Y1198170D02*
X23058470Y1203460D01*
Y1214040D01*
X23066350Y1219330D01*
X23074230Y1214040D01*
Y1203460D01*
X23066350Y1198170D01*
G01X23381310Y1526250D02*
X23349810Y1515670D01*
X23326190Y1489210D01*
X23310440Y1457460D01*
X23298630Y1415120D01*
X23294700Y1367500D01*
X23298630Y1319870D01*
X23310440Y1277540D01*
X23326190Y1245780D01*
X23349810Y1219330D01*
X23381310Y1208750D01*
X23412800Y1219330D01*
X23436430Y1245780D01*
X23452180Y1277540D01*
X23463990Y1319870D01*
X23467920Y1367500D01*
X23463990Y1415120D01*
X23452180Y1457460D01*
X23436430Y1489210D01*
X23412800Y1515670D01*
X23381310Y1526250D01*
G01X23696270D02*
X23664770Y1515670D01*
X23641150Y1489210D01*
X23625400Y1457460D01*
X23613590Y1415120D01*
X23609660Y1367500D01*
X23613590Y1319870D01*
X23625400Y1277540D01*
X23641150Y1245780D01*
X23664770Y1219330D01*
X23696270Y1208750D01*
X23727760Y1219330D01*
X23751390Y1245780D01*
X23767140Y1277540D01*
X23778950Y1319870D01*
X23782880Y1367500D01*
X23778950Y1415120D01*
X23767140Y1457460D01*
X23751390Y1489210D01*
X23727760Y1515670D01*
X23696270Y1526250D01*
G01X24011230D02*
X23979730Y1515670D01*
X23956110Y1489210D01*
X23940360Y1457460D01*
X23928550Y1415120D01*
X23924620Y1367500D01*
X23928550Y1319870D01*
X23940360Y1277540D01*
X23956110Y1245780D01*
X23979730Y1219330D01*
X24011230Y1208750D01*
X24042720Y1219330D01*
X24066350Y1245780D01*
X24082100Y1277540D01*
X24093910Y1319870D01*
X24097840Y1367500D01*
X24093910Y1415120D01*
X24082100Y1457460D01*
X24066350Y1489210D01*
X24042720Y1515670D01*
X24011230Y1526250D01*
G01X23172650Y1949580D02*
X23275010D01*
G01X23172650Y2584580D02*
X23275010D01*
G01X23172650Y3219580D02*
X23275010D01*
G01X23172650Y3854580D02*
X23275010D01*
G01X23172650Y4489580D02*
X23275010D01*
G01X23172650Y5124580D02*
X23275010D01*
G01X23172650Y5759580D02*
X23275010D01*
G01X24166170Y-378750D02*
Y-696250D01*
G01X24075620Y-378750D02*
X24256720D01*
G01X24481130Y-696250D02*
X24449630Y-690960D01*
X24422080Y-669800D01*
X24398450Y-638040D01*
X24382700Y-601000D01*
X24374830Y-558670D01*
Y-516330D01*
X24382700Y-474000D01*
X24398450Y-436960D01*
X24422080Y-405210D01*
X24449630Y-384040D01*
X24481130Y-378750D01*
X24512620Y-384040D01*
X24540180Y-405210D01*
X24563810Y-436960D01*
X24579560Y-474000D01*
X24587430Y-516330D01*
Y-558670D01*
X24579560Y-601000D01*
X24563810Y-638040D01*
X24540180Y-669800D01*
X24512620Y-690960D01*
X24481130Y-696250D01*
G01X24796090Y-378750D02*
Y-696250D01*
G01X24705540Y-378750D02*
X24886640D01*
G01X25012620Y-696250D02*
X25111050Y-378750D01*
X25209480Y-696250D01*
G01X25174040Y-585130D02*
X25048050D01*
G01X25347270Y-378750D02*
Y-696250D01*
X25504750D01*
G01X25973250D02*
Y-378750D01*
G01X26138610D02*
Y-696250D01*
G01Y-537500D02*
X25973250D01*
G01X26370890Y-696250D02*
X26339390Y-690960D01*
X26311840Y-669800D01*
X26288210Y-638040D01*
X26272460Y-601000D01*
X26264590Y-558670D01*
Y-516330D01*
X26272460Y-474000D01*
X26288210Y-436960D01*
X26311840Y-405210D01*
X26339390Y-384040D01*
X26370890Y-378750D01*
X26402380Y-384040D01*
X26429940Y-405210D01*
X26453570Y-436960D01*
X26469320Y-474000D01*
X26477190Y-516330D01*
Y-558670D01*
X26469320Y-601000D01*
X26453570Y-638040D01*
X26429940Y-669800D01*
X26402380Y-690960D01*
X26370890Y-696250D01*
G01X26607110Y-378750D02*
Y-696250D01*
X26764590D01*
G01X27079550D02*
X26922070D01*
Y-378750D01*
X27079550D01*
G01X27016560Y-532200D02*
X26922070D01*
G01X27233090Y-653930D02*
X27264590Y-680380D01*
X27300020Y-696250D01*
X27331520D01*
X27363010Y-680380D01*
X27386640Y-653930D01*
X27398450Y-616870D01*
X27390580Y-579840D01*
X27370890Y-548090D01*
X27335450Y-526910D01*
X27288210Y-516330D01*
X27260650Y-495170D01*
X27248840Y-458130D01*
X27256720Y-421080D01*
X27276400Y-394630D01*
X27303960Y-378750D01*
X27331520D01*
X27359080Y-389330D01*
X27382700Y-415790D01*
G01X27630730Y-706830D02*
X27622850Y-701540D01*
Y-690960D01*
X27630730Y-685670D01*
X27638610Y-690960D01*
Y-701540D01*
X27630730Y-706830D01*
G01Y-563970D02*
X27622850Y-558670D01*
Y-548090D01*
X27630730Y-542800D01*
X27638610Y-548090D01*
Y-558670D01*
X27630730Y-563970D01*
G01X25586030Y-61250D02*
Y256250D01*
X25680520D01*
X25712010Y240370D01*
X25735640Y203330D01*
X25743510Y161000D01*
X25735640Y118670D01*
X25715950Y86910D01*
X25680520Y71030D01*
X25586030D01*
G01X25900990Y256250D02*
Y-61250D01*
X26058470D01*
G01X26196260D02*
X26294690Y256250D01*
X26393120Y-61250D01*
G01X26357680Y49870D02*
X26231690D01*
G01X26609650Y256250D02*
Y-61250D01*
G01X26519100Y256250D02*
X26700200D01*
G01X27003350Y-61250D02*
X26845870D01*
Y256250D01*
X27003350D01*
G01X26940360Y102800D02*
X26845870D01*
G01X27152960Y-61250D02*
Y256250D01*
X27231690D01*
X27263190Y240370D01*
X27286810Y219210D01*
X27306500Y187460D01*
X27322250Y150410D01*
X27326180Y97500D01*
X27322250Y44580D01*
X27306500Y7540D01*
X27286810Y-24220D01*
X27263190Y-45380D01*
X27231690Y-61250D01*
X27152960D01*
G01X25586030Y573750D02*
Y891250D01*
X25680520D01*
X25712010Y875370D01*
X25735640Y838330D01*
X25743510Y796000D01*
X25735640Y753670D01*
X25715950Y721910D01*
X25680520Y706030D01*
X25586030D01*
G01X25900990Y891250D02*
Y573750D01*
X26058470D01*
G01X26196260D02*
X26294690Y891250D01*
X26393120Y573750D01*
G01X26357680Y684870D02*
X26231690D01*
G01X26609650Y891250D02*
Y573750D01*
G01X26519100Y891250D02*
X26700200D01*
G01X27003350Y573750D02*
X26845870D01*
Y891250D01*
X27003350D01*
G01X26940360Y737800D02*
X26845870D01*
G01X27152960Y573750D02*
Y891250D01*
X27231690D01*
X27263190Y875370D01*
X27286810Y854210D01*
X27306500Y822460D01*
X27322250Y785410D01*
X27326180Y732500D01*
X27322250Y679580D01*
X27306500Y642540D01*
X27286810Y610780D01*
X27263190Y589620D01*
X27231690Y573750D01*
X27152960D01*
G01X25586030Y1208750D02*
Y1526250D01*
X25680520D01*
X25712010Y1510370D01*
X25735640Y1473330D01*
X25743510Y1431000D01*
X25735640Y1388670D01*
X25715950Y1356910D01*
X25680520Y1341030D01*
X25586030D01*
G01X25900990Y1526250D02*
Y1208750D01*
X26058470D01*
G01X26196260D02*
X26294690Y1526250D01*
X26393120Y1208750D01*
G01X26357680Y1319870D02*
X26231690D01*
G01X26609650Y1526250D02*
Y1208750D01*
G01X26519100Y1526250D02*
X26700200D01*
G01X27003350Y1208750D02*
X26845870D01*
Y1526250D01*
X27003350D01*
G01X26940360Y1372800D02*
X26845870D01*
G01X27152960Y1208750D02*
Y1526250D01*
X27231690D01*
X27263190Y1510370D01*
X27286810Y1489210D01*
X27306500Y1457460D01*
X27322250Y1420410D01*
X27326180Y1367500D01*
X27322250Y1314580D01*
X27306500Y1277540D01*
X27286810Y1245780D01*
X27263190Y1224620D01*
X27231690Y1208750D01*
X27152960D01*
G01X25586030Y1843750D02*
Y2161250D01*
X25680520D01*
X25712010Y2145370D01*
X25735640Y2108330D01*
X25743510Y2066000D01*
X25735640Y2023670D01*
X25715950Y1991910D01*
X25680520Y1976030D01*
X25586030D01*
G01X25900990Y2161250D02*
Y1843750D01*
X26058470D01*
G01X26196260D02*
X26294690Y2161250D01*
X26393120Y1843750D01*
G01X26357680Y1954870D02*
X26231690D01*
G01X26609650Y2161250D02*
Y1843750D01*
G01X26519100Y2161250D02*
X26700200D01*
G01X27003350Y1843750D02*
X26845870D01*
Y2161250D01*
X27003350D01*
G01X26940360Y2007800D02*
X26845870D01*
G01X27152960Y1843750D02*
Y2161250D01*
X27231690D01*
X27263190Y2145370D01*
X27286810Y2124210D01*
X27306500Y2092460D01*
X27322250Y2055410D01*
X27326180Y2002500D01*
X27322250Y1949580D01*
X27306500Y1912540D01*
X27286810Y1880780D01*
X27263190Y1859620D01*
X27231690Y1843750D01*
X27152960D01*
G01X25586030Y2478750D02*
Y2796250D01*
X25680520D01*
X25712010Y2780370D01*
X25735640Y2743330D01*
X25743510Y2701000D01*
X25735640Y2658670D01*
X25715950Y2626910D01*
X25680520Y2611030D01*
X25586030D01*
G01X25900990Y2796250D02*
Y2478750D01*
X26058470D01*
G01X26196260D02*
X26294690Y2796250D01*
X26393120Y2478750D01*
G01X26357680Y2589870D02*
X26231690D01*
G01X26609650Y2796250D02*
Y2478750D01*
G01X26519100Y2796250D02*
X26700200D01*
G01X27003350Y2478750D02*
X26845870D01*
Y2796250D01*
X27003350D01*
G01X26940360Y2642800D02*
X26845870D01*
G01X27152960Y2478750D02*
Y2796250D01*
X27231690D01*
X27263190Y2780370D01*
X27286810Y2759210D01*
X27306500Y2727460D01*
X27322250Y2690410D01*
X27326180Y2637500D01*
X27322250Y2584580D01*
X27306500Y2547540D01*
X27286810Y2515780D01*
X27263190Y2494620D01*
X27231690Y2478750D01*
X27152960D01*
G01X25586030Y3113750D02*
Y3431250D01*
X25680520D01*
X25712010Y3415370D01*
X25735640Y3378330D01*
X25743510Y3336000D01*
X25735640Y3293670D01*
X25715950Y3261910D01*
X25680520Y3246030D01*
X25586030D01*
G01X25900990Y3431250D02*
Y3113750D01*
X26058470D01*
G01X26196260D02*
X26294690Y3431250D01*
X26393120Y3113750D01*
G01X26357680Y3224870D02*
X26231690D01*
G01X26609650Y3431250D02*
Y3113750D01*
G01X26519100Y3431250D02*
X26700200D01*
G01X27003350Y3113750D02*
X26845870D01*
Y3431250D01*
X27003350D01*
G01X26940360Y3277800D02*
X26845870D01*
G01X27152960Y3113750D02*
Y3431250D01*
X27231690D01*
X27263190Y3415370D01*
X27286810Y3394210D01*
X27306500Y3362460D01*
X27322250Y3325410D01*
X27326180Y3272500D01*
X27322250Y3219580D01*
X27306500Y3182540D01*
X27286810Y3150780D01*
X27263190Y3129620D01*
X27231690Y3113750D01*
X27152960D01*
G01X25586030Y3748750D02*
Y4066250D01*
X25680520D01*
X25712010Y4050370D01*
X25735640Y4013330D01*
X25743510Y3971000D01*
X25735640Y3928670D01*
X25715950Y3896910D01*
X25680520Y3881030D01*
X25586030D01*
G01X25900990Y4066250D02*
Y3748750D01*
X26058470D01*
G01X26196260D02*
X26294690Y4066250D01*
X26393120Y3748750D01*
G01X26357680Y3859870D02*
X26231690D01*
G01X26609650Y4066250D02*
Y3748750D01*
G01X26519100Y4066250D02*
X26700200D01*
G01X27003350Y3748750D02*
X26845870D01*
Y4066250D01*
X27003350D01*
G01X26940360Y3912800D02*
X26845870D01*
G01X27152960Y3748750D02*
Y4066250D01*
X27231690D01*
X27263190Y4050370D01*
X27286810Y4029210D01*
X27306500Y3997460D01*
X27322250Y3960410D01*
X27326180Y3907500D01*
X27322250Y3854580D01*
X27306500Y3817540D01*
X27286810Y3785780D01*
X27263190Y3764620D01*
X27231690Y3748750D01*
X27152960D01*
G01X25586030Y4383750D02*
Y4701250D01*
X25680520D01*
X25712010Y4685370D01*
X25735640Y4648330D01*
X25743510Y4606000D01*
X25735640Y4563670D01*
X25715950Y4531910D01*
X25680520Y4516030D01*
X25586030D01*
G01X25900990Y4701250D02*
Y4383750D01*
X26058470D01*
G01X26196260D02*
X26294690Y4701250D01*
X26393120Y4383750D01*
G01X26357680Y4494870D02*
X26231690D01*
G01X26609650Y4701250D02*
Y4383750D01*
G01X26519100Y4701250D02*
X26700200D01*
G01X27003350Y4383750D02*
X26845870D01*
Y4701250D01*
X27003350D01*
G01X26940360Y4547800D02*
X26845870D01*
G01X27152960Y4383750D02*
Y4701250D01*
X27231690D01*
X27263190Y4685370D01*
X27286810Y4664210D01*
X27306500Y4632460D01*
X27322250Y4595410D01*
X27326180Y4542500D01*
X27322250Y4489580D01*
X27306500Y4452540D01*
X27286810Y4420780D01*
X27263190Y4399620D01*
X27231690Y4383750D01*
X27152960D01*
G01X25586030Y5018750D02*
Y5336250D01*
X25680520D01*
X25712010Y5320370D01*
X25735640Y5283330D01*
X25743510Y5241000D01*
X25735640Y5198670D01*
X25715950Y5166910D01*
X25680520Y5151030D01*
X25586030D01*
G01X25900990Y5336250D02*
Y5018750D01*
X26058470D01*
G01X26196260D02*
X26294690Y5336250D01*
X26393120Y5018750D01*
G01X26357680Y5129870D02*
X26231690D01*
G01X26609650Y5336250D02*
Y5018750D01*
G01X26519100Y5336250D02*
X26700200D01*
G01X27003350Y5018750D02*
X26845870D01*
Y5336250D01*
X27003350D01*
G01X26940360Y5182800D02*
X26845870D01*
G01X27152960Y5018750D02*
Y5336250D01*
X27231690D01*
X27263190Y5320370D01*
X27286810Y5299210D01*
X27306500Y5267460D01*
X27322250Y5230410D01*
X27326180Y5177500D01*
X27322250Y5124580D01*
X27306500Y5087540D01*
X27286810Y5055780D01*
X27263190Y5034620D01*
X27231690Y5018750D01*
X27152960D01*
G01X25586030Y5653750D02*
Y5971250D01*
X25680520D01*
X25712010Y5955370D01*
X25735640Y5918330D01*
X25743510Y5876000D01*
X25735640Y5833670D01*
X25715950Y5801910D01*
X25680520Y5786030D01*
X25586030D01*
G01X25900990Y5971250D02*
Y5653750D01*
X26058470D01*
G01X26196260D02*
X26294690Y5971250D01*
X26393120Y5653750D01*
G01X26357680Y5764870D02*
X26231690D01*
G01X26609650Y5971250D02*
Y5653750D01*
G01X26519100Y5971250D02*
X26700200D01*
G01X27003350Y5653750D02*
X26845870D01*
Y5971250D01*
X27003350D01*
G01X26940360Y5817800D02*
X26845870D01*
G01X27152960Y5653750D02*
Y5971250D01*
X27231690D01*
X27263190Y5955370D01*
X27286810Y5934210D01*
X27306500Y5902460D01*
X27322250Y5865410D01*
X27326180Y5812500D01*
X27322250Y5759580D01*
X27306500Y5722540D01*
X27286810Y5690780D01*
X27263190Y5669620D01*
X27231690Y5653750D01*
X27152960D01*
G01X25586030Y6288750D02*
Y6606250D01*
X25680520D01*
X25712010Y6590370D01*
X25735640Y6553330D01*
X25743510Y6511000D01*
X25735640Y6468670D01*
X25715950Y6436910D01*
X25680520Y6421030D01*
X25586030D01*
G01X25900990Y6606250D02*
Y6288750D01*
X26058470D01*
G01X26196260D02*
X26294690Y6606250D01*
X26393120Y6288750D01*
G01X26357680Y6399870D02*
X26231690D01*
G01X26609650Y6606250D02*
Y6288750D01*
G01X26519100Y6606250D02*
X26700200D01*
G01X27003350Y6288750D02*
X26845870D01*
Y6606250D01*
X27003350D01*
G01X26940360Y6452800D02*
X26845870D01*
G01X27152960Y6288750D02*
Y6606250D01*
X27231690D01*
X27263190Y6590370D01*
X27286810Y6569210D01*
X27306500Y6537460D01*
X27322250Y6500410D01*
X27326180Y6447500D01*
X27322250Y6394580D01*
X27306500Y6357540D01*
X27286810Y6325780D01*
X27263190Y6304620D01*
X27231690Y6288750D01*
X27152960D01*
G01X28660820Y-431670D02*
X28684450Y-399920D01*
X28712010Y-384040D01*
X28743510Y-378750D01*
X28782870Y-389330D01*
X28810440Y-415790D01*
X28818310Y-447540D01*
X28814370Y-479300D01*
X28798620Y-505750D01*
X28719880Y-558670D01*
X28684450Y-595710D01*
X28660820Y-648640D01*
X28652950Y-696250D01*
X28818310D01*
G01X29097830D02*
Y-378750D01*
X28952160Y-606290D01*
X29149020D01*
G01X29412790Y-696250D02*
Y-378750D01*
X29267120Y-606290D01*
X29463980D01*
G01X28660820Y5918330D02*
X28684450Y5950080D01*
X28712010Y5965960D01*
X28743510Y5971250D01*
X28782870Y5960670D01*
X28810440Y5934210D01*
X28818310Y5902460D01*
X28814370Y5870700D01*
X28798620Y5844250D01*
X28719880Y5791330D01*
X28684450Y5754290D01*
X28660820Y5701360D01*
X28652950Y5653750D01*
X28818310D01*
G01X29050590D02*
Y5971250D01*
X29003350Y5907750D01*
G01Y5653750D02*
X29097830D01*
G01X29290740Y5786030D02*
X29318310Y5823090D01*
X29341930Y5844250D01*
X29373430Y5854830D01*
X29400990Y5844250D01*
X29420670Y5823090D01*
X29436420Y5791330D01*
X29440360Y5754290D01*
X29436420Y5722540D01*
X29420670Y5690780D01*
X29397040Y5664330D01*
X29369490Y5653750D01*
X29337990Y5664330D01*
X29310430Y5696070D01*
X29294680Y5743710D01*
X29290740Y5796620D01*
X29298620Y5865410D01*
X29310430Y5902460D01*
X29330110Y5939500D01*
X29357670Y5965960D01*
X29385230Y5971250D01*
X29412790Y5960670D01*
X29432480Y5934210D01*
G01X28735630Y6288750D02*
X28704130Y6294040D01*
X28676580Y6315200D01*
X28652950Y6346960D01*
X28637200Y6384000D01*
X28629330Y6426330D01*
Y6468670D01*
X28637200Y6511000D01*
X28652950Y6548040D01*
X28676580Y6579790D01*
X28704130Y6600960D01*
X28735630Y6606250D01*
X28767120Y6600960D01*
X28794680Y6579790D01*
X28818310Y6548040D01*
X28834060Y6511000D01*
X28841930Y6468670D01*
Y6426330D01*
X28834060Y6384000D01*
X28818310Y6346960D01*
X28794680Y6315200D01*
X28767120Y6294040D01*
X28735630Y6288750D01*
G01X28767120Y6373420D02*
X28814370Y6288750D01*
G01X29050590Y6606250D02*
Y6288750D01*
G01X28960040Y6606250D02*
X29141140D01*
G01X29365550Y6288750D02*
Y6431620D01*
X29286810Y6606250D01*
G01X29444290D02*
X29365550Y6431620D01*
G01X28975780Y203330D02*
X28999410Y235080D01*
X29026970Y250960D01*
X29058470Y256250D01*
X29097830Y245670D01*
X29125400Y219210D01*
X29133270Y187460D01*
X29129330Y155700D01*
X29113580Y129250D01*
X29034840Y76330D01*
X28999410Y39290D01*
X28975780Y-13640D01*
X28967910Y-61250D01*
X29133270D01*
G01X28975780Y838330D02*
X28999410Y870080D01*
X29026970Y885960D01*
X29058470Y891250D01*
X29097830Y880670D01*
X29125400Y854210D01*
X29133270Y822460D01*
X29129330Y790700D01*
X29113580Y764250D01*
X29034840Y711330D01*
X28999410Y674290D01*
X28975780Y621360D01*
X28967910Y573750D01*
X29133270D01*
G01X28975780Y1473330D02*
X28999410Y1505080D01*
X29026970Y1520960D01*
X29058470Y1526250D01*
X29097830Y1515670D01*
X29125400Y1489210D01*
X29133270Y1457460D01*
X29129330Y1425700D01*
X29113580Y1399250D01*
X29034840Y1346330D01*
X28999410Y1309290D01*
X28975780Y1256360D01*
X28967910Y1208750D01*
X29133270D01*
G01X28975780Y1976030D02*
X29003350Y2013090D01*
X29026970Y2034250D01*
X29058470Y2044830D01*
X29086030Y2034250D01*
X29105710Y2013090D01*
X29121460Y1981330D01*
X29125400Y1944290D01*
X29121460Y1912540D01*
X29105710Y1880780D01*
X29082080Y1854330D01*
X29054530Y1843750D01*
X29023030Y1854330D01*
X28995470Y1886070D01*
X28979720Y1933710D01*
X28975780Y1986620D01*
X28983660Y2055410D01*
X28995470Y2092460D01*
X29015150Y2129500D01*
X29042710Y2155960D01*
X29070270Y2161250D01*
X29097830Y2150670D01*
X29117520Y2124210D01*
G01X29050590Y2478750D02*
X29078150Y2484040D01*
X29109640Y2499910D01*
X29129330Y2526360D01*
X29137200Y2563420D01*
X29129330Y2600450D01*
X29105710Y2632200D01*
X29070270Y2648090D01*
X29030910D01*
X29007280Y2658670D01*
X28987590Y2685120D01*
X28979720Y2722160D01*
X28991540Y2759210D01*
X29019090Y2785670D01*
X29050590Y2796250D01*
X29082080Y2785670D01*
X29109640Y2759210D01*
X29121460Y2722160D01*
X29113580Y2685120D01*
X29093900Y2658670D01*
X29070270Y2648090D01*
X29030910D01*
X28995470Y2632200D01*
X28971850Y2600450D01*
X28963980Y2563420D01*
X28971850Y2526360D01*
X28991540Y2499910D01*
X29023030Y2484040D01*
X29050590Y2478750D01*
G01X28975780Y3378330D02*
X28999410Y3410080D01*
X29026970Y3425960D01*
X29058470Y3431250D01*
X29097830Y3420670D01*
X29125400Y3394210D01*
X29133270Y3362460D01*
X29129330Y3330700D01*
X29113580Y3304250D01*
X29034840Y3251330D01*
X28999410Y3214290D01*
X28975780Y3161360D01*
X28967910Y3113750D01*
X29133270D01*
G01X28975780Y4013330D02*
X28999410Y4045080D01*
X29026970Y4060960D01*
X29058470Y4066250D01*
X29097830Y4055670D01*
X29125400Y4029210D01*
X29133270Y3997460D01*
X29129330Y3965700D01*
X29113580Y3939250D01*
X29034840Y3886330D01*
X28999410Y3849290D01*
X28975780Y3796360D01*
X28967910Y3748750D01*
X29133270D01*
G01X28975780Y4648330D02*
X28999410Y4680080D01*
X29026970Y4695960D01*
X29058470Y4701250D01*
X29097830Y4690670D01*
X29125400Y4664210D01*
X29133270Y4632460D01*
X29129330Y4600700D01*
X29113580Y4574250D01*
X29034840Y4521330D01*
X28999410Y4484290D01*
X28975780Y4431360D01*
X28967910Y4383750D01*
X29133270D01*
G01X28975780Y5283330D02*
X28999410Y5315080D01*
X29026970Y5330960D01*
X29058470Y5336250D01*
X29097830Y5325670D01*
X29125400Y5299210D01*
X29133270Y5267460D01*
X29129330Y5235700D01*
X29113580Y5209250D01*
X29034840Y5156330D01*
X28999410Y5119290D01*
X28975780Y5066360D01*
X28967910Y5018750D01*
X29133270D01*
G01X-250000Y0D02*
X-1900000D01*
G01X-40000Y4000000D02*
X-1900000D01*
G01X-1650000Y2104260D02*
Y0D01*
G01X-1712500Y400000D02*
X-1650000Y0D01*
X-1587500Y400000D01*
X-1712500D01*
G01X-1650000Y2595740D02*
Y4000000D01*
G01X-1587500Y3600000D02*
X-1650000Y4000000D01*
X-1712500Y3600000D01*
X-1587500D01*
G01X-250000Y0D02*
X-1220000D01*
G01X370000Y3570000D02*
X-1220000D01*
G01X-817890Y-420000D02*
X0D01*
G01X-970000Y1614260D02*
Y0D01*
G01X-1032500Y400000D02*
X-970000Y0D01*
X-907500Y400000D01*
X-1032500D01*
G01X-250000Y0D02*
X-800000D01*
G01X370000Y770000D02*
X-800000D01*
G01X-970000Y2105740D02*
Y3570000D01*
G01X-907500Y3170000D02*
X-970000Y3570000D01*
X-1032500Y3170000D01*
X-907500D01*
G01X-550000Y-800000D02*
Y0D01*
G01X-400000Y-482500D02*
X0Y-420000D01*
X-400000Y-357500D01*
Y-482500D01*
G01X-487500Y-400000D02*
X-550000Y0D01*
X-612500Y-400000D01*
X-487500D01*
G01X-550000Y1084260D02*
Y770000D01*
G01X-612500Y1170000D02*
X-550000Y770000D01*
X-487500Y1170000D01*
X-612500D01*
G01X0Y-250000D02*
Y-2520000D01*
G01X3722640Y-2270000D02*
X0D01*
G01X400000Y-2207500D02*
X0Y-2270000D01*
X400000Y-2332500D01*
Y-2207500D01*
G01X0Y-250000D02*
Y-2070000D01*
G01X2192640Y-1820000D02*
X0D01*
G01X400000Y-1757500D02*
X0Y-1820000D01*
X400000Y-1882500D01*
Y-1757500D01*
G01X0Y-250000D02*
Y-670000D01*
G01X620000Y520000D02*
Y-1030000D01*
G01X843140Y-780000D02*
X620000D01*
G01X1020000Y-717500D02*
X620000Y-780000D01*
X1020000Y-842500D01*
Y-717500D01*
G01X620000Y520000D02*
Y-670000D01*
G01X1420000Y-420000D02*
X620000D01*
G01X1020000Y-357500D02*
X620000Y-420000D01*
X1020000Y-482500D01*
Y-357500D01*
G01X1320000Y-1132500D02*
X1720000Y-1070000D01*
X1320000Y-1007500D01*
Y-1132500D01*
G01X1476860Y-780000D02*
X1720000D01*
G01X1320000Y-842500D02*
X1720000Y-780000D01*
X1320000Y-717500D01*
Y-842500D01*
G01X1720000Y-160000D02*
Y-1320000D01*
G01X1647890Y-1070000D02*
X1720000D01*
G01Y100000D02*
Y-1030000D01*
G01X2000000Y-832500D02*
X2400000Y-770000D01*
X2000000Y-707500D01*
Y-832500D01*
G01X2400000Y-160000D02*
Y-1320000D01*
G01X2800000Y-1007500D02*
X2400000Y-1070000D01*
X2800000Y-1132500D01*
Y-1007500D01*
G01X2472110Y-1070000D02*
X2400000D01*
G01Y-160000D02*
Y-1020000D01*
G01X2408390Y-770000D02*
X2400000D01*
G01X2900000Y-160000D02*
Y-1550000D01*
G01X3022640Y-1300000D02*
X2900000D01*
G01X3300000Y-1237500D02*
X2900000Y-1300000D01*
X3300000Y-1362500D01*
Y-1237500D01*
G01X2900000Y-160000D02*
Y-1020000D01*
G01X2851610Y-770000D02*
X2900000D01*
G01X3300000Y-707500D02*
X2900000Y-770000D01*
X3300000Y-832500D01*
Y-707500D01*
G01X3207360Y-1820000D02*
X8030000D01*
G01X3670000Y-1362500D02*
X4070000Y-1300000D01*
X3670000Y-1237500D01*
Y-1362500D01*
G01Y-512500D02*
X4070000Y-450000D01*
X3670000Y-387500D01*
Y-512500D01*
G01X4070000Y-160000D02*
Y-1550000D01*
G01X4037360Y-1300000D02*
X4070000D01*
G01Y-160000D02*
Y-700000D01*
G01X4007890Y-450000D02*
X4070000D01*
G01X4737360Y-2270000D02*
X8650000D01*
G01X4930000Y-5000D02*
Y-1340000D01*
G01X5423140Y-1090000D02*
X4930000D01*
G01X5330000Y-1027500D02*
X4930000Y-1090000D01*
X5330000Y-1152500D01*
Y-1027500D01*
G01X4930000Y-5000D02*
Y-700000D01*
G01X4832110Y-450000D02*
X4930000D01*
G01X5330000Y-387500D02*
X4930000Y-450000D01*
X5330000Y-512500D01*
Y-387500D01*
G01X6056860Y-1090000D02*
X6530000D01*
G01X6130000Y-1152500D02*
X6530000Y-1090000D01*
X6130000Y-1027500D01*
Y-1152500D01*
G01X6530000Y105000D02*
Y-1340000D01*
G01X7630000Y-1882500D02*
X8030000Y-1820000D01*
X7630000Y-1757500D01*
Y-1882500D01*
G01X8030000Y520000D02*
Y-2070000D01*
G01X8250000Y-2332500D02*
X8650000Y-2270000D01*
X8250000Y-2207500D01*
Y-2332500D01*
G01X8650000Y-20000D02*
Y-2520000D01*
G01X9090000Y-220000D02*
Y8050000D01*
X30034840D01*
Y-220000D01*
X9090000D01*
G01Y415000D02*
X30034840D01*
G01X9090000Y1050000D02*
X30034840D01*
G01X9090000Y1685000D02*
X30034840D01*
G01X9090000Y2320000D02*
X30034840D01*
G01X9090000Y2955000D02*
X30034840D01*
G01X9090000Y3590000D02*
X30034840D01*
G01X9090000Y4225000D02*
X30034840D01*
G01X9090000Y4860000D02*
X30034840D01*
G01X9090000Y5495000D02*
X30034840D01*
G01X9090000Y6130000D02*
X30034840D01*
G01X9090000Y6765000D02*
X30034840D01*
G01X9090000Y7400000D02*
X30034840D01*
G01X11373460Y6765000D02*
Y-220000D01*
G01X16491560Y6765000D02*
Y-220000D01*
G01X21609660Y6765000D02*
Y-220000D01*
G01X24838000Y6765000D02*
Y-220000D01*
G01X28066340Y6765000D02*
Y-220000D01*
G54D11*
X620000Y770000D03*
Y3570000D03*
X1420000D03*
X2420000D03*
X8030000Y770000D03*
Y3570000D03*
X10231730Y2002500D03*
G54D12*
X270000Y170000D03*
X250000Y1280000D03*
Y1580000D03*
Y1880000D03*
Y2180000D03*
Y2480000D03*
Y2780000D03*
Y3080000D03*
X860000Y170000D03*
X570000D03*
X550000Y1280000D03*
X850000D03*
X550000Y1580000D03*
X850000D03*
X550000Y1880000D03*
X850000D03*
X550000Y2180000D03*
X850000D03*
X550000Y2480000D03*
X850000D03*
X550000Y2780000D03*
X850000D03*
X550000Y3080000D03*
X850000D03*
X1160000Y170000D03*
X1150000Y1280000D03*
Y1580000D03*
Y1880000D03*
Y2180000D03*
Y2480000D03*
Y2780000D03*
Y3080000D03*
X1450000Y1280000D03*
Y1580000D03*
Y1880000D03*
Y2180000D03*
Y2480000D03*
Y2780000D03*
Y3080000D03*
X1700000Y1580000D03*
Y1370000D03*
X2000000Y1380000D03*
Y1580000D03*
X1990000Y2120000D03*
X2070000Y270000D03*
Y1060000D03*
X2520000Y280000D03*
Y580000D03*
Y880000D03*
X2460000Y1610000D03*
X2650000Y1350000D03*
X2460000Y1910000D03*
X3000000Y270000D03*
Y570000D03*
Y910000D03*
X3060000Y1340000D03*
Y1640000D03*
X2880000Y1720000D03*
X2940000Y2630000D03*
Y2890000D03*
Y3490000D03*
Y3190000D03*
X3130000Y3250000D03*
X2940000Y3790000D03*
X3140000D03*
X3390000Y270000D03*
Y570000D03*
Y900000D03*
X3280000Y1910000D03*
X3360000Y1730000D03*
X3480000Y3890000D03*
X3330000D03*
X3780000Y220000D03*
X3810000Y570000D03*
X3580000Y1210000D03*
Y1510000D03*
Y1910000D03*
Y1730000D03*
X3700000Y2420000D03*
X3850000D03*
X3530000D03*
X3550000Y2950000D03*
X3630000Y3890000D03*
X3780000D03*
X3639500Y3660000D03*
X4170000Y220000D03*
X4110000Y570000D03*
Y800000D03*
X4245000Y955000D03*
X4130000Y2290000D03*
Y2140000D03*
X4000000Y2420000D03*
X3930000Y3890000D03*
X4610000Y1010000D03*
X4400000Y1390000D03*
X4520000D03*
X4640000D03*
X4400000Y1510000D03*
X4520000D03*
X4640000D03*
X4400000Y1630000D03*
X4520000D03*
X4640000D03*
X4400000Y1750000D03*
X4520000D03*
X4640000D03*
X4400000Y1870000D03*
X4520000D03*
X4640000D03*
X4380000Y2950000D03*
X4660000Y3660000D03*
X4790000Y120000D03*
X4770000Y380000D03*
X4683660Y1010000D03*
X4772860Y1093250D03*
X4760000Y1010000D03*
Y1390000D03*
X4880000D03*
X4760000Y1510000D03*
X4880000D03*
X4760000Y1630000D03*
X4880000D03*
X4760000Y1750000D03*
X4880000D03*
X4760000Y1870000D03*
X4880000D03*
X4830000Y3550000D03*
X5090000Y120000D03*
X5105000Y380000D03*
X5160000Y1170000D03*
X5150000Y1440000D03*
X5180000Y1270000D03*
X5246920Y1330000D03*
X5120000Y1960000D03*
X5150000Y2280000D03*
Y2130000D03*
X5270000Y2430000D03*
X5560000Y530000D03*
X5620000Y1440000D03*
X5590000Y1850000D03*
X5740000Y2430000D03*
X5590000D03*
X5440000D03*
X6100000Y120000D03*
X5860000Y530000D03*
X6020000Y1010000D03*
Y1320000D03*
X6180000Y1780000D03*
X5910000Y2430000D03*
X6080000D03*
X5860000Y2950000D03*
X6060000Y3890000D03*
Y3690000D03*
X5860000Y3550000D03*
X6400000Y120000D03*
X6430000Y770000D03*
X6380000Y2430000D03*
X6230000D03*
X6460000Y3250000D03*
X6360000Y3890000D03*
X6210000D03*
X6360000Y3690000D03*
X6210000D03*
X6460000Y3790000D03*
X6690000Y120000D03*
X6630000Y770000D03*
X6710000Y1320000D03*
X6940000Y3890000D03*
X6640000D03*
X6790000D03*
X6990000Y120000D03*
X7320000Y430000D03*
Y730000D03*
Y1020000D03*
Y1320000D03*
X7260000Y2160000D03*
X7040000D03*
X7260000Y2650000D03*
X6960000D03*
X7260000Y2390000D03*
X7040000D03*
X7260000Y2950000D03*
X6960000D03*
Y3250000D03*
X7260000D03*
X7110000Y3890000D03*
X7260000D03*
X6960000Y3530000D03*
X7260000D03*
X7550000Y140000D03*
X7670000Y1550000D03*
X7470000Y1680000D03*
X7570000Y2150000D03*
X7560000Y2650000D03*
Y2390000D03*
Y2950000D03*
X7410000Y3890000D03*
X7850000Y140000D03*
X8030000Y1550000D03*
X7855880Y1680000D03*
X7770000Y1940000D03*
X7930000Y2150000D03*
X7860000Y2650000D03*
Y2390000D03*
Y2950000D03*
X8440000Y140000D03*
X8140000D03*
X8460000Y1420000D03*
Y1720000D03*
X8130000Y1940000D03*
X8460000Y2010000D03*
Y2310000D03*
X8160000Y2650000D03*
X8460000D03*
X8160000Y2950000D03*
X8460000D03*
X10231730Y5812500D03*
G54D13*
X1593000Y90000D03*
X1847000D03*
X10231730Y5177500D03*
G54D14*
X1495000Y450000D03*
X1945000D03*
X10231730Y4542500D03*
G54D15*
X1370000Y700000D03*
X2070000D03*
X10231730Y3272500D03*
G54D16*
X4498000Y108000D03*
X5362000D03*
X10231730Y1367500D03*
G54D17*
X4498000Y526000D03*
X5362000D03*
X10231730Y97500D03*
G54D18*
X5885000Y105000D03*
X7175000D03*
X10231730Y732500D03*
G54D19*
X7110000Y3720000D03*
X7364000D03*
X10231730Y3907500D03*
M02*
