G04 ================== begin FILE IDENTIFICATION RECORD ==================*
G04 Layout Name:  HY_POWERBANK_V10_250816.brd*
G04 Film Name:    SilkScreen_Top*
G04 File Format:  Gerber RS274X*
G04 File Origin:  Cadence Allegro 24.1-S006*
G04 Origin Date:  Sat Aug 16 13:33:42 2025*
G04 *
G04 Layer:  PACKAGE GEOMETRY/SILKSCREEN_TOP*
G04 Layer:  BOARD GEOMETRY/SILKSCREEN_TOP*
G04 *
G04 Offset:    (0.0000 0.0000)*
G04 Mirror:    No*
G04 Mode:      Positive*
G04 Rotation:  0*
G04 FullContactRelief:  No*
G04 UndefLineWidth:     0.1524*
G04 ================== end FILE IDENTIFICATION RECORD ====================*
%FSLAX55Y55*MOMM*%
%IR0*IPPOS*OFA0.00000B0.00000*MIA0B0*SFA1.00000B1.00000*%
%ADD10C,.1*%
%ADD11C,.2*%
%ADD12C,.2032*%
%ADD13C,.1524*%
%ADD14C,.1778*%
%ADD15C,7.2444*%
G75*
%LPD*%
G75*
G36*
G01X1410000Y3960000D02*
X2030000D01*
Y3180000D01*
X1410000D01*
G02Y3960000I8947J390000D01*
G37*
G36*
G01X2880000Y1690000D02*
X2960000Y1610000D01*
X2800000D01*
X2880000Y1690000D01*
G37*
G36*
G01X3467500Y3335000D02*
G03I-30000J0D01*
G37*
G36*
G01Y3875000D02*
G03I-30000J0D01*
G37*
G36*
G01X3668500Y2860000D02*
G03I-30000J0D01*
G37*
G36*
G01X4340000Y2440000D02*
X4260000Y2360000D01*
Y2520000D01*
X4340000Y2440000D01*
G37*
G36*
G01X4940000D02*
X5020000Y2520000D01*
Y2360000D01*
X4940000Y2440000D01*
G37*
G36*
G01X5150000Y1330000D02*
G03I-30000J0D01*
G37*
G36*
G01X5520000Y10000D02*
X5610000Y100000D01*
X5430000D01*
X5520000Y10000D01*
G37*
G36*
G01Y640000D02*
X5430000Y550000D01*
X5610000D01*
X5520000Y640000D01*
G37*
G36*
G01X5782500Y1235000D02*
G03I-30000J0D01*
G37*
G36*
G01X6210000Y1160000D02*
G03I-30000J0D01*
G37*
G36*
G01X5988500Y2860000D02*
G03I-30000J0D01*
G37*
G36*
G01X6442500Y1235000D02*
G03I-30000J0D01*
G37*
G36*
G01X6777500Y3335000D02*
G03I-30000J0D01*
G37*
G36*
G01Y3875000D02*
G03I-30000J0D01*
G37*
G36*
G01X7340000Y10000D02*
X7430000Y100000D01*
X7250000D01*
X7340000Y10000D01*
G37*
G36*
G01X7110000Y3590000D02*
X7060000Y3540000D01*
X7160000D01*
X7110000Y3590000D01*
G37*
%LPC*%
G75*
G54D15*
X1420000Y3570000D03*
%LPD*%
G75*
G54D10*
G01X100000Y4000000D02*
Y0D01*
G01X8550000D02*
Y4000000D01*
G54D11*
G01X810000Y40000D02*
X430000Y70000D01*
G01X810000Y20000D02*
Y220000D01*
X430000D01*
Y20000D01*
G01X1050000Y380000D02*
Y20000D01*
X190000D01*
Y380000D01*
G01X810000Y80000D02*
X430000Y110000D01*
G01X810000Y120000D02*
X430000Y150000D01*
G01X810000Y160000D02*
X430000Y190000D01*
G01X970000Y100000D02*
X270000D01*
G01D02*
Y380000D01*
G01Y880000D02*
Y660000D01*
G01X190000Y880000D02*
Y660000D01*
G01X270000Y1160000D02*
Y1180000D01*
X190000D01*
Y1160000D01*
G01X800000Y2620000D02*
Y1650000D01*
X390000D01*
Y2620000D01*
X800000D01*
G01X970000Y380000D02*
Y100000D01*
G01Y880000D02*
Y660000D01*
G01X1050000Y880000D02*
Y660000D01*
G01Y1160000D02*
Y1180000D01*
X970000D01*
Y1160000D01*
G01X1410000Y3960000D02*
G03Y3180000I10000J-390000D01*
G01X1895000Y200000D02*
Y0D01*
X1555000D01*
Y200000D01*
X1525000D01*
G01X1420000Y90000D02*
G03X1980000Y-50000I297500J0D01*
G01X1353000Y140000D02*
Y40000D01*
G01X1235000Y830000D02*
X2205000D01*
Y480000D01*
X2145000D01*
Y200000D01*
X1295000D01*
Y480000D01*
X1235000D01*
Y830000D01*
G01X1980000Y240000D02*
G03X1420000Y90000I-259911J-150000D01*
G01X1393000D02*
X1313000D01*
G01X1740000Y960000D02*
Y620000D01*
X1580000D01*
Y960000D01*
X1740000D01*
G01X1410000Y3180000D02*
X2440000D01*
G01X1410000Y3960000D02*
X2440000D01*
G01X1980000Y240000D02*
Y-50000D01*
G01X1870000Y800000D02*
Y620000D01*
X1770000D01*
Y800000D01*
X1870000D01*
G01X1970000Y1410000D02*
G02X1750000I-110000J292500D01*
G01X1970000Y1890000D02*
Y1410000D01*
G01X1750000D02*
Y1890000D01*
G01D02*
G02X1970000I110000J-292500D01*
G01X2490000Y2360000D02*
Y2170000D01*
X2430000Y2110000D01*
X1830000D01*
Y2360000D01*
G01Y2520000D02*
Y2770000D01*
X2430000D01*
X2490000Y2710000D01*
Y2520000D01*
G01X2230000Y180000D02*
Y0D01*
X2570000D01*
Y180000D01*
X2230000D01*
G01X2350000Y380000D02*
Y200000D01*
X2250000D01*
Y380000D01*
X2350000D01*
G01X2120000Y1790000D02*
X2010000D01*
Y1510000D01*
X2030000D01*
G01Y3960000D02*
Y3180000D01*
G01X2570000Y180000D02*
X2600000D01*
Y0D01*
X2570000D01*
G01X2730000Y180000D02*
Y0D01*
X3070000D01*
Y180000D01*
X2730000D01*
G01X2750000Y1410000D02*
G02X2530000I-110000J292500D01*
G01D02*
Y1890000D01*
G01X2470000Y1510000D02*
X2490000D01*
Y1790000D01*
X2380000D01*
G01X2530000Y1890000D02*
G02X2750000I110000J-292500D01*
G01X2440000Y3180000D02*
G03Y3960000I-10000J390000D01*
G01X3120000Y180000D02*
Y0D01*
X3460000D01*
Y180000D01*
X3120000D01*
G01X3070000D02*
X3100000D01*
Y0D01*
X3070000D01*
G01X2850000Y380000D02*
Y200000D01*
X2750000D01*
Y380000D01*
X2850000D01*
G01X2750000Y1890000D02*
Y1410000D01*
G01X2790000D02*
Y1890000D01*
X2970000D01*
X2968900Y1883700D01*
G01D02*
X2970000Y1890000D01*
Y1410000D01*
X2968900Y1413800D01*
G01D02*
X2970000Y1410000D01*
X2790000D01*
G01X2791100Y1883700D02*
X2790000Y1890000D01*
Y1920000D01*
X2970000D01*
Y1890000D01*
G01X2791100Y1693200D02*
X2968900D01*
G01X3460000Y180000D02*
X3490000D01*
Y0D01*
X3460000D01*
G01X3240000Y380000D02*
Y200000D01*
X3140000D01*
Y380000D01*
X3240000D01*
G01X3500000Y1990000D02*
G03X3660000I80000J147500D01*
G01Y2330000D02*
G03X3500000I-80000J-147500D01*
G01Y1990000D02*
Y2330000D01*
G01X3230000Y2350000D02*
Y2830000D01*
X3450000D01*
Y2350000D01*
X3230000D01*
G01X3660000Y2590000D02*
X3480000D01*
Y2690000D01*
X3660000D01*
Y2590000D01*
G01X3170000Y3120000D02*
Y3270000D01*
X3200000D01*
G01Y2910000D02*
X3170000D01*
Y3030000D01*
G01X3480000Y2910000D02*
X3510000D01*
Y3030000D01*
G01X3200000Y3450000D02*
X3170000D01*
Y3570000D01*
G01X3480000Y3450000D02*
X3510000D01*
Y3570000D01*
G01X3480000Y3270000D02*
X3510000D01*
Y3120000D01*
G01X3480000Y3810000D02*
X3510000D01*
Y3660000D01*
G01X3170000D02*
Y3810000D01*
X3200000D01*
G01X3850000Y180000D02*
X3880000D01*
Y0D01*
X3850000D01*
G01X3510000Y180000D02*
Y0D01*
X3850000D01*
Y180000D01*
X3510000D01*
G01X3630000Y380000D02*
Y200000D01*
X3530000D01*
Y380000D01*
X3630000D01*
G01X3937800Y820000D02*
Y940000D01*
X3667800D01*
Y820000D01*
X3937800D01*
G01Y1100000D02*
Y1220000D01*
X3667800D01*
Y1100000D01*
X3937800D01*
G01Y1240000D02*
Y1360000D01*
X3667800D01*
Y1240000D01*
X3937800D01*
G01Y1520000D02*
Y1640000D01*
X3667800D01*
Y1520000D01*
X3937800D01*
G01Y1380000D02*
Y1500000D01*
X3667800D01*
Y1380000D01*
X3937800D01*
G01X3690000Y1990000D02*
G03X3850000I80000J147500D01*
G01X3670000Y1790000D02*
G03Y1670000I77500J-60000D01*
G01X3930000Y1790000D02*
X3670000D01*
G01Y1670000D02*
X3930000D01*
G01X3670000Y1950000D02*
G03Y1830000I77500J-60000D01*
G01X3930000Y1950000D02*
X3670000D01*
G01Y1830000D02*
X3930000D01*
G01X3660000Y2330000D02*
Y1990000D01*
G01X3880000D02*
G03X4040000I80000J147500D01*
G01Y2330000D02*
G03X3880000I-80000J-147500D01*
G01Y1990000D02*
Y2330000D01*
G01X3850000D02*
G03X3690000I-80000J-147500D01*
G01Y1990000D02*
Y2330000D01*
G01X3850000D02*
Y1990000D01*
G01X3780000Y2670000D02*
Y2510000D01*
G01X3680000D02*
Y2670000D01*
G01X3780000D02*
G03X3680000I-50000J-50000D01*
G01Y2510000D02*
G03X3780000I50000J50000D01*
G01X3590000Y2960000D02*
X3560000D01*
Y3540000D01*
X3590000D01*
G01X4240000Y180000D02*
X4270000D01*
Y0D01*
X4240000D01*
G01X3900000Y180000D02*
Y0D01*
X4240000D01*
Y180000D01*
X3900000D01*
G01X4020000Y380000D02*
Y200000D01*
X3920000D01*
Y380000D01*
X4020000D01*
G01X3930000Y1670000D02*
G03Y1790000I-77500J60000D01*
G01Y1830000D02*
G03Y1950000I-77500J60000D01*
G01X4040000Y2330000D02*
Y1990000D01*
G01X4533700Y2351100D02*
X4540000Y2350000D01*
X4060000D01*
X4063800Y2351100D01*
G01D02*
X4060000Y2350000D01*
Y2530000D01*
G01D02*
X4540000D01*
Y2350000D01*
X4533700Y2351100D01*
G01X4070000Y3540000D02*
X4100000D01*
Y2960000D01*
X4070000D01*
G01X4270000Y3935000D02*
X4150000D01*
Y3665000D01*
X4270000D01*
Y3935000D01*
G01X4000000Y3670000D02*
G03X4120000I60000J77500D01*
G01X4000000Y3930000D02*
Y3670000D01*
G01X4120000D02*
Y3930000D01*
G01D02*
G03X4000000I-60000J-77500D01*
G01X4480000Y10000D02*
Y-150000D01*
X5380000D01*
Y10000D01*
G01X4480000Y400000D02*
Y210000D01*
G01X4280000Y830000D02*
Y990000D01*
G01X4380000D02*
Y830000D01*
G01X4280000D02*
G03X4380000I50000J50000D01*
G01X4480000Y650000D02*
X4550000D01*
G01X4380000Y990000D02*
G03X4280000I-50000J-50000D01*
G01X4420000Y2330000D02*
X4580000D01*
G01Y2230000D02*
X4420000D01*
G01Y2330000D02*
G03Y2230000I50000J-50000D01*
G01X4580000D02*
G03Y2330000I-50000J50000D01*
G01X4533700Y2528900D02*
X4540000Y2530000D01*
X4570000D01*
Y2350000D01*
X4540000D01*
G01X4343200Y2528900D02*
Y2351100D01*
G01X5670000Y3007840D02*
Y2677840D01*
X4310000D01*
Y3007840D01*
G01Y3607840D02*
Y3937840D01*
X5670000D01*
Y3607840D01*
G01X4860000Y2230000D02*
X4700000D01*
G01Y2330000D02*
X4860000D01*
G01Y2230000D02*
G03Y2330000I-50000J50000D01*
G01X4700000D02*
G03Y2230000I50000J-50000D01*
G01X4746300Y2351100D02*
X4740000Y2350000D01*
X4710000D01*
Y2530000D01*
X4740000D01*
G01X4936800Y2351100D02*
Y2528900D01*
G01X5220000Y2350000D02*
X4740000D01*
Y2530000D01*
X4746300Y2528900D01*
G01D02*
X4740000Y2530000D01*
X5220000D01*
X5216200Y2528900D01*
G01X5380000Y210000D02*
Y400000D01*
G01Y650000D02*
X5310000D01*
G01X5502800Y1010000D02*
G02X5282800I-110000J292500D01*
G01D02*
Y1490000D01*
G01X5257800Y1650000D02*
Y1530000D01*
X5527800D01*
Y1650000D01*
X5257800D01*
G01X5282800Y1490000D02*
G02X5502800I110000J-292500D01*
G01X5230000Y1990000D02*
G03X5390000I80000J147500D01*
G01X5257800Y1790000D02*
Y1670000D01*
X5527800D01*
Y1790000D01*
X5257800D01*
G01X5390000Y2330000D02*
G03X5230000I-80000J-147500D01*
G01Y1990000D02*
Y2330000D01*
G01X5390000D02*
Y1990000D01*
G01X5216200Y2528900D02*
X5220000Y2530000D01*
Y2350000D01*
G01X5520000Y30000D02*
Y620000D01*
G01X5502800Y1490000D02*
Y1010000D01*
G01X5710000Y1300000D02*
X5680000D01*
Y1450000D01*
G01X5710000Y1660000D02*
X5680000D01*
Y1540000D01*
G01X5420000Y1990000D02*
G03X5580000I80000J147500D01*
G01X5610000D02*
G03X5770000I80000J147500D01*
G01X5580000Y2330000D02*
G03X5420000I-80000J-147500D01*
G01Y1990000D02*
Y2330000D01*
G01X5580000D02*
Y1990000D01*
G01X5770000Y2330000D02*
G03X5610000I-80000J-147500D01*
G01Y1990000D02*
Y2330000D01*
G01X5770000D02*
Y1990000D01*
G01X5830000Y3935000D02*
X5710000D01*
Y3665000D01*
X5830000D01*
Y3935000D01*
G01X7190000Y-40000D02*
Y-150000D01*
X5870000D01*
Y-40000D01*
G01Y250000D02*
Y860000D01*
X6050000D01*
G01X6290000Y1240000D02*
G02X6070000I-110000J292500D01*
G01D02*
Y1720000D01*
G01X6020000Y1450000D02*
Y1300000D01*
X5990000D01*
G01Y1660000D02*
X6020000D01*
Y1540000D01*
G01X6070000Y1720000D02*
G02X6290000I110000J-292500D01*
G01X5910000Y2960000D02*
X5880000D01*
Y3540000D01*
X5910000D01*
G01X5860000Y3670000D02*
G03X5980000I60000J77500D01*
G01X5860000Y3930000D02*
Y3670000D01*
G01X5980000D02*
Y3930000D01*
G01D02*
G03X5860000I-60000J-77500D01*
G01X6290000Y1720000D02*
Y1240000D01*
G01X6370000Y1300000D02*
X6340000D01*
Y1450000D01*
G01X6370000Y1660000D02*
X6340000D01*
Y1540000D01*
G01X6760000Y2830000D02*
Y2350000D01*
X6540000D01*
Y2830000D01*
X6760000D01*
G01X6330000Y2680000D02*
X6510000D01*
Y2580000D01*
X6330000D01*
Y2680000D01*
G01X6210000Y2510000D02*
Y2670000D01*
G01X6310000D02*
Y2510000D01*
G01X6210000D02*
G03X6310000I50000J50000D01*
G01Y2670000D02*
G03X6210000I-50000J-50000D01*
G01X6480000Y3120000D02*
Y3270000D01*
X6510000D01*
G01Y2910000D02*
X6480000D01*
Y3030000D01*
G01X6390000Y3540000D02*
X6420000D01*
Y2960000D01*
X6390000D01*
G01X6510000Y3450000D02*
X6480000D01*
Y3570000D01*
G01Y3660000D02*
Y3810000D01*
X6510000D01*
G01X6680000Y1450000D02*
Y1300000D01*
X6650000D01*
G01Y1660000D02*
X6680000D01*
Y1540000D01*
G01X7320000Y1910000D02*
Y1660000D01*
X6720000D01*
X6660000Y1720000D01*
Y1910000D01*
G01Y2070000D02*
Y2260000D01*
X6720000Y2320000D01*
X7320000D01*
Y2070000D01*
G01X6790000Y3270000D02*
X6820000D01*
Y3120000D01*
G01X6790000Y2910000D02*
X6820000D01*
Y3030000D01*
G01X6790000Y3450000D02*
X6820000D01*
Y3570000D01*
G01X6790000Y3810000D02*
X6820000D01*
Y3660000D01*
G01X7190000Y250000D02*
Y860000D01*
X7010000D01*
G01X6977000Y3850000D02*
Y3590000D01*
X7497000D01*
Y3850000D01*
X6977000D01*
G01X7340000Y30000D02*
Y620000D01*
G01X8460000Y380000D02*
Y20000D01*
X7600000D01*
Y380000D01*
G01X8380000Y100000D02*
X7680000D01*
G01D02*
Y380000D01*
G01Y880000D02*
Y660000D01*
G01X7600000Y880000D02*
Y660000D01*
G01X7680000Y1160000D02*
Y1180000D01*
X7600000D01*
Y1160000D01*
G01X7620000Y1480000D02*
X7510000D01*
Y1640000D01*
G01X7720000D02*
X7620000D01*
G01Y1850000D02*
X7510000D01*
Y2010000D01*
G01X7710000Y2320000D02*
Y2140000D01*
X7610000D01*
Y2320000D01*
X7710000D01*
G01X7720000Y2010000D02*
X7620000D01*
G01X8220000Y40000D02*
X7840000Y70000D01*
G01X8220000Y20000D02*
Y220000D01*
X7840000D01*
Y20000D01*
G01X8220000Y80000D02*
X7840000Y110000D01*
G01X8220000Y120000D02*
X7840000Y150000D01*
G01X8220000Y160000D02*
X7840000Y190000D01*
G01X7720000Y1480000D02*
X7830000D01*
Y1640000D01*
G01X7980000Y1480000D02*
X7870000D01*
Y1640000D01*
G01X7720000Y1850000D02*
X7830000D01*
Y2010000D01*
G01X8080000Y1640000D02*
X7980000D01*
G01Y1850000D02*
X7870000D01*
Y2010000D01*
G01X8070000Y2320000D02*
Y2140000D01*
X7970000D01*
Y2320000D01*
X8070000D01*
G01X7730000Y2140000D02*
Y2320000D01*
X7830000D01*
Y2140000D01*
X7730000D01*
G01X8080000Y2010000D02*
X7980000D01*
G01X8380000Y380000D02*
Y100000D01*
G01Y880000D02*
Y660000D01*
G01X8460000Y1160000D02*
Y1180000D01*
X8380000D01*
Y1160000D01*
G01X8080000Y1480000D02*
X8190000D01*
Y1640000D01*
G01X8080000Y1850000D02*
X8190000D01*
Y2010000D01*
G01X8090000Y2140000D02*
Y2320000D01*
X8190000D01*
Y2140000D01*
X8090000D01*
G01X8460000Y880000D02*
Y660000D01*
G54D12*
G01X4310000Y1230000D02*
X4240000D01*
Y1300000D01*
G01Y1960000D02*
Y2030000D01*
X4310000D01*
G01X5040000Y1300000D02*
Y1230000D01*
X4970000D01*
G01Y2030000D02*
X5040000D01*
Y1960000D01*
G54D13*
G01X515000Y2569000D02*
X524000Y2563000D01*
X528500Y2556000D01*
X530000Y2548000D01*
X527000Y2538000D01*
X519500Y2531000D01*
X510500Y2529000D01*
X501500Y2530000D01*
X494000Y2534000D01*
X479000Y2554000D01*
X468500Y2563000D01*
X453500Y2569000D01*
X440000Y2571000D01*
Y2529000D01*
G01X453500Y2502000D02*
X446000Y2496000D01*
X441500Y2489000D01*
X440000Y2480000D01*
X443000Y2471000D01*
X449000Y2464000D01*
X459500Y2459000D01*
X471500Y2458000D01*
X483500Y2460000D01*
X491000Y2465000D01*
X497000Y2472000D01*
X498500Y2479000D01*
X497000Y2486000D01*
X491000Y2495000D01*
X530000Y2492000D01*
Y2465000D01*
G01Y2410000D02*
X527000Y2418000D01*
X519500Y2424000D01*
X510500Y2428000D01*
X498500Y2431000D01*
X485000Y2432000D01*
X471500Y2431000D01*
X459500Y2428000D01*
X450500Y2424000D01*
X443000Y2418000D01*
X440000Y2410000D01*
X443000Y2402000D01*
X450500Y2396000D01*
X459500Y2392000D01*
X471500Y2389000D01*
X485000Y2388000D01*
X498500Y2389000D01*
X510500Y2392000D01*
X519500Y2396000D01*
X527000Y2402000D01*
X530000Y2410000D01*
G01X440000Y2340000D02*
X441500Y2333000D01*
X446000Y2325000D01*
X453500Y2320000D01*
X464000Y2318000D01*
X474500Y2320000D01*
X483500Y2326000D01*
X488000Y2335000D01*
Y2345000D01*
X491000Y2351000D01*
X498500Y2356000D01*
X509000Y2358000D01*
X519500Y2355000D01*
X527000Y2348000D01*
X530000Y2340000D01*
X527000Y2332000D01*
X519500Y2325000D01*
X509000Y2322000D01*
X498500Y2324000D01*
X491000Y2329000D01*
X488000Y2335000D01*
Y2345000D01*
X483500Y2354000D01*
X474500Y2360000D01*
X464000Y2362000D01*
X453500Y2360000D01*
X446000Y2355000D01*
X441500Y2347000D01*
X440000Y2340000D01*
G01Y2270000D02*
X530000D01*
X512000Y2282000D01*
G01X440000D02*
Y2258000D01*
G01X477500Y2219000D02*
X488000Y2212000D01*
X494000Y2206000D01*
X497000Y2198000D01*
X494000Y2191000D01*
X488000Y2186000D01*
X479000Y2182000D01*
X468500Y2181000D01*
X459500Y2182000D01*
X450500Y2186000D01*
X443000Y2192000D01*
X440000Y2199000D01*
X443000Y2207000D01*
X452000Y2214000D01*
X465500Y2218000D01*
X480500Y2219000D01*
X500000Y2217000D01*
X510500Y2214000D01*
X521000Y2209000D01*
X528500Y2202000D01*
X530000Y2195000D01*
X527000Y2188000D01*
X519500Y2183000D01*
G01X650000Y2570000D02*
X740000D01*
Y2546000D01*
X735500Y2538000D01*
X725000Y2532000D01*
X713000Y2530000D01*
X701000Y2532000D01*
X692000Y2537000D01*
X687500Y2546000D01*
Y2570000D01*
G01X650000Y2480000D02*
X651500Y2488000D01*
X657500Y2495000D01*
X666500Y2501000D01*
X677000Y2505000D01*
X689000Y2507000D01*
X701000D01*
X713000Y2505000D01*
X723500Y2501000D01*
X732500Y2495000D01*
X738500Y2488000D01*
X740000Y2480000D01*
X738500Y2472000D01*
X732500Y2465000D01*
X723500Y2459000D01*
X713000Y2455000D01*
X701000Y2453000D01*
X689000D01*
X677000Y2455000D01*
X666500Y2459000D01*
X657500Y2465000D01*
X651500Y2472000D01*
X650000Y2480000D01*
G01X740000Y2440000D02*
X650000Y2426000D01*
X740000Y2410000D01*
X650000Y2394000D01*
X740000Y2380000D01*
G01X650000Y2320000D02*
Y2360000D01*
X740000D01*
Y2320000D01*
G01X696500Y2336000D02*
Y2360000D01*
G01X650000Y2290000D02*
X740000D01*
Y2265000D01*
X735500Y2257000D01*
X729500Y2252000D01*
X717500Y2250000D01*
X705500Y2252000D01*
X698000Y2258000D01*
X693500Y2265000D01*
Y2290000D01*
G01Y2265000D02*
X650000Y2250000D01*
G01X698000Y2192000D02*
X702500Y2188000D01*
X710000Y2185000D01*
X720500Y2183000D01*
X729500Y2185000D01*
X735500Y2189000D01*
X740000Y2196000D01*
Y2223000D01*
X650000D01*
Y2190000D01*
X656000Y2183000D01*
X665000Y2179000D01*
X675500Y2177000D01*
X686000Y2179000D01*
X695000Y2185000D01*
X698000Y2192000D01*
Y2223000D01*
G01X650000Y2155000D02*
X740000Y2130000D01*
X650000Y2105000D01*
G01X681500Y2114000D02*
Y2146000D01*
G01X650000Y2083000D02*
X740000D01*
X650000Y2037000D01*
X740000D01*
G01X650000Y2012000D02*
X740000D01*
G01Y1974000D02*
X684500Y2012000D01*
G01X650000Y1968000D02*
X710000Y1995000D01*
G01X620000Y1950000D02*
Y1890000D01*
G01X740000Y1875000D02*
X650000Y1850000D01*
X740000Y1825000D01*
G01X650000Y1780000D02*
X740000D01*
X722000Y1792000D01*
G01X650000D02*
Y1768000D01*
G01X740000Y1710000D02*
X737000Y1718000D01*
X729500Y1724000D01*
X720500Y1728000D01*
X708500Y1731000D01*
X695000Y1732000D01*
X681500Y1731000D01*
X669500Y1728000D01*
X660500Y1724000D01*
X653000Y1718000D01*
X650000Y1710000D01*
X653000Y1702000D01*
X660500Y1696000D01*
X669500Y1692000D01*
X681500Y1689000D01*
X695000Y1688000D01*
X708500Y1689000D01*
X720500Y1692000D01*
X729500Y1696000D01*
X737000Y1702000D01*
X740000Y1710000D01*
G01X1298000Y3075000D02*
X1324670D01*
Y3042000D01*
X1316670Y3031000D01*
X1307330Y3023670D01*
X1294000Y3020000D01*
X1280670Y3023670D01*
X1271330Y3031000D01*
X1263330Y3042000D01*
X1258000Y3054830D01*
X1255330Y3069500D01*
Y3082330D01*
X1258000Y3093330D01*
X1263330Y3106170D01*
X1271330Y3117170D01*
X1279330Y3124500D01*
X1290000Y3130000D01*
X1299330D01*
X1310000Y3126330D01*
X1318000Y3119000D01*
G01X1349330Y3020000D02*
Y3130000D01*
X1410670Y3020000D01*
Y3130000D01*
G01X1440670Y3020000D02*
Y3130000D01*
X1467330D01*
X1478000Y3124500D01*
X1486000Y3117170D01*
X1492670Y3106170D01*
X1498000Y3093330D01*
X1499330Y3075000D01*
X1498000Y3056670D01*
X1492670Y3043830D01*
X1486000Y3032830D01*
X1478000Y3025500D01*
X1467330Y3020000D01*
X1440670D01*
G01X2266670Y3130000D02*
X2300000Y3020000D01*
X2333330Y3130000D01*
G01X2400670Y3078670D02*
X2406000Y3084170D01*
X2410000Y3093330D01*
X2412670Y3106170D01*
X2410000Y3117170D01*
X2404670Y3124500D01*
X2395330Y3130000D01*
X2359330D01*
Y3020000D01*
X2403330D01*
X2412670Y3027330D01*
X2418000Y3038330D01*
X2420670Y3051170D01*
X2418000Y3064000D01*
X2410000Y3075000D01*
X2400670Y3078670D01*
X2359330D01*
G01X2446670Y3020000D02*
X2480000Y3130000D01*
X2513330Y3020000D01*
G01X2501330Y3058500D02*
X2458670D01*
G01X2570000Y3130000D02*
Y3020000D01*
G01X2539330Y3130000D02*
X2600670D01*
G01X2470000Y230000D02*
X2468500Y222000D01*
X2462500Y215000D01*
X2453500Y209000D01*
X2443000Y205000D01*
X2431000Y203000D01*
X2419000D01*
X2407000Y205000D01*
X2396500Y209000D01*
X2387500Y215000D01*
X2381500Y222000D01*
X2380000Y230000D01*
X2381500Y238000D01*
X2387500Y245000D01*
X2396500Y251000D01*
X2407000Y255000D01*
X2419000Y257000D01*
X2431000D01*
X2443000Y255000D01*
X2453500Y251000D01*
X2462500Y245000D01*
X2468500Y238000D01*
X2470000Y230000D01*
G01X2446000Y238000D02*
X2470000Y250000D01*
G01X2380000Y278000D02*
X2444500D01*
X2458000Y282000D01*
X2467000Y290000D01*
X2470000Y300000D01*
X2467000Y310000D01*
X2458000Y318000D01*
X2444500Y322000D01*
X2380000D01*
G01Y358000D02*
Y382000D01*
G01Y370000D02*
X2470000D01*
G01Y358000D02*
Y382000D01*
G01X2387500Y462000D02*
X2383000Y456000D01*
X2380000Y449000D01*
Y441000D01*
X2384500Y432000D01*
X2392000Y425000D01*
X2401000Y420000D01*
X2416000Y416000D01*
X2429500Y415000D01*
X2443000Y417000D01*
X2452000Y420000D01*
X2461000Y426000D01*
X2467000Y433000D01*
X2470000Y440000D01*
Y447000D01*
X2467000Y454000D01*
X2462500Y460000D01*
X2456500Y465000D01*
G01X2470000Y488000D02*
X2380000D01*
G01Y526000D02*
X2435500Y488000D01*
G01X2470000Y532000D02*
X2410000Y505000D01*
G01X2507500Y252000D02*
X2503000Y246000D01*
X2500000Y239000D01*
Y231000D01*
X2504500Y222000D01*
X2512000Y215000D01*
X2521000Y210000D01*
X2536000Y206000D01*
X2549500Y205000D01*
X2563000Y207000D01*
X2572000Y210000D01*
X2581000Y216000D01*
X2587000Y223000D01*
X2590000Y230000D01*
Y237000D01*
X2587000Y244000D01*
X2582500Y250000D01*
X2576500Y255000D01*
G01X2590000Y279000D02*
X2500000D01*
G01Y321000D02*
X2590000D01*
G01X2545000D02*
Y279000D01*
G01X2590000Y345000D02*
X2500000Y370000D01*
X2590000Y395000D01*
G01X2558500Y386000D02*
Y354000D01*
G01X2590000Y420000D02*
X2500000D01*
Y445000D01*
X2504500Y453000D01*
X2510500Y458000D01*
X2522500Y460000D01*
X2534500Y458000D01*
X2542000Y452000D01*
X2546500Y445000D01*
Y420000D01*
G01Y445000D02*
X2590000Y460000D01*
G01X2545000Y516000D02*
Y536000D01*
X2572000D01*
X2581000Y530000D01*
X2587000Y523000D01*
X2590000Y513000D01*
X2587000Y503000D01*
X2581000Y496000D01*
X2572000Y490000D01*
X2561500Y486000D01*
X2549500Y484000D01*
X2539000D01*
X2530000Y486000D01*
X2519500Y490000D01*
X2510500Y496000D01*
X2504500Y502000D01*
X2500000Y510000D01*
Y517000D01*
X2503000Y525000D01*
X2509000Y531000D01*
G01X2590000Y600000D02*
Y560000D01*
X2500000D01*
Y600000D01*
G01X2543500Y584000D02*
Y560000D01*
G01X3050000Y220000D02*
X2960000D01*
X2978000Y208000D01*
G01X3050000D02*
Y232000D01*
G01X2960000Y290000D02*
X2963000Y282000D01*
X2970500Y276000D01*
X2979500Y272000D01*
X2991500Y269000D01*
X3005000Y268000D01*
X3018500Y269000D01*
X3030500Y272000D01*
X3039500Y276000D01*
X3047000Y282000D01*
X3050000Y290000D01*
X3047000Y298000D01*
X3039500Y304000D01*
X3030500Y308000D01*
X3018500Y311000D01*
X3005000Y312000D01*
X2991500Y311000D01*
X2979500Y308000D01*
X2970500Y304000D01*
X2963000Y298000D01*
X2960000Y290000D01*
G01Y360000D02*
X2963000Y352000D01*
X2970500Y346000D01*
X2979500Y342000D01*
X2991500Y339000D01*
X3005000Y338000D01*
X3018500Y339000D01*
X3030500Y342000D01*
X3039500Y346000D01*
X3047000Y352000D01*
X3050000Y360000D01*
X3047000Y368000D01*
X3039500Y374000D01*
X3030500Y378000D01*
X3018500Y381000D01*
X3005000Y382000D01*
X2991500Y381000D01*
X2979500Y378000D01*
X2970500Y374000D01*
X2963000Y368000D01*
X2960000Y360000D01*
G01X3053000Y412000D02*
X2960000Y448000D01*
G01Y412000D02*
X2963000Y406000D01*
X2967500Y403000D01*
X2976500Y401000D01*
X2985500Y403000D01*
X2990000Y406000D01*
X2993000Y412000D01*
X2990000Y418000D01*
X2985500Y421000D01*
X2976500Y423000D01*
X2967500Y421000D01*
X2963000Y418000D01*
X2960000Y412000D01*
G01X3020000Y448000D02*
X3023000Y442000D01*
X3027500Y439000D01*
X3036500Y437000D01*
X3045500Y439000D01*
X3050000Y442000D01*
X3053000Y448000D01*
X3050000Y454000D01*
X3045500Y457000D01*
X3036500Y459000D01*
X3027500Y457000D01*
X3023000Y454000D01*
X3020000Y448000D01*
G01X3097000Y1530000D02*
Y1620000D01*
X3143000Y1530000D01*
Y1620000D01*
G01X3190000D02*
Y1530000D01*
G01X3167000Y1620000D02*
X3213000D01*
G01X3282000Y1612500D02*
X3276000Y1617000D01*
X3269000Y1620000D01*
X3261000D01*
X3252000Y1615500D01*
X3245000Y1608000D01*
X3240000Y1599000D01*
X3236000Y1584000D01*
X3235000Y1570500D01*
X3237000Y1557000D01*
X3240000Y1548000D01*
X3246000Y1539000D01*
X3253000Y1533000D01*
X3260000Y1530000D01*
X3267000D01*
X3274000Y1533000D01*
X3280000Y1537500D01*
X3285000Y1543500D01*
G01X3374000Y1530000D02*
Y1620000D01*
X3400000Y1545000D01*
X3426000Y1620000D01*
Y1530000D01*
G01X3470000D02*
X3462000Y1531500D01*
X3455000Y1537500D01*
X3449000Y1546500D01*
X3445000Y1557000D01*
X3443000Y1569000D01*
Y1581000D01*
X3445000Y1593000D01*
X3449000Y1603500D01*
X3455000Y1612500D01*
X3462000Y1618500D01*
X3470000Y1620000D01*
X3478000Y1618500D01*
X3485000Y1612500D01*
X3491000Y1603500D01*
X3495000Y1593000D01*
X3497000Y1581000D01*
Y1569000D01*
X3495000Y1557000D01*
X3491000Y1546500D01*
X3485000Y1537500D01*
X3478000Y1531500D01*
X3470000Y1530000D01*
G01X3518000D02*
Y1620000D01*
X3538000D01*
X3546000Y1615500D01*
X3552000Y1609500D01*
X3557000Y1600500D01*
X3561000Y1590000D01*
X3562000Y1575000D01*
X3561000Y1560000D01*
X3557000Y1549500D01*
X3552000Y1540500D01*
X3546000Y1534500D01*
X3538000Y1530000D01*
X3518000D01*
G01X3630000D02*
X3590000D01*
Y1620000D01*
X3630000D01*
G01X3614000Y1576500D02*
X3590000D01*
G01X3440000Y228000D02*
X3420500Y230000D01*
X3404000Y233000D01*
X3389000Y237000D01*
X3372500Y242000D01*
X3350000Y250000D01*
Y210000D01*
G01X3426500Y278000D02*
X3434000Y284000D01*
X3438500Y291000D01*
X3440000Y300000D01*
X3437000Y309000D01*
X3431000Y316000D01*
X3420500Y321000D01*
X3408500Y322000D01*
X3396500Y320000D01*
X3389000Y315000D01*
X3383000Y308000D01*
X3381500Y301000D01*
X3383000Y294000D01*
X3389000Y285000D01*
X3350000Y288000D01*
Y315000D01*
G01X3443000Y352000D02*
X3350000Y388000D01*
G01Y352000D02*
X3353000Y346000D01*
X3357500Y343000D01*
X3366500Y341000D01*
X3375500Y343000D01*
X3380000Y346000D01*
X3383000Y352000D01*
X3380000Y358000D01*
X3375500Y361000D01*
X3366500Y363000D01*
X3357500Y361000D01*
X3353000Y358000D01*
X3350000Y352000D01*
G01X3410000Y388000D02*
X3413000Y382000D01*
X3417500Y379000D01*
X3426500Y377000D01*
X3435500Y379000D01*
X3440000Y382000D01*
X3443000Y388000D01*
X3440000Y394000D01*
X3435500Y397000D01*
X3426500Y399000D01*
X3417500Y397000D01*
X3413000Y394000D01*
X3410000Y388000D01*
G01X3380000Y830000D02*
Y920000D01*
X3404000D01*
X3412000Y915500D01*
X3418000Y905000D01*
X3420000Y893000D01*
X3418000Y881000D01*
X3413000Y872000D01*
X3404000Y867500D01*
X3380000D01*
G01X3444000Y830000D02*
Y920000D01*
X3470000Y845000D01*
X3496000Y920000D01*
Y830000D01*
G01X3515000D02*
X3540000Y920000D01*
X3565000Y830000D01*
G01X3556000Y861500D02*
X3524000D01*
G01X3589000Y830000D02*
X3631000Y920000D01*
G01X3589000D02*
X3631000Y830000D01*
G01X3380000Y1200000D02*
Y1110000D01*
X3420000D01*
G01X3490000D02*
X3450000D01*
Y1200000D01*
X3490000D01*
G01X3474000Y1156500D02*
X3450000D01*
G01X3518000Y1110000D02*
Y1200000D01*
X3538000D01*
X3546000Y1195500D01*
X3552000Y1189500D01*
X3557000Y1180500D01*
X3561000Y1170000D01*
X3562000Y1155000D01*
X3561000Y1140000D01*
X3557000Y1129500D01*
X3552000Y1120500D01*
X3546000Y1114500D01*
X3538000Y1110000D01*
X3518000D01*
G01X3588000Y1123500D02*
X3594000Y1116000D01*
X3601000Y1111500D01*
X3610000Y1110000D01*
X3619000Y1113000D01*
X3626000Y1119000D01*
X3631000Y1129500D01*
X3632000Y1141500D01*
X3630000Y1153500D01*
X3625000Y1161000D01*
X3618000Y1167000D01*
X3611000Y1168500D01*
X3604000Y1167000D01*
X3595000Y1161000D01*
X3598000Y1200000D01*
X3625000D01*
G01X3381000Y1390000D02*
Y1480000D01*
X3419000D01*
G01X3405000Y1436500D02*
X3381000D01*
G01X3492000Y1472500D02*
X3486000Y1477000D01*
X3479000Y1480000D01*
X3471000D01*
X3462000Y1475500D01*
X3455000Y1468000D01*
X3450000Y1459000D01*
X3446000Y1444000D01*
X3445000Y1430500D01*
X3447000Y1417000D01*
X3450000Y1408000D01*
X3456000Y1399000D01*
X3463000Y1393000D01*
X3470000Y1390000D01*
X3477000D01*
X3484000Y1393000D01*
X3490000Y1397500D01*
X3495000Y1403500D01*
G01X3515000Y1390000D02*
X3540000Y1480000D01*
X3565000Y1390000D01*
G01X3556000Y1421500D02*
X3524000D01*
G01X3590000Y1390000D02*
Y1480000D01*
X3614000D01*
X3622000Y1475500D01*
X3628000Y1465000D01*
X3630000Y1453000D01*
X3628000Y1441000D01*
X3623000Y1432000D01*
X3614000Y1427500D01*
X3590000D01*
G01X3375000Y1340000D02*
X3400000Y1250000D01*
X3425000Y1340000D01*
G01X3449000Y1262000D02*
X3457000Y1254500D01*
X3466000Y1250000D01*
X3474000D01*
X3482000Y1254500D01*
X3488000Y1262000D01*
X3491000Y1272500D01*
X3489000Y1283000D01*
X3484000Y1292000D01*
X3475000Y1298000D01*
X3463000Y1301000D01*
X3456000Y1307000D01*
X3453000Y1317500D01*
X3455000Y1328000D01*
X3460000Y1335500D01*
X3467000Y1340000D01*
X3474000D01*
X3481000Y1337000D01*
X3487000Y1329500D01*
G01X3560000Y1250000D02*
X3520000D01*
Y1340000D01*
X3560000D01*
G01X3544000Y1296500D02*
X3520000D01*
G01X3610000Y1340000D02*
Y1250000D01*
G01X3587000Y1340000D02*
X3633000D01*
G01X3826500Y208000D02*
X3834000Y214000D01*
X3838500Y221000D01*
X3840000Y230000D01*
X3837000Y239000D01*
X3831000Y246000D01*
X3820500Y251000D01*
X3808500Y252000D01*
X3796500Y250000D01*
X3789000Y245000D01*
X3783000Y238000D01*
X3781500Y231000D01*
X3783000Y224000D01*
X3789000Y215000D01*
X3750000Y218000D01*
Y245000D01*
G01Y300000D02*
X3753000Y292000D01*
X3760500Y286000D01*
X3769500Y282000D01*
X3781500Y279000D01*
X3795000Y278000D01*
X3808500Y279000D01*
X3820500Y282000D01*
X3829500Y286000D01*
X3837000Y292000D01*
X3840000Y300000D01*
X3837000Y308000D01*
X3829500Y314000D01*
X3820500Y318000D01*
X3808500Y321000D01*
X3795000Y322000D01*
X3781500Y321000D01*
X3769500Y318000D01*
X3760500Y314000D01*
X3753000Y308000D01*
X3750000Y300000D01*
G01X3843000Y352000D02*
X3750000Y388000D01*
G01Y352000D02*
X3753000Y346000D01*
X3757500Y343000D01*
X3766500Y341000D01*
X3775500Y343000D01*
X3780000Y346000D01*
X3783000Y352000D01*
X3780000Y358000D01*
X3775500Y361000D01*
X3766500Y363000D01*
X3757500Y361000D01*
X3753000Y358000D01*
X3750000Y352000D01*
G01X3810000Y388000D02*
X3813000Y382000D01*
X3817500Y379000D01*
X3826500Y377000D01*
X3835500Y379000D01*
X3840000Y382000D01*
X3843000Y388000D01*
X3840000Y394000D01*
X3835500Y397000D01*
X3826500Y399000D01*
X3817500Y397000D01*
X3813000Y394000D01*
X3810000Y388000D01*
G01X4145000Y211000D02*
X4136000Y217000D01*
X4131500Y224000D01*
X4130000Y232000D01*
X4133000Y242000D01*
X4140500Y249000D01*
X4149500Y251000D01*
X4158500Y250000D01*
X4166000Y246000D01*
X4181000Y226000D01*
X4191500Y217000D01*
X4206500Y211000D01*
X4220000Y209000D01*
Y251000D01*
G01X4206500Y278000D02*
X4214000Y284000D01*
X4218500Y291000D01*
X4220000Y300000D01*
X4217000Y309000D01*
X4211000Y316000D01*
X4200500Y321000D01*
X4188500Y322000D01*
X4176500Y320000D01*
X4169000Y315000D01*
X4163000Y308000D01*
X4161500Y301000D01*
X4163000Y294000D01*
X4169000Y285000D01*
X4130000Y288000D01*
Y315000D01*
G01X4223000Y352000D02*
X4130000Y388000D01*
G01Y352000D02*
X4133000Y346000D01*
X4137500Y343000D01*
X4146500Y341000D01*
X4155500Y343000D01*
X4160000Y346000D01*
X4163000Y352000D01*
X4160000Y358000D01*
X4155500Y361000D01*
X4146500Y363000D01*
X4137500Y361000D01*
X4133000Y358000D01*
X4130000Y352000D01*
G01X4190000Y388000D02*
X4193000Y382000D01*
X4197500Y379000D01*
X4206500Y377000D01*
X4215500Y379000D01*
X4220000Y382000D01*
X4223000Y388000D01*
X4220000Y394000D01*
X4215500Y397000D01*
X4206500Y399000D01*
X4197500Y397000D01*
X4193000Y394000D01*
X4190000Y388000D01*
G01X4730000Y860000D02*
Y950000D01*
X4754000D01*
X4762000Y945500D01*
X4768000Y935000D01*
X4770000Y923000D01*
X4768000Y911000D01*
X4763000Y902000D01*
X4754000Y897500D01*
X4730000D01*
G01X4798000Y860000D02*
Y950000D01*
X4818000D01*
X4826000Y945500D01*
X4832000Y939500D01*
X4837000Y930500D01*
X4841000Y920000D01*
X4842000Y905000D01*
X4841000Y890000D01*
X4837000Y879500D01*
X4832000Y870500D01*
X4826000Y864500D01*
X4818000Y860000D01*
X4798000D01*
G01X4890000D02*
Y950000D01*
X4878000Y932000D01*
G01Y860000D02*
X4902000D01*
G01X4960000Y950000D02*
X4952000Y947000D01*
X4946000Y939500D01*
X4942000Y930500D01*
X4939000Y918500D01*
X4938000Y905000D01*
X4939000Y891500D01*
X4942000Y879500D01*
X4946000Y870500D01*
X4952000Y863000D01*
X4960000Y860000D01*
X4968000Y863000D01*
X4974000Y870500D01*
X4978000Y879500D01*
X4981000Y891500D01*
X4982000Y905000D01*
X4981000Y918500D01*
X4978000Y930500D01*
X4974000Y939500D01*
X4968000Y947000D01*
X4960000Y950000D01*
G01X5030000D02*
X5022000Y947000D01*
X5016000Y939500D01*
X5012000Y930500D01*
X5009000Y918500D01*
X5008000Y905000D01*
X5009000Y891500D01*
X5012000Y879500D01*
X5016000Y870500D01*
X5022000Y863000D01*
X5030000Y860000D01*
X5038000Y863000D01*
X5044000Y870500D01*
X5048000Y879500D01*
X5051000Y891500D01*
X5052000Y905000D01*
X5051000Y918500D01*
X5048000Y930500D01*
X5044000Y939500D01*
X5038000Y947000D01*
X5030000Y950000D01*
G01X5070000D02*
X5084000Y860000D01*
X5100000Y950000D01*
X5116000Y860000D01*
X5130000Y950000D01*
G01X4738000Y820000D02*
X4762000D01*
G01X4750000D02*
Y730000D01*
G01X4738000D02*
X4762000D01*
G01X4797000D02*
Y820000D01*
X4843000Y730000D01*
Y820000D01*
G01X4872000Y727000D02*
X4908000Y820000D01*
G01X4960000Y730000D02*
X4952000Y731500D01*
X4945000Y737500D01*
X4939000Y746500D01*
X4935000Y757000D01*
X4933000Y769000D01*
Y781000D01*
X4935000Y793000D01*
X4939000Y803500D01*
X4945000Y812500D01*
X4952000Y818500D01*
X4960000Y820000D01*
X4968000Y818500D01*
X4975000Y812500D01*
X4981000Y803500D01*
X4985000Y793000D01*
X4987000Y781000D01*
Y769000D01*
X4985000Y757000D01*
X4981000Y746500D01*
X4975000Y737500D01*
X4968000Y731500D01*
X4960000Y730000D01*
G01X5008000Y820000D02*
Y755500D01*
X5012000Y742000D01*
X5020000Y733000D01*
X5030000Y730000D01*
X5040000Y733000D01*
X5048000Y742000D01*
X5052000Y755500D01*
Y820000D01*
G01X5100000D02*
Y730000D01*
G01X5077000Y820000D02*
X5123000D01*
G01X5119000Y1562000D02*
X5127000Y1554500D01*
X5136000Y1550000D01*
X5144000D01*
X5152000Y1554500D01*
X5158000Y1562000D01*
X5161000Y1572500D01*
X5159000Y1583000D01*
X5154000Y1592000D01*
X5145000Y1598000D01*
X5133000Y1601000D01*
X5126000Y1607000D01*
X5123000Y1617500D01*
X5125000Y1628000D01*
X5130000Y1635500D01*
X5137000Y1640000D01*
X5144000D01*
X5151000Y1637000D01*
X5157000Y1629500D01*
G01X5210000Y1550000D02*
Y1640000D01*
X5198000Y1622000D01*
G01Y1550000D02*
X5222000D01*
G01X5119000Y1702000D02*
X5127000Y1694500D01*
X5136000Y1690000D01*
X5144000D01*
X5152000Y1694500D01*
X5158000Y1702000D01*
X5161000Y1712500D01*
X5159000Y1723000D01*
X5154000Y1732000D01*
X5145000Y1738000D01*
X5133000Y1741000D01*
X5126000Y1747000D01*
X5123000Y1757500D01*
X5125000Y1768000D01*
X5130000Y1775500D01*
X5137000Y1780000D01*
X5144000D01*
X5151000Y1777000D01*
X5157000Y1769500D01*
G01X5191000Y1765000D02*
X5197000Y1774000D01*
X5204000Y1778500D01*
X5212000Y1780000D01*
X5222000Y1777000D01*
X5229000Y1769500D01*
X5231000Y1760500D01*
X5230000Y1751500D01*
X5226000Y1744000D01*
X5206000Y1729000D01*
X5197000Y1718500D01*
X5191000Y1703500D01*
X5189000Y1690000D01*
X5231000D01*
G01X7040000Y1030000D02*
X7032000Y1031500D01*
X7025000Y1037500D01*
X7019000Y1046500D01*
X7015000Y1057000D01*
X7013000Y1069000D01*
Y1081000D01*
X7015000Y1093000D01*
X7019000Y1103500D01*
X7025000Y1112500D01*
X7032000Y1118500D01*
X7040000Y1120000D01*
X7048000Y1118500D01*
X7055000Y1112500D01*
X7061000Y1103500D01*
X7065000Y1093000D01*
X7067000Y1081000D01*
Y1069000D01*
X7065000Y1057000D01*
X7061000Y1046500D01*
X7055000Y1037500D01*
X7048000Y1031500D01*
X7040000Y1030000D01*
G01X7048000Y1054000D02*
X7060000Y1030000D01*
G01X7132000Y1112500D02*
X7126000Y1117000D01*
X7119000Y1120000D01*
X7111000D01*
X7102000Y1115500D01*
X7095000Y1108000D01*
X7090000Y1099000D01*
X7086000Y1084000D01*
X7085000Y1070500D01*
X7087000Y1057000D01*
X7090000Y1048000D01*
X7096000Y1039000D01*
X7103000Y1033000D01*
X7110000Y1030000D01*
X7117000D01*
X7124000Y1033000D01*
X7130000Y1037500D01*
X7135000Y1043500D01*
G01X7158000Y1048000D02*
X7164000Y1037500D01*
X7172000Y1031500D01*
X7181000Y1030000D01*
X7189000Y1031500D01*
X7197000Y1039000D01*
X7202000Y1048000D01*
X7203000Y1057000D01*
X7201000Y1067500D01*
X7194000Y1075000D01*
X7187000Y1078000D01*
X7178000D01*
G01X7187000D02*
X7193000Y1082500D01*
X7198000Y1090000D01*
X7200000Y1099000D01*
X7198000Y1108000D01*
X7193000Y1115500D01*
X7184000Y1120000D01*
X7175000Y1118500D01*
X7166000Y1112500D01*
G01X7040000Y900000D02*
X7032000Y901500D01*
X7025000Y907500D01*
X7019000Y916500D01*
X7015000Y927000D01*
X7013000Y939000D01*
Y951000D01*
X7015000Y963000D01*
X7019000Y973500D01*
X7025000Y982500D01*
X7032000Y988500D01*
X7040000Y990000D01*
X7048000Y988500D01*
X7055000Y982500D01*
X7061000Y973500D01*
X7065000Y963000D01*
X7067000Y951000D01*
Y939000D01*
X7065000Y927000D01*
X7061000Y916500D01*
X7055000Y907500D01*
X7048000Y901500D01*
X7040000Y900000D01*
G01X7088000Y990000D02*
Y925500D01*
X7092000Y912000D01*
X7100000Y903000D01*
X7110000Y900000D01*
X7120000Y903000D01*
X7128000Y912000D01*
X7132000Y925500D01*
Y990000D01*
G01X7180000D02*
Y900000D01*
G01X7157000Y990000D02*
X7203000D01*
G01X7117000Y3420000D02*
Y3510000D01*
X7163000Y3420000D01*
Y3510000D01*
G01X7210000D02*
Y3420000D01*
G01X7187000Y3510000D02*
X7233000D01*
G01X7302000Y3502500D02*
X7296000Y3507000D01*
X7289000Y3510000D01*
X7281000D01*
X7272000Y3505500D01*
X7265000Y3498000D01*
X7260000Y3489000D01*
X7256000Y3474000D01*
X7255000Y3460500D01*
X7257000Y3447000D01*
X7260000Y3438000D01*
X7266000Y3429000D01*
X7273000Y3423000D01*
X7280000Y3420000D01*
X7287000D01*
X7294000Y3423000D01*
X7300000Y3427500D01*
X7305000Y3433500D01*
G01X7350000Y3420000D02*
Y3510000D01*
X7338000Y3492000D01*
G01Y3420000D02*
X7362000D01*
G01X7160000Y3290000D02*
Y3380000D01*
X7148000Y3362000D01*
G01Y3290000D02*
X7172000D01*
G01X7230000Y3380000D02*
X7222000Y3377000D01*
X7216000Y3369500D01*
X7212000Y3360500D01*
X7209000Y3348500D01*
X7208000Y3335000D01*
X7209000Y3321500D01*
X7212000Y3309500D01*
X7216000Y3300500D01*
X7222000Y3293000D01*
X7230000Y3290000D01*
X7238000Y3293000D01*
X7244000Y3300500D01*
X7248000Y3309500D01*
X7251000Y3321500D01*
X7252000Y3335000D01*
X7251000Y3348500D01*
X7248000Y3360500D01*
X7244000Y3369500D01*
X7238000Y3377000D01*
X7230000Y3380000D01*
G01X7278000Y3290000D02*
Y3380000D01*
G01X7316000D02*
X7278000Y3324500D01*
G01X7322000Y3290000D02*
X7295000Y3350000D01*
G54D14*
G01X2369520Y153500D02*
X2433020Y90000D01*
X2369520Y26500D01*
Y153500D01*
X2387300Y135720D01*
Y51900D01*
X2400000Y64600D01*
Y115400D01*
X2412700Y102700D01*
Y77300D01*
G01X2869520Y153500D02*
X2933020Y90000D01*
X2869520Y26500D01*
Y153500D01*
X2887300Y135720D01*
Y51900D01*
X2900000Y64600D01*
Y115400D01*
X2912700Y102700D01*
Y77300D01*
G01X3259520Y153500D02*
X3323020Y90000D01*
X3259520Y26500D01*
Y153500D01*
X3277300Y135720D01*
Y51900D01*
X3290000Y64600D01*
Y115400D01*
X3302700Y102700D01*
Y77300D01*
G01X3649520Y153500D02*
X3713020Y90000D01*
X3649520Y26500D01*
Y153500D01*
X3667300Y135720D01*
Y51900D01*
X3680000Y64600D01*
Y115400D01*
X3692700Y102700D01*
Y77300D01*
G01X4039520Y153500D02*
X4103020Y90000D01*
X4039520Y26500D01*
Y153500D01*
X4057300Y135720D01*
Y51900D01*
X4070000Y64600D01*
Y115400D01*
X4082700Y102700D01*
Y77300D01*
M02*
