G04 ================== begin FILE IDENTIFICATION RECORD ==================*
G04 Layout Name:  HY_POWERBANK_V10_250816.brd*
G04 Film Name:    SolderMask_Bottom*
G04 File Format:  Gerber RS274X*
G04 File Origin:  Cadence Allegro 24.1-S006*
G04 Origin Date:  Sat Aug 16 13:33:42 2025*
G04 *
G04 Layer:  PIN/SOLDERMASK_BOTTOM*
G04 Layer:  PACKAGE GEOMETRY/SOLDERMASK_BOTTOM*
G04 Layer:  BOARD GEOMETRY/SOLDERMASK_BOTTOM*
G04 *
G04 Offset:    (0.0000 0.0000)*
G04 Mirror:    No*
G04 Mode:      Positive*
G04 Rotation:  0*
G04 FullContactRelief:  No*
G04 UndefLineWidth:     0.1524*
G04 ================== end FILE IDENTIFICATION RECORD ====================*
%FSLAX55Y55*MOMM*%
%IR0*IPPOS*OFA0.00000B0.00000*MIA0B0*SFA1.00000B1.00000*%
%ADD16O,1.1X2.2*%
%ADD15O,1.1X1.7*%
%ADD17O,1.3X2.5*%
%ADD14C,2.3*%
%ADD12C,1.4*%
%ADD11C,7.*%
%ADD13C,1.7*%
%ADD10C,2.6*%
%ADD19C,1.9*%
%ADD18R,1.9X1.9*%
G75*
%LPD*%
G75*
G36*
G01X100000Y3950000D02*
Y50000D01*
X50000D01*
Y3950000D01*
X100000D01*
G37*
G36*
G01X4320000Y1950000D02*
Y1310000D01*
X4960000D01*
Y1950000D01*
X4320000D01*
G37*
G36*
G01X8600000Y3950000D02*
Y50000D01*
X8550000D01*
Y3950000D01*
X8600000D01*
G37*
G54D10*
X235000Y520000D03*
Y1020000D03*
X1005000Y520000D03*
Y1020000D03*
X7645000Y520000D03*
Y1020000D03*
X8415000Y520000D03*
Y1020000D03*
G54D11*
X620000Y770000D03*
Y3570000D03*
X1420000D03*
X2420000D03*
X8030000Y770000D03*
Y3570000D03*
G54D12*
X1593000Y90000D03*
X1847000D03*
G54D13*
X1495000Y450000D03*
X1945000D03*
G54D14*
X1370000Y700000D03*
X2070000D03*
G54D15*
X4498000Y108000D03*
X5362000D03*
G54D16*
X4498000Y526000D03*
X5362000D03*
G54D17*
X5885000Y105000D03*
X7175000D03*
G54D18*
X7110000Y3720000D03*
G54D19*
X7364000D03*
M02*
